<?xml version="1.0" standalone="yes"?>
<svg width="32" height="32">
<path style="fill:#ffffff; stroke:none;" d="M0 0L0 32L32 32L32 0L0 0z"/>
<path style="fill:#000000; stroke:none;" d="M2 3L2 28L31 28L31 27L3 27L2 3z"/>
<path style="fill:#00ffff; stroke:none;" d="M20 5L14 17L13 17L10 10L3 14L9 11L13 19L14 19L20 8L21 8L23 13L24 13L20 5z"/>
<path style="fill:#0026ff; stroke:none;" d="M12 7L13 17L14 17L15 7L12 7z"/>
<path style="fill:#ffffff; stroke:none;" d="M20 8C15.6285 14.5573 15 18.613 15 27L16 27L16 16L19 16L19 27L20 27C20 22.4396 18.0921 13.818 23 13L20 8z"/>
<path style="fill:#ff0000; stroke:none;" d="M4 12L7 11C5.52094 9.52094 4.53466 9.3267 4 12z"/>
<path style="fill:#ffffff; stroke:none;" d="M7 11L7 27L8 27L10 15L7 11z"/>
<path style="fill:#ff0000; stroke:none;" d="M5 12L4 27L7 27L7 12L5 12z"/>
<path style="fill:#ff00dc; stroke:none;" d="M20 13L20 27L23 27L23 13L20 13z"/>
<path style="fill:#00ffff; stroke:none;" d="M24 13L25 14L24 13z"/>
<path style="fill:#ffffff; stroke:none;" d="M3 14L3 27L4 27L3 14z"/>
<path style="fill:#00ffff; stroke:none;" d="M25 14L26 16L25 14z"/>
<path style="fill:#4cff00; stroke:none;" d="M8 15L8 27L11 27L11 15L8 15z"/>
<path style="fill:#ffffff; stroke:none;" d="M11 16L11 27L12 27L11 16z"/>
<path style="fill:#ffd800; stroke:none;" d="M16 16L16 27L19 27L19 16L16 16z"/>
<path style="fill:#00ffff; stroke:none;" d="M26 16L27 18L26 16z"/>
<path style="fill:#0026ff; stroke:none;" d="M12 18L12 27L15 27L15 18L12 18z"/>
<path style="fill:#00ffff; stroke:none;" d="M27 18L28 19L27 18M28 19L29 21L28 19z"/>
<path style="fill:#ff6a00; stroke:none;" d="M24 20L24 27L27 27L27 20L24 20z"/>
<path style="fill:#00ffff; stroke:none;" d="M29 21L30 22L29 21z"/>
</svg>
