<?xml version="1.0" encoding="utf-8" ?>
<svg baseProfile="full" height="128px" version="1.1" width="128px" xmlns="http://www.w3.org/2000/svg" xmlns:ev="http://www.w3.org/2001/xml-events" xmlns:xlink="http://www.w3.org/1999/xlink"><defs /><rect fill="rgb(255,0,0)" height="5px" opacity="0.176470588235" width="5px" x="60px" y="4px" /><rect fill="rgb(255,0,0)" height="5px" opacity="0.219607843137" width="5px" x="64px" y="4px" /><rect fill="rgb(255,0,0)" height="5px" opacity="0.160784313725" width="5px" x="56px" y="8px" /><rect fill="rgb(255,0,0)" height="5px" opacity="0.8" width="5px" x="60px" y="8px" /><rect fill="rgb(255,0,0)" height="5px" opacity="0.803921568627" width="5px" x="64px" y="8px" /><rect fill="rgb(255,0,0)" height="5px" opacity="0.18431372549" width="5px" x="68px" y="8px" /><rect fill="rgb(255,0,0)" height="5px" opacity="0.266666666667" width="5px" x="56px" y="12px" /><rect fill="rgb(255,0,0)" height="5px" opacity="0.980392156863" width="5px" x="60px" y="12px" /><rect fill="rgb(255,0,0)" height="5px" opacity="0.945098039216" width="5px" x="64px" y="12px" /><rect fill="rgb(255,0,0)" height="5px" opacity="0.21568627451" width="5px" x="68px" y="12px" /><rect fill="rgb(255,0,0)" height="5px" opacity="0.0588235294118" width="5px" x="52px" y="16px" /><rect fill="rgb(255,0,0)" height="5px" opacity="0.725490196078" width="5px" x="56px" y="16px" /><rect fill="rgb(255,0,0)" height="5px" width="5px" x="60px" y="16px" /><rect fill="rgb(255,0,0)" height="5px" width="5px" x="64px" y="16px" /><rect fill="rgb(255,0,0)" height="5px" opacity="0.776470588235" width="5px" x="68px" y="16px" /><rect fill="rgb(255,0,0)" height="5px" opacity="0.133333333333" width="5px" x="52px" y="20px" /><rect fill="rgb(255,0,0)" height="5px" opacity="0.866666666667" width="5px" x="56px" y="20px" /><rect fill="rgb(255,0,0)" height="5px" width="5px" x="60px" y="20px" /><rect fill="rgb(255,0,0)" height="5px" width="5px" x="64px" y="20px" /><rect fill="rgb(255,0,0)" height="5px" opacity="0.909803921569" width="5px" x="68px" y="20px" /><rect fill="rgb(255,0,0)" height="5px" opacity="0.262745098039" width="5px" x="72px" y="20px" /><rect fill="rgb(255,0,0)" height="5px" opacity="0.0117647058824" width="5px" x="48px" y="24px" /><rect fill="rgb(255,0,0)" height="5px" opacity="0.56862745098" width="5px" x="52px" y="24px" /><rect fill="rgb(255,0,0)" height="5px" width="5px" x="56px" y="24px" /><rect fill="rgb(255,0,0)" height="5px" width="5px" x="60px" y="24px" /><rect fill="rgb(255,0,0)" height="5px" width="5px" x="64px" y="24px" /><rect fill="rgb(255,0,0)" height="5px" width="5px" x="68px" y="24px" /><rect fill="rgb(255,0,0)" height="5px" opacity="0.345098039216" width="5px" x="72px" y="24px" /><rect fill="rgb(255,0,0)" height="5px" opacity="0.0470588235294" width="5px" x="48px" y="28px" /><rect fill="rgb(255,0,0)" height="5px" opacity="0.729411764706" width="5px" x="52px" y="28px" /><rect fill="rgb(255,0,0)" height="5px" width="5px" x="56px" y="28px" /><rect fill="rgb(255,0,0)" height="5px" width="5px" x="60px" y="28px" /><rect fill="rgb(255,0,0)" height="5px" width="5px" x="64px" y="28px" /><rect fill="rgb(255,0,0)" height="5px" width="5px" x="68px" y="28px" /><rect fill="rgb(255,0,0)" height="5px" width="5px" x="72px" y="28px" /><rect fill="rgb(255,0,0)" height="5px" opacity="0.129411764706" width="5px" x="76px" y="28px" /><rect fill="rgb(255,0,0)" height="5px" opacity="0.392156862745" width="5px" x="48px" y="32px" /><rect fill="rgb(255,0,0)" height="5px" width="5px" x="52px" y="32px" /><rect fill="rgb(255,0,0)" height="5px" width="5px" x="56px" y="32px" /><rect fill="rgb(255,0,0)" height="5px" width="5px" x="60px" y="32px" /><rect fill="rgb(255,0,0)" height="5px" width="5px" x="64px" y="32px" /><rect fill="rgb(255,0,0)" height="5px" width="5px" x="68px" y="32px" /><rect fill="rgb(255,0,0)" height="5px" opacity="0.945098039216" width="5px" x="72px" y="32px" /><rect fill="rgb(255,0,0)" height="5px" opacity="0.317647058824" width="5px" x="76px" y="32px" /><rect fill="rgb(255,1,0)" height="5px" opacity="0.00392156862745" width="5px" x="84px" y="32px" /><rect fill="rgb(255,0,0)" height="5px" opacity="0.0196078431373" width="5px" x="44px" y="36px" /><rect fill="rgb(255,0,0)" height="5px" opacity="0.552941176471" width="5px" x="48px" y="36px" /><rect fill="rgb(255,0,0)" height="5px" width="5px" x="52px" y="36px" /><rect fill="rgb(255,0,0)" height="5px" width="5px" x="56px" y="36px" /><rect fill="rgb(255,0,0)" height="5px" width="5px" x="60px" y="36px" /><rect fill="rgb(255,0,0)" height="5px" width="5px" x="64px" y="36px" /><rect fill="rgb(255,0,0)" height="5px" width="5px" x="68px" y="36px" /><rect fill="rgb(255,0,0)" height="5px" width="5px" x="72px" y="36px" /><rect fill="rgb(255,0,0)" height="5px" opacity="0.576470588235" width="5px" x="76px" y="36px" /><rect fill="rgb(255,0,0)" height="5px" opacity="0.152941176471" width="5px" x="8px" y="40px" /><rect fill="rgb(255,0,0)" height="5px" opacity="0.078431372549" width="5px" x="12px" y="40px" /><rect fill="rgb(255,0,0)" height="5px" opacity="0.0745098039216" width="5px" x="16px" y="40px" /><rect fill="rgb(255,0,0)" height="5px" opacity="0.176470588235" width="5px" x="20px" y="40px" /><rect fill="rgb(255,0,0)" height="5px" opacity="0.258823529412" width="5px" x="24px" y="40px" /><rect fill="rgb(255,0,0)" height="5px" opacity="0.439215686275" width="5px" x="28px" y="40px" /><rect fill="rgb(255,0,0)" height="5px" opacity="0.392156862745" width="5px" x="32px" y="40px" /><rect fill="rgb(255,0,0)" height="5px" opacity="0.360784313725" width="5px" x="36px" y="40px" /><rect fill="rgb(255,0,0)" height="5px" opacity="0.43137254902" width="5px" x="40px" y="40px" /><rect fill="rgb(255,0,0)" height="5px" opacity="0.505882352941" width="5px" x="44px" y="40px" /><rect fill="rgb(255,0,0)" height="5px" width="5px" x="48px" y="40px" /><rect fill="rgb(255,0,0)" height="5px" width="5px" x="52px" y="40px" /><rect fill="rgb(255,0,0)" height="5px" width="5px" x="56px" y="40px" /><rect fill="rgb(255,0,0)" height="5px" width="5px" x="60px" y="40px" /><rect fill="rgb(255,0,0)" height="5px" width="5px" x="64px" y="40px" /><rect fill="rgb(255,0,0)" height="5px" width="5px" x="68px" y="40px" /><rect fill="rgb(255,0,0)" height="5px" width="5px" x="72px" y="40px" /><rect fill="rgb(255,0,0)" height="5px" width="5px" x="76px" y="40px" /><rect fill="rgb(255,0,0)" height="5px" opacity="0.572549019608" width="5px" x="80px" y="40px" /><rect fill="rgb(255,0,0)" height="5px" opacity="0.388235294118" width="5px" x="84px" y="40px" /><rect fill="rgb(255,0,0)" height="5px" opacity="0.349019607843" width="5px" x="88px" y="40px" /><rect fill="rgb(255,0,0)" height="5px" opacity="0.278431372549" width="5px" x="92px" y="40px" /><rect fill="rgb(255,0,0)" height="5px" opacity="0.247058823529" width="5px" x="96px" y="40px" /><rect fill="rgb(255,0,0)" height="5px" opacity="0.235294117647" width="5px" x="100px" y="40px" /><rect fill="rgb(255,0,0)" height="5px" opacity="0.164705882353" width="5px" x="104px" y="40px" /><rect fill="rgb(255,0,0)" height="5px" opacity="0.117647058824" width="5px" x="108px" y="40px" /><rect fill="rgb(255,0,0)" height="5px" opacity="0.156862745098" width="5px" x="112px" y="40px" /><rect fill="rgb(255,0,0)" height="5px" opacity="0.164705882353" width="5px" x="4px" y="44px" /><rect fill="rgb(255,0,0)" height="5px" opacity="0.635294117647" width="5px" x="8px" y="44px" /><rect fill="rgb(255,0,0)" height="5px" opacity="0.886274509804" width="5px" x="12px" y="44px" /><rect fill="rgb(255,0,0)" height="5px" opacity="0.8" width="5px" x="16px" y="44px" /><rect fill="rgb(255,0,0)" height="5px" opacity="0.913725490196" width="5px" x="20px" y="44px" /><rect fill="rgb(255,0,0)" height="5px" opacity="0.96862745098" width="5px" x="24px" y="44px" /><rect fill="rgb(255,0,0)" height="5px" width="5px" x="28px" y="44px" /><rect fill="rgb(255,0,0)" height="5px" width="5px" x="32px" y="44px" /><rect fill="rgb(255,0,0)" height="5px" opacity="0.992156862745" width="5px" x="36px" y="44px" /><rect fill="rgb(255,0,0)" height="5px" opacity="0.976470588235" width="5px" x="40px" y="44px" /><rect fill="rgb(255,0,0)" height="5px" width="5px" x="44px" y="44px" /><rect fill="rgb(255,0,0)" height="5px" width="5px" x="48px" y="44px" /><rect fill="rgb(255,0,0)" height="5px" width="5px" x="52px" y="44px" /><rect fill="rgb(255,0,0)" height="5px" width="5px" x="56px" y="44px" /><rect fill="rgb(255,0,0)" height="5px" width="5px" x="60px" y="44px" /><rect fill="rgb(255,0,0)" height="5px" width="5px" x="64px" y="44px" /><rect fill="rgb(255,0,0)" height="5px" width="5px" x="68px" y="44px" /><rect fill="rgb(255,0,0)" height="5px" width="5px" x="72px" y="44px" /><rect fill="rgb(255,0,0)" height="5px" width="5px" x="76px" y="44px" /><rect fill="rgb(255,0,0)" height="5px" width="5px" x="80px" y="44px" /><rect fill="rgb(255,0,0)" height="5px" width="5px" x="84px" y="44px" /><rect fill="rgb(255,0,0)" height="5px" opacity="0.976470588235" width="5px" x="88px" y="44px" /><rect fill="rgb(255,0,0)" height="5px" width="5px" x="92px" y="44px" /><rect fill="rgb(255,0,0)" height="5px" opacity="0.976470588235" width="5px" x="96px" y="44px" /><rect fill="rgb(255,0,0)" height="5px" opacity="0.913725490196" width="5px" x="100px" y="44px" /><rect fill="rgb(255,0,0)" height="5px" opacity="0.917647058824" width="5px" x="104px" y="44px" /><rect fill="rgb(255,0,0)" height="5px" opacity="0.913725490196" width="5px" x="108px" y="44px" /><rect fill="rgb(255,0,0)" height="5px" opacity="0.717647058824" width="5px" x="112px" y="44px" /><rect fill="rgb(255,0,0)" height="5px" opacity="0.313725490196" width="5px" x="116px" y="44px" /><rect fill="rgb(255,0,0)" height="5px" opacity="0.0941176470588" width="5px" x="120px" y="44px" /><rect fill="rgb(255,0,0)" height="5px" opacity="0.0078431372549" width="5px" x="4px" y="48px" /><rect fill="rgb(255,0,0)" height="5px" opacity="0.596078431373" width="5px" x="8px" y="48px" /><rect fill="rgb(255,0,0)" height="5px" opacity="0.850980392157" width="5px" x="12px" y="48px" /><rect fill="rgb(255,0,0)" height="5px" width="5px" x="16px" y="48px" /><rect fill="rgb(255,0,0)" height="5px" width="5px" x="20px" y="48px" /><rect fill="rgb(255,0,0)" height="5px" width="5px" x="24px" y="48px" /><rect fill="rgb(255,0,0)" height="5px" opacity="0.996078431373" width="5px" x="28px" y="48px" /><rect fill="rgb(255,0,0)" height="5px" width="5px" x="32px" y="48px" /><rect fill="rgb(255,0,0)" height="5px" width="5px" x="36px" y="48px" /><rect fill="rgb(255,0,0)" height="5px" width="5px" x="40px" y="48px" /><rect fill="rgb(255,0,0)" height="5px" width="5px" x="44px" y="48px" /><rect fill="rgb(255,0,0)" height="5px" width="5px" x="48px" y="48px" /><rect fill="rgb(255,0,0)" height="5px" width="5px" x="52px" y="48px" /><rect fill="rgb(255,0,0)" height="5px" width="5px" x="56px" y="48px" /><rect fill="rgb(255,0,0)" height="5px" width="5px" x="60px" y="48px" /><rect fill="rgb(255,0,0)" height="5px" width="5px" x="64px" y="48px" /><rect fill="rgb(255,0,0)" height="5px" width="5px" x="68px" y="48px" /><rect fill="rgb(255,0,0)" height="5px" width="5px" x="72px" y="48px" /><rect fill="rgb(255,0,0)" height="5px" width="5px" x="76px" y="48px" /><rect fill="rgb(255,0,0)" height="5px" width="5px" x="80px" y="48px" /><rect fill="rgb(255,0,0)" height="5px" width="5px" x="84px" y="48px" /><rect fill="rgb(255,0,0)" height="5px" opacity="0.996078431373" width="5px" x="88px" y="48px" /><rect fill="rgb(255,0,0)" height="5px" width="5px" x="92px" y="48px" /><rect fill="rgb(255,0,0)" height="5px" width="5px" x="96px" y="48px" /><rect fill="rgb(255,0,0)" height="5px" width="5px" x="100px" y="48px" /><rect fill="rgb(255,0,0)" height="5px" width="5px" x="104px" y="48px" /><rect fill="rgb(255,0,0)" height="5px" width="5px" x="108px" y="48px" /><rect fill="rgb(255,0,0)" height="5px" opacity="0.8" width="5px" x="112px" y="48px" /><rect fill="rgb(255,0,0)" height="5px" opacity="0.164705882353" width="5px" x="116px" y="48px" /><rect fill="rgb(255,0,0)" height="5px" opacity="0.0509803921569" width="5px" x="120px" y="48px" /><rect fill="rgb(255,0,0)" height="5px" opacity="0.0313725490196" width="5px" x="8px" y="52px" /><rect fill="rgb(255,0,0)" height="5px" opacity="0.21568627451" width="5px" x="12px" y="52px" /><rect fill="rgb(255,0,0)" height="5px" opacity="0.670588235294" width="5px" x="16px" y="52px" /><rect fill="rgb(255,0,0)" height="5px" width="5px" x="20px" y="52px" /><rect fill="rgb(255,0,0)" height="5px" width="5px" x="24px" y="52px" /><rect fill="rgb(255,0,0)" height="5px" width="5px" x="28px" y="52px" /><rect fill="rgb(255,0,0)" height="5px" width="5px" x="32px" y="52px" /><rect fill="rgb(255,0,0)" height="5px" width="5px" x="36px" y="52px" /><rect fill="rgb(255,0,0)" height="5px" width="5px" x="40px" y="52px" /><rect fill="rgb(255,0,0)" height="5px" width="5px" x="44px" y="52px" /><rect fill="rgb(255,0,0)" height="5px" width="5px" x="48px" y="52px" /><rect fill="rgb(255,0,0)" height="5px" width="5px" x="52px" y="52px" /><rect fill="rgb(255,0,0)" height="5px" width="5px" x="56px" y="52px" /><rect fill="rgb(255,0,0)" height="5px" width="5px" x="60px" y="52px" /><rect fill="rgb(255,0,0)" height="5px" width="5px" x="64px" y="52px" /><rect fill="rgb(255,0,0)" height="5px" width="5px" x="68px" y="52px" /><rect fill="rgb(255,0,0)" height="5px" width="5px" x="72px" y="52px" /><rect fill="rgb(255,0,0)" height="5px" width="5px" x="76px" y="52px" /><rect fill="rgb(255,0,0)" height="5px" width="5px" x="80px" y="52px" /><rect fill="rgb(255,0,0)" height="5px" width="5px" x="84px" y="52px" /><rect fill="rgb(255,0,0)" height="5px" width="5px" x="88px" y="52px" /><rect fill="rgb(255,0,0)" height="5px" width="5px" x="92px" y="52px" /><rect fill="rgb(255,0,0)" height="5px" width="5px" x="96px" y="52px" /><rect fill="rgb(255,0,0)" height="5px" width="5px" x="100px" y="52px" /><rect fill="rgb(255,0,0)" height="5px" width="5px" x="104px" y="52px" /><rect fill="rgb(255,0,0)" height="5px" opacity="0.741176470588" width="5px" x="108px" y="52px" /><rect fill="rgb(255,0,0)" height="5px" opacity="0.0117647058824" width="5px" x="112px" y="52px" /><rect fill="rgb(255,0,0)" height="5px" opacity="0.00392156862745" width="5px" x="12px" y="56px" /><rect fill="rgb(255,0,0)" height="5px" opacity="0.705882352941" width="5px" x="20px" y="56px" /><rect fill="rgb(255,0,0)" height="5px" width="5px" x="24px" y="56px" /><rect fill="rgb(255,0,0)" height="5px" width="5px" x="28px" y="56px" /><rect fill="rgb(255,0,0)" height="5px" width="5px" x="32px" y="56px" /><rect fill="rgb(255,0,0)" height="5px" width="5px" x="36px" y="56px" /><rect fill="rgb(255,0,0)" height="5px" width="5px" x="40px" y="56px" /><rect fill="rgb(255,0,0)" height="5px" width="5px" x="44px" y="56px" /><rect fill="rgb(255,0,0)" height="5px" width="5px" x="48px" y="56px" /><rect fill="rgb(255,0,0)" height="5px" width="5px" x="52px" y="56px" /><rect fill="rgb(255,0,0)" height="5px" width="5px" x="56px" y="56px" /><rect fill="rgb(255,0,0)" height="5px" width="5px" x="60px" y="56px" /><rect fill="rgb(255,0,0)" height="5px" width="5px" x="64px" y="56px" /><rect fill="rgb(255,0,0)" height="5px" width="5px" x="68px" y="56px" /><rect fill="rgb(255,0,0)" height="5px" width="5px" x="72px" y="56px" /><rect fill="rgb(255,0,0)" height="5px" width="5px" x="76px" y="56px" /><rect fill="rgb(255,0,0)" height="5px" width="5px" x="80px" y="56px" /><rect fill="rgb(255,0,0)" height="5px" width="5px" x="84px" y="56px" /><rect fill="rgb(255,0,0)" height="5px" width="5px" x="88px" y="56px" /><rect fill="rgb(255,0,0)" height="5px" width="5px" x="92px" y="56px" /><rect fill="rgb(255,0,0)" height="5px" width="5px" x="96px" y="56px" /><rect fill="rgb(255,0,0)" height="5px" width="5px" x="100px" y="56px" /><rect fill="rgb(255,0,0)" height="5px" opacity="0.650980392157" width="5px" x="104px" y="56px" /><rect fill="rgb(255,1,0)" height="5px" opacity="0.00392156862745" width="5px" x="20px" y="60px" /><rect fill="rgb(255,0,0)" height="5px" opacity="0.796078431373" width="5px" x="24px" y="60px" /><rect fill="rgb(255,0,0)" height="5px" width="5px" x="28px" y="60px" /><rect fill="rgb(255,0,0)" height="5px" width="5px" x="32px" y="60px" /><rect fill="rgb(255,0,0)" height="5px" width="5px" x="36px" y="60px" /><rect fill="rgb(255,0,0)" height="5px" width="5px" x="40px" y="60px" /><rect fill="rgb(255,0,0)" height="5px" width="5px" x="44px" y="60px" /><rect fill="rgb(255,0,0)" height="5px" width="5px" x="48px" y="60px" /><rect fill="rgb(255,0,0)" height="5px" width="5px" x="52px" y="60px" /><rect fill="rgb(255,0,0)" height="5px" width="5px" x="56px" y="60px" /><rect fill="rgb(255,0,0)" height="5px" width="5px" x="60px" y="60px" /><rect fill="rgb(255,0,0)" height="5px" width="5px" x="64px" y="60px" /><rect fill="rgb(255,0,0)" height="5px" width="5px" x="68px" y="60px" /><rect fill="rgb(255,0,0)" height="5px" width="5px" x="72px" y="60px" /><rect fill="rgb(255,0,0)" height="5px" width="5px" x="76px" y="60px" /><rect fill="rgb(255,0,0)" height="5px" width="5px" x="80px" y="60px" /><rect fill="rgb(255,0,0)" height="5px" width="5px" x="84px" y="60px" /><rect fill="rgb(255,0,0)" height="5px" width="5px" x="88px" y="60px" /><rect fill="rgb(255,0,0)" height="5px" width="5px" x="92px" y="60px" /><rect fill="rgb(255,0,0)" height="5px" width="5px" x="96px" y="60px" /><rect fill="rgb(255,0,0)" height="5px" opacity="0.552941176471" width="5px" x="100px" y="60px" /><rect fill="rgb(255,0,0)" height="5px" opacity="0.0509803921569" width="5px" x="24px" y="64px" /><rect fill="rgb(255,0,0)" height="5px" opacity="0.843137254902" width="5px" x="28px" y="64px" /><rect fill="rgb(255,0,0)" height="5px" opacity="0.952941176471" width="5px" x="32px" y="64px" /><rect fill="rgb(255,0,0)" height="5px" width="5px" x="36px" y="64px" /><rect fill="rgb(255,0,0)" height="5px" width="5px" x="40px" y="64px" /><rect fill="rgb(255,0,0)" height="5px" width="5px" x="44px" y="64px" /><rect fill="rgb(255,0,0)" height="5px" width="5px" x="48px" y="64px" /><rect fill="rgb(255,0,0)" height="5px" width="5px" x="52px" y="64px" /><rect fill="rgb(255,0,0)" height="5px" width="5px" x="56px" y="64px" /><rect fill="rgb(255,0,0)" height="5px" width="5px" x="60px" y="64px" /><rect fill="rgb(255,0,0)" height="5px" width="5px" x="64px" y="64px" /><rect fill="rgb(255,0,0)" height="5px" width="5px" x="68px" y="64px" /><rect fill="rgb(255,0,0)" height="5px" width="5px" x="72px" y="64px" /><rect fill="rgb(255,0,0)" height="5px" width="5px" x="76px" y="64px" /><rect fill="rgb(255,0,0)" height="5px" width="5px" x="80px" y="64px" /><rect fill="rgb(255,0,0)" height="5px" width="5px" x="84px" y="64px" /><rect fill="rgb(255,0,0)" height="5px" width="5px" x="88px" y="64px" /><rect fill="rgb(255,0,0)" height="5px" width="5px" x="92px" y="64px" /><rect fill="rgb(255,0,0)" height="5px" opacity="0.454901960784" width="5px" x="96px" y="64px" /><rect fill="rgb(255,0,0)" height="5px" opacity="0.0862745098039" width="5px" x="28px" y="68px" /><rect fill="rgb(255,0,0)" height="5px" opacity="0.43137254902" width="5px" x="32px" y="68px" /><rect fill="rgb(255,0,0)" height="5px" opacity="0.83137254902" width="5px" x="36px" y="68px" /><rect fill="rgb(255,0,0)" height="5px" width="5px" x="40px" y="68px" /><rect fill="rgb(255,0,0)" height="5px" width="5px" x="44px" y="68px" /><rect fill="rgb(255,0,0)" height="5px" width="5px" x="48px" y="68px" /><rect fill="rgb(255,0,0)" height="5px" width="5px" x="52px" y="68px" /><rect fill="rgb(255,0,0)" height="5px" width="5px" x="56px" y="68px" /><rect fill="rgb(255,0,0)" height="5px" width="5px" x="60px" y="68px" /><rect fill="rgb(255,0,0)" height="5px" width="5px" x="64px" y="68px" /><rect fill="rgb(255,0,0)" height="5px" width="5px" x="68px" y="68px" /><rect fill="rgb(255,0,0)" height="5px" width="5px" x="72px" y="68px" /><rect fill="rgb(255,0,0)" height="5px" width="5px" x="76px" y="68px" /><rect fill="rgb(255,0,0)" height="5px" width="5px" x="80px" y="68px" /><rect fill="rgb(255,0,0)" height="5px" width="5px" x="84px" y="68px" /><rect fill="rgb(255,0,0)" height="5px" width="5px" x="88px" y="68px" /><rect fill="rgb(255,0,0)" height="5px" opacity="0.352941176471" width="5px" x="92px" y="68px" /><rect fill="rgb(255,0,0)" height="5px" opacity="0.0352941176471" width="5px" x="32px" y="72px" /><rect fill="rgb(255,0,0)" height="5px" opacity="0.627450980392" width="5px" x="36px" y="72px" /><rect fill="rgb(255,0,0)" height="5px" opacity="0.988235294118" width="5px" x="40px" y="72px" /><rect fill="rgb(255,0,0)" height="5px" width="5px" x="44px" y="72px" /><rect fill="rgb(255,0,0)" height="5px" width="5px" x="48px" y="72px" /><rect fill="rgb(255,0,0)" height="5px" width="5px" x="52px" y="72px" /><rect fill="rgb(255,0,0)" height="5px" width="5px" x="56px" y="72px" /><rect fill="rgb(255,0,0)" height="5px" width="5px" x="60px" y="72px" /><rect fill="rgb(255,0,0)" height="5px" width="5px" x="64px" y="72px" /><rect fill="rgb(255,0,0)" height="5px" width="5px" x="68px" y="72px" /><rect fill="rgb(255,0,0)" height="5px" width="5px" x="72px" y="72px" /><rect fill="rgb(255,0,0)" height="5px" width="5px" x="76px" y="72px" /><rect fill="rgb(255,0,0)" height="5px" width="5px" x="80px" y="72px" /><rect fill="rgb(255,0,0)" height="5px" width="5px" x="84px" y="72px" /><rect fill="rgb(255,0,0)" height="5px" opacity="0.560784313725" width="5px" x="88px" y="72px" /><rect fill="rgb(255,0,0)" height="5px" opacity="0.0078431372549" width="5px" x="32px" y="76px" /><rect fill="rgb(255,0,0)" height="5px" opacity="0.807843137255" width="5px" x="36px" y="76px" /><rect fill="rgb(255,0,0)" height="5px" width="5px" x="40px" y="76px" /><rect fill="rgb(255,0,0)" height="5px" width="5px" x="44px" y="76px" /><rect fill="rgb(255,0,0)" height="5px" width="5px" x="48px" y="76px" /><rect fill="rgb(255,0,0)" height="5px" width="5px" x="52px" y="76px" /><rect fill="rgb(255,0,0)" height="5px" width="5px" x="56px" y="76px" /><rect fill="rgb(255,0,0)" height="5px" width="5px" x="60px" y="76px" /><rect fill="rgb(255,0,0)" height="5px" width="5px" x="64px" y="76px" /><rect fill="rgb(255,0,0)" height="5px" width="5px" x="68px" y="76px" /><rect fill="rgb(255,0,0)" height="5px" width="5px" x="72px" y="76px" /><rect fill="rgb(255,0,0)" height="5px" width="5px" x="76px" y="76px" /><rect fill="rgb(255,0,0)" height="5px" width="5px" x="80px" y="76px" /><rect fill="rgb(255,0,0)" height="5px" width="5px" x="84px" y="76px" /><rect fill="rgb(255,0,0)" height="5px" opacity="0.858823529412" width="5px" x="88px" y="76px" /><rect fill="rgb(255,0,0)" height="5px" opacity="0.0980392156863" width="5px" x="92px" y="76px" /><rect fill="rgb(255,0,0)" height="5px" opacity="0.270588235294" width="5px" x="32px" y="80px" /><rect fill="rgb(255,0,0)" height="5px" opacity="0.929411764706" width="5px" x="36px" y="80px" /><rect fill="rgb(255,0,0)" height="5px" width="5px" x="40px" y="80px" /><rect fill="rgb(255,0,0)" height="5px" width="5px" x="44px" y="80px" /><rect fill="rgb(255,0,0)" height="5px" width="5px" x="48px" y="80px" /><rect fill="rgb(255,0,0)" height="5px" width="5px" x="52px" y="80px" /><rect fill="rgb(255,0,0)" height="5px" width="5px" x="56px" y="80px" /><rect fill="rgb(255,0,0)" height="5px" width="5px" x="60px" y="80px" /><rect fill="rgb(255,0,0)" height="5px" width="5px" x="64px" y="80px" /><rect fill="rgb(255,0,0)" height="5px" width="5px" x="68px" y="80px" /><rect fill="rgb(255,0,0)" height="5px" width="5px" x="72px" y="80px" /><rect fill="rgb(255,0,0)" height="5px" width="5px" x="76px" y="80px" /><rect fill="rgb(255,0,0)" height="5px" width="5px" x="80px" y="80px" /><rect fill="rgb(255,0,0)" height="5px" width="5px" x="84px" y="80px" /><rect fill="rgb(255,0,0)" height="5px" opacity="0.882352941176" width="5px" x="88px" y="80px" /><rect fill="rgb(255,0,0)" height="5px" opacity="0.137254901961" width="5px" x="92px" y="80px" /><rect fill="rgb(255,0,0)" height="5px" opacity="0.396078431373" width="5px" x="32px" y="84px" /><rect fill="rgb(255,0,0)" height="5px" width="5px" x="36px" y="84px" /><rect fill="rgb(255,0,0)" height="5px" width="5px" x="40px" y="84px" /><rect fill="rgb(255,0,0)" height="5px" width="5px" x="44px" y="84px" /><rect fill="rgb(255,0,0)" height="5px" width="5px" x="48px" y="84px" /><rect fill="rgb(255,0,0)" height="5px" width="5px" x="52px" y="84px" /><rect fill="rgb(255,0,0)" height="5px" width="5px" x="56px" y="84px" /><rect fill="rgb(255,0,0)" height="5px" width="5px" x="60px" y="84px" /><rect fill="rgb(255,0,0)" height="5px" width="5px" x="64px" y="84px" /><rect fill="rgb(255,0,0)" height="5px" width="5px" x="68px" y="84px" /><rect fill="rgb(255,0,0)" height="5px" width="5px" x="72px" y="84px" /><rect fill="rgb(255,0,0)" height="5px" width="5px" x="76px" y="84px" /><rect fill="rgb(255,0,0)" height="5px" width="5px" x="80px" y="84px" /><rect fill="rgb(255,0,0)" height="5px" width="5px" x="84px" y="84px" /><rect fill="rgb(255,0,0)" height="5px" width="5px" x="88px" y="84px" /><rect fill="rgb(255,0,0)" height="5px" opacity="0.419607843137" width="5px" x="92px" y="84px" /><rect fill="rgb(255,0,0)" height="5px" opacity="0.505882352941" width="5px" x="32px" y="88px" /><rect fill="rgb(255,0,0)" height="5px" width="5px" x="36px" y="88px" /><rect fill="rgb(255,0,0)" height="5px" width="5px" x="40px" y="88px" /><rect fill="rgb(255,0,0)" height="5px" width="5px" x="44px" y="88px" /><rect fill="rgb(255,0,0)" height="5px" width="5px" x="48px" y="88px" /><rect fill="rgb(255,0,0)" height="5px" width="5px" x="52px" y="88px" /><rect fill="rgb(255,0,0)" height="5px" width="5px" x="56px" y="88px" /><rect fill="rgb(255,0,0)" height="5px" opacity="0.996078431373" width="5px" x="60px" y="88px" /><rect fill="rgb(255,0,0)" height="5px" opacity="0.921568627451" width="5px" x="64px" y="88px" /><rect fill="rgb(255,0,0)" height="5px" width="5px" x="68px" y="88px" /><rect fill="rgb(255,0,0)" height="5px" width="5px" x="72px" y="88px" /><rect fill="rgb(255,0,0)" height="5px" width="5px" x="76px" y="88px" /><rect fill="rgb(255,0,0)" height="5px" width="5px" x="80px" y="88px" /><rect fill="rgb(255,0,0)" height="5px" width="5px" x="84px" y="88px" /><rect fill="rgb(255,0,0)" height="5px" opacity="0.996078431373" width="5px" x="88px" y="88px" /><rect fill="rgb(255,0,0)" height="5px" opacity="0.470588235294" width="5px" x="92px" y="88px" /><rect fill="rgb(255,0,0)" height="5px" opacity="0.152941176471" width="5px" x="28px" y="92px" /><rect fill="rgb(255,0,0)" height="5px" opacity="0.886274509804" width="5px" x="32px" y="92px" /><rect fill="rgb(255,0,0)" height="5px" width="5px" x="36px" y="92px" /><rect fill="rgb(255,0,0)" height="5px" width="5px" x="40px" y="92px" /><rect fill="rgb(255,0,0)" height="5px" width="5px" x="44px" y="92px" /><rect fill="rgb(255,0,0)" height="5px" width="5px" x="48px" y="92px" /><rect fill="rgb(255,0,0)" height="5px" width="5px" x="52px" y="92px" /><rect fill="rgb(255,0,0)" height="5px" opacity="0.949019607843" width="5px" x="56px" y="92px" /><rect fill="rgb(255,0,0)" height="5px" opacity="0.239215686275" width="5px" x="60px" y="92px" /><rect fill="rgb(255,0,0)" height="5px" opacity="0.333333333333" width="5px" x="64px" y="92px" /><rect fill="rgb(255,0,0)" height="5px" opacity="0.690196078431" width="5px" x="68px" y="92px" /><rect fill="rgb(255,0,0)" height="5px" width="5px" x="72px" y="92px" /><rect fill="rgb(255,0,0)" height="5px" width="5px" x="76px" y="92px" /><rect fill="rgb(255,0,0)" height="5px" width="5px" x="80px" y="92px" /><rect fill="rgb(255,0,0)" height="5px" width="5px" x="84px" y="92px" /><rect fill="rgb(255,0,0)" height="5px" width="5px" x="88px" y="92px" /><rect fill="rgb(255,0,0)" height="5px" opacity="0.913725490196" width="5px" x="92px" y="92px" /><rect fill="rgb(255,0,0)" height="5px" opacity="0.0588235294118" width="5px" x="96px" y="92px" /><rect fill="rgb(255,0,0)" height="5px" opacity="0.243137254902" width="5px" x="28px" y="96px" /><rect fill="rgb(255,0,0)" height="5px" opacity="0.980392156863" width="5px" x="32px" y="96px" /><rect fill="rgb(255,0,0)" height="5px" width="5px" x="36px" y="96px" /><rect fill="rgb(255,0,0)" height="5px" width="5px" x="40px" y="96px" /><rect fill="rgb(255,0,0)" height="5px" width="5px" x="44px" y="96px" /><rect fill="rgb(255,0,0)" height="5px" opacity="0.83137254902" width="5px" x="48px" y="96px" /><rect fill="rgb(255,0,0)" height="5px" opacity="0.752941176471" width="5px" x="52px" y="96px" /><rect fill="rgb(255,0,0)" height="5px" opacity="0.113725490196" width="5px" x="56px" y="96px" /><rect fill="rgb(255,0,0)" height="5px" opacity="0.662745098039" width="5px" x="72px" y="96px" /><rect fill="rgb(255,0,0)" height="5px" opacity="0.862745098039" width="5px" x="76px" y="96px" /><rect fill="rgb(255,0,0)" height="5px" width="5px" x="80px" y="96px" /><rect fill="rgb(255,0,0)" height="5px" width="5px" x="84px" y="96px" /><rect fill="rgb(255,0,0)" height="5px" width="5px" x="88px" y="96px" /><rect fill="rgb(255,0,0)" height="5px" opacity="0.862745098039" width="5px" x="92px" y="96px" /><rect fill="rgb(255,0,0)" height="5px" opacity="0.141176470588" width="5px" x="96px" y="96px" /><rect fill="rgb(255,0,0)" height="5px" opacity="0.36862745098" width="5px" x="28px" y="100px" /><rect fill="rgb(255,0,0)" height="5px" opacity="0.96862745098" width="5px" x="32px" y="100px" /><rect fill="rgb(255,0,0)" height="5px" width="5px" x="36px" y="100px" /><rect fill="rgb(255,0,0)" height="5px" width="5px" x="40px" y="100px" /><rect fill="rgb(255,0,0)" height="5px" opacity="0.450980392157" width="5px" x="44px" y="100px" /><rect fill="rgb(255,0,0)" height="5px" opacity="0.207843137255" width="5px" x="48px" y="100px" /><rect fill="rgb(255,0,0)" height="5px" opacity="0.0313725490196" width="5px" x="52px" y="100px" /><rect fill="rgb(255,0,0)" height="5px" opacity="0.0117647058824" width="5px" x="72px" y="100px" /><rect fill="rgb(255,0,0)" height="5px" opacity="0.188235294118" width="5px" x="76px" y="100px" /><rect fill="rgb(255,0,0)" height="5px" opacity="0.56862745098" width="5px" x="80px" y="100px" /><rect fill="rgb(255,0,0)" height="5px" width="5px" x="84px" y="100px" /><rect fill="rgb(255,0,0)" height="5px" width="5px" x="88px" y="100px" /><rect fill="rgb(255,0,0)" height="5px" width="5px" x="92px" y="100px" /><rect fill="rgb(255,0,0)" height="5px" opacity="0.427450980392" width="5px" x="96px" y="100px" /><rect fill="rgb(255,0,0)" height="5px" opacity="0.662745098039" width="5px" x="28px" y="104px" /><rect fill="rgb(255,0,0)" height="5px" width="5px" x="32px" y="104px" /><rect fill="rgb(255,0,0)" height="5px" width="5px" x="36px" y="104px" /><rect fill="rgb(255,0,0)" height="5px" opacity="0.294117647059" width="5px" x="40px" y="104px" /><rect fill="rgb(255,0,0)" height="5px" opacity="0.627450980392" width="5px" x="84px" y="104px" /><rect fill="rgb(255,0,0)" height="5px" opacity="0.909803921569" width="5px" x="88px" y="104px" /><rect fill="rgb(255,0,0)" height="5px" opacity="0.933333333333" width="5px" x="92px" y="104px" /><rect fill="rgb(255,0,0)" height="5px" opacity="0.552941176471" width="5px" x="96px" y="104px" /><rect fill="rgb(255,0,0)" height="5px" opacity="0.0509803921569" width="5px" x="100px" y="104px" /><rect fill="rgb(255,1,0)" height="5px" opacity="0.00392156862745" width="5px" x="104px" y="104px" /><rect fill="rgb(255,0,0)" height="5px" opacity="0.211764705882" width="5px" x="24px" y="108px" /><rect fill="rgb(255,0,0)" height="5px" opacity="0.721568627451" width="5px" x="28px" y="108px" /><rect fill="rgb(255,0,0)" height="5px" opacity="0.890196078431" width="5px" x="32px" y="108px" /><rect fill="rgb(255,0,0)" height="5px" opacity="0.211764705882" width="5px" x="36px" y="108px" /><rect fill="rgb(255,0,0)" height="5px" opacity="0.262745098039" width="5px" x="88px" y="108px" /><rect fill="rgb(255,0,0)" height="5px" opacity="0.313725490196" width="5px" x="92px" y="108px" /><rect fill="rgb(255,0,0)" height="5px" opacity="0.129411764706" width="5px" x="96px" y="108px" /><rect fill="rgb(255,0,0)" height="5px" opacity="0.0196078431373" width="5px" x="24px" y="112px" /><rect fill="rgb(255,0,0)" height="5px" opacity="0.270588235294" width="5px" x="28px" y="112px" /><rect fill="rgb(255,0,0)" height="5px" opacity="0.0901960784314" width="5px" x="32px" y="112px" /><rect fill="rgb(255,0,0)" height="5px" opacity="0.00392156862745" width="5px" x="92px" y="112px" /><rect fill="rgb(255,1,0)" height="5px" opacity="0.00392156862745" width="5px" x="28px" y="116px" /></svg>