<?xml version="1.0" encoding="utf-8" ?>
<svg baseProfile="full" height="128px" version="1.1" width="128px" xmlns="http://www.w3.org/2000/svg" xmlns:ev="http://www.w3.org/2001/xml-events" xmlns:xlink="http://www.w3.org/1999/xlink"><defs /><rect fill="rgb(255,211,0)" height="5px" opacity="0.00392156862745" width="5px" x="60px" y="4px" /><rect fill="rgb(255,211,0)" height="5px" opacity="0.211764705882" width="5px" x="60px" y="8px" /><rect fill="rgb(255,211,0)" height="5px" opacity="0.0588235294118" width="5px" x="64px" y="8px" /><rect fill="rgb(255,211,0)" height="5px" opacity="0.0274509803922" width="5px" x="56px" y="12px" /><rect fill="rgb(255,211,0)" height="5px" opacity="0.580392156863" width="5px" x="60px" y="12px" /><rect fill="rgb(255,211,0)" height="5px" opacity="0.219607843137" width="5px" x="64px" y="12px" /><rect fill="rgb(255,211,0)" height="5px" opacity="0.149019607843" width="5px" x="56px" y="16px" /><rect fill="rgb(255,211,0)" height="5px" opacity="0.81568627451" width="5px" x="60px" y="16px" /><rect fill="rgb(255,211,0)" height="5px" opacity="0.619607843137" width="5px" x="64px" y="16px" /><rect fill="rgb(255,211,0)" height="5px" opacity="0.00392156862745" width="5px" x="40px" y="20px" /><rect fill="rgb(255,211,0)" height="5px" opacity="0.113725490196" width="5px" x="44px" y="20px" /><rect fill="rgb(255,211,0)" height="5px" opacity="0.149019607843" width="5px" x="48px" y="20px" /><rect fill="rgb(255,211,0)" height="5px" opacity="0.156862745098" width="5px" x="52px" y="20px" /><rect fill="rgb(255,211,0)" height="5px" opacity="0.392156862745" width="5px" x="56px" y="20px" /><rect fill="rgb(255,211,0)" height="5px" opacity="0.992156862745" width="5px" x="60px" y="20px" /><rect fill="rgb(255,211,0)" height="5px" opacity="0.98431372549" width="5px" x="64px" y="20px" /><rect fill="rgb(255,211,0)" height="5px" opacity="0.211764705882" width="5px" x="68px" y="20px" /><rect fill="rgb(255,211,0)" height="5px" opacity="0.219607843137" width="5px" x="72px" y="20px" /><rect fill="rgb(255,211,0)" height="5px" opacity="0.23137254902" width="5px" x="76px" y="20px" /><rect fill="rgb(255,211,0)" height="5px" opacity="0.227450980392" width="5px" x="80px" y="20px" /><rect fill="rgb(255,211,0)" height="5px" opacity="0.0352941176471" width="5px" x="84px" y="20px" /><rect fill="rgb(255,211,0)" height="5px" opacity="0.0078431372549" width="5px" x="40px" y="24px" /><rect fill="rgb(255,211,0)" height="5px" opacity="0.376470588235" width="5px" x="44px" y="24px" /><rect fill="rgb(255,211,0)" height="5px" opacity="0.796078431373" width="5px" x="48px" y="24px" /><rect fill="rgb(255,211,0)" height="5px" opacity="0.83137254902" width="5px" x="52px" y="24px" /><rect fill="rgb(255,211,0)" height="5px" opacity="0.925490196078" width="5px" x="56px" y="24px" /><rect fill="rgb(255,211,0)" height="5px" width="5px" x="60px" y="24px" /><rect fill="rgb(255,211,0)" height="5px" width="5px" x="64px" y="24px" /><rect fill="rgb(255,211,0)" height="5px" opacity="0.925490196078" width="5px" x="68px" y="24px" /><rect fill="rgb(255,211,0)" height="5px" opacity="0.941176470588" width="5px" x="72px" y="24px" /><rect fill="rgb(255,211,0)" height="5px" opacity="0.952941176471" width="5px" x="76px" y="24px" /><rect fill="rgb(255,211,0)" height="5px" opacity="0.486274509804" width="5px" x="80px" y="24px" /><rect fill="rgb(255,211,0)" height="5px" opacity="0.0588235294118" width="5px" x="84px" y="24px" /><rect fill="rgb(255,211,0)" height="5px" opacity="0.0509803921569" width="5px" x="44px" y="28px" /><rect fill="rgb(255,211,0)" height="5px" opacity="0.611764705882" width="5px" x="48px" y="28px" /><rect fill="rgb(255,211,0)" height="5px" opacity="0.992156862745" width="5px" x="52px" y="28px" /><rect fill="rgb(255,211,0)" height="5px" width="5px" x="56px" y="28px" /><rect fill="rgb(255,211,0)" height="5px" width="5px" x="60px" y="28px" /><rect fill="rgb(255,211,0)" height="5px" width="5px" x="64px" y="28px" /><rect fill="rgb(255,211,0)" height="5px" width="5px" x="68px" y="28px" /><rect fill="rgb(255,211,0)" height="5px" opacity="0.972549019608" width="5px" x="72px" y="28px" /><rect fill="rgb(255,211,0)" height="5px" opacity="0.380392156863" width="5px" x="76px" y="28px" /><rect fill="rgb(255,211,0)" height="5px" opacity="0.0235294117647" width="5px" x="80px" y="28px" /><rect fill="rgb(255,211,0)" height="5px" opacity="0.00392156862745" width="5px" x="48px" y="32px" /><rect fill="rgb(255,211,0)" height="5px" opacity="0.670588235294" width="5px" x="52px" y="32px" /><rect fill="rgb(255,211,0)" height="5px" width="5px" x="56px" y="32px" /><rect fill="rgb(255,211,0)" height="5px" width="5px" x="60px" y="32px" /><rect fill="rgb(255,211,0)" height="5px" width="5px" x="64px" y="32px" /><rect fill="rgb(255,211,0)" height="5px" opacity="0.96862745098" width="5px" x="68px" y="32px" /><rect fill="rgb(255,211,0)" height="5px" opacity="0.43137254902" width="5px" x="72px" y="32px" /><rect fill="rgb(255,211,0)" height="5px" opacity="0.00392156862745" width="5px" x="24px" y="36px" /><rect fill="rgb(255,211,0)" height="5px" opacity="0.266666666667" width="5px" x="52px" y="36px" /><rect fill="rgb(255,211,0)" height="5px" width="5px" x="56px" y="36px" /><rect fill="rgb(255,211,0)" height="5px" width="5px" x="60px" y="36px" /><rect fill="rgb(255,211,0)" height="5px" width="5px" x="64px" y="36px" /><rect fill="rgb(255,211,0)" height="5px" opacity="0.96862745098" width="5px" x="68px" y="36px" /><rect fill="rgb(255,211,0)" height="5px" opacity="0.439215686275" width="5px" x="72px" y="36px" /><rect fill="rgb(255,211,0)" height="5px" opacity="0.00392156862745" width="5px" x="100px" y="36px" /><rect fill="rgb(255,211,0)" height="5px" opacity="0.211764705882" width="5px" x="24px" y="40px" /><rect fill="rgb(255,211,0)" height="5px" opacity="0.0588235294118" width="5px" x="28px" y="40px" /><rect fill="rgb(255,211,0)" height="5px" opacity="0.588235294118" width="5px" x="52px" y="40px" /><rect fill="rgb(255,211,0)" height="5px" width="5px" x="56px" y="40px" /><rect fill="rgb(255,211,0)" height="5px" opacity="0.760784313725" width="5px" x="60px" y="40px" /><rect fill="rgb(255,211,0)" height="5px" opacity="0.862745098039" width="5px" x="64px" y="40px" /><rect fill="rgb(255,211,0)" height="5px" width="5px" x="68px" y="40px" /><rect fill="rgb(255,211,0)" height="5px" opacity="0.61568627451" width="5px" x="72px" y="40px" /><rect fill="rgb(255,211,0)" height="5px" opacity="0.0352941176471" width="5px" x="76px" y="40px" /><rect fill="rgb(255,211,0)" height="5px" opacity="0.211764705882" width="5px" x="100px" y="40px" /><rect fill="rgb(255,211,0)" height="5px" opacity="0.0588235294118" width="5px" x="104px" y="40px" /><rect fill="rgb(255,211,0)" height="5px" opacity="0.0274509803922" width="5px" x="20px" y="44px" /><rect fill="rgb(255,211,0)" height="5px" opacity="0.580392156863" width="5px" x="24px" y="44px" /><rect fill="rgb(255,211,0)" height="5px" opacity="0.219607843137" width="5px" x="28px" y="44px" /><rect fill="rgb(255,211,0)" height="5px" opacity="0.878431372549" width="5px" x="52px" y="44px" /><rect fill="rgb(255,211,0)" height="5px" opacity="0.78431372549" width="5px" x="56px" y="44px" /><rect fill="rgb(255,211,0)" height="5px" opacity="0.117647058824" width="5px" x="60px" y="44px" /><rect fill="rgb(255,211,0)" height="5px" opacity="0.662745098039" width="5px" x="68px" y="44px" /><rect fill="rgb(255,211,0)" height="5px" opacity="0.847058823529" width="5px" x="72px" y="44px" /><rect fill="rgb(255,211,0)" height="5px" opacity="0.176470588235" width="5px" x="76px" y="44px" /><rect fill="rgb(255,211,0)" height="5px" opacity="0.0274509803922" width="5px" x="96px" y="44px" /><rect fill="rgb(255,211,0)" height="5px" opacity="0.580392156863" width="5px" x="100px" y="44px" /><rect fill="rgb(255,211,0)" height="5px" opacity="0.219607843137" width="5px" x="104px" y="44px" /><rect fill="rgb(255,211,0)" height="5px" opacity="0.149019607843" width="5px" x="20px" y="48px" /><rect fill="rgb(255,211,0)" height="5px" opacity="0.81568627451" width="5px" x="24px" y="48px" /><rect fill="rgb(255,211,0)" height="5px" opacity="0.619607843137" width="5px" x="28px" y="48px" /><rect fill="rgb(255,211,0)" height="5px" opacity="0.0156862745098" width="5px" x="48px" y="48px" /><rect fill="rgb(255,211,0)" height="5px" opacity="0.674509803922" width="5px" x="52px" y="48px" /><rect fill="rgb(255,211,0)" height="5px" opacity="0.101960784314" width="5px" x="56px" y="48px" /><rect fill="rgb(255,211,0)" height="5px" opacity="0.0352941176471" width="5px" x="68px" y="48px" /><rect fill="rgb(255,211,0)" height="5px" opacity="0.450980392157" width="5px" x="72px" y="48px" /><rect fill="rgb(255,211,0)" height="5px" opacity="0.219607843137" width="5px" x="76px" y="48px" /><rect fill="rgb(255,211,0)" height="5px" opacity="0.149019607843" width="5px" x="96px" y="48px" /><rect fill="rgb(255,211,0)" height="5px" opacity="0.81568627451" width="5px" x="100px" y="48px" /><rect fill="rgb(255,211,0)" height="5px" opacity="0.619607843137" width="5px" x="104px" y="48px" /><rect fill="rgb(255,211,0)" height="5px" opacity="0.00392156862745" width="5px" x="4px" y="52px" /><rect fill="rgb(255,211,0)" height="5px" opacity="0.113725490196" width="5px" x="8px" y="52px" /><rect fill="rgb(255,211,0)" height="5px" opacity="0.149019607843" width="5px" x="12px" y="52px" /><rect fill="rgb(255,211,0)" height="5px" opacity="0.156862745098" width="5px" x="16px" y="52px" /><rect fill="rgb(255,211,0)" height="5px" opacity="0.392156862745" width="5px" x="20px" y="52px" /><rect fill="rgb(255,211,0)" height="5px" opacity="0.992156862745" width="5px" x="24px" y="52px" /><rect fill="rgb(255,211,0)" height="5px" opacity="0.98431372549" width="5px" x="28px" y="52px" /><rect fill="rgb(255,211,0)" height="5px" opacity="0.211764705882" width="5px" x="32px" y="52px" /><rect fill="rgb(255,211,0)" height="5px" opacity="0.219607843137" width="5px" x="36px" y="52px" /><rect fill="rgb(255,211,0)" height="5px" opacity="0.23137254902" width="5px" x="40px" y="52px" /><rect fill="rgb(255,211,0)" height="5px" opacity="0.227450980392" width="5px" x="44px" y="52px" /><rect fill="rgb(255,211,0)" height="5px" opacity="0.0509803921569" width="5px" x="48px" y="52px" /><rect fill="rgb(255,211,0)" height="5px" opacity="0.0627450980392" width="5px" x="52px" y="52px" /><rect fill="rgb(255,211,0)" height="5px" opacity="0.0235294117647" width="5px" x="72px" y="52px" /><rect fill="rgb(255,211,0)" height="5px" opacity="0.0549019607843" width="5px" x="76px" y="52px" /><rect fill="rgb(255,211,0)" height="5px" opacity="0.00392156862745" width="5px" x="80px" y="52px" /><rect fill="rgb(255,211,0)" height="5px" opacity="0.113725490196" width="5px" x="84px" y="52px" /><rect fill="rgb(255,211,0)" height="5px" opacity="0.149019607843" width="5px" x="88px" y="52px" /><rect fill="rgb(255,211,0)" height="5px" opacity="0.156862745098" width="5px" x="92px" y="52px" /><rect fill="rgb(255,211,0)" height="5px" opacity="0.392156862745" width="5px" x="96px" y="52px" /><rect fill="rgb(255,211,0)" height="5px" opacity="0.992156862745" width="5px" x="100px" y="52px" /><rect fill="rgb(255,211,0)" height="5px" opacity="0.98431372549" width="5px" x="104px" y="52px" /><rect fill="rgb(255,211,0)" height="5px" opacity="0.211764705882" width="5px" x="108px" y="52px" /><rect fill="rgb(255,211,0)" height="5px" opacity="0.219607843137" width="5px" x="112px" y="52px" /><rect fill="rgb(255,211,0)" height="5px" opacity="0.23137254902" width="5px" x="116px" y="52px" /><rect fill="rgb(255,211,0)" height="5px" opacity="0.227450980392" width="5px" x="120px" y="52px" /><rect fill="rgb(255,211,0)" height="5px" opacity="0.0352941176471" width="5px" x="124px" y="52px" /><rect fill="rgb(255,211,0)" height="5px" opacity="0.0078431372549" width="5px" x="4px" y="56px" /><rect fill="rgb(255,211,0)" height="5px" opacity="0.376470588235" width="5px" x="8px" y="56px" /><rect fill="rgb(255,211,0)" height="5px" opacity="0.796078431373" width="5px" x="12px" y="56px" /><rect fill="rgb(255,211,0)" height="5px" opacity="0.83137254902" width="5px" x="16px" y="56px" /><rect fill="rgb(255,211,0)" height="5px" opacity="0.925490196078" width="5px" x="20px" y="56px" /><rect fill="rgb(255,211,0)" height="5px" width="5px" x="24px" y="56px" /><rect fill="rgb(255,211,0)" height="5px" width="5px" x="28px" y="56px" /><rect fill="rgb(255,211,0)" height="5px" opacity="0.925490196078" width="5px" x="32px" y="56px" /><rect fill="rgb(255,211,0)" height="5px" opacity="0.941176470588" width="5px" x="36px" y="56px" /><rect fill="rgb(255,211,0)" height="5px" opacity="0.952941176471" width="5px" x="40px" y="56px" /><rect fill="rgb(255,211,0)" height="5px" opacity="0.486274509804" width="5px" x="44px" y="56px" /><rect fill="rgb(255,211,0)" height="5px" opacity="0.0588235294118" width="5px" x="48px" y="56px" /><rect fill="rgb(255,211,0)" height="5px" opacity="0.0078431372549" width="5px" x="80px" y="56px" /><rect fill="rgb(255,211,0)" height="5px" opacity="0.376470588235" width="5px" x="84px" y="56px" /><rect fill="rgb(255,211,0)" height="5px" opacity="0.796078431373" width="5px" x="88px" y="56px" /><rect fill="rgb(255,211,0)" height="5px" opacity="0.83137254902" width="5px" x="92px" y="56px" /><rect fill="rgb(255,211,0)" height="5px" opacity="0.925490196078" width="5px" x="96px" y="56px" /><rect fill="rgb(255,211,0)" height="5px" width="5px" x="100px" y="56px" /><rect fill="rgb(255,211,0)" height="5px" width="5px" x="104px" y="56px" /><rect fill="rgb(255,211,0)" height="5px" opacity="0.925490196078" width="5px" x="108px" y="56px" /><rect fill="rgb(255,211,0)" height="5px" opacity="0.941176470588" width="5px" x="112px" y="56px" /><rect fill="rgb(255,211,0)" height="5px" opacity="0.952941176471" width="5px" x="116px" y="56px" /><rect fill="rgb(255,211,0)" height="5px" opacity="0.486274509804" width="5px" x="120px" y="56px" /><rect fill="rgb(255,211,0)" height="5px" opacity="0.0588235294118" width="5px" x="124px" y="56px" /><rect fill="rgb(255,211,0)" height="5px" opacity="0.0509803921569" width="5px" x="8px" y="60px" /><rect fill="rgb(255,211,0)" height="5px" opacity="0.611764705882" width="5px" x="12px" y="60px" /><rect fill="rgb(255,211,0)" height="5px" opacity="0.992156862745" width="5px" x="16px" y="60px" /><rect fill="rgb(255,211,0)" height="5px" width="5px" x="20px" y="60px" /><rect fill="rgb(255,211,0)" height="5px" width="5px" x="24px" y="60px" /><rect fill="rgb(255,211,0)" height="5px" width="5px" x="28px" y="60px" /><rect fill="rgb(255,211,0)" height="5px" width="5px" x="32px" y="60px" /><rect fill="rgb(255,211,0)" height="5px" opacity="0.972549019608" width="5px" x="36px" y="60px" /><rect fill="rgb(255,211,0)" height="5px" opacity="0.380392156863" width="5px" x="40px" y="60px" /><rect fill="rgb(255,211,0)" height="5px" opacity="0.0235294117647" width="5px" x="44px" y="60px" /><rect fill="rgb(255,211,0)" height="5px" opacity="0.0509803921569" width="5px" x="84px" y="60px" /><rect fill="rgb(255,211,0)" height="5px" opacity="0.611764705882" width="5px" x="88px" y="60px" /><rect fill="rgb(255,211,0)" height="5px" opacity="0.992156862745" width="5px" x="92px" y="60px" /><rect fill="rgb(255,211,0)" height="5px" width="5px" x="96px" y="60px" /><rect fill="rgb(255,211,0)" height="5px" width="5px" x="100px" y="60px" /><rect fill="rgb(255,211,0)" height="5px" width="5px" x="104px" y="60px" /><rect fill="rgb(255,211,0)" height="5px" width="5px" x="108px" y="60px" /><rect fill="rgb(255,211,0)" height="5px" opacity="0.972549019608" width="5px" x="112px" y="60px" /><rect fill="rgb(255,211,0)" height="5px" opacity="0.380392156863" width="5px" x="116px" y="60px" /><rect fill="rgb(255,211,0)" height="5px" opacity="0.0235294117647" width="5px" x="120px" y="60px" /><rect fill="rgb(255,211,0)" height="5px" opacity="0.00392156862745" width="5px" x="12px" y="64px" /><rect fill="rgb(255,211,0)" height="5px" opacity="0.670588235294" width="5px" x="16px" y="64px" /><rect fill="rgb(255,211,0)" height="5px" width="5px" x="20px" y="64px" /><rect fill="rgb(255,211,0)" height="5px" width="5px" x="24px" y="64px" /><rect fill="rgb(255,211,0)" height="5px" width="5px" x="28px" y="64px" /><rect fill="rgb(255,211,0)" height="5px" opacity="0.96862745098" width="5px" x="32px" y="64px" /><rect fill="rgb(255,211,0)" height="5px" opacity="0.43137254902" width="5px" x="36px" y="64px" /><rect fill="rgb(255,211,0)" height="5px" opacity="0.00392156862745" width="5px" x="88px" y="64px" /><rect fill="rgb(255,211,0)" height="5px" opacity="0.670588235294" width="5px" x="92px" y="64px" /><rect fill="rgb(255,211,0)" height="5px" width="5px" x="96px" y="64px" /><rect fill="rgb(255,211,0)" height="5px" width="5px" x="100px" y="64px" /><rect fill="rgb(255,211,0)" height="5px" width="5px" x="104px" y="64px" /><rect fill="rgb(255,211,0)" height="5px" opacity="0.96862745098" width="5px" x="108px" y="64px" /><rect fill="rgb(255,211,0)" height="5px" opacity="0.43137254902" width="5px" x="112px" y="64px" /><rect fill="rgb(255,211,0)" height="5px" opacity="0.266666666667" width="5px" x="16px" y="68px" /><rect fill="rgb(255,211,0)" height="5px" width="5px" x="20px" y="68px" /><rect fill="rgb(255,211,0)" height="5px" width="5px" x="24px" y="68px" /><rect fill="rgb(255,211,0)" height="5px" width="5px" x="28px" y="68px" /><rect fill="rgb(255,211,0)" height="5px" opacity="0.96862745098" width="5px" x="32px" y="68px" /><rect fill="rgb(255,211,0)" height="5px" opacity="0.439215686275" width="5px" x="36px" y="68px" /><rect fill="rgb(255,211,0)" height="5px" opacity="0.266666666667" width="5px" x="92px" y="68px" /><rect fill="rgb(255,211,0)" height="5px" width="5px" x="96px" y="68px" /><rect fill="rgb(255,211,0)" height="5px" width="5px" x="100px" y="68px" /><rect fill="rgb(255,211,0)" height="5px" width="5px" x="104px" y="68px" /><rect fill="rgb(255,211,0)" height="5px" opacity="0.96862745098" width="5px" x="108px" y="68px" /><rect fill="rgb(255,211,0)" height="5px" opacity="0.439215686275" width="5px" x="112px" y="68px" /><rect fill="rgb(255,211,0)" height="5px" opacity="0.588235294118" width="5px" x="16px" y="72px" /><rect fill="rgb(255,211,0)" height="5px" width="5px" x="20px" y="72px" /><rect fill="rgb(255,211,0)" height="5px" opacity="0.760784313725" width="5px" x="24px" y="72px" /><rect fill="rgb(255,211,0)" height="5px" opacity="0.862745098039" width="5px" x="28px" y="72px" /><rect fill="rgb(255,211,0)" height="5px" width="5px" x="32px" y="72px" /><rect fill="rgb(255,211,0)" height="5px" opacity="0.61568627451" width="5px" x="36px" y="72px" /><rect fill="rgb(255,211,0)" height="5px" opacity="0.0352941176471" width="5px" x="40px" y="72px" /><rect fill="rgb(255,211,0)" height="5px" opacity="0.00392156862745" width="5px" x="64px" y="72px" /><rect fill="rgb(255,211,0)" height="5px" opacity="0.588235294118" width="5px" x="92px" y="72px" /><rect fill="rgb(255,211,0)" height="5px" width="5px" x="96px" y="72px" /><rect fill="rgb(255,211,0)" height="5px" opacity="0.760784313725" width="5px" x="100px" y="72px" /><rect fill="rgb(255,211,0)" height="5px" opacity="0.862745098039" width="5px" x="104px" y="72px" /><rect fill="rgb(255,211,0)" height="5px" width="5px" x="108px" y="72px" /><rect fill="rgb(255,211,0)" height="5px" opacity="0.61568627451" width="5px" x="112px" y="72px" /><rect fill="rgb(255,211,0)" height="5px" opacity="0.0352941176471" width="5px" x="116px" y="72px" /><rect fill="rgb(255,211,0)" height="5px" opacity="0.878431372549" width="5px" x="16px" y="76px" /><rect fill="rgb(255,211,0)" height="5px" opacity="0.78431372549" width="5px" x="20px" y="76px" /><rect fill="rgb(255,211,0)" height="5px" opacity="0.117647058824" width="5px" x="24px" y="76px" /><rect fill="rgb(255,211,0)" height="5px" opacity="0.662745098039" width="5px" x="32px" y="76px" /><rect fill="rgb(255,211,0)" height="5px" opacity="0.847058823529" width="5px" x="36px" y="76px" /><rect fill="rgb(255,211,0)" height="5px" opacity="0.176470588235" width="5px" x="40px" y="76px" /><rect fill="rgb(255,211,0)" height="5px" opacity="0.211764705882" width="5px" x="64px" y="76px" /><rect fill="rgb(255,211,0)" height="5px" opacity="0.0588235294118" width="5px" x="68px" y="76px" /><rect fill="rgb(255,211,0)" height="5px" opacity="0.878431372549" width="5px" x="92px" y="76px" /><rect fill="rgb(255,211,0)" height="5px" opacity="0.78431372549" width="5px" x="96px" y="76px" /><rect fill="rgb(255,211,0)" height="5px" opacity="0.117647058824" width="5px" x="100px" y="76px" /><rect fill="rgb(255,211,0)" height="5px" opacity="0.662745098039" width="5px" x="108px" y="76px" /><rect fill="rgb(255,211,0)" height="5px" opacity="0.847058823529" width="5px" x="112px" y="76px" /><rect fill="rgb(255,211,0)" height="5px" opacity="0.176470588235" width="5px" x="116px" y="76px" /><rect fill="rgb(255,211,0)" height="5px" opacity="0.0156862745098" width="5px" x="12px" y="80px" /><rect fill="rgb(255,211,0)" height="5px" opacity="0.674509803922" width="5px" x="16px" y="80px" /><rect fill="rgb(255,211,0)" height="5px" opacity="0.101960784314" width="5px" x="20px" y="80px" /><rect fill="rgb(255,211,0)" height="5px" opacity="0.0352941176471" width="5px" x="32px" y="80px" /><rect fill="rgb(255,211,0)" height="5px" opacity="0.450980392157" width="5px" x="36px" y="80px" /><rect fill="rgb(255,211,0)" height="5px" opacity="0.219607843137" width="5px" x="40px" y="80px" /><rect fill="rgb(255,211,0)" height="5px" opacity="0.0274509803922" width="5px" x="60px" y="80px" /><rect fill="rgb(255,211,0)" height="5px" opacity="0.580392156863" width="5px" x="64px" y="80px" /><rect fill="rgb(255,211,0)" height="5px" opacity="0.219607843137" width="5px" x="68px" y="80px" /><rect fill="rgb(255,211,0)" height="5px" opacity="0.0156862745098" width="5px" x="88px" y="80px" /><rect fill="rgb(255,211,0)" height="5px" opacity="0.674509803922" width="5px" x="92px" y="80px" /><rect fill="rgb(255,211,0)" height="5px" opacity="0.101960784314" width="5px" x="96px" y="80px" /><rect fill="rgb(255,211,0)" height="5px" opacity="0.0352941176471" width="5px" x="108px" y="80px" /><rect fill="rgb(255,211,0)" height="5px" opacity="0.450980392157" width="5px" x="112px" y="80px" /><rect fill="rgb(255,211,0)" height="5px" opacity="0.219607843137" width="5px" x="116px" y="80px" /><rect fill="rgb(255,211,0)" height="5px" opacity="0.0156862745098" width="5px" x="12px" y="84px" /><rect fill="rgb(255,211,0)" height="5px" opacity="0.0627450980392" width="5px" x="16px" y="84px" /><rect fill="rgb(255,211,0)" height="5px" opacity="0.0235294117647" width="5px" x="36px" y="84px" /><rect fill="rgb(255,211,0)" height="5px" opacity="0.0549019607843" width="5px" x="40px" y="84px" /><rect fill="rgb(255,211,0)" height="5px" opacity="0.149019607843" width="5px" x="60px" y="84px" /><rect fill="rgb(255,211,0)" height="5px" opacity="0.81568627451" width="5px" x="64px" y="84px" /><rect fill="rgb(255,211,0)" height="5px" opacity="0.619607843137" width="5px" x="68px" y="84px" /><rect fill="rgb(255,211,0)" height="5px" opacity="0.0156862745098" width="5px" x="88px" y="84px" /><rect fill="rgb(255,211,0)" height="5px" opacity="0.0627450980392" width="5px" x="92px" y="84px" /><rect fill="rgb(255,211,0)" height="5px" opacity="0.0235294117647" width="5px" x="112px" y="84px" /><rect fill="rgb(255,211,0)" height="5px" opacity="0.0549019607843" width="5px" x="116px" y="84px" /><rect fill="rgb(255,211,0)" height="5px" opacity="0.00392156862745" width="5px" x="44px" y="88px" /><rect fill="rgb(255,211,0)" height="5px" opacity="0.113725490196" width="5px" x="48px" y="88px" /><rect fill="rgb(255,211,0)" height="5px" opacity="0.149019607843" width="5px" x="52px" y="88px" /><rect fill="rgb(255,211,0)" height="5px" opacity="0.156862745098" width="5px" x="56px" y="88px" /><rect fill="rgb(255,211,0)" height="5px" opacity="0.392156862745" width="5px" x="60px" y="88px" /><rect fill="rgb(255,211,0)" height="5px" opacity="0.992156862745" width="5px" x="64px" y="88px" /><rect fill="rgb(255,211,0)" height="5px" opacity="0.98431372549" width="5px" x="68px" y="88px" /><rect fill="rgb(255,211,0)" height="5px" opacity="0.211764705882" width="5px" x="72px" y="88px" /><rect fill="rgb(255,211,0)" height="5px" opacity="0.219607843137" width="5px" x="76px" y="88px" /><rect fill="rgb(255,211,0)" height="5px" opacity="0.23137254902" width="5px" x="80px" y="88px" /><rect fill="rgb(255,211,0)" height="5px" opacity="0.227450980392" width="5px" x="84px" y="88px" /><rect fill="rgb(255,211,0)" height="5px" opacity="0.0352941176471" width="5px" x="88px" y="88px" /><rect fill="rgb(255,211,0)" height="5px" opacity="0.0078431372549" width="5px" x="44px" y="92px" /><rect fill="rgb(255,211,0)" height="5px" opacity="0.376470588235" width="5px" x="48px" y="92px" /><rect fill="rgb(255,211,0)" height="5px" opacity="0.796078431373" width="5px" x="52px" y="92px" /><rect fill="rgb(255,211,0)" height="5px" opacity="0.83137254902" width="5px" x="56px" y="92px" /><rect fill="rgb(255,211,0)" height="5px" opacity="0.925490196078" width="5px" x="60px" y="92px" /><rect fill="rgb(255,211,0)" height="5px" width="5px" x="64px" y="92px" /><rect fill="rgb(255,211,0)" height="5px" width="5px" x="68px" y="92px" /><rect fill="rgb(255,211,0)" height="5px" opacity="0.925490196078" width="5px" x="72px" y="92px" /><rect fill="rgb(255,211,0)" height="5px" opacity="0.941176470588" width="5px" x="76px" y="92px" /><rect fill="rgb(255,211,0)" height="5px" opacity="0.952941176471" width="5px" x="80px" y="92px" /><rect fill="rgb(255,211,0)" height="5px" opacity="0.486274509804" width="5px" x="84px" y="92px" /><rect fill="rgb(255,211,0)" height="5px" opacity="0.0588235294118" width="5px" x="88px" y="92px" /><rect fill="rgb(255,211,0)" height="5px" opacity="0.0509803921569" width="5px" x="48px" y="96px" /><rect fill="rgb(255,211,0)" height="5px" opacity="0.611764705882" width="5px" x="52px" y="96px" /><rect fill="rgb(255,211,0)" height="5px" opacity="0.992156862745" width="5px" x="56px" y="96px" /><rect fill="rgb(255,211,0)" height="5px" width="5px" x="60px" y="96px" /><rect fill="rgb(255,211,0)" height="5px" width="5px" x="64px" y="96px" /><rect fill="rgb(255,211,0)" height="5px" width="5px" x="68px" y="96px" /><rect fill="rgb(255,211,0)" height="5px" width="5px" x="72px" y="96px" /><rect fill="rgb(255,211,0)" height="5px" opacity="0.972549019608" width="5px" x="76px" y="96px" /><rect fill="rgb(255,211,0)" height="5px" opacity="0.380392156863" width="5px" x="80px" y="96px" /><rect fill="rgb(255,211,0)" height="5px" opacity="0.0235294117647" width="5px" x="84px" y="96px" /><rect fill="rgb(255,211,0)" height="5px" opacity="0.00392156862745" width="5px" x="52px" y="100px" /><rect fill="rgb(255,211,0)" height="5px" opacity="0.670588235294" width="5px" x="56px" y="100px" /><rect fill="rgb(255,211,0)" height="5px" width="5px" x="60px" y="100px" /><rect fill="rgb(255,211,0)" height="5px" width="5px" x="64px" y="100px" /><rect fill="rgb(255,211,0)" height="5px" width="5px" x="68px" y="100px" /><rect fill="rgb(255,211,0)" height="5px" opacity="0.96862745098" width="5px" x="72px" y="100px" /><rect fill="rgb(255,211,0)" height="5px" opacity="0.43137254902" width="5px" x="76px" y="100px" /><rect fill="rgb(255,211,0)" height="5px" opacity="0.266666666667" width="5px" x="56px" y="104px" /><rect fill="rgb(255,211,0)" height="5px" width="5px" x="60px" y="104px" /><rect fill="rgb(255,211,0)" height="5px" width="5px" x="64px" y="104px" /><rect fill="rgb(255,211,0)" height="5px" width="5px" x="68px" y="104px" /><rect fill="rgb(255,211,0)" height="5px" opacity="0.96862745098" width="5px" x="72px" y="104px" /><rect fill="rgb(255,211,0)" height="5px" opacity="0.439215686275" width="5px" x="76px" y="104px" /><rect fill="rgb(255,211,0)" height="5px" opacity="0.588235294118" width="5px" x="56px" y="108px" /><rect fill="rgb(255,211,0)" height="5px" width="5px" x="60px" y="108px" /><rect fill="rgb(255,211,0)" height="5px" opacity="0.760784313725" width="5px" x="64px" y="108px" /><rect fill="rgb(255,211,0)" height="5px" opacity="0.862745098039" width="5px" x="68px" y="108px" /><rect fill="rgb(255,211,0)" height="5px" width="5px" x="72px" y="108px" /><rect fill="rgb(255,211,0)" height="5px" opacity="0.61568627451" width="5px" x="76px" y="108px" /><rect fill="rgb(255,211,0)" height="5px" opacity="0.0352941176471" width="5px" x="80px" y="108px" /><rect fill="rgb(255,211,0)" height="5px" opacity="0.878431372549" width="5px" x="56px" y="112px" /><rect fill="rgb(255,211,0)" height="5px" opacity="0.78431372549" width="5px" x="60px" y="112px" /><rect fill="rgb(255,211,0)" height="5px" opacity="0.117647058824" width="5px" x="64px" y="112px" /><rect fill="rgb(255,211,0)" height="5px" opacity="0.662745098039" width="5px" x="72px" y="112px" /><rect fill="rgb(255,211,0)" height="5px" opacity="0.847058823529" width="5px" x="76px" y="112px" /><rect fill="rgb(255,211,0)" height="5px" opacity="0.176470588235" width="5px" x="80px" y="112px" /><rect fill="rgb(255,211,0)" height="5px" opacity="0.0156862745098" width="5px" x="52px" y="116px" /><rect fill="rgb(255,211,0)" height="5px" opacity="0.674509803922" width="5px" x="56px" y="116px" /><rect fill="rgb(255,211,0)" height="5px" opacity="0.101960784314" width="5px" x="60px" y="116px" /><rect fill="rgb(255,211,0)" height="5px" opacity="0.0352941176471" width="5px" x="72px" y="116px" /><rect fill="rgb(255,211,0)" height="5px" opacity="0.450980392157" width="5px" x="76px" y="116px" /><rect fill="rgb(255,211,0)" height="5px" opacity="0.219607843137" width="5px" x="80px" y="116px" /><rect fill="rgb(255,211,0)" height="5px" opacity="0.0156862745098" width="5px" x="52px" y="120px" /><rect fill="rgb(255,211,0)" height="5px" opacity="0.0627450980392" width="5px" x="56px" y="120px" /><rect fill="rgb(255,211,0)" height="5px" opacity="0.0235294117647" width="5px" x="76px" y="120px" /><rect fill="rgb(255,211,0)" height="5px" opacity="0.0549019607843" width="5px" x="80px" y="120px" /></svg>