<?xml version="1.0" encoding="utf-8" ?>
<svg baseProfile="full" height="128px" version="1.1" width="128px" xmlns="http://www.w3.org/2000/svg" xmlns:ev="http://www.w3.org/2001/xml-events" xmlns:xlink="http://www.w3.org/1999/xlink"><defs /><rect fill="rgb(122,122,122)" height="5px" opacity="0.172549019608" width="5px" x="28px" y="12px" /><rect fill="rgb(122,122,122)" height="5px" opacity="0.282352941176" width="5px" x="32px" y="12px" /><rect fill="rgb(122,122,122)" height="5px" opacity="0.207843137255" width="5px" x="36px" y="12px" /><rect fill="rgb(122,122,122)" height="5px" opacity="0.137254901961" width="5px" x="40px" y="12px" /><rect fill="rgb(122,122,122)" height="5px" opacity="0.0078431372549" width="5px" x="44px" y="12px" /><rect fill="rgb(122,122,122)" height="5px" opacity="0.0235294117647" width="5px" x="72px" y="12px" /><rect fill="rgb(122,122,122)" height="5px" opacity="0.207843137255" width="5px" x="76px" y="12px" /><rect fill="rgb(122,122,122)" height="5px" opacity="0.494117647059" width="5px" x="80px" y="12px" /><rect fill="rgb(122,122,122)" height="5px" opacity="0.576470588235" width="5px" x="84px" y="12px" /><rect fill="rgb(122,122,122)" height="5px" opacity="0.490196078431" width="5px" x="88px" y="12px" /><rect fill="rgb(122,122,122)" height="5px" opacity="0.427450980392" width="5px" x="92px" y="12px" /><rect fill="rgb(122,122,122)" height="5px" opacity="0.207843137255" width="5px" x="96px" y="12px" /><rect fill="rgb(122,122,122)" height="5px" opacity="0.0392156862745" width="5px" x="100px" y="12px" /><rect fill="rgb(55,55,55)" height="5px" width="5px" x="32px" y="16px" /><rect fill="rgb(55,55,55)" height="5px" width="5px" x="36px" y="16px" /><rect fill="rgb(55,55,55)" height="5px" width="5px" x="40px" y="16px" /><rect fill="rgb(55,55,55)" height="5px" width="5px" x="44px" y="16px" /><rect fill="rgb(55,55,55)" height="5px" width="5px" x="48px" y="16px" /><rect fill="rgb(55,55,55)" height="5px" width="5px" x="52px" y="16px" /><rect fill="rgb(122,122,122)" height="5px" opacity="0.0078431372549" width="5px" x="56px" y="16px" /><rect fill="rgb(122,122,122)" height="5px" opacity="0.0156862745098" width="5px" x="64px" y="16px" /><rect fill="rgb(55,55,55)" height="5px" width="5px" x="68px" y="16px" /><rect fill="rgb(55,55,55)" height="5px" width="5px" x="72px" y="16px" /><rect fill="rgb(55,55,55)" height="5px" width="5px" x="76px" y="16px" /><rect fill="rgb(55,55,55)" height="5px" width="5px" x="80px" y="16px" /><rect fill="rgb(55,55,55)" height="5px" width="5px" x="84px" y="16px" /><rect fill="rgb(55,55,55)" height="5px" width="5px" x="88px" y="16px" /><rect fill="rgb(55,55,55)" height="5px" width="5px" x="92px" y="16px" /><rect fill="rgb(55,55,55)" height="5px" width="5px" x="96px" y="16px" /><rect fill="rgb(55,55,55)" height="5px" width="5px" x="100px" y="16px" /><rect fill="rgb(55,55,55)" height="5px" width="5px" x="104px" y="16px" /><rect fill="rgb(122,122,122)" height="5px" opacity="0.325490196078" width="5px" x="108px" y="16px" /><rect fill="rgb(55,55,55)" height="5px" width="5px" x="24px" y="20px" /><rect fill="rgb(55,55,55)" height="5px" width="5px" x="28px" y="20px" /><rect fill="rgb(102,102,102)" height="5px" width="5px" x="32px" y="20px" /><rect fill="rgb(122,122,122)" height="5px" width="5px" x="36px" y="20px" /><rect fill="rgb(122,122,122)" height="5px" width="5px" x="40px" y="20px" /><rect fill="rgb(122,122,122)" height="5px" width="5px" x="44px" y="20px" /><rect fill="rgb(122,122,122)" height="5px" width="5px" x="48px" y="20px" /><rect fill="rgb(122,122,122)" height="5px" width="5px" x="52px" y="20px" /><rect fill="rgb(55,55,55)" height="5px" width="5px" x="56px" y="20px" /><rect fill="rgb(122,122,122)" height="5px" opacity="0.105882352941" width="5px" x="60px" y="20px" /><rect fill="rgb(55,55,55)" height="5px" width="5px" x="64px" y="20px" /><rect fill="rgb(122,122,122)" height="5px" width="5px" x="68px" y="20px" /><rect fill="rgb(122,122,122)" height="5px" width="5px" x="72px" y="20px" /><rect fill="rgb(122,122,122)" height="5px" width="5px" x="76px" y="20px" /><rect fill="rgb(122,122,122)" height="5px" width="5px" x="80px" y="20px" /><rect fill="rgb(122,122,122)" height="5px" width="5px" x="84px" y="20px" /><rect fill="rgb(122,122,122)" height="5px" width="5px" x="88px" y="20px" /><rect fill="rgb(122,122,122)" height="5px" width="5px" x="92px" y="20px" /><rect fill="rgb(122,122,122)" height="5px" width="5px" x="96px" y="20px" /><rect fill="rgb(122,122,122)" height="5px" width="5px" x="100px" y="20px" /><rect fill="rgb(122,122,122)" height="5px" width="5px" x="104px" y="20px" /><rect fill="rgb(55,55,55)" height="5px" width="5px" x="108px" y="20px" /><rect fill="rgb(55,55,55)" height="5px" width="5px" x="112px" y="20px" /><rect fill="rgb(55,55,55)" height="5px" opacity="0.196078431373" width="5px" x="16px" y="24px" /><rect fill="rgb(55,55,55)" height="5px" width="5px" x="20px" y="24px" /><rect fill="rgb(55,55,55)" height="5px" width="5px" x="24px" y="24px" /><rect fill="rgb(122,122,122)" height="5px" width="5px" x="28px" y="24px" /><rect fill="rgb(122,122,122)" height="5px" width="5px" x="32px" y="24px" /><rect fill="rgb(122,122,122)" height="5px" width="5px" x="36px" y="24px" /><rect fill="rgb(122,122,122)" height="5px" width="5px" x="40px" y="24px" /><rect fill="rgb(122,122,122)" height="5px" width="5px" x="44px" y="24px" /><rect fill="rgb(122,122,122)" height="5px" width="5px" x="48px" y="24px" /><rect fill="rgb(122,122,122)" height="5px" width="5px" x="52px" y="24px" /><rect fill="rgb(122,122,122)" height="5px" width="5px" x="56px" y="24px" /><rect fill="rgb(55,55,55)" height="5px" width="5px" x="60px" y="24px" /><rect fill="rgb(102,102,102)" height="5px" width="5px" x="64px" y="24px" /><rect fill="rgb(122,122,122)" height="5px" width="5px" x="68px" y="24px" /><rect fill="rgb(122,122,122)" height="5px" width="5px" x="72px" y="24px" /><rect fill="rgb(122,122,122)" height="5px" width="5px" x="76px" y="24px" /><rect fill="rgb(122,122,122)" height="5px" width="5px" x="80px" y="24px" /><rect fill="rgb(122,122,122)" height="5px" width="5px" x="84px" y="24px" /><rect fill="rgb(122,122,122)" height="5px" width="5px" x="88px" y="24px" /><rect fill="rgb(122,122,122)" height="5px" width="5px" x="92px" y="24px" /><rect fill="rgb(122,122,122)" height="5px" width="5px" x="96px" y="24px" /><rect fill="rgb(122,122,122)" height="5px" width="5px" x="100px" y="24px" /><rect fill="rgb(122,122,122)" height="5px" width="5px" x="104px" y="24px" /><rect fill="rgb(122,122,122)" height="5px" width="5px" x="108px" y="24px" /><rect fill="rgb(122,122,122)" height="5px" width="5px" x="112px" y="24px" /><rect fill="rgb(55,55,55)" height="5px" width="5px" x="116px" y="24px" /><rect fill="rgb(55,55,55)" height="5px" width="5px" x="16px" y="28px" /><rect fill="rgb(120,120,120)" height="5px" width="5px" x="20px" y="28px" /><rect fill="rgb(105,105,105)" height="5px" width="5px" x="24px" y="28px" /><rect fill="rgb(122,122,122)" height="5px" width="5px" x="28px" y="28px" /><rect fill="rgb(122,122,122)" height="5px" width="5px" x="32px" y="28px" /><rect fill="rgb(122,122,122)" height="5px" width="5px" x="36px" y="28px" /><rect fill="rgb(122,122,122)" height="5px" width="5px" x="40px" y="28px" /><rect fill="rgb(122,122,122)" height="5px" width="5px" x="44px" y="28px" /><rect fill="rgb(122,122,122)" height="5px" width="5px" x="48px" y="28px" /><rect fill="rgb(122,122,122)" height="5px" width="5px" x="52px" y="28px" /><rect fill="rgb(122,122,122)" height="5px" width="5px" x="56px" y="28px" /><rect fill="rgb(55,55,55)" height="5px" width="5px" x="60px" y="28px" /><rect fill="rgb(122,122,122)" height="5px" width="5px" x="64px" y="28px" /><rect fill="rgb(122,122,122)" height="5px" width="5px" x="68px" y="28px" /><rect fill="rgb(122,122,122)" height="5px" width="5px" x="72px" y="28px" /><rect fill="rgb(122,122,122)" height="5px" width="5px" x="76px" y="28px" /><rect fill="rgb(122,122,122)" height="5px" width="5px" x="80px" y="28px" /><rect fill="rgb(122,122,122)" height="5px" width="5px" x="84px" y="28px" /><rect fill="rgb(122,122,122)" height="5px" width="5px" x="88px" y="28px" /><rect fill="rgb(122,122,122)" height="5px" width="5px" x="92px" y="28px" /><rect fill="rgb(122,122,122)" height="5px" width="5px" x="96px" y="28px" /><rect fill="rgb(122,122,122)" height="5px" width="5px" x="100px" y="28px" /><rect fill="rgb(122,122,122)" height="5px" width="5px" x="104px" y="28px" /><rect fill="rgb(122,122,122)" height="5px" width="5px" x="108px" y="28px" /><rect fill="rgb(122,122,122)" height="5px" width="5px" x="112px" y="28px" /><rect fill="rgb(55,55,55)" height="5px" width="5px" x="116px" y="28px" /><rect fill="rgb(55,55,55)" height="5px" width="5px" x="16px" y="32px" /><rect fill="rgb(122,122,122)" height="5px" width="5px" x="20px" y="32px" /><rect fill="rgb(122,122,122)" height="5px" width="5px" x="24px" y="32px" /><rect fill="rgb(122,122,122)" height="5px" width="5px" x="28px" y="32px" /><rect fill="rgb(122,122,122)" height="5px" width="5px" x="32px" y="32px" /><rect fill="rgb(122,122,122)" height="5px" width="5px" x="36px" y="32px" /><rect fill="rgb(122,122,122)" height="5px" width="5px" x="40px" y="32px" /><rect fill="rgb(122,122,122)" height="5px" width="5px" x="44px" y="32px" /><rect fill="rgb(122,122,122)" height="5px" width="5px" x="48px" y="32px" /><rect fill="rgb(122,122,122)" height="5px" width="5px" x="52px" y="32px" /><rect fill="rgb(122,122,122)" height="5px" width="5px" x="56px" y="32px" /><rect fill="rgb(55,55,55)" height="5px" width="5px" x="60px" y="32px" /><rect fill="rgb(122,122,122)" height="5px" width="5px" x="64px" y="32px" /><rect fill="rgb(108,108,108)" height="5px" width="5px" x="68px" y="32px" /><rect fill="rgb(55,55,55)" height="5px" width="5px" x="72px" y="32px" /><rect fill="rgb(122,122,122)" height="5px" width="5px" x="76px" y="32px" /><rect fill="rgb(106,106,106)" height="5px" width="5px" x="80px" y="32px" /><rect fill="rgb(55,55,55)" height="5px" width="5px" x="84px" y="32px" /><rect fill="rgb(122,122,122)" height="5px" width="5px" x="88px" y="32px" /><rect fill="rgb(122,122,122)" height="5px" width="5px" x="92px" y="32px" /><rect fill="rgb(55,55,55)" height="5px" width="5px" x="96px" y="32px" /><rect fill="rgb(93,93,93)" height="5px" width="5px" x="100px" y="32px" /><rect fill="rgb(122,122,122)" height="5px" width="5px" x="104px" y="32px" /><rect fill="rgb(122,122,122)" height="5px" width="5px" x="108px" y="32px" /><rect fill="rgb(122,122,122)" height="5px" width="5px" x="112px" y="32px" /><rect fill="rgb(55,55,55)" height="5px" width="5px" x="116px" y="32px" /><rect fill="rgb(55,55,55)" height="5px" width="5px" x="16px" y="36px" /><rect fill="rgb(122,122,122)" height="5px" width="5px" x="20px" y="36px" /><rect fill="rgb(120,120,120)" height="5px" width="5px" x="24px" y="36px" /><rect fill="rgb(105,105,105)" height="5px" width="5px" x="28px" y="36px" /><rect fill="rgb(55,55,55)" height="5px" width="5px" x="32px" y="36px" /><rect fill="rgb(122,122,122)" height="5px" width="5px" x="36px" y="36px" /><rect fill="rgb(55,55,55)" height="5px" width="5px" x="40px" y="36px" /><rect fill="rgb(69,69,69)" height="5px" width="5px" x="44px" y="36px" /><rect fill="rgb(122,122,122)" height="5px" width="5px" x="48px" y="36px" /><rect fill="rgb(55,55,55)" height="5px" width="5px" x="52px" y="36px" /><rect fill="rgb(122,122,122)" height="5px" width="5px" x="56px" y="36px" /><rect fill="rgb(55,55,55)" height="5px" width="5px" x="60px" y="36px" /><rect fill="rgb(122,122,122)" height="5px" width="5px" x="64px" y="36px" /><rect fill="rgb(55,55,55)" height="5px" width="5px" x="68px" y="36px" /><rect fill="rgb(108,108,108)" height="5px" width="5px" x="72px" y="36px" /><rect fill="rgb(55,55,55)" height="5px" width="5px" x="76px" y="36px" /><rect fill="rgb(93,93,93)" height="5px" width="5px" x="80px" y="36px" /><rect fill="rgb(122,122,122)" height="5px" width="5px" x="84px" y="36px" /><rect fill="rgb(55,55,55)" height="5px" width="5px" x="88px" y="36px" /><rect fill="rgb(55,55,55)" height="5px" width="5px" x="92px" y="36px" /><rect fill="rgb(122,122,122)" height="5px" width="5px" x="96px" y="36px" /><rect fill="rgb(56,56,56)" height="5px" width="5px" x="100px" y="36px" /><rect fill="rgb(56,56,56)" height="5px" width="5px" x="104px" y="36px" /><rect fill="rgb(122,122,122)" height="5px" width="5px" x="108px" y="36px" /><rect fill="rgb(122,122,122)" height="5px" width="5px" x="112px" y="36px" /><rect fill="rgb(55,55,55)" height="5px" width="5px" x="116px" y="36px" /><rect fill="rgb(55,55,55)" height="5px" width="5px" x="16px" y="40px" /><rect fill="rgb(122,122,122)" height="5px" width="5px" x="20px" y="40px" /><rect fill="rgb(55,55,55)" height="5px" width="5px" x="24px" y="40px" /><rect fill="rgb(117,117,117)" height="5px" width="5px" x="28px" y="40px" /><rect fill="rgb(122,122,122)" height="5px" width="5px" x="32px" y="40px" /><rect fill="rgb(55,55,55)" height="5px" width="5px" x="36px" y="40px" /><rect fill="rgb(55,55,55)" height="5px" width="5px" x="40px" y="40px" /><rect fill="rgb(55,55,55)" height="5px" width="5px" x="44px" y="40px" /><rect fill="rgb(55,55,55)" height="5px" width="5px" x="48px" y="40px" /><rect fill="rgb(106,106,106)" height="5px" width="5px" x="52px" y="40px" /><rect fill="rgb(122,122,122)" height="5px" width="5px" x="56px" y="40px" /><rect fill="rgb(55,55,55)" height="5px" width="5px" x="60px" y="40px" /><rect fill="rgb(122,122,122)" height="5px" width="5px" x="64px" y="40px" /><rect fill="rgb(122,122,122)" height="5px" width="5px" x="68px" y="40px" /><rect fill="rgb(122,122,122)" height="5px" width="5px" x="72px" y="40px" /><rect fill="rgb(122,122,122)" height="5px" width="5px" x="76px" y="40px" /><rect fill="rgb(122,122,122)" height="5px" width="5px" x="80px" y="40px" /><rect fill="rgb(122,122,122)" height="5px" width="5px" x="84px" y="40px" /><rect fill="rgb(122,122,122)" height="5px" width="5px" x="88px" y="40px" /><rect fill="rgb(122,122,122)" height="5px" width="5px" x="92px" y="40px" /><rect fill="rgb(122,122,122)" height="5px" width="5px" x="96px" y="40px" /><rect fill="rgb(122,122,122)" height="5px" width="5px" x="100px" y="40px" /><rect fill="rgb(122,122,122)" height="5px" width="5px" x="104px" y="40px" /><rect fill="rgb(122,122,122)" height="5px" width="5px" x="108px" y="40px" /><rect fill="rgb(122,122,122)" height="5px" width="5px" x="112px" y="40px" /><rect fill="rgb(55,55,55)" height="5px" width="5px" x="116px" y="40px" /><rect fill="rgb(55,55,55)" height="5px" width="5px" x="16px" y="44px" /><rect fill="rgb(122,122,122)" height="5px" width="5px" x="20px" y="44px" /><rect fill="rgb(122,122,122)" height="5px" width="5px" x="24px" y="44px" /><rect fill="rgb(122,122,122)" height="5px" width="5px" x="28px" y="44px" /><rect fill="rgb(122,122,122)" height="5px" width="5px" x="32px" y="44px" /><rect fill="rgb(122,122,122)" height="5px" width="5px" x="36px" y="44px" /><rect fill="rgb(122,122,122)" height="5px" width="5px" x="40px" y="44px" /><rect fill="rgb(122,122,122)" height="5px" width="5px" x="44px" y="44px" /><rect fill="rgb(122,122,122)" height="5px" width="5px" x="48px" y="44px" /><rect fill="rgb(122,122,122)" height="5px" width="5px" x="52px" y="44px" /><rect fill="rgb(122,122,122)" height="5px" width="5px" x="56px" y="44px" /><rect fill="rgb(55,55,55)" height="5px" width="5px" x="60px" y="44px" /><rect fill="rgb(122,122,122)" height="5px" width="5px" x="64px" y="44px" /><rect fill="rgb(122,122,122)" height="5px" width="5px" x="68px" y="44px" /><rect fill="rgb(122,122,122)" height="5px" width="5px" x="72px" y="44px" /><rect fill="rgb(122,122,122)" height="5px" width="5px" x="76px" y="44px" /><rect fill="rgb(122,122,122)" height="5px" width="5px" x="80px" y="44px" /><rect fill="rgb(122,122,122)" height="5px" width="5px" x="84px" y="44px" /><rect fill="rgb(122,122,122)" height="5px" width="5px" x="88px" y="44px" /><rect fill="rgb(122,122,122)" height="5px" width="5px" x="92px" y="44px" /><rect fill="rgb(122,122,122)" height="5px" width="5px" x="96px" y="44px" /><rect fill="rgb(122,122,122)" height="5px" width="5px" x="100px" y="44px" /><rect fill="rgb(122,122,122)" height="5px" width="5px" x="104px" y="44px" /><rect fill="rgb(122,122,122)" height="5px" width="5px" x="108px" y="44px" /><rect fill="rgb(122,122,122)" height="5px" width="5px" x="112px" y="44px" /><rect fill="rgb(55,55,55)" height="5px" width="5px" x="116px" y="44px" /><rect fill="rgb(55,55,55)" height="5px" width="5px" x="16px" y="48px" /><rect fill="rgb(122,122,122)" height="5px" width="5px" x="20px" y="48px" /><rect fill="rgb(122,122,122)" height="5px" width="5px" x="24px" y="48px" /><rect fill="rgb(122,122,122)" height="5px" width="5px" x="28px" y="48px" /><rect fill="rgb(122,122,122)" height="5px" width="5px" x="32px" y="48px" /><rect fill="rgb(122,122,122)" height="5px" width="5px" x="36px" y="48px" /><rect fill="rgb(122,122,122)" height="5px" width="5px" x="40px" y="48px" /><rect fill="rgb(122,122,122)" height="5px" width="5px" x="44px" y="48px" /><rect fill="rgb(122,122,122)" height="5px" width="5px" x="48px" y="48px" /><rect fill="rgb(122,122,122)" height="5px" width="5px" x="52px" y="48px" /><rect fill="rgb(122,122,122)" height="5px" width="5px" x="56px" y="48px" /><rect fill="rgb(55,55,55)" height="5px" width="5px" x="60px" y="48px" /><rect fill="rgb(122,122,122)" height="5px" width="5px" x="64px" y="48px" /><rect fill="rgb(122,122,122)" height="5px" width="5px" x="68px" y="48px" /><rect fill="rgb(122,122,122)" height="5px" width="5px" x="72px" y="48px" /><rect fill="rgb(122,122,122)" height="5px" width="5px" x="76px" y="48px" /><rect fill="rgb(122,122,122)" height="5px" width="5px" x="80px" y="48px" /><rect fill="rgb(122,122,122)" height="5px" width="5px" x="84px" y="48px" /><rect fill="rgb(122,122,122)" height="5px" width="5px" x="88px" y="48px" /><rect fill="rgb(122,122,122)" height="5px" width="5px" x="92px" y="48px" /><rect fill="rgb(122,122,122)" height="5px" width="5px" x="96px" y="48px" /><rect fill="rgb(122,122,122)" height="5px" width="5px" x="100px" y="48px" /><rect fill="rgb(122,122,122)" height="5px" width="5px" x="104px" y="48px" /><rect fill="rgb(122,122,122)" height="5px" width="5px" x="108px" y="48px" /><rect fill="rgb(122,122,122)" height="5px" width="5px" x="112px" y="48px" /><rect fill="rgb(55,55,55)" height="5px" width="5px" x="116px" y="48px" /><rect fill="rgb(55,55,55)" height="5px" width="5px" x="16px" y="52px" /><rect fill="rgb(122,122,122)" height="5px" width="5px" x="20px" y="52px" /><rect fill="rgb(122,122,122)" height="5px" width="5px" x="24px" y="52px" /><rect fill="rgb(55,55,55)" height="5px" width="5px" x="28px" y="52px" /><rect fill="rgb(122,122,122)" height="5px" width="5px" x="32px" y="52px" /><rect fill="rgb(122,122,122)" height="5px" width="5px" x="36px" y="52px" /><rect fill="rgb(55,55,55)" height="5px" width="5px" x="40px" y="52px" /><rect fill="rgb(122,122,122)" height="5px" width="5px" x="44px" y="52px" /><rect fill="rgb(122,122,122)" height="5px" width="5px" x="48px" y="52px" /><rect fill="rgb(55,55,55)" height="5px" width="5px" x="52px" y="52px" /><rect fill="rgb(122,122,122)" height="5px" width="5px" x="56px" y="52px" /><rect fill="rgb(55,55,55)" height="5px" width="5px" x="60px" y="52px" /><rect fill="rgb(122,122,122)" height="5px" width="5px" x="64px" y="52px" /><rect fill="rgb(55,55,55)" height="5px" width="5px" x="68px" y="52px" /><rect fill="rgb(55,55,55)" height="5px" width="5px" x="72px" y="52px" /><rect fill="rgb(122,122,122)" height="5px" width="5px" x="76px" y="52px" /><rect fill="rgb(122,122,122)" height="5px" width="5px" x="80px" y="52px" /><rect fill="rgb(55,55,55)" height="5px" width="5px" x="84px" y="52px" /><rect fill="rgb(83,83,83)" height="5px" width="5px" x="88px" y="52px" /><rect fill="rgb(122,122,122)" height="5px" width="5px" x="92px" y="52px" /><rect fill="rgb(122,122,122)" height="5px" width="5px" x="96px" y="52px" /><rect fill="rgb(55,55,55)" height="5px" width="5px" x="100px" y="52px" /><rect fill="rgb(57,57,57)" height="5px" width="5px" x="104px" y="52px" /><rect fill="rgb(122,122,122)" height="5px" width="5px" x="108px" y="52px" /><rect fill="rgb(122,122,122)" height="5px" width="5px" x="112px" y="52px" /><rect fill="rgb(55,55,55)" height="5px" width="5px" x="116px" y="52px" /><rect fill="rgb(55,55,55)" height="5px" width="5px" x="16px" y="56px" /><rect fill="rgb(122,122,122)" height="5px" width="5px" x="20px" y="56px" /><rect fill="rgb(55,55,55)" height="5px" width="5px" x="24px" y="56px" /><rect fill="rgb(122,122,122)" height="5px" width="5px" x="28px" y="56px" /><rect fill="rgb(55,55,55)" height="5px" width="5px" x="32px" y="56px" /><rect fill="rgb(55,55,55)" height="5px" width="5px" x="36px" y="56px" /><rect fill="rgb(55,55,55)" height="5px" width="5px" x="40px" y="56px" /><rect fill="rgb(122,122,122)" height="5px" width="5px" x="44px" y="56px" /><rect fill="rgb(55,55,55)" height="5px" width="5px" x="48px" y="56px" /><rect fill="rgb(122,122,122)" height="5px" width="5px" x="52px" y="56px" /><rect fill="rgb(122,122,122)" height="5px" width="5px" x="56px" y="56px" /><rect fill="rgb(55,55,55)" height="5px" width="5px" x="60px" y="56px" /><rect fill="rgb(122,122,122)" height="5px" width="5px" x="64px" y="56px" /><rect fill="rgb(55,55,55)" height="5px" width="5px" x="68px" y="56px" /><rect fill="rgb(93,93,93)" height="5px" width="5px" x="72px" y="56px" /><rect fill="rgb(55,55,55)" height="5px" width="5px" x="76px" y="56px" /><rect fill="rgb(55,55,55)" height="5px" width="5px" x="80px" y="56px" /><rect fill="rgb(62,62,62)" height="5px" width="5px" x="84px" y="56px" /><rect fill="rgb(55,55,55)" height="5px" width="5px" x="88px" y="56px" /><rect fill="rgb(55,55,55)" height="5px" width="5px" x="92px" y="56px" /><rect fill="rgb(55,55,55)" height="5px" width="5px" x="96px" y="56px" /><rect fill="rgb(122,122,122)" height="5px" width="5px" x="100px" y="56px" /><rect fill="rgb(122,122,122)" height="5px" width="5px" x="104px" y="56px" /><rect fill="rgb(122,122,122)" height="5px" width="5px" x="108px" y="56px" /><rect fill="rgb(122,122,122)" height="5px" width="5px" x="112px" y="56px" /><rect fill="rgb(55,55,55)" height="5px" width="5px" x="116px" y="56px" /><rect fill="rgb(55,55,55)" height="5px" width="5px" x="16px" y="60px" /><rect fill="rgb(122,122,122)" height="5px" width="5px" x="20px" y="60px" /><rect fill="rgb(122,122,122)" height="5px" width="5px" x="24px" y="60px" /><rect fill="rgb(122,122,122)" height="5px" width="5px" x="28px" y="60px" /><rect fill="rgb(122,122,122)" height="5px" width="5px" x="32px" y="60px" /><rect fill="rgb(122,122,122)" height="5px" width="5px" x="36px" y="60px" /><rect fill="rgb(122,122,122)" height="5px" width="5px" x="40px" y="60px" /><rect fill="rgb(122,122,122)" height="5px" width="5px" x="44px" y="60px" /><rect fill="rgb(122,122,122)" height="5px" width="5px" x="48px" y="60px" /><rect fill="rgb(122,122,122)" height="5px" width="5px" x="52px" y="60px" /><rect fill="rgb(122,122,122)" height="5px" width="5px" x="56px" y="60px" /><rect fill="rgb(55,55,55)" height="5px" width="5px" x="60px" y="60px" /><rect fill="rgb(122,122,122)" height="5px" width="5px" x="64px" y="60px" /><rect fill="rgb(122,122,122)" height="5px" width="5px" x="68px" y="60px" /><rect fill="rgb(122,122,122)" height="5px" width="5px" x="72px" y="60px" /><rect fill="rgb(122,122,122)" height="5px" width="5px" x="76px" y="60px" /><rect fill="rgb(122,122,122)" height="5px" width="5px" x="80px" y="60px" /><rect fill="rgb(122,122,122)" height="5px" width="5px" x="84px" y="60px" /><rect fill="rgb(122,122,122)" height="5px" width="5px" x="88px" y="60px" /><rect fill="rgb(122,122,122)" height="5px" width="5px" x="92px" y="60px" /><rect fill="rgb(122,122,122)" height="5px" width="5px" x="96px" y="60px" /><rect fill="rgb(122,122,122)" height="5px" width="5px" x="100px" y="60px" /><rect fill="rgb(122,122,122)" height="5px" width="5px" x="104px" y="60px" /><rect fill="rgb(122,122,122)" height="5px" width="5px" x="108px" y="60px" /><rect fill="rgb(122,122,122)" height="5px" width="5px" x="112px" y="60px" /><rect fill="rgb(55,55,55)" height="5px" width="5px" x="116px" y="60px" /><rect fill="rgb(55,55,55)" height="5px" width="5px" x="16px" y="64px" /><rect fill="rgb(122,122,122)" height="5px" width="5px" x="20px" y="64px" /><rect fill="rgb(122,122,122)" height="5px" width="5px" x="24px" y="64px" /><rect fill="rgb(122,122,122)" height="5px" width="5px" x="28px" y="64px" /><rect fill="rgb(122,122,122)" height="5px" width="5px" x="32px" y="64px" /><rect fill="rgb(122,122,122)" height="5px" width="5px" x="36px" y="64px" /><rect fill="rgb(122,122,122)" height="5px" width="5px" x="40px" y="64px" /><rect fill="rgb(122,122,122)" height="5px" width="5px" x="44px" y="64px" /><rect fill="rgb(122,122,122)" height="5px" width="5px" x="48px" y="64px" /><rect fill="rgb(122,122,122)" height="5px" width="5px" x="52px" y="64px" /><rect fill="rgb(122,122,122)" height="5px" width="5px" x="56px" y="64px" /><rect fill="rgb(55,55,55)" height="5px" width="5px" x="60px" y="64px" /><rect fill="rgb(122,122,122)" height="5px" width="5px" x="64px" y="64px" /><rect fill="rgb(122,122,122)" height="5px" width="5px" x="68px" y="64px" /><rect fill="rgb(122,122,122)" height="5px" width="5px" x="72px" y="64px" /><rect fill="rgb(122,122,122)" height="5px" width="5px" x="76px" y="64px" /><rect fill="rgb(122,122,122)" height="5px" width="5px" x="80px" y="64px" /><rect fill="rgb(122,122,122)" height="5px" width="5px" x="84px" y="64px" /><rect fill="rgb(122,122,122)" height="5px" width="5px" x="88px" y="64px" /><rect fill="rgb(122,122,122)" height="5px" width="5px" x="92px" y="64px" /><rect fill="rgb(122,122,122)" height="5px" width="5px" x="96px" y="64px" /><rect fill="rgb(122,122,122)" height="5px" width="5px" x="100px" y="64px" /><rect fill="rgb(122,122,122)" height="5px" width="5px" x="104px" y="64px" /><rect fill="rgb(122,122,122)" height="5px" width="5px" x="108px" y="64px" /><rect fill="rgb(122,122,122)" height="5px" width="5px" x="112px" y="64px" /><rect fill="rgb(55,55,55)" height="5px" width="5px" x="116px" y="64px" /><rect fill="rgb(55,55,55)" height="5px" width="5px" x="16px" y="68px" /><rect fill="rgb(122,122,122)" height="5px" width="5px" x="20px" y="68px" /><rect fill="rgb(55,55,55)" height="5px" width="5px" x="24px" y="68px" /><rect fill="rgb(55,55,55)" height="5px" width="5px" x="28px" y="68px" /><rect fill="rgb(122,122,122)" height="5px" width="5px" x="32px" y="68px" /><rect fill="rgb(55,55,55)" height="5px" width="5px" x="36px" y="68px" /><rect fill="rgb(106,106,106)" height="5px" width="5px" x="40px" y="68px" /><rect fill="rgb(55,55,55)" height="5px" width="5px" x="44px" y="68px" /><rect fill="rgb(122,122,122)" height="5px" width="5px" x="48px" y="68px" /><rect fill="rgb(122,122,122)" height="5px" width="5px" x="52px" y="68px" /><rect fill="rgb(122,122,122)" height="5px" width="5px" x="56px" y="68px" /><rect fill="rgb(55,55,55)" height="5px" width="5px" x="60px" y="68px" /><rect fill="rgb(122,122,122)" height="5px" width="5px" x="64px" y="68px" /><rect fill="rgb(55,55,55)" height="5px" width="5px" x="68px" y="68px" /><rect fill="rgb(55,55,55)" height="5px" width="5px" x="72px" y="68px" /><rect fill="rgb(97,97,97)" height="5px" width="5px" x="76px" y="68px" /><rect fill="rgb(122,122,122)" height="5px" width="5px" x="80px" y="68px" /><rect fill="rgb(55,55,55)" height="5px" width="5px" x="84px" y="68px" /><rect fill="rgb(122,122,122)" height="5px" width="5px" x="88px" y="68px" /><rect fill="rgb(122,122,122)" height="5px" width="5px" x="92px" y="68px" /><rect fill="rgb(108,108,108)" height="5px" width="5px" x="96px" y="68px" /><rect fill="rgb(55,55,55)" height="5px" width="5px" x="100px" y="68px" /><rect fill="rgb(122,122,122)" height="5px" width="5px" x="104px" y="68px" /><rect fill="rgb(122,122,122)" height="5px" width="5px" x="108px" y="68px" /><rect fill="rgb(122,122,122)" height="5px" width="5px" x="112px" y="68px" /><rect fill="rgb(55,55,55)" height="5px" width="5px" x="116px" y="68px" /><rect fill="rgb(55,55,55)" height="5px" width="5px" x="16px" y="72px" /><rect fill="rgb(122,122,122)" height="5px" width="5px" x="20px" y="72px" /><rect fill="rgb(55,55,55)" height="5px" width="5px" x="24px" y="72px" /><rect fill="rgb(55,55,55)" height="5px" width="5px" x="28px" y="72px" /><rect fill="rgb(55,55,55)" height="5px" width="5px" x="32px" y="72px" /><rect fill="rgb(122,122,122)" height="5px" width="5px" x="36px" y="72px" /><rect fill="rgb(55,55,55)" height="5px" width="5px" x="40px" y="72px" /><rect fill="rgb(122,122,122)" height="5px" width="5px" x="44px" y="72px" /><rect fill="rgb(55,55,55)" height="5px" width="5px" x="48px" y="72px" /><rect fill="rgb(55,55,55)" height="5px" width="5px" x="52px" y="72px" /><rect fill="rgb(122,122,122)" height="5px" width="5px" x="56px" y="72px" /><rect fill="rgb(55,55,55)" height="5px" width="5px" x="60px" y="72px" /><rect fill="rgb(122,122,122)" height="5px" width="5px" x="64px" y="72px" /><rect fill="rgb(122,122,122)" height="5px" width="5px" x="68px" y="72px" /><rect fill="rgb(55,55,55)" height="5px" width="5px" x="72px" y="72px" /><rect fill="rgb(118,118,118)" height="5px" width="5px" x="76px" y="72px" /><rect fill="rgb(55,55,55)" height="5px" width="5px" x="80px" y="72px" /><rect fill="rgb(122,122,122)" height="5px" width="5px" x="84px" y="72px" /><rect fill="rgb(55,55,55)" height="5px" width="5px" x="88px" y="72px" /><rect fill="rgb(55,55,55)" height="5px" width="5px" x="92px" y="72px" /><rect fill="rgb(55,55,55)" height="5px" width="5px" x="96px" y="72px" /><rect fill="rgb(95,95,95)" height="5px" width="5px" x="100px" y="72px" /><rect fill="rgb(55,55,55)" height="5px" width="5px" x="104px" y="72px" /><rect fill="rgb(122,122,122)" height="5px" width="5px" x="108px" y="72px" /><rect fill="rgb(122,122,122)" height="5px" width="5px" x="112px" y="72px" /><rect fill="rgb(55,55,55)" height="5px" width="5px" x="116px" y="72px" /><rect fill="rgb(55,55,55)" height="5px" width="5px" x="16px" y="76px" /><rect fill="rgb(122,122,122)" height="5px" width="5px" x="20px" y="76px" /><rect fill="rgb(122,122,122)" height="5px" width="5px" x="24px" y="76px" /><rect fill="rgb(122,122,122)" height="5px" width="5px" x="28px" y="76px" /><rect fill="rgb(122,122,122)" height="5px" width="5px" x="32px" y="76px" /><rect fill="rgb(122,122,122)" height="5px" width="5px" x="36px" y="76px" /><rect fill="rgb(122,122,122)" height="5px" width="5px" x="40px" y="76px" /><rect fill="rgb(122,122,122)" height="5px" width="5px" x="44px" y="76px" /><rect fill="rgb(122,122,122)" height="5px" width="5px" x="48px" y="76px" /><rect fill="rgb(106,106,106)" height="5px" width="5px" x="52px" y="76px" /><rect fill="rgb(122,122,122)" height="5px" width="5px" x="56px" y="76px" /><rect fill="rgb(55,55,55)" height="5px" width="5px" x="60px" y="76px" /><rect fill="rgb(122,122,122)" height="5px" width="5px" x="64px" y="76px" /><rect fill="rgb(122,122,122)" height="5px" width="5px" x="68px" y="76px" /><rect fill="rgb(122,122,122)" height="5px" width="5px" x="72px" y="76px" /><rect fill="rgb(122,122,122)" height="5px" width="5px" x="76px" y="76px" /><rect fill="rgb(122,122,122)" height="5px" width="5px" x="80px" y="76px" /><rect fill="rgb(122,122,122)" height="5px" width="5px" x="84px" y="76px" /><rect fill="rgb(122,122,122)" height="5px" width="5px" x="88px" y="76px" /><rect fill="rgb(122,122,122)" height="5px" width="5px" x="92px" y="76px" /><rect fill="rgb(122,122,122)" height="5px" width="5px" x="96px" y="76px" /><rect fill="rgb(122,122,122)" height="5px" width="5px" x="100px" y="76px" /><rect fill="rgb(122,122,122)" height="5px" width="5px" x="104px" y="76px" /><rect fill="rgb(122,122,122)" height="5px" width="5px" x="108px" y="76px" /><rect fill="rgb(122,122,122)" height="5px" width="5px" x="112px" y="76px" /><rect fill="rgb(55,55,55)" height="5px" width="5px" x="116px" y="76px" /><rect fill="rgb(55,55,55)" height="5px" width="5px" x="16px" y="80px" /><rect fill="rgb(122,122,122)" height="5px" width="5px" x="20px" y="80px" /><rect fill="rgb(122,122,122)" height="5px" width="5px" x="24px" y="80px" /><rect fill="rgb(122,122,122)" height="5px" width="5px" x="28px" y="80px" /><rect fill="rgb(122,122,122)" height="5px" width="5px" x="32px" y="80px" /><rect fill="rgb(55,55,55)" height="5px" width="5px" x="36px" y="80px" /><rect fill="rgb(122,122,122)" height="5px" width="5px" x="40px" y="80px" /><rect fill="rgb(122,122,122)" height="5px" width="5px" x="44px" y="80px" /><rect fill="rgb(122,122,122)" height="5px" width="5px" x="48px" y="80px" /><rect fill="rgb(55,55,55)" height="5px" width="5px" x="52px" y="80px" /><rect fill="rgb(122,122,122)" height="5px" width="5px" x="56px" y="80px" /><rect fill="rgb(55,55,55)" height="5px" width="5px" x="60px" y="80px" /><rect fill="rgb(122,122,122)" height="5px" width="5px" x="64px" y="80px" /><rect fill="rgb(122,122,122)" height="5px" width="5px" x="68px" y="80px" /><rect fill="rgb(122,122,122)" height="5px" width="5px" x="72px" y="80px" /><rect fill="rgb(55,55,55)" height="5px" width="5px" x="76px" y="80px" /><rect fill="rgb(122,122,122)" height="5px" width="5px" x="80px" y="80px" /><rect fill="rgb(107,107,107)" height="5px" width="5px" x="84px" y="80px" /><rect fill="rgb(107,107,107)" height="5px" width="5px" x="88px" y="80px" /><rect fill="rgb(55,55,55)" height="5px" width="5px" x="92px" y="80px" /><rect fill="rgb(74,74,74)" height="5px" width="5px" x="96px" y="80px" /><rect fill="rgb(90,90,90)" height="5px" width="5px" x="100px" y="80px" /><rect fill="rgb(122,122,122)" height="5px" width="5px" x="104px" y="80px" /><rect fill="rgb(122,122,122)" height="5px" width="5px" x="108px" y="80px" /><rect fill="rgb(122,122,122)" height="5px" width="5px" x="112px" y="80px" /><rect fill="rgb(55,55,55)" height="5px" width="5px" x="116px" y="80px" /><rect fill="rgb(55,55,55)" height="5px" width="5px" x="16px" y="84px" /><rect fill="rgb(122,122,122)" height="5px" width="5px" x="20px" y="84px" /><rect fill="rgb(55,55,55)" height="5px" width="5px" x="24px" y="84px" /><rect fill="rgb(55,55,55)" height="5px" width="5px" x="28px" y="84px" /><rect fill="rgb(55,55,55)" height="5px" width="5px" x="32px" y="84px" /><rect fill="rgb(106,106,106)" height="5px" width="5px" x="36px" y="84px" /><rect fill="rgb(62,62,62)" height="5px" width="5px" x="40px" y="84px" /><rect fill="rgb(60,60,60)" height="5px" width="5px" x="44px" y="84px" /><rect fill="rgb(55,55,55)" height="5px" width="5px" x="48px" y="84px" /><rect fill="rgb(122,122,122)" height="5px" width="5px" x="52px" y="84px" /><rect fill="rgb(122,122,122)" height="5px" width="5px" x="56px" y="84px" /><rect fill="rgb(55,55,55)" height="5px" width="5px" x="60px" y="84px" /><rect fill="rgb(122,122,122)" height="5px" width="5px" x="64px" y="84px" /><rect fill="rgb(55,55,55)" height="5px" width="5px" x="68px" y="84px" /><rect fill="rgb(55,55,55)" height="5px" width="5px" x="72px" y="84px" /><rect fill="rgb(122,122,122)" height="5px" width="5px" x="76px" y="84px" /><rect fill="rgb(55,55,55)" height="5px" width="5px" x="80px" y="84px" /><rect fill="rgb(58,58,58)" height="5px" width="5px" x="84px" y="84px" /><rect fill="rgb(55,55,55)" height="5px" width="5px" x="88px" y="84px" /><rect fill="rgb(122,122,122)" height="5px" width="5px" x="92px" y="84px" /><rect fill="rgb(55,55,55)" height="5px" width="5px" x="96px" y="84px" /><rect fill="rgb(55,55,55)" height="5px" width="5px" x="100px" y="84px" /><rect fill="rgb(122,122,122)" height="5px" width="5px" x="104px" y="84px" /><rect fill="rgb(122,122,122)" height="5px" width="5px" x="108px" y="84px" /><rect fill="rgb(122,122,122)" height="5px" width="5px" x="112px" y="84px" /><rect fill="rgb(55,55,55)" height="5px" width="5px" x="116px" y="84px" /><rect fill="rgb(122,122,122)" height="5px" opacity="0.0078431372549" width="5px" x="12px" y="88px" /><rect fill="rgb(55,55,55)" height="5px" width="5px" x="16px" y="88px" /><rect fill="rgb(122,122,122)" height="5px" width="5px" x="20px" y="88px" /><rect fill="rgb(122,122,122)" height="5px" width="5px" x="24px" y="88px" /><rect fill="rgb(122,122,122)" height="5px" width="5px" x="28px" y="88px" /><rect fill="rgb(122,122,122)" height="5px" width="5px" x="32px" y="88px" /><rect fill="rgb(122,122,122)" height="5px" width="5px" x="36px" y="88px" /><rect fill="rgb(114,114,114)" height="5px" width="5px" x="40px" y="88px" /><rect fill="rgb(114,114,114)" height="5px" width="5px" x="44px" y="88px" /><rect fill="rgb(122,122,122)" height="5px" width="5px" x="48px" y="88px" /><rect fill="rgb(122,122,122)" height="5px" width="5px" x="52px" y="88px" /><rect fill="rgb(122,122,122)" height="5px" width="5px" x="56px" y="88px" /><rect fill="rgb(55,55,55)" height="5px" width="5px" x="60px" y="88px" /><rect fill="rgb(122,122,122)" height="5px" width="5px" x="64px" y="88px" /><rect fill="rgb(122,122,122)" height="5px" width="5px" x="68px" y="88px" /><rect fill="rgb(122,122,122)" height="5px" width="5px" x="72px" y="88px" /><rect fill="rgb(122,122,122)" height="5px" width="5px" x="76px" y="88px" /><rect fill="rgb(122,122,122)" height="5px" width="5px" x="80px" y="88px" /><rect fill="rgb(122,122,122)" height="5px" width="5px" x="84px" y="88px" /><rect fill="rgb(122,122,122)" height="5px" width="5px" x="88px" y="88px" /><rect fill="rgb(122,122,122)" height="5px" width="5px" x="92px" y="88px" /><rect fill="rgb(122,122,122)" height="5px" width="5px" x="96px" y="88px" /><rect fill="rgb(122,122,122)" height="5px" width="5px" x="100px" y="88px" /><rect fill="rgb(122,122,122)" height="5px" width="5px" x="104px" y="88px" /><rect fill="rgb(122,122,122)" height="5px" width="5px" x="108px" y="88px" /><rect fill="rgb(122,122,122)" height="5px" width="5px" x="112px" y="88px" /><rect fill="rgb(55,55,55)" height="5px" width="5px" x="116px" y="88px" /><rect fill="rgb(122,122,122)" height="5px" opacity="0.0078431372549" width="5px" x="12px" y="92px" /><rect fill="rgb(55,55,55)" height="5px" width="5px" x="16px" y="92px" /><rect fill="rgb(122,122,122)" height="5px" width="5px" x="20px" y="92px" /><rect fill="rgb(122,122,122)" height="5px" width="5px" x="24px" y="92px" /><rect fill="rgb(102,102,102)" height="5px" width="5px" x="28px" y="92px" /><rect fill="rgb(105,105,105)" height="5px" width="5px" x="32px" y="92px" /><rect fill="rgb(120,120,120)" height="5px" width="5px" x="36px" y="92px" /><rect fill="rgb(122,122,122)" height="5px" width="5px" x="40px" y="92px" /><rect fill="rgb(122,122,122)" height="5px" width="5px" x="44px" y="92px" /><rect fill="rgb(122,122,122)" height="5px" width="5px" x="48px" y="92px" /><rect fill="rgb(122,122,122)" height="5px" width="5px" x="52px" y="92px" /><rect fill="rgb(122,122,122)" height="5px" width="5px" x="56px" y="92px" /><rect fill="rgb(55,55,55)" height="5px" width="5px" x="60px" y="92px" /><rect fill="rgb(122,122,122)" height="5px" width="5px" x="64px" y="92px" /><rect fill="rgb(122,122,122)" height="5px" width="5px" x="68px" y="92px" /><rect fill="rgb(122,122,122)" height="5px" width="5px" x="72px" y="92px" /><rect fill="rgb(122,122,122)" height="5px" width="5px" x="76px" y="92px" /><rect fill="rgb(122,122,122)" height="5px" width="5px" x="80px" y="92px" /><rect fill="rgb(122,122,122)" height="5px" width="5px" x="84px" y="92px" /><rect fill="rgb(122,122,122)" height="5px" width="5px" x="88px" y="92px" /><rect fill="rgb(122,122,122)" height="5px" width="5px" x="92px" y="92px" /><rect fill="rgb(122,122,122)" height="5px" width="5px" x="96px" y="92px" /><rect fill="rgb(122,122,122)" height="5px" width="5px" x="100px" y="92px" /><rect fill="rgb(122,122,122)" height="5px" width="5px" x="104px" y="92px" /><rect fill="rgb(122,122,122)" height="5px" width="5px" x="108px" y="92px" /><rect fill="rgb(122,122,122)" height="5px" width="5px" x="112px" y="92px" /><rect fill="rgb(55,55,55)" height="5px" width="5px" x="116px" y="92px" /><rect fill="rgb(122,122,122)" height="5px" opacity="0.0078431372549" width="5px" x="12px" y="96px" /><rect fill="rgb(55,55,55)" height="5px" width="5px" x="16px" y="96px" /><rect fill="rgb(102,102,102)" height="5px" width="5px" x="20px" y="96px" /><rect fill="rgb(55,55,55)" height="5px" width="5px" x="24px" y="96px" /><rect fill="rgb(55,55,55)" height="5px" width="5px" x="28px" y="96px" /><rect fill="rgb(55,55,55)" height="5px" width="5px" x="32px" y="96px" /><rect fill="rgb(55,55,55)" height="5px" width="5px" x="36px" y="96px" /><rect fill="rgb(55,55,55)" height="5px" width="5px" x="40px" y="96px" /><rect fill="rgb(55,55,55)" height="5px" width="5px" x="44px" y="96px" /><rect fill="rgb(55,55,55)" height="5px" width="5px" x="48px" y="96px" /><rect fill="rgb(55,55,55)" height="5px" width="5px" x="52px" y="96px" /><rect fill="rgb(102,102,102)" height="5px" width="5px" x="56px" y="96px" /><rect fill="rgb(55,55,55)" height="5px" width="5px" x="60px" y="96px" /><rect fill="rgb(122,122,122)" height="5px" width="5px" x="64px" y="96px" /><rect fill="rgb(55,55,55)" height="5px" width="5px" x="68px" y="96px" /><rect fill="rgb(55,55,55)" height="5px" width="5px" x="72px" y="96px" /><rect fill="rgb(55,55,55)" height="5px" width="5px" x="76px" y="96px" /><rect fill="rgb(55,55,55)" height="5px" width="5px" x="80px" y="96px" /><rect fill="rgb(55,55,55)" height="5px" width="5px" x="84px" y="96px" /><rect fill="rgb(55,55,55)" height="5px" width="5px" x="88px" y="96px" /><rect fill="rgb(55,55,55)" height="5px" width="5px" x="92px" y="96px" /><rect fill="rgb(55,55,55)" height="5px" width="5px" x="96px" y="96px" /><rect fill="rgb(55,55,55)" height="5px" width="5px" x="100px" y="96px" /><rect fill="rgb(55,55,55)" height="5px" width="5px" x="104px" y="96px" /><rect fill="rgb(122,122,122)" height="5px" width="5px" x="108px" y="96px" /><rect fill="rgb(122,122,122)" height="5px" width="5px" x="112px" y="96px" /><rect fill="rgb(55,55,55)" height="5px" width="5px" x="116px" y="96px" /><rect fill="rgb(122,122,122)" height="5px" opacity="0.0078431372549" width="5px" x="12px" y="100px" /><rect fill="rgb(55,55,55)" height="5px" width="5px" x="16px" y="100px" /><rect fill="rgb(55,55,55)" height="5px" width="5px" x="20px" y="100px" /><rect fill="rgb(122,122,122)" height="5px" opacity="0.172549019608" width="5px" x="24px" y="100px" /><rect fill="rgb(122,122,122)" height="5px" opacity="0.0078431372549" width="5px" x="28px" y="100px" /><rect fill="rgb(122,122,122)" height="5px" opacity="0.101960784314" width="5px" x="44px" y="100px" /><rect fill="rgb(122,122,122)" height="5px" opacity="0.392156862745" width="5px" x="48px" y="100px" /><rect fill="rgb(55,55,55)" height="5px" width="5px" x="52px" y="100px" /><rect fill="rgb(55,55,55)" height="5px" width="5px" x="56px" y="100px" /><rect fill="rgb(55,55,55)" height="5px" width="5px" x="60px" y="100px" /><rect fill="rgb(55,55,55)" height="5px" width="5px" x="64px" y="100px" /><rect fill="rgb(55,55,55)" height="5px" width="5px" x="68px" y="100px" /><rect fill="rgb(122,122,122)" height="5px" opacity="0.262745098039" width="5px" x="72px" y="100px" /><rect fill="rgb(122,122,122)" height="5px" opacity="0.0392156862745" width="5px" x="76px" y="100px" /><rect fill="rgb(122,122,122)" height="5px" opacity="0.0078431372549" width="5px" x="88px" y="100px" /><rect fill="rgb(122,122,122)" height="5px" opacity="0.0549019607843" width="5px" x="92px" y="100px" /><rect fill="rgb(122,122,122)" height="5px" opacity="0.235294117647" width="5px" x="96px" y="100px" /><rect fill="rgb(122,122,122)" height="5px" opacity="0.541176470588" width="5px" x="100px" y="100px" /><rect fill="rgb(55,55,55)" height="5px" width="5px" x="104px" y="100px" /><rect fill="rgb(55,55,55)" height="5px" width="5px" x="108px" y="100px" /><rect fill="rgb(55,55,55)" height="5px" width="5px" x="112px" y="100px" /><rect fill="rgb(55,55,55)" height="5px" width="5px" x="116px" y="100px" /><rect fill="rgb(122,122,122)" height="5px" opacity="0.0078431372549" width="5px" x="12px" y="104px" /><rect fill="rgb(55,55,55)" height="5px" width="5px" x="16px" y="104px" /><rect fill="rgb(55,55,55)" height="5px" opacity="0.392156862745" width="5px" x="20px" y="104px" /><rect fill="rgb(81,81,81)" height="5px" opacity="0.545098039216" width="5px" x="56px" y="104px" /><rect fill="rgb(55,55,55)" height="5px" width="5px" x="60px" y="104px" /><rect fill="rgb(122,122,122)" height="5px" opacity="0.447058823529" width="5px" x="64px" y="104px" /><rect fill="rgb(112,112,112)" height="5px" opacity="0.219607843137" width="5px" x="108px" y="104px" /><rect fill="rgb(55,55,55)" height="5px" width="5px" x="112px" y="104px" /><rect fill="rgb(55,55,55)" height="5px" width="5px" x="116px" y="104px" /><rect fill="rgb(122,122,122)" height="5px" opacity="0.0078431372549" width="5px" x="12px" y="108px" /><rect fill="rgb(122,122,122)" height="5px" opacity="0.0470588235294" width="5px" x="16px" y="108px" /><rect fill="rgb(71,71,71)" height="5px" opacity="0.466666666667" width="5px" x="60px" y="108px" /><rect fill="rgb(122,122,122)" height="5px" opacity="0.258823529412" width="5px" x="116px" y="108px" /></svg>