<?xml version="1.0" encoding="utf-8" ?>
<svg baseProfile="full" height="128px" version="1.1" width="128px" xmlns="http://www.w3.org/2000/svg" xmlns:ev="http://www.w3.org/2001/xml-events" xmlns:xlink="http://www.w3.org/1999/xlink"><defs /><rect fill="rgb(255,255,255)" height="5px" opacity="0.0392156862745" width="5px" x="0px" y="0px" /><rect fill="rgb(255,255,255)" height="5px" opacity="0.0196078431373" width="5px" x="4px" y="0px" /><rect fill="rgb(255,255,255)" height="5px" opacity="0.0078431372549" width="5px" x="8px" y="0px" /><rect fill="rgb(255,255,255)" height="5px" opacity="0.00392156862745" width="5px" x="12px" y="0px" /><rect fill="rgb(255,255,255)" height="5px" opacity="0.00392156862745" width="5px" x="68px" y="0px" /><rect fill="rgb(255,255,255)" height="5px" opacity="0.00392156862745" width="5px" x="72px" y="0px" /><rect fill="rgb(255,255,255)" height="5px" opacity="0.00392156862745" width="5px" x="76px" y="0px" /><rect fill="rgb(255,255,255)" height="5px" opacity="0.0078431372549" width="5px" x="80px" y="0px" /><rect fill="rgb(255,255,255)" height="5px" opacity="0.0078431372549" width="5px" x="84px" y="0px" /><rect fill="rgb(255,255,255)" height="5px" opacity="0.00392156862745" width="5px" x="88px" y="0px" /><rect fill="rgb(255,255,255)" height="5px" opacity="0.00392156862745" width="5px" x="92px" y="0px" /><rect fill="rgb(255,255,255)" height="5px" opacity="0.00392156862745" width="5px" x="96px" y="0px" /><rect fill="rgb(255,255,255)" height="5px" opacity="0.0117647058824" width="5px" x="0px" y="4px" /><rect fill="rgb(255,255,255)" height="5px" opacity="0.00392156862745" width="5px" x="4px" y="4px" /><rect fill="rgb(255,255,255)" height="5px" opacity="0.00392156862745" width="5px" x="8px" y="4px" /><rect fill="rgb(0,0,0)" height="5px" opacity="0.0156862745098" width="5px" x="48px" y="4px" /><rect fill="rgb(0,0,0)" height="5px" opacity="0.341176470588" width="5px" x="52px" y="4px" /><rect fill="rgb(0,0,0)" height="5px" opacity="0.635294117647" width="5px" x="56px" y="4px" /><rect fill="rgb(0,0,0)" height="5px" opacity="0.827450980392" width="5px" x="60px" y="4px" /><rect fill="rgb(0,0,0)" height="5px" opacity="0.909803921569" width="5px" x="64px" y="4px" /><rect fill="rgb(0,0,0)" height="5px" opacity="0.921568627451" width="5px" x="68px" y="4px" /><rect fill="rgb(0,0,0)" height="5px" opacity="0.694117647059" width="5px" x="72px" y="4px" /><rect fill="rgb(0,0,0)" height="5px" opacity="0.341176470588" width="5px" x="76px" y="4px" /><rect fill="rgb(0,0,0)" height="5px" opacity="0.0078431372549" width="5px" x="80px" y="4px" /><rect fill="rgb(255,255,255)" height="5px" opacity="0.00392156862745" width="5px" x="0px" y="8px" /><rect fill="rgb(255,255,255)" height="5px" opacity="0.00392156862745" width="5px" x="4px" y="8px" /><rect fill="rgb(0,0,0)" height="5px" opacity="0.380392156863" width="5px" x="40px" y="8px" /><rect fill="rgb(0,0,0)" height="5px" opacity="0.839215686275" width="5px" x="44px" y="8px" /><rect fill="rgb(0,0,0)" height="5px" opacity="0.992156862745" width="5px" x="48px" y="8px" /><rect fill="rgb(0,0,0)" height="5px" width="5px" x="52px" y="8px" /><rect fill="rgb(0,0,0)" height="5px" width="5px" x="56px" y="8px" /><rect fill="rgb(0,0,0)" height="5px" opacity="0.992156862745" width="5px" x="60px" y="8px" /><rect fill="rgb(0,0,0)" height="5px" opacity="0.690196078431" width="5px" x="64px" y="8px" /><rect fill="rgb(0,0,0)" height="5px" opacity="0.0627450980392" width="5px" x="68px" y="8px" /><rect fill="rgb(0,0,0)" height="5px" opacity="0.41568627451" width="5px" x="32px" y="12px" /><rect fill="rgb(0,0,0)" height="5px" opacity="0.945098039216" width="5px" x="36px" y="12px" /><rect fill="rgb(0,0,0)" height="5px" width="5px" x="40px" y="12px" /><rect fill="rgb(0,0,0)" height="5px" width="5px" x="44px" y="12px" /><rect fill="rgb(0,0,0)" height="5px" width="5px" x="48px" y="12px" /><rect fill="rgb(0,0,0)" height="5px" width="5px" x="52px" y="12px" /><rect fill="rgb(0,0,0)" height="5px" opacity="0.933333333333" width="5px" x="56px" y="12px" /><rect fill="rgb(0,0,0)" height="5px" opacity="0.149019607843" width="5px" x="60px" y="12px" /><rect fill="rgb(0,0,0)" height="5px" opacity="0.0705882352941" width="5px" x="24px" y="16px" /><rect fill="rgb(0,0,0)" height="5px" opacity="0.83137254902" width="5px" x="28px" y="16px" /><rect fill="rgb(0,0,0)" height="5px" width="5px" x="32px" y="16px" /><rect fill="rgb(0,0,0)" height="5px" width="5px" x="36px" y="16px" /><rect fill="rgb(0,0,0)" height="5px" width="5px" x="40px" y="16px" /><rect fill="rgb(0,0,0)" height="5px" width="5px" x="44px" y="16px" /><rect fill="rgb(0,0,0)" height="5px" width="5px" x="48px" y="16px" /><rect fill="rgb(0,0,0)" height="5px" opacity="0.850980392157" width="5px" x="52px" y="16px" /><rect fill="rgb(0,0,0)" height="5px" opacity="0.0313725490196" width="5px" x="56px" y="16px" /><rect fill="rgb(0,0,0)" height="5px" opacity="0.149019607843" width="5px" x="20px" y="20px" /><rect fill="rgb(0,0,0)" height="5px" opacity="0.952941176471" width="5px" x="24px" y="20px" /><rect fill="rgb(0,0,0)" height="5px" width="5px" x="28px" y="20px" /><rect fill="rgb(0,0,0)" height="5px" width="5px" x="32px" y="20px" /><rect fill="rgb(0,0,0)" height="5px" width="5px" x="36px" y="20px" /><rect fill="rgb(0,0,0)" height="5px" width="5px" x="40px" y="20px" /><rect fill="rgb(0,0,0)" height="5px" width="5px" x="44px" y="20px" /><rect fill="rgb(0,0,0)" height="5px" opacity="0.925490196078" width="5px" x="48px" y="20px" /><rect fill="rgb(0,0,0)" height="5px" opacity="0.0274509803922" width="5px" x="52px" y="20px" /><rect fill="rgb(0,0,0)" height="5px" opacity="0.0980392156863" width="5px" x="16px" y="24px" /><rect fill="rgb(0,0,0)" height="5px" opacity="0.960784313725" width="5px" x="20px" y="24px" /><rect fill="rgb(0,0,0)" height="5px" width="5px" x="24px" y="24px" /><rect fill="rgb(0,0,0)" height="5px" width="5px" x="28px" y="24px" /><rect fill="rgb(0,0,0)" height="5px" width="5px" x="32px" y="24px" /><rect fill="rgb(0,0,0)" height="5px" width="5px" x="36px" y="24px" /><rect fill="rgb(0,0,0)" height="5px" width="5px" x="40px" y="24px" /><rect fill="rgb(0,0,0)" height="5px" opacity="0.992156862745" width="5px" x="44px" y="24px" /><rect fill="rgb(0,0,0)" height="5px" opacity="0.121568627451" width="5px" x="48px" y="24px" /><rect fill="rgb(0,0,0)" height="5px" opacity="0.874509803922" width="5px" x="16px" y="28px" /><rect fill="rgb(0,0,0)" height="5px" width="5px" x="20px" y="28px" /><rect fill="rgb(0,0,0)" height="5px" width="5px" x="24px" y="28px" /><rect fill="rgb(0,0,0)" height="5px" width="5px" x="28px" y="28px" /><rect fill="rgb(0,0,0)" height="5px" width="5px" x="32px" y="28px" /><rect fill="rgb(0,0,0)" height="5px" width="5px" x="36px" y="28px" /><rect fill="rgb(0,0,0)" height="5px" width="5px" x="40px" y="28px" /><rect fill="rgb(0,0,0)" height="5px" opacity="0.607843137255" width="5px" x="44px" y="28px" /><rect fill="rgb(255,255,255)" height="5px" opacity="0.00392156862745" width="5px" x="108px" y="28px" /><rect fill="rgb(255,255,255)" height="5px" opacity="0.00392156862745" width="5px" x="112px" y="28px" /><rect fill="rgb(255,255,255)" height="5px" opacity="0.00392156862745" width="5px" x="116px" y="28px" /><rect fill="rgb(255,255,255)" height="5px" opacity="0.00392156862745" width="5px" x="120px" y="28px" /><rect fill="rgb(255,255,255)" height="5px" opacity="0.00392156862745" width="5px" x="124px" y="28px" /><rect fill="rgb(0,0,0)" height="5px" opacity="0.490196078431" width="5px" x="12px" y="32px" /><rect fill="rgb(0,0,0)" height="5px" width="5px" x="16px" y="32px" /><rect fill="rgb(0,0,0)" height="5px" width="5px" x="20px" y="32px" /><rect fill="rgb(0,0,0)" height="5px" width="5px" x="24px" y="32px" /><rect fill="rgb(0,0,0)" height="5px" width="5px" x="28px" y="32px" /><rect fill="rgb(0,0,0)" height="5px" width="5px" x="32px" y="32px" /><rect fill="rgb(0,0,0)" height="5px" width="5px" x="36px" y="32px" /><rect fill="rgb(0,0,0)" height="5px" opacity="0.976470588235" width="5px" x="40px" y="32px" /><rect fill="rgb(0,0,0)" height="5px" opacity="0.0156862745098" width="5px" x="44px" y="32px" /><rect fill="rgb(255,255,255)" height="5px" opacity="0.00392156862745" width="5px" x="108px" y="32px" /><rect fill="rgb(255,255,255)" height="5px" opacity="0.00392156862745" width="5px" x="112px" y="32px" /><rect fill="rgb(255,255,255)" height="5px" opacity="0.00392156862745" width="5px" x="116px" y="32px" /><rect fill="rgb(255,255,255)" height="5px" opacity="0.00392156862745" width="5px" x="120px" y="32px" /><rect fill="rgb(255,255,255)" height="5px" opacity="0.00392156862745" width="5px" x="124px" y="32px" /><rect fill="rgb(0,0,0)" height="5px" opacity="0.960784313725" width="5px" x="12px" y="36px" /><rect fill="rgb(0,0,0)" height="5px" width="5px" x="16px" y="36px" /><rect fill="rgb(0,0,0)" height="5px" width="5px" x="20px" y="36px" /><rect fill="rgb(0,0,0)" height="5px" width="5px" x="24px" y="36px" /><rect fill="rgb(0,0,0)" height="5px" width="5px" x="28px" y="36px" /><rect fill="rgb(0,0,0)" height="5px" width="5px" x="32px" y="36px" /><rect fill="rgb(0,0,0)" height="5px" width="5px" x="36px" y="36px" /><rect fill="rgb(0,0,0)" height="5px" opacity="0.721568627451" width="5px" x="40px" y="36px" /><rect fill="rgb(0,0,0)" height="5px" opacity="0.0078431372549" width="5px" x="92px" y="36px" /><rect fill="rgb(0,0,0)" height="5px" opacity="0.349019607843" width="5px" x="8px" y="40px" /><rect fill="rgb(0,0,0)" height="5px" width="5px" x="12px" y="40px" /><rect fill="rgb(0,0,0)" height="5px" width="5px" x="16px" y="40px" /><rect fill="rgb(0,0,0)" height="5px" width="5px" x="20px" y="40px" /><rect fill="rgb(0,0,0)" height="5px" width="5px" x="24px" y="40px" /><rect fill="rgb(0,0,0)" height="5px" width="5px" x="28px" y="40px" /><rect fill="rgb(0,0,0)" height="5px" width="5px" x="32px" y="40px" /><rect fill="rgb(0,0,0)" height="5px" width="5px" x="36px" y="40px" /><rect fill="rgb(0,0,0)" height="5px" opacity="0.227450980392" width="5px" x="40px" y="40px" /><rect fill="rgb(0,0,0)" height="5px" opacity="0.0078431372549" width="5px" x="88px" y="40px" /><rect fill="rgb(0,0,0)" height="5px" opacity="0.741176470588" width="5px" x="8px" y="44px" /><rect fill="rgb(0,0,0)" height="5px" width="5px" x="12px" y="44px" /><rect fill="rgb(0,0,0)" height="5px" width="5px" x="16px" y="44px" /><rect fill="rgb(0,0,0)" height="5px" width="5px" x="20px" y="44px" /><rect fill="rgb(0,0,0)" height="5px" width="5px" x="24px" y="44px" /><rect fill="rgb(0,0,0)" height="5px" width="5px" x="28px" y="44px" /><rect fill="rgb(0,0,0)" height="5px" width="5px" x="32px" y="44px" /><rect fill="rgb(0,0,0)" height="5px" opacity="0.988235294118" width="5px" x="36px" y="44px" /><rect fill="rgb(0,0,0)" height="5px" opacity="0.00392156862745" width="5px" x="84px" y="44px" /><rect fill="rgb(0,0,0)" height="5px" opacity="0.270588235294" width="5px" x="88px" y="44px" /><rect fill="rgb(0,0,0)" height="5px" opacity="0.192156862745" width="5px" x="92px" y="44px" /><rect fill="rgb(0,0,0)" height="5px" opacity="0.909803921569" width="5px" x="8px" y="48px" /><rect fill="rgb(0,0,0)" height="5px" width="5px" x="12px" y="48px" /><rect fill="rgb(0,0,0)" height="5px" width="5px" x="16px" y="48px" /><rect fill="rgb(0,0,0)" height="5px" width="5px" x="20px" y="48px" /><rect fill="rgb(0,0,0)" height="5px" width="5px" x="24px" y="48px" /><rect fill="rgb(0,0,0)" height="5px" width="5px" x="28px" y="48px" /><rect fill="rgb(0,0,0)" height="5px" width="5px" x="32px" y="48px" /><rect fill="rgb(0,0,0)" height="5px" opacity="0.909803921569" width="5px" x="36px" y="48px" /><rect fill="rgb(0,0,0)" height="5px" opacity="0.0980392156863" width="5px" x="84px" y="48px" /><rect fill="rgb(0,0,0)" height="5px" opacity="0.690196078431" width="5px" x="88px" y="48px" /><rect fill="rgb(0,0,0)" height="5px" opacity="0.745098039216" width="5px" x="92px" y="48px" /><rect fill="rgb(0,0,0)" height="5px" opacity="0.0862745098039" width="5px" x="96px" y="48px" /><rect fill="rgb(0,0,0)" height="5px" opacity="0.964705882353" width="5px" x="8px" y="52px" /><rect fill="rgb(0,0,0)" height="5px" width="5px" x="12px" y="52px" /><rect fill="rgb(0,0,0)" height="5px" width="5px" x="16px" y="52px" /><rect fill="rgb(0,0,0)" height="5px" width="5px" x="20px" y="52px" /><rect fill="rgb(0,0,0)" height="5px" width="5px" x="24px" y="52px" /><rect fill="rgb(0,0,0)" height="5px" width="5px" x="28px" y="52px" /><rect fill="rgb(0,0,0)" height="5px" width="5px" x="32px" y="52px" /><rect fill="rgb(0,0,0)" height="5px" opacity="0.835294117647" width="5px" x="36px" y="52px" /><rect fill="rgb(0,0,0)" height="5px" opacity="0.0078431372549" width="5px" x="68px" y="52px" /><rect fill="rgb(0,0,0)" height="5px" opacity="0.0980392156863" width="5px" x="72px" y="52px" /><rect fill="rgb(0,0,0)" height="5px" opacity="0.129411764706" width="5px" x="76px" y="52px" /><rect fill="rgb(0,0,0)" height="5px" opacity="0.137254901961" width="5px" x="80px" y="52px" /><rect fill="rgb(0,0,0)" height="5px" opacity="0.392156862745" width="5px" x="84px" y="52px" /><rect fill="rgb(0,0,0)" height="5px" opacity="0.886274509804" width="5px" x="88px" y="52px" /><rect fill="rgb(0,0,0)" height="5px" opacity="0.96862745098" width="5px" x="92px" y="52px" /><rect fill="rgb(0,0,0)" height="5px" opacity="0.450980392157" width="5px" x="96px" y="52px" /><rect fill="rgb(0,0,0)" height="5px" opacity="0.117647058824" width="5px" x="100px" y="52px" /><rect fill="rgb(0,0,0)" height="5px" opacity="0.109803921569" width="5px" x="104px" y="52px" /><rect fill="rgb(0,0,0)" height="5px" opacity="0.101960784314" width="5px" x="108px" y="52px" /><rect fill="rgb(0,0,0)" height="5px" opacity="0.0274509803922" width="5px" x="112px" y="52px" /><rect fill="rgb(0,0,0)" height="5px" opacity="0.964705882353" width="5px" x="8px" y="56px" /><rect fill="rgb(0,0,0)" height="5px" width="5px" x="12px" y="56px" /><rect fill="rgb(0,0,0)" height="5px" width="5px" x="16px" y="56px" /><rect fill="rgb(0,0,0)" height="5px" width="5px" x="20px" y="56px" /><rect fill="rgb(0,0,0)" height="5px" width="5px" x="24px" y="56px" /><rect fill="rgb(0,0,0)" height="5px" width="5px" x="28px" y="56px" /><rect fill="rgb(0,0,0)" height="5px" width="5px" x="32px" y="56px" /><rect fill="rgb(0,0,0)" height="5px" opacity="0.788235294118" width="5px" x="36px" y="56px" /><rect fill="rgb(0,0,0)" height="5px" opacity="0.0156862745098" width="5px" x="68px" y="56px" /><rect fill="rgb(0,0,0)" height="5px" opacity="0.396078431373" width="5px" x="72px" y="56px" /><rect fill="rgb(0,0,0)" height="5px" opacity="0.713725490196" width="5px" x="76px" y="56px" /><rect fill="rgb(0,0,0)" height="5px" opacity="0.741176470588" width="5px" x="80px" y="56px" /><rect fill="rgb(0,0,0)" height="5px" opacity="0.847058823529" width="5px" x="84px" y="56px" /><rect fill="rgb(0,0,0)" height="5px" opacity="0.980392156863" width="5px" x="88px" y="56px" /><rect fill="rgb(0,0,0)" height="5px" width="5px" x="92px" y="56px" /><rect fill="rgb(0,0,0)" height="5px" opacity="0.866666666667" width="5px" x="96px" y="56px" /><rect fill="rgb(0,0,0)" height="5px" opacity="0.713725490196" width="5px" x="100px" y="56px" /><rect fill="rgb(0,0,0)" height="5px" opacity="0.709803921569" width="5px" x="104px" y="56px" /><rect fill="rgb(0,0,0)" height="5px" opacity="0.556862745098" width="5px" x="108px" y="56px" /><rect fill="rgb(0,0,0)" height="5px" opacity="0.121568627451" width="5px" x="112px" y="56px" /><rect fill="rgb(0,0,0)" height="5px" opacity="0.960784313725" width="5px" x="8px" y="60px" /><rect fill="rgb(0,0,0)" height="5px" width="5px" x="12px" y="60px" /><rect fill="rgb(0,0,0)" height="5px" width="5px" x="16px" y="60px" /><rect fill="rgb(0,0,0)" height="5px" width="5px" x="20px" y="60px" /><rect fill="rgb(0,0,0)" height="5px" width="5px" x="24px" y="60px" /><rect fill="rgb(0,0,0)" height="5px" width="5px" x="28px" y="60px" /><rect fill="rgb(0,0,0)" height="5px" width="5px" x="32px" y="60px" /><rect fill="rgb(0,0,0)" height="5px" opacity="0.78431372549" width="5px" x="36px" y="60px" /><rect fill="rgb(0,0,0)" height="5px" opacity="0.00392156862745" width="5px" x="68px" y="60px" /><rect fill="rgb(0,0,0)" height="5px" opacity="0.2" width="5px" x="72px" y="60px" /><rect fill="rgb(0,0,0)" height="5px" opacity="0.811764705882" width="5px" x="76px" y="60px" /><rect fill="rgb(0,0,0)" height="5px" width="5px" x="80px" y="60px" /><rect fill="rgb(0,0,0)" height="5px" width="5px" x="84px" y="60px" /><rect fill="rgb(0,0,0)" height="5px" width="5px" x="88px" y="60px" /><rect fill="rgb(0,0,0)" height="5px" width="5px" x="92px" y="60px" /><rect fill="rgb(0,0,0)" height="5px" opacity="0.996078431373" width="5px" x="96px" y="60px" /><rect fill="rgb(0,0,0)" height="5px" opacity="0.996078431373" width="5px" x="100px" y="60px" /><rect fill="rgb(0,0,0)" height="5px" opacity="0.882352941176" width="5px" x="104px" y="60px" /><rect fill="rgb(0,0,0)" height="5px" opacity="0.38431372549" width="5px" x="108px" y="60px" /><rect fill="rgb(0,0,0)" height="5px" opacity="0.043137254902" width="5px" x="112px" y="60px" /><rect fill="rgb(0,0,0)" height="5px" opacity="0.913725490196" width="5px" x="8px" y="64px" /><rect fill="rgb(0,0,0)" height="5px" width="5px" x="12px" y="64px" /><rect fill="rgb(0,0,0)" height="5px" width="5px" x="16px" y="64px" /><rect fill="rgb(0,0,0)" height="5px" width="5px" x="20px" y="64px" /><rect fill="rgb(0,0,0)" height="5px" width="5px" x="24px" y="64px" /><rect fill="rgb(0,0,0)" height="5px" width="5px" x="28px" y="64px" /><rect fill="rgb(0,0,0)" height="5px" width="5px" x="32px" y="64px" /><rect fill="rgb(0,0,0)" height="5px" opacity="0.854901960784" width="5px" x="36px" y="64px" /><rect fill="rgb(0,0,0)" height="5px" opacity="0.0156862745098" width="5px" x="72px" y="64px" /><rect fill="rgb(0,0,0)" height="5px" opacity="0.380392156863" width="5px" x="76px" y="64px" /><rect fill="rgb(0,0,0)" height="5px" opacity="0.956862745098" width="5px" x="80px" y="64px" /><rect fill="rgb(0,0,0)" height="5px" width="5px" x="84px" y="64px" /><rect fill="rgb(0,0,0)" height="5px" width="5px" x="88px" y="64px" /><rect fill="rgb(0,0,0)" height="5px" width="5px" x="92px" y="64px" /><rect fill="rgb(0,0,0)" height="5px" width="5px" x="96px" y="64px" /><rect fill="rgb(0,0,0)" height="5px" opacity="0.937254901961" width="5px" x="100px" y="64px" /><rect fill="rgb(0,0,0)" height="5px" opacity="0.443137254902" width="5px" x="104px" y="64px" /><rect fill="rgb(0,0,0)" height="5px" opacity="0.0313725490196" width="5px" x="108px" y="64px" /><rect fill="rgb(0,0,0)" height="5px" opacity="0.752941176471" width="5px" x="8px" y="68px" /><rect fill="rgb(0,0,0)" height="5px" width="5px" x="12px" y="68px" /><rect fill="rgb(0,0,0)" height="5px" width="5px" x="16px" y="68px" /><rect fill="rgb(0,0,0)" height="5px" width="5px" x="20px" y="68px" /><rect fill="rgb(0,0,0)" height="5px" width="5px" x="24px" y="68px" /><rect fill="rgb(0,0,0)" height="5px" width="5px" x="28px" y="68px" /><rect fill="rgb(0,0,0)" height="5px" width="5px" x="32px" y="68px" /><rect fill="rgb(0,0,0)" height="5px" opacity="0.917647058824" width="5px" x="36px" y="68px" /><rect fill="rgb(255,255,255)" height="5px" opacity="0.00392156862745" width="5px" x="44px" y="68px" /><rect fill="rgb(255,255,255)" height="5px" opacity="0.00392156862745" width="5px" x="48px" y="68px" /><rect fill="rgb(255,255,255)" height="5px" opacity="0.00392156862745" width="5px" x="52px" y="68px" /><rect fill="rgb(0,0,0)" height="5px" opacity="0.105882352941" width="5px" x="76px" y="68px" /><rect fill="rgb(0,0,0)" height="5px" opacity="0.670588235294" width="5px" x="80px" y="68px" /><rect fill="rgb(0,0,0)" height="5px" width="5px" x="84px" y="68px" /><rect fill="rgb(0,0,0)" height="5px" opacity="0.98431372549" width="5px" x="88px" y="68px" /><rect fill="rgb(0,0,0)" height="5px" opacity="0.988235294118" width="5px" x="92px" y="68px" /><rect fill="rgb(0,0,0)" height="5px" opacity="0.98431372549" width="5px" x="96px" y="68px" /><rect fill="rgb(0,0,0)" height="5px" opacity="0.619607843137" width="5px" x="100px" y="68px" /><rect fill="rgb(0,0,0)" height="5px" opacity="0.0470588235294" width="5px" x="104px" y="68px" /><rect fill="rgb(0,0,0)" height="5px" opacity="0.498039215686" width="5px" x="8px" y="72px" /><rect fill="rgb(0,0,0)" height="5px" width="5px" x="12px" y="72px" /><rect fill="rgb(0,0,0)" height="5px" width="5px" x="16px" y="72px" /><rect fill="rgb(0,0,0)" height="5px" width="5px" x="20px" y="72px" /><rect fill="rgb(0,0,0)" height="5px" width="5px" x="24px" y="72px" /><rect fill="rgb(0,0,0)" height="5px" width="5px" x="28px" y="72px" /><rect fill="rgb(0,0,0)" height="5px" width="5px" x="32px" y="72px" /><rect fill="rgb(0,0,0)" height="5px" opacity="0.992156862745" width="5px" x="36px" y="72px" /><rect fill="rgb(156,156,156)" height="5px" opacity="0.0117647058824" width="5px" x="40px" y="72px" /><rect fill="rgb(255,255,255)" height="5px" opacity="0.00392156862745" width="5px" x="44px" y="72px" /><rect fill="rgb(255,255,255)" height="5px" opacity="0.0078431372549" width="5px" x="48px" y="72px" /><rect fill="rgb(255,255,255)" height="5px" opacity="0.00392156862745" width="5px" x="52px" y="72px" /><rect fill="rgb(0,0,0)" height="5px" opacity="0.0980392156863" width="5px" x="76px" y="72px" /><rect fill="rgb(0,0,0)" height="5px" opacity="0.654901960784" width="5px" x="80px" y="72px" /><rect fill="rgb(0,0,0)" height="5px" opacity="0.956862745098" width="5px" x="84px" y="72px" /><rect fill="rgb(0,0,0)" height="5px" opacity="0.678431372549" width="5px" x="88px" y="72px" /><rect fill="rgb(0,0,0)" height="5px" opacity="0.654901960784" width="5px" x="92px" y="72px" /><rect fill="rgb(0,0,0)" height="5px" opacity="0.949019607843" width="5px" x="96px" y="72px" /><rect fill="rgb(0,0,0)" height="5px" opacity="0.666666666667" width="5px" x="100px" y="72px" /><rect fill="rgb(0,0,0)" height="5px" opacity="0.0666666666667" width="5px" x="104px" y="72px" /><rect fill="rgb(0,0,0)" height="5px" opacity="0.0549019607843" width="5px" x="8px" y="76px" /><rect fill="rgb(0,0,0)" height="5px" opacity="0.992156862745" width="5px" x="12px" y="76px" /><rect fill="rgb(0,0,0)" height="5px" width="5px" x="16px" y="76px" /><rect fill="rgb(0,0,0)" height="5px" width="5px" x="20px" y="76px" /><rect fill="rgb(0,0,0)" height="5px" width="5px" x="24px" y="76px" /><rect fill="rgb(0,0,0)" height="5px" width="5px" x="28px" y="76px" /><rect fill="rgb(0,0,0)" height="5px" width="5px" x="32px" y="76px" /><rect fill="rgb(0,0,0)" height="5px" width="5px" x="36px" y="76px" /><rect fill="rgb(26,26,26)" height="5px" opacity="0.270588235294" width="5px" x="40px" y="76px" /><rect fill="rgb(255,255,255)" height="5px" opacity="0.0078431372549" width="5px" x="44px" y="76px" /><rect fill="rgb(255,255,255)" height="5px" opacity="0.0078431372549" width="5px" x="48px" y="76px" /><rect fill="rgb(0,0,0)" height="5px" opacity="0.149019607843" width="5px" x="76px" y="76px" /><rect fill="rgb(0,0,0)" height="5px" opacity="0.694117647059" width="5px" x="80px" y="76px" /><rect fill="rgb(0,0,0)" height="5px" opacity="0.596078431373" width="5px" x="84px" y="76px" /><rect fill="rgb(0,0,0)" height="5px" opacity="0.145098039216" width="5px" x="88px" y="76px" /><rect fill="rgb(0,0,0)" height="5px" opacity="0.078431372549" width="5px" x="92px" y="76px" /><rect fill="rgb(0,0,0)" height="5px" opacity="0.556862745098" width="5px" x="96px" y="76px" /><rect fill="rgb(0,0,0)" height="5px" opacity="0.725490196078" width="5px" x="100px" y="76px" /><rect fill="rgb(0,0,0)" height="5px" opacity="0.23137254902" width="5px" x="104px" y="76px" /><rect fill="rgb(0,0,0)" height="5px" opacity="0.776470588235" width="5px" x="12px" y="80px" /><rect fill="rgb(0,0,0)" height="5px" width="5px" x="16px" y="80px" /><rect fill="rgb(0,0,0)" height="5px" width="5px" x="20px" y="80px" /><rect fill="rgb(0,0,0)" height="5px" width="5px" x="24px" y="80px" /><rect fill="rgb(0,0,0)" height="5px" width="5px" x="28px" y="80px" /><rect fill="rgb(0,0,0)" height="5px" width="5px" x="32px" y="80px" /><rect fill="rgb(0,0,0)" height="5px" width="5px" x="36px" y="80px" /><rect fill="rgb(6,6,6)" height="5px" opacity="0.709803921569" width="5px" x="40px" y="80px" /><rect fill="rgb(255,255,255)" height="5px" opacity="0.00392156862745" width="5px" x="44px" y="80px" /><rect fill="rgb(255,255,255)" height="5px" opacity="0.00392156862745" width="5px" x="48px" y="80px" /><rect fill="rgb(0,0,0)" height="5px" opacity="0.113725490196" width="5px" x="76px" y="80px" /><rect fill="rgb(0,0,0)" height="5px" opacity="0.364705882353" width="5px" x="80px" y="80px" /><rect fill="rgb(0,0,0)" height="5px" opacity="0.121568627451" width="5px" x="84px" y="80px" /><rect fill="rgb(0,0,0)" height="5px" opacity="0.0078431372549" width="5px" x="88px" y="80px" /><rect fill="rgb(0,0,0)" height="5px" opacity="0.0941176470588" width="5px" x="96px" y="80px" /><rect fill="rgb(0,0,0)" height="5px" opacity="0.396078431373" width="5px" x="100px" y="80px" /><rect fill="rgb(0,0,0)" height="5px" opacity="0.278431372549" width="5px" x="104px" y="80px" /><rect fill="rgb(0,0,0)" height="5px" opacity="0.0078431372549" width="5px" x="108px" y="80px" /><rect fill="rgb(0,0,0)" height="5px" opacity="0.219607843137" width="5px" x="12px" y="84px" /><rect fill="rgb(0,0,0)" height="5px" width="5px" x="16px" y="84px" /><rect fill="rgb(0,0,0)" height="5px" width="5px" x="20px" y="84px" /><rect fill="rgb(0,0,0)" height="5px" width="5px" x="24px" y="84px" /><rect fill="rgb(0,0,0)" height="5px" width="5px" x="28px" y="84px" /><rect fill="rgb(0,0,0)" height="5px" width="5px" x="32px" y="84px" /><rect fill="rgb(0,0,0)" height="5px" width="5px" x="36px" y="84px" /><rect fill="rgb(0,0,0)" height="5px" opacity="0.972549019608" width="5px" x="40px" y="84px" /><rect fill="rgb(0,0,0)" height="5px" opacity="0.0117647058824" width="5px" x="76px" y="84px" /><rect fill="rgb(0,0,0)" height="5px" opacity="0.0313725490196" width="5px" x="80px" y="84px" /><rect fill="rgb(0,0,0)" height="5px" opacity="0.00392156862745" width="5px" x="84px" y="84px" /><rect fill="rgb(0,0,0)" height="5px" opacity="0.00392156862745" width="5px" x="96px" y="84px" /><rect fill="rgb(0,0,0)" height="5px" opacity="0.0392156862745" width="5px" x="100px" y="84px" /><rect fill="rgb(0,0,0)" height="5px" opacity="0.0470588235294" width="5px" x="104px" y="84px" /><rect fill="rgb(0,0,0)" height="5px" opacity="0.00392156862745" width="5px" x="108px" y="84px" /><rect fill="rgb(0,0,0)" height="5px" opacity="0.698039215686" width="5px" x="16px" y="88px" /><rect fill="rgb(0,0,0)" height="5px" width="5px" x="20px" y="88px" /><rect fill="rgb(0,0,0)" height="5px" width="5px" x="24px" y="88px" /><rect fill="rgb(0,0,0)" height="5px" width="5px" x="28px" y="88px" /><rect fill="rgb(0,0,0)" height="5px" width="5px" x="32px" y="88px" /><rect fill="rgb(0,0,0)" height="5px" width="5px" x="36px" y="88px" /><rect fill="rgb(0,0,0)" height="5px" width="5px" x="40px" y="88px" /><rect fill="rgb(0,0,0)" height="5px" opacity="0.466666666667" width="5px" x="44px" y="88px" /><rect fill="rgb(0,0,0)" height="5px" opacity="0.00392156862745" width="5px" x="92px" y="88px" /><rect fill="rgb(0,0,0)" height="5px" opacity="0.0235294117647" width="5px" x="16px" y="92px" /><rect fill="rgb(0,0,0)" height="5px" opacity="0.952941176471" width="5px" x="20px" y="92px" /><rect fill="rgb(0,0,0)" height="5px" width="5px" x="24px" y="92px" /><rect fill="rgb(0,0,0)" height="5px" width="5px" x="28px" y="92px" /><rect fill="rgb(0,0,0)" height="5px" width="5px" x="32px" y="92px" /><rect fill="rgb(0,0,0)" height="5px" width="5px" x="36px" y="92px" /><rect fill="rgb(0,0,0)" height="5px" width="5px" x="40px" y="92px" /><rect fill="rgb(0,0,0)" height="5px" opacity="0.964705882353" width="5px" x="44px" y="92px" /><rect fill="rgb(0,0,0)" height="5px" opacity="0.0156862745098" width="5px" x="48px" y="92px" /><rect fill="rgb(0,0,0)" height="5px" opacity="0.207843137255" width="5px" x="20px" y="96px" /><rect fill="rgb(0,0,0)" height="5px" opacity="0.98431372549" width="5px" x="24px" y="96px" /><rect fill="rgb(0,0,0)" height="5px" width="5px" x="28px" y="96px" /><rect fill="rgb(0,0,0)" height="5px" width="5px" x="32px" y="96px" /><rect fill="rgb(0,0,0)" height="5px" width="5px" x="36px" y="96px" /><rect fill="rgb(0,0,0)" height="5px" width="5px" x="40px" y="96px" /><rect fill="rgb(0,0,0)" height="5px" width="5px" x="44px" y="96px" /><rect fill="rgb(0,0,0)" height="5px" opacity="0.678431372549" width="5px" x="48px" y="96px" /><rect fill="rgb(0,0,0)" height="5px" opacity="0.219607843137" width="5px" x="24px" y="100px" /><rect fill="rgb(0,0,0)" height="5px" opacity="0.98431372549" width="5px" x="28px" y="100px" /><rect fill="rgb(0,0,0)" height="5px" width="5px" x="32px" y="100px" /><rect fill="rgb(0,0,0)" height="5px" width="5px" x="36px" y="100px" /><rect fill="rgb(0,0,0)" height="5px" width="5px" x="40px" y="100px" /><rect fill="rgb(0,0,0)" height="5px" width="5px" x="44px" y="100px" /><rect fill="rgb(0,0,0)" height="5px" width="5px" x="48px" y="100px" /><rect fill="rgb(0,0,0)" height="5px" opacity="0.407843137255" width="5px" x="52px" y="100px" /><rect fill="rgb(0,0,0)" height="5px" opacity="0.243137254902" width="5px" x="28px" y="104px" /><rect fill="rgb(0,0,0)" height="5px" opacity="0.952941176471" width="5px" x="32px" y="104px" /><rect fill="rgb(0,0,0)" height="5px" width="5px" x="36px" y="104px" /><rect fill="rgb(0,0,0)" height="5px" width="5px" x="40px" y="104px" /><rect fill="rgb(0,0,0)" height="5px" width="5px" x="44px" y="104px" /><rect fill="rgb(0,0,0)" height="5px" width="5px" x="48px" y="104px" /><rect fill="rgb(0,0,0)" height="5px" opacity="0.988235294118" width="5px" x="52px" y="104px" /><rect fill="rgb(0,0,0)" height="5px" opacity="0.282352941176" width="5px" x="56px" y="104px" /><rect fill="rgb(0,0,0)" height="5px" opacity="0.0313725490196" width="5px" x="32px" y="108px" /><rect fill="rgb(0,0,0)" height="5px" opacity="0.752941176471" width="5px" x="36px" y="108px" /><rect fill="rgb(0,0,0)" height="5px" width="5px" x="40px" y="108px" /><rect fill="rgb(0,0,0)" height="5px" width="5px" x="44px" y="108px" /><rect fill="rgb(0,0,0)" height="5px" width="5px" x="48px" y="108px" /><rect fill="rgb(0,0,0)" height="5px" width="5px" x="52px" y="108px" /><rect fill="rgb(0,0,0)" height="5px" opacity="0.992156862745" width="5px" x="56px" y="108px" /><rect fill="rgb(0,0,0)" height="5px" opacity="0.349019607843" width="5px" x="60px" y="108px" /><rect fill="rgb(0,0,0)" height="5px" opacity="0.309803921569" width="5px" x="40px" y="112px" /><rect fill="rgb(0,0,0)" height="5px" opacity="0.890196078431" width="5px" x="44px" y="112px" /><rect fill="rgb(0,0,0)" height="5px" width="5px" x="48px" y="112px" /><rect fill="rgb(0,0,0)" height="5px" width="5px" x="52px" y="112px" /><rect fill="rgb(0,0,0)" height="5px" width="5px" x="56px" y="112px" /><rect fill="rgb(0,0,0)" height="5px" width="5px" x="60px" y="112px" /><rect fill="rgb(0,0,0)" height="5px" opacity="0.678431372549" width="5px" x="64px" y="112px" /><rect fill="rgb(0,0,0)" height="5px" opacity="0.0156862745098" width="5px" x="68px" y="112px" /><rect fill="rgb(255,255,255)" height="5px" opacity="0.00392156862745" width="5px" x="24px" y="116px" /><rect fill="rgb(255,255,255)" height="5px" opacity="0.00392156862745" width="5px" x="28px" y="116px" /><rect fill="rgb(255,255,255)" height="5px" opacity="0.00392156862745" width="5px" x="32px" y="116px" /><rect fill="rgb(0,0,0)" height="5px" opacity="0.207843137255" width="5px" x="48px" y="116px" /><rect fill="rgb(0,0,0)" height="5px" opacity="0.709803921569" width="5px" x="52px" y="116px" /><rect fill="rgb(0,0,0)" height="5px" opacity="0.941176470588" width="5px" x="56px" y="116px" /><rect fill="rgb(0,0,0)" height="5px" width="5px" x="60px" y="116px" /><rect fill="rgb(0,0,0)" height="5px" width="5px" x="64px" y="116px" /><rect fill="rgb(0,0,0)" height="5px" opacity="0.945098039216" width="5px" x="68px" y="116px" /><rect fill="rgb(0,0,0)" height="5px" opacity="0.462745098039" width="5px" x="72px" y="116px" /><rect fill="rgb(0,0,0)" height="5px" opacity="0.0078431372549" width="5px" x="76px" y="116px" /><rect fill="rgb(255,255,255)" height="5px" opacity="0.00392156862745" width="5px" x="20px" y="120px" /><rect fill="rgb(255,255,255)" height="5px" opacity="0.0078431372549" width="5px" x="24px" y="120px" /><rect fill="rgb(255,255,255)" height="5px" opacity="0.0117647058824" width="5px" x="28px" y="120px" /><rect fill="rgb(255,255,255)" height="5px" opacity="0.0078431372549" width="5px" x="32px" y="120px" /><rect fill="rgb(255,255,255)" height="5px" opacity="0.00392156862745" width="5px" x="36px" y="120px" /><rect fill="rgb(255,255,255)" height="5px" opacity="0.00392156862745" width="5px" x="40px" y="120px" /><rect fill="rgb(255,255,255)" height="5px" opacity="0.00392156862745" width="5px" x="44px" y="120px" /><rect fill="rgb(255,255,255)" height="5px" opacity="0.00392156862745" width="5px" x="48px" y="120px" /><rect fill="rgb(0,0,0)" height="5px" opacity="0.0313725490196" width="5px" x="60px" y="120px" /><rect fill="rgb(0,0,0)" height="5px" opacity="0.301960784314" width="5px" x="64px" y="120px" /><rect fill="rgb(0,0,0)" height="5px" opacity="0.486274509804" width="5px" x="68px" y="120px" /><rect fill="rgb(0,0,0)" height="5px" opacity="0.556862745098" width="5px" x="72px" y="120px" /><rect fill="rgb(0,0,0)" height="5px" opacity="0.380392156863" width="5px" x="76px" y="120px" /><rect fill="rgb(0,0,0)" height="5px" opacity="0.0235294117647" width="5px" x="80px" y="120px" /><rect fill="rgb(255,255,255)" height="5px" opacity="0.00392156862745" width="5px" x="0px" y="124px" /><rect fill="rgb(255,255,255)" height="5px" opacity="0.00392156862745" width="5px" x="20px" y="124px" /><rect fill="rgb(255,255,255)" height="5px" opacity="0.0156862745098" width="5px" x="24px" y="124px" /><rect fill="rgb(255,255,255)" height="5px" opacity="0.0235294117647" width="5px" x="28px" y="124px" /><rect fill="rgb(255,255,255)" height="5px" opacity="0.0196078431373" width="5px" x="32px" y="124px" /><rect fill="rgb(255,255,255)" height="5px" opacity="0.0156862745098" width="5px" x="36px" y="124px" /><rect fill="rgb(255,255,255)" height="5px" opacity="0.0156862745098" width="5px" x="40px" y="124px" /><rect fill="rgb(255,255,255)" height="5px" opacity="0.0156862745098" width="5px" x="44px" y="124px" /><rect fill="rgb(255,255,255)" height="5px" opacity="0.0078431372549" width="5px" x="48px" y="124px" /><rect fill="rgb(255,255,255)" height="5px" opacity="0.0078431372549" width="5px" x="52px" y="124px" /><rect fill="rgb(255,255,255)" height="5px" opacity="0.00392156862745" width="5px" x="56px" y="124px" /><rect fill="rgb(255,255,255)" height="5px" opacity="0.00392156862745" width="5px" x="60px" y="124px" /><rect fill="rgb(255,255,255)" height="5px" opacity="0.00392156862745" width="5px" x="64px" y="124px" /><rect fill="rgb(255,255,255)" height="5px" opacity="0.00392156862745" width="5px" x="68px" y="124px" /><rect fill="rgb(255,255,255)" height="5px" opacity="0.00392156862745" width="5px" x="72px" y="124px" /></svg>