<?xml version="1.0" encoding="utf-8" ?>
<svg baseProfile="full" height="128px" version="1.1" width="128px" xmlns="http://www.w3.org/2000/svg" xmlns:ev="http://www.w3.org/2001/xml-events" xmlns:xlink="http://www.w3.org/1999/xlink"><defs /><rect fill="rgb(55,55,55)" height="5px" opacity="0.0470588235294" width="5px" x="44px" y="24px" /><rect fill="rgb(55,55,55)" height="5px" opacity="0.549019607843" width="5px" x="48px" y="24px" /><rect fill="rgb(55,55,55)" height="5px" opacity="0.874509803922" width="5px" x="52px" y="24px" /><rect fill="rgb(55,55,55)" height="5px" width="5px" x="56px" y="24px" /><rect fill="rgb(55,55,55)" height="5px" width="5px" x="60px" y="24px" /><rect fill="rgb(55,55,55)" height="5px" width="5px" x="64px" y="24px" /><rect fill="rgb(55,55,55)" height="5px" opacity="0.949019607843" width="5px" x="68px" y="24px" /><rect fill="rgb(55,55,55)" height="5px" opacity="0.996078431373" width="5px" x="72px" y="24px" /><rect fill="rgb(55,55,55)" height="5px" opacity="0.992156862745" width="5px" x="76px" y="24px" /><rect fill="rgb(55,55,55)" height="5px" opacity="0.972549019608" width="5px" x="80px" y="24px" /><rect fill="rgb(55,55,55)" height="5px" opacity="0.874509803922" width="5px" x="84px" y="24px" /><rect fill="rgb(55,55,55)" height="5px" opacity="0.737254901961" width="5px" x="88px" y="24px" /><rect fill="rgb(55,55,55)" height="5px" opacity="0.501960784314" width="5px" x="92px" y="24px" /><rect fill="rgb(55,55,55)" height="5px" opacity="0.133333333333" width="5px" x="96px" y="24px" /><rect fill="rgb(55,55,55)" height="5px" opacity="0.301960784314" width="5px" x="28px" y="28px" /><rect fill="rgb(55,55,55)" height="5px" opacity="0.760784313725" width="5px" x="32px" y="28px" /><rect fill="rgb(55,55,55)" height="5px" opacity="0.949019607843" width="5px" x="36px" y="28px" /><rect fill="rgb(55,55,55)" height="5px" opacity="0.996078431373" width="5px" x="40px" y="28px" /><rect fill="rgb(55,55,55)" height="5px" width="5px" x="44px" y="28px" /><rect fill="rgb(55,55,55)" height="5px" width="5px" x="48px" y="28px" /><rect fill="rgb(55,55,55)" height="5px" opacity="0.98431372549" width="5px" x="52px" y="28px" /><rect fill="rgb(55,55,55)" height="5px" opacity="0.898039215686" width="5px" x="56px" y="28px" /><rect fill="rgb(55,55,55)" height="5px" opacity="0.862745098039" width="5px" x="60px" y="28px" /><rect fill="rgb(55,55,55)" height="5px" width="5px" x="64px" y="28px" /><rect fill="rgb(55,55,55)" height="5px" width="5px" x="68px" y="28px" /><rect fill="rgb(55,55,55)" height="5px" width="5px" x="72px" y="28px" /><rect fill="rgb(55,55,55)" height="5px" width="5px" x="76px" y="28px" /><rect fill="rgb(55,55,55)" height="5px" width="5px" x="80px" y="28px" /><rect fill="rgb(55,55,55)" height="5px" opacity="0.945098039216" width="5px" x="84px" y="28px" /><rect fill="rgb(55,55,55)" height="5px" opacity="0.980392156863" width="5px" x="88px" y="28px" /><rect fill="rgb(55,55,55)" height="5px" opacity="0.992156862745" width="5px" x="92px" y="28px" /><rect fill="rgb(55,55,55)" height="5px" width="5px" x="96px" y="28px" /><rect fill="rgb(55,55,55)" height="5px" width="5px" x="100px" y="28px" /><rect fill="rgb(55,55,55)" height="5px" opacity="0.996078431373" width="5px" x="104px" y="28px" /><rect fill="rgb(55,55,55)" height="5px" opacity="0.988235294118" width="5px" x="108px" y="28px" /><rect fill="rgb(55,55,55)" height="5px" opacity="0.949019607843" width="5px" x="112px" y="28px" /><rect fill="rgb(55,55,55)" height="5px" opacity="0.603921568627" width="5px" x="12px" y="32px" /><rect fill="rgb(55,55,55)" height="5px" opacity="0.894117647059" width="5px" x="16px" y="32px" /><rect fill="rgb(55,55,55)" height="5px" opacity="0.98431372549" width="5px" x="20px" y="32px" /><rect fill="rgb(55,55,55)" height="5px" width="5px" x="24px" y="32px" /><rect fill="rgb(55,55,55)" height="5px" width="5px" x="28px" y="32px" /><rect fill="rgb(55,55,55)" height="5px" opacity="0.996078431373" width="5px" x="32px" y="32px" /><rect fill="rgb(55,55,55)" height="5px" opacity="0.952941176471" width="5px" x="36px" y="32px" /><rect fill="rgb(55,55,55)" height="5px" opacity="0.772549019608" width="5px" x="40px" y="32px" /><rect fill="rgb(55,55,55)" height="5px" opacity="0.301960784314" width="5px" x="44px" y="32px" /><rect fill="rgb(55,55,55)" height="5px" opacity="0.901960784314" width="5px" x="60px" y="32px" /><rect fill="rgb(55,55,55)" height="5px" width="5px" x="64px" y="32px" /><rect fill="rgb(55,55,55)" height="5px" opacity="0.345098039216" width="5px" x="80px" y="32px" /><rect fill="rgb(55,55,55)" height="5px" width="5px" x="84px" y="32px" /><rect fill="rgb(55,55,55)" height="5px" width="5px" x="88px" y="32px" /><rect fill="rgb(55,55,55)" height="5px" opacity="0.803921568627" width="5px" x="92px" y="32px" /><rect fill="rgb(55,55,55)" height="5px" opacity="0.882352941176" width="5px" x="96px" y="32px" /><rect fill="rgb(55,55,55)" height="5px" width="5px" x="100px" y="32px" /><rect fill="rgb(55,55,55)" height="5px" width="5px" x="104px" y="32px" /><rect fill="rgb(55,55,55)" height="5px" width="5px" x="108px" y="32px" /><rect fill="rgb(55,55,55)" height="5px" width="5px" x="112px" y="32px" /><rect fill="rgb(55,55,55)" height="5px" width="5px" x="116px" y="32px" /><rect fill="rgb(55,55,55)" height="5px" opacity="0.196078431373" width="5px" x="120px" y="32px" /><rect fill="rgb(55,55,55)" height="5px" width="5px" x="8px" y="36px" /><rect fill="rgb(55,55,55)" height="5px" opacity="0.992156862745" width="5px" x="12px" y="36px" /><rect fill="rgb(55,55,55)" height="5px" opacity="0.988235294118" width="5px" x="16px" y="36px" /><rect fill="rgb(55,55,55)" height="5px" opacity="0.980392156863" width="5px" x="20px" y="36px" /><rect fill="rgb(55,55,55)" height="5px" width="5px" x="24px" y="36px" /><rect fill="rgb(55,55,55)" height="5px" opacity="0.439215686275" width="5px" x="28px" y="36px" /><rect fill="rgb(55,55,55)" height="5px" opacity="0.909803921569" width="5px" x="60px" y="36px" /><rect fill="rgb(55,55,55)" height="5px" width="5px" x="64px" y="36px" /><rect fill="rgb(55,55,55)" height="5px" opacity="0.38431372549" width="5px" x="100px" y="36px" /><rect fill="rgb(55,55,55)" height="5px" width="5px" x="104px" y="36px" /><rect fill="rgb(55,55,55)" height="5px" width="5px" x="108px" y="36px" /><rect fill="rgb(55,55,55)" height="5px" width="5px" x="112px" y="36px" /><rect fill="rgb(55,55,55)" height="5px" opacity="0.960784313725" width="5px" x="116px" y="36px" /><rect fill="rgb(55,55,55)" height="5px" opacity="0.976470588235" width="5px" x="120px" y="36px" /><rect fill="rgb(55,55,55)" height="5px" width="5px" x="124px" y="36px" /><rect fill="rgb(55,55,55)" height="5px" opacity="0.38431372549" width="5px" x="20px" y="40px" /><rect fill="rgb(55,55,55)" height="5px" width="5px" x="24px" y="40px" /><rect fill="rgb(55,55,55)" height="5px" opacity="0.913725490196" width="5px" x="60px" y="40px" /><rect fill="rgb(55,55,55)" height="5px" width="5px" x="64px" y="40px" /><rect fill="rgb(55,55,55)" height="5px" opacity="0.372549019608" width="5px" x="96px" y="40px" /><rect fill="rgb(55,55,55)" height="5px" width="5px" x="100px" y="40px" /><rect fill="rgb(55,55,55)" height="5px" opacity="0.964705882353" width="5px" x="104px" y="40px" /><rect fill="rgb(55,55,55)" height="5px" width="5px" x="108px" y="40px" /><rect fill="rgb(55,55,55)" height="5px" opacity="0.196078431373" width="5px" x="116px" y="40px" /><rect fill="rgb(55,55,55)" height="5px" opacity="0.196078431373" width="5px" x="120px" y="40px" /><rect fill="rgb(55,55,55)" height="5px" opacity="0.372549019608" width="5px" x="16px" y="44px" /><rect fill="rgb(55,55,55)" height="5px" width="5px" x="20px" y="44px" /><rect fill="rgb(55,55,55)" height="5px" opacity="0.964705882353" width="5px" x="24px" y="44px" /><rect fill="rgb(55,55,55)" height="5px" width="5px" x="28px" y="44px" /><rect fill="rgb(55,55,55)" height="5px" opacity="0.917647058824" width="5px" x="60px" y="44px" /><rect fill="rgb(55,55,55)" height="5px" width="5px" x="64px" y="44px" /><rect fill="rgb(55,55,55)" height="5px" opacity="0.913725490196" width="5px" x="96px" y="44px" /><rect fill="rgb(55,55,55)" height="5px" opacity="0.909803921569" width="5px" x="100px" y="44px" /><rect fill="rgb(55,55,55)" height="5px" opacity="0.313725490196" width="5px" x="104px" y="44px" /><rect fill="rgb(55,55,55)" height="5px" opacity="0.988235294118" width="5px" x="108px" y="44px" /><rect fill="rgb(55,55,55)" height="5px" opacity="0.913725490196" width="5px" x="16px" y="48px" /><rect fill="rgb(55,55,55)" height="5px" opacity="0.909803921569" width="5px" x="20px" y="48px" /><rect fill="rgb(55,55,55)" height="5px" opacity="0.313725490196" width="5px" x="24px" y="48px" /><rect fill="rgb(55,55,55)" height="5px" opacity="0.988235294118" width="5px" x="28px" y="48px" /><rect fill="rgb(55,55,55)" height="5px" opacity="0.925490196078" width="5px" x="60px" y="48px" /><rect fill="rgb(55,55,55)" height="5px" width="5px" x="64px" y="48px" /><rect fill="rgb(55,55,55)" height="5px" opacity="0.0156862745098" width="5px" x="92px" y="48px" /><rect fill="rgb(55,55,55)" height="5px" width="5px" x="96px" y="48px" /><rect fill="rgb(55,55,55)" height="5px" opacity="0.38431372549" width="5px" x="100px" y="48px" /><rect fill="rgb(55,55,55)" height="5px" opacity="0.98431372549" width="5px" x="108px" y="48px" /><rect fill="rgb(55,55,55)" height="5px" opacity="0.301960784314" width="5px" x="112px" y="48px" /><rect fill="rgb(55,55,55)" height="5px" opacity="0.0156862745098" width="5px" x="12px" y="52px" /><rect fill="rgb(55,55,55)" height="5px" width="5px" x="16px" y="52px" /><rect fill="rgb(55,55,55)" height="5px" opacity="0.38431372549" width="5px" x="20px" y="52px" /><rect fill="rgb(55,55,55)" height="5px" opacity="0.98431372549" width="5px" x="28px" y="52px" /><rect fill="rgb(55,55,55)" height="5px" opacity="0.301960784314" width="5px" x="32px" y="52px" /><rect fill="rgb(55,55,55)" height="5px" opacity="0.925490196078" width="5px" x="60px" y="52px" /><rect fill="rgb(55,55,55)" height="5px" width="5px" x="64px" y="52px" /><rect fill="rgb(55,55,55)" height="5px" opacity="0.411764705882" width="5px" x="92px" y="52px" /><rect fill="rgb(55,55,55)" height="5px" width="5px" x="96px" y="52px" /><rect fill="rgb(55,55,55)" height="5px" opacity="0.0156862745098" width="5px" x="100px" y="52px" /><rect fill="rgb(55,55,55)" height="5px" opacity="0.372549019608" width="5px" x="108px" y="52px" /><rect fill="rgb(55,55,55)" height="5px" opacity="0.976470588235" width="5px" x="112px" y="52px" /><rect fill="rgb(55,55,55)" height="5px" opacity="0.411764705882" width="5px" x="12px" y="56px" /><rect fill="rgb(55,55,55)" height="5px" width="5px" x="16px" y="56px" /><rect fill="rgb(55,55,55)" height="5px" opacity="0.0156862745098" width="5px" x="20px" y="56px" /><rect fill="rgb(55,55,55)" height="5px" opacity="0.372549019608" width="5px" x="28px" y="56px" /><rect fill="rgb(55,55,55)" height="5px" opacity="0.976470588235" width="5px" x="32px" y="56px" /><rect fill="rgb(55,55,55)" height="5px" opacity="0.933333333333" width="5px" x="60px" y="56px" /><rect fill="rgb(55,55,55)" height="5px" width="5px" x="64px" y="56px" /><rect fill="rgb(55,55,55)" height="5px" opacity="0.929411764706" width="5px" x="92px" y="56px" /><rect fill="rgb(55,55,55)" height="5px" opacity="0.909803921569" width="5px" x="96px" y="56px" /><rect fill="rgb(55,55,55)" height="5px" opacity="0.992156862745" width="5px" x="112px" y="56px" /><rect fill="rgb(55,55,55)" height="5px" opacity="0.247058823529" width="5px" x="116px" y="56px" /><rect fill="rgb(55,55,55)" height="5px" opacity="0.929411764706" width="5px" x="12px" y="60px" /><rect fill="rgb(55,55,55)" height="5px" opacity="0.909803921569" width="5px" x="16px" y="60px" /><rect fill="rgb(55,55,55)" height="5px" opacity="0.992156862745" width="5px" x="32px" y="60px" /><rect fill="rgb(55,55,55)" height="5px" opacity="0.247058823529" width="5px" x="36px" y="60px" /><rect fill="rgb(55,55,55)" height="5px" opacity="0.933333333333" width="5px" x="60px" y="60px" /><rect fill="rgb(55,55,55)" height="5px" width="5px" x="64px" y="60px" /><rect fill="rgb(55,55,55)" height="5px" opacity="0.0156862745098" width="5px" x="88px" y="60px" /><rect fill="rgb(55,55,55)" height="5px" width="5px" x="92px" y="60px" /><rect fill="rgb(55,55,55)" height="5px" opacity="0.38431372549" width="5px" x="96px" y="60px" /><rect fill="rgb(55,55,55)" height="5px" opacity="0.450980392157" width="5px" x="112px" y="60px" /><rect fill="rgb(55,55,55)" height="5px" opacity="0.960784313725" width="5px" x="116px" y="60px" /><rect fill="rgb(55,55,55)" height="5px" opacity="0.0156862745098" width="5px" x="8px" y="64px" /><rect fill="rgb(55,55,55)" height="5px" width="5px" x="12px" y="64px" /><rect fill="rgb(55,55,55)" height="5px" opacity="0.38431372549" width="5px" x="16px" y="64px" /><rect fill="rgb(55,55,55)" height="5px" opacity="0.450980392157" width="5px" x="32px" y="64px" /><rect fill="rgb(55,55,55)" height="5px" opacity="0.960784313725" width="5px" x="36px" y="64px" /><rect fill="rgb(55,55,55)" height="5px" opacity="0.941176470588" width="5px" x="60px" y="64px" /><rect fill="rgb(55,55,55)" height="5px" width="5px" x="64px" y="64px" /><rect fill="rgb(55,55,55)" height="5px" opacity="0.450980392157" width="5px" x="88px" y="64px" /><rect fill="rgb(55,55,55)" height="5px" width="5px" x="92px" y="64px" /><rect fill="rgb(55,55,55)" height="5px" opacity="0.0156862745098" width="5px" x="96px" y="64px" /><rect fill="rgb(55,55,55)" height="5px" opacity="0.996078431373" width="5px" x="116px" y="64px" /><rect fill="rgb(55,55,55)" height="5px" opacity="0.203921568627" width="5px" x="120px" y="64px" /><rect fill="rgb(55,55,55)" height="5px" opacity="0.450980392157" width="5px" x="8px" y="68px" /><rect fill="rgb(55,55,55)" height="5px" width="5px" x="12px" y="68px" /><rect fill="rgb(55,55,55)" height="5px" opacity="0.0156862745098" width="5px" x="16px" y="68px" /><rect fill="rgb(55,55,55)" height="5px" opacity="0.996078431373" width="5px" x="36px" y="68px" /><rect fill="rgb(55,55,55)" height="5px" opacity="0.203921568627" width="5px" x="40px" y="68px" /><rect fill="rgb(55,55,55)" height="5px" opacity="0.941176470588" width="5px" x="60px" y="68px" /><rect fill="rgb(55,55,55)" height="5px" width="5px" x="64px" y="68px" /><rect fill="rgb(55,55,55)" height="5px" opacity="0.941176470588" width="5px" x="88px" y="68px" /><rect fill="rgb(55,55,55)" height="5px" opacity="0.909803921569" width="5px" x="92px" y="68px" /><rect fill="rgb(55,55,55)" height="5px" opacity="0.517647058824" width="5px" x="116px" y="68px" /><rect fill="rgb(55,55,55)" height="5px" opacity="0.941176470588" width="5px" x="120px" y="68px" /><rect fill="rgb(55,55,55)" height="5px" opacity="0.941176470588" width="5px" x="8px" y="72px" /><rect fill="rgb(55,55,55)" height="5px" opacity="0.909803921569" width="5px" x="12px" y="72px" /><rect fill="rgb(55,55,55)" height="5px" opacity="0.517647058824" width="5px" x="36px" y="72px" /><rect fill="rgb(55,55,55)" height="5px" opacity="0.941176470588" width="5px" x="40px" y="72px" /><rect fill="rgb(55,55,55)" height="5px" opacity="0.941176470588" width="5px" x="60px" y="72px" /><rect fill="rgb(55,55,55)" height="5px" width="5px" x="64px" y="72px" /><rect fill="rgb(55,55,55)" height="5px" opacity="0.925490196078" width="5px" x="88px" y="72px" /><rect fill="rgb(55,55,55)" height="5px" opacity="0.38431372549" width="5px" x="92px" y="72px" /><rect fill="rgb(55,55,55)" height="5px" opacity="0.666666666667" width="5px" x="120px" y="72px" /><rect fill="rgb(55,55,55)" height="5px" opacity="0.925490196078" width="5px" x="8px" y="76px" /><rect fill="rgb(55,55,55)" height="5px" opacity="0.38431372549" width="5px" x="12px" y="76px" /><rect fill="rgb(55,55,55)" height="5px" opacity="0.666666666667" width="5px" x="40px" y="76px" /><rect fill="rgb(55,55,55)" height="5px" opacity="0.945098039216" width="5px" x="60px" y="76px" /><rect fill="rgb(55,55,55)" height="5px" width="5px" x="64px" y="76px" /><rect fill="rgb(55,55,55)" height="5px" opacity="0.960784313725" width="5px" x="88px" y="76px" /><rect fill="rgb(55,55,55)" height="5px" opacity="0.980392156863" width="5px" x="92px" y="76px" /><rect fill="rgb(55,55,55)" height="5px" opacity="0.980392156863" width="5px" x="96px" y="76px" /><rect fill="rgb(55,55,55)" height="5px" opacity="0.980392156863" width="5px" x="100px" y="76px" /><rect fill="rgb(55,55,55)" height="5px" opacity="0.980392156863" width="5px" x="104px" y="76px" /><rect fill="rgb(55,55,55)" height="5px" opacity="0.964705882353" width="5px" x="108px" y="76px" /><rect fill="rgb(55,55,55)" height="5px" opacity="0.960784313725" width="5px" x="112px" y="76px" /><rect fill="rgb(55,55,55)" height="5px" opacity="0.960784313725" width="5px" x="116px" y="76px" /><rect fill="rgb(55,55,55)" height="5px" opacity="0.925490196078" width="5px" x="120px" y="76px" /><rect fill="rgb(55,55,55)" height="5px" opacity="0.960784313725" width="5px" x="8px" y="80px" /><rect fill="rgb(55,55,55)" height="5px" opacity="0.980392156863" width="5px" x="12px" y="80px" /><rect fill="rgb(55,55,55)" height="5px" opacity="0.980392156863" width="5px" x="16px" y="80px" /><rect fill="rgb(55,55,55)" height="5px" opacity="0.980392156863" width="5px" x="20px" y="80px" /><rect fill="rgb(55,55,55)" height="5px" opacity="0.980392156863" width="5px" x="24px" y="80px" /><rect fill="rgb(55,55,55)" height="5px" opacity="0.964705882353" width="5px" x="28px" y="80px" /><rect fill="rgb(55,55,55)" height="5px" opacity="0.960784313725" width="5px" x="32px" y="80px" /><rect fill="rgb(55,55,55)" height="5px" opacity="0.960784313725" width="5px" x="36px" y="80px" /><rect fill="rgb(55,55,55)" height="5px" opacity="0.925490196078" width="5px" x="40px" y="80px" /><rect fill="rgb(55,55,55)" height="5px" opacity="0.949019607843" width="5px" x="60px" y="80px" /><rect fill="rgb(55,55,55)" height="5px" width="5px" x="64px" y="80px" /><rect fill="rgb(55,55,55)" height="5px" opacity="0.81568627451" width="5px" x="88px" y="80px" /><rect fill="rgb(55,55,55)" height="5px" width="5px" x="92px" y="80px" /><rect fill="rgb(55,55,55)" height="5px" width="5px" x="96px" y="80px" /><rect fill="rgb(55,55,55)" height="5px" width="5px" x="100px" y="80px" /><rect fill="rgb(55,55,55)" height="5px" width="5px" x="104px" y="80px" /><rect fill="rgb(55,55,55)" height="5px" width="5px" x="108px" y="80px" /><rect fill="rgb(55,55,55)" height="5px" width="5px" x="112px" y="80px" /><rect fill="rgb(55,55,55)" height="5px" width="5px" x="116px" y="80px" /><rect fill="rgb(55,55,55)" height="5px" opacity="0.898039215686" width="5px" x="120px" y="80px" /><rect fill="rgb(55,55,55)" height="5px" opacity="0.81568627451" width="5px" x="8px" y="84px" /><rect fill="rgb(55,55,55)" height="5px" width="5px" x="12px" y="84px" /><rect fill="rgb(55,55,55)" height="5px" width="5px" x="16px" y="84px" /><rect fill="rgb(55,55,55)" height="5px" width="5px" x="20px" y="84px" /><rect fill="rgb(55,55,55)" height="5px" width="5px" x="24px" y="84px" /><rect fill="rgb(55,55,55)" height="5px" width="5px" x="28px" y="84px" /><rect fill="rgb(55,55,55)" height="5px" width="5px" x="32px" y="84px" /><rect fill="rgb(55,55,55)" height="5px" width="5px" x="36px" y="84px" /><rect fill="rgb(55,55,55)" height="5px" opacity="0.898039215686" width="5px" x="40px" y="84px" /><rect fill="rgb(55,55,55)" height="5px" opacity="0.952941176471" width="5px" x="60px" y="84px" /><rect fill="rgb(55,55,55)" height="5px" width="5px" x="64px" y="84px" /><rect fill="rgb(55,55,55)" height="5px" opacity="0.078431372549" width="5px" x="88px" y="84px" /><rect fill="rgb(55,55,55)" height="5px" opacity="0.882352941176" width="5px" x="92px" y="84px" /><rect fill="rgb(55,55,55)" height="5px" width="5px" x="96px" y="84px" /><rect fill="rgb(55,55,55)" height="5px" width="5px" x="100px" y="84px" /><rect fill="rgb(55,55,55)" height="5px" width="5px" x="104px" y="84px" /><rect fill="rgb(55,55,55)" height="5px" width="5px" x="108px" y="84px" /><rect fill="rgb(55,55,55)" height="5px" width="5px" x="112px" y="84px" /><rect fill="rgb(55,55,55)" height="5px" opacity="0.992156862745" width="5px" x="116px" y="84px" /><rect fill="rgb(55,55,55)" height="5px" opacity="0.262745098039" width="5px" x="120px" y="84px" /><rect fill="rgb(55,55,55)" height="5px" opacity="0.078431372549" width="5px" x="8px" y="88px" /><rect fill="rgb(55,55,55)" height="5px" opacity="0.882352941176" width="5px" x="12px" y="88px" /><rect fill="rgb(55,55,55)" height="5px" width="5px" x="16px" y="88px" /><rect fill="rgb(55,55,55)" height="5px" width="5px" x="20px" y="88px" /><rect fill="rgb(55,55,55)" height="5px" width="5px" x="24px" y="88px" /><rect fill="rgb(55,55,55)" height="5px" width="5px" x="28px" y="88px" /><rect fill="rgb(55,55,55)" height="5px" width="5px" x="32px" y="88px" /><rect fill="rgb(55,55,55)" height="5px" opacity="0.992156862745" width="5px" x="36px" y="88px" /><rect fill="rgb(55,55,55)" height="5px" opacity="0.262745098039" width="5px" x="40px" y="88px" /><rect fill="rgb(55,55,55)" height="5px" opacity="0.952941176471" width="5px" x="60px" y="88px" /><rect fill="rgb(55,55,55)" height="5px" width="5px" x="64px" y="88px" /><rect fill="rgb(55,55,55)" height="5px" opacity="0.392156862745" width="5px" x="96px" y="88px" /><rect fill="rgb(55,55,55)" height="5px" opacity="0.780392156863" width="5px" x="100px" y="88px" /><rect fill="rgb(55,55,55)" height="5px" opacity="0.917647058824" width="5px" x="104px" y="88px" /><rect fill="rgb(55,55,55)" height="5px" opacity="0.890196078431" width="5px" x="108px" y="88px" /><rect fill="rgb(55,55,55)" height="5px" opacity="0.741176470588" width="5px" x="112px" y="88px" /><rect fill="rgb(55,55,55)" height="5px" opacity="0.156862745098" width="5px" x="116px" y="88px" /><rect fill="rgb(55,55,55)" height="5px" opacity="0.392156862745" width="5px" x="16px" y="92px" /><rect fill="rgb(55,55,55)" height="5px" opacity="0.780392156863" width="5px" x="20px" y="92px" /><rect fill="rgb(55,55,55)" height="5px" opacity="0.917647058824" width="5px" x="24px" y="92px" /><rect fill="rgb(55,55,55)" height="5px" opacity="0.890196078431" width="5px" x="28px" y="92px" /><rect fill="rgb(55,55,55)" height="5px" opacity="0.741176470588" width="5px" x="32px" y="92px" /><rect fill="rgb(55,55,55)" height="5px" opacity="0.156862745098" width="5px" x="36px" y="92px" /><rect fill="rgb(55,55,55)" height="5px" opacity="0.956862745098" width="5px" x="60px" y="92px" /><rect fill="rgb(55,55,55)" height="5px" width="5px" x="64px" y="92px" /><rect fill="rgb(55,55,55)" height="5px" opacity="0.960784313725" width="5px" x="60px" y="96px" /><rect fill="rgb(55,55,55)" height="5px" width="5px" x="64px" y="96px" /><rect fill="rgb(55,55,55)" height="5px" opacity="0.960784313725" width="5px" x="60px" y="100px" /><rect fill="rgb(55,55,55)" height="5px" width="5px" x="64px" y="100px" /><rect fill="rgb(55,55,55)" height="5px" opacity="0.254901960784" width="5px" x="52px" y="104px" /><rect fill="rgb(55,55,55)" height="5px" opacity="0.741176470588" width="5px" x="56px" y="104px" /><rect fill="rgb(55,55,55)" height="5px" opacity="0.992156862745" width="5px" x="60px" y="104px" /><rect fill="rgb(55,55,55)" height="5px" width="5px" x="64px" y="104px" /><rect fill="rgb(55,55,55)" height="5px" opacity="0.717647058824" width="5px" x="68px" y="104px" /><rect fill="rgb(55,55,55)" height="5px" opacity="0.458823529412" width="5px" x="72px" y="104px" /><rect fill="rgb(55,55,55)" height="5px" opacity="0.670588235294" width="5px" x="44px" y="108px" /><rect fill="rgb(55,55,55)" height="5px" opacity="0.996078431373" width="5px" x="48px" y="108px" /><rect fill="rgb(55,55,55)" height="5px" width="5px" x="52px" y="108px" /><rect fill="rgb(55,55,55)" height="5px" width="5px" x="56px" y="108px" /><rect fill="rgb(55,55,55)" height="5px" width="5px" x="60px" y="108px" /><rect fill="rgb(55,55,55)" height="5px" width="5px" x="64px" y="108px" /><rect fill="rgb(55,55,55)" height="5px" width="5px" x="68px" y="108px" /><rect fill="rgb(55,55,55)" height="5px" width="5px" x="72px" y="108px" /><rect fill="rgb(55,55,55)" height="5px" width="5px" x="76px" y="108px" /><rect fill="rgb(55,55,55)" height="5px" opacity="0.945098039216" width="5px" x="80px" y="108px" /><rect fill="rgb(55,55,55)" height="5px" opacity="0.203921568627" width="5px" x="84px" y="108px" /><rect fill="rgb(55,55,55)" height="5px" opacity="0.611764705882" width="5px" x="40px" y="112px" /><rect fill="rgb(55,55,55)" height="5px" width="5px" x="44px" y="112px" /><rect fill="rgb(55,55,55)" height="5px" width="5px" x="48px" y="112px" /><rect fill="rgb(55,55,55)" height="5px" width="5px" x="52px" y="112px" /><rect fill="rgb(55,55,55)" height="5px" width="5px" x="56px" y="112px" /><rect fill="rgb(55,55,55)" height="5px" width="5px" x="60px" y="112px" /><rect fill="rgb(55,55,55)" height="5px" width="5px" x="64px" y="112px" /><rect fill="rgb(55,55,55)" height="5px" width="5px" x="68px" y="112px" /><rect fill="rgb(55,55,55)" height="5px" width="5px" x="72px" y="112px" /><rect fill="rgb(55,55,55)" height="5px" width="5px" x="76px" y="112px" /><rect fill="rgb(55,55,55)" height="5px" width="5px" x="80px" y="112px" /><rect fill="rgb(55,55,55)" height="5px" width="5px" x="84px" y="112px" /><rect fill="rgb(55,55,55)" height="5px" opacity="0.0470588235294" width="5px" x="88px" y="112px" /><rect fill="rgb(55,55,55)" height="5px" opacity="0.741176470588" width="5px" x="40px" y="116px" /><rect fill="rgb(55,55,55)" height="5px" opacity="0.952941176471" width="5px" x="44px" y="116px" /><rect fill="rgb(55,55,55)" height="5px" opacity="0.952941176471" width="5px" x="48px" y="116px" /><rect fill="rgb(55,55,55)" height="5px" opacity="0.937254901961" width="5px" x="52px" y="116px" /><rect fill="rgb(55,55,55)" height="5px" opacity="0.917647058824" width="5px" x="56px" y="116px" /><rect fill="rgb(55,55,55)" height="5px" opacity="0.917647058824" width="5px" x="60px" y="116px" /><rect fill="rgb(55,55,55)" height="5px" opacity="0.917647058824" width="5px" x="64px" y="116px" /><rect fill="rgb(55,55,55)" height="5px" opacity="0.917647058824" width="5px" x="68px" y="116px" /><rect fill="rgb(55,55,55)" height="5px" opacity="0.917647058824" width="5px" x="72px" y="116px" /><rect fill="rgb(55,55,55)" height="5px" opacity="0.917647058824" width="5px" x="76px" y="116px" /><rect fill="rgb(55,55,55)" height="5px" opacity="0.917647058824" width="5px" x="80px" y="116px" /><rect fill="rgb(55,55,55)" height="5px" opacity="0.917647058824" width="5px" x="84px" y="116px" /><rect fill="rgb(55,55,55)" height="5px" opacity="0.188235294118" width="5px" x="88px" y="116px" /></svg>