<?xml version="1.0" encoding="utf-8" ?>
<svg baseProfile="full" height="128px" version="1.1" width="128px" xmlns="http://www.w3.org/2000/svg" xmlns:ev="http://www.w3.org/2001/xml-events" xmlns:xlink="http://www.w3.org/1999/xlink"><defs /><rect fill="rgb(255,211,0)" height="5px" opacity="0.105882352941" width="5px" x="4px" y="0px" /><rect fill="rgb(255,211,0)" height="5px" opacity="0.21568627451" width="5px" x="8px" y="0px" /><rect fill="rgb(255,211,0)" height="5px" opacity="0.988235294118" width="5px" x="64px" y="0px" /><rect fill="rgb(255,211,0)" height="5px" width="5px" x="68px" y="0px" /><rect fill="rgb(255,211,0)" height="5px" opacity="0.478431372549" width="5px" x="116px" y="0px" /><rect fill="rgb(255,211,0)" height="5px" opacity="0.411764705882" width="5px" x="0px" y="4px" /><rect fill="rgb(255,211,0)" height="5px" width="5px" x="4px" y="4px" /><rect fill="rgb(255,211,0)" height="5px" width="5px" x="8px" y="4px" /><rect fill="rgb(255,211,0)" height="5px" opacity="0.447058823529" width="5px" x="12px" y="4px" /><rect fill="rgb(255,211,0)" height="5px" opacity="0.929411764706" width="5px" x="64px" y="4px" /><rect fill="rgb(255,211,0)" height="5px" opacity="0.980392156863" width="5px" x="68px" y="4px" /><rect fill="rgb(255,211,0)" height="5px" opacity="0.549019607843" width="5px" x="112px" y="4px" /><rect fill="rgb(255,211,0)" height="5px" width="5px" x="116px" y="4px" /><rect fill="rgb(255,211,0)" height="5px" opacity="0.349019607843" width="5px" x="120px" y="4px" /><rect fill="rgb(255,211,0)" height="5px" opacity="0.490196078431" width="5px" x="4px" y="8px" /><rect fill="rgb(255,211,0)" height="5px" width="5px" x="8px" y="8px" /><rect fill="rgb(255,211,0)" height="5px" width="5px" x="12px" y="8px" /><rect fill="rgb(255,211,0)" height="5px" opacity="0.690196078431" width="5px" x="16px" y="8px" /><rect fill="rgb(255,211,0)" height="5px" opacity="0.866666666667" width="5px" x="64px" y="8px" /><rect fill="rgb(255,211,0)" height="5px" opacity="0.913725490196" width="5px" x="68px" y="8px" /><rect fill="rgb(255,211,0)" height="5px" opacity="0.274509803922" width="5px" x="108px" y="8px" /><rect fill="rgb(255,211,0)" height="5px" opacity="0.996078431373" width="5px" x="112px" y="8px" /><rect fill="rgb(255,211,0)" height="5px" opacity="0.992156862745" width="5px" x="116px" y="8px" /><rect fill="rgb(255,211,0)" height="5px" opacity="0.2" width="5px" x="120px" y="8px" /><rect fill="rgb(255,211,0)" height="5px" opacity="0.290196078431" width="5px" x="8px" y="12px" /><rect fill="rgb(255,211,0)" height="5px" opacity="0.996078431373" width="5px" x="12px" y="12px" /><rect fill="rgb(255,211,0)" height="5px" width="5px" x="16px" y="12px" /><rect fill="rgb(255,211,0)" height="5px" opacity="0.835294117647" width="5px" x="20px" y="12px" /><rect fill="rgb(255,211,0)" height="5px" opacity="0.0156862745098" width="5px" x="24px" y="12px" /><rect fill="rgb(255,211,0)" height="5px" opacity="0.874509803922" width="5px" x="64px" y="12px" /><rect fill="rgb(255,211,0)" height="5px" opacity="0.929411764706" width="5px" x="68px" y="12px" /><rect fill="rgb(255,211,0)" height="5px" opacity="0.0901960784314" width="5px" x="104px" y="12px" /><rect fill="rgb(255,211,0)" height="5px" opacity="0.972549019608" width="5px" x="108px" y="12px" /><rect fill="rgb(255,211,0)" height="5px" width="5px" x="112px" y="12px" /><rect fill="rgb(255,211,0)" height="5px" opacity="0.466666666667" width="5px" x="116px" y="12px" /><rect fill="rgb(255,211,0)" height="5px" opacity="0.101960784314" width="5px" x="12px" y="16px" /><rect fill="rgb(255,211,0)" height="5px" opacity="0.964705882353" width="5px" x="16px" y="16px" /><rect fill="rgb(255,211,0)" height="5px" width="5px" x="20px" y="16px" /><rect fill="rgb(255,211,0)" height="5px" opacity="0.929411764706" width="5px" x="24px" y="16px" /><rect fill="rgb(255,211,0)" height="5px" opacity="0.0470588235294" width="5px" x="28px" y="16px" /><rect fill="rgb(255,211,0)" height="5px" opacity="0.81568627451" width="5px" x="64px" y="16px" /><rect fill="rgb(255,211,0)" height="5px" opacity="0.941176470588" width="5px" x="68px" y="16px" /><rect fill="rgb(255,211,0)" height="5px" opacity="0.866666666667" width="5px" x="104px" y="16px" /><rect fill="rgb(255,211,0)" height="5px" width="5px" x="108px" y="16px" /><rect fill="rgb(255,211,0)" height="5px" opacity="0.709803921569" width="5px" x="112px" y="16px" /><rect fill="rgb(255,211,0)" height="5px" opacity="0.0235294117647" width="5px" x="16px" y="20px" /><rect fill="rgb(255,211,0)" height="5px" opacity="0.850980392157" width="5px" x="20px" y="20px" /><rect fill="rgb(255,211,0)" height="5px" width="5px" x="24px" y="20px" /><rect fill="rgb(255,211,0)" height="5px" opacity="0.980392156863" width="5px" x="28px" y="20px" /><rect fill="rgb(255,211,0)" height="5px" opacity="0.113725490196" width="5px" x="32px" y="20px" /><rect fill="rgb(255,211,0)" height="5px" opacity="0.8" width="5px" x="64px" y="20px" /><rect fill="rgb(255,211,0)" height="5px" opacity="0.894117647059" width="5px" x="68px" y="20px" /><rect fill="rgb(255,211,0)" height="5px" opacity="0.682352941176" width="5px" x="100px" y="20px" /><rect fill="rgb(255,211,0)" height="5px" width="5px" x="104px" y="20px" /><rect fill="rgb(255,211,0)" height="5px" opacity="0.905882352941" width="5px" x="108px" y="20px" /><rect fill="rgb(255,211,0)" height="5px" opacity="0.0078431372549" width="5px" x="112px" y="20px" /><rect fill="rgb(255,211,0)" height="5px" opacity="0.619607843137" width="5px" x="24px" y="24px" /><rect fill="rgb(255,211,0)" height="5px" width="5px" x="28px" y="24px" /><rect fill="rgb(255,211,0)" height="5px" opacity="0.996078431373" width="5px" x="32px" y="24px" /><rect fill="rgb(255,211,0)" height="5px" opacity="0.235294117647" width="5px" x="36px" y="24px" /><rect fill="rgb(255,211,0)" height="5px" opacity="0.823529411765" width="5px" x="64px" y="24px" /><rect fill="rgb(255,211,0)" height="5px" opacity="0.949019607843" width="5px" x="68px" y="24px" /><rect fill="rgb(255,211,0)" height="5px" opacity="0.392156862745" width="5px" x="96px" y="24px" /><rect fill="rgb(255,211,0)" height="5px" width="5px" x="100px" y="24px" /><rect fill="rgb(255,211,0)" height="5px" opacity="0.980392156863" width="5px" x="104px" y="24px" /><rect fill="rgb(255,211,0)" height="5px" opacity="0.113725490196" width="5px" x="108px" y="24px" /><rect fill="rgb(255,211,0)" height="5px" opacity="0.294117647059" width="5px" x="28px" y="28px" /><rect fill="rgb(255,211,0)" height="5px" width="5px" x="32px" y="28px" /><rect fill="rgb(255,211,0)" height="5px" width="5px" x="36px" y="28px" /><rect fill="rgb(255,211,0)" height="5px" opacity="0.439215686275" width="5px" x="40px" y="28px" /><rect fill="rgb(255,211,0)" height="5px" opacity="0.898039215686" width="5px" x="64px" y="28px" /><rect fill="rgb(255,211,0)" height="5px" width="5px" x="68px" y="28px" /><rect fill="rgb(255,211,0)" height="5px" opacity="0.164705882353" width="5px" x="92px" y="28px" /><rect fill="rgb(255,211,0)" height="5px" opacity="0.988235294118" width="5px" x="96px" y="28px" /><rect fill="rgb(255,211,0)" height="5px" width="5px" x="100px" y="28px" /><rect fill="rgb(255,211,0)" height="5px" opacity="0.349019607843" width="5px" x="104px" y="28px" /><rect fill="rgb(255,211,0)" height="5px" opacity="0.113725490196" width="5px" x="32px" y="32px" /><rect fill="rgb(255,211,0)" height="5px" opacity="0.976470588235" width="5px" x="36px" y="32px" /><rect fill="rgb(255,211,0)" height="5px" width="5px" x="40px" y="32px" /><rect fill="rgb(255,211,0)" height="5px" opacity="0.61568627451" width="5px" x="44px" y="32px" /><rect fill="rgb(255,211,0)" height="5px" opacity="0.247058823529" width="5px" x="52px" y="32px" /><rect fill="rgb(255,211,0)" height="5px" opacity="0.588235294118" width="5px" x="56px" y="32px" /><rect fill="rgb(255,211,0)" height="5px" opacity="0.839215686275" width="5px" x="60px" y="32px" /><rect fill="rgb(255,211,0)" height="5px" opacity="0.976470588235" width="5px" x="64px" y="32px" /><rect fill="rgb(255,211,0)" height="5px" opacity="0.976470588235" width="5px" x="68px" y="32px" /><rect fill="rgb(255,211,0)" height="5px" opacity="0.839215686275" width="5px" x="72px" y="32px" /><rect fill="rgb(255,211,0)" height="5px" opacity="0.588235294118" width="5px" x="76px" y="32px" /><rect fill="rgb(255,211,0)" height="5px" opacity="0.247058823529" width="5px" x="80px" y="32px" /><rect fill="rgb(255,211,0)" height="5px" opacity="0.0235294117647" width="5px" x="88px" y="32px" /><rect fill="rgb(255,211,0)" height="5px" opacity="0.925490196078" width="5px" x="92px" y="32px" /><rect fill="rgb(255,211,0)" height="5px" width="5px" x="96px" y="32px" /><rect fill="rgb(255,211,0)" height="5px" opacity="0.611764705882" width="5px" x="100px" y="32px" /><rect fill="rgb(255,211,0)" height="5px" opacity="0.0392156862745" width="5px" x="36px" y="36px" /><rect fill="rgb(255,211,0)" height="5px" opacity="0.901960784314" width="5px" x="40px" y="36px" /><rect fill="rgb(255,211,0)" height="5px" width="5px" x="44px" y="36px" /><rect fill="rgb(255,211,0)" height="5px" opacity="0.905882352941" width="5px" x="48px" y="36px" /><rect fill="rgb(255,211,0)" height="5px" width="5px" x="52px" y="36px" /><rect fill="rgb(255,211,0)" height="5px" width="5px" x="56px" y="36px" /><rect fill="rgb(255,211,0)" height="5px" width="5px" x="60px" y="36px" /><rect fill="rgb(255,211,0)" height="5px" width="5px" x="64px" y="36px" /><rect fill="rgb(255,211,0)" height="5px" width="5px" x="68px" y="36px" /><rect fill="rgb(255,211,0)" height="5px" width="5px" x="72px" y="36px" /><rect fill="rgb(255,211,0)" height="5px" width="5px" x="76px" y="36px" /><rect fill="rgb(255,211,0)" height="5px" width="5px" x="80px" y="36px" /><rect fill="rgb(255,211,0)" height="5px" opacity="0.576470588235" width="5px" x="84px" y="36px" /><rect fill="rgb(255,211,0)" height="5px" opacity="0.811764705882" width="5px" x="88px" y="36px" /><rect fill="rgb(255,211,0)" height="5px" width="5px" x="92px" y="36px" /><rect fill="rgb(255,211,0)" height="5px" opacity="0.827450980392" width="5px" x="96px" y="36px" /><rect fill="rgb(255,211,0)" height="5px" opacity="0.109803921569" width="5px" x="40px" y="40px" /><rect fill="rgb(255,211,0)" height="5px" opacity="0.886274509804" width="5px" x="44px" y="40px" /><rect fill="rgb(255,211,0)" height="5px" width="5px" x="48px" y="40px" /><rect fill="rgb(255,211,0)" height="5px" width="5px" x="52px" y="40px" /><rect fill="rgb(255,211,0)" height="5px" opacity="0.988235294118" width="5px" x="56px" y="40px" /><rect fill="rgb(255,211,0)" height="5px" width="5px" x="60px" y="40px" /><rect fill="rgb(255,211,0)" height="5px" width="5px" x="64px" y="40px" /><rect fill="rgb(255,211,0)" height="5px" opacity="0.964705882353" width="5px" x="68px" y="40px" /><rect fill="rgb(255,211,0)" height="5px" opacity="0.964705882353" width="5px" x="72px" y="40px" /><rect fill="rgb(255,211,0)" height="5px" width="5px" x="76px" y="40px" /><rect fill="rgb(255,211,0)" height="5px" width="5px" x="80px" y="40px" /><rect fill="rgb(255,211,0)" height="5px" width="5px" x="84px" y="40px" /><rect fill="rgb(255,211,0)" height="5px" width="5px" x="88px" y="40px" /><rect fill="rgb(255,211,0)" height="5px" opacity="0.960784313725" width="5px" x="92px" y="40px" /><rect fill="rgb(255,211,0)" height="5px" opacity="0.0549019607843" width="5px" x="96px" y="40px" /><rect fill="rgb(255,211,0)" height="5px" opacity="0.576470588235" width="5px" x="40px" y="44px" /><rect fill="rgb(255,211,0)" height="5px" width="5px" x="44px" y="44px" /><rect fill="rgb(255,211,0)" height="5px" width="5px" x="48px" y="44px" /><rect fill="rgb(255,211,0)" height="5px" opacity="0.988235294118" width="5px" x="52px" y="44px" /><rect fill="rgb(255,211,0)" height="5px" opacity="0.956862745098" width="5px" x="56px" y="44px" /><rect fill="rgb(255,211,0)" height="5px" opacity="0.929411764706" width="5px" x="60px" y="44px" /><rect fill="rgb(255,211,0)" height="5px" opacity="0.945098039216" width="5px" x="64px" y="44px" /><rect fill="rgb(255,211,0)" height="5px" opacity="0.909803921569" width="5px" x="68px" y="44px" /><rect fill="rgb(255,211,0)" height="5px" opacity="0.988235294118" width="5px" x="72px" y="44px" /><rect fill="rgb(255,211,0)" height="5px" width="5px" x="76px" y="44px" /><rect fill="rgb(255,211,0)" height="5px" width="5px" x="80px" y="44px" /><rect fill="rgb(255,211,0)" height="5px" width="5px" x="84px" y="44px" /><rect fill="rgb(255,211,0)" height="5px" width="5px" x="88px" y="44px" /><rect fill="rgb(255,211,0)" height="5px" opacity="0.670588235294" width="5px" x="92px" y="44px" /><rect fill="rgb(255,211,0)" height="5px" opacity="0.247058823529" width="5px" x="36px" y="48px" /><rect fill="rgb(255,211,0)" height="5px" width="5px" x="40px" y="48px" /><rect fill="rgb(255,211,0)" height="5px" width="5px" x="44px" y="48px" /><rect fill="rgb(255,211,0)" height="5px" width="5px" x="48px" y="48px" /><rect fill="rgb(255,211,0)" height="5px" width="5px" x="52px" y="48px" /><rect fill="rgb(255,211,0)" height="5px" opacity="0.988235294118" width="5px" x="56px" y="48px" /><rect fill="rgb(255,211,0)" height="5px" width="5px" x="60px" y="48px" /><rect fill="rgb(255,211,0)" height="5px" opacity="0.980392156863" width="5px" x="64px" y="48px" /><rect fill="rgb(255,211,0)" height="5px" opacity="0.901960784314" width="5px" x="68px" y="48px" /><rect fill="rgb(255,211,0)" height="5px" opacity="0.988235294118" width="5px" x="72px" y="48px" /><rect fill="rgb(255,211,0)" height="5px" width="5px" x="76px" y="48px" /><rect fill="rgb(255,211,0)" height="5px" width="5px" x="80px" y="48px" /><rect fill="rgb(255,211,0)" height="5px" width="5px" x="84px" y="48px" /><rect fill="rgb(255,211,0)" height="5px" opacity="0.956862745098" width="5px" x="88px" y="48px" /><rect fill="rgb(255,211,0)" height="5px" opacity="0.988235294118" width="5px" x="92px" y="48px" /><rect fill="rgb(255,211,0)" height="5px" opacity="0.247058823529" width="5px" x="96px" y="48px" /><rect fill="rgb(255,211,0)" height="5px" opacity="0.588235294118" width="5px" x="36px" y="52px" /><rect fill="rgb(255,211,0)" height="5px" width="5px" x="40px" y="52px" /><rect fill="rgb(255,211,0)" height="5px" opacity="0.964705882353" width="5px" x="44px" y="52px" /><rect fill="rgb(255,211,0)" height="5px" width="5px" x="48px" y="52px" /><rect fill="rgb(255,211,0)" height="5px" opacity="0.917647058824" width="5px" x="52px" y="52px" /><rect fill="rgb(255,211,0)" height="5px" opacity="0.901960784314" width="5px" x="56px" y="52px" /><rect fill="rgb(255,211,0)" height="5px" opacity="0.976470588235" width="5px" x="60px" y="52px" /><rect fill="rgb(255,211,0)" height="5px" opacity="0.972549019608" width="5px" x="64px" y="52px" /><rect fill="rgb(255,211,0)" height="5px" opacity="0.937254901961" width="5px" x="68px" y="52px" /><rect fill="rgb(255,211,0)" height="5px" opacity="0.964705882353" width="5px" x="72px" y="52px" /><rect fill="rgb(255,211,0)" height="5px" width="5px" x="76px" y="52px" /><rect fill="rgb(255,211,0)" height="5px" width="5px" x="80px" y="52px" /><rect fill="rgb(255,211,0)" height="5px" width="5px" x="84px" y="52px" /><rect fill="rgb(255,211,0)" height="5px" opacity="0.933333333333" width="5px" x="88px" y="52px" /><rect fill="rgb(255,211,0)" height="5px" opacity="0.98431372549" width="5px" x="92px" y="52px" /><rect fill="rgb(255,211,0)" height="5px" opacity="0.588235294118" width="5px" x="96px" y="52px" /><rect fill="rgb(255,211,0)" height="5px" opacity="0.811764705882" width="5px" x="36px" y="56px" /><rect fill="rgb(255,211,0)" height="5px" opacity="0.898039215686" width="5px" x="40px" y="56px" /><rect fill="rgb(255,211,0)" height="5px" opacity="0.929411764706" width="5px" x="44px" y="56px" /><rect fill="rgb(255,211,0)" height="5px" opacity="0.847058823529" width="5px" x="48px" y="56px" /><rect fill="rgb(255,211,0)" height="5px" opacity="0.929411764706" width="5px" x="52px" y="56px" /><rect fill="rgb(255,211,0)" height="5px" opacity="0.909803921569" width="5px" x="56px" y="56px" /><rect fill="rgb(255,211,0)" height="5px" opacity="0.945098039216" width="5px" x="60px" y="56px" /><rect fill="rgb(255,211,0)" height="5px" opacity="0.956862745098" width="5px" x="64px" y="56px" /><rect fill="rgb(255,211,0)" height="5px" opacity="0.972549019608" width="5px" x="68px" y="56px" /><rect fill="rgb(255,211,0)" height="5px" width="5px" x="72px" y="56px" /><rect fill="rgb(255,211,0)" height="5px" width="5px" x="76px" y="56px" /><rect fill="rgb(255,211,0)" height="5px" width="5px" x="80px" y="56px" /><rect fill="rgb(255,211,0)" height="5px" width="5px" x="84px" y="56px" /><rect fill="rgb(255,211,0)" height="5px" opacity="0.929411764706" width="5px" x="88px" y="56px" /><rect fill="rgb(255,211,0)" height="5px" width="5px" x="92px" y="56px" /><rect fill="rgb(255,211,0)" height="5px" opacity="0.839215686275" width="5px" x="96px" y="56px" /><rect fill="rgb(255,211,0)" height="5px" opacity="0.866666666667" width="5px" x="0px" y="60px" /><rect fill="rgb(255,211,0)" height="5px" opacity="0.827450980392" width="5px" x="4px" y="60px" /><rect fill="rgb(255,211,0)" height="5px" opacity="0.796078431373" width="5px" x="8px" y="60px" /><rect fill="rgb(255,211,0)" height="5px" opacity="0.788235294118" width="5px" x="12px" y="60px" /><rect fill="rgb(255,211,0)" height="5px" opacity="0.909803921569" width="5px" x="16px" y="60px" /><rect fill="rgb(255,211,0)" height="5px" opacity="0.894117647059" width="5px" x="20px" y="60px" /><rect fill="rgb(255,211,0)" height="5px" opacity="0.956862745098" width="5px" x="24px" y="60px" /><rect fill="rgb(255,211,0)" height="5px" opacity="0.992156862745" width="5px" x="28px" y="60px" /><rect fill="rgb(255,211,0)" height="5px" width="5px" x="32px" y="60px" /><rect fill="rgb(255,211,0)" height="5px" opacity="0.898039215686" width="5px" x="36px" y="60px" /><rect fill="rgb(255,211,0)" height="5px" opacity="0.854901960784" width="5px" x="40px" y="60px" /><rect fill="rgb(255,211,0)" height="5px" opacity="0.898039215686" width="5px" x="44px" y="60px" /><rect fill="rgb(255,211,0)" height="5px" opacity="0.952941176471" width="5px" x="48px" y="60px" /><rect fill="rgb(255,211,0)" height="5px" opacity="0.964705882353" width="5px" x="52px" y="60px" /><rect fill="rgb(255,211,0)" height="5px" opacity="0.917647058824" width="5px" x="56px" y="60px" /><rect fill="rgb(255,211,0)" height="5px" opacity="0.945098039216" width="5px" x="60px" y="60px" /><rect fill="rgb(255,211,0)" height="5px" opacity="0.956862745098" width="5px" x="64px" y="60px" /><rect fill="rgb(255,211,0)" height="5px" opacity="0.972549019608" width="5px" x="68px" y="60px" /><rect fill="rgb(255,211,0)" height="5px" width="5px" x="72px" y="60px" /><rect fill="rgb(255,211,0)" height="5px" opacity="0.988235294118" width="5px" x="76px" y="60px" /><rect fill="rgb(255,211,0)" height="5px" width="5px" x="80px" y="60px" /><rect fill="rgb(255,211,0)" height="5px" opacity="0.933333333333" width="5px" x="84px" y="60px" /><rect fill="rgb(255,211,0)" height="5px" opacity="0.964705882353" width="5px" x="88px" y="60px" /><rect fill="rgb(255,211,0)" height="5px" width="5px" x="92px" y="60px" /><rect fill="rgb(255,211,0)" height="5px" opacity="0.976470588235" width="5px" x="96px" y="60px" /><rect fill="rgb(255,211,0)" height="5px" opacity="0.823529411765" width="5px" x="100px" y="60px" /><rect fill="rgb(255,211,0)" height="5px" opacity="0.780392156863" width="5px" x="104px" y="60px" /><rect fill="rgb(255,211,0)" height="5px" opacity="0.8" width="5px" x="108px" y="60px" /><rect fill="rgb(255,211,0)" height="5px" opacity="0.788235294118" width="5px" x="112px" y="60px" /><rect fill="rgb(255,211,0)" height="5px" opacity="0.803921568627" width="5px" x="116px" y="60px" /><rect fill="rgb(255,211,0)" height="5px" opacity="0.776470588235" width="5px" x="120px" y="60px" /><rect fill="rgb(255,211,0)" height="5px" opacity="0.819607843137" width="5px" x="124px" y="60px" /><rect fill="rgb(255,211,0)" height="5px" opacity="0.788235294118" width="5px" x="0px" y="64px" /><rect fill="rgb(255,211,0)" height="5px" opacity="0.725490196078" width="5px" x="4px" y="64px" /><rect fill="rgb(255,211,0)" height="5px" opacity="0.839215686275" width="5px" x="8px" y="64px" /><rect fill="rgb(255,211,0)" height="5px" opacity="0.870588235294" width="5px" x="12px" y="64px" /><rect fill="rgb(255,211,0)" height="5px" opacity="0.956862745098" width="5px" x="16px" y="64px" /><rect fill="rgb(255,211,0)" height="5px" opacity="0.929411764706" width="5px" x="20px" y="64px" /><rect fill="rgb(255,211,0)" height="5px" opacity="0.858823529412" width="5px" x="24px" y="64px" /><rect fill="rgb(255,211,0)" height="5px" opacity="0.992156862745" width="5px" x="28px" y="64px" /><rect fill="rgb(255,211,0)" height="5px" width="5px" x="32px" y="64px" /><rect fill="rgb(255,211,0)" height="5px" opacity="0.858823529412" width="5px" x="36px" y="64px" /><rect fill="rgb(255,211,0)" height="5px" opacity="0.878431372549" width="5px" x="40px" y="64px" /><rect fill="rgb(255,211,0)" height="5px" opacity="0.933333333333" width="5px" x="44px" y="64px" /><rect fill="rgb(255,211,0)" height="5px" opacity="0.964705882353" width="5px" x="48px" y="64px" /><rect fill="rgb(255,211,0)" height="5px" opacity="0.929411764706" width="5px" x="52px" y="64px" /><rect fill="rgb(255,211,0)" height="5px" opacity="0.878431372549" width="5px" x="56px" y="64px" /><rect fill="rgb(255,211,0)" height="5px" opacity="0.988235294118" width="5px" x="60px" y="64px" /><rect fill="rgb(255,211,0)" height="5px" width="5px" x="64px" y="64px" /><rect fill="rgb(255,211,0)" height="5px" width="5px" x="68px" y="64px" /><rect fill="rgb(255,211,0)" height="5px" opacity="0.964705882353" width="5px" x="72px" y="64px" /><rect fill="rgb(255,211,0)" height="5px" opacity="0.909803921569" width="5px" x="76px" y="64px" /><rect fill="rgb(255,211,0)" height="5px" width="5px" x="80px" y="64px" /><rect fill="rgb(255,211,0)" height="5px" opacity="0.898039215686" width="5px" x="84px" y="64px" /><rect fill="rgb(255,211,0)" height="5px" width="5px" x="88px" y="64px" /><rect fill="rgb(255,211,0)" height="5px" width="5px" x="92px" y="64px" /><rect fill="rgb(255,211,0)" height="5px" opacity="0.976470588235" width="5px" x="96px" y="64px" /><rect fill="rgb(255,211,0)" height="5px" opacity="0.760784313725" width="5px" x="100px" y="64px" /><rect fill="rgb(255,211,0)" height="5px" opacity="0.764705882353" width="5px" x="104px" y="64px" /><rect fill="rgb(255,211,0)" height="5px" opacity="0.796078431373" width="5px" x="108px" y="64px" /><rect fill="rgb(255,211,0)" height="5px" opacity="0.807843137255" width="5px" x="112px" y="64px" /><rect fill="rgb(255,211,0)" height="5px" opacity="0.764705882353" width="5px" x="116px" y="64px" /><rect fill="rgb(255,211,0)" height="5px" opacity="0.717647058824" width="5px" x="120px" y="64px" /><rect fill="rgb(255,211,0)" height="5px" opacity="0.874509803922" width="5px" x="124px" y="64px" /><rect fill="rgb(255,211,0)" height="5px" opacity="0.839215686275" width="5px" x="36px" y="68px" /><rect fill="rgb(255,211,0)" height="5px" opacity="0.964705882353" width="5px" x="40px" y="68px" /><rect fill="rgb(255,211,0)" height="5px" opacity="0.964705882353" width="5px" x="44px" y="68px" /><rect fill="rgb(255,211,0)" height="5px" opacity="0.886274509804" width="5px" x="48px" y="68px" /><rect fill="rgb(255,211,0)" height="5px" opacity="0.945098039216" width="5px" x="52px" y="68px" /><rect fill="rgb(255,211,0)" height="5px" opacity="0.917647058824" width="5px" x="56px" y="68px" /><rect fill="rgb(255,211,0)" height="5px" opacity="0.945098039216" width="5px" x="60px" y="68px" /><rect fill="rgb(255,211,0)" height="5px" width="5px" x="64px" y="68px" /><rect fill="rgb(255,211,0)" height="5px" width="5px" x="68px" y="68px" /><rect fill="rgb(255,211,0)" height="5px" opacity="0.909803921569" width="5px" x="72px" y="68px" /><rect fill="rgb(255,211,0)" height="5px" opacity="0.988235294118" width="5px" x="76px" y="68px" /><rect fill="rgb(255,211,0)" height="5px" opacity="0.952941176471" width="5px" x="80px" y="68px" /><rect fill="rgb(255,211,0)" height="5px" opacity="0.945098039216" width="5px" x="84px" y="68px" /><rect fill="rgb(255,211,0)" height="5px" width="5px" x="88px" y="68px" /><rect fill="rgb(255,211,0)" height="5px" width="5px" x="92px" y="68px" /><rect fill="rgb(255,211,0)" height="5px" opacity="0.839215686275" width="5px" x="96px" y="68px" /><rect fill="rgb(255,211,0)" height="5px" opacity="0.588235294118" width="5px" x="36px" y="72px" /><rect fill="rgb(255,211,0)" height="5px" width="5px" x="40px" y="72px" /><rect fill="rgb(255,211,0)" height="5px" opacity="0.964705882353" width="5px" x="44px" y="72px" /><rect fill="rgb(255,211,0)" height="5px" opacity="0.964705882353" width="5px" x="48px" y="72px" /><rect fill="rgb(255,211,0)" height="5px" width="5px" x="52px" y="72px" /><rect fill="rgb(255,211,0)" height="5px" width="5px" x="56px" y="72px" /><rect fill="rgb(255,211,0)" height="5px" opacity="0.988235294118" width="5px" x="60px" y="72px" /><rect fill="rgb(255,211,0)" height="5px" width="5px" x="64px" y="72px" /><rect fill="rgb(255,211,0)" height="5px" width="5px" x="68px" y="72px" /><rect fill="rgb(255,211,0)" height="5px" opacity="0.964705882353" width="5px" x="72px" y="72px" /><rect fill="rgb(255,211,0)" height="5px" opacity="0.929411764706" width="5px" x="76px" y="72px" /><rect fill="rgb(255,211,0)" height="5px" opacity="0.905882352941" width="5px" x="80px" y="72px" /><rect fill="rgb(255,211,0)" height="5px" opacity="0.929411764706" width="5px" x="84px" y="72px" /><rect fill="rgb(255,211,0)" height="5px" width="5px" x="88px" y="72px" /><rect fill="rgb(255,211,0)" height="5px" width="5px" x="92px" y="72px" /><rect fill="rgb(255,211,0)" height="5px" opacity="0.588235294118" width="5px" x="96px" y="72px" /><rect fill="rgb(255,211,0)" height="5px" opacity="0.247058823529" width="5px" x="36px" y="76px" /><rect fill="rgb(255,211,0)" height="5px" width="5px" x="40px" y="76px" /><rect fill="rgb(255,211,0)" height="5px" width="5px" x="44px" y="76px" /><rect fill="rgb(255,211,0)" height="5px" width="5px" x="48px" y="76px" /><rect fill="rgb(255,211,0)" height="5px" width="5px" x="52px" y="76px" /><rect fill="rgb(255,211,0)" height="5px" width="5px" x="56px" y="76px" /><rect fill="rgb(255,211,0)" height="5px" width="5px" x="60px" y="76px" /><rect fill="rgb(255,211,0)" height="5px" width="5px" x="64px" y="76px" /><rect fill="rgb(255,211,0)" height="5px" opacity="0.976470588235" width="5px" x="68px" y="76px" /><rect fill="rgb(255,211,0)" height="5px" opacity="0.921568627451" width="5px" x="72px" y="76px" /><rect fill="rgb(255,211,0)" height="5px" opacity="0.898039215686" width="5px" x="76px" y="76px" /><rect fill="rgb(255,211,0)" height="5px" opacity="0.949019607843" width="5px" x="80px" y="76px" /><rect fill="rgb(255,211,0)" height="5px" opacity="0.98431372549" width="5px" x="84px" y="76px" /><rect fill="rgb(255,211,0)" height="5px" width="5px" x="88px" y="76px" /><rect fill="rgb(255,211,0)" height="5px" width="5px" x="92px" y="76px" /><rect fill="rgb(255,211,0)" height="5px" opacity="0.247058823529" width="5px" x="96px" y="76px" /><rect fill="rgb(255,211,0)" height="5px" opacity="0.576470588235" width="5px" x="40px" y="80px" /><rect fill="rgb(255,211,0)" height="5px" width="5px" x="44px" y="80px" /><rect fill="rgb(255,211,0)" height="5px" width="5px" x="48px" y="80px" /><rect fill="rgb(255,211,0)" height="5px" opacity="0.964705882353" width="5px" x="52px" y="80px" /><rect fill="rgb(255,211,0)" height="5px" opacity="0.866666666667" width="5px" x="56px" y="80px" /><rect fill="rgb(255,211,0)" height="5px" opacity="0.945098039216" width="5px" x="60px" y="80px" /><rect fill="rgb(255,211,0)" height="5px" opacity="0.898039215686" width="5px" x="64px" y="80px" /><rect fill="rgb(255,211,0)" height="5px" opacity="0.847058823529" width="5px" x="68px" y="80px" /><rect fill="rgb(255,211,0)" height="5px" opacity="0.839215686275" width="5px" x="72px" y="80px" /><rect fill="rgb(255,211,0)" height="5px" opacity="0.964705882353" width="5px" x="76px" y="80px" /><rect fill="rgb(255,211,0)" height="5px" width="5px" x="80px" y="80px" /><rect fill="rgb(255,211,0)" height="5px" width="5px" x="84px" y="80px" /><rect fill="rgb(255,211,0)" height="5px" width="5px" x="88px" y="80px" /><rect fill="rgb(255,211,0)" height="5px" opacity="0.576470588235" width="5px" x="92px" y="80px" /><rect fill="rgb(255,211,0)" height="5px" opacity="0.0392156862745" width="5px" x="36px" y="84px" /><rect fill="rgb(255,211,0)" height="5px" opacity="0.878431372549" width="5px" x="40px" y="84px" /><rect fill="rgb(255,211,0)" height="5px" opacity="0.874509803922" width="5px" x="44px" y="84px" /><rect fill="rgb(255,211,0)" height="5px" width="5px" x="48px" y="84px" /><rect fill="rgb(255,211,0)" height="5px" opacity="0.964705882353" width="5px" x="52px" y="84px" /><rect fill="rgb(255,211,0)" height="5px" opacity="0.933333333333" width="5px" x="56px" y="84px" /><rect fill="rgb(255,211,0)" height="5px" opacity="0.988235294118" width="5px" x="60px" y="84px" /><rect fill="rgb(255,211,0)" height="5px" opacity="0.964705882353" width="5px" x="64px" y="84px" /><rect fill="rgb(255,211,0)" height="5px" opacity="0.952941176471" width="5px" x="68px" y="84px" /><rect fill="rgb(255,211,0)" height="5px" width="5px" x="72px" y="84px" /><rect fill="rgb(255,211,0)" height="5px" width="5px" x="76px" y="84px" /><rect fill="rgb(255,211,0)" height="5px" width="5px" x="80px" y="84px" /><rect fill="rgb(255,211,0)" height="5px" width="5px" x="84px" y="84px" /><rect fill="rgb(255,211,0)" height="5px" opacity="0.690196078431" width="5px" x="88px" y="84px" /><rect fill="rgb(255,211,0)" height="5px" opacity="0.294117647059" width="5px" x="92px" y="84px" /><rect fill="rgb(255,211,0)" height="5px" opacity="0.188235294118" width="5px" x="32px" y="88px" /><rect fill="rgb(255,211,0)" height="5px" opacity="0.98431372549" width="5px" x="36px" y="88px" /><rect fill="rgb(255,211,0)" height="5px" width="5px" x="40px" y="88px" /><rect fill="rgb(255,211,0)" height="5px" opacity="0.850980392157" width="5px" x="44px" y="88px" /><rect fill="rgb(255,211,0)" height="5px" opacity="0.58431372549" width="5px" x="48px" y="88px" /><rect fill="rgb(255,211,0)" height="5px" width="5px" x="52px" y="88px" /><rect fill="rgb(255,211,0)" height="5px" width="5px" x="56px" y="88px" /><rect fill="rgb(255,211,0)" height="5px" width="5px" x="60px" y="88px" /><rect fill="rgb(255,211,0)" height="5px" width="5px" x="64px" y="88px" /><rect fill="rgb(255,211,0)" height="5px" width="5px" x="68px" y="88px" /><rect fill="rgb(255,211,0)" height="5px" width="5px" x="72px" y="88px" /><rect fill="rgb(255,211,0)" height="5px" width="5px" x="76px" y="88px" /><rect fill="rgb(255,211,0)" height="5px" width="5px" x="80px" y="88px" /><rect fill="rgb(255,211,0)" height="5px" opacity="0.596078431373" width="5px" x="84px" y="88px" /><rect fill="rgb(255,211,0)" height="5px" opacity="0.890196078431" width="5px" x="88px" y="88px" /><rect fill="rgb(255,211,0)" height="5px" opacity="0.964705882353" width="5px" x="92px" y="88px" /><rect fill="rgb(255,211,0)" height="5px" opacity="0.321568627451" width="5px" x="96px" y="88px" /><rect fill="rgb(255,211,0)" height="5px" opacity="0.541176470588" width="5px" x="28px" y="92px" /><rect fill="rgb(255,211,0)" height="5px" width="5px" x="32px" y="92px" /><rect fill="rgb(255,211,0)" height="5px" width="5px" x="36px" y="92px" /><rect fill="rgb(255,211,0)" height="5px" opacity="0.654901960784" width="5px" x="40px" y="92px" /><rect fill="rgb(255,211,0)" height="5px" opacity="0.247058823529" width="5px" x="52px" y="92px" /><rect fill="rgb(255,211,0)" height="5px" opacity="0.588235294118" width="5px" x="56px" y="92px" /><rect fill="rgb(255,211,0)" height="5px" opacity="0.839215686275" width="5px" x="60px" y="92px" /><rect fill="rgb(255,211,0)" height="5px" opacity="0.976470588235" width="5px" x="64px" y="92px" /><rect fill="rgb(255,211,0)" height="5px" opacity="0.976470588235" width="5px" x="68px" y="92px" /><rect fill="rgb(255,211,0)" height="5px" opacity="0.839215686275" width="5px" x="72px" y="92px" /><rect fill="rgb(255,211,0)" height="5px" opacity="0.588235294118" width="5px" x="76px" y="92px" /><rect fill="rgb(255,211,0)" height="5px" opacity="0.247058823529" width="5px" x="80px" y="92px" /><rect fill="rgb(255,211,0)" height="5px" opacity="0.329411764706" width="5px" x="88px" y="92px" /><rect fill="rgb(255,211,0)" height="5px" opacity="0.980392156863" width="5px" x="92px" y="92px" /><rect fill="rgb(255,211,0)" height="5px" opacity="0.996078431373" width="5px" x="96px" y="92px" /><rect fill="rgb(255,211,0)" height="5px" opacity="0.458823529412" width="5px" x="100px" y="92px" /><rect fill="rgb(255,211,0)" height="5px" opacity="0.0313725490196" width="5px" x="20px" y="96px" /><rect fill="rgb(255,211,0)" height="5px" opacity="0.847058823529" width="5px" x="24px" y="96px" /><rect fill="rgb(255,211,0)" height="5px" width="5px" x="28px" y="96px" /><rect fill="rgb(255,211,0)" height="5px" width="5px" x="32px" y="96px" /><rect fill="rgb(255,211,0)" height="5px" opacity="0.388235294118" width="5px" x="36px" y="96px" /><rect fill="rgb(255,211,0)" height="5px" opacity="0.988235294118" width="5px" x="64px" y="96px" /><rect fill="rgb(255,211,0)" height="5px" opacity="0.988235294118" width="5px" x="68px" y="96px" /><rect fill="rgb(255,211,0)" height="5px" opacity="0.294117647059" width="5px" x="92px" y="96px" /><rect fill="rgb(255,211,0)" height="5px" opacity="0.96862745098" width="5px" x="96px" y="96px" /><rect fill="rgb(255,211,0)" height="5px" width="5px" x="100px" y="96px" /><rect fill="rgb(255,211,0)" height="5px" opacity="0.56862745098" width="5px" x="104px" y="96px" /><rect fill="rgb(255,211,0)" height="5px" opacity="0.0078431372549" width="5px" x="108px" y="96px" /><rect fill="rgb(255,211,0)" height="5px" opacity="0.188235294118" width="5px" x="16px" y="100px" /><rect fill="rgb(255,211,0)" height="5px" opacity="0.98431372549" width="5px" x="20px" y="100px" /><rect fill="rgb(255,211,0)" height="5px" width="5px" x="24px" y="100px" /><rect fill="rgb(255,211,0)" height="5px" opacity="0.980392156863" width="5px" x="28px" y="100px" /><rect fill="rgb(255,211,0)" height="5px" opacity="0.137254901961" width="5px" x="32px" y="100px" /><rect fill="rgb(255,211,0)" height="5px" width="5px" x="64px" y="100px" /><rect fill="rgb(255,211,0)" height="5px" width="5px" x="68px" y="100px" /><rect fill="rgb(255,211,0)" height="5px" opacity="0.286274509804" width="5px" x="96px" y="100px" /><rect fill="rgb(255,211,0)" height="5px" opacity="0.96862745098" width="5px" x="100px" y="100px" /><rect fill="rgb(255,211,0)" height="5px" width="5px" x="104px" y="100px" /><rect fill="rgb(255,211,0)" height="5px" opacity="0.674509803922" width="5px" x="108px" y="100px" /><rect fill="rgb(255,211,0)" height="5px" opacity="0.0313725490196" width="5px" x="112px" y="100px" /><rect fill="rgb(255,211,0)" height="5px" opacity="0.490196078431" width="5px" x="12px" y="104px" /><rect fill="rgb(255,211,0)" height="5px" width="5px" x="16px" y="104px" /><rect fill="rgb(255,211,0)" height="5px" width="5px" x="20px" y="104px" /><rect fill="rgb(255,211,0)" height="5px" opacity="0.925490196078" width="5px" x="24px" y="104px" /><rect fill="rgb(255,211,0)" height="5px" opacity="0.0470588235294" width="5px" x="28px" y="104px" /><rect fill="rgb(255,211,0)" height="5px" opacity="0.964705882353" width="5px" x="64px" y="104px" /><rect fill="rgb(255,211,0)" height="5px" opacity="0.854901960784" width="5px" x="68px" y="104px" /><rect fill="rgb(255,211,0)" height="5px" opacity="0.278431372549" width="5px" x="100px" y="104px" /><rect fill="rgb(255,211,0)" height="5px" opacity="0.964705882353" width="5px" x="104px" y="104px" /><rect fill="rgb(255,211,0)" height="5px" width="5px" x="108px" y="104px" /><rect fill="rgb(255,211,0)" height="5px" opacity="0.749019607843" width="5px" x="112px" y="104px" /><rect fill="rgb(255,211,0)" height="5px" opacity="0.0627450980392" width="5px" x="116px" y="104px" /><rect fill="rgb(255,211,0)" height="5px" opacity="0.0313725490196" width="5px" x="4px" y="108px" /><rect fill="rgb(255,211,0)" height="5px" opacity="0.847058823529" width="5px" x="8px" y="108px" /><rect fill="rgb(255,211,0)" height="5px" width="5px" x="12px" y="108px" /><rect fill="rgb(255,211,0)" height="5px" width="5px" x="16px" y="108px" /><rect fill="rgb(255,211,0)" height="5px" opacity="0.760784313725" width="5px" x="20px" y="108px" /><rect fill="rgb(255,211,0)" height="5px" opacity="0.0078431372549" width="5px" x="24px" y="108px" /><rect fill="rgb(255,211,0)" height="5px" opacity="0.952941176471" width="5px" x="64px" y="108px" /><rect fill="rgb(255,211,0)" height="5px" opacity="0.878431372549" width="5px" x="68px" y="108px" /><rect fill="rgb(255,211,0)" height="5px" opacity="0.243137254902" width="5px" x="104px" y="108px" /><rect fill="rgb(255,211,0)" height="5px" opacity="0.952941176471" width="5px" x="108px" y="108px" /><rect fill="rgb(255,211,0)" height="5px" width="5px" x="112px" y="108px" /><rect fill="rgb(255,211,0)" height="5px" opacity="0.835294117647" width="5px" x="116px" y="108px" /><rect fill="rgb(255,211,0)" height="5px" opacity="0.117647058824" width="5px" x="120px" y="108px" /><rect fill="rgb(255,211,0)" height="5px" opacity="0.164705882353" width="5px" x="0px" y="112px" /><rect fill="rgb(255,211,0)" height="5px" opacity="0.988235294118" width="5px" x="4px" y="112px" /><rect fill="rgb(255,211,0)" height="5px" width="5px" x="8px" y="112px" /><rect fill="rgb(255,211,0)" height="5px" width="5px" x="12px" y="112px" /><rect fill="rgb(255,211,0)" height="5px" opacity="0.470588235294" width="5px" x="16px" y="112px" /><rect fill="rgb(255,211,0)" height="5px" opacity="0.988235294118" width="5px" x="64px" y="112px" /><rect fill="rgb(255,211,0)" height="5px" opacity="0.901960784314" width="5px" x="68px" y="112px" /><rect fill="rgb(255,211,0)" height="5px" opacity="0.239215686275" width="5px" x="108px" y="112px" /><rect fill="rgb(255,211,0)" height="5px" opacity="0.949019607843" width="5px" x="112px" y="112px" /><rect fill="rgb(255,211,0)" height="5px" width="5px" x="116px" y="112px" /><rect fill="rgb(255,211,0)" height="5px" opacity="0.901960784314" width="5px" x="120px" y="112px" /><rect fill="rgb(255,211,0)" height="5px" opacity="0.192156862745" width="5px" x="124px" y="112px" /><rect fill="rgb(255,211,0)" height="5px" opacity="0.0862745098039" width="5px" x="0px" y="116px" /><rect fill="rgb(255,211,0)" height="5px" opacity="0.996078431373" width="5px" x="4px" y="116px" /><rect fill="rgb(255,211,0)" height="5px" opacity="0.996078431373" width="5px" x="8px" y="116px" /><rect fill="rgb(255,211,0)" height="5px" opacity="0.247058823529" width="5px" x="12px" y="116px" /><rect fill="rgb(255,211,0)" height="5px" opacity="0.878431372549" width="5px" x="64px" y="116px" /><rect fill="rgb(255,211,0)" height="5px" opacity="0.933333333333" width="5px" x="68px" y="116px" /><rect fill="rgb(255,211,0)" height="5px" opacity="0.235294117647" width="5px" x="112px" y="116px" /><rect fill="rgb(255,211,0)" height="5px" opacity="0.949019607843" width="5px" x="116px" y="116px" /><rect fill="rgb(255,211,0)" height="5px" width="5px" x="120px" y="116px" /><rect fill="rgb(255,211,0)" height="5px" opacity="0.482352941176" width="5px" x="124px" y="116px" /><rect fill="rgb(255,211,0)" height="5px" opacity="0.294117647059" width="5px" x="4px" y="120px" /><rect fill="rgb(255,211,0)" height="5px" opacity="0.0745098039216" width="5px" x="8px" y="120px" /><rect fill="rgb(255,211,0)" height="5px" opacity="0.866666666667" width="5px" x="64px" y="120px" /><rect fill="rgb(255,211,0)" height="5px" opacity="0.964705882353" width="5px" x="68px" y="120px" /><rect fill="rgb(255,211,0)" height="5px" opacity="0.223529411765" width="5px" x="116px" y="120px" /><rect fill="rgb(255,211,0)" height="5px" opacity="0.662745098039" width="5px" x="120px" y="120px" /><rect fill="rgb(255,211,0)" height="5px" opacity="0.0078431372549" width="5px" x="124px" y="120px" /><rect fill="rgb(255,211,0)" height="5px" opacity="0.886274509804" width="5px" x="64px" y="124px" /><rect fill="rgb(255,211,0)" height="5px" opacity="0.964705882353" width="5px" x="68px" y="124px" /></svg>