<?xml version="1.0" encoding="utf-8" ?>
<svg baseProfile="full" height="1280px" version="1.1" width="1280px" xmlns="http://www.w3.org/2000/svg" xmlns:ev="http://www.w3.org/2001/xml-events" xmlns:xlink="http://www.w3.org/1999/xlink"><defs /><rect fill="rgb(194,177,149)" height="41px" width="41px" x="640px" y="760px" /><rect fill="rgb(197,180,152)" height="41px" width="41px" x="600px" y="800px" /><rect fill="rgb(190,173,145)" height="41px" width="41px" x="640px" y="800px" /><rect fill="rgb(198,181,153)" height="41px" width="41px" x="680px" y="800px" /><rect fill="rgb(198,181,153)" height="41px" width="41px" x="560px" y="840px" /><rect fill="rgb(196,179,151)" height="41px" width="41px" x="600px" y="840px" /><rect fill="rgb(193,176,148)" height="41px" width="41px" x="640px" y="840px" /><rect fill="rgb(198,181,153)" height="41px" width="41px" x="680px" y="840px" /><rect fill="rgb(198,181,153)" height="41px" width="41px" x="720px" y="840px" /><rect fill="rgb(140,133,125)" height="41px" width="41px" x="1040px" y="840px" /><rect fill="rgb(141,134,127)" height="41px" width="41px" x="1080px" y="840px" /><rect fill="rgb(57,52,44)" height="41px" opacity="0.00392156862745" width="41px" x="1120px" y="840px" /><rect fill="rgb(140,133,125)" height="41px" width="41px" x="200px" y="880px" /><rect fill="rgb(141,134,127)" height="41px" width="41px" x="240px" y="880px" /><rect fill="rgb(57,52,44)" height="41px" opacity="0.00392156862745" width="41px" x="280px" y="880px" /><rect fill="rgb(198,181,153)" height="41px" width="41px" x="520px" y="880px" /><rect fill="rgb(194,177,149)" height="41px" width="41px" x="560px" y="880px" /><rect fill="rgb(191,174,146)" height="41px" width="41px" x="600px" y="880px" /><rect fill="rgb(192,175,147)" height="41px" width="41px" x="640px" y="880px" /><rect fill="rgb(194,177,149)" height="41px" width="41px" x="680px" y="880px" /><rect fill="rgb(196,179,151)" height="41px" width="41px" x="720px" y="880px" /><rect fill="rgb(198,181,153)" height="41px" width="41px" x="760px" y="880px" /><rect fill="rgb(142,135,128)" height="41px" width="41px" x="1000px" y="880px" /><rect fill="rgb(143,139,134)" height="41px" width="41px" x="1040px" y="880px" /><rect fill="rgb(146,141,135)" height="41px" width="41px" x="1080px" y="880px" /><rect fill="rgb(141,135,128)" height="41px" width="41px" x="1120px" y="880px" /><rect fill="rgb(142,135,128)" height="41px" width="41px" x="160px" y="920px" /><rect fill="rgb(143,139,134)" height="41px" width="41px" x="200px" y="920px" /><rect fill="rgb(146,141,135)" height="41px" width="41px" x="240px" y="920px" /><rect fill="rgb(141,135,128)" height="41px" width="41px" x="280px" y="920px" /><rect fill="rgb(198,181,153)" height="41px" width="41px" x="480px" y="920px" /><rect fill="rgb(194,177,149)" height="41px" width="41px" x="520px" y="920px" /><rect fill="rgb(192,175,147)" height="41px" width="41px" x="560px" y="920px" /><rect fill="rgb(190,173,145)" height="41px" width="41px" x="600px" y="920px" /><rect fill="rgb(194,177,149)" height="41px" width="41px" x="640px" y="920px" /><rect fill="rgb(188,171,143)" height="41px" width="41px" x="680px" y="920px" /><rect fill="rgb(186,169,142)" height="41px" width="41px" x="720px" y="920px" /><rect fill="rgb(193,176,148)" height="41px" width="41px" x="760px" y="920px" /><rect fill="rgb(194,177,149)" height="41px" width="41px" x="800px" y="920px" /><rect fill="rgb(127,115,102)" height="41px" width="41px" x="960px" y="920px" /><rect fill="rgb(127,115,102)" height="41px" width="41px" x="1000px" y="920px" /><rect fill="rgb(120,109,97)" height="41px" width="41px" x="1040px" y="920px" /><rect fill="rgb(122,111,98)" height="41px" width="41px" x="1080px" y="920px" /><rect fill="rgb(127,115,102)" height="41px" width="41px" x="1120px" y="920px" /><rect fill="rgb(132,120,106)" height="41px" width="41px" x="1160px" y="920px" /><rect fill="rgb(127,115,102)" height="41px" width="41px" x="120px" y="960px" /><rect fill="rgb(127,115,102)" height="41px" width="41px" x="160px" y="960px" /><rect fill="rgb(120,109,97)" height="41px" width="41px" x="200px" y="960px" /><rect fill="rgb(122,111,98)" height="41px" width="41px" x="240px" y="960px" /><rect fill="rgb(127,115,102)" height="41px" width="41px" x="280px" y="960px" /><rect fill="rgb(132,120,106)" height="41px" width="41px" x="320px" y="960px" /><rect fill="rgb(198,181,153)" height="41px" width="41px" x="440px" y="960px" /><rect fill="rgb(198,181,153)" height="41px" width="41px" x="480px" y="960px" /><rect fill="rgb(195,178,150)" height="41px" width="41px" x="520px" y="960px" /><rect fill="rgb(197,180,152)" height="41px" width="41px" x="560px" y="960px" /><rect fill="rgb(194,177,149)" height="41px" width="41px" x="600px" y="960px" /><rect fill="rgb(196,179,151)" height="41px" width="41px" x="640px" y="960px" /><rect fill="rgb(193,176,148)" height="41px" width="41px" x="680px" y="960px" /><rect fill="rgb(191,174,146)" height="41px" width="41px" x="720px" y="960px" /><rect fill="rgb(192,175,147)" height="41px" width="41px" x="760px" y="960px" /><rect fill="rgb(191,174,146)" height="41px" width="41px" x="800px" y="960px" /><rect fill="rgb(197,180,152)" height="41px" width="41px" x="840px" y="960px" /><rect fill="rgb(132,120,106)" height="41px" width="41px" x="920px" y="960px" /><rect fill="rgb(126,114,101)" height="41px" width="41px" x="960px" y="960px" /><rect fill="rgb(127,115,102)" height="41px" width="41px" x="1000px" y="960px" /><rect fill="rgb(121,110,97)" height="41px" width="41px" x="1040px" y="960px" /><rect fill="rgb(132,120,106)" height="41px" width="41px" x="1080px" y="960px" /><rect fill="rgb(122,111,98)" height="41px" width="41px" x="1120px" y="960px" /><rect fill="rgb(123,113,100)" height="41px" width="41px" x="1160px" y="960px" /><rect fill="rgb(130,118,104)" height="41px" width="41px" x="1200px" y="960px" /><rect fill="rgb(132,120,106)" height="41px" width="41px" x="80px" y="1000px" /><rect fill="rgb(126,114,101)" height="41px" width="41px" x="120px" y="1000px" /><rect fill="rgb(127,115,102)" height="41px" width="41px" x="160px" y="1000px" /><rect fill="rgb(121,110,97)" height="41px" width="41px" x="200px" y="1000px" /><rect fill="rgb(132,120,106)" height="41px" width="41px" x="240px" y="1000px" /><rect fill="rgb(122,111,98)" height="41px" width="41px" x="280px" y="1000px" /><rect fill="rgb(123,113,100)" height="41px" width="41px" x="320px" y="1000px" /><rect fill="rgb(130,118,104)" height="41px" width="41px" x="360px" y="1000px" /><rect fill="rgb(137,81,22)" height="41px" width="41px" x="520px" y="1000px" /><rect fill="rgb(167,101,32)" height="41px" width="41px" x="560px" y="1000px" /><rect fill="rgb(167,101,33)" height="41px" width="41px" x="600px" y="1000px" /><rect fill="rgb(166,101,34)" height="41px" width="41px" x="640px" y="1000px" /><rect fill="rgb(168,101,31)" height="41px" width="41px" x="680px" y="1000px" /><rect fill="rgb(170,101,28)" height="41px" width="41px" x="720px" y="1000px" /><rect fill="rgb(137,80,19)" height="41px" width="41px" x="760px" y="1000px" /><rect fill="rgb(124,112,99)" height="41px" width="41px" x="880px" y="1000px" /><rect fill="rgb(119,108,95)" height="41px" width="41px" x="920px" y="1000px" /><rect fill="rgb(122,111,98)" height="41px" width="41px" x="960px" y="1000px" /><rect fill="rgb(127,115,102)" height="41px" width="41px" x="1000px" y="1000px" /><rect fill="rgb(119,109,96)" height="41px" width="41px" x="1040px" y="1000px" /><rect fill="rgb(116,106,93)" height="41px" width="41px" x="1080px" y="1000px" /><rect fill="rgb(126,115,102)" height="41px" width="41px" x="1120px" y="1000px" /><rect fill="rgb(120,110,97)" height="41px" width="41px" x="1160px" y="1000px" /><rect fill="rgb(125,114,100)" height="41px" width="41px" x="1200px" y="1000px" /><rect fill="rgb(130,118,104)" height="41px" width="41px" x="1240px" y="1000px" /><rect fill="rgb(124,112,99)" height="41px" width="41px" x="40px" y="1040px" /><rect fill="rgb(119,108,95)" height="41px" width="41px" x="80px" y="1040px" /><rect fill="rgb(122,111,98)" height="41px" width="41px" x="120px" y="1040px" /><rect fill="rgb(127,115,102)" height="41px" width="41px" x="160px" y="1040px" /><rect fill="rgb(119,109,96)" height="41px" width="41px" x="200px" y="1040px" /><rect fill="rgb(116,106,93)" height="41px" width="41px" x="240px" y="1040px" /><rect fill="rgb(126,115,102)" height="41px" width="41px" x="280px" y="1040px" /><rect fill="rgb(120,110,97)" height="41px" width="41px" x="320px" y="1040px" /><rect fill="rgb(125,114,100)" height="41px" width="41px" x="360px" y="1040px" /><rect fill="rgb(130,118,104)" height="41px" width="41px" x="400px" y="1040px" /><rect fill="rgb(137,82,26)" height="41px" width="41px" x="520px" y="1040px" /><rect fill="rgb(163,101,39)" height="41px" width="41px" x="560px" y="1040px" /><rect fill="rgb(165,101,36)" height="41px" width="41px" x="600px" y="1040px" /><rect fill="rgb(157,101,46)" height="41px" width="41px" x="640px" y="1040px" /><rect fill="rgb(161,101,42)" height="41px" width="41px" x="680px" y="1040px" /><rect fill="rgb(169,101,29)" height="41px" width="41px" x="720px" y="1040px" /><rect fill="rgb(137,81,22)" height="41px" width="41px" x="760px" y="1040px" /><rect fill="rgb(124,112,99)" height="41px" width="41px" x="880px" y="1040px" /><rect fill="rgb(124,112,99)" height="41px" width="41px" x="920px" y="1040px" /><rect fill="rgb(132,120,106)" height="41px" width="41px" x="960px" y="1040px" /><rect fill="rgb(132,120,106)" height="41px" width="41px" x="1000px" y="1040px" /><rect fill="rgb(127,115,101)" height="41px" width="41px" x="1040px" y="1040px" /><rect fill="rgb(124,113,99)" height="41px" width="41px" x="1080px" y="1040px" /><rect fill="rgb(130,118,105)" height="41px" width="41px" x="1120px" y="1040px" /><rect fill="rgb(127,115,102)" height="41px" width="41px" x="1160px" y="1040px" /><rect fill="rgb(128,116,102)" height="41px" width="41px" x="1200px" y="1040px" /><rect fill="rgb(125,113,100)" height="41px" width="41px" x="1240px" y="1040px" /><rect fill="rgb(124,112,99)" height="41px" width="41px" x="40px" y="1080px" /><rect fill="rgb(124,112,99)" height="41px" width="41px" x="80px" y="1080px" /><rect fill="rgb(132,120,106)" height="41px" width="41px" x="120px" y="1080px" /><rect fill="rgb(132,120,106)" height="41px" width="41px" x="160px" y="1080px" /><rect fill="rgb(129,117,103)" height="41px" width="41px" x="200px" y="1080px" /><rect fill="rgb(124,113,99)" height="41px" width="41px" x="240px" y="1080px" /><rect fill="rgb(130,118,105)" height="41px" width="41px" x="280px" y="1080px" /><rect fill="rgb(127,115,102)" height="41px" width="41px" x="320px" y="1080px" /><rect fill="rgb(128,116,102)" height="41px" width="41px" x="360px" y="1080px" /><rect fill="rgb(125,113,100)" height="41px" width="41px" x="400px" y="1080px" /><rect fill="rgb(122,98,71)" height="41px" opacity="0.0156862745098" width="41px" x="480px" y="1080px" /><rect fill="rgb(137,81,24)" height="41px" width="41px" x="520px" y="1080px" /><rect fill="rgb(167,101,33)" height="41px" width="41px" x="560px" y="1080px" /><rect fill="rgb(169,101,27)" height="41px" width="41px" x="600px" y="1080px" /><rect fill="rgb(166,101,34)" height="41px" width="41px" x="640px" y="1080px" /><rect fill="rgb(163,101,39)" height="41px" width="41px" x="680px" y="1080px" /><rect fill="rgb(165,101,35)" height="41px" width="41px" x="720px" y="1080px" /><rect fill="rgb(137,80,19)" height="41px" width="41px" x="760px" y="1080px" /><rect fill="rgb(162,132,100)" height="41px" width="41px" x="920px" y="1080px" /><rect fill="rgb(158,129,98)" height="41px" width="41px" x="960px" y="1080px" /><rect fill="rgb(160,131,99)" height="41px" width="41px" x="1000px" y="1080px" /><rect fill="rgb(155,127,97)" height="41px" width="41px" x="1040px" y="1080px" /><rect fill="rgb(160,131,99)" height="41px" width="41px" x="1080px" y="1080px" /><rect fill="rgb(163,133,101)" height="41px" width="41px" x="1120px" y="1080px" /><rect fill="rgb(159,129,99)" height="41px" width="41px" x="1160px" y="1080px" /><rect fill="rgb(163,133,101)" height="41px" width="41px" x="1200px" y="1080px" /><rect fill="rgb(179,150,119)" height="41px" width="41px" x="80px" y="1120px" /><rect fill="rgb(92,70,49)" height="41px" width="41px" x="120px" y="1120px" /><rect fill="rgb(173,146,115)" height="41px" width="41px" x="160px" y="1120px" /><rect fill="rgb(176,148,118)" height="41px" width="41px" x="200px" y="1120px" /><rect fill="rgb(174,146,116)" height="41px" width="41px" x="240px" y="1120px" /><rect fill="rgb(179,150,119)" height="41px" width="41px" x="280px" y="1120px" /><rect fill="rgb(93,70,49)" height="41px" width="41px" x="320px" y="1120px" /><rect fill="rgb(176,148,117)" height="41px" width="41px" x="360px" y="1120px" /><rect fill="rgb(122,98,71)" height="41px" opacity="0.00392156862745" width="41px" x="480px" y="1120px" /><rect fill="rgb(137,80,24)" height="41px" width="41px" x="520px" y="1120px" /><rect fill="rgb(166,101,34)" height="41px" width="41px" x="560px" y="1120px" /><rect fill="rgb(202,160,109)" height="41px" width="41px" x="600px" y="1120px" /><rect fill="rgb(211,165,113)" height="41px" width="41px" x="640px" y="1120px" /><rect fill="rgb(165,101,34)" height="41px" width="41px" x="680px" y="1120px" /><rect fill="rgb(167,101,33)" height="41px" width="41px" x="720px" y="1120px" /><rect fill="rgb(137,80,22)" height="41px" width="41px" x="760px" y="1120px" /><rect fill="rgb(160,131,99)" height="41px" width="41px" x="920px" y="1120px" /><rect fill="rgb(157,129,98)" height="41px" width="41px" x="960px" y="1120px" /><rect fill="rgb(160,131,99)" height="41px" width="41px" x="1000px" y="1120px" /><rect fill="rgb(207,163,112)" height="41px" width="41px" x="1040px" y="1120px" /><rect fill="rgb(216,168,116)" height="41px" width="41px" x="1080px" y="1120px" /><rect fill="rgb(163,133,101)" height="41px" width="41px" x="1120px" y="1120px" /><rect fill="rgb(158,128,98)" height="41px" width="41px" x="1160px" y="1120px" /><rect fill="rgb(160,131,99)" height="41px" width="41px" x="1200px" y="1120px" /><rect fill="rgb(178,149,118)" height="41px" width="41px" x="80px" y="1160px" /><rect fill="rgb(90,69,49)" height="41px" width="41px" x="120px" y="1160px" /><rect fill="rgb(172,144,114)" height="41px" width="41px" x="160px" y="1160px" /><rect fill="rgb(72,69,64)" height="41px" width="41px" x="200px" y="1160px" /><rect fill="rgb(72,69,64)" height="41px" width="41px" x="240px" y="1160px" /><rect fill="rgb(179,150,119)" height="41px" width="41px" x="280px" y="1160px" /><rect fill="rgb(91,69,49)" height="41px" width="41px" x="320px" y="1160px" /><rect fill="rgb(181,152,120)" height="41px" width="41px" x="360px" y="1160px" /><rect fill="rgb(137,83,33)" height="41px" width="41px" x="520px" y="1160px" /><rect fill="rgb(164,101,36)" height="41px" width="41px" x="560px" y="1160px" /><rect fill="rgb(205,159,113)" height="41px" width="41px" x="600px" y="1160px" /><rect fill="rgb(211,163,113)" height="41px" width="41px" x="640px" y="1160px" /><rect fill="rgb(170,101,26)" height="41px" width="41px" x="680px" y="1160px" /><rect fill="rgb(163,101,38)" height="41px" width="41px" x="720px" y="1160px" /><rect fill="rgb(137,81,28)" height="41px" width="41px" x="760px" y="1160px" /><rect fill="rgb(122,98,71)" height="41px" opacity="0.0196078431373" width="41px" x="800px" y="1160px" /><rect fill="rgb(163,133,101)" height="41px" width="41px" x="920px" y="1160px" /><rect fill="rgb(154,125,97)" height="41px" width="41px" x="960px" y="1160px" /><rect fill="rgb(159,130,98)" height="41px" width="41px" x="1000px" y="1160px" /><rect fill="rgb(200,157,108)" height="41px" width="41px" x="1040px" y="1160px" /><rect fill="rgb(209,162,113)" height="41px" width="41px" x="1080px" y="1160px" /><rect fill="rgb(156,128,97)" height="41px" width="41px" x="1120px" y="1160px" /><rect fill="rgb(152,124,95)" height="41px" width="41px" x="1160px" y="1160px" /><rect fill="rgb(160,130,98)" height="41px" width="41px" x="1200px" y="1160px" /><rect fill="rgb(183,153,121)" height="41px" width="41px" x="80px" y="1200px" /><rect fill="rgb(91,70,49)" height="41px" width="41px" x="120px" y="1200px" /><rect fill="rgb(183,153,121)" height="41px" width="41px" x="160px" y="1200px" /><rect fill="rgb(79,75,71)" height="41px" width="41px" x="200px" y="1200px" /><rect fill="rgb(68,64,58)" height="41px" width="41px" x="240px" y="1200px" /><rect fill="rgb(184,154,122)" height="41px" width="41px" x="280px" y="1200px" /><rect fill="rgb(89,68,49)" height="41px" width="41px" x="320px" y="1200px" /><rect fill="rgb(180,151,120)" height="41px" width="41px" x="360px" y="1200px" /><rect fill="rgb(137,79,15)" height="41px" width="41px" x="520px" y="1200px" /><rect fill="rgb(170,101,27)" height="41px" width="41px" x="560px" y="1200px" /><rect fill="rgb(214,166,114)" height="41px" width="41px" x="600px" y="1200px" /><rect fill="rgb(217,168,116)" height="41px" width="41px" x="640px" y="1200px" /><rect fill="rgb(171,101,25)" height="41px" width="41px" x="680px" y="1200px" /><rect fill="rgb(166,101,33)" height="41px" width="41px" x="720px" y="1200px" /><rect fill="rgb(137,80,25)" height="41px" width="41px" x="760px" y="1200px" /><rect fill="rgb(122,98,71)" height="41px" opacity="0.0156862745098" width="41px" x="800px" y="1200px" /><rect fill="rgb(163,133,101)" height="41px" width="41px" x="920px" y="1200px" /><rect fill="rgb(159,129,99)" height="41px" width="41px" x="960px" y="1200px" /><rect fill="rgb(163,133,101)" height="41px" width="41px" x="1000px" y="1200px" /><rect fill="rgb(211,165,112)" height="41px" width="41px" x="1040px" y="1200px" /><rect fill="rgb(213,167,114)" height="41px" width="41px" x="1080px" y="1200px" /><rect fill="rgb(163,133,101)" height="41px" width="41px" x="1120px" y="1200px" /><rect fill="rgb(158,129,98)" height="41px" width="41px" x="1160px" y="1200px" /><rect fill="rgb(159,130,98)" height="41px" width="41px" x="1200px" y="1200px" /><rect fill="rgb(176,148,117)" height="41px" width="41px" x="80px" y="1240px" /><rect fill="rgb(90,69,49)" height="41px" width="41px" x="120px" y="1240px" /><rect fill="rgb(183,153,121)" height="41px" width="41px" x="160px" y="1240px" /><rect fill="rgb(64,60,53)" height="41px" width="41px" x="200px" y="1240px" /><rect fill="rgb(76,73,68)" height="41px" width="41px" x="240px" y="1240px" /><rect fill="rgb(184,154,122)" height="41px" width="41px" x="280px" y="1240px" /><rect fill="rgb(91,69,49)" height="41px" width="41px" x="320px" y="1240px" /><rect fill="rgb(175,147,116)" height="41px" width="41px" x="360px" y="1240px" /><rect fill="rgb(122,98,71)" height="41px" width="41px" x="480px" y="1240px" /><rect fill="rgb(122,98,71)" height="41px" width="41px" x="520px" y="1240px" /><rect fill="rgb(122,98,71)" height="41px" width="41px" x="560px" y="1240px" /><rect fill="rgb(122,98,71)" height="41px" width="41px" x="600px" y="1240px" /><rect fill="rgb(122,98,71)" height="41px" width="41px" x="640px" y="1240px" /><rect fill="rgb(122,98,71)" height="41px" width="41px" x="680px" y="1240px" /><rect fill="rgb(122,98,71)" height="41px" width="41px" x="720px" y="1240px" /><rect fill="rgb(122,98,71)" height="41px" width="41px" x="760px" y="1240px" /><rect fill="rgb(122,98,71)" height="41px" width="41px" x="800px" y="1240px" /><rect fill="rgb(122,98,71)" height="41px" width="41px" x="880px" y="1240px" /><rect fill="rgb(122,98,71)" height="41px" width="41px" x="920px" y="1240px" /><rect fill="rgb(122,98,71)" height="41px" width="41px" x="960px" y="1240px" /><rect fill="rgb(122,98,71)" height="41px" width="41px" x="1000px" y="1240px" /><rect fill="rgb(122,98,71)" height="41px" width="41px" x="1040px" y="1240px" /><rect fill="rgb(122,98,71)" height="41px" width="41px" x="1080px" y="1240px" /><rect fill="rgb(122,98,71)" height="41px" width="41px" x="1120px" y="1240px" /><rect fill="rgb(122,98,71)" height="41px" width="41px" x="1160px" y="1240px" /><rect fill="rgb(122,98,71)" height="41px" width="41px" x="1200px" y="1240px" /><rect fill="rgb(122,98,71)" height="41px" width="41px" x="1240px" y="1240px" /></svg>