<?xml version="1.0" encoding="utf-8" ?>
<svg baseProfile="full" height="1280px" version="1.1" width="1280px" xmlns="http://www.w3.org/2000/svg" xmlns:ev="http://www.w3.org/2001/xml-events" xmlns:xlink="http://www.w3.org/1999/xlink"><defs /><rect fill="rgb(217,166,119)" height="41px" width="41px" x="160px" y="320px" /><rect fill="rgb(214,164,118)" height="41px" width="41px" x="200px" y="320px" /><rect fill="rgb(214,163,118)" height="41px" width="41px" x="240px" y="320px" /><rect fill="rgb(214,164,117)" height="41px" width="41px" x="280px" y="320px" /><rect fill="rgb(217,166,119)" height="41px" width="41px" x="320px" y="320px" /><rect fill="rgb(219,167,120)" height="41px" width="41px" x="360px" y="320px" /><rect fill="rgb(216,166,119)" height="41px" width="41px" x="400px" y="320px" /><rect fill="rgb(220,168,121)" height="41px" width="41px" x="440px" y="320px" /><rect fill="rgb(219,167,120)" height="41px" width="41px" x="480px" y="320px" /><rect fill="rgb(216,165,118)" height="41px" width="41px" x="520px" y="320px" /><rect fill="rgb(217,165,119)" height="41px" width="41px" x="560px" y="320px" /><rect fill="rgb(71,49,26)" height="41px" width="41px" x="120px" y="360px" /><rect fill="rgb(219,167,120)" height="41px" width="41px" x="160px" y="360px" /><rect fill="rgb(83,59,35)" height="41px" width="41px" x="200px" y="360px" /><rect fill="rgb(213,162,117)" height="41px" width="41px" x="240px" y="360px" /><rect fill="rgb(212,163,117)" height="41px" width="41px" x="280px" y="360px" /><rect fill="rgb(83,59,35)" height="41px" width="41px" x="320px" y="360px" /><rect fill="rgb(214,164,118)" height="41px" width="41px" x="360px" y="360px" /><rect fill="rgb(217,165,119)" height="41px" width="41px" x="400px" y="360px" /><rect fill="rgb(71,49,26)" height="41px" width="41px" x="440px" y="360px" /><rect fill="rgb(215,164,118)" height="41px" width="41px" x="480px" y="360px" /><rect fill="rgb(93,68,42)" height="41px" width="41px" x="520px" y="360px" /><rect fill="rgb(213,162,117)" height="41px" width="41px" x="560px" y="360px" /><rect fill="rgb(71,49,26)" height="41px" width="41px" x="600px" y="360px" /><rect fill="rgb(219,167,120)" height="41px" width="41px" x="160px" y="400px" /><rect fill="rgb(217,166,119)" height="41px" width="41px" x="200px" y="400px" /><rect fill="rgb(219,168,121)" height="41px" width="41px" x="240px" y="400px" /><rect fill="rgb(219,168,121)" height="41px" width="41px" x="280px" y="400px" /><rect fill="rgb(220,168,121)" height="41px" width="41px" x="320px" y="400px" /><rect fill="rgb(215,164,118)" height="41px" width="41px" x="360px" y="400px" /><rect fill="rgb(217,165,119)" height="41px" width="41px" x="400px" y="400px" /><rect fill="rgb(219,167,120)" height="41px" width="41px" x="440px" y="400px" /><rect fill="rgb(218,166,120)" height="41px" width="41px" x="480px" y="400px" /><rect fill="rgb(219,168,121)" height="41px" width="41px" x="520px" y="400px" /><rect fill="rgb(214,164,118)" height="41px" width="41px" x="560px" y="400px" /><rect fill="rgb(172,133,93)" height="41px" opacity="0.0313725490196" width="41px" x="600px" y="400px" /><rect fill="rgb(216,164,118)" height="41px" width="41px" x="160px" y="440px" /><rect fill="rgb(216,164,118)" height="41px" width="41px" x="200px" y="440px" /><rect fill="rgb(220,168,121)" height="41px" width="41px" x="240px" y="440px" /><rect fill="rgb(220,168,121)" height="41px" width="41px" x="280px" y="440px" /><rect fill="rgb(220,168,121)" height="41px" width="41px" x="320px" y="440px" /><rect fill="rgb(218,166,119)" height="41px" width="41px" x="360px" y="440px" /><rect fill="rgb(210,158,114)" height="41px" width="41px" x="400px" y="440px" /><rect fill="rgb(214,164,118)" height="41px" width="41px" x="440px" y="440px" /><rect fill="rgb(220,168,121)" height="41px" width="41px" x="480px" y="440px" /><rect fill="rgb(217,166,119)" height="41px" width="41px" x="520px" y="440px" /><rect fill="rgb(217,166,119)" height="41px" width="41px" x="560px" y="440px" /><rect fill="rgb(172,133,93)" height="41px" opacity="0.0313725490196" width="41px" x="600px" y="440px" /><rect fill="rgb(170,133,97)" height="41px" width="41px" x="800px" y="440px" /><rect fill="rgb(170,133,97)" height="41px" width="41px" x="840px" y="440px" /><rect fill="rgb(171,134,98)" height="41px" width="41px" x="880px" y="440px" /><rect fill="rgb(171,134,98)" height="41px" width="41px" x="920px" y="440px" /><rect fill="rgb(170,133,97)" height="41px" width="41px" x="960px" y="440px" /><rect fill="rgb(170,133,97)" height="41px" width="41px" x="1000px" y="440px" /><rect fill="rgb(172,135,99)" height="41px" width="41px" x="1040px" y="440px" /><rect fill="rgb(172,134,98)" height="41px" width="41px" x="1080px" y="440px" /><rect fill="rgb(170,133,97)" height="41px" width="41px" x="1120px" y="440px" /><rect fill="rgb(170,133,97)" height="41px" width="41px" x="1160px" y="440px" /><rect fill="rgb(220,168,121)" height="41px" width="41px" x="160px" y="480px" /><rect fill="rgb(220,168,121)" height="41px" width="41px" x="200px" y="480px" /><rect fill="rgb(220,168,121)" height="41px" width="41px" x="240px" y="480px" /><rect fill="rgb(147,95,46)" height="41px" width="41px" x="280px" y="480px" /><rect fill="rgb(151,102,57)" height="41px" width="41px" x="320px" y="480px" /><rect fill="rgb(220,168,121)" height="41px" width="41px" x="360px" y="480px" /><rect fill="rgb(215,163,119)" height="41px" width="41px" x="400px" y="480px" /><rect fill="rgb(216,164,119)" height="41px" width="41px" x="440px" y="480px" /><rect fill="rgb(220,168,121)" height="41px" width="41px" x="480px" y="480px" /><rect fill="rgb(219,167,120)" height="41px" width="41px" x="520px" y="480px" /><rect fill="rgb(220,168,121)" height="41px" width="41px" x="560px" y="480px" /><rect fill="rgb(71,49,26)" height="41px" width="41px" x="760px" y="480px" /><rect fill="rgb(170,133,97)" height="41px" width="41px" x="800px" y="480px" /><rect fill="rgb(71,49,26)" height="41px" width="41px" x="840px" y="480px" /><rect fill="rgb(172,135,98)" height="41px" width="41px" x="880px" y="480px" /><rect fill="rgb(172,134,97)" height="41px" width="41px" x="920px" y="480px" /><rect fill="rgb(71,49,26)" height="41px" width="41px" x="960px" y="480px" /><rect fill="rgb(170,133,97)" height="41px" width="41px" x="1000px" y="480px" /><rect fill="rgb(171,134,98)" height="41px" width="41px" x="1040px" y="480px" /><rect fill="rgb(82,59,35)" height="41px" width="41px" x="1080px" y="480px" /><rect fill="rgb(172,135,99)" height="41px" width="41px" x="1120px" y="480px" /><rect fill="rgb(171,133,97)" height="41px" width="41px" x="1160px" y="480px" /><rect fill="rgb(71,49,26)" height="41px" width="41px" x="1200px" y="480px" /><rect fill="rgb(220,168,121)" height="41px" width="41px" x="160px" y="520px" /><rect fill="rgb(217,165,118)" height="41px" width="41px" x="200px" y="520px" /><rect fill="rgb(216,164,118)" height="41px" width="41px" x="240px" y="520px" /><rect fill="rgb(147,95,46)" height="41px" width="41px" x="280px" y="520px" /><rect fill="rgb(149,97,51)" height="41px" width="41px" x="320px" y="520px" /><rect fill="rgb(214,164,117)" height="41px" width="41px" x="360px" y="520px" /><rect fill="rgb(215,165,118)" height="41px" width="41px" x="400px" y="520px" /><rect fill="rgb(217,167,120)" height="41px" width="41px" x="440px" y="520px" /><rect fill="rgb(219,167,120)" height="41px" width="41px" x="480px" y="520px" /><rect fill="rgb(217,166,119)" height="41px" width="41px" x="520px" y="520px" /><rect fill="rgb(220,168,121)" height="41px" width="41px" x="560px" y="520px" /><rect fill="rgb(171,134,97)" height="41px" width="41px" x="800px" y="520px" /><rect fill="rgb(175,136,98)" height="41px" width="41px" x="840px" y="520px" /><rect fill="rgb(172,135,98)" height="41px" width="41px" x="880px" y="520px" /><rect fill="rgb(173,136,100)" height="41px" width="41px" x="920px" y="520px" /><rect fill="rgb(173,136,98)" height="41px" width="41px" x="960px" y="520px" /><rect fill="rgb(173,136,99)" height="41px" width="41px" x="1000px" y="520px" /><rect fill="rgb(170,133,97)" height="41px" width="41px" x="1040px" y="520px" /><rect fill="rgb(170,133,97)" height="41px" width="41px" x="1080px" y="520px" /><rect fill="rgb(171,134,98)" height="41px" width="41px" x="1120px" y="520px" /><rect fill="rgb(171,133,97)" height="41px" width="41px" x="1160px" y="520px" /><rect fill="rgb(220,168,121)" height="41px" width="41px" x="160px" y="560px" /><rect fill="rgb(218,166,119)" height="41px" width="41px" x="200px" y="560px" /><rect fill="rgb(216,165,118)" height="41px" width="41px" x="240px" y="560px" /><rect fill="rgb(220,168,121)" height="41px" width="41px" x="280px" y="560px" /><rect fill="rgb(220,168,121)" height="41px" width="41px" x="320px" y="560px" /><rect fill="rgb(214,164,117)" height="41px" width="41px" x="360px" y="560px" /><rect fill="rgb(217,165,118)" height="41px" width="41px" x="400px" y="560px" /><rect fill="rgb(219,167,120)" height="41px" width="41px" x="440px" y="560px" /><rect fill="rgb(220,168,121)" height="41px" width="41px" x="480px" y="560px" /><rect fill="rgb(220,168,121)" height="41px" width="41px" x="520px" y="560px" /><rect fill="rgb(220,168,121)" height="41px" width="41px" x="560px" y="560px" /><rect fill="rgb(171,134,97)" height="41px" width="41px" x="800px" y="560px" /><rect fill="rgb(176,137,100)" height="41px" width="41px" x="840px" y="560px" /><rect fill="rgb(172,135,98)" height="41px" width="41px" x="880px" y="560px" /><rect fill="rgb(173,136,100)" height="41px" width="41px" x="920px" y="560px" /><rect fill="rgb(173,135,98)" height="41px" width="41px" x="960px" y="560px" /><rect fill="rgb(174,137,100)" height="41px" width="41px" x="1000px" y="560px" /><rect fill="rgb(174,137,101)" height="41px" width="41px" x="1040px" y="560px" /><rect fill="rgb(171,134,98)" height="41px" width="41px" x="1080px" y="560px" /><rect fill="rgb(173,136,100)" height="41px" width="41px" x="1120px" y="560px" /><rect fill="rgb(171,134,98)" height="41px" width="41px" x="1160px" y="560px" /><rect fill="rgb(193,147,102)" height="41px" width="41px" x="80px" y="600px" /><rect fill="rgb(193,147,102)" height="41px" width="41px" x="120px" y="600px" /><rect fill="rgb(194,148,103)" height="41px" width="41px" x="160px" y="600px" /><rect fill="rgb(192,147,101)" height="41px" width="41px" x="200px" y="600px" /><rect fill="rgb(191,146,101)" height="41px" width="41px" x="240px" y="600px" /><rect fill="rgb(191,146,101)" height="41px" width="41px" x="280px" y="600px" /><rect fill="rgb(194,148,103)" height="41px" width="41px" x="320px" y="600px" /><rect fill="rgb(192,147,102)" height="41px" width="41px" x="360px" y="600px" /><rect fill="rgb(193,147,102)" height="41px" width="41px" x="400px" y="600px" /><rect fill="rgb(192,147,102)" height="41px" width="41px" x="440px" y="600px" /><rect fill="rgb(191,146,101)" height="41px" width="41px" x="480px" y="600px" /><rect fill="rgb(192,147,102)" height="41px" width="41px" x="520px" y="600px" /><rect fill="rgb(192,147,102)" height="41px" width="41px" x="560px" y="600px" /><rect fill="rgb(191,146,101)" height="41px" width="41px" x="600px" y="600px" /><rect fill="rgb(191,146,101)" height="41px" width="41px" x="640px" y="600px" /><rect fill="rgb(191,146,101)" height="41px" width="41px" x="680px" y="600px" /><rect fill="rgb(171,134,98)" height="41px" width="41px" x="800px" y="600px" /><rect fill="rgb(174,137,101)" height="41px" width="41px" x="840px" y="600px" /><rect fill="rgb(171,134,98)" height="41px" width="41px" x="880px" y="600px" /><rect fill="rgb(170,133,97)" height="41px" width="41px" x="920px" y="600px" /><rect fill="rgb(171,134,98)" height="41px" width="41px" x="960px" y="600px" /><rect fill="rgb(172,135,99)" height="41px" width="41px" x="1000px" y="600px" /><rect fill="rgb(171,134,98)" height="41px" width="41px" x="1040px" y="600px" /><rect fill="rgb(171,133,97)" height="41px" width="41px" x="1080px" y="600px" /><rect fill="rgb(173,136,99)" height="41px" width="41px" x="1120px" y="600px" /><rect fill="rgb(171,134,97)" height="41px" width="41px" x="1160px" y="600px" /><rect fill="rgb(71,49,26)" height="41px" width="41px" x="40px" y="640px" /><rect fill="rgb(191,146,101)" height="41px" width="41px" x="80px" y="640px" /><rect fill="rgb(71,49,26)" height="41px" width="41px" x="120px" y="640px" /><rect fill="rgb(194,148,103)" height="41px" width="41px" x="160px" y="640px" /><rect fill="rgb(191,146,101)" height="41px" width="41px" x="200px" y="640px" /><rect fill="rgb(71,49,26)" height="41px" width="41px" x="240px" y="640px" /><rect fill="rgb(194,147,102)" height="41px" width="41px" x="280px" y="640px" /><rect fill="rgb(196,149,104)" height="41px" width="41px" x="320px" y="640px" /><rect fill="rgb(71,49,26)" height="41px" width="41px" x="360px" y="640px" /><rect fill="rgb(193,147,102)" height="41px" width="41px" x="400px" y="640px" /><rect fill="rgb(194,148,103)" height="41px" width="41px" x="440px" y="640px" /><rect fill="rgb(71,49,26)" height="41px" width="41px" x="480px" y="640px" /><rect fill="rgb(195,149,104)" height="41px" width="41px" x="520px" y="640px" /><rect fill="rgb(195,149,104)" height="41px" width="41px" x="560px" y="640px" /><rect fill="rgb(71,49,26)" height="41px" width="41px" x="600px" y="640px" /><rect fill="rgb(194,148,102)" height="41px" width="41px" x="640px" y="640px" /><rect fill="rgb(191,146,101)" height="41px" width="41px" x="680px" y="640px" /><rect fill="rgb(71,49,26)" height="41px" width="41px" x="720px" y="640px" /><rect fill="rgb(171,134,98)" height="41px" width="41px" x="800px" y="640px" /><rect fill="rgb(173,135,99)" height="41px" width="41px" x="840px" y="640px" /><rect fill="rgb(150,98,50)" height="41px" width="41px" x="880px" y="640px" /><rect fill="rgb(148,94,44)" height="41px" width="41px" x="920px" y="640px" /><rect fill="rgb(173,136,100)" height="41px" width="41px" x="960px" y="640px" /><rect fill="rgb(171,134,98)" height="41px" width="41px" x="1000px" y="640px" /><rect fill="rgb(151,98,48)" height="41px" width="41px" x="1040px" y="640px" /><rect fill="rgb(145,91,39)" height="41px" width="41px" x="1080px" y="640px" /><rect fill="rgb(172,135,97)" height="41px" width="41px" x="1120px" y="640px" /><rect fill="rgb(172,135,97)" height="41px" width="41px" x="1160px" y="640px" /><rect fill="rgb(191,146,101)" height="41px" width="41px" x="80px" y="680px" /><rect fill="rgb(196,150,105)" height="41px" width="41px" x="120px" y="680px" /><rect fill="rgb(197,151,106)" height="41px" width="41px" x="160px" y="680px" /><rect fill="rgb(193,147,102)" height="41px" width="41px" x="200px" y="680px" /><rect fill="rgb(193,147,102)" height="41px" width="41px" x="240px" y="680px" /><rect fill="rgb(193,148,103)" height="41px" width="41px" x="280px" y="680px" /><rect fill="rgb(192,147,102)" height="41px" width="41px" x="320px" y="680px" /><rect fill="rgb(191,146,101)" height="41px" width="41px" x="360px" y="680px" /><rect fill="rgb(191,146,101)" height="41px" width="41px" x="400px" y="680px" /><rect fill="rgb(192,146,101)" height="41px" width="41px" x="440px" y="680px" /><rect fill="rgb(193,148,103)" height="41px" width="41px" x="480px" y="680px" /><rect fill="rgb(191,146,101)" height="41px" width="41px" x="520px" y="680px" /><rect fill="rgb(191,146,101)" height="41px" width="41px" x="560px" y="680px" /><rect fill="rgb(193,148,102)" height="41px" width="41px" x="600px" y="680px" /><rect fill="rgb(196,149,104)" height="41px" width="41px" x="640px" y="680px" /><rect fill="rgb(191,146,101)" height="41px" width="41px" x="680px" y="680px" /><rect fill="rgb(171,134,98)" height="41px" width="41px" x="800px" y="680px" /><rect fill="rgb(172,134,98)" height="41px" width="41px" x="840px" y="680px" /><rect fill="rgb(154,103,55)" height="41px" width="41px" x="880px" y="680px" /><rect fill="rgb(154,103,56)" height="41px" width="41px" x="920px" y="680px" /><rect fill="rgb(170,133,97)" height="41px" width="41px" x="960px" y="680px" /><rect fill="rgb(171,134,98)" height="41px" width="41px" x="1000px" y="680px" /><rect fill="rgb(148,96,44)" height="41px" width="41px" x="1040px" y="680px" /><rect fill="rgb(147,93,42)" height="41px" width="41px" x="1080px" y="680px" /><rect fill="rgb(171,134,97)" height="41px" width="41px" x="1120px" y="680px" /><rect fill="rgb(172,134,97)" height="41px" width="41px" x="1160px" y="680px" /><rect fill="rgb(196,150,105)" height="41px" width="41px" x="80px" y="720px" /><rect fill="rgb(200,153,108)" height="41px" width="41px" x="120px" y="720px" /><rect fill="rgb(196,150,105)" height="41px" width="41px" x="160px" y="720px" /><rect fill="rgb(192,146,101)" height="41px" width="41px" x="200px" y="720px" /><rect fill="rgb(191,146,101)" height="41px" width="41px" x="240px" y="720px" /><rect fill="rgb(202,154,108)" height="41px" width="41px" x="280px" y="720px" /><rect fill="rgb(202,154,108)" height="41px" width="41px" x="320px" y="720px" /><rect fill="rgb(137,84,31)" height="41px" width="41px" x="360px" y="720px" /><rect fill="rgb(132,80,29)" height="41px" width="41px" x="400px" y="720px" /><rect fill="rgb(191,146,101)" height="41px" width="41px" x="440px" y="720px" /><rect fill="rgb(194,149,104)" height="41px" width="41px" x="480px" y="720px" /><rect fill="rgb(192,147,102)" height="41px" width="41px" x="520px" y="720px" /><rect fill="rgb(138,85,32)" height="41px" width="41px" x="560px" y="720px" /><rect fill="rgb(138,85,31)" height="41px" width="41px" x="600px" y="720px" /><rect fill="rgb(195,148,103)" height="41px" width="41px" x="640px" y="720px" /><rect fill="rgb(194,147,102)" height="41px" width="41px" x="680px" y="720px" /><rect fill="rgb(172,135,99)" height="41px" width="41px" x="800px" y="720px" /><rect fill="rgb(171,134,98)" height="41px" width="41px" x="840px" y="720px" /><rect fill="rgb(150,97,47)" height="41px" width="41px" x="880px" y="720px" /><rect fill="rgb(145,91,39)" height="41px" width="41px" x="920px" y="720px" /><rect fill="rgb(170,133,97)" height="41px" width="41px" x="960px" y="720px" /><rect fill="rgb(170,133,97)" height="41px" width="41px" x="1000px" y="720px" /><rect fill="rgb(146,91,39)" height="41px" width="41px" x="1040px" y="720px" /><rect fill="rgb(146,92,40)" height="41px" width="41px" x="1080px" y="720px" /><rect fill="rgb(172,135,98)" height="41px" width="41px" x="1120px" y="720px" /><rect fill="rgb(172,135,99)" height="41px" width="41px" x="1160px" y="720px" /><rect fill="rgb(196,150,105)" height="41px" width="41px" x="80px" y="760px" /><rect fill="rgb(196,150,105)" height="41px" width="41px" x="120px" y="760px" /><rect fill="rgb(191,146,101)" height="41px" width="41px" x="160px" y="760px" /><rect fill="rgb(134,82,30)" height="41px" width="41px" x="200px" y="760px" /><rect fill="rgb(139,84,32)" height="41px" width="41px" x="240px" y="760px" /><rect fill="rgb(191,146,101)" height="41px" width="41px" x="280px" y="760px" /><rect fill="rgb(191,146,101)" height="41px" width="41px" x="320px" y="760px" /><rect fill="rgb(136,84,31)" height="41px" width="41px" x="360px" y="760px" /><rect fill="rgb(139,87,35)" height="41px" width="41px" x="400px" y="760px" /><rect fill="rgb(194,148,103)" height="41px" width="41px" x="440px" y="760px" /><rect fill="rgb(194,148,103)" height="41px" width="41px" x="480px" y="760px" /><rect fill="rgb(191,146,101)" height="41px" width="41px" x="520px" y="760px" /><rect fill="rgb(135,83,30)" height="41px" width="41px" x="560px" y="760px" /><rect fill="rgb(139,86,32)" height="41px" width="41px" x="600px" y="760px" /><rect fill="rgb(193,147,102)" height="41px" width="41px" x="640px" y="760px" /><rect fill="rgb(193,147,102)" height="41px" width="41px" x="680px" y="760px" /><rect fill="rgb(172,135,99)" height="41px" width="41px" x="800px" y="760px" /><rect fill="rgb(174,137,101)" height="41px" width="41px" x="840px" y="760px" /><rect fill="rgb(172,135,99)" height="41px" width="41px" x="880px" y="760px" /><rect fill="rgb(174,137,100)" height="41px" width="41px" x="920px" y="760px" /><rect fill="rgb(177,140,101)" height="41px" width="41px" x="960px" y="760px" /><rect fill="rgb(172,135,99)" height="41px" width="41px" x="1000px" y="760px" /><rect fill="rgb(172,134,98)" height="41px" width="41px" x="1040px" y="760px" /><rect fill="rgb(173,135,97)" height="41px" width="41px" x="1080px" y="760px" /><rect fill="rgb(175,138,101)" height="41px" width="41px" x="1120px" y="760px" /><rect fill="rgb(172,135,99)" height="41px" width="41px" x="1160px" y="760px" /><rect fill="rgb(200,152,107)" height="41px" width="41px" x="80px" y="800px" /><rect fill="rgb(200,152,107)" height="41px" width="41px" x="120px" y="800px" /><rect fill="rgb(191,146,101)" height="41px" width="41px" x="160px" y="800px" /><rect fill="rgb(131,81,30)" height="41px" width="41px" x="200px" y="800px" /><rect fill="rgb(135,83,30)" height="41px" width="41px" x="240px" y="800px" /><rect fill="rgb(191,146,101)" height="41px" width="41px" x="280px" y="800px" /><rect fill="rgb(200,152,107)" height="41px" width="41px" x="320px" y="800px" /><rect fill="rgb(193,148,102)" height="41px" width="41px" x="360px" y="800px" /><rect fill="rgb(195,148,103)" height="41px" width="41px" x="400px" y="800px" /><rect fill="rgb(195,148,103)" height="41px" width="41px" x="440px" y="800px" /><rect fill="rgb(193,148,102)" height="41px" width="41px" x="480px" y="800px" /><rect fill="rgb(192,147,102)" height="41px" width="41px" x="520px" y="800px" /><rect fill="rgb(193,147,102)" height="41px" width="41px" x="560px" y="800px" /><rect fill="rgb(191,146,101)" height="41px" width="41px" x="600px" y="800px" /><rect fill="rgb(194,147,102)" height="41px" width="41px" x="640px" y="800px" /><rect fill="rgb(193,147,102)" height="41px" width="41px" x="680px" y="800px" /><rect fill="rgb(170,133,97)" height="41px" width="41px" x="800px" y="800px" /><rect fill="rgb(171,134,98)" height="41px" width="41px" x="840px" y="800px" /><rect fill="rgb(172,135,99)" height="41px" width="41px" x="880px" y="800px" /><rect fill="rgb(174,137,99)" height="41px" width="41px" x="920px" y="800px" /><rect fill="rgb(176,139,101)" height="41px" width="41px" x="960px" y="800px" /><rect fill="rgb(172,135,99)" height="41px" width="41px" x="1000px" y="800px" /><rect fill="rgb(171,134,98)" height="41px" width="41px" x="1040px" y="800px" /><rect fill="rgb(174,137,101)" height="41px" width="41px" x="1080px" y="800px" /><rect fill="rgb(174,137,101)" height="41px" width="41px" x="1120px" y="800px" /><rect fill="rgb(171,134,97)" height="41px" width="41px" x="1160px" y="800px" /><rect fill="rgb(193,148,102)" height="41px" width="41px" x="80px" y="840px" /><rect fill="rgb(193,148,102)" height="41px" width="41px" x="120px" y="840px" /><rect fill="rgb(191,146,101)" height="41px" width="41px" x="160px" y="840px" /><rect fill="rgb(134,81,30)" height="41px" width="41px" x="200px" y="840px" /><rect fill="rgb(141,86,32)" height="41px" width="41px" x="240px" y="840px" /><rect fill="rgb(191,146,101)" height="41px" width="41px" x="280px" y="840px" /><rect fill="rgb(200,152,107)" height="41px" width="41px" x="320px" y="840px" /><rect fill="rgb(193,148,102)" height="41px" width="41px" x="360px" y="840px" /><rect fill="rgb(193,147,102)" height="41px" width="41px" x="400px" y="840px" /><rect fill="rgb(191,146,101)" height="41px" width="41px" x="440px" y="840px" /><rect fill="rgb(193,147,102)" height="41px" width="41px" x="480px" y="840px" /><rect fill="rgb(192,147,102)" height="41px" width="41px" x="520px" y="840px" /><rect fill="rgb(193,147,102)" height="41px" width="41px" x="560px" y="840px" /><rect fill="rgb(216,169,123)" height="41px" width="41px" x="600px" y="840px" /><rect fill="rgb(216,169,123)" height="41px" width="41px" x="640px" y="840px" /><rect fill="rgb(213,167,120)" height="41px" width="41px" x="680px" y="840px" /><rect fill="rgb(216,169,123)" height="41px" width="41px" x="720px" y="840px" /><rect fill="rgb(217,170,123)" height="41px" width="41px" x="760px" y="840px" /><rect fill="rgb(216,169,123)" height="41px" width="41px" x="800px" y="840px" /><rect fill="rgb(210,165,119)" height="41px" width="41px" x="840px" y="840px" /><rect fill="rgb(216,169,122)" height="41px" width="41px" x="880px" y="840px" /><rect fill="rgb(217,170,123)" height="41px" width="41px" x="920px" y="840px" /><rect fill="rgb(216,169,122)" height="41px" width="41px" x="960px" y="840px" /><rect fill="rgb(213,167,121)" height="41px" width="41px" x="1000px" y="840px" /><rect fill="rgb(213,167,121)" height="41px" width="41px" x="1040px" y="840px" /><rect fill="rgb(215,169,122)" height="41px" width="41px" x="1080px" y="840px" /><rect fill="rgb(214,168,121)" height="41px" width="41px" x="1120px" y="840px" /><rect fill="rgb(209,165,119)" height="41px" width="41px" x="1160px" y="840px" /><rect fill="rgb(213,168,121)" height="41px" width="41px" x="1200px" y="840px" /><rect fill="rgb(224,176,128)" height="41px" width="41px" x="0px" y="880px" /><rect fill="rgb(221,173,126)" height="41px" width="41px" x="40px" y="880px" /><rect fill="rgb(221,173,126)" height="41px" width="41px" x="80px" y="880px" /><rect fill="rgb(224,176,128)" height="41px" width="41px" x="120px" y="880px" /><rect fill="rgb(224,176,128)" height="41px" width="41px" x="160px" y="880px" /><rect fill="rgb(221,173,126)" height="41px" width="41px" x="200px" y="880px" /><rect fill="rgb(221,174,127)" height="41px" width="41px" x="240px" y="880px" /><rect fill="rgb(220,174,127)" height="41px" width="41px" x="280px" y="880px" /><rect fill="rgb(217,171,124)" height="41px" width="41px" x="320px" y="880px" /><rect fill="rgb(218,171,125)" height="41px" width="41px" x="360px" y="880px" /><rect fill="rgb(221,174,127)" height="41px" width="41px" x="400px" y="880px" /><rect fill="rgb(222,175,127)" height="41px" width="41px" x="440px" y="880px" /><rect fill="rgb(219,173,125)" height="41px" width="41px" x="480px" y="880px" /><rect fill="rgb(221,173,126)" height="41px" width="41px" x="520px" y="880px" /><rect fill="rgb(115,77,39)" height="41px" width="41px" x="560px" y="880px" /><rect fill="rgb(214,168,121)" height="41px" width="41px" x="600px" y="880px" /><rect fill="rgb(213,167,120)" height="41px" width="41px" x="640px" y="880px" /><rect fill="rgb(210,165,119)" height="41px" width="41px" x="680px" y="880px" /><rect fill="rgb(216,169,123)" height="41px" width="41px" x="720px" y="880px" /><rect fill="rgb(217,170,123)" height="41px" width="41px" x="760px" y="880px" /><rect fill="rgb(212,166,121)" height="41px" width="41px" x="800px" y="880px" /><rect fill="rgb(210,165,119)" height="41px" width="41px" x="840px" y="880px" /><rect fill="rgb(217,170,123)" height="41px" width="41px" x="880px" y="880px" /><rect fill="rgb(217,170,123)" height="41px" width="41px" x="920px" y="880px" /><rect fill="rgb(213,167,121)" height="41px" width="41px" x="960px" y="880px" /><rect fill="rgb(216,169,122)" height="41px" width="41px" x="1000px" y="880px" /><rect fill="rgb(217,170,123)" height="41px" width="41px" x="1040px" y="880px" /><rect fill="rgb(215,169,122)" height="41px" width="41px" x="1080px" y="880px" /><rect fill="rgb(215,169,122)" height="41px" width="41px" x="1120px" y="880px" /><rect fill="rgb(212,167,121)" height="41px" width="41px" x="1160px" y="880px" /><rect fill="rgb(212,167,121)" height="41px" width="41px" x="1200px" y="880px" /><rect fill="rgb(223,175,127)" height="41px" width="41px" x="0px" y="920px" /><rect fill="rgb(218,171,124)" height="41px" width="41px" x="40px" y="920px" /><rect fill="rgb(218,171,124)" height="41px" width="41px" x="80px" y="920px" /><rect fill="rgb(224,176,128)" height="41px" width="41px" x="120px" y="920px" /><rect fill="rgb(224,176,128)" height="41px" width="41px" x="160px" y="920px" /><rect fill="rgb(221,173,126)" height="41px" width="41px" x="200px" y="920px" /><rect fill="rgb(221,174,127)" height="41px" width="41px" x="240px" y="920px" /><rect fill="rgb(220,174,127)" height="41px" width="41px" x="280px" y="920px" /><rect fill="rgb(216,169,124)" height="41px" width="41px" x="320px" y="920px" /><rect fill="rgb(219,171,125)" height="41px" width="41px" x="360px" y="920px" /><rect fill="rgb(221,174,127)" height="41px" width="41px" x="400px" y="920px" /><rect fill="rgb(222,175,127)" height="41px" width="41px" x="440px" y="920px" /><rect fill="rgb(222,175,127)" height="41px" width="41px" x="480px" y="920px" /><rect fill="rgb(224,176,128)" height="41px" width="41px" x="520px" y="920px" /><rect fill="rgb(115,77,39)" height="41px" width="41px" x="560px" y="920px" /><rect fill="rgb(217,170,123)" height="41px" width="41px" x="600px" y="920px" /><rect fill="rgb(71,49,26)" height="41px" width="41px" x="640px" y="920px" /><rect fill="rgb(214,168,121)" height="41px" width="41px" x="680px" y="920px" /><rect fill="rgb(214,168,121)" height="41px" width="41px" x="720px" y="920px" /><rect fill="rgb(71,49,26)" height="41px" width="41px" x="760px" y="920px" /><rect fill="rgb(217,170,123)" height="41px" width="41px" x="800px" y="920px" /><rect fill="rgb(217,170,123)" height="41px" width="41px" x="840px" y="920px" /><rect fill="rgb(71,49,26)" height="41px" width="41px" x="880px" y="920px" /><rect fill="rgb(217,170,123)" height="41px" width="41px" x="920px" y="920px" /><rect fill="rgb(217,170,123)" height="41px" width="41px" x="960px" y="920px" /><rect fill="rgb(71,49,26)" height="41px" width="41px" x="1000px" y="920px" /><rect fill="rgb(213,167,121)" height="41px" width="41px" x="1040px" y="920px" /><rect fill="rgb(213,167,121)" height="41px" width="41px" x="1080px" y="920px" /><rect fill="rgb(71,49,26)" height="41px" width="41px" x="1120px" y="920px" /><rect fill="rgb(210,165,119)" height="41px" width="41px" x="1160px" y="920px" /><rect fill="rgb(210,165,119)" height="41px" width="41px" x="1200px" y="920px" /><rect fill="rgb(71,49,26)" height="41px" width="41px" x="1240px" y="920px" /><rect fill="rgb(224,176,128)" height="41px" width="41px" x="0px" y="960px" /><rect fill="rgb(84,60,36)" height="41px" width="41px" x="40px" y="960px" /><rect fill="rgb(218,170,124)" height="41px" width="41px" x="80px" y="960px" /><rect fill="rgb(220,173,126)" height="41px" width="41px" x="120px" y="960px" /><rect fill="rgb(71,49,26)" height="41px" width="41px" x="160px" y="960px" /><rect fill="rgb(224,176,128)" height="41px" width="41px" x="200px" y="960px" /><rect fill="rgb(224,176,128)" height="41px" width="41px" x="240px" y="960px" /><rect fill="rgb(71,49,26)" height="41px" width="41px" x="280px" y="960px" /><rect fill="rgb(221,173,126)" height="41px" width="41px" x="320px" y="960px" /><rect fill="rgb(221,173,126)" height="41px" width="41px" x="360px" y="960px" /><rect fill="rgb(71,49,26)" height="41px" width="41px" x="400px" y="960px" /><rect fill="rgb(224,176,128)" height="41px" width="41px" x="440px" y="960px" /><rect fill="rgb(224,176,128)" height="41px" width="41px" x="480px" y="960px" /><rect fill="rgb(71,49,26)" height="41px" width="41px" x="520px" y="960px" /><rect fill="rgb(115,77,39)" height="41px" width="41px" x="560px" y="960px" /><rect fill="rgb(217,170,123)" height="41px" width="41px" x="600px" y="960px" /><rect fill="rgb(217,170,123)" height="41px" width="41px" x="640px" y="960px" /><rect fill="rgb(216,169,123)" height="41px" width="41px" x="680px" y="960px" /><rect fill="rgb(211,165,119)" height="41px" width="41px" x="720px" y="960px" /><rect fill="rgb(214,167,121)" height="41px" width="41px" x="760px" y="960px" /><rect fill="rgb(215,168,122)" height="41px" width="41px" x="800px" y="960px" /><rect fill="rgb(216,169,123)" height="41px" width="41px" x="840px" y="960px" /><rect fill="rgb(217,170,123)" height="41px" width="41px" x="880px" y="960px" /><rect fill="rgb(217,170,123)" height="41px" width="41px" x="920px" y="960px" /><rect fill="rgb(217,170,123)" height="41px" width="41px" x="960px" y="960px" /><rect fill="rgb(217,170,123)" height="41px" width="41px" x="1000px" y="960px" /><rect fill="rgb(214,168,121)" height="41px" width="41px" x="1040px" y="960px" /><rect fill="rgb(214,168,121)" height="41px" width="41px" x="1080px" y="960px" /><rect fill="rgb(213,167,121)" height="41px" width="41px" x="1120px" y="960px" /><rect fill="rgb(213,167,120)" height="41px" width="41px" x="1160px" y="960px" /><rect fill="rgb(216,169,123)" height="41px" width="41px" x="1200px" y="960px" /><rect fill="rgb(221,173,126)" height="41px" width="41px" x="0px" y="1000px" /><rect fill="rgb(220,173,125)" height="41px" width="41px" x="40px" y="1000px" /><rect fill="rgb(218,170,124)" height="41px" width="41px" x="80px" y="1000px" /><rect fill="rgb(216,169,124)" height="41px" width="41px" x="120px" y="1000px" /><rect fill="rgb(220,173,126)" height="41px" width="41px" x="160px" y="1000px" /><rect fill="rgb(221,173,126)" height="41px" width="41px" x="200px" y="1000px" /><rect fill="rgb(224,176,128)" height="41px" width="41px" x="240px" y="1000px" /><rect fill="rgb(224,176,128)" height="41px" width="41px" x="280px" y="1000px" /><rect fill="rgb(224,176,128)" height="41px" width="41px" x="320px" y="1000px" /><rect fill="rgb(224,176,128)" height="41px" width="41px" x="360px" y="1000px" /><rect fill="rgb(224,176,128)" height="41px" width="41px" x="400px" y="1000px" /><rect fill="rgb(221,174,127)" height="41px" width="41px" x="440px" y="1000px" /><rect fill="rgb(221,174,127)" height="41px" width="41px" x="480px" y="1000px" /><rect fill="rgb(224,176,128)" height="41px" width="41px" x="520px" y="1000px" /><rect fill="rgb(115,77,39)" height="41px" width="41px" x="560px" y="1000px" /><rect fill="rgb(217,170,123)" height="41px" width="41px" x="600px" y="1000px" /><rect fill="rgb(208,163,117)" height="41px" width="41px" x="640px" y="1000px" /><rect fill="rgb(213,166,120)" height="41px" width="41px" x="680px" y="1000px" /><rect fill="rgb(209,163,116)" height="41px" width="41px" x="720px" y="1000px" /><rect fill="rgb(206,161,117)" height="41px" width="41px" x="760px" y="1000px" /><rect fill="rgb(210,164,119)" height="41px" width="41px" x="800px" y="1000px" /><rect fill="rgb(216,169,123)" height="41px" width="41px" x="840px" y="1000px" /><rect fill="rgb(217,170,123)" height="41px" width="41px" x="880px" y="1000px" /><rect fill="rgb(217,170,123)" height="41px" width="41px" x="920px" y="1000px" /><rect fill="rgb(217,170,123)" height="41px" width="41px" x="960px" y="1000px" /><rect fill="rgb(214,168,121)" height="41px" width="41px" x="1000px" y="1000px" /><rect fill="rgb(211,166,120)" height="41px" width="41px" x="1040px" y="1000px" /><rect fill="rgb(213,167,121)" height="41px" width="41px" x="1080px" y="1000px" /><rect fill="rgb(213,167,121)" height="41px" width="41px" x="1120px" y="1000px" /><rect fill="rgb(203,159,115)" height="41px" width="41px" x="1160px" y="1000px" /><rect fill="rgb(215,168,122)" height="41px" width="41px" x="1200px" y="1000px" /><rect fill="rgb(220,173,125)" height="41px" width="41px" x="0px" y="1040px" /><rect fill="rgb(216,169,123)" height="41px" width="41px" x="40px" y="1040px" /><rect fill="rgb(217,170,123)" height="41px" width="41px" x="80px" y="1040px" /><rect fill="rgb(219,172,125)" height="41px" width="41px" x="120px" y="1040px" /><rect fill="rgb(220,173,126)" height="41px" width="41px" x="160px" y="1040px" /><rect fill="rgb(221,173,126)" height="41px" width="41px" x="200px" y="1040px" /><rect fill="rgb(217,170,123)" height="41px" width="41px" x="240px" y="1040px" /><rect fill="rgb(220,172,125)" height="41px" width="41px" x="280px" y="1040px" /><rect fill="rgb(153,102,54)" height="41px" width="41px" x="320px" y="1040px" /><rect fill="rgb(148,95,45)" height="41px" width="41px" x="360px" y="1040px" /><rect fill="rgb(222,175,127)" height="41px" width="41px" x="400px" y="1040px" /><rect fill="rgb(223,176,128)" height="41px" width="41px" x="440px" y="1040px" /><rect fill="rgb(222,175,127)" height="41px" width="41px" x="480px" y="1040px" /><rect fill="rgb(218,171,124)" height="41px" width="41px" x="520px" y="1040px" /><rect fill="rgb(115,77,39)" height="41px" width="41px" x="560px" y="1040px" /><rect fill="rgb(212,167,121)" height="41px" width="41px" x="600px" y="1040px" /><rect fill="rgb(211,166,119)" height="41px" width="41px" x="640px" y="1040px" /><rect fill="rgb(215,168,122)" height="41px" width="41px" x="680px" y="1040px" /><rect fill="rgb(213,167,121)" height="41px" width="41px" x="720px" y="1040px" /><rect fill="rgb(215,169,122)" height="41px" width="41px" x="760px" y="1040px" /><rect fill="rgb(217,170,123)" height="41px" width="41px" x="800px" y="1040px" /><rect fill="rgb(217,170,123)" height="41px" width="41px" x="840px" y="1040px" /><rect fill="rgb(145,96,54)" height="41px" width="41px" x="880px" y="1040px" /><rect fill="rgb(139,89,43)" height="41px" width="41px" x="920px" y="1040px" /><rect fill="rgb(217,170,123)" height="41px" width="41px" x="960px" y="1040px" /><rect fill="rgb(211,166,120)" height="41px" width="41px" x="1000px" y="1040px" /><rect fill="rgb(212,167,121)" height="41px" width="41px" x="1040px" y="1040px" /><rect fill="rgb(137,87,46)" height="41px" width="41px" x="1080px" y="1040px" /><rect fill="rgb(125,80,39)" height="41px" width="41px" x="1120px" y="1040px" /><rect fill="rgb(214,167,121)" height="41px" width="41px" x="1160px" y="1040px" /><rect fill="rgb(214,168,121)" height="41px" width="41px" x="1200px" y="1040px" /><rect fill="rgb(217,171,124)" height="41px" width="41px" x="0px" y="1080px" /><rect fill="rgb(218,171,124)" height="41px" width="41px" x="40px" y="1080px" /><rect fill="rgb(224,176,128)" height="41px" width="41px" x="80px" y="1080px" /><rect fill="rgb(129,80,31)" height="41px" width="41px" x="120px" y="1080px" /><rect fill="rgb(138,85,33)" height="41px" width="41px" x="160px" y="1080px" /><rect fill="rgb(224,176,128)" height="41px" width="41px" x="200px" y="1080px" /><rect fill="rgb(217,170,123)" height="41px" width="41px" x="240px" y="1080px" /><rect fill="rgb(221,174,126)" height="41px" width="41px" x="280px" y="1080px" /><rect fill="rgb(147,94,43)" height="41px" width="41px" x="320px" y="1080px" /><rect fill="rgb(148,95,45)" height="41px" width="41px" x="360px" y="1080px" /><rect fill="rgb(220,172,125)" height="41px" width="41px" x="400px" y="1080px" /><rect fill="rgb(224,176,128)" height="41px" width="41px" x="440px" y="1080px" /><rect fill="rgb(217,170,124)" height="41px" width="41px" x="480px" y="1080px" /><rect fill="rgb(216,169,123)" height="41px" width="41px" x="520px" y="1080px" /><rect fill="rgb(115,77,39)" height="41px" width="41px" x="560px" y="1080px" /><rect fill="rgb(216,169,122)" height="41px" width="41px" x="600px" y="1080px" /><rect fill="rgb(216,169,122)" height="41px" width="41px" x="640px" y="1080px" /><rect fill="rgb(217,170,123)" height="41px" width="41px" x="680px" y="1080px" /><rect fill="rgb(134,84,38)" height="41px" width="41px" x="720px" y="1080px" /><rect fill="rgb(138,89,46)" height="41px" width="41px" x="760px" y="1080px" /><rect fill="rgb(216,169,123)" height="41px" width="41px" x="800px" y="1080px" /><rect fill="rgb(214,168,121)" height="41px" width="41px" x="840px" y="1080px" /><rect fill="rgb(138,88,41)" height="41px" width="41px" x="880px" y="1080px" /><rect fill="rgb(132,82,34)" height="41px" width="41px" x="920px" y="1080px" /><rect fill="rgb(217,170,123)" height="41px" width="41px" x="960px" y="1080px" /><rect fill="rgb(214,167,123)" height="41px" width="41px" x="1000px" y="1080px" /><rect fill="rgb(212,166,122)" height="41px" width="41px" x="1040px" y="1080px" /><rect fill="rgb(132,85,41)" height="41px" width="41px" x="1080px" y="1080px" /><rect fill="rgb(127,83,40)" height="41px" width="41px" x="1120px" y="1080px" /><rect fill="rgb(215,168,123)" height="41px" width="41px" x="1160px" y="1080px" /><rect fill="rgb(213,167,121)" height="41px" width="41px" x="1200px" y="1080px" /><rect fill="rgb(218,171,124)" height="41px" width="41px" x="0px" y="1120px" /><rect fill="rgb(222,174,126)" height="41px" width="41px" x="40px" y="1120px" /><rect fill="rgb(224,176,128)" height="41px" width="41px" x="80px" y="1120px" /><rect fill="rgb(129,79,32)" height="41px" width="41px" x="120px" y="1120px" /><rect fill="rgb(127,78,31)" height="41px" width="41px" x="160px" y="1120px" /><rect fill="rgb(224,176,128)" height="41px" width="41px" x="200px" y="1120px" /><rect fill="rgb(218,171,124)" height="41px" width="41px" x="240px" y="1120px" /><rect fill="rgb(221,173,126)" height="41px" width="41px" x="280px" y="1120px" /><rect fill="rgb(221,173,126)" height="41px" width="41px" x="320px" y="1120px" /><rect fill="rgb(221,174,127)" height="41px" width="41px" x="360px" y="1120px" /><rect fill="rgb(221,174,127)" height="41px" width="41px" x="400px" y="1120px" /><rect fill="rgb(222,175,127)" height="41px" width="41px" x="440px" y="1120px" /><rect fill="rgb(222,175,127)" height="41px" width="41px" x="480px" y="1120px" /><rect fill="rgb(220,172,126)" height="41px" width="41px" x="520px" y="1120px" /><rect fill="rgb(115,77,39)" height="41px" width="41px" x="560px" y="1120px" /><rect fill="rgb(216,169,122)" height="41px" width="41px" x="600px" y="1120px" /><rect fill="rgb(212,166,120)" height="41px" width="41px" x="640px" y="1120px" /><rect fill="rgb(216,169,122)" height="41px" width="41px" x="680px" y="1120px" /><rect fill="rgb(136,86,42)" height="41px" width="41px" x="720px" y="1120px" /><rect fill="rgb(138,89,47)" height="41px" width="41px" x="760px" y="1120px" /><rect fill="rgb(216,169,123)" height="41px" width="41px" x="800px" y="1120px" /><rect fill="rgb(212,167,120)" height="41px" width="41px" x="840px" y="1120px" /><rect fill="rgb(213,168,121)" height="41px" width="41px" x="880px" y="1120px" /><rect fill="rgb(215,169,122)" height="41px" width="41px" x="920px" y="1120px" /><rect fill="rgb(217,170,123)" height="41px" width="41px" x="960px" y="1120px" /><rect fill="rgb(208,164,117)" height="41px" width="41px" x="1000px" y="1120px" /><rect fill="rgb(208,164,117)" height="41px" width="41px" x="1040px" y="1120px" /><rect fill="rgb(217,170,123)" height="41px" width="41px" x="1080px" y="1120px" /><rect fill="rgb(216,169,123)" height="41px" width="41px" x="1120px" y="1120px" /><rect fill="rgb(208,164,117)" height="41px" width="41px" x="1160px" y="1120px" /><rect fill="rgb(213,167,121)" height="41px" width="41px" x="1200px" y="1120px" /><rect fill="rgb(218,171,124)" height="41px" width="41px" x="0px" y="1160px" /><rect fill="rgb(220,173,125)" height="41px" width="41px" x="40px" y="1160px" /><rect fill="rgb(224,176,128)" height="41px" width="41px" x="80px" y="1160px" /><rect fill="rgb(131,82,31)" height="41px" width="41px" x="120px" y="1160px" /><rect fill="rgb(131,82,31)" height="41px" width="41px" x="160px" y="1160px" /><rect fill="rgb(224,176,128)" height="41px" width="41px" x="200px" y="1160px" /><rect fill="rgb(221,173,126)" height="41px" width="41px" x="240px" y="1160px" /><rect fill="rgb(224,176,128)" height="41px" width="41px" x="280px" y="1160px" /><rect fill="rgb(224,176,128)" height="41px" width="41px" x="320px" y="1160px" /><rect fill="rgb(223,176,128)" height="41px" width="41px" x="360px" y="1160px" /><rect fill="rgb(223,176,128)" height="41px" width="41px" x="400px" y="1160px" /><rect fill="rgb(222,175,127)" height="41px" width="41px" x="440px" y="1160px" /><rect fill="rgb(222,175,127)" height="41px" width="41px" x="480px" y="1160px" /><rect fill="rgb(224,176,128)" height="41px" width="41px" x="520px" y="1160px" /><rect fill="rgb(115,77,39)" height="41px" width="41px" x="560px" y="1160px" /><rect fill="rgb(217,170,123)" height="41px" width="41px" x="600px" y="1160px" /><rect fill="rgb(216,169,122)" height="41px" width="41px" x="640px" y="1160px" /><rect fill="rgb(217,170,123)" height="41px" width="41px" x="680px" y="1160px" /><rect fill="rgb(134,84,37)" height="41px" width="41px" x="720px" y="1160px" /><rect fill="rgb(132,83,35)" height="41px" width="41px" x="760px" y="1160px" /><rect fill="rgb(217,170,123)" height="41px" width="41px" x="800px" y="1160px" /><rect fill="rgb(215,169,122)" height="41px" width="41px" x="840px" y="1160px" /><rect fill="rgb(213,168,121)" height="41px" width="41px" x="880px" y="1160px" /><rect fill="rgb(215,169,122)" height="41px" width="41px" x="920px" y="1160px" /><rect fill="rgb(217,170,123)" height="41px" width="41px" x="960px" y="1160px" /><rect fill="rgb(217,170,123)" height="41px" width="41px" x="1000px" y="1160px" /><rect fill="rgb(217,170,123)" height="41px" width="41px" x="1040px" y="1160px" /><rect fill="rgb(217,170,123)" height="41px" width="41px" x="1080px" y="1160px" /><rect fill="rgb(216,169,123)" height="41px" width="41px" x="1120px" y="1160px" /><rect fill="rgb(211,166,119)" height="41px" width="41px" x="1160px" y="1160px" /><rect fill="rgb(216,169,123)" height="41px" width="41px" x="1200px" y="1160px" /><rect fill="rgb(200,157,114)" height="41px" width="41px" x="0px" y="1200px" /><rect fill="rgb(200,157,114)" height="41px" width="41px" x="40px" y="1200px" /><rect fill="rgb(200,157,114)" height="41px" width="41px" x="80px" y="1200px" /><rect fill="rgb(200,157,114)" height="41px" width="41px" x="120px" y="1200px" /><rect fill="rgb(200,157,114)" height="41px" width="41px" x="160px" y="1200px" /><rect fill="rgb(200,157,114)" height="41px" width="41px" x="200px" y="1200px" /><rect fill="rgb(200,157,114)" height="41px" width="41px" x="240px" y="1200px" /><rect fill="rgb(200,157,114)" height="41px" width="41px" x="280px" y="1200px" /><rect fill="rgb(200,157,114)" height="41px" width="41px" x="320px" y="1200px" /><rect fill="rgb(200,157,114)" height="41px" width="41px" x="360px" y="1200px" /><rect fill="rgb(200,157,114)" height="41px" width="41px" x="400px" y="1200px" /><rect fill="rgb(200,157,114)" height="41px" width="41px" x="440px" y="1200px" /><rect fill="rgb(200,157,114)" height="41px" width="41px" x="480px" y="1200px" /><rect fill="rgb(200,157,114)" height="41px" width="41px" x="520px" y="1200px" /><rect fill="rgb(115,77,39)" height="41px" width="41px" x="560px" y="1200px" /><rect fill="rgb(175,135,94)" height="41px" width="41px" x="600px" y="1200px" /><rect fill="rgb(172,133,93)" height="41px" width="41px" x="640px" y="1200px" /><rect fill="rgb(172,133,93)" height="41px" width="41px" x="680px" y="1200px" /><rect fill="rgb(172,133,93)" height="41px" width="41px" x="720px" y="1200px" /><rect fill="rgb(172,133,93)" height="41px" width="41px" x="760px" y="1200px" /><rect fill="rgb(172,133,93)" height="41px" width="41px" x="800px" y="1200px" /><rect fill="rgb(172,133,93)" height="41px" width="41px" x="840px" y="1200px" /><rect fill="rgb(172,133,93)" height="41px" width="41px" x="880px" y="1200px" /><rect fill="rgb(172,133,93)" height="41px" width="41px" x="920px" y="1200px" /><rect fill="rgb(172,133,93)" height="41px" width="41px" x="960px" y="1200px" /><rect fill="rgb(172,133,93)" height="41px" width="41px" x="1000px" y="1200px" /><rect fill="rgb(172,133,93)" height="41px" width="41px" x="1040px" y="1200px" /><rect fill="rgb(172,133,93)" height="41px" width="41px" x="1080px" y="1200px" /><rect fill="rgb(172,133,93)" height="41px" width="41px" x="1120px" y="1200px" /><rect fill="rgb(172,133,93)" height="41px" width="41px" x="1160px" y="1200px" /><rect fill="rgb(172,133,93)" height="41px" width="41px" x="1200px" y="1200px" /><rect fill="rgb(200,157,114)" height="41px" opacity="0.121568627451" width="41px" x="560px" y="1240px" /><rect fill="rgb(200,157,114)" height="41px" opacity="0.0156862745098" width="41px" x="600px" y="1240px" /></svg>