<?xml version="1.0" encoding="utf-8" ?>
<svg baseProfile="full" height="1280px" version="1.1" width="1280px" xmlns="http://www.w3.org/2000/svg" xmlns:ev="http://www.w3.org/2001/xml-events" xmlns:xlink="http://www.w3.org/1999/xlink"><defs /><rect fill="rgb(44,148,253)" height="41px" opacity="0.239215686275" width="41px" x="600px" y="240px" /><rect fill="rgb(45,148,252)" height="41px" width="41px" x="640px" y="240px" /><rect fill="rgb(43,149,254)" height="41px" opacity="0.235294117647" width="41px" x="680px" y="240px" /><rect fill="rgb(48,145,248)" height="41px" width="41px" x="600px" y="280px" /><rect fill="rgb(56,138,231)" height="41px" width="41px" x="640px" y="280px" /><rect fill="rgb(46,147,249)" height="41px" width="41px" x="680px" y="280px" /><rect fill="rgb(45,147,252)" height="41px" width="41px" x="600px" y="320px" /><rect fill="rgb(51,141,239)" height="41px" width="41px" x="640px" y="320px" /><rect fill="rgb(51,143,240)" height="41px" width="41px" x="680px" y="320px" /><rect fill="rgb(142,88,35)" height="41px" width="41px" x="600px" y="360px" /><rect fill="rgb(142,88,35)" height="41px" width="41px" x="640px" y="360px" /><rect fill="rgb(143,88,33)" height="41px" width="41px" x="680px" y="360px" /><rect fill="rgb(230,183,92)" height="41px" width="41px" x="600px" y="400px" /><rect fill="rgb(219,176,90)" height="41px" width="41px" x="640px" y="400px" /><rect fill="rgb(228,181,91)" height="41px" width="41px" x="680px" y="400px" /><rect fill="rgb(211,157,52)" height="41px" width="41px" x="560px" y="440px" /><rect fill="rgb(211,157,52)" height="41px" width="41px" x="600px" y="440px" /><rect fill="rgb(208,155,53)" height="41px" width="41px" x="640px" y="440px" /><rect fill="rgb(210,156,52)" height="41px" width="41px" x="680px" y="440px" /><rect fill="rgb(211,157,52)" height="41px" width="41px" x="720px" y="440px" /><rect fill="rgb(226,179,91)" height="41px" width="41px" x="600px" y="480px" /><rect fill="rgb(221,176,90)" height="41px" width="41px" x="640px" y="480px" /><rect fill="rgb(226,179,91)" height="41px" width="41px" x="680px" y="480px" /><rect fill="rgb(223,177,90)" height="41px" width="41px" x="600px" y="520px" /><rect fill="rgb(216,172,89)" height="41px" width="41px" x="640px" y="520px" /><rect fill="rgb(221,176,90)" height="41px" width="41px" x="680px" y="520px" /><rect fill="rgb(87,81,75)" height="41px" opacity="0.0117647058824" width="41px" x="720px" y="520px" /><rect fill="rgb(232,184,92)" height="41px" width="41px" x="120px" y="560px" /><rect fill="rgb(87,81,75)" height="41px" opacity="0.0352941176471" width="41px" x="160px" y="560px" /><rect fill="rgb(233,185,92)" height="41px" width="41px" x="240px" y="560px" /><rect fill="rgb(226,179,91)" height="41px" width="41px" x="320px" y="560px" /><rect fill="rgb(226,179,91)" height="41px" width="41px" x="360px" y="560px" /><rect fill="rgb(233,185,92)" height="41px" width="41px" x="600px" y="560px" /><rect fill="rgb(143,88,33)" height="41px" width="41px" x="640px" y="560px" /><rect fill="rgb(227,180,91)" height="41px" width="41px" x="680px" y="560px" /><rect fill="rgb(87,81,75)" height="41px" opacity="0.0666666666667" width="41px" x="720px" y="560px" /><rect fill="rgb(226,179,91)" height="41px" width="41px" x="120px" y="600px" /><rect fill="rgb(222,176,90)" height="41px" width="41px" x="160px" y="600px" /><rect fill="rgb(233,185,92)" height="41px" width="41px" x="200px" y="600px" /><rect fill="rgb(226,179,91)" height="41px" width="41px" x="240px" y="600px" /><rect fill="rgb(228,181,91)" height="41px" width="41px" x="280px" y="600px" /><rect fill="rgb(226,179,91)" height="41px" width="41px" x="320px" y="600px" /><rect fill="rgb(217,173,89)" height="41px" width="41px" x="360px" y="600px" /><rect fill="rgb(233,185,92)" height="41px" width="41px" x="600px" y="600px" /><rect fill="rgb(143,88,33)" height="41px" width="41px" x="640px" y="600px" /><rect fill="rgb(233,185,92)" height="41px" width="41px" x="680px" y="600px" /><rect fill="rgb(233,185,92)" height="41px" width="41px" x="960px" y="600px" /><rect fill="rgb(229,181,92)" height="41px" width="41px" x="1120px" y="600px" /><rect fill="rgb(232,184,92)" height="41px" width="41px" x="1240px" y="600px" /><rect fill="rgb(233,185,92)" height="41px" width="41px" x="120px" y="640px" /><rect fill="rgb(143,88,33)" height="41px" width="41px" x="160px" y="640px" /><rect fill="rgb(233,185,92)" height="41px" width="41px" x="200px" y="640px" /><rect fill="rgb(219,174,90)" height="41px" width="41px" x="240px" y="640px" /><rect fill="rgb(225,178,91)" height="41px" width="41px" x="280px" y="640px" /><rect fill="rgb(141,88,35)" height="41px" width="41px" x="320px" y="640px" /><rect fill="rgb(223,177,90)" height="41px" width="41px" x="360px" y="640px" /><rect fill="rgb(211,157,52)" height="41px" width="41px" x="560px" y="640px" /><rect fill="rgb(211,157,52)" height="41px" width="41px" x="600px" y="640px" /><rect fill="rgb(211,157,52)" height="41px" width="41px" x="640px" y="640px" /><rect fill="rgb(211,157,52)" height="41px" width="41px" x="680px" y="640px" /><rect fill="rgb(211,157,52)" height="41px" width="41px" x="720px" y="640px" /><rect fill="rgb(233,185,92)" height="41px" width="41px" x="960px" y="640px" /><rect fill="rgb(230,182,92)" height="41px" width="41px" x="1120px" y="640px" /><rect fill="rgb(231,183,92)" height="41px" width="41px" x="1240px" y="640px" /><rect fill="rgb(233,185,92)" height="41px" width="41px" x="120px" y="680px" /><rect fill="rgb(143,88,33)" height="41px" width="41px" x="160px" y="680px" /><rect fill="rgb(228,181,91)" height="41px" width="41px" x="200px" y="680px" /><rect fill="rgb(226,179,91)" height="41px" width="41px" x="240px" y="680px" /><rect fill="rgb(228,181,91)" height="41px" width="41px" x="280px" y="680px" /><rect fill="rgb(143,88,33)" height="41px" width="41px" x="320px" y="680px" /><rect fill="rgb(233,185,92)" height="41px" width="41px" x="360px" y="680px" /><rect fill="rgb(232,184,92)" height="41px" width="41px" x="600px" y="680px" /><rect fill="rgb(228,181,91)" height="41px" width="41px" x="640px" y="680px" /><rect fill="rgb(233,185,92)" height="41px" width="41px" x="680px" y="680px" /><rect fill="rgb(56,133,214)" height="41px" width="41px" x="960px" y="680px" /><rect fill="rgb(58,150,250)" height="41px" width="41px" x="1000px" y="680px" /><rect fill="rgb(100,154,240)" height="41px" width="41px" x="1120px" y="680px" /><rect fill="rgb(79,152,247)" height="41px" width="41px" x="1200px" y="680px" /><rect fill="rgb(64,150,250)" height="41px" width="41px" x="1240px" y="680px" /><rect fill="rgb(233,185,92)" height="41px" width="41px" x="120px" y="720px" /><rect fill="rgb(233,185,92)" height="41px" width="41px" x="160px" y="720px" /><rect fill="rgb(232,184,92)" height="41px" width="41px" x="200px" y="720px" /><rect fill="rgb(232,184,92)" height="41px" width="41px" x="240px" y="720px" /><rect fill="rgb(233,185,92)" height="41px" width="41px" x="280px" y="720px" /><rect fill="rgb(233,185,92)" height="41px" width="41px" x="320px" y="720px" /><rect fill="rgb(233,185,92)" height="41px" width="41px" x="360px" y="720px" /><rect fill="rgb(231,183,92)" height="41px" width="41px" x="600px" y="720px" /><rect fill="rgb(223,177,90)" height="41px" width="41px" x="640px" y="720px" /><rect fill="rgb(233,185,92)" height="41px" width="41px" x="680px" y="720px" /><rect fill="rgb(230,182,92)" height="41px" width="41px" x="960px" y="720px" /><rect fill="rgb(226,178,92)" height="41px" width="41px" x="1000px" y="720px" /><rect fill="rgb(233,185,92)" height="41px" width="41px" x="1040px" y="720px" /><rect fill="rgb(233,185,92)" height="41px" width="41px" x="1080px" y="720px" /><rect fill="rgb(233,185,92)" height="41px" width="41px" x="1120px" y="720px" /><rect fill="rgb(233,185,92)" height="41px" width="41px" x="1160px" y="720px" /><rect fill="rgb(233,185,92)" height="41px" width="41px" x="1200px" y="720px" /><rect fill="rgb(227,179,92)" height="41px" width="41px" x="1240px" y="720px" /><rect fill="rgb(227,180,91)" height="41px" width="41px" x="0px" y="760px" /><rect fill="rgb(87,81,75)" height="41px" opacity="0.0235294117647" width="41px" x="40px" y="760px" /><rect fill="rgb(87,81,75)" height="41px" opacity="0.0235294117647" width="41px" x="80px" y="760px" /><rect fill="rgb(144,162,218)" height="41px" width="41px" x="120px" y="760px" /><rect fill="rgb(92,154,243)" height="41px" width="41px" x="160px" y="760px" /><rect fill="rgb(144,162,218)" height="41px" width="41px" x="200px" y="760px" /><rect fill="rgb(92,154,243)" height="41px" width="41px" x="240px" y="760px" /><rect fill="rgb(144,162,218)" height="41px" width="41px" x="280px" y="760px" /><rect fill="rgb(92,154,243)" height="41px" width="41px" x="320px" y="760px" /><rect fill="rgb(144,162,218)" height="41px" width="41px" x="360px" y="760px" /><rect fill="rgb(232,184,92)" height="41px" width="41px" x="600px" y="760px" /><rect fill="rgb(228,181,91)" height="41px" width="41px" x="640px" y="760px" /><rect fill="rgb(227,180,91)" height="41px" width="41px" x="680px" y="760px" /><rect fill="rgb(228,181,92)" height="41px" width="41px" x="960px" y="760px" /><rect fill="rgb(228,181,92)" height="41px" width="41px" x="1000px" y="760px" /><rect fill="rgb(186,138,64)" height="41px" width="41px" x="1040px" y="760px" /><rect fill="rgb(233,185,92)" height="41px" width="41px" x="1080px" y="760px" /><rect fill="rgb(186,138,64)" height="41px" width="41px" x="1120px" y="760px" /><rect fill="rgb(233,185,92)" height="41px" width="41px" x="1160px" y="760px" /><rect fill="rgb(186,138,64)" height="41px" width="41px" x="1200px" y="760px" /><rect fill="rgb(233,185,92)" height="41px" width="41px" x="1240px" y="760px" /><rect fill="rgb(225,179,91)" height="41px" width="41px" x="0px" y="800px" /><rect fill="rgb(217,173,89)" height="41px" width="41px" x="40px" y="800px" /><rect fill="rgb(223,177,90)" height="41px" width="41px" x="80px" y="800px" /><rect fill="rgb(233,185,92)" height="41px" width="41px" x="120px" y="800px" /><rect fill="rgb(222,176,90)" height="41px" width="41px" x="160px" y="800px" /><rect fill="rgb(230,182,92)" height="41px" width="41px" x="200px" y="800px" /><rect fill="rgb(233,185,92)" height="41px" width="41px" x="240px" y="800px" /><rect fill="rgb(233,185,92)" height="41px" width="41px" x="280px" y="800px" /><rect fill="rgb(233,185,92)" height="41px" width="41px" x="320px" y="800px" /><rect fill="rgb(233,185,92)" height="41px" width="41px" x="360px" y="800px" /><rect fill="rgb(233,185,92)" height="41px" width="41px" x="600px" y="800px" /><rect fill="rgb(228,181,91)" height="41px" width="41px" x="640px" y="800px" /><rect fill="rgb(232,184,92)" height="41px" width="41px" x="680px" y="800px" /><rect fill="rgb(233,185,92)" height="41px" width="41px" x="960px" y="800px" /><rect fill="rgb(186,138,64)" height="41px" width="41px" x="1000px" y="800px" /><rect fill="rgb(192,154,86)" height="41px" width="41px" x="1040px" y="800px" /><rect fill="rgb(186,138,64)" height="41px" width="41px" x="1080px" y="800px" /><rect fill="rgb(192,154,86)" height="41px" width="41px" x="1120px" y="800px" /><rect fill="rgb(186,138,64)" height="41px" width="41px" x="1160px" y="800px" /><rect fill="rgb(192,154,86)" height="41px" width="41px" x="1200px" y="800px" /><rect fill="rgb(186,138,64)" height="41px" width="41px" x="1240px" y="800px" /><rect fill="rgb(165,114,50)" height="41px" width="41px" x="0px" y="840px" /><rect fill="rgb(233,185,92)" height="41px" width="41px" x="40px" y="840px" /><rect fill="rgb(179,130,59)" height="41px" width="41px" x="80px" y="840px" /><rect fill="rgb(165,114,50)" height="41px" width="41px" x="120px" y="840px" /><rect fill="rgb(226,179,91)" height="41px" width="41px" x="160px" y="840px" /><rect fill="rgb(178,130,59)" height="41px" width="41px" x="200px" y="840px" /><rect fill="rgb(165,114,50)" height="41px" width="41px" x="240px" y="840px" /><rect fill="rgb(233,185,92)" height="41px" width="41px" x="280px" y="840px" /><rect fill="rgb(179,130,59)" height="41px" width="41px" x="320px" y="840px" /><rect fill="rgb(179,130,59)" height="41px" width="41px" x="360px" y="840px" /><rect fill="rgb(211,157,52)" height="41px" width="41px" x="480px" y="840px" /><rect fill="rgb(211,157,52)" height="41px" width="41px" x="520px" y="840px" /><rect fill="rgb(232,184,92)" height="41px" width="41px" x="600px" y="840px" /><rect fill="rgb(223,177,90)" height="41px" width="41px" x="640px" y="840px" /><rect fill="rgb(232,184,92)" height="41px" width="41px" x="680px" y="840px" /><rect fill="rgb(211,157,52)" height="41px" width="41px" x="760px" y="840px" /><rect fill="rgb(211,157,52)" height="41px" width="41px" x="800px" y="840px" /><rect fill="rgb(233,185,92)" height="41px" width="41px" x="960px" y="840px" /><rect fill="rgb(186,138,64)" height="41px" width="41px" x="1000px" y="840px" /><rect fill="rgb(192,154,86)" height="41px" width="41px" x="1040px" y="840px" /><rect fill="rgb(186,138,64)" height="41px" width="41px" x="1080px" y="840px" /><rect fill="rgb(192,154,86)" height="41px" width="41px" x="1120px" y="840px" /><rect fill="rgb(186,138,64)" height="41px" width="41px" x="1160px" y="840px" /><rect fill="rgb(192,154,86)" height="41px" width="41px" x="1200px" y="840px" /><rect fill="rgb(186,138,64)" height="41px" width="41px" x="1240px" y="840px" /><rect fill="rgb(178,144,84)" height="41px" width="41px" x="0px" y="880px" /><rect fill="rgb(179,130,59)" height="41px" width="41px" x="40px" y="880px" /><rect fill="rgb(178,144,84)" height="41px" width="41px" x="80px" y="880px" /><rect fill="rgb(178,144,84)" height="41px" width="41px" x="120px" y="880px" /><rect fill="rgb(179,130,59)" height="41px" width="41px" x="160px" y="880px" /><rect fill="rgb(178,144,84)" height="41px" width="41px" x="200px" y="880px" /><rect fill="rgb(178,144,84)" height="41px" width="41px" x="240px" y="880px" /><rect fill="rgb(179,130,59)" height="41px" width="41px" x="280px" y="880px" /><rect fill="rgb(178,144,84)" height="41px" width="41px" x="320px" y="880px" /><rect fill="rgb(178,144,84)" height="41px" width="41px" x="360px" y="880px" /><rect fill="rgb(211,157,52)" height="41px" width="41px" x="440px" y="880px" /><rect fill="rgb(211,157,52)" height="41px" width="41px" x="480px" y="880px" /><rect fill="rgb(211,157,52)" height="41px" width="41px" x="520px" y="880px" /><rect fill="rgb(232,184,92)" height="41px" width="41px" x="600px" y="880px" /><rect fill="rgb(228,181,91)" height="41px" width="41px" x="640px" y="880px" /><rect fill="rgb(233,185,92)" height="41px" width="41px" x="680px" y="880px" /><rect fill="rgb(211,157,52)" height="41px" width="41px" x="760px" y="880px" /><rect fill="rgb(211,157,52)" height="41px" width="41px" x="800px" y="880px" /><rect fill="rgb(211,157,52)" height="41px" width="41px" x="840px" y="880px" /><rect fill="rgb(200,60,32)" height="41px" width="41px" x="960px" y="880px" /><rect fill="rgb(200,60,32)" height="41px" width="41px" x="1000px" y="880px" /><rect fill="rgb(200,60,32)" height="41px" width="41px" x="1040px" y="880px" /><rect fill="rgb(200,60,32)" height="41px" width="41px" x="1080px" y="880px" /><rect fill="rgb(200,60,32)" height="41px" width="41px" x="1120px" y="880px" /><rect fill="rgb(200,60,32)" height="41px" width="41px" x="1160px" y="880px" /><rect fill="rgb(200,60,32)" height="41px" width="41px" x="1200px" y="880px" /><rect fill="rgb(200,60,32)" height="41px" width="41px" x="1240px" y="880px" /><rect fill="rgb(178,144,84)" height="41px" width="41px" x="0px" y="920px" /><rect fill="rgb(179,130,59)" height="41px" width="41px" x="40px" y="920px" /><rect fill="rgb(178,144,84)" height="41px" width="41px" x="80px" y="920px" /><rect fill="rgb(178,144,84)" height="41px" width="41px" x="120px" y="920px" /><rect fill="rgb(179,130,59)" height="41px" width="41px" x="160px" y="920px" /><rect fill="rgb(178,144,84)" height="41px" width="41px" x="200px" y="920px" /><rect fill="rgb(178,144,84)" height="41px" width="41px" x="240px" y="920px" /><rect fill="rgb(179,130,59)" height="41px" width="41px" x="280px" y="920px" /><rect fill="rgb(178,144,84)" height="41px" width="41px" x="320px" y="920px" /><rect fill="rgb(178,144,84)" height="41px" width="41px" x="360px" y="920px" /><rect fill="rgb(178,144,84)" height="41px" width="41px" x="440px" y="920px" /><rect fill="rgb(178,144,84)" height="41px" width="41px" x="480px" y="920px" /><rect fill="rgb(178,144,84)" height="41px" width="41px" x="520px" y="920px" /><rect fill="rgb(178,144,84)" height="41px" width="41px" x="560px" y="920px" /><rect fill="rgb(178,144,84)" height="41px" width="41px" x="600px" y="920px" /><rect fill="rgb(178,144,84)" height="41px" width="41px" x="640px" y="920px" /><rect fill="rgb(178,144,84)" height="41px" width="41px" x="680px" y="920px" /><rect fill="rgb(178,144,84)" height="41px" width="41px" x="720px" y="920px" /><rect fill="rgb(178,144,84)" height="41px" width="41px" x="760px" y="920px" /><rect fill="rgb(178,144,84)" height="41px" width="41px" x="800px" y="920px" /><rect fill="rgb(178,144,84)" height="41px" width="41px" x="840px" y="920px" /><rect fill="rgb(230,183,92)" height="41px" width="41px" x="960px" y="920px" /><rect fill="rgb(224,179,91)" height="41px" width="41px" x="1000px" y="920px" /><rect fill="rgb(233,185,92)" height="41px" width="41px" x="1040px" y="920px" /><rect fill="rgb(233,185,92)" height="41px" width="41px" x="1080px" y="920px" /><rect fill="rgb(227,180,91)" height="41px" width="41px" x="1120px" y="920px" /><rect fill="rgb(230,183,91)" height="41px" width="41px" x="1160px" y="920px" /><rect fill="rgb(230,182,92)" height="41px" width="41px" x="1200px" y="920px" /><rect fill="rgb(233,185,92)" height="41px" width="41px" x="1240px" y="920px" /><rect fill="rgb(178,144,84)" height="41px" width="41px" x="0px" y="960px" /><rect fill="rgb(179,130,59)" height="41px" width="41px" x="40px" y="960px" /><rect fill="rgb(178,144,84)" height="41px" width="41px" x="80px" y="960px" /><rect fill="rgb(178,144,84)" height="41px" width="41px" x="120px" y="960px" /><rect fill="rgb(179,130,59)" height="41px" width="41px" x="160px" y="960px" /><rect fill="rgb(178,144,84)" height="41px" width="41px" x="200px" y="960px" /><rect fill="rgb(178,144,84)" height="41px" width="41px" x="240px" y="960px" /><rect fill="rgb(179,130,59)" height="41px" width="41px" x="280px" y="960px" /><rect fill="rgb(178,144,84)" height="41px" width="41px" x="320px" y="960px" /><rect fill="rgb(178,144,84)" height="41px" width="41px" x="360px" y="960px" /><rect fill="rgb(233,185,92)" height="41px" width="41px" x="440px" y="960px" /><rect fill="rgb(233,185,92)" height="41px" width="41px" x="480px" y="960px" /><rect fill="rgb(233,185,92)" height="41px" width="41px" x="520px" y="960px" /><rect fill="rgb(178,144,84)" height="41px" width="41px" x="560px" y="960px" /><rect fill="rgb(178,144,84)" height="41px" width="41px" x="600px" y="960px" /><rect fill="rgb(178,144,84)" height="41px" width="41px" x="640px" y="960px" /><rect fill="rgb(233,185,92)" height="41px" width="41px" x="680px" y="960px" /><rect fill="rgb(233,185,92)" height="41px" width="41px" x="720px" y="960px" /><rect fill="rgb(233,185,92)" height="41px" width="41px" x="760px" y="960px" /><rect fill="rgb(231,183,92)" height="41px" width="41px" x="800px" y="960px" /><rect fill="rgb(233,185,92)" height="41px" width="41px" x="840px" y="960px" /><rect fill="rgb(229,182,92)" height="41px" width="41px" x="960px" y="960px" /><rect fill="rgb(219,175,90)" height="41px" width="41px" x="1000px" y="960px" /><rect fill="rgb(233,185,92)" height="41px" width="41px" x="1040px" y="960px" /><rect fill="rgb(185,140,56)" height="41px" width="41px" x="1080px" y="960px" /><rect fill="rgb(181,137,57)" height="41px" width="41px" x="1120px" y="960px" /><rect fill="rgb(227,180,91)" height="41px" width="41px" x="1160px" y="960px" /><rect fill="rgb(222,176,90)" height="41px" width="41px" x="1200px" y="960px" /><rect fill="rgb(225,179,91)" height="41px" width="41px" x="1240px" y="960px" /><rect fill="rgb(179,130,59)" height="41px" width="41px" x="0px" y="1000px" /><rect fill="rgb(179,130,59)" height="41px" width="41px" x="40px" y="1000px" /><rect fill="rgb(179,130,59)" height="41px" width="41px" x="80px" y="1000px" /><rect fill="rgb(179,130,59)" height="41px" width="41px" x="120px" y="1000px" /><rect fill="rgb(179,130,59)" height="41px" width="41px" x="160px" y="1000px" /><rect fill="rgb(179,130,59)" height="41px" width="41px" x="200px" y="1000px" /><rect fill="rgb(179,130,59)" height="41px" width="41px" x="240px" y="1000px" /><rect fill="rgb(179,130,59)" height="41px" width="41px" x="280px" y="1000px" /><rect fill="rgb(179,130,59)" height="41px" width="41px" x="320px" y="1000px" /><rect fill="rgb(179,130,59)" height="41px" width="41px" x="360px" y="1000px" /><rect fill="rgb(233,185,92)" height="41px" width="41px" x="440px" y="1000px" /><rect fill="rgb(233,185,92)" height="41px" width="41px" x="480px" y="1000px" /><rect fill="rgb(178,144,84)" height="41px" width="41px" x="520px" y="1000px" /><rect fill="rgb(233,185,92)" height="41px" width="41px" x="560px" y="1000px" /><rect fill="rgb(233,185,92)" height="41px" width="41px" x="600px" y="1000px" /><rect fill="rgb(233,185,92)" height="41px" width="41px" x="640px" y="1000px" /><rect fill="rgb(178,144,84)" height="41px" width="41px" x="680px" y="1000px" /><rect fill="rgb(233,185,92)" height="41px" width="41px" x="720px" y="1000px" /><rect fill="rgb(230,183,92)" height="41px" width="41px" x="760px" y="1000px" /><rect fill="rgb(224,179,91)" height="41px" width="41px" x="800px" y="1000px" /><rect fill="rgb(231,183,92)" height="41px" width="41px" x="840px" y="1000px" /><rect fill="rgb(232,184,92)" height="41px" width="41px" x="960px" y="1000px" /><rect fill="rgb(228,181,91)" height="41px" width="41px" x="1000px" y="1000px" /><rect fill="rgb(185,140,56)" height="41px" width="41px" x="1040px" y="1000px" /><rect fill="rgb(233,185,92)" height="41px" width="41px" x="1080px" y="1000px" /><rect fill="rgb(221,177,91)" height="41px" width="41px" x="1120px" y="1000px" /><rect fill="rgb(185,140,56)" height="41px" width="41px" x="1160px" y="1000px" /><rect fill="rgb(233,185,92)" height="41px" width="41px" x="1200px" y="1000px" /><rect fill="rgb(227,180,88)" height="41px" width="41px" x="1240px" y="1000px" /><rect fill="rgb(233,185,92)" height="41px" width="41px" x="0px" y="1040px" /><rect fill="rgb(229,181,92)" height="41px" width="41px" x="40px" y="1040px" /><rect fill="rgb(233,185,92)" height="41px" width="41px" x="80px" y="1040px" /><rect fill="rgb(233,185,92)" height="41px" width="41px" x="120px" y="1040px" /><rect fill="rgb(233,185,92)" height="41px" width="41px" x="160px" y="1040px" /><rect fill="rgb(227,180,91)" height="41px" width="41px" x="200px" y="1040px" /><rect fill="rgb(230,182,92)" height="41px" width="41px" x="240px" y="1040px" /><rect fill="rgb(228,181,91)" height="41px" width="41px" x="280px" y="1040px" /><rect fill="rgb(233,185,92)" height="41px" width="41px" x="320px" y="1040px" /><rect fill="rgb(227,180,91)" height="41px" width="41px" x="360px" y="1040px" /><rect fill="rgb(233,185,92)" height="41px" width="41px" x="440px" y="1040px" /><rect fill="rgb(178,144,84)" height="41px" width="41px" x="480px" y="1040px" /><rect fill="rgb(233,185,92)" height="41px" width="41px" x="520px" y="1040px" /><rect fill="rgb(233,185,92)" height="41px" width="41px" x="560px" y="1040px" /><rect fill="rgb(143,88,33)" height="41px" width="41px" x="600px" y="1040px" /><rect fill="rgb(233,185,92)" height="41px" width="41px" x="640px" y="1040px" /><rect fill="rgb(233,185,92)" height="41px" width="41px" x="680px" y="1040px" /><rect fill="rgb(178,144,84)" height="41px" width="41px" x="720px" y="1040px" /><rect fill="rgb(227,181,92)" height="41px" width="41px" x="760px" y="1040px" /><rect fill="rgb(221,177,91)" height="41px" width="41px" x="800px" y="1040px" /><rect fill="rgb(228,181,91)" height="41px" width="41px" x="840px" y="1040px" /><rect fill="rgb(233,185,92)" height="41px" width="41px" x="960px" y="1040px" /><rect fill="rgb(185,140,56)" height="41px" width="41px" x="1000px" y="1040px" /><rect fill="rgb(230,182,92)" height="41px" width="41px" x="1040px" y="1040px" /><rect fill="rgb(220,176,91)" height="41px" width="41px" x="1080px" y="1040px" /><rect fill="rgb(208,167,88)" height="41px" width="41px" x="1120px" y="1040px" /><rect fill="rgb(227,180,91)" height="41px" width="41px" x="1160px" y="1040px" /><rect fill="rgb(185,140,56)" height="41px" width="41px" x="1200px" y="1040px" /><rect fill="rgb(233,185,92)" height="41px" width="41px" x="1240px" y="1040px" /><rect fill="rgb(230,182,92)" height="41px" width="41px" x="0px" y="1080px" /><rect fill="rgb(216,172,89)" height="41px" width="41px" x="40px" y="1080px" /><rect fill="rgb(136,87,43)" height="41px" width="41px" x="80px" y="1080px" /><rect fill="rgb(232,184,92)" height="41px" width="41px" x="120px" y="1080px" /><rect fill="rgb(216,173,89)" height="41px" width="41px" x="160px" y="1080px" /><rect fill="rgb(227,179,92)" height="41px" width="41px" x="200px" y="1080px" /><rect fill="rgb(232,184,92)" height="41px" width="41px" x="240px" y="1080px" /><rect fill="rgb(226,179,91)" height="41px" width="41px" x="280px" y="1080px" /><rect fill="rgb(227,180,91)" height="41px" width="41px" x="320px" y="1080px" /><rect fill="rgb(221,176,90)" height="41px" width="41px" x="360px" y="1080px" /><rect fill="rgb(233,185,92)" height="41px" width="41px" x="440px" y="1080px" /><rect fill="rgb(178,144,84)" height="41px" width="41px" x="480px" y="1080px" /><rect fill="rgb(233,185,92)" height="41px" width="41px" x="520px" y="1080px" /><rect fill="rgb(143,88,33)" height="41px" width="41px" x="560px" y="1080px" /><rect fill="rgb(136,87,43)" height="41px" width="41px" x="600px" y="1080px" /><rect fill="rgb(136,87,43)" height="41px" width="41px" x="640px" y="1080px" /><rect fill="rgb(233,185,92)" height="41px" width="41px" x="680px" y="1080px" /><rect fill="rgb(178,144,84)" height="41px" width="41px" x="720px" y="1080px" /><rect fill="rgb(230,183,92)" height="41px" width="41px" x="760px" y="1080px" /><rect fill="rgb(216,174,90)" height="41px" width="41px" x="800px" y="1080px" /><rect fill="rgb(227,180,91)" height="41px" width="41px" x="840px" y="1080px" /><rect fill="rgb(233,185,92)" height="41px" width="41px" x="960px" y="1080px" /><rect fill="rgb(185,140,56)" height="41px" width="41px" x="1000px" y="1080px" /><rect fill="rgb(217,173,89)" height="41px" width="41px" x="1040px" y="1080px" /><rect fill="rgb(225,178,91)" height="41px" width="41px" x="1080px" y="1080px" /><rect fill="rgb(233,185,92)" height="41px" width="41px" x="1120px" y="1080px" /><rect fill="rgb(231,183,92)" height="41px" width="41px" x="1160px" y="1080px" /><rect fill="rgb(184,139,56)" height="41px" width="41px" x="1200px" y="1080px" /><rect fill="rgb(228,181,91)" height="41px" width="41px" x="1240px" y="1080px" /><rect fill="rgb(231,183,92)" height="41px" width="41px" x="0px" y="1120px" /><rect fill="rgb(227,180,91)" height="41px" width="41px" x="40px" y="1120px" /><rect fill="rgb(143,88,33)" height="41px" width="41px" x="80px" y="1120px" /><rect fill="rgb(229,182,92)" height="41px" width="41px" x="120px" y="1120px" /><rect fill="rgb(221,176,91)" height="41px" width="41px" x="160px" y="1120px" /><rect fill="rgb(233,185,92)" height="41px" width="41px" x="200px" y="1120px" /><rect fill="rgb(143,88,33)" height="41px" width="41px" x="240px" y="1120px" /><rect fill="rgb(129,86,50)" height="41px" width="41px" x="280px" y="1120px" /><rect fill="rgb(231,183,92)" height="41px" width="41px" x="320px" y="1120px" /><rect fill="rgb(231,183,92)" height="41px" width="41px" x="360px" y="1120px" /><rect fill="rgb(233,185,92)" height="41px" width="41px" x="440px" y="1120px" /><rect fill="rgb(178,144,84)" height="41px" width="41px" x="480px" y="1120px" /><rect fill="rgb(233,185,92)" height="41px" width="41px" x="520px" y="1120px" /><rect fill="rgb(129,86,50)" height="41px" width="41px" x="560px" y="1120px" /><rect fill="rgb(129,86,50)" height="41px" width="41px" x="600px" y="1120px" /><rect fill="rgb(129,86,50)" height="41px" width="41px" x="640px" y="1120px" /><rect fill="rgb(233,185,92)" height="41px" width="41px" x="680px" y="1120px" /><rect fill="rgb(178,144,84)" height="41px" width="41px" x="720px" y="1120px" /><rect fill="rgb(231,183,92)" height="41px" width="41px" x="760px" y="1120px" /><rect fill="rgb(219,175,90)" height="41px" width="41px" x="800px" y="1120px" /><rect fill="rgb(233,185,92)" height="41px" width="41px" x="840px" y="1120px" /><rect fill="rgb(233,185,92)" height="41px" width="41px" x="960px" y="1120px" /><rect fill="rgb(185,140,56)" height="41px" width="41px" x="1000px" y="1120px" /><rect fill="rgb(222,177,90)" height="41px" width="41px" x="1040px" y="1120px" /><rect fill="rgb(141,88,35)" height="41px" width="41px" x="1080px" y="1120px" /><rect fill="rgb(141,88,37)" height="41px" width="41px" x="1120px" y="1120px" /><rect fill="rgb(233,185,92)" height="41px" width="41px" x="1160px" y="1120px" /><rect fill="rgb(184,139,56)" height="41px" width="41px" x="1200px" y="1120px" /><rect fill="rgb(222,177,90)" height="41px" width="41px" x="1240px" y="1120px" /><rect fill="rgb(226,179,91)" height="41px" width="41px" x="0px" y="1160px" /><rect fill="rgb(222,177,90)" height="41px" width="41px" x="40px" y="1160px" /><rect fill="rgb(233,185,92)" height="41px" width="41px" x="80px" y="1160px" /><rect fill="rgb(230,183,92)" height="41px" width="41px" x="120px" y="1160px" /><rect fill="rgb(230,183,92)" height="41px" width="41px" x="160px" y="1160px" /><rect fill="rgb(233,185,92)" height="41px" width="41px" x="200px" y="1160px" /><rect fill="rgb(136,87,43)" height="41px" width="41px" x="240px" y="1160px" /><rect fill="rgb(136,87,43)" height="41px" width="41px" x="280px" y="1160px" /><rect fill="rgb(230,183,92)" height="41px" width="41px" x="320px" y="1160px" /><rect fill="rgb(230,183,92)" height="41px" width="41px" x="360px" y="1160px" /><rect fill="rgb(233,185,92)" height="41px" width="41px" x="440px" y="1160px" /><rect fill="rgb(178,144,84)" height="41px" width="41px" x="480px" y="1160px" /><rect fill="rgb(233,185,92)" height="41px" width="41px" x="520px" y="1160px" /><rect fill="rgb(143,88,33)" height="41px" width="41px" x="560px" y="1160px" /><rect fill="rgb(123,85,55)" height="41px" width="41px" x="600px" y="1160px" /><rect fill="rgb(143,88,33)" height="41px" width="41px" x="640px" y="1160px" /><rect fill="rgb(233,185,92)" height="41px" width="41px" x="680px" y="1160px" /><rect fill="rgb(178,144,84)" height="41px" width="41px" x="720px" y="1160px" /><rect fill="rgb(231,183,92)" height="41px" width="41px" x="760px" y="1160px" /><rect fill="rgb(221,176,90)" height="41px" width="41px" x="800px" y="1160px" /><rect fill="rgb(231,183,92)" height="41px" width="41px" x="840px" y="1160px" /><rect fill="rgb(233,185,92)" height="41px" width="41px" x="960px" y="1160px" /><rect fill="rgb(185,140,56)" height="41px" width="41px" x="1000px" y="1160px" /><rect fill="rgb(233,185,92)" height="41px" width="41px" x="1040px" y="1160px" /><rect fill="rgb(137,88,42)" height="41px" width="41px" x="1080px" y="1160px" /><rect fill="rgb(136,88,44)" height="41px" width="41px" x="1120px" y="1160px" /><rect fill="rgb(233,185,92)" height="41px" width="41px" x="1160px" y="1160px" /><rect fill="rgb(185,140,56)" height="41px" width="41px" x="1200px" y="1160px" /><rect fill="rgb(233,185,92)" height="41px" width="41px" x="1240px" y="1160px" /><rect fill="rgb(227,180,91)" height="41px" width="41px" x="0px" y="1200px" /><rect fill="rgb(225,179,91)" height="41px" width="41px" x="40px" y="1200px" /><rect fill="rgb(233,185,92)" height="41px" width="41px" x="80px" y="1200px" /><rect fill="rgb(215,172,89)" height="41px" width="41px" x="120px" y="1200px" /><rect fill="rgb(215,172,89)" height="41px" width="41px" x="160px" y="1200px" /><rect fill="rgb(233,185,92)" height="41px" width="41px" x="200px" y="1200px" /><rect fill="rgb(136,87,43)" height="41px" width="41px" x="240px" y="1200px" /><rect fill="rgb(123,85,55)" height="41px" width="41px" x="280px" y="1200px" /><rect fill="rgb(230,183,92)" height="41px" width="41px" x="320px" y="1200px" /><rect fill="rgb(230,183,92)" height="41px" width="41px" x="360px" y="1200px" /><rect fill="rgb(233,185,92)" height="41px" width="41px" x="440px" y="1200px" /><rect fill="rgb(178,144,84)" height="41px" width="41px" x="480px" y="1200px" /><rect fill="rgb(233,185,92)" height="41px" width="41px" x="520px" y="1200px" /><rect fill="rgb(136,87,43)" height="41px" width="41px" x="560px" y="1200px" /><rect fill="rgb(123,85,55)" height="41px" width="41px" x="600px" y="1200px" /><rect fill="rgb(129,86,50)" height="41px" width="41px" x="640px" y="1200px" /><rect fill="rgb(233,185,92)" height="41px" width="41px" x="680px" y="1200px" /><rect fill="rgb(178,144,84)" height="41px" width="41px" x="720px" y="1200px" /><rect fill="rgb(233,185,92)" height="41px" width="41px" x="760px" y="1200px" /><rect fill="rgb(233,185,92)" height="41px" width="41px" x="800px" y="1200px" /><rect fill="rgb(233,185,92)" height="41px" width="41px" x="840px" y="1200px" /><rect fill="rgb(233,185,92)" height="41px" width="41px" x="960px" y="1200px" /><rect fill="rgb(185,140,56)" height="41px" width="41px" x="1000px" y="1200px" /><rect fill="rgb(233,185,92)" height="41px" width="41px" x="1040px" y="1200px" /><rect fill="rgb(136,88,45)" height="41px" width="41px" x="1080px" y="1200px" /><rect fill="rgb(136,88,45)" height="41px" width="41px" x="1120px" y="1200px" /><rect fill="rgb(233,185,92)" height="41px" width="41px" x="1160px" y="1200px" /><rect fill="rgb(185,140,56)" height="41px" width="41px" x="1200px" y="1200px" /><rect fill="rgb(233,185,92)" height="41px" width="41px" x="1240px" y="1200px" /><rect fill="rgb(87,81,75)" height="41px" opacity="0.0117647058824" width="41px" x="1080px" y="1240px" /><rect fill="rgb(87,81,75)" height="41px" opacity="0.0117647058824" width="41px" x="1120px" y="1240px" /></svg>