<?xml version="1.0" encoding="utf-8" ?>
<svg baseProfile="full" height="1280px" version="1.1" width="1280px" xmlns="http://www.w3.org/2000/svg" xmlns:ev="http://www.w3.org/2001/xml-events" xmlns:xlink="http://www.w3.org/1999/xlink"><defs /><rect fill="rgb(132,106,80)" height="41px" width="41px" x="200px" y="400px" /><rect fill="rgb(132,106,80)" height="41px" width="41px" x="240px" y="400px" /><rect fill="rgb(132,106,80)" height="41px" width="41px" x="280px" y="400px" /><rect fill="rgb(132,106,80)" height="41px" width="41px" x="320px" y="400px" /><rect fill="rgb(132,106,80)" height="41px" width="41px" x="360px" y="400px" /><rect fill="rgb(132,106,80)" height="41px" width="41px" x="400px" y="400px" /><rect fill="rgb(138,111,84)" height="41px" width="41px" x="440px" y="400px" /><rect fill="rgb(138,111,84)" height="41px" width="41px" x="160px" y="440px" /><rect fill="rgb(126,101,76)" height="41px" width="41px" x="200px" y="440px" /><rect fill="rgb(126,101,76)" height="41px" width="41px" x="240px" y="440px" /><rect fill="rgb(132,106,80)" height="41px" width="41px" x="280px" y="440px" /><rect fill="rgb(126,101,76)" height="41px" width="41px" x="320px" y="440px" /><rect fill="rgb(132,106,80)" height="41px" width="41px" x="360px" y="440px" /><rect fill="rgb(132,106,80)" height="41px" width="41px" x="400px" y="440px" /><rect fill="rgb(132,106,80)" height="41px" width="41px" x="440px" y="440px" /><rect fill="rgb(138,111,84)" height="41px" width="41px" x="480px" y="440px" /><rect fill="rgb(138,111,84)" height="41px" width="41px" x="120px" y="480px" /><rect fill="rgb(132,106,80)" height="41px" width="41px" x="160px" y="480px" /><rect fill="rgb(132,106,80)" height="41px" width="41px" x="200px" y="480px" /><rect fill="rgb(132,106,80)" height="41px" width="41px" x="240px" y="480px" /><rect fill="rgb(138,111,84)" height="41px" width="41px" x="280px" y="480px" /><rect fill="rgb(132,106,80)" height="41px" width="41px" x="320px" y="480px" /><rect fill="rgb(138,111,84)" height="41px" width="41px" x="360px" y="480px" /><rect fill="rgb(132,106,80)" height="41px" width="41px" x="400px" y="480px" /><rect fill="rgb(132,106,80)" height="41px" width="41px" x="440px" y="480px" /><rect fill="rgb(132,106,80)" height="41px" width="41px" x="480px" y="480px" /><rect fill="rgb(132,106,80)" height="41px" width="41px" x="520px" y="480px" /><rect fill="rgb(138,111,84)" height="41px" width="41px" x="40px" y="520px" /><rect fill="rgb(132,106,80)" height="41px" width="41px" x="80px" y="520px" /><rect fill="rgb(126,101,76)" height="41px" width="41px" x="120px" y="520px" /><rect fill="rgb(121,96,72)" height="41px" width="41px" x="160px" y="520px" /><rect fill="rgb(132,106,80)" height="41px" width="41px" x="200px" y="520px" /><rect fill="rgb(132,106,80)" height="41px" width="41px" x="240px" y="520px" /><rect fill="rgb(132,106,80)" height="41px" width="41px" x="280px" y="520px" /><rect fill="rgb(121,96,72)" height="41px" width="41px" x="320px" y="520px" /><rect fill="rgb(126,101,76)" height="41px" width="41px" x="360px" y="520px" /><rect fill="rgb(121,96,72)" height="41px" width="41px" x="400px" y="520px" /><rect fill="rgb(126,101,76)" height="41px" width="41px" x="440px" y="520px" /><rect fill="rgb(132,106,80)" height="41px" width="41px" x="480px" y="520px" /><rect fill="rgb(132,106,80)" height="41px" width="41px" x="520px" y="520px" /><rect fill="rgb(132,106,80)" height="41px" width="41px" x="560px" y="520px" /><rect fill="rgb(138,111,84)" height="41px" width="41px" x="600px" y="520px" /><rect fill="rgb(107,84,62)" height="41px" width="41px" x="80px" y="560px" /><rect fill="rgb(103,81,59)" height="41px" width="41px" x="120px" y="560px" /><rect fill="rgb(103,81,59)" height="41px" width="41px" x="160px" y="560px" /><rect fill="rgb(103,81,59)" height="41px" width="41px" x="200px" y="560px" /><rect fill="rgb(103,81,59)" height="41px" width="41px" x="240px" y="560px" /><rect fill="rgb(107,84,62)" height="41px" width="41px" x="280px" y="560px" /><rect fill="rgb(107,84,62)" height="41px" width="41px" x="320px" y="560px" /><rect fill="rgb(107,84,62)" height="41px" width="41px" x="360px" y="560px" /><rect fill="rgb(103,81,59)" height="41px" width="41px" x="400px" y="560px" /><rect fill="rgb(107,84,62)" height="41px" width="41px" x="440px" y="560px" /><rect fill="rgb(111,88,65)" height="41px" width="41px" x="480px" y="560px" /><rect fill="rgb(111,88,65)" height="41px" width="41px" x="520px" y="560px" /><rect fill="rgb(107,84,62)" height="41px" width="41px" x="560px" y="560px" /><rect fill="rgb(29,134,181)" height="41px" width="41px" x="880px" y="560px" /><rect fill="rgb(33,130,173)" height="41px" width="41px" x="920px" y="560px" /><rect fill="rgb(27,137,185)" height="41px" width="41px" x="960px" y="560px" /><rect fill="rgb(28,136,184)" height="41px" width="41px" x="1000px" y="560px" /><rect fill="rgb(28,136,184)" height="41px" width="41px" x="1040px" y="560px" /><rect fill="rgb(27,137,185)" height="41px" width="41px" x="1080px" y="560px" /><rect fill="rgb(60,42,24)" height="41px" width="41px" x="120px" y="600px" /><rect fill="rgb(60,42,24)" height="41px" width="41px" x="160px" y="600px" /><rect fill="rgb(60,42,24)" height="41px" width="41px" x="200px" y="600px" /><rect fill="rgb(60,42,24)" height="41px" width="41px" x="240px" y="600px" /><rect fill="rgb(60,42,24)" height="41px" width="41px" x="280px" y="600px" /><rect fill="rgb(60,42,24)" height="41px" width="41px" x="320px" y="600px" /><rect fill="rgb(60,42,24)" height="41px" width="41px" x="360px" y="600px" /><rect fill="rgb(60,42,24)" height="41px" width="41px" x="400px" y="600px" /><rect fill="rgb(60,42,24)" height="41px" width="41px" x="440px" y="600px" /><rect fill="rgb(60,42,24)" height="41px" width="41px" x="480px" y="600px" /><rect fill="rgb(60,42,24)" height="41px" width="41px" x="520px" y="600px" /><rect fill="rgb(27,137,185)" height="41px" width="41px" x="800px" y="600px" /><rect fill="rgb(31,132,177)" height="41px" width="41px" x="880px" y="600px" /><rect fill="rgb(33,130,173)" height="41px" width="41px" x="920px" y="600px" /><rect fill="rgb(31,132,177)" height="41px" width="41px" x="960px" y="600px" /><rect fill="rgb(34,128,171)" height="41px" width="41px" x="1000px" y="600px" /><rect fill="rgb(34,128,171)" height="41px" width="41px" x="1040px" y="600px" /><rect fill="rgb(27,137,185)" height="41px" width="41px" x="1080px" y="600px" /><rect fill="rgb(31,132,177)" height="41px" width="41px" x="1160px" y="600px" /><rect fill="rgb(138,111,84)" height="41px" width="41px" x="80px" y="640px" /><rect fill="rgb(134,107,80)" height="41px" width="41px" x="120px" y="640px" /><rect fill="rgb(134,107,80)" height="41px" width="41px" x="160px" y="640px" /><rect fill="rgb(138,111,84)" height="41px" width="41px" x="200px" y="640px" /><rect fill="rgb(134,105,78)" height="41px" width="41px" x="240px" y="640px" /><rect fill="rgb(136,108,81)" height="41px" width="41px" x="280px" y="640px" /><rect fill="rgb(137,110,83)" height="41px" width="41px" x="320px" y="640px" /><rect fill="rgb(136,109,82)" height="41px" width="41px" x="360px" y="640px" /><rect fill="rgb(138,111,84)" height="41px" width="41px" x="400px" y="640px" /><rect fill="rgb(136,109,82)" height="41px" width="41px" x="440px" y="640px" /><rect fill="rgb(138,111,84)" height="41px" width="41px" x="480px" y="640px" /><rect fill="rgb(137,109,82)" height="41px" width="41px" x="520px" y="640px" /><rect fill="rgb(138,111,84)" height="41px" width="41px" x="560px" y="640px" /><rect fill="rgb(27,137,185)" height="41px" width="41px" x="800px" y="640px" /><rect fill="rgb(27,137,185)" height="41px" width="41px" x="840px" y="640px" /><rect fill="rgb(39,120,162)" height="41px" width="41px" x="880px" y="640px" /><rect fill="rgb(39,118,157)" height="41px" width="41px" x="920px" y="640px" /><rect fill="rgb(30,134,181)" height="41px" width="41px" x="960px" y="640px" /><rect fill="rgb(30,134,181)" height="41px" width="41px" x="1000px" y="640px" /><rect fill="rgb(31,133,179)" height="41px" width="41px" x="1040px" y="640px" /><rect fill="rgb(31,132,177)" height="41px" width="41px" x="1080px" y="640px" /><rect fill="rgb(31,132,177)" height="41px" width="41px" x="1120px" y="640px" /><rect fill="rgb(31,132,177)" height="41px" width="41px" x="1160px" y="640px" /><rect fill="rgb(138,111,84)" height="41px" width="41px" x="0px" y="680px" /><rect fill="rgb(135,108,81)" height="41px" width="41px" x="40px" y="680px" /><rect fill="rgb(133,105,78)" height="41px" width="41px" x="80px" y="680px" /><rect fill="rgb(134,107,80)" height="41px" width="41px" x="120px" y="680px" /><rect fill="rgb(133,105,78)" height="41px" width="41px" x="160px" y="680px" /><rect fill="rgb(135,107,79)" height="41px" width="41px" x="200px" y="680px" /><rect fill="rgb(133,105,77)" height="41px" width="41px" x="240px" y="680px" /><rect fill="rgb(134,105,78)" height="41px" width="41px" x="280px" y="680px" /><rect fill="rgb(133,106,79)" height="41px" width="41px" x="320px" y="680px" /><rect fill="rgb(133,106,79)" height="41px" width="41px" x="360px" y="680px" /><rect fill="rgb(135,107,80)" height="41px" width="41px" x="400px" y="680px" /><rect fill="rgb(133,106,78)" height="41px" width="41px" x="440px" y="680px" /><rect fill="rgb(133,105,78)" height="41px" width="41px" x="480px" y="680px" /><rect fill="rgb(137,109,82)" height="41px" width="41px" x="520px" y="680px" /><rect fill="rgb(135,107,79)" height="41px" width="41px" x="560px" y="680px" /><rect fill="rgb(138,111,84)" height="41px" width="41px" x="600px" y="680px" /><rect fill="rgb(138,111,84)" height="41px" width="41px" x="640px" y="680px" /><rect fill="rgb(35,127,170)" height="41px" width="41px" x="840px" y="680px" /><rect fill="rgb(44,108,144)" height="41px" width="41px" x="880px" y="680px" /><rect fill="rgb(42,113,151)" height="41px" width="41px" x="920px" y="680px" /><rect fill="rgb(37,123,164)" height="41px" width="41px" x="960px" y="680px" /><rect fill="rgb(39,120,160)" height="41px" width="41px" x="1000px" y="680px" /><rect fill="rgb(39,120,160)" height="41px" width="41px" x="1040px" y="680px" /><rect fill="rgb(36,125,167)" height="41px" width="41px" x="1080px" y="680px" /><rect fill="rgb(39,120,159)" height="41px" width="41px" x="1120px" y="680px" /><rect fill="rgb(60,42,24)" height="41px" opacity="0.078431372549" width="41px" x="1160px" y="680px" /><rect fill="rgb(113,89,65)" height="41px" width="41px" x="40px" y="720px" /><rect fill="rgb(113,88,64)" height="41px" width="41px" x="80px" y="720px" /><rect fill="rgb(107,84,62)" height="41px" width="41px" x="120px" y="720px" /><rect fill="rgb(107,84,62)" height="41px" width="41px" x="160px" y="720px" /><rect fill="rgb(116,92,68)" height="41px" width="41px" x="200px" y="720px" /><rect fill="rgb(111,88,65)" height="41px" width="41px" x="240px" y="720px" /><rect fill="rgb(114,91,67)" height="41px" width="41px" x="280px" y="720px" /><rect fill="rgb(107,84,62)" height="41px" width="41px" x="320px" y="720px" /><rect fill="rgb(111,88,65)" height="41px" width="41px" x="360px" y="720px" /><rect fill="rgb(109,87,64)" height="41px" width="41px" x="400px" y="720px" /><rect fill="rgb(105,83,61)" height="41px" width="41px" x="440px" y="720px" /><rect fill="rgb(105,81,59)" height="41px" width="41px" x="480px" y="720px" /><rect fill="rgb(107,84,62)" height="41px" width="41px" x="520px" y="720px" /><rect fill="rgb(109,85,61)" height="41px" width="41px" x="560px" y="720px" /><rect fill="rgb(121,96,72)" height="41px" width="41px" x="600px" y="720px" /><rect fill="rgb(200,91,70)" height="41px" width="41px" x="880px" y="720px" /><rect fill="rgb(171,32,5)" height="41px" width="41px" x="920px" y="720px" /><rect fill="rgb(203,93,71)" height="41px" width="41px" x="960px" y="720px" /><rect fill="rgb(203,93,71)" height="41px" width="41px" x="1000px" y="720px" /><rect fill="rgb(166,33,7)" height="41px" width="41px" x="1040px" y="720px" /><rect fill="rgb(188,87,66)" height="41px" width="41px" x="1080px" y="720px" /><rect fill="rgb(60,42,24)" height="41px" opacity="0.129411764706" width="41px" x="1120px" y="720px" /><rect fill="rgb(60,42,24)" height="41px" opacity="0.043137254902" width="41px" x="1160px" y="720px" /><rect fill="rgb(138,111,84)" height="41px" width="41px" x="80px" y="760px" /><rect fill="rgb(172,32,5)" height="41px" opacity="0.529411764706" width="41px" x="120px" y="760px" /><rect fill="rgb(172,32,5)" height="41px" opacity="0.529411764706" width="41px" x="160px" y="760px" /><rect fill="rgb(138,111,84)" height="41px" width="41px" x="200px" y="760px" /><rect fill="rgb(172,32,5)" height="41px" opacity="0.521568627451" width="41px" x="240px" y="760px" /><rect fill="rgb(172,32,5)" height="41px" opacity="0.521568627451" width="41px" x="280px" y="760px" /><rect fill="rgb(138,111,84)" height="41px" width="41px" x="320px" y="760px" /><rect fill="rgb(172,32,5)" height="41px" opacity="0.556862745098" width="41px" x="360px" y="760px" /><rect fill="rgb(172,32,5)" height="41px" opacity="0.556862745098" width="41px" x="400px" y="760px" /><rect fill="rgb(138,111,84)" height="41px" width="41px" x="440px" y="760px" /><rect fill="rgb(172,32,5)" height="41px" opacity="0.454901960784" width="41px" x="480px" y="760px" /><rect fill="rgb(172,32,5)" height="41px" opacity="0.454901960784" width="41px" x="520px" y="760px" /><rect fill="rgb(138,111,84)" height="41px" width="41px" x="560px" y="760px" /><rect fill="rgb(192,88,67)" height="41px" width="41px" x="880px" y="760px" /><rect fill="rgb(161,33,9)" height="41px" width="41px" x="920px" y="760px" /><rect fill="rgb(60,42,24)" height="41px" width="41px" x="960px" y="760px" /><rect fill="rgb(60,42,24)" height="41px" width="41px" x="1000px" y="760px" /><rect fill="rgb(159,34,10)" height="41px" width="41px" x="1040px" y="760px" /><rect fill="rgb(180,82,63)" height="41px" width="41px" x="1080px" y="760px" /><rect fill="rgb(246,54,16)" height="41px" width="41px" x="80px" y="800px" /><rect fill="rgb(172,32,5)" height="41px" opacity="0.717647058824" width="41px" x="120px" y="800px" /><rect fill="rgb(172,32,5)" height="41px" opacity="0.717647058824" width="41px" x="160px" y="800px" /><rect fill="rgb(246,54,16)" height="41px" width="41px" x="200px" y="800px" /><rect fill="rgb(172,32,5)" height="41px" opacity="0.580392156863" width="41px" x="240px" y="800px" /><rect fill="rgb(172,32,5)" height="41px" opacity="0.580392156863" width="41px" x="280px" y="800px" /><rect fill="rgb(246,54,16)" height="41px" width="41px" x="320px" y="800px" /><rect fill="rgb(172,32,5)" height="41px" opacity="0.611764705882" width="41px" x="360px" y="800px" /><rect fill="rgb(172,32,5)" height="41px" opacity="0.611764705882" width="41px" x="400px" y="800px" /><rect fill="rgb(246,54,16)" height="41px" width="41px" x="440px" y="800px" /><rect fill="rgb(172,32,5)" height="41px" opacity="0.454901960784" width="41px" x="480px" y="800px" /><rect fill="rgb(172,32,5)" height="41px" opacity="0.454901960784" width="41px" x="520px" y="800px" /><rect fill="rgb(246,54,16)" height="41px" width="41px" x="560px" y="800px" /><rect fill="rgb(27,137,185)" height="41px" width="41px" x="760px" y="800px" /><rect fill="rgb(204,93,71)" height="41px" width="41px" x="880px" y="800px" /><rect fill="rgb(166,33,7)" height="41px" width="41px" x="920px" y="800px" /><rect fill="rgb(194,88,68)" height="41px" width="41px" x="960px" y="800px" /><rect fill="rgb(197,90,68)" height="41px" width="41px" x="1000px" y="800px" /><rect fill="rgb(161,34,9)" height="41px" width="41px" x="1040px" y="800px" /><rect fill="rgb(183,85,63)" height="41px" width="41px" x="1080px" y="800px" /><rect fill="rgb(31,132,177)" height="41px" width="41px" x="1200px" y="800px" /><rect fill="rgb(246,54,16)" height="41px" width="41px" x="80px" y="840px" /><rect fill="rgb(172,32,5)" height="41px" opacity="0.596078431373" width="41px" x="120px" y="840px" /><rect fill="rgb(172,32,5)" height="41px" opacity="0.596078431373" width="41px" x="160px" y="840px" /><rect fill="rgb(246,54,16)" height="41px" width="41px" x="200px" y="840px" /><rect fill="rgb(172,32,5)" height="41px" opacity="0.541176470588" width="41px" x="240px" y="840px" /><rect fill="rgb(172,32,5)" height="41px" opacity="0.541176470588" width="41px" x="280px" y="840px" /><rect fill="rgb(246,54,16)" height="41px" width="41px" x="320px" y="840px" /><rect fill="rgb(172,32,5)" height="41px" opacity="0.662745098039" width="41px" x="360px" y="840px" /><rect fill="rgb(172,32,5)" height="41px" opacity="0.662745098039" width="41px" x="400px" y="840px" /><rect fill="rgb(246,54,16)" height="41px" width="41px" x="440px" y="840px" /><rect fill="rgb(172,32,5)" height="41px" opacity="0.525490196078" width="41px" x="480px" y="840px" /><rect fill="rgb(172,32,5)" height="41px" opacity="0.454901960784" width="41px" x="520px" y="840px" /><rect fill="rgb(246,54,16)" height="41px" width="41px" x="560px" y="840px" /><rect fill="rgb(27,137,185)" height="41px" width="41px" x="760px" y="840px" /><rect fill="rgb(35,127,170)" height="41px" width="41px" x="800px" y="840px" /><rect fill="rgb(32,130,174)" height="41px" width="41px" x="840px" y="840px" /><rect fill="rgb(31,132,177)" height="41px" width="41px" x="880px" y="840px" /><rect fill="rgb(35,127,170)" height="41px" width="41px" x="920px" y="840px" /><rect fill="rgb(38,123,165)" height="41px" width="41px" x="960px" y="840px" /><rect fill="rgb(40,118,158)" height="41px" width="41px" x="1000px" y="840px" /><rect fill="rgb(32,130,174)" height="41px" width="41px" x="1040px" y="840px" /><rect fill="rgb(31,132,177)" height="41px" width="41px" x="1080px" y="840px" /><rect fill="rgb(31,132,177)" height="41px" width="41px" x="1120px" y="840px" /><rect fill="rgb(31,132,177)" height="41px" width="41px" x="1160px" y="840px" /><rect fill="rgb(36,125,168)" height="41px" width="41px" x="1200px" y="840px" /><rect fill="rgb(246,54,16)" height="41px" width="41px" x="80px" y="880px" /><rect fill="rgb(172,32,5)" height="41px" opacity="0.603921568627" width="41px" x="120px" y="880px" /><rect fill="rgb(172,32,5)" height="41px" opacity="0.639215686275" width="41px" x="160px" y="880px" /><rect fill="rgb(246,54,16)" height="41px" width="41px" x="200px" y="880px" /><rect fill="rgb(172,32,5)" height="41px" opacity="0.623529411765" width="41px" x="240px" y="880px" /><rect fill="rgb(172,32,5)" height="41px" opacity="0.623529411765" width="41px" x="280px" y="880px" /><rect fill="rgb(246,54,16)" height="41px" width="41px" x="320px" y="880px" /><rect fill="rgb(172,32,5)" height="41px" opacity="0.623529411765" width="41px" x="360px" y="880px" /><rect fill="rgb(172,32,5)" height="41px" opacity="0.623529411765" width="41px" x="400px" y="880px" /><rect fill="rgb(246,54,16)" height="41px" width="41px" x="440px" y="880px" /><rect fill="rgb(172,32,5)" height="41px" opacity="0.525490196078" width="41px" x="480px" y="880px" /><rect fill="rgb(172,32,5)" height="41px" opacity="0.454901960784" width="41px" x="520px" y="880px" /><rect fill="rgb(246,54,16)" height="41px" width="41px" x="560px" y="880px" /><rect fill="rgb(194,88,68)" height="41px" width="41px" x="840px" y="880px" /><rect fill="rgb(165,33,7)" height="41px" width="41px" x="880px" y="880px" /><rect fill="rgb(200,91,70)" height="41px" width="41px" x="920px" y="880px" /><rect fill="rgb(197,90,68)" height="41px" width="41px" x="960px" y="880px" /><rect fill="rgb(186,86,65)" height="41px" width="41px" x="1000px" y="880px" /><rect fill="rgb(187,87,65)" height="41px" width="41px" x="1040px" y="880px" /><rect fill="rgb(172,32,5)" height="41px" width="41px" x="1080px" y="880px" /><rect fill="rgb(195,90,68)" height="41px" width="41px" x="1120px" y="880px" /><rect fill="rgb(92,60,53)" height="41px" width="41px" x="0px" y="920px" /><rect fill="rgb(92,60,53)" height="41px" width="41px" x="40px" y="920px" /><rect fill="rgb(92,60,53)" height="41px" width="41px" x="80px" y="920px" /><rect fill="rgb(102,58,51)" height="41px" width="41px" x="120px" y="920px" /><rect fill="rgb(102,58,51)" height="41px" width="41px" x="160px" y="920px" /><rect fill="rgb(92,60,53)" height="41px" width="41px" x="200px" y="920px" /><rect fill="rgb(97,59,52)" height="41px" width="41px" x="240px" y="920px" /><rect fill="rgb(97,59,52)" height="41px" width="41px" x="280px" y="920px" /><rect fill="rgb(92,60,53)" height="41px" width="41px" x="320px" y="920px" /><rect fill="rgb(92,60,53)" height="41px" width="41px" x="360px" y="920px" /><rect fill="rgb(92,60,53)" height="41px" width="41px" x="400px" y="920px" /><rect fill="rgb(92,60,53)" height="41px" width="41px" x="440px" y="920px" /><rect fill="rgb(92,60,53)" height="41px" width="41px" x="480px" y="920px" /><rect fill="rgb(92,60,53)" height="41px" width="41px" x="520px" y="920px" /><rect fill="rgb(92,60,53)" height="41px" width="41px" x="560px" y="920px" /><rect fill="rgb(92,60,53)" height="41px" width="41px" x="600px" y="920px" /><rect fill="rgb(92,60,53)" height="41px" width="41px" x="640px" y="920px" /><rect fill="rgb(29,135,182)" height="41px" width="41px" x="720px" y="920px" /><rect fill="rgb(60,42,24)" height="41px" opacity="0.00392156862745" width="41px" x="760px" y="920px" /><rect fill="rgb(194,88,68)" height="41px" width="41px" x="840px" y="920px" /><rect fill="rgb(169,32,5)" height="41px" width="41px" x="880px" y="920px" /><rect fill="rgb(204,93,71)" height="41px" width="41px" x="920px" y="920px" /><rect fill="rgb(60,42,24)" height="41px" width="41px" x="960px" y="920px" /><rect fill="rgb(60,42,24)" height="41px" width="41px" x="1000px" y="920px" /><rect fill="rgb(206,94,72)" height="41px" width="41px" x="1040px" y="920px" /><rect fill="rgb(172,32,5)" height="41px" width="41px" x="1080px" y="920px" /><rect fill="rgb(190,88,66)" height="41px" width="41px" x="1120px" y="920px" /><rect fill="rgb(35,127,170)" height="41px" width="41px" x="1240px" y="920px" /><rect fill="rgb(206,94,72)" height="41px" width="41px" x="0px" y="960px" /><rect fill="rgb(206,94,72)" height="41px" width="41px" x="40px" y="960px" /><rect fill="rgb(206,94,72)" height="41px" width="41px" x="80px" y="960px" /><rect fill="rgb(206,94,72)" height="41px" width="41px" x="120px" y="960px" /><rect fill="rgb(206,94,72)" height="41px" width="41px" x="160px" y="960px" /><rect fill="rgb(197,97,74)" height="41px" width="41px" x="200px" y="960px" /><rect fill="rgb(206,94,72)" height="41px" width="41px" x="240px" y="960px" /><rect fill="rgb(206,94,72)" height="41px" width="41px" x="280px" y="960px" /><rect fill="rgb(206,94,72)" height="41px" width="41px" x="320px" y="960px" /><rect fill="rgb(206,94,72)" height="41px" width="41px" x="360px" y="960px" /><rect fill="rgb(206,94,72)" height="41px" width="41px" x="400px" y="960px" /><rect fill="rgb(206,94,72)" height="41px" width="41px" x="440px" y="960px" /><rect fill="rgb(206,94,72)" height="41px" width="41px" x="480px" y="960px" /><rect fill="rgb(206,94,72)" height="41px" width="41px" x="520px" y="960px" /><rect fill="rgb(206,94,72)" height="41px" width="41px" x="560px" y="960px" /><rect fill="rgb(206,94,72)" height="41px" width="41px" x="600px" y="960px" /><rect fill="rgb(206,94,72)" height="41px" width="41px" x="640px" y="960px" /><rect fill="rgb(31,132,177)" height="41px" width="41px" x="720px" y="960px" /><rect fill="rgb(29,135,182)" height="41px" width="41px" x="760px" y="960px" /><rect fill="rgb(34,129,173)" height="41px" width="41px" x="800px" y="960px" /><rect fill="rgb(34,129,173)" height="41px" width="41px" x="840px" y="960px" /><rect fill="rgb(31,131,177)" height="41px" width="41px" x="880px" y="960px" /><rect fill="rgb(31,131,177)" height="41px" width="41px" x="920px" y="960px" /><rect fill="rgb(27,137,185)" height="41px" width="41px" x="960px" y="960px" /><rect fill="rgb(31,133,179)" height="41px" width="41px" x="1000px" y="960px" /><rect fill="rgb(30,134,181)" height="41px" width="41px" x="1040px" y="960px" /><rect fill="rgb(29,135,182)" height="41px" width="41px" x="1080px" y="960px" /><rect fill="rgb(30,133,180)" height="41px" width="41px" x="1120px" y="960px" /><rect fill="rgb(31,132,178)" height="41px" width="41px" x="1160px" y="960px" /><rect fill="rgb(31,133,179)" height="41px" width="41px" x="1200px" y="960px" /><rect fill="rgb(31,133,179)" height="41px" width="41px" x="1240px" y="960px" /><rect fill="rgb(206,94,72)" height="41px" width="41px" x="0px" y="1000px" /><rect fill="rgb(197,97,74)" height="41px" width="41px" x="40px" y="1000px" /><rect fill="rgb(206,94,72)" height="41px" width="41px" x="80px" y="1000px" /><rect fill="rgb(190,94,71)" height="41px" width="41px" x="120px" y="1000px" /><rect fill="rgb(187,98,75)" height="41px" width="41px" x="160px" y="1000px" /><rect fill="rgb(175,97,74)" height="41px" width="41px" x="200px" y="1000px" /><rect fill="rgb(182,95,73)" height="41px" width="41px" x="240px" y="1000px" /><rect fill="rgb(189,93,72)" height="41px" width="41px" x="280px" y="1000px" /><rect fill="rgb(186,92,70)" height="41px" width="41px" x="320px" y="1000px" /><rect fill="rgb(206,94,72)" height="41px" width="41px" x="360px" y="1000px" /><rect fill="rgb(197,97,74)" height="41px" width="41px" x="400px" y="1000px" /><rect fill="rgb(197,97,74)" height="41px" width="41px" x="440px" y="1000px" /><rect fill="rgb(189,93,70)" height="41px" width="41px" x="480px" y="1000px" /><rect fill="rgb(201,92,70)" height="41px" width="41px" x="520px" y="1000px" /><rect fill="rgb(206,94,72)" height="41px" width="41px" x="560px" y="1000px" /><rect fill="rgb(198,91,69)" height="41px" width="41px" x="600px" y="1000px" /><rect fill="rgb(206,94,72)" height="41px" width="41px" x="640px" y="1000px" /><rect fill="rgb(27,137,185)" height="41px" width="41px" x="760px" y="1000px" /><rect fill="rgb(29,135,183)" height="41px" width="41px" x="800px" y="1000px" /><rect fill="rgb(29,135,183)" height="41px" width="41px" x="840px" y="1000px" /><rect fill="rgb(31,131,177)" height="41px" width="41px" x="880px" y="1000px" /><rect fill="rgb(31,131,177)" height="41px" width="41px" x="920px" y="1000px" /><rect fill="rgb(27,137,185)" height="41px" width="41px" x="960px" y="1000px" /><rect fill="rgb(31,133,179)" height="41px" width="41px" x="1000px" y="1000px" /><rect fill="rgb(32,131,177)" height="41px" width="41px" x="1040px" y="1000px" /><rect fill="rgb(33,130,175)" height="41px" width="41px" x="1080px" y="1000px" /><rect fill="rgb(36,126,169)" height="41px" width="41px" x="1120px" y="1000px" /><rect fill="rgb(34,129,173)" height="41px" width="41px" x="1160px" y="1000px" /><rect fill="rgb(28,136,184)" height="41px" width="41px" x="1200px" y="1000px" /><rect fill="rgb(60,42,24)" height="41px" opacity="0.0156862745098" width="41px" x="1240px" y="1000px" /><rect fill="rgb(203,93,71)" height="41px" width="41px" x="0px" y="1040px" /><rect fill="rgb(198,91,69)" height="41px" width="41px" x="40px" y="1040px" /><rect fill="rgb(196,96,73)" height="41px" width="41px" x="80px" y="1040px" /><rect fill="rgb(203,93,71)" height="41px" width="41px" x="120px" y="1040px" /><rect fill="rgb(189,99,76)" height="41px" width="41px" x="160px" y="1040px" /><rect fill="rgb(189,99,76)" height="41px" width="41px" x="200px" y="1040px" /><rect fill="rgb(197,97,74)" height="41px" width="41px" x="240px" y="1040px" /><rect fill="rgb(198,90,70)" height="41px" width="41px" x="280px" y="1040px" /><rect fill="rgb(186,92,70)" height="41px" width="41px" x="320px" y="1040px" /><rect fill="rgb(197,97,74)" height="41px" width="41px" x="360px" y="1040px" /><rect fill="rgb(196,96,73)" height="41px" width="41px" x="400px" y="1040px" /><rect fill="rgb(184,91,69)" height="41px" width="41px" x="440px" y="1040px" /><rect fill="rgb(183,96,74)" height="41px" width="41px" x="480px" y="1040px" /><rect fill="rgb(180,94,73)" height="41px" width="41px" x="520px" y="1040px" /><rect fill="rgb(193,95,73)" height="41px" width="41px" x="560px" y="1040px" /><rect fill="rgb(198,91,69)" height="41px" width="41px" x="600px" y="1040px" /><rect fill="rgb(206,94,72)" height="41px" width="41px" x="640px" y="1040px" /><rect fill="rgb(203,93,71)" height="41px" width="41px" x="800px" y="1040px" /><rect fill="rgb(198,91,69)" height="41px" width="41px" x="840px" y="1040px" /><rect fill="rgb(198,91,69)" height="41px" width="41px" x="880px" y="1040px" /><rect fill="rgb(198,91,69)" height="41px" width="41px" x="920px" y="1040px" /><rect fill="rgb(198,91,69)" height="41px" width="41px" x="960px" y="1040px" /><rect fill="rgb(198,91,69)" height="41px" width="41px" x="1000px" y="1040px" /><rect fill="rgb(206,94,72)" height="41px" width="41px" x="1040px" y="1040px" /><rect fill="rgb(200,91,70)" height="41px" width="41px" x="1080px" y="1040px" /><rect fill="rgb(191,87,66)" height="41px" width="41px" x="1120px" y="1040px" /><rect fill="rgb(203,92,70)" height="41px" width="41px" x="1160px" y="1040px" /><rect fill="rgb(198,91,69)" height="41px" width="41px" x="0px" y="1080px" /><rect fill="rgb(198,91,69)" height="41px" width="41px" x="40px" y="1080px" /><rect fill="rgb(196,96,73)" height="41px" width="41px" x="80px" y="1080px" /><rect fill="rgb(206,94,72)" height="41px" width="41px" x="120px" y="1080px" /><rect fill="rgb(189,99,76)" height="41px" width="41px" x="160px" y="1080px" /><rect fill="rgb(197,97,74)" height="41px" width="41px" x="200px" y="1080px" /><rect fill="rgb(206,94,72)" height="41px" width="41px" x="240px" y="1080px" /><rect fill="rgb(206,94,72)" height="41px" width="41px" x="280px" y="1080px" /><rect fill="rgb(206,94,72)" height="41px" width="41px" x="320px" y="1080px" /><rect fill="rgb(206,94,72)" height="41px" width="41px" x="360px" y="1080px" /><rect fill="rgb(193,89,67)" height="41px" width="41px" x="400px" y="1080px" /><rect fill="rgb(188,87,66)" height="41px" width="41px" x="440px" y="1080px" /><rect fill="rgb(193,95,73)" height="41px" width="41px" x="480px" y="1080px" /><rect fill="rgb(190,94,71)" height="41px" width="41px" x="520px" y="1080px" /><rect fill="rgb(189,93,70)" height="41px" width="41px" x="560px" y="1080px" /><rect fill="rgb(195,95,72)" height="41px" width="41px" x="600px" y="1080px" /><rect fill="rgb(204,93,71)" height="41px" width="41px" x="640px" y="1080px" /><rect fill="rgb(200,91,70)" height="41px" width="41px" x="800px" y="1080px" /><rect fill="rgb(194,89,68)" height="41px" width="41px" x="840px" y="1080px" /><rect fill="rgb(172,32,5)" height="41px" width="41px" x="880px" y="1080px" /><rect fill="rgb(172,32,5)" height="41px" width="41px" x="920px" y="1080px" /><rect fill="rgb(166,33,7)" height="41px" width="41px" x="960px" y="1080px" /><rect fill="rgb(172,32,5)" height="41px" width="41px" x="1000px" y="1080px" /><rect fill="rgb(172,32,5)" height="41px" width="41px" x="1040px" y="1080px" /><rect fill="rgb(171,32,5)" height="41px" width="41px" x="1080px" y="1080px" /><rect fill="rgb(179,83,63)" height="41px" width="41px" x="1120px" y="1080px" /><rect fill="rgb(190,87,66)" height="41px" width="41px" x="1160px" y="1080px" /><rect fill="rgb(203,93,71)" height="41px" width="41px" x="0px" y="1120px" /><rect fill="rgb(198,91,69)" height="41px" width="41px" x="40px" y="1120px" /><rect fill="rgb(189,99,76)" height="41px" width="41px" x="80px" y="1120px" /><rect fill="rgb(197,97,74)" height="41px" width="41px" x="120px" y="1120px" /><rect fill="rgb(197,97,74)" height="41px" width="41px" x="160px" y="1120px" /><rect fill="rgb(206,94,72)" height="41px" width="41px" x="200px" y="1120px" /><rect fill="rgb(206,94,72)" height="41px" width="41px" x="240px" y="1120px" /><rect fill="rgb(92,60,53)" height="41px" width="41px" x="280px" y="1120px" /><rect fill="rgb(92,60,53)" height="41px" width="41px" x="320px" y="1120px" /><rect fill="rgb(206,94,72)" height="41px" width="41px" x="360px" y="1120px" /><rect fill="rgb(190,88,66)" height="41px" width="41px" x="400px" y="1120px" /><rect fill="rgb(187,92,71)" height="41px" width="41px" x="440px" y="1120px" /><rect fill="rgb(177,93,71)" height="41px" width="41px" x="480px" y="1120px" /><rect fill="rgb(190,94,71)" height="41px" width="41px" x="520px" y="1120px" /><rect fill="rgb(192,88,67)" height="41px" width="41px" x="560px" y="1120px" /><rect fill="rgb(184,91,69)" height="41px" width="41px" x="600px" y="1120px" /><rect fill="rgb(198,91,69)" height="41px" width="41px" x="640px" y="1120px" /><rect fill="rgb(198,91,69)" height="41px" width="41px" x="800px" y="1120px" /><rect fill="rgb(189,87,65)" height="41px" width="41px" x="840px" y="1120px" /><rect fill="rgb(172,32,5)" height="41px" width="41px" x="880px" y="1120px" /><rect fill="rgb(60,42,24)" height="41px" width="41px" x="920px" y="1120px" /><rect fill="rgb(166,33,7)" height="41px" width="41px" x="960px" y="1120px" /><rect fill="rgb(171,32,5)" height="41px" width="41px" x="1000px" y="1120px" /><rect fill="rgb(60,42,24)" height="41px" width="41px" x="1040px" y="1120px" /><rect fill="rgb(172,32,5)" height="41px" width="41px" x="1080px" y="1120px" /><rect fill="rgb(195,89,68)" height="41px" width="41px" x="1120px" y="1120px" /><rect fill="rgb(198,90,69)" height="41px" width="41px" x="1160px" y="1120px" /><rect fill="rgb(206,94,72)" height="41px" width="41px" x="0px" y="1160px" /><rect fill="rgb(194,96,73)" height="41px" width="41px" x="40px" y="1160px" /><rect fill="rgb(189,99,76)" height="41px" width="41px" x="80px" y="1160px" /><rect fill="rgb(189,99,76)" height="41px" width="41px" x="120px" y="1160px" /><rect fill="rgb(206,94,72)" height="41px" width="41px" x="160px" y="1160px" /><rect fill="rgb(206,94,72)" height="41px" width="41px" x="200px" y="1160px" /><rect fill="rgb(206,94,72)" height="41px" width="41px" x="240px" y="1160px" /><rect fill="rgb(92,60,53)" height="41px" width="41px" x="280px" y="1160px" /><rect fill="rgb(92,60,53)" height="41px" width="41px" x="320px" y="1160px" /><rect fill="rgb(206,94,72)" height="41px" width="41px" x="360px" y="1160px" /><rect fill="rgb(194,89,68)" height="41px" width="41px" x="400px" y="1160px" /><rect fill="rgb(187,86,65)" height="41px" width="41px" x="440px" y="1160px" /><rect fill="rgb(192,88,67)" height="41px" width="41px" x="480px" y="1160px" /><rect fill="rgb(198,91,69)" height="41px" width="41px" x="520px" y="1160px" /><rect fill="rgb(190,94,71)" height="41px" width="41px" x="560px" y="1160px" /><rect fill="rgb(198,91,69)" height="41px" width="41px" x="600px" y="1160px" /><rect fill="rgb(206,94,72)" height="41px" width="41px" x="640px" y="1160px" /><rect fill="rgb(202,92,71)" height="41px" width="41px" x="800px" y="1160px" /><rect fill="rgb(202,92,71)" height="41px" width="41px" x="840px" y="1160px" /><rect fill="rgb(172,32,5)" height="41px" width="41px" x="880px" y="1160px" /><rect fill="rgb(169,33,6)" height="41px" width="41px" x="920px" y="1160px" /><rect fill="rgb(163,33,8)" height="41px" width="41px" x="960px" y="1160px" /><rect fill="rgb(162,34,9)" height="41px" width="41px" x="1000px" y="1160px" /><rect fill="rgb(164,34,8)" height="41px" width="41px" x="1040px" y="1160px" /><rect fill="rgb(172,32,5)" height="41px" width="41px" x="1080px" y="1160px" /><rect fill="rgb(190,88,67)" height="41px" width="41px" x="1120px" y="1160px" /><rect fill="rgb(190,88,67)" height="41px" width="41px" x="1160px" y="1160px" /><rect fill="rgb(206,94,72)" height="41px" width="41px" x="0px" y="1200px" /><rect fill="rgb(206,94,72)" height="41px" width="41px" x="40px" y="1200px" /><rect fill="rgb(206,94,72)" height="41px" width="41px" x="80px" y="1200px" /><rect fill="rgb(206,94,72)" height="41px" width="41px" x="120px" y="1200px" /><rect fill="rgb(206,94,72)" height="41px" width="41px" x="160px" y="1200px" /><rect fill="rgb(206,94,72)" height="41px" width="41px" x="200px" y="1200px" /><rect fill="rgb(206,94,72)" height="41px" width="41px" x="240px" y="1200px" /><rect fill="rgb(92,60,53)" height="41px" width="41px" x="280px" y="1200px" /><rect fill="rgb(92,60,53)" height="41px" width="41px" x="320px" y="1200px" /><rect fill="rgb(206,94,72)" height="41px" width="41px" x="360px" y="1200px" /><rect fill="rgb(202,92,71)" height="41px" width="41px" x="400px" y="1200px" /><rect fill="rgb(202,92,71)" height="41px" width="41px" x="440px" y="1200px" /><rect fill="rgb(206,94,72)" height="41px" width="41px" x="480px" y="1200px" /><rect fill="rgb(197,97,74)" height="41px" width="41px" x="520px" y="1200px" /><rect fill="rgb(206,94,72)" height="41px" width="41px" x="560px" y="1200px" /><rect fill="rgb(206,94,72)" height="41px" width="41px" x="600px" y="1200px" /><rect fill="rgb(206,94,72)" height="41px" width="41px" x="640px" y="1200px" /><rect fill="rgb(202,92,71)" height="41px" width="41px" x="800px" y="1200px" /><rect fill="rgb(202,92,71)" height="41px" width="41px" x="840px" y="1200px" /><rect fill="rgb(172,32,5)" height="41px" width="41px" x="880px" y="1200px" /><rect fill="rgb(169,33,6)" height="41px" width="41px" x="920px" y="1200px" /><rect fill="rgb(167,33,7)" height="41px" width="41px" x="960px" y="1200px" /><rect fill="rgb(169,33,6)" height="41px" width="41px" x="1000px" y="1200px" /><rect fill="rgb(169,33,6)" height="41px" width="41px" x="1040px" y="1200px" /><rect fill="rgb(172,32,5)" height="41px" width="41px" x="1080px" y="1200px" /><rect fill="rgb(194,89,68)" height="41px" width="41px" x="1120px" y="1200px" /><rect fill="rgb(194,89,68)" height="41px" width="41px" x="1160px" y="1200px" /></svg>