<?xml version="1.0" encoding="utf-8" ?>
<svg baseProfile="full" height="1280px" version="1.1" width="1280px" xmlns="http://www.w3.org/2000/svg" xmlns:ev="http://www.w3.org/2001/xml-events" xmlns:xlink="http://www.w3.org/1999/xlink"><defs /><rect fill="rgb(230,161,54)" height="41px" width="41px" x="600px" y="280px" /><rect fill="rgb(230,161,54)" height="41px" width="41px" x="560px" y="320px" /><rect fill="rgb(230,161,54)" height="41px" width="41px" x="600px" y="320px" /><rect fill="rgb(230,161,54)" height="41px" width="41px" x="640px" y="320px" /><rect fill="rgb(230,161,54)" height="41px" width="41px" x="560px" y="360px" /><rect fill="rgb(230,161,54)" height="41px" width="41px" x="600px" y="360px" /><rect fill="rgb(230,161,54)" height="41px" width="41px" x="640px" y="360px" /><rect fill="rgb(60,42,24)" height="41px" width="41px" x="560px" y="400px" /><rect fill="rgb(60,42,24)" height="41px" width="41px" x="600px" y="400px" /><rect fill="rgb(60,42,24)" height="41px" width="41px" x="640px" y="400px" /><rect fill="rgb(230,161,54)" height="41px" opacity="0.313725490196" width="41px" x="160px" y="440px" /><rect fill="rgb(230,161,54)" height="41px" width="41px" x="200px" y="440px" /><rect fill="rgb(230,161,54)" height="41px" opacity="0.376470588235" width="41px" x="240px" y="440px" /><rect fill="rgb(179,135,88)" height="41px" width="41px" x="600px" y="440px" /><rect fill="rgb(230,161,54)" height="41px" opacity="0.313725490196" width="41px" x="1000px" y="440px" /><rect fill="rgb(230,161,54)" height="41px" width="41px" x="1040px" y="440px" /><rect fill="rgb(230,161,54)" height="41px" opacity="0.376470588235" width="41px" x="1080px" y="440px" /><rect fill="rgb(230,161,54)" height="41px" width="41px" x="160px" y="480px" /><rect fill="rgb(230,161,54)" height="41px" width="41px" x="200px" y="480px" /><rect fill="rgb(230,161,54)" height="41px" width="41px" x="240px" y="480px" /><rect fill="rgb(60,42,24)" height="41px" width="41px" x="520px" y="480px" /><rect fill="rgb(61,43,24)" height="41px" width="41px" x="560px" y="480px" /><rect fill="rgb(65,45,23)" height="41px" width="41px" x="600px" y="480px" /><rect fill="rgb(60,42,24)" height="41px" width="41px" x="640px" y="480px" /><rect fill="rgb(60,42,24)" height="41px" width="41px" x="680px" y="480px" /><rect fill="rgb(230,161,54)" height="41px" width="41px" x="1000px" y="480px" /><rect fill="rgb(230,161,54)" height="41px" width="41px" x="1040px" y="480px" /><rect fill="rgb(230,161,54)" height="41px" width="41px" x="1080px" y="480px" /><rect fill="rgb(60,42,24)" height="41px" width="41px" x="160px" y="520px" /><rect fill="rgb(60,42,24)" height="41px" width="41px" x="200px" y="520px" /><rect fill="rgb(60,42,24)" height="41px" width="41px" x="240px" y="520px" /><rect fill="rgb(178,134,87)" height="41px" width="41px" x="560px" y="520px" /><rect fill="rgb(167,124,78)" height="41px" width="41px" x="600px" y="520px" /><rect fill="rgb(174,130,84)" height="41px" width="41px" x="640px" y="520px" /><rect fill="rgb(60,42,24)" height="41px" width="41px" x="1000px" y="520px" /><rect fill="rgb(60,42,24)" height="41px" width="41px" x="1040px" y="520px" /><rect fill="rgb(60,42,24)" height="41px" width="41px" x="1080px" y="520px" /><rect fill="rgb(109,71,14)" height="41px" opacity="0.0392156862745" width="41px" x="160px" y="560px" /><rect fill="rgb(174,130,84)" height="41px" width="41px" x="200px" y="560px" /><rect fill="rgb(60,42,24)" height="41px" width="41px" x="480px" y="560px" /><rect fill="rgb(67,46,23)" height="41px" width="41px" x="520px" y="560px" /><rect fill="rgb(65,45,23)" height="41px" width="41px" x="560px" y="560px" /><rect fill="rgb(72,49,22)" height="41px" width="41px" x="600px" y="560px" /><rect fill="rgb(60,42,24)" height="41px" width="41px" x="640px" y="560px" /><rect fill="rgb(60,42,24)" height="41px" width="41px" x="680px" y="560px" /><rect fill="rgb(60,42,24)" height="41px" width="41px" x="720px" y="560px" /><rect fill="rgb(109,71,14)" height="41px" opacity="0.0352941176471" width="41px" x="1000px" y="560px" /><rect fill="rgb(174,130,84)" height="41px" width="41px" x="1040px" y="560px" /><rect fill="rgb(61,43,24)" height="41px" width="41px" x="120px" y="600px" /><rect fill="rgb(65,45,23)" height="41px" width="41px" x="160px" y="600px" /><rect fill="rgb(63,43,24)" height="41px" width="41px" x="200px" y="600px" /><rect fill="rgb(60,42,24)" height="41px" width="41px" x="240px" y="600px" /><rect fill="rgb(60,42,24)" height="41px" width="41px" x="280px" y="600px" /><rect fill="rgb(174,130,84)" height="41px" width="41px" x="520px" y="600px" /><rect fill="rgb(179,135,88)" height="41px" width="41px" x="560px" y="600px" /><rect fill="rgb(174,130,84)" height="41px" width="41px" x="600px" y="600px" /><rect fill="rgb(172,129,82)" height="41px" width="41px" x="640px" y="600px" /><rect fill="rgb(169,126,80)" height="41px" width="41px" x="680px" y="600px" /><rect fill="rgb(63,44,24)" height="41px" width="41px" x="960px" y="600px" /><rect fill="rgb(67,46,23)" height="41px" width="41px" x="1000px" y="600px" /><rect fill="rgb(70,48,23)" height="41px" width="41px" x="1040px" y="600px" /><rect fill="rgb(67,46,23)" height="41px" width="41px" x="1080px" y="600px" /><rect fill="rgb(60,42,24)" height="41px" width="41px" x="1120px" y="600px" /><rect fill="rgb(109,71,14)" height="41px" opacity="0.0196078431373" width="41px" x="120px" y="640px" /><rect fill="rgb(175,131,85)" height="41px" width="41px" x="160px" y="640px" /><rect fill="rgb(165,123,77)" height="41px" width="41px" x="200px" y="640px" /><rect fill="rgb(171,128,82)" height="41px" width="41px" x="240px" y="640px" /><rect fill="rgb(60,42,24)" height="41px" width="41px" x="480px" y="640px" /><rect fill="rgb(60,42,24)" height="41px" width="41px" x="520px" y="640px" /><rect fill="rgb(63,44,24)" height="41px" width="41px" x="560px" y="640px" /><rect fill="rgb(63,44,24)" height="41px" width="41px" x="600px" y="640px" /><rect fill="rgb(60,42,24)" height="41px" width="41px" x="640px" y="640px" /><rect fill="rgb(60,42,24)" height="41px" width="41px" x="680px" y="640px" /><rect fill="rgb(60,42,24)" height="41px" width="41px" x="720px" y="640px" /><rect fill="rgb(173,130,83)" height="41px" width="41px" x="1000px" y="640px" /><rect fill="rgb(173,130,83)" height="41px" width="41px" x="1040px" y="640px" /><rect fill="rgb(169,126,80)" height="41px" width="41px" x="1080px" y="640px" /><rect fill="rgb(60,42,24)" height="41px" width="41px" x="120px" y="680px" /><rect fill="rgb(63,44,24)" height="41px" width="41px" x="160px" y="680px" /><rect fill="rgb(74,50,22)" height="41px" width="41px" x="200px" y="680px" /><rect fill="rgb(67,46,23)" height="41px" width="41px" x="240px" y="680px" /><rect fill="rgb(60,42,24)" height="41px" width="41px" x="280px" y="680px" /><rect fill="rgb(179,135,88)" height="41px" width="41px" x="520px" y="680px" /><rect fill="rgb(167,124,78)" height="41px" width="41px" x="560px" y="680px" /><rect fill="rgb(167,124,78)" height="41px" width="41px" x="600px" y="680px" /><rect fill="rgb(179,135,88)" height="41px" width="41px" x="640px" y="680px" /><rect fill="rgb(174,130,84)" height="41px" width="41px" x="680px" y="680px" /><rect fill="rgb(60,42,24)" height="41px" width="41px" x="960px" y="680px" /><rect fill="rgb(76,51,22)" height="41px" width="41px" x="1000px" y="680px" /><rect fill="rgb(75,51,22)" height="41px" width="41px" x="1040px" y="680px" /><rect fill="rgb(70,47,23)" height="41px" width="41px" x="1080px" y="680px" /><rect fill="rgb(65,45,23)" height="41px" width="41px" x="1120px" y="680px" /><rect fill="rgb(176,133,86)" height="41px" width="41px" x="160px" y="720px" /><rect fill="rgb(163,121,75)" height="41px" width="41px" x="200px" y="720px" /><rect fill="rgb(171,128,82)" height="41px" width="41px" x="240px" y="720px" /><rect fill="rgb(109,71,14)" height="41px" opacity="0.0196078431373" width="41px" x="280px" y="720px" /><rect fill="rgb(60,42,24)" height="41px" width="41px" x="440px" y="720px" /><rect fill="rgb(60,42,24)" height="41px" width="41px" x="480px" y="720px" /><rect fill="rgb(64,44,24)" height="41px" width="41px" x="520px" y="720px" /><rect fill="rgb(64,44,24)" height="41px" width="41px" x="560px" y="720px" /><rect fill="rgb(67,46,23)" height="41px" width="41px" x="600px" y="720px" /><rect fill="rgb(72,49,22)" height="41px" width="41px" x="640px" y="720px" /><rect fill="rgb(69,47,23)" height="41px" width="41px" x="680px" y="720px" /><rect fill="rgb(69,47,23)" height="41px" width="41px" x="720px" y="720px" /><rect fill="rgb(60,42,24)" height="41px" width="41px" x="760px" y="720px" /><rect fill="rgb(166,124,78)" height="41px" width="41px" x="1000px" y="720px" /><rect fill="rgb(167,125,79)" height="41px" width="41px" x="1040px" y="720px" /><rect fill="rgb(169,126,80)" height="41px" width="41px" x="1080px" y="720px" /><rect fill="rgb(109,71,14)" height="41px" opacity="0.0196078431373" width="41px" x="1120px" y="720px" /><rect fill="rgb(60,42,24)" height="41px" width="41px" x="80px" y="760px" /><rect fill="rgb(61,43,24)" height="41px" width="41px" x="120px" y="760px" /><rect fill="rgb(68,46,23)" height="41px" width="41px" x="160px" y="760px" /><rect fill="rgb(73,49,22)" height="41px" width="41px" x="200px" y="760px" /><rect fill="rgb(67,46,23)" height="41px" width="41px" x="240px" y="760px" /><rect fill="rgb(61,43,24)" height="41px" width="41px" x="280px" y="760px" /><rect fill="rgb(60,42,24)" height="41px" width="41px" x="320px" y="760px" /><rect fill="rgb(179,135,88)" height="41px" width="41px" x="480px" y="760px" /><rect fill="rgb(167,124,78)" height="41px" width="41px" x="520px" y="760px" /><rect fill="rgb(167,124,78)" height="41px" width="41px" x="560px" y="760px" /><rect fill="rgb(179,135,88)" height="41px" width="41px" x="600px" y="760px" /><rect fill="rgb(174,130,84)" height="41px" width="41px" x="640px" y="760px" /><rect fill="rgb(170,128,81)" height="41px" width="41px" x="680px" y="760px" /><rect fill="rgb(175,132,85)" height="41px" width="41px" x="720px" y="760px" /><rect fill="rgb(65,45,23)" height="41px" width="41px" x="920px" y="760px" /><rect fill="rgb(65,45,23)" height="41px" width="41px" x="960px" y="760px" /><rect fill="rgb(68,47,23)" height="41px" width="41px" x="1000px" y="760px" /><rect fill="rgb(74,50,22)" height="41px" width="41px" x="1040px" y="760px" /><rect fill="rgb(67,46,23)" height="41px" width="41px" x="1080px" y="760px" /><rect fill="rgb(67,46,23)" height="41px" width="41px" x="1120px" y="760px" /><rect fill="rgb(67,46,23)" height="41px" width="41px" x="1160px" y="760px" /><rect fill="rgb(165,123,77)" height="41px" width="41px" x="120px" y="800px" /><rect fill="rgb(164,122,76)" height="41px" width="41px" x="160px" y="800px" /><rect fill="rgb(168,125,79)" height="41px" width="41px" x="200px" y="800px" /><rect fill="rgb(165,123,77)" height="41px" width="41px" x="240px" y="800px" /><rect fill="rgb(170,127,81)" height="41px" width="41px" x="280px" y="800px" /><rect fill="rgb(60,42,24)" height="41px" width="41px" x="480px" y="800px" /><rect fill="rgb(60,42,24)" height="41px" width="41px" x="520px" y="800px" /><rect fill="rgb(60,42,24)" height="41px" width="41px" x="560px" y="800px" /><rect fill="rgb(60,42,24)" height="41px" width="41px" x="600px" y="800px" /><rect fill="rgb(61,43,24)" height="41px" width="41px" x="640px" y="800px" /><rect fill="rgb(61,43,24)" height="41px" width="41px" x="680px" y="800px" /><rect fill="rgb(60,42,24)" height="41px" width="41px" x="720px" y="800px" /><rect fill="rgb(109,71,14)" height="41px" opacity="0.0196078431373" width="41px" x="920px" y="800px" /><rect fill="rgb(176,132,86)" height="41px" width="41px" x="960px" y="800px" /><rect fill="rgb(168,126,80)" height="41px" width="41px" x="1000px" y="800px" /><rect fill="rgb(175,132,85)" height="41px" width="41px" x="1040px" y="800px" /><rect fill="rgb(170,128,81)" height="41px" width="41px" x="1080px" y="800px" /><rect fill="rgb(170,127,81)" height="41px" width="41px" x="1120px" y="800px" /><rect fill="rgb(109,71,14)" height="41px" opacity="0.0392156862745" width="41px" x="1160px" y="800px" /><rect fill="rgb(60,42,24)" height="41px" width="41px" x="40px" y="840px" /><rect fill="rgb(60,42,24)" height="41px" width="41px" x="80px" y="840px" /><rect fill="rgb(67,46,23)" height="41px" width="41px" x="120px" y="840px" /><rect fill="rgb(61,43,24)" height="41px" width="41px" x="160px" y="840px" /><rect fill="rgb(68,46,23)" height="41px" width="41px" x="200px" y="840px" /><rect fill="rgb(74,50,22)" height="41px" width="41px" x="240px" y="840px" /><rect fill="rgb(68,46,23)" height="41px" width="41px" x="280px" y="840px" /><rect fill="rgb(60,42,24)" height="41px" width="41px" x="320px" y="840px" /><rect fill="rgb(60,42,24)" height="41px" width="41px" x="360px" y="840px" /><rect fill="rgb(95,72,49)" height="41px" opacity="0.00392156862745" width="41px" x="440px" y="840px" /><rect fill="rgb(62,43,25)" height="41px" width="41px" x="480px" y="840px" /><rect fill="rgb(125,80,12)" height="41px" width="41px" x="520px" y="840px" /><rect fill="rgb(114,74,13)" height="41px" width="41px" x="560px" y="840px" /><rect fill="rgb(117,75,13)" height="41px" width="41px" x="600px" y="840px" /><rect fill="rgb(122,78,12)" height="41px" width="41px" x="640px" y="840px" /><rect fill="rgb(120,77,13)" height="41px" width="41px" x="680px" y="840px" /><rect fill="rgb(61,43,24)" height="41px" width="41px" x="720px" y="840px" /><rect fill="rgb(109,71,14)" height="41px" opacity="0.0196078431373" width="41px" x="760px" y="840px" /><rect fill="rgb(60,42,24)" height="41px" width="41px" x="880px" y="840px" /><rect fill="rgb(67,46,23)" height="41px" width="41px" x="920px" y="840px" /><rect fill="rgb(69,47,23)" height="41px" width="41px" x="960px" y="840px" /><rect fill="rgb(74,50,22)" height="41px" width="41px" x="1000px" y="840px" /><rect fill="rgb(72,49,22)" height="41px" width="41px" x="1040px" y="840px" /><rect fill="rgb(65,45,23)" height="41px" width="41px" x="1080px" y="840px" /><rect fill="rgb(64,44,24)" height="41px" width="41px" x="1120px" y="840px" /><rect fill="rgb(61,43,24)" height="41px" width="41px" x="1160px" y="840px" /><rect fill="rgb(65,45,23)" height="41px" width="41px" x="1200px" y="840px" /><rect fill="rgb(175,132,85)" height="41px" width="41px" x="80px" y="880px" /><rect fill="rgb(164,122,76)" height="41px" width="41px" x="120px" y="880px" /><rect fill="rgb(177,133,86)" height="41px" width="41px" x="160px" y="880px" /><rect fill="rgb(179,135,88)" height="41px" width="41px" x="200px" y="880px" /><rect fill="rgb(179,135,88)" height="41px" width="41px" x="240px" y="880px" /><rect fill="rgb(174,130,84)" height="41px" width="41px" x="280px" y="880px" /><rect fill="rgb(177,133,87)" height="41px" width="41px" x="320px" y="880px" /><rect fill="rgb(95,72,49)" height="41px" opacity="0.0352941176471" width="41px" x="440px" y="880px" /><rect fill="rgb(60,42,24)" height="41px" width="41px" x="480px" y="880px" /><rect fill="rgb(118,76,13)" height="41px" width="41px" x="520px" y="880px" /><rect fill="rgb(125,80,12)" height="41px" width="41px" x="560px" y="880px" /><rect fill="rgb(60,42,24)" height="41px" width="41px" x="600px" y="880px" /><rect fill="rgb(123,79,12)" height="41px" width="41px" x="640px" y="880px" /><rect fill="rgb(118,76,13)" height="41px" width="41px" x="680px" y="880px" /><rect fill="rgb(65,45,23)" height="41px" width="41px" x="720px" y="880px" /><rect fill="rgb(109,71,14)" height="41px" opacity="0.078431372549" width="41px" x="760px" y="880px" /><rect fill="rgb(169,126,80)" height="41px" width="41px" x="920px" y="880px" /><rect fill="rgb(174,131,84)" height="41px" width="41px" x="960px" y="880px" /><rect fill="rgb(169,127,80)" height="41px" width="41px" x="1000px" y="880px" /><rect fill="rgb(170,128,81)" height="41px" width="41px" x="1040px" y="880px" /><rect fill="rgb(177,133,87)" height="41px" width="41px" x="1080px" y="880px" /><rect fill="rgb(174,130,84)" height="41px" width="41px" x="1120px" y="880px" /><rect fill="rgb(170,128,81)" height="41px" width="41px" x="1160px" y="880px" /><rect fill="rgb(109,71,14)" height="41px" opacity="0.125490196078" width="41px" x="1200px" y="880px" /><rect fill="rgb(60,42,24)" height="41px" width="41px" x="40px" y="920px" /><rect fill="rgb(60,42,24)" height="41px" width="41px" x="80px" y="920px" /><rect fill="rgb(60,42,24)" height="41px" width="41px" x="120px" y="920px" /><rect fill="rgb(60,42,24)" height="41px" width="41px" x="160px" y="920px" /><rect fill="rgb(60,42,24)" height="41px" width="41px" x="200px" y="920px" /><rect fill="rgb(60,42,24)" height="41px" width="41px" x="240px" y="920px" /><rect fill="rgb(63,43,24)" height="41px" width="41px" x="280px" y="920px" /><rect fill="rgb(60,42,24)" height="41px" width="41px" x="320px" y="920px" /><rect fill="rgb(60,42,24)" height="41px" width="41px" x="360px" y="920px" /><rect fill="rgb(60,42,24)" height="41px" width="41px" x="480px" y="920px" /><rect fill="rgb(125,80,12)" height="41px" width="41px" x="520px" y="920px" /><rect fill="rgb(60,42,24)" height="41px" width="41px" x="560px" y="920px" /><rect fill="rgb(60,42,24)" height="41px" width="41px" x="600px" y="920px" /><rect fill="rgb(60,42,24)" height="41px" width="41px" x="640px" y="920px" /><rect fill="rgb(124,79,12)" height="41px" width="41px" x="680px" y="920px" /><rect fill="rgb(60,42,24)" height="41px" width="41px" x="720px" y="920px" /><rect fill="rgb(60,42,24)" height="41px" width="41px" x="880px" y="920px" /><rect fill="rgb(65,45,23)" height="41px" width="41px" x="920px" y="920px" /><rect fill="rgb(62,43,24)" height="41px" width="41px" x="960px" y="920px" /><rect fill="rgb(71,48,23)" height="41px" width="41px" x="1000px" y="920px" /><rect fill="rgb(63,43,24)" height="41px" width="41px" x="1040px" y="920px" /><rect fill="rgb(60,42,24)" height="41px" width="41px" x="1080px" y="920px" /><rect fill="rgb(60,42,24)" height="41px" width="41px" x="1120px" y="920px" /><rect fill="rgb(66,45,23)" height="41px" width="41px" x="1160px" y="920px" /><rect fill="rgb(63,44,24)" height="41px" width="41px" x="1200px" y="920px" /><rect fill="rgb(60,42,24)" height="41px" width="41px" x="40px" y="960px" /><rect fill="rgb(125,80,12)" height="41px" width="41px" x="80px" y="960px" /><rect fill="rgb(121,78,13)" height="41px" width="41px" x="120px" y="960px" /><rect fill="rgb(122,78,12)" height="41px" width="41px" x="160px" y="960px" /><rect fill="rgb(124,80,12)" height="41px" width="41px" x="200px" y="960px" /><rect fill="rgb(121,78,13)" height="41px" width="41px" x="240px" y="960px" /><rect fill="rgb(124,80,12)" height="41px" width="41px" x="280px" y="960px" /><rect fill="rgb(124,80,12)" height="41px" width="41px" x="320px" y="960px" /><rect fill="rgb(60,42,24)" height="41px" width="41px" x="360px" y="960px" /><rect fill="rgb(60,42,24)" height="41px" width="41px" x="400px" y="960px" /><rect fill="rgb(60,42,24)" height="41px" width="41px" x="440px" y="960px" /><rect fill="rgb(60,42,24)" height="41px" width="41px" x="480px" y="960px" /><rect fill="rgb(60,42,24)" height="41px" width="41px" x="520px" y="960px" /><rect fill="rgb(60,42,24)" height="41px" width="41px" x="560px" y="960px" /><rect fill="rgb(60,42,24)" height="41px" width="41px" x="600px" y="960px" /><rect fill="rgb(60,42,24)" height="41px" width="41px" x="640px" y="960px" /><rect fill="rgb(60,42,24)" height="41px" width="41px" x="680px" y="960px" /><rect fill="rgb(60,42,24)" height="41px" width="41px" x="720px" y="960px" /><rect fill="rgb(60,42,24)" height="41px" width="41px" x="760px" y="960px" /><rect fill="rgb(60,42,24)" height="41px" width="41px" x="800px" y="960px" /><rect fill="rgb(60,42,24)" height="41px" width="41px" x="840px" y="960px" /><rect fill="rgb(60,42,24)" height="41px" width="41px" x="880px" y="960px" /><rect fill="rgb(119,76,13)" height="41px" width="41px" x="920px" y="960px" /><rect fill="rgb(120,77,13)" height="41px" width="41px" x="960px" y="960px" /><rect fill="rgb(118,76,13)" height="41px" width="41px" x="1000px" y="960px" /><rect fill="rgb(122,79,12)" height="41px" width="41px" x="1040px" y="960px" /><rect fill="rgb(120,77,13)" height="41px" width="41px" x="1080px" y="960px" /><rect fill="rgb(118,76,13)" height="41px" width="41px" x="1120px" y="960px" /><rect fill="rgb(121,77,13)" height="41px" width="41px" x="1160px" y="960px" /><rect fill="rgb(60,42,24)" height="41px" width="41px" x="1200px" y="960px" /><rect fill="rgb(60,42,24)" height="41px" width="41px" x="40px" y="1000px" /><rect fill="rgb(125,80,12)" height="41px" width="41px" x="80px" y="1000px" /><rect fill="rgb(121,78,13)" height="41px" width="41px" x="120px" y="1000px" /><rect fill="rgb(122,78,12)" height="41px" width="41px" x="160px" y="1000px" /><rect fill="rgb(124,80,12)" height="41px" width="41px" x="200px" y="1000px" /><rect fill="rgb(121,78,13)" height="41px" width="41px" x="240px" y="1000px" /><rect fill="rgb(122,78,12)" height="41px" width="41px" x="280px" y="1000px" /><rect fill="rgb(122,78,12)" height="41px" width="41px" x="320px" y="1000px" /><rect fill="rgb(60,42,24)" height="41px" width="41px" x="360px" y="1000px" /><rect fill="rgb(121,78,13)" height="41px" width="41px" x="400px" y="1000px" /><rect fill="rgb(121,78,13)" height="41px" width="41px" x="440px" y="1000px" /><rect fill="rgb(122,78,12)" height="41px" width="41px" x="480px" y="1000px" /><rect fill="rgb(63,43,24)" height="41px" width="41px" x="520px" y="1000px" /><rect fill="rgb(69,56,40)" height="41px" width="41px" x="560px" y="1000px" /><rect fill="rgb(72,57,39)" height="41px" width="41px" x="600px" y="1000px" /><rect fill="rgb(68,55,41)" height="41px" width="41px" x="640px" y="1000px" /><rect fill="rgb(60,42,24)" height="41px" width="41px" x="680px" y="1000px" /><rect fill="rgb(124,79,12)" height="41px" width="41px" x="720px" y="1000px" /><rect fill="rgb(123,79,12)" height="41px" width="41px" x="760px" y="1000px" /><rect fill="rgb(123,79,12)" height="41px" width="41px" x="800px" y="1000px" /><rect fill="rgb(124,79,12)" height="41px" width="41px" x="840px" y="1000px" /><rect fill="rgb(60,42,24)" height="41px" width="41px" x="880px" y="1000px" /><rect fill="rgb(119,76,13)" height="41px" width="41px" x="920px" y="1000px" /><rect fill="rgb(120,77,13)" height="41px" width="41px" x="960px" y="1000px" /><rect fill="rgb(118,76,13)" height="41px" width="41px" x="1000px" y="1000px" /><rect fill="rgb(121,78,13)" height="41px" width="41px" x="1040px" y="1000px" /><rect fill="rgb(118,76,13)" height="41px" width="41px" x="1080px" y="1000px" /><rect fill="rgb(118,76,13)" height="41px" width="41px" x="1120px" y="1000px" /><rect fill="rgb(121,77,13)" height="41px" width="41px" x="1160px" y="1000px" /><rect fill="rgb(60,42,24)" height="41px" width="41px" x="1200px" y="1000px" /><rect fill="rgb(60,42,24)" height="41px" width="41px" x="40px" y="1040px" /><rect fill="rgb(125,80,12)" height="41px" width="41px" x="80px" y="1040px" /><rect fill="rgb(57,52,44)" height="41px" width="41px" x="120px" y="1040px" /><rect fill="rgb(125,80,12)" height="41px" width="41px" x="160px" y="1040px" /><rect fill="rgb(57,52,44)" height="41px" width="41px" x="200px" y="1040px" /><rect fill="rgb(125,80,12)" height="41px" width="41px" x="240px" y="1040px" /><rect fill="rgb(57,52,44)" height="41px" width="41px" x="280px" y="1040px" /><rect fill="rgb(125,80,12)" height="41px" width="41px" x="320px" y="1040px" /><rect fill="rgb(60,42,24)" height="41px" width="41px" x="360px" y="1040px" /><rect fill="rgb(121,78,13)" height="41px" width="41px" x="400px" y="1040px" /><rect fill="rgb(120,77,13)" height="41px" width="41px" x="440px" y="1040px" /><rect fill="rgb(115,74,13)" height="41px" width="41px" x="480px" y="1040px" /><rect fill="rgb(60,42,24)" height="41px" width="41px" x="520px" y="1040px" /><rect fill="rgb(71,56,40)" height="41px" width="41px" x="560px" y="1040px" /><rect fill="rgb(74,57,39)" height="41px" width="41px" x="600px" y="1040px" /><rect fill="rgb(66,55,41)" height="41px" width="41px" x="640px" y="1040px" /><rect fill="rgb(60,42,24)" height="41px" width="41px" x="680px" y="1040px" /><rect fill="rgb(124,79,12)" height="41px" width="41px" x="720px" y="1040px" /><rect fill="rgb(116,75,13)" height="41px" width="41px" x="760px" y="1040px" /><rect fill="rgb(122,78,12)" height="41px" width="41px" x="800px" y="1040px" /><rect fill="rgb(122,78,12)" height="41px" width="41px" x="840px" y="1040px" /><rect fill="rgb(60,42,24)" height="41px" width="41px" x="880px" y="1040px" /><rect fill="rgb(122,78,12)" height="41px" width="41px" x="920px" y="1040px" /><rect fill="rgb(57,52,44)" height="41px" width="41px" x="960px" y="1040px" /><rect fill="rgb(125,80,12)" height="41px" width="41px" x="1000px" y="1040px" /><rect fill="rgb(57,52,44)" height="41px" width="41px" x="1040px" y="1040px" /><rect fill="rgb(119,77,13)" height="41px" width="41px" x="1080px" y="1040px" /><rect fill="rgb(57,52,44)" height="41px" width="41px" x="1120px" y="1040px" /><rect fill="rgb(122,78,12)" height="41px" width="41px" x="1160px" y="1040px" /><rect fill="rgb(60,42,24)" height="41px" width="41px" x="1200px" y="1040px" /><rect fill="rgb(60,42,24)" height="41px" width="41px" x="40px" y="1080px" /><rect fill="rgb(125,80,12)" height="41px" width="41px" x="80px" y="1080px" /><rect fill="rgb(57,52,44)" height="41px" width="41px" x="120px" y="1080px" /><rect fill="rgb(125,80,12)" height="41px" width="41px" x="160px" y="1080px" /><rect fill="rgb(57,52,44)" height="41px" width="41px" x="200px" y="1080px" /><rect fill="rgb(125,80,12)" height="41px" width="41px" x="240px" y="1080px" /><rect fill="rgb(57,52,44)" height="41px" width="41px" x="280px" y="1080px" /><rect fill="rgb(125,80,12)" height="41px" width="41px" x="320px" y="1080px" /><rect fill="rgb(60,42,24)" height="41px" width="41px" x="360px" y="1080px" /><rect fill="rgb(119,77,13)" height="41px" width="41px" x="400px" y="1080px" /><rect fill="rgb(120,77,13)" height="41px" width="41px" x="440px" y="1080px" /><rect fill="rgb(125,80,12)" height="41px" width="41px" x="480px" y="1080px" /><rect fill="rgb(60,42,24)" height="41px" width="41px" x="520px" y="1080px" /><rect fill="rgb(67,55,41)" height="41px" width="41px" x="560px" y="1080px" /><rect fill="rgb(71,56,40)" height="41px" width="41px" x="600px" y="1080px" /><rect fill="rgb(66,55,42)" height="41px" width="41px" x="640px" y="1080px" /><rect fill="rgb(60,42,24)" height="41px" width="41px" x="680px" y="1080px" /><rect fill="rgb(125,80,12)" height="41px" width="41px" x="720px" y="1080px" /><rect fill="rgb(122,78,12)" height="41px" width="41px" x="760px" y="1080px" /><rect fill="rgb(119,76,13)" height="41px" width="41px" x="800px" y="1080px" /><rect fill="rgb(122,78,12)" height="41px" width="41px" x="840px" y="1080px" /><rect fill="rgb(60,42,24)" height="41px" width="41px" x="880px" y="1080px" /><rect fill="rgb(122,78,12)" height="41px" width="41px" x="920px" y="1080px" /><rect fill="rgb(57,52,44)" height="41px" width="41px" x="960px" y="1080px" /><rect fill="rgb(125,80,12)" height="41px" width="41px" x="1000px" y="1080px" /><rect fill="rgb(57,52,44)" height="41px" width="41px" x="1040px" y="1080px" /><rect fill="rgb(119,77,13)" height="41px" width="41px" x="1080px" y="1080px" /><rect fill="rgb(57,52,44)" height="41px" width="41px" x="1120px" y="1080px" /><rect fill="rgb(122,78,12)" height="41px" width="41px" x="1160px" y="1080px" /><rect fill="rgb(60,42,24)" height="41px" width="41px" x="1200px" y="1080px" /><rect fill="rgb(60,42,24)" height="41px" width="41px" x="40px" y="1120px" /><rect fill="rgb(125,80,12)" height="41px" width="41px" x="80px" y="1120px" /><rect fill="rgb(123,79,12)" height="41px" width="41px" x="120px" y="1120px" /><rect fill="rgb(122,78,12)" height="41px" width="41px" x="160px" y="1120px" /><rect fill="rgb(125,80,12)" height="41px" width="41px" x="200px" y="1120px" /><rect fill="rgb(120,77,13)" height="41px" width="41px" x="240px" y="1120px" /><rect fill="rgb(124,79,12)" height="41px" width="41px" x="280px" y="1120px" /><rect fill="rgb(125,80,12)" height="41px" width="41px" x="320px" y="1120px" /><rect fill="rgb(60,42,24)" height="41px" width="41px" x="360px" y="1120px" /><rect fill="rgb(117,75,13)" height="41px" width="41px" x="400px" y="1120px" /><rect fill="rgb(120,77,13)" height="41px" width="41px" x="440px" y="1120px" /><rect fill="rgb(125,80,12)" height="41px" width="41px" x="480px" y="1120px" /><rect fill="rgb(63,43,24)" height="41px" width="41px" x="520px" y="1120px" /><rect fill="rgb(67,55,41)" height="41px" width="41px" x="560px" y="1120px" /><rect fill="rgb(63,54,42)" height="41px" width="41px" x="600px" y="1120px" /><rect fill="rgb(63,54,42)" height="41px" width="41px" x="640px" y="1120px" /><rect fill="rgb(60,42,24)" height="41px" width="41px" x="680px" y="1120px" /><rect fill="rgb(123,79,12)" height="41px" width="41px" x="720px" y="1120px" /><rect fill="rgb(121,77,13)" height="41px" width="41px" x="760px" y="1120px" /><rect fill="rgb(122,78,12)" height="41px" width="41px" x="800px" y="1120px" /><rect fill="rgb(123,79,12)" height="41px" width="41px" x="840px" y="1120px" /><rect fill="rgb(60,42,24)" height="41px" width="41px" x="880px" y="1120px" /><rect fill="rgb(121,78,13)" height="41px" width="41px" x="920px" y="1120px" /><rect fill="rgb(116,75,13)" height="41px" width="41px" x="960px" y="1120px" /><rect fill="rgb(120,77,13)" height="41px" width="41px" x="1000px" y="1120px" /><rect fill="rgb(121,78,13)" height="41px" width="41px" x="1040px" y="1120px" /><rect fill="rgb(120,77,13)" height="41px" width="41px" x="1080px" y="1120px" /><rect fill="rgb(120,77,13)" height="41px" width="41px" x="1120px" y="1120px" /><rect fill="rgb(124,80,12)" height="41px" width="41px" x="1160px" y="1120px" /><rect fill="rgb(60,42,24)" height="41px" width="41px" x="1200px" y="1120px" /><rect fill="rgb(60,42,24)" height="41px" width="41px" x="40px" y="1160px" /><rect fill="rgb(118,76,13)" height="41px" width="41px" x="80px" y="1160px" /><rect fill="rgb(121,78,12)" height="41px" width="41px" x="120px" y="1160px" /><rect fill="rgb(123,79,12)" height="41px" width="41px" x="160px" y="1160px" /><rect fill="rgb(125,80,12)" height="41px" width="41px" x="200px" y="1160px" /><rect fill="rgb(121,78,13)" height="41px" width="41px" x="240px" y="1160px" /><rect fill="rgb(124,79,12)" height="41px" width="41px" x="280px" y="1160px" /><rect fill="rgb(125,80,12)" height="41px" width="41px" x="320px" y="1160px" /><rect fill="rgb(60,42,24)" height="41px" width="41px" x="360px" y="1160px" /><rect fill="rgb(121,78,13)" height="41px" width="41px" x="400px" y="1160px" /><rect fill="rgb(117,75,13)" height="41px" width="41px" x="440px" y="1160px" /><rect fill="rgb(179,135,88)" height="41px" width="41px" x="480px" y="1160px" /><rect fill="rgb(169,126,80)" height="41px" width="41px" x="520px" y="1160px" /><rect fill="rgb(175,132,85)" height="41px" width="41px" x="560px" y="1160px" /><rect fill="rgb(169,126,80)" height="41px" width="41px" x="600px" y="1160px" /><rect fill="rgb(169,126,80)" height="41px" width="41px" x="640px" y="1160px" /><rect fill="rgb(175,132,85)" height="41px" width="41px" x="680px" y="1160px" /><rect fill="rgb(169,126,80)" height="41px" width="41px" x="720px" y="1160px" /><rect fill="rgb(118,76,13)" height="41px" width="41px" x="760px" y="1160px" /><rect fill="rgb(121,78,13)" height="41px" width="41px" x="800px" y="1160px" /><rect fill="rgb(121,78,13)" height="41px" width="41px" x="840px" y="1160px" /><rect fill="rgb(63,44,24)" height="41px" width="41px" x="880px" y="1160px" /><rect fill="rgb(116,75,13)" height="41px" width="41px" x="920px" y="1160px" /><rect fill="rgb(118,76,13)" height="41px" width="41px" x="960px" y="1160px" /><rect fill="rgb(119,77,13)" height="41px" width="41px" x="1000px" y="1160px" /><rect fill="rgb(120,77,13)" height="41px" width="41px" x="1040px" y="1160px" /><rect fill="rgb(122,78,12)" height="41px" width="41px" x="1080px" y="1160px" /><rect fill="rgb(121,78,13)" height="41px" width="41px" x="1120px" y="1160px" /><rect fill="rgb(123,79,12)" height="41px" width="41px" x="1160px" y="1160px" /><rect fill="rgb(60,42,24)" height="41px" width="41px" x="1200px" y="1160px" /><rect fill="rgb(60,42,24)" height="41px" width="41px" x="40px" y="1200px" /><rect fill="rgb(123,79,12)" height="41px" width="41px" x="80px" y="1200px" /><rect fill="rgb(124,80,12)" height="41px" width="41px" x="120px" y="1200px" /><rect fill="rgb(57,52,44)" height="41px" width="41px" x="160px" y="1200px" /><rect fill="rgb(57,52,44)" height="41px" width="41px" x="200px" y="1200px" /><rect fill="rgb(125,80,12)" height="41px" width="41px" x="240px" y="1200px" /><rect fill="rgb(118,76,13)" height="41px" width="41px" x="280px" y="1200px" /><rect fill="rgb(124,79,12)" height="41px" width="41px" x="320px" y="1200px" /><rect fill="rgb(60,42,24)" height="41px" width="41px" x="360px" y="1200px" /><rect fill="rgb(125,80,12)" height="41px" width="41px" x="400px" y="1200px" /><rect fill="rgb(135,108,80)" height="41px" width="41px" x="440px" y="1200px" /><rect fill="rgb(136,108,81)" height="41px" width="41px" x="480px" y="1200px" /><rect fill="rgb(135,108,80)" height="41px" width="41px" x="520px" y="1200px" /><rect fill="rgb(137,110,82)" height="41px" width="41px" x="560px" y="1200px" /><rect fill="rgb(133,105,76)" height="41px" width="41px" x="600px" y="1200px" /><rect fill="rgb(136,109,81)" height="41px" width="41px" x="640px" y="1200px" /><rect fill="rgb(135,108,80)" height="41px" width="41px" x="680px" y="1200px" /><rect fill="rgb(138,111,84)" height="41px" width="41px" x="720px" y="1200px" /><rect fill="rgb(138,111,84)" height="41px" width="41px" x="760px" y="1200px" /><rect fill="rgb(123,79,12)" height="41px" width="41px" x="800px" y="1200px" /><rect fill="rgb(120,77,13)" height="41px" width="41px" x="840px" y="1200px" /><rect fill="rgb(63,44,24)" height="41px" width="41px" x="880px" y="1200px" /><rect fill="rgb(119,77,13)" height="41px" width="41px" x="920px" y="1200px" /><rect fill="rgb(119,77,13)" height="41px" width="41px" x="960px" y="1200px" /><rect fill="rgb(119,77,13)" height="41px" width="41px" x="1000px" y="1200px" /><rect fill="rgb(57,52,44)" height="41px" width="41px" x="1040px" y="1200px" /><rect fill="rgb(57,52,44)" height="41px" width="41px" x="1080px" y="1200px" /><rect fill="rgb(118,76,13)" height="41px" width="41px" x="1120px" y="1200px" /><rect fill="rgb(116,75,13)" height="41px" width="41px" x="1160px" y="1200px" /><rect fill="rgb(65,45,23)" height="41px" width="41px" x="1200px" y="1200px" /><rect fill="rgb(60,42,24)" height="41px" width="41px" x="40px" y="1240px" /><rect fill="rgb(125,80,12)" height="41px" width="41px" x="80px" y="1240px" /><rect fill="rgb(125,80,12)" height="41px" width="41px" x="120px" y="1240px" /><rect fill="rgb(57,52,44)" height="41px" width="41px" x="160px" y="1240px" /><rect fill="rgb(57,52,44)" height="41px" width="41px" x="200px" y="1240px" /><rect fill="rgb(125,80,12)" height="41px" width="41px" x="240px" y="1240px" /><rect fill="rgb(119,76,13)" height="41px" width="41px" x="280px" y="1240px" /><rect fill="rgb(121,78,13)" height="41px" width="41px" x="320px" y="1240px" /><rect fill="rgb(60,42,24)" height="41px" width="41px" x="360px" y="1240px" /><rect fill="rgb(175,131,85)" height="41px" width="41px" x="400px" y="1240px" /><rect fill="rgb(169,126,80)" height="41px" width="41px" x="440px" y="1240px" /><rect fill="rgb(170,127,81)" height="41px" width="41px" x="480px" y="1240px" /><rect fill="rgb(179,135,88)" height="41px" width="41px" x="520px" y="1240px" /><rect fill="rgb(169,126,80)" height="41px" width="41px" x="560px" y="1240px" /><rect fill="rgb(175,132,85)" height="41px" width="41px" x="600px" y="1240px" /><rect fill="rgb(179,135,88)" height="41px" width="41px" x="640px" y="1240px" /><rect fill="rgb(174,130,84)" height="41px" width="41px" x="680px" y="1240px" /><rect fill="rgb(179,135,88)" height="41px" width="41px" x="720px" y="1240px" /><rect fill="rgb(177,133,87)" height="41px" width="41px" x="760px" y="1240px" /><rect fill="rgb(173,130,83)" height="41px" width="41px" x="800px" y="1240px" /><rect fill="rgb(175,131,85)" height="41px" width="41px" x="840px" y="1240px" /><rect fill="rgb(60,42,24)" height="41px" width="41px" x="880px" y="1240px" /><rect fill="rgb(120,77,13)" height="41px" width="41px" x="920px" y="1240px" /><rect fill="rgb(120,77,13)" height="41px" width="41px" x="960px" y="1240px" /><rect fill="rgb(117,76,13)" height="41px" width="41px" x="1000px" y="1240px" /><rect fill="rgb(57,52,44)" height="41px" width="41px" x="1040px" y="1240px" /><rect fill="rgb(57,52,44)" height="41px" width="41px" x="1080px" y="1240px" /><rect fill="rgb(121,78,12)" height="41px" width="41px" x="1120px" y="1240px" /><rect fill="rgb(119,77,13)" height="41px" width="41px" x="1160px" y="1240px" /><rect fill="rgb(60,42,24)" height="41px" width="41px" x="1200px" y="1240px" /></svg>