<?xml version="1.0" encoding="utf-8" ?>
<svg baseProfile="full" height="1280px" version="1.1" width="1280px" xmlns="http://www.w3.org/2000/svg" xmlns:ev="http://www.w3.org/2001/xml-events" xmlns:xlink="http://www.w3.org/1999/xlink"><defs /><rect fill="rgb(230,49,14)" height="41px" width="41px" x="880px" y="600px" /><rect fill="rgb(172,32,5)" height="41px" opacity="0.043137254902" width="41px" x="920px" y="600px" /><rect fill="rgb(232,50,14)" height="41px" width="41px" x="1040px" y="600px" /><rect fill="rgb(230,49,13)" height="41px" width="41px" x="880px" y="640px" /><rect fill="rgb(221,47,11)" height="41px" width="41px" x="920px" y="640px" /><rect fill="rgb(232,50,14)" height="41px" width="41px" x="960px" y="640px" /><rect fill="rgb(232,50,14)" height="41px" width="41px" x="1000px" y="640px" /><rect fill="rgb(228,49,13)" height="41px" width="41px" x="1040px" y="640px" /><rect fill="rgb(172,32,5)" height="41px" opacity="0.043137254902" width="41px" x="1080px" y="640px" /><rect fill="rgb(187,179,171)" height="41px" width="41px" x="200px" y="680px" /><rect fill="rgb(163,156,148)" height="41px" width="41px" x="240px" y="680px" /><rect fill="rgb(156,149,141)" height="41px" width="41px" x="280px" y="680px" /><rect fill="rgb(156,149,141)" height="41px" width="41px" x="320px" y="680px" /><rect fill="rgb(187,179,171)" height="41px" width="41px" x="360px" y="680px" /><rect fill="rgb(232,50,14)" height="41px" width="41px" x="840px" y="680px" /><rect fill="rgb(228,48,13)" height="41px" width="41px" x="880px" y="680px" /><rect fill="rgb(229,49,14)" height="41px" width="41px" x="920px" y="680px" /><rect fill="rgb(228,49,13)" height="41px" width="41px" x="960px" y="680px" /><rect fill="rgb(233,50,14)" height="41px" width="41px" x="1000px" y="680px" /><rect fill="rgb(232,50,14)" height="41px" width="41px" x="1040px" y="680px" /><rect fill="rgb(235,51,14)" height="41px" width="41px" x="1080px" y="680px" /><rect fill="rgb(187,179,171)" height="41px" width="41px" x="160px" y="720px" /><rect fill="rgb(161,154,146)" height="41px" width="41px" x="200px" y="720px" /><rect fill="rgb(185,177,169)" height="41px" width="41px" x="240px" y="720px" /><rect fill="rgb(156,149,141)" height="41px" width="41px" x="280px" y="720px" /><rect fill="rgb(187,179,171)" height="41px" width="41px" x="320px" y="720px" /><rect fill="rgb(156,149,141)" height="41px" width="41px" x="360px" y="720px" /><rect fill="rgb(187,179,171)" height="41px" width="41px" x="400px" y="720px" /><rect fill="rgb(187,179,171)" height="41px" width="41px" x="440px" y="720px" /><rect fill="rgb(218,185,121)" height="41px" width="41px" x="880px" y="720px" /><rect fill="rgb(218,185,121)" height="41px" width="41px" x="920px" y="720px" /><rect fill="rgb(172,32,5)" height="41px" width="41px" x="960px" y="720px" /><rect fill="rgb(218,185,121)" height="41px" width="41px" x="1000px" y="720px" /><rect fill="rgb(218,185,121)" height="41px" width="41px" x="1040px" y="720px" /><rect fill="rgb(187,179,171)" height="41px" width="41px" x="120px" y="760px" /><rect fill="rgb(162,155,147)" height="41px" width="41px" x="160px" y="760px" /><rect fill="rgb(181,174,166)" height="41px" width="41px" x="200px" y="760px" /><rect fill="rgb(185,177,169)" height="41px" width="41px" x="240px" y="760px" /><rect fill="rgb(156,149,141)" height="41px" width="41px" x="280px" y="760px" /><rect fill="rgb(183,176,168)" height="41px" width="41px" x="320px" y="760px" /><rect fill="rgb(183,175,167)" height="41px" width="41px" x="360px" y="760px" /><rect fill="rgb(163,156,148)" height="41px" width="41px" x="400px" y="760px" /><rect fill="rgb(187,179,171)" height="41px" width="41px" x="440px" y="760px" /><rect fill="rgb(187,179,171)" height="41px" width="41px" x="480px" y="760px" /><rect fill="rgb(87,81,75)" height="41px" opacity="0.0509803921569" width="41px" x="520px" y="760px" /><rect fill="rgb(87,81,75)" height="41px" opacity="0.0117647058824" width="41px" x="560px" y="760px" /><rect fill="rgb(218,185,121)" height="41px" width="41px" x="880px" y="760px" /><rect fill="rgb(218,185,121)" height="41px" width="41px" x="920px" y="760px" /><rect fill="rgb(172,32,5)" height="41px" width="41px" x="960px" y="760px" /><rect fill="rgb(218,185,121)" height="41px" width="41px" x="1000px" y="760px" /><rect fill="rgb(218,185,121)" height="41px" width="41px" x="1040px" y="760px" /><rect fill="rgb(187,179,171)" height="41px" width="41px" x="80px" y="800px" /><rect fill="rgb(163,156,148)" height="41px" width="41px" x="120px" y="800px" /><rect fill="rgb(186,178,170)" height="41px" width="41px" x="160px" y="800px" /><rect fill="rgb(183,176,168)" height="41px" width="41px" x="200px" y="800px" /><rect fill="rgb(163,156,148)" height="41px" width="41px" x="240px" y="800px" /><rect fill="rgb(156,149,141)" height="41px" width="41px" x="280px" y="800px" /><rect fill="rgb(155,148,140)" height="41px" width="41px" x="320px" y="800px" /><rect fill="rgb(185,177,169)" height="41px" width="41px" x="360px" y="800px" /><rect fill="rgb(187,179,171)" height="41px" width="41px" x="400px" y="800px" /><rect fill="rgb(163,156,148)" height="41px" width="41px" x="440px" y="800px" /><rect fill="rgb(187,179,171)" height="41px" width="41px" x="480px" y="800px" /><rect fill="rgb(183,176,168)" height="41px" width="41px" x="520px" y="800px" /><rect fill="rgb(87,81,75)" height="41px" opacity="0.0117647058824" width="41px" x="560px" y="800px" /><rect fill="rgb(218,185,121)" height="41px" width="41px" x="880px" y="800px" /><rect fill="rgb(218,185,121)" height="41px" width="41px" x="920px" y="800px" /><rect fill="rgb(172,32,5)" height="41px" width="41px" x="960px" y="800px" /><rect fill="rgb(218,185,121)" height="41px" width="41px" x="1000px" y="800px" /><rect fill="rgb(218,185,121)" height="41px" width="41px" x="1040px" y="800px" /><rect fill="rgb(187,179,171)" height="41px" width="41px" x="40px" y="840px" /><rect fill="rgb(162,155,147)" height="41px" width="41px" x="80px" y="840px" /><rect fill="rgb(183,176,168)" height="41px" width="41px" x="120px" y="840px" /><rect fill="rgb(187,179,171)" height="41px" width="41px" x="160px" y="840px" /><rect fill="rgb(170,163,155)" height="41px" width="41px" x="200px" y="840px" /><rect fill="rgb(187,179,171)" height="41px" width="41px" x="240px" y="840px" /><rect fill="rgb(163,156,148)" height="41px" width="41px" x="280px" y="840px" /><rect fill="rgb(187,179,171)" height="41px" width="41px" x="320px" y="840px" /><rect fill="rgb(150,143,135)" height="41px" width="41px" x="360px" y="840px" /><rect fill="rgb(183,176,168)" height="41px" width="41px" x="400px" y="840px" /><rect fill="rgb(175,168,160)" height="41px" width="41px" x="440px" y="840px" /><rect fill="rgb(157,150,143)" height="41px" width="41px" x="480px" y="840px" /><rect fill="rgb(183,175,167)" height="41px" width="41px" x="520px" y="840px" /><rect fill="rgb(183,175,167)" height="41px" width="41px" x="560px" y="840px" /><rect fill="rgb(217,48,15)" height="41px" width="41px" x="840px" y="840px" /><rect fill="rgb(208,45,13)" height="41px" width="41px" x="880px" y="840px" /><rect fill="rgb(232,50,14)" height="41px" width="41px" x="920px" y="840px" /><rect fill="rgb(222,52,19)" height="41px" width="41px" x="960px" y="840px" /><rect fill="rgb(211,59,28)" height="41px" width="41px" x="1000px" y="840px" /><rect fill="rgb(233,54,17)" height="41px" width="41px" x="1040px" y="840px" /><rect fill="rgb(220,47,12)" height="41px" width="41px" x="1080px" y="840px" /><rect fill="rgb(187,179,171)" height="41px" width="41px" x="0px" y="880px" /><rect fill="rgb(150,143,135)" height="41px" width="41px" x="40px" y="880px" /><rect fill="rgb(186,178,170)" height="41px" width="41px" x="80px" y="880px" /><rect fill="rgb(183,176,168)" height="41px" width="41px" x="120px" y="880px" /><rect fill="rgb(163,156,148)" height="41px" width="41px" x="160px" y="880px" /><rect fill="rgb(185,177,169)" height="41px" width="41px" x="200px" y="880px" /><rect fill="rgb(183,175,167)" height="41px" width="41px" x="240px" y="880px" /><rect fill="rgb(150,143,135)" height="41px" width="41px" x="280px" y="880px" /><rect fill="rgb(187,179,171)" height="41px" width="41px" x="320px" y="880px" /><rect fill="rgb(187,179,171)" height="41px" width="41px" x="360px" y="880px" /><rect fill="rgb(149,142,134)" height="41px" width="41px" x="400px" y="880px" /><rect fill="rgb(184,177,169)" height="41px" width="41px" x="440px" y="880px" /><rect fill="rgb(181,173,165)" height="41px" width="41px" x="480px" y="880px" /><rect fill="rgb(153,146,138)" height="41px" width="41px" x="520px" y="880px" /><rect fill="rgb(183,175,167)" height="41px" width="41px" x="560px" y="880px" /><rect fill="rgb(187,179,171)" height="41px" width="41px" x="600px" y="880px" /><rect fill="rgb(225,48,12)" height="41px" width="41px" x="800px" y="880px" /><rect fill="rgb(216,54,22)" height="41px" width="41px" x="840px" y="880px" /><rect fill="rgb(212,51,21)" height="41px" width="41px" x="880px" y="880px" /><rect fill="rgb(229,56,23)" height="41px" width="41px" x="920px" y="880px" /><rect fill="rgb(239,57,21)" height="41px" width="41px" x="960px" y="880px" /><rect fill="rgb(230,61,28)" height="41px" width="41px" x="1000px" y="880px" /><rect fill="rgb(228,62,27)" height="41px" width="41px" x="1040px" y="880px" /><rect fill="rgb(212,60,29)" height="41px" width="41px" x="1080px" y="880px" /><rect fill="rgb(210,61,30)" height="41px" width="41px" x="1120px" y="880px" /><rect fill="rgb(117,86,56)" height="41px" opacity="0.0235294117647" width="41px" x="1160px" y="880px" /><rect fill="rgb(168,158,148)" height="41px" width="41px" x="0px" y="920px" /><rect fill="rgb(142,134,124)" height="41px" width="41px" x="40px" y="920px" /><rect fill="rgb(165,155,145)" height="41px" width="41px" x="80px" y="920px" /><rect fill="rgb(167,157,147)" height="41px" width="41px" x="120px" y="920px" /><rect fill="rgb(142,134,124)" height="41px" width="41px" x="160px" y="920px" /><rect fill="rgb(168,158,148)" height="41px" width="41px" x="200px" y="920px" /><rect fill="rgb(168,158,148)" height="41px" width="41px" x="240px" y="920px" /><rect fill="rgb(148,139,129)" height="41px" width="41px" x="280px" y="920px" /><rect fill="rgb(168,158,148)" height="41px" width="41px" x="320px" y="920px" /><rect fill="rgb(168,158,148)" height="41px" width="41px" x="360px" y="920px" /><rect fill="rgb(148,139,129)" height="41px" width="41px" x="400px" y="920px" /><rect fill="rgb(168,158,148)" height="41px" width="41px" x="440px" y="920px" /><rect fill="rgb(168,158,148)" height="41px" width="41px" x="480px" y="920px" /><rect fill="rgb(148,139,129)" height="41px" width="41px" x="520px" y="920px" /><rect fill="rgb(168,158,148)" height="41px" width="41px" x="560px" y="920px" /><rect fill="rgb(168,158,148)" height="41px" width="41px" x="600px" y="920px" /><rect fill="rgb(117,86,56)" height="41px" opacity="0.078431372549" width="41px" x="720px" y="920px" /><rect fill="rgb(213,49,18)" height="41px" width="41px" x="760px" y="920px" /><rect fill="rgb(206,55,25)" height="41px" width="41px" x="800px" y="920px" /><rect fill="rgb(208,56,25)" height="41px" width="41px" x="840px" y="920px" /><rect fill="rgb(217,59,26)" height="41px" width="41px" x="880px" y="920px" /><rect fill="rgb(220,62,30)" height="41px" width="41px" x="920px" y="920px" /><rect fill="rgb(227,63,29)" height="41px" width="41px" x="960px" y="920px" /><rect fill="rgb(232,60,26)" height="41px" width="41px" x="1000px" y="920px" /><rect fill="rgb(236,60,24)" height="41px" width="41px" x="1040px" y="920px" /><rect fill="rgb(217,66,32)" height="41px" width="41px" x="1080px" y="920px" /><rect fill="rgb(210,61,29)" height="41px" width="41px" x="1120px" y="920px" /><rect fill="rgb(221,57,25)" height="41px" width="41px" x="1160px" y="920px" /><rect fill="rgb(172,32,5)" height="41px" opacity="0.043137254902" width="41px" x="1200px" y="920px" /><rect fill="rgb(164,154,145)" height="41px" width="41px" x="0px" y="960px" /><rect fill="rgb(142,134,124)" height="41px" width="41px" x="40px" y="960px" /><rect fill="rgb(165,155,145)" height="41px" width="41px" x="80px" y="960px" /><rect fill="rgb(167,157,147)" height="41px" width="41px" x="120px" y="960px" /><rect fill="rgb(142,134,124)" height="41px" width="41px" x="160px" y="960px" /><rect fill="rgb(168,158,148)" height="41px" width="41px" x="200px" y="960px" /><rect fill="rgb(164,154,145)" height="41px" width="41px" x="240px" y="960px" /><rect fill="rgb(157,149,141)" height="41px" width="41px" x="280px" y="960px" /><rect fill="rgb(168,158,148)" height="41px" width="41px" x="320px" y="960px" /><rect fill="rgb(170,160,151)" height="41px" width="41px" x="360px" y="960px" /><rect fill="rgb(157,149,141)" height="41px" width="41px" x="400px" y="960px" /><rect fill="rgb(168,158,148)" height="41px" width="41px" x="440px" y="960px" /><rect fill="rgb(169,160,150)" height="41px" width="41px" x="480px" y="960px" /><rect fill="rgb(148,139,129)" height="41px" width="41px" x="520px" y="960px" /><rect fill="rgb(168,158,148)" height="41px" width="41px" x="560px" y="960px" /><rect fill="rgb(171,161,152)" height="41px" width="41px" x="600px" y="960px" /><rect fill="rgb(172,32,5)" height="41px" width="41px" x="680px" y="960px" /><rect fill="rgb(172,32,5)" height="41px" width="41px" x="720px" y="960px" /><rect fill="rgb(172,32,5)" height="41px" width="41px" x="760px" y="960px" /><rect fill="rgb(172,32,5)" height="41px" width="41px" x="800px" y="960px" /><rect fill="rgb(172,32,5)" height="41px" width="41px" x="840px" y="960px" /><rect fill="rgb(172,32,5)" height="41px" width="41px" x="880px" y="960px" /><rect fill="rgb(172,32,5)" height="41px" width="41px" x="920px" y="960px" /><rect fill="rgb(172,32,5)" height="41px" width="41px" x="960px" y="960px" /><rect fill="rgb(172,32,5)" height="41px" width="41px" x="1000px" y="960px" /><rect fill="rgb(172,32,5)" height="41px" width="41px" x="1040px" y="960px" /><rect fill="rgb(172,32,5)" height="41px" width="41px" x="1080px" y="960px" /><rect fill="rgb(172,32,5)" height="41px" width="41px" x="1120px" y="960px" /><rect fill="rgb(172,32,5)" height="41px" width="41px" x="1160px" y="960px" /><rect fill="rgb(172,32,5)" height="41px" width="41px" x="1200px" y="960px" /><rect fill="rgb(172,32,5)" height="41px" width="41px" x="1240px" y="960px" /><rect fill="rgb(163,153,144)" height="41px" width="41px" x="0px" y="1000px" /><rect fill="rgb(142,134,124)" height="41px" width="41px" x="40px" y="1000px" /><rect fill="rgb(177,169,162)" height="41px" width="41px" x="80px" y="1000px" /><rect fill="rgb(177,169,162)" height="41px" width="41px" x="120px" y="1000px" /><rect fill="rgb(142,134,124)" height="41px" width="41px" x="160px" y="1000px" /><rect fill="rgb(164,154,145)" height="41px" width="41px" x="200px" y="1000px" /><rect fill="rgb(164,154,145)" height="41px" width="41px" x="240px" y="1000px" /><rect fill="rgb(152,143,134)" height="41px" width="41px" x="280px" y="1000px" /><rect fill="rgb(168,158,148)" height="41px" width="41px" x="320px" y="1000px" /><rect fill="rgb(164,154,145)" height="41px" width="41px" x="360px" y="1000px" /><rect fill="rgb(148,139,129)" height="41px" width="41px" x="400px" y="1000px" /><rect fill="rgb(169,160,150)" height="41px" width="41px" x="440px" y="1000px" /><rect fill="rgb(171,162,154)" height="41px" width="41px" x="480px" y="1000px" /><rect fill="rgb(148,139,129)" height="41px" width="41px" x="520px" y="1000px" /><rect fill="rgb(168,158,148)" height="41px" width="41px" x="560px" y="1000px" /><rect fill="rgb(171,162,154)" height="41px" width="41px" x="600px" y="1000px" /><rect fill="rgb(218,185,121)" height="41px" width="41px" x="720px" y="1000px" /><rect fill="rgb(117,86,56)" height="41px" width="41px" x="760px" y="1000px" /><rect fill="rgb(218,185,121)" height="41px" width="41px" x="800px" y="1000px" /><rect fill="rgb(218,185,121)" height="41px" width="41px" x="840px" y="1000px" /><rect fill="rgb(117,86,56)" height="41px" width="41px" x="880px" y="1000px" /><rect fill="rgb(218,185,121)" height="41px" width="41px" x="920px" y="1000px" /><rect fill="rgb(218,185,121)" height="41px" width="41px" x="960px" y="1000px" /><rect fill="rgb(117,86,56)" height="41px" width="41px" x="1000px" y="1000px" /><rect fill="rgb(218,185,121)" height="41px" width="41px" x="1040px" y="1000px" /><rect fill="rgb(218,185,121)" height="41px" width="41px" x="1080px" y="1000px" /><rect fill="rgb(218,185,121)" height="41px" width="41px" x="1120px" y="1000px" /><rect fill="rgb(117,86,56)" height="41px" width="41px" x="1160px" y="1000px" /><rect fill="rgb(211,179,117)" height="41px" width="41px" x="1200px" y="1000px" /><rect fill="rgb(164,154,145)" height="41px" width="41px" x="0px" y="1040px" /><rect fill="rgb(142,134,124)" height="41px" width="41px" x="40px" y="1040px" /><rect fill="rgb(168,158,148)" height="41px" width="41px" x="80px" y="1040px" /><rect fill="rgb(168,158,148)" height="41px" width="41px" x="120px" y="1040px" /><rect fill="rgb(142,134,124)" height="41px" width="41px" x="160px" y="1040px" /><rect fill="rgb(168,158,148)" height="41px" width="41px" x="200px" y="1040px" /><rect fill="rgb(168,158,148)" height="41px" width="41px" x="240px" y="1040px" /><rect fill="rgb(148,139,129)" height="41px" width="41px" x="280px" y="1040px" /><rect fill="rgb(168,158,148)" height="41px" width="41px" x="320px" y="1040px" /><rect fill="rgb(168,158,148)" height="41px" width="41px" x="360px" y="1040px" /><rect fill="rgb(148,139,129)" height="41px" width="41px" x="400px" y="1040px" /><rect fill="rgb(168,158,148)" height="41px" width="41px" x="440px" y="1040px" /><rect fill="rgb(168,158,148)" height="41px" width="41px" x="480px" y="1040px" /><rect fill="rgb(148,139,129)" height="41px" width="41px" x="520px" y="1040px" /><rect fill="rgb(168,158,148)" height="41px" width="41px" x="560px" y="1040px" /><rect fill="rgb(166,156,146)" height="41px" width="41px" x="600px" y="1040px" /><rect fill="rgb(218,185,121)" height="41px" width="41px" x="720px" y="1040px" /><rect fill="rgb(117,86,56)" height="41px" width="41px" x="760px" y="1040px" /><rect fill="rgb(218,185,121)" height="41px" width="41px" x="800px" y="1040px" /><rect fill="rgb(218,185,121)" height="41px" width="41px" x="840px" y="1040px" /><rect fill="rgb(117,86,56)" height="41px" width="41px" x="880px" y="1040px" /><rect fill="rgb(218,185,121)" height="41px" width="41px" x="920px" y="1040px" /><rect fill="rgb(218,185,121)" height="41px" width="41px" x="960px" y="1040px" /><rect fill="rgb(117,86,56)" height="41px" width="41px" x="1000px" y="1040px" /><rect fill="rgb(218,185,121)" height="41px" width="41px" x="1040px" y="1040px" /><rect fill="rgb(218,185,121)" height="41px" width="41px" x="1080px" y="1040px" /><rect fill="rgb(218,185,121)" height="41px" width="41px" x="1120px" y="1040px" /><rect fill="rgb(117,86,56)" height="41px" width="41px" x="1160px" y="1040px" /><rect fill="rgb(218,185,121)" height="41px" width="41px" x="1200px" y="1040px" /><rect fill="rgb(168,158,148)" height="41px" width="41px" x="0px" y="1080px" /><rect fill="rgb(142,134,124)" height="41px" width="41px" x="40px" y="1080px" /><rect fill="rgb(168,158,148)" height="41px" width="41px" x="80px" y="1080px" /><rect fill="rgb(168,158,148)" height="41px" width="41px" x="120px" y="1080px" /><rect fill="rgb(142,134,124)" height="41px" width="41px" x="160px" y="1080px" /><rect fill="rgb(199,86,69)" height="41px" width="41px" x="200px" y="1080px" /><rect fill="rgb(205,86,69)" height="41px" width="41px" x="240px" y="1080px" /><rect fill="rgb(217,86,69)" height="41px" width="41px" x="280px" y="1080px" /><rect fill="rgb(223,86,69)" height="41px" width="41px" x="320px" y="1080px" /><rect fill="rgb(168,158,148)" height="41px" width="41px" x="360px" y="1080px" /><rect fill="rgb(147,138,128)" height="41px" width="41px" x="400px" y="1080px" /><rect fill="rgb(165,155,145)" height="41px" width="41px" x="440px" y="1080px" /><rect fill="rgb(168,158,148)" height="41px" width="41px" x="480px" y="1080px" /><rect fill="rgb(148,139,129)" height="41px" width="41px" x="520px" y="1080px" /><rect fill="rgb(167,157,147)" height="41px" width="41px" x="560px" y="1080px" /><rect fill="rgb(164,154,145)" height="41px" width="41px" x="600px" y="1080px" /><rect fill="rgb(218,185,121)" height="41px" width="41px" x="720px" y="1080px" /><rect fill="rgb(117,86,56)" height="41px" width="41px" x="760px" y="1080px" /><rect fill="rgb(218,185,121)" height="41px" width="41px" x="800px" y="1080px" /><rect fill="rgb(218,185,121)" height="41px" width="41px" x="840px" y="1080px" /><rect fill="rgb(117,86,56)" height="41px" width="41px" x="880px" y="1080px" /><rect fill="rgb(218,185,121)" height="41px" width="41px" x="920px" y="1080px" /><rect fill="rgb(218,185,121)" height="41px" width="41px" x="960px" y="1080px" /><rect fill="rgb(117,86,56)" height="41px" width="41px" x="1000px" y="1080px" /><rect fill="rgb(218,185,121)" height="41px" width="41px" x="1040px" y="1080px" /><rect fill="rgb(218,185,121)" height="41px" width="41px" x="1080px" y="1080px" /><rect fill="rgb(218,185,121)" height="41px" width="41px" x="1120px" y="1080px" /><rect fill="rgb(117,86,56)" height="41px" width="41px" x="1160px" y="1080px" /><rect fill="rgb(218,185,121)" height="41px" width="41px" x="1200px" y="1080px" /><rect fill="rgb(168,158,148)" height="41px" width="41px" x="0px" y="1120px" /><rect fill="rgb(142,134,124)" height="41px" width="41px" x="40px" y="1120px" /><rect fill="rgb(163,153,144)" height="41px" width="41px" x="80px" y="1120px" /><rect fill="rgb(168,158,148)" height="41px" width="41px" x="120px" y="1120px" /><rect fill="rgb(142,134,124)" height="41px" width="41px" x="160px" y="1120px" /><rect fill="rgb(208,86,69)" height="41px" width="41px" x="200px" y="1120px" /><rect fill="rgb(213,86,69)" height="41px" width="41px" x="240px" y="1120px" /><rect fill="rgb(214,86,69)" height="41px" width="41px" x="280px" y="1120px" /><rect fill="rgb(221,86,69)" height="41px" width="41px" x="320px" y="1120px" /><rect fill="rgb(164,154,145)" height="41px" width="41px" x="360px" y="1120px" /><rect fill="rgb(147,138,128)" height="41px" width="41px" x="400px" y="1120px" /><rect fill="rgb(165,155,145)" height="41px" width="41px" x="440px" y="1120px" /><rect fill="rgb(168,158,148)" height="41px" width="41px" x="480px" y="1120px" /><rect fill="rgb(148,139,129)" height="41px" width="41px" x="520px" y="1120px" /><rect fill="rgb(168,158,148)" height="41px" width="41px" x="560px" y="1120px" /><rect fill="rgb(168,158,148)" height="41px" width="41px" x="600px" y="1120px" /><rect fill="rgb(218,185,121)" height="41px" width="41px" x="720px" y="1120px" /><rect fill="rgb(117,86,56)" height="41px" width="41px" x="760px" y="1120px" /><rect fill="rgb(218,185,121)" height="41px" width="41px" x="800px" y="1120px" /><rect fill="rgb(218,185,121)" height="41px" width="41px" x="840px" y="1120px" /><rect fill="rgb(117,86,56)" height="41px" width="41px" x="880px" y="1120px" /><rect fill="rgb(170,87,5)" height="41px" width="41px" x="920px" y="1120px" /><rect fill="rgb(170,87,5)" height="41px" width="41px" x="960px" y="1120px" /><rect fill="rgb(117,86,56)" height="41px" width="41px" x="1000px" y="1120px" /><rect fill="rgb(218,185,121)" height="41px" width="41px" x="1040px" y="1120px" /><rect fill="rgb(218,185,121)" height="41px" width="41px" x="1080px" y="1120px" /><rect fill="rgb(218,185,121)" height="41px" width="41px" x="1120px" y="1120px" /><rect fill="rgb(117,86,56)" height="41px" width="41px" x="1160px" y="1120px" /><rect fill="rgb(218,185,121)" height="41px" width="41px" x="1200px" y="1120px" /><rect fill="rgb(168,158,148)" height="41px" width="41px" x="0px" y="1160px" /><rect fill="rgb(142,134,124)" height="41px" width="41px" x="40px" y="1160px" /><rect fill="rgb(165,155,147)" height="41px" width="41px" x="80px" y="1160px" /><rect fill="rgb(169,160,151)" height="41px" width="41px" x="120px" y="1160px" /><rect fill="rgb(142,134,124)" height="41px" width="41px" x="160px" y="1160px" /><rect fill="rgb(215,86,69)" height="41px" width="41px" x="200px" y="1160px" /><rect fill="rgb(211,86,69)" height="41px" width="41px" x="240px" y="1160px" /><rect fill="rgb(207,86,69)" height="41px" width="41px" x="280px" y="1160px" /><rect fill="rgb(223,86,69)" height="41px" width="41px" x="320px" y="1160px" /><rect fill="rgb(168,158,148)" height="41px" width="41px" x="360px" y="1160px" /><rect fill="rgb(148,139,129)" height="41px" width="41px" x="400px" y="1160px" /><rect fill="rgb(168,158,148)" height="41px" width="41px" x="440px" y="1160px" /><rect fill="rgb(168,158,148)" height="41px" width="41px" x="480px" y="1160px" /><rect fill="rgb(148,139,129)" height="41px" width="41px" x="520px" y="1160px" /><rect fill="rgb(167,157,147)" height="41px" width="41px" x="560px" y="1160px" /><rect fill="rgb(172,163,154)" height="41px" width="41px" x="600px" y="1160px" /><rect fill="rgb(218,185,121)" height="41px" width="41px" x="720px" y="1160px" /><rect fill="rgb(117,86,56)" height="41px" width="41px" x="760px" y="1160px" /><rect fill="rgb(218,185,121)" height="41px" width="41px" x="800px" y="1160px" /><rect fill="rgb(218,185,121)" height="41px" width="41px" x="840px" y="1160px" /><rect fill="rgb(117,86,56)" height="41px" width="41px" x="880px" y="1160px" /><rect fill="rgb(170,87,5)" height="41px" width="41px" x="920px" y="1160px" /><rect fill="rgb(170,87,5)" height="41px" width="41px" x="960px" y="1160px" /><rect fill="rgb(117,86,56)" height="41px" width="41px" x="1000px" y="1160px" /><rect fill="rgb(218,185,121)" height="41px" width="41px" x="1040px" y="1160px" /><rect fill="rgb(218,185,121)" height="41px" width="41px" x="1080px" y="1160px" /><rect fill="rgb(218,185,121)" height="41px" width="41px" x="1120px" y="1160px" /><rect fill="rgb(117,86,56)" height="41px" width="41px" x="1160px" y="1160px" /><rect fill="rgb(218,185,121)" height="41px" width="41px" x="1200px" y="1160px" /><rect fill="rgb(168,158,148)" height="41px" width="41px" x="0px" y="1200px" /><rect fill="rgb(142,134,124)" height="41px" width="41px" x="40px" y="1200px" /><rect fill="rgb(168,159,150)" height="41px" width="41px" x="80px" y="1200px" /><rect fill="rgb(170,161,152)" height="41px" width="41px" x="120px" y="1200px" /><rect fill="rgb(142,134,124)" height="41px" width="41px" x="160px" y="1200px" /><rect fill="rgb(220,86,69)" height="41px" width="41px" x="200px" y="1200px" /><rect fill="rgb(212,86,69)" height="41px" width="41px" x="240px" y="1200px" /><rect fill="rgb(214,86,69)" height="41px" width="41px" x="280px" y="1200px" /><rect fill="rgb(223,86,69)" height="41px" width="41px" x="320px" y="1200px" /><rect fill="rgb(168,158,148)" height="41px" width="41px" x="360px" y="1200px" /><rect fill="rgb(148,139,129)" height="41px" width="41px" x="400px" y="1200px" /><rect fill="rgb(164,154,145)" height="41px" width="41px" x="440px" y="1200px" /><rect fill="rgb(167,157,147)" height="41px" width="41px" x="480px" y="1200px" /><rect fill="rgb(148,139,129)" height="41px" width="41px" x="520px" y="1200px" /><rect fill="rgb(167,157,147)" height="41px" width="41px" x="560px" y="1200px" /><rect fill="rgb(168,158,149)" height="41px" width="41px" x="600px" y="1200px" /><rect fill="rgb(172,32,5)" height="41px" width="41px" x="720px" y="1200px" /><rect fill="rgb(172,32,5)" height="41px" width="41px" x="760px" y="1200px" /><rect fill="rgb(172,32,5)" height="41px" width="41px" x="800px" y="1200px" /><rect fill="rgb(172,32,5)" height="41px" width="41px" x="840px" y="1200px" /><rect fill="rgb(172,32,5)" height="41px" width="41px" x="880px" y="1200px" /><rect fill="rgb(172,32,5)" height="41px" width="41px" x="920px" y="1200px" /><rect fill="rgb(172,32,5)" height="41px" width="41px" x="960px" y="1200px" /><rect fill="rgb(172,32,5)" height="41px" width="41px" x="1000px" y="1200px" /><rect fill="rgb(172,32,5)" height="41px" width="41px" x="1040px" y="1200px" /><rect fill="rgb(172,32,5)" height="41px" width="41px" x="1080px" y="1200px" /><rect fill="rgb(172,32,5)" height="41px" width="41px" x="1120px" y="1200px" /><rect fill="rgb(172,32,5)" height="41px" width="41px" x="1160px" y="1200px" /><rect fill="rgb(172,32,5)" height="41px" width="41px" x="1200px" y="1200px" /></svg>