<?xml version="1.0" encoding="utf-8" ?>
<svg baseProfile="full" height="128px" version="1.1" width="128px" xmlns="http://www.w3.org/2000/svg" xmlns:ev="http://www.w3.org/2001/xml-events" xmlns:xlink="http://www.w3.org/1999/xlink"><defs /><rect fill="rgb(0,0,0)" height="5px" opacity="0.0078431372549" width="5px" x="56px" y="4px" /><rect fill="rgb(63,63,63)" height="5px" opacity="0.0156862745098" width="5px" x="60px" y="4px" /><rect fill="rgb(255,201,89)" height="5px" width="5px" x="56px" y="8px" /><rect fill="rgb(255,201,89)" height="5px" width="5px" x="60px" y="8px" /><rect fill="rgb(56,56,56)" height="5px" opacity="0.0705882352941" width="5px" x="64px" y="8px" /><rect fill="rgb(0,0,0)" height="5px" opacity="0.0078431372549" width="5px" x="52px" y="12px" /><rect fill="rgb(255,201,89)" height="5px" width="5px" x="56px" y="12px" /><rect fill="rgb(255,201,89)" height="5px" width="5px" x="60px" y="12px" /><rect fill="rgb(255,201,89)" height="5px" width="5px" x="64px" y="12px" /><rect fill="rgb(53,53,53)" height="5px" opacity="0.243137254902" width="5px" x="52px" y="16px" /><rect fill="rgb(255,201,89)" height="5px" width="5px" x="56px" y="16px" /><rect fill="rgb(255,201,89)" height="5px" width="5px" x="60px" y="16px" /><rect fill="rgb(255,201,89)" height="5px" width="5px" x="64px" y="16px" /><rect fill="rgb(56,56,56)" height="5px" opacity="0.282352941176" width="5px" x="52px" y="20px" /><rect fill="rgb(255,201,89)" height="5px" width="5px" x="56px" y="20px" /><rect fill="rgb(255,201,89)" height="5px" width="5px" x="60px" y="20px" /><rect fill="rgb(255,201,89)" height="5px" width="5px" x="64px" y="20px" /><rect fill="rgb(255,201,89)" height="5px" width="5px" x="56px" y="24px" /><rect fill="rgb(255,201,89)" height="5px" width="5px" x="60px" y="24px" /><rect fill="rgb(63,63,63)" height="5px" opacity="0.0313725490196" width="5px" x="64px" y="24px" /><rect fill="rgb(54,54,54)" height="5px" opacity="0.219607843137" width="5px" x="36px" y="28px" /><rect fill="rgb(55,55,55)" height="5px" opacity="0.321568627451" width="5px" x="40px" y="28px" /><rect fill="rgb(56,56,56)" height="5px" opacity="0.105882352941" width="5px" x="44px" y="28px" /><rect fill="rgb(255,201,89)" height="5px" width="5px" x="60px" y="28px" /><rect fill="rgb(56,56,56)" height="5px" opacity="0.105882352941" width="5px" x="72px" y="28px" /><rect fill="rgb(55,55,55)" height="5px" opacity="0.321568627451" width="5px" x="76px" y="28px" /><rect fill="rgb(54,54,54)" height="5px" opacity="0.219607843137" width="5px" x="80px" y="28px" /><rect fill="rgb(255,201,89)" height="5px" width="5px" x="36px" y="32px" /><rect fill="rgb(255,201,89)" height="5px" width="5px" x="40px" y="32px" /><rect fill="rgb(255,201,89)" height="5px" width="5px" x="44px" y="32px" /><rect fill="rgb(255,201,89)" height="5px" width="5px" x="48px" y="32px" /><rect fill="rgb(55,55,55)" height="5px" opacity="0.145098039216" width="5px" x="52px" y="32px" /><rect fill="rgb(255,201,89)" height="5px" width="5px" x="60px" y="32px" /><rect fill="rgb(55,55,55)" height="5px" opacity="0.145098039216" width="5px" x="64px" y="32px" /><rect fill="rgb(255,201,89)" height="5px" width="5px" x="68px" y="32px" /><rect fill="rgb(255,201,89)" height="5px" width="5px" x="72px" y="32px" /><rect fill="rgb(255,201,89)" height="5px" width="5px" x="76px" y="32px" /><rect fill="rgb(255,201,89)" height="5px" width="5px" x="80px" y="32px" /><rect fill="rgb(54,54,54)" height="5px" opacity="0.129411764706" width="5px" x="36px" y="36px" /><rect fill="rgb(255,201,89)" height="5px" width="5px" x="40px" y="36px" /><rect fill="rgb(255,201,89)" height="5px" width="5px" x="44px" y="36px" /><rect fill="rgb(255,201,89)" height="5px" width="5px" x="48px" y="36px" /><rect fill="rgb(255,201,89)" height="5px" width="5px" x="52px" y="36px" /><rect fill="rgb(53,53,53)" height="5px" opacity="0.352941176471" width="5px" x="56px" y="36px" /><rect fill="rgb(255,201,89)" height="5px" width="5px" x="60px" y="36px" /><rect fill="rgb(255,201,89)" height="5px" width="5px" x="64px" y="36px" /><rect fill="rgb(255,201,89)" height="5px" width="5px" x="68px" y="36px" /><rect fill="rgb(255,201,89)" height="5px" width="5px" x="72px" y="36px" /><rect fill="rgb(255,201,89)" height="5px" width="5px" x="76px" y="36px" /><rect fill="rgb(54,54,54)" height="5px" opacity="0.129411764706" width="5px" x="80px" y="36px" /><rect fill="rgb(54,54,54)" height="5px" opacity="0.129411764706" width="5px" x="40px" y="40px" /><rect fill="rgb(255,201,89)" height="5px" width="5px" x="44px" y="40px" /><rect fill="rgb(255,201,89)" height="5px" width="5px" x="48px" y="40px" /><rect fill="rgb(255,201,89)" height="5px" width="5px" x="52px" y="40px" /><rect fill="rgb(255,201,89)" height="5px" width="5px" x="56px" y="40px" /><rect fill="rgb(255,201,89)" height="5px" width="5px" x="60px" y="40px" /><rect fill="rgb(255,201,89)" height="5px" width="5px" x="64px" y="40px" /><rect fill="rgb(255,201,89)" height="5px" width="5px" x="68px" y="40px" /><rect fill="rgb(255,201,89)" height="5px" width="5px" x="72px" y="40px" /><rect fill="rgb(54,54,54)" height="5px" opacity="0.129411764706" width="5px" x="76px" y="40px" /><rect fill="rgb(54,54,54)" height="5px" opacity="0.219607843137" width="5px" x="36px" y="44px" /><rect fill="rgb(55,55,55)" height="5px" opacity="0.321568627451" width="5px" x="40px" y="44px" /><rect fill="rgb(56,56,56)" height="5px" opacity="0.105882352941" width="5px" x="44px" y="44px" /><rect fill="rgb(55,55,55)" height="5px" opacity="0.2" width="5px" x="52px" y="44px" /><rect fill="rgb(55,55,55)" height="5px" opacity="0.0901960784314" width="5px" x="56px" y="44px" /><rect fill="rgb(255,201,89)" height="5px" width="5px" x="60px" y="44px" /><rect fill="rgb(55,55,55)" height="5px" opacity="0.2" width="5px" x="64px" y="44px" /><rect fill="rgb(56,56,56)" height="5px" opacity="0.105882352941" width="5px" x="76px" y="44px" /><rect fill="rgb(55,55,55)" height="5px" opacity="0.321568627451" width="5px" x="80px" y="44px" /><rect fill="rgb(54,54,54)" height="5px" opacity="0.219607843137" width="5px" x="84px" y="44px" /><rect fill="rgb(255,201,89)" height="5px" width="5px" x="36px" y="48px" /><rect fill="rgb(255,201,89)" height="5px" width="5px" x="40px" y="48px" /><rect fill="rgb(255,201,89)" height="5px" width="5px" x="44px" y="48px" /><rect fill="rgb(255,201,89)" height="5px" width="5px" x="48px" y="48px" /><rect fill="rgb(55,55,55)" height="5px" opacity="0.145098039216" width="5px" x="52px" y="48px" /><rect fill="rgb(255,201,89)" height="5px" width="5px" x="60px" y="48px" /><rect fill="rgb(55,55,55)" height="5px" opacity="0.145098039216" width="5px" x="68px" y="48px" /><rect fill="rgb(255,201,89)" height="5px" width="5px" x="72px" y="48px" /><rect fill="rgb(255,201,89)" height="5px" width="5px" x="76px" y="48px" /><rect fill="rgb(255,201,89)" height="5px" width="5px" x="80px" y="48px" /><rect fill="rgb(255,201,89)" height="5px" width="5px" x="84px" y="48px" /><rect fill="rgb(54,54,54)" height="5px" opacity="0.129411764706" width="5px" x="36px" y="52px" /><rect fill="rgb(255,201,89)" height="5px" width="5px" x="40px" y="52px" /><rect fill="rgb(255,201,89)" height="5px" width="5px" x="44px" y="52px" /><rect fill="rgb(255,201,89)" height="5px" width="5px" x="48px" y="52px" /><rect fill="rgb(255,201,89)" height="5px" width="5px" x="52px" y="52px" /><rect fill="rgb(53,53,53)" height="5px" opacity="0.352941176471" width="5px" x="56px" y="52px" /><rect fill="rgb(255,201,89)" height="5px" width="5px" x="60px" y="52px" /><rect fill="rgb(53,53,53)" height="5px" opacity="0.352941176471" width="5px" x="64px" y="52px" /><rect fill="rgb(255,201,89)" height="5px" width="5px" x="68px" y="52px" /><rect fill="rgb(255,201,89)" height="5px" width="5px" x="72px" y="52px" /><rect fill="rgb(255,201,89)" height="5px" width="5px" x="76px" y="52px" /><rect fill="rgb(255,201,89)" height="5px" width="5px" x="80px" y="52px" /><rect fill="rgb(54,54,54)" height="5px" opacity="0.129411764706" width="5px" x="84px" y="52px" /><rect fill="rgb(54,54,54)" height="5px" opacity="0.129411764706" width="5px" x="40px" y="56px" /><rect fill="rgb(255,201,89)" height="5px" width="5px" x="44px" y="56px" /><rect fill="rgb(255,201,89)" height="5px" width="5px" x="48px" y="56px" /><rect fill="rgb(255,201,89)" height="5px" width="5px" x="52px" y="56px" /><rect fill="rgb(255,201,89)" height="5px" width="5px" x="56px" y="56px" /><rect fill="rgb(255,201,89)" height="5px" width="5px" x="60px" y="56px" /><rect fill="rgb(255,201,89)" height="5px" width="5px" x="64px" y="56px" /><rect fill="rgb(255,201,89)" height="5px" width="5px" x="68px" y="56px" /><rect fill="rgb(255,201,89)" height="5px" width="5px" x="72px" y="56px" /><rect fill="rgb(255,201,89)" height="5px" width="5px" x="76px" y="56px" /><rect fill="rgb(54,54,54)" height="5px" opacity="0.129411764706" width="5px" x="80px" y="56px" /><rect fill="rgb(54,54,54)" height="5px" opacity="0.219607843137" width="5px" x="36px" y="60px" /><rect fill="rgb(55,55,55)" height="5px" opacity="0.321568627451" width="5px" x="40px" y="60px" /><rect fill="rgb(56,56,56)" height="5px" opacity="0.105882352941" width="5px" x="44px" y="60px" /><rect fill="rgb(55,55,55)" height="5px" opacity="0.2" width="5px" x="52px" y="60px" /><rect fill="rgb(55,55,55)" height="5px" opacity="0.0901960784314" width="5px" x="56px" y="60px" /><rect fill="rgb(255,201,89)" height="5px" width="5px" x="60px" y="60px" /><rect fill="rgb(55,55,55)" height="5px" opacity="0.0901960784314" width="5px" x="64px" y="60px" /><rect fill="rgb(55,55,55)" height="5px" opacity="0.2" width="5px" x="68px" y="60px" /><rect fill="rgb(56,56,56)" height="5px" opacity="0.105882352941" width="5px" x="76px" y="60px" /><rect fill="rgb(55,55,55)" height="5px" opacity="0.321568627451" width="5px" x="80px" y="60px" /><rect fill="rgb(54,54,54)" height="5px" opacity="0.219607843137" width="5px" x="84px" y="60px" /><rect fill="rgb(255,201,89)" height="5px" width="5px" x="36px" y="64px" /><rect fill="rgb(255,201,89)" height="5px" width="5px" x="40px" y="64px" /><rect fill="rgb(255,201,89)" height="5px" width="5px" x="44px" y="64px" /><rect fill="rgb(255,201,89)" height="5px" width="5px" x="48px" y="64px" /><rect fill="rgb(55,55,55)" height="5px" opacity="0.145098039216" width="5px" x="52px" y="64px" /><rect fill="rgb(255,201,89)" height="5px" width="5px" x="60px" y="64px" /><rect fill="rgb(55,55,55)" height="5px" opacity="0.145098039216" width="5px" x="68px" y="64px" /><rect fill="rgb(255,201,89)" height="5px" width="5px" x="72px" y="64px" /><rect fill="rgb(255,201,89)" height="5px" width="5px" x="76px" y="64px" /><rect fill="rgb(255,201,89)" height="5px" width="5px" x="80px" y="64px" /><rect fill="rgb(255,201,89)" height="5px" width="5px" x="84px" y="64px" /><rect fill="rgb(54,54,54)" height="5px" opacity="0.129411764706" width="5px" x="36px" y="68px" /><rect fill="rgb(255,201,89)" height="5px" width="5px" x="40px" y="68px" /><rect fill="rgb(255,201,89)" height="5px" width="5px" x="44px" y="68px" /><rect fill="rgb(255,201,89)" height="5px" width="5px" x="48px" y="68px" /><rect fill="rgb(255,201,89)" height="5px" width="5px" x="52px" y="68px" /><rect fill="rgb(53,53,53)" height="5px" opacity="0.352941176471" width="5px" x="56px" y="68px" /><rect fill="rgb(255,201,89)" height="5px" width="5px" x="60px" y="68px" /><rect fill="rgb(53,53,53)" height="5px" opacity="0.352941176471" width="5px" x="64px" y="68px" /><rect fill="rgb(255,201,89)" height="5px" width="5px" x="68px" y="68px" /><rect fill="rgb(255,201,89)" height="5px" width="5px" x="72px" y="68px" /><rect fill="rgb(255,201,89)" height="5px" width="5px" x="76px" y="68px" /><rect fill="rgb(255,201,89)" height="5px" width="5px" x="80px" y="68px" /><rect fill="rgb(54,54,54)" height="5px" opacity="0.129411764706" width="5px" x="84px" y="68px" /><rect fill="rgb(54,54,54)" height="5px" opacity="0.129411764706" width="5px" x="40px" y="72px" /><rect fill="rgb(255,201,89)" height="5px" width="5px" x="44px" y="72px" /><rect fill="rgb(255,201,89)" height="5px" width="5px" x="48px" y="72px" /><rect fill="rgb(255,201,89)" height="5px" width="5px" x="52px" y="72px" /><rect fill="rgb(255,201,89)" height="5px" width="5px" x="56px" y="72px" /><rect fill="rgb(255,201,89)" height="5px" width="5px" x="60px" y="72px" /><rect fill="rgb(255,201,89)" height="5px" width="5px" x="64px" y="72px" /><rect fill="rgb(255,201,89)" height="5px" width="5px" x="68px" y="72px" /><rect fill="rgb(255,201,89)" height="5px" width="5px" x="72px" y="72px" /><rect fill="rgb(255,201,89)" height="5px" width="5px" x="76px" y="72px" /><rect fill="rgb(54,54,54)" height="5px" opacity="0.129411764706" width="5px" x="80px" y="72px" /><rect fill="rgb(54,54,54)" height="5px" opacity="0.219607843137" width="5px" x="36px" y="76px" /><rect fill="rgb(55,55,55)" height="5px" opacity="0.321568627451" width="5px" x="40px" y="76px" /><rect fill="rgb(56,56,56)" height="5px" opacity="0.105882352941" width="5px" x="44px" y="76px" /><rect fill="rgb(55,55,55)" height="5px" opacity="0.2" width="5px" x="52px" y="76px" /><rect fill="rgb(55,55,55)" height="5px" opacity="0.0901960784314" width="5px" x="56px" y="76px" /><rect fill="rgb(255,201,89)" height="5px" width="5px" x="60px" y="76px" /><rect fill="rgb(55,55,55)" height="5px" opacity="0.0901960784314" width="5px" x="64px" y="76px" /><rect fill="rgb(55,55,55)" height="5px" opacity="0.2" width="5px" x="68px" y="76px" /><rect fill="rgb(56,56,56)" height="5px" opacity="0.105882352941" width="5px" x="76px" y="76px" /><rect fill="rgb(55,55,55)" height="5px" opacity="0.321568627451" width="5px" x="80px" y="76px" /><rect fill="rgb(54,54,54)" height="5px" opacity="0.219607843137" width="5px" x="84px" y="76px" /><rect fill="rgb(255,201,89)" height="5px" width="5px" x="36px" y="80px" /><rect fill="rgb(255,201,89)" height="5px" width="5px" x="40px" y="80px" /><rect fill="rgb(255,201,89)" height="5px" width="5px" x="44px" y="80px" /><rect fill="rgb(255,201,89)" height="5px" width="5px" x="48px" y="80px" /><rect fill="rgb(55,55,55)" height="5px" opacity="0.145098039216" width="5px" x="52px" y="80px" /><rect fill="rgb(255,201,89)" height="5px" width="5px" x="60px" y="80px" /><rect fill="rgb(55,55,55)" height="5px" opacity="0.145098039216" width="5px" x="68px" y="80px" /><rect fill="rgb(255,201,89)" height="5px" width="5px" x="72px" y="80px" /><rect fill="rgb(255,201,89)" height="5px" width="5px" x="76px" y="80px" /><rect fill="rgb(255,201,89)" height="5px" width="5px" x="80px" y="80px" /><rect fill="rgb(255,201,89)" height="5px" width="5px" x="84px" y="80px" /><rect fill="rgb(54,54,54)" height="5px" opacity="0.129411764706" width="5px" x="36px" y="84px" /><rect fill="rgb(255,201,89)" height="5px" width="5px" x="40px" y="84px" /><rect fill="rgb(255,201,89)" height="5px" width="5px" x="44px" y="84px" /><rect fill="rgb(255,201,89)" height="5px" width="5px" x="48px" y="84px" /><rect fill="rgb(255,201,89)" height="5px" width="5px" x="52px" y="84px" /><rect fill="rgb(55,55,55)" height="5px" opacity="0.501960784314" width="5px" x="56px" y="84px" /><rect fill="rgb(255,201,89)" height="5px" width="5px" x="60px" y="84px" /><rect fill="rgb(53,53,53)" height="5px" opacity="0.352941176471" width="5px" x="64px" y="84px" /><rect fill="rgb(255,201,89)" height="5px" width="5px" x="68px" y="84px" /><rect fill="rgb(255,201,89)" height="5px" width="5px" x="72px" y="84px" /><rect fill="rgb(255,201,89)" height="5px" width="5px" x="76px" y="84px" /><rect fill="rgb(255,201,89)" height="5px" width="5px" x="80px" y="84px" /><rect fill="rgb(54,54,54)" height="5px" opacity="0.129411764706" width="5px" x="84px" y="84px" /><rect fill="rgb(54,54,54)" height="5px" opacity="0.129411764706" width="5px" x="40px" y="88px" /><rect fill="rgb(255,201,89)" height="5px" width="5px" x="44px" y="88px" /><rect fill="rgb(255,201,89)" height="5px" width="5px" x="48px" y="88px" /><rect fill="rgb(255,201,89)" height="5px" width="5px" x="52px" y="88px" /><rect fill="rgb(255,201,89)" height="5px" width="5px" x="56px" y="88px" /><rect fill="rgb(255,201,89)" height="5px" width="5px" x="60px" y="88px" /><rect fill="rgb(255,201,89)" height="5px" width="5px" x="64px" y="88px" /><rect fill="rgb(255,201,89)" height="5px" width="5px" x="68px" y="88px" /><rect fill="rgb(255,201,89)" height="5px" width="5px" x="72px" y="88px" /><rect fill="rgb(255,201,89)" height="5px" width="5px" x="76px" y="88px" /><rect fill="rgb(54,54,54)" height="5px" opacity="0.129411764706" width="5px" x="80px" y="88px" /><rect fill="rgb(55,55,55)" height="5px" opacity="0.2" width="5px" x="52px" y="92px" /><rect fill="rgb(55,55,55)" height="5px" opacity="0.0901960784314" width="5px" x="56px" y="92px" /><rect fill="rgb(255,201,89)" height="5px" width="5px" x="60px" y="92px" /><rect fill="rgb(55,55,55)" height="5px" opacity="0.0901960784314" width="5px" x="64px" y="92px" /><rect fill="rgb(55,55,55)" height="5px" opacity="0.2" width="5px" x="68px" y="92px" /><rect fill="rgb(255,201,89)" height="5px" width="5px" x="60px" y="96px" /><rect fill="rgb(255,201,89)" height="5px" width="5px" x="60px" y="100px" /><rect fill="rgb(255,201,89)" height="5px" width="5px" x="60px" y="104px" /><rect fill="rgb(255,201,89)" height="5px" width="5px" x="60px" y="108px" /><rect fill="rgb(255,201,89)" height="5px" width="5px" x="60px" y="112px" /></svg>