<?xml version="1.0" encoding="utf-8" ?>
<svg baseProfile="full" height="128px" version="1.1" width="128px" xmlns="http://www.w3.org/2000/svg" xmlns:ev="http://www.w3.org/2001/xml-events" xmlns:xlink="http://www.w3.org/1999/xlink"><defs /><rect fill="rgb(157,98,66)" height="5px" width="5px" x="52px" y="8px" /><rect fill="rgb(157,98,66)" height="5px" width="5px" x="56px" y="8px" /><rect fill="rgb(157,98,66)" height="5px" width="5px" x="60px" y="8px" /><rect fill="rgb(157,98,66)" height="5px" width="5px" x="64px" y="8px" /><rect fill="rgb(157,98,66)" height="5px" width="5px" x="68px" y="8px" /><rect fill="rgb(157,98,66)" height="5px" width="5px" x="72px" y="8px" /><rect fill="rgb(157,98,66)" height="5px" width="5px" x="76px" y="8px" /><rect fill="rgb(157,98,66)" height="5px" width="5px" x="80px" y="8px" /><rect fill="rgb(157,98,66)" height="5px" width="5px" x="84px" y="8px" /><rect fill="rgb(157,98,66)" height="5px" width="5px" x="40px" y="12px" /><rect fill="rgb(157,98,66)" height="5px" width="5px" x="44px" y="12px" /><rect fill="rgb(157,98,66)" height="5px" width="5px" x="48px" y="12px" /><rect fill="rgb(157,98,66)" height="5px" width="5px" x="52px" y="12px" /><rect fill="rgb(157,98,66)" height="5px" width="5px" x="56px" y="12px" /><rect fill="rgb(157,98,66)" height="5px" width="5px" x="72px" y="12px" /><rect fill="rgb(157,98,66)" height="5px" width="5px" x="84px" y="12px" /><rect fill="rgb(157,98,66)" height="5px" width="5px" x="88px" y="12px" /><rect fill="rgb(157,98,66)" height="5px" width="5px" x="92px" y="12px" /><rect fill="rgb(157,98,66)" height="5px" width="5px" x="32px" y="16px" /><rect fill="rgb(157,98,66)" height="5px" width="5px" x="36px" y="16px" /><rect fill="rgb(157,98,66)" height="5px" width="5px" x="44px" y="16px" /><rect fill="rgb(157,98,66)" height="5px" width="5px" x="56px" y="16px" /><rect fill="rgb(157,98,66)" height="5px" width="5px" x="72px" y="16px" /><rect fill="rgb(157,98,66)" height="5px" width="5px" x="88px" y="16px" /><rect fill="rgb(157,98,66)" height="5px" width="5px" x="92px" y="16px" /><rect fill="rgb(157,98,66)" height="5px" width="5px" x="96px" y="16px" /><rect fill="rgb(157,98,66)" height="5px" width="5px" x="28px" y="20px" /><rect fill="rgb(157,98,66)" height="5px" width="5px" x="32px" y="20px" /><rect fill="rgb(157,98,66)" height="5px" width="5px" x="44px" y="20px" /><rect fill="rgb(157,98,66)" height="5px" width="5px" x="56px" y="20px" /><rect fill="rgb(157,98,66)" height="5px" width="5px" x="72px" y="20px" /><rect fill="rgb(157,98,66)" height="5px" width="5px" x="88px" y="20px" /><rect fill="rgb(157,98,66)" height="5px" width="5px" x="96px" y="20px" /><rect fill="rgb(157,98,66)" height="5px" width="5px" x="24px" y="24px" /><rect fill="rgb(157,98,66)" height="5px" width="5px" x="32px" y="24px" /><rect fill="rgb(157,98,66)" height="5px" width="5px" x="44px" y="24px" /><rect fill="rgb(157,98,66)" height="5px" width="5px" x="56px" y="24px" /><rect fill="rgb(157,98,66)" height="5px" width="5px" x="72px" y="24px" /><rect fill="rgb(157,98,66)" height="5px" width="5px" x="88px" y="24px" /><rect fill="rgb(157,98,66)" height="5px" width="5px" x="100px" y="24px" /><rect fill="rgb(157,98,66)" height="5px" width="5px" x="20px" y="28px" /><rect fill="rgb(157,98,66)" height="5px" width="5px" x="24px" y="28px" /><rect fill="rgb(157,98,66)" height="5px" width="5px" x="32px" y="28px" /><rect fill="rgb(157,98,66)" height="5px" width="5px" x="44px" y="28px" /><rect fill="rgb(157,98,66)" height="5px" width="5px" x="88px" y="28px" /><rect fill="rgb(157,98,66)" height="5px" width="5px" x="100px" y="28px" /><rect fill="rgb(157,98,66)" height="5px" width="5px" x="104px" y="28px" /><rect fill="rgb(157,98,66)" height="5px" width="5px" x="20px" y="32px" /><rect fill="rgb(157,98,66)" height="5px" width="5px" x="24px" y="32px" /><rect fill="rgb(157,98,66)" height="5px" width="5px" x="32px" y="32px" /><rect fill="rgb(157,98,66)" height="5px" width="5px" x="100px" y="32px" /><rect fill="rgb(132,77,48)" height="5px" width="5px" x="104px" y="32px" /><rect fill="rgb(0,0,0)" height="5px" opacity="0.0313725490196" width="5px" x="108px" y="32px" /><rect fill="rgb(152,95,64)" height="5px" width="5px" x="16px" y="36px" /><rect fill="rgb(132,77,48)" height="5px" width="5px" x="20px" y="36px" /><rect fill="rgb(157,98,66)" height="5px" width="5px" x="24px" y="36px" /><rect fill="rgb(103,46,23)" height="5px" width="5px" x="100px" y="36px" /><rect fill="rgb(114,34,4)" height="5px" width="5px" x="104px" y="36px" /><rect fill="rgb(132,46,10)" height="5px" width="5px" x="108px" y="36px" /><rect fill="rgb(129,36,0)" height="5px" opacity="0.278431372549" width="5px" x="112px" y="36px" /><rect fill="rgb(129,36,0)" height="5px" opacity="0.278431372549" width="5px" x="12px" y="40px" /><rect fill="rgb(132,46,10)" height="5px" width="5px" x="16px" y="40px" /><rect fill="rgb(114,34,4)" height="5px" width="5px" x="20px" y="40px" /><rect fill="rgb(103,46,23)" height="5px" width="5px" x="24px" y="40px" /><rect fill="rgb(78,25,7)" height="5px" opacity="0.282352941176" width="5px" x="68px" y="40px" /><rect fill="rgb(86,28,8)" height="5px" opacity="0.498039215686" width="5px" x="72px" y="40px" /><rect fill="rgb(131,37,0)" height="5px" opacity="0.541176470588" width="5px" x="76px" y="40px" /><rect fill="rgb(138,37,0)" height="5px" opacity="0.513725490196" width="5px" x="80px" y="40px" /><rect fill="rgb(132,37,0)" height="5px" opacity="0.537254901961" width="5px" x="84px" y="40px" /><rect fill="rgb(134,38,0)" height="5px" opacity="0.529411764706" width="5px" x="88px" y="40px" /><rect fill="rgb(136,38,0)" height="5px" opacity="0.521568627451" width="5px" x="92px" y="40px" /><rect fill="rgb(104,32,5)" height="5px" opacity="0.749019607843" width="5px" x="96px" y="40px" /><rect fill="rgb(128,36,2)" height="5px" width="5px" x="100px" y="40px" /><rect fill="rgb(142,39,0)" height="5px" width="5px" x="104px" y="40px" /><rect fill="rgb(142,39,0)" height="5px" width="5px" x="108px" y="40px" /><rect fill="rgb(139,38,0)" height="5px" opacity="0.764705882353" width="5px" x="112px" y="40px" /><rect fill="rgb(139,38,0)" height="5px" opacity="0.764705882353" width="5px" x="12px" y="44px" /><rect fill="rgb(142,39,0)" height="5px" width="5px" x="16px" y="44px" /><rect fill="rgb(142,39,0)" height="5px" width="5px" x="20px" y="44px" /><rect fill="rgb(128,36,2)" height="5px" width="5px" x="24px" y="44px" /><rect fill="rgb(104,32,5)" height="5px" opacity="0.749019607843" width="5px" x="28px" y="44px" /><rect fill="rgb(136,38,0)" height="5px" opacity="0.521568627451" width="5px" x="32px" y="44px" /><rect fill="rgb(134,38,0)" height="5px" opacity="0.529411764706" width="5px" x="36px" y="44px" /><rect fill="rgb(132,37,0)" height="5px" opacity="0.537254901961" width="5px" x="40px" y="44px" /><rect fill="rgb(138,37,0)" height="5px" opacity="0.513725490196" width="5px" x="44px" y="44px" /><rect fill="rgb(131,37,0)" height="5px" opacity="0.541176470588" width="5px" x="48px" y="44px" /><rect fill="rgb(86,28,8)" height="5px" opacity="0.498039215686" width="5px" x="52px" y="44px" /><rect fill="rgb(78,25,7)" height="5px" opacity="0.282352941176" width="5px" x="56px" y="44px" /><rect fill="rgb(21,21,0)" height="5px" opacity="0.0470588235294" width="5px" x="64px" y="44px" /><rect fill="rgb(86,29,8)" height="5px" width="5px" x="68px" y="44px" /><rect fill="rgb(143,38,0)" height="5px" opacity="0.498039215686" width="5px" x="72px" y="44px" /><rect fill="rgb(142,39,0)" height="5px" width="5px" x="76px" y="44px" /><rect fill="rgb(142,39,0)" height="5px" width="5px" x="80px" y="44px" /><rect fill="rgb(142,39,0)" height="5px" width="5px" x="84px" y="44px" /><rect fill="rgb(142,39,0)" height="5px" width="5px" x="88px" y="44px" /><rect fill="rgb(142,39,0)" height="5px" width="5px" x="92px" y="44px" /><rect fill="rgb(142,39,0)" height="5px" width="5px" x="96px" y="44px" /><rect fill="rgb(142,39,0)" height="5px" width="5px" x="100px" y="44px" /><rect fill="rgb(139,36,0)" height="5px" opacity="0.250980392157" width="5px" x="104px" y="44px" /><rect fill="rgb(157,98,66)" height="5px" width="5px" x="108px" y="44px" /><rect fill="rgb(157,98,66)" height="5px" width="5px" x="16px" y="48px" /><rect fill="rgb(139,36,0)" height="5px" opacity="0.250980392157" width="5px" x="20px" y="48px" /><rect fill="rgb(142,39,0)" height="5px" width="5px" x="24px" y="48px" /><rect fill="rgb(142,39,0)" height="5px" width="5px" x="28px" y="48px" /><rect fill="rgb(142,39,0)" height="5px" width="5px" x="32px" y="48px" /><rect fill="rgb(142,39,0)" height="5px" width="5px" x="36px" y="48px" /><rect fill="rgb(142,39,0)" height="5px" width="5px" x="40px" y="48px" /><rect fill="rgb(142,39,0)" height="5px" width="5px" x="44px" y="48px" /><rect fill="rgb(142,39,0)" height="5px" width="5px" x="48px" y="48px" /><rect fill="rgb(143,38,0)" height="5px" opacity="0.498039215686" width="5px" x="52px" y="48px" /><rect fill="rgb(86,29,8)" height="5px" width="5px" x="56px" y="48px" /><rect fill="rgb(21,21,0)" height="5px" opacity="0.0470588235294" width="5px" x="60px" y="48px" /><rect fill="rgb(21,21,0)" height="5px" opacity="0.0470588235294" width="5px" x="64px" y="48px" /><rect fill="rgb(86,29,8)" height="5px" width="5px" x="68px" y="48px" /><rect fill="rgb(130,36,0)" height="5px" opacity="0.552941176471" width="5px" x="72px" y="48px" /><rect fill="rgb(142,39,0)" height="5px" width="5px" x="76px" y="48px" /><rect fill="rgb(142,39,0)" height="5px" width="5px" x="80px" y="48px" /><rect fill="rgb(142,39,0)" height="5px" width="5px" x="84px" y="48px" /><rect fill="rgb(142,39,0)" height="5px" width="5px" x="88px" y="48px" /><rect fill="rgb(142,39,0)" height="5px" width="5px" x="92px" y="48px" /><rect fill="rgb(142,39,0)" height="5px" width="5px" x="96px" y="48px" /><rect fill="rgb(110,33,0)" height="5px" opacity="0.337254901961" width="5px" x="100px" y="48px" /><rect fill="rgb(157,98,66)" height="5px" width="5px" x="108px" y="48px" /><rect fill="rgb(157,98,66)" height="5px" width="5px" x="16px" y="52px" /><rect fill="rgb(110,33,0)" height="5px" opacity="0.337254901961" width="5px" x="24px" y="52px" /><rect fill="rgb(142,39,0)" height="5px" width="5px" x="28px" y="52px" /><rect fill="rgb(142,39,0)" height="5px" width="5px" x="32px" y="52px" /><rect fill="rgb(142,39,0)" height="5px" width="5px" x="36px" y="52px" /><rect fill="rgb(142,39,0)" height="5px" width="5px" x="40px" y="52px" /><rect fill="rgb(142,39,0)" height="5px" width="5px" x="44px" y="52px" /><rect fill="rgb(142,39,0)" height="5px" width="5px" x="48px" y="52px" /><rect fill="rgb(130,36,0)" height="5px" opacity="0.552941176471" width="5px" x="52px" y="52px" /><rect fill="rgb(86,29,8)" height="5px" width="5px" x="56px" y="52px" /><rect fill="rgb(21,21,0)" height="5px" opacity="0.0470588235294" width="5px" x="60px" y="52px" /><rect fill="rgb(10,10,0)" height="5px" opacity="0.0980392156863" width="5px" x="68px" y="52px" /><rect fill="rgb(130,36,0)" height="5px" opacity="0.552941176471" width="5px" x="72px" y="52px" /><rect fill="rgb(18,18,0)" height="5px" opacity="0.113725490196" width="5px" x="76px" y="52px" /><rect fill="rgb(112,33,0)" height="5px" opacity="0.662745098039" width="5px" x="80px" y="52px" /><rect fill="rgb(14,14,0)" height="5px" opacity="0.0705882352941" width="5px" x="84px" y="52px" /><rect fill="rgb(15,15,0)" height="5px" opacity="0.133333333333" width="5px" x="88px" y="52px" /><rect fill="rgb(123,35,0)" height="5px" opacity="0.874509803922" width="5px" x="92px" y="52px" /><rect fill="rgb(130,36,0)" height="5px" opacity="0.83137254902" width="5px" x="96px" y="52px" /><rect fill="rgb(119,33,0)" height="5px" opacity="0.301960784314" width="5px" x="100px" y="52px" /><rect fill="rgb(157,98,66)" height="5px" width="5px" x="108px" y="52px" /><rect fill="rgb(157,98,66)" height="5px" width="5px" x="16px" y="56px" /><rect fill="rgb(119,33,0)" height="5px" opacity="0.301960784314" width="5px" x="24px" y="56px" /><rect fill="rgb(130,36,0)" height="5px" opacity="0.83137254902" width="5px" x="28px" y="56px" /><rect fill="rgb(123,35,0)" height="5px" opacity="0.874509803922" width="5px" x="32px" y="56px" /><rect fill="rgb(15,15,0)" height="5px" opacity="0.133333333333" width="5px" x="36px" y="56px" /><rect fill="rgb(14,14,0)" height="5px" opacity="0.0705882352941" width="5px" x="40px" y="56px" /><rect fill="rgb(112,33,0)" height="5px" opacity="0.662745098039" width="5px" x="44px" y="56px" /><rect fill="rgb(18,18,0)" height="5px" opacity="0.113725490196" width="5px" x="48px" y="56px" /><rect fill="rgb(130,36,0)" height="5px" opacity="0.552941176471" width="5px" x="52px" y="56px" /><rect fill="rgb(10,10,0)" height="5px" opacity="0.0980392156863" width="5px" x="56px" y="56px" /><rect fill="rgb(143,38,0)" height="5px" opacity="0.498039215686" width="5px" x="72px" y="56px" /><rect fill="rgb(126,36,0)" height="5px" opacity="0.854901960784" width="5px" x="80px" y="56px" /><rect fill="rgb(13,13,0)" height="5px" opacity="0.078431372549" width="5px" x="84px" y="56px" /><rect fill="rgb(0,0,0)" height="5px" opacity="0.0117647058824" width="5px" x="88px" y="56px" /><rect fill="rgb(128,36,0)" height="5px" opacity="0.560784313725" width="5px" x="92px" y="56px" /><rect fill="rgb(133,37,0)" height="5px" opacity="0.803921568627" width="5px" x="100px" y="56px" /><rect fill="rgb(157,98,66)" height="5px" width="5px" x="108px" y="56px" /><rect fill="rgb(157,98,66)" height="5px" width="5px" x="16px" y="60px" /><rect fill="rgb(133,37,0)" height="5px" opacity="0.803921568627" width="5px" x="24px" y="60px" /><rect fill="rgb(128,36,0)" height="5px" opacity="0.560784313725" width="5px" x="32px" y="60px" /><rect fill="rgb(0,0,0)" height="5px" opacity="0.0117647058824" width="5px" x="36px" y="60px" /><rect fill="rgb(13,13,0)" height="5px" opacity="0.078431372549" width="5px" x="40px" y="60px" /><rect fill="rgb(126,36,0)" height="5px" opacity="0.854901960784" width="5px" x="44px" y="60px" /><rect fill="rgb(143,38,0)" height="5px" opacity="0.498039215686" width="5px" x="52px" y="60px" /><rect fill="rgb(143,38,0)" height="5px" opacity="0.498039215686" width="5px" x="72px" y="60px" /><rect fill="rgb(118,33,0)" height="5px" opacity="0.305882352941" width="5px" x="80px" y="60px" /><rect fill="rgb(143,38,0)" height="5px" opacity="0.498039215686" width="5px" x="84px" y="60px" /><rect fill="rgb(135,38,0)" height="5px" opacity="0.525490196078" width="5px" x="92px" y="60px" /><rect fill="rgb(122,36,0)" height="5px" opacity="0.588235294118" width="5px" x="100px" y="60px" /><rect fill="rgb(12,12,0)" height="5px" opacity="0.0823529411765" width="5px" x="104px" y="60px" /><rect fill="rgb(157,98,66)" height="5px" width="5px" x="108px" y="60px" /><rect fill="rgb(157,98,66)" height="5px" width="5px" x="16px" y="64px" /><rect fill="rgb(12,12,0)" height="5px" opacity="0.0823529411765" width="5px" x="20px" y="64px" /><rect fill="rgb(122,36,0)" height="5px" opacity="0.588235294118" width="5px" x="24px" y="64px" /><rect fill="rgb(135,38,0)" height="5px" opacity="0.525490196078" width="5px" x="32px" y="64px" /><rect fill="rgb(143,38,0)" height="5px" opacity="0.498039215686" width="5px" x="40px" y="64px" /><rect fill="rgb(118,33,0)" height="5px" opacity="0.305882352941" width="5px" x="44px" y="64px" /><rect fill="rgb(143,38,0)" height="5px" opacity="0.498039215686" width="5px" x="52px" y="64px" /><rect fill="rgb(74,27,7)" height="5px" opacity="0.298039215686" width="5px" x="76px" y="64px" /><rect fill="rgb(0,0,0)" height="5px" opacity="0.0313725490196" width="5px" x="80px" y="64px" /><rect fill="rgb(157,98,66)" height="5px" width="5px" x="108px" y="64px" /><rect fill="rgb(157,98,66)" height="5px" width="5px" x="16px" y="68px" /><rect fill="rgb(85,28,8)" height="5px" opacity="0.749019607843" width="5px" x="72px" y="68px" /><rect fill="rgb(114,34,4)" height="5px" width="5px" x="76px" y="68px" /><rect fill="rgb(128,37,0)" height="5px" opacity="0.847058823529" width="5px" x="80px" y="68px" /><rect fill="rgb(129,36,0)" height="5px" opacity="0.278431372549" width="5px" x="84px" y="68px" /><rect fill="rgb(157,98,66)" height="5px" width="5px" x="108px" y="68px" /><rect fill="rgb(157,98,66)" height="5px" width="5px" x="16px" y="72px" /><rect fill="rgb(78,25,7)" height="5px" opacity="0.282352941176" width="5px" x="40px" y="72px" /><rect fill="rgb(86,28,8)" height="5px" opacity="0.498039215686" width="5px" x="44px" y="72px" /><rect fill="rgb(131,37,0)" height="5px" opacity="0.541176470588" width="5px" x="48px" y="72px" /><rect fill="rgb(138,37,0)" height="5px" opacity="0.513725490196" width="5px" x="52px" y="72px" /><rect fill="rgb(132,37,0)" height="5px" opacity="0.537254901961" width="5px" x="56px" y="72px" /><rect fill="rgb(134,38,0)" height="5px" opacity="0.529411764706" width="5px" x="60px" y="72px" /><rect fill="rgb(136,38,0)" height="5px" opacity="0.521568627451" width="5px" x="64px" y="72px" /><rect fill="rgb(104,32,5)" height="5px" opacity="0.749019607843" width="5px" x="68px" y="72px" /><rect fill="rgb(128,36,2)" height="5px" width="5px" x="72px" y="72px" /><rect fill="rgb(142,39,0)" height="5px" width="5px" x="76px" y="72px" /><rect fill="rgb(142,39,0)" height="5px" width="5px" x="80px" y="72px" /><rect fill="rgb(139,38,0)" height="5px" opacity="0.764705882353" width="5px" x="84px" y="72px" /><rect fill="rgb(157,98,66)" height="5px" width="5px" x="108px" y="72px" /><rect fill="rgb(157,98,66)" height="5px" width="5px" x="16px" y="76px" /><rect fill="rgb(21,21,0)" height="5px" opacity="0.0470588235294" width="5px" x="36px" y="76px" /><rect fill="rgb(86,29,8)" height="5px" width="5px" x="40px" y="76px" /><rect fill="rgb(143,38,0)" height="5px" opacity="0.498039215686" width="5px" x="44px" y="76px" /><rect fill="rgb(142,39,0)" height="5px" width="5px" x="48px" y="76px" /><rect fill="rgb(142,39,0)" height="5px" width="5px" x="52px" y="76px" /><rect fill="rgb(142,39,0)" height="5px" width="5px" x="56px" y="76px" /><rect fill="rgb(142,39,0)" height="5px" width="5px" x="60px" y="76px" /><rect fill="rgb(142,39,0)" height="5px" width="5px" x="64px" y="76px" /><rect fill="rgb(142,39,0)" height="5px" width="5px" x="68px" y="76px" /><rect fill="rgb(142,39,0)" height="5px" width="5px" x="72px" y="76px" /><rect fill="rgb(139,36,0)" height="5px" opacity="0.250980392157" width="5px" x="76px" y="76px" /><rect fill="rgb(157,98,66)" height="5px" width="5px" x="108px" y="76px" /><rect fill="rgb(157,98,66)" height="5px" width="5px" x="16px" y="80px" /><rect fill="rgb(21,21,0)" height="5px" opacity="0.0470588235294" width="5px" x="36px" y="80px" /><rect fill="rgb(86,29,8)" height="5px" width="5px" x="40px" y="80px" /><rect fill="rgb(130,36,0)" height="5px" opacity="0.552941176471" width="5px" x="44px" y="80px" /><rect fill="rgb(142,39,0)" height="5px" width="5px" x="48px" y="80px" /><rect fill="rgb(142,39,0)" height="5px" width="5px" x="52px" y="80px" /><rect fill="rgb(142,39,0)" height="5px" width="5px" x="56px" y="80px" /><rect fill="rgb(142,39,0)" height="5px" width="5px" x="60px" y="80px" /><rect fill="rgb(142,39,0)" height="5px" width="5px" x="64px" y="80px" /><rect fill="rgb(142,39,0)" height="5px" width="5px" x="68px" y="80px" /><rect fill="rgb(110,33,0)" height="5px" opacity="0.337254901961" width="5px" x="72px" y="80px" /><rect fill="rgb(157,98,66)" height="5px" width="5px" x="104px" y="80px" /><rect fill="rgb(157,98,66)" height="5px" width="5px" x="108px" y="80px" /><rect fill="rgb(157,98,66)" height="5px" width="5px" x="16px" y="84px" /><rect fill="rgb(157,98,66)" height="5px" width="5px" x="20px" y="84px" /><rect fill="rgb(10,10,0)" height="5px" opacity="0.0980392156863" width="5px" x="40px" y="84px" /><rect fill="rgb(130,36,0)" height="5px" opacity="0.552941176471" width="5px" x="44px" y="84px" /><rect fill="rgb(18,18,0)" height="5px" opacity="0.113725490196" width="5px" x="48px" y="84px" /><rect fill="rgb(112,33,0)" height="5px" opacity="0.662745098039" width="5px" x="52px" y="84px" /><rect fill="rgb(14,14,0)" height="5px" opacity="0.0705882352941" width="5px" x="56px" y="84px" /><rect fill="rgb(15,15,0)" height="5px" opacity="0.133333333333" width="5px" x="60px" y="84px" /><rect fill="rgb(123,35,0)" height="5px" opacity="0.874509803922" width="5px" x="64px" y="84px" /><rect fill="rgb(130,36,0)" height="5px" opacity="0.83137254902" width="5px" x="68px" y="84px" /><rect fill="rgb(119,33,0)" height="5px" opacity="0.301960784314" width="5px" x="72px" y="84px" /><rect fill="rgb(157,98,66)" height="5px" width="5px" x="100px" y="84px" /><rect fill="rgb(157,98,66)" height="5px" width="5px" x="104px" y="84px" /><rect fill="rgb(157,98,66)" height="5px" width="5px" x="16px" y="88px" /><rect fill="rgb(157,98,66)" height="5px" width="5px" x="24px" y="88px" /><rect fill="rgb(157,98,66)" height="5px" width="5px" x="28px" y="88px" /><rect fill="rgb(143,38,0)" height="5px" opacity="0.498039215686" width="5px" x="44px" y="88px" /><rect fill="rgb(126,36,0)" height="5px" opacity="0.854901960784" width="5px" x="52px" y="88px" /><rect fill="rgb(13,13,0)" height="5px" opacity="0.078431372549" width="5px" x="56px" y="88px" /><rect fill="rgb(0,0,0)" height="5px" opacity="0.0117647058824" width="5px" x="60px" y="88px" /><rect fill="rgb(128,36,0)" height="5px" opacity="0.560784313725" width="5px" x="64px" y="88px" /><rect fill="rgb(133,37,0)" height="5px" opacity="0.803921568627" width="5px" x="72px" y="88px" /><rect fill="rgb(157,98,66)" height="5px" width="5px" x="92px" y="88px" /><rect fill="rgb(157,98,66)" height="5px" width="5px" x="96px" y="88px" /><rect fill="rgb(157,98,66)" height="5px" width="5px" x="100px" y="88px" /><rect fill="rgb(157,98,66)" height="5px" width="5px" x="104px" y="88px" /><rect fill="rgb(157,98,66)" height="5px" width="5px" x="16px" y="92px" /><rect fill="rgb(157,98,66)" height="5px" width="5px" x="28px" y="92px" /><rect fill="rgb(157,98,66)" height="5px" width="5px" x="32px" y="92px" /><rect fill="rgb(157,98,66)" height="5px" width="5px" x="36px" y="92px" /><rect fill="rgb(143,38,0)" height="5px" opacity="0.498039215686" width="5px" x="44px" y="92px" /><rect fill="rgb(118,33,0)" height="5px" opacity="0.305882352941" width="5px" x="52px" y="92px" /><rect fill="rgb(143,38,0)" height="5px" opacity="0.498039215686" width="5px" x="56px" y="92px" /><rect fill="rgb(135,38,0)" height="5px" opacity="0.525490196078" width="5px" x="64px" y="92px" /><rect fill="rgb(122,36,0)" height="5px" opacity="0.588235294118" width="5px" x="72px" y="92px" /><rect fill="rgb(12,12,0)" height="5px" opacity="0.0823529411765" width="5px" x="76px" y="92px" /><rect fill="rgb(157,98,66)" height="5px" width="5px" x="84px" y="92px" /><rect fill="rgb(157,98,66)" height="5px" width="5px" x="88px" y="92px" /><rect fill="rgb(157,98,66)" height="5px" width="5px" x="92px" y="92px" /><rect fill="rgb(157,98,66)" height="5px" width="5px" x="104px" y="92px" /><rect fill="rgb(157,98,66)" height="5px" width="5px" x="28px" y="96px" /><rect fill="rgb(157,98,66)" height="5px" width="5px" x="36px" y="96px" /><rect fill="rgb(157,98,66)" height="5px" width="5px" x="40px" y="96px" /><rect fill="rgb(157,98,66)" height="5px" width="5px" x="44px" y="96px" /><rect fill="rgb(157,98,66)" height="5px" width="5px" x="76px" y="96px" /><rect fill="rgb(157,98,66)" height="5px" width="5px" x="80px" y="96px" /><rect fill="rgb(157,98,66)" height="5px" width="5px" x="84px" y="96px" /><rect fill="rgb(157,98,66)" height="5px" width="5px" x="92px" y="96px" /><rect fill="rgb(157,98,66)" height="5px" width="5px" x="104px" y="96px" /><rect fill="rgb(157,98,66)" height="5px" width="5px" x="28px" y="100px" /><rect fill="rgb(157,98,66)" height="5px" width="5px" x="36px" y="100px" /><rect fill="rgb(157,98,66)" height="5px" width="5px" x="48px" y="100px" /><rect fill="rgb(157,98,66)" height="5px" width="5px" x="52px" y="100px" /><rect fill="rgb(157,98,66)" height="5px" width="5px" x="56px" y="100px" /><rect fill="rgb(157,98,66)" height="5px" width="5px" x="60px" y="100px" /><rect fill="rgb(157,98,66)" height="5px" width="5px" x="64px" y="100px" /><rect fill="rgb(157,98,66)" height="5px" width="5px" x="68px" y="100px" /><rect fill="rgb(157,98,66)" height="5px" width="5px" x="72px" y="100px" /><rect fill="rgb(157,98,66)" height="5px" width="5px" x="84px" y="100px" /><rect fill="rgb(157,98,66)" height="5px" width="5px" x="92px" y="100px" /><rect fill="rgb(157,98,66)" height="5px" width="5px" x="36px" y="104px" /><rect fill="rgb(157,98,66)" height="5px" width="5px" x="52px" y="104px" /><rect fill="rgb(157,98,66)" height="5px" width="5px" x="68px" y="104px" /><rect fill="rgb(157,98,66)" height="5px" width="5px" x="84px" y="104px" /><rect fill="rgb(157,98,66)" height="5px" width="5px" x="36px" y="108px" /><rect fill="rgb(157,98,66)" height="5px" width="5px" x="52px" y="108px" /><rect fill="rgb(157,98,66)" height="5px" width="5px" x="68px" y="108px" /><rect fill="rgb(157,98,66)" height="5px" width="5px" x="84px" y="108px" /><rect fill="rgb(157,98,66)" height="5px" width="5px" x="52px" y="112px" /><rect fill="rgb(157,98,66)" height="5px" width="5px" x="68px" y="112px" /><rect fill="rgb(157,98,66)" height="5px" width="5px" x="52px" y="116px" /><rect fill="rgb(157,98,66)" height="5px" width="5px" x="68px" y="116px" /></svg>