<?xml version="1.0" encoding="utf-8" ?>
<svg baseProfile="full" height="128px" version="1.1" width="128px" xmlns="http://www.w3.org/2000/svg" xmlns:ev="http://www.w3.org/2001/xml-events" xmlns:xlink="http://www.w3.org/1999/xlink"><defs /><rect fill="rgb(255,255,255)" height="5px" width="5px" x="44px" y="16px" /><rect fill="rgb(56,56,56)" height="5px" opacity="0.301960784314" width="5px" x="48px" y="16px" /><rect fill="rgb(54,54,54)" height="5px" opacity="0.219607843137" width="5px" x="52px" y="16px" /><rect fill="rgb(55,55,55)" height="5px" opacity="0.0901960784314" width="5px" x="56px" y="16px" /><rect fill="rgb(255,255,255)" height="5px" width="5px" x="44px" y="20px" /><rect fill="rgb(108,39,39)" height="5px" width="5px" x="48px" y="20px" /><rect fill="rgb(108,39,39)" height="5px" width="5px" x="52px" y="20px" /><rect fill="rgb(108,39,39)" height="5px" width="5px" x="56px" y="20px" /><rect fill="rgb(108,39,39)" height="5px" width="5px" x="60px" y="20px" /><rect fill="rgb(108,39,39)" height="5px" width="5px" x="64px" y="20px" /><rect fill="rgb(55,55,55)" height="5px" opacity="0.8" width="5px" x="68px" y="20px" /><rect fill="rgb(54,54,54)" height="5px" opacity="0.529411764706" width="5px" x="72px" y="20px" /><rect fill="rgb(54,54,54)" height="5px" opacity="0.0549019607843" width="5px" x="76px" y="20px" /><rect fill="rgb(255,255,255)" height="5px" width="5px" x="44px" y="24px" /><rect fill="rgb(108,39,39)" height="5px" width="5px" x="64px" y="24px" /><rect fill="rgb(108,39,39)" height="5px" width="5px" x="68px" y="24px" /><rect fill="rgb(108,39,39)" height="5px" width="5px" x="72px" y="24px" /><rect fill="rgb(108,39,39)" height="5px" width="5px" x="76px" y="24px" /><rect fill="rgb(54,54,54)" height="5px" opacity="0.752941176471" width="5px" x="80px" y="24px" /><rect fill="rgb(55,55,55)" height="5px" opacity="0.145098039216" width="5px" x="84px" y="24px" /><rect fill="rgb(255,255,255)" height="5px" width="5px" x="44px" y="28px" /><rect fill="rgb(108,39,39)" height="5px" width="5px" x="76px" y="28px" /><rect fill="rgb(108,39,39)" height="5px" width="5px" x="80px" y="28px" /><rect fill="rgb(108,39,39)" height="5px" width="5px" x="84px" y="28px" /><rect fill="rgb(55,55,55)" height="5px" opacity="0.486274509804" width="5px" x="88px" y="28px" /><rect fill="rgb(255,255,255)" height="5px" width="5px" x="44px" y="32px" /><rect fill="rgb(108,39,39)" height="5px" width="5px" x="84px" y="32px" /><rect fill="rgb(108,39,39)" height="5px" width="5px" x="88px" y="32px" /><rect fill="rgb(55,55,55)" height="5px" opacity="0.596078431373" width="5px" x="92px" y="32px" /><rect fill="rgb(255,255,255)" height="5px" width="5px" x="44px" y="36px" /><rect fill="rgb(108,39,39)" height="5px" width="5px" x="88px" y="36px" /><rect fill="rgb(108,39,39)" height="5px" width="5px" x="92px" y="36px" /><rect fill="rgb(54,54,54)" height="5px" opacity="0.403921568627" width="5px" x="96px" y="36px" /><rect fill="rgb(55,55,55)" height="5px" opacity="0.145098039216" width="5px" x="36px" y="40px" /><rect fill="rgb(255,255,255)" height="5px" width="5px" x="44px" y="40px" /><rect fill="rgb(108,39,39)" height="5px" width="5px" x="92px" y="40px" /><rect fill="rgb(108,39,39)" height="5px" width="5px" x="96px" y="40px" /><rect fill="rgb(0,0,0)" height="5px" opacity="0.0078431372549" width="5px" x="100px" y="40px" /><rect fill="rgb(255,255,255)" height="5px" width="5px" x="44px" y="44px" /><rect fill="rgb(55,55,55)" height="5px" opacity="0.145098039216" width="5px" x="48px" y="44px" /><rect fill="rgb(108,39,39)" height="5px" width="5px" x="96px" y="44px" /><rect fill="rgb(255,255,255)" height="5px" width="5px" x="44px" y="48px" /><rect fill="rgb(108,39,39)" height="5px" width="5px" x="96px" y="48px" /><rect fill="rgb(0,0,0)" height="5px" opacity="0.129411764706" width="5px" x="108px" y="48px" /><rect fill="rgb(0,0,0)" height="5px" opacity="0.98431372549" width="5px" x="112px" y="48px" /><rect fill="rgb(0,0,0)" height="5px" opacity="0.145098039216" width="5px" x="116px" y="48px" /><rect fill="rgb(255,255,255)" height="5px" width="5px" x="44px" y="52px" /><rect fill="rgb(108,39,39)" height="5px" width="5px" x="96px" y="52px" /><rect fill="rgb(0,0,0)" height="5px" opacity="0.0156862745098" width="5px" x="108px" y="52px" /><rect fill="rgb(0,0,0)" height="5px" opacity="0.921568627451" width="5px" x="112px" y="52px" /><rect fill="rgb(0,0,0)" height="5px" opacity="0.972549019608" width="5px" x="116px" y="52px" /><rect fill="rgb(0,0,0)" height="5px" opacity="0.835294117647" width="5px" x="120px" y="52px" /><rect fill="rgb(0,0,0)" height="5px" width="5px" x="32px" y="56px" /><rect fill="rgb(0,0,0)" height="5px" width="5px" x="36px" y="56px" /><rect fill="rgb(32,32,32)" height="5px" width="5px" x="40px" y="56px" /><rect fill="rgb(32,32,32)" height="5px" width="5px" x="44px" y="56px" /><rect fill="rgb(0,0,0)" height="5px" width="5px" x="48px" y="56px" /><rect fill="rgb(0,0,0)" height="5px" width="5px" x="52px" y="56px" /><rect fill="rgb(0,0,0)" height="5px" width="5px" x="56px" y="56px" /><rect fill="rgb(0,0,0)" height="5px" width="5px" x="60px" y="56px" /><rect fill="rgb(0,0,0)" height="5px" width="5px" x="64px" y="56px" /><rect fill="rgb(0,0,0)" height="5px" width="5px" x="68px" y="56px" /><rect fill="rgb(0,0,0)" height="5px" width="5px" x="72px" y="56px" /><rect fill="rgb(0,0,0)" height="5px" width="5px" x="76px" y="56px" /><rect fill="rgb(0,0,0)" height="5px" width="5px" x="80px" y="56px" /><rect fill="rgb(0,0,0)" height="5px" width="5px" x="84px" y="56px" /><rect fill="rgb(0,0,0)" height="5px" width="5px" x="88px" y="56px" /><rect fill="rgb(0,0,0)" height="5px" width="5px" x="92px" y="56px" /><rect fill="rgb(0,0,0)" height="5px" width="5px" x="96px" y="56px" /><rect fill="rgb(0,0,0)" height="5px" width="5px" x="100px" y="56px" /><rect fill="rgb(0,0,0)" height="5px" width="5px" x="104px" y="56px" /><rect fill="rgb(0,0,0)" height="5px" width="5px" x="108px" y="56px" /><rect fill="rgb(0,0,0)" height="5px" opacity="0.996078431373" width="5px" x="112px" y="56px" /><rect fill="rgb(0,0,0)" height="5px" opacity="0.988235294118" width="5px" x="116px" y="56px" /><rect fill="rgb(0,0,0)" height="5px" opacity="0.96862745098" width="5px" x="120px" y="56px" /><rect fill="rgb(0,0,0)" height="5px" opacity="0.933333333333" width="5px" x="124px" y="56px" /><rect fill="rgb(255,255,255)" height="5px" width="5px" x="44px" y="60px" /><rect fill="rgb(108,39,39)" height="5px" width="5px" x="96px" y="60px" /><rect fill="rgb(0,0,0)" height="5px" opacity="0.933333333333" width="5px" x="112px" y="60px" /><rect fill="rgb(0,0,0)" height="5px" opacity="0.956862745098" width="5px" x="116px" y="60px" /><rect fill="rgb(0,0,0)" height="5px" opacity="0.98431372549" width="5px" x="120px" y="60px" /><rect fill="rgb(255,255,255)" height="5px" width="5px" x="44px" y="64px" /><rect fill="rgb(108,39,39)" height="5px" width="5px" x="96px" y="64px" /><rect fill="rgb(0,0,0)" height="5px" opacity="0.933333333333" width="5px" x="112px" y="64px" /><rect fill="rgb(255,255,255)" height="5px" width="5px" x="44px" y="68px" /><rect fill="rgb(108,39,39)" height="5px" width="5px" x="96px" y="68px" /><rect fill="rgb(255,255,255)" height="5px" width="5px" x="44px" y="72px" /><rect fill="rgb(108,39,39)" height="5px" width="5px" x="92px" y="72px" /><rect fill="rgb(108,39,39)" height="5px" width="5px" x="96px" y="72px" /><rect fill="rgb(255,255,255)" height="5px" width="5px" x="44px" y="76px" /><rect fill="rgb(108,39,39)" height="5px" width="5px" x="88px" y="76px" /><rect fill="rgb(108,39,39)" height="5px" width="5px" x="92px" y="76px" /><rect fill="rgb(55,55,55)" height="5px" opacity="0.360784313725" width="5px" x="96px" y="76px" /><rect fill="rgb(255,255,255)" height="5px" width="5px" x="44px" y="80px" /><rect fill="rgb(108,39,39)" height="5px" width="5px" x="84px" y="80px" /><rect fill="rgb(108,39,39)" height="5px" width="5px" x="88px" y="80px" /><rect fill="rgb(55,55,55)" height="5px" opacity="0.741176470588" width="5px" x="92px" y="80px" /><rect fill="rgb(255,255,255)" height="5px" width="5px" x="44px" y="84px" /><rect fill="rgb(108,39,39)" height="5px" width="5px" x="84px" y="84px" /><rect fill="rgb(55,55,55)" height="5px" opacity="0.882352941176" width="5px" x="88px" y="84px" /><rect fill="rgb(42,42,42)" height="5px" opacity="0.0235294117647" width="5px" x="92px" y="84px" /><rect fill="rgb(255,255,255)" height="5px" width="5px" x="44px" y="88px" /><rect fill="rgb(108,39,39)" height="5px" width="5px" x="76px" y="88px" /><rect fill="rgb(108,39,39)" height="5px" width="5px" x="80px" y="88px" /><rect fill="rgb(55,55,55)" height="5px" opacity="0.870588235294" width="5px" x="84px" y="88px" /><rect fill="rgb(63,63,63)" height="5px" opacity="0.0313725490196" width="5px" x="88px" y="88px" /><rect fill="rgb(255,255,255)" height="5px" width="5px" x="44px" y="92px" /><rect fill="rgb(108,39,39)" height="5px" width="5px" x="76px" y="92px" /><rect fill="rgb(54,54,54)" height="5px" opacity="0.639215686275" width="5px" x="80px" y="92px" /><rect fill="rgb(255,255,255)" height="5px" width="5px" x="44px" y="96px" /><rect fill="rgb(108,39,39)" height="5px" width="5px" x="64px" y="96px" /><rect fill="rgb(108,39,39)" height="5px" width="5px" x="68px" y="96px" /><rect fill="rgb(55,55,55)" height="5px" opacity="0.780392156863" width="5px" x="72px" y="96px" /><rect fill="rgb(55,55,55)" height="5px" opacity="0.180392156863" width="5px" x="76px" y="96px" /><rect fill="rgb(255,255,255)" height="5px" width="5px" x="44px" y="100px" /><rect fill="rgb(108,39,39)" height="5px" width="5px" x="48px" y="100px" /><rect fill="rgb(108,39,39)" height="5px" width="5px" x="52px" y="100px" /><rect fill="rgb(108,39,39)" height="5px" width="5px" x="56px" y="100px" /><rect fill="rgb(108,39,39)" height="5px" width="5px" x="60px" y="100px" /><rect fill="rgb(55,55,55)" height="5px" opacity="0.501960784314" width="5px" x="64px" y="100px" /><rect fill="rgb(57,57,57)" height="5px" opacity="0.0862745098039" width="5px" x="68px" y="100px" /></svg>