<?xml version="1.0" encoding="utf-8" ?>
<svg baseProfile="full" height="128px" version="1.1" width="128px" xmlns="http://www.w3.org/2000/svg" xmlns:ev="http://www.w3.org/2001/xml-events" xmlns:xlink="http://www.w3.org/1999/xlink"><defs /><rect fill="rgb(128,128,128)" height="5px" width="5px" x="52px" y="8px" /><rect fill="rgb(128,128,128)" height="5px" width="5px" x="56px" y="8px" /><rect fill="rgb(128,128,128)" height="5px" width="5px" x="60px" y="8px" /><rect fill="rgb(128,128,128)" height="5px" width="5px" x="64px" y="8px" /><rect fill="rgb(76,76,76)" height="5px" width="5px" x="68px" y="8px" /><rect fill="rgb(76,76,76)" height="5px" width="5px" x="72px" y="8px" /><rect fill="rgb(76,76,76)" height="5px" width="5px" x="76px" y="8px" /><rect fill="rgb(128,128,128)" height="5px" width="5px" x="80px" y="8px" /><rect fill="rgb(128,128,128)" height="5px" width="5px" x="32px" y="12px" /><rect fill="rgb(128,128,128)" height="5px" width="5px" x="36px" y="12px" /><rect fill="rgb(128,128,128)" height="5px" width="5px" x="40px" y="12px" /><rect fill="rgb(128,128,128)" height="5px" width="5px" x="44px" y="12px" /><rect fill="rgb(128,128,128)" height="5px" width="5px" x="48px" y="12px" /><rect fill="rgb(128,128,128)" height="5px" width="5px" x="52px" y="12px" /><rect fill="rgb(76,76,76)" height="5px" width="5px" x="56px" y="12px" /><rect fill="rgb(76,76,76)" height="5px" width="5px" x="60px" y="12px" /><rect fill="rgb(76,76,76)" height="5px" width="5px" x="64px" y="12px" /><rect fill="rgb(128,128,128)" height="5px" width="5px" x="68px" y="12px" /><rect fill="rgb(128,128,128)" height="5px" width="5px" x="72px" y="12px" /><rect fill="rgb(76,76,76)" height="5px" width="5px" x="76px" y="12px" /><rect fill="rgb(128,128,128)" height="5px" width="5px" x="80px" y="12px" /><rect fill="rgb(128,128,128)" height="5px" width="5px" x="84px" y="12px" /><rect fill="rgb(128,128,128)" height="5px" width="5px" x="88px" y="12px" /><rect fill="rgb(128,128,128)" height="5px" width="5px" x="92px" y="12px" /><rect fill="rgb(128,128,128)" height="5px" width="5px" x="96px" y="12px" /><rect fill="rgb(76,76,76)" height="5px" width="5px" x="100px" y="12px" /><rect fill="rgb(76,76,76)" height="5px" width="5px" x="104px" y="12px" /><rect fill="rgb(128,128,128)" height="5px" width="5px" x="24px" y="16px" /><rect fill="rgb(128,128,128)" height="5px" width="5px" x="28px" y="16px" /><rect fill="rgb(128,128,128)" height="5px" width="5px" x="32px" y="16px" /><rect fill="rgb(128,128,128)" height="5px" width="5px" x="36px" y="16px" /><rect fill="rgb(128,128,128)" height="5px" width="5px" x="40px" y="16px" /><rect fill="rgb(128,128,128)" height="5px" width="5px" x="44px" y="16px" /><rect fill="rgb(128,128,128)" height="5px" width="5px" x="48px" y="16px" /><rect fill="rgb(140,136,109)" height="5px" width="5px" x="52px" y="16px" /><rect fill="rgb(76,76,76)" height="5px" width="5px" x="56px" y="16px" /><rect fill="rgb(128,128,128)" height="5px" width="5px" x="60px" y="16px" /><rect fill="rgb(128,128,128)" height="5px" width="5px" x="64px" y="16px" /><rect fill="rgb(128,128,128)" height="5px" width="5px" x="68px" y="16px" /><rect fill="rgb(128,128,128)" height="5px" width="5px" x="72px" y="16px" /><rect fill="rgb(128,128,128)" height="5px" width="5px" x="76px" y="16px" /><rect fill="rgb(128,128,128)" height="5px" width="5px" x="80px" y="16px" /><rect fill="rgb(128,128,128)" height="5px" width="5px" x="84px" y="16px" /><rect fill="rgb(128,128,128)" height="5px" width="5px" x="88px" y="16px" /><rect fill="rgb(128,128,128)" height="5px" width="5px" x="92px" y="16px" /><rect fill="rgb(128,128,128)" height="5px" width="5px" x="96px" y="16px" /><rect fill="rgb(128,128,128)" height="5px" width="5px" x="100px" y="16px" /><rect fill="rgb(128,128,128)" height="5px" width="5px" x="104px" y="16px" /><rect fill="rgb(128,128,128)" height="5px" width="5px" x="108px" y="16px" /><rect fill="rgb(76,76,76)" height="5px" width="5px" x="8px" y="20px" /><rect fill="rgb(76,76,76)" height="5px" width="5px" x="12px" y="20px" /><rect fill="rgb(76,76,76)" height="5px" width="5px" x="20px" y="20px" /><rect fill="rgb(76,76,76)" height="5px" width="5px" x="24px" y="20px" /><rect fill="rgb(76,76,76)" height="5px" width="5px" x="28px" y="20px" /><rect fill="rgb(76,76,76)" height="5px" width="5px" x="32px" y="20px" /><rect fill="rgb(140,136,109)" height="5px" width="5px" x="36px" y="20px" /><rect fill="rgb(76,76,76)" height="5px" width="5px" x="40px" y="20px" /><rect fill="rgb(76,76,76)" height="5px" width="5px" x="44px" y="20px" /><rect fill="rgb(76,76,76)" height="5px" width="5px" x="48px" y="20px" /><rect fill="rgb(76,76,76)" height="5px" width="5px" x="52px" y="20px" /><rect fill="rgb(76,76,76)" height="5px" width="5px" x="56px" y="20px" /><rect fill="rgb(76,76,76)" height="5px" width="5px" x="60px" y="20px" /><rect fill="rgb(76,76,76)" height="5px" width="5px" x="64px" y="20px" /><rect fill="rgb(128,128,128)" height="5px" width="5px" x="68px" y="20px" /><rect fill="rgb(128,128,128)" height="5px" width="5px" x="72px" y="20px" /><rect fill="rgb(140,136,109)" height="5px" width="5px" x="76px" y="20px" /><rect fill="rgb(140,136,109)" height="5px" width="5px" x="80px" y="20px" /><rect fill="rgb(140,136,109)" height="5px" width="5px" x="84px" y="20px" /><rect fill="rgb(128,128,128)" height="5px" width="5px" x="88px" y="20px" /><rect fill="rgb(128,128,128)" height="5px" width="5px" x="92px" y="20px" /><rect fill="rgb(128,128,128)" height="5px" width="5px" x="96px" y="20px" /><rect fill="rgb(128,128,128)" height="5px" width="5px" x="100px" y="20px" /><rect fill="rgb(76,76,76)" height="5px" width="5px" x="104px" y="20px" /><rect fill="rgb(76,76,76)" height="5px" width="5px" x="108px" y="20px" /><rect fill="rgb(128,128,128)" height="5px" width="5px" x="112px" y="20px" /><rect fill="rgb(76,76,76)" height="5px" width="5px" x="16px" y="24px" /><rect fill="rgb(128,128,128)" height="5px" width="5px" x="20px" y="24px" /><rect fill="rgb(128,128,128)" height="5px" width="5px" x="24px" y="24px" /><rect fill="rgb(94,94,94)" height="5px" width="5px" x="28px" y="24px" /><rect fill="rgb(94,94,94)" height="5px" width="5px" x="32px" y="24px" /><rect fill="rgb(94,94,94)" height="5px" width="5px" x="36px" y="24px" /><rect fill="rgb(76,76,76)" height="5px" width="5px" x="40px" y="24px" /><rect fill="rgb(94,94,94)" height="5px" width="5px" x="44px" y="24px" /><rect fill="rgb(128,128,128)" height="5px" width="5px" x="48px" y="24px" /><rect fill="rgb(94,94,94)" height="5px" width="5px" x="52px" y="24px" /><rect fill="rgb(94,94,94)" height="5px" width="5px" x="56px" y="24px" /><rect fill="rgb(94,94,94)" height="5px" width="5px" x="60px" y="24px" /><rect fill="rgb(94,94,94)" height="5px" width="5px" x="64px" y="24px" /><rect fill="rgb(140,136,109)" height="5px" width="5px" x="68px" y="24px" /><rect fill="rgb(76,76,76)" height="5px" width="5px" x="72px" y="24px" /><rect fill="rgb(140,136,109)" height="5px" width="5px" x="76px" y="24px" /><rect fill="rgb(140,136,109)" height="5px" width="5px" x="80px" y="24px" /><rect fill="rgb(140,136,109)" height="5px" width="5px" x="84px" y="24px" /><rect fill="rgb(140,136,109)" height="5px" width="5px" x="88px" y="24px" /><rect fill="rgb(128,128,128)" height="5px" width="5px" x="92px" y="24px" /><rect fill="rgb(140,136,109)" height="5px" width="5px" x="96px" y="24px" /><rect fill="rgb(140,136,109)" height="5px" width="5px" x="100px" y="24px" /><rect fill="rgb(128,128,128)" height="5px" width="5px" x="104px" y="24px" /><rect fill="rgb(76,76,76)" height="5px" width="5px" x="108px" y="24px" /><rect fill="rgb(76,76,76)" height="5px" width="5px" x="112px" y="24px" /><rect fill="rgb(76,76,76)" height="5px" width="5px" x="116px" y="24px" /><rect fill="rgb(128,128,128)" height="5px" width="5px" x="12px" y="28px" /><rect fill="rgb(76,76,76)" height="5px" width="5px" x="16px" y="28px" /><rect fill="rgb(76,76,76)" height="5px" width="5px" x="20px" y="28px" /><rect fill="rgb(94,94,94)" height="5px" width="5px" x="24px" y="28px" /><rect fill="rgb(94,94,94)" height="5px" width="5px" x="28px" y="28px" /><rect fill="rgb(128,128,128)" height="5px" width="5px" x="32px" y="28px" /><rect fill="rgb(128,128,128)" height="5px" width="5px" x="36px" y="28px" /><rect fill="rgb(140,136,109)" height="5px" width="5px" x="40px" y="28px" /><rect fill="rgb(94,94,94)" height="5px" width="5px" x="44px" y="28px" /><rect fill="rgb(128,128,128)" height="5px" width="5px" x="48px" y="28px" /><rect fill="rgb(76,76,76)" height="5px" width="5px" x="52px" y="28px" /><rect fill="rgb(76,76,76)" height="5px" width="5px" x="56px" y="28px" /><rect fill="rgb(76,76,76)" height="5px" width="5px" x="60px" y="28px" /><rect fill="rgb(76,76,76)" height="5px" width="5px" x="64px" y="28px" /><rect fill="rgb(140,136,109)" height="5px" width="5px" x="68px" y="28px" /><rect fill="rgb(140,136,109)" height="5px" width="5px" x="72px" y="28px" /><rect fill="rgb(140,136,109)" height="5px" width="5px" x="76px" y="28px" /><rect fill="rgb(140,136,109)" height="5px" width="5px" x="80px" y="28px" /><rect fill="rgb(140,136,109)" height="5px" width="5px" x="84px" y="28px" /><rect fill="rgb(76,76,76)" height="5px" width="5px" x="88px" y="28px" /><rect fill="rgb(140,136,109)" height="5px" width="5px" x="92px" y="28px" /><rect fill="rgb(140,136,109)" height="5px" width="5px" x="96px" y="28px" /><rect fill="rgb(140,136,109)" height="5px" width="5px" x="100px" y="28px" /><rect fill="rgb(128,128,128)" height="5px" width="5px" x="104px" y="28px" /><rect fill="rgb(94,94,94)" height="5px" width="5px" x="108px" y="28px" /><rect fill="rgb(128,128,128)" height="5px" width="5px" x="112px" y="28px" /><rect fill="rgb(76,76,76)" height="5px" width="5px" x="116px" y="28px" /><rect fill="rgb(128,128,128)" height="5px" width="5px" x="12px" y="32px" /><rect fill="rgb(128,128,128)" height="5px" width="5px" x="16px" y="32px" /><rect fill="rgb(140,136,109)" height="5px" width="5px" x="20px" y="32px" /><rect fill="rgb(140,136,109)" height="5px" width="5px" x="24px" y="32px" /><rect fill="rgb(76,76,76)" height="5px" width="5px" x="28px" y="32px" /><rect fill="rgb(140,136,109)" height="5px" width="5px" x="32px" y="32px" /><rect fill="rgb(140,136,109)" height="5px" width="5px" x="36px" y="32px" /><rect fill="rgb(140,136,109)" height="5px" width="5px" x="40px" y="32px" /><rect fill="rgb(140,136,109)" height="5px" width="5px" x="44px" y="32px" /><rect fill="rgb(140,136,109)" height="5px" width="5px" x="48px" y="32px" /><rect fill="rgb(140,136,109)" height="5px" width="5px" x="52px" y="32px" /><rect fill="rgb(140,136,109)" height="5px" width="5px" x="56px" y="32px" /><rect fill="rgb(140,136,109)" height="5px" width="5px" x="60px" y="32px" /><rect fill="rgb(140,136,109)" height="5px" width="5px" x="64px" y="32px" /><rect fill="rgb(140,136,109)" height="5px" width="5px" x="68px" y="32px" /><rect fill="rgb(140,136,109)" height="5px" width="5px" x="72px" y="32px" /><rect fill="rgb(140,136,109)" height="5px" width="5px" x="76px" y="32px" /><rect fill="rgb(140,136,109)" height="5px" width="5px" x="80px" y="32px" /><rect fill="rgb(140,136,109)" height="5px" width="5px" x="84px" y="32px" /><rect fill="rgb(140,136,109)" height="5px" width="5px" x="88px" y="32px" /><rect fill="rgb(140,136,109)" height="5px" width="5px" x="92px" y="32px" /><rect fill="rgb(140,136,109)" height="5px" width="5px" x="96px" y="32px" /><rect fill="rgb(140,136,109)" height="5px" width="5px" x="100px" y="32px" /><rect fill="rgb(140,136,109)" height="5px" width="5px" x="104px" y="32px" /><rect fill="rgb(94,94,94)" height="5px" width="5px" x="108px" y="32px" /><rect fill="rgb(94,94,94)" height="5px" width="5px" x="112px" y="32px" /><rect fill="rgb(76,76,76)" height="5px" width="5px" x="116px" y="32px" /><rect fill="rgb(128,128,128)" height="5px" width="5px" x="12px" y="36px" /><rect fill="rgb(128,128,128)" height="5px" width="5px" x="16px" y="36px" /><rect fill="rgb(140,136,109)" height="5px" width="5px" x="20px" y="36px" /><rect fill="rgb(140,136,109)" height="5px" width="5px" x="24px" y="36px" /><rect fill="rgb(140,136,109)" height="5px" width="5px" x="28px" y="36px" /><rect fill="rgb(140,136,109)" height="5px" width="5px" x="32px" y="36px" /><rect fill="rgb(140,136,109)" height="5px" width="5px" x="36px" y="36px" /><rect fill="rgb(140,136,109)" height="5px" width="5px" x="40px" y="36px" /><rect fill="rgb(128,128,128)" height="5px" width="5px" x="44px" y="36px" /><rect fill="rgb(94,94,94)" height="5px" width="5px" x="48px" y="36px" /><rect fill="rgb(94,94,94)" height="5px" width="5px" x="52px" y="36px" /><rect fill="rgb(94,94,94)" height="5px" width="5px" x="56px" y="36px" /><rect fill="rgb(94,94,94)" height="5px" width="5px" x="60px" y="36px" /><rect fill="rgb(140,136,109)" height="5px" width="5px" x="64px" y="36px" /><rect fill="rgb(128,128,128)" height="5px" width="5px" x="68px" y="36px" /><rect fill="rgb(140,136,109)" height="5px" width="5px" x="72px" y="36px" /><rect fill="rgb(76,76,76)" height="5px" width="5px" x="76px" y="36px" /><rect fill="rgb(140,136,109)" height="5px" width="5px" x="80px" y="36px" /><rect fill="rgb(128,128,128)" height="5px" width="5px" x="84px" y="36px" /><rect fill="rgb(128,128,128)" height="5px" width="5px" x="88px" y="36px" /><rect fill="rgb(140,136,109)" height="5px" width="5px" x="92px" y="36px" /><rect fill="rgb(140,136,109)" height="5px" width="5px" x="96px" y="36px" /><rect fill="rgb(140,136,109)" height="5px" width="5px" x="100px" y="36px" /><rect fill="rgb(140,136,109)" height="5px" width="5px" x="104px" y="36px" /><rect fill="rgb(94,94,94)" height="5px" width="5px" x="108px" y="36px" /><rect fill="rgb(94,94,94)" height="5px" width="5px" x="112px" y="36px" /><rect fill="rgb(76,76,76)" height="5px" width="5px" x="116px" y="36px" /><rect fill="rgb(128,128,128)" height="5px" width="5px" x="16px" y="40px" /><rect fill="rgb(128,128,128)" height="5px" width="5px" x="20px" y="40px" /><rect fill="rgb(94,94,94)" height="5px" width="5px" x="24px" y="40px" /><rect fill="rgb(140,136,109)" height="5px" width="5px" x="28px" y="40px" /><rect fill="rgb(140,136,109)" height="5px" width="5px" x="32px" y="40px" /><rect fill="rgb(140,136,109)" height="5px" width="5px" x="36px" y="40px" /><rect fill="rgb(140,136,109)" height="5px" width="5px" x="40px" y="40px" /><rect fill="rgb(140,136,109)" height="5px" width="5px" x="44px" y="40px" /><rect fill="rgb(140,136,109)" height="5px" width="5px" x="48px" y="40px" /><rect fill="rgb(128,128,128)" height="5px" width="5px" x="52px" y="40px" /><rect fill="rgb(128,128,128)" height="5px" width="5px" x="56px" y="40px" /><rect fill="rgb(128,128,128)" height="5px" width="5px" x="60px" y="40px" /><rect fill="rgb(128,128,128)" height="5px" width="5px" x="64px" y="40px" /><rect fill="rgb(128,128,128)" height="5px" width="5px" x="68px" y="40px" /><rect fill="rgb(140,136,109)" height="5px" width="5px" x="72px" y="40px" /><rect fill="rgb(94,94,94)" height="5px" width="5px" x="76px" y="40px" /><rect fill="rgb(94,94,94)" height="5px" width="5px" x="80px" y="40px" /><rect fill="rgb(94,94,94)" height="5px" width="5px" x="84px" y="40px" /><rect fill="rgb(94,94,94)" height="5px" width="5px" x="88px" y="40px" /><rect fill="rgb(94,94,94)" height="5px" width="5px" x="92px" y="40px" /><rect fill="rgb(140,136,109)" height="5px" width="5px" x="96px" y="40px" /><rect fill="rgb(140,136,109)" height="5px" width="5px" x="100px" y="40px" /><rect fill="rgb(140,136,109)" height="5px" width="5px" x="104px" y="40px" /><rect fill="rgb(128,128,128)" height="5px" width="5px" x="108px" y="40px" /><rect fill="rgb(128,128,128)" height="5px" width="5px" x="112px" y="40px" /><rect fill="rgb(76,76,76)" height="5px" width="5px" x="116px" y="40px" /><rect fill="rgb(128,128,128)" height="5px" width="5px" x="20px" y="44px" /><rect fill="rgb(76,76,76)" height="5px" width="5px" x="24px" y="44px" /><rect fill="rgb(128,128,128)" height="5px" width="5px" x="28px" y="44px" /><rect fill="rgb(128,128,128)" height="5px" width="5px" x="32px" y="44px" /><rect fill="rgb(140,136,109)" height="5px" width="5px" x="36px" y="44px" /><rect fill="rgb(76,76,76)" height="5px" width="5px" x="40px" y="44px" /><rect fill="rgb(76,76,76)" height="5px" width="5px" x="44px" y="44px" /><rect fill="rgb(140,136,109)" height="5px" width="5px" x="48px" y="44px" /><rect fill="rgb(140,136,109)" height="5px" width="5px" x="52px" y="44px" /><rect fill="rgb(76,76,76)" height="5px" width="5px" x="56px" y="44px" /><rect fill="rgb(76,76,76)" height="5px" width="5px" x="60px" y="44px" /><rect fill="rgb(76,76,76)" height="5px" width="5px" x="64px" y="44px" /><rect fill="rgb(76,76,76)" height="5px" width="5px" x="68px" y="44px" /><rect fill="rgb(140,136,109)" height="5px" width="5px" x="72px" y="44px" /><rect fill="rgb(140,136,109)" height="5px" width="5px" x="76px" y="44px" /><rect fill="rgb(140,136,109)" height="5px" width="5px" x="80px" y="44px" /><rect fill="rgb(140,136,109)" height="5px" width="5px" x="84px" y="44px" /><rect fill="rgb(140,136,109)" height="5px" width="5px" x="88px" y="44px" /><rect fill="rgb(140,136,109)" height="5px" width="5px" x="92px" y="44px" /><rect fill="rgb(128,128,128)" height="5px" width="5px" x="96px" y="44px" /><rect fill="rgb(128,128,128)" height="5px" width="5px" x="100px" y="44px" /><rect fill="rgb(128,128,128)" height="5px" width="5px" x="104px" y="44px" /><rect fill="rgb(128,128,128)" height="5px" width="5px" x="108px" y="44px" /><rect fill="rgb(128,128,128)" height="5px" width="5px" x="112px" y="44px" /><rect fill="rgb(76,76,76)" height="5px" width="5px" x="24px" y="48px" /><rect fill="rgb(76,76,76)" height="5px" width="5px" x="28px" y="48px" /><rect fill="rgb(128,128,128)" height="5px" width="5px" x="32px" y="48px" /><rect fill="rgb(128,128,128)" height="5px" width="5px" x="36px" y="48px" /><rect fill="rgb(128,128,128)" height="5px" width="5px" x="40px" y="48px" /><rect fill="rgb(128,128,128)" height="5px" width="5px" x="44px" y="48px" /><rect fill="rgb(76,76,76)" height="5px" width="5px" x="48px" y="48px" /><rect fill="rgb(76,76,76)" height="5px" width="5px" x="52px" y="48px" /><rect fill="rgb(76,76,76)" height="5px" width="5px" x="56px" y="48px" /><rect fill="rgb(76,76,76)" height="5px" width="5px" x="60px" y="48px" /><rect fill="rgb(128,128,128)" height="5px" width="5px" x="64px" y="48px" /><rect fill="rgb(128,128,128)" height="5px" width="5px" x="68px" y="48px" /><rect fill="rgb(128,128,128)" height="5px" width="5px" x="72px" y="48px" /><rect fill="rgb(128,128,128)" height="5px" width="5px" x="76px" y="48px" /><rect fill="rgb(128,128,128)" height="5px" width="5px" x="80px" y="48px" /><rect fill="rgb(128,128,128)" height="5px" width="5px" x="84px" y="48px" /><rect fill="rgb(76,76,76)" height="5px" width="5px" x="88px" y="48px" /><rect fill="rgb(76,76,76)" height="5px" width="5px" x="92px" y="48px" /><rect fill="rgb(76,76,76)" height="5px" width="5px" x="96px" y="48px" /><rect fill="rgb(76,76,76)" height="5px" width="5px" x="100px" y="48px" /><rect fill="rgb(76,76,76)" height="5px" width="5px" x="104px" y="48px" /><rect fill="rgb(76,76,76)" height="5px" width="5px" x="108px" y="48px" /><rect fill="rgb(128,128,128)" height="5px" width="5px" x="36px" y="52px" /><rect fill="rgb(128,128,128)" height="5px" width="5px" x="40px" y="52px" /><rect fill="rgb(76,76,76)" height="5px" width="5px" x="44px" y="52px" /><rect fill="rgb(128,128,128)" height="5px" width="5px" x="48px" y="52px" /><rect fill="rgb(128,128,128)" height="5px" width="5px" x="52px" y="52px" /><rect fill="rgb(128,128,128)" height="5px" width="5px" x="56px" y="52px" /><rect fill="rgb(76,76,76)" height="5px" width="5px" x="60px" y="52px" /><rect fill="rgb(76,76,76)" height="5px" width="5px" x="64px" y="52px" /><rect fill="rgb(128,128,128)" height="5px" width="5px" x="68px" y="52px" /><rect fill="rgb(128,128,128)" height="5px" width="5px" x="72px" y="52px" /><rect fill="rgb(76,76,76)" height="5px" width="5px" x="76px" y="52px" /><rect fill="rgb(76,76,76)" height="5px" width="5px" x="80px" y="52px" /><rect fill="rgb(76,76,76)" height="5px" width="5px" x="84px" y="52px" /><rect fill="rgb(128,128,128)" height="5px" width="5px" x="88px" y="52px" /><rect fill="rgb(128,128,128)" height="5px" width="5px" x="92px" y="52px" /><rect fill="rgb(128,128,128)" height="5px" width="5px" x="96px" y="52px" /><rect fill="rgb(76,76,76)" height="5px" width="5px" x="112px" y="52px" /><rect fill="rgb(164,164,164)" height="5px" width="5px" x="52px" y="56px" /><rect fill="rgb(233,204,17)" height="5px" width="5px" x="56px" y="56px" /><rect fill="rgb(94,94,94)" height="5px" width="5px" x="60px" y="56px" /><rect fill="rgb(94,94,94)" height="5px" width="5px" x="64px" y="56px" /><rect fill="rgb(233,204,17)" height="5px" width="5px" x="68px" y="56px" /><rect fill="rgb(132,132,132)" height="5px" width="5px" x="72px" y="56px" /><rect fill="rgb(128,128,128)" height="5px" width="5px" x="52px" y="60px" /><rect fill="rgb(76,76,76)" height="5px" width="5px" x="56px" y="60px" /><rect fill="rgb(93,93,93)" height="5px" width="5px" x="60px" y="60px" /><rect fill="rgb(94,94,94)" height="5px" width="5px" x="64px" y="60px" /><rect fill="rgb(94,94,94)" height="5px" width="5px" x="68px" y="60px" /><rect fill="rgb(163,163,163)" height="5px" width="5px" x="72px" y="60px" /><rect fill="rgb(128,128,128)" height="5px" width="5px" x="76px" y="60px" /><rect fill="rgb(128,128,128)" height="5px" width="5px" x="52px" y="64px" /><rect fill="rgb(76,76,76)" height="5px" width="5px" x="56px" y="64px" /><rect fill="rgb(49,49,49)" height="5px" width="5px" x="60px" y="64px" /><rect fill="rgb(94,94,94)" height="5px" width="5px" x="64px" y="64px" /><rect fill="rgb(94,94,94)" height="5px" width="5px" x="68px" y="64px" /><rect fill="rgb(233,204,17)" height="5px" width="5px" x="72px" y="64px" /><rect fill="rgb(128,128,128)" height="5px" width="5px" x="76px" y="64px" /><rect fill="rgb(128,128,128)" height="5px" width="5px" x="48px" y="68px" /><rect fill="rgb(160,160,160)" height="5px" width="5px" x="52px" y="68px" /><rect fill="rgb(55,55,55)" height="5px" width="5px" x="56px" y="68px" /><rect fill="rgb(233,204,17)" height="5px" width="5px" x="60px" y="68px" /><rect fill="rgb(94,94,94)" height="5px" width="5px" x="64px" y="68px" /><rect fill="rgb(94,94,94)" height="5px" width="5px" x="68px" y="68px" /><rect fill="rgb(233,204,17)" height="5px" width="5px" x="72px" y="68px" /><rect fill="rgb(128,128,128)" height="5px" width="5px" x="76px" y="68px" /><rect fill="rgb(128,128,128)" height="5px" width="5px" x="80px" y="68px" /><rect fill="rgb(128,128,128)" height="5px" width="5px" x="48px" y="72px" /><rect fill="rgb(76,76,76)" height="5px" width="5px" x="52px" y="72px" /><rect fill="rgb(94,94,94)" height="5px" width="5px" x="56px" y="72px" /><rect fill="rgb(255,235,48)" height="5px" width="5px" x="60px" y="72px" /><rect fill="rgb(76,76,76)" height="5px" width="5px" x="64px" y="72px" /><rect fill="rgb(103,103,103)" height="5px" width="5px" x="68px" y="72px" /><rect fill="rgb(94,94,94)" height="5px" width="5px" x="72px" y="72px" /><rect fill="rgb(233,204,17)" height="5px" width="5px" x="76px" y="72px" /><rect fill="rgb(128,128,128)" height="5px" width="5px" x="80px" y="72px" /><rect fill="rgb(128,128,128)" height="5px" width="5px" x="44px" y="76px" /><rect fill="rgb(121,121,121)" height="5px" width="5px" x="48px" y="76px" /><rect fill="rgb(76,76,76)" height="5px" width="5px" x="52px" y="76px" /><rect fill="rgb(94,94,94)" height="5px" width="5px" x="56px" y="76px" /><rect fill="rgb(128,128,128)" height="5px" width="5px" x="60px" y="76px" /><rect fill="rgb(76,76,76)" height="5px" width="5px" x="64px" y="76px" /><rect fill="rgb(94,94,94)" height="5px" width="5px" x="68px" y="76px" /><rect fill="rgb(94,94,94)" height="5px" width="5px" x="72px" y="76px" /><rect fill="rgb(121,121,121)" height="5px" width="5px" x="76px" y="76px" /><rect fill="rgb(94,94,94)" height="5px" width="5px" x="80px" y="76px" /><rect fill="rgb(128,128,128)" height="5px" width="5px" x="84px" y="76px" /><rect fill="rgb(128,128,128)" height="5px" width="5px" x="44px" y="80px" /><rect fill="rgb(94,94,94)" height="5px" width="5px" x="48px" y="80px" /><rect fill="rgb(76,76,76)" height="5px" width="5px" x="52px" y="80px" /><rect fill="rgb(94,94,94)" height="5px" width="5px" x="56px" y="80px" /><rect fill="rgb(233,204,17)" height="5px" width="5px" x="60px" y="80px" /><rect fill="rgb(76,76,76)" height="5px" width="5px" x="64px" y="80px" /><rect fill="rgb(76,76,76)" height="5px" width="5px" x="68px" y="80px" /><rect fill="rgb(94,94,94)" height="5px" width="5px" x="72px" y="80px" /><rect fill="rgb(94,94,94)" height="5px" width="5px" x="76px" y="80px" /><rect fill="rgb(86,86,86)" height="5px" width="5px" x="80px" y="80px" /><rect fill="rgb(94,94,94)" height="5px" width="5px" x="84px" y="80px" /><rect fill="rgb(126,126,126)" height="5px" width="5px" x="40px" y="84px" /><rect fill="rgb(128,128,128)" height="5px" width="5px" x="44px" y="84px" /><rect fill="rgb(235,206,19)" height="5px" width="5px" x="48px" y="84px" /><rect fill="rgb(69,69,69)" height="5px" width="5px" x="52px" y="84px" /><rect fill="rgb(100,100,100)" height="5px" width="5px" x="56px" y="84px" /><rect fill="rgb(233,204,17)" height="5px" width="5px" x="60px" y="84px" /><rect fill="rgb(76,76,76)" height="5px" width="5px" x="64px" y="84px" /><rect fill="rgb(76,76,76)" height="5px" width="5px" x="68px" y="84px" /><rect fill="rgb(94,94,94)" height="5px" width="5px" x="72px" y="84px" /><rect fill="rgb(128,128,128)" height="5px" width="5px" x="76px" y="84px" /><rect fill="rgb(94,94,94)" height="5px" width="5px" x="80px" y="84px" /><rect fill="rgb(233,204,17)" height="5px" width="5px" x="84px" y="84px" /><rect fill="rgb(72,72,72)" height="5px" width="5px" x="88px" y="84px" /><rect fill="rgb(154,154,154)" height="5px" width="5px" x="92px" y="84px" /><rect fill="rgb(150,150,150)" height="5px" width="5px" x="36px" y="88px" /><rect fill="rgb(128,128,128)" height="5px" width="5px" x="40px" y="88px" /><rect fill="rgb(128,128,128)" height="5px" width="5px" x="44px" y="88px" /><rect fill="rgb(226,197,10)" height="5px" width="5px" x="48px" y="88px" /><rect fill="rgb(94,94,94)" height="5px" width="5px" x="52px" y="88px" /><rect fill="rgb(94,94,94)" height="5px" width="5px" x="56px" y="88px" /><rect fill="rgb(233,204,17)" height="5px" width="5px" x="60px" y="88px" /><rect fill="rgb(94,94,94)" height="5px" width="5px" x="64px" y="88px" /><rect fill="rgb(76,76,76)" height="5px" width="5px" x="68px" y="88px" /><rect fill="rgb(94,94,94)" height="5px" width="5px" x="72px" y="88px" /><rect fill="rgb(229,200,13)" height="5px" width="5px" x="76px" y="88px" /><rect fill="rgb(94,94,94)" height="5px" width="5px" x="80px" y="88px" /><rect fill="rgb(94,94,94)" height="5px" width="5px" x="84px" y="88px" /><rect fill="rgb(255,246,59)" height="5px" width="5px" x="88px" y="88px" /><rect fill="rgb(128,128,128)" height="5px" width="5px" x="92px" y="88px" /><rect fill="rgb(128,128,128)" height="5px" width="5px" x="96px" y="88px" /><rect fill="rgb(128,128,128)" height="5px" width="5px" x="32px" y="92px" /><rect fill="rgb(128,128,128)" height="5px" width="5px" x="36px" y="92px" /><rect fill="rgb(233,204,17)" height="5px" width="5px" x="40px" y="92px" /><rect fill="rgb(94,94,94)" height="5px" width="5px" x="44px" y="92px" /><rect fill="rgb(94,94,94)" height="5px" width="5px" x="48px" y="92px" /><rect fill="rgb(249,220,33)" height="5px" width="5px" x="52px" y="92px" /><rect fill="rgb(94,94,94)" height="5px" width="5px" x="56px" y="92px" /><rect fill="rgb(82,82,82)" height="5px" width="5px" x="60px" y="92px" /><rect fill="rgb(94,94,94)" height="5px" width="5px" x="64px" y="92px" /><rect fill="rgb(76,76,76)" height="5px" width="5px" x="68px" y="92px" /><rect fill="rgb(94,94,94)" height="5px" width="5px" x="72px" y="92px" /><rect fill="rgb(109,109,109)" height="5px" width="5px" x="76px" y="92px" /><rect fill="rgb(233,204,17)" height="5px" width="5px" x="80px" y="92px" /><rect fill="rgb(76,76,76)" height="5px" width="5px" x="84px" y="92px" /><rect fill="rgb(94,94,94)" height="5px" width="5px" x="88px" y="92px" /><rect fill="rgb(255,236,49)" height="5px" width="5px" x="92px" y="92px" /><rect fill="rgb(155,155,155)" height="5px" width="5px" x="96px" y="92px" /><rect fill="rgb(128,128,128)" height="5px" width="5px" x="100px" y="92px" /><rect fill="rgb(128,128,128)" height="5px" width="5px" x="104px" y="92px" /><rect fill="rgb(128,128,128)" height="5px" width="5px" x="24px" y="96px" /><rect fill="rgb(128,128,128)" height="5px" width="5px" x="28px" y="96px" /><rect fill="rgb(255,255,69)" height="5px" width="5px" x="32px" y="96px" /><rect fill="rgb(233,204,17)" height="5px" width="5px" x="36px" y="96px" /><rect fill="rgb(94,94,94)" height="5px" width="5px" x="40px" y="96px" /><rect fill="rgb(76,76,76)" height="5px" width="5px" x="44px" y="96px" /><rect fill="rgb(94,94,94)" height="5px" width="5px" x="48px" y="96px" /><rect fill="rgb(94,94,94)" height="5px" width="5px" x="52px" y="96px" /><rect fill="rgb(119,119,119)" height="5px" width="5px" x="56px" y="96px" /><rect fill="rgb(76,76,76)" height="5px" width="5px" x="60px" y="96px" /><rect fill="rgb(233,204,17)" height="5px" width="5px" x="64px" y="96px" /><rect fill="rgb(94,94,94)" height="5px" width="5px" x="68px" y="96px" /><rect fill="rgb(76,76,76)" height="5px" width="5px" x="72px" y="96px" /><rect fill="rgb(94,94,94)" height="5px" width="5px" x="76px" y="96px" /><rect fill="rgb(128,128,128)" height="5px" width="5px" x="80px" y="96px" /><rect fill="rgb(230,201,14)" height="5px" width="5px" x="84px" y="96px" /><rect fill="rgb(97,97,97)" height="5px" width="5px" x="88px" y="96px" /><rect fill="rgb(72,72,72)" height="5px" width="5px" x="92px" y="96px" /><rect fill="rgb(255,255,73)" height="5px" width="5px" x="96px" y="96px" /><rect fill="rgb(233,204,17)" height="5px" width="5px" x="100px" y="96px" /><rect fill="rgb(128,128,128)" height="5px" width="5px" x="104px" y="96px" /><rect fill="rgb(128,128,128)" height="5px" width="5px" x="108px" y="96px" /><rect fill="rgb(128,128,128)" height="5px" width="5px" x="20px" y="100px" /><rect fill="rgb(128,128,128)" height="5px" width="5px" x="24px" y="100px" /><rect fill="rgb(62,62,62)" height="5px" width="5px" x="28px" y="100px" /><rect fill="rgb(76,76,76)" height="5px" width="5px" x="32px" y="100px" /><rect fill="rgb(93,93,93)" height="5px" width="5px" x="36px" y="100px" /><rect fill="rgb(94,94,94)" height="5px" width="5px" x="40px" y="100px" /><rect fill="rgb(94,94,94)" height="5px" width="5px" x="44px" y="100px" /><rect fill="rgb(233,146,17)" height="5px" width="5px" x="48px" y="100px" /><rect fill="rgb(115,115,115)" height="5px" width="5px" x="52px" y="100px" /><rect fill="rgb(233,204,17)" height="5px" width="5px" x="56px" y="100px" /><rect fill="rgb(63,63,63)" height="5px" width="5px" x="60px" y="100px" /><rect fill="rgb(233,204,17)" height="5px" width="5px" x="64px" y="100px" /><rect fill="rgb(94,94,94)" height="5px" width="5px" x="68px" y="100px" /><rect fill="rgb(76,76,76)" height="5px" width="5px" x="72px" y="100px" /><rect fill="rgb(218,189,2)" height="5px" width="5px" x="76px" y="100px" /><rect fill="rgb(145,145,145)" height="5px" width="5px" x="80px" y="100px" /><rect fill="rgb(128,128,128)" height="5px" width="5px" x="84px" y="100px" /><rect fill="rgb(35,35,35)" height="5px" width="5px" x="88px" y="100px" /><rect fill="rgb(94,94,94)" height="5px" width="5px" x="92px" y="100px" /><rect fill="rgb(76,76,76)" height="5px" width="5px" x="96px" y="100px" /><rect fill="rgb(76,76,76)" height="5px" width="5px" x="100px" y="100px" /><rect fill="rgb(187,158,0)" height="5px" width="5px" x="104px" y="100px" /><rect fill="rgb(128,128,128)" height="5px" width="5px" x="108px" y="100px" /><rect fill="rgb(128,128,128)" height="5px" width="5px" x="112px" y="100px" /><rect fill="rgb(128,128,128)" height="5px" width="5px" x="20px" y="104px" /><rect fill="rgb(128,128,128)" height="5px" width="5px" x="24px" y="104px" /><rect fill="rgb(76,76,76)" height="5px" width="5px" x="28px" y="104px" /><rect fill="rgb(233,146,17)" height="5px" width="5px" x="32px" y="104px" /><rect fill="rgb(137,137,137)" height="5px" width="5px" x="36px" y="104px" /><rect fill="rgb(94,94,94)" height="5px" width="5px" x="40px" y="104px" /><rect fill="rgb(115,115,115)" height="5px" width="5px" x="44px" y="104px" /><rect fill="rgb(233,146,17)" height="5px" width="5px" x="48px" y="104px" /><rect fill="rgb(233,146,17)" height="5px" width="5px" x="52px" y="104px" /><rect fill="rgb(92,92,92)" height="5px" width="5px" x="56px" y="104px" /><rect fill="rgb(255,243,56)" height="5px" width="5px" x="60px" y="104px" /><rect fill="rgb(119,119,119)" height="5px" width="5px" x="64px" y="104px" /><rect fill="rgb(218,131,2)" height="5px" width="5px" x="68px" y="104px" /><rect fill="rgb(232,145,16)" height="5px" width="5px" x="72px" y="104px" /><rect fill="rgb(76,76,76)" height="5px" width="5px" x="76px" y="104px" /><rect fill="rgb(233,146,17)" height="5px" width="5px" x="80px" y="104px" /><rect fill="rgb(136,136,136)" height="5px" width="5px" x="84px" y="104px" /><rect fill="rgb(128,128,128)" height="5px" width="5px" x="88px" y="104px" /><rect fill="rgb(233,204,17)" height="5px" width="5px" x="92px" y="104px" /><rect fill="rgb(128,128,128)" height="5px" width="5px" x="96px" y="104px" /><rect fill="rgb(76,76,76)" height="5px" width="5px" x="100px" y="104px" /><rect fill="rgb(111,111,111)" height="5px" width="5px" x="104px" y="104px" /><rect fill="rgb(128,128,128)" height="5px" width="5px" x="108px" y="104px" /><rect fill="rgb(152,152,152)" height="5px" width="5px" x="12px" y="108px" /><rect fill="rgb(124,124,124)" height="5px" width="5px" x="16px" y="108px" /><rect fill="rgb(90,90,90)" height="5px" width="5px" x="20px" y="108px" /><rect fill="rgb(233,146,17)" height="5px" width="5px" x="24px" y="108px" /><rect fill="rgb(233,146,17)" height="5px" width="5px" x="28px" y="108px" /><rect fill="rgb(233,146,17)" height="5px" width="5px" x="32px" y="108px" /><rect fill="rgb(94,94,94)" height="5px" width="5px" x="36px" y="108px" /><rect fill="rgb(94,94,94)" height="5px" width="5px" x="40px" y="108px" /><rect fill="rgb(76,76,76)" height="5px" width="5px" x="44px" y="108px" /><rect fill="rgb(103,103,103)" height="5px" width="5px" x="48px" y="108px" /><rect fill="rgb(45,45,45)" height="5px" width="5px" x="52px" y="108px" /><rect fill="rgb(76,76,76)" height="5px" width="5px" x="56px" y="108px" /><rect fill="rgb(76,76,76)" height="5px" width="5px" x="60px" y="108px" /><rect fill="rgb(94,94,94)" height="5px" width="5px" x="64px" y="108px" /><rect fill="rgb(64,64,64)" height="5px" width="5px" x="68px" y="108px" /><rect fill="rgb(78,78,78)" height="5px" width="5px" x="72px" y="108px" /><rect fill="rgb(76,76,76)" height="5px" width="5px" x="76px" y="108px" /><rect fill="rgb(233,146,17)" height="5px" width="5px" x="80px" y="108px" /><rect fill="rgb(94,94,94)" height="5px" width="5px" x="84px" y="108px" /><rect fill="rgb(94,94,94)" height="5px" width="5px" x="88px" y="108px" /><rect fill="rgb(76,76,76)" height="5px" width="5px" x="92px" y="108px" /><rect fill="rgb(233,204,17)" height="5px" width="5px" x="96px" y="108px" /><rect fill="rgb(128,128,128)" height="5px" width="5px" x="100px" y="108px" /><rect fill="rgb(94,94,94)" height="5px" width="5px" x="104px" y="108px" /><rect fill="rgb(233,204,17)" height="5px" width="5px" x="108px" y="108px" /><rect fill="rgb(128,128,128)" height="5px" width="5px" x="112px" y="108px" /><rect fill="rgb(94,94,94)" height="5px" width="5px" x="8px" y="112px" /><rect fill="rgb(94,94,94)" height="5px" width="5px" x="12px" y="112px" /><rect fill="rgb(94,94,94)" height="5px" width="5px" x="16px" y="112px" /><rect fill="rgb(94,94,94)" height="5px" width="5px" x="20px" y="112px" /><rect fill="rgb(94,94,94)" height="5px" width="5px" x="24px" y="112px" /><rect fill="rgb(233,146,17)" height="5px" width="5px" x="28px" y="112px" /><rect fill="rgb(110,110,110)" height="5px" width="5px" x="32px" y="112px" /><rect fill="rgb(94,94,94)" height="5px" width="5px" x="36px" y="112px" /><rect fill="rgb(94,94,94)" height="5px" width="5px" x="40px" y="112px" /><rect fill="rgb(94,94,94)" height="5px" width="5px" x="44px" y="112px" /><rect fill="rgb(94,94,94)" height="5px" width="5px" x="48px" y="112px" /><rect fill="rgb(94,94,94)" height="5px" width="5px" x="52px" y="112px" /><rect fill="rgb(94,94,94)" height="5px" width="5px" x="56px" y="112px" /><rect fill="rgb(70,70,70)" height="5px" width="5px" x="60px" y="112px" /><rect fill="rgb(60,60,60)" height="5px" width="5px" x="64px" y="112px" /><rect fill="rgb(94,94,94)" height="5px" width="5px" x="68px" y="112px" /><rect fill="rgb(94,94,94)" height="5px" width="5px" x="72px" y="112px" /><rect fill="rgb(94,94,94)" height="5px" width="5px" x="76px" y="112px" /><rect fill="rgb(94,94,94)" height="5px" width="5px" x="80px" y="112px" /><rect fill="rgb(232,145,16)" height="5px" width="5px" x="84px" y="112px" /><rect fill="rgb(233,146,17)" height="5px" width="5px" x="88px" y="112px" /><rect fill="rgb(84,84,84)" height="5px" width="5px" x="92px" y="112px" /><rect fill="rgb(76,76,76)" height="5px" width="5px" x="96px" y="112px" /><rect fill="rgb(94,94,94)" height="5px" width="5px" x="100px" y="112px" /><rect fill="rgb(94,94,94)" height="5px" width="5px" x="104px" y="112px" /><rect fill="rgb(79,79,79)" height="5px" width="5px" x="108px" y="112px" /><rect fill="rgb(128,128,128)" height="5px" width="5px" x="112px" y="112px" /><rect fill="rgb(128,128,128)" height="5px" width="5px" x="116px" y="112px" /><rect fill="rgb(94,94,94)" height="5px" width="5px" x="8px" y="116px" /><rect fill="rgb(128,128,128)" height="5px" width="5px" x="12px" y="116px" /><rect fill="rgb(94,94,94)" height="5px" width="5px" x="16px" y="116px" /><rect fill="rgb(94,94,94)" height="5px" width="5px" x="20px" y="116px" /><rect fill="rgb(94,94,94)" height="5px" width="5px" x="24px" y="116px" /><rect fill="rgb(203,116,0)" height="5px" width="5px" x="28px" y="116px" /><rect fill="rgb(233,146,17)" height="5px" width="5px" x="32px" y="116px" /><rect fill="rgb(128,128,128)" height="5px" width="5px" x="36px" y="116px" /><rect fill="rgb(128,128,128)" height="5px" width="5px" x="40px" y="116px" /><rect fill="rgb(100,100,100)" height="5px" width="5px" x="44px" y="116px" /><rect fill="rgb(76,76,76)" height="5px" width="5px" x="48px" y="116px" /><rect fill="rgb(76,76,76)" height="5px" width="5px" x="52px" y="116px" /><rect fill="rgb(76,76,76)" height="5px" width="5px" x="56px" y="116px" /><rect fill="rgb(76,76,76)" height="5px" width="5px" x="60px" y="116px" /><rect fill="rgb(46,46,46)" height="5px" width="5px" x="64px" y="116px" /><rect fill="rgb(76,76,76)" height="5px" width="5px" x="68px" y="116px" /><rect fill="rgb(76,76,76)" height="5px" width="5px" x="72px" y="116px" /><rect fill="rgb(233,146,17)" height="5px" width="5px" x="76px" y="116px" /><rect fill="rgb(128,128,128)" height="5px" width="5px" x="80px" y="116px" /><rect fill="rgb(128,128,128)" height="5px" width="5px" x="84px" y="116px" /><rect fill="rgb(233,146,17)" height="5px" width="5px" x="88px" y="116px" /><rect fill="rgb(233,146,17)" height="5px" width="5px" x="92px" y="116px" /><rect fill="rgb(107,107,107)" height="5px" width="5px" x="96px" y="116px" /><rect fill="rgb(94,94,94)" height="5px" width="5px" x="100px" y="116px" /><rect fill="rgb(94,94,94)" height="5px" width="5px" x="104px" y="116px" /><rect fill="rgb(94,94,94)" height="5px" width="5px" x="108px" y="116px" /><rect fill="rgb(94,94,94)" height="5px" width="5px" x="112px" y="116px" /><rect fill="rgb(94,94,94)" height="5px" width="5px" x="116px" y="116px" /><rect fill="rgb(94,94,94)" height="5px" width="5px" x="16px" y="120px" /><rect fill="rgb(233,204,17)" height="5px" width="5px" x="20px" y="120px" /><rect fill="rgb(94,94,94)" height="5px" width="5px" x="24px" y="120px" /><rect fill="rgb(94,94,94)" height="5px" width="5px" x="28px" y="120px" /><rect fill="rgb(94,94,94)" height="5px" width="5px" x="32px" y="120px" /><rect fill="rgb(94,94,94)" height="5px" width="5px" x="36px" y="120px" /><rect fill="rgb(94,94,94)" height="5px" width="5px" x="40px" y="120px" /><rect fill="rgb(94,94,94)" height="5px" width="5px" x="44px" y="120px" /><rect fill="rgb(128,128,128)" height="5px" width="5px" x="48px" y="120px" /><rect fill="rgb(128,128,128)" height="5px" width="5px" x="52px" y="120px" /><rect fill="rgb(128,128,128)" height="5px" width="5px" x="56px" y="120px" /><rect fill="rgb(128,128,128)" height="5px" width="5px" x="60px" y="120px" /><rect fill="rgb(128,128,128)" height="5px" width="5px" x="64px" y="120px" /><rect fill="rgb(128,128,128)" height="5px" width="5px" x="68px" y="120px" /><rect fill="rgb(128,128,128)" height="5px" width="5px" x="72px" y="120px" /><rect fill="rgb(128,128,128)" height="5px" width="5px" x="76px" y="120px" /><rect fill="rgb(128,128,128)" height="5px" width="5px" x="80px" y="120px" /><rect fill="rgb(128,128,128)" height="5px" width="5px" x="84px" y="120px" /><rect fill="rgb(128,128,128)" height="5px" width="5px" x="88px" y="120px" /><rect fill="rgb(76,76,76)" height="5px" width="5px" x="92px" y="120px" /><rect fill="rgb(128,128,128)" height="5px" width="5px" x="96px" y="120px" /><rect fill="rgb(94,94,94)" height="5px" width="5px" x="100px" y="120px" /><rect fill="rgb(94,94,94)" height="5px" width="5px" x="104px" y="120px" /><rect fill="rgb(79,79,79)" height="5px" width="5px" x="108px" y="120px" /><rect fill="rgb(94,94,94)" height="5px" width="5px" x="16px" y="124px" /><rect fill="rgb(94,94,94)" height="5px" width="5px" x="20px" y="124px" /><rect fill="rgb(94,94,94)" height="5px" width="5px" x="24px" y="124px" /><rect fill="rgb(94,94,94)" height="5px" width="5px" x="28px" y="124px" /></svg>