<?xml version="1.0" encoding="utf-8" ?>
<svg baseProfile="full" height="128px" version="1.1" width="128px" xmlns="http://www.w3.org/2000/svg" xmlns:ev="http://www.w3.org/2001/xml-events" xmlns:xlink="http://www.w3.org/1999/xlink"><defs /><rect fill="rgb(255,255,255)" height="5px" opacity="0.00392156862745" width="5px" x="104px" y="20px" /><rect fill="rgb(255,255,255)" height="5px" opacity="0.00392156862745" width="5px" x="108px" y="20px" /><rect fill="rgb(255,255,255)" height="5px" opacity="0.00392156862745" width="5px" x="112px" y="20px" /><rect fill="rgb(255,255,255)" height="5px" opacity="0.00392156862745" width="5px" x="116px" y="20px" /><rect fill="rgb(255,255,255)" height="5px" opacity="0.00392156862745" width="5px" x="120px" y="20px" /><rect fill="rgb(255,255,255)" height="5px" opacity="0.00392156862745" width="5px" x="124px" y="20px" /><rect fill="rgb(255,255,255)" height="5px" opacity="0.00392156862745" width="5px" x="36px" y="24px" /><rect fill="rgb(255,255,255)" height="5px" opacity="0.0196078431373" width="5px" x="40px" y="24px" /><rect fill="rgb(255,255,255)" height="5px" opacity="0.0352941176471" width="5px" x="44px" y="24px" /><rect fill="rgb(255,255,255)" height="5px" opacity="0.0352941176471" width="5px" x="48px" y="24px" /><rect fill="rgb(255,255,255)" height="5px" opacity="0.0274509803922" width="5px" x="52px" y="24px" /><rect fill="rgb(255,255,255)" height="5px" opacity="0.0156862745098" width="5px" x="56px" y="24px" /><rect fill="rgb(255,255,255)" height="5px" opacity="0.00392156862745" width="5px" x="60px" y="24px" /><rect fill="rgb(255,255,255)" height="5px" opacity="0.0078431372549" width="5px" x="88px" y="24px" /><rect fill="rgb(255,255,255)" height="5px" opacity="0.0156862745098" width="5px" x="92px" y="24px" /><rect fill="rgb(255,255,255)" height="5px" opacity="0.0196078431373" width="5px" x="96px" y="24px" /><rect fill="rgb(255,255,255)" height="5px" opacity="0.0196078431373" width="5px" x="100px" y="24px" /><rect fill="rgb(255,255,255)" height="5px" opacity="0.0117647058824" width="5px" x="104px" y="24px" /><rect fill="rgb(255,255,255)" height="5px" opacity="0.0078431372549" width="5px" x="108px" y="24px" /><rect fill="rgb(255,255,255)" height="5px" opacity="0.00392156862745" width="5px" x="112px" y="24px" /><rect fill="rgb(0,0,0)" height="5px" opacity="0.462745098039" width="5px" x="8px" y="28px" /><rect fill="rgb(0,0,0)" height="5px" opacity="0.945098039216" width="5px" x="12px" y="28px" /><rect fill="rgb(0,0,0)" height="5px" opacity="0.870588235294" width="5px" x="16px" y="28px" /><rect fill="rgb(0,0,0)" height="5px" opacity="0.705882352941" width="5px" x="20px" y="28px" /><rect fill="rgb(0,0,0)" height="5px" opacity="0.474509803922" width="5px" x="24px" y="28px" /><rect fill="rgb(0,0,0)" height="5px" opacity="0.188235294118" width="5px" x="28px" y="28px" /><rect fill="rgb(255,255,255)" height="5px" opacity="0.0156862745098" width="5px" x="36px" y="28px" /><rect fill="rgb(255,255,255)" height="5px" opacity="0.043137254902" width="5px" x="40px" y="28px" /><rect fill="rgb(255,255,255)" height="5px" opacity="0.0549019607843" width="5px" x="44px" y="28px" /><rect fill="rgb(255,255,255)" height="5px" opacity="0.0470588235294" width="5px" x="48px" y="28px" /><rect fill="rgb(255,255,255)" height="5px" opacity="0.0274509803922" width="5px" x="52px" y="28px" /><rect fill="rgb(255,255,255)" height="5px" opacity="0.00392156862745" width="5px" x="56px" y="28px" /><rect fill="rgb(0,0,0)" height="5px" opacity="0.192156862745" width="5px" x="16px" y="32px" /><rect fill="rgb(0,0,0)" height="5px" opacity="0.513725490196" width="5px" x="20px" y="32px" /><rect fill="rgb(0,0,0)" height="5px" opacity="0.752941176471" width="5px" x="24px" y="32px" /><rect fill="rgb(0,0,0)" height="5px" opacity="0.909803921569" width="5px" x="28px" y="32px" /><rect fill="rgb(0,0,0)" height="5px" opacity="0.972549019608" width="5px" x="32px" y="32px" /><rect fill="rgb(0,0,0)" height="5px" opacity="0.945098039216" width="5px" x="36px" y="32px" /><rect fill="rgb(0,0,0)" height="5px" opacity="0.81568627451" width="5px" x="40px" y="32px" /><rect fill="rgb(0,0,0)" height="5px" opacity="0.639215686275" width="5px" x="44px" y="32px" /><rect fill="rgb(0,0,0)" height="5px" opacity="0.41568627451" width="5px" x="48px" y="32px" /><rect fill="rgb(0,0,0)" height="5px" opacity="0.078431372549" width="5px" x="52px" y="32px" /><rect fill="rgb(0,0,0)" height="5px" opacity="0.192156862745" width="5px" x="36px" y="36px" /><rect fill="rgb(0,0,0)" height="5px" opacity="0.462745098039" width="5px" x="40px" y="36px" /><rect fill="rgb(0,0,0)" height="5px" opacity="0.682352941176" width="5px" x="44px" y="36px" /><rect fill="rgb(0,0,0)" height="5px" opacity="0.866666666667" width="5px" x="48px" y="36px" /><rect fill="rgb(0,0,0)" height="5px" opacity="0.96862745098" width="5px" x="52px" y="36px" /><rect fill="rgb(0,0,0)" height="5px" opacity="0.980392156863" width="5px" x="56px" y="36px" /><rect fill="rgb(0,0,0)" height="5px" opacity="0.909803921569" width="5px" x="60px" y="36px" /><rect fill="rgb(0,0,0)" height="5px" opacity="0.752941176471" width="5px" x="64px" y="36px" /><rect fill="rgb(0,0,0)" height="5px" opacity="0.556862745098" width="5px" x="68px" y="36px" /><rect fill="rgb(0,0,0)" height="5px" opacity="0.309803921569" width="5px" x="72px" y="36px" /><rect fill="rgb(0,0,0)" height="5px" opacity="0.0078431372549" width="5px" x="76px" y="36px" /><rect fill="rgb(0,0,0)" height="5px" opacity="0.121568627451" width="5px" x="56px" y="40px" /><rect fill="rgb(0,0,0)" height="5px" opacity="0.443137254902" width="5px" x="60px" y="40px" /><rect fill="rgb(0,0,0)" height="5px" opacity="0.690196078431" width="5px" x="64px" y="40px" /><rect fill="rgb(0,0,0)" height="5px" opacity="0.866666666667" width="5px" x="68px" y="40px" /><rect fill="rgb(0,0,0)" height="5px" opacity="0.96862745098" width="5px" x="72px" y="40px" /><rect fill="rgb(0,0,0)" height="5px" opacity="0.992156862745" width="5px" x="76px" y="40px" /><rect fill="rgb(0,0,0)" height="5px" opacity="0.933333333333" width="5px" x="80px" y="40px" /><rect fill="rgb(0,0,0)" height="5px" opacity="0.81568627451" width="5px" x="84px" y="40px" /><rect fill="rgb(0,0,0)" height="5px" opacity="0.6" width="5px" x="88px" y="40px" /><rect fill="rgb(0,0,0)" height="5px" opacity="0.0627450980392" width="5px" x="76px" y="44px" /><rect fill="rgb(0,0,0)" height="5px" opacity="0.372549019608" width="5px" x="80px" y="44px" /><rect fill="rgb(0,0,0)" height="5px" opacity="0.639215686275" width="5px" x="84px" y="44px" /><rect fill="rgb(0,0,0)" height="5px" opacity="0.752941176471" width="5px" x="88px" y="44px" /><rect fill="rgb(0,0,0)" height="5px" opacity="0.0156862745098" width="5px" x="4px" y="48px" /><rect fill="rgb(0,0,0)" height="5px" opacity="0.81568627451" width="5px" x="8px" y="48px" /><rect fill="rgb(0,0,0)" height="5px" opacity="0.741176470588" width="5px" x="12px" y="48px" /><rect fill="rgb(0,0,0)" height="5px" opacity="0.658823529412" width="5px" x="16px" y="48px" /><rect fill="rgb(0,0,0)" height="5px" opacity="0.549019607843" width="5px" x="20px" y="48px" /><rect fill="rgb(0,0,0)" height="5px" opacity="0.43137254902" width="5px" x="24px" y="48px" /><rect fill="rgb(0,0,0)" height="5px" opacity="0.309803921569" width="5px" x="28px" y="48px" /><rect fill="rgb(0,0,0)" height="5px" opacity="0.180392156863" width="5px" x="32px" y="48px" /><rect fill="rgb(0,0,0)" height="5px" opacity="0.0313725490196" width="5px" x="36px" y="48px" /><rect fill="rgb(0,0,0)" height="5px" opacity="0.0235294117647" width="5px" x="4px" y="52px" /><rect fill="rgb(0,0,0)" height="5px" opacity="0.525490196078" width="5px" x="8px" y="52px" /><rect fill="rgb(0,0,0)" height="5px" opacity="0.643137254902" width="5px" x="12px" y="52px" /><rect fill="rgb(0,0,0)" height="5px" opacity="0.745098039216" width="5px" x="16px" y="52px" /><rect fill="rgb(0,0,0)" height="5px" opacity="0.823529411765" width="5px" x="20px" y="52px" /><rect fill="rgb(0,0,0)" height="5px" opacity="0.898039215686" width="5px" x="24px" y="52px" /><rect fill="rgb(0,0,0)" height="5px" opacity="0.945098039216" width="5px" x="28px" y="52px" /><rect fill="rgb(0,0,0)" height="5px" opacity="0.980392156863" width="5px" x="32px" y="52px" /><rect fill="rgb(0,0,0)" height="5px" opacity="0.996078431373" width="5px" x="36px" y="52px" /><rect fill="rgb(0,0,0)" height="5px" opacity="0.996078431373" width="5px" x="40px" y="52px" /><rect fill="rgb(0,0,0)" height="5px" opacity="0.976470588235" width="5px" x="44px" y="52px" /><rect fill="rgb(0,0,0)" height="5px" opacity="0.949019607843" width="5px" x="48px" y="52px" /><rect fill="rgb(0,0,0)" height="5px" opacity="0.905882352941" width="5px" x="52px" y="52px" /><rect fill="rgb(0,0,0)" height="5px" opacity="0.850980392157" width="5px" x="56px" y="52px" /><rect fill="rgb(0,0,0)" height="5px" opacity="0.780392156863" width="5px" x="60px" y="52px" /><rect fill="rgb(0,0,0)" height="5px" opacity="0.698039215686" width="5px" x="64px" y="52px" /><rect fill="rgb(0,0,0)" height="5px" opacity="0.607843137255" width="5px" x="68px" y="52px" /><rect fill="rgb(0,0,0)" height="5px" opacity="0.505882352941" width="5px" x="72px" y="52px" /><rect fill="rgb(0,0,0)" height="5px" opacity="0.392156862745" width="5px" x="76px" y="52px" /><rect fill="rgb(55,55,55)" height="5px" opacity="0.654901960784" width="5px" x="88px" y="52px" /><rect fill="rgb(55,55,55)" height="5px" opacity="0.964705882353" width="5px" x="92px" y="52px" /><rect fill="rgb(55,55,55)" height="5px" width="5px" x="96px" y="52px" /><rect fill="rgb(55,55,55)" height="5px" opacity="0.964705882353" width="5px" x="100px" y="52px" /><rect fill="rgb(55,55,55)" height="5px" opacity="0.654901960784" width="5px" x="104px" y="52px" /><rect fill="rgb(0,0,0)" height="5px" opacity="0.078431372549" width="5px" x="40px" y="56px" /><rect fill="rgb(0,0,0)" height="5px" opacity="0.243137254902" width="5px" x="44px" y="56px" /><rect fill="rgb(0,0,0)" height="5px" opacity="0.403921568627" width="5px" x="48px" y="56px" /><rect fill="rgb(0,0,0)" height="5px" opacity="0.525490196078" width="5px" x="52px" y="56px" /><rect fill="rgb(0,0,0)" height="5px" opacity="0.650980392157" width="5px" x="56px" y="56px" /><rect fill="rgb(0,0,0)" height="5px" opacity="0.749019607843" width="5px" x="60px" y="56px" /><rect fill="rgb(0,0,0)" height="5px" opacity="0.823529411765" width="5px" x="64px" y="56px" /><rect fill="rgb(0,0,0)" height="5px" opacity="0.898039215686" width="5px" x="68px" y="56px" /><rect fill="rgb(0,0,0)" height="5px" opacity="0.945098039216" width="5px" x="72px" y="56px" /><rect fill="rgb(0,0,0)" height="5px" opacity="0.980392156863" width="5px" x="76px" y="56px" /><rect fill="rgb(0,0,0)" height="5px" opacity="0.0901960784314" width="5px" x="80px" y="56px" /><rect fill="rgb(55,55,55)" height="5px" opacity="0.654901960784" width="5px" x="84px" y="56px" /><rect fill="rgb(55,55,55)" height="5px" width="5px" x="88px" y="56px" /><rect fill="rgb(55,55,55)" height="5px" width="5px" x="92px" y="56px" /><rect fill="rgb(55,55,55)" height="5px" width="5px" x="96px" y="56px" /><rect fill="rgb(55,55,55)" height="5px" width="5px" x="100px" y="56px" /><rect fill="rgb(55,55,55)" height="5px" width="5px" x="104px" y="56px" /><rect fill="rgb(55,55,55)" height="5px" opacity="0.654901960784" width="5px" x="108px" y="56px" /><rect fill="rgb(255,255,255)" height="5px" opacity="0.00392156862745" width="5px" x="112px" y="56px" /><rect fill="rgb(55,55,55)" height="5px" opacity="0.964705882353" width="5px" x="84px" y="60px" /><rect fill="rgb(55,55,55)" height="5px" width="5px" x="88px" y="60px" /><rect fill="rgb(55,55,55)" height="5px" width="5px" x="92px" y="60px" /><rect fill="rgb(55,55,55)" height="5px" width="5px" x="96px" y="60px" /><rect fill="rgb(55,55,55)" height="5px" width="5px" x="100px" y="60px" /><rect fill="rgb(55,55,55)" height="5px" width="5px" x="104px" y="60px" /><rect fill="rgb(56,56,56)" height="5px" opacity="0.964705882353" width="5px" x="108px" y="60px" /><rect fill="rgb(255,255,255)" height="5px" opacity="0.0156862745098" width="5px" x="112px" y="60px" /><rect fill="rgb(55,55,55)" height="5px" width="5px" x="84px" y="64px" /><rect fill="rgb(55,55,55)" height="5px" width="5px" x="88px" y="64px" /><rect fill="rgb(55,55,55)" height="5px" width="5px" x="92px" y="64px" /><rect fill="rgb(55,55,55)" height="5px" width="5px" x="96px" y="64px" /><rect fill="rgb(55,55,55)" height="5px" width="5px" x="100px" y="64px" /><rect fill="rgb(55,55,55)" height="5px" width="5px" x="104px" y="64px" /><rect fill="rgb(55,55,55)" height="5px" width="5px" x="108px" y="64px" /><rect fill="rgb(0,0,0)" height="5px" opacity="0.117647058824" width="5px" x="8px" y="68px" /><rect fill="rgb(0,0,0)" height="5px" opacity="0.721568627451" width="5px" x="12px" y="68px" /><rect fill="rgb(0,0,0)" height="5px" opacity="0.733333333333" width="5px" x="16px" y="68px" /><rect fill="rgb(0,0,0)" height="5px" opacity="0.733333333333" width="5px" x="20px" y="68px" /><rect fill="rgb(0,0,0)" height="5px" opacity="0.733333333333" width="5px" x="24px" y="68px" /><rect fill="rgb(0,0,0)" height="5px" opacity="0.733333333333" width="5px" x="28px" y="68px" /><rect fill="rgb(0,0,0)" height="5px" opacity="0.733333333333" width="5px" x="32px" y="68px" /><rect fill="rgb(0,0,0)" height="5px" opacity="0.76862745098" width="5px" x="36px" y="68px" /><rect fill="rgb(0,0,0)" height="5px" opacity="0.8" width="5px" x="40px" y="68px" /><rect fill="rgb(0,0,0)" height="5px" opacity="0.8" width="5px" x="44px" y="68px" /><rect fill="rgb(0,0,0)" height="5px" opacity="0.8" width="5px" x="48px" y="68px" /><rect fill="rgb(0,0,0)" height="5px" opacity="0.8" width="5px" x="52px" y="68px" /><rect fill="rgb(0,0,0)" height="5px" opacity="0.8" width="5px" x="56px" y="68px" /><rect fill="rgb(0,0,0)" height="5px" opacity="0.811764705882" width="5px" x="60px" y="68px" /><rect fill="rgb(0,0,0)" height="5px" opacity="0.866666666667" width="5px" x="64px" y="68px" /><rect fill="rgb(0,0,0)" height="5px" opacity="0.866666666667" width="5px" x="68px" y="68px" /><rect fill="rgb(0,0,0)" height="5px" opacity="0.866666666667" width="5px" x="72px" y="68px" /><rect fill="rgb(0,0,0)" height="5px" opacity="0.407843137255" width="5px" x="76px" y="68px" /><rect fill="rgb(255,255,255)" height="5px" opacity="0.00392156862745" width="5px" x="80px" y="68px" /><rect fill="rgb(55,55,55)" height="5px" opacity="0.964705882353" width="5px" x="84px" y="68px" /><rect fill="rgb(55,55,55)" height="5px" width="5px" x="88px" y="68px" /><rect fill="rgb(55,55,55)" height="5px" width="5px" x="92px" y="68px" /><rect fill="rgb(55,55,55)" height="5px" width="5px" x="96px" y="68px" /><rect fill="rgb(55,55,55)" height="5px" width="5px" x="100px" y="68px" /><rect fill="rgb(55,55,55)" height="5px" width="5px" x="104px" y="68px" /><rect fill="rgb(55,55,55)" height="5px" opacity="0.964705882353" width="5px" x="108px" y="68px" /><rect fill="rgb(0,0,0)" height="5px" opacity="0.0156862745098" width="5px" x="8px" y="72px" /><rect fill="rgb(0,0,0)" height="5px" opacity="0.21568627451" width="5px" x="12px" y="72px" /><rect fill="rgb(0,0,0)" height="5px" opacity="0.266666666667" width="5px" x="16px" y="72px" /><rect fill="rgb(0,0,0)" height="5px" opacity="0.266666666667" width="5px" x="20px" y="72px" /><rect fill="rgb(0,0,0)" height="5px" opacity="0.266666666667" width="5px" x="24px" y="72px" /><rect fill="rgb(0,0,0)" height="5px" opacity="0.305882352941" width="5px" x="28px" y="72px" /><rect fill="rgb(0,0,0)" height="5px" opacity="0.333333333333" width="5px" x="32px" y="72px" /><rect fill="rgb(0,0,0)" height="5px" opacity="0.333333333333" width="5px" x="36px" y="72px" /><rect fill="rgb(0,0,0)" height="5px" opacity="0.333333333333" width="5px" x="40px" y="72px" /><rect fill="rgb(0,0,0)" height="5px" opacity="0.396078431373" width="5px" x="44px" y="72px" /><rect fill="rgb(0,0,0)" height="5px" opacity="0.4" width="5px" x="48px" y="72px" /><rect fill="rgb(0,0,0)" height="5px" opacity="0.4" width="5px" x="52px" y="72px" /><rect fill="rgb(0,0,0)" height="5px" opacity="0.419607843137" width="5px" x="56px" y="72px" /><rect fill="rgb(0,0,0)" height="5px" opacity="0.466666666667" width="5px" x="60px" y="72px" /><rect fill="rgb(0,0,0)" height="5px" opacity="0.466666666667" width="5px" x="64px" y="72px" /><rect fill="rgb(0,0,0)" height="5px" opacity="0.466666666667" width="5px" x="68px" y="72px" /><rect fill="rgb(0,0,0)" height="5px" opacity="0.509803921569" width="5px" x="72px" y="72px" /><rect fill="rgb(0,0,0)" height="5px" opacity="0.321568627451" width="5px" x="76px" y="72px" /><rect fill="rgb(55,55,55)" height="5px" opacity="0.654901960784" width="5px" x="84px" y="72px" /><rect fill="rgb(55,55,55)" height="5px" width="5px" x="88px" y="72px" /><rect fill="rgb(55,55,55)" height="5px" width="5px" x="92px" y="72px" /><rect fill="rgb(55,55,55)" height="5px" width="5px" x="96px" y="72px" /><rect fill="rgb(55,55,55)" height="5px" width="5px" x="100px" y="72px" /><rect fill="rgb(55,55,55)" height="5px" width="5px" x="104px" y="72px" /><rect fill="rgb(55,55,55)" height="5px" opacity="0.654901960784" width="5px" x="108px" y="72px" /><rect fill="rgb(0,0,0)" height="5px" opacity="0.129411764706" width="5px" x="76px" y="76px" /><rect fill="rgb(0,0,0)" height="5px" opacity="0.247058823529" width="5px" x="80px" y="76px" /><rect fill="rgb(55,55,55)" height="5px" opacity="0.654901960784" width="5px" x="88px" y="76px" /><rect fill="rgb(55,55,55)" height="5px" opacity="0.964705882353" width="5px" x="92px" y="76px" /><rect fill="rgb(55,55,55)" height="5px" width="5px" x="96px" y="76px" /><rect fill="rgb(55,55,55)" height="5px" opacity="0.964705882353" width="5px" x="100px" y="76px" /><rect fill="rgb(55,55,55)" height="5px" opacity="0.654901960784" width="5px" x="104px" y="76px" /><rect fill="rgb(0,0,0)" height="5px" opacity="0.0470588235294" width="5px" x="64px" y="80px" /><rect fill="rgb(0,0,0)" height="5px" opacity="0.525490196078" width="5px" x="68px" y="80px" /><rect fill="rgb(0,0,0)" height="5px" opacity="0.898039215686" width="5px" x="72px" y="80px" /><rect fill="rgb(0,0,0)" height="5px" width="5px" x="76px" y="80px" /><rect fill="rgb(0,0,0)" height="5px" opacity="0.945098039216" width="5px" x="80px" y="80px" /><rect fill="rgb(0,0,0)" height="5px" opacity="0.360784313725" width="5px" x="56px" y="84px" /><rect fill="rgb(0,0,0)" height="5px" opacity="0.81568627451" width="5px" x="60px" y="84px" /><rect fill="rgb(0,0,0)" height="5px" opacity="0.992156862745" width="5px" x="64px" y="84px" /><rect fill="rgb(0,0,0)" height="5px" width="5px" x="68px" y="84px" /><rect fill="rgb(0,0,0)" height="5px" opacity="0.945098039216" width="5px" x="72px" y="84px" /><rect fill="rgb(0,0,0)" height="5px" opacity="0.639215686275" width="5px" x="76px" y="84px" /><rect fill="rgb(0,0,0)" height="5px" opacity="0.0980392156863" width="5px" x="80px" y="84px" /><rect fill="rgb(0,0,0)" height="5px" opacity="0.21568627451" width="5px" x="44px" y="88px" /><rect fill="rgb(0,0,0)" height="5px" opacity="0.713725490196" width="5px" x="48px" y="88px" /><rect fill="rgb(0,0,0)" height="5px" opacity="0.976470588235" width="5px" x="52px" y="88px" /><rect fill="rgb(0,0,0)" height="5px" width="5px" x="56px" y="88px" /><rect fill="rgb(0,0,0)" height="5px" opacity="0.98431372549" width="5px" x="60px" y="88px" /><rect fill="rgb(0,0,0)" height="5px" opacity="0.780392156863" width="5px" x="64px" y="88px" /><rect fill="rgb(0,0,0)" height="5px" opacity="0.247058823529" width="5px" x="68px" y="88px" /><rect fill="rgb(0,0,0)" height="5px" opacity="0.121568627451" width="5px" x="32px" y="92px" /><rect fill="rgb(0,0,0)" height="5px" opacity="0.6" width="5px" x="36px" y="92px" /><rect fill="rgb(0,0,0)" height="5px" opacity="0.929411764706" width="5px" x="40px" y="92px" /><rect fill="rgb(0,0,0)" height="5px" width="5px" x="44px" y="92px" /><rect fill="rgb(0,0,0)" height="5px" opacity="0.996078431373" width="5px" x="48px" y="92px" /><rect fill="rgb(0,0,0)" height="5px" opacity="0.866666666667" width="5px" x="52px" y="92px" /><rect fill="rgb(0,0,0)" height="5px" opacity="0.462745098039" width="5px" x="56px" y="92px" /><rect fill="rgb(0,0,0)" height="5px" opacity="0.0078431372549" width="5px" x="60px" y="92px" /><rect fill="rgb(0,0,0)" height="5px" opacity="0.0235294117647" width="5px" x="20px" y="96px" /><rect fill="rgb(0,0,0)" height="5px" opacity="0.462745098039" width="5px" x="24px" y="96px" /><rect fill="rgb(0,0,0)" height="5px" opacity="0.866666666667" width="5px" x="28px" y="96px" /><rect fill="rgb(0,0,0)" height="5px" width="5px" x="32px" y="96px" /><rect fill="rgb(0,0,0)" height="5px" width="5px" x="36px" y="96px" /><rect fill="rgb(0,0,0)" height="5px" opacity="0.929411764706" width="5px" x="40px" y="96px" /><rect fill="rgb(0,0,0)" height="5px" opacity="0.6" width="5px" x="44px" y="96px" /><rect fill="rgb(0,0,0)" height="5px" opacity="0.078431372549" width="5px" x="48px" y="96px" /><rect fill="rgb(0,0,0)" height="5px" opacity="0.443137254902" width="5px" x="20px" y="100px" /><rect fill="rgb(0,0,0)" height="5px" width="5px" x="24px" y="100px" /><rect fill="rgb(0,0,0)" height="5px" opacity="0.960784313725" width="5px" x="28px" y="100px" /><rect fill="rgb(0,0,0)" height="5px" opacity="0.678431372549" width="5px" x="32px" y="100px" /><rect fill="rgb(0,0,0)" height="5px" opacity="0.156862745098" width="5px" x="36px" y="100px" /><rect fill="rgb(0,0,0)" height="5px" opacity="0.270588235294" width="5px" x="24px" y="104px" /></svg>