<?xml version="1.0" encoding="utf-8" ?>
<svg baseProfile="full" height="128px" version="1.1" width="128px" xmlns="http://www.w3.org/2000/svg" xmlns:ev="http://www.w3.org/2001/xml-events" xmlns:xlink="http://www.w3.org/1999/xlink"><defs /><rect fill="rgb(11,165,113)" height="5px" width="5px" x="32px" y="0px" /><rect fill="rgb(11,165,113)" height="5px" width="5px" x="72px" y="0px" /><rect fill="rgb(11,165,113)" height="5px" width="5px" x="76px" y="0px" /><rect fill="rgb(11,165,113)" height="5px" width="5px" x="28px" y="4px" /><rect fill="rgb(11,165,113)" height="5px" width="5px" x="32px" y="4px" /><rect fill="rgb(11,165,113)" height="5px" width="5px" x="52px" y="4px" /><rect fill="rgb(11,165,113)" height="5px" width="5px" x="56px" y="4px" /><rect fill="rgb(11,165,113)" height="5px" width="5px" x="60px" y="4px" /><rect fill="rgb(11,165,113)" height="5px" width="5px" x="64px" y="4px" /><rect fill="rgb(11,165,113)" height="5px" width="5px" x="68px" y="4px" /><rect fill="rgb(11,165,113)" height="5px" width="5px" x="72px" y="4px" /><rect fill="rgb(11,165,113)" height="5px" width="5px" x="16px" y="8px" /><rect fill="rgb(11,165,113)" height="5px" width="5px" x="20px" y="8px" /><rect fill="rgb(11,165,113)" height="5px" width="5px" x="32px" y="8px" /><rect fill="rgb(11,165,113)" height="5px" width="5px" x="36px" y="8px" /><rect fill="rgb(11,165,113)" height="5px" width="5px" x="40px" y="8px" /><rect fill="rgb(11,165,113)" height="5px" width="5px" x="48px" y="8px" /><rect fill="rgb(11,165,113)" height="5px" width="5px" x="52px" y="8px" /><rect fill="rgb(6,165,110)" height="5px" opacity="0.145098039216" width="5px" x="56px" y="8px" /><rect fill="rgb(0,170,85)" height="5px" opacity="0.0117647058824" width="5px" x="60px" y="8px" /><rect fill="rgb(11,165,113)" height="5px" width="5px" x="84px" y="8px" /><rect fill="rgb(11,165,113)" height="5px" width="5px" x="88px" y="8px" /><rect fill="rgb(11,165,113)" height="5px" width="5px" x="92px" y="8px" /><rect fill="rgb(11,165,113)" height="5px" width="5px" x="96px" y="8px" /><rect fill="rgb(11,165,113)" height="5px" width="5px" x="104px" y="8px" /><rect fill="rgb(11,165,113)" height="5px" width="5px" x="108px" y="8px" /><rect fill="rgb(11,165,113)" height="5px" width="5px" x="20px" y="12px" /><rect fill="rgb(11,163,111)" height="5px" opacity="0.250980392157" width="5px" x="24px" y="12px" /><rect fill="rgb(11,165,113)" height="5px" width="5px" x="40px" y="12px" /><rect fill="rgb(11,165,113)" height="5px" width="5px" x="44px" y="12px" /><rect fill="rgb(11,165,113)" height="5px" width="5px" x="48px" y="12px" /><rect fill="rgb(11,165,113)" height="5px" width="5px" x="52px" y="12px" /><rect fill="rgb(11,165,113)" height="5px" width="5px" x="56px" y="12px" /><rect fill="rgb(10,165,113)" height="5px" opacity="0.592156862745" width="5px" x="60px" y="12px" /><rect fill="rgb(7,163,111)" height="5px" opacity="0.250980392157" width="5px" x="64px" y="12px" /><rect fill="rgb(11,163,111)" height="5px" opacity="0.250980392157" width="5px" x="76px" y="12px" /><rect fill="rgb(11,165,113)" height="5px" width="5px" x="80px" y="12px" /><rect fill="rgb(11,165,113)" height="5px" width="5px" x="84px" y="12px" /><rect fill="rgb(11,165,113)" height="5px" width="5px" x="96px" y="12px" /><rect fill="rgb(11,165,113)" height="5px" width="5px" x="100px" y="12px" /><rect fill="rgb(11,165,113)" height="5px" width="5px" x="104px" y="12px" /><rect fill="rgb(11,163,111)" height="5px" opacity="0.250980392157" width="5px" x="20px" y="16px" /><rect fill="rgb(11,165,113)" height="5px" width="5px" x="24px" y="16px" /><rect fill="rgb(11,165,113)" height="5px" width="5px" x="28px" y="16px" /><rect fill="rgb(11,165,113)" height="5px" width="5px" x="32px" y="16px" /><rect fill="rgb(11,165,113)" height="5px" width="5px" x="36px" y="16px" /><rect fill="rgb(11,165,113)" height="5px" width="5px" x="40px" y="16px" /><rect fill="rgb(11,165,113)" height="5px" width="5px" x="44px" y="16px" /><rect fill="rgb(11,165,113)" height="5px" width="5px" x="48px" y="16px" /><rect fill="rgb(11,165,113)" height="5px" width="5px" x="52px" y="16px" /><rect fill="rgb(10,165,112)" height="5px" opacity="0.960784313725" width="5px" x="56px" y="16px" /><rect fill="rgb(11,165,113)" height="5px" width="5px" x="60px" y="16px" /><rect fill="rgb(10,165,112)" height="5px" opacity="0.878431372549" width="5px" x="64px" y="16px" /><rect fill="rgb(10,164,113)" height="5px" opacity="0.662745098039" width="5px" x="68px" y="16px" /><rect fill="rgb(10,164,111)" height="5px" opacity="0.376470588235" width="5px" x="72px" y="16px" /><rect fill="rgb(11,165,113)" height="5px" width="5px" x="76px" y="16px" /><rect fill="rgb(11,163,111)" height="5px" opacity="0.250980392157" width="5px" x="80px" y="16px" /><rect fill="rgb(11,165,113)" height="5px" width="5px" x="40px" y="20px" /><rect fill="rgb(11,165,113)" height="5px" width="5px" x="44px" y="20px" /><rect fill="rgb(11,165,113)" height="5px" width="5px" x="48px" y="20px" /><rect fill="rgb(123,231,236)" height="5px" width="5px" x="52px" y="20px" /><rect fill="rgb(123,231,236)" height="5px" width="5px" x="56px" y="20px" /><rect fill="rgb(9,163,112)" height="5px" opacity="0.713725490196" width="5px" x="60px" y="20px" /><rect fill="rgb(11,165,113)" height="5px" width="5px" x="64px" y="20px" /><rect fill="rgb(11,165,113)" height="5px" width="5px" x="68px" y="20px" /><rect fill="rgb(11,165,113)" height="5px" width="5px" x="72px" y="20px" /><rect fill="rgb(9,162,111)" height="5px" opacity="0.313725490196" width="5px" x="76px" y="20px" /><rect fill="rgb(0,145,109)" height="5px" opacity="0.0274509803922" width="5px" x="36px" y="24px" /><rect fill="rgb(9,165,113)" height="5px" opacity="0.803921568627" width="5px" x="40px" y="24px" /><rect fill="rgb(11,165,113)" height="5px" width="5px" x="44px" y="24px" /><rect fill="rgb(11,165,111)" height="5px" opacity="0.635294117647" width="5px" x="48px" y="24px" /><rect fill="rgb(123,231,236)" height="5px" width="5px" x="52px" y="24px" /><rect fill="rgb(144,255,236)" height="5px" width="5px" x="56px" y="24px" /><rect fill="rgb(123,231,236)" height="5px" width="5px" x="60px" y="24px" /><rect fill="rgb(123,231,236)" height="5px" width="5px" x="64px" y="24px" /><rect fill="rgb(10,164,112)" height="5px" opacity="0.752941176471" width="5px" x="68px" y="24px" /><rect fill="rgb(10,165,112)" height="5px" opacity="0.949019607843" width="5px" x="72px" y="24px" /><rect fill="rgb(10,164,112)" height="5px" opacity="0.650980392157" width="5px" x="76px" y="24px" /><rect fill="rgb(9,163,111)" height="5px" opacity="0.305882352941" width="5px" x="80px" y="24px" /><rect fill="rgb(8,165,112)" height="5px" opacity="0.356862745098" width="5px" x="36px" y="28px" /><rect fill="rgb(10,164,112)" height="5px" opacity="0.929411764706" width="5px" x="40px" y="28px" /><rect fill="rgb(10,164,112)" height="5px" opacity="0.960784313725" width="5px" x="44px" y="28px" /><rect fill="rgb(123,231,236)" height="5px" width="5px" x="48px" y="28px" /><rect fill="rgb(123,231,236)" height="5px" width="5px" x="52px" y="28px" /><rect fill="rgb(141,244,228)" height="5px" width="5px" x="56px" y="28px" /><rect fill="rgb(123,231,236)" height="5px" width="5px" x="60px" y="28px" /><rect fill="rgb(123,231,236)" height="5px" width="5px" x="64px" y="28px" /><rect fill="rgb(123,231,236)" height="5px" width="5px" x="68px" y="28px" /><rect fill="rgb(123,231,236)" height="5px" width="5px" x="72px" y="28px" /><rect fill="rgb(11,165,113)" height="5px" width="5px" x="76px" y="28px" /><rect fill="rgb(9,164,112)" height="5px" opacity="0.717647058824" width="5px" x="80px" y="28px" /><rect fill="rgb(11,165,113)" height="5px" width="5px" x="20px" y="32px" /><rect fill="rgb(11,165,113)" height="5px" width="5px" x="24px" y="32px" /><rect fill="rgb(11,165,113)" height="5px" width="5px" x="28px" y="32px" /><rect fill="rgb(10,165,113)" height="5px" opacity="0.733333333333" width="5px" x="32px" y="32px" /><rect fill="rgb(10,164,111)" height="5px" opacity="0.474509803922" width="5px" x="36px" y="32px" /><rect fill="rgb(11,165,113)" height="5px" width="5px" x="40px" y="32px" /><rect fill="rgb(9,164,112)" height="5px" opacity="0.61568627451" width="5px" x="44px" y="32px" /><rect fill="rgb(123,231,236)" height="5px" width="5px" x="48px" y="32px" /><rect fill="rgb(123,231,236)" height="5px" width="5px" x="52px" y="32px" /><rect fill="rgb(0,100,162)" height="5px" width="5px" x="56px" y="32px" /><rect fill="rgb(123,231,236)" height="5px" width="5px" x="60px" y="32px" /><rect fill="rgb(123,231,236)" height="5px" width="5px" x="64px" y="32px" /><rect fill="rgb(143,255,255)" height="5px" width="5px" x="68px" y="32px" /><rect fill="rgb(123,231,236)" height="5px" width="5px" x="72px" y="32px" /><rect fill="rgb(11,165,113)" height="5px" width="5px" x="76px" y="32px" /><rect fill="rgb(11,165,113)" height="5px" width="5px" x="80px" y="32px" /><rect fill="rgb(0,176,117)" height="5px" opacity="0.0509803921569" width="5px" x="84px" y="32px" /><rect fill="rgb(10,164,113)" height="5px" opacity="0.741176470588" width="5px" x="88px" y="32px" /><rect fill="rgb(11,165,113)" height="5px" width="5px" x="92px" y="32px" /><rect fill="rgb(11,165,113)" height="5px" width="5px" x="96px" y="32px" /><rect fill="rgb(10,165,113)" height="5px" opacity="0.733333333333" width="5px" x="100px" y="32px" /><rect fill="rgb(11,165,113)" height="5px" width="5px" x="16px" y="36px" /><rect fill="rgb(11,165,113)" height="5px" opacity="0.76862745098" width="5px" x="20px" y="36px" /><rect fill="rgb(11,165,113)" height="5px" width="5px" x="32px" y="36px" /><rect fill="rgb(11,165,113)" height="5px" width="5px" x="36px" y="36px" /><rect fill="rgb(11,165,113)" height="5px" width="5px" x="40px" y="36px" /><rect fill="rgb(9,164,112)" height="5px" opacity="0.905882352941" width="5px" x="44px" y="36px" /><rect fill="rgb(123,231,236)" height="5px" width="5px" x="48px" y="36px" /><rect fill="rgb(140,255,253)" height="5px" width="5px" x="52px" y="36px" /><rect fill="rgb(103,197,230)" height="5px" width="5px" x="56px" y="36px" /><rect fill="rgb(123,231,236)" height="5px" width="5px" x="60px" y="36px" /><rect fill="rgb(106,205,225)" height="5px" width="5px" x="64px" y="36px" /><rect fill="rgb(123,231,236)" height="5px" width="5px" x="68px" y="36px" /><rect fill="rgb(123,231,236)" height="5px" width="5px" x="72px" y="36px" /><rect fill="rgb(9,165,112)" height="5px" opacity="0.513725490196" width="5px" x="76px" y="36px" /><rect fill="rgb(10,163,112)" height="5px" opacity="0.823529411765" width="5px" x="80px" y="36px" /><rect fill="rgb(11,165,113)" height="5px" width="5px" x="84px" y="36px" /><rect fill="rgb(11,165,113)" height="5px" width="5px" x="88px" y="36px" /><rect fill="rgb(11,165,113)" height="5px" width="5px" x="100px" y="36px" /><rect fill="rgb(11,165,113)" height="5px" width="5px" x="104px" y="36px" /><rect fill="rgb(11,165,113)" height="5px" width="5px" x="12px" y="40px" /><rect fill="rgb(11,165,113)" height="5px" width="5px" x="16px" y="40px" /><rect fill="rgb(10,164,112)" height="5px" opacity="0.890196078431" width="5px" x="36px" y="40px" /><rect fill="rgb(11,165,113)" height="5px" width="5px" x="40px" y="40px" /><rect fill="rgb(0,100,162)" height="5px" width="5px" x="44px" y="40px" /><rect fill="rgb(123,231,236)" height="5px" width="5px" x="48px" y="40px" /><rect fill="rgb(123,231,236)" height="5px" width="5px" x="52px" y="40px" /><rect fill="rgb(123,231,236)" height="5px" width="5px" x="56px" y="40px" /><rect fill="rgb(123,231,236)" height="5px" width="5px" x="60px" y="40px" /><rect fill="rgb(123,231,236)" height="5px" width="5px" x="64px" y="40px" /><rect fill="rgb(123,231,236)" height="5px" width="5px" x="68px" y="40px" /><rect fill="rgb(123,231,236)" height="5px" width="5px" x="72px" y="40px" /><rect fill="rgb(123,231,236)" height="5px" width="5px" x="76px" y="40px" /><rect fill="rgb(123,231,236)" height="5px" width="5px" x="80px" y="40px" /><rect fill="rgb(11,165,113)" height="5px" width="5px" x="84px" y="40px" /><rect fill="rgb(10,165,112)" height="5px" opacity="0.678431372549" width="5px" x="88px" y="40px" /><rect fill="rgb(11,165,113)" height="5px" width="5px" x="104px" y="40px" /><rect fill="rgb(11,165,113)" height="5px" width="5px" x="108px" y="40px" /><rect fill="rgb(11,165,113)" height="5px" width="5px" x="112px" y="40px" /><rect fill="rgb(11,165,113)" height="5px" width="5px" x="116px" y="40px" /><rect fill="rgb(11,165,113)" height="5px" width="5px" x="8px" y="44px" /><rect fill="rgb(11,165,113)" height="5px" width="5px" x="12px" y="44px" /><rect fill="rgb(10,163,113)" height="5px" opacity="0.592156862745" width="5px" x="36px" y="44px" /><rect fill="rgb(11,165,113)" height="5px" width="5px" x="40px" y="44px" /><rect fill="rgb(10,165,112)" height="5px" opacity="0.490196078431" width="5px" x="44px" y="44px" /><rect fill="rgb(123,231,236)" height="5px" width="5px" x="48px" y="44px" /><rect fill="rgb(123,231,236)" height="5px" width="5px" x="52px" y="44px" /><rect fill="rgb(118,214,221)" height="5px" width="5px" x="56px" y="44px" /><rect fill="rgb(124,232,236)" height="5px" width="5px" x="60px" y="44px" /><rect fill="rgb(123,231,236)" height="5px" width="5px" x="64px" y="44px" /><rect fill="rgb(123,231,236)" height="5px" width="5px" x="68px" y="44px" /><rect fill="rgb(123,231,236)" height="5px" width="5px" x="72px" y="44px" /><rect fill="rgb(95,187,200)" height="5px" width="5px" x="76px" y="44px" /><rect fill="rgb(123,231,236)" height="5px" width="5px" x="80px" y="44px" /><rect fill="rgb(11,165,113)" height="5px" width="5px" x="84px" y="44px" /><rect fill="rgb(10,164,112)" height="5px" opacity="0.96862745098" width="5px" x="88px" y="44px" /><rect fill="rgb(0,170,85)" height="5px" opacity="0.0117647058824" width="5px" x="92px" y="44px" /><rect fill="rgb(10,163,112)" height="5px" opacity="0.478431372549" width="5px" x="36px" y="48px" /><rect fill="rgb(11,165,113)" height="5px" width="5px" x="40px" y="48px" /><rect fill="rgb(25,172,71)" height="5px" opacity="0.780392156863" width="5px" x="44px" y="48px" /><rect fill="rgb(123,231,236)" height="5px" width="5px" x="48px" y="48px" /><rect fill="rgb(125,235,217)" height="5px" width="5px" x="52px" y="48px" /><rect fill="rgb(116,223,219)" height="5px" width="5px" x="56px" y="48px" /><rect fill="rgb(123,231,236)" height="5px" width="5px" x="60px" y="48px" /><rect fill="rgb(123,231,236)" height="5px" width="5px" x="64px" y="48px" /><rect fill="rgb(123,231,236)" height="5px" width="5px" x="68px" y="48px" /><rect fill="rgb(123,231,236)" height="5px" width="5px" x="72px" y="48px" /><rect fill="rgb(0,100,162)" height="5px" width="5px" x="76px" y="48px" /><rect fill="rgb(123,231,236)" height="5px" width="5px" x="80px" y="48px" /><rect fill="rgb(10,164,112)" height="5px" opacity="0.780392156863" width="5px" x="84px" y="48px" /><rect fill="rgb(11,165,113)" height="5px" width="5px" x="88px" y="48px" /><rect fill="rgb(9,165,112)" height="5px" opacity="0.301960784314" width="5px" x="92px" y="48px" /><rect fill="rgb(0,170,106)" height="5px" opacity="0.0470588235294" width="5px" x="32px" y="52px" /><rect fill="rgb(11,165,113)" height="5px" width="5px" x="36px" y="52px" /><rect fill="rgb(11,165,113)" height="5px" width="5px" x="40px" y="52px" /><rect fill="rgb(123,231,236)" height="5px" width="5px" x="44px" y="52px" /><rect fill="rgb(118,227,241)" height="5px" width="5px" x="48px" y="52px" /><rect fill="rgb(123,231,236)" height="5px" width="5px" x="52px" y="52px" /><rect fill="rgb(123,231,236)" height="5px" width="5px" x="56px" y="52px" /><rect fill="rgb(122,230,234)" height="5px" width="5px" x="60px" y="52px" /><rect fill="rgb(161,255,251)" height="5px" width="5px" x="64px" y="52px" /><rect fill="rgb(123,231,236)" height="5px" width="5px" x="68px" y="52px" /><rect fill="rgb(123,231,236)" height="5px" width="5px" x="72px" y="52px" /><rect fill="rgb(123,231,236)" height="5px" width="5px" x="76px" y="52px" /><rect fill="rgb(123,231,236)" height="5px" width="5px" x="80px" y="52px" /><rect fill="rgb(10,163,111)" height="5px" opacity="0.482352941176" width="5px" x="84px" y="52px" /><rect fill="rgb(11,165,113)" height="5px" width="5px" x="88px" y="52px" /><rect fill="rgb(10,165,111)" height="5px" opacity="0.6" width="5px" x="92px" y="52px" /><rect fill="rgb(9,164,112)" height="5px" opacity="0.717647058824" width="5px" x="36px" y="56px" /><rect fill="rgb(11,165,113)" height="5px" width="5px" x="40px" y="56px" /><rect fill="rgb(144,255,254)" height="5px" width="5px" x="44px" y="56px" /><rect fill="rgb(123,231,236)" height="5px" width="5px" x="48px" y="56px" /><rect fill="rgb(101,214,220)" height="5px" width="5px" x="52px" y="56px" /><rect fill="rgb(123,231,236)" height="5px" width="5px" x="56px" y="56px" /><rect fill="rgb(123,231,236)" height="5px" width="5px" x="60px" y="56px" /><rect fill="rgb(123,231,236)" height="5px" width="5px" x="64px" y="56px" /><rect fill="rgb(123,231,236)" height="5px" width="5px" x="68px" y="56px" /><rect fill="rgb(136,248,224)" height="5px" width="5px" x="72px" y="56px" /><rect fill="rgb(123,231,236)" height="5px" width="5px" x="76px" y="56px" /><rect fill="rgb(123,231,236)" height="5px" width="5px" x="80px" y="56px" /><rect fill="rgb(123,231,236)" height="5px" width="5px" x="84px" y="56px" /><rect fill="rgb(11,165,113)" height="5px" width="5px" x="88px" y="56px" /><rect fill="rgb(10,164,112)" height="5px" opacity="0.890196078431" width="5px" x="92px" y="56px" /><rect fill="rgb(11,165,113)" height="5px" width="5px" x="28px" y="60px" /><rect fill="rgb(11,165,113)" height="5px" width="5px" x="32px" y="60px" /><rect fill="rgb(11,165,113)" height="5px" width="5px" x="36px" y="60px" /><rect fill="rgb(11,165,113)" height="5px" width="5px" x="40px" y="60px" /><rect fill="rgb(10,164,113)" height="5px" opacity="0.662745098039" width="5px" x="44px" y="60px" /><rect fill="rgb(123,231,236)" height="5px" width="5px" x="48px" y="60px" /><rect fill="rgb(161,255,255)" height="5px" width="5px" x="52px" y="60px" /><rect fill="rgb(123,231,236)" height="5px" width="5px" x="56px" y="60px" /><rect fill="rgb(123,231,236)" height="5px" width="5px" x="60px" y="60px" /><rect fill="rgb(123,231,236)" height="5px" width="5px" x="64px" y="60px" /><rect fill="rgb(123,231,236)" height="5px" width="5px" x="68px" y="60px" /><rect fill="rgb(151,253,255)" height="5px" width="5px" x="72px" y="60px" /><rect fill="rgb(145,250,236)" height="5px" width="5px" x="76px" y="60px" /><rect fill="rgb(105,216,217)" height="5px" width="5px" x="80px" y="60px" /><rect fill="rgb(117,227,250)" height="5px" width="5px" x="84px" y="60px" /><rect fill="rgb(10,164,112)" height="5px" opacity="0.858823529412" width="5px" x="88px" y="60px" /><rect fill="rgb(11,165,113)" height="5px" width="5px" x="92px" y="60px" /><rect fill="rgb(8,165,111)" height="5px" opacity="0.223529411765" width="5px" x="96px" y="60px" /><rect fill="rgb(11,165,113)" height="5px" width="5px" x="100px" y="60px" /><rect fill="rgb(11,165,113)" height="5px" width="5px" x="104px" y="60px" /><rect fill="rgb(11,165,113)" height="5px" width="5px" x="108px" y="60px" /><rect fill="rgb(11,165,113)" height="5px" width="5px" x="112px" y="60px" /><rect fill="rgb(11,165,113)" height="5px" width="5px" x="28px" y="64px" /><rect fill="rgb(7,162,115)" height="5px" opacity="0.129411764706" width="5px" x="36px" y="64px" /><rect fill="rgb(11,165,113)" height="5px" width="5px" x="40px" y="64px" /><rect fill="rgb(10,164,112)" height="5px" opacity="0.952941176471" width="5px" x="44px" y="64px" /><rect fill="rgb(123,231,236)" height="5px" width="5px" x="48px" y="64px" /><rect fill="rgb(123,231,236)" height="5px" width="5px" x="52px" y="64px" /><rect fill="rgb(123,231,236)" height="5px" width="5px" x="56px" y="64px" /><rect fill="rgb(123,231,236)" height="5px" width="5px" x="60px" y="64px" /><rect fill="rgb(123,231,236)" height="5px" width="5px" x="64px" y="64px" /><rect fill="rgb(123,231,236)" height="5px" width="5px" x="68px" y="64px" /><rect fill="rgb(0,100,162)" height="5px" width="5px" x="72px" y="64px" /><rect fill="rgb(136,255,251)" height="5px" width="5px" x="76px" y="64px" /><rect fill="rgb(123,231,236)" height="5px" width="5px" x="80px" y="64px" /><rect fill="rgb(123,231,236)" height="5px" width="5px" x="84px" y="64px" /><rect fill="rgb(10,164,112)" height="5px" opacity="0.560784313725" width="5px" x="88px" y="64px" /><rect fill="rgb(11,165,113)" height="5px" width="5px" x="92px" y="64px" /><rect fill="rgb(11,165,113)" height="5px" width="5px" x="96px" y="64px" /><rect fill="rgb(11,165,113)" height="5px" opacity="0.76862745098" width="5px" x="100px" y="64px" /><rect fill="rgb(11,165,113)" height="5px" width="5px" x="112px" y="64px" /><rect fill="rgb(11,165,113)" height="5px" width="5px" x="24px" y="68px" /><rect fill="rgb(11,165,113)" height="5px" opacity="0.76862745098" width="5px" x="28px" y="68px" /><rect fill="rgb(10,164,113)" height="5px" opacity="0.796078431373" width="5px" x="40px" y="68px" /><rect fill="rgb(11,165,113)" height="5px" width="5px" x="44px" y="68px" /><rect fill="rgb(123,231,236)" height="5px" width="5px" x="48px" y="68px" /><rect fill="rgb(0,100,162)" height="5px" width="5px" x="52px" y="68px" /><rect fill="rgb(136,206,241)" height="5px" width="5px" x="56px" y="68px" /><rect fill="rgb(133,220,238)" height="5px" width="5px" x="60px" y="68px" /><rect fill="rgb(123,231,236)" height="5px" width="5px" x="64px" y="68px" /><rect fill="rgb(123,231,236)" height="5px" width="5px" x="68px" y="68px" /><rect fill="rgb(123,231,236)" height="5px" width="5px" x="72px" y="68px" /><rect fill="rgb(123,231,236)" height="5px" width="5px" x="76px" y="68px" /><rect fill="rgb(123,231,236)" height="5px" width="5px" x="80px" y="68px" /><rect fill="rgb(83,201,225)" height="5px" width="5px" x="84px" y="68px" /><rect fill="rgb(123,231,236)" height="5px" width="5px" x="88px" y="68px" /><rect fill="rgb(11,165,113)" height="5px" width="5px" x="92px" y="68px" /><rect fill="rgb(9,165,112)" height="5px" opacity="0.811764705882" width="5px" x="96px" y="68px" /><rect fill="rgb(11,165,113)" height="5px" width="5px" x="112px" y="68px" /><rect fill="rgb(11,165,113)" height="5px" width="5px" x="116px" y="68px" /><rect fill="rgb(11,165,113)" height="5px" width="5px" x="120px" y="68px" /><rect fill="rgb(11,165,113)" height="5px" width="5px" x="24px" y="72px" /><rect fill="rgb(9,164,112)" height="5px" opacity="0.505882352941" width="5px" x="40px" y="72px" /><rect fill="rgb(11,165,113)" height="5px" width="5px" x="44px" y="72px" /><rect fill="rgb(10,164,112)" height="5px" opacity="0.576470588235" width="5px" x="48px" y="72px" /><rect fill="rgb(122,237,248)" height="5px" width="5px" x="52px" y="72px" /><rect fill="rgb(123,231,236)" height="5px" width="5px" x="56px" y="72px" /><rect fill="rgb(123,231,236)" height="5px" width="5px" x="60px" y="72px" /><rect fill="rgb(123,231,236)" height="5px" width="5px" x="64px" y="72px" /><rect fill="rgb(123,231,236)" height="5px" width="5px" x="68px" y="72px" /><rect fill="rgb(123,231,236)" height="5px" width="5px" x="72px" y="72px" /><rect fill="rgb(123,231,236)" height="5px" width="5px" x="76px" y="72px" /><rect fill="rgb(123,231,236)" height="5px" width="5px" x="80px" y="72px" /><rect fill="rgb(0,100,162)" height="5px" width="5px" x="84px" y="72px" /><rect fill="rgb(123,231,236)" height="5px" width="5px" x="88px" y="72px" /><rect fill="rgb(10,164,112)" height="5px" opacity="0.937254901961" width="5px" x="92px" y="72px" /><rect fill="rgb(11,165,113)" height="5px" width="5px" x="96px" y="72px" /><rect fill="rgb(6,165,110)" height="5px" opacity="0.145098039216" width="5px" x="100px" y="72px" /><rect fill="rgb(11,165,113)" height="5px" width="5px" x="24px" y="76px" /><rect fill="rgb(9,163,110)" height="5px" opacity="0.207843137255" width="5px" x="40px" y="76px" /><rect fill="rgb(11,165,113)" height="5px" width="5px" x="44px" y="76px" /><rect fill="rgb(10,164,112)" height="5px" opacity="0.874509803922" width="5px" x="48px" y="76px" /><rect fill="rgb(154,255,255)" height="5px" width="5px" x="52px" y="76px" /><rect fill="rgb(123,231,236)" height="5px" width="5px" x="56px" y="76px" /><rect fill="rgb(123,231,236)" height="5px" width="5px" x="60px" y="76px" /><rect fill="rgb(123,231,236)" height="5px" width="5px" x="64px" y="76px" /><rect fill="rgb(123,231,236)" height="5px" width="5px" x="68px" y="76px" /><rect fill="rgb(123,231,236)" height="5px" width="5px" x="72px" y="76px" /><rect fill="rgb(123,231,236)" height="5px" width="5px" x="76px" y="76px" /><rect fill="rgb(123,231,236)" height="5px" width="5px" x="80px" y="76px" /><rect fill="rgb(123,231,236)" height="5px" width="5px" x="84px" y="76px" /><rect fill="rgb(123,231,236)" height="5px" width="5px" x="88px" y="76px" /><rect fill="rgb(10,165,112)" height="5px" opacity="0.658823529412" width="5px" x="92px" y="76px" /><rect fill="rgb(10,165,112)" height="5px" opacity="0.8" width="5px" x="96px" y="76px" /><rect fill="rgb(5,166,112)" height="5px" opacity="0.16862745098" width="5px" x="100px" y="76px" /><rect fill="rgb(11,165,113)" height="5px" width="5px" x="24px" y="80px" /><rect fill="rgb(10,164,112)" height="5px" opacity="0.874509803922" width="5px" x="44px" y="80px" /><rect fill="rgb(11,165,113)" height="5px" width="5px" x="48px" y="80px" /><rect fill="rgb(123,231,236)" height="5px" width="5px" x="52px" y="80px" /><rect fill="rgb(157,248,244)" height="5px" width="5px" x="56px" y="80px" /><rect fill="rgb(0,100,162)" height="5px" width="5px" x="60px" y="80px" /><rect fill="rgb(116,228,227)" height="5px" width="5px" x="64px" y="80px" /><rect fill="rgb(123,195,239)" height="5px" width="5px" x="68px" y="80px" /><rect fill="rgb(123,231,236)" height="5px" width="5px" x="72px" y="80px" /><rect fill="rgb(123,243,231)" height="5px" width="5px" x="76px" y="80px" /><rect fill="rgb(123,231,236)" height="5px" width="5px" x="80px" y="80px" /><rect fill="rgb(123,231,236)" height="5px" width="5px" x="84px" y="80px" /><rect fill="rgb(123,231,236)" height="5px" width="5px" x="88px" y="80px" /><rect fill="rgb(10,165,112)" height="5px" opacity="0.992156862745" width="5px" x="92px" y="80px" /><rect fill="rgb(10,164,112)" height="5px" opacity="0.686274509804" width="5px" x="96px" y="80px" /><rect fill="rgb(11,165,113)" height="5px" width="5px" x="24px" y="84px" /><rect fill="rgb(11,165,113)" height="5px" width="5px" x="36px" y="84px" /><rect fill="rgb(11,165,113)" height="5px" width="5px" x="40px" y="84px" /><rect fill="rgb(11,165,113)" height="5px" width="5px" x="44px" y="84px" /><rect fill="rgb(11,165,113)" height="5px" width="5px" x="48px" y="84px" /><rect fill="rgb(9,164,111)" height="5px" opacity="0.509803921569" width="5px" x="52px" y="84px" /><rect fill="rgb(123,231,236)" height="5px" width="5px" x="56px" y="84px" /><rect fill="rgb(123,231,236)" height="5px" width="5px" x="60px" y="84px" /><rect fill="rgb(123,231,236)" height="5px" width="5px" x="64px" y="84px" /><rect fill="rgb(105,222,219)" height="5px" width="5px" x="68px" y="84px" /><rect fill="rgb(123,231,236)" height="5px" width="5px" x="72px" y="84px" /><rect fill="rgb(121,243,237)" height="5px" width="5px" x="76px" y="84px" /><rect fill="rgb(123,231,236)" height="5px" width="5px" x="80px" y="84px" /><rect fill="rgb(123,231,236)" height="5px" width="5px" x="84px" y="84px" /><rect fill="rgb(0,100,162)" height="5px" width="5px" x="88px" y="84px" /><rect fill="rgb(11,165,113)" height="5px" width="5px" x="92px" y="84px" /><rect fill="rgb(11,165,113)" height="5px" width="5px" x="96px" y="84px" /><rect fill="rgb(11,165,113)" height="5px" width="5px" x="100px" y="84px" /><rect fill="rgb(11,165,113)" height="5px" width="5px" x="104px" y="84px" /><rect fill="rgb(11,165,113)" height="5px" width="5px" x="108px" y="84px" /><rect fill="rgb(11,165,113)" height="5px" width="5px" x="112px" y="84px" /><rect fill="rgb(11,165,113)" height="5px" width="5px" x="20px" y="88px" /><rect fill="rgb(11,165,113)" height="5px" width="5px" x="24px" y="88px" /><rect fill="rgb(11,165,113)" height="5px" width="5px" x="36px" y="88px" /><rect fill="rgb(10,164,111)" height="5px" opacity="0.286274509804" width="5px" x="44px" y="88px" /><rect fill="rgb(11,165,113)" height="5px" width="5px" x="48px" y="88px" /><rect fill="rgb(10,164,112)" height="5px" opacity="0.996078431373" width="5px" x="52px" y="88px" /><rect fill="rgb(10,164,112)" height="5px" opacity="0.835294117647" width="5px" x="56px" y="88px" /><rect fill="rgb(123,231,236)" height="5px" width="5px" x="60px" y="88px" /><rect fill="rgb(123,231,236)" height="5px" width="5px" x="64px" y="88px" /><rect fill="rgb(123,231,236)" height="5px" width="5px" x="68px" y="88px" /><rect fill="rgb(128,229,245)" height="5px" width="5px" x="72px" y="88px" /><rect fill="rgb(115,228,212)" height="5px" width="5px" x="76px" y="88px" /><rect fill="rgb(123,231,236)" height="5px" width="5px" x="80px" y="88px" /><rect fill="rgb(123,231,236)" height="5px" width="5px" x="84px" y="88px" /><rect fill="rgb(123,231,236)" height="5px" width="5px" x="88px" y="88px" /><rect fill="rgb(10,164,112)" height="5px" opacity="0.764705882353" width="5px" x="92px" y="88px" /><rect fill="rgb(10,164,112)" height="5px" opacity="0.854901960784" width="5px" x="96px" y="88px" /><rect fill="rgb(6,161,111)" height="5px" opacity="0.160784313725" width="5px" x="100px" y="88px" /><rect fill="rgb(11,165,113)" height="5px" width="5px" x="112px" y="88px" /><rect fill="rgb(11,165,113)" height="5px" width="5px" x="36px" y="92px" /><rect fill="rgb(9,165,111)" height="5px" opacity="0.333333333333" width="5px" x="48px" y="92px" /><rect fill="rgb(10,164,112)" height="5px" opacity="0.917647058824" width="5px" x="52px" y="92px" /><rect fill="rgb(11,165,113)" height="5px" width="5px" x="56px" y="92px" /><rect fill="rgb(123,231,236)" height="5px" width="5px" x="60px" y="92px" /><rect fill="rgb(123,231,236)" height="5px" width="5px" x="64px" y="92px" /><rect fill="rgb(95,220,237)" height="5px" width="5px" x="68px" y="92px" /><rect fill="rgb(122,255,255)" height="5px" width="5px" x="72px" y="92px" /><rect fill="rgb(123,231,236)" height="5px" width="5px" x="76px" y="92px" /><rect fill="rgb(123,231,236)" height="5px" width="5px" x="80px" y="92px" /><rect fill="rgb(153,237,237)" height="5px" width="5px" x="84px" y="92px" /><rect fill="rgb(123,231,236)" height="5px" width="5px" x="88px" y="92px" /><rect fill="rgb(10,164,112)" height="5px" opacity="0.925490196078" width="5px" x="92px" y="92px" /><rect fill="rgb(10,165,112)" height="5px" opacity="0.56862745098" width="5px" x="96px" y="92px" /><rect fill="rgb(11,165,113)" height="5px" opacity="0.76862745098" width="5px" x="112px" y="92px" /><rect fill="rgb(11,165,113)" height="5px" width="5px" x="116px" y="92px" /><rect fill="rgb(11,165,113)" height="5px" width="5px" x="120px" y="92px" /><rect fill="rgb(11,165,113)" height="5px" width="5px" x="36px" y="96px" /><rect fill="rgb(9,164,112)" height="5px" opacity="0.61568627451" width="5px" x="52px" y="96px" /><rect fill="rgb(11,165,113)" height="5px" width="5px" x="56px" y="96px" /><rect fill="rgb(11,165,113)" height="5px" width="5px" x="60px" y="96px" /><rect fill="rgb(123,231,236)" height="5px" width="5px" x="64px" y="96px" /><rect fill="rgb(123,231,236)" height="5px" width="5px" x="68px" y="96px" /><rect fill="rgb(123,231,236)" height="5px" width="5px" x="72px" y="96px" /><rect fill="rgb(123,231,236)" height="5px" width="5px" x="76px" y="96px" /><rect fill="rgb(0,100,162)" height="5px" width="5px" x="80px" y="96px" /><rect fill="rgb(123,231,236)" height="5px" width="5px" x="84px" y="96px" /><rect fill="rgb(9,164,112)" height="5px" opacity="0.63137254902" width="5px" x="88px" y="96px" /><rect fill="rgb(11,165,113)" height="5px" width="5px" x="92px" y="96px" /><rect fill="rgb(10,164,112)" height="5px" opacity="0.764705882353" width="5px" x="96px" y="96px" /><rect fill="rgb(11,165,113)" height="5px" width="5px" x="36px" y="100px" /><rect fill="rgb(11,165,113)" height="5px" width="5px" x="52px" y="100px" /><rect fill="rgb(11,165,113)" height="5px" width="5px" x="56px" y="100px" /><rect fill="rgb(11,165,113)" height="5px" width="5px" x="60px" y="100px" /><rect fill="rgb(9,164,111)" height="5px" opacity="0.803921568627" width="5px" x="64px" y="100px" /><rect fill="rgb(123,231,236)" height="5px" width="5px" x="68px" y="100px" /><rect fill="rgb(125,233,217)" height="5px" width="5px" x="72px" y="100px" /><rect fill="rgb(136,218,245)" height="5px" width="5px" x="76px" y="100px" /><rect fill="rgb(123,231,236)" height="5px" width="5px" x="80px" y="100px" /><rect fill="rgb(123,231,236)" height="5px" width="5px" x="84px" y="100px" /><rect fill="rgb(10,164,112)" height="5px" opacity="0.964705882353" width="5px" x="88px" y="100px" /><rect fill="rgb(11,165,113)" height="5px" width="5px" x="92px" y="100px" /><rect fill="rgb(6,165,110)" height="5px" opacity="0.145098039216" width="5px" x="96px" y="100px" /><rect fill="rgb(11,163,111)" height="5px" opacity="0.250980392157" width="5px" x="32px" y="104px" /><rect fill="rgb(11,165,113)" height="5px" width="5px" x="36px" y="104px" /><rect fill="rgb(11,165,113)" height="5px" width="5px" x="48px" y="104px" /><rect fill="rgb(11,165,113)" height="5px" width="5px" x="52px" y="104px" /><rect fill="rgb(10,164,112)" height="5px" opacity="0.945098039216" width="5px" x="60px" y="104px" /><rect fill="rgb(11,165,113)" height="5px" width="5px" x="64px" y="104px" /><rect fill="rgb(10,164,112)" height="5px" opacity="0.976470588235" width="5px" x="68px" y="104px" /><rect fill="rgb(123,231,236)" height="5px" width="5px" x="72px" y="104px" /><rect fill="rgb(123,231,236)" height="5px" width="5px" x="76px" y="104px" /><rect fill="rgb(123,231,236)" height="5px" width="5px" x="80px" y="104px" /><rect fill="rgb(10,165,111)" height="5px" opacity="0.733333333333" width="5px" x="84px" y="104px" /><rect fill="rgb(11,165,113)" height="5px" width="5px" x="88px" y="104px" /><rect fill="rgb(11,165,113)" height="5px" width="5px" x="92px" y="104px" /><rect fill="rgb(11,165,113)" height="5px" width="5px" x="96px" y="104px" /><rect fill="rgb(11,165,113)" height="5px" width="5px" x="100px" y="104px" /><rect fill="rgb(10,165,113)" height="5px" opacity="0.733333333333" width="5px" x="104px" y="104px" /><rect fill="rgb(11,165,113)" height="5px" width="5px" x="28px" y="108px" /><rect fill="rgb(11,165,113)" height="5px" width="5px" x="32px" y="108px" /><rect fill="rgb(11,163,111)" height="5px" opacity="0.250980392157" width="5px" x="36px" y="108px" /><rect fill="rgb(11,165,113)" height="5px" width="5px" x="48px" y="108px" /><rect fill="rgb(9,166,112)" height="5px" opacity="0.427450980392" width="5px" x="60px" y="108px" /><rect fill="rgb(10,164,112)" height="5px" opacity="0.749019607843" width="5px" x="64px" y="108px" /><rect fill="rgb(11,165,113)" height="5px" width="5px" x="68px" y="108px" /><rect fill="rgb(11,165,113)" height="5px" width="5px" x="72px" y="108px" /><rect fill="rgb(10,164,112)" height="5px" opacity="0.764705882353" width="5px" x="76px" y="108px" /><rect fill="rgb(9,165,112)" height="5px" opacity="0.811764705882" width="5px" x="80px" y="108px" /><rect fill="rgb(11,165,113)" height="5px" width="5px" x="84px" y="108px" /><rect fill="rgb(10,165,112)" height="5px" opacity="0.858823529412" width="5px" x="88px" y="108px" /><rect fill="rgb(9,162,111)" height="5px" opacity="0.21568627451" width="5px" x="92px" y="108px" /><rect fill="rgb(11,165,113)" height="5px" width="5px" x="104px" y="108px" /><rect fill="rgb(11,163,111)" height="5px" opacity="0.250980392157" width="5px" x="108px" y="108px" /><rect fill="rgb(11,165,113)" height="5px" width="5px" x="28px" y="112px" /><rect fill="rgb(11,165,113)" height="5px" width="5px" x="48px" y="112px" /><rect fill="rgb(7,162,108)" height="5px" opacity="0.129411764706" width="5px" x="64px" y="112px" /><rect fill="rgb(8,166,111)" height="5px" opacity="0.349019607843" width="5px" x="68px" y="112px" /><rect fill="rgb(10,165,112)" height="5px" opacity="0.858823529412" width="5px" x="72px" y="112px" /><rect fill="rgb(11,165,113)" height="5px" width="5px" x="76px" y="112px" /><rect fill="rgb(11,165,113)" height="5px" width="5px" x="80px" y="112px" /><rect fill="rgb(11,165,113)" height="5px" width="5px" x="84px" y="112px" /><rect fill="rgb(9,165,112)" height="5px" opacity="0.611764705882" width="5px" x="88px" y="112px" /><rect fill="rgb(11,163,111)" height="5px" opacity="0.250980392157" width="5px" x="104px" y="112px" /><rect fill="rgb(11,165,113)" height="5px" width="5px" x="108px" y="112px" /><rect fill="rgb(11,165,113)" height="5px" width="5px" x="112px" y="112px" /><rect fill="rgb(10,165,112)" height="5px" opacity="0.858823529412" width="5px" x="116px" y="112px" /><rect fill="rgb(11,165,113)" height="5px" width="5px" x="48px" y="116px" /><rect fill="rgb(9,164,111)" height="5px" opacity="0.509803921569" width="5px" x="76px" y="116px" /><rect fill="rgb(10,165,111)" height="5px" opacity="0.278431372549" width="5px" x="80px" y="116px" /><rect fill="rgb(11,165,113)" height="5px" width="5px" x="84px" y="116px" /><rect fill="rgb(11,165,113)" height="5px" width="5px" x="116px" y="116px" /><rect fill="rgb(11,165,113)" height="5px" width="5px" x="48px" y="120px" /><rect fill="rgb(11,165,113)" height="5px" width="5px" x="84px" y="120px" /><rect fill="rgb(11,165,113)" height="5px" width="5px" x="88px" y="120px" /><rect fill="rgb(11,165,113)" height="5px" width="5px" x="88px" y="124px" /><rect fill="rgb(11,165,113)" height="5px" width="5px" x="92px" y="124px" /><rect fill="rgb(11,165,113)" height="5px" width="5px" x="96px" y="124px" /></svg>