<?xml version="1.0" encoding="utf-8" ?>
<svg baseProfile="full" height="128px" version="1.1" width="128px" xmlns="http://www.w3.org/2000/svg" xmlns:ev="http://www.w3.org/2001/xml-events" xmlns:xlink="http://www.w3.org/1999/xlink"><defs /><rect fill="rgb(9,20,16)" height="5px" width="5px" x="20px" y="68px" /><rect fill="rgb(5,11,9)" height="5px" width="5px" x="24px" y="68px" /><rect fill="rgb(5,11,9)" height="5px" width="5px" x="28px" y="68px" /><rect fill="rgb(5,11,9)" height="5px" width="5px" x="32px" y="68px" /><rect fill="rgb(5,11,9)" height="5px" width="5px" x="36px" y="68px" /><rect fill="rgb(5,11,9)" height="5px" width="5px" x="40px" y="68px" /><rect fill="rgb(5,11,9)" height="5px" width="5px" x="44px" y="68px" /><rect fill="rgb(5,11,9)" height="5px" width="5px" x="48px" y="68px" /><rect fill="rgb(5,11,9)" height="5px" width="5px" x="52px" y="68px" /><rect fill="rgb(5,11,9)" height="5px" width="5px" x="56px" y="68px" /><rect fill="rgb(5,11,9)" height="5px" width="5px" x="60px" y="68px" /><rect fill="rgb(5,11,9)" height="5px" width="5px" x="64px" y="68px" /><rect fill="rgb(5,11,9)" height="5px" width="5px" x="68px" y="68px" /><rect fill="rgb(5,11,9)" height="5px" width="5px" x="72px" y="68px" /><rect fill="rgb(5,11,9)" height="5px" width="5px" x="76px" y="68px" /><rect fill="rgb(5,11,9)" height="5px" width="5px" x="80px" y="68px" /><rect fill="rgb(5,11,9)" height="5px" width="5px" x="84px" y="68px" /><rect fill="rgb(5,11,9)" height="5px" width="5px" x="88px" y="68px" /><rect fill="rgb(5,11,9)" height="5px" width="5px" x="92px" y="68px" /><rect fill="rgb(5,11,9)" height="5px" width="5px" x="96px" y="68px" /><rect fill="rgb(5,11,9)" height="5px" width="5px" x="100px" y="68px" /><rect fill="rgb(5,11,9)" height="5px" width="5px" x="104px" y="68px" /><rect fill="rgb(9,20,16)" height="5px" width="5px" x="16px" y="72px" /><rect fill="rgb(9,20,16)" height="5px" width="5px" x="20px" y="72px" /><rect fill="rgb(9,20,16)" height="5px" width="5px" x="24px" y="72px" /><rect fill="rgb(9,20,16)" height="5px" width="5px" x="28px" y="72px" /><rect fill="rgb(9,20,16)" height="5px" width="5px" x="32px" y="72px" /><rect fill="rgb(9,20,16)" height="5px" width="5px" x="36px" y="72px" /><rect fill="rgb(9,20,16)" height="5px" width="5px" x="40px" y="72px" /><rect fill="rgb(9,20,16)" height="5px" width="5px" x="44px" y="72px" /><rect fill="rgb(9,20,16)" height="5px" width="5px" x="48px" y="72px" /><rect fill="rgb(9,20,16)" height="5px" width="5px" x="52px" y="72px" /><rect fill="rgb(9,20,16)" height="5px" width="5px" x="56px" y="72px" /><rect fill="rgb(9,20,16)" height="5px" width="5px" x="60px" y="72px" /><rect fill="rgb(9,20,16)" height="5px" width="5px" x="64px" y="72px" /><rect fill="rgb(9,20,16)" height="5px" width="5px" x="68px" y="72px" /><rect fill="rgb(9,20,16)" height="5px" width="5px" x="72px" y="72px" /><rect fill="rgb(9,20,16)" height="5px" width="5px" x="76px" y="72px" /><rect fill="rgb(9,20,16)" height="5px" width="5px" x="80px" y="72px" /><rect fill="rgb(9,20,16)" height="5px" width="5px" x="84px" y="72px" /><rect fill="rgb(9,20,16)" height="5px" width="5px" x="88px" y="72px" /><rect fill="rgb(9,20,16)" height="5px" width="5px" x="92px" y="72px" /><rect fill="rgb(9,20,16)" height="5px" width="5px" x="96px" y="72px" /><rect fill="rgb(9,20,16)" height="5px" width="5px" x="100px" y="72px" /><rect fill="rgb(9,20,16)" height="5px" width="5px" x="104px" y="72px" /><rect fill="rgb(9,20,16)" height="5px" width="5px" x="108px" y="72px" /><rect fill="rgb(9,20,16)" height="5px" width="5px" x="112px" y="72px" /><rect fill="rgb(9,20,16)" height="5px" width="5px" x="16px" y="76px" /><rect fill="rgb(9,20,16)" height="5px" width="5px" x="20px" y="76px" /><rect fill="rgb(9,20,16)" height="5px" width="5px" x="24px" y="76px" /><rect fill="rgb(5,11,9)" height="5px" width="5px" x="28px" y="76px" /><rect fill="rgb(5,11,9)" height="5px" width="5px" x="32px" y="76px" /><rect fill="rgb(5,11,9)" height="5px" width="5px" x="36px" y="76px" /><rect fill="rgb(5,11,9)" height="5px" width="5px" x="40px" y="76px" /><rect fill="rgb(5,11,9)" height="5px" width="5px" x="44px" y="76px" /><rect fill="rgb(5,11,9)" height="5px" width="5px" x="48px" y="76px" /><rect fill="rgb(5,11,9)" height="5px" width="5px" x="52px" y="76px" /><rect fill="rgb(5,11,9)" height="5px" width="5px" x="56px" y="76px" /><rect fill="rgb(5,11,9)" height="5px" width="5px" x="60px" y="76px" /><rect fill="rgb(5,11,9)" height="5px" width="5px" x="64px" y="76px" /><rect fill="rgb(5,11,9)" height="5px" width="5px" x="68px" y="76px" /><rect fill="rgb(5,11,9)" height="5px" width="5px" x="72px" y="76px" /><rect fill="rgb(5,11,9)" height="5px" width="5px" x="76px" y="76px" /><rect fill="rgb(5,11,9)" height="5px" width="5px" x="80px" y="76px" /><rect fill="rgb(5,11,9)" height="5px" width="5px" x="84px" y="76px" /><rect fill="rgb(5,11,9)" height="5px" width="5px" x="88px" y="76px" /><rect fill="rgb(5,11,9)" height="5px" width="5px" x="92px" y="76px" /><rect fill="rgb(5,11,9)" height="5px" width="5px" x="96px" y="76px" /><rect fill="rgb(5,11,9)" height="5px" width="5px" x="100px" y="76px" /><rect fill="rgb(5,11,9)" height="5px" width="5px" x="104px" y="76px" /><rect fill="rgb(9,20,16)" height="5px" width="5px" x="108px" y="76px" /><rect fill="rgb(9,20,16)" height="5px" width="5px" x="112px" y="76px" /><rect fill="rgb(9,20,16)" height="5px" width="5px" x="116px" y="76px" /><rect fill="rgb(9,20,16)" height="5px" width="5px" x="12px" y="80px" /><rect fill="rgb(9,20,16)" height="5px" width="5px" x="16px" y="80px" /><rect fill="rgb(9,20,16)" height="5px" width="5px" x="20px" y="80px" /><rect fill="rgb(9,20,16)" height="5px" width="5px" x="24px" y="80px" /><rect fill="rgb(5,11,9)" height="5px" width="5px" x="28px" y="80px" /><rect fill="rgb(5,11,9)" height="5px" width="5px" x="32px" y="80px" /><rect fill="rgb(5,11,9)" height="5px" width="5px" x="36px" y="80px" /><rect fill="rgb(5,11,9)" height="5px" width="5px" x="40px" y="80px" /><rect fill="rgb(5,11,9)" height="5px" width="5px" x="44px" y="80px" /><rect fill="rgb(5,11,9)" height="5px" width="5px" x="48px" y="80px" /><rect fill="rgb(5,11,9)" height="5px" width="5px" x="52px" y="80px" /><rect fill="rgb(5,11,9)" height="5px" width="5px" x="56px" y="80px" /><rect fill="rgb(5,11,9)" height="5px" width="5px" x="60px" y="80px" /><rect fill="rgb(5,11,9)" height="5px" width="5px" x="64px" y="80px" /><rect fill="rgb(5,11,9)" height="5px" width="5px" x="68px" y="80px" /><rect fill="rgb(5,11,9)" height="5px" width="5px" x="72px" y="80px" /><rect fill="rgb(5,11,9)" height="5px" width="5px" x="76px" y="80px" /><rect fill="rgb(5,11,9)" height="5px" width="5px" x="80px" y="80px" /><rect fill="rgb(5,11,9)" height="5px" width="5px" x="84px" y="80px" /><rect fill="rgb(5,11,9)" height="5px" width="5px" x="88px" y="80px" /><rect fill="rgb(5,11,9)" height="5px" width="5px" x="92px" y="80px" /><rect fill="rgb(5,11,9)" height="5px" width="5px" x="96px" y="80px" /><rect fill="rgb(5,11,9)" height="5px" width="5px" x="100px" y="80px" /><rect fill="rgb(9,20,16)" height="5px" width="5px" x="104px" y="80px" /><rect fill="rgb(22,46,36)" height="5px" width="5px" x="108px" y="80px" /><rect fill="rgb(22,46,36)" height="5px" width="5px" x="112px" y="80px" /><rect fill="rgb(9,20,16)" height="5px" width="5px" x="116px" y="80px" /><rect fill="rgb(9,20,16)" height="5px" width="5px" x="12px" y="84px" /><rect fill="rgb(9,20,16)" height="5px" width="5px" x="16px" y="84px" /><rect fill="rgb(9,20,16)" height="5px" width="5px" x="20px" y="84px" /><rect fill="rgb(9,20,16)" height="5px" width="5px" x="24px" y="84px" /><rect fill="rgb(9,20,16)" height="5px" width="5px" x="28px" y="84px" /><rect fill="rgb(9,20,16)" height="5px" width="5px" x="32px" y="84px" /><rect fill="rgb(9,20,16)" height="5px" width="5px" x="36px" y="84px" /><rect fill="rgb(9,20,16)" height="5px" width="5px" x="40px" y="84px" /><rect fill="rgb(9,20,16)" height="5px" width="5px" x="44px" y="84px" /><rect fill="rgb(9,20,16)" height="5px" width="5px" x="48px" y="84px" /><rect fill="rgb(9,20,16)" height="5px" width="5px" x="52px" y="84px" /><rect fill="rgb(9,20,16)" height="5px" width="5px" x="56px" y="84px" /><rect fill="rgb(9,20,16)" height="5px" width="5px" x="60px" y="84px" /><rect fill="rgb(9,20,16)" height="5px" width="5px" x="64px" y="84px" /><rect fill="rgb(9,20,16)" height="5px" width="5px" x="68px" y="84px" /><rect fill="rgb(9,20,16)" height="5px" width="5px" x="72px" y="84px" /><rect fill="rgb(9,20,16)" height="5px" width="5px" x="76px" y="84px" /><rect fill="rgb(9,20,16)" height="5px" width="5px" x="80px" y="84px" /><rect fill="rgb(9,20,16)" height="5px" width="5px" x="84px" y="84px" /><rect fill="rgb(9,20,16)" height="5px" width="5px" x="88px" y="84px" /><rect fill="rgb(9,20,16)" height="5px" width="5px" x="92px" y="84px" /><rect fill="rgb(9,20,16)" height="5px" width="5px" x="96px" y="84px" /><rect fill="rgb(9,20,16)" height="5px" width="5px" x="100px" y="84px" /><rect fill="rgb(9,20,16)" height="5px" width="5px" x="104px" y="84px" /><rect fill="rgb(22,46,36)" height="5px" width="5px" x="108px" y="84px" /><rect fill="rgb(22,46,36)" height="5px" width="5px" x="112px" y="84px" /><rect fill="rgb(9,20,16)" height="5px" width="5px" x="116px" y="84px" /><rect fill="rgb(9,20,16)" height="5px" width="5px" x="12px" y="88px" /><rect fill="rgb(9,20,16)" height="5px" width="5px" x="16px" y="88px" /><rect fill="rgb(9,20,16)" height="5px" width="5px" x="20px" y="88px" /><rect fill="rgb(9,20,16)" height="5px" width="5px" x="24px" y="88px" /><rect fill="rgb(5,11,9)" height="5px" width="5px" x="28px" y="88px" /><rect fill="rgb(5,11,9)" height="5px" width="5px" x="32px" y="88px" /><rect fill="rgb(5,11,9)" height="5px" width="5px" x="36px" y="88px" /><rect fill="rgb(5,11,9)" height="5px" width="5px" x="40px" y="88px" /><rect fill="rgb(5,11,9)" height="5px" width="5px" x="44px" y="88px" /><rect fill="rgb(5,11,9)" height="5px" width="5px" x="48px" y="88px" /><rect fill="rgb(5,11,9)" height="5px" width="5px" x="52px" y="88px" /><rect fill="rgb(5,11,9)" height="5px" width="5px" x="56px" y="88px" /><rect fill="rgb(5,11,9)" height="5px" width="5px" x="60px" y="88px" /><rect fill="rgb(5,11,9)" height="5px" width="5px" x="64px" y="88px" /><rect fill="rgb(5,11,9)" height="5px" width="5px" x="68px" y="88px" /><rect fill="rgb(5,11,9)" height="5px" width="5px" x="72px" y="88px" /><rect fill="rgb(5,11,9)" height="5px" width="5px" x="76px" y="88px" /><rect fill="rgb(5,11,9)" height="5px" width="5px" x="80px" y="88px" /><rect fill="rgb(5,11,9)" height="5px" width="5px" x="84px" y="88px" /><rect fill="rgb(5,11,9)" height="5px" width="5px" x="88px" y="88px" /><rect fill="rgb(5,11,9)" height="5px" width="5px" x="92px" y="88px" /><rect fill="rgb(5,11,9)" height="5px" width="5px" x="96px" y="88px" /><rect fill="rgb(5,11,9)" height="5px" width="5px" x="100px" y="88px" /><rect fill="rgb(9,20,16)" height="5px" width="5px" x="104px" y="88px" /><rect fill="rgb(22,46,36)" height="5px" width="5px" x="108px" y="88px" /><rect fill="rgb(22,46,36)" height="5px" width="5px" x="112px" y="88px" /><rect fill="rgb(9,20,16)" height="5px" width="5px" x="116px" y="88px" /><rect fill="rgb(9,20,16)" height="5px" width="5px" x="12px" y="92px" /><rect fill="rgb(9,20,16)" height="5px" width="5px" x="16px" y="92px" /><rect fill="rgb(9,20,16)" height="5px" width="5px" x="20px" y="92px" /><rect fill="rgb(9,20,16)" height="5px" width="5px" x="24px" y="92px" /><rect fill="rgb(5,11,9)" height="5px" width="5px" x="28px" y="92px" /><rect fill="rgb(5,11,9)" height="5px" width="5px" x="32px" y="92px" /><rect fill="rgb(5,11,9)" height="5px" width="5px" x="36px" y="92px" /><rect fill="rgb(5,11,9)" height="5px" width="5px" x="40px" y="92px" /><rect fill="rgb(5,11,9)" height="5px" width="5px" x="44px" y="92px" /><rect fill="rgb(5,11,9)" height="5px" width="5px" x="48px" y="92px" /><rect fill="rgb(5,11,9)" height="5px" width="5px" x="52px" y="92px" /><rect fill="rgb(5,11,9)" height="5px" width="5px" x="56px" y="92px" /><rect fill="rgb(5,11,9)" height="5px" width="5px" x="60px" y="92px" /><rect fill="rgb(5,11,9)" height="5px" width="5px" x="64px" y="92px" /><rect fill="rgb(5,11,9)" height="5px" width="5px" x="68px" y="92px" /><rect fill="rgb(5,11,9)" height="5px" width="5px" x="72px" y="92px" /><rect fill="rgb(5,11,9)" height="5px" width="5px" x="76px" y="92px" /><rect fill="rgb(5,11,9)" height="5px" width="5px" x="80px" y="92px" /><rect fill="rgb(5,11,9)" height="5px" width="5px" x="84px" y="92px" /><rect fill="rgb(5,11,9)" height="5px" width="5px" x="88px" y="92px" /><rect fill="rgb(5,11,9)" height="5px" width="5px" x="92px" y="92px" /><rect fill="rgb(5,11,9)" height="5px" width="5px" x="96px" y="92px" /><rect fill="rgb(5,11,9)" height="5px" width="5px" x="100px" y="92px" /><rect fill="rgb(9,20,16)" height="5px" width="5px" x="104px" y="92px" /><rect fill="rgb(22,46,36)" height="5px" width="5px" x="108px" y="92px" /><rect fill="rgb(22,46,36)" height="5px" width="5px" x="112px" y="92px" /><rect fill="rgb(9,20,16)" height="5px" width="5px" x="116px" y="92px" /><rect fill="rgb(9,20,16)" height="5px" width="5px" x="12px" y="96px" /><rect fill="rgb(9,20,16)" height="5px" width="5px" x="16px" y="96px" /><rect fill="rgb(9,20,16)" height="5px" width="5px" x="20px" y="96px" /><rect fill="rgb(9,20,16)" height="5px" width="5px" x="24px" y="96px" /><rect fill="rgb(5,11,9)" height="5px" width="5px" x="28px" y="96px" /><rect fill="rgb(5,11,9)" height="5px" width="5px" x="32px" y="96px" /><rect fill="rgb(5,11,9)" height="5px" width="5px" x="36px" y="96px" /><rect fill="rgb(5,11,9)" height="5px" width="5px" x="40px" y="96px" /><rect fill="rgb(5,11,9)" height="5px" width="5px" x="44px" y="96px" /><rect fill="rgb(5,11,9)" height="5px" width="5px" x="48px" y="96px" /><rect fill="rgb(5,11,9)" height="5px" width="5px" x="52px" y="96px" /><rect fill="rgb(5,11,9)" height="5px" width="5px" x="56px" y="96px" /><rect fill="rgb(5,11,9)" height="5px" width="5px" x="60px" y="96px" /><rect fill="rgb(5,11,9)" height="5px" width="5px" x="64px" y="96px" /><rect fill="rgb(5,11,9)" height="5px" width="5px" x="68px" y="96px" /><rect fill="rgb(5,11,9)" height="5px" width="5px" x="72px" y="96px" /><rect fill="rgb(5,11,9)" height="5px" width="5px" x="76px" y="96px" /><rect fill="rgb(5,11,9)" height="5px" width="5px" x="80px" y="96px" /><rect fill="rgb(5,11,9)" height="5px" width="5px" x="84px" y="96px" /><rect fill="rgb(5,11,9)" height="5px" width="5px" x="88px" y="96px" /><rect fill="rgb(5,11,9)" height="5px" width="5px" x="92px" y="96px" /><rect fill="rgb(5,11,9)" height="5px" width="5px" x="96px" y="96px" /><rect fill="rgb(5,11,9)" height="5px" width="5px" x="100px" y="96px" /><rect fill="rgb(9,20,16)" height="5px" width="5px" x="104px" y="96px" /><rect fill="rgb(22,46,36)" height="5px" width="5px" x="108px" y="96px" /><rect fill="rgb(22,46,36)" height="5px" width="5px" x="112px" y="96px" /><rect fill="rgb(9,20,16)" height="5px" width="5px" x="116px" y="96px" /><rect fill="rgb(9,20,16)" height="5px" width="5px" x="16px" y="100px" /><rect fill="rgb(9,20,16)" height="5px" width="5px" x="20px" y="100px" /><rect fill="rgb(9,20,16)" height="5px" width="5px" x="24px" y="100px" /><rect fill="rgb(9,20,16)" height="5px" width="5px" x="28px" y="100px" /><rect fill="rgb(9,20,16)" height="5px" width="5px" x="32px" y="100px" /><rect fill="rgb(9,20,16)" height="5px" width="5px" x="36px" y="100px" /><rect fill="rgb(9,20,16)" height="5px" width="5px" x="40px" y="100px" /><rect fill="rgb(9,20,16)" height="5px" width="5px" x="44px" y="100px" /><rect fill="rgb(9,20,16)" height="5px" width="5px" x="48px" y="100px" /><rect fill="rgb(9,20,16)" height="5px" width="5px" x="52px" y="100px" /><rect fill="rgb(9,20,16)" height="5px" width="5px" x="56px" y="100px" /><rect fill="rgb(9,20,16)" height="5px" width="5px" x="60px" y="100px" /><rect fill="rgb(9,20,16)" height="5px" width="5px" x="64px" y="100px" /><rect fill="rgb(9,20,16)" height="5px" width="5px" x="68px" y="100px" /><rect fill="rgb(9,20,16)" height="5px" width="5px" x="72px" y="100px" /><rect fill="rgb(9,20,16)" height="5px" width="5px" x="76px" y="100px" /><rect fill="rgb(9,20,16)" height="5px" width="5px" x="80px" y="100px" /><rect fill="rgb(9,20,16)" height="5px" width="5px" x="84px" y="100px" /><rect fill="rgb(9,20,16)" height="5px" width="5px" x="88px" y="100px" /><rect fill="rgb(9,20,16)" height="5px" width="5px" x="92px" y="100px" /><rect fill="rgb(9,20,16)" height="5px" width="5px" x="96px" y="100px" /><rect fill="rgb(9,20,16)" height="5px" width="5px" x="100px" y="100px" /><rect fill="rgb(9,20,16)" height="5px" width="5px" x="104px" y="100px" /><rect fill="rgb(9,20,16)" height="5px" width="5px" x="108px" y="100px" /><rect fill="rgb(9,20,16)" height="5px" width="5px" x="112px" y="100px" /><rect fill="rgb(9,20,16)" height="5px" width="5px" x="16px" y="104px" /><rect fill="rgb(5,11,9)" height="5px" width="5px" x="20px" y="104px" /><rect fill="rgb(5,11,9)" height="5px" width="5px" x="24px" y="104px" /><rect fill="rgb(5,11,9)" height="5px" width="5px" x="28px" y="104px" /><rect fill="rgb(5,11,9)" height="5px" width="5px" x="32px" y="104px" /><rect fill="rgb(5,11,9)" height="5px" width="5px" x="36px" y="104px" /><rect fill="rgb(5,11,9)" height="5px" width="5px" x="40px" y="104px" /><rect fill="rgb(5,11,9)" height="5px" width="5px" x="44px" y="104px" /><rect fill="rgb(5,11,9)" height="5px" width="5px" x="48px" y="104px" /><rect fill="rgb(5,11,9)" height="5px" width="5px" x="52px" y="104px" /><rect fill="rgb(5,11,9)" height="5px" width="5px" x="56px" y="104px" /><rect fill="rgb(5,11,9)" height="5px" width="5px" x="60px" y="104px" /><rect fill="rgb(5,11,9)" height="5px" width="5px" x="64px" y="104px" /><rect fill="rgb(5,11,9)" height="5px" width="5px" x="68px" y="104px" /><rect fill="rgb(5,11,9)" height="5px" width="5px" x="72px" y="104px" /><rect fill="rgb(5,11,9)" height="5px" width="5px" x="76px" y="104px" /><rect fill="rgb(5,11,9)" height="5px" width="5px" x="80px" y="104px" /><rect fill="rgb(5,11,9)" height="5px" width="5px" x="84px" y="104px" /><rect fill="rgb(5,11,9)" height="5px" width="5px" x="88px" y="104px" /><rect fill="rgb(5,11,9)" height="5px" width="5px" x="92px" y="104px" /><rect fill="rgb(5,11,9)" height="5px" width="5px" x="96px" y="104px" /><rect fill="rgb(5,11,9)" height="5px" width="5px" x="100px" y="104px" /><rect fill="rgb(5,11,9)" height="5px" width="5px" x="104px" y="104px" /><rect fill="rgb(9,20,16)" height="5px" width="5px" x="108px" y="104px" /><rect fill="rgb(68,43,23)" height="5px" width="5px" x="16px" y="108px" /><rect fill="rgb(68,43,23)" height="5px" width="5px" x="20px" y="108px" /><rect fill="rgb(68,43,23)" height="5px" width="5px" x="24px" y="108px" /><rect fill="rgb(68,43,23)" height="5px" width="5px" x="28px" y="108px" /><rect fill="rgb(68,43,23)" height="5px" width="5px" x="32px" y="108px" /><rect fill="rgb(68,43,23)" height="5px" width="5px" x="96px" y="108px" /><rect fill="rgb(68,43,23)" height="5px" width="5px" x="100px" y="108px" /><rect fill="rgb(68,43,23)" height="5px" width="5px" x="104px" y="108px" /><rect fill="rgb(68,43,23)" height="5px" width="5px" x="108px" y="108px" /><rect fill="rgb(68,43,23)" height="5px" width="5px" x="112px" y="108px" /><rect fill="rgb(68,43,23)" height="5px" width="5px" x="12px" y="112px" /><rect fill="rgb(68,43,23)" height="5px" width="5px" x="16px" y="112px" /><rect fill="rgb(68,43,23)" height="5px" width="5px" x="20px" y="112px" /><rect fill="rgb(68,43,23)" height="5px" width="5px" x="24px" y="112px" /><rect fill="rgb(68,43,23)" height="5px" width="5px" x="28px" y="112px" /><rect fill="rgb(68,43,23)" height="5px" width="5px" x="32px" y="112px" /><rect fill="rgb(68,43,23)" height="5px" width="5px" x="36px" y="112px" /><rect fill="rgb(68,43,23)" height="5px" width="5px" x="92px" y="112px" /><rect fill="rgb(68,43,23)" height="5px" width="5px" x="96px" y="112px" /><rect fill="rgb(68,43,23)" height="5px" width="5px" x="100px" y="112px" /><rect fill="rgb(68,43,23)" height="5px" width="5px" x="104px" y="112px" /><rect fill="rgb(68,43,23)" height="5px" width="5px" x="108px" y="112px" /><rect fill="rgb(68,43,23)" height="5px" width="5px" x="112px" y="112px" /><rect fill="rgb(68,43,23)" height="5px" width="5px" x="116px" y="112px" /><rect fill="rgb(68,43,23)" height="5px" width="5px" x="12px" y="116px" /><rect fill="rgb(68,43,23)" height="5px" width="5px" x="16px" y="116px" /><rect fill="rgb(68,43,23)" height="5px" width="5px" x="20px" y="116px" /><rect fill="rgb(68,43,23)" height="5px" width="5px" x="24px" y="116px" /><rect fill="rgb(68,43,23)" height="5px" width="5px" x="28px" y="116px" /><rect fill="rgb(68,43,23)" height="5px" width="5px" x="32px" y="116px" /><rect fill="rgb(68,43,23)" height="5px" width="5px" x="36px" y="116px" /><rect fill="rgb(68,43,23)" height="5px" width="5px" x="92px" y="116px" /><rect fill="rgb(68,43,23)" height="5px" width="5px" x="96px" y="116px" /><rect fill="rgb(68,43,23)" height="5px" width="5px" x="100px" y="116px" /><rect fill="rgb(68,43,23)" height="5px" width="5px" x="104px" y="116px" /><rect fill="rgb(68,43,23)" height="5px" width="5px" x="108px" y="116px" /><rect fill="rgb(68,43,23)" height="5px" width="5px" x="112px" y="116px" /><rect fill="rgb(68,43,23)" height="5px" width="5px" x="116px" y="116px" /><rect fill="rgb(68,43,23)" height="5px" width="5px" x="12px" y="120px" /><rect fill="rgb(68,43,23)" height="5px" width="5px" x="16px" y="120px" /><rect fill="rgb(68,43,23)" height="5px" width="5px" x="20px" y="120px" /><rect fill="rgb(68,43,23)" height="5px" width="5px" x="24px" y="120px" /><rect fill="rgb(68,43,23)" height="5px" width="5px" x="28px" y="120px" /><rect fill="rgb(68,43,23)" height="5px" width="5px" x="32px" y="120px" /><rect fill="rgb(68,43,23)" height="5px" width="5px" x="36px" y="120px" /><rect fill="rgb(68,43,23)" height="5px" width="5px" x="92px" y="120px" /><rect fill="rgb(68,43,23)" height="5px" width="5px" x="96px" y="120px" /><rect fill="rgb(68,43,23)" height="5px" width="5px" x="100px" y="120px" /><rect fill="rgb(68,43,23)" height="5px" width="5px" x="104px" y="120px" /><rect fill="rgb(68,43,23)" height="5px" width="5px" x="108px" y="120px" /><rect fill="rgb(68,43,23)" height="5px" width="5px" x="112px" y="120px" /><rect fill="rgb(68,43,23)" height="5px" width="5px" x="116px" y="120px" /><rect fill="rgb(68,43,23)" height="5px" width="5px" x="12px" y="124px" /><rect fill="rgb(68,43,23)" height="5px" width="5px" x="16px" y="124px" /><rect fill="rgb(68,43,23)" height="5px" width="5px" x="20px" y="124px" /><rect fill="rgb(68,43,23)" height="5px" width="5px" x="24px" y="124px" /><rect fill="rgb(68,43,23)" height="5px" width="5px" x="28px" y="124px" /><rect fill="rgb(68,43,23)" height="5px" width="5px" x="32px" y="124px" /><rect fill="rgb(68,43,23)" height="5px" width="5px" x="36px" y="124px" /><rect fill="rgb(68,43,23)" height="5px" width="5px" x="92px" y="124px" /><rect fill="rgb(68,43,23)" height="5px" width="5px" x="96px" y="124px" /><rect fill="rgb(68,43,23)" height="5px" width="5px" x="100px" y="124px" /><rect fill="rgb(68,43,23)" height="5px" width="5px" x="104px" y="124px" /><rect fill="rgb(68,43,23)" height="5px" width="5px" x="108px" y="124px" /><rect fill="rgb(68,43,23)" height="5px" width="5px" x="112px" y="124px" /><rect fill="rgb(68,43,23)" height="5px" width="5px" x="116px" y="124px" /></svg>