<?xml version="1.0" encoding="utf-8" ?>
<svg baseProfile="full" height="128px" version="1.1" width="128px" xmlns="http://www.w3.org/2000/svg" xmlns:ev="http://www.w3.org/2001/xml-events" xmlns:xlink="http://www.w3.org/1999/xlink"><defs /><rect fill="rgb(219,113,113)" height="5px" opacity="0.247058823529" width="5px" x="40px" y="20px" /><rect fill="rgb(219,112,114)" height="5px" opacity="0.498039215686" width="5px" x="44px" y="20px" /><rect fill="rgb(219,112,114)" height="5px" opacity="0.498039215686" width="5px" x="48px" y="20px" /><rect fill="rgb(219,112,114)" height="5px" opacity="0.498039215686" width="5px" x="52px" y="20px" /><rect fill="rgb(219,112,114)" height="5px" opacity="0.498039215686" width="5px" x="56px" y="20px" /><rect fill="rgb(219,112,114)" height="5px" opacity="0.498039215686" width="5px" x="60px" y="20px" /><rect fill="rgb(219,112,114)" height="5px" opacity="0.498039215686" width="5px" x="64px" y="20px" /><rect fill="rgb(219,112,114)" height="5px" opacity="0.498039215686" width="5px" x="68px" y="20px" /><rect fill="rgb(219,112,114)" height="5px" opacity="0.498039215686" width="5px" x="72px" y="20px" /><rect fill="rgb(197,78,80)" height="5px" opacity="0.498039215686" width="5px" x="76px" y="20px" /><rect fill="rgb(219,113,113)" height="5px" opacity="0.247058823529" width="5px" x="36px" y="24px" /><rect fill="rgb(218,112,114)" height="5px" width="5px" x="40px" y="24px" /><rect fill="rgb(218,112,114)" height="5px" width="5px" x="44px" y="24px" /><rect fill="rgb(218,112,114)" height="5px" width="5px" x="48px" y="24px" /><rect fill="rgb(218,112,114)" height="5px" width="5px" x="52px" y="24px" /><rect fill="rgb(218,112,114)" height="5px" width="5px" x="56px" y="24px" /><rect fill="rgb(218,112,114)" height="5px" width="5px" x="60px" y="24px" /><rect fill="rgb(218,112,114)" height="5px" width="5px" x="64px" y="24px" /><rect fill="rgb(218,112,114)" height="5px" width="5px" x="68px" y="24px" /><rect fill="rgb(207,95,97)" height="5px" width="5px" x="72px" y="24px" /><rect fill="rgb(175,45,47)" height="5px" width="5px" x="76px" y="24px" /><rect fill="rgb(219,113,113)" height="5px" opacity="0.247058823529" width="5px" x="32px" y="28px" /><rect fill="rgb(218,112,114)" height="5px" width="5px" x="36px" y="28px" /><rect fill="rgb(218,112,114)" height="5px" width="5px" x="40px" y="28px" /><rect fill="rgb(218,112,114)" height="5px" width="5px" x="44px" y="28px" /><rect fill="rgb(218,112,114)" height="5px" width="5px" x="48px" y="28px" /><rect fill="rgb(218,112,114)" height="5px" width="5px" x="52px" y="28px" /><rect fill="rgb(218,112,114)" height="5px" width="5px" x="56px" y="28px" /><rect fill="rgb(218,112,114)" height="5px" width="5px" x="60px" y="28px" /><rect fill="rgb(218,112,114)" height="5px" width="5px" x="64px" y="28px" /><rect fill="rgb(207,95,97)" height="5px" width="5px" x="68px" y="28px" /><rect fill="rgb(175,45,47)" height="5px" width="5px" x="72px" y="28px" /><rect fill="rgb(175,45,47)" height="5px" width="5px" x="76px" y="28px" /><rect fill="rgb(219,2,4)" height="5px" opacity="0.498039215686" width="5px" x="32px" y="32px" /><rect fill="rgb(218,2,5)" height="5px" width="5px" x="36px" y="32px" /><rect fill="rgb(218,2,5)" height="5px" width="5px" x="40px" y="32px" /><rect fill="rgb(218,2,5)" height="5px" width="5px" x="44px" y="32px" /><rect fill="rgb(218,2,5)" height="5px" width="5px" x="48px" y="32px" /><rect fill="rgb(218,2,5)" height="5px" width="5px" x="52px" y="32px" /><rect fill="rgb(218,2,5)" height="5px" width="5px" x="56px" y="32px" /><rect fill="rgb(218,2,5)" height="5px" width="5px" x="60px" y="32px" /><rect fill="rgb(218,2,5)" height="5px" width="5px" x="64px" y="32px" /><rect fill="rgb(196,23,26)" height="5px" width="5px" x="68px" y="32px" /><rect fill="rgb(175,45,47)" height="5px" width="5px" x="72px" y="32px" /><rect fill="rgb(175,45,47)" height="5px" width="5px" x="76px" y="32px" /><rect fill="rgb(219,2,4)" height="5px" opacity="0.498039215686" width="5px" x="32px" y="36px" /><rect fill="rgb(218,2,5)" height="5px" width="5px" x="36px" y="36px" /><rect fill="rgb(218,2,5)" height="5px" width="5px" x="40px" y="36px" /><rect fill="rgb(218,2,5)" height="5px" width="5px" x="44px" y="36px" /><rect fill="rgb(218,2,5)" height="5px" width="5px" x="48px" y="36px" /><rect fill="rgb(218,2,5)" height="5px" width="5px" x="52px" y="36px" /><rect fill="rgb(218,2,5)" height="5px" width="5px" x="56px" y="36px" /><rect fill="rgb(218,2,5)" height="5px" width="5px" x="60px" y="36px" /><rect fill="rgb(218,2,5)" height="5px" width="5px" x="64px" y="36px" /><rect fill="rgb(196,23,26)" height="5px" width="5px" x="68px" y="36px" /><rect fill="rgb(175,45,47)" height="5px" width="5px" x="72px" y="36px" /><rect fill="rgb(213,156,143)" height="5px" width="5px" x="76px" y="36px" /><rect fill="rgb(219,112,114)" height="5px" opacity="0.498039215686" width="5px" x="80px" y="36px" /><rect fill="rgb(219,112,114)" height="5px" opacity="0.498039215686" width="5px" x="84px" y="36px" /><rect fill="rgb(219,112,114)" height="5px" opacity="0.498039215686" width="5px" x="88px" y="36px" /><rect fill="rgb(219,112,114)" height="5px" opacity="0.498039215686" width="5px" x="92px" y="36px" /><rect fill="rgb(219,112,114)" height="5px" opacity="0.498039215686" width="5px" x="96px" y="36px" /><rect fill="rgb(174,45,49)" height="5px" opacity="0.247058823529" width="5px" x="100px" y="36px" /><rect fill="rgb(219,2,4)" height="5px" opacity="0.498039215686" width="5px" x="32px" y="40px" /><rect fill="rgb(218,2,5)" height="5px" width="5px" x="36px" y="40px" /><rect fill="rgb(218,2,5)" height="5px" width="5px" x="40px" y="40px" /><rect fill="rgb(218,2,5)" height="5px" width="5px" x="44px" y="40px" /><rect fill="rgb(218,2,5)" height="5px" width="5px" x="48px" y="40px" /><rect fill="rgb(218,2,5)" height="5px" width="5px" x="52px" y="40px" /><rect fill="rgb(218,2,5)" height="5px" width="5px" x="56px" y="40px" /><rect fill="rgb(218,2,5)" height="5px" width="5px" x="60px" y="40px" /><rect fill="rgb(218,2,5)" height="5px" width="5px" x="64px" y="40px" /><rect fill="rgb(196,23,26)" height="5px" width="5px" x="68px" y="40px" /><rect fill="rgb(213,156,143)" height="5px" width="5px" x="72px" y="40px" /><rect fill="rgb(218,112,114)" height="5px" width="5px" x="76px" y="40px" /><rect fill="rgb(218,112,114)" height="5px" width="5px" x="80px" y="40px" /><rect fill="rgb(218,112,114)" height="5px" width="5px" x="84px" y="40px" /><rect fill="rgb(218,112,114)" height="5px" width="5px" x="88px" y="40px" /><rect fill="rgb(218,112,114)" height="5px" width="5px" x="92px" y="40px" /><rect fill="rgb(185,61,63)" height="5px" width="5px" x="96px" y="40px" /><rect fill="rgb(175,44,46)" height="5px" opacity="0.498039215686" width="5px" x="100px" y="40px" /><rect fill="rgb(225,118,104)" height="5px" opacity="0.498039215686" width="5px" x="32px" y="44px" /><rect fill="rgb(224,118,105)" height="5px" width="5px" x="36px" y="44px" /><rect fill="rgb(224,118,105)" height="5px" width="5px" x="40px" y="44px" /><rect fill="rgb(224,118,105)" height="5px" width="5px" x="44px" y="44px" /><rect fill="rgb(224,118,105)" height="5px" width="5px" x="48px" y="44px" /><rect fill="rgb(224,118,105)" height="5px" width="5px" x="52px" y="44px" /><rect fill="rgb(224,118,105)" height="5px" width="5px" x="56px" y="44px" /><rect fill="rgb(224,118,105)" height="5px" width="5px" x="60px" y="44px" /><rect fill="rgb(224,118,105)" height="5px" width="5px" x="64px" y="44px" /><rect fill="rgb(224,145,132)" height="5px" width="5px" x="68px" y="44px" /><rect fill="rgb(218,112,114)" height="5px" width="5px" x="72px" y="44px" /><rect fill="rgb(218,112,114)" height="5px" width="5px" x="76px" y="44px" /><rect fill="rgb(218,112,114)" height="5px" width="5px" x="80px" y="44px" /><rect fill="rgb(218,112,114)" height="5px" width="5px" x="84px" y="44px" /><rect fill="rgb(218,112,114)" height="5px" width="5px" x="88px" y="44px" /><rect fill="rgb(185,61,63)" height="5px" width="5px" x="92px" y="44px" /><rect fill="rgb(175,45,47)" height="5px" width="5px" x="96px" y="44px" /><rect fill="rgb(175,44,46)" height="5px" opacity="0.498039215686" width="5px" x="100px" y="44px" /><rect fill="rgb(219,113,113)" height="5px" opacity="0.247058823529" width="5px" x="28px" y="48px" /><rect fill="rgb(218,112,114)" height="5px" width="5px" x="32px" y="48px" /><rect fill="rgb(218,112,114)" height="5px" width="5px" x="36px" y="48px" /><rect fill="rgb(218,112,114)" height="5px" width="5px" x="40px" y="48px" /><rect fill="rgb(218,112,114)" height="5px" width="5px" x="44px" y="48px" /><rect fill="rgb(207,95,97)" height="5px" width="5px" x="48px" y="48px" /><rect fill="rgb(202,139,126)" height="5px" width="5px" x="52px" y="48px" /><rect fill="rgb(218,2,5)" height="5px" width="5px" x="56px" y="48px" /><rect fill="rgb(218,2,5)" height="5px" width="5px" x="60px" y="48px" /><rect fill="rgb(218,2,5)" height="5px" width="5px" x="64px" y="48px" /><rect fill="rgb(218,2,5)" height="5px" width="5px" x="68px" y="48px" /><rect fill="rgb(218,2,5)" height="5px" width="5px" x="72px" y="48px" /><rect fill="rgb(218,2,5)" height="5px" width="5px" x="76px" y="48px" /><rect fill="rgb(218,2,5)" height="5px" width="5px" x="80px" y="48px" /><rect fill="rgb(218,2,5)" height="5px" width="5px" x="84px" y="48px" /><rect fill="rgb(218,2,5)" height="5px" width="5px" x="88px" y="48px" /><rect fill="rgb(175,45,47)" height="5px" width="5px" x="92px" y="48px" /><rect fill="rgb(175,45,47)" height="5px" width="5px" x="96px" y="48px" /><rect fill="rgb(175,44,46)" height="5px" opacity="0.498039215686" width="5px" x="100px" y="48px" /><rect fill="rgb(219,113,113)" height="5px" opacity="0.247058823529" width="5px" x="24px" y="52px" /><rect fill="rgb(218,112,114)" height="5px" width="5px" x="28px" y="52px" /><rect fill="rgb(218,112,114)" height="5px" width="5px" x="32px" y="52px" /><rect fill="rgb(218,112,114)" height="5px" width="5px" x="36px" y="52px" /><rect fill="rgb(218,112,114)" height="5px" width="5px" x="40px" y="52px" /><rect fill="rgb(207,95,97)" height="5px" width="5px" x="44px" y="52px" /><rect fill="rgb(175,45,47)" height="5px" width="5px" x="48px" y="52px" /><rect fill="rgb(202,139,126)" height="5px" width="5px" x="52px" y="52px" /><rect fill="rgb(218,2,5)" height="5px" width="5px" x="56px" y="52px" /><rect fill="rgb(218,2,5)" height="5px" width="5px" x="60px" y="52px" /><rect fill="rgb(218,2,5)" height="5px" width="5px" x="64px" y="52px" /><rect fill="rgb(218,2,5)" height="5px" width="5px" x="68px" y="52px" /><rect fill="rgb(218,2,5)" height="5px" width="5px" x="72px" y="52px" /><rect fill="rgb(218,2,5)" height="5px" width="5px" x="76px" y="52px" /><rect fill="rgb(218,2,5)" height="5px" width="5px" x="80px" y="52px" /><rect fill="rgb(218,2,5)" height="5px" width="5px" x="84px" y="52px" /><rect fill="rgb(218,2,5)" height="5px" width="5px" x="88px" y="52px" /><rect fill="rgb(175,45,47)" height="5px" width="5px" x="92px" y="52px" /><rect fill="rgb(188,92,86)" height="5px" width="5px" x="96px" y="52px" /><rect fill="rgb(222,152,144)" height="5px" opacity="0.749019607843" width="5px" x="100px" y="52px" /><rect fill="rgb(219,112,114)" height="5px" opacity="0.498039215686" width="5px" x="104px" y="52px" /><rect fill="rgb(219,112,114)" height="5px" opacity="0.498039215686" width="5px" x="108px" y="52px" /><rect fill="rgb(219,112,114)" height="5px" opacity="0.498039215686" width="5px" x="112px" y="52px" /><rect fill="rgb(197,78,80)" height="5px" opacity="0.498039215686" width="5px" x="116px" y="52px" /><rect fill="rgb(219,113,113)" height="5px" opacity="0.247058823529" width="5px" x="20px" y="56px" /><rect fill="rgb(218,112,114)" height="5px" width="5px" x="24px" y="56px" /><rect fill="rgb(218,112,114)" height="5px" width="5px" x="28px" y="56px" /><rect fill="rgb(218,112,114)" height="5px" width="5px" x="32px" y="56px" /><rect fill="rgb(218,112,114)" height="5px" width="5px" x="36px" y="56px" /><rect fill="rgb(207,95,97)" height="5px" width="5px" x="40px" y="56px" /><rect fill="rgb(175,45,47)" height="5px" width="5px" x="44px" y="56px" /><rect fill="rgb(175,45,47)" height="5px" width="5px" x="48px" y="56px" /><rect fill="rgb(202,139,126)" height="5px" width="5px" x="52px" y="56px" /><rect fill="rgb(218,2,5)" height="5px" width="5px" x="56px" y="56px" /><rect fill="rgb(218,2,5)" height="5px" width="5px" x="60px" y="56px" /><rect fill="rgb(218,2,5)" height="5px" width="5px" x="64px" y="56px" /><rect fill="rgb(218,2,5)" height="5px" width="5px" x="68px" y="56px" /><rect fill="rgb(218,2,5)" height="5px" width="5px" x="72px" y="56px" /><rect fill="rgb(218,2,5)" height="5px" width="5px" x="76px" y="56px" /><rect fill="rgb(218,2,5)" height="5px" width="5px" x="80px" y="56px" /><rect fill="rgb(218,2,5)" height="5px" width="5px" x="84px" y="56px" /><rect fill="rgb(218,2,5)" height="5px" width="5px" x="88px" y="56px" /><rect fill="rgb(188,92,86)" height="5px" width="5px" x="92px" y="56px" /><rect fill="rgb(221,142,137)" height="5px" width="5px" x="96px" y="56px" /><rect fill="rgb(218,112,114)" height="5px" width="5px" x="100px" y="56px" /><rect fill="rgb(218,112,114)" height="5px" width="5px" x="104px" y="56px" /><rect fill="rgb(218,112,114)" height="5px" width="5px" x="108px" y="56px" /><rect fill="rgb(207,95,97)" height="5px" width="5px" x="112px" y="56px" /><rect fill="rgb(175,45,47)" height="5px" width="5px" x="116px" y="56px" /><rect fill="rgb(218,57,59)" height="5px" width="5px" x="20px" y="60px" /><rect fill="rgb(218,57,59)" height="5px" width="5px" x="24px" y="60px" /><rect fill="rgb(218,57,59)" height="5px" width="5px" x="28px" y="60px" /><rect fill="rgb(218,57,59)" height="5px" width="5px" x="32px" y="60px" /><rect fill="rgb(218,57,59)" height="5px" width="5px" x="36px" y="60px" /><rect fill="rgb(175,45,47)" height="5px" width="5px" x="40px" y="60px" /><rect fill="rgb(175,45,47)" height="5px" width="5px" x="44px" y="60px" /><rect fill="rgb(175,45,47)" height="5px" width="5px" x="48px" y="60px" /><rect fill="rgb(202,139,126)" height="5px" width="5px" x="52px" y="60px" /><rect fill="rgb(224,118,105)" height="5px" width="5px" x="56px" y="60px" /><rect fill="rgb(224,118,105)" height="5px" width="5px" x="60px" y="60px" /><rect fill="rgb(224,118,105)" height="5px" width="5px" x="64px" y="60px" /><rect fill="rgb(224,118,105)" height="5px" width="5px" x="68px" y="60px" /><rect fill="rgb(224,118,105)" height="5px" width="5px" x="72px" y="60px" /><rect fill="rgb(224,118,105)" height="5px" width="5px" x="76px" y="60px" /><rect fill="rgb(224,118,105)" height="5px" width="5px" x="80px" y="60px" /><rect fill="rgb(224,118,105)" height="5px" width="5px" x="84px" y="60px" /><rect fill="rgb(224,118,105)" height="5px" width="5px" x="88px" y="60px" /><rect fill="rgb(221,142,137)" height="5px" width="5px" x="92px" y="60px" /><rect fill="rgb(218,112,114)" height="5px" width="5px" x="96px" y="60px" /><rect fill="rgb(218,112,114)" height="5px" width="5px" x="100px" y="60px" /><rect fill="rgb(218,112,114)" height="5px" width="5px" x="104px" y="60px" /><rect fill="rgb(207,95,97)" height="5px" width="5px" x="108px" y="60px" /><rect fill="rgb(175,45,47)" height="5px" width="5px" x="112px" y="60px" /><rect fill="rgb(175,45,47)" height="5px" width="5px" x="116px" y="60px" /><rect fill="rgb(218,2,5)" height="5px" width="5px" x="20px" y="64px" /><rect fill="rgb(218,2,5)" height="5px" width="5px" x="24px" y="64px" /><rect fill="rgb(218,2,5)" height="5px" width="5px" x="28px" y="64px" /><rect fill="rgb(218,2,5)" height="5px" width="5px" x="32px" y="64px" /><rect fill="rgb(218,2,5)" height="5px" width="5px" x="36px" y="64px" /><rect fill="rgb(175,45,47)" height="5px" width="5px" x="40px" y="64px" /><rect fill="rgb(175,45,47)" height="5px" width="5px" x="44px" y="64px" /><rect fill="rgb(188,92,86)" height="5px" width="5px" x="48px" y="64px" /><rect fill="rgb(216,186,166)" height="5px" width="5px" x="52px" y="64px" /><rect fill="rgb(218,2,5)" height="5px" width="5px" x="56px" y="64px" /><rect fill="rgb(218,2,5)" height="5px" width="5px" x="60px" y="64px" /><rect fill="rgb(218,2,5)" height="5px" width="5px" x="64px" y="64px" /><rect fill="rgb(218,2,5)" height="5px" width="5px" x="68px" y="64px" /><rect fill="rgb(224,118,105)" height="5px" width="5px" x="72px" y="64px" /><rect fill="rgb(218,2,5)" height="5px" width="5px" x="76px" y="64px" /><rect fill="rgb(218,2,5)" height="5px" width="5px" x="80px" y="64px" /><rect fill="rgb(218,2,5)" height="5px" width="5px" x="84px" y="64px" /><rect fill="rgb(218,2,5)" height="5px" width="5px" x="88px" y="64px" /><rect fill="rgb(218,2,5)" height="5px" width="5px" x="92px" y="64px" /><rect fill="rgb(218,2,5)" height="5px" width="5px" x="96px" y="64px" /><rect fill="rgb(218,2,5)" height="5px" width="5px" x="100px" y="64px" /><rect fill="rgb(218,2,5)" height="5px" width="5px" x="104px" y="64px" /><rect fill="rgb(196,23,26)" height="5px" width="5px" x="108px" y="64px" /><rect fill="rgb(175,45,47)" height="5px" width="5px" x="112px" y="64px" /><rect fill="rgb(175,45,47)" height="5px" width="5px" x="116px" y="64px" /><rect fill="rgb(218,2,5)" height="5px" width="5px" x="20px" y="68px" /><rect fill="rgb(218,2,5)" height="5px" width="5px" x="24px" y="68px" /><rect fill="rgb(218,2,5)" height="5px" width="5px" x="28px" y="68px" /><rect fill="rgb(218,2,5)" height="5px" width="5px" x="32px" y="68px" /><rect fill="rgb(218,2,5)" height="5px" width="5px" x="36px" y="68px" /><rect fill="rgb(175,45,47)" height="5px" width="5px" x="40px" y="68px" /><rect fill="rgb(188,92,86)" height="5px" width="5px" x="44px" y="68px" /><rect fill="rgb(188,92,86)" height="5px" width="5px" x="48px" y="68px" /><rect fill="rgb(202,139,126)" height="5px" width="5px" x="52px" y="68px" /><rect fill="rgb(218,2,5)" height="5px" width="5px" x="56px" y="68px" /><rect fill="rgb(218,2,5)" height="5px" width="5px" x="60px" y="68px" /><rect fill="rgb(218,2,5)" height="5px" width="5px" x="64px" y="68px" /><rect fill="rgb(218,2,5)" height="5px" width="5px" x="68px" y="68px" /><rect fill="rgb(224,118,105)" height="5px" width="5px" x="72px" y="68px" /><rect fill="rgb(218,2,5)" height="5px" width="5px" x="76px" y="68px" /><rect fill="rgb(218,2,5)" height="5px" width="5px" x="80px" y="68px" /><rect fill="rgb(218,2,5)" height="5px" width="5px" x="84px" y="68px" /><rect fill="rgb(218,2,5)" height="5px" width="5px" x="88px" y="68px" /><rect fill="rgb(218,2,5)" height="5px" width="5px" x="92px" y="68px" /><rect fill="rgb(218,2,5)" height="5px" width="5px" x="96px" y="68px" /><rect fill="rgb(218,2,5)" height="5px" width="5px" x="100px" y="68px" /><rect fill="rgb(218,2,5)" height="5px" width="5px" x="104px" y="68px" /><rect fill="rgb(196,23,26)" height="5px" width="5px" x="108px" y="68px" /><rect fill="rgb(175,45,47)" height="5px" width="5px" x="112px" y="68px" /><rect fill="rgb(174,45,49)" height="5px" opacity="0.247058823529" width="5px" x="116px" y="68px" /><rect fill="rgb(218,2,5)" height="5px" width="5px" x="20px" y="72px" /><rect fill="rgb(218,2,5)" height="5px" width="5px" x="24px" y="72px" /><rect fill="rgb(218,2,5)" height="5px" width="5px" x="28px" y="72px" /><rect fill="rgb(218,2,5)" height="5px" width="5px" x="32px" y="72px" /><rect fill="rgb(218,2,5)" height="5px" width="5px" x="36px" y="72px" /><rect fill="rgb(188,92,86)" height="5px" width="5px" x="40px" y="72px" /><rect fill="rgb(188,92,86)" height="5px" width="5px" x="44px" y="72px" /><rect fill="rgb(175,45,47)" height="5px" width="5px" x="48px" y="72px" /><rect fill="rgb(202,139,126)" height="5px" width="5px" x="52px" y="72px" /><rect fill="rgb(218,2,5)" height="5px" width="5px" x="56px" y="72px" /><rect fill="rgb(218,2,5)" height="5px" width="5px" x="60px" y="72px" /><rect fill="rgb(218,2,5)" height="5px" width="5px" x="64px" y="72px" /><rect fill="rgb(218,2,5)" height="5px" width="5px" x="68px" y="72px" /><rect fill="rgb(224,118,105)" height="5px" width="5px" x="72px" y="72px" /><rect fill="rgb(218,2,5)" height="5px" width="5px" x="76px" y="72px" /><rect fill="rgb(218,2,5)" height="5px" width="5px" x="80px" y="72px" /><rect fill="rgb(218,2,5)" height="5px" width="5px" x="84px" y="72px" /><rect fill="rgb(218,2,5)" height="5px" width="5px" x="88px" y="72px" /><rect fill="rgb(218,2,5)" height="5px" width="5px" x="92px" y="72px" /><rect fill="rgb(218,2,5)" height="5px" width="5px" x="96px" y="72px" /><rect fill="rgb(218,2,5)" height="5px" width="5px" x="100px" y="72px" /><rect fill="rgb(218,2,5)" height="5px" width="5px" x="104px" y="72px" /><rect fill="rgb(196,23,26)" height="5px" width="5px" x="108px" y="72px" /><rect fill="rgb(174,45,49)" height="5px" opacity="0.247058823529" width="5px" x="112px" y="72px" /><rect fill="rgb(224,118,105)" height="5px" width="5px" x="20px" y="76px" /><rect fill="rgb(224,118,105)" height="5px" width="5px" x="24px" y="76px" /><rect fill="rgb(224,118,105)" height="5px" width="5px" x="28px" y="76px" /><rect fill="rgb(224,118,105)" height="5px" width="5px" x="32px" y="76px" /><rect fill="rgb(224,118,105)" height="5px" width="5px" x="36px" y="76px" /><rect fill="rgb(188,92,86)" height="5px" width="5px" x="40px" y="76px" /><rect fill="rgb(175,45,47)" height="5px" width="5px" x="44px" y="76px" /><rect fill="rgb(175,45,47)" height="5px" width="5px" x="48px" y="76px" /><rect fill="rgb(202,139,126)" height="5px" width="5px" x="52px" y="76px" /><rect fill="rgb(219,2,4)" height="5px" opacity="0.498039215686" width="5px" x="56px" y="76px" /><rect fill="rgb(219,2,4)" height="5px" opacity="0.498039215686" width="5px" x="60px" y="76px" /><rect fill="rgb(219,2,4)" height="5px" opacity="0.498039215686" width="5px" x="64px" y="76px" /><rect fill="rgb(219,2,4)" height="5px" opacity="0.498039215686" width="5px" x="68px" y="76px" /><rect fill="rgb(225,118,104)" height="5px" opacity="0.498039215686" width="5px" x="72px" y="76px" /><rect fill="rgb(219,2,4)" height="5px" opacity="0.498039215686" width="5px" x="76px" y="76px" /><rect fill="rgb(219,2,4)" height="5px" opacity="0.498039215686" width="5px" x="80px" y="76px" /><rect fill="rgb(219,2,4)" height="5px" opacity="0.498039215686" width="5px" x="84px" y="76px" /><rect fill="rgb(219,2,4)" height="5px" opacity="0.498039215686" width="5px" x="88px" y="76px" /><rect fill="rgb(219,2,4)" height="5px" opacity="0.498039215686" width="5px" x="92px" y="76px" /><rect fill="rgb(219,2,4)" height="5px" opacity="0.498039215686" width="5px" x="96px" y="76px" /><rect fill="rgb(219,2,4)" height="5px" opacity="0.498039215686" width="5px" x="100px" y="76px" /><rect fill="rgb(219,2,4)" height="5px" opacity="0.498039215686" width="5px" x="104px" y="76px" /><rect fill="rgb(219,0,4)" height="5px" opacity="0.247058823529" width="5px" x="108px" y="76px" /><rect fill="rgb(218,112,113)" height="5px" opacity="0.749019607843" width="5px" x="16px" y="80px" /><rect fill="rgb(218,112,114)" height="5px" width="5px" x="20px" y="80px" /><rect fill="rgb(218,112,114)" height="5px" width="5px" x="24px" y="80px" /><rect fill="rgb(218,112,114)" height="5px" width="5px" x="28px" y="80px" /><rect fill="rgb(218,112,114)" height="5px" width="5px" x="32px" y="80px" /><rect fill="rgb(185,61,63)" height="5px" width="5px" x="36px" y="80px" /><rect fill="rgb(175,45,47)" height="5px" width="5px" x="40px" y="80px" /><rect fill="rgb(175,45,47)" height="5px" width="5px" x="44px" y="80px" /><rect fill="rgb(175,45,47)" height="5px" width="5px" x="48px" y="80px" /><rect fill="rgb(174,45,49)" height="5px" opacity="0.247058823529" width="5px" x="52px" y="80px" /><rect fill="rgb(218,112,113)" height="5px" opacity="0.749019607843" width="5px" x="12px" y="84px" /><rect fill="rgb(218,112,114)" height="5px" width="5px" x="16px" y="84px" /><rect fill="rgb(218,112,114)" height="5px" width="5px" x="20px" y="84px" /><rect fill="rgb(218,112,114)" height="5px" width="5px" x="24px" y="84px" /><rect fill="rgb(218,112,114)" height="5px" width="5px" x="28px" y="84px" /><rect fill="rgb(185,61,63)" height="5px" width="5px" x="32px" y="84px" /><rect fill="rgb(175,45,47)" height="5px" width="5px" x="36px" y="84px" /><rect fill="rgb(175,45,47)" height="5px" width="5px" x="40px" y="84px" /><rect fill="rgb(175,45,47)" height="5px" width="5px" x="44px" y="84px" /><rect fill="rgb(174,45,49)" height="5px" opacity="0.247058823529" width="5px" x="48px" y="84px" /><rect fill="rgb(219,56,58)" height="5px" opacity="0.498039215686" width="5px" x="8px" y="88px" /><rect fill="rgb(218,57,59)" height="5px" width="5px" x="12px" y="88px" /><rect fill="rgb(218,57,59)" height="5px" width="5px" x="16px" y="88px" /><rect fill="rgb(218,57,59)" height="5px" width="5px" x="20px" y="88px" /><rect fill="rgb(218,57,59)" height="5px" width="5px" x="24px" y="88px" /><rect fill="rgb(196,51,53)" height="5px" width="5px" x="28px" y="88px" /><rect fill="rgb(175,45,47)" height="5px" width="5px" x="32px" y="88px" /><rect fill="rgb(175,45,47)" height="5px" width="5px" x="36px" y="88px" /><rect fill="rgb(175,45,47)" height="5px" width="5px" x="40px" y="88px" /><rect fill="rgb(174,45,49)" height="5px" opacity="0.247058823529" width="5px" x="44px" y="88px" /><rect fill="rgb(219,2,4)" height="5px" opacity="0.498039215686" width="5px" x="8px" y="92px" /><rect fill="rgb(218,2,5)" height="5px" width="5px" x="12px" y="92px" /><rect fill="rgb(218,2,5)" height="5px" width="5px" x="16px" y="92px" /><rect fill="rgb(218,2,5)" height="5px" width="5px" x="20px" y="92px" /><rect fill="rgb(218,2,5)" height="5px" width="5px" x="24px" y="92px" /><rect fill="rgb(196,23,26)" height="5px" width="5px" x="28px" y="92px" /><rect fill="rgb(175,45,47)" height="5px" width="5px" x="32px" y="92px" /><rect fill="rgb(175,45,47)" height="5px" width="5px" x="36px" y="92px" /><rect fill="rgb(174,45,49)" height="5px" opacity="0.247058823529" width="5px" x="40px" y="92px" /><rect fill="rgb(219,2,4)" height="5px" opacity="0.498039215686" width="5px" x="8px" y="96px" /><rect fill="rgb(218,2,5)" height="5px" width="5px" x="12px" y="96px" /><rect fill="rgb(218,2,5)" height="5px" width="5px" x="16px" y="96px" /><rect fill="rgb(218,2,5)" height="5px" width="5px" x="20px" y="96px" /><rect fill="rgb(218,2,5)" height="5px" width="5px" x="24px" y="96px" /><rect fill="rgb(196,23,26)" height="5px" width="5px" x="28px" y="96px" /><rect fill="rgb(175,45,47)" height="5px" width="5px" x="32px" y="96px" /><rect fill="rgb(174,45,49)" height="5px" opacity="0.247058823529" width="5px" x="36px" y="96px" /><rect fill="rgb(219,2,4)" height="5px" opacity="0.498039215686" width="5px" x="8px" y="100px" /><rect fill="rgb(218,2,5)" height="5px" width="5px" x="12px" y="100px" /><rect fill="rgb(218,2,5)" height="5px" width="5px" x="16px" y="100px" /><rect fill="rgb(218,2,5)" height="5px" width="5px" x="20px" y="100px" /><rect fill="rgb(218,2,5)" height="5px" width="5px" x="24px" y="100px" /><rect fill="rgb(196,23,26)" height="5px" width="5px" x="28px" y="100px" /><rect fill="rgb(174,45,49)" height="5px" opacity="0.247058823529" width="5px" x="32px" y="100px" /><rect fill="rgb(219,0,4)" height="5px" opacity="0.247058823529" width="5px" x="8px" y="104px" /><rect fill="rgb(219,2,4)" height="5px" opacity="0.498039215686" width="5px" x="12px" y="104px" /><rect fill="rgb(219,2,4)" height="5px" opacity="0.498039215686" width="5px" x="16px" y="104px" /><rect fill="rgb(219,2,4)" height="5px" opacity="0.498039215686" width="5px" x="20px" y="104px" /><rect fill="rgb(219,2,4)" height="5px" opacity="0.498039215686" width="5px" x="24px" y="104px" /><rect fill="rgb(219,0,4)" height="5px" opacity="0.247058823529" width="5px" x="28px" y="104px" /></svg>