<?xml version="1.0" encoding="utf-8" ?>
<svg baseProfile="full" height="128px" version="1.1" width="128px" xmlns="http://www.w3.org/2000/svg" xmlns:ev="http://www.w3.org/2001/xml-events" xmlns:xlink="http://www.w3.org/1999/xlink"><defs /><rect fill="rgb(0,0,0)" height="5px" width="5px" x="8px" y="8px" /><rect fill="rgb(0,0,0)" height="5px" width="5px" x="12px" y="8px" /><rect fill="rgb(0,0,0)" height="5px" width="5px" x="32px" y="8px" /><rect fill="rgb(0,0,0)" height="5px" width="5px" x="36px" y="8px" /><rect fill="rgb(0,0,0)" height="5px" width="5px" x="56px" y="8px" /><rect fill="rgb(0,0,0)" height="5px" width="5px" x="60px" y="8px" /><rect fill="rgb(0,0,0)" height="5px" width="5px" x="80px" y="8px" /><rect fill="rgb(0,0,0)" height="5px" width="5px" x="84px" y="8px" /><rect fill="rgb(0,0,0)" height="5px" width="5px" x="104px" y="8px" /><rect fill="rgb(0,0,0)" height="5px" width="5px" x="108px" y="8px" /><rect fill="rgb(0,0,0)" height="5px" width="5px" x="8px" y="12px" /><rect fill="rgb(0,0,0)" height="5px" width="5px" x="12px" y="12px" /><rect fill="rgb(0,0,0)" height="5px" width="5px" x="32px" y="12px" /><rect fill="rgb(0,0,0)" height="5px" width="5px" x="36px" y="12px" /><rect fill="rgb(0,0,0)" height="5px" width="5px" x="56px" y="12px" /><rect fill="rgb(0,0,0)" height="5px" width="5px" x="60px" y="12px" /><rect fill="rgb(0,0,0)" height="5px" width="5px" x="80px" y="12px" /><rect fill="rgb(0,0,0)" height="5px" width="5px" x="84px" y="12px" /><rect fill="rgb(0,0,0)" height="5px" width="5px" x="104px" y="12px" /><rect fill="rgb(0,0,0)" height="5px" width="5px" x="108px" y="12px" /><rect fill="rgb(0,0,0)" height="5px" width="5px" x="8px" y="16px" /><rect fill="rgb(0,0,0)" height="5px" width="5px" x="12px" y="16px" /><rect fill="rgb(0,0,0)" height="5px" width="5px" x="32px" y="16px" /><rect fill="rgb(0,0,0)" height="5px" width="5px" x="36px" y="16px" /><rect fill="rgb(0,0,0)" height="5px" width="5px" x="56px" y="16px" /><rect fill="rgb(0,0,0)" height="5px" width="5px" x="60px" y="16px" /><rect fill="rgb(0,0,0)" height="5px" width="5px" x="80px" y="16px" /><rect fill="rgb(0,0,0)" height="5px" width="5px" x="84px" y="16px" /><rect fill="rgb(0,0,0)" height="5px" width="5px" x="104px" y="16px" /><rect fill="rgb(0,0,0)" height="5px" width="5px" x="108px" y="16px" /><rect fill="rgb(0,0,0)" height="5px" width="5px" x="8px" y="20px" /><rect fill="rgb(0,0,0)" height="5px" width="5px" x="12px" y="20px" /><rect fill="rgb(0,0,0)" height="5px" width="5px" x="32px" y="20px" /><rect fill="rgb(0,0,0)" height="5px" width="5px" x="36px" y="20px" /><rect fill="rgb(0,0,0)" height="5px" width="5px" x="56px" y="20px" /><rect fill="rgb(0,0,0)" height="5px" width="5px" x="60px" y="20px" /><rect fill="rgb(0,0,0)" height="5px" width="5px" x="80px" y="20px" /><rect fill="rgb(0,0,0)" height="5px" width="5px" x="84px" y="20px" /><rect fill="rgb(0,0,0)" height="5px" width="5px" x="104px" y="20px" /><rect fill="rgb(0,0,0)" height="5px" width="5px" x="108px" y="20px" /><rect fill="rgb(0,0,0)" height="5px" width="5px" x="8px" y="24px" /><rect fill="rgb(88,0,0)" height="5px" width="5px" x="12px" y="24px" /><rect fill="rgb(0,0,0)" height="5px" width="5px" x="32px" y="24px" /><rect fill="rgb(0,0,0)" height="5px" width="5px" x="36px" y="24px" /><rect fill="rgb(0,0,0)" height="5px" width="5px" x="56px" y="24px" /><rect fill="rgb(0,0,0)" height="5px" width="5px" x="60px" y="24px" /><rect fill="rgb(0,0,0)" height="5px" width="5px" x="80px" y="24px" /><rect fill="rgb(0,0,0)" height="5px" width="5px" x="84px" y="24px" /><rect fill="rgb(0,0,0)" height="5px" width="5px" x="104px" y="24px" /><rect fill="rgb(0,0,0)" height="5px" width="5px" x="108px" y="24px" /><rect fill="rgb(153,0,0)" height="5px" width="5px" x="8px" y="28px" /><rect fill="rgb(255,0,0)" height="5px" width="5px" x="12px" y="28px" /><rect fill="rgb(255,0,0)" height="5px" opacity="0.63137254902" width="5px" x="16px" y="28px" /><rect fill="rgb(255,0,0)" height="5px" opacity="0.0274509803922" width="5px" x="20px" y="28px" /><rect fill="rgb(0,0,0)" height="5px" width="5px" x="32px" y="28px" /><rect fill="rgb(0,0,0)" height="5px" width="5px" x="36px" y="28px" /><rect fill="rgb(0,0,0)" height="5px" width="5px" x="56px" y="28px" /><rect fill="rgb(0,0,0)" height="5px" width="5px" x="60px" y="28px" /><rect fill="rgb(0,0,0)" height="5px" width="5px" x="80px" y="28px" /><rect fill="rgb(0,0,0)" height="5px" width="5px" x="84px" y="28px" /><rect fill="rgb(0,0,0)" height="5px" width="5px" x="104px" y="28px" /><rect fill="rgb(0,0,0)" height="5px" width="5px" x="108px" y="28px" /><rect fill="rgb(255,0,0)" height="5px" opacity="0.396078431373" width="5px" x="4px" y="32px" /><rect fill="rgb(255,0,0)" height="5px" width="5px" x="8px" y="32px" /><rect fill="rgb(255,0,0)" height="5px" width="5px" x="12px" y="32px" /><rect fill="rgb(255,0,0)" height="5px" width="5px" x="16px" y="32px" /><rect fill="rgb(255,0,0)" height="5px" opacity="0.835294117647" width="5px" x="20px" y="32px" /><rect fill="rgb(255,0,0)" height="5px" opacity="0.23137254902" width="5px" x="24px" y="32px" /><rect fill="rgb(0,0,0)" height="5px" width="5px" x="32px" y="32px" /><rect fill="rgb(0,0,0)" height="5px" width="5px" x="36px" y="32px" /><rect fill="rgb(0,0,0)" height="5px" width="5px" x="56px" y="32px" /><rect fill="rgb(0,0,0)" height="5px" width="5px" x="60px" y="32px" /><rect fill="rgb(0,0,0)" height="5px" width="5px" x="80px" y="32px" /><rect fill="rgb(0,0,0)" height="5px" width="5px" x="84px" y="32px" /><rect fill="rgb(0,0,0)" height="5px" width="5px" x="104px" y="32px" /><rect fill="rgb(0,0,0)" height="5px" width="5px" x="108px" y="32px" /><rect fill="rgb(255,0,0)" height="5px" opacity="0.0705882352941" width="5px" x="0px" y="36px" /><rect fill="rgb(255,0,0)" height="5px" opacity="0.960784313725" width="5px" x="4px" y="36px" /><rect fill="rgb(255,0,0)" height="5px" width="5px" x="8px" y="36px" /><rect fill="rgb(255,0,0)" height="5px" width="5px" x="12px" y="36px" /><rect fill="rgb(255,0,0)" height="5px" width="5px" x="16px" y="36px" /><rect fill="rgb(255,0,0)" height="5px" width="5px" x="20px" y="36px" /><rect fill="rgb(255,0,0)" height="5px" width="5px" x="24px" y="36px" /><rect fill="rgb(255,0,0)" height="5px" opacity="0.427450980392" width="5px" x="28px" y="36px" /><rect fill="rgb(0,0,0)" height="5px" width="5px" x="32px" y="36px" /><rect fill="rgb(0,0,0)" height="5px" width="5px" x="36px" y="36px" /><rect fill="rgb(0,0,0)" height="5px" width="5px" x="56px" y="36px" /><rect fill="rgb(0,0,0)" height="5px" width="5px" x="60px" y="36px" /><rect fill="rgb(0,0,0)" height="5px" width="5px" x="80px" y="36px" /><rect fill="rgb(0,0,0)" height="5px" width="5px" x="84px" y="36px" /><rect fill="rgb(0,0,0)" height="5px" width="5px" x="104px" y="36px" /><rect fill="rgb(0,0,0)" height="5px" width="5px" x="108px" y="36px" /><rect fill="rgb(255,0,0)" height="5px" opacity="0.160784313725" width="5px" x="4px" y="40px" /><rect fill="rgb(195,0,0)" height="5px" width="5px" x="8px" y="40px" /><rect fill="rgb(255,0,0)" height="5px" width="5px" x="12px" y="40px" /><rect fill="rgb(255,0,0)" height="5px" width="5px" x="16px" y="40px" /><rect fill="rgb(255,0,0)" height="5px" width="5px" x="20px" y="40px" /><rect fill="rgb(255,0,0)" height="5px" width="5px" x="24px" y="40px" /><rect fill="rgb(255,0,0)" height="5px" width="5px" x="28px" y="40px" /><rect fill="rgb(159,0,0)" height="5px" width="5px" x="32px" y="40px" /><rect fill="rgb(5,0,0)" height="5px" width="5px" x="36px" y="40px" /><rect fill="rgb(0,0,0)" height="5px" width="5px" x="56px" y="40px" /><rect fill="rgb(0,0,0)" height="5px" width="5px" x="60px" y="40px" /><rect fill="rgb(0,0,0)" height="5px" width="5px" x="80px" y="40px" /><rect fill="rgb(0,0,0)" height="5px" width="5px" x="84px" y="40px" /><rect fill="rgb(0,0,0)" height="5px" width="5px" x="104px" y="40px" /><rect fill="rgb(0,0,0)" height="5px" width="5px" x="108px" y="40px" /><rect fill="rgb(0,0,0)" height="5px" width="5px" x="8px" y="44px" /><rect fill="rgb(145,0,0)" height="5px" width="5px" x="12px" y="44px" /><rect fill="rgb(255,0,0)" height="5px" width="5px" x="16px" y="44px" /><rect fill="rgb(255,0,0)" height="5px" width="5px" x="20px" y="44px" /><rect fill="rgb(255,0,0)" height="5px" width="5px" x="24px" y="44px" /><rect fill="rgb(255,0,0)" height="5px" width="5px" x="28px" y="44px" /><rect fill="rgb(255,0,0)" height="5px" width="5px" x="32px" y="44px" /><rect fill="rgb(209,0,0)" height="5px" width="5px" x="36px" y="44px" /><rect fill="rgb(255,0,0)" height="5px" opacity="0.21568627451" width="5px" x="40px" y="44px" /><rect fill="rgb(0,0,0)" height="5px" width="5px" x="56px" y="44px" /><rect fill="rgb(0,0,0)" height="5px" width="5px" x="60px" y="44px" /><rect fill="rgb(0,0,0)" height="5px" width="5px" x="80px" y="44px" /><rect fill="rgb(0,0,0)" height="5px" width="5px" x="84px" y="44px" /><rect fill="rgb(0,0,0)" height="5px" width="5px" x="104px" y="44px" /><rect fill="rgb(0,0,0)" height="5px" width="5px" x="108px" y="44px" /><rect fill="rgb(0,0,0)" height="5px" width="5px" x="8px" y="48px" /><rect fill="rgb(0,0,0)" height="5px" width="5px" x="12px" y="48px" /><rect fill="rgb(255,0,0)" height="5px" opacity="0.364705882353" width="5px" x="16px" y="48px" /><rect fill="rgb(255,0,0)" height="5px" opacity="0.96862745098" width="5px" x="20px" y="48px" /><rect fill="rgb(255,0,0)" height="5px" width="5px" x="24px" y="48px" /><rect fill="rgb(255,0,0)" height="5px" width="5px" x="28px" y="48px" /><rect fill="rgb(255,0,0)" height="5px" width="5px" x="32px" y="48px" /><rect fill="rgb(255,0,0)" height="5px" width="5px" x="36px" y="48px" /><rect fill="rgb(255,0,0)" height="5px" width="5px" x="40px" y="48px" /><rect fill="rgb(255,0,0)" height="5px" opacity="0.411764705882" width="5px" x="44px" y="48px" /><rect fill="rgb(0,0,0)" height="5px" width="5px" x="56px" y="48px" /><rect fill="rgb(0,0,0)" height="5px" width="5px" x="60px" y="48px" /><rect fill="rgb(0,0,0)" height="5px" width="5px" x="80px" y="48px" /><rect fill="rgb(0,0,0)" height="5px" width="5px" x="84px" y="48px" /><rect fill="rgb(0,0,0)" height="5px" width="5px" x="104px" y="48px" /><rect fill="rgb(0,0,0)" height="5px" width="5px" x="108px" y="48px" /><rect fill="rgb(0,0,0)" height="5px" width="5px" x="8px" y="52px" /><rect fill="rgb(0,0,0)" height="5px" width="5px" x="12px" y="52px" /><rect fill="rgb(255,0,0)" height="5px" opacity="0.16862745098" width="5px" x="20px" y="52px" /><rect fill="rgb(255,0,0)" height="5px" opacity="0.772549019608" width="5px" x="24px" y="52px" /><rect fill="rgb(255,0,0)" height="5px" width="5px" x="28px" y="52px" /><rect fill="rgb(255,0,0)" height="5px" width="5px" x="32px" y="52px" /><rect fill="rgb(255,0,0)" height="5px" width="5px" x="36px" y="52px" /><rect fill="rgb(255,0,0)" height="5px" width="5px" x="40px" y="52px" /><rect fill="rgb(255,0,0)" height="5px" width="5px" x="44px" y="52px" /><rect fill="rgb(255,0,0)" height="5px" opacity="0.61568627451" width="5px" x="48px" y="52px" /><rect fill="rgb(255,0,0)" height="5px" opacity="0.0117647058824" width="5px" x="52px" y="52px" /><rect fill="rgb(0,0,0)" height="5px" width="5px" x="56px" y="52px" /><rect fill="rgb(0,0,0)" height="5px" width="5px" x="60px" y="52px" /><rect fill="rgb(0,0,0)" height="5px" width="5px" x="80px" y="52px" /><rect fill="rgb(0,0,0)" height="5px" width="5px" x="84px" y="52px" /><rect fill="rgb(0,0,0)" height="5px" width="5px" x="104px" y="52px" /><rect fill="rgb(0,0,0)" height="5px" width="5px" x="108px" y="52px" /><rect fill="rgb(0,0,0)" height="5px" width="5px" x="8px" y="56px" /><rect fill="rgb(0,0,0)" height="5px" width="5px" x="12px" y="56px" /><rect fill="rgb(255,0,0)" height="5px" opacity="0.576470588235" width="5px" x="28px" y="56px" /><rect fill="rgb(255,0,0)" height="5px" width="5px" x="32px" y="56px" /><rect fill="rgb(255,0,0)" height="5px" width="5px" x="36px" y="56px" /><rect fill="rgb(255,0,0)" height="5px" width="5px" x="40px" y="56px" /><rect fill="rgb(255,0,0)" height="5px" width="5px" x="44px" y="56px" /><rect fill="rgb(255,0,0)" height="5px" width="5px" x="48px" y="56px" /><rect fill="rgb(255,0,0)" height="5px" opacity="0.811764705882" width="5px" x="52px" y="56px" /><rect fill="rgb(53,0,0)" height="5px" width="5px" x="56px" y="56px" /><rect fill="rgb(0,0,0)" height="5px" width="5px" x="60px" y="56px" /><rect fill="rgb(0,0,0)" height="5px" width="5px" x="80px" y="56px" /><rect fill="rgb(0,0,0)" height="5px" width="5px" x="84px" y="56px" /><rect fill="rgb(0,0,0)" height="5px" width="5px" x="104px" y="56px" /><rect fill="rgb(0,0,0)" height="5px" width="5px" x="108px" y="56px" /><rect fill="rgb(0,0,0)" height="5px" width="5px" x="8px" y="60px" /><rect fill="rgb(0,0,0)" height="5px" width="5px" x="12px" y="60px" /><rect fill="rgb(97,0,0)" height="5px" width="5px" x="32px" y="60px" /><rect fill="rgb(251,0,0)" height="5px" width="5px" x="36px" y="60px" /><rect fill="rgb(255,0,0)" height="5px" width="5px" x="40px" y="60px" /><rect fill="rgb(255,0,0)" height="5px" width="5px" x="44px" y="60px" /><rect fill="rgb(255,0,0)" height="5px" width="5px" x="48px" y="60px" /><rect fill="rgb(255,0,0)" height="5px" width="5px" x="52px" y="60px" /><rect fill="rgb(255,0,0)" height="5px" width="5px" x="56px" y="60px" /><rect fill="rgb(103,0,0)" height="5px" width="5px" x="60px" y="60px" /><rect fill="rgb(0,0,0)" height="5px" width="5px" x="80px" y="60px" /><rect fill="rgb(0,0,0)" height="5px" width="5px" x="84px" y="60px" /><rect fill="rgb(0,0,0)" height="5px" width="5px" x="104px" y="60px" /><rect fill="rgb(0,0,0)" height="5px" width="5px" x="108px" y="60px" /><rect fill="rgb(0,0,0)" height="5px" width="5px" x="8px" y="64px" /><rect fill="rgb(0,0,0)" height="5px" width="5px" x="12px" y="64px" /><rect fill="rgb(0,0,0)" height="5px" width="5px" x="32px" y="64px" /><rect fill="rgb(47,0,0)" height="5px" width="5px" x="36px" y="64px" /><rect fill="rgb(255,0,0)" height="5px" opacity="0.788235294118" width="5px" x="40px" y="64px" /><rect fill="rgb(255,0,0)" height="5px" width="5px" x="44px" y="64px" /><rect fill="rgb(255,0,0)" height="5px" width="5px" x="48px" y="64px" /><rect fill="rgb(255,0,0)" height="5px" width="5px" x="52px" y="64px" /><rect fill="rgb(255,0,0)" height="5px" width="5px" x="56px" y="64px" /><rect fill="rgb(255,0,0)" height="5px" width="5px" x="60px" y="64px" /><rect fill="rgb(255,0,0)" height="5px" opacity="0.6" width="5px" x="64px" y="64px" /><rect fill="rgb(0,0,0)" height="5px" width="5px" x="80px" y="64px" /><rect fill="rgb(0,0,0)" height="5px" width="5px" x="84px" y="64px" /><rect fill="rgb(0,0,0)" height="5px" width="5px" x="104px" y="64px" /><rect fill="rgb(0,0,0)" height="5px" width="5px" x="108px" y="64px" /><rect fill="rgb(0,0,0)" height="5px" width="5px" x="8px" y="68px" /><rect fill="rgb(0,0,0)" height="5px" width="5px" x="12px" y="68px" /><rect fill="rgb(0,0,0)" height="5px" width="5px" x="32px" y="68px" /><rect fill="rgb(0,0,0)" height="5px" width="5px" x="36px" y="68px" /><rect fill="rgb(255,0,0)" height="5px" opacity="0.592156862745" width="5px" x="44px" y="68px" /><rect fill="rgb(255,0,0)" height="5px" width="5px" x="48px" y="68px" /><rect fill="rgb(255,0,0)" height="5px" width="5px" x="52px" y="68px" /><rect fill="rgb(255,0,0)" height="5px" width="5px" x="56px" y="68px" /><rect fill="rgb(255,0,0)" height="5px" width="5px" x="60px" y="68px" /><rect fill="rgb(255,0,0)" height="5px" width="5px" x="64px" y="68px" /><rect fill="rgb(255,0,0)" height="5px" opacity="0.796078431373" width="5px" x="68px" y="68px" /><rect fill="rgb(255,0,0)" height="5px" opacity="0.192156862745" width="5px" x="72px" y="68px" /><rect fill="rgb(0,0,0)" height="5px" width="5px" x="80px" y="68px" /><rect fill="rgb(0,0,0)" height="5px" width="5px" x="84px" y="68px" /><rect fill="rgb(0,0,0)" height="5px" width="5px" x="104px" y="68px" /><rect fill="rgb(0,0,0)" height="5px" width="5px" x="108px" y="68px" /><rect fill="rgb(0,0,0)" height="5px" width="5px" x="8px" y="72px" /><rect fill="rgb(0,0,0)" height="5px" width="5px" x="12px" y="72px" /><rect fill="rgb(0,0,0)" height="5px" width="5px" x="32px" y="72px" /><rect fill="rgb(0,0,0)" height="5px" width="5px" x="36px" y="72px" /><rect fill="rgb(255,0,0)" height="5px" opacity="0.388235294118" width="5px" x="48px" y="72px" /><rect fill="rgb(255,0,0)" height="5px" opacity="0.992156862745" width="5px" x="52px" y="72px" /><rect fill="rgb(255,0,0)" height="5px" width="5px" x="56px" y="72px" /><rect fill="rgb(255,0,0)" height="5px" width="5px" x="60px" y="72px" /><rect fill="rgb(255,0,0)" height="5px" width="5px" x="64px" y="72px" /><rect fill="rgb(255,0,0)" height="5px" width="5px" x="68px" y="72px" /><rect fill="rgb(255,0,0)" height="5px" opacity="0.992156862745" width="5px" x="72px" y="72px" /><rect fill="rgb(255,0,0)" height="5px" opacity="0.388235294118" width="5px" x="76px" y="72px" /><rect fill="rgb(0,0,0)" height="5px" width="5px" x="80px" y="72px" /><rect fill="rgb(0,0,0)" height="5px" width="5px" x="84px" y="72px" /><rect fill="rgb(0,0,0)" height="5px" width="5px" x="104px" y="72px" /><rect fill="rgb(0,0,0)" height="5px" width="5px" x="108px" y="72px" /><rect fill="rgb(0,0,0)" height="5px" width="5px" x="8px" y="76px" /><rect fill="rgb(0,0,0)" height="5px" width="5px" x="12px" y="76px" /><rect fill="rgb(0,0,0)" height="5px" width="5px" x="32px" y="76px" /><rect fill="rgb(0,0,0)" height="5px" width="5px" x="36px" y="76px" /><rect fill="rgb(255,0,0)" height="5px" opacity="0.192156862745" width="5px" x="52px" y="76px" /><rect fill="rgb(203,0,0)" height="5px" width="5px" x="56px" y="76px" /><rect fill="rgb(255,0,0)" height="5px" width="5px" x="60px" y="76px" /><rect fill="rgb(255,0,0)" height="5px" width="5px" x="64px" y="76px" /><rect fill="rgb(255,0,0)" height="5px" width="5px" x="68px" y="76px" /><rect fill="rgb(255,0,0)" height="5px" width="5px" x="72px" y="76px" /><rect fill="rgb(255,0,0)" height="5px" width="5px" x="76px" y="76px" /><rect fill="rgb(151,0,0)" height="5px" width="5px" x="80px" y="76px" /><rect fill="rgb(0,0,0)" height="5px" width="5px" x="84px" y="76px" /><rect fill="rgb(0,0,0)" height="5px" width="5px" x="104px" y="76px" /><rect fill="rgb(0,0,0)" height="5px" width="5px" x="108px" y="76px" /><rect fill="rgb(0,0,0)" height="5px" width="5px" x="8px" y="80px" /><rect fill="rgb(0,0,0)" height="5px" width="5px" x="12px" y="80px" /><rect fill="rgb(0,0,0)" height="5px" width="5px" x="32px" y="80px" /><rect fill="rgb(0,0,0)" height="5px" width="5px" x="36px" y="80px" /><rect fill="rgb(0,0,0)" height="5px" width="5px" x="56px" y="80px" /><rect fill="rgb(153,0,0)" height="5px" width="5px" x="60px" y="80px" /><rect fill="rgb(255,0,0)" height="5px" width="5px" x="64px" y="80px" /><rect fill="rgb(255,0,0)" height="5px" width="5px" x="68px" y="80px" /><rect fill="rgb(255,0,0)" height="5px" width="5px" x="72px" y="80px" /><rect fill="rgb(255,0,0)" height="5px" width="5px" x="76px" y="80px" /><rect fill="rgb(255,0,0)" height="5px" width="5px" x="80px" y="80px" /><rect fill="rgb(201,0,0)" height="5px" width="5px" x="84px" y="80px" /><rect fill="rgb(255,0,0)" height="5px" opacity="0.18431372549" width="5px" x="88px" y="80px" /><rect fill="rgb(0,0,0)" height="5px" width="5px" x="104px" y="80px" /><rect fill="rgb(0,0,0)" height="5px" width="5px" x="108px" y="80px" /><rect fill="rgb(0,0,0)" height="5px" width="5px" x="8px" y="84px" /><rect fill="rgb(0,0,0)" height="5px" width="5px" x="12px" y="84px" /><rect fill="rgb(0,0,0)" height="5px" width="5px" x="32px" y="84px" /><rect fill="rgb(0,0,0)" height="5px" width="5px" x="36px" y="84px" /><rect fill="rgb(0,0,0)" height="5px" width="5px" x="56px" y="84px" /><rect fill="rgb(0,0,0)" height="5px" width="5px" x="60px" y="84px" /><rect fill="rgb(255,0,0)" height="5px" opacity="0.403921568627" width="5px" x="64px" y="84px" /><rect fill="rgb(255,0,0)" height="5px" width="5px" x="68px" y="84px" /><rect fill="rgb(255,0,0)" height="5px" width="5px" x="72px" y="84px" /><rect fill="rgb(255,0,0)" height="5px" width="5px" x="76px" y="84px" /><rect fill="rgb(255,0,0)" height="5px" width="5px" x="80px" y="84px" /><rect fill="rgb(255,0,0)" height="5px" width="5px" x="84px" y="84px" /><rect fill="rgb(255,0,0)" height="5px" opacity="0.98431372549" width="5px" x="88px" y="84px" /><rect fill="rgb(255,0,0)" height="5px" opacity="0.380392156863" width="5px" x="92px" y="84px" /><rect fill="rgb(0,0,0)" height="5px" width="5px" x="104px" y="84px" /><rect fill="rgb(0,0,0)" height="5px" width="5px" x="108px" y="84px" /><rect fill="rgb(0,0,0)" height="5px" width="5px" x="8px" y="88px" /><rect fill="rgb(0,0,0)" height="5px" width="5px" x="12px" y="88px" /><rect fill="rgb(0,0,0)" height="5px" width="5px" x="32px" y="88px" /><rect fill="rgb(0,0,0)" height="5px" width="5px" x="36px" y="88px" /><rect fill="rgb(0,0,0)" height="5px" width="5px" x="56px" y="88px" /><rect fill="rgb(0,0,0)" height="5px" width="5px" x="60px" y="88px" /><rect fill="rgb(255,0,0)" height="5px" opacity="0.207843137255" width="5px" x="68px" y="88px" /><rect fill="rgb(255,0,0)" height="5px" opacity="0.811764705882" width="5px" x="72px" y="88px" /><rect fill="rgb(255,0,0)" height="5px" width="5px" x="76px" y="88px" /><rect fill="rgb(255,0,0)" height="5px" width="5px" x="80px" y="88px" /><rect fill="rgb(255,0,0)" height="5px" width="5px" x="84px" y="88px" /><rect fill="rgb(255,0,0)" height="5px" width="5px" x="88px" y="88px" /><rect fill="rgb(255,0,0)" height="5px" width="5px" x="92px" y="88px" /><rect fill="rgb(255,0,0)" height="5px" opacity="0.576470588235" width="5px" x="96px" y="88px" /><rect fill="rgb(0,0,0)" height="5px" width="5px" x="104px" y="88px" /><rect fill="rgb(0,0,0)" height="5px" width="5px" x="108px" y="88px" /><rect fill="rgb(0,0,0)" height="5px" width="5px" x="8px" y="92px" /><rect fill="rgb(0,0,0)" height="5px" width="5px" x="12px" y="92px" /><rect fill="rgb(0,0,0)" height="5px" width="5px" x="32px" y="92px" /><rect fill="rgb(0,0,0)" height="5px" width="5px" x="36px" y="92px" /><rect fill="rgb(0,0,0)" height="5px" width="5px" x="56px" y="92px" /><rect fill="rgb(0,0,0)" height="5px" width="5px" x="60px" y="92px" /><rect fill="rgb(255,0,0)" height="5px" opacity="0.00392156862745" width="5px" x="72px" y="92px" /><rect fill="rgb(255,0,0)" height="5px" opacity="0.607843137255" width="5px" x="76px" y="92px" /><rect fill="rgb(255,0,0)" height="5px" width="5px" x="80px" y="92px" /><rect fill="rgb(255,0,0)" height="5px" width="5px" x="84px" y="92px" /><rect fill="rgb(255,0,0)" height="5px" width="5px" x="88px" y="92px" /><rect fill="rgb(255,0,0)" height="5px" width="5px" x="92px" y="92px" /><rect fill="rgb(255,0,0)" height="5px" width="5px" x="96px" y="92px" /><rect fill="rgb(255,0,0)" height="5px" opacity="0.772549019608" width="5px" x="100px" y="92px" /><rect fill="rgb(43,0,0)" height="5px" width="5px" x="104px" y="92px" /><rect fill="rgb(0,0,0)" height="5px" width="5px" x="108px" y="92px" /><rect fill="rgb(0,0,0)" height="5px" width="5px" x="8px" y="96px" /><rect fill="rgb(0,0,0)" height="5px" width="5px" x="12px" y="96px" /><rect fill="rgb(0,0,0)" height="5px" width="5px" x="32px" y="96px" /><rect fill="rgb(0,0,0)" height="5px" width="5px" x="36px" y="96px" /><rect fill="rgb(0,0,0)" height="5px" width="5px" x="56px" y="96px" /><rect fill="rgb(0,0,0)" height="5px" width="5px" x="60px" y="96px" /><rect fill="rgb(105,0,0)" height="5px" width="5px" x="80px" y="96px" /><rect fill="rgb(255,0,0)" height="5px" width="5px" x="84px" y="96px" /><rect fill="rgb(255,0,0)" height="5px" width="5px" x="88px" y="96px" /><rect fill="rgb(255,0,0)" height="5px" width="5px" x="92px" y="96px" /><rect fill="rgb(255,0,0)" height="5px" width="5px" x="96px" y="96px" /><rect fill="rgb(255,0,0)" height="5px" width="5px" x="100px" y="96px" /><rect fill="rgb(249,0,0)" height="5px" width="5px" x="104px" y="96px" /><rect fill="rgb(95,0,0)" height="5px" width="5px" x="108px" y="96px" /><rect fill="rgb(0,0,0)" height="5px" width="5px" x="8px" y="100px" /><rect fill="rgb(0,0,0)" height="5px" width="5px" x="12px" y="100px" /><rect fill="rgb(0,0,0)" height="5px" width="5px" x="32px" y="100px" /><rect fill="rgb(0,0,0)" height="5px" width="5px" x="36px" y="100px" /><rect fill="rgb(0,0,0)" height="5px" width="5px" x="56px" y="100px" /><rect fill="rgb(0,0,0)" height="5px" width="5px" x="60px" y="100px" /><rect fill="rgb(0,0,0)" height="5px" width="5px" x="80px" y="100px" /><rect fill="rgb(55,0,0)" height="5px" width="5px" x="84px" y="100px" /><rect fill="rgb(255,0,0)" height="5px" opacity="0.819607843137" width="5px" x="88px" y="100px" /><rect fill="rgb(255,0,0)" height="5px" width="5px" x="92px" y="100px" /><rect fill="rgb(255,0,0)" height="5px" width="5px" x="96px" y="100px" /><rect fill="rgb(255,0,0)" height="5px" width="5px" x="100px" y="100px" /><rect fill="rgb(255,0,0)" height="5px" width="5px" x="104px" y="100px" /><rect fill="rgb(255,0,0)" height="5px" width="5px" x="108px" y="100px" /><rect fill="rgb(255,0,0)" height="5px" opacity="0.458823529412" width="5px" x="112px" y="100px" /><rect fill="rgb(0,0,0)" height="5px" width="5px" x="8px" y="104px" /><rect fill="rgb(0,0,0)" height="5px" width="5px" x="12px" y="104px" /><rect fill="rgb(0,0,0)" height="5px" width="5px" x="32px" y="104px" /><rect fill="rgb(0,0,0)" height="5px" width="5px" x="36px" y="104px" /><rect fill="rgb(0,0,0)" height="5px" width="5px" x="56px" y="104px" /><rect fill="rgb(0,0,0)" height="5px" width="5px" x="60px" y="104px" /><rect fill="rgb(0,0,0)" height="5px" width="5px" x="80px" y="104px" /><rect fill="rgb(0,0,0)" height="5px" width="5px" x="84px" y="104px" /><rect fill="rgb(255,0,0)" height="5px" opacity="0.0196078431373" width="5px" x="88px" y="104px" /><rect fill="rgb(255,0,0)" height="5px" opacity="0.623529411765" width="5px" x="92px" y="104px" /><rect fill="rgb(255,0,0)" height="5px" width="5px" x="96px" y="104px" /><rect fill="rgb(255,0,0)" height="5px" width="5px" x="100px" y="104px" /><rect fill="rgb(255,0,0)" height="5px" width="5px" x="104px" y="104px" /><rect fill="rgb(255,0,0)" height="5px" width="5px" x="108px" y="104px" /><rect fill="rgb(255,0,0)" height="5px" opacity="0.2" width="5px" x="112px" y="104px" /><rect fill="rgb(0,0,0)" height="5px" width="5px" x="8px" y="108px" /><rect fill="rgb(0,0,0)" height="5px" width="5px" x="12px" y="108px" /><rect fill="rgb(0,0,0)" height="5px" width="5px" x="32px" y="108px" /><rect fill="rgb(0,0,0)" height="5px" width="5px" x="36px" y="108px" /><rect fill="rgb(0,0,0)" height="5px" width="5px" x="56px" y="108px" /><rect fill="rgb(0,0,0)" height="5px" width="5px" x="60px" y="108px" /><rect fill="rgb(0,0,0)" height="5px" width="5px" x="80px" y="108px" /><rect fill="rgb(0,0,0)" height="5px" width="5px" x="84px" y="108px" /><rect fill="rgb(255,0,0)" height="5px" opacity="0.427450980392" width="5px" x="96px" y="108px" /><rect fill="rgb(255,0,0)" height="5px" width="5px" x="100px" y="108px" /><rect fill="rgb(255,0,0)" height="5px" width="5px" x="104px" y="108px" /><rect fill="rgb(101,0,0)" height="5px" width="5px" x="108px" y="108px" /><rect fill="rgb(0,0,0)" height="5px" width="5px" x="8px" y="112px" /><rect fill="rgb(0,0,0)" height="5px" width="5px" x="12px" y="112px" /><rect fill="rgb(0,0,0)" height="5px" width="5px" x="32px" y="112px" /><rect fill="rgb(0,0,0)" height="5px" width="5px" x="36px" y="112px" /><rect fill="rgb(0,0,0)" height="5px" width="5px" x="56px" y="112px" /><rect fill="rgb(0,0,0)" height="5px" width="5px" x="60px" y="112px" /><rect fill="rgb(0,0,0)" height="5px" width="5px" x="80px" y="112px" /><rect fill="rgb(0,0,0)" height="5px" width="5px" x="84px" y="112px" /><rect fill="rgb(255,0,0)" height="5px" opacity="0.23137254902" width="5px" x="100px" y="112px" /><rect fill="rgb(126,0,0)" height="5px" width="5px" x="104px" y="112px" /><rect fill="rgb(0,0,0)" height="5px" width="5px" x="108px" y="112px" /><rect fill="rgb(0,0,0)" height="5px" width="5px" x="8px" y="116px" /><rect fill="rgb(0,0,0)" height="5px" width="5px" x="12px" y="116px" /><rect fill="rgb(0,0,0)" height="5px" width="5px" x="32px" y="116px" /><rect fill="rgb(0,0,0)" height="5px" width="5px" x="36px" y="116px" /><rect fill="rgb(0,0,0)" height="5px" width="5px" x="56px" y="116px" /><rect fill="rgb(0,0,0)" height="5px" width="5px" x="60px" y="116px" /><rect fill="rgb(0,0,0)" height="5px" width="5px" x="80px" y="116px" /><rect fill="rgb(0,0,0)" height="5px" width="5px" x="84px" y="116px" /><rect fill="rgb(0,0,0)" height="5px" width="5px" x="104px" y="116px" /><rect fill="rgb(0,0,0)" height="5px" width="5px" x="108px" y="116px" /></svg>