<?xml version="1.0" encoding="utf-8" ?>
<svg baseProfile="full" height="128px" version="1.1" width="128px" xmlns="http://www.w3.org/2000/svg" xmlns:ev="http://www.w3.org/2001/xml-events" xmlns:xlink="http://www.w3.org/1999/xlink"><defs /><rect fill="rgb(42,42,42)" height="5px" width="5px" x="40px" y="48px" /><rect fill="rgb(42,42,42)" height="5px" width="5px" x="44px" y="48px" /><rect fill="rgb(42,42,42)" height="5px" width="5px" x="48px" y="48px" /><rect fill="rgb(42,42,42)" height="5px" width="5px" x="52px" y="48px" /><rect fill="rgb(42,42,42)" height="5px" width="5px" x="56px" y="48px" /><rect fill="rgb(42,42,42)" height="5px" width="5px" x="60px" y="48px" /><rect fill="rgb(42,42,42)" height="5px" width="5px" x="64px" y="48px" /><rect fill="rgb(42,42,42)" height="5px" width="5px" x="68px" y="48px" /><rect fill="rgb(42,42,42)" height="5px" width="5px" x="72px" y="48px" /><rect fill="rgb(42,42,42)" height="5px" width="5px" x="76px" y="48px" /><rect fill="rgb(42,42,42)" height="5px" width="5px" x="80px" y="48px" /><rect fill="rgb(42,42,42)" height="5px" width="5px" x="84px" y="48px" /><rect fill="rgb(42,42,42)" height="5px" width="5px" x="88px" y="48px" /><rect fill="rgb(42,42,42)" height="5px" width="5px" x="92px" y="48px" /><rect fill="rgb(42,42,42)" height="5px" width="5px" x="96px" y="48px" /><rect fill="rgb(42,42,42)" height="5px" width="5px" x="100px" y="48px" /><rect fill="rgb(42,42,42)" height="5px" width="5px" x="104px" y="48px" /><rect fill="rgb(42,42,42)" height="5px" width="5px" x="108px" y="48px" /><rect fill="rgb(42,42,42)" height="5px" width="5px" x="112px" y="48px" /><rect fill="rgb(42,42,42)" height="5px" width="5px" x="116px" y="48px" /><rect fill="rgb(42,42,42)" height="5px" width="5px" x="36px" y="52px" /><rect fill="rgb(42,42,42)" height="5px" width="5px" x="40px" y="52px" /><rect fill="rgb(42,42,42)" height="5px" width="5px" x="44px" y="52px" /><rect fill="rgb(42,42,42)" height="5px" width="5px" x="48px" y="52px" /><rect fill="rgb(42,42,42)" height="5px" width="5px" x="52px" y="52px" /><rect fill="rgb(42,42,42)" height="5px" width="5px" x="56px" y="52px" /><rect fill="rgb(42,42,42)" height="5px" width="5px" x="60px" y="52px" /><rect fill="rgb(42,42,42)" height="5px" width="5px" x="64px" y="52px" /><rect fill="rgb(42,42,42)" height="5px" width="5px" x="68px" y="52px" /><rect fill="rgb(18,18,4)" height="5px" width="5px" x="72px" y="52px" /><rect fill="rgb(18,18,4)" height="5px" width="5px" x="76px" y="52px" /><rect fill="rgb(18,18,4)" height="5px" width="5px" x="80px" y="52px" /><rect fill="rgb(18,18,4)" height="5px" width="5px" x="84px" y="52px" /><rect fill="rgb(42,42,42)" height="5px" width="5px" x="88px" y="52px" /><rect fill="rgb(42,42,42)" height="5px" width="5px" x="92px" y="52px" /><rect fill="rgb(42,42,42)" height="5px" width="5px" x="96px" y="52px" /><rect fill="rgb(42,42,42)" height="5px" width="5px" x="100px" y="52px" /><rect fill="rgb(42,42,42)" height="5px" width="5px" x="104px" y="52px" /><rect fill="rgb(42,42,42)" height="5px" width="5px" x="108px" y="52px" /><rect fill="rgb(42,42,42)" height="5px" width="5px" x="112px" y="52px" /><rect fill="rgb(42,42,42)" height="5px" width="5px" x="116px" y="52px" /><rect fill="rgb(42,42,42)" height="5px" width="5px" x="36px" y="56px" /><rect fill="rgb(42,42,42)" height="5px" width="5px" x="40px" y="56px" /><rect fill="rgb(42,42,42)" height="5px" width="5px" x="44px" y="56px" /><rect fill="rgb(42,42,42)" height="5px" width="5px" x="48px" y="56px" /><rect fill="rgb(42,42,42)" height="5px" width="5px" x="52px" y="56px" /><rect fill="rgb(42,42,42)" height="5px" width="5px" x="56px" y="56px" /><rect fill="rgb(42,42,42)" height="5px" width="5px" x="60px" y="56px" /><rect fill="rgb(18,18,4)" height="5px" width="5px" x="64px" y="56px" /><rect fill="rgb(18,18,4)" height="5px" width="5px" x="68px" y="56px" /><rect fill="rgb(18,18,4)" height="5px" width="5px" x="72px" y="56px" /><rect fill="rgb(18,18,4)" height="5px" width="5px" x="76px" y="56px" /><rect fill="rgb(18,18,4)" height="5px" width="5px" x="80px" y="56px" /><rect fill="rgb(18,18,4)" height="5px" width="5px" x="84px" y="56px" /><rect fill="rgb(18,18,4)" height="5px" width="5px" x="88px" y="56px" /><rect fill="rgb(18,18,4)" height="5px" width="5px" x="92px" y="56px" /><rect fill="rgb(42,42,42)" height="5px" width="5px" x="96px" y="56px" /><rect fill="rgb(42,42,42)" height="5px" width="5px" x="100px" y="56px" /><rect fill="rgb(42,42,42)" height="5px" width="5px" x="104px" y="56px" /><rect fill="rgb(42,42,42)" height="5px" width="5px" x="108px" y="56px" /><rect fill="rgb(42,42,42)" height="5px" width="5px" x="112px" y="56px" /><rect fill="rgb(42,42,42)" height="5px" width="5px" x="116px" y="56px" /><rect fill="rgb(42,42,42)" height="5px" width="5px" x="40px" y="60px" /><rect fill="rgb(42,42,42)" height="5px" width="5px" x="44px" y="60px" /><rect fill="rgb(42,42,42)" height="5px" width="5px" x="48px" y="60px" /><rect fill="rgb(42,42,42)" height="5px" width="5px" x="52px" y="60px" /><rect fill="rgb(42,42,42)" height="5px" width="5px" x="56px" y="60px" /><rect fill="rgb(18,18,4)" height="5px" width="5px" x="60px" y="60px" /><rect fill="rgb(18,18,4)" height="5px" width="5px" x="64px" y="60px" /><rect fill="rgb(42,42,42)" height="5px" width="5px" x="68px" y="60px" /><rect fill="rgb(42,42,42)" height="5px" width="5px" x="72px" y="60px" /><rect fill="rgb(18,18,4)" height="5px" width="5px" x="76px" y="60px" /><rect fill="rgb(18,18,4)" height="5px" width="5px" x="80px" y="60px" /><rect fill="rgb(42,42,42)" height="5px" width="5px" x="84px" y="60px" /><rect fill="rgb(42,42,42)" height="5px" width="5px" x="88px" y="60px" /><rect fill="rgb(18,18,4)" height="5px" width="5px" x="92px" y="60px" /><rect fill="rgb(18,18,4)" height="5px" width="5px" x="96px" y="60px" /><rect fill="rgb(42,42,42)" height="5px" width="5px" x="100px" y="60px" /><rect fill="rgb(42,42,42)" height="5px" width="5px" x="104px" y="60px" /><rect fill="rgb(42,42,42)" height="5px" width="5px" x="108px" y="60px" /><rect fill="rgb(42,42,42)" height="5px" width="5px" x="112px" y="60px" /><rect fill="rgb(42,42,42)" height="5px" width="5px" x="116px" y="60px" /><rect fill="rgb(42,42,42)" height="5px" opacity="0.83137254902" width="5px" x="36px" y="64px" /><rect fill="rgb(42,42,42)" height="5px" width="5px" x="40px" y="64px" /><rect fill="rgb(42,42,42)" height="5px" width="5px" x="44px" y="64px" /><rect fill="rgb(42,42,42)" height="5px" width="5px" x="48px" y="64px" /><rect fill="rgb(42,42,42)" height="5px" width="5px" x="52px" y="64px" /><rect fill="rgb(42,42,42)" height="5px" width="5px" x="56px" y="64px" /><rect fill="rgb(18,18,4)" height="5px" width="5px" x="60px" y="64px" /><rect fill="rgb(42,42,42)" height="5px" width="5px" x="64px" y="64px" /><rect fill="rgb(42,42,42)" height="5px" width="5px" x="68px" y="64px" /><rect fill="rgb(42,42,42)" height="5px" width="5px" x="72px" y="64px" /><rect fill="rgb(18,18,4)" height="5px" width="5px" x="76px" y="64px" /><rect fill="rgb(18,18,4)" height="5px" width="5px" x="80px" y="64px" /><rect fill="rgb(42,42,42)" height="5px" width="5px" x="84px" y="64px" /><rect fill="rgb(42,42,42)" height="5px" width="5px" x="88px" y="64px" /><rect fill="rgb(42,42,42)" height="5px" width="5px" x="92px" y="64px" /><rect fill="rgb(18,18,4)" height="5px" width="5px" x="96px" y="64px" /><rect fill="rgb(43,43,43)" height="5px" opacity="0.964705882353" width="5px" x="32px" y="68px" /><rect fill="rgb(42,42,42)" height="5px" width="5px" x="36px" y="68px" /><rect fill="rgb(42,42,42)" height="5px" width="5px" x="40px" y="68px" /><rect fill="rgb(42,42,42)" height="5px" width="5px" x="44px" y="68px" /><rect fill="rgb(42,42,42)" height="5px" width="5px" x="48px" y="68px" /><rect fill="rgb(42,42,42)" height="5px" opacity="0.886274509804" width="5px" x="52px" y="68px" /><rect fill="rgb(18,18,4)" height="5px" width="5px" x="56px" y="68px" /><rect fill="rgb(18,18,4)" height="5px" width="5px" x="60px" y="68px" /><rect fill="rgb(40,40,40)" height="5px" opacity="0.223529411765" width="5px" x="64px" y="68px" /><rect fill="rgb(18,18,4)" height="5px" width="5px" x="76px" y="68px" /><rect fill="rgb(18,18,4)" height="5px" width="5px" x="80px" y="68px" /><rect fill="rgb(18,18,4)" height="5px" width="5px" x="96px" y="68px" /><rect fill="rgb(18,18,4)" height="5px" width="5px" x="100px" y="68px" /><rect fill="rgb(46,46,46)" height="5px" opacity="0.109803921569" width="5px" x="24px" y="72px" /><rect fill="rgb(42,42,42)" height="5px" opacity="0.996078431373" width="5px" x="28px" y="72px" /><rect fill="rgb(42,42,42)" height="5px" width="5px" x="32px" y="72px" /><rect fill="rgb(42,42,42)" height="5px" width="5px" x="36px" y="72px" /><rect fill="rgb(42,42,42)" height="5px" width="5px" x="40px" y="72px" /><rect fill="rgb(42,42,42)" height="5px" width="5px" x="44px" y="72px" /><rect fill="rgb(41,41,41)" height="5px" opacity="0.603921568627" width="5px" x="48px" y="72px" /><rect fill="rgb(18,18,4)" height="5px" width="5px" x="56px" y="72px" /><rect fill="rgb(18,18,4)" height="5px" width="5px" x="60px" y="72px" /><rect fill="rgb(18,18,4)" height="5px" width="5px" x="64px" y="72px" /><rect fill="rgb(18,18,4)" height="5px" width="5px" x="68px" y="72px" /><rect fill="rgb(18,18,4)" height="5px" width="5px" x="72px" y="72px" /><rect fill="rgb(18,18,4)" height="5px" width="5px" x="76px" y="72px" /><rect fill="rgb(18,18,4)" height="5px" width="5px" x="80px" y="72px" /><rect fill="rgb(18,18,4)" height="5px" width="5px" x="84px" y="72px" /><rect fill="rgb(18,18,4)" height="5px" width="5px" x="88px" y="72px" /><rect fill="rgb(18,18,4)" height="5px" width="5px" x="92px" y="72px" /><rect fill="rgb(18,18,4)" height="5px" width="5px" x="96px" y="72px" /><rect fill="rgb(18,18,4)" height="5px" width="5px" x="100px" y="72px" /><rect fill="rgb(43,43,43)" height="5px" opacity="0.419607843137" width="5px" x="20px" y="76px" /><rect fill="rgb(42,42,42)" height="5px" width="5px" x="24px" y="76px" /><rect fill="rgb(42,42,42)" height="5px" width="5px" x="28px" y="76px" /><rect fill="rgb(42,42,42)" height="5px" width="5px" x="32px" y="76px" /><rect fill="rgb(42,42,42)" height="5px" width="5px" x="36px" y="76px" /><rect fill="rgb(42,42,42)" height="5px" width="5px" x="40px" y="76px" /><rect fill="rgb(41,41,41)" height="5px" opacity="0.345098039216" width="5px" x="44px" y="76px" /><rect fill="rgb(18,18,4)" height="5px" width="5px" x="56px" y="76px" /><rect fill="rgb(18,18,4)" height="5px" width="5px" x="60px" y="76px" /><rect fill="rgb(18,18,4)" height="5px" width="5px" x="64px" y="76px" /><rect fill="rgb(18,18,4)" height="5px" width="5px" x="68px" y="76px" /><rect fill="rgb(18,18,4)" height="5px" width="5px" x="72px" y="76px" /><rect fill="rgb(18,18,4)" height="5px" width="5px" x="76px" y="76px" /><rect fill="rgb(18,18,4)" height="5px" width="5px" x="80px" y="76px" /><rect fill="rgb(18,18,4)" height="5px" width="5px" x="84px" y="76px" /><rect fill="rgb(18,18,4)" height="5px" width="5px" x="88px" y="76px" /><rect fill="rgb(18,18,4)" height="5px" width="5px" x="92px" y="76px" /><rect fill="rgb(18,18,4)" height="5px" width="5px" x="96px" y="76px" /><rect fill="rgb(18,18,4)" height="5px" width="5px" x="100px" y="76px" /><rect fill="rgb(42,42,42)" height="5px" opacity="0.745098039216" width="5px" x="16px" y="80px" /><rect fill="rgb(42,42,42)" height="5px" width="5px" x="20px" y="80px" /><rect fill="rgb(42,42,42)" height="5px" width="5px" x="24px" y="80px" /><rect fill="rgb(42,42,42)" height="5px" width="5px" x="28px" y="80px" /><rect fill="rgb(42,42,42)" height="5px" width="5px" x="32px" y="80px" /><rect fill="rgb(42,42,42)" height="5px" width="5px" x="36px" y="80px" /><rect fill="rgb(46,46,46)" height="5px" opacity="0.109803921569" width="5px" x="40px" y="80px" /><rect fill="rgb(18,18,4)" height="5px" width="5px" x="56px" y="80px" /><rect fill="rgb(18,18,4)" height="5px" width="5px" x="60px" y="80px" /><rect fill="rgb(18,18,4)" height="5px" width="5px" x="76px" y="80px" /><rect fill="rgb(18,18,4)" height="5px" width="5px" x="80px" y="80px" /><rect fill="rgb(18,18,4)" height="5px" width="5px" x="96px" y="80px" /><rect fill="rgb(18,18,4)" height="5px" width="5px" x="100px" y="80px" /><rect fill="rgb(42,42,42)" height="5px" opacity="0.913725490196" width="5px" x="12px" y="84px" /><rect fill="rgb(42,42,42)" height="5px" width="5px" x="16px" y="84px" /><rect fill="rgb(42,42,42)" height="5px" width="5px" x="20px" y="84px" /><rect fill="rgb(42,42,42)" height="5px" width="5px" x="24px" y="84px" /><rect fill="rgb(42,42,42)" height="5px" width="5px" x="28px" y="84px" /><rect fill="rgb(42,42,42)" height="5px" opacity="0.980392156863" width="5px" x="32px" y="84px" /><rect fill="rgb(18,18,4)" height="5px" width="5px" x="60px" y="84px" /><rect fill="rgb(18,18,4)" height="5px" width="5px" x="76px" y="84px" /><rect fill="rgb(18,18,4)" height="5px" width="5px" x="80px" y="84px" /><rect fill="rgb(18,18,4)" height="5px" width="5px" x="96px" y="84px" /><rect fill="rgb(36,36,36)" height="5px" opacity="0.0274509803922" width="5px" x="4px" y="88px" /><rect fill="rgb(43,43,43)" height="5px" opacity="0.988235294118" width="5px" x="8px" y="88px" /><rect fill="rgb(42,42,42)" height="5px" width="5px" x="12px" y="88px" /><rect fill="rgb(42,42,42)" height="5px" width="5px" x="16px" y="88px" /><rect fill="rgb(42,42,42)" height="5px" width="5px" x="20px" y="88px" /><rect fill="rgb(42,42,42)" height="5px" width="5px" x="24px" y="88px" /><rect fill="rgb(42,42,42)" height="5px" opacity="0.913725490196" width="5px" x="28px" y="88px" /><rect fill="rgb(18,18,4)" height="5px" width="5px" x="60px" y="88px" /><rect fill="rgb(18,18,4)" height="5px" width="5px" x="64px" y="88px" /><rect fill="rgb(18,18,4)" height="5px" width="5px" x="76px" y="88px" /><rect fill="rgb(18,18,4)" height="5px" width="5px" x="80px" y="88px" /><rect fill="rgb(18,18,4)" height="5px" width="5px" x="92px" y="88px" /><rect fill="rgb(18,18,4)" height="5px" width="5px" x="96px" y="88px" /><rect fill="rgb(36,36,36)" height="5px" opacity="0.0274509803922" width="5px" x="0px" y="92px" /><rect fill="rgb(43,43,43)" height="5px" opacity="0.988235294118" width="5px" x="4px" y="92px" /><rect fill="rgb(42,42,42)" height="5px" width="5px" x="8px" y="92px" /><rect fill="rgb(42,42,42)" height="5px" width="5px" x="12px" y="92px" /><rect fill="rgb(42,42,42)" height="5px" width="5px" x="16px" y="92px" /><rect fill="rgb(42,42,42)" height="5px" width="5px" x="20px" y="92px" /><rect fill="rgb(42,42,42)" height="5px" opacity="0.733333333333" width="5px" x="24px" y="92px" /><rect fill="rgb(18,18,4)" height="5px" width="5px" x="64px" y="92px" /><rect fill="rgb(18,18,4)" height="5px" width="5px" x="68px" y="92px" /><rect fill="rgb(18,18,4)" height="5px" width="5px" x="72px" y="92px" /><rect fill="rgb(18,18,4)" height="5px" width="5px" x="76px" y="92px" /><rect fill="rgb(18,18,4)" height="5px" width="5px" x="80px" y="92px" /><rect fill="rgb(18,18,4)" height="5px" width="5px" x="84px" y="92px" /><rect fill="rgb(18,18,4)" height="5px" width="5px" x="88px" y="92px" /><rect fill="rgb(18,18,4)" height="5px" width="5px" x="92px" y="92px" /><rect fill="rgb(18,18,4)" height="5px" width="5px" x="72px" y="96px" /><rect fill="rgb(18,18,4)" height="5px" width="5px" x="76px" y="96px" /><rect fill="rgb(18,18,4)" height="5px" width="5px" x="80px" y="96px" /><rect fill="rgb(18,18,4)" height="5px" width="5px" x="84px" y="96px" /></svg>