<?xml version="1.0" encoding="utf-8" ?>
<svg baseProfile="full" height="128px" version="1.1" width="128px" xmlns="http://www.w3.org/2000/svg" xmlns:ev="http://www.w3.org/2001/xml-events" xmlns:xlink="http://www.w3.org/1999/xlink"><defs /><rect fill="rgb(54,78,44)" height="5px" width="5px" x="48px" y="0px" /><rect fill="rgb(54,78,44)" height="5px" width="5px" x="52px" y="0px" /><rect fill="rgb(54,78,44)" height="5px" width="5px" x="56px" y="0px" /><rect fill="rgb(54,78,44)" height="5px" width="5px" x="60px" y="0px" /><rect fill="rgb(54,78,44)" height="5px" width="5px" x="32px" y="4px" /><rect fill="rgb(54,78,44)" height="5px" width="5px" x="36px" y="4px" /><rect fill="rgb(54,78,44)" height="5px" width="5px" x="40px" y="4px" /><rect fill="rgb(54,78,44)" height="5px" width="5px" x="44px" y="4px" /><rect fill="rgb(54,78,44)" height="5px" width="5px" x="48px" y="4px" /><rect fill="rgb(54,78,44)" height="5px" width="5px" x="52px" y="4px" /><rect fill="rgb(54,78,44)" height="5px" width="5px" x="56px" y="4px" /><rect fill="rgb(54,78,44)" height="5px" width="5px" x="60px" y="4px" /><rect fill="rgb(54,78,44)" height="5px" width="5px" x="64px" y="4px" /><rect fill="rgb(54,78,44)" height="5px" width="5px" x="68px" y="4px" /><rect fill="rgb(54,78,44)" height="5px" width="5px" x="72px" y="4px" /><rect fill="rgb(54,78,44)" height="5px" width="5px" x="76px" y="4px" /><rect fill="rgb(54,78,44)" height="5px" width="5px" x="80px" y="4px" /><rect fill="rgb(54,78,44)" height="5px" width="5px" x="28px" y="8px" /><rect fill="rgb(54,78,44)" height="5px" width="5px" x="32px" y="8px" /><rect fill="rgb(54,78,44)" height="5px" width="5px" x="36px" y="8px" /><rect fill="rgb(54,78,44)" height="5px" width="5px" x="40px" y="8px" /><rect fill="rgb(54,78,44)" height="5px" width="5px" x="44px" y="8px" /><rect fill="rgb(54,78,44)" height="5px" width="5px" x="48px" y="8px" /><rect fill="rgb(54,78,44)" height="5px" width="5px" x="52px" y="8px" /><rect fill="rgb(54,78,44)" height="5px" width="5px" x="56px" y="8px" /><rect fill="rgb(54,78,44)" height="5px" width="5px" x="60px" y="8px" /><rect fill="rgb(54,78,44)" height="5px" width="5px" x="64px" y="8px" /><rect fill="rgb(54,78,44)" height="5px" width="5px" x="68px" y="8px" /><rect fill="rgb(54,78,44)" height="5px" width="5px" x="72px" y="8px" /><rect fill="rgb(54,78,44)" height="5px" width="5px" x="76px" y="8px" /><rect fill="rgb(54,78,44)" height="5px" width="5px" x="80px" y="8px" /><rect fill="rgb(54,78,44)" height="5px" width="5px" x="84px" y="8px" /><rect fill="rgb(54,78,44)" height="5px" width="5px" x="88px" y="8px" /><rect fill="rgb(54,78,44)" height="5px" width="5px" x="28px" y="12px" /><rect fill="rgb(54,78,44)" height="5px" width="5px" x="32px" y="12px" /><rect fill="rgb(54,78,44)" height="5px" width="5px" x="36px" y="12px" /><rect fill="rgb(54,78,44)" height="5px" width="5px" x="40px" y="12px" /><rect fill="rgb(54,78,44)" height="5px" width="5px" x="44px" y="12px" /><rect fill="rgb(54,78,44)" height="5px" width="5px" x="48px" y="12px" /><rect fill="rgb(54,78,44)" height="5px" width="5px" x="52px" y="12px" /><rect fill="rgb(54,78,44)" height="5px" width="5px" x="56px" y="12px" /><rect fill="rgb(54,78,44)" height="5px" width="5px" x="60px" y="12px" /><rect fill="rgb(54,78,44)" height="5px" width="5px" x="64px" y="12px" /><rect fill="rgb(54,78,44)" height="5px" width="5px" x="68px" y="12px" /><rect fill="rgb(54,78,44)" height="5px" width="5px" x="72px" y="12px" /><rect fill="rgb(54,78,44)" height="5px" width="5px" x="76px" y="12px" /><rect fill="rgb(54,78,44)" height="5px" width="5px" x="80px" y="12px" /><rect fill="rgb(54,78,44)" height="5px" width="5px" x="84px" y="12px" /><rect fill="rgb(54,78,44)" height="5px" width="5px" x="88px" y="12px" /><rect fill="rgb(54,78,44)" height="5px" width="5px" x="92px" y="12px" /><rect fill="rgb(54,78,44)" height="5px" width="5px" x="96px" y="12px" /><rect fill="rgb(54,78,44)" height="5px" width="5px" x="28px" y="16px" /><rect fill="rgb(54,78,44)" height="5px" width="5px" x="32px" y="16px" /><rect fill="rgb(54,78,44)" height="5px" width="5px" x="36px" y="16px" /><rect fill="rgb(54,78,44)" height="5px" width="5px" x="40px" y="16px" /><rect fill="rgb(54,78,44)" height="5px" width="5px" x="48px" y="16px" /><rect fill="rgb(54,78,44)" height="5px" width="5px" x="52px" y="16px" /><rect fill="rgb(54,78,44)" height="5px" width="5px" x="56px" y="16px" /><rect fill="rgb(54,78,44)" height="5px" width="5px" x="60px" y="16px" /><rect fill="rgb(54,78,44)" height="5px" width="5px" x="72px" y="16px" /><rect fill="rgb(54,78,44)" height="5px" width="5px" x="76px" y="16px" /><rect fill="rgb(54,78,44)" height="5px" width="5px" x="80px" y="16px" /><rect fill="rgb(54,78,44)" height="5px" width="5px" x="84px" y="16px" /><rect fill="rgb(54,78,44)" height="5px" width="5px" x="88px" y="16px" /><rect fill="rgb(54,78,44)" height="5px" width="5px" x="92px" y="16px" /><rect fill="rgb(54,78,44)" height="5px" width="5px" x="96px" y="16px" /><rect fill="rgb(54,78,44)" height="5px" width="5px" x="24px" y="20px" /><rect fill="rgb(54,78,44)" height="5px" width="5px" x="28px" y="20px" /><rect fill="rgb(54,78,44)" height="5px" width="5px" x="32px" y="20px" /><rect fill="rgb(54,78,44)" height="5px" width="5px" x="36px" y="20px" /><rect fill="rgb(54,78,44)" height="5px" width="5px" x="48px" y="20px" /><rect fill="rgb(54,78,44)" height="5px" width="5px" x="52px" y="20px" /><rect fill="rgb(54,78,44)" height="5px" width="5px" x="56px" y="20px" /><rect fill="rgb(54,78,44)" height="5px" width="5px" x="60px" y="20px" /><rect fill="rgb(54,78,44)" height="5px" width="5px" x="80px" y="20px" /><rect fill="rgb(54,78,44)" height="5px" width="5px" x="84px" y="20px" /><rect fill="rgb(54,78,44)" height="5px" width="5px" x="88px" y="20px" /><rect fill="rgb(54,78,44)" height="5px" width="5px" x="92px" y="20px" /><rect fill="rgb(54,78,44)" height="5px" width="5px" x="96px" y="20px" /><rect fill="rgb(54,78,44)" height="5px" width="5px" x="24px" y="24px" /><rect fill="rgb(54,78,44)" height="5px" width="5px" x="28px" y="24px" /><rect fill="rgb(54,78,44)" height="5px" width="5px" x="32px" y="24px" /><rect fill="rgb(54,78,44)" height="5px" width="5px" x="36px" y="24px" /><rect fill="rgb(54,78,44)" height="5px" width="5px" x="48px" y="24px" /><rect fill="rgb(54,78,44)" height="5px" width="5px" x="52px" y="24px" /><rect fill="rgb(54,78,44)" height="5px" width="5px" x="56px" y="24px" /><rect fill="rgb(54,78,44)" height="5px" width="5px" x="60px" y="24px" /><rect fill="rgb(54,78,44)" height="5px" width="5px" x="24px" y="28px" /><rect fill="rgb(54,78,44)" height="5px" width="5px" x="28px" y="28px" /><rect fill="rgb(54,78,44)" height="5px" width="5px" x="32px" y="28px" /><rect fill="rgb(54,78,44)" height="5px" width="5px" x="48px" y="28px" /><rect fill="rgb(54,78,44)" height="5px" width="5px" x="52px" y="28px" /><rect fill="rgb(54,78,44)" height="5px" width="5px" x="56px" y="28px" /><rect fill="rgb(54,78,44)" height="5px" width="5px" x="60px" y="28px" /><rect fill="rgb(54,78,44)" height="5px" width="5px" x="24px" y="32px" /><rect fill="rgb(54,78,44)" height="5px" width="5px" x="28px" y="32px" /><rect fill="rgb(54,78,44)" height="5px" width="5px" x="32px" y="32px" /><rect fill="rgb(54,78,44)" height="5px" width="5px" x="48px" y="32px" /><rect fill="rgb(54,78,44)" height="5px" width="5px" x="52px" y="32px" /><rect fill="rgb(54,78,44)" height="5px" width="5px" x="56px" y="32px" /><rect fill="rgb(54,78,44)" height="5px" width="5px" x="60px" y="32px" /><rect fill="rgb(54,78,44)" height="5px" width="5px" x="24px" y="36px" /><rect fill="rgb(54,78,44)" height="5px" width="5px" x="28px" y="36px" /><rect fill="rgb(54,78,44)" height="5px" width="5px" x="32px" y="36px" /><rect fill="rgb(54,78,44)" height="5px" width="5px" x="48px" y="36px" /><rect fill="rgb(54,78,44)" height="5px" width="5px" x="52px" y="36px" /><rect fill="rgb(54,78,44)" height="5px" width="5px" x="56px" y="36px" /><rect fill="rgb(54,78,44)" height="5px" width="5px" x="60px" y="36px" /><rect fill="rgb(54,78,44)" height="5px" width="5px" x="24px" y="40px" /><rect fill="rgb(54,78,44)" height="5px" width="5px" x="28px" y="40px" /><rect fill="rgb(54,78,44)" height="5px" width="5px" x="32px" y="40px" /><rect fill="rgb(54,78,44)" height="5px" width="5px" x="36px" y="40px" /><rect fill="rgb(54,78,44)" height="5px" width="5px" x="48px" y="40px" /><rect fill="rgb(54,78,44)" height="5px" width="5px" x="52px" y="40px" /><rect fill="rgb(54,78,44)" height="5px" width="5px" x="56px" y="40px" /><rect fill="rgb(54,78,44)" height="5px" width="5px" x="60px" y="40px" /><rect fill="rgb(54,78,44)" height="5px" width="5px" x="24px" y="44px" /><rect fill="rgb(54,78,44)" height="5px" width="5px" x="28px" y="44px" /><rect fill="rgb(54,78,44)" height="5px" width="5px" x="32px" y="44px" /><rect fill="rgb(54,78,44)" height="5px" width="5px" x="36px" y="44px" /><rect fill="rgb(54,78,44)" height="5px" width="5px" x="40px" y="44px" /><rect fill="rgb(54,78,44)" height="5px" width="5px" x="48px" y="44px" /><rect fill="rgb(54,78,44)" height="5px" width="5px" x="52px" y="44px" /><rect fill="rgb(54,78,44)" height="5px" width="5px" x="56px" y="44px" /><rect fill="rgb(54,78,44)" height="5px" width="5px" x="60px" y="44px" /><rect fill="rgb(54,78,44)" height="5px" width="5px" x="28px" y="48px" /><rect fill="rgb(54,78,44)" height="5px" width="5px" x="32px" y="48px" /><rect fill="rgb(54,78,44)" height="5px" width="5px" x="36px" y="48px" /><rect fill="rgb(54,78,44)" height="5px" width="5px" x="40px" y="48px" /><rect fill="rgb(54,78,44)" height="5px" width="5px" x="44px" y="48px" /><rect fill="rgb(54,78,44)" height="5px" width="5px" x="48px" y="48px" /><rect fill="rgb(54,78,44)" height="5px" width="5px" x="52px" y="48px" /><rect fill="rgb(54,78,44)" height="5px" width="5px" x="56px" y="48px" /><rect fill="rgb(54,78,44)" height="5px" width="5px" x="60px" y="48px" /><rect fill="rgb(54,78,44)" height="5px" width="5px" x="28px" y="52px" /><rect fill="rgb(54,78,44)" height="5px" width="5px" x="32px" y="52px" /><rect fill="rgb(54,78,44)" height="5px" width="5px" x="36px" y="52px" /><rect fill="rgb(54,78,44)" height="5px" width="5px" x="40px" y="52px" /><rect fill="rgb(54,78,44)" height="5px" width="5px" x="44px" y="52px" /><rect fill="rgb(54,78,44)" height="5px" width="5px" x="48px" y="52px" /><rect fill="rgb(54,78,44)" height="5px" width="5px" x="52px" y="52px" /><rect fill="rgb(54,78,44)" height="5px" width="5px" x="56px" y="52px" /><rect fill="rgb(54,78,44)" height="5px" width="5px" x="60px" y="52px" /><rect fill="rgb(54,78,44)" height="5px" width="5px" x="64px" y="52px" /><rect fill="rgb(54,78,44)" height="5px" width="5px" x="68px" y="52px" /><rect fill="rgb(54,78,44)" height="5px" width="5px" x="72px" y="52px" /><rect fill="rgb(54,78,44)" height="5px" width="5px" x="32px" y="56px" /><rect fill="rgb(54,78,44)" height="5px" width="5px" x="36px" y="56px" /><rect fill="rgb(54,78,44)" height="5px" width="5px" x="40px" y="56px" /><rect fill="rgb(54,78,44)" height="5px" width="5px" x="44px" y="56px" /><rect fill="rgb(54,78,44)" height="5px" width="5px" x="48px" y="56px" /><rect fill="rgb(54,78,44)" height="5px" width="5px" x="52px" y="56px" /><rect fill="rgb(54,78,44)" height="5px" width="5px" x="56px" y="56px" /><rect fill="rgb(54,78,44)" height="5px" width="5px" x="60px" y="56px" /><rect fill="rgb(54,78,44)" height="5px" width="5px" x="64px" y="56px" /><rect fill="rgb(54,78,44)" height="5px" width="5px" x="68px" y="56px" /><rect fill="rgb(54,78,44)" height="5px" width="5px" x="72px" y="56px" /><rect fill="rgb(54,78,44)" height="5px" width="5px" x="76px" y="56px" /><rect fill="rgb(54,78,44)" height="5px" width="5px" x="80px" y="56px" /><rect fill="rgb(54,78,44)" height="5px" width="5px" x="40px" y="60px" /><rect fill="rgb(54,78,44)" height="5px" width="5px" x="44px" y="60px" /><rect fill="rgb(54,78,44)" height="5px" width="5px" x="48px" y="60px" /><rect fill="rgb(54,78,44)" height="5px" width="5px" x="52px" y="60px" /><rect fill="rgb(54,78,44)" height="5px" width="5px" x="56px" y="60px" /><rect fill="rgb(54,78,44)" height="5px" width="5px" x="60px" y="60px" /><rect fill="rgb(54,78,44)" height="5px" width="5px" x="64px" y="60px" /><rect fill="rgb(54,78,44)" height="5px" width="5px" x="68px" y="60px" /><rect fill="rgb(54,78,44)" height="5px" width="5px" x="72px" y="60px" /><rect fill="rgb(54,78,44)" height="5px" width="5px" x="76px" y="60px" /><rect fill="rgb(54,78,44)" height="5px" width="5px" x="80px" y="60px" /><rect fill="rgb(54,78,44)" height="5px" width="5px" x="84px" y="60px" /><rect fill="rgb(54,78,44)" height="5px" width="5px" x="48px" y="64px" /><rect fill="rgb(54,78,44)" height="5px" width="5px" x="52px" y="64px" /><rect fill="rgb(54,78,44)" height="5px" width="5px" x="56px" y="64px" /><rect fill="rgb(54,78,44)" height="5px" width="5px" x="60px" y="64px" /><rect fill="rgb(54,78,44)" height="5px" width="5px" x="64px" y="64px" /><rect fill="rgb(54,78,44)" height="5px" width="5px" x="68px" y="64px" /><rect fill="rgb(54,78,44)" height="5px" width="5px" x="72px" y="64px" /><rect fill="rgb(54,78,44)" height="5px" width="5px" x="76px" y="64px" /><rect fill="rgb(54,78,44)" height="5px" width="5px" x="80px" y="64px" /><rect fill="rgb(54,78,44)" height="5px" width="5px" x="84px" y="64px" /><rect fill="rgb(54,78,44)" height="5px" width="5px" x="88px" y="64px" /><rect fill="rgb(54,78,44)" height="5px" width="5px" x="48px" y="68px" /><rect fill="rgb(54,78,44)" height="5px" width="5px" x="52px" y="68px" /><rect fill="rgb(54,78,44)" height="5px" width="5px" x="56px" y="68px" /><rect fill="rgb(54,78,44)" height="5px" width="5px" x="60px" y="68px" /><rect fill="rgb(54,78,44)" height="5px" width="5px" x="72px" y="68px" /><rect fill="rgb(54,78,44)" height="5px" width="5px" x="76px" y="68px" /><rect fill="rgb(54,78,44)" height="5px" width="5px" x="80px" y="68px" /><rect fill="rgb(54,78,44)" height="5px" width="5px" x="84px" y="68px" /><rect fill="rgb(54,78,44)" height="5px" width="5px" x="88px" y="68px" /><rect fill="rgb(54,78,44)" height="5px" width="5px" x="48px" y="72px" /><rect fill="rgb(54,78,44)" height="5px" width="5px" x="52px" y="72px" /><rect fill="rgb(54,78,44)" height="5px" width="5px" x="56px" y="72px" /><rect fill="rgb(54,78,44)" height="5px" width="5px" x="60px" y="72px" /><rect fill="rgb(54,78,44)" height="5px" width="5px" x="76px" y="72px" /><rect fill="rgb(54,78,44)" height="5px" width="5px" x="80px" y="72px" /><rect fill="rgb(54,78,44)" height="5px" width="5px" x="84px" y="72px" /><rect fill="rgb(54,78,44)" height="5px" width="5px" x="88px" y="72px" /><rect fill="rgb(54,78,44)" height="5px" width="5px" x="48px" y="76px" /><rect fill="rgb(54,78,44)" height="5px" width="5px" x="52px" y="76px" /><rect fill="rgb(54,78,44)" height="5px" width="5px" x="56px" y="76px" /><rect fill="rgb(54,78,44)" height="5px" width="5px" x="60px" y="76px" /><rect fill="rgb(54,78,44)" height="5px" width="5px" x="80px" y="76px" /><rect fill="rgb(54,78,44)" height="5px" width="5px" x="84px" y="76px" /><rect fill="rgb(54,78,44)" height="5px" width="5px" x="88px" y="76px" /><rect fill="rgb(54,78,44)" height="5px" width="5px" x="92px" y="76px" /><rect fill="rgb(54,78,44)" height="5px" width="5px" x="48px" y="80px" /><rect fill="rgb(54,78,44)" height="5px" width="5px" x="52px" y="80px" /><rect fill="rgb(54,78,44)" height="5px" width="5px" x="56px" y="80px" /><rect fill="rgb(54,78,44)" height="5px" width="5px" x="60px" y="80px" /><rect fill="rgb(54,78,44)" height="5px" width="5px" x="80px" y="80px" /><rect fill="rgb(54,78,44)" height="5px" width="5px" x="84px" y="80px" /><rect fill="rgb(54,78,44)" height="5px" width="5px" x="88px" y="80px" /><rect fill="rgb(54,78,44)" height="5px" width="5px" x="92px" y="80px" /><rect fill="rgb(54,78,44)" height="5px" width="5px" x="48px" y="84px" /><rect fill="rgb(54,78,44)" height="5px" width="5px" x="52px" y="84px" /><rect fill="rgb(54,78,44)" height="5px" width="5px" x="56px" y="84px" /><rect fill="rgb(54,78,44)" height="5px" width="5px" x="60px" y="84px" /><rect fill="rgb(54,78,44)" height="5px" width="5px" x="80px" y="84px" /><rect fill="rgb(54,78,44)" height="5px" width="5px" x="84px" y="84px" /><rect fill="rgb(54,78,44)" height="5px" width="5px" x="88px" y="84px" /><rect fill="rgb(54,78,44)" height="5px" width="5px" x="92px" y="84px" /><rect fill="rgb(54,78,44)" height="5px" width="5px" x="48px" y="88px" /><rect fill="rgb(54,78,44)" height="5px" width="5px" x="52px" y="88px" /><rect fill="rgb(54,78,44)" height="5px" width="5px" x="56px" y="88px" /><rect fill="rgb(54,78,44)" height="5px" width="5px" x="60px" y="88px" /><rect fill="rgb(54,78,44)" height="5px" width="5px" x="84px" y="88px" /><rect fill="rgb(54,78,44)" height="5px" width="5px" x="88px" y="88px" /><rect fill="rgb(54,78,44)" height="5px" width="5px" x="92px" y="88px" /><rect fill="rgb(54,78,44)" height="5px" width="5px" x="48px" y="92px" /><rect fill="rgb(54,78,44)" height="5px" width="5px" x="52px" y="92px" /><rect fill="rgb(54,78,44)" height="5px" width="5px" x="56px" y="92px" /><rect fill="rgb(54,78,44)" height="5px" width="5px" x="60px" y="92px" /><rect fill="rgb(54,78,44)" height="5px" width="5px" x="84px" y="92px" /><rect fill="rgb(54,78,44)" height="5px" width="5px" x="88px" y="92px" /><rect fill="rgb(54,78,44)" height="5px" width="5px" x="92px" y="92px" /><rect fill="rgb(54,78,44)" height="5px" width="5px" x="48px" y="96px" /><rect fill="rgb(54,78,44)" height="5px" width="5px" x="52px" y="96px" /><rect fill="rgb(54,78,44)" height="5px" width="5px" x="56px" y="96px" /><rect fill="rgb(54,78,44)" height="5px" width="5px" x="60px" y="96px" /><rect fill="rgb(54,78,44)" height="5px" width="5px" x="80px" y="96px" /><rect fill="rgb(54,78,44)" height="5px" width="5px" x="84px" y="96px" /><rect fill="rgb(54,78,44)" height="5px" width="5px" x="88px" y="96px" /><rect fill="rgb(54,78,44)" height="5px" width="5px" x="92px" y="96px" /><rect fill="rgb(54,78,44)" height="5px" width="5px" x="48px" y="100px" /><rect fill="rgb(54,78,44)" height="5px" width="5px" x="52px" y="100px" /><rect fill="rgb(54,78,44)" height="5px" width="5px" x="56px" y="100px" /><rect fill="rgb(54,78,44)" height="5px" width="5px" x="60px" y="100px" /><rect fill="rgb(54,78,44)" height="5px" width="5px" x="80px" y="100px" /><rect fill="rgb(54,78,44)" height="5px" width="5px" x="84px" y="100px" /><rect fill="rgb(54,78,44)" height="5px" width="5px" x="88px" y="100px" /><rect fill="rgb(54,78,44)" height="5px" width="5px" x="92px" y="100px" /><rect fill="rgb(54,78,44)" height="5px" width="5px" x="48px" y="104px" /><rect fill="rgb(54,78,44)" height="5px" width="5px" x="52px" y="104px" /><rect fill="rgb(54,78,44)" height="5px" width="5px" x="56px" y="104px" /><rect fill="rgb(54,78,44)" height="5px" width="5px" x="60px" y="104px" /><rect fill="rgb(54,78,44)" height="5px" width="5px" x="76px" y="104px" /><rect fill="rgb(54,78,44)" height="5px" width="5px" x="80px" y="104px" /><rect fill="rgb(54,78,44)" height="5px" width="5px" x="84px" y="104px" /><rect fill="rgb(54,78,44)" height="5px" width="5px" x="88px" y="104px" /><rect fill="rgb(54,78,44)" height="5px" width="5px" x="92px" y="104px" /><rect fill="rgb(54,78,44)" height="5px" width="5px" x="28px" y="108px" /><rect fill="rgb(54,78,44)" height="5px" width="5px" x="32px" y="108px" /><rect fill="rgb(54,78,44)" height="5px" width="5px" x="36px" y="108px" /><rect fill="rgb(54,78,44)" height="5px" width="5px" x="40px" y="108px" /><rect fill="rgb(54,78,44)" height="5px" width="5px" x="44px" y="108px" /><rect fill="rgb(54,78,44)" height="5px" width="5px" x="48px" y="108px" /><rect fill="rgb(54,78,44)" height="5px" width="5px" x="52px" y="108px" /><rect fill="rgb(54,78,44)" height="5px" width="5px" x="56px" y="108px" /><rect fill="rgb(54,78,44)" height="5px" width="5px" x="60px" y="108px" /><rect fill="rgb(54,78,44)" height="5px" width="5px" x="72px" y="108px" /><rect fill="rgb(54,78,44)" height="5px" width="5px" x="76px" y="108px" /><rect fill="rgb(54,78,44)" height="5px" width="5px" x="80px" y="108px" /><rect fill="rgb(54,78,44)" height="5px" width="5px" x="84px" y="108px" /><rect fill="rgb(54,78,44)" height="5px" width="5px" x="88px" y="108px" /><rect fill="rgb(54,78,44)" height="5px" width="5px" x="28px" y="112px" /><rect fill="rgb(54,78,44)" height="5px" width="5px" x="32px" y="112px" /><rect fill="rgb(54,78,44)" height="5px" width="5px" x="36px" y="112px" /><rect fill="rgb(54,78,44)" height="5px" width="5px" x="40px" y="112px" /><rect fill="rgb(54,78,44)" height="5px" width="5px" x="44px" y="112px" /><rect fill="rgb(54,78,44)" height="5px" width="5px" x="48px" y="112px" /><rect fill="rgb(54,78,44)" height="5px" width="5px" x="52px" y="112px" /><rect fill="rgb(54,78,44)" height="5px" width="5px" x="56px" y="112px" /><rect fill="rgb(54,78,44)" height="5px" width="5px" x="60px" y="112px" /><rect fill="rgb(54,78,44)" height="5px" width="5px" x="64px" y="112px" /><rect fill="rgb(54,78,44)" height="5px" width="5px" x="68px" y="112px" /><rect fill="rgb(54,78,44)" height="5px" width="5px" x="72px" y="112px" /><rect fill="rgb(54,78,44)" height="5px" width="5px" x="76px" y="112px" /><rect fill="rgb(54,78,44)" height="5px" width="5px" x="80px" y="112px" /><rect fill="rgb(54,78,44)" height="5px" width="5px" x="84px" y="112px" /><rect fill="rgb(54,78,44)" height="5px" width="5px" x="88px" y="112px" /><rect fill="rgb(54,78,44)" height="5px" width="5px" x="28px" y="116px" /><rect fill="rgb(54,78,44)" height="5px" width="5px" x="32px" y="116px" /><rect fill="rgb(54,78,44)" height="5px" width="5px" x="36px" y="116px" /><rect fill="rgb(54,78,44)" height="5px" width="5px" x="40px" y="116px" /><rect fill="rgb(54,78,44)" height="5px" width="5px" x="44px" y="116px" /><rect fill="rgb(54,78,44)" height="5px" width="5px" x="48px" y="116px" /><rect fill="rgb(54,78,44)" height="5px" width="5px" x="52px" y="116px" /><rect fill="rgb(54,78,44)" height="5px" width="5px" x="56px" y="116px" /><rect fill="rgb(54,78,44)" height="5px" width="5px" x="60px" y="116px" /><rect fill="rgb(54,78,44)" height="5px" width="5px" x="64px" y="116px" /><rect fill="rgb(54,78,44)" height="5px" width="5px" x="68px" y="116px" /><rect fill="rgb(54,78,44)" height="5px" width="5px" x="72px" y="116px" /><rect fill="rgb(54,78,44)" height="5px" width="5px" x="76px" y="116px" /><rect fill="rgb(54,78,44)" height="5px" width="5px" x="80px" y="116px" /><rect fill="rgb(54,78,44)" height="5px" width="5px" x="84px" y="116px" /><rect fill="rgb(54,78,44)" height="5px" width="5px" x="48px" y="120px" /><rect fill="rgb(54,78,44)" height="5px" width="5px" x="52px" y="120px" /><rect fill="rgb(54,78,44)" height="5px" width="5px" x="56px" y="120px" /><rect fill="rgb(54,78,44)" height="5px" width="5px" x="60px" y="120px" /><rect fill="rgb(54,78,44)" height="5px" width="5px" x="64px" y="120px" /><rect fill="rgb(54,78,44)" height="5px" width="5px" x="68px" y="120px" /><rect fill="rgb(54,78,44)" height="5px" width="5px" x="72px" y="120px" /><rect fill="rgb(54,78,44)" height="5px" width="5px" x="76px" y="120px" /><rect fill="rgb(54,78,44)" height="5px" width="5px" x="80px" y="120px" /><rect fill="rgb(54,78,44)" height="5px" width="5px" x="48px" y="124px" /><rect fill="rgb(54,78,44)" height="5px" width="5px" x="52px" y="124px" /><rect fill="rgb(54,78,44)" height="5px" width="5px" x="56px" y="124px" /><rect fill="rgb(54,78,44)" height="5px" width="5px" x="60px" y="124px" /></svg>