<?xml version="1.0" encoding="utf-8" ?>
<svg baseProfile="full" height="128px" version="1.1" width="128px" xmlns="http://www.w3.org/2000/svg" xmlns:ev="http://www.w3.org/2001/xml-events" xmlns:xlink="http://www.w3.org/1999/xlink"><defs /><rect fill="rgb(181,255,251)" height="5px" width="5px" x="52px" y="12px" /><rect fill="rgb(181,255,251)" height="5px" width="5px" x="56px" y="12px" /><rect fill="rgb(181,255,251)" height="5px" width="5px" x="60px" y="12px" /><rect fill="rgb(181,255,251)" height="5px" width="5px" x="64px" y="12px" /><rect fill="rgb(181,255,251)" height="5px" width="5px" x="68px" y="12px" /><rect fill="rgb(181,255,251)" height="5px" width="5px" x="52px" y="16px" /><rect fill="rgb(181,255,251)" height="5px" width="5px" x="68px" y="16px" /><rect fill="rgb(181,255,251)" height="5px" width="5px" x="52px" y="20px" /><rect fill="rgb(181,255,251)" height="5px" width="5px" x="68px" y="20px" /><rect fill="rgb(181,255,251)" height="5px" width="5px" x="52px" y="24px" /><rect fill="rgb(181,255,251)" height="5px" width="5px" x="68px" y="24px" /><rect fill="rgb(181,255,251)" height="5px" width="5px" x="52px" y="28px" /><rect fill="rgb(181,255,251)" height="5px" width="5px" x="68px" y="28px" /><rect fill="rgb(181,255,251)" height="5px" width="5px" x="52px" y="32px" /><rect fill="rgb(181,255,251)" height="5px" width="5px" x="68px" y="32px" /><rect fill="rgb(181,255,251)" height="5px" width="5px" x="52px" y="36px" /><rect fill="rgb(181,255,251)" height="5px" width="5px" x="68px" y="36px" /><rect fill="rgb(181,255,251)" height="5px" width="5px" x="52px" y="40px" /><rect fill="rgb(181,255,251)" height="5px" width="5px" x="68px" y="40px" /><rect fill="rgb(181,255,251)" height="5px" width="5px" x="52px" y="44px" /><rect fill="rgb(181,255,251)" height="5px" width="5px" x="68px" y="44px" /><rect fill="rgb(181,255,251)" height="5px" width="5px" x="52px" y="48px" /><rect fill="rgb(181,255,251)" height="5px" width="5px" x="68px" y="48px" /><rect fill="rgb(181,255,251)" height="5px" width="5px" x="52px" y="52px" /><rect fill="rgb(181,255,251)" height="5px" width="5px" x="68px" y="52px" /><rect fill="rgb(181,255,251)" height="5px" width="5px" x="52px" y="56px" /><rect fill="rgb(181,255,251)" height="5px" width="5px" x="68px" y="56px" /><rect fill="rgb(181,255,251)" height="5px" width="5px" x="44px" y="60px" /><rect fill="rgb(181,255,251)" height="5px" width="5px" x="48px" y="60px" /><rect fill="rgb(181,255,251)" height="5px" width="5px" x="52px" y="60px" /><rect fill="rgb(181,255,251)" height="5px" width="5px" x="56px" y="60px" /><rect fill="rgb(181,255,251)" height="5px" width="5px" x="60px" y="60px" /><rect fill="rgb(181,255,251)" height="5px" width="5px" x="64px" y="60px" /><rect fill="rgb(181,255,251)" height="5px" width="5px" x="68px" y="60px" /><rect fill="rgb(181,255,251)" height="5px" width="5px" x="72px" y="60px" /><rect fill="rgb(181,255,251)" height="5px" width="5px" x="76px" y="60px" /><rect fill="rgb(181,255,251)" height="5px" width="5px" x="40px" y="64px" /><rect fill="rgb(181,255,251)" height="5px" width="5px" x="44px" y="64px" /><rect fill="rgb(181,255,251)" height="5px" width="5px" x="80px" y="64px" /><rect fill="rgb(181,255,251)" height="5px" width="5px" x="36px" y="68px" /><rect fill="rgb(181,255,251)" height="5px" width="5px" x="84px" y="68px" /><rect fill="rgb(181,255,251)" height="5px" width="5px" x="36px" y="72px" /><rect fill="rgb(181,255,251)" height="5px" width="5px" x="84px" y="72px" /><rect fill="rgb(181,255,251)" height="5px" width="5px" x="88px" y="72px" /><rect fill="rgb(181,255,251)" height="5px" width="5px" x="32px" y="76px" /><rect fill="rgb(165,232,229)" height="5px" width="5px" x="88px" y="76px" /><rect fill="rgb(181,255,251)" height="5px" width="5px" x="32px" y="80px" /><rect fill="rgb(238,98,0)" height="5px" width="5px" x="44px" y="80px" /><rect fill="rgb(255,106,0)" height="5px" width="5px" x="48px" y="80px" /><rect fill="rgb(255,115,15)" height="5px" width="5px" x="52px" y="80px" /><rect fill="rgb(255,133,46)" height="5px" width="5px" x="56px" y="80px" /><rect fill="rgb(255,133,46)" height="5px" width="5px" x="60px" y="80px" /><rect fill="rgb(255,133,46)" height="5px" width="5px" x="64px" y="80px" /><rect fill="rgb(255,133,46)" height="5px" width="5px" x="68px" y="80px" /><rect fill="rgb(255,115,15)" height="5px" width="5px" x="72px" y="80px" /><rect fill="rgb(255,115,15)" height="5px" width="5px" x="76px" y="80px" /><rect fill="rgb(238,98,0)" height="5px" width="5px" x="80px" y="80px" /><rect fill="rgb(165,232,229)" height="5px" width="5px" x="88px" y="80px" /><rect fill="rgb(181,255,251)" height="5px" width="5px" x="32px" y="84px" /><rect fill="rgb(215,89,0)" height="5px" width="5px" x="40px" y="84px" /><rect fill="rgb(255,149,74)" height="5px" width="5px" x="44px" y="84px" /><rect fill="rgb(255,149,74)" height="5px" width="5px" x="48px" y="84px" /><rect fill="rgb(255,149,74)" height="5px" width="5px" x="52px" y="84px" /><rect fill="rgb(255,149,74)" height="5px" width="5px" x="56px" y="84px" /><rect fill="rgb(255,149,74)" height="5px" width="5px" x="60px" y="84px" /><rect fill="rgb(255,149,74)" height="5px" width="5px" x="64px" y="84px" /><rect fill="rgb(255,149,74)" height="5px" width="5px" x="68px" y="84px" /><rect fill="rgb(255,149,74)" height="5px" width="5px" x="72px" y="84px" /><rect fill="rgb(255,149,74)" height="5px" width="5px" x="76px" y="84px" /><rect fill="rgb(255,149,74)" height="5px" width="5px" x="80px" y="84px" /><rect fill="rgb(215,89,0)" height="5px" width="5px" x="84px" y="84px" /><rect fill="rgb(158,222,219)" height="5px" width="5px" x="92px" y="84px" /><rect fill="rgb(181,255,251)" height="5px" width="5px" x="32px" y="88px" /><rect fill="rgb(215,89,0)" height="5px" width="5px" x="36px" y="88px" /><rect fill="rgb(220,127,61)" height="5px" width="5px" x="40px" y="88px" /><rect fill="rgb(220,127,61)" height="5px" width="5px" x="44px" y="88px" /><rect fill="rgb(255,149,74)" height="5px" width="5px" x="48px" y="88px" /><rect fill="rgb(255,149,74)" height="5px" width="5px" x="52px" y="88px" /><rect fill="rgb(255,149,74)" height="5px" width="5px" x="56px" y="88px" /><rect fill="rgb(255,149,74)" height="5px" width="5px" x="60px" y="88px" /><rect fill="rgb(255,149,74)" height="5px" width="5px" x="64px" y="88px" /><rect fill="rgb(255,149,74)" height="5px" width="5px" x="68px" y="88px" /><rect fill="rgb(255,149,74)" height="5px" width="5px" x="72px" y="88px" /><rect fill="rgb(255,149,74)" height="5px" width="5px" x="76px" y="88px" /><rect fill="rgb(220,127,61)" height="5px" width="5px" x="80px" y="88px" /><rect fill="rgb(220,127,61)" height="5px" width="5px" x="84px" y="88px" /><rect fill="rgb(215,89,0)" height="5px" width="5px" x="88px" y="88px" /><rect fill="rgb(158,222,219)" height="5px" width="5px" x="92px" y="88px" /><rect fill="rgb(181,255,251)" height="5px" width="5px" x="32px" y="92px" /><rect fill="rgb(215,89,0)" height="5px" width="5px" x="36px" y="92px" /><rect fill="rgb(215,89,0)" height="5px" width="5px" x="40px" y="92px" /><rect fill="rgb(220,127,61)" height="5px" width="5px" x="44px" y="92px" /><rect fill="rgb(255,149,74)" height="5px" width="5px" x="48px" y="92px" /><rect fill="rgb(255,149,74)" height="5px" width="5px" x="52px" y="92px" /><rect fill="rgb(255,149,74)" height="5px" width="5px" x="56px" y="92px" /><rect fill="rgb(255,149,74)" height="5px" width="5px" x="60px" y="92px" /><rect fill="rgb(255,149,74)" height="5px" width="5px" x="64px" y="92px" /><rect fill="rgb(255,149,74)" height="5px" width="5px" x="68px" y="92px" /><rect fill="rgb(255,149,74)" height="5px" width="5px" x="72px" y="92px" /><rect fill="rgb(220,127,61)" height="5px" width="5px" x="76px" y="92px" /><rect fill="rgb(215,89,0)" height="5px" width="5px" x="80px" y="92px" /><rect fill="rgb(215,89,0)" height="5px" width="5px" x="84px" y="92px" /><rect fill="rgb(158,222,219)" height="5px" width="5px" x="88px" y="92px" /><rect fill="rgb(181,255,251)" height="5px" width="5px" x="32px" y="96px" /><rect fill="rgb(255,125,33)" height="5px" width="5px" x="36px" y="96px" /><rect fill="rgb(215,89,0)" height="5px" width="5px" x="40px" y="96px" /><rect fill="rgb(255,106,0)" height="5px" width="5px" x="44px" y="96px" /><rect fill="rgb(255,106,0)" height="5px" width="5px" x="48px" y="96px" /><rect fill="rgb(255,106,0)" height="5px" width="5px" x="52px" y="96px" /><rect fill="rgb(255,106,0)" height="5px" width="5px" x="56px" y="96px" /><rect fill="rgb(255,106,0)" height="5px" width="5px" x="60px" y="96px" /><rect fill="rgb(255,106,0)" height="5px" width="5px" x="64px" y="96px" /><rect fill="rgb(255,106,0)" height="5px" width="5px" x="68px" y="96px" /><rect fill="rgb(255,106,0)" height="5px" width="5px" x="72px" y="96px" /><rect fill="rgb(255,106,0)" height="5px" width="5px" x="76px" y="96px" /><rect fill="rgb(215,89,0)" height="5px" width="5px" x="80px" y="96px" /><rect fill="rgb(255,125,33)" height="5px" width="5px" x="84px" y="96px" /><rect fill="rgb(158,222,219)" height="5px" width="5px" x="88px" y="96px" /><rect fill="rgb(181,255,251)" height="5px" width="5px" x="32px" y="100px" /><rect fill="rgb(255,125,33)" height="5px" width="5px" x="36px" y="100px" /><rect fill="rgb(255,125,33)" height="5px" width="5px" x="40px" y="100px" /><rect fill="rgb(255,125,33)" height="5px" width="5px" x="44px" y="100px" /><rect fill="rgb(255,125,33)" height="5px" width="5px" x="48px" y="100px" /><rect fill="rgb(255,125,33)" height="5px" width="5px" x="52px" y="100px" /><rect fill="rgb(255,125,33)" height="5px" width="5px" x="56px" y="100px" /><rect fill="rgb(255,125,33)" height="5px" width="5px" x="60px" y="100px" /><rect fill="rgb(255,125,33)" height="5px" width="5px" x="64px" y="100px" /><rect fill="rgb(255,125,33)" height="5px" width="5px" x="68px" y="100px" /><rect fill="rgb(255,125,33)" height="5px" width="5px" x="72px" y="100px" /><rect fill="rgb(255,125,33)" height="5px" width="5px" x="76px" y="100px" /><rect fill="rgb(255,125,33)" height="5px" width="5px" x="80px" y="100px" /><rect fill="rgb(255,125,33)" height="5px" width="5px" x="84px" y="100px" /><rect fill="rgb(143,202,199)" height="5px" width="5px" x="88px" y="100px" /><rect fill="rgb(181,255,251)" height="5px" width="5px" x="36px" y="104px" /><rect fill="rgb(255,125,33)" height="5px" width="5px" x="40px" y="104px" /><rect fill="rgb(255,125,33)" height="5px" width="5px" x="44px" y="104px" /><rect fill="rgb(255,125,33)" height="5px" width="5px" x="48px" y="104px" /><rect fill="rgb(255,125,33)" height="5px" width="5px" x="52px" y="104px" /><rect fill="rgb(255,125,33)" height="5px" width="5px" x="56px" y="104px" /><rect fill="rgb(255,125,33)" height="5px" width="5px" x="60px" y="104px" /><rect fill="rgb(255,125,33)" height="5px" width="5px" x="64px" y="104px" /><rect fill="rgb(255,125,33)" height="5px" width="5px" x="68px" y="104px" /><rect fill="rgb(255,125,33)" height="5px" width="5px" x="72px" y="104px" /><rect fill="rgb(255,125,33)" height="5px" width="5px" x="76px" y="104px" /><rect fill="rgb(255,125,33)" height="5px" width="5px" x="80px" y="104px" /><rect fill="rgb(143,202,199)" height="5px" width="5px" x="84px" y="104px" /><rect fill="rgb(181,255,251)" height="5px" width="5px" x="40px" y="108px" /><rect fill="rgb(255,125,33)" height="5px" width="5px" x="44px" y="108px" /><rect fill="rgb(255,125,33)" height="5px" width="5px" x="48px" y="108px" /><rect fill="rgb(255,125,33)" height="5px" width="5px" x="52px" y="108px" /><rect fill="rgb(255,125,33)" height="5px" width="5px" x="56px" y="108px" /><rect fill="rgb(255,125,33)" height="5px" width="5px" x="60px" y="108px" /><rect fill="rgb(255,125,33)" height="5px" width="5px" x="64px" y="108px" /><rect fill="rgb(255,125,33)" height="5px" width="5px" x="68px" y="108px" /><rect fill="rgb(255,125,33)" height="5px" width="5px" x="72px" y="108px" /><rect fill="rgb(255,125,33)" height="5px" width="5px" x="76px" y="108px" /><rect fill="rgb(143,202,199)" height="5px" width="5px" x="80px" y="108px" /><rect fill="rgb(143,202,199)" height="5px" width="5px" x="84px" y="108px" /><rect fill="rgb(181,255,251)" height="5px" width="5px" x="44px" y="112px" /><rect fill="rgb(255,125,33)" height="5px" width="5px" x="48px" y="112px" /><rect fill="rgb(255,125,33)" height="5px" width="5px" x="52px" y="112px" /><rect fill="rgb(255,125,33)" height="5px" width="5px" x="56px" y="112px" /><rect fill="rgb(255,125,33)" height="5px" width="5px" x="60px" y="112px" /><rect fill="rgb(255,125,33)" height="5px" width="5px" x="64px" y="112px" /><rect fill="rgb(255,125,33)" height="5px" width="5px" x="68px" y="112px" /><rect fill="rgb(255,125,33)" height="5px" width="5px" x="72px" y="112px" /><rect fill="rgb(143,202,199)" height="5px" width="5px" x="76px" y="112px" /><rect fill="rgb(143,202,199)" height="5px" width="5px" x="80px" y="112px" /><rect fill="rgb(181,255,251)" height="5px" width="5px" x="48px" y="116px" /><rect fill="rgb(181,255,251)" height="5px" width="5px" x="52px" y="116px" /><rect fill="rgb(181,255,251)" height="5px" width="5px" x="56px" y="116px" /><rect fill="rgb(165,232,229)" height="5px" width="5px" x="60px" y="116px" /><rect fill="rgb(165,232,229)" height="5px" width="5px" x="64px" y="116px" /><rect fill="rgb(158,222,219)" height="5px" width="5px" x="68px" y="116px" /><rect fill="rgb(143,202,199)" height="5px" width="5px" x="72px" y="116px" /></svg>