<?xml version="1.0" encoding="utf-8" ?>
<svg baseProfile="full" height="128px" version="1.1" width="128px" xmlns="http://www.w3.org/2000/svg" xmlns:ev="http://www.w3.org/2001/xml-events" xmlns:xlink="http://www.w3.org/1999/xlink"><defs /><rect fill="rgb(63,63,60)" height="5px" opacity="0.349019607843" width="5px" x="20px" y="12px" /><rect fill="rgb(63,63,60)" height="5px" opacity="0.333333333333" width="5px" x="24px" y="12px" /><rect fill="rgb(63,63,63)" height="5px" opacity="0.0313725490196" width="5px" x="28px" y="12px" /><rect fill="rgb(63,63,63)" height="5px" opacity="0.0313725490196" width="5px" x="96px" y="12px" /><rect fill="rgb(63,63,60)" height="5px" opacity="0.333333333333" width="5px" x="100px" y="12px" /><rect fill="rgb(63,63,60)" height="5px" opacity="0.349019607843" width="5px" x="104px" y="12px" /><rect fill="rgb(63,63,61)" height="5px" opacity="0.392156862745" width="5px" x="20px" y="16px" /><rect fill="rgb(64,64,60)" height="5px" width="5px" x="24px" y="16px" /><rect fill="rgb(64,64,60)" height="5px" width="5px" x="28px" y="16px" /><rect fill="rgb(62,62,59)" height="5px" opacity="0.941176470588" width="5px" x="32px" y="16px" /><rect fill="rgb(64,64,60)" height="5px" opacity="0.780392156863" width="5px" x="36px" y="16px" /><rect fill="rgb(66,66,55)" height="5px" opacity="0.0901960784314" width="5px" x="40px" y="16px" /><rect fill="rgb(66,66,55)" height="5px" opacity="0.0901960784314" width="5px" x="84px" y="16px" /><rect fill="rgb(64,64,60)" height="5px" opacity="0.780392156863" width="5px" x="88px" y="16px" /><rect fill="rgb(62,62,59)" height="5px" opacity="0.941176470588" width="5px" x="92px" y="16px" /><rect fill="rgb(64,64,60)" height="5px" width="5px" x="96px" y="16px" /><rect fill="rgb(64,64,60)" height="5px" width="5px" x="100px" y="16px" /><rect fill="rgb(63,63,61)" height="5px" opacity="0.392156862745" width="5px" x="104px" y="16px" /><rect fill="rgb(64,64,58)" height="5px" opacity="0.937254901961" width="5px" x="24px" y="20px" /><rect fill="rgb(64,64,60)" height="5px" width="5px" x="28px" y="20px" /><rect fill="rgb(64,64,60)" height="5px" width="5px" x="32px" y="20px" /><rect fill="rgb(64,64,60)" height="5px" width="5px" x="36px" y="20px" /><rect fill="rgb(64,64,58)" height="5px" opacity="0.937254901961" width="5px" x="40px" y="20px" /><rect fill="rgb(66,66,55)" height="5px" opacity="0.0901960784314" width="5px" x="44px" y="20px" /><rect fill="rgb(66,66,55)" height="5px" opacity="0.0901960784314" width="5px" x="80px" y="20px" /><rect fill="rgb(64,64,58)" height="5px" opacity="0.937254901961" width="5px" x="84px" y="20px" /><rect fill="rgb(64,64,60)" height="5px" width="5px" x="88px" y="20px" /><rect fill="rgb(64,64,60)" height="5px" width="5px" x="92px" y="20px" /><rect fill="rgb(64,64,60)" height="5px" width="5px" x="96px" y="20px" /><rect fill="rgb(64,64,58)" height="5px" opacity="0.937254901961" width="5px" x="100px" y="20px" /><rect fill="rgb(63,63,59)" height="5px" opacity="0.501960784314" width="5px" x="24px" y="24px" /><rect fill="rgb(64,64,60)" height="5px" width="5px" x="28px" y="24px" /><rect fill="rgb(64,64,60)" height="5px" width="5px" x="32px" y="24px" /><rect fill="rgb(64,64,60)" height="5px" width="5px" x="36px" y="24px" /><rect fill="rgb(64,64,60)" height="5px" width="5px" x="40px" y="24px" /><rect fill="rgb(64,64,58)" height="5px" opacity="0.952941176471" width="5px" x="44px" y="24px" /><rect fill="rgb(65,65,57)" height="5px" opacity="0.121568627451" width="5px" x="48px" y="24px" /><rect fill="rgb(65,65,57)" height="5px" opacity="0.121568627451" width="5px" x="76px" y="24px" /><rect fill="rgb(64,64,58)" height="5px" opacity="0.952941176471" width="5px" x="80px" y="24px" /><rect fill="rgb(64,64,60)" height="5px" width="5px" x="84px" y="24px" /><rect fill="rgb(64,64,60)" height="5px" width="5px" x="88px" y="24px" /><rect fill="rgb(64,64,60)" height="5px" width="5px" x="92px" y="24px" /><rect fill="rgb(64,64,60)" height="5px" width="5px" x="96px" y="24px" /><rect fill="rgb(63,63,59)" height="5px" opacity="0.501960784314" width="5px" x="100px" y="24px" /><rect fill="rgb(127,127,0)" height="5px" opacity="0.0078431372549" width="5px" x="24px" y="28px" /><rect fill="rgb(62,62,59)" height="5px" opacity="0.941176470588" width="5px" x="28px" y="28px" /><rect fill="rgb(64,64,60)" height="5px" width="5px" x="32px" y="28px" /><rect fill="rgb(64,64,60)" height="5px" width="5px" x="36px" y="28px" /><rect fill="rgb(64,64,60)" height="5px" width="5px" x="40px" y="28px" /><rect fill="rgb(64,64,60)" height="5px" width="5px" x="44px" y="28px" /><rect fill="rgb(63,63,60)" height="5px" opacity="0.960784313725" width="5px" x="48px" y="28px" /><rect fill="rgb(62,62,62)" height="5px" opacity="0.145098039216" width="5px" x="52px" y="28px" /><rect fill="rgb(62,62,62)" height="5px" opacity="0.145098039216" width="5px" x="72px" y="28px" /><rect fill="rgb(63,63,60)" height="5px" opacity="0.960784313725" width="5px" x="76px" y="28px" /><rect fill="rgb(64,64,60)" height="5px" width="5px" x="80px" y="28px" /><rect fill="rgb(64,64,60)" height="5px" width="5px" x="84px" y="28px" /><rect fill="rgb(64,64,60)" height="5px" width="5px" x="88px" y="28px" /><rect fill="rgb(64,64,60)" height="5px" width="5px" x="92px" y="28px" /><rect fill="rgb(62,62,59)" height="5px" opacity="0.941176470588" width="5px" x="96px" y="28px" /><rect fill="rgb(127,127,0)" height="5px" opacity="0.0078431372549" width="5px" x="100px" y="28px" /><rect fill="rgb(61,61,61)" height="5px" opacity="0.0980392156863" width="5px" x="28px" y="32px" /><rect fill="rgb(64,64,60)" height="5px" opacity="0.933333333333" width="5px" x="32px" y="32px" /><rect fill="rgb(64,64,60)" height="5px" width="5px" x="36px" y="32px" /><rect fill="rgb(64,64,60)" height="5px" width="5px" x="40px" y="32px" /><rect fill="rgb(64,64,60)" height="5px" width="5px" x="44px" y="32px" /><rect fill="rgb(64,64,60)" height="5px" width="5px" x="48px" y="32px" /><rect fill="rgb(64,64,58)" height="5px" opacity="0.96862745098" width="5px" x="52px" y="32px" /><rect fill="rgb(66,66,60)" height="5px" opacity="0.164705882353" width="5px" x="56px" y="32px" /><rect fill="rgb(66,66,60)" height="5px" opacity="0.164705882353" width="5px" x="68px" y="32px" /><rect fill="rgb(64,64,58)" height="5px" opacity="0.96862745098" width="5px" x="72px" y="32px" /><rect fill="rgb(64,64,60)" height="5px" width="5px" x="76px" y="32px" /><rect fill="rgb(64,64,60)" height="5px" width="5px" x="80px" y="32px" /><rect fill="rgb(64,64,60)" height="5px" width="5px" x="84px" y="32px" /><rect fill="rgb(64,64,60)" height="5px" width="5px" x="88px" y="32px" /><rect fill="rgb(64,64,60)" height="5px" opacity="0.933333333333" width="5px" x="92px" y="32px" /><rect fill="rgb(61,61,61)" height="5px" opacity="0.0980392156863" width="5px" x="96px" y="32px" /><rect fill="rgb(63,63,63)" height="5px" opacity="0.0627450980392" width="5px" x="32px" y="36px" /><rect fill="rgb(64,64,58)" height="5px" opacity="0.901960784314" width="5px" x="36px" y="36px" /><rect fill="rgb(64,64,60)" height="5px" width="5px" x="40px" y="36px" /><rect fill="rgb(64,64,60)" height="5px" width="5px" x="44px" y="36px" /><rect fill="rgb(64,64,60)" height="5px" width="5px" x="48px" y="36px" /><rect fill="rgb(64,64,60)" height="5px" width="5px" x="52px" y="36px" /><rect fill="rgb(64,64,58)" height="5px" opacity="0.96862745098" width="5px" x="56px" y="36px" /><rect fill="rgb(63,63,57)" height="5px" opacity="0.172549019608" width="5px" x="60px" y="36px" /><rect fill="rgb(63,63,57)" height="5px" opacity="0.172549019608" width="5px" x="64px" y="36px" /><rect fill="rgb(64,64,58)" height="5px" opacity="0.96862745098" width="5px" x="68px" y="36px" /><rect fill="rgb(64,64,60)" height="5px" width="5px" x="72px" y="36px" /><rect fill="rgb(64,64,60)" height="5px" width="5px" x="76px" y="36px" /><rect fill="rgb(64,64,60)" height="5px" width="5px" x="80px" y="36px" /><rect fill="rgb(64,64,60)" height="5px" width="5px" x="84px" y="36px" /><rect fill="rgb(64,64,58)" height="5px" opacity="0.901960784314" width="5px" x="88px" y="36px" /><rect fill="rgb(63,63,63)" height="5px" opacity="0.0627450980392" width="5px" x="92px" y="36px" /><rect fill="rgb(63,63,63)" height="5px" opacity="0.0313725490196" width="5px" x="36px" y="40px" /><rect fill="rgb(62,62,60)" height="5px" opacity="0.862745098039" width="5px" x="40px" y="40px" /><rect fill="rgb(64,64,60)" height="5px" width="5px" x="44px" y="40px" /><rect fill="rgb(64,64,60)" height="5px" width="5px" x="48px" y="40px" /><rect fill="rgb(64,64,60)" height="5px" width="5px" x="52px" y="40px" /><rect fill="rgb(64,64,60)" height="5px" width="5px" x="56px" y="40px" /><rect fill="rgb(63,63,60)" height="5px" opacity="0.976470588235" width="5px" x="60px" y="40px" /><rect fill="rgb(63,63,60)" height="5px" opacity="0.976470588235" width="5px" x="64px" y="40px" /><rect fill="rgb(64,64,60)" height="5px" width="5px" x="68px" y="40px" /><rect fill="rgb(64,64,60)" height="5px" width="5px" x="72px" y="40px" /><rect fill="rgb(64,64,60)" height="5px" width="5px" x="76px" y="40px" /><rect fill="rgb(64,64,60)" height="5px" width="5px" x="80px" y="40px" /><rect fill="rgb(62,62,60)" height="5px" opacity="0.862745098039" width="5px" x="84px" y="40px" /><rect fill="rgb(63,63,63)" height="5px" opacity="0.0313725490196" width="5px" x="88px" y="40px" /><rect fill="rgb(127,127,0)" height="5px" opacity="0.0078431372549" width="5px" x="40px" y="44px" /><rect fill="rgb(64,64,60)" height="5px" opacity="0.780392156863" width="5px" x="44px" y="44px" /><rect fill="rgb(64,64,60)" height="5px" width="5px" x="48px" y="44px" /><rect fill="rgb(64,64,60)" height="5px" width="5px" x="52px" y="44px" /><rect fill="rgb(64,64,60)" height="5px" width="5px" x="56px" y="44px" /><rect fill="rgb(64,64,60)" height="5px" width="5px" x="60px" y="44px" /><rect fill="rgb(64,64,60)" height="5px" width="5px" x="64px" y="44px" /><rect fill="rgb(64,64,60)" height="5px" width="5px" x="68px" y="44px" /><rect fill="rgb(64,64,60)" height="5px" width="5px" x="72px" y="44px" /><rect fill="rgb(64,64,60)" height="5px" width="5px" x="76px" y="44px" /><rect fill="rgb(64,64,60)" height="5px" opacity="0.780392156863" width="5px" x="80px" y="44px" /><rect fill="rgb(127,127,0)" height="5px" opacity="0.0078431372549" width="5px" x="84px" y="44px" /><rect fill="rgb(62,62,59)" height="5px" opacity="0.705882352941" width="5px" x="48px" y="48px" /><rect fill="rgb(64,64,60)" height="5px" width="5px" x="52px" y="48px" /><rect fill="rgb(64,64,60)" height="5px" width="5px" x="56px" y="48px" /><rect fill="rgb(64,64,60)" height="5px" width="5px" x="60px" y="48px" /><rect fill="rgb(64,64,60)" height="5px" width="5px" x="64px" y="48px" /><rect fill="rgb(64,64,60)" height="5px" width="5px" x="68px" y="48px" /><rect fill="rgb(64,64,60)" height="5px" width="5px" x="72px" y="48px" /><rect fill="rgb(62,62,59)" height="5px" opacity="0.705882352941" width="5px" x="76px" y="48px" /><rect fill="rgb(62,62,59)" height="5px" opacity="0.270588235294" width="5px" x="48px" y="52px" /><rect fill="rgb(64,64,60)" height="5px" opacity="0.996078431373" width="5px" x="52px" y="52px" /><rect fill="rgb(64,64,60)" height="5px" width="5px" x="56px" y="52px" /><rect fill="rgb(64,64,60)" height="5px" width="5px" x="60px" y="52px" /><rect fill="rgb(64,64,60)" height="5px" width="5px" x="64px" y="52px" /><rect fill="rgb(64,64,60)" height="5px" width="5px" x="68px" y="52px" /><rect fill="rgb(64,64,60)" height="5px" opacity="0.996078431373" width="5px" x="72px" y="52px" /><rect fill="rgb(62,62,59)" height="5px" opacity="0.270588235294" width="5px" x="76px" y="52px" /><rect fill="rgb(63,63,60)" height="5px" opacity="0.282352941176" width="5px" x="44px" y="56px" /><rect fill="rgb(62,62,58)" height="5px" opacity="0.988235294118" width="5px" x="48px" y="56px" /><rect fill="rgb(64,64,60)" height="5px" width="5px" x="52px" y="56px" /><rect fill="rgb(64,64,60)" height="5px" width="5px" x="56px" y="56px" /><rect fill="rgb(64,64,60)" height="5px" width="5px" x="60px" y="56px" /><rect fill="rgb(64,64,60)" height="5px" width="5px" x="64px" y="56px" /><rect fill="rgb(64,64,60)" height="5px" width="5px" x="68px" y="56px" /><rect fill="rgb(64,64,60)" height="5px" width="5px" x="72px" y="56px" /><rect fill="rgb(62,62,58)" height="5px" opacity="0.988235294118" width="5px" x="76px" y="56px" /><rect fill="rgb(63,63,60)" height="5px" opacity="0.282352941176" width="5px" x="80px" y="56px" /><rect fill="rgb(64,64,61)" height="5px" opacity="0.294117647059" width="5px" x="40px" y="60px" /><rect fill="rgb(63,63,60)" height="5px" opacity="0.992156862745" width="5px" x="44px" y="60px" /><rect fill="rgb(64,64,60)" height="5px" width="5px" x="48px" y="60px" /><rect fill="rgb(64,64,60)" height="5px" width="5px" x="52px" y="60px" /><rect fill="rgb(64,64,60)" height="5px" width="5px" x="56px" y="60px" /><rect fill="rgb(64,64,60)" height="5px" opacity="0.996078431373" width="5px" x="60px" y="60px" /><rect fill="rgb(64,64,60)" height="5px" opacity="0.996078431373" width="5px" x="64px" y="60px" /><rect fill="rgb(64,64,60)" height="5px" width="5px" x="68px" y="60px" /><rect fill="rgb(64,64,60)" height="5px" width="5px" x="72px" y="60px" /><rect fill="rgb(64,64,60)" height="5px" width="5px" x="76px" y="60px" /><rect fill="rgb(63,63,60)" height="5px" opacity="0.992156862745" width="5px" x="80px" y="60px" /><rect fill="rgb(64,64,61)" height="5px" opacity="0.294117647059" width="5px" x="84px" y="60px" /><rect fill="rgb(63,63,60)" height="5px" opacity="0.678431372549" width="5px" x="20px" y="64px" /><rect fill="rgb(63,63,60)" height="5px" opacity="0.313725490196" width="5px" x="24px" y="64px" /><rect fill="rgb(64,64,58)" height="5px" opacity="0.341176470588" width="5px" x="36px" y="64px" /><rect fill="rgb(63,63,60)" height="5px" opacity="0.992156862745" width="5px" x="40px" y="64px" /><rect fill="rgb(64,64,60)" height="5px" width="5px" x="44px" y="64px" /><rect fill="rgb(64,64,60)" height="5px" width="5px" x="48px" y="64px" /><rect fill="rgb(64,64,60)" height="5px" width="5px" x="52px" y="64px" /><rect fill="rgb(63,63,60)" height="5px" opacity="0.992156862745" width="5px" x="56px" y="64px" /><rect fill="rgb(63,63,60)" height="5px" opacity="0.364705882353" width="5px" x="60px" y="64px" /><rect fill="rgb(63,63,60)" height="5px" opacity="0.364705882353" width="5px" x="64px" y="64px" /><rect fill="rgb(63,63,60)" height="5px" opacity="0.992156862745" width="5px" x="68px" y="64px" /><rect fill="rgb(64,64,60)" height="5px" width="5px" x="72px" y="64px" /><rect fill="rgb(64,64,60)" height="5px" width="5px" x="76px" y="64px" /><rect fill="rgb(64,64,60)" height="5px" width="5px" x="80px" y="64px" /><rect fill="rgb(63,63,60)" height="5px" opacity="0.992156862745" width="5px" x="84px" y="64px" /><rect fill="rgb(64,64,58)" height="5px" opacity="0.341176470588" width="5px" x="88px" y="64px" /><rect fill="rgb(63,63,60)" height="5px" opacity="0.313725490196" width="5px" x="100px" y="64px" /><rect fill="rgb(63,63,60)" height="5px" opacity="0.678431372549" width="5px" x="104px" y="64px" /><rect fill="rgb(64,64,59)" height="5px" opacity="0.654901960784" width="5px" x="16px" y="68px" /><rect fill="rgb(64,64,60)" height="5px" width="5px" x="20px" y="68px" /><rect fill="rgb(64,64,60)" height="5px" width="5px" x="24px" y="68px" /><rect fill="rgb(64,64,59)" height="5px" opacity="0.639215686275" width="5px" x="28px" y="68px" /><rect fill="rgb(63,63,60)" height="5px" opacity="0.364705882353" width="5px" x="32px" y="68px" /><rect fill="rgb(64,64,60)" height="5px" opacity="0.996078431373" width="5px" x="36px" y="68px" /><rect fill="rgb(64,64,60)" height="5px" width="5px" x="40px" y="68px" /><rect fill="rgb(64,64,60)" height="5px" width="5px" x="44px" y="68px" /><rect fill="rgb(64,64,60)" height="5px" width="5px" x="48px" y="68px" /><rect fill="rgb(62,62,58)" height="5px" opacity="0.988235294118" width="5px" x="52px" y="68px" /><rect fill="rgb(65,65,58)" height="5px" opacity="0.290196078431" width="5px" x="56px" y="68px" /><rect fill="rgb(65,65,58)" height="5px" opacity="0.290196078431" width="5px" x="68px" y="68px" /><rect fill="rgb(62,62,58)" height="5px" opacity="0.988235294118" width="5px" x="72px" y="68px" /><rect fill="rgb(64,64,60)" height="5px" width="5px" x="76px" y="68px" /><rect fill="rgb(64,64,60)" height="5px" width="5px" x="80px" y="68px" /><rect fill="rgb(64,64,60)" height="5px" width="5px" x="84px" y="68px" /><rect fill="rgb(64,64,60)" height="5px" opacity="0.996078431373" width="5px" x="88px" y="68px" /><rect fill="rgb(63,63,60)" height="5px" opacity="0.364705882353" width="5px" x="92px" y="68px" /><rect fill="rgb(64,64,59)" height="5px" opacity="0.639215686275" width="5px" x="96px" y="68px" /><rect fill="rgb(64,64,60)" height="5px" width="5px" x="100px" y="68px" /><rect fill="rgb(64,64,60)" height="5px" width="5px" x="104px" y="68px" /><rect fill="rgb(64,64,59)" height="5px" opacity="0.654901960784" width="5px" x="108px" y="68px" /><rect fill="rgb(63,63,63)" height="5px" opacity="0.0470588235294" width="5px" x="16px" y="72px" /><rect fill="rgb(62,62,60)" height="5px" opacity="0.878431372549" width="5px" x="20px" y="72px" /><rect fill="rgb(64,64,60)" height="5px" width="5px" x="24px" y="72px" /><rect fill="rgb(64,64,60)" height="5px" width="5px" x="28px" y="72px" /><rect fill="rgb(64,64,60)" height="5px" width="5px" x="32px" y="72px" /><rect fill="rgb(64,64,60)" height="5px" width="5px" x="36px" y="72px" /><rect fill="rgb(64,64,60)" height="5px" width="5px" x="40px" y="72px" /><rect fill="rgb(64,64,60)" height="5px" width="5px" x="44px" y="72px" /><rect fill="rgb(63,63,60)" height="5px" opacity="0.976470588235" width="5px" x="48px" y="72px" /><rect fill="rgb(63,63,59)" height="5px" opacity="0.219607843137" width="5px" x="52px" y="72px" /><rect fill="rgb(63,63,59)" height="5px" opacity="0.219607843137" width="5px" x="72px" y="72px" /><rect fill="rgb(63,63,60)" height="5px" opacity="0.976470588235" width="5px" x="76px" y="72px" /><rect fill="rgb(64,64,60)" height="5px" width="5px" x="80px" y="72px" /><rect fill="rgb(64,64,60)" height="5px" width="5px" x="84px" y="72px" /><rect fill="rgb(64,64,60)" height="5px" width="5px" x="88px" y="72px" /><rect fill="rgb(64,64,60)" height="5px" width="5px" x="92px" y="72px" /><rect fill="rgb(64,64,60)" height="5px" width="5px" x="96px" y="72px" /><rect fill="rgb(64,64,60)" height="5px" width="5px" x="100px" y="72px" /><rect fill="rgb(62,62,60)" height="5px" opacity="0.878431372549" width="5px" x="104px" y="72px" /><rect fill="rgb(63,63,63)" height="5px" opacity="0.0470588235294" width="5px" x="108px" y="72px" /><rect fill="rgb(63,63,63)" height="5px" opacity="0.0156862745098" width="5px" x="20px" y="76px" /><rect fill="rgb(63,63,58)" height="5px" opacity="0.835294117647" width="5px" x="24px" y="76px" /><rect fill="rgb(64,64,60)" height="5px" width="5px" x="28px" y="76px" /><rect fill="rgb(64,64,60)" height="5px" width="5px" x="32px" y="76px" /><rect fill="rgb(64,64,60)" height="5px" width="5px" x="36px" y="76px" /><rect fill="rgb(64,64,60)" height="5px" width="5px" x="40px" y="76px" /><rect fill="rgb(63,63,60)" height="5px" opacity="0.960784313725" width="5px" x="44px" y="76px" /><rect fill="rgb(63,63,57)" height="5px" opacity="0.156862745098" width="5px" x="48px" y="76px" /><rect fill="rgb(63,63,57)" height="5px" opacity="0.156862745098" width="5px" x="76px" y="76px" /><rect fill="rgb(63,63,60)" height="5px" opacity="0.960784313725" width="5px" x="80px" y="76px" /><rect fill="rgb(64,64,60)" height="5px" width="5px" x="84px" y="76px" /><rect fill="rgb(64,64,60)" height="5px" width="5px" x="88px" y="76px" /><rect fill="rgb(64,64,60)" height="5px" width="5px" x="92px" y="76px" /><rect fill="rgb(64,64,60)" height="5px" width="5px" x="96px" y="76px" /><rect fill="rgb(63,63,58)" height="5px" opacity="0.835294117647" width="5px" x="100px" y="76px" /><rect fill="rgb(63,63,63)" height="5px" opacity="0.0156862745098" width="5px" x="104px" y="76px" /><rect fill="rgb(63,63,63)" height="5px" opacity="0.0470588235294" width="5px" x="20px" y="80px" /><rect fill="rgb(62,62,60)" height="5px" opacity="0.925490196078" width="5px" x="24px" y="80px" /><rect fill="rgb(64,64,60)" height="5px" width="5px" x="28px" y="80px" /><rect fill="rgb(64,64,60)" height="5px" width="5px" x="32px" y="80px" /><rect fill="rgb(64,64,60)" height="5px" width="5px" x="36px" y="80px" /><rect fill="rgb(64,64,60)" height="5px" width="5px" x="40px" y="80px" /><rect fill="rgb(62,62,58)" height="5px" opacity="0.254901960784" width="5px" x="44px" y="80px" /><rect fill="rgb(62,62,58)" height="5px" opacity="0.254901960784" width="5px" x="80px" y="80px" /><rect fill="rgb(64,64,60)" height="5px" width="5px" x="84px" y="80px" /><rect fill="rgb(64,64,60)" height="5px" width="5px" x="88px" y="80px" /><rect fill="rgb(64,64,60)" height="5px" width="5px" x="92px" y="80px" /><rect fill="rgb(64,64,60)" height="5px" width="5px" x="96px" y="80px" /><rect fill="rgb(62,62,60)" height="5px" opacity="0.925490196078" width="5px" x="100px" y="80px" /><rect fill="rgb(63,63,63)" height="5px" opacity="0.0470588235294" width="5px" x="104px" y="80px" /><rect fill="rgb(63,63,63)" height="5px" opacity="0.0156862745098" width="5px" x="16px" y="84px" /><rect fill="rgb(63,63,60)" height="5px" opacity="0.882352941176" width="5px" x="20px" y="84px" /><rect fill="rgb(64,64,60)" height="5px" width="5px" x="24px" y="84px" /><rect fill="rgb(64,64,60)" height="5px" width="5px" x="28px" y="84px" /><rect fill="rgb(64,64,60)" height="5px" width="5px" x="32px" y="84px" /><rect fill="rgb(64,64,60)" height="5px" opacity="0.996078431373" width="5px" x="36px" y="84px" /><rect fill="rgb(64,64,60)" height="5px" width="5px" x="40px" y="84px" /><rect fill="rgb(64,64,58)" height="5px" opacity="0.98431372549" width="5px" x="44px" y="84px" /><rect fill="rgb(65,65,59)" height="5px" opacity="0.321568627451" width="5px" x="48px" y="84px" /><rect fill="rgb(65,65,59)" height="5px" opacity="0.321568627451" width="5px" x="76px" y="84px" /><rect fill="rgb(64,64,58)" height="5px" opacity="0.98431372549" width="5px" x="80px" y="84px" /><rect fill="rgb(64,64,60)" height="5px" width="5px" x="84px" y="84px" /><rect fill="rgb(64,64,60)" height="5px" opacity="0.996078431373" width="5px" x="88px" y="84px" /><rect fill="rgb(64,64,60)" height="5px" width="5px" x="92px" y="84px" /><rect fill="rgb(64,64,60)" height="5px" width="5px" x="96px" y="84px" /><rect fill="rgb(64,64,60)" height="5px" width="5px" x="100px" y="84px" /><rect fill="rgb(63,63,60)" height="5px" opacity="0.882352941176" width="5px" x="104px" y="84px" /><rect fill="rgb(63,63,63)" height="5px" opacity="0.0156862745098" width="5px" x="108px" y="84px" /><rect fill="rgb(63,63,58)" height="5px" opacity="0.819607843137" width="5px" x="16px" y="88px" /><rect fill="rgb(64,64,60)" height="5px" width="5px" x="20px" y="88px" /><rect fill="rgb(64,64,60)" height="5px" width="5px" x="24px" y="88px" /><rect fill="rgb(64,64,60)" height="5px" width="5px" x="28px" y="88px" /><rect fill="rgb(62,62,58)" height="5px" opacity="0.972549019608" width="5px" x="32px" y="88px" /><rect fill="rgb(62,62,62)" height="5px" opacity="0.145098039216" width="5px" x="36px" y="88px" /><rect fill="rgb(64,64,60)" height="5px" opacity="0.745098039216" width="5px" x="40px" y="88px" /><rect fill="rgb(64,64,60)" height="5px" width="5px" x="44px" y="88px" /><rect fill="rgb(64,64,58)" height="5px" opacity="0.98431372549" width="5px" x="48px" y="88px" /><rect fill="rgb(72,72,54)" height="5px" opacity="0.0549019607843" width="5px" x="52px" y="88px" /><rect fill="rgb(72,72,54)" height="5px" opacity="0.0549019607843" width="5px" x="72px" y="88px" /><rect fill="rgb(64,64,58)" height="5px" opacity="0.98431372549" width="5px" x="76px" y="88px" /><rect fill="rgb(64,64,60)" height="5px" width="5px" x="80px" y="88px" /><rect fill="rgb(64,64,60)" height="5px" opacity="0.745098039216" width="5px" x="84px" y="88px" /><rect fill="rgb(62,62,62)" height="5px" opacity="0.145098039216" width="5px" x="88px" y="88px" /><rect fill="rgb(62,62,58)" height="5px" opacity="0.972549019608" width="5px" x="92px" y="88px" /><rect fill="rgb(64,64,60)" height="5px" width="5px" x="96px" y="88px" /><rect fill="rgb(64,64,60)" height="5px" width="5px" x="100px" y="88px" /><rect fill="rgb(64,64,60)" height="5px" width="5px" x="104px" y="88px" /><rect fill="rgb(63,63,58)" height="5px" opacity="0.819607843137" width="5px" x="108px" y="88px" /><rect fill="rgb(62,62,58)" height="5px" opacity="0.737254901961" width="5px" x="12px" y="92px" /><rect fill="rgb(64,64,60)" height="5px" width="5px" x="16px" y="92px" /><rect fill="rgb(64,64,60)" height="5px" width="5px" x="20px" y="92px" /><rect fill="rgb(64,64,60)" height="5px" width="5px" x="24px" y="92px" /><rect fill="rgb(64,64,58)" height="5px" opacity="0.98431372549" width="5px" x="28px" y="92px" /><rect fill="rgb(65,65,60)" height="5px" opacity="0.2" width="5px" x="32px" y="92px" /><rect fill="rgb(63,63,60)" height="5px" opacity="0.564705882353" width="5px" x="44px" y="92px" /><rect fill="rgb(63,63,60)" height="5px" opacity="0.333333333333" width="5px" x="48px" y="92px" /><rect fill="rgb(63,63,60)" height="5px" opacity="0.333333333333" width="5px" x="76px" y="92px" /><rect fill="rgb(63,63,60)" height="5px" opacity="0.564705882353" width="5px" x="80px" y="92px" /><rect fill="rgb(65,65,60)" height="5px" opacity="0.2" width="5px" x="92px" y="92px" /><rect fill="rgb(64,64,58)" height="5px" opacity="0.98431372549" width="5px" x="96px" y="92px" /><rect fill="rgb(64,64,60)" height="5px" width="5px" x="100px" y="92px" /><rect fill="rgb(64,64,60)" height="5px" width="5px" x="104px" y="92px" /><rect fill="rgb(64,64,60)" height="5px" width="5px" x="108px" y="92px" /><rect fill="rgb(62,62,58)" height="5px" opacity="0.737254901961" width="5px" x="112px" y="92px" /><rect fill="rgb(61,61,61)" height="5px" opacity="0.129411764706" width="5px" x="8px" y="96px" /><rect fill="rgb(63,63,60)" height="5px" opacity="0.992156862745" width="5px" x="12px" y="96px" /><rect fill="rgb(64,64,60)" height="5px" width="5px" x="16px" y="96px" /><rect fill="rgb(64,64,60)" height="5px" width="5px" x="20px" y="96px" /><rect fill="rgb(63,63,60)" height="5px" opacity="0.992156862745" width="5px" x="24px" y="96px" /><rect fill="rgb(64,64,60)" height="5px" opacity="0.262745098039" width="5px" x="28px" y="96px" /><rect fill="rgb(64,64,60)" height="5px" opacity="0.262745098039" width="5px" x="96px" y="96px" /><rect fill="rgb(63,63,60)" height="5px" opacity="0.992156862745" width="5px" x="100px" y="96px" /><rect fill="rgb(64,64,60)" height="5px" width="5px" x="104px" y="96px" /><rect fill="rgb(64,64,60)" height="5px" width="5px" x="108px" y="96px" /><rect fill="rgb(63,63,60)" height="5px" opacity="0.992156862745" width="5px" x="112px" y="96px" /><rect fill="rgb(61,61,61)" height="5px" opacity="0.129411764706" width="5px" x="116px" y="96px" /><rect fill="rgb(63,63,59)" height="5px" opacity="0.235294117647" width="5px" x="12px" y="100px" /><rect fill="rgb(63,63,60)" height="5px" opacity="0.976470588235" width="5px" x="16px" y="100px" /><rect fill="rgb(64,64,60)" height="5px" opacity="0.996078431373" width="5px" x="20px" y="100px" /><rect fill="rgb(63,63,60)" height="5px" opacity="0.349019607843" width="5px" x="24px" y="100px" /><rect fill="rgb(63,63,60)" height="5px" opacity="0.349019607843" width="5px" x="100px" y="100px" /><rect fill="rgb(64,64,60)" height="5px" opacity="0.996078431373" width="5px" x="104px" y="100px" /><rect fill="rgb(63,63,60)" height="5px" opacity="0.976470588235" width="5px" x="108px" y="100px" /><rect fill="rgb(63,63,59)" height="5px" opacity="0.235294117647" width="5px" x="112px" y="100px" /><rect fill="rgb(62,62,62)" height="5px" opacity="0.145098039216" width="5px" x="16px" y="104px" /><rect fill="rgb(63,63,60)" height="5px" opacity="0.364705882353" width="5px" x="20px" y="104px" /><rect fill="rgb(63,63,60)" height="5px" opacity="0.364705882353" width="5px" x="104px" y="104px" /><rect fill="rgb(62,62,62)" height="5px" opacity="0.145098039216" width="5px" x="108px" y="104px" /></svg>