<?xml version="1.0" encoding="utf-8" ?>
<svg baseProfile="full" height="128px" version="1.1" width="128px" xmlns="http://www.w3.org/2000/svg" xmlns:ev="http://www.w3.org/2001/xml-events" xmlns:xlink="http://www.w3.org/1999/xlink"><defs /><rect fill="rgb(134,116,88)" height="5px" width="5px" x="60px" y="4px" /><rect fill="rgb(255,0,0)" height="5px" width="5px" x="64px" y="4px" /><rect fill="rgb(255,0,0)" height="5px" width="5px" x="68px" y="4px" /><rect fill="rgb(255,0,0)" height="5px" width="5px" x="72px" y="4px" /><rect fill="rgb(255,0,0)" height="5px" width="5px" x="76px" y="4px" /><rect fill="rgb(255,0,0)" height="5px" width="5px" x="80px" y="4px" /><rect fill="rgb(134,116,88)" height="5px" width="5px" x="60px" y="8px" /><rect fill="rgb(255,0,0)" height="5px" width="5px" x="64px" y="8px" /><rect fill="rgb(255,0,0)" height="5px" width="5px" x="68px" y="8px" /><rect fill="rgb(255,0,0)" height="5px" width="5px" x="72px" y="8px" /><rect fill="rgb(255,0,0)" height="5px" width="5px" x="76px" y="8px" /><rect fill="rgb(255,23,23)" height="5px" width="5px" x="80px" y="8px" /><rect fill="rgb(255,36,36)" height="5px" width="5px" x="84px" y="8px" /><rect fill="rgb(255,36,36)" height="5px" width="5px" x="88px" y="8px" /><rect fill="rgb(255,36,36)" height="5px" width="5px" x="92px" y="8px" /><rect fill="rgb(255,36,36)" height="5px" width="5px" x="96px" y="8px" /><rect fill="rgb(255,36,36)" height="5px" width="5px" x="100px" y="8px" /><rect fill="rgb(134,116,88)" height="5px" width="5px" x="60px" y="12px" /><rect fill="rgb(255,36,36)" height="5px" width="5px" x="80px" y="12px" /><rect fill="rgb(255,36,36)" height="5px" width="5px" x="84px" y="12px" /><rect fill="rgb(255,36,36)" height="5px" width="5px" x="88px" y="12px" /><rect fill="rgb(255,36,36)" height="5px" width="5px" x="92px" y="12px" /><rect fill="rgb(134,116,88)" height="5px" width="5px" x="60px" y="16px" /><rect fill="rgb(134,116,88)" height="5px" width="5px" x="60px" y="20px" /><rect fill="rgb(134,116,88)" height="5px" width="5px" x="60px" y="24px" /><rect fill="rgb(227,191,135)" height="5px" width="5px" x="40px" y="28px" /><rect fill="rgb(228,192,135)" height="5px" width="5px" x="48px" y="28px" /><rect fill="rgb(228,192,135)" height="5px" width="5px" x="56px" y="28px" /><rect fill="rgb(134,116,88)" height="5px" width="5px" x="60px" y="28px" /><rect fill="rgb(228,192,135)" height="5px" width="5px" x="64px" y="28px" /><rect fill="rgb(219,183,127)" height="5px" width="5px" x="72px" y="28px" /><rect fill="rgb(195,164,117)" height="5px" width="5px" x="80px" y="28px" /><rect fill="rgb(227,191,135)" height="5px" width="5px" x="40px" y="32px" /><rect fill="rgb(227,191,135)" height="5px" width="5px" x="44px" y="32px" /><rect fill="rgb(227,191,135)" height="5px" width="5px" x="48px" y="32px" /><rect fill="rgb(227,191,135)" height="5px" width="5px" x="52px" y="32px" /><rect fill="rgb(227,191,135)" height="5px" width="5px" x="56px" y="32px" /><rect fill="rgb(227,191,135)" height="5px" width="5px" x="60px" y="32px" /><rect fill="rgb(227,191,135)" height="5px" width="5px" x="64px" y="32px" /><rect fill="rgb(227,191,135)" height="5px" width="5px" x="68px" y="32px" /><rect fill="rgb(219,183,127)" height="5px" width="5px" x="72px" y="32px" /><rect fill="rgb(206,173,122)" height="5px" width="5px" x="76px" y="32px" /><rect fill="rgb(195,164,117)" height="5px" width="5px" x="80px" y="32px" /><rect fill="rgb(195,164,117)" height="5px" width="5px" x="84px" y="32px" /><rect fill="rgb(181,152,106)" height="5px" width="5px" x="8px" y="36px" /><rect fill="rgb(181,152,106)" height="5px" width="5px" x="16px" y="36px" /><rect fill="rgb(181,152,106)" height="5px" width="5px" x="24px" y="36px" /><rect fill="rgb(141,118,82)" height="5px" width="5px" x="32px" y="36px" /><rect fill="rgb(227,191,135)" height="5px" width="5px" x="40px" y="36px" /><rect fill="rgb(227,191,135)" height="5px" width="5px" x="44px" y="36px" /><rect fill="rgb(227,191,135)" height="5px" width="5px" x="48px" y="36px" /><rect fill="rgb(227,191,135)" height="5px" width="5px" x="52px" y="36px" /><rect fill="rgb(227,191,135)" height="5px" width="5px" x="56px" y="36px" /><rect fill="rgb(227,191,135)" height="5px" width="5px" x="60px" y="36px" /><rect fill="rgb(227,191,135)" height="5px" width="5px" x="64px" y="36px" /><rect fill="rgb(227,191,135)" height="5px" width="5px" x="68px" y="36px" /><rect fill="rgb(219,183,127)" height="5px" width="5px" x="72px" y="36px" /><rect fill="rgb(206,173,122)" height="5px" width="5px" x="76px" y="36px" /><rect fill="rgb(206,173,122)" height="5px" width="5px" x="80px" y="36px" /><rect fill="rgb(206,173,122)" height="5px" width="5px" x="84px" y="36px" /><rect fill="rgb(153,129,91)" height="5px" width="5px" x="88px" y="36px" /><rect fill="rgb(181,152,106)" height="5px" width="5px" x="96px" y="36px" /><rect fill="rgb(181,152,106)" height="5px" width="5px" x="104px" y="36px" /><rect fill="rgb(141,118,82)" height="5px" width="5px" x="112px" y="36px" /><rect fill="rgb(181,152,106)" height="5px" width="5px" x="8px" y="40px" /><rect fill="rgb(181,152,106)" height="5px" width="5px" x="12px" y="40px" /><rect fill="rgb(181,152,106)" height="5px" width="5px" x="16px" y="40px" /><rect fill="rgb(181,152,106)" height="5px" width="5px" x="20px" y="40px" /><rect fill="rgb(181,152,106)" height="5px" width="5px" x="24px" y="40px" /><rect fill="rgb(181,152,106)" height="5px" width="5px" x="28px" y="40px" /><rect fill="rgb(162,135,92)" height="5px" width="5px" x="32px" y="40px" /><rect fill="rgb(141,118,82)" height="5px" width="5px" x="36px" y="40px" /><rect fill="rgb(227,191,135)" height="5px" width="5px" x="40px" y="40px" /><rect fill="rgb(227,191,135)" height="5px" width="5px" x="44px" y="40px" /><rect fill="rgb(227,191,135)" height="5px" width="5px" x="48px" y="40px" /><rect fill="rgb(227,191,135)" height="5px" width="5px" x="52px" y="40px" /><rect fill="rgb(227,191,135)" height="5px" width="5px" x="56px" y="40px" /><rect fill="rgb(227,191,135)" height="5px" width="5px" x="60px" y="40px" /><rect fill="rgb(227,191,135)" height="5px" width="5px" x="64px" y="40px" /><rect fill="rgb(227,191,135)" height="5px" width="5px" x="68px" y="40px" /><rect fill="rgb(219,183,127)" height="5px" width="5px" x="72px" y="40px" /><rect fill="rgb(206,173,122)" height="5px" width="5px" x="76px" y="40px" /><rect fill="rgb(206,173,122)" height="5px" width="5px" x="80px" y="40px" /><rect fill="rgb(195,164,117)" height="5px" width="5px" x="84px" y="40px" /><rect fill="rgb(153,129,91)" height="5px" width="5px" x="88px" y="40px" /><rect fill="rgb(181,152,106)" height="5px" width="5px" x="92px" y="40px" /><rect fill="rgb(181,152,106)" height="5px" width="5px" x="96px" y="40px" /><rect fill="rgb(181,152,106)" height="5px" width="5px" x="100px" y="40px" /><rect fill="rgb(181,152,106)" height="5px" width="5px" x="104px" y="40px" /><rect fill="rgb(162,135,92)" height="5px" width="5px" x="108px" y="40px" /><rect fill="rgb(141,118,82)" height="5px" width="5px" x="112px" y="40px" /><rect fill="rgb(141,118,82)" height="5px" width="5px" x="116px" y="40px" /><rect fill="rgb(181,152,106)" height="5px" width="5px" x="8px" y="44px" /><rect fill="rgb(181,152,106)" height="5px" width="5px" x="12px" y="44px" /><rect fill="rgb(181,152,106)" height="5px" width="5px" x="16px" y="44px" /><rect fill="rgb(181,152,106)" height="5px" width="5px" x="20px" y="44px" /><rect fill="rgb(181,152,106)" height="5px" width="5px" x="24px" y="44px" /><rect fill="rgb(181,152,106)" height="5px" width="5px" x="28px" y="44px" /><rect fill="rgb(162,135,92)" height="5px" width="5px" x="32px" y="44px" /><rect fill="rgb(141,118,82)" height="5px" width="5px" x="36px" y="44px" /><rect fill="rgb(227,191,135)" height="5px" width="5px" x="40px" y="44px" /><rect fill="rgb(227,191,135)" height="5px" width="5px" x="44px" y="44px" /><rect fill="rgb(227,191,135)" height="5px" width="5px" x="48px" y="44px" /><rect fill="rgb(227,191,135)" height="5px" width="5px" x="52px" y="44px" /><rect fill="rgb(227,191,135)" height="5px" width="5px" x="56px" y="44px" /><rect fill="rgb(219,183,127)" height="5px" width="5px" x="60px" y="44px" /><rect fill="rgb(219,183,127)" height="5px" width="5px" x="64px" y="44px" /><rect fill="rgb(219,183,127)" height="5px" width="5px" x="68px" y="44px" /><rect fill="rgb(219,183,127)" height="5px" width="5px" x="72px" y="44px" /><rect fill="rgb(206,173,122)" height="5px" width="5px" x="76px" y="44px" /><rect fill="rgb(195,164,117)" height="5px" width="5px" x="80px" y="44px" /><rect fill="rgb(195,164,117)" height="5px" width="5px" x="84px" y="44px" /><rect fill="rgb(153,129,91)" height="5px" width="5px" x="88px" y="44px" /><rect fill="rgb(181,152,106)" height="5px" width="5px" x="92px" y="44px" /><rect fill="rgb(181,152,106)" height="5px" width="5px" x="96px" y="44px" /><rect fill="rgb(181,152,106)" height="5px" width="5px" x="100px" y="44px" /><rect fill="rgb(181,152,106)" height="5px" width="5px" x="104px" y="44px" /><rect fill="rgb(162,135,92)" height="5px" width="5px" x="108px" y="44px" /><rect fill="rgb(162,135,92)" height="5px" width="5px" x="112px" y="44px" /><rect fill="rgb(141,118,82)" height="5px" width="5px" x="116px" y="44px" /><rect fill="rgb(181,152,106)" height="5px" width="5px" x="8px" y="48px" /><rect fill="rgb(181,152,106)" height="5px" width="5px" x="12px" y="48px" /><rect fill="rgb(181,152,106)" height="5px" width="5px" x="16px" y="48px" /><rect fill="rgb(181,152,106)" height="5px" width="5px" x="20px" y="48px" /><rect fill="rgb(181,152,106)" height="5px" width="5px" x="24px" y="48px" /><rect fill="rgb(162,135,92)" height="5px" width="5px" x="28px" y="48px" /><rect fill="rgb(162,135,92)" height="5px" width="5px" x="32px" y="48px" /><rect fill="rgb(141,118,82)" height="5px" width="5px" x="36px" y="48px" /><rect fill="rgb(227,191,135)" height="5px" width="5px" x="40px" y="48px" /><rect fill="rgb(227,191,135)" height="5px" width="5px" x="44px" y="48px" /><rect fill="rgb(227,191,135)" height="5px" width="5px" x="48px" y="48px" /><rect fill="rgb(227,191,135)" height="5px" width="5px" x="52px" y="48px" /><rect fill="rgb(219,183,127)" height="5px" width="5px" x="56px" y="48px" /><rect fill="rgb(206,173,122)" height="5px" width="5px" x="60px" y="48px" /><rect fill="rgb(206,173,122)" height="5px" width="5px" x="64px" y="48px" /><rect fill="rgb(206,173,122)" height="5px" width="5px" x="68px" y="48px" /><rect fill="rgb(206,173,122)" height="5px" width="5px" x="72px" y="48px" /><rect fill="rgb(195,164,117)" height="5px" width="5px" x="76px" y="48px" /><rect fill="rgb(195,164,117)" height="5px" width="5px" x="80px" y="48px" /><rect fill="rgb(195,164,117)" height="5px" width="5px" x="84px" y="48px" /><rect fill="rgb(153,129,91)" height="5px" width="5px" x="88px" y="48px" /><rect fill="rgb(181,152,106)" height="5px" width="5px" x="92px" y="48px" /><rect fill="rgb(181,152,106)" height="5px" width="5px" x="96px" y="48px" /><rect fill="rgb(181,152,106)" height="5px" width="5px" x="100px" y="48px" /><rect fill="rgb(181,152,106)" height="5px" width="5px" x="104px" y="48px" /><rect fill="rgb(162,135,92)" height="5px" width="5px" x="108px" y="48px" /><rect fill="rgb(162,135,92)" height="5px" width="5px" x="112px" y="48px" /><rect fill="rgb(141,118,82)" height="5px" width="5px" x="116px" y="48px" /><rect fill="rgb(181,152,106)" height="5px" width="5px" x="8px" y="52px" /><rect fill="rgb(181,152,106)" height="5px" width="5px" x="12px" y="52px" /><rect fill="rgb(181,152,106)" height="5px" width="5px" x="16px" y="52px" /><rect fill="rgb(181,152,106)" height="5px" width="5px" x="20px" y="52px" /><rect fill="rgb(162,135,92)" height="5px" width="5px" x="24px" y="52px" /><rect fill="rgb(141,118,82)" height="5px" width="5px" x="28px" y="52px" /><rect fill="rgb(141,118,82)" height="5px" width="5px" x="32px" y="52px" /><rect fill="rgb(141,118,82)" height="5px" width="5px" x="36px" y="52px" /><rect fill="rgb(227,191,135)" height="5px" width="5px" x="40px" y="52px" /><rect fill="rgb(227,191,135)" height="5px" width="5px" x="44px" y="52px" /><rect fill="rgb(227,191,135)" height="5px" width="5px" x="48px" y="52px" /><rect fill="rgb(219,183,127)" height="5px" width="5px" x="52px" y="52px" /><rect fill="rgb(206,173,122)" height="5px" width="5px" x="56px" y="52px" /><rect fill="rgb(195,164,117)" height="5px" width="5px" x="60px" y="52px" /><rect fill="rgb(195,164,117)" height="5px" width="5px" x="64px" y="52px" /><rect fill="rgb(195,164,117)" height="5px" width="5px" x="68px" y="52px" /><rect fill="rgb(195,164,117)" height="5px" width="5px" x="72px" y="52px" /><rect fill="rgb(195,164,117)" height="5px" width="5px" x="76px" y="52px" /><rect fill="rgb(195,164,117)" height="5px" width="5px" x="80px" y="52px" /><rect fill="rgb(195,164,117)" height="5px" width="5px" x="84px" y="52px" /><rect fill="rgb(153,129,91)" height="5px" width="5px" x="88px" y="52px" /><rect fill="rgb(181,152,106)" height="5px" width="5px" x="92px" y="52px" /><rect fill="rgb(181,152,106)" height="5px" width="5px" x="96px" y="52px" /><rect fill="rgb(181,152,106)" height="5px" width="5px" x="100px" y="52px" /><rect fill="rgb(162,135,92)" height="5px" width="5px" x="104px" y="52px" /><rect fill="rgb(162,135,92)" height="5px" width="5px" x="108px" y="52px" /><rect fill="rgb(162,135,92)" height="5px" width="5px" x="112px" y="52px" /><rect fill="rgb(141,118,82)" height="5px" width="5px" x="116px" y="52px" /><rect fill="rgb(181,152,106)" height="5px" width="5px" x="8px" y="56px" /><rect fill="rgb(181,152,106)" height="5px" width="5px" x="12px" y="56px" /><rect fill="rgb(181,152,106)" height="5px" width="5px" x="16px" y="56px" /><rect fill="rgb(162,135,92)" height="5px" width="5px" x="20px" y="56px" /><rect fill="rgb(141,118,82)" height="5px" width="5px" x="24px" y="56px" /><rect fill="rgb(141,118,82)" height="5px" width="5px" x="28px" y="56px" /><rect fill="rgb(141,118,82)" height="5px" width="5px" x="32px" y="56px" /><rect fill="rgb(141,118,82)" height="5px" width="5px" x="36px" y="56px" /><rect fill="rgb(141,118,82)" height="5px" width="5px" x="40px" y="56px" /><rect fill="rgb(141,118,82)" height="5px" width="5px" x="44px" y="56px" /><rect fill="rgb(140,140,140)" height="5px" width="5px" x="48px" y="56px" /><rect fill="rgb(140,140,140)" height="5px" width="5px" x="52px" y="56px" /><rect fill="rgb(140,140,140)" height="5px" width="5px" x="56px" y="56px" /><rect fill="rgb(140,140,140)" height="5px" width="5px" x="60px" y="56px" /><rect fill="rgb(140,140,140)" height="5px" width="5px" x="64px" y="56px" /><rect fill="rgb(160,160,160)" height="5px" width="5px" x="68px" y="56px" /><rect fill="rgb(160,160,160)" height="5px" width="5px" x="72px" y="56px" /><rect fill="rgb(160,160,160)" height="5px" width="5px" x="76px" y="56px" /><rect fill="rgb(168,141,100)" height="5px" width="5px" x="80px" y="56px" /><rect fill="rgb(153,129,91)" height="5px" width="5px" x="84px" y="56px" /><rect fill="rgb(153,129,91)" height="5px" width="5px" x="88px" y="56px" /><rect fill="rgb(181,152,106)" height="5px" width="5px" x="92px" y="56px" /><rect fill="rgb(181,152,106)" height="5px" width="5px" x="96px" y="56px" /><rect fill="rgb(181,152,106)" height="5px" width="5px" x="100px" y="56px" /><rect fill="rgb(162,135,92)" height="5px" width="5px" x="104px" y="56px" /><rect fill="rgb(141,118,82)" height="5px" width="5px" x="108px" y="56px" /><rect fill="rgb(141,118,82)" height="5px" width="5px" x="112px" y="56px" /><rect fill="rgb(141,118,82)" height="5px" width="5px" x="116px" y="56px" /><rect fill="rgb(198,166,116)" height="5px" width="5px" x="12px" y="60px" /><rect fill="rgb(182,151,102)" height="5px" width="5px" x="16px" y="60px" /><rect fill="rgb(171,142,97)" height="5px" width="5px" x="20px" y="60px" /><rect fill="rgb(156,130,90)" height="5px" width="5px" x="24px" y="60px" /><rect fill="rgb(140,140,140)" height="5px" width="5px" x="28px" y="60px" /><rect fill="rgb(140,140,140)" height="5px" width="5px" x="32px" y="60px" /><rect fill="rgb(140,140,140)" height="5px" width="5px" x="36px" y="60px" /><rect fill="rgb(140,140,140)" height="5px" width="5px" x="40px" y="60px" /><rect fill="rgb(140,140,140)" height="5px" width="5px" x="44px" y="60px" /><rect fill="rgb(160,160,160)" height="5px" width="5px" x="48px" y="60px" /><rect fill="rgb(160,160,160)" height="5px" width="5px" x="52px" y="60px" /><rect fill="rgb(160,160,160)" height="5px" width="5px" x="56px" y="60px" /><rect fill="rgb(160,160,160)" height="5px" width="5px" x="60px" y="60px" /><rect fill="rgb(160,160,160)" height="5px" width="5px" x="64px" y="60px" /><rect fill="rgb(160,160,160)" height="5px" width="5px" x="68px" y="60px" /><rect fill="rgb(252,211,148)" height="5px" width="5px" x="72px" y="60px" /><rect fill="rgb(252,211,148)" height="5px" width="5px" x="76px" y="60px" /><rect fill="rgb(252,211,148)" height="5px" width="5px" x="80px" y="60px" /><rect fill="rgb(252,211,148)" height="5px" width="5px" x="84px" y="60px" /><rect fill="rgb(252,211,148)" height="5px" width="5px" x="88px" y="60px" /><rect fill="rgb(252,211,148)" height="5px" width="5px" x="92px" y="60px" /><rect fill="rgb(252,211,148)" height="5px" width="5px" x="96px" y="60px" /><rect fill="rgb(199,167,117)" height="5px" width="5px" x="100px" y="60px" /><rect fill="rgb(182,151,102)" height="5px" width="5px" x="104px" y="60px" /><rect fill="rgb(171,142,97)" height="5px" width="5px" x="108px" y="60px" /><rect fill="rgb(156,130,90)" height="5px" width="5px" x="112px" y="60px" /><rect fill="rgb(198,166,116)" height="5px" width="5px" x="12px" y="64px" /><rect fill="rgb(182,151,102)" height="5px" width="5px" x="16px" y="64px" /><rect fill="rgb(171,142,97)" height="5px" width="5px" x="20px" y="64px" /><rect fill="rgb(156,130,90)" height="5px" width="5px" x="24px" y="64px" /><rect fill="rgb(140,140,140)" height="5px" width="5px" x="28px" y="64px" /><rect fill="rgb(160,160,160)" height="5px" width="5px" x="32px" y="64px" /><rect fill="rgb(160,160,160)" height="5px" width="5px" x="36px" y="64px" /><rect fill="rgb(160,160,160)" height="5px" width="5px" x="40px" y="64px" /><rect fill="rgb(160,160,160)" height="5px" width="5px" x="44px" y="64px" /><rect fill="rgb(211,177,125)" height="5px" width="5px" x="48px" y="64px" /><rect fill="rgb(211,177,125)" height="5px" width="5px" x="52px" y="64px" /><rect fill="rgb(252,211,148)" height="5px" width="5px" x="56px" y="64px" /><rect fill="rgb(211,177,125)" height="5px" width="5px" x="60px" y="64px" /><rect fill="rgb(211,177,125)" height="5px" width="5px" x="64px" y="64px" /><rect fill="rgb(252,211,148)" height="5px" width="5px" x="68px" y="64px" /><rect fill="rgb(211,177,125)" height="5px" width="5px" x="72px" y="64px" /><rect fill="rgb(211,177,125)" height="5px" width="5px" x="76px" y="64px" /><rect fill="rgb(252,211,148)" height="5px" width="5px" x="80px" y="64px" /><rect fill="rgb(211,177,125)" height="5px" width="5px" x="84px" y="64px" /><rect fill="rgb(211,177,125)" height="5px" width="5px" x="88px" y="64px" /><rect fill="rgb(252,211,148)" height="5px" width="5px" x="92px" y="64px" /><rect fill="rgb(252,211,148)" height="5px" width="5px" x="96px" y="64px" /><rect fill="rgb(199,167,117)" height="5px" width="5px" x="100px" y="64px" /><rect fill="rgb(182,151,102)" height="5px" width="5px" x="104px" y="64px" /><rect fill="rgb(171,142,97)" height="5px" width="5px" x="108px" y="64px" /><rect fill="rgb(156,130,90)" height="5px" width="5px" x="112px" y="64px" /><rect fill="rgb(198,166,116)" height="5px" width="5px" x="12px" y="68px" /><rect fill="rgb(182,151,102)" height="5px" width="5px" x="16px" y="68px" /><rect fill="rgb(171,142,97)" height="5px" width="5px" x="20px" y="68px" /><rect fill="rgb(156,130,90)" height="5px" width="5px" x="24px" y="68px" /><rect fill="rgb(140,140,140)" height="5px" width="5px" x="28px" y="68px" /><rect fill="rgb(160,160,160)" height="5px" width="5px" x="32px" y="68px" /><rect fill="rgb(211,177,125)" height="5px" width="5px" x="36px" y="68px" /><rect fill="rgb(211,177,125)" height="5px" width="5px" x="40px" y="68px" /><rect fill="rgb(252,211,148)" height="5px" width="5px" x="44px" y="68px" /><rect fill="rgb(211,177,125)" height="5px" width="5px" x="48px" y="68px" /><rect fill="rgb(211,177,125)" height="5px" width="5px" x="52px" y="68px" /><rect fill="rgb(252,211,148)" height="5px" width="5px" x="56px" y="68px" /><rect fill="rgb(211,177,125)" height="5px" width="5px" x="60px" y="68px" /><rect fill="rgb(211,177,125)" height="5px" width="5px" x="64px" y="68px" /><rect fill="rgb(252,211,148)" height="5px" width="5px" x="68px" y="68px" /><rect fill="rgb(211,177,125)" height="5px" width="5px" x="72px" y="68px" /><rect fill="rgb(211,177,125)" height="5px" width="5px" x="76px" y="68px" /><rect fill="rgb(252,211,148)" height="5px" width="5px" x="80px" y="68px" /><rect fill="rgb(211,177,125)" height="5px" width="5px" x="84px" y="68px" /><rect fill="rgb(211,177,125)" height="5px" width="5px" x="88px" y="68px" /><rect fill="rgb(252,211,148)" height="5px" width="5px" x="92px" y="68px" /><rect fill="rgb(252,211,148)" height="5px" width="5px" x="96px" y="68px" /><rect fill="rgb(199,167,117)" height="5px" width="5px" x="100px" y="68px" /><rect fill="rgb(182,151,102)" height="5px" width="5px" x="104px" y="68px" /><rect fill="rgb(171,142,97)" height="5px" width="5px" x="108px" y="68px" /><rect fill="rgb(156,130,90)" height="5px" width="5px" x="112px" y="68px" /><rect fill="rgb(198,166,116)" height="5px" width="5px" x="12px" y="72px" /><rect fill="rgb(182,151,102)" height="5px" width="5px" x="16px" y="72px" /><rect fill="rgb(171,142,97)" height="5px" width="5px" x="20px" y="72px" /><rect fill="rgb(156,130,90)" height="5px" width="5px" x="24px" y="72px" /><rect fill="rgb(140,140,140)" height="5px" width="5px" x="28px" y="72px" /><rect fill="rgb(160,160,160)" height="5px" width="5px" x="32px" y="72px" /><rect fill="rgb(211,177,125)" height="5px" width="5px" x="36px" y="72px" /><rect fill="rgb(211,177,125)" height="5px" width="5px" x="40px" y="72px" /><rect fill="rgb(252,211,148)" height="5px" width="5px" x="44px" y="72px" /><rect fill="rgb(211,177,125)" height="5px" width="5px" x="48px" y="72px" /><rect fill="rgb(211,177,125)" height="5px" width="5px" x="52px" y="72px" /><rect fill="rgb(252,211,148)" height="5px" width="5px" x="56px" y="72px" /><rect fill="rgb(211,177,125)" height="5px" width="5px" x="60px" y="72px" /><rect fill="rgb(211,177,125)" height="5px" width="5px" x="64px" y="72px" /><rect fill="rgb(252,211,148)" height="5px" width="5px" x="68px" y="72px" /><rect fill="rgb(211,177,125)" height="5px" width="5px" x="72px" y="72px" /><rect fill="rgb(211,177,125)" height="5px" width="5px" x="76px" y="72px" /><rect fill="rgb(252,211,148)" height="5px" width="5px" x="80px" y="72px" /><rect fill="rgb(211,177,125)" height="5px" width="5px" x="84px" y="72px" /><rect fill="rgb(211,177,125)" height="5px" width="5px" x="88px" y="72px" /><rect fill="rgb(252,211,148)" height="5px" width="5px" x="92px" y="72px" /><rect fill="rgb(252,211,148)" height="5px" width="5px" x="96px" y="72px" /><rect fill="rgb(199,167,117)" height="5px" width="5px" x="100px" y="72px" /><rect fill="rgb(182,151,102)" height="5px" width="5px" x="104px" y="72px" /><rect fill="rgb(171,142,97)" height="5px" width="5px" x="108px" y="72px" /><rect fill="rgb(156,130,90)" height="5px" width="5px" x="112px" y="72px" /><rect fill="rgb(198,166,116)" height="5px" width="5px" x="12px" y="76px" /><rect fill="rgb(182,151,102)" height="5px" width="5px" x="16px" y="76px" /><rect fill="rgb(171,142,97)" height="5px" width="5px" x="20px" y="76px" /><rect fill="rgb(156,130,90)" height="5px" width="5px" x="24px" y="76px" /><rect fill="rgb(140,140,140)" height="5px" width="5px" x="28px" y="76px" /><rect fill="rgb(160,160,160)" height="5px" width="5px" x="32px" y="76px" /><rect fill="rgb(252,211,148)" height="5px" width="5px" x="36px" y="76px" /><rect fill="rgb(252,211,148)" height="5px" width="5px" x="40px" y="76px" /><rect fill="rgb(252,211,148)" height="5px" width="5px" x="44px" y="76px" /><rect fill="rgb(252,211,148)" height="5px" width="5px" x="48px" y="76px" /><rect fill="rgb(252,211,148)" height="5px" width="5px" x="52px" y="76px" /><rect fill="rgb(252,211,148)" height="5px" width="5px" x="56px" y="76px" /><rect fill="rgb(252,211,148)" height="5px" width="5px" x="60px" y="76px" /><rect fill="rgb(252,211,148)" height="5px" width="5px" x="64px" y="76px" /><rect fill="rgb(252,211,148)" height="5px" width="5px" x="68px" y="76px" /><rect fill="rgb(252,211,148)" height="5px" width="5px" x="72px" y="76px" /><rect fill="rgb(252,211,148)" height="5px" width="5px" x="76px" y="76px" /><rect fill="rgb(252,211,148)" height="5px" width="5px" x="80px" y="76px" /><rect fill="rgb(252,211,148)" height="5px" width="5px" x="84px" y="76px" /><rect fill="rgb(252,211,148)" height="5px" width="5px" x="88px" y="76px" /><rect fill="rgb(252,211,148)" height="5px" width="5px" x="92px" y="76px" /><rect fill="rgb(252,211,148)" height="5px" width="5px" x="96px" y="76px" /><rect fill="rgb(199,167,117)" height="5px" width="5px" x="100px" y="76px" /><rect fill="rgb(182,151,102)" height="5px" width="5px" x="104px" y="76px" /><rect fill="rgb(171,142,97)" height="5px" width="5px" x="108px" y="76px" /><rect fill="rgb(156,130,90)" height="5px" width="5px" x="112px" y="76px" /><rect fill="rgb(198,166,116)" height="5px" width="5px" x="12px" y="80px" /><rect fill="rgb(182,151,102)" height="5px" width="5px" x="16px" y="80px" /><rect fill="rgb(171,142,97)" height="5px" width="5px" x="20px" y="80px" /><rect fill="rgb(156,130,90)" height="5px" width="5px" x="24px" y="80px" /><rect fill="rgb(140,140,140)" height="5px" width="5px" x="28px" y="80px" /><rect fill="rgb(160,160,160)" height="5px" width="5px" x="32px" y="80px" /><rect fill="rgb(252,211,148)" height="5px" width="5px" x="36px" y="80px" /><rect fill="rgb(252,211,148)" height="5px" width="5px" x="40px" y="80px" /><rect fill="rgb(252,211,148)" height="5px" width="5px" x="44px" y="80px" /><rect fill="rgb(252,211,148)" height="5px" width="5px" x="48px" y="80px" /><rect fill="rgb(252,211,148)" height="5px" width="5px" x="52px" y="80px" /><rect fill="rgb(252,211,148)" height="5px" width="5px" x="56px" y="80px" /><rect fill="rgb(252,211,148)" height="5px" width="5px" x="60px" y="80px" /><rect fill="rgb(252,211,148)" height="5px" width="5px" x="64px" y="80px" /><rect fill="rgb(252,211,148)" height="5px" width="5px" x="68px" y="80px" /><rect fill="rgb(252,211,148)" height="5px" width="5px" x="72px" y="80px" /><rect fill="rgb(252,211,148)" height="5px" width="5px" x="76px" y="80px" /><rect fill="rgb(252,211,148)" height="5px" width="5px" x="80px" y="80px" /><rect fill="rgb(252,211,148)" height="5px" width="5px" x="84px" y="80px" /><rect fill="rgb(252,211,148)" height="5px" width="5px" x="88px" y="80px" /><rect fill="rgb(252,211,148)" height="5px" width="5px" x="92px" y="80px" /><rect fill="rgb(252,211,148)" height="5px" width="5px" x="96px" y="80px" /><rect fill="rgb(199,167,117)" height="5px" width="5px" x="100px" y="80px" /><rect fill="rgb(182,151,102)" height="5px" width="5px" x="104px" y="80px" /><rect fill="rgb(171,142,97)" height="5px" width="5px" x="108px" y="80px" /><rect fill="rgb(156,130,90)" height="5px" width="5px" x="112px" y="80px" /><rect fill="rgb(198,166,116)" height="5px" width="5px" x="12px" y="84px" /><rect fill="rgb(182,151,102)" height="5px" width="5px" x="16px" y="84px" /><rect fill="rgb(171,142,97)" height="5px" width="5px" x="20px" y="84px" /><rect fill="rgb(156,130,90)" height="5px" width="5px" x="24px" y="84px" /><rect fill="rgb(140,140,140)" height="5px" width="5px" x="28px" y="84px" /><rect fill="rgb(160,160,160)" height="5px" width="5px" x="32px" y="84px" /><rect fill="rgb(252,211,148)" height="5px" width="5px" x="36px" y="84px" /><rect fill="rgb(252,211,148)" height="5px" width="5px" x="40px" y="84px" /><rect fill="rgb(252,211,148)" height="5px" width="5px" x="44px" y="84px" /><rect fill="rgb(153,129,91)" height="5px" width="5px" x="48px" y="84px" /><rect fill="rgb(153,129,91)" height="5px" width="5px" x="52px" y="84px" /><rect fill="rgb(153,129,91)" height="5px" width="5px" x="56px" y="84px" /><rect fill="rgb(153,129,91)" height="5px" width="5px" x="60px" y="84px" /><rect fill="rgb(153,129,91)" height="5px" width="5px" x="64px" y="84px" /><rect fill="rgb(153,129,91)" height="5px" width="5px" x="68px" y="84px" /><rect fill="rgb(153,129,91)" height="5px" width="5px" x="72px" y="84px" /><rect fill="rgb(153,129,91)" height="5px" width="5px" x="76px" y="84px" /><rect fill="rgb(153,129,91)" height="5px" width="5px" x="80px" y="84px" /><rect fill="rgb(252,211,148)" height="5px" width="5px" x="84px" y="84px" /><rect fill="rgb(252,211,148)" height="5px" width="5px" x="88px" y="84px" /><rect fill="rgb(252,211,148)" height="5px" width="5px" x="92px" y="84px" /><rect fill="rgb(252,211,148)" height="5px" width="5px" x="96px" y="84px" /><rect fill="rgb(199,167,117)" height="5px" width="5px" x="100px" y="84px" /><rect fill="rgb(182,151,102)" height="5px" width="5px" x="104px" y="84px" /><rect fill="rgb(171,142,97)" height="5px" width="5px" x="108px" y="84px" /><rect fill="rgb(156,130,90)" height="5px" width="5px" x="112px" y="84px" /><rect fill="rgb(198,166,116)" height="5px" width="5px" x="12px" y="88px" /><rect fill="rgb(182,151,102)" height="5px" width="5px" x="16px" y="88px" /><rect fill="rgb(171,142,97)" height="5px" width="5px" x="20px" y="88px" /><rect fill="rgb(156,130,90)" height="5px" width="5px" x="24px" y="88px" /><rect fill="rgb(140,140,140)" height="5px" width="5px" x="28px" y="88px" /><rect fill="rgb(160,160,160)" height="5px" width="5px" x="32px" y="88px" /><rect fill="rgb(252,211,148)" height="5px" width="5px" x="36px" y="88px" /><rect fill="rgb(252,211,148)" height="5px" width="5px" x="40px" y="88px" /><rect fill="rgb(252,211,148)" height="5px" width="5px" x="44px" y="88px" /><rect fill="rgb(153,129,91)" height="5px" width="5px" x="48px" y="88px" /><rect fill="rgb(140,140,140)" height="5px" width="5px" x="52px" y="88px" /><rect fill="rgb(140,140,140)" height="5px" width="5px" x="56px" y="88px" /><rect fill="rgb(192,160,111)" height="5px" width="5px" x="60px" y="88px" /><rect fill="rgb(149,124,86)" height="5px" width="5px" x="64px" y="88px" /><rect fill="rgb(149,124,86)" height="5px" width="5px" x="68px" y="88px" /><rect fill="rgb(121,101,71)" height="5px" width="5px" x="72px" y="88px" /><rect fill="rgb(121,101,71)" height="5px" width="5px" x="76px" y="88px" /><rect fill="rgb(153,129,91)" height="5px" width="5px" x="80px" y="88px" /><rect fill="rgb(252,211,148)" height="5px" width="5px" x="84px" y="88px" /><rect fill="rgb(252,211,148)" height="5px" width="5px" x="88px" y="88px" /><rect fill="rgb(252,211,148)" height="5px" width="5px" x="92px" y="88px" /><rect fill="rgb(252,211,148)" height="5px" width="5px" x="96px" y="88px" /><rect fill="rgb(199,167,117)" height="5px" width="5px" x="100px" y="88px" /><rect fill="rgb(182,151,102)" height="5px" width="5px" x="104px" y="88px" /><rect fill="rgb(171,142,97)" height="5px" width="5px" x="108px" y="88px" /><rect fill="rgb(156,130,90)" height="5px" width="5px" x="112px" y="88px" /><rect fill="rgb(198,166,116)" height="5px" width="5px" x="12px" y="92px" /><rect fill="rgb(182,151,102)" height="5px" width="5px" x="16px" y="92px" /><rect fill="rgb(171,142,97)" height="5px" width="5px" x="20px" y="92px" /><rect fill="rgb(156,130,90)" height="5px" width="5px" x="24px" y="92px" /><rect fill="rgb(140,140,140)" height="5px" width="5px" x="28px" y="92px" /><rect fill="rgb(160,160,160)" height="5px" width="5px" x="32px" y="92px" /><rect fill="rgb(252,211,148)" height="5px" width="5px" x="36px" y="92px" /><rect fill="rgb(252,211,148)" height="5px" width="5px" x="40px" y="92px" /><rect fill="rgb(252,211,148)" height="5px" width="5px" x="44px" y="92px" /><rect fill="rgb(153,129,91)" height="5px" width="5px" x="48px" y="92px" /><rect fill="rgb(140,140,140)" height="5px" width="5px" x="52px" y="92px" /><rect fill="rgb(192,160,111)" height="5px" width="5px" x="56px" y="92px" /><rect fill="rgb(86,86,86)" height="5px" width="5px" x="60px" y="92px" /><rect fill="rgb(62,62,62)" height="5px" width="5px" x="64px" y="92px" /><rect fill="rgb(36,36,36)" height="5px" width="5px" x="68px" y="92px" /><rect fill="rgb(149,124,86)" height="5px" width="5px" x="72px" y="92px" /><rect fill="rgb(121,101,71)" height="5px" width="5px" x="76px" y="92px" /><rect fill="rgb(153,129,91)" height="5px" width="5px" x="80px" y="92px" /><rect fill="rgb(252,211,148)" height="5px" width="5px" x="84px" y="92px" /><rect fill="rgb(252,211,148)" height="5px" width="5px" x="88px" y="92px" /><rect fill="rgb(252,211,148)" height="5px" width="5px" x="92px" y="92px" /><rect fill="rgb(252,211,148)" height="5px" width="5px" x="96px" y="92px" /><rect fill="rgb(199,167,117)" height="5px" width="5px" x="100px" y="92px" /><rect fill="rgb(182,151,102)" height="5px" width="5px" x="104px" y="92px" /><rect fill="rgb(171,142,97)" height="5px" width="5px" x="108px" y="92px" /><rect fill="rgb(156,130,90)" height="5px" width="5px" x="112px" y="92px" /><rect fill="rgb(198,166,116)" height="5px" width="5px" x="12px" y="96px" /><rect fill="rgb(182,151,102)" height="5px" width="5px" x="16px" y="96px" /><rect fill="rgb(171,142,97)" height="5px" width="5px" x="20px" y="96px" /><rect fill="rgb(156,130,90)" height="5px" width="5px" x="24px" y="96px" /><rect fill="rgb(140,140,140)" height="5px" width="5px" x="28px" y="96px" /><rect fill="rgb(160,160,160)" height="5px" width="5px" x="32px" y="96px" /><rect fill="rgb(252,211,148)" height="5px" width="5px" x="36px" y="96px" /><rect fill="rgb(252,211,148)" height="5px" width="5px" x="40px" y="96px" /><rect fill="rgb(252,211,148)" height="5px" width="5px" x="44px" y="96px" /><rect fill="rgb(153,129,91)" height="5px" width="5px" x="48px" y="96px" /><rect fill="rgb(192,160,111)" height="5px" width="5px" x="52px" y="96px" /><rect fill="rgb(127,127,127)" height="5px" width="5px" x="56px" y="96px" /><rect fill="rgb(86,86,86)" height="5px" width="5px" x="60px" y="96px" /><rect fill="rgb(62,62,62)" height="5px" width="5px" x="64px" y="96px" /><rect fill="rgb(36,36,36)" height="5px" width="5px" x="68px" y="96px" /><rect fill="rgb(36,36,36)" height="5px" width="5px" x="72px" y="96px" /><rect fill="rgb(149,124,86)" height="5px" width="5px" x="76px" y="96px" /><rect fill="rgb(153,129,91)" height="5px" width="5px" x="80px" y="96px" /><rect fill="rgb(252,211,148)" height="5px" width="5px" x="84px" y="96px" /><rect fill="rgb(252,211,148)" height="5px" width="5px" x="88px" y="96px" /><rect fill="rgb(252,211,148)" height="5px" width="5px" x="92px" y="96px" /><rect fill="rgb(252,211,148)" height="5px" width="5px" x="96px" y="96px" /><rect fill="rgb(199,167,117)" height="5px" width="5px" x="100px" y="96px" /><rect fill="rgb(182,151,102)" height="5px" width="5px" x="104px" y="96px" /><rect fill="rgb(171,142,97)" height="5px" width="5px" x="108px" y="96px" /><rect fill="rgb(156,130,90)" height="5px" width="5px" x="112px" y="96px" /><rect fill="rgb(198,166,116)" height="5px" width="5px" x="12px" y="100px" /><rect fill="rgb(182,151,102)" height="5px" width="5px" x="16px" y="100px" /><rect fill="rgb(171,142,97)" height="5px" width="5px" x="20px" y="100px" /><rect fill="rgb(156,130,90)" height="5px" width="5px" x="24px" y="100px" /><rect fill="rgb(140,140,140)" height="5px" width="5px" x="28px" y="100px" /><rect fill="rgb(160,160,160)" height="5px" width="5px" x="32px" y="100px" /><rect fill="rgb(252,211,148)" height="5px" width="5px" x="36px" y="100px" /><rect fill="rgb(252,211,148)" height="5px" width="5px" x="40px" y="100px" /><rect fill="rgb(252,211,148)" height="5px" width="5px" x="44px" y="100px" /><rect fill="rgb(153,129,91)" height="5px" width="5px" x="48px" y="100px" /><rect fill="rgb(192,160,111)" height="5px" width="5px" x="52px" y="100px" /><rect fill="rgb(127,127,127)" height="5px" width="5px" x="56px" y="100px" /><rect fill="rgb(106,106,106)" height="5px" width="5px" x="60px" y="100px" /><rect fill="rgb(86,86,86)" height="5px" width="5px" x="64px" y="100px" /><rect fill="rgb(62,62,62)" height="5px" width="5px" x="68px" y="100px" /><rect fill="rgb(36,36,36)" height="5px" width="5px" x="72px" y="100px" /><rect fill="rgb(149,124,86)" height="5px" width="5px" x="76px" y="100px" /><rect fill="rgb(153,129,91)" height="5px" width="5px" x="80px" y="100px" /><rect fill="rgb(252,211,148)" height="5px" width="5px" x="84px" y="100px" /><rect fill="rgb(252,211,148)" height="5px" width="5px" x="88px" y="100px" /><rect fill="rgb(252,211,148)" height="5px" width="5px" x="92px" y="100px" /><rect fill="rgb(252,211,148)" height="5px" width="5px" x="96px" y="100px" /><rect fill="rgb(199,167,117)" height="5px" width="5px" x="100px" y="100px" /><rect fill="rgb(182,151,102)" height="5px" width="5px" x="104px" y="100px" /><rect fill="rgb(171,142,97)" height="5px" width="5px" x="108px" y="100px" /><rect fill="rgb(156,130,90)" height="5px" width="5px" x="112px" y="100px" /><rect fill="rgb(199,167,117)" height="5px" width="5px" x="12px" y="104px" /><rect fill="rgb(182,151,102)" height="5px" width="5px" x="16px" y="104px" /><rect fill="rgb(171,142,97)" height="5px" width="5px" x="20px" y="104px" /><rect fill="rgb(156,130,90)" height="5px" width="5px" x="24px" y="104px" /><rect fill="rgb(140,140,140)" height="5px" width="5px" x="28px" y="104px" /><rect fill="rgb(160,160,160)" height="5px" width="5px" x="32px" y="104px" /><rect fill="rgb(252,211,148)" height="5px" width="5px" x="36px" y="104px" /><rect fill="rgb(252,211,148)" height="5px" width="5px" x="40px" y="104px" /><rect fill="rgb(252,211,148)" height="5px" width="5px" x="44px" y="104px" /><rect fill="rgb(153,129,91)" height="5px" width="5px" x="48px" y="104px" /><rect fill="rgb(192,160,111)" height="5px" width="5px" x="52px" y="104px" /><rect fill="rgb(127,127,127)" height="5px" width="5px" x="56px" y="104px" /><rect fill="rgb(106,106,106)" height="5px" width="5px" x="60px" y="104px" /><rect fill="rgb(86,86,86)" height="5px" width="5px" x="64px" y="104px" /><rect fill="rgb(62,62,62)" height="5px" width="5px" x="68px" y="104px" /><rect fill="rgb(36,36,36)" height="5px" width="5px" x="72px" y="104px" /><rect fill="rgb(149,124,86)" height="5px" width="5px" x="76px" y="104px" /><rect fill="rgb(153,129,91)" height="5px" width="5px" x="80px" y="104px" /><rect fill="rgb(252,211,148)" height="5px" width="5px" x="84px" y="104px" /><rect fill="rgb(252,211,148)" height="5px" width="5px" x="88px" y="104px" /><rect fill="rgb(252,211,148)" height="5px" width="5px" x="92px" y="104px" /><rect fill="rgb(252,211,148)" height="5px" width="5px" x="96px" y="104px" /><rect fill="rgb(199,167,117)" height="5px" width="5px" x="100px" y="104px" /><rect fill="rgb(182,151,102)" height="5px" width="5px" x="104px" y="104px" /><rect fill="rgb(171,142,97)" height="5px" width="5px" x="108px" y="104px" /><rect fill="rgb(156,130,90)" height="5px" width="5px" x="112px" y="104px" /><rect fill="rgb(199,167,117)" height="5px" width="5px" x="12px" y="108px" /><rect fill="rgb(182,151,102)" height="5px" width="5px" x="16px" y="108px" /><rect fill="rgb(171,142,97)" height="5px" width="5px" x="20px" y="108px" /><rect fill="rgb(156,130,90)" height="5px" width="5px" x="24px" y="108px" /><rect fill="rgb(140,140,140)" height="5px" width="5px" x="28px" y="108px" /><rect fill="rgb(140,140,140)" height="5px" width="5px" x="32px" y="108px" /><rect fill="rgb(160,160,160)" height="5px" width="5px" x="36px" y="108px" /><rect fill="rgb(253,212,148)" height="5px" width="5px" x="40px" y="108px" /><rect fill="rgb(253,212,148)" height="5px" width="5px" x="44px" y="108px" /><rect fill="rgb(153,129,91)" height="5px" width="5px" x="48px" y="108px" /><rect fill="rgb(192,160,111)" height="5px" width="5px" x="52px" y="108px" /><rect fill="rgb(127,127,127)" height="5px" width="5px" x="56px" y="108px" /><rect fill="rgb(106,106,106)" height="5px" width="5px" x="60px" y="108px" /><rect fill="rgb(86,86,86)" height="5px" width="5px" x="64px" y="108px" /><rect fill="rgb(62,62,62)" height="5px" width="5px" x="68px" y="108px" /><rect fill="rgb(36,36,36)" height="5px" width="5px" x="72px" y="108px" /><rect fill="rgb(192,160,111)" height="5px" width="5px" x="76px" y="108px" /><rect fill="rgb(153,129,91)" height="5px" width="5px" x="80px" y="108px" /><rect fill="rgb(252,211,148)" height="5px" width="5px" x="84px" y="108px" /><rect fill="rgb(253,212,148)" height="5px" width="5px" x="88px" y="108px" /><rect fill="rgb(253,212,148)" height="5px" width="5px" x="92px" y="108px" /><rect fill="rgb(253,212,148)" height="5px" width="5px" x="96px" y="108px" /><rect fill="rgb(199,167,117)" height="5px" width="5px" x="100px" y="108px" /><rect fill="rgb(182,151,102)" height="5px" width="5px" x="104px" y="108px" /><rect fill="rgb(171,142,97)" height="5px" width="5px" x="108px" y="108px" /><rect fill="rgb(156,130,90)" height="5px" width="5px" x="112px" y="108px" /><rect fill="rgb(199,167,117)" height="5px" width="5px" x="8px" y="112px" /><rect fill="rgb(199,167,117)" height="5px" width="5px" x="12px" y="112px" /><rect fill="rgb(182,151,102)" height="5px" width="5px" x="16px" y="112px" /><rect fill="rgb(171,142,97)" height="5px" width="5px" x="20px" y="112px" /><rect fill="rgb(156,130,90)" height="5px" width="5px" x="24px" y="112px" /><rect fill="rgb(156,130,90)" height="5px" width="5px" x="28px" y="112px" /><rect fill="rgb(134,116,88)" height="5px" width="5px" x="32px" y="112px" /><rect fill="rgb(128,128,128)" height="5px" width="5px" x="36px" y="112px" /><rect fill="rgb(160,160,160)" height="5px" width="5px" x="40px" y="112px" /><rect fill="rgb(252,211,148)" height="5px" width="5px" x="44px" y="112px" /><rect fill="rgb(153,129,91)" height="5px" width="5px" x="48px" y="112px" /><rect fill="rgb(192,160,111)" height="5px" width="5px" x="52px" y="112px" /><rect fill="rgb(127,127,127)" height="5px" width="5px" x="56px" y="112px" /><rect fill="rgb(106,106,106)" height="5px" width="5px" x="60px" y="112px" /><rect fill="rgb(86,86,86)" height="5px" width="5px" x="64px" y="112px" /><rect fill="rgb(62,62,62)" height="5px" width="5px" x="68px" y="112px" /><rect fill="rgb(36,36,36)" height="5px" width="5px" x="72px" y="112px" /><rect fill="rgb(192,160,111)" height="5px" width="5px" x="76px" y="112px" /><rect fill="rgb(153,129,91)" height="5px" width="5px" x="80px" y="112px" /><rect fill="rgb(252,211,148)" height="5px" width="5px" x="84px" y="112px" /><rect fill="rgb(252,211,148)" height="5px" width="5px" x="88px" y="112px" /><rect fill="rgb(252,211,148)" height="5px" width="5px" x="92px" y="112px" /><rect fill="rgb(199,167,117)" height="5px" width="5px" x="96px" y="112px" /><rect fill="rgb(199,167,117)" height="5px" width="5px" x="100px" y="112px" /><rect fill="rgb(182,151,102)" height="5px" width="5px" x="104px" y="112px" /><rect fill="rgb(171,142,97)" height="5px" width="5px" x="108px" y="112px" /><rect fill="rgb(156,130,90)" height="5px" width="5px" x="112px" y="112px" /><rect fill="rgb(156,130,90)" height="5px" width="5px" x="116px" y="112px" /></svg>