<?xml version="1.0" encoding="utf-8" ?>
<svg baseProfile="full" height="128px" version="1.1" width="128px" xmlns="http://www.w3.org/2000/svg" xmlns:ev="http://www.w3.org/2001/xml-events" xmlns:xlink="http://www.w3.org/1999/xlink"><defs /><rect fill="rgb(30,30,30)" height="5px" opacity="0.164705882353" width="5px" x="16px" y="4px" /><rect fill="rgb(0,0,0)" height="5px" opacity="0.0274509803922" width="5px" x="28px" y="4px" /><rect fill="rgb(34,34,34)" height="5px" opacity="0.466666666667" width="5px" x="12px" y="8px" /><rect fill="rgb(33,33,33)" height="5px" width="5px" x="16px" y="8px" /><rect fill="rgb(29,29,29)" height="5px" opacity="0.811764705882" width="5px" x="20px" y="8px" /><rect fill="rgb(30,30,30)" height="5px" opacity="0.725490196078" width="5px" x="24px" y="8px" /><rect fill="rgb(34,34,34)" height="5px" opacity="0.752941176471" width="5px" x="28px" y="8px" /><rect fill="rgb(0,0,0)" height="5px" opacity="0.0274509803922" width="5px" x="32px" y="8px" /><rect fill="rgb(0,0,0)" height="5px" opacity="0.0196078431373" width="5px" x="4px" y="12px" /><rect fill="rgb(34,34,34)" height="5px" opacity="0.639215686275" width="5px" x="8px" y="12px" /><rect fill="rgb(31,31,31)" height="5px" width="5px" x="12px" y="12px" /><rect fill="rgb(21,21,21)" height="5px" width="5px" x="16px" y="12px" /><rect fill="rgb(18,18,18)" height="5px" width="5px" x="20px" y="12px" /><rect fill="rgb(19,19,19)" height="5px" width="5px" x="24px" y="12px" /><rect fill="rgb(21,21,21)" height="5px" width="5px" x="28px" y="12px" /><rect fill="rgb(15,15,15)" height="5px" opacity="0.639215686275" width="5px" x="32px" y="12px" /><rect fill="rgb(14,14,14)" height="5px" opacity="0.0705882352941" width="5px" x="100px" y="12px" /><rect fill="rgb(0,0,0)" height="5px" opacity="0.0078431372549" width="5px" x="104px" y="12px" /><rect fill="rgb(31,31,31)" height="5px" opacity="0.192156862745" width="5px" x="0px" y="16px" /><rect fill="rgb(34,34,34)" height="5px" opacity="0.811764705882" width="5px" x="4px" y="16px" /><rect fill="rgb(28,28,28)" height="5px" width="5px" x="8px" y="16px" /><rect fill="rgb(19,19,19)" height="5px" width="5px" x="12px" y="16px" /><rect fill="rgb(18,18,18)" height="5px" width="5px" x="16px" y="16px" /><rect fill="rgb(17,17,17)" height="5px" width="5px" x="20px" y="16px" /><rect fill="rgb(17,17,17)" height="5px" width="5px" x="24px" y="16px" /><rect fill="rgb(19,19,19)" height="5px" width="5px" x="28px" y="16px" /><rect fill="rgb(18,18,18)" height="5px" opacity="0.909803921569" width="5px" x="32px" y="16px" /><rect fill="rgb(16,16,16)" height="5px" opacity="0.121568627451" width="5px" x="36px" y="16px" /><rect fill="rgb(15,15,15)" height="5px" opacity="0.0666666666667" width="5px" x="92px" y="16px" /><rect fill="rgb(16,16,16)" height="5px" opacity="0.662745098039" width="5px" x="96px" y="16px" /><rect fill="rgb(16,16,16)" height="5px" opacity="0.811764705882" width="5px" x="100px" y="16px" /><rect fill="rgb(16,16,16)" height="5px" opacity="0.788235294118" width="5px" x="104px" y="16px" /><rect fill="rgb(16,16,16)" height="5px" opacity="0.498039215686" width="5px" x="108px" y="16px" /><rect fill="rgb(15,15,15)" height="5px" opacity="0.325490196078" width="5px" x="112px" y="16px" /><rect fill="rgb(34,34,34)" height="5px" opacity="0.98431372549" width="5px" x="0px" y="20px" /><rect fill="rgb(25,25,25)" height="5px" width="5px" x="4px" y="20px" /><rect fill="rgb(19,19,19)" height="5px" width="5px" x="8px" y="20px" /><rect fill="rgb(17,17,17)" height="5px" width="5px" x="12px" y="20px" /><rect fill="rgb(17,17,17)" height="5px" width="5px" x="16px" y="20px" /><rect fill="rgb(17,17,17)" height="5px" width="5px" x="20px" y="20px" /><rect fill="rgb(17,17,17)" height="5px" width="5px" x="24px" y="20px" /><rect fill="rgb(28,28,28)" height="5px" width="5px" x="28px" y="20px" /><rect fill="rgb(51,51,51)" height="5px" opacity="0.886274509804" width="5px" x="32px" y="20px" /><rect fill="rgb(19,19,19)" height="5px" opacity="0.560784313725" width="5px" x="36px" y="20px" /><rect fill="rgb(15,15,15)" height="5px" opacity="0.254901960784" width="5px" x="40px" y="20px" /><rect fill="rgb(15,15,15)" height="5px" opacity="0.0666666666667" width="5px" x="88px" y="20px" /><rect fill="rgb(17,17,17)" height="5px" opacity="0.882352941176" width="5px" x="92px" y="20px" /><rect fill="rgb(17,17,17)" height="5px" width="5px" x="96px" y="20px" /><rect fill="rgb(17,17,17)" height="5px" width="5px" x="100px" y="20px" /><rect fill="rgb(17,17,17)" height="5px" width="5px" x="104px" y="20px" /><rect fill="rgb(18,18,18)" height="5px" width="5px" x="108px" y="20px" /><rect fill="rgb(31,31,31)" height="5px" opacity="0.913725490196" width="5px" x="112px" y="20px" /><rect fill="rgb(30,30,30)" height="5px" opacity="0.0980392156863" width="5px" x="116px" y="20px" /><rect fill="rgb(23,23,23)" height="5px" width="5px" x="0px" y="24px" /><rect fill="rgb(18,18,18)" height="5px" width="5px" x="4px" y="24px" /><rect fill="rgb(17,17,17)" height="5px" width="5px" x="8px" y="24px" /><rect fill="rgb(17,17,17)" height="5px" width="5px" x="12px" y="24px" /><rect fill="rgb(17,17,17)" height="5px" width="5px" x="16px" y="24px" /><rect fill="rgb(17,17,17)" height="5px" width="5px" x="20px" y="24px" /><rect fill="rgb(35,35,35)" height="5px" width="5px" x="24px" y="24px" /><rect fill="rgb(52,52,52)" height="5px" width="5px" x="28px" y="24px" /><rect fill="rgb(28,28,28)" height="5px" width="5px" x="32px" y="24px" /><rect fill="rgb(25,25,25)" height="5px" opacity="0.905882352941" width="5px" x="36px" y="24px" /><rect fill="rgb(15,15,15)" height="5px" opacity="0.0627450980392" width="5px" x="40px" y="24px" /><rect fill="rgb(15,15,15)" height="5px" opacity="0.0666666666667" width="5px" x="44px" y="24px" /><rect fill="rgb(16,16,16)" height="5px" opacity="0.427450980392" width="5px" x="84px" y="24px" /><rect fill="rgb(21,21,21)" height="5px" opacity="0.423529411765" width="5px" x="88px" y="24px" /><rect fill="rgb(33,33,33)" height="5px" opacity="0.827450980392" width="5px" x="92px" y="24px" /><rect fill="rgb(17,17,17)" height="5px" width="5px" x="96px" y="24px" /><rect fill="rgb(17,17,17)" height="5px" width="5px" x="100px" y="24px" /><rect fill="rgb(17,17,17)" height="5px" width="5px" x="104px" y="24px" /><rect fill="rgb(19,19,19)" height="5px" width="5px" x="108px" y="24px" /><rect fill="rgb(27,27,27)" height="5px" width="5px" x="112px" y="24px" /><rect fill="rgb(34,34,34)" height="5px" opacity="0.694117647059" width="5px" x="116px" y="24px" /><rect fill="rgb(17,17,17)" height="5px" width="5px" x="0px" y="28px" /><rect fill="rgb(17,17,17)" height="5px" width="5px" x="4px" y="28px" /><rect fill="rgb(17,17,17)" height="5px" width="5px" x="8px" y="28px" /><rect fill="rgb(17,17,17)" height="5px" width="5px" x="12px" y="28px" /><rect fill="rgb(17,17,17)" height="5px" width="5px" x="16px" y="28px" /><rect fill="rgb(41,41,41)" height="5px" width="5px" x="20px" y="28px" /><rect fill="rgb(46,46,46)" height="5px" width="5px" x="24px" y="28px" /><rect fill="rgb(22,22,22)" height="5px" width="5px" x="28px" y="28px" /><rect fill="rgb(35,35,35)" height="5px" width="5px" x="32px" y="28px" /><rect fill="rgb(52,52,52)" height="5px" width="5px" x="36px" y="28px" /><rect fill="rgb(23,23,23)" height="5px" opacity="0.866666666667" width="5px" x="40px" y="28px" /><rect fill="rgb(16,16,16)" height="5px" opacity="0.498039215686" width="5px" x="44px" y="28px" /><rect fill="rgb(11,11,11)" height="5px" opacity="0.0901960784314" width="5px" x="76px" y="28px" /><rect fill="rgb(17,17,17)" height="5px" opacity="0.411764705882" width="5px" x="80px" y="28px" /><rect fill="rgb(36,36,36)" height="5px" opacity="0.494117647059" width="5px" x="84px" y="28px" /><rect fill="rgb(18,18,18)" height="5px" opacity="0.992156862745" width="5px" x="88px" y="28px" /><rect fill="rgb(50,50,50)" height="5px" width="5px" x="92px" y="28px" /><rect fill="rgb(29,29,29)" height="5px" width="5px" x="96px" y="28px" /><rect fill="rgb(17,17,17)" height="5px" width="5px" x="100px" y="28px" /><rect fill="rgb(17,17,17)" height="5px" width="5px" x="104px" y="28px" /><rect fill="rgb(17,17,17)" height="5px" width="5px" x="108px" y="28px" /><rect fill="rgb(19,19,19)" height="5px" width="5px" x="112px" y="28px" /><rect fill="rgb(30,30,30)" height="5px" width="5px" x="116px" y="28px" /><rect fill="rgb(34,34,34)" height="5px" opacity="0.466666666667" width="5px" x="120px" y="28px" /><rect fill="rgb(17,17,17)" height="5px" width="5px" x="0px" y="32px" /><rect fill="rgb(17,17,17)" height="5px" width="5px" x="4px" y="32px" /><rect fill="rgb(17,17,17)" height="5px" width="5px" x="8px" y="32px" /><rect fill="rgb(24,24,24)" height="5px" width="5px" x="12px" y="32px" /><rect fill="rgb(48,48,48)" height="5px" width="5px" x="16px" y="32px" /><rect fill="rgb(39,39,39)" height="5px" width="5px" x="20px" y="32px" /><rect fill="rgb(18,18,18)" height="5px" width="5px" x="24px" y="32px" /><rect fill="rgb(42,42,42)" height="5px" width="5px" x="28px" y="32px" /><rect fill="rgb(45,45,45)" height="5px" width="5px" x="32px" y="32px" /><rect fill="rgb(21,21,21)" height="5px" width="5px" x="36px" y="32px" /><rect fill="rgb(36,36,36)" height="5px" width="5px" x="40px" y="32px" /><rect fill="rgb(44,44,44)" height="5px" opacity="0.43137254902" width="5px" x="44px" y="32px" /><rect fill="rgb(16,16,16)" height="5px" opacity="0.41568627451" width="5px" x="48px" y="32px" /><rect fill="rgb(14,14,14)" height="5px" opacity="0.278431372549" width="5px" x="72px" y="32px" /><rect fill="rgb(0,0,0)" height="5px" opacity="0.0352941176471" width="5px" x="76px" y="32px" /><rect fill="rgb(20,20,20)" height="5px" opacity="0.929411764706" width="5px" x="80px" y="32px" /><rect fill="rgb(42,42,42)" height="5px" width="5px" x="84px" y="32px" /><rect fill="rgb(37,37,37)" height="5px" width="5px" x="88px" y="32px" /><rect fill="rgb(27,27,27)" height="5px" width="5px" x="92px" y="32px" /><rect fill="rgb(52,52,52)" height="5px" width="5px" x="96px" y="32px" /><rect fill="rgb(20,20,20)" height="5px" width="5px" x="100px" y="32px" /><rect fill="rgb(17,17,17)" height="5px" width="5px" x="104px" y="32px" /><rect fill="rgb(17,17,17)" height="5px" width="5px" x="108px" y="32px" /><rect fill="rgb(17,17,17)" height="5px" width="5px" x="112px" y="32px" /><rect fill="rgb(21,21,21)" height="5px" width="5px" x="116px" y="32px" /><rect fill="rgb(34,34,34)" height="5px" width="5px" x="120px" y="32px" /><rect fill="rgb(32,32,32)" height="5px" opacity="0.247058823529" width="5px" x="124px" y="32px" /><rect fill="rgb(17,17,17)" height="5px" width="5px" x="0px" y="36px" /><rect fill="rgb(17,17,17)" height="5px" width="5px" x="4px" y="36px" /><rect fill="rgb(31,31,31)" height="5px" width="5px" x="8px" y="36px" /><rect fill="rgb(55,55,55)" height="5px" width="5px" x="12px" y="36px" /><rect fill="rgb(32,32,32)" height="5px" width="5px" x="16px" y="36px" /><rect fill="rgb(25,25,25)" height="5px" width="5px" x="20px" y="36px" /><rect fill="rgb(49,49,49)" height="5px" width="5px" x="24px" y="36px" /><rect fill="rgb(38,38,38)" height="5px" width="5px" x="28px" y="36px" /><rect fill="rgb(19,19,19)" height="5px" width="5px" x="32px" y="36px" /><rect fill="rgb(43,43,43)" height="5px" width="5px" x="36px" y="36px" /><rect fill="rgb(44,44,44)" height="5px" width="5px" x="40px" y="36px" /><rect fill="rgb(20,20,20)" height="5px" opacity="0.996078431373" width="5px" x="44px" y="36px" /><rect fill="rgb(22,22,22)" height="5px" opacity="0.572549019608" width="5px" x="48px" y="36px" /><rect fill="rgb(0,0,0)" height="5px" opacity="0.0549019607843" width="5px" x="52px" y="36px" /><rect fill="rgb(10,10,10)" height="5px" opacity="0.0941176470588" width="5px" x="68px" y="36px" /><rect fill="rgb(19,19,19)" height="5px" opacity="0.709803921569" width="5px" x="72px" y="36px" /><rect fill="rgb(31,31,31)" height="5px" opacity="0.890196078431" width="5px" x="76px" y="36px" /><rect fill="rgb(45,45,45)" height="5px" width="5px" x="80px" y="36px" /><rect fill="rgb(19,19,19)" height="5px" width="5px" x="84px" y="36px" /><rect fill="rgb(51,51,51)" height="5px" width="5px" x="88px" y="36px" /><rect fill="rgb(29,29,29)" height="5px" width="5px" x="92px" y="36px" /><rect fill="rgb(36,36,36)" height="5px" width="5px" x="96px" y="36px" /><rect fill="rgb(44,44,44)" height="5px" width="5px" x="100px" y="36px" /><rect fill="rgb(17,17,17)" height="5px" width="5px" x="104px" y="36px" /><rect fill="rgb(17,17,17)" height="5px" width="5px" x="108px" y="36px" /><rect fill="rgb(17,17,17)" height="5px" width="5px" x="112px" y="36px" /><rect fill="rgb(18,18,18)" height="5px" width="5px" x="116px" y="36px" /><rect fill="rgb(25,25,25)" height="5px" width="5px" x="120px" y="36px" /><rect fill="rgb(34,34,34)" height="5px" opacity="0.835294117647" width="5px" x="124px" y="36px" /><rect fill="rgb(17,17,17)" height="5px" width="5px" x="0px" y="40px" /><rect fill="rgb(38,38,38)" height="5px" width="5px" x="4px" y="40px" /><rect fill="rgb(49,49,49)" height="5px" width="5px" x="8px" y="40px" /><rect fill="rgb(25,25,25)" height="5px" width="5px" x="12px" y="40px" /><rect fill="rgb(31,31,31)" height="5px" width="5px" x="16px" y="40px" /><rect fill="rgb(56,56,56)" height="5px" width="5px" x="20px" y="40px" /><rect fill="rgb(31,31,31)" height="5px" width="5px" x="24px" y="40px" /><rect fill="rgb(26,26,26)" height="5px" width="5px" x="28px" y="40px" /><rect fill="rgb(50,50,50)" height="5px" width="5px" x="32px" y="40px" /><rect fill="rgb(38,38,38)" height="5px" width="5px" x="36px" y="40px" /><rect fill="rgb(20,20,20)" height="5px" width="5px" x="40px" y="40px" /><rect fill="rgb(44,44,44)" height="5px" width="5px" x="44px" y="40px" /><rect fill="rgb(41,41,41)" height="5px" opacity="0.862745098039" width="5px" x="48px" y="40px" /><rect fill="rgb(16,16,16)" height="5px" opacity="0.929411764706" width="5px" x="52px" y="40px" /><rect fill="rgb(9,9,9)" height="5px" opacity="0.101960784314" width="5px" x="56px" y="40px" /><rect fill="rgb(17,17,17)" height="5px" opacity="0.352941176471" width="5px" x="64px" y="40px" /><rect fill="rgb(21,21,21)" height="5px" opacity="0.847058823529" width="5px" x="68px" y="40px" /><rect fill="rgb(53,53,53)" height="5px" opacity="0.98431372549" width="5px" x="72px" y="40px" /><rect fill="rgb(22,22,22)" height="5px" width="5px" x="76px" y="40px" /><rect fill="rgb(43,43,43)" height="5px" width="5px" x="80px" y="40px" /><rect fill="rgb(37,37,37)" height="5px" width="5px" x="84px" y="40px" /><rect fill="rgb(28,28,28)" height="5px" width="5px" x="88px" y="40px" /><rect fill="rgb(52,52,52)" height="5px" width="5px" x="92px" y="40px" /><rect fill="rgb(20,20,20)" height="5px" width="5px" x="96px" y="40px" /><rect fill="rgb(45,45,45)" height="5px" width="5px" x="100px" y="40px" /><rect fill="rgb(35,35,35)" height="5px" width="5px" x="104px" y="40px" /><rect fill="rgb(17,17,17)" height="5px" width="5px" x="108px" y="40px" /><rect fill="rgb(17,17,17)" height="5px" width="5px" x="112px" y="40px" /><rect fill="rgb(17,17,17)" height="5px" width="5px" x="116px" y="40px" /><rect fill="rgb(19,19,19)" height="5px" width="5px" x="120px" y="40px" /><rect fill="rgb(28,28,28)" height="5px" width="5px" x="124px" y="40px" /><rect fill="rgb(23,23,23)" height="5px" opacity="0.376470588235" width="5px" x="0px" y="44px" /><rect fill="rgb(41,41,41)" height="5px" opacity="0.941176470588" width="5px" x="4px" y="44px" /><rect fill="rgb(19,19,19)" height="5px" width="5px" x="8px" y="44px" /><rect fill="rgb(38,38,38)" height="5px" width="5px" x="12px" y="44px" /><rect fill="rgb(49,49,49)" height="5px" width="5px" x="16px" y="44px" /><rect fill="rgb(25,25,25)" height="5px" width="5px" x="20px" y="44px" /><rect fill="rgb(32,32,32)" height="5px" width="5px" x="24px" y="44px" /><rect fill="rgb(55,55,55)" height="5px" width="5px" x="28px" y="44px" /><rect fill="rgb(31,31,31)" height="5px" width="5px" x="32px" y="44px" /><rect fill="rgb(25,25,25)" height="5px" width="5px" x="36px" y="44px" /><rect fill="rgb(46,46,46)" height="5px" width="5px" x="40px" y="44px" /><rect fill="rgb(37,37,37)" height="5px" width="5px" x="44px" y="44px" /><rect fill="rgb(16,16,16)" height="5px" opacity="0.898039215686" width="5px" x="48px" y="44px" /><rect fill="rgb(14,14,14)" height="5px" opacity="0.278431372549" width="5px" x="52px" y="44px" /><rect fill="rgb(16,16,16)" height="5px" opacity="0.662745098039" width="5px" x="68px" y="44px" /><rect fill="rgb(35,35,35)" height="5px" width="5px" x="72px" y="44px" /><rect fill="rgb(45,45,45)" height="5px" width="5px" x="76px" y="44px" /><rect fill="rgb(20,20,20)" height="5px" width="5px" x="80px" y="44px" /><rect fill="rgb(52,52,52)" height="5px" width="5px" x="84px" y="44px" /><rect fill="rgb(28,28,28)" height="5px" width="5px" x="88px" y="44px" /><rect fill="rgb(37,37,37)" height="5px" width="5px" x="92px" y="44px" /><rect fill="rgb(43,43,43)" height="5px" width="5px" x="96px" y="44px" /><rect fill="rgb(22,22,22)" height="5px" width="5px" x="100px" y="44px" /><rect fill="rgb(53,53,53)" height="5px" width="5px" x="104px" y="44px" /><rect fill="rgb(26,26,26)" height="5px" width="5px" x="108px" y="44px" /><rect fill="rgb(17,17,17)" height="5px" width="5px" x="112px" y="44px" /><rect fill="rgb(17,17,17)" height="5px" width="5px" x="116px" y="44px" /><rect fill="rgb(17,17,17)" height="5px" width="5px" x="120px" y="44px" /><rect fill="rgb(26,26,26)" height="5px" width="5px" x="124px" y="44px" /><rect fill="rgb(15,15,15)" height="5px" opacity="0.250980392157" width="5px" x="0px" y="48px" /><rect fill="rgb(17,17,17)" height="5px" opacity="0.913725490196" width="5px" x="4px" y="48px" /><rect fill="rgb(45,45,45)" height="5px" width="5px" x="8px" y="48px" /><rect fill="rgb(42,42,42)" height="5px" width="5px" x="12px" y="48px" /><rect fill="rgb(18,18,18)" height="5px" width="5px" x="16px" y="48px" /><rect fill="rgb(39,39,39)" height="5px" width="5px" x="20px" y="48px" /><rect fill="rgb(48,48,48)" height="5px" width="5px" x="24px" y="48px" /><rect fill="rgb(24,24,24)" height="5px" width="5px" x="28px" y="48px" /><rect fill="rgb(32,32,32)" height="5px" width="5px" x="32px" y="48px" /><rect fill="rgb(28,28,28)" height="5px" width="5px" x="36px" y="48px" /><rect fill="rgb(19,19,19)" height="5px" width="5px" x="40px" y="48px" /><rect fill="rgb(17,17,17)" height="5px" opacity="0.749019607843" width="5px" x="44px" y="48px" /><rect fill="rgb(9,9,9)" height="5px" opacity="0.105882352941" width="5px" x="48px" y="48px" /><rect fill="rgb(15,15,15)" height="5px" opacity="0.0666666666667" width="5px" x="68px" y="48px" /><rect fill="rgb(17,17,17)" height="5px" opacity="0.882352941176" width="5px" x="72px" y="48px" /><rect fill="rgb(43,43,43)" height="5px" width="5px" x="76px" y="48px" /><rect fill="rgb(36,36,36)" height="5px" width="5px" x="80px" y="48px" /><rect fill="rgb(28,28,28)" height="5px" width="5px" x="84px" y="48px" /><rect fill="rgb(51,51,51)" height="5px" width="5px" x="88px" y="48px" /><rect fill="rgb(19,19,19)" height="5px" width="5px" x="92px" y="48px" /><rect fill="rgb(45,45,45)" height="5px" width="5px" x="96px" y="48px" /><rect fill="rgb(34,34,34)" height="5px" width="5px" x="100px" y="48px" /><rect fill="rgb(30,30,30)" height="5px" width="5px" x="104px" y="48px" /><rect fill="rgb(49,49,49)" height="5px" width="5px" x="108px" y="48px" /><rect fill="rgb(18,18,18)" height="5px" width="5px" x="112px" y="48px" /><rect fill="rgb(17,17,17)" height="5px" width="5px" x="116px" y="48px" /><rect fill="rgb(18,18,18)" height="5px" width="5px" x="120px" y="48px" /><rect fill="rgb(26,26,26)" height="5px" opacity="0.898039215686" width="5px" x="124px" y="48px" /><rect fill="rgb(15,15,15)" height="5px" opacity="0.0627450980392" width="5px" x="4px" y="52px" /><rect fill="rgb(28,28,28)" height="5px" opacity="0.741176470588" width="5px" x="8px" y="52px" /><rect fill="rgb(22,22,22)" height="5px" width="5px" x="12px" y="52px" /><rect fill="rgb(46,46,46)" height="5px" width="5px" x="16px" y="52px" /><rect fill="rgb(41,41,41)" height="5px" width="5px" x="20px" y="52px" /><rect fill="rgb(17,17,17)" height="5px" width="5px" x="24px" y="52px" /><rect fill="rgb(37,37,37)" height="5px" width="5px" x="28px" y="52px" /><rect fill="rgb(22,22,22)" height="5px" width="5px" x="32px" y="52px" /><rect fill="rgb(17,17,17)" height="5px" width="5px" x="36px" y="52px" /><rect fill="rgb(17,17,17)" height="5px" width="5px" x="40px" y="52px" /><rect fill="rgb(16,16,16)" height="5px" opacity="0.776470588235" width="5px" x="44px" y="52px" /><rect fill="rgb(31,31,31)" height="5px" opacity="0.0313725490196" width="5px" x="48px" y="52px" /><rect fill="rgb(16,16,16)" height="5px" opacity="0.41568627451" width="5px" x="72px" y="52px" /><rect fill="rgb(20,20,20)" height="5px" width="5px" x="76px" y="52px" /><rect fill="rgb(52,52,52)" height="5px" width="5px" x="80px" y="52px" /><rect fill="rgb(27,27,27)" height="5px" width="5px" x="84px" y="52px" /><rect fill="rgb(37,37,37)" height="5px" width="5px" x="88px" y="52px" /><rect fill="rgb(42,42,42)" height="5px" width="5px" x="92px" y="52px" /><rect fill="rgb(22,22,22)" height="5px" width="5px" x="96px" y="52px" /><rect fill="rgb(54,54,54)" height="5px" width="5px" x="100px" y="52px" /><rect fill="rgb(26,26,26)" height="5px" width="5px" x="104px" y="52px" /><rect fill="rgb(39,39,39)" height="5px" width="5px" x="108px" y="52px" /><rect fill="rgb(41,41,41)" height="5px" width="5px" x="112px" y="52px" /><rect fill="rgb(19,19,19)" height="5px" width="5px" x="116px" y="52px" /><rect fill="rgb(18,18,18)" height="5px" width="5px" x="120px" y="52px" /><rect fill="rgb(30,30,30)" height="5px" opacity="0.945098039216" width="5px" x="124px" y="52px" /><rect fill="rgb(0,0,0)" height="5px" opacity="0.0470588235294" width="5px" x="4px" y="56px" /><rect fill="rgb(16,16,16)" height="5px" opacity="0.596078431373" width="5px" x="8px" y="56px" /><rect fill="rgb(51,51,51)" height="5px" opacity="0.666666666667" width="5px" x="12px" y="56px" /><rect fill="rgb(34,34,34)" height="5px" width="5px" x="16px" y="56px" /><rect fill="rgb(23,23,23)" height="5px" width="5px" x="20px" y="56px" /><rect fill="rgb(46,46,46)" height="5px" width="5px" x="24px" y="56px" /><rect fill="rgb(28,28,28)" height="5px" width="5px" x="28px" y="56px" /><rect fill="rgb(17,17,17)" height="5px" width="5px" x="32px" y="56px" /><rect fill="rgb(17,17,17)" height="5px" width="5px" x="36px" y="56px" /><rect fill="rgb(17,17,17)" height="5px" width="5px" x="40px" y="56px" /><rect fill="rgb(17,17,17)" height="5px" width="5px" x="44px" y="56px" /><rect fill="rgb(17,17,17)" height="5px" opacity="0.639215686275" width="5px" x="48px" y="56px" /><rect fill="rgb(0,0,0)" height="5px" opacity="0.00392156862745" width="5px" x="52px" y="56px" /><rect fill="rgb(18,18,18)" height="5px" opacity="0.274509803922" width="5px" x="68px" y="56px" /><rect fill="rgb(16,16,16)" height="5px" opacity="0.945098039216" width="5px" x="72px" y="56px" /><rect fill="rgb(16,16,16)" height="5px" width="5px" x="76px" y="56px" /><rect fill="rgb(29,29,29)" height="5px" width="5px" x="80px" y="56px" /><rect fill="rgb(50,50,50)" height="5px" width="5px" x="84px" y="56px" /><rect fill="rgb(19,19,19)" height="5px" width="5px" x="88px" y="56px" /><rect fill="rgb(46,46,46)" height="5px" width="5px" x="92px" y="56px" /><rect fill="rgb(34,34,34)" height="5px" width="5px" x="96px" y="56px" /><rect fill="rgb(31,31,31)" height="5px" width="5px" x="100px" y="56px" /><rect fill="rgb(48,48,48)" height="5px" width="5px" x="104px" y="56px" /><rect fill="rgb(17,17,17)" height="5px" width="5px" x="108px" y="56px" /><rect fill="rgb(46,46,46)" height="5px" opacity="0.917647058824" width="5px" x="112px" y="56px" /><rect fill="rgb(23,23,23)" height="5px" opacity="0.725490196078" width="5px" x="116px" y="56px" /><rect fill="rgb(16,16,16)" height="5px" opacity="0.717647058824" width="5px" x="120px" y="56px" /><rect fill="rgb(15,15,15)" height="5px" opacity="0.129411764706" width="5px" x="124px" y="56px" /><rect fill="rgb(0,0,0)" height="5px" opacity="0.0196078431373" width="5px" x="8px" y="60px" /><rect fill="rgb(16,16,16)" height="5px" opacity="0.717647058824" width="5px" x="12px" y="60px" /><rect fill="rgb(27,27,27)" height="5px" opacity="0.937254901961" width="5px" x="16px" y="60px" /><rect fill="rgb(53,53,53)" height="5px" width="5px" x="20px" y="60px" /><rect fill="rgb(34,34,34)" height="5px" width="5px" x="24px" y="60px" /><rect fill="rgb(16,16,16)" height="5px" opacity="0.83137254902" width="5px" x="28px" y="60px" /><rect fill="rgb(16,16,16)" height="5px" opacity="0.78431372549" width="5px" x="32px" y="60px" /><rect fill="rgb(17,17,17)" height="5px" width="5px" x="36px" y="60px" /><rect fill="rgb(17,17,17)" height="5px" width="5px" x="40px" y="60px" /><rect fill="rgb(17,17,17)" height="5px" width="5px" x="44px" y="60px" /><rect fill="rgb(17,17,17)" height="5px" width="5px" x="48px" y="60px" /><rect fill="rgb(16,16,16)" height="5px" opacity="0.478431372549" width="5px" x="52px" y="60px" /><rect fill="rgb(16,16,16)" height="5px" opacity="0.364705882353" width="5px" x="64px" y="60px" /><rect fill="rgb(17,17,17)" height="5px" opacity="0.980392156863" width="5px" x="68px" y="60px" /><rect fill="rgb(17,17,17)" height="5px" width="5px" x="72px" y="60px" /><rect fill="rgb(17,17,17)" height="5px" width="5px" x="76px" y="60px" /><rect fill="rgb(17,17,17)" height="5px" width="5px" x="80px" y="60px" /><rect fill="rgb(38,38,38)" height="5px" width="5px" x="84px" y="60px" /><rect fill="rgb(42,42,42)" height="5px" width="5px" x="88px" y="60px" /><rect fill="rgb(23,23,23)" height="5px" width="5px" x="92px" y="60px" /><rect fill="rgb(54,54,54)" height="5px" width="5px" x="96px" y="60px" /><rect fill="rgb(25,25,25)" height="5px" width="5px" x="100px" y="60px" /><rect fill="rgb(40,40,40)" height="5px" width="5px" x="104px" y="60px" /><rect fill="rgb(36,36,36)" height="5px" opacity="0.803921568627" width="5px" x="108px" y="60px" /><rect fill="rgb(17,17,17)" height="5px" opacity="0.803921568627" width="5px" x="112px" y="60px" /><rect fill="rgb(0,0,0)" height="5px" opacity="0.00392156862745" width="5px" x="116px" y="60px" /><rect fill="rgb(14,14,14)" height="5px" opacity="0.203921568627" width="5px" x="12px" y="64px" /><rect fill="rgb(40,40,40)" height="5px" opacity="0.294117647059" width="5px" x="16px" y="64px" /><rect fill="rgb(27,27,27)" height="5px" opacity="0.996078431373" width="5px" x="20px" y="64px" /><rect fill="rgb(16,16,16)" height="5px" opacity="0.654901960784" width="5px" x="24px" y="64px" /><rect fill="rgb(0,0,0)" height="5px" opacity="0.0352941176471" width="5px" x="28px" y="64px" /><rect fill="rgb(17,17,17)" height="5px" opacity="0.0588235294118" width="5px" x="32px" y="64px" /><rect fill="rgb(16,16,16)" height="5px" opacity="0.839215686275" width="5px" x="36px" y="64px" /><rect fill="rgb(17,17,17)" height="5px" width="5px" x="40px" y="64px" /><rect fill="rgb(17,17,17)" height="5px" width="5px" x="44px" y="64px" /><rect fill="rgb(17,17,17)" height="5px" width="5px" x="48px" y="64px" /><rect fill="rgb(17,17,17)" height="5px" opacity="0.992156862745" width="5px" x="52px" y="64px" /><rect fill="rgb(15,15,15)" height="5px" opacity="0.321568627451" width="5px" x="56px" y="64px" /><rect fill="rgb(17,17,17)" height="5px" opacity="0.466666666667" width="5px" x="60px" y="64px" /><rect fill="rgb(17,17,17)" height="5px" opacity="0.996078431373" width="5px" x="64px" y="64px" /><rect fill="rgb(17,17,17)" height="5px" width="5px" x="68px" y="64px" /><rect fill="rgb(17,17,17)" height="5px" width="5px" x="72px" y="64px" /><rect fill="rgb(17,17,17)" height="5px" width="5px" x="76px" y="64px" /><rect fill="rgb(17,17,17)" height="5px" width="5px" x="80px" y="64px" /><rect fill="rgb(16,16,16)" height="5px" opacity="0.98431372549" width="5px" x="84px" y="64px" /><rect fill="rgb(46,46,46)" height="5px" width="5px" x="88px" y="64px" /><rect fill="rgb(33,33,33)" height="5px" width="5px" x="92px" y="64px" /><rect fill="rgb(31,31,31)" height="5px" width="5px" x="96px" y="64px" /><rect fill="rgb(48,48,48)" height="5px" width="5px" x="100px" y="64px" /><rect fill="rgb(17,17,17)" height="5px" width="5px" x="104px" y="64px" /><rect fill="rgb(12,12,12)" height="5px" opacity="0.160784313725" width="5px" x="108px" y="64px" /><rect fill="rgb(11,11,11)" height="5px" opacity="0.172549019608" width="5px" x="112px" y="64px" /><rect fill="rgb(15,15,15)" height="5px" opacity="0.525490196078" width="5px" x="16px" y="68px" /><rect fill="rgb(16,16,16)" height="5px" opacity="0.482352941176" width="5px" x="20px" y="68px" /><rect fill="rgb(14,14,14)" height="5px" opacity="0.137254901961" width="5px" x="36px" y="68px" /><rect fill="rgb(17,17,17)" height="5px" opacity="0.925490196078" width="5px" x="40px" y="68px" /><rect fill="rgb(17,17,17)" height="5px" width="5px" x="44px" y="68px" /><rect fill="rgb(17,17,17)" height="5px" width="5px" x="48px" y="68px" /><rect fill="rgb(17,17,17)" height="5px" width="5px" x="52px" y="68px" /><rect fill="rgb(17,17,17)" height="5px" opacity="0.980392156863" width="5px" x="56px" y="68px" /><rect fill="rgb(17,17,17)" height="5px" width="5px" x="60px" y="68px" /><rect fill="rgb(17,17,17)" height="5px" width="5px" x="64px" y="68px" /><rect fill="rgb(17,17,17)" height="5px" width="5px" x="68px" y="68px" /><rect fill="rgb(17,17,17)" height="5px" width="5px" x="72px" y="68px" /><rect fill="rgb(17,17,17)" height="5px" opacity="0.992156862745" width="5px" x="76px" y="68px" /><rect fill="rgb(16,16,16)" height="5px" opacity="0.435294117647" width="5px" x="80px" y="68px" /><rect fill="rgb(16,16,16)" height="5px" opacity="0.364705882353" width="5px" x="84px" y="68px" /><rect fill="rgb(24,24,24)" height="5px" width="5px" x="88px" y="68px" /><rect fill="rgb(55,55,55)" height="5px" width="5px" x="92px" y="68px" /><rect fill="rgb(22,22,22)" height="5px" opacity="0.960784313725" width="5px" x="96px" y="68px" /><rect fill="rgb(26,26,26)" height="5px" opacity="0.533333333333" width="5px" x="100px" y="68px" /><rect fill="rgb(15,15,15)" height="5px" opacity="0.266666666667" width="5px" x="104px" y="68px" /><rect fill="rgb(0,0,0)" height="5px" opacity="0.0470588235294" width="5px" x="108px" y="68px" /><rect fill="rgb(15,15,15)" height="5px" opacity="0.250980392157" width="5px" x="40px" y="72px" /><rect fill="rgb(17,17,17)" height="5px" opacity="0.976470588235" width="5px" x="44px" y="72px" /><rect fill="rgb(17,17,17)" height="5px" width="5px" x="48px" y="72px" /><rect fill="rgb(17,17,17)" height="5px" width="5px" x="52px" y="72px" /><rect fill="rgb(17,17,17)" height="5px" width="5px" x="56px" y="72px" /><rect fill="rgb(17,17,17)" height="5px" width="5px" x="60px" y="72px" /><rect fill="rgb(17,17,17)" height="5px" width="5px" x="64px" y="72px" /><rect fill="rgb(17,17,17)" height="5px" width="5px" x="68px" y="72px" /><rect fill="rgb(17,17,17)" height="5px" opacity="0.972549019608" width="5px" x="72px" y="72px" /><rect fill="rgb(18,18,18)" height="5px" opacity="0.333333333333" width="5px" x="76px" y="72px" /><rect fill="rgb(16,16,16)" height="5px" opacity="0.592156862745" width="5px" x="88px" y="72px" /><rect fill="rgb(27,27,27)" height="5px" opacity="0.839215686275" width="5px" x="92px" y="72px" /><rect fill="rgb(18,18,18)" height="5px" opacity="0.219607843137" width="5px" x="96px" y="72px" /><rect fill="rgb(17,17,17)" height="5px" opacity="0.411764705882" width="5px" x="100px" y="72px" /><rect fill="rgb(18,18,18)" height="5px" opacity="0.43137254902" width="5px" x="44px" y="76px" /><rect fill="rgb(17,17,17)" height="5px" width="5px" x="48px" y="76px" /><rect fill="rgb(17,17,17)" height="5px" width="5px" x="52px" y="76px" /><rect fill="rgb(17,17,17)" height="5px" width="5px" x="56px" y="76px" /><rect fill="rgb(17,17,17)" height="5px" width="5px" x="60px" y="76px" /><rect fill="rgb(17,17,17)" height="5px" width="5px" x="64px" y="76px" /><rect fill="rgb(17,17,17)" height="5px" opacity="0.937254901961" width="5px" x="68px" y="76px" /><rect fill="rgb(16,16,16)" height="5px" opacity="0.247058823529" width="5px" x="72px" y="76px" /><rect fill="rgb(15,15,15)" height="5px" opacity="0.639215686275" width="5px" x="92px" y="76px" /><rect fill="rgb(13,13,13)" height="5px" opacity="0.0745098039216" width="5px" x="96px" y="76px" /><rect fill="rgb(17,17,17)" height="5px" opacity="0.113725490196" width="5px" x="40px" y="80px" /><rect fill="rgb(16,16,16)" height="5px" opacity="0.83137254902" width="5px" x="44px" y="80px" /><rect fill="rgb(17,17,17)" height="5px" width="5px" x="48px" y="80px" /><rect fill="rgb(17,17,17)" height="5px" width="5px" x="52px" y="80px" /><rect fill="rgb(17,17,17)" height="5px" width="5px" x="56px" y="80px" /><rect fill="rgb(17,17,17)" height="5px" width="5px" x="60px" y="80px" /><rect fill="rgb(17,17,17)" height="5px" width="5px" x="64px" y="80px" /><rect fill="rgb(16,16,16)" height="5px" opacity="0.717647058824" width="5px" x="68px" y="80px" /><rect fill="rgb(0,0,0)" height="5px" opacity="0.00392156862745" width="5px" x="72px" y="80px" /><rect fill="rgb(17,17,17)" height="5px" opacity="0.176470588235" width="5px" x="36px" y="84px" /><rect fill="rgb(16,16,16)" height="5px" opacity="0.890196078431" width="5px" x="40px" y="84px" /><rect fill="rgb(17,17,17)" height="5px" width="5px" x="44px" y="84px" /><rect fill="rgb(17,17,17)" height="5px" width="5px" x="48px" y="84px" /><rect fill="rgb(17,17,17)" height="5px" width="5px" x="52px" y="84px" /><rect fill="rgb(17,17,17)" height="5px" width="5px" x="56px" y="84px" /><rect fill="rgb(17,17,17)" height="5px" width="5px" x="60px" y="84px" /><rect fill="rgb(17,17,17)" height="5px" width="5px" x="64px" y="84px" /><rect fill="rgb(17,17,17)" height="5px" width="5px" x="68px" y="84px" /><rect fill="rgb(16,16,16)" height="5px" opacity="0.498039215686" width="5px" x="72px" y="84px" /><rect fill="rgb(15,15,15)" height="5px" opacity="0.250980392157" width="5px" x="32px" y="88px" /><rect fill="rgb(17,17,17)" height="5px" opacity="0.937254901961" width="5px" x="36px" y="88px" /><rect fill="rgb(17,17,17)" height="5px" width="5px" x="40px" y="88px" /><rect fill="rgb(17,17,17)" height="5px" width="5px" x="44px" y="88px" /><rect fill="rgb(17,17,17)" height="5px" width="5px" x="48px" y="88px" /><rect fill="rgb(17,17,17)" height="5px" width="5px" x="52px" y="88px" /><rect fill="rgb(16,16,16)" height="5px" opacity="0.956862745098" width="5px" x="56px" y="88px" /><rect fill="rgb(17,17,17)" height="5px" width="5px" x="60px" y="88px" /><rect fill="rgb(17,17,17)" height="5px" width="5px" x="64px" y="88px" /><rect fill="rgb(17,17,17)" height="5px" width="5px" x="68px" y="88px" /><rect fill="rgb(17,17,17)" height="5px" opacity="0.996078431373" width="5px" x="72px" y="88px" /><rect fill="rgb(17,17,17)" height="5px" opacity="0.337254901961" width="5px" x="76px" y="88px" /><rect fill="rgb(17,17,17)" height="5px" opacity="0.337254901961" width="5px" x="28px" y="92px" /><rect fill="rgb(17,17,17)" height="5px" opacity="0.972549019608" width="5px" x="32px" y="92px" /><rect fill="rgb(17,17,17)" height="5px" width="5px" x="36px" y="92px" /><rect fill="rgb(17,17,17)" height="5px" width="5px" x="40px" y="92px" /><rect fill="rgb(17,17,17)" height="5px" width="5px" x="44px" y="92px" /><rect fill="rgb(17,17,17)" height="5px" width="5px" x="48px" y="92px" /><rect fill="rgb(16,16,16)" height="5px" opacity="0.670588235294" width="5px" x="52px" y="92px" /><rect fill="rgb(19,19,19)" height="5px" opacity="0.156862745098" width="5px" x="56px" y="92px" /><rect fill="rgb(17,17,17)" height="5px" opacity="0.917647058824" width="5px" x="60px" y="92px" /><rect fill="rgb(17,17,17)" height="5px" width="5px" x="64px" y="92px" /><rect fill="rgb(17,17,17)" height="5px" width="5px" x="68px" y="92px" /><rect fill="rgb(17,17,17)" height="5px" width="5px" x="72px" y="92px" /><rect fill="rgb(16,16,16)" height="5px" opacity="0.964705882353" width="5px" x="76px" y="92px" /><rect fill="rgb(14,14,14)" height="5px" opacity="0.203921568627" width="5px" x="80px" y="92px" /><rect fill="rgb(16,16,16)" height="5px" opacity="0.435294117647" width="5px" x="24px" y="96px" /><rect fill="rgb(17,17,17)" height="5px" opacity="0.992156862745" width="5px" x="28px" y="96px" /><rect fill="rgb(17,17,17)" height="5px" width="5px" x="32px" y="96px" /><rect fill="rgb(17,17,17)" height="5px" width="5px" x="36px" y="96px" /><rect fill="rgb(17,17,17)" height="5px" width="5px" x="40px" y="96px" /><rect fill="rgb(17,17,17)" height="5px" width="5px" x="44px" y="96px" /><rect fill="rgb(17,17,17)" height="5px" opacity="0.56862745098" width="5px" x="48px" y="96px" /><rect fill="rgb(0,0,0)" height="5px" opacity="0.0078431372549" width="5px" x="52px" y="96px" /><rect fill="rgb(17,17,17)" height="5px" opacity="0.235294117647" width="5px" x="60px" y="96px" /><rect fill="rgb(17,17,17)" height="5px" opacity="0.976470588235" width="5px" x="64px" y="96px" /><rect fill="rgb(17,17,17)" height="5px" width="5px" x="68px" y="96px" /><rect fill="rgb(17,17,17)" height="5px" width="5px" x="72px" y="96px" /><rect fill="rgb(17,17,17)" height="5px" width="5px" x="76px" y="96px" /><rect fill="rgb(16,16,16)" height="5px" opacity="0.898039215686" width="5px" x="80px" y="96px" /><rect fill="rgb(18,18,18)" height="5px" opacity="0.109803921569" width="5px" x="84px" y="96px" /><rect fill="rgb(0,0,0)" height="5px" opacity="0.00392156862745" width="5px" x="16px" y="100px" /><rect fill="rgb(16,16,16)" height="5px" opacity="0.549019607843" width="5px" x="20px" y="100px" /><rect fill="rgb(17,17,17)" height="5px" width="5px" x="24px" y="100px" /><rect fill="rgb(17,17,17)" height="5px" width="5px" x="28px" y="100px" /><rect fill="rgb(17,17,17)" height="5px" width="5px" x="32px" y="100px" /><rect fill="rgb(17,17,17)" height="5px" width="5px" x="36px" y="100px" /><rect fill="rgb(17,17,17)" height="5px" opacity="0.996078431373" width="5px" x="40px" y="100px" /><rect fill="rgb(17,17,17)" height="5px" opacity="0.462745098039" width="5px" x="44px" y="100px" /><rect fill="rgb(15,15,15)" height="5px" opacity="0.376470588235" width="5px" x="64px" y="100px" /><rect fill="rgb(17,17,17)" height="5px" width="5px" x="68px" y="100px" /><rect fill="rgb(17,17,17)" height="5px" width="5px" x="72px" y="100px" /><rect fill="rgb(17,17,17)" height="5px" width="5px" x="76px" y="100px" /><rect fill="rgb(17,17,17)" height="5px" width="5px" x="80px" y="100px" /><rect fill="rgb(17,17,17)" height="5px" opacity="0.8" width="5px" x="84px" y="100px" /><rect fill="rgb(25,25,25)" height="5px" opacity="0.0392156862745" width="5px" x="88px" y="100px" /><rect fill="rgb(0,0,0)" height="5px" opacity="0.0078431372549" width="5px" x="12px" y="104px" /><rect fill="rgb(16,16,16)" height="5px" opacity="0.611764705882" width="5px" x="16px" y="104px" /><rect fill="rgb(17,17,17)" height="5px" width="5px" x="20px" y="104px" /><rect fill="rgb(17,17,17)" height="5px" width="5px" x="24px" y="104px" /><rect fill="rgb(17,17,17)" height="5px" width="5px" x="28px" y="104px" /><rect fill="rgb(17,17,17)" height="5px" width="5px" x="32px" y="104px" /><rect fill="rgb(17,17,17)" height="5px" opacity="0.976470588235" width="5px" x="36px" y="104px" /><rect fill="rgb(16,16,16)" height="5px" opacity="0.360784313725" width="5px" x="40px" y="104px" /><rect fill="rgb(16,16,16)" height="5px" opacity="0.537254901961" width="5px" x="68px" y="104px" /><rect fill="rgb(17,17,17)" height="5px" width="5px" x="72px" y="104px" /><rect fill="rgb(17,17,17)" height="5px" width="5px" x="76px" y="104px" /><rect fill="rgb(17,17,17)" height="5px" width="5px" x="80px" y="104px" /><rect fill="rgb(17,17,17)" height="5px" width="5px" x="84px" y="104px" /><rect fill="rgb(16,16,16)" height="5px" opacity="0.670588235294" width="5px" x="88px" y="104px" /><rect fill="rgb(0,0,0)" height="5px" opacity="0.00392156862745" width="5px" x="92px" y="104px" /><rect fill="rgb(17,17,17)" height="5px" opacity="0.407843137255" width="5px" x="12px" y="108px" /><rect fill="rgb(17,17,17)" height="5px" width="5px" x="16px" y="108px" /><rect fill="rgb(17,17,17)" height="5px" width="5px" x="20px" y="108px" /><rect fill="rgb(17,17,17)" height="5px" width="5px" x="24px" y="108px" /><rect fill="rgb(17,17,17)" height="5px" width="5px" x="28px" y="108px" /><rect fill="rgb(16,16,16)" height="5px" opacity="0.949019607843" width="5px" x="32px" y="108px" /><rect fill="rgb(18,18,18)" height="5px" opacity="0.266666666667" width="5px" x="36px" y="108px" /><rect fill="rgb(0,0,0)" height="5px" opacity="0.0078431372549" width="5px" x="68px" y="108px" /><rect fill="rgb(17,17,17)" height="5px" opacity="0.694117647059" width="5px" x="72px" y="108px" /><rect fill="rgb(17,17,17)" height="5px" width="5px" x="76px" y="108px" /><rect fill="rgb(17,17,17)" height="5px" width="5px" x="80px" y="108px" /><rect fill="rgb(17,17,17)" height="5px" width="5px" x="84px" y="108px" /><rect fill="rgb(17,17,17)" height="5px" width="5px" x="88px" y="108px" /><rect fill="rgb(17,17,17)" height="5px" opacity="0.513725490196" width="5px" x="92px" y="108px" /><rect fill="rgb(0,0,0)" height="5px" opacity="0.0196078431373" width="5px" x="12px" y="112px" /><rect fill="rgb(17,17,17)" height="5px" opacity="0.682352941176" width="5px" x="16px" y="112px" /><rect fill="rgb(17,17,17)" height="5px" width="5px" x="20px" y="112px" /><rect fill="rgb(17,17,17)" height="5px" width="5px" x="24px" y="112px" /><rect fill="rgb(16,16,16)" height="5px" opacity="0.905882352941" width="5px" x="28px" y="112px" /><rect fill="rgb(15,15,15)" height="5px" opacity="0.192156862745" width="5px" x="32px" y="112px" /><rect fill="rgb(21,21,21)" height="5px" opacity="0.0470588235294" width="5px" x="72px" y="112px" /><rect fill="rgb(17,17,17)" height="5px" opacity="0.81568627451" width="5px" x="76px" y="112px" /><rect fill="rgb(17,17,17)" height="5px" width="5px" x="80px" y="112px" /><rect fill="rgb(17,17,17)" height="5px" width="5px" x="84px" y="112px" /><rect fill="rgb(17,17,17)" height="5px" width="5px" x="88px" y="112px" /><rect fill="rgb(17,17,17)" height="5px" opacity="0.996078431373" width="5px" x="92px" y="112px" /><rect fill="rgb(18,18,18)" height="5px" opacity="0.266666666667" width="5px" x="96px" y="112px" /><rect fill="rgb(0,0,0)" height="5px" opacity="0.0196078431373" width="5px" x="16px" y="116px" /><rect fill="rgb(17,17,17)" height="5px" opacity="0.682352941176" width="5px" x="20px" y="116px" /><rect fill="rgb(16,16,16)" height="5px" opacity="0.905882352941" width="5px" x="24px" y="116px" /><rect fill="rgb(18,18,18)" height="5px" opacity="0.160784313725" width="5px" x="28px" y="116px" /><rect fill="rgb(17,17,17)" height="5px" opacity="0.117647058824" width="5px" x="76px" y="116px" /><rect fill="rgb(16,16,16)" height="5px" opacity="0.909803921569" width="5px" x="80px" y="116px" /><rect fill="rgb(17,17,17)" height="5px" width="5px" x="84px" y="116px" /><rect fill="rgb(17,17,17)" height="5px" width="5px" x="88px" y="116px" /><rect fill="rgb(17,17,17)" height="5px" opacity="0.564705882353" width="5px" x="92px" y="116px" /><rect fill="rgb(0,0,0)" height="5px" opacity="0.0117647058824" width="5px" x="96px" y="116px" /><rect fill="rgb(0,0,0)" height="5px" opacity="0.0196078431373" width="5px" x="20px" y="120px" /><rect fill="rgb(17,17,17)" height="5px" opacity="0.113725490196" width="5px" x="24px" y="120px" /><rect fill="rgb(14,14,14)" height="5px" opacity="0.203921568627" width="5px" x="80px" y="120px" /><rect fill="rgb(16,16,16)" height="5px" opacity="0.949019607843" width="5px" x="84px" y="120px" /><rect fill="rgb(16,16,16)" height="5px" opacity="0.423529411765" width="5px" x="88px" y="120px" /><rect fill="rgb(13,13,13)" height="5px" opacity="0.0745098039216" width="5px" x="84px" y="124px" /></svg>