<?xml version="1.0" encoding="utf-8" ?>
<svg baseProfile="full" height="128px" version="1.1" width="128px" xmlns="http://www.w3.org/2000/svg" xmlns:ev="http://www.w3.org/2001/xml-events" xmlns:xlink="http://www.w3.org/1999/xlink"><defs /><rect fill="rgb(0,0,0)" height="5px" opacity="0.498039215686" width="5px" x="48px" y="20px" /><rect fill="rgb(0,0,0)" height="5px" opacity="0.498039215686" width="5px" x="52px" y="20px" /><rect fill="rgb(0,0,0)" height="5px" opacity="0.498039215686" width="5px" x="56px" y="20px" /><rect fill="rgb(0,0,0)" height="5px" opacity="0.498039215686" width="5px" x="60px" y="20px" /><rect fill="rgb(0,0,0)" height="5px" opacity="0.498039215686" width="5px" x="64px" y="20px" /><rect fill="rgb(0,0,0)" height="5px" opacity="0.498039215686" width="5px" x="68px" y="20px" /><rect fill="rgb(0,0,0)" height="5px" opacity="0.498039215686" width="5px" x="72px" y="20px" /><rect fill="rgb(0,0,0)" height="5px" opacity="0.498039215686" width="5px" x="76px" y="20px" /><rect fill="rgb(0,0,0)" height="5px" opacity="0.247058823529" width="5px" x="28px" y="24px" /><rect fill="rgb(0,0,0)" height="5px" opacity="0.498039215686" width="5px" x="32px" y="24px" /><rect fill="rgb(52,32,21)" height="5px" opacity="0.749019607843" width="5px" x="36px" y="24px" /><rect fill="rgb(78,48,33)" height="5px" width="5px" x="40px" y="24px" /><rect fill="rgb(78,48,33)" height="5px" width="5px" x="44px" y="24px" /><rect fill="rgb(156,97,66)" height="5px" width="5px" x="48px" y="24px" /><rect fill="rgb(156,97,66)" height="5px" width="5px" x="52px" y="24px" /><rect fill="rgb(156,97,66)" height="5px" width="5px" x="56px" y="24px" /><rect fill="rgb(156,97,66)" height="5px" width="5px" x="60px" y="24px" /><rect fill="rgb(156,97,66)" height="5px" width="5px" x="64px" y="24px" /><rect fill="rgb(156,97,66)" height="5px" width="5px" x="68px" y="24px" /><rect fill="rgb(156,97,66)" height="5px" width="5px" x="72px" y="24px" /><rect fill="rgb(156,97,66)" height="5px" width="5px" x="76px" y="24px" /><rect fill="rgb(78,48,33)" height="5px" width="5px" x="80px" y="24px" /><rect fill="rgb(78,48,33)" height="5px" width="5px" x="84px" y="24px" /><rect fill="rgb(52,32,21)" height="5px" opacity="0.749019607843" width="5px" x="88px" y="24px" /><rect fill="rgb(0,0,0)" height="5px" opacity="0.498039215686" width="5px" x="92px" y="24px" /><rect fill="rgb(0,0,0)" height="5px" opacity="0.247058823529" width="5px" x="96px" y="24px" /><rect fill="rgb(0,0,0)" height="5px" opacity="0.247058823529" width="5px" x="20px" y="28px" /><rect fill="rgb(52,32,21)" height="5px" opacity="0.749019607843" width="5px" x="24px" y="28px" /><rect fill="rgb(117,72,49)" height="5px" width="5px" x="28px" y="28px" /><rect fill="rgb(156,97,66)" height="5px" width="5px" x="32px" y="28px" /><rect fill="rgb(117,72,49)" height="5px" width="5px" x="36px" y="28px" /><rect fill="rgb(78,48,33)" height="5px" width="5px" x="40px" y="28px" /><rect fill="rgb(78,48,33)" height="5px" width="5px" x="44px" y="28px" /><rect fill="rgb(41,10,12)" height="5px" width="5px" x="48px" y="28px" /><rect fill="rgb(41,10,12)" height="5px" width="5px" x="52px" y="28px" /><rect fill="rgb(41,10,12)" height="5px" width="5px" x="56px" y="28px" /><rect fill="rgb(41,10,12)" height="5px" width="5px" x="60px" y="28px" /><rect fill="rgb(41,10,12)" height="5px" width="5px" x="64px" y="28px" /><rect fill="rgb(41,10,12)" height="5px" width="5px" x="68px" y="28px" /><rect fill="rgb(41,10,12)" height="5px" width="5px" x="72px" y="28px" /><rect fill="rgb(41,10,12)" height="5px" width="5px" x="76px" y="28px" /><rect fill="rgb(78,48,33)" height="5px" width="5px" x="80px" y="28px" /><rect fill="rgb(78,48,33)" height="5px" width="5px" x="84px" y="28px" /><rect fill="rgb(117,72,49)" height="5px" width="5px" x="88px" y="28px" /><rect fill="rgb(156,97,66)" height="5px" width="5px" x="92px" y="28px" /><rect fill="rgb(117,72,49)" height="5px" width="5px" x="96px" y="28px" /><rect fill="rgb(52,32,21)" height="5px" opacity="0.749019607843" width="5px" x="100px" y="28px" /><rect fill="rgb(0,0,0)" height="5px" opacity="0.247058823529" width="5px" x="104px" y="28px" /><rect fill="rgb(0,0,0)" height="5px" opacity="0.247058823529" width="5px" x="12px" y="32px" /><rect fill="rgb(52,32,21)" height="5px" opacity="0.749019607843" width="5px" x="16px" y="32px" /><rect fill="rgb(117,72,49)" height="5px" width="5px" x="20px" y="32px" /><rect fill="rgb(156,97,66)" height="5px" width="5px" x="24px" y="32px" /><rect fill="rgb(78,48,33)" height="5px" width="5px" x="28px" y="32px" /><rect fill="rgb(41,10,12)" height="5px" width="5px" x="32px" y="32px" /><rect fill="rgb(61,15,18)" height="5px" width="5px" x="36px" y="32px" /><rect fill="rgb(82,20,24)" height="5px" width="5px" x="40px" y="32px" /><rect fill="rgb(82,20,24)" height="5px" width="5px" x="44px" y="32px" /><rect fill="rgb(82,20,24)" height="5px" width="5px" x="48px" y="32px" /><rect fill="rgb(82,20,24)" height="5px" width="5px" x="52px" y="32px" /><rect fill="rgb(82,20,24)" height="5px" width="5px" x="56px" y="32px" /><rect fill="rgb(82,20,24)" height="5px" width="5px" x="60px" y="32px" /><rect fill="rgb(82,20,24)" height="5px" width="5px" x="64px" y="32px" /><rect fill="rgb(82,20,24)" height="5px" width="5px" x="68px" y="32px" /><rect fill="rgb(82,20,24)" height="5px" width="5px" x="72px" y="32px" /><rect fill="rgb(82,20,24)" height="5px" width="5px" x="76px" y="32px" /><rect fill="rgb(82,20,24)" height="5px" width="5px" x="80px" y="32px" /><rect fill="rgb(82,20,24)" height="5px" width="5px" x="84px" y="32px" /><rect fill="rgb(61,15,18)" height="5px" width="5px" x="88px" y="32px" /><rect fill="rgb(41,10,12)" height="5px" width="5px" x="92px" y="32px" /><rect fill="rgb(78,48,33)" height="5px" width="5px" x="96px" y="32px" /><rect fill="rgb(156,97,66)" height="5px" width="5px" x="100px" y="32px" /><rect fill="rgb(117,72,49)" height="5px" width="5px" x="104px" y="32px" /><rect fill="rgb(52,32,21)" height="5px" opacity="0.749019607843" width="5px" x="108px" y="32px" /><rect fill="rgb(0,0,0)" height="5px" opacity="0.247058823529" width="5px" x="112px" y="32px" /><rect fill="rgb(0,0,0)" height="5px" opacity="0.247058823529" width="5px" x="8px" y="36px" /><rect fill="rgb(117,72,49)" height="5px" width="5px" x="12px" y="36px" /><rect fill="rgb(156,97,66)" height="5px" width="5px" x="16px" y="36px" /><rect fill="rgb(78,48,33)" height="5px" width="5px" x="20px" y="36px" /><rect fill="rgb(41,10,12)" height="5px" width="5px" x="24px" y="36px" /><rect fill="rgb(82,20,24)" height="5px" width="5px" x="28px" y="36px" /><rect fill="rgb(82,20,24)" height="5px" width="5px" x="32px" y="36px" /><rect fill="rgb(82,20,24)" height="5px" width="5px" x="36px" y="36px" /><rect fill="rgb(82,20,24)" height="5px" width="5px" x="40px" y="36px" /><rect fill="rgb(82,20,24)" height="5px" width="5px" x="44px" y="36px" /><rect fill="rgb(82,20,24)" height="5px" width="5px" x="48px" y="36px" /><rect fill="rgb(82,20,24)" height="5px" width="5px" x="52px" y="36px" /><rect fill="rgb(82,20,24)" height="5px" width="5px" x="56px" y="36px" /><rect fill="rgb(82,20,24)" height="5px" width="5px" x="60px" y="36px" /><rect fill="rgb(82,20,24)" height="5px" width="5px" x="64px" y="36px" /><rect fill="rgb(82,20,24)" height="5px" width="5px" x="68px" y="36px" /><rect fill="rgb(82,20,24)" height="5px" width="5px" x="72px" y="36px" /><rect fill="rgb(82,20,24)" height="5px" width="5px" x="76px" y="36px" /><rect fill="rgb(82,20,24)" height="5px" width="5px" x="80px" y="36px" /><rect fill="rgb(82,20,24)" height="5px" width="5px" x="84px" y="36px" /><rect fill="rgb(82,20,24)" height="5px" width="5px" x="88px" y="36px" /><rect fill="rgb(82,20,24)" height="5px" width="5px" x="92px" y="36px" /><rect fill="rgb(82,20,24)" height="5px" width="5px" x="96px" y="36px" /><rect fill="rgb(41,10,12)" height="5px" width="5px" x="100px" y="36px" /><rect fill="rgb(78,48,33)" height="5px" width="5px" x="104px" y="36px" /><rect fill="rgb(156,97,66)" height="5px" width="5px" x="108px" y="36px" /><rect fill="rgb(117,72,49)" height="5px" width="5px" x="112px" y="36px" /><rect fill="rgb(0,0,0)" height="5px" opacity="0.247058823529" width="5px" x="116px" y="36px" /><rect fill="rgb(0,0,0)" height="5px" opacity="0.247058823529" width="5px" x="4px" y="40px" /><rect fill="rgb(117,72,49)" height="5px" width="5px" x="8px" y="40px" /><rect fill="rgb(156,97,66)" height="5px" width="5px" x="12px" y="40px" /><rect fill="rgb(59,29,22)" height="5px" width="5px" x="16px" y="40px" /><rect fill="rgb(82,20,24)" height="5px" width="5px" x="20px" y="40px" /><rect fill="rgb(82,20,24)" height="5px" width="5px" x="24px" y="40px" /><rect fill="rgb(82,20,24)" height="5px" width="5px" x="28px" y="40px" /><rect fill="rgb(82,20,24)" height="5px" width="5px" x="32px" y="40px" /><rect fill="rgb(82,20,24)" height="5px" width="5px" x="36px" y="40px" /><rect fill="rgb(82,20,24)" height="5px" width="5px" x="40px" y="40px" /><rect fill="rgb(82,20,24)" height="5px" width="5px" x="44px" y="40px" /><rect fill="rgb(82,20,24)" height="5px" width="5px" x="48px" y="40px" /><rect fill="rgb(82,20,24)" height="5px" width="5px" x="52px" y="40px" /><rect fill="rgb(82,20,24)" height="5px" width="5px" x="56px" y="40px" /><rect fill="rgb(82,20,24)" height="5px" width="5px" x="60px" y="40px" /><rect fill="rgb(82,20,24)" height="5px" width="5px" x="64px" y="40px" /><rect fill="rgb(82,20,24)" height="5px" width="5px" x="68px" y="40px" /><rect fill="rgb(82,20,24)" height="5px" width="5px" x="72px" y="40px" /><rect fill="rgb(82,20,24)" height="5px" width="5px" x="76px" y="40px" /><rect fill="rgb(82,20,24)" height="5px" width="5px" x="80px" y="40px" /><rect fill="rgb(82,20,24)" height="5px" width="5px" x="84px" y="40px" /><rect fill="rgb(82,20,24)" height="5px" width="5px" x="88px" y="40px" /><rect fill="rgb(82,20,24)" height="5px" width="5px" x="92px" y="40px" /><rect fill="rgb(82,20,24)" height="5px" width="5px" x="96px" y="40px" /><rect fill="rgb(82,20,24)" height="5px" width="5px" x="100px" y="40px" /><rect fill="rgb(82,20,24)" height="5px" width="5px" x="104px" y="40px" /><rect fill="rgb(59,29,22)" height="5px" width="5px" x="108px" y="40px" /><rect fill="rgb(156,97,66)" height="5px" width="5px" x="112px" y="40px" /><rect fill="rgb(117,72,49)" height="5px" width="5px" x="116px" y="40px" /><rect fill="rgb(0,0,0)" height="5px" opacity="0.247058823529" width="5px" x="120px" y="40px" /><rect fill="rgb(52,32,21)" height="5px" opacity="0.749019607843" width="5px" x="4px" y="44px" /><rect fill="rgb(156,97,66)" height="5px" width="5px" x="8px" y="44px" /><rect fill="rgb(59,29,22)" height="5px" width="5px" x="12px" y="44px" /><rect fill="rgb(82,20,24)" height="5px" width="5px" x="16px" y="44px" /><rect fill="rgb(82,20,24)" height="5px" width="5px" x="20px" y="44px" /><rect fill="rgb(82,20,24)" height="5px" width="5px" x="24px" y="44px" /><rect fill="rgb(82,20,24)" height="5px" width="5px" x="28px" y="44px" /><rect fill="rgb(82,20,24)" height="5px" width="5px" x="32px" y="44px" /><rect fill="rgb(82,20,24)" height="5px" width="5px" x="36px" y="44px" /><rect fill="rgb(82,20,24)" height="5px" width="5px" x="40px" y="44px" /><rect fill="rgb(82,20,24)" height="5px" width="5px" x="44px" y="44px" /><rect fill="rgb(41,10,12)" height="5px" width="5px" x="48px" y="44px" /><rect fill="rgb(41,10,12)" height="5px" width="5px" x="52px" y="44px" /><rect fill="rgb(41,10,12)" height="5px" width="5px" x="56px" y="44px" /><rect fill="rgb(41,10,12)" height="5px" width="5px" x="60px" y="44px" /><rect fill="rgb(41,10,12)" height="5px" width="5px" x="64px" y="44px" /><rect fill="rgb(41,10,12)" height="5px" width="5px" x="68px" y="44px" /><rect fill="rgb(41,10,12)" height="5px" width="5px" x="72px" y="44px" /><rect fill="rgb(41,10,12)" height="5px" width="5px" x="76px" y="44px" /><rect fill="rgb(82,20,24)" height="5px" width="5px" x="80px" y="44px" /><rect fill="rgb(82,20,24)" height="5px" width="5px" x="84px" y="44px" /><rect fill="rgb(82,20,24)" height="5px" width="5px" x="88px" y="44px" /><rect fill="rgb(82,20,24)" height="5px" width="5px" x="92px" y="44px" /><rect fill="rgb(82,20,24)" height="5px" width="5px" x="96px" y="44px" /><rect fill="rgb(82,20,24)" height="5px" width="5px" x="100px" y="44px" /><rect fill="rgb(82,20,24)" height="5px" width="5px" x="104px" y="44px" /><rect fill="rgb(82,20,24)" height="5px" width="5px" x="108px" y="44px" /><rect fill="rgb(59,29,22)" height="5px" width="5px" x="112px" y="44px" /><rect fill="rgb(156,97,66)" height="5px" width="5px" x="116px" y="44px" /><rect fill="rgb(52,32,21)" height="5px" opacity="0.749019607843" width="5px" x="120px" y="44px" /><rect fill="rgb(0,0,0)" height="5px" opacity="0.247058823529" width="5px" x="0px" y="48px" /><rect fill="rgb(117,72,49)" height="5px" width="5px" x="4px" y="48px" /><rect fill="rgb(117,72,49)" height="5px" width="5px" x="8px" y="48px" /><rect fill="rgb(61,15,18)" height="5px" width="5px" x="12px" y="48px" /><rect fill="rgb(82,20,24)" height="5px" width="5px" x="16px" y="48px" /><rect fill="rgb(82,20,24)" height="5px" width="5px" x="20px" y="48px" /><rect fill="rgb(82,20,24)" height="5px" width="5px" x="24px" y="48px" /><rect fill="rgb(82,20,24)" height="5px" width="5px" x="28px" y="48px" /><rect fill="rgb(41,10,12)" height="5px" width="5px" x="32px" y="48px" /><rect fill="rgb(84,68,69)" height="5px" width="5px" x="36px" y="48px" /><rect fill="rgb(127,127,127)" height="5px" width="5px" x="40px" y="48px" /><rect fill="rgb(127,127,127)" height="5px" width="5px" x="44px" y="48px" /><rect fill="rgb(255,255,255)" height="5px" width="5px" x="48px" y="48px" /><rect fill="rgb(255,255,255)" height="5px" width="5px" x="52px" y="48px" /><rect fill="rgb(255,255,255)" height="5px" width="5px" x="56px" y="48px" /><rect fill="rgb(255,255,255)" height="5px" width="5px" x="60px" y="48px" /><rect fill="rgb(255,255,255)" height="5px" width="5px" x="64px" y="48px" /><rect fill="rgb(255,255,255)" height="5px" width="5px" x="68px" y="48px" /><rect fill="rgb(255,255,255)" height="5px" width="5px" x="72px" y="48px" /><rect fill="rgb(255,255,255)" height="5px" width="5px" x="76px" y="48px" /><rect fill="rgb(127,127,127)" height="5px" width="5px" x="80px" y="48px" /><rect fill="rgb(127,127,127)" height="5px" width="5px" x="84px" y="48px" /><rect fill="rgb(84,68,69)" height="5px" width="5px" x="88px" y="48px" /><rect fill="rgb(41,10,12)" height="5px" width="5px" x="92px" y="48px" /><rect fill="rgb(82,20,24)" height="5px" width="5px" x="96px" y="48px" /><rect fill="rgb(82,20,24)" height="5px" width="5px" x="100px" y="48px" /><rect fill="rgb(82,20,24)" height="5px" width="5px" x="104px" y="48px" /><rect fill="rgb(82,20,24)" height="5px" width="5px" x="108px" y="48px" /><rect fill="rgb(61,15,18)" height="5px" width="5px" x="112px" y="48px" /><rect fill="rgb(117,72,49)" height="5px" width="5px" x="116px" y="48px" /><rect fill="rgb(117,72,49)" height="5px" width="5px" x="120px" y="48px" /><rect fill="rgb(0,0,0)" height="5px" opacity="0.247058823529" width="5px" x="124px" y="48px" /><rect fill="rgb(0,0,0)" height="5px" opacity="0.498039215686" width="5px" x="0px" y="52px" /><rect fill="rgb(156,97,66)" height="5px" width="5px" x="4px" y="52px" /><rect fill="rgb(78,48,33)" height="5px" width="5px" x="8px" y="52px" /><rect fill="rgb(82,20,24)" height="5px" width="5px" x="12px" y="52px" /><rect fill="rgb(82,20,24)" height="5px" width="5px" x="16px" y="52px" /><rect fill="rgb(82,20,24)" height="5px" width="5px" x="20px" y="52px" /><rect fill="rgb(41,10,12)" height="5px" width="5px" x="24px" y="52px" /><rect fill="rgb(127,127,127)" height="5px" width="5px" x="28px" y="52px" /><rect fill="rgb(113,179,131)" height="5px" width="5px" x="32px" y="52px" /><rect fill="rgb(127,127,127)" height="5px" width="5px" x="36px" y="52px" /><rect fill="rgb(144,166,150)" height="5px" width="5px" x="40px" y="52px" /><rect fill="rgb(255,255,255)" height="5px" width="5px" x="44px" y="52px" /><rect fill="rgb(255,255,255)" height="5px" width="5px" x="48px" y="52px" /><rect fill="rgb(255,255,255)" height="5px" width="5px" x="52px" y="52px" /><rect fill="rgb(255,255,255)" height="5px" width="5px" x="56px" y="52px" /><rect fill="rgb(255,255,255)" height="5px" width="5px" x="60px" y="52px" /><rect fill="rgb(255,255,255)" height="5px" width="5px" x="64px" y="52px" /><rect fill="rgb(255,255,255)" height="5px" width="5px" x="68px" y="52px" /><rect fill="rgb(255,255,255)" height="5px" width="5px" x="72px" y="52px" /><rect fill="rgb(255,255,255)" height="5px" width="5px" x="76px" y="52px" /><rect fill="rgb(191,191,191)" height="5px" width="5px" x="80px" y="52px" /><rect fill="rgb(63,63,63)" height="5px" width="5px" x="84px" y="52px" /><rect fill="rgb(214,149,148)" height="5px" width="5px" x="88px" y="52px" /><rect fill="rgb(193,96,94)" height="5px" width="5px" x="92px" y="52px" /><rect fill="rgb(127,127,127)" height="5px" width="5px" x="96px" y="52px" /><rect fill="rgb(41,10,12)" height="5px" width="5px" x="100px" y="52px" /><rect fill="rgb(82,20,24)" height="5px" width="5px" x="104px" y="52px" /><rect fill="rgb(82,20,24)" height="5px" width="5px" x="108px" y="52px" /><rect fill="rgb(82,20,24)" height="5px" width="5px" x="112px" y="52px" /><rect fill="rgb(78,48,33)" height="5px" width="5px" x="116px" y="52px" /><rect fill="rgb(156,97,66)" height="5px" width="5px" x="120px" y="52px" /><rect fill="rgb(0,0,0)" height="5px" opacity="0.498039215686" width="5px" x="124px" y="52px" /><rect fill="rgb(0,0,0)" height="5px" opacity="0.498039215686" width="5px" x="0px" y="56px" /><rect fill="rgb(156,97,66)" height="5px" width="5px" x="4px" y="56px" /><rect fill="rgb(78,48,33)" height="5px" width="5px" x="8px" y="56px" /><rect fill="rgb(82,20,24)" height="5px" width="5px" x="12px" y="56px" /><rect fill="rgb(61,15,18)" height="5px" width="5px" x="16px" y="56px" /><rect fill="rgb(127,127,127)" height="5px" width="5px" x="20px" y="56px" /><rect fill="rgb(255,255,255)" height="5px" width="5px" x="24px" y="56px" /><rect fill="rgb(191,191,191)" height="5px" width="5px" x="28px" y="56px" /><rect fill="rgb(0,0,0)" height="5px" width="5px" x="32px" y="56px" /><rect fill="rgb(96,140,108)" height="5px" width="5px" x="36px" y="56px" /><rect fill="rgb(96,140,108)" height="5px" width="5px" x="40px" y="56px" /><rect fill="rgb(80,102,86)" height="5px" width="5px" x="44px" y="56px" /><rect fill="rgb(160,204,172)" height="5px" width="5px" x="48px" y="56px" /><rect fill="rgb(207,229,213)" height="5px" width="5px" x="52px" y="56px" /><rect fill="rgb(255,255,255)" height="5px" width="5px" x="56px" y="56px" /><rect fill="rgb(255,255,255)" height="5px" width="5px" x="60px" y="56px" /><rect fill="rgb(255,255,255)" height="5px" width="5px" x="64px" y="56px" /><rect fill="rgb(255,255,255)" height="5px" width="5px" x="68px" y="56px" /><rect fill="rgb(207,229,213)" height="5px" width="5px" x="72px" y="56px" /><rect fill="rgb(107,74,74)" height="5px" width="5px" x="76px" y="56px" /><rect fill="rgb(129,33,30)" height="5px" width="5px" x="80px" y="56px" /><rect fill="rgb(173,44,41)" height="5px" width="5px" x="84px" y="56px" /><rect fill="rgb(140,151,119)" height="5px" width="5px" x="88px" y="56px" /><rect fill="rgb(127,127,127)" height="5px" width="5px" x="92px" y="56px" /><rect fill="rgb(191,191,191)" height="5px" width="5px" x="96px" y="56px" /><rect fill="rgb(255,255,255)" height="5px" width="5px" x="100px" y="56px" /><rect fill="rgb(127,127,127)" height="5px" width="5px" x="104px" y="56px" /><rect fill="rgb(61,15,18)" height="5px" width="5px" x="108px" y="56px" /><rect fill="rgb(82,20,24)" height="5px" width="5px" x="112px" y="56px" /><rect fill="rgb(78,48,33)" height="5px" width="5px" x="116px" y="56px" /><rect fill="rgb(156,97,66)" height="5px" width="5px" x="120px" y="56px" /><rect fill="rgb(0,0,0)" height="5px" opacity="0.498039215686" width="5px" x="124px" y="56px" /><rect fill="rgb(0,0,0)" height="5px" opacity="0.498039215686" width="5px" x="0px" y="60px" /><rect fill="rgb(78,48,33)" height="5px" width="5px" x="4px" y="60px" /><rect fill="rgb(156,97,66)" height="5px" width="5px" x="8px" y="60px" /><rect fill="rgb(20,5,6)" height="5px" width="5px" x="12px" y="60px" /><rect fill="rgb(191,191,191)" height="5px" width="5px" x="16px" y="60px" /><rect fill="rgb(255,255,255)" height="5px" width="5px" x="20px" y="60px" /><rect fill="rgb(255,255,255)" height="5px" width="5px" x="24px" y="60px" /><rect fill="rgb(255,255,255)" height="5px" width="5px" x="28px" y="60px" /><rect fill="rgb(255,255,255)" height="5px" width="5px" x="32px" y="60px" /><rect fill="rgb(63,63,63)" height="5px" width="5px" x="36px" y="60px" /><rect fill="rgb(144,166,150)" height="5px" width="5px" x="40px" y="60px" /><rect fill="rgb(160,204,172)" height="5px" width="5px" x="44px" y="60px" /><rect fill="rgb(207,229,213)" height="5px" width="5px" x="48px" y="60px" /><rect fill="rgb(207,229,213)" height="5px" width="5px" x="52px" y="60px" /><rect fill="rgb(160,204,172)" height="5px" width="5px" x="56px" y="60px" /><rect fill="rgb(160,204,172)" height="5px" width="5px" x="60px" y="60px" /><rect fill="rgb(160,204,172)" height="5px" width="5px" x="64px" y="60px" /><rect fill="rgb(119,99,65)" height="5px" width="5px" x="68px" y="60px" /><rect fill="rgb(173,44,41)" height="5px" width="5px" x="72px" y="60px" /><rect fill="rgb(173,44,41)" height="5px" width="5px" x="76px" y="60px" /><rect fill="rgb(193,96,94)" height="5px" width="5px" x="80px" y="60px" /><rect fill="rgb(127,127,127)" height="5px" width="5px" x="84px" y="60px" /><rect fill="rgb(127,127,127)" height="5px" width="5px" x="88px" y="60px" /><rect fill="rgb(255,255,255)" height="5px" width="5px" x="92px" y="60px" /><rect fill="rgb(255,255,255)" height="5px" width="5px" x="96px" y="60px" /><rect fill="rgb(255,255,255)" height="5px" width="5px" x="100px" y="60px" /><rect fill="rgb(255,255,255)" height="5px" width="5px" x="104px" y="60px" /><rect fill="rgb(191,191,191)" height="5px" width="5px" x="108px" y="60px" /><rect fill="rgb(20,5,6)" height="5px" width="5px" x="112px" y="60px" /><rect fill="rgb(156,97,66)" height="5px" width="5px" x="116px" y="60px" /><rect fill="rgb(78,48,33)" height="5px" width="5px" x="120px" y="60px" /><rect fill="rgb(0,0,0)" height="5px" opacity="0.498039215686" width="5px" x="124px" y="60px" /><rect fill="rgb(0,0,0)" height="5px" opacity="0.498039215686" width="5px" x="0px" y="64px" /><rect fill="rgb(78,32,33)" height="5px" width="5px" x="4px" y="64px" /><rect fill="rgb(156,97,66)" height="5px" width="5px" x="8px" y="64px" /><rect fill="rgb(117,72,49)" height="5px" width="5px" x="12px" y="64px" /><rect fill="rgb(191,191,191)" height="5px" width="5px" x="16px" y="64px" /><rect fill="rgb(255,255,255)" height="5px" width="5px" x="20px" y="64px" /><rect fill="rgb(255,255,255)" height="5px" width="5px" x="24px" y="64px" /><rect fill="rgb(255,255,255)" height="5px" width="5px" x="28px" y="64px" /><rect fill="rgb(255,255,255)" height="5px" width="5px" x="32px" y="64px" /><rect fill="rgb(255,255,255)" height="5px" width="5px" x="36px" y="64px" /><rect fill="rgb(207,229,213)" height="5px" width="5px" x="40px" y="64px" /><rect fill="rgb(207,229,213)" height="5px" width="5px" x="44px" y="64px" /><rect fill="rgb(207,229,213)" height="5px" width="5px" x="48px" y="64px" /><rect fill="rgb(113,179,131)" height="5px" width="5px" x="52px" y="64px" /><rect fill="rgb(160,204,172)" height="5px" width="5px" x="56px" y="64px" /><rect fill="rgb(207,229,213)" height="5px" width="5px" x="60px" y="64px" /><rect fill="rgb(173,44,41)" height="5px" width="5px" x="64px" y="64px" /><rect fill="rgb(173,44,41)" height="5px" width="5px" x="68px" y="64px" /><rect fill="rgb(146,71,53)" height="5px" width="5px" x="72px" y="64px" /><rect fill="rgb(234,202,201)" height="5px" width="5px" x="76px" y="64px" /><rect fill="rgb(207,229,213)" height="5px" width="5px" x="80px" y="64px" /><rect fill="rgb(207,229,213)" height="5px" width="5px" x="84px" y="64px" /><rect fill="rgb(255,255,255)" height="5px" width="5px" x="88px" y="64px" /><rect fill="rgb(255,255,255)" height="5px" width="5px" x="92px" y="64px" /><rect fill="rgb(255,255,255)" height="5px" width="5px" x="96px" y="64px" /><rect fill="rgb(255,255,255)" height="5px" width="5px" x="100px" y="64px" /><rect fill="rgb(255,255,255)" height="5px" width="5px" x="104px" y="64px" /><rect fill="rgb(191,191,191)" height="5px" width="5px" x="108px" y="64px" /><rect fill="rgb(117,72,49)" height="5px" width="5px" x="112px" y="64px" /><rect fill="rgb(156,97,66)" height="5px" width="5px" x="116px" y="64px" /><rect fill="rgb(78,32,33)" height="5px" width="5px" x="120px" y="64px" /><rect fill="rgb(0,0,0)" height="5px" opacity="0.498039215686" width="5px" x="124px" y="64px" /><rect fill="rgb(0,0,0)" height="5px" opacity="0.498039215686" width="5px" x="0px" y="68px" /><rect fill="rgb(156,65,66)" height="5px" width="5px" x="4px" y="68px" /><rect fill="rgb(78,40,33)" height="5px" width="5px" x="8px" y="68px" /><rect fill="rgb(156,97,66)" height="5px" width="5px" x="12px" y="68px" /><rect fill="rgb(117,72,49)" height="5px" width="5px" x="16px" y="68px" /><rect fill="rgb(127,127,127)" height="5px" width="5px" x="20px" y="68px" /><rect fill="rgb(255,255,255)" height="5px" width="5px" x="24px" y="68px" /><rect fill="rgb(255,255,255)" height="5px" width="5px" x="28px" y="68px" /><rect fill="rgb(255,255,255)" height="5px" width="5px" x="32px" y="68px" /><rect fill="rgb(255,255,255)" height="5px" width="5px" x="36px" y="68px" /><rect fill="rgb(255,255,255)" height="5px" width="5px" x="40px" y="68px" /><rect fill="rgb(160,204,172)" height="5px" width="5px" x="44px" y="68px" /><rect fill="rgb(207,229,213)" height="5px" width="5px" x="48px" y="68px" /><rect fill="rgb(207,229,213)" height="5px" width="5px" x="52px" y="68px" /><rect fill="rgb(160,204,172)" height="5px" width="5px" x="56px" y="68px" /><rect fill="rgb(207,229,213)" height="5px" width="5px" x="60px" y="68px" /><rect fill="rgb(173,44,41)" height="5px" width="5px" x="64px" y="68px" /><rect fill="rgb(214,149,148)" height="5px" width="5px" x="68px" y="68px" /><rect fill="rgb(207,229,213)" height="5px" width="5px" x="72px" y="68px" /><rect fill="rgb(207,229,213)" height="5px" width="5px" x="76px" y="68px" /><rect fill="rgb(160,204,172)" height="5px" width="5px" x="80px" y="68px" /><rect fill="rgb(255,255,255)" height="5px" width="5px" x="84px" y="68px" /><rect fill="rgb(255,255,255)" height="5px" width="5px" x="88px" y="68px" /><rect fill="rgb(255,255,255)" height="5px" width="5px" x="92px" y="68px" /><rect fill="rgb(255,255,255)" height="5px" width="5px" x="96px" y="68px" /><rect fill="rgb(255,255,255)" height="5px" width="5px" x="100px" y="68px" /><rect fill="rgb(127,127,127)" height="5px" width="5px" x="104px" y="68px" /><rect fill="rgb(117,72,49)" height="5px" width="5px" x="108px" y="68px" /><rect fill="rgb(156,97,66)" height="5px" width="5px" x="112px" y="68px" /><rect fill="rgb(78,40,33)" height="5px" width="5px" x="116px" y="68px" /><rect fill="rgb(156,65,66)" height="5px" width="5px" x="120px" y="68px" /><rect fill="rgb(0,0,0)" height="5px" opacity="0.498039215686" width="5px" x="124px" y="68px" /><rect fill="rgb(0,0,0)" height="5px" opacity="0.498039215686" width="5px" x="0px" y="72px" /><rect fill="rgb(156,65,66)" height="5px" width="5px" x="4px" y="72px" /><rect fill="rgb(156,65,66)" height="5px" width="5px" x="8px" y="72px" /><rect fill="rgb(78,40,33)" height="5px" width="5px" x="12px" y="72px" /><rect fill="rgb(117,72,49)" height="5px" width="5px" x="16px" y="72px" /><rect fill="rgb(156,97,66)" height="5px" width="5px" x="20px" y="72px" /><rect fill="rgb(78,48,33)" height="5px" width="5px" x="24px" y="72px" /><rect fill="rgb(127,127,127)" height="5px" width="5px" x="28px" y="72px" /><rect fill="rgb(255,255,255)" height="5px" width="5px" x="32px" y="72px" /><rect fill="rgb(255,255,255)" height="5px" width="5px" x="36px" y="72px" /><rect fill="rgb(255,255,255)" height="5px" width="5px" x="40px" y="72px" /><rect fill="rgb(207,229,213)" height="5px" width="5px" x="44px" y="72px" /><rect fill="rgb(160,204,172)" height="5px" width="5px" x="48px" y="72px" /><rect fill="rgb(255,255,255)" height="5px" width="5px" x="52px" y="72px" /><rect fill="rgb(255,255,255)" height="5px" width="5px" x="56px" y="72px" /><rect fill="rgb(168,137,139)" height="5px" width="5px" x="60px" y="72px" /><rect fill="rgb(187,177,160)" height="5px" width="5px" x="64px" y="72px" /><rect fill="rgb(255,255,255)" height="5px" width="5px" x="68px" y="72px" /><rect fill="rgb(255,255,255)" height="5px" width="5px" x="72px" y="72px" /><rect fill="rgb(160,204,172)" height="5px" width="5px" x="76px" y="72px" /><rect fill="rgb(207,229,213)" height="5px" width="5px" x="80px" y="72px" /><rect fill="rgb(255,255,255)" height="5px" width="5px" x="84px" y="72px" /><rect fill="rgb(255,255,255)" height="5px" width="5px" x="88px" y="72px" /><rect fill="rgb(255,255,255)" height="5px" width="5px" x="92px" y="72px" /><rect fill="rgb(127,127,127)" height="5px" width="5px" x="96px" y="72px" /><rect fill="rgb(78,48,33)" height="5px" width="5px" x="100px" y="72px" /><rect fill="rgb(156,97,66)" height="5px" width="5px" x="104px" y="72px" /><rect fill="rgb(117,72,49)" height="5px" width="5px" x="108px" y="72px" /><rect fill="rgb(78,40,33)" height="5px" width="5px" x="112px" y="72px" /><rect fill="rgb(156,65,66)" height="5px" width="5px" x="116px" y="72px" /><rect fill="rgb(156,65,66)" height="5px" width="5px" x="120px" y="72px" /><rect fill="rgb(0,0,0)" height="5px" opacity="0.498039215686" width="5px" x="124px" y="72px" /><rect fill="rgb(0,0,0)" height="5px" opacity="0.247058823529" width="5px" x="0px" y="76px" /><rect fill="rgb(117,48,49)" height="5px" width="5px" x="4px" y="76px" /><rect fill="rgb(156,65,66)" height="5px" width="5px" x="8px" y="76px" /><rect fill="rgb(156,65,66)" height="5px" width="5px" x="12px" y="76px" /><rect fill="rgb(117,48,49)" height="5px" width="5px" x="16px" y="76px" /><rect fill="rgb(78,40,33)" height="5px" width="5px" x="20px" y="76px" /><rect fill="rgb(117,72,49)" height="5px" width="5px" x="24px" y="76px" /><rect fill="rgb(156,97,66)" height="5px" width="5px" x="28px" y="76px" /><rect fill="rgb(78,48,33)" height="5px" width="5px" x="32px" y="76px" /><rect fill="rgb(102,88,80)" height="5px" width="5px" x="36px" y="76px" /><rect fill="rgb(127,127,127)" height="5px" width="5px" x="40px" y="76px" /><rect fill="rgb(80,102,86)" height="5px" width="5px" x="44px" y="76px" /><rect fill="rgb(207,229,213)" height="5px" width="5px" x="48px" y="76px" /><rect fill="rgb(164,171,156)" height="5px" width="5px" x="52px" y="76px" /><rect fill="rgb(168,137,139)" height="5px" width="5px" x="56px" y="76px" /><rect fill="rgb(255,255,255)" height="5px" width="5px" x="60px" y="76px" /><rect fill="rgb(255,255,255)" height="5px" width="5px" x="64px" y="76px" /><rect fill="rgb(160,204,172)" height="5px" width="5px" x="68px" y="76px" /><rect fill="rgb(160,204,172)" height="5px" width="5px" x="72px" y="76px" /><rect fill="rgb(207,229,213)" height="5px" width="5px" x="76px" y="76px" /><rect fill="rgb(80,102,86)" height="5px" width="5px" x="80px" y="76px" /><rect fill="rgb(127,127,127)" height="5px" width="5px" x="84px" y="76px" /><rect fill="rgb(102,88,80)" height="5px" width="5px" x="88px" y="76px" /><rect fill="rgb(78,48,33)" height="5px" width="5px" x="92px" y="76px" /><rect fill="rgb(156,97,66)" height="5px" width="5px" x="96px" y="76px" /><rect fill="rgb(117,72,49)" height="5px" width="5px" x="100px" y="76px" /><rect fill="rgb(78,40,33)" height="5px" width="5px" x="104px" y="76px" /><rect fill="rgb(117,48,49)" height="5px" width="5px" x="108px" y="76px" /><rect fill="rgb(156,65,66)" height="5px" width="5px" x="112px" y="76px" /><rect fill="rgb(156,65,66)" height="5px" width="5px" x="116px" y="76px" /><rect fill="rgb(117,48,49)" height="5px" width="5px" x="120px" y="76px" /><rect fill="rgb(0,0,0)" height="5px" opacity="0.247058823529" width="5px" x="124px" y="76px" /><rect fill="rgb(52,21,21)" height="5px" opacity="0.749019607843" width="5px" x="4px" y="80px" /><rect fill="rgb(156,65,66)" height="5px" width="5px" x="8px" y="80px" /><rect fill="rgb(156,65,66)" height="5px" width="5px" x="12px" y="80px" /><rect fill="rgb(156,65,66)" height="5px" width="5px" x="16px" y="80px" /><rect fill="rgb(156,65,66)" height="5px" width="5px" x="20px" y="80px" /><rect fill="rgb(117,48,49)" height="5px" width="5px" x="24px" y="80px" /><rect fill="rgb(78,40,33)" height="5px" width="5px" x="28px" y="80px" /><rect fill="rgb(78,48,33)" height="5px" width="5px" x="32px" y="80px" /><rect fill="rgb(117,72,49)" height="5px" width="5px" x="36px" y="80px" /><rect fill="rgb(156,97,66)" height="5px" width="5px" x="40px" y="80px" /><rect fill="rgb(156,97,66)" height="5px" width="5px" x="44px" y="80px" /><rect fill="rgb(78,48,33)" height="5px" width="5px" x="48px" y="80px" /><rect fill="rgb(78,48,33)" height="5px" width="5px" x="52px" y="80px" /><rect fill="rgb(78,48,33)" height="5px" width="5px" x="56px" y="80px" /><rect fill="rgb(78,48,33)" height="5px" width="5px" x="60px" y="80px" /><rect fill="rgb(78,48,33)" height="5px" width="5px" x="64px" y="80px" /><rect fill="rgb(78,48,33)" height="5px" width="5px" x="68px" y="80px" /><rect fill="rgb(78,48,33)" height="5px" width="5px" x="72px" y="80px" /><rect fill="rgb(78,48,33)" height="5px" width="5px" x="76px" y="80px" /><rect fill="rgb(156,97,66)" height="5px" width="5px" x="80px" y="80px" /><rect fill="rgb(156,97,66)" height="5px" width="5px" x="84px" y="80px" /><rect fill="rgb(117,72,49)" height="5px" width="5px" x="88px" y="80px" /><rect fill="rgb(78,48,33)" height="5px" width="5px" x="92px" y="80px" /><rect fill="rgb(78,40,33)" height="5px" width="5px" x="96px" y="80px" /><rect fill="rgb(117,48,49)" height="5px" width="5px" x="100px" y="80px" /><rect fill="rgb(156,65,66)" height="5px" width="5px" x="104px" y="80px" /><rect fill="rgb(156,65,66)" height="5px" width="5px" x="108px" y="80px" /><rect fill="rgb(156,65,66)" height="5px" width="5px" x="112px" y="80px" /><rect fill="rgb(156,65,66)" height="5px" width="5px" x="116px" y="80px" /><rect fill="rgb(52,21,21)" height="5px" opacity="0.749019607843" width="5px" x="120px" y="80px" /><rect fill="rgb(0,0,0)" height="5px" opacity="0.247058823529" width="5px" x="4px" y="84px" /><rect fill="rgb(117,48,49)" height="5px" width="5px" x="8px" y="84px" /><rect fill="rgb(156,65,66)" height="5px" width="5px" x="12px" y="84px" /><rect fill="rgb(156,65,66)" height="5px" width="5px" x="16px" y="84px" /><rect fill="rgb(156,65,66)" height="5px" width="5px" x="20px" y="84px" /><rect fill="rgb(156,65,66)" height="5px" width="5px" x="24px" y="84px" /><rect fill="rgb(156,65,66)" height="5px" width="5px" x="28px" y="84px" /><rect fill="rgb(156,65,66)" height="5px" width="5px" x="32px" y="84px" /><rect fill="rgb(117,48,49)" height="5px" width="5px" x="36px" y="84px" /><rect fill="rgb(78,32,33)" height="5px" width="5px" x="40px" y="84px" /><rect fill="rgb(78,32,33)" height="5px" width="5px" x="44px" y="84px" /><rect fill="rgb(78,48,33)" height="5px" width="5px" x="48px" y="84px" /><rect fill="rgb(78,48,33)" height="5px" width="5px" x="52px" y="84px" /><rect fill="rgb(78,48,33)" height="5px" width="5px" x="56px" y="84px" /><rect fill="rgb(78,48,33)" height="5px" width="5px" x="60px" y="84px" /><rect fill="rgb(78,48,33)" height="5px" width="5px" x="64px" y="84px" /><rect fill="rgb(78,48,33)" height="5px" width="5px" x="68px" y="84px" /><rect fill="rgb(78,48,33)" height="5px" width="5px" x="72px" y="84px" /><rect fill="rgb(78,48,33)" height="5px" width="5px" x="76px" y="84px" /><rect fill="rgb(78,32,33)" height="5px" width="5px" x="80px" y="84px" /><rect fill="rgb(78,32,33)" height="5px" width="5px" x="84px" y="84px" /><rect fill="rgb(117,48,49)" height="5px" width="5px" x="88px" y="84px" /><rect fill="rgb(156,65,66)" height="5px" width="5px" x="92px" y="84px" /><rect fill="rgb(156,65,66)" height="5px" width="5px" x="96px" y="84px" /><rect fill="rgb(156,65,66)" height="5px" width="5px" x="100px" y="84px" /><rect fill="rgb(156,65,66)" height="5px" width="5px" x="104px" y="84px" /><rect fill="rgb(156,65,66)" height="5px" width="5px" x="108px" y="84px" /><rect fill="rgb(156,65,66)" height="5px" width="5px" x="112px" y="84px" /><rect fill="rgb(117,48,49)" height="5px" width="5px" x="116px" y="84px" /><rect fill="rgb(0,0,0)" height="5px" opacity="0.247058823529" width="5px" x="120px" y="84px" /><rect fill="rgb(0,0,0)" height="5px" opacity="0.247058823529" width="5px" x="8px" y="88px" /><rect fill="rgb(117,48,49)" height="5px" width="5px" x="12px" y="88px" /><rect fill="rgb(156,65,66)" height="5px" width="5px" x="16px" y="88px" /><rect fill="rgb(156,65,66)" height="5px" width="5px" x="20px" y="88px" /><rect fill="rgb(156,65,66)" height="5px" width="5px" x="24px" y="88px" /><rect fill="rgb(156,65,66)" height="5px" width="5px" x="28px" y="88px" /><rect fill="rgb(156,65,66)" height="5px" width="5px" x="32px" y="88px" /><rect fill="rgb(156,65,66)" height="5px" width="5px" x="36px" y="88px" /><rect fill="rgb(156,65,66)" height="5px" width="5px" x="40px" y="88px" /><rect fill="rgb(156,65,66)" height="5px" width="5px" x="44px" y="88px" /><rect fill="rgb(156,65,66)" height="5px" width="5px" x="48px" y="88px" /><rect fill="rgb(156,65,66)" height="5px" width="5px" x="52px" y="88px" /><rect fill="rgb(156,65,66)" height="5px" width="5px" x="56px" y="88px" /><rect fill="rgb(156,65,66)" height="5px" width="5px" x="60px" y="88px" /><rect fill="rgb(156,65,66)" height="5px" width="5px" x="64px" y="88px" /><rect fill="rgb(156,65,66)" height="5px" width="5px" x="68px" y="88px" /><rect fill="rgb(156,65,66)" height="5px" width="5px" x="72px" y="88px" /><rect fill="rgb(156,65,66)" height="5px" width="5px" x="76px" y="88px" /><rect fill="rgb(156,65,66)" height="5px" width="5px" x="80px" y="88px" /><rect fill="rgb(156,65,66)" height="5px" width="5px" x="84px" y="88px" /><rect fill="rgb(156,65,66)" height="5px" width="5px" x="88px" y="88px" /><rect fill="rgb(156,65,66)" height="5px" width="5px" x="92px" y="88px" /><rect fill="rgb(156,65,66)" height="5px" width="5px" x="96px" y="88px" /><rect fill="rgb(156,65,66)" height="5px" width="5px" x="100px" y="88px" /><rect fill="rgb(156,65,66)" height="5px" width="5px" x="104px" y="88px" /><rect fill="rgb(156,65,66)" height="5px" width="5px" x="108px" y="88px" /><rect fill="rgb(117,48,49)" height="5px" width="5px" x="112px" y="88px" /><rect fill="rgb(0,0,0)" height="5px" opacity="0.247058823529" width="5px" x="116px" y="88px" /><rect fill="rgb(0,0,0)" height="5px" opacity="0.247058823529" width="5px" x="12px" y="92px" /><rect fill="rgb(52,21,21)" height="5px" opacity="0.749019607843" width="5px" x="16px" y="92px" /><rect fill="rgb(117,48,49)" height="5px" width="5px" x="20px" y="92px" /><rect fill="rgb(156,65,66)" height="5px" width="5px" x="24px" y="92px" /><rect fill="rgb(156,65,66)" height="5px" width="5px" x="28px" y="92px" /><rect fill="rgb(156,65,66)" height="5px" width="5px" x="32px" y="92px" /><rect fill="rgb(156,65,66)" height="5px" width="5px" x="36px" y="92px" /><rect fill="rgb(156,65,66)" height="5px" width="5px" x="40px" y="92px" /><rect fill="rgb(156,65,66)" height="5px" width="5px" x="44px" y="92px" /><rect fill="rgb(156,65,66)" height="5px" width="5px" x="48px" y="92px" /><rect fill="rgb(156,65,66)" height="5px" width="5px" x="52px" y="92px" /><rect fill="rgb(156,65,66)" height="5px" width="5px" x="56px" y="92px" /><rect fill="rgb(156,65,66)" height="5px" width="5px" x="60px" y="92px" /><rect fill="rgb(156,65,66)" height="5px" width="5px" x="64px" y="92px" /><rect fill="rgb(156,65,66)" height="5px" width="5px" x="68px" y="92px" /><rect fill="rgb(156,65,66)" height="5px" width="5px" x="72px" y="92px" /><rect fill="rgb(156,65,66)" height="5px" width="5px" x="76px" y="92px" /><rect fill="rgb(156,65,66)" height="5px" width="5px" x="80px" y="92px" /><rect fill="rgb(156,65,66)" height="5px" width="5px" x="84px" y="92px" /><rect fill="rgb(156,65,66)" height="5px" width="5px" x="88px" y="92px" /><rect fill="rgb(156,65,66)" height="5px" width="5px" x="92px" y="92px" /><rect fill="rgb(156,65,66)" height="5px" width="5px" x="96px" y="92px" /><rect fill="rgb(156,65,66)" height="5px" width="5px" x="100px" y="92px" /><rect fill="rgb(117,48,49)" height="5px" width="5px" x="104px" y="92px" /><rect fill="rgb(52,21,21)" height="5px" opacity="0.749019607843" width="5px" x="108px" y="92px" /><rect fill="rgb(0,0,0)" height="5px" opacity="0.247058823529" width="5px" x="112px" y="92px" /><rect fill="rgb(0,0,0)" height="5px" opacity="0.247058823529" width="5px" x="20px" y="96px" /><rect fill="rgb(52,21,21)" height="5px" opacity="0.749019607843" width="5px" x="24px" y="96px" /><rect fill="rgb(117,48,49)" height="5px" width="5px" x="28px" y="96px" /><rect fill="rgb(156,65,66)" height="5px" width="5px" x="32px" y="96px" /><rect fill="rgb(156,65,66)" height="5px" width="5px" x="36px" y="96px" /><rect fill="rgb(156,65,66)" height="5px" width="5px" x="40px" y="96px" /><rect fill="rgb(156,65,66)" height="5px" width="5px" x="44px" y="96px" /><rect fill="rgb(156,65,66)" height="5px" width="5px" x="48px" y="96px" /><rect fill="rgb(156,65,66)" height="5px" width="5px" x="52px" y="96px" /><rect fill="rgb(156,65,66)" height="5px" width="5px" x="56px" y="96px" /><rect fill="rgb(156,65,66)" height="5px" width="5px" x="60px" y="96px" /><rect fill="rgb(156,65,66)" height="5px" width="5px" x="64px" y="96px" /><rect fill="rgb(156,65,66)" height="5px" width="5px" x="68px" y="96px" /><rect fill="rgb(156,65,66)" height="5px" width="5px" x="72px" y="96px" /><rect fill="rgb(156,65,66)" height="5px" width="5px" x="76px" y="96px" /><rect fill="rgb(156,65,66)" height="5px" width="5px" x="80px" y="96px" /><rect fill="rgb(156,65,66)" height="5px" width="5px" x="84px" y="96px" /><rect fill="rgb(156,65,66)" height="5px" width="5px" x="88px" y="96px" /><rect fill="rgb(156,65,66)" height="5px" width="5px" x="92px" y="96px" /><rect fill="rgb(117,48,49)" height="5px" width="5px" x="96px" y="96px" /><rect fill="rgb(52,21,21)" height="5px" opacity="0.749019607843" width="5px" x="100px" y="96px" /><rect fill="rgb(0,0,0)" height="5px" opacity="0.247058823529" width="5px" x="104px" y="96px" /><rect fill="rgb(0,0,0)" height="5px" opacity="0.247058823529" width="5px" x="28px" y="100px" /><rect fill="rgb(0,0,0)" height="5px" opacity="0.498039215686" width="5px" x="32px" y="100px" /><rect fill="rgb(52,21,21)" height="5px" opacity="0.749019607843" width="5px" x="36px" y="100px" /><rect fill="rgb(78,32,33)" height="5px" width="5px" x="40px" y="100px" /><rect fill="rgb(78,32,33)" height="5px" width="5px" x="44px" y="100px" /><rect fill="rgb(156,65,66)" height="5px" width="5px" x="48px" y="100px" /><rect fill="rgb(156,65,66)" height="5px" width="5px" x="52px" y="100px" /><rect fill="rgb(156,65,66)" height="5px" width="5px" x="56px" y="100px" /><rect fill="rgb(156,65,66)" height="5px" width="5px" x="60px" y="100px" /><rect fill="rgb(156,65,66)" height="5px" width="5px" x="64px" y="100px" /><rect fill="rgb(156,65,66)" height="5px" width="5px" x="68px" y="100px" /><rect fill="rgb(156,65,66)" height="5px" width="5px" x="72px" y="100px" /><rect fill="rgb(156,65,66)" height="5px" width="5px" x="76px" y="100px" /><rect fill="rgb(78,32,33)" height="5px" width="5px" x="80px" y="100px" /><rect fill="rgb(78,32,33)" height="5px" width="5px" x="84px" y="100px" /><rect fill="rgb(52,21,21)" height="5px" opacity="0.749019607843" width="5px" x="88px" y="100px" /><rect fill="rgb(0,0,0)" height="5px" opacity="0.498039215686" width="5px" x="92px" y="100px" /><rect fill="rgb(0,0,0)" height="5px" opacity="0.247058823529" width="5px" x="96px" y="100px" /><rect fill="rgb(0,0,0)" height="5px" opacity="0.498039215686" width="5px" x="48px" y="104px" /><rect fill="rgb(0,0,0)" height="5px" opacity="0.498039215686" width="5px" x="52px" y="104px" /><rect fill="rgb(0,0,0)" height="5px" opacity="0.498039215686" width="5px" x="56px" y="104px" /><rect fill="rgb(0,0,0)" height="5px" opacity="0.498039215686" width="5px" x="60px" y="104px" /><rect fill="rgb(0,0,0)" height="5px" opacity="0.498039215686" width="5px" x="64px" y="104px" /><rect fill="rgb(0,0,0)" height="5px" opacity="0.498039215686" width="5px" x="68px" y="104px" /><rect fill="rgb(0,0,0)" height="5px" opacity="0.498039215686" width="5px" x="72px" y="104px" /><rect fill="rgb(0,0,0)" height="5px" opacity="0.498039215686" width="5px" x="76px" y="104px" /></svg>