<?xml version="1.0" encoding="utf-8" ?>
<svg baseProfile="full" height="128px" version="1.1" width="128px" xmlns="http://www.w3.org/2000/svg" xmlns:ev="http://www.w3.org/2001/xml-events" xmlns:xlink="http://www.w3.org/1999/xlink"><defs /><rect fill="rgb(255,226,143)" height="5px" width="5px" x="48px" y="0px" /><rect fill="rgb(255,226,143)" height="5px" width="5px" x="52px" y="0px" /><rect fill="rgb(255,226,143)" height="5px" width="5px" x="56px" y="0px" /><rect fill="rgb(255,226,143)" height="5px" width="5px" x="60px" y="0px" /><rect fill="rgb(255,226,143)" height="5px" width="5px" x="64px" y="0px" /><rect fill="rgb(255,226,143)" height="5px" width="5px" x="68px" y="0px" /><rect fill="rgb(255,226,143)" height="5px" width="5px" x="24px" y="4px" /><rect fill="rgb(255,226,143)" height="5px" width="5px" x="28px" y="4px" /><rect fill="rgb(255,226,143)" height="5px" width="5px" x="32px" y="4px" /><rect fill="rgb(255,226,143)" height="5px" width="5px" x="36px" y="4px" /><rect fill="rgb(255,226,143)" height="5px" width="5px" x="40px" y="4px" /><rect fill="rgb(255,226,143)" height="5px" width="5px" x="44px" y="4px" /><rect fill="rgb(255,226,143)" height="5px" width="5px" x="48px" y="4px" /><rect fill="rgb(232,205,130)" height="5px" width="5px" x="52px" y="4px" /><rect fill="rgb(232,205,130)" height="5px" width="5px" x="56px" y="4px" /><rect fill="rgb(232,205,130)" height="5px" width="5px" x="60px" y="4px" /><rect fill="rgb(232,205,130)" height="5px" width="5px" x="64px" y="4px" /><rect fill="rgb(255,226,143)" height="5px" width="5px" x="68px" y="4px" /><rect fill="rgb(255,226,143)" height="5px" width="5px" x="72px" y="4px" /><rect fill="rgb(255,226,143)" height="5px" width="5px" x="4px" y="8px" /><rect fill="rgb(255,226,143)" height="5px" width="5px" x="8px" y="8px" /><rect fill="rgb(255,226,143)" height="5px" width="5px" x="12px" y="8px" /><rect fill="rgb(255,226,143)" height="5px" width="5px" x="16px" y="8px" /><rect fill="rgb(255,226,143)" height="5px" width="5px" x="20px" y="8px" /><rect fill="rgb(232,205,130)" height="5px" width="5px" x="24px" y="8px" /><rect fill="rgb(232,205,130)" height="5px" width="5px" x="28px" y="8px" /><rect fill="rgb(232,205,130)" height="5px" width="5px" x="32px" y="8px" /><rect fill="rgb(232,205,130)" height="5px" width="5px" x="36px" y="8px" /><rect fill="rgb(232,205,130)" height="5px" width="5px" x="40px" y="8px" /><rect fill="rgb(232,205,130)" height="5px" width="5px" x="44px" y="8px" /><rect fill="rgb(232,205,130)" height="5px" width="5px" x="48px" y="8px" /><rect fill="rgb(232,205,130)" height="5px" width="5px" x="52px" y="8px" /><rect fill="rgb(177,156,99)" height="5px" width="5px" x="56px" y="8px" /><rect fill="rgb(182,161,102)" height="5px" width="5px" x="60px" y="8px" /><rect fill="rgb(134,118,75)" height="5px" width="5px" x="64px" y="8px" /><rect fill="rgb(116,103,65)" height="5px" width="5px" x="68px" y="8px" /><rect fill="rgb(255,226,143)" height="5px" width="5px" x="72px" y="8px" /><rect fill="rgb(255,226,143)" height="5px" width="5px" x="76px" y="8px" /><rect fill="rgb(255,226,143)" height="5px" width="5px" x="0px" y="12px" /><rect fill="rgb(255,226,143)" height="5px" width="5px" x="4px" y="12px" /><rect fill="rgb(232,205,130)" height="5px" width="5px" x="8px" y="12px" /><rect fill="rgb(232,205,130)" height="5px" width="5px" x="12px" y="12px" /><rect fill="rgb(232,205,130)" height="5px" width="5px" x="16px" y="12px" /><rect fill="rgb(232,205,130)" height="5px" width="5px" x="20px" y="12px" /><rect fill="rgb(232,205,130)" height="5px" width="5px" x="24px" y="12px" /><rect fill="rgb(232,205,130)" height="5px" width="5px" x="28px" y="12px" /><rect fill="rgb(232,205,130)" height="5px" width="5px" x="32px" y="12px" /><rect fill="rgb(232,205,130)" height="5px" width="5px" x="36px" y="12px" /><rect fill="rgb(209,185,117)" height="5px" width="5px" x="40px" y="12px" /><rect fill="rgb(185,163,103)" height="5px" width="5px" x="44px" y="12px" /><rect fill="rgb(170,150,95)" height="5px" width="5px" x="48px" y="12px" /><rect fill="rgb(18,16,10)" height="5px" width="5px" x="52px" y="12px" /><rect fill="rgb(16,14,9)" height="5px" width="5px" x="56px" y="12px" /><rect fill="rgb(148,131,83)" height="5px" width="5px" x="60px" y="12px" /><rect fill="rgb(171,151,96)" height="5px" width="5px" x="64px" y="12px" /><rect fill="rgb(51,45,29)" height="5px" width="5px" x="68px" y="12px" /><rect fill="rgb(132,117,74)" height="5px" width="5px" x="72px" y="12px" /><rect fill="rgb(255,226,143)" height="5px" width="5px" x="76px" y="12px" /><rect fill="rgb(255,226,143)" height="5px" width="5px" x="0px" y="16px" /><rect fill="rgb(232,205,130)" height="5px" width="5px" x="4px" y="16px" /><rect fill="rgb(232,205,130)" height="5px" width="5px" x="8px" y="16px" /><rect fill="rgb(232,205,130)" height="5px" width="5px" x="12px" y="16px" /><rect fill="rgb(232,205,130)" height="5px" width="5px" x="16px" y="16px" /><rect fill="rgb(232,205,130)" height="5px" width="5px" x="20px" y="16px" /><rect fill="rgb(232,205,130)" height="5px" width="5px" x="24px" y="16px" /><rect fill="rgb(214,189,120)" height="5px" width="5px" x="28px" y="16px" /><rect fill="rgb(149,132,84)" height="5px" width="5px" x="32px" y="16px" /><rect fill="rgb(186,164,104)" height="5px" width="5px" x="36px" y="16px" /><rect fill="rgb(4,3,2)" height="5px" width="5px" x="40px" y="16px" /><rect fill="rgb(106,94,60)" height="5px" width="5px" x="44px" y="16px" /><rect fill="rgb(219,194,123)" height="5px" width="5px" x="48px" y="16px" /><rect fill="rgb(187,165,105)" height="5px" width="5px" x="52px" y="16px" /><rect fill="rgb(15,13,8)" height="5px" width="5px" x="56px" y="16px" /><rect fill="rgb(232,205,130)" height="5px" width="5px" x="60px" y="16px" /><rect fill="rgb(232,205,130)" height="5px" width="5px" x="64px" y="16px" /><rect fill="rgb(13,11,7)" height="5px" width="5px" x="68px" y="16px" /><rect fill="rgb(56,50,32)" height="5px" width="5px" x="72px" y="16px" /><rect fill="rgb(17,15,10)" height="5px" width="5px" x="76px" y="16px" /><rect fill="rgb(255,226,143)" height="5px" width="5px" x="80px" y="16px" /><rect fill="rgb(255,226,143)" height="5px" width="5px" x="0px" y="20px" /><rect fill="rgb(232,205,130)" height="5px" width="5px" x="4px" y="20px" /><rect fill="rgb(232,205,130)" height="5px" width="5px" x="8px" y="20px" /><rect fill="rgb(227,201,127)" height="5px" width="5px" x="12px" y="20px" /><rect fill="rgb(163,144,91)" height="5px" width="5px" x="16px" y="20px" /><rect fill="rgb(212,187,119)" height="5px" width="5px" x="20px" y="20px" /><rect fill="rgb(40,35,22)" height="5px" width="5px" x="24px" y="20px" /><rect fill="rgb(218,193,122)" height="5px" width="5px" x="28px" y="20px" /><rect fill="rgb(5,5,3)" height="5px" width="5px" x="32px" y="20px" /><rect fill="rgb(229,203,128)" height="5px" width="5px" x="36px" y="20px" /><rect fill="rgb(13,11,7)" height="5px" width="5px" x="40px" y="20px" /><rect fill="rgb(148,131,83)" height="5px" width="5px" x="44px" y="20px" /><rect fill="rgb(215,190,120)" height="5px" width="5px" x="48px" y="20px" /><rect fill="rgb(232,205,130)" height="5px" width="5px" x="52px" y="20px" /><rect fill="rgb(49,43,28)" height="5px" width="5px" x="56px" y="20px" /><rect fill="rgb(175,154,98)" height="5px" width="5px" x="60px" y="20px" /><rect fill="rgb(232,205,130)" height="5px" width="5px" x="64px" y="20px" /><rect fill="rgb(76,68,43)" height="5px" width="5px" x="68px" y="20px" /><rect fill="rgb(147,130,83)" height="5px" width="5px" x="72px" y="20px" /><rect fill="rgb(95,84,53)" height="5px" width="5px" x="76px" y="20px" /><rect fill="rgb(255,226,143)" height="5px" width="5px" x="80px" y="20px" /><rect fill="rgb(255,226,143)" height="5px" width="5px" x="84px" y="20px" /><rect fill="rgb(0,0,0)" height="5px" opacity="0.043137254902" width="5px" x="88px" y="20px" /><rect fill="rgb(0,0,0)" height="5px" opacity="0.00392156862745" width="5px" x="96px" y="20px" /><rect fill="rgb(255,226,143)" height="5px" width="5px" x="4px" y="24px" /><rect fill="rgb(255,226,143)" height="5px" width="5px" x="8px" y="24px" /><rect fill="rgb(255,226,143)" height="5px" width="5px" x="12px" y="24px" /><rect fill="rgb(232,205,130)" height="5px" width="5px" x="16px" y="24px" /><rect fill="rgb(200,177,112)" height="5px" width="5px" x="20px" y="24px" /><rect fill="rgb(42,37,23)" height="5px" width="5px" x="24px" y="24px" /><rect fill="rgb(182,161,102)" height="5px" width="5px" x="28px" y="24px" /><rect fill="rgb(60,53,34)" height="5px" width="5px" x="32px" y="24px" /><rect fill="rgb(166,146,93)" height="5px" width="5px" x="36px" y="24px" /><rect fill="rgb(76,68,43)" height="5px" width="5px" x="40px" y="24px" /><rect fill="rgb(38,34,21)" height="5px" width="5px" x="44px" y="24px" /><rect fill="rgb(188,166,106)" height="5px" width="5px" x="48px" y="24px" /><rect fill="rgb(232,205,130)" height="5px" width="5px" x="52px" y="24px" /><rect fill="rgb(113,100,63)" height="5px" width="5px" x="56px" y="24px" /><rect fill="rgb(111,98,62)" height="5px" width="5px" x="60px" y="24px" /><rect fill="rgb(232,205,130)" height="5px" width="5px" x="64px" y="24px" /><rect fill="rgb(140,124,79)" height="5px" width="5px" x="68px" y="24px" /><rect fill="rgb(112,99,63)" height="5px" width="5px" x="72px" y="24px" /><rect fill="rgb(192,170,108)" height="5px" width="5px" x="76px" y="24px" /><rect fill="rgb(227,201,127)" height="5px" width="5px" x="80px" y="24px" /><rect fill="rgb(255,226,143)" height="5px" width="5px" x="84px" y="24px" /><rect fill="rgb(255,226,143)" height="5px" width="5px" x="88px" y="24px" /><rect fill="rgb(255,226,143)" height="5px" width="5px" x="12px" y="28px" /><rect fill="rgb(255,226,143)" height="5px" width="5px" x="16px" y="28px" /><rect fill="rgb(255,226,143)" height="5px" width="5px" x="20px" y="28px" /><rect fill="rgb(106,93,59)" height="5px" width="5px" x="24px" y="28px" /><rect fill="rgb(118,105,66)" height="5px" width="5px" x="28px" y="28px" /><rect fill="rgb(124,109,69)" height="5px" width="5px" x="32px" y="28px" /><rect fill="rgb(100,88,56)" height="5px" width="5px" x="36px" y="28px" /><rect fill="rgb(142,125,80)" height="5px" width="5px" x="40px" y="28px" /><rect fill="rgb(65,57,36)" height="5px" width="5px" x="44px" y="28px" /><rect fill="rgb(154,136,86)" height="5px" width="5px" x="48px" y="28px" /><rect fill="rgb(232,205,130)" height="5px" width="5px" x="52px" y="28px" /><rect fill="rgb(181,160,101)" height="5px" width="5px" x="56px" y="28px" /><rect fill="rgb(106,93,59)" height="5px" width="5px" x="60px" y="28px" /><rect fill="rgb(232,205,130)" height="5px" width="5px" x="64px" y="28px" /><rect fill="rgb(225,200,126)" height="5px" width="5px" x="68px" y="28px" /><rect fill="rgb(224,198,125)" height="5px" width="5px" x="72px" y="28px" /><rect fill="rgb(176,155,98)" height="5px" width="5px" x="76px" y="28px" /><rect fill="rgb(208,184,117)" height="5px" width="5px" x="80px" y="28px" /><rect fill="rgb(93,82,52)" height="5px" width="5px" x="84px" y="28px" /><rect fill="rgb(255,226,143)" height="5px" width="5px" x="88px" y="28px" /><rect fill="rgb(255,226,143)" height="5px" width="5px" x="92px" y="28px" /><rect fill="rgb(255,226,143)" height="5px" width="5px" x="20px" y="32px" /><rect fill="rgb(255,226,143)" height="5px" width="5px" x="24px" y="32px" /><rect fill="rgb(65,57,36)" height="5px" width="5px" x="28px" y="32px" /><rect fill="rgb(137,121,77)" height="5px" width="5px" x="32px" y="32px" /><rect fill="rgb(160,141,90)" height="5px" width="5px" x="36px" y="32px" /><rect fill="rgb(206,182,115)" height="5px" width="5px" x="40px" y="32px" /><rect fill="rgb(42,37,23)" height="5px" width="5px" x="44px" y="32px" /><rect fill="rgb(110,97,62)" height="5px" width="5px" x="48px" y="32px" /><rect fill="rgb(232,205,130)" height="5px" width="5px" x="52px" y="32px" /><rect fill="rgb(232,205,130)" height="5px" width="5px" x="56px" y="32px" /><rect fill="rgb(232,205,130)" height="5px" width="5px" x="60px" y="32px" /><rect fill="rgb(207,182,116)" height="5px" width="5px" x="64px" y="32px" /><rect fill="rgb(156,137,87)" height="5px" width="5px" x="68px" y="32px" /><rect fill="rgb(150,133,84)" height="5px" width="5px" x="72px" y="32px" /><rect fill="rgb(136,121,76)" height="5px" width="5px" x="76px" y="32px" /><rect fill="rgb(73,64,41)" height="5px" width="5px" x="80px" y="32px" /><rect fill="rgb(180,159,101)" height="5px" width="5px" x="84px" y="32px" /><rect fill="rgb(87,77,49)" height="5px" width="5px" x="88px" y="32px" /><rect fill="rgb(255,226,143)" height="5px" width="5px" x="92px" y="32px" /><rect fill="rgb(255,226,143)" height="5px" width="5px" x="28px" y="36px" /><rect fill="rgb(94,83,53)" height="5px" width="5px" x="32px" y="36px" /><rect fill="rgb(221,195,124)" height="5px" width="5px" x="36px" y="36px" /><rect fill="rgb(232,205,130)" height="5px" width="5px" x="40px" y="36px" /><rect fill="rgb(232,205,130)" height="5px" width="5px" x="44px" y="36px" /><rect fill="rgb(232,205,130)" height="5px" width="5px" x="48px" y="36px" /><rect fill="rgb(215,190,120)" height="5px" width="5px" x="52px" y="36px" /><rect fill="rgb(212,187,119)" height="5px" width="5px" x="56px" y="36px" /><rect fill="rgb(166,146,93)" height="5px" width="5px" x="60px" y="36px" /><rect fill="rgb(169,150,95)" height="5px" width="5px" x="64px" y="36px" /><rect fill="rgb(72,64,40)" height="5px" width="5px" x="68px" y="36px" /><rect fill="rgb(35,31,19)" height="5px" width="5px" x="72px" y="36px" /><rect fill="rgb(188,166,106)" height="5px" width="5px" x="76px" y="36px" /><rect fill="rgb(97,86,55)" height="5px" width="5px" x="80px" y="36px" /><rect fill="rgb(117,104,66)" height="5px" width="5px" x="84px" y="36px" /><rect fill="rgb(111,98,62)" height="5px" width="5px" x="88px" y="36px" /><rect fill="rgb(255,226,143)" height="5px" width="5px" x="92px" y="36px" /><rect fill="rgb(255,226,143)" height="5px" width="5px" x="96px" y="36px" /><rect fill="rgb(255,226,143)" height="5px" width="5px" x="32px" y="40px" /><rect fill="rgb(232,205,130)" height="5px" width="5px" x="36px" y="40px" /><rect fill="rgb(232,205,130)" height="5px" width="5px" x="40px" y="40px" /><rect fill="rgb(232,205,130)" height="5px" width="5px" x="44px" y="40px" /><rect fill="rgb(199,176,112)" height="5px" width="5px" x="48px" y="40px" /><rect fill="rgb(153,135,86)" height="5px" width="5px" x="52px" y="40px" /><rect fill="rgb(42,37,23)" height="5px" width="5px" x="56px" y="40px" /><rect fill="rgb(121,107,68)" height="5px" width="5px" x="60px" y="40px" /><rect fill="rgb(217,192,122)" height="5px" width="5px" x="64px" y="40px" /><rect fill="rgb(162,143,91)" height="5px" width="5px" x="68px" y="40px" /><rect fill="rgb(72,64,40)" height="5px" width="5px" x="72px" y="40px" /><rect fill="rgb(101,89,57)" height="5px" width="5px" x="76px" y="40px" /><rect fill="rgb(118,105,66)" height="5px" width="5px" x="80px" y="40px" /><rect fill="rgb(127,113,71)" height="5px" width="5px" x="84px" y="40px" /><rect fill="rgb(100,88,56)" height="5px" width="5px" x="88px" y="40px" /><rect fill="rgb(193,170,108)" height="5px" width="5px" x="92px" y="40px" /><rect fill="rgb(255,226,143)" height="5px" width="5px" x="96px" y="40px" /><rect fill="rgb(255,226,143)" height="5px" width="5px" x="32px" y="44px" /><rect fill="rgb(255,226,143)" height="5px" width="5px" x="36px" y="44px" /><rect fill="rgb(227,201,127)" height="5px" width="5px" x="40px" y="44px" /><rect fill="rgb(156,138,88)" height="5px" width="5px" x="44px" y="44px" /><rect fill="rgb(153,135,86)" height="5px" width="5px" x="48px" y="44px" /><rect fill="rgb(149,132,84)" height="5px" width="5px" x="52px" y="44px" /><rect fill="rgb(59,52,33)" height="5px" width="5px" x="56px" y="44px" /><rect fill="rgb(117,104,66)" height="5px" width="5px" x="60px" y="44px" /><rect fill="rgb(225,199,126)" height="5px" width="5px" x="64px" y="44px" /><rect fill="rgb(193,170,108)" height="5px" width="5px" x="68px" y="44px" /><rect fill="rgb(68,60,38)" height="5px" width="5px" x="72px" y="44px" /><rect fill="rgb(104,92,58)" height="5px" width="5px" x="76px" y="44px" /><rect fill="rgb(158,140,89)" height="5px" width="5px" x="80px" y="44px" /><rect fill="rgb(164,145,92)" height="5px" width="5px" x="84px" y="44px" /><rect fill="rgb(108,96,61)" height="5px" width="5px" x="88px" y="44px" /><rect fill="rgb(204,180,114)" height="5px" width="5px" x="92px" y="44px" /><rect fill="rgb(232,205,130)" height="5px" width="5px" x="96px" y="44px" /><rect fill="rgb(255,226,143)" height="5px" width="5px" x="100px" y="44px" /><rect fill="rgb(255,226,143)" height="5px" width="5px" x="36px" y="48px" /><rect fill="rgb(227,200,127)" height="5px" width="5px" x="40px" y="48px" /><rect fill="rgb(103,91,58)" height="5px" width="5px" x="44px" y="48px" /><rect fill="rgb(126,111,70)" height="5px" width="5px" x="48px" y="48px" /><rect fill="rgb(216,191,121)" height="5px" width="5px" x="52px" y="48px" /><rect fill="rgb(187,165,105)" height="5px" width="5px" x="56px" y="48px" /><rect fill="rgb(66,58,37)" height="5px" width="5px" x="60px" y="48px" /><rect fill="rgb(185,163,103)" height="5px" width="5px" x="64px" y="48px" /><rect fill="rgb(209,185,117)" height="5px" width="5px" x="68px" y="48px" /><rect fill="rgb(138,122,77)" height="5px" width="5px" x="72px" y="48px" /><rect fill="rgb(55,48,31)" height="5px" width="5px" x="76px" y="48px" /><rect fill="rgb(178,158,100)" height="5px" width="5px" x="80px" y="48px" /><rect fill="rgb(223,197,125)" height="5px" width="5px" x="84px" y="48px" /><rect fill="rgb(212,187,119)" height="5px" width="5px" x="88px" y="48px" /><rect fill="rgb(232,205,130)" height="5px" width="5px" x="92px" y="48px" /><rect fill="rgb(232,205,130)" height="5px" width="5px" x="96px" y="48px" /><rect fill="rgb(244,216,137)" height="5px" width="5px" x="100px" y="48px" /><rect fill="rgb(238,210,133)" height="5px" width="5px" x="104px" y="48px" /><rect fill="rgb(255,226,143)" height="5px" width="5px" x="36px" y="52px" /><rect fill="rgb(228,202,128)" height="5px" width="5px" x="40px" y="52px" /><rect fill="rgb(101,89,57)" height="5px" width="5px" x="44px" y="52px" /><rect fill="rgb(20,18,11)" height="5px" width="5px" x="48px" y="52px" /><rect fill="rgb(180,159,101)" height="5px" width="5px" x="52px" y="52px" /><rect fill="rgb(199,176,112)" height="5px" width="5px" x="56px" y="52px" /><rect fill="rgb(118,105,66)" height="5px" width="5px" x="60px" y="52px" /><rect fill="rgb(146,129,82)" height="5px" width="5px" x="64px" y="52px" /><rect fill="rgb(222,196,124)" height="5px" width="5px" x="68px" y="52px" /><rect fill="rgb(172,152,96)" height="5px" width="5px" x="72px" y="52px" /><rect fill="rgb(144,127,81)" height="5px" width="5px" x="76px" y="52px" /><rect fill="rgb(232,205,130)" height="5px" width="5px" x="80px" y="52px" /><rect fill="rgb(232,205,130)" height="5px" width="5px" x="84px" y="52px" /><rect fill="rgb(232,205,130)" height="5px" width="5px" x="88px" y="52px" /><rect fill="rgb(227,201,127)" height="5px" width="5px" x="92px" y="52px" /><rect fill="rgb(192,170,108)" height="5px" width="5px" x="96px" y="52px" /><rect fill="rgb(208,184,117)" height="5px" width="5px" x="100px" y="52px" /><rect fill="rgb(238,210,133)" height="5px" width="5px" x="104px" y="52px" /><rect fill="rgb(255,226,143)" height="5px" width="5px" x="40px" y="56px" /><rect fill="rgb(39,35,22)" height="5px" width="5px" x="44px" y="56px" /><rect fill="rgb(97,86,55)" height="5px" width="5px" x="48px" y="56px" /><rect fill="rgb(105,92,59)" height="5px" width="5px" x="52px" y="56px" /><rect fill="rgb(217,191,121)" height="5px" width="5px" x="56px" y="56px" /><rect fill="rgb(157,139,88)" height="5px" width="5px" x="60px" y="56px" /><rect fill="rgb(156,137,87)" height="5px" width="5px" x="64px" y="56px" /><rect fill="rgb(227,200,127)" height="5px" width="5px" x="68px" y="56px" /><rect fill="rgb(232,205,130)" height="5px" width="5px" x="72px" y="56px" /><rect fill="rgb(232,205,130)" height="5px" width="5px" x="76px" y="56px" /><rect fill="rgb(228,202,128)" height="5px" width="5px" x="80px" y="56px" /><rect fill="rgb(224,198,125)" height="5px" width="5px" x="84px" y="56px" /><rect fill="rgb(176,155,98)" height="5px" width="5px" x="88px" y="56px" /><rect fill="rgb(208,184,117)" height="5px" width="5px" x="92px" y="56px" /><rect fill="rgb(93,82,52)" height="5px" width="5px" x="96px" y="56px" /><rect fill="rgb(117,104,66)" height="5px" width="5px" x="100px" y="56px" /><rect fill="rgb(222,196,124)" height="5px" width="5px" x="104px" y="56px" /><rect fill="rgb(255,226,143)" height="5px" width="5px" x="40px" y="60px" /><rect fill="rgb(94,83,53)" height="5px" width="5px" x="44px" y="60px" /><rect fill="rgb(134,118,75)" height="5px" width="5px" x="48px" y="60px" /><rect fill="rgb(130,115,73)" height="5px" width="5px" x="52px" y="60px" /><rect fill="rgb(209,185,117)" height="5px" width="5px" x="56px" y="60px" /><rect fill="rgb(232,205,130)" height="5px" width="5px" x="60px" y="60px" /><rect fill="rgb(231,204,129)" height="5px" width="5px" x="64px" y="60px" /><rect fill="rgb(232,205,130)" height="5px" width="5px" x="68px" y="60px" /><rect fill="rgb(232,205,130)" height="5px" width="5px" x="72px" y="60px" /><rect fill="rgb(207,182,116)" height="5px" width="5px" x="76px" y="60px" /><rect fill="rgb(156,137,87)" height="5px" width="5px" x="80px" y="60px" /><rect fill="rgb(150,133,84)" height="5px" width="5px" x="84px" y="60px" /><rect fill="rgb(136,121,76)" height="5px" width="5px" x="88px" y="60px" /><rect fill="rgb(73,64,41)" height="5px" width="5px" x="92px" y="60px" /><rect fill="rgb(180,159,101)" height="5px" width="5px" x="96px" y="60px" /><rect fill="rgb(87,77,49)" height="5px" width="5px" x="100px" y="60px" /><rect fill="rgb(187,165,105)" height="5px" width="5px" x="104px" y="60px" /><rect fill="rgb(238,210,133)" height="5px" width="5px" x="108px" y="60px" /><rect fill="rgb(255,226,143)" height="5px" width="5px" x="40px" y="64px" /><rect fill="rgb(231,205,130)" height="5px" width="5px" x="44px" y="64px" /><rect fill="rgb(198,175,111)" height="5px" width="5px" x="48px" y="64px" /><rect fill="rgb(215,190,120)" height="5px" width="5px" x="52px" y="64px" /><rect fill="rgb(232,205,130)" height="5px" width="5px" x="56px" y="64px" /><rect fill="rgb(232,205,130)" height="5px" width="5px" x="60px" y="64px" /><rect fill="rgb(215,190,120)" height="5px" width="5px" x="64px" y="64px" /><rect fill="rgb(212,187,119)" height="5px" width="5px" x="68px" y="64px" /><rect fill="rgb(166,146,93)" height="5px" width="5px" x="72px" y="64px" /><rect fill="rgb(169,150,95)" height="5px" width="5px" x="76px" y="64px" /><rect fill="rgb(72,64,40)" height="5px" width="5px" x="80px" y="64px" /><rect fill="rgb(35,31,19)" height="5px" width="5px" x="84px" y="64px" /><rect fill="rgb(188,166,106)" height="5px" width="5px" x="88px" y="64px" /><rect fill="rgb(97,86,55)" height="5px" width="5px" x="92px" y="64px" /><rect fill="rgb(117,104,66)" height="5px" width="5px" x="96px" y="64px" /><rect fill="rgb(111,98,62)" height="5px" width="5px" x="100px" y="64px" /><rect fill="rgb(210,186,118)" height="5px" width="5px" x="104px" y="64px" /><rect fill="rgb(238,210,133)" height="5px" width="5px" x="108px" y="64px" /><rect fill="rgb(255,226,143)" height="5px" width="5px" x="44px" y="68px" /><rect fill="rgb(232,205,130)" height="5px" width="5px" x="48px" y="68px" /><rect fill="rgb(232,205,130)" height="5px" width="5px" x="52px" y="68px" /><rect fill="rgb(232,205,130)" height="5px" width="5px" x="56px" y="68px" /><rect fill="rgb(199,176,112)" height="5px" width="5px" x="60px" y="68px" /><rect fill="rgb(153,135,86)" height="5px" width="5px" x="64px" y="68px" /><rect fill="rgb(42,37,23)" height="5px" width="5px" x="68px" y="68px" /><rect fill="rgb(121,107,68)" height="5px" width="5px" x="72px" y="68px" /><rect fill="rgb(217,192,122)" height="5px" width="5px" x="76px" y="68px" /><rect fill="rgb(162,143,91)" height="5px" width="5px" x="80px" y="68px" /><rect fill="rgb(72,64,40)" height="5px" width="5px" x="84px" y="68px" /><rect fill="rgb(101,89,57)" height="5px" width="5px" x="88px" y="68px" /><rect fill="rgb(118,105,66)" height="5px" width="5px" x="92px" y="68px" /><rect fill="rgb(127,113,71)" height="5px" width="5px" x="96px" y="68px" /><rect fill="rgb(100,88,56)" height="5px" width="5px" x="100px" y="68px" /><rect fill="rgb(193,170,108)" height="5px" width="5px" x="104px" y="68px" /><rect fill="rgb(232,205,130)" height="5px" width="5px" x="108px" y="68px" /><rect fill="rgb(238,210,133)" height="5px" width="5px" x="112px" y="68px" /><rect fill="rgb(255,226,143)" height="5px" width="5px" x="44px" y="72px" /><rect fill="rgb(232,205,130)" height="5px" width="5px" x="48px" y="72px" /><rect fill="rgb(227,201,127)" height="5px" width="5px" x="52px" y="72px" /><rect fill="rgb(156,138,88)" height="5px" width="5px" x="56px" y="72px" /><rect fill="rgb(153,135,86)" height="5px" width="5px" x="60px" y="72px" /><rect fill="rgb(149,132,84)" height="5px" width="5px" x="64px" y="72px" /><rect fill="rgb(59,52,33)" height="5px" width="5px" x="68px" y="72px" /><rect fill="rgb(117,104,66)" height="5px" width="5px" x="72px" y="72px" /><rect fill="rgb(225,199,126)" height="5px" width="5px" x="76px" y="72px" /><rect fill="rgb(193,170,108)" height="5px" width="5px" x="80px" y="72px" /><rect fill="rgb(68,60,38)" height="5px" width="5px" x="84px" y="72px" /><rect fill="rgb(104,92,58)" height="5px" width="5px" x="88px" y="72px" /><rect fill="rgb(158,140,89)" height="5px" width="5px" x="92px" y="72px" /><rect fill="rgb(164,145,92)" height="5px" width="5px" x="96px" y="72px" /><rect fill="rgb(108,96,61)" height="5px" width="5px" x="100px" y="72px" /><rect fill="rgb(204,180,114)" height="5px" width="5px" x="104px" y="72px" /><rect fill="rgb(232,205,130)" height="5px" width="5px" x="108px" y="72px" /><rect fill="rgb(238,210,133)" height="5px" width="5px" x="112px" y="72px" /><rect fill="rgb(255,226,143)" height="5px" width="5px" x="44px" y="76px" /><rect fill="rgb(255,226,143)" height="5px" width="5px" x="48px" y="76px" /><rect fill="rgb(227,200,127)" height="5px" width="5px" x="52px" y="76px" /><rect fill="rgb(103,91,58)" height="5px" width="5px" x="56px" y="76px" /><rect fill="rgb(126,111,70)" height="5px" width="5px" x="60px" y="76px" /><rect fill="rgb(216,191,121)" height="5px" width="5px" x="64px" y="76px" /><rect fill="rgb(187,165,105)" height="5px" width="5px" x="68px" y="76px" /><rect fill="rgb(66,58,37)" height="5px" width="5px" x="72px" y="76px" /><rect fill="rgb(185,163,103)" height="5px" width="5px" x="76px" y="76px" /><rect fill="rgb(209,185,117)" height="5px" width="5px" x="80px" y="76px" /><rect fill="rgb(138,122,77)" height="5px" width="5px" x="84px" y="76px" /><rect fill="rgb(55,48,31)" height="5px" width="5px" x="88px" y="76px" /><rect fill="rgb(171,152,96)" height="5px" width="5px" x="92px" y="76px" /><rect fill="rgb(211,186,118)" height="5px" width="5px" x="96px" y="76px" /><rect fill="rgb(205,181,115)" height="5px" width="5px" x="100px" y="76px" /><rect fill="rgb(213,188,119)" height="5px" width="5px" x="104px" y="76px" /><rect fill="rgb(222,196,124)" height="5px" width="5px" x="108px" y="76px" /><rect fill="rgb(238,210,133)" height="5px" width="5px" x="112px" y="76px" /><rect fill="rgb(255,226,143)" height="5px" width="5px" x="48px" y="80px" /><rect fill="rgb(207,183,116)" height="5px" width="5px" x="52px" y="80px" /><rect fill="rgb(101,89,57)" height="5px" width="5px" x="56px" y="80px" /><rect fill="rgb(20,18,11)" height="5px" width="5px" x="60px" y="80px" /><rect fill="rgb(180,159,101)" height="5px" width="5px" x="64px" y="80px" /><rect fill="rgb(199,176,112)" height="5px" width="5px" x="68px" y="80px" /><rect fill="rgb(118,105,66)" height="5px" width="5px" x="72px" y="80px" /><rect fill="rgb(146,129,82)" height="5px" width="5px" x="76px" y="80px" /><rect fill="rgb(222,196,124)" height="5px" width="5px" x="80px" y="80px" /><rect fill="rgb(172,152,96)" height="5px" width="5px" x="84px" y="80px" /><rect fill="rgb(144,127,81)" height="5px" width="5px" x="88px" y="80px" /><rect fill="rgb(222,196,124)" height="5px" width="5px" x="92px" y="80px" /><rect fill="rgb(215,190,120)" height="5px" width="5px" x="96px" y="80px" /><rect fill="rgb(151,133,85)" height="5px" width="5px" x="100px" y="80px" /><rect fill="rgb(145,128,81)" height="5px" width="5px" x="104px" y="80px" /><rect fill="rgb(184,162,103)" height="5px" width="5px" x="108px" y="80px" /><rect fill="rgb(238,210,133)" height="5px" width="5px" x="112px" y="80px" /><rect fill="rgb(255,226,143)" height="5px" width="5px" x="48px" y="84px" /><rect fill="rgb(171,151,96)" height="5px" width="5px" x="52px" y="84px" /><rect fill="rgb(39,35,22)" height="5px" width="5px" x="56px" y="84px" /><rect fill="rgb(97,86,55)" height="5px" width="5px" x="60px" y="84px" /><rect fill="rgb(105,92,59)" height="5px" width="5px" x="64px" y="84px" /><rect fill="rgb(217,191,121)" height="5px" width="5px" x="68px" y="84px" /><rect fill="rgb(157,139,88)" height="5px" width="5px" x="72px" y="84px" /><rect fill="rgb(156,137,87)" height="5px" width="5px" x="76px" y="84px" /><rect fill="rgb(227,200,127)" height="5px" width="5px" x="80px" y="84px" /><rect fill="rgb(232,205,130)" height="5px" width="5px" x="84px" y="84px" /><rect fill="rgb(229,203,128)" height="5px" width="5px" x="88px" y="84px" /><rect fill="rgb(223,197,125)" height="5px" width="5px" x="92px" y="84px" /><rect fill="rgb(206,182,115)" height="5px" width="5px" x="96px" y="84px" /><rect fill="rgb(158,140,89)" height="5px" width="5px" x="100px" y="84px" /><rect fill="rgb(116,102,65)" height="5px" width="5px" x="104px" y="84px" /><rect fill="rgb(110,97,62)" height="5px" width="5px" x="108px" y="84px" /><rect fill="rgb(238,210,133)" height="5px" width="5px" x="112px" y="84px" /><rect fill="rgb(255,226,143)" height="5px" width="5px" x="48px" y="88px" /><rect fill="rgb(206,182,115)" height="5px" width="5px" x="52px" y="88px" /><rect fill="rgb(94,83,53)" height="5px" width="5px" x="56px" y="88px" /><rect fill="rgb(134,118,75)" height="5px" width="5px" x="60px" y="88px" /><rect fill="rgb(130,115,73)" height="5px" width="5px" x="64px" y="88px" /><rect fill="rgb(209,185,117)" height="5px" width="5px" x="68px" y="88px" /><rect fill="rgb(232,205,130)" height="5px" width="5px" x="72px" y="88px" /><rect fill="rgb(231,204,129)" height="5px" width="5px" x="76px" y="88px" /><rect fill="rgb(232,205,130)" height="5px" width="5px" x="80px" y="88px" /><rect fill="rgb(232,205,130)" height="5px" width="5px" x="84px" y="88px" /><rect fill="rgb(175,154,98)" height="5px" width="5px" x="88px" y="88px" /><rect fill="rgb(133,117,74)" height="5px" width="5px" x="92px" y="88px" /><rect fill="rgb(149,132,84)" height="5px" width="5px" x="96px" y="88px" /><rect fill="rgb(144,127,81)" height="5px" width="5px" x="100px" y="88px" /><rect fill="rgb(119,105,67)" height="5px" width="5px" x="104px" y="88px" /><rect fill="rgb(133,117,74)" height="5px" width="5px" x="108px" y="88px" /><rect fill="rgb(232,205,130)" height="5px" width="5px" x="112px" y="88px" /><rect fill="rgb(227,202,128)" height="5px" width="5px" x="116px" y="88px" /><rect fill="rgb(255,226,143)" height="5px" width="5px" x="44px" y="92px" /><rect fill="rgb(232,205,130)" height="5px" width="5px" x="48px" y="92px" /><rect fill="rgb(232,205,130)" height="5px" width="5px" x="52px" y="92px" /><rect fill="rgb(210,186,118)" height="5px" width="5px" x="56px" y="92px" /><rect fill="rgb(198,175,111)" height="5px" width="5px" x="60px" y="92px" /><rect fill="rgb(215,190,120)" height="5px" width="5px" x="64px" y="92px" /><rect fill="rgb(232,205,130)" height="5px" width="5px" x="68px" y="92px" /><rect fill="rgb(232,205,130)" height="5px" width="5px" x="72px" y="92px" /><rect fill="rgb(232,205,130)" height="5px" width="5px" x="76px" y="92px" /><rect fill="rgb(231,204,129)" height="5px" width="5px" x="80px" y="92px" /><rect fill="rgb(224,198,125)" height="5px" width="5px" x="84px" y="92px" /><rect fill="rgb(168,149,94)" height="5px" width="5px" x="88px" y="92px" /><rect fill="rgb(101,89,57)" height="5px" width="5px" x="92px" y="92px" /><rect fill="rgb(96,85,54)" height="5px" width="5px" x="96px" y="92px" /><rect fill="rgb(108,96,61)" height="5px" width="5px" x="100px" y="92px" /><rect fill="rgb(123,109,69)" height="5px" width="5px" x="104px" y="92px" /><rect fill="rgb(88,78,49)" height="5px" width="5px" x="108px" y="92px" /><rect fill="rgb(232,205,130)" height="5px" width="5px" x="112px" y="92px" /><rect fill="rgb(227,202,128)" height="5px" width="5px" x="116px" y="92px" /><rect fill="rgb(255,226,143)" height="5px" width="5px" x="44px" y="96px" /><rect fill="rgb(232,205,130)" height="5px" width="5px" x="48px" y="96px" /><rect fill="rgb(232,205,130)" height="5px" width="5px" x="52px" y="96px" /><rect fill="rgb(232,205,130)" height="5px" width="5px" x="56px" y="96px" /><rect fill="rgb(232,205,130)" height="5px" width="5px" x="60px" y="96px" /><rect fill="rgb(232,205,130)" height="5px" width="5px" x="64px" y="96px" /><rect fill="rgb(232,205,130)" height="5px" width="5px" x="68px" y="96px" /><rect fill="rgb(232,205,130)" height="5px" width="5px" x="72px" y="96px" /><rect fill="rgb(232,205,130)" height="5px" width="5px" x="76px" y="96px" /><rect fill="rgb(197,174,111)" height="5px" width="5px" x="80px" y="96px" /><rect fill="rgb(204,180,114)" height="5px" width="5px" x="84px" y="96px" /><rect fill="rgb(208,184,117)" height="5px" width="5px" x="88px" y="96px" /><rect fill="rgb(153,135,86)" height="5px" width="5px" x="92px" y="96px" /><rect fill="rgb(76,67,42)" height="5px" width="5px" x="96px" y="96px" /><rect fill="rgb(85,75,47)" height="5px" width="5px" x="100px" y="96px" /><rect fill="rgb(151,133,85)" height="5px" width="5px" x="104px" y="96px" /><rect fill="rgb(128,113,72)" height="5px" width="5px" x="108px" y="96px" /><rect fill="rgb(232,205,130)" height="5px" width="5px" x="112px" y="96px" /><rect fill="rgb(227,202,128)" height="5px" width="5px" x="116px" y="96px" /><rect fill="rgb(255,226,143)" height="5px" width="5px" x="44px" y="100px" /><rect fill="rgb(232,205,130)" height="5px" width="5px" x="48px" y="100px" /><rect fill="rgb(232,205,130)" height="5px" width="5px" x="52px" y="100px" /><rect fill="rgb(232,205,130)" height="5px" width="5px" x="56px" y="100px" /><rect fill="rgb(232,205,130)" height="5px" width="5px" x="60px" y="100px" /><rect fill="rgb(232,205,130)" height="5px" width="5px" x="64px" y="100px" /><rect fill="rgb(232,205,130)" height="5px" width="5px" x="68px" y="100px" /><rect fill="rgb(230,203,129)" height="5px" width="5px" x="72px" y="100px" /><rect fill="rgb(222,196,124)" height="5px" width="5px" x="76px" y="100px" /><rect fill="rgb(156,137,87)" height="5px" width="5px" x="80px" y="100px" /><rect fill="rgb(142,125,80)" height="5px" width="5px" x="84px" y="100px" /><rect fill="rgb(187,166,105)" height="5px" width="5px" x="88px" y="100px" /><rect fill="rgb(204,180,114)" height="5px" width="5px" x="92px" y="100px" /><rect fill="rgb(167,148,94)" height="5px" width="5px" x="96px" y="100px" /><rect fill="rgb(81,72,45)" height="5px" width="5px" x="100px" y="100px" /><rect fill="rgb(100,88,56)" height="5px" width="5px" x="104px" y="100px" /><rect fill="rgb(177,156,99)" height="5px" width="5px" x="108px" y="100px" /><rect fill="rgb(232,205,130)" height="5px" width="5px" x="112px" y="100px" /><rect fill="rgb(204,181,115)" height="5px" width="5px" x="116px" y="100px" /><rect fill="rgb(191,170,108)" height="5px" width="5px" x="20px" y="104px" /><rect fill="rgb(191,170,108)" height="5px" width="5px" x="24px" y="104px" /><rect fill="rgb(191,170,108)" height="5px" width="5px" x="28px" y="104px" /><rect fill="rgb(191,170,108)" height="5px" width="5px" x="32px" y="104px" /><rect fill="rgb(191,170,108)" height="5px" width="5px" x="36px" y="104px" /><rect fill="rgb(255,226,143)" height="5px" width="5px" x="40px" y="104px" /><rect fill="rgb(255,226,143)" height="5px" width="5px" x="44px" y="104px" /><rect fill="rgb(232,205,130)" height="5px" width="5px" x="48px" y="104px" /><rect fill="rgb(232,205,130)" height="5px" width="5px" x="52px" y="104px" /><rect fill="rgb(232,205,130)" height="5px" width="5px" x="56px" y="104px" /><rect fill="rgb(232,205,130)" height="5px" width="5px" x="60px" y="104px" /><rect fill="rgb(232,205,130)" height="5px" width="5px" x="64px" y="104px" /><rect fill="rgb(223,197,125)" height="5px" width="5px" x="68px" y="104px" /><rect fill="rgb(199,176,112)" height="5px" width="5px" x="72px" y="104px" /><rect fill="rgb(212,187,119)" height="5px" width="5px" x="76px" y="104px" /><rect fill="rgb(175,154,98)" height="5px" width="5px" x="80px" y="104px" /><rect fill="rgb(108,96,61)" height="5px" width="5px" x="84px" y="104px" /><rect fill="rgb(117,104,66)" height="5px" width="5px" x="88px" y="104px" /><rect fill="rgb(194,171,109)" height="5px" width="5px" x="92px" y="104px" /><rect fill="rgb(205,181,115)" height="5px" width="5px" x="96px" y="104px" /><rect fill="rgb(120,106,67)" height="5px" width="5px" x="100px" y="104px" /><rect fill="rgb(155,137,87)" height="5px" width="5px" x="104px" y="104px" /><rect fill="rgb(217,191,121)" height="5px" width="5px" x="108px" y="104px" /><rect fill="rgb(232,205,130)" height="5px" width="5px" x="112px" y="104px" /><rect fill="rgb(204,181,115)" height="5px" width="5px" x="116px" y="104px" /><rect fill="rgb(204,181,115)" height="5px" width="5px" x="20px" y="108px" /><rect fill="rgb(204,181,115)" height="5px" width="5px" x="24px" y="108px" /><rect fill="rgb(204,181,115)" height="5px" width="5px" x="28px" y="108px" /><rect fill="rgb(204,181,115)" height="5px" width="5px" x="32px" y="108px" /><rect fill="rgb(204,181,115)" height="5px" width="5px" x="36px" y="108px" /><rect fill="rgb(255,226,143)" height="5px" width="5px" x="40px" y="108px" /><rect fill="rgb(232,205,130)" height="5px" width="5px" x="44px" y="108px" /><rect fill="rgb(232,205,130)" height="5px" width="5px" x="48px" y="108px" /><rect fill="rgb(232,205,130)" height="5px" width="5px" x="52px" y="108px" /><rect fill="rgb(232,205,130)" height="5px" width="5px" x="56px" y="108px" /><rect fill="rgb(232,205,130)" height="5px" width="5px" x="60px" y="108px" /><rect fill="rgb(226,199,126)" height="5px" width="5px" x="64px" y="108px" /><rect fill="rgb(195,172,109)" height="5px" width="5px" x="68px" y="108px" /><rect fill="rgb(130,115,73)" height="5px" width="5px" x="72px" y="108px" /><rect fill="rgb(126,111,70)" height="5px" width="5px" x="76px" y="108px" /><rect fill="rgb(189,167,106)" height="5px" width="5px" x="80px" y="108px" /><rect fill="rgb(190,168,107)" height="5px" width="5px" x="84px" y="108px" /><rect fill="rgb(100,88,56)" height="5px" width="5px" x="88px" y="108px" /><rect fill="rgb(106,94,60)" height="5px" width="5px" x="92px" y="108px" /><rect fill="rgb(155,137,87)" height="5px" width="5px" x="96px" y="108px" /><rect fill="rgb(189,167,106)" height="5px" width="5px" x="100px" y="108px" /><rect fill="rgb(215,190,120)" height="5px" width="5px" x="104px" y="108px" /><rect fill="rgb(231,204,129)" height="5px" width="5px" x="108px" y="108px" /><rect fill="rgb(232,205,130)" height="5px" width="5px" x="112px" y="108px" /><rect fill="rgb(204,181,115)" height="5px" width="5px" x="116px" y="108px" /><rect fill="rgb(204,181,115)" height="5px" width="5px" x="20px" y="112px" /><rect fill="rgb(204,181,115)" height="5px" width="5px" x="24px" y="112px" /><rect fill="rgb(204,181,115)" height="5px" width="5px" x="28px" y="112px" /><rect fill="rgb(204,181,115)" height="5px" width="5px" x="32px" y="112px" /><rect fill="rgb(204,181,115)" height="5px" width="5px" x="36px" y="112px" /><rect fill="rgb(255,226,143)" height="5px" width="5px" x="40px" y="112px" /><rect fill="rgb(232,205,130)" height="5px" width="5px" x="44px" y="112px" /><rect fill="rgb(232,205,130)" height="5px" width="5px" x="48px" y="112px" /><rect fill="rgb(232,205,130)" height="5px" width="5px" x="52px" y="112px" /><rect fill="rgb(232,205,130)" height="5px" width="5px" x="56px" y="112px" /><rect fill="rgb(232,205,130)" height="5px" width="5px" x="60px" y="112px" /><rect fill="rgb(218,193,122)" height="5px" width="5px" x="64px" y="112px" /><rect fill="rgb(156,137,87)" height="5px" width="5px" x="68px" y="112px" /><rect fill="rgb(111,98,62)" height="5px" width="5px" x="72px" y="112px" /><rect fill="rgb(86,76,48)" height="5px" width="5px" x="76px" y="112px" /><rect fill="rgb(145,128,81)" height="5px" width="5px" x="80px" y="112px" /><rect fill="rgb(200,177,112)" height="5px" width="5px" x="84px" y="112px" /><rect fill="rgb(106,93,59)" height="5px" width="5px" x="88px" y="112px" /><rect fill="rgb(57,51,32)" height="5px" width="5px" x="92px" y="112px" /><rect fill="rgb(189,167,106)" height="5px" width="5px" x="96px" y="112px" /><rect fill="rgb(224,198,125)" height="5px" width="5px" x="100px" y="112px" /><rect fill="rgb(232,205,130)" height="5px" width="5px" x="104px" y="112px" /><rect fill="rgb(232,205,130)" height="5px" width="5px" x="108px" y="112px" /><rect fill="rgb(204,181,115)" height="5px" width="5px" x="112px" y="112px" /><rect fill="rgb(204,181,115)" height="5px" width="5px" x="116px" y="112px" /><rect fill="rgb(215,190,120)" height="5px" width="5px" x="20px" y="116px" /><rect fill="rgb(215,190,120)" height="5px" width="5px" x="24px" y="116px" /><rect fill="rgb(215,190,120)" height="5px" width="5px" x="28px" y="116px" /><rect fill="rgb(215,190,120)" height="5px" width="5px" x="32px" y="116px" /><rect fill="rgb(255,226,143)" height="5px" width="5px" x="36px" y="116px" /><rect fill="rgb(255,226,143)" height="5px" width="5px" x="40px" y="116px" /><rect fill="rgb(232,205,130)" height="5px" width="5px" x="44px" y="116px" /><rect fill="rgb(232,205,130)" height="5px" width="5px" x="48px" y="116px" /><rect fill="rgb(232,205,130)" height="5px" width="5px" x="52px" y="116px" /><rect fill="rgb(232,205,130)" height="5px" width="5px" x="56px" y="116px" /><rect fill="rgb(232,205,130)" height="5px" width="5px" x="60px" y="116px" /><rect fill="rgb(228,202,128)" height="5px" width="5px" x="64px" y="116px" /><rect fill="rgb(150,133,84)" height="5px" width="5px" x="68px" y="116px" /><rect fill="rgb(55,48,31)" height="5px" width="5px" x="72px" y="116px" /><rect fill="rgb(70,62,39)" height="5px" width="5px" x="76px" y="116px" /><rect fill="rgb(96,84,54)" height="5px" width="5px" x="80px" y="116px" /><rect fill="rgb(148,131,83)" height="5px" width="5px" x="84px" y="116px" /><rect fill="rgb(163,144,91)" height="5px" width="5px" x="88px" y="116px" /><rect fill="rgb(180,159,101)" height="5px" width="5px" x="92px" y="116px" /><rect fill="rgb(220,195,123)" height="5px" width="5px" x="96px" y="116px" /><rect fill="rgb(232,205,130)" height="5px" width="5px" x="100px" y="116px" /><rect fill="rgb(232,205,130)" height="5px" width="5px" x="104px" y="116px" /><rect fill="rgb(232,205,130)" height="5px" width="5px" x="108px" y="116px" /><rect fill="rgb(204,181,115)" height="5px" width="5px" x="112px" y="116px" /><rect fill="rgb(215,190,120)" height="5px" width="5px" x="24px" y="120px" /><rect fill="rgb(238,210,133)" height="5px" width="5px" x="28px" y="120px" /><rect fill="rgb(238,210,133)" height="5px" width="5px" x="32px" y="120px" /><rect fill="rgb(255,226,143)" height="5px" width="5px" x="36px" y="120px" /><rect fill="rgb(232,205,130)" height="5px" width="5px" x="40px" y="120px" /><rect fill="rgb(232,205,130)" height="5px" width="5px" x="44px" y="120px" /><rect fill="rgb(232,205,130)" height="5px" width="5px" x="48px" y="120px" /><rect fill="rgb(232,205,130)" height="5px" width="5px" x="52px" y="120px" /><rect fill="rgb(232,205,130)" height="5px" width="5px" x="56px" y="120px" /><rect fill="rgb(232,205,130)" height="5px" width="5px" x="60px" y="120px" /><rect fill="rgb(230,203,129)" height="5px" width="5px" x="64px" y="120px" /><rect fill="rgb(208,184,117)" height="5px" width="5px" x="68px" y="120px" /><rect fill="rgb(177,157,99)" height="5px" width="5px" x="72px" y="120px" /><rect fill="rgb(164,145,92)" height="5px" width="5px" x="76px" y="120px" /><rect fill="rgb(126,112,71)" height="5px" width="5px" x="80px" y="120px" /><rect fill="rgb(156,138,88)" height="5px" width="5px" x="84px" y="120px" /><rect fill="rgb(207,182,116)" height="5px" width="5px" x="88px" y="120px" /><rect fill="rgb(226,199,126)" height="5px" width="5px" x="92px" y="120px" /><rect fill="rgb(230,203,129)" height="5px" width="5px" x="96px" y="120px" /><rect fill="rgb(232,205,130)" height="5px" width="5px" x="100px" y="120px" /><rect fill="rgb(232,205,130)" height="5px" width="5px" x="104px" y="120px" /><rect fill="rgb(204,181,115)" height="5px" width="5px" x="108px" y="120px" /><rect fill="rgb(204,181,115)" height="5px" width="5px" x="112px" y="120px" /><rect fill="rgb(238,210,133)" height="5px" width="5px" x="28px" y="124px" /><rect fill="rgb(238,210,133)" height="5px" width="5px" x="32px" y="124px" /><rect fill="rgb(255,226,143)" height="5px" width="5px" x="36px" y="124px" /><rect fill="rgb(255,226,143)" height="5px" width="5px" x="40px" y="124px" /><rect fill="rgb(255,226,143)" height="5px" width="5px" x="44px" y="124px" /><rect fill="rgb(255,226,143)" height="5px" width="5px" x="48px" y="124px" /><rect fill="rgb(255,226,143)" height="5px" width="5px" x="52px" y="124px" /><rect fill="rgb(255,226,143)" height="5px" width="5px" x="56px" y="124px" /><rect fill="rgb(255,226,143)" height="5px" width="5px" x="60px" y="124px" /><rect fill="rgb(255,226,143)" height="5px" width="5px" x="64px" y="124px" /><rect fill="rgb(255,226,143)" height="5px" width="5px" x="68px" y="124px" /><rect fill="rgb(251,222,141)" height="5px" width="5px" x="72px" y="124px" /><rect fill="rgb(248,220,139)" height="5px" width="5px" x="76px" y="124px" /><rect fill="rgb(250,222,140)" height="5px" width="5px" x="80px" y="124px" /><rect fill="rgb(237,210,133)" height="5px" width="5px" x="84px" y="124px" /><rect fill="rgb(238,210,133)" height="5px" width="5px" x="88px" y="124px" /><rect fill="rgb(238,210,133)" height="5px" width="5px" x="92px" y="124px" /><rect fill="rgb(238,210,133)" height="5px" width="5px" x="96px" y="124px" /><rect fill="rgb(238,210,133)" height="5px" width="5px" x="100px" y="124px" /><rect fill="rgb(227,202,128)" height="5px" width="5px" x="104px" y="124px" /><rect fill="rgb(204,181,115)" height="5px" width="5px" x="108px" y="124px" /></svg>