<?xml version="1.0" encoding="utf-8" ?>
<svg baseProfile="full" height="128px" version="1.1" width="128px" xmlns="http://www.w3.org/2000/svg" xmlns:ev="http://www.w3.org/2001/xml-events" xmlns:xlink="http://www.w3.org/1999/xlink"><defs /><rect fill="rgb(55,55,55)" height="5px" width="5px" x="8px" y="16px" /><rect fill="rgb(55,55,55)" height="5px" width="5px" x="12px" y="16px" /><rect fill="rgb(55,55,55)" height="5px" width="5px" x="16px" y="16px" /><rect fill="rgb(55,55,55)" height="5px" width="5px" x="24px" y="16px" /><rect fill="rgb(55,55,55)" height="5px" width="5px" x="28px" y="16px" /><rect fill="rgb(55,55,55)" height="5px" width="5px" x="32px" y="16px" /><rect fill="rgb(55,55,55)" height="5px" width="5px" x="40px" y="16px" /><rect fill="rgb(55,55,55)" height="5px" width="5px" x="44px" y="16px" /><rect fill="rgb(55,55,55)" height="5px" width="5px" x="48px" y="16px" /><rect fill="rgb(55,55,55)" height="5px" width="5px" x="76px" y="16px" /><rect fill="rgb(55,55,55)" height="5px" width="5px" x="80px" y="16px" /><rect fill="rgb(55,55,55)" height="5px" width="5px" x="84px" y="16px" /><rect fill="rgb(55,55,55)" height="5px" width="5px" x="92px" y="16px" /><rect fill="rgb(55,55,55)" height="5px" width="5px" x="96px" y="16px" /><rect fill="rgb(55,55,55)" height="5px" width="5px" x="100px" y="16px" /><rect fill="rgb(55,55,55)" height="5px" width="5px" x="108px" y="16px" /><rect fill="rgb(55,55,55)" height="5px" width="5px" x="112px" y="16px" /><rect fill="rgb(55,55,55)" height="5px" width="5px" x="116px" y="16px" /><rect fill="rgb(55,55,55)" height="5px" width="5px" x="8px" y="20px" /><rect fill="rgb(109,109,109)" height="5px" width="5px" x="12px" y="20px" /><rect fill="rgb(55,55,55)" height="5px" width="5px" x="16px" y="20px" /><rect fill="rgb(55,55,55)" height="5px" width="5px" x="24px" y="20px" /><rect fill="rgb(109,109,109)" height="5px" width="5px" x="28px" y="20px" /><rect fill="rgb(55,55,55)" height="5px" width="5px" x="32px" y="20px" /><rect fill="rgb(55,55,55)" height="5px" width="5px" x="40px" y="20px" /><rect fill="rgb(109,109,109)" height="5px" width="5px" x="44px" y="20px" /><rect fill="rgb(55,55,55)" height="5px" width="5px" x="48px" y="20px" /><rect fill="rgb(55,55,55)" height="5px" width="5px" x="76px" y="20px" /><rect fill="rgb(109,109,109)" height="5px" width="5px" x="80px" y="20px" /><rect fill="rgb(55,55,55)" height="5px" width="5px" x="84px" y="20px" /><rect fill="rgb(55,55,55)" height="5px" width="5px" x="92px" y="20px" /><rect fill="rgb(109,109,109)" height="5px" width="5px" x="96px" y="20px" /><rect fill="rgb(55,55,55)" height="5px" width="5px" x="100px" y="20px" /><rect fill="rgb(55,55,55)" height="5px" width="5px" x="108px" y="20px" /><rect fill="rgb(109,109,109)" height="5px" width="5px" x="112px" y="20px" /><rect fill="rgb(55,55,55)" height="5px" width="5px" x="116px" y="20px" /><rect fill="rgb(55,55,55)" height="5px" width="5px" x="8px" y="24px" /><rect fill="rgb(109,109,109)" height="5px" width="5px" x="12px" y="24px" /><rect fill="rgb(55,55,55)" height="5px" width="5px" x="16px" y="24px" /><rect fill="rgb(55,55,55)" height="5px" width="5px" x="20px" y="24px" /><rect fill="rgb(55,55,55)" height="5px" width="5px" x="24px" y="24px" /><rect fill="rgb(109,109,109)" height="5px" width="5px" x="28px" y="24px" /><rect fill="rgb(55,55,55)" height="5px" width="5px" x="32px" y="24px" /><rect fill="rgb(55,55,55)" height="5px" width="5px" x="36px" y="24px" /><rect fill="rgb(55,55,55)" height="5px" width="5px" x="40px" y="24px" /><rect fill="rgb(109,109,109)" height="5px" width="5px" x="44px" y="24px" /><rect fill="rgb(55,55,55)" height="5px" width="5px" x="48px" y="24px" /><rect fill="rgb(55,55,55)" height="5px" width="5px" x="76px" y="24px" /><rect fill="rgb(109,109,109)" height="5px" width="5px" x="80px" y="24px" /><rect fill="rgb(55,55,55)" height="5px" width="5px" x="84px" y="24px" /><rect fill="rgb(55,55,55)" height="5px" width="5px" x="88px" y="24px" /><rect fill="rgb(55,55,55)" height="5px" width="5px" x="92px" y="24px" /><rect fill="rgb(109,109,109)" height="5px" width="5px" x="96px" y="24px" /><rect fill="rgb(55,55,55)" height="5px" width="5px" x="100px" y="24px" /><rect fill="rgb(55,55,55)" height="5px" width="5px" x="104px" y="24px" /><rect fill="rgb(55,55,55)" height="5px" width="5px" x="108px" y="24px" /><rect fill="rgb(109,109,109)" height="5px" width="5px" x="112px" y="24px" /><rect fill="rgb(55,55,55)" height="5px" width="5px" x="116px" y="24px" /><rect fill="rgb(55,55,55)" height="5px" width="5px" x="8px" y="28px" /><rect fill="rgb(109,109,109)" height="5px" width="5px" x="12px" y="28px" /><rect fill="rgb(107,107,107)" height="5px" width="5px" x="16px" y="28px" /><rect fill="rgb(105,105,105)" height="5px" width="5px" x="20px" y="28px" /><rect fill="rgb(106,106,106)" height="5px" width="5px" x="24px" y="28px" /><rect fill="rgb(109,109,109)" height="5px" width="5px" x="28px" y="28px" /><rect fill="rgb(109,109,109)" height="5px" width="5px" x="32px" y="28px" /><rect fill="rgb(109,109,109)" height="5px" width="5px" x="36px" y="28px" /><rect fill="rgb(107,107,107)" height="5px" width="5px" x="40px" y="28px" /><rect fill="rgb(106,106,106)" height="5px" width="5px" x="44px" y="28px" /><rect fill="rgb(55,55,55)" height="5px" width="5px" x="48px" y="28px" /><rect fill="rgb(55,55,55)" height="5px" width="5px" x="76px" y="28px" /><rect fill="rgb(109,109,109)" height="5px" width="5px" x="80px" y="28px" /><rect fill="rgb(107,107,107)" height="5px" width="5px" x="84px" y="28px" /><rect fill="rgb(105,105,105)" height="5px" width="5px" x="88px" y="28px" /><rect fill="rgb(106,106,106)" height="5px" width="5px" x="92px" y="28px" /><rect fill="rgb(109,109,109)" height="5px" width="5px" x="96px" y="28px" /><rect fill="rgb(109,109,109)" height="5px" width="5px" x="100px" y="28px" /><rect fill="rgb(109,109,109)" height="5px" width="5px" x="104px" y="28px" /><rect fill="rgb(107,107,107)" height="5px" width="5px" x="108px" y="28px" /><rect fill="rgb(106,106,106)" height="5px" width="5px" x="112px" y="28px" /><rect fill="rgb(55,55,55)" height="5px" width="5px" x="116px" y="28px" /><rect fill="rgb(55,55,55)" height="5px" width="5px" x="8px" y="32px" /><rect fill="rgb(109,109,109)" height="5px" width="5px" x="12px" y="32px" /><rect fill="rgb(109,109,109)" height="5px" width="5px" x="16px" y="32px" /><rect fill="rgb(109,109,109)" height="5px" width="5px" x="20px" y="32px" /><rect fill="rgb(108,108,108)" height="5px" width="5px" x="24px" y="32px" /><rect fill="rgb(107,107,107)" height="5px" width="5px" x="28px" y="32px" /><rect fill="rgb(107,107,107)" height="5px" width="5px" x="32px" y="32px" /><rect fill="rgb(109,109,109)" height="5px" width="5px" x="36px" y="32px" /><rect fill="rgb(109,109,109)" height="5px" width="5px" x="40px" y="32px" /><rect fill="rgb(109,109,109)" height="5px" width="5px" x="44px" y="32px" /><rect fill="rgb(55,55,55)" height="5px" width="5px" x="48px" y="32px" /><rect fill="rgb(55,55,55)" height="5px" width="5px" x="76px" y="32px" /><rect fill="rgb(109,109,109)" height="5px" width="5px" x="80px" y="32px" /><rect fill="rgb(109,109,109)" height="5px" width="5px" x="84px" y="32px" /><rect fill="rgb(108,108,108)" height="5px" width="5px" x="88px" y="32px" /><rect fill="rgb(107,107,107)" height="5px" width="5px" x="92px" y="32px" /><rect fill="rgb(108,108,108)" height="5px" width="5px" x="96px" y="32px" /><rect fill="rgb(108,108,108)" height="5px" width="5px" x="100px" y="32px" /><rect fill="rgb(94,94,94)" height="5px" width="5px" x="104px" y="32px" /><rect fill="rgb(90,90,90)" height="5px" width="5px" x="108px" y="32px" /><rect fill="rgb(109,109,109)" height="5px" width="5px" x="112px" y="32px" /><rect fill="rgb(55,55,55)" height="5px" width="5px" x="116px" y="32px" /><rect fill="rgb(55,55,55)" height="5px" width="5px" x="8px" y="36px" /><rect fill="rgb(109,109,109)" height="5px" width="5px" x="12px" y="36px" /><rect fill="rgb(109,109,109)" height="5px" width="5px" x="16px" y="36px" /><rect fill="rgb(104,104,104)" height="5px" width="5px" x="20px" y="36px" /><rect fill="rgb(104,104,104)" height="5px" width="5px" x="24px" y="36px" /><rect fill="rgb(105,105,105)" height="5px" width="5px" x="28px" y="36px" /><rect fill="rgb(106,106,106)" height="5px" width="5px" x="32px" y="36px" /><rect fill="rgb(109,109,109)" height="5px" width="5px" x="36px" y="36px" /><rect fill="rgb(109,109,109)" height="5px" width="5px" x="40px" y="36px" /><rect fill="rgb(109,109,109)" height="5px" width="5px" x="44px" y="36px" /><rect fill="rgb(55,55,55)" height="5px" width="5px" x="48px" y="36px" /><rect fill="rgb(55,55,55)" height="5px" width="5px" x="76px" y="36px" /><rect fill="rgb(109,109,109)" height="5px" width="5px" x="80px" y="36px" /><rect fill="rgb(86,86,86)" height="5px" width="5px" x="84px" y="36px" /><rect fill="rgb(85,85,85)" height="5px" width="5px" x="88px" y="36px" /><rect fill="rgb(105,105,105)" height="5px" width="5px" x="92px" y="36px" /><rect fill="rgb(108,108,108)" height="5px" width="5px" x="96px" y="36px" /><rect fill="rgb(108,108,108)" height="5px" width="5px" x="100px" y="36px" /><rect fill="rgb(108,108,108)" height="5px" width="5px" x="104px" y="36px" /><rect fill="rgb(109,109,109)" height="5px" width="5px" x="108px" y="36px" /><rect fill="rgb(109,109,109)" height="5px" width="5px" x="112px" y="36px" /><rect fill="rgb(55,55,55)" height="5px" width="5px" x="116px" y="36px" /><rect fill="rgb(55,55,55)" height="5px" width="5px" x="8px" y="40px" /><rect fill="rgb(109,109,109)" height="5px" width="5px" x="12px" y="40px" /><rect fill="rgb(109,109,109)" height="5px" width="5px" x="16px" y="40px" /><rect fill="rgb(88,88,88)" height="5px" width="5px" x="20px" y="40px" /><rect fill="rgb(90,90,90)" height="5px" width="5px" x="24px" y="40px" /><rect fill="rgb(106,106,106)" height="5px" width="5px" x="28px" y="40px" /><rect fill="rgb(106,106,106)" height="5px" width="5px" x="32px" y="40px" /><rect fill="rgb(106,106,106)" height="5px" width="5px" x="36px" y="40px" /><rect fill="rgb(106,106,106)" height="5px" width="5px" x="40px" y="40px" /><rect fill="rgb(107,107,107)" height="5px" width="5px" x="44px" y="40px" /><rect fill="rgb(55,55,55)" height="5px" width="5px" x="48px" y="40px" /><rect fill="rgb(55,55,55)" height="5px" width="5px" x="76px" y="40px" /><rect fill="rgb(109,109,109)" height="5px" width="5px" x="80px" y="40px" /><rect fill="rgb(108,108,108)" height="5px" width="5px" x="84px" y="40px" /><rect fill="rgb(102,102,102)" height="5px" width="5px" x="88px" y="40px" /><rect fill="rgb(107,107,107)" height="5px" width="5px" x="92px" y="40px" /><rect fill="rgb(108,108,108)" height="5px" width="5px" x="96px" y="40px" /><rect fill="rgb(107,107,107)" height="5px" width="5px" x="100px" y="40px" /><rect fill="rgb(106,106,106)" height="5px" width="5px" x="104px" y="40px" /><rect fill="rgb(109,109,109)" height="5px" width="5px" x="108px" y="40px" /><rect fill="rgb(109,109,109)" height="5px" width="5px" x="112px" y="40px" /><rect fill="rgb(55,55,55)" height="5px" width="5px" x="116px" y="40px" /><rect fill="rgb(55,55,55)" height="5px" width="5px" x="8px" y="44px" /><rect fill="rgb(109,109,109)" height="5px" width="5px" x="12px" y="44px" /><rect fill="rgb(107,107,107)" height="5px" width="5px" x="16px" y="44px" /><rect fill="rgb(107,107,107)" height="5px" width="5px" x="20px" y="44px" /><rect fill="rgb(106,106,106)" height="5px" width="5px" x="24px" y="44px" /><rect fill="rgb(108,108,108)" height="5px" width="5px" x="28px" y="44px" /><rect fill="rgb(108,108,108)" height="5px" width="5px" x="32px" y="44px" /><rect fill="rgb(108,108,108)" height="5px" width="5px" x="36px" y="44px" /><rect fill="rgb(107,107,107)" height="5px" width="5px" x="40px" y="44px" /><rect fill="rgb(108,108,108)" height="5px" width="5px" x="44px" y="44px" /><rect fill="rgb(55,55,55)" height="5px" width="5px" x="48px" y="44px" /><rect fill="rgb(55,55,55)" height="5px" width="5px" x="76px" y="44px" /><rect fill="rgb(109,109,109)" height="5px" width="5px" x="80px" y="44px" /><rect fill="rgb(109,109,109)" height="5px" width="5px" x="84px" y="44px" /><rect fill="rgb(107,107,107)" height="5px" width="5px" x="88px" y="44px" /><rect fill="rgb(99,99,99)" height="5px" width="5px" x="92px" y="44px" /><rect fill="rgb(103,103,103)" height="5px" width="5px" x="96px" y="44px" /><rect fill="rgb(106,106,106)" height="5px" width="5px" x="100px" y="44px" /><rect fill="rgb(108,108,108)" height="5px" width="5px" x="104px" y="44px" /><rect fill="rgb(109,109,109)" height="5px" width="5px" x="108px" y="44px" /><rect fill="rgb(109,109,109)" height="5px" width="5px" x="112px" y="44px" /><rect fill="rgb(55,55,55)" height="5px" width="5px" x="116px" y="44px" /><rect fill="rgb(55,55,55)" height="5px" width="5px" x="8px" y="48px" /><rect fill="rgb(109,109,109)" height="5px" width="5px" x="12px" y="48px" /><rect fill="rgb(109,109,109)" height="5px" width="5px" x="16px" y="48px" /><rect fill="rgb(107,107,107)" height="5px" width="5px" x="20px" y="48px" /><rect fill="rgb(107,107,107)" height="5px" width="5px" x="24px" y="48px" /><rect fill="rgb(107,107,107)" height="5px" width="5px" x="28px" y="48px" /><rect fill="rgb(107,107,107)" height="5px" width="5px" x="32px" y="48px" /><rect fill="rgb(107,107,107)" height="5px" width="5px" x="36px" y="48px" /><rect fill="rgb(108,108,108)" height="5px" width="5px" x="40px" y="48px" /><rect fill="rgb(108,108,108)" height="5px" width="5px" x="44px" y="48px" /><rect fill="rgb(55,55,55)" height="5px" width="5px" x="48px" y="48px" /><rect fill="rgb(55,55,55)" height="5px" width="5px" x="76px" y="48px" /><rect fill="rgb(109,109,109)" height="5px" width="5px" x="80px" y="48px" /><rect fill="rgb(109,109,109)" height="5px" width="5px" x="84px" y="48px" /><rect fill="rgb(109,109,109)" height="5px" width="5px" x="88px" y="48px" /><rect fill="rgb(87,87,87)" height="5px" width="5px" x="92px" y="48px" /><rect fill="rgb(86,86,86)" height="5px" width="5px" x="96px" y="48px" /><rect fill="rgb(108,108,108)" height="5px" width="5px" x="100px" y="48px" /><rect fill="rgb(108,108,108)" height="5px" width="5px" x="104px" y="48px" /><rect fill="rgb(109,109,109)" height="5px" width="5px" x="108px" y="48px" /><rect fill="rgb(109,109,109)" height="5px" width="5px" x="112px" y="48px" /><rect fill="rgb(55,55,55)" height="5px" width="5px" x="116px" y="48px" /><rect fill="rgb(55,55,55)" height="5px" width="5px" x="8px" y="52px" /><rect fill="rgb(109,109,109)" height="5px" width="5px" x="12px" y="52px" /><rect fill="rgb(109,109,109)" height="5px" width="5px" x="16px" y="52px" /><rect fill="rgb(108,108,108)" height="5px" width="5px" x="20px" y="52px" /><rect fill="rgb(104,104,104)" height="5px" width="5px" x="24px" y="52px" /><rect fill="rgb(106,106,106)" height="5px" width="5px" x="28px" y="52px" /><rect fill="rgb(93,93,93)" height="5px" width="5px" x="32px" y="52px" /><rect fill="rgb(88,88,88)" height="5px" width="5px" x="36px" y="52px" /><rect fill="rgb(109,109,109)" height="5px" width="5px" x="40px" y="52px" /><rect fill="rgb(109,109,109)" height="5px" width="5px" x="44px" y="52px" /><rect fill="rgb(55,55,55)" height="5px" width="5px" x="48px" y="52px" /><rect fill="rgb(55,55,55)" height="5px" width="5px" x="76px" y="52px" /><rect fill="rgb(107,107,107)" height="5px" width="5px" x="80px" y="52px" /><rect fill="rgb(109,109,109)" height="5px" width="5px" x="84px" y="52px" /><rect fill="rgb(109,109,109)" height="5px" width="5px" x="88px" y="52px" /><rect fill="rgb(109,109,109)" height="5px" width="5px" x="92px" y="52px" /><rect fill="rgb(108,108,108)" height="5px" width="5px" x="96px" y="52px" /><rect fill="rgb(107,107,107)" height="5px" width="5px" x="100px" y="52px" /><rect fill="rgb(109,109,109)" height="5px" width="5px" x="104px" y="52px" /><rect fill="rgb(109,109,109)" height="5px" width="5px" x="108px" y="52px" /><rect fill="rgb(108,108,108)" height="5px" width="5px" x="112px" y="52px" /><rect fill="rgb(55,55,55)" height="5px" width="5px" x="116px" y="52px" /><rect fill="rgb(55,55,55)" height="5px" width="5px" x="8px" y="56px" /><rect fill="rgb(109,109,109)" height="5px" width="5px" x="12px" y="56px" /><rect fill="rgb(107,107,107)" height="5px" width="5px" x="16px" y="56px" /><rect fill="rgb(105,105,105)" height="5px" width="5px" x="20px" y="56px" /><rect fill="rgb(105,105,105)" height="5px" width="5px" x="24px" y="56px" /><rect fill="rgb(107,107,107)" height="5px" width="5px" x="28px" y="56px" /><rect fill="rgb(107,107,107)" height="5px" width="5px" x="32px" y="56px" /><rect fill="rgb(109,109,109)" height="5px" width="5px" x="36px" y="56px" /><rect fill="rgb(107,107,107)" height="5px" width="5px" x="40px" y="56px" /><rect fill="rgb(106,106,106)" height="5px" width="5px" x="44px" y="56px" /><rect fill="rgb(55,55,55)" height="5px" width="5px" x="48px" y="56px" /><rect fill="rgb(58,58,58)" height="5px" opacity="0.101960784314" width="5px" x="64px" y="56px" /><rect fill="rgb(54,54,54)" height="5px" opacity="0.129411764706" width="5px" x="68px" y="56px" /><rect fill="rgb(51,51,51)" height="5px" opacity="0.078431372549" width="5px" x="72px" y="56px" /><rect fill="rgb(55,55,55)" height="5px" width="5px" x="76px" y="56px" /><rect fill="rgb(102,102,102)" height="5px" width="5px" x="80px" y="56px" /><rect fill="rgb(109,109,109)" height="5px" width="5px" x="84px" y="56px" /><rect fill="rgb(107,107,107)" height="5px" width="5px" x="88px" y="56px" /><rect fill="rgb(108,108,108)" height="5px" width="5px" x="92px" y="56px" /><rect fill="rgb(106,106,106)" height="5px" width="5px" x="96px" y="56px" /><rect fill="rgb(107,107,107)" height="5px" width="5px" x="100px" y="56px" /><rect fill="rgb(106,106,106)" height="5px" width="5px" x="104px" y="56px" /><rect fill="rgb(109,109,109)" height="5px" width="5px" x="108px" y="56px" /><rect fill="rgb(105,105,105)" height="5px" width="5px" x="112px" y="56px" /><rect fill="rgb(55,55,55)" height="5px" width="5px" x="116px" y="56px" /><rect fill="rgb(55,55,55)" height="5px" width="5px" x="8px" y="60px" /><rect fill="rgb(109,109,109)" height="5px" width="5px" x="12px" y="60px" /><rect fill="rgb(96,96,96)" height="5px" width="5px" x="16px" y="60px" /><rect fill="rgb(99,99,99)" height="5px" width="5px" x="20px" y="60px" /><rect fill="rgb(109,109,109)" height="5px" width="5px" x="24px" y="60px" /><rect fill="rgb(0,0,0)" height="5px" width="5px" x="28px" y="60px" /><rect fill="rgb(109,109,109)" height="5px" width="5px" x="32px" y="60px" /><rect fill="rgb(106,106,106)" height="5px" width="5px" x="36px" y="60px" /><rect fill="rgb(102,102,102)" height="5px" width="5px" x="40px" y="60px" /><rect fill="rgb(100,100,100)" height="5px" width="5px" x="44px" y="60px" /><rect fill="rgb(55,55,55)" height="5px" width="5px" x="48px" y="60px" /><rect fill="rgb(55,55,55)" height="5px" width="5px" x="52px" y="60px" /><rect fill="rgb(55,55,55)" height="5px" width="5px" x="56px" y="60px" /><rect fill="rgb(55,55,55)" height="5px" width="5px" x="64px" y="60px" /><rect fill="rgb(55,55,55)" height="5px" width="5px" x="68px" y="60px" /><rect fill="rgb(55,55,55)" height="5px" width="5px" x="72px" y="60px" /><rect fill="rgb(55,55,55)" height="5px" width="5px" x="76px" y="60px" /><rect fill="rgb(103,103,103)" height="5px" width="5px" x="80px" y="60px" /><rect fill="rgb(105,105,105)" height="5px" width="5px" x="84px" y="60px" /><rect fill="rgb(108,108,108)" height="5px" width="5px" x="88px" y="60px" /><rect fill="rgb(109,109,109)" height="5px" width="5px" x="92px" y="60px" /><rect fill="rgb(0,0,0)" height="5px" width="5px" x="96px" y="60px" /><rect fill="rgb(109,109,109)" height="5px" width="5px" x="100px" y="60px" /><rect fill="rgb(106,106,106)" height="5px" width="5px" x="104px" y="60px" /><rect fill="rgb(107,107,107)" height="5px" width="5px" x="108px" y="60px" /><rect fill="rgb(105,105,105)" height="5px" width="5px" x="112px" y="60px" /><rect fill="rgb(55,55,55)" height="5px" width="5px" x="116px" y="60px" /><rect fill="rgb(55,55,55)" height="5px" width="5px" x="8px" y="64px" /><rect fill="rgb(109,109,109)" height="5px" width="5px" x="12px" y="64px" /><rect fill="rgb(106,106,106)" height="5px" width="5px" x="16px" y="64px" /><rect fill="rgb(107,107,107)" height="5px" width="5px" x="20px" y="64px" /><rect fill="rgb(0,0,0)" height="5px" width="5px" x="24px" y="64px" /><rect fill="rgb(0,0,0)" height="5px" width="5px" x="28px" y="64px" /><rect fill="rgb(17,17,17)" height="5px" width="5px" x="32px" y="64px" /><rect fill="rgb(105,105,105)" height="5px" width="5px" x="36px" y="64px" /><rect fill="rgb(100,100,100)" height="5px" width="5px" x="40px" y="64px" /><rect fill="rgb(105,105,105)" height="5px" width="5px" x="44px" y="64px" /><rect fill="rgb(55,55,55)" height="5px" width="5px" x="48px" y="64px" /><rect fill="rgb(109,109,109)" height="5px" width="5px" x="52px" y="64px" /><rect fill="rgb(55,55,55)" height="5px" width="5px" x="56px" y="64px" /><rect fill="rgb(55,55,55)" height="5px" width="5px" x="64px" y="64px" /><rect fill="rgb(109,109,109)" height="5px" width="5px" x="68px" y="64px" /><rect fill="rgb(109,109,109)" height="5px" width="5px" x="72px" y="64px" /><rect fill="rgb(55,55,55)" height="5px" width="5px" x="76px" y="64px" /><rect fill="rgb(101,101,101)" height="5px" width="5px" x="80px" y="64px" /><rect fill="rgb(107,107,107)" height="5px" width="5px" x="84px" y="64px" /><rect fill="rgb(108,108,108)" height="5px" width="5px" x="88px" y="64px" /><rect fill="rgb(0,0,0)" height="5px" width="5px" x="92px" y="64px" /><rect fill="rgb(0,0,0)" height="5px" width="5px" x="96px" y="64px" /><rect fill="rgb(17,17,17)" height="5px" width="5px" x="100px" y="64px" /><rect fill="rgb(106,106,106)" height="5px" width="5px" x="104px" y="64px" /><rect fill="rgb(107,107,107)" height="5px" width="5px" x="108px" y="64px" /><rect fill="rgb(104,104,104)" height="5px" width="5px" x="112px" y="64px" /><rect fill="rgb(55,55,55)" height="5px" width="5px" x="116px" y="64px" /><rect fill="rgb(55,55,55)" height="5px" width="5px" x="8px" y="68px" /><rect fill="rgb(107,107,107)" height="5px" width="5px" x="12px" y="68px" /><rect fill="rgb(108,108,108)" height="5px" width="5px" x="16px" y="68px" /><rect fill="rgb(109,109,109)" height="5px" width="5px" x="20px" y="68px" /><rect fill="rgb(0,0,0)" height="5px" width="5px" x="24px" y="68px" /><rect fill="rgb(0,0,0)" height="5px" width="5px" x="28px" y="68px" /><rect fill="rgb(0,0,0)" height="5px" width="5px" x="32px" y="68px" /><rect fill="rgb(101,101,101)" height="5px" width="5px" x="36px" y="68px" /><rect fill="rgb(106,106,106)" height="5px" width="5px" x="40px" y="68px" /><rect fill="rgb(108,108,108)" height="5px" width="5px" x="44px" y="68px" /><rect fill="rgb(55,55,55)" height="5px" width="5px" x="48px" y="68px" /><rect fill="rgb(109,109,109)" height="5px" width="5px" x="52px" y="68px" /><rect fill="rgb(55,55,55)" height="5px" width="5px" x="56px" y="68px" /><rect fill="rgb(55,55,55)" height="5px" width="5px" x="64px" y="68px" /><rect fill="rgb(109,109,109)" height="5px" width="5px" x="68px" y="68px" /><rect fill="rgb(109,109,109)" height="5px" width="5px" x="72px" y="68px" /><rect fill="rgb(55,55,55)" height="5px" width="5px" x="76px" y="68px" /><rect fill="rgb(109,109,109)" height="5px" width="5px" x="80px" y="68px" /><rect fill="rgb(109,109,109)" height="5px" width="5px" x="84px" y="68px" /><rect fill="rgb(108,108,108)" height="5px" width="5px" x="88px" y="68px" /><rect fill="rgb(0,0,0)" height="5px" width="5px" x="92px" y="68px" /><rect fill="rgb(0,0,0)" height="5px" width="5px" x="96px" y="68px" /><rect fill="rgb(0,0,0)" height="5px" width="5px" x="100px" y="68px" /><rect fill="rgb(107,107,107)" height="5px" width="5px" x="104px" y="68px" /><rect fill="rgb(105,105,105)" height="5px" width="5px" x="108px" y="68px" /><rect fill="rgb(106,106,106)" height="5px" width="5px" x="112px" y="68px" /><rect fill="rgb(55,55,55)" height="5px" width="5px" x="116px" y="68px" /><rect fill="rgb(55,55,55)" height="5px" width="5px" x="8px" y="72px" /><rect fill="rgb(104,104,104)" height="5px" width="5px" x="12px" y="72px" /><rect fill="rgb(109,109,109)" height="5px" width="5px" x="16px" y="72px" /><rect fill="rgb(0,0,0)" height="5px" width="5px" x="20px" y="72px" /><rect fill="rgb(0,0,0)" height="5px" width="5px" x="24px" y="72px" /><rect fill="rgb(0,0,0)" height="5px" width="5px" x="28px" y="72px" /><rect fill="rgb(0,0,0)" height="5px" width="5px" x="32px" y="72px" /><rect fill="rgb(17,17,17)" height="5px" width="5px" x="36px" y="72px" /><rect fill="rgb(107,107,107)" height="5px" width="5px" x="40px" y="72px" /><rect fill="rgb(105,105,105)" height="5px" width="5px" x="44px" y="72px" /><rect fill="rgb(55,55,55)" height="5px" width="5px" x="48px" y="72px" /><rect fill="rgb(109,109,109)" height="5px" width="5px" x="52px" y="72px" /><rect fill="rgb(55,55,55)" height="5px" width="5px" x="56px" y="72px" /><rect fill="rgb(55,55,55)" height="5px" width="5px" x="60px" y="72px" /><rect fill="rgb(55,55,55)" height="5px" width="5px" x="64px" y="72px" /><rect fill="rgb(108,108,108)" height="5px" width="5px" x="68px" y="72px" /><rect fill="rgb(107,107,107)" height="5px" width="5px" x="72px" y="72px" /><rect fill="rgb(55,55,55)" height="5px" width="5px" x="76px" y="72px" /><rect fill="rgb(107,107,107)" height="5px" width="5px" x="80px" y="72px" /><rect fill="rgb(107,107,107)" height="5px" width="5px" x="84px" y="72px" /><rect fill="rgb(0,0,0)" height="5px" width="5px" x="88px" y="72px" /><rect fill="rgb(0,0,0)" height="5px" width="5px" x="92px" y="72px" /><rect fill="rgb(0,0,0)" height="5px" width="5px" x="96px" y="72px" /><rect fill="rgb(0,0,0)" height="5px" width="5px" x="100px" y="72px" /><rect fill="rgb(18,18,18)" height="5px" width="5px" x="104px" y="72px" /><rect fill="rgb(107,107,107)" height="5px" width="5px" x="108px" y="72px" /><rect fill="rgb(107,107,107)" height="5px" width="5px" x="112px" y="72px" /><rect fill="rgb(55,55,55)" height="5px" width="5px" x="116px" y="72px" /><rect fill="rgb(55,55,55)" height="5px" width="5px" x="8px" y="76px" /><rect fill="rgb(107,107,107)" height="5px" width="5px" x="12px" y="76px" /><rect fill="rgb(105,105,105)" height="5px" width="5px" x="16px" y="76px" /><rect fill="rgb(2,2,2)" height="5px" width="5px" x="20px" y="76px" /><rect fill="rgb(0,0,0)" height="5px" width="5px" x="24px" y="76px" /><rect fill="rgb(0,0,0)" height="5px" width="5px" x="28px" y="76px" /><rect fill="rgb(0,0,0)" height="5px" width="5px" x="32px" y="76px" /><rect fill="rgb(0,0,0)" height="5px" width="5px" x="36px" y="76px" /><rect fill="rgb(107,107,107)" height="5px" width="5px" x="40px" y="76px" /><rect fill="rgb(104,104,104)" height="5px" width="5px" x="44px" y="76px" /><rect fill="rgb(55,55,55)" height="5px" width="5px" x="48px" y="76px" /><rect fill="rgb(109,109,109)" height="5px" width="5px" x="52px" y="76px" /><rect fill="rgb(106,106,106)" height="5px" width="5px" x="56px" y="76px" /><rect fill="rgb(106,106,106)" height="5px" width="5px" x="60px" y="76px" /><rect fill="rgb(107,107,107)" height="5px" width="5px" x="64px" y="76px" /><rect fill="rgb(106,106,106)" height="5px" width="5px" x="68px" y="76px" /><rect fill="rgb(108,108,108)" height="5px" width="5px" x="72px" y="76px" /><rect fill="rgb(55,55,55)" height="5px" width="5px" x="76px" y="76px" /><rect fill="rgb(107,107,107)" height="5px" width="5px" x="80px" y="76px" /><rect fill="rgb(107,107,107)" height="5px" width="5px" x="84px" y="76px" /><rect fill="rgb(0,0,0)" height="5px" width="5px" x="88px" y="76px" /><rect fill="rgb(0,0,0)" height="5px" width="5px" x="92px" y="76px" /><rect fill="rgb(0,0,0)" height="5px" width="5px" x="96px" y="76px" /><rect fill="rgb(0,0,0)" height="5px" width="5px" x="100px" y="76px" /><rect fill="rgb(0,0,0)" height="5px" width="5px" x="104px" y="76px" /><rect fill="rgb(108,108,108)" height="5px" width="5px" x="108px" y="76px" /><rect fill="rgb(107,107,107)" height="5px" width="5px" x="112px" y="76px" /><rect fill="rgb(55,55,55)" height="5px" width="5px" x="116px" y="76px" /><rect fill="rgb(55,55,55)" height="5px" width="5px" x="8px" y="80px" /><rect fill="rgb(107,107,107)" height="5px" width="5px" x="12px" y="80px" /><rect fill="rgb(103,103,103)" height="5px" width="5px" x="16px" y="80px" /><rect fill="rgb(105,105,105)" height="5px" width="5px" x="20px" y="80px" /><rect fill="rgb(109,109,109)" height="5px" width="5px" x="24px" y="80px" /><rect fill="rgb(109,109,109)" height="5px" width="5px" x="28px" y="80px" /><rect fill="rgb(107,107,107)" height="5px" width="5px" x="32px" y="80px" /><rect fill="rgb(103,103,103)" height="5px" width="5px" x="36px" y="80px" /><rect fill="rgb(107,107,107)" height="5px" width="5px" x="40px" y="80px" /><rect fill="rgb(104,104,104)" height="5px" width="5px" x="44px" y="80px" /><rect fill="rgb(55,55,55)" height="5px" width="5px" x="48px" y="80px" /><rect fill="rgb(102,102,102)" height="5px" width="5px" x="52px" y="80px" /><rect fill="rgb(105,105,105)" height="5px" width="5px" x="56px" y="80px" /><rect fill="rgb(106,106,106)" height="5px" width="5px" x="60px" y="80px" /><rect fill="rgb(99,99,99)" height="5px" width="5px" x="64px" y="80px" /><rect fill="rgb(99,99,99)" height="5px" width="5px" x="68px" y="80px" /><rect fill="rgb(102,102,102)" height="5px" width="5px" x="72px" y="80px" /><rect fill="rgb(55,55,55)" height="5px" width="5px" x="76px" y="80px" /><rect fill="rgb(104,104,104)" height="5px" width="5px" x="80px" y="80px" /><rect fill="rgb(102,102,102)" height="5px" width="5px" x="84px" y="80px" /><rect fill="rgb(104,104,104)" height="5px" width="5px" x="88px" y="80px" /><rect fill="rgb(102,102,102)" height="5px" width="5px" x="92px" y="80px" /><rect fill="rgb(107,107,107)" height="5px" width="5px" x="96px" y="80px" /><rect fill="rgb(109,109,109)" height="5px" width="5px" x="100px" y="80px" /><rect fill="rgb(107,107,107)" height="5px" width="5px" x="104px" y="80px" /><rect fill="rgb(104,104,104)" height="5px" width="5px" x="108px" y="80px" /><rect fill="rgb(104,104,104)" height="5px" width="5px" x="112px" y="80px" /><rect fill="rgb(55,55,55)" height="5px" width="5px" x="116px" y="80px" /><rect fill="rgb(55,55,55)" height="5px" width="5px" x="8px" y="84px" /><rect fill="rgb(107,107,107)" height="5px" width="5px" x="12px" y="84px" /><rect fill="rgb(102,102,102)" height="5px" width="5px" x="16px" y="84px" /><rect fill="rgb(106,106,106)" height="5px" width="5px" x="20px" y="84px" /><rect fill="rgb(109,109,109)" height="5px" width="5px" x="24px" y="84px" /><rect fill="rgb(109,109,109)" height="5px" width="5px" x="28px" y="84px" /><rect fill="rgb(106,106,106)" height="5px" width="5px" x="32px" y="84px" /><rect fill="rgb(108,108,108)" height="5px" width="5px" x="36px" y="84px" /><rect fill="rgb(106,106,106)" height="5px" width="5px" x="40px" y="84px" /><rect fill="rgb(104,104,104)" height="5px" width="5px" x="44px" y="84px" /><rect fill="rgb(55,55,55)" height="5px" width="5px" x="48px" y="84px" /><rect fill="rgb(105,105,105)" height="5px" width="5px" x="52px" y="84px" /><rect fill="rgb(103,103,103)" height="5px" width="5px" x="56px" y="84px" /><rect fill="rgb(96,96,96)" height="5px" width="5px" x="60px" y="84px" /><rect fill="rgb(67,67,67)" height="5px" width="5px" x="64px" y="84px" /><rect fill="rgb(62,62,62)" height="5px" width="5px" x="68px" y="84px" /><rect fill="rgb(102,102,102)" height="5px" width="5px" x="72px" y="84px" /><rect fill="rgb(55,55,55)" height="5px" width="5px" x="76px" y="84px" /><rect fill="rgb(103,103,103)" height="5px" width="5px" x="80px" y="84px" /><rect fill="rgb(97,97,97)" height="5px" width="5px" x="84px" y="84px" /><rect fill="rgb(105,105,105)" height="5px" width="5px" x="88px" y="84px" /><rect fill="rgb(106,106,106)" height="5px" width="5px" x="92px" y="84px" /><rect fill="rgb(103,103,103)" height="5px" width="5px" x="96px" y="84px" /><rect fill="rgb(103,103,103)" height="5px" width="5px" x="100px" y="84px" /><rect fill="rgb(107,107,107)" height="5px" width="5px" x="104px" y="84px" /><rect fill="rgb(106,106,106)" height="5px" width="5px" x="108px" y="84px" /><rect fill="rgb(106,106,106)" height="5px" width="5px" x="112px" y="84px" /><rect fill="rgb(55,55,55)" height="5px" width="5px" x="116px" y="84px" /><rect fill="rgb(55,55,55)" height="5px" width="5px" x="8px" y="88px" /><rect fill="rgb(107,107,107)" height="5px" width="5px" x="12px" y="88px" /><rect fill="rgb(106,106,106)" height="5px" width="5px" x="16px" y="88px" /><rect fill="rgb(106,106,106)" height="5px" width="5px" x="20px" y="88px" /><rect fill="rgb(109,109,109)" height="5px" width="5px" x="24px" y="88px" /><rect fill="rgb(109,109,109)" height="5px" width="5px" x="28px" y="88px" /><rect fill="rgb(105,105,105)" height="5px" width="5px" x="32px" y="88px" /><rect fill="rgb(107,107,107)" height="5px" width="5px" x="36px" y="88px" /><rect fill="rgb(106,106,106)" height="5px" width="5px" x="40px" y="88px" /><rect fill="rgb(108,108,108)" height="5px" width="5px" x="44px" y="88px" /><rect fill="rgb(55,55,55)" height="5px" width="5px" x="48px" y="88px" /><rect fill="rgb(109,109,109)" height="5px" width="5px" x="52px" y="88px" /><rect fill="rgb(103,103,103)" height="5px" width="5px" x="56px" y="88px" /><rect fill="rgb(94,94,94)" height="5px" width="5px" x="60px" y="88px" /><rect fill="rgb(96,96,96)" height="5px" width="5px" x="64px" y="88px" /><rect fill="rgb(104,104,104)" height="5px" width="5px" x="68px" y="88px" /><rect fill="rgb(109,109,109)" height="5px" width="5px" x="72px" y="88px" /><rect fill="rgb(55,55,55)" height="5px" width="5px" x="76px" y="88px" /><rect fill="rgb(109,109,109)" height="5px" width="5px" x="80px" y="88px" /><rect fill="rgb(73,73,73)" height="5px" width="5px" x="84px" y="88px" /><rect fill="rgb(76,76,76)" height="5px" width="5px" x="88px" y="88px" /><rect fill="rgb(109,109,109)" height="5px" width="5px" x="92px" y="88px" /><rect fill="rgb(106,106,106)" height="5px" width="5px" x="96px" y="88px" /><rect fill="rgb(106,106,106)" height="5px" width="5px" x="100px" y="88px" /><rect fill="rgb(108,108,108)" height="5px" width="5px" x="104px" y="88px" /><rect fill="rgb(107,107,107)" height="5px" width="5px" x="108px" y="88px" /><rect fill="rgb(108,108,108)" height="5px" width="5px" x="112px" y="88px" /><rect fill="rgb(55,55,55)" height="5px" width="5px" x="116px" y="88px" /><rect fill="rgb(55,55,55)" height="5px" width="5px" x="8px" y="92px" /><rect fill="rgb(106,106,106)" height="5px" width="5px" x="12px" y="92px" /><rect fill="rgb(81,81,81)" height="5px" width="5px" x="16px" y="92px" /><rect fill="rgb(83,83,83)" height="5px" width="5px" x="20px" y="92px" /><rect fill="rgb(109,109,109)" height="5px" width="5px" x="24px" y="92px" /><rect fill="rgb(109,109,109)" height="5px" width="5px" x="28px" y="92px" /><rect fill="rgb(104,104,104)" height="5px" width="5px" x="32px" y="92px" /><rect fill="rgb(108,108,108)" height="5px" width="5px" x="36px" y="92px" /><rect fill="rgb(109,109,109)" height="5px" width="5px" x="40px" y="92px" /><rect fill="rgb(109,109,109)" height="5px" width="5px" x="44px" y="92px" /><rect fill="rgb(55,55,55)" height="5px" width="5px" x="48px" y="92px" /><rect fill="rgb(107,107,107)" height="5px" width="5px" x="52px" y="92px" /><rect fill="rgb(102,102,102)" height="5px" width="5px" x="56px" y="92px" /><rect fill="rgb(15,15,15)" height="5px" width="5px" x="60px" y="92px" /><rect fill="rgb(0,0,0)" height="5px" width="5px" x="64px" y="92px" /><rect fill="rgb(109,109,109)" height="5px" width="5px" x="68px" y="92px" /><rect fill="rgb(109,109,109)" height="5px" width="5px" x="72px" y="92px" /><rect fill="rgb(55,55,55)" height="5px" width="5px" x="76px" y="92px" /><rect fill="rgb(106,106,106)" height="5px" width="5px" x="80px" y="92px" /><rect fill="rgb(106,106,106)" height="5px" width="5px" x="84px" y="92px" /><rect fill="rgb(104,104,104)" height="5px" width="5px" x="88px" y="92px" /><rect fill="rgb(104,104,104)" height="5px" width="5px" x="92px" y="92px" /><rect fill="rgb(105,105,105)" height="5px" width="5px" x="96px" y="92px" /><rect fill="rgb(102,102,102)" height="5px" width="5px" x="100px" y="92px" /><rect fill="rgb(104,104,104)" height="5px" width="5px" x="104px" y="92px" /><rect fill="rgb(103,103,103)" height="5px" width="5px" x="108px" y="92px" /><rect fill="rgb(107,107,107)" height="5px" width="5px" x="112px" y="92px" /><rect fill="rgb(55,55,55)" height="5px" width="5px" x="116px" y="92px" /><rect fill="rgb(55,55,55)" height="5px" width="5px" x="8px" y="96px" /><rect fill="rgb(107,107,107)" height="5px" width="5px" x="12px" y="96px" /><rect fill="rgb(107,107,107)" height="5px" width="5px" x="16px" y="96px" /><rect fill="rgb(106,106,106)" height="5px" width="5px" x="20px" y="96px" /><rect fill="rgb(103,103,103)" height="5px" width="5px" x="24px" y="96px" /><rect fill="rgb(109,109,109)" height="5px" width="5px" x="28px" y="96px" /><rect fill="rgb(107,107,107)" height="5px" width="5px" x="32px" y="96px" /><rect fill="rgb(105,105,105)" height="5px" width="5px" x="36px" y="96px" /><rect fill="rgb(107,107,107)" height="5px" width="5px" x="40px" y="96px" /><rect fill="rgb(109,109,109)" height="5px" width="5px" x="44px" y="96px" /><rect fill="rgb(55,55,55)" height="5px" width="5px" x="48px" y="96px" /><rect fill="rgb(103,103,103)" height="5px" width="5px" x="52px" y="96px" /><rect fill="rgb(13,13,13)" height="5px" width="5px" x="56px" y="96px" /><rect fill="rgb(7,7,7)" height="5px" width="5px" x="60px" y="96px" /><rect fill="rgb(7,7,7)" height="5px" width="5px" x="64px" y="96px" /><rect fill="rgb(12,12,12)" height="5px" width="5px" x="68px" y="96px" /><rect fill="rgb(107,107,107)" height="5px" width="5px" x="72px" y="96px" /><rect fill="rgb(55,55,55)" height="5px" width="5px" x="76px" y="96px" /><rect fill="rgb(106,106,106)" height="5px" width="5px" x="80px" y="96px" /><rect fill="rgb(104,104,104)" height="5px" width="5px" x="84px" y="96px" /><rect fill="rgb(98,98,98)" height="5px" width="5px" x="88px" y="96px" /><rect fill="rgb(99,99,99)" height="5px" width="5px" x="92px" y="96px" /><rect fill="rgb(103,103,103)" height="5px" width="5px" x="96px" y="96px" /><rect fill="rgb(102,102,102)" height="5px" width="5px" x="100px" y="96px" /><rect fill="rgb(77,77,77)" height="5px" width="5px" x="104px" y="96px" /><rect fill="rgb(78,78,78)" height="5px" width="5px" x="108px" y="96px" /><rect fill="rgb(108,108,108)" height="5px" width="5px" x="112px" y="96px" /><rect fill="rgb(55,55,55)" height="5px" width="5px" x="116px" y="96px" /><rect fill="rgb(55,55,55)" height="5px" width="5px" x="8px" y="100px" /><rect fill="rgb(109,109,109)" height="5px" width="5px" x="12px" y="100px" /><rect fill="rgb(109,109,109)" height="5px" width="5px" x="16px" y="100px" /><rect fill="rgb(106,106,106)" height="5px" width="5px" x="20px" y="100px" /><rect fill="rgb(95,95,95)" height="5px" width="5px" x="24px" y="100px" /><rect fill="rgb(97,97,97)" height="5px" width="5px" x="28px" y="100px" /><rect fill="rgb(99,99,99)" height="5px" width="5px" x="32px" y="100px" /><rect fill="rgb(84,84,84)" height="5px" width="5px" x="36px" y="100px" /><rect fill="rgb(87,87,87)" height="5px" width="5px" x="40px" y="100px" /><rect fill="rgb(109,109,109)" height="5px" width="5px" x="44px" y="100px" /><rect fill="rgb(55,55,55)" height="5px" width="5px" x="48px" y="100px" /><rect fill="rgb(107,107,107)" height="5px" width="5px" x="52px" y="100px" /><rect fill="rgb(12,12,12)" height="5px" width="5px" x="56px" y="100px" /><rect fill="rgb(9,9,9)" height="5px" width="5px" x="60px" y="100px" /><rect fill="rgb(2,2,2)" height="5px" width="5px" x="64px" y="100px" /><rect fill="rgb(5,5,5)" height="5px" width="5px" x="68px" y="100px" /><rect fill="rgb(107,107,107)" height="5px" width="5px" x="72px" y="100px" /><rect fill="rgb(55,55,55)" height="5px" width="5px" x="76px" y="100px" /><rect fill="rgb(106,106,106)" height="5px" width="5px" x="80px" y="100px" /><rect fill="rgb(103,103,103)" height="5px" width="5px" x="84px" y="100px" /><rect fill="rgb(97,97,97)" height="5px" width="5px" x="88px" y="100px" /><rect fill="rgb(101,101,101)" height="5px" width="5px" x="92px" y="100px" /><rect fill="rgb(96,96,96)" height="5px" width="5px" x="96px" y="100px" /><rect fill="rgb(100,100,100)" height="5px" width="5px" x="100px" y="100px" /><rect fill="rgb(105,105,105)" height="5px" width="5px" x="104px" y="100px" /><rect fill="rgb(106,106,106)" height="5px" width="5px" x="108px" y="100px" /><rect fill="rgb(106,106,106)" height="5px" width="5px" x="112px" y="100px" /><rect fill="rgb(55,55,55)" height="5px" width="5px" x="116px" y="100px" /><rect fill="rgb(85,85,85)" height="5px" opacity="0.0117647058824" width="5px" x="120px" y="100px" /><rect fill="rgb(55,55,55)" height="5px" width="5px" x="8px" y="104px" /><rect fill="rgb(108,108,108)" height="5px" width="5px" x="12px" y="104px" /><rect fill="rgb(108,108,108)" height="5px" width="5px" x="16px" y="104px" /><rect fill="rgb(108,108,108)" height="5px" width="5px" x="20px" y="104px" /><rect fill="rgb(102,102,102)" height="5px" width="5px" x="24px" y="104px" /><rect fill="rgb(98,98,98)" height="5px" width="5px" x="28px" y="104px" /><rect fill="rgb(101,101,101)" height="5px" width="5px" x="32px" y="104px" /><rect fill="rgb(101,101,101)" height="5px" width="5px" x="36px" y="104px" /><rect fill="rgb(106,106,106)" height="5px" width="5px" x="40px" y="104px" /><rect fill="rgb(105,105,105)" height="5px" width="5px" x="44px" y="104px" /><rect fill="rgb(55,55,55)" height="5px" width="5px" x="48px" y="104px" /><rect fill="rgb(106,106,106)" height="5px" width="5px" x="52px" y="104px" /><rect fill="rgb(17,17,17)" height="5px" width="5px" x="56px" y="104px" /><rect fill="rgb(8,8,8)" height="5px" width="5px" x="60px" y="104px" /><rect fill="rgb(0,0,0)" height="5px" width="5px" x="64px" y="104px" /><rect fill="rgb(9,9,9)" height="5px" width="5px" x="68px" y="104px" /><rect fill="rgb(107,107,107)" height="5px" width="5px" x="72px" y="104px" /><rect fill="rgb(55,55,55)" height="5px" width="5px" x="76px" y="104px" /><rect fill="rgb(106,106,106)" height="5px" width="5px" x="80px" y="104px" /><rect fill="rgb(106,106,106)" height="5px" width="5px" x="84px" y="104px" /><rect fill="rgb(107,107,107)" height="5px" width="5px" x="88px" y="104px" /><rect fill="rgb(71,71,71)" height="5px" width="5px" x="92px" y="104px" /><rect fill="rgb(73,73,73)" height="5px" width="5px" x="96px" y="104px" /><rect fill="rgb(108,108,108)" height="5px" width="5px" x="100px" y="104px" /><rect fill="rgb(106,106,106)" height="5px" width="5px" x="104px" y="104px" /><rect fill="rgb(105,105,105)" height="5px" width="5px" x="108px" y="104px" /><rect fill="rgb(107,107,107)" height="5px" width="5px" x="112px" y="104px" /><rect fill="rgb(55,55,55)" height="5px" width="5px" x="116px" y="104px" /><rect fill="rgb(55,55,55)" height="5px" width="5px" x="8px" y="108px" /><rect fill="rgb(107,107,107)" height="5px" width="5px" x="12px" y="108px" /><rect fill="rgb(106,106,106)" height="5px" width="5px" x="16px" y="108px" /><rect fill="rgb(105,105,105)" height="5px" width="5px" x="20px" y="108px" /><rect fill="rgb(101,101,101)" height="5px" width="5px" x="24px" y="108px" /><rect fill="rgb(103,103,103)" height="5px" width="5px" x="28px" y="108px" /><rect fill="rgb(102,102,102)" height="5px" width="5px" x="32px" y="108px" /><rect fill="rgb(101,101,101)" height="5px" width="5px" x="36px" y="108px" /><rect fill="rgb(99,99,99)" height="5px" width="5px" x="40px" y="108px" /><rect fill="rgb(100,100,100)" height="5px" width="5px" x="44px" y="108px" /><rect fill="rgb(55,55,55)" height="5px" width="5px" x="48px" y="108px" /><rect fill="rgb(106,106,106)" height="5px" width="5px" x="52px" y="108px" /><rect fill="rgb(12,12,12)" height="5px" width="5px" x="56px" y="108px" /><rect fill="rgb(8,8,8)" height="5px" width="5px" x="60px" y="108px" /><rect fill="rgb(10,10,10)" height="5px" width="5px" x="64px" y="108px" /><rect fill="rgb(13,13,13)" height="5px" width="5px" x="68px" y="108px" /><rect fill="rgb(106,106,106)" height="5px" width="5px" x="72px" y="108px" /><rect fill="rgb(55,55,55)" height="5px" width="5px" x="76px" y="108px" /><rect fill="rgb(99,99,99)" height="5px" width="5px" x="80px" y="108px" /><rect fill="rgb(102,102,102)" height="5px" width="5px" x="84px" y="108px" /><rect fill="rgb(102,102,102)" height="5px" width="5px" x="88px" y="108px" /><rect fill="rgb(102,102,102)" height="5px" width="5px" x="92px" y="108px" /><rect fill="rgb(102,102,102)" height="5px" width="5px" x="96px" y="108px" /><rect fill="rgb(100,100,100)" height="5px" width="5px" x="100px" y="108px" /><rect fill="rgb(100,100,100)" height="5px" width="5px" x="104px" y="108px" /><rect fill="rgb(101,101,101)" height="5px" width="5px" x="108px" y="108px" /><rect fill="rgb(106,106,106)" height="5px" width="5px" x="112px" y="108px" /><rect fill="rgb(55,55,55)" height="5px" width="5px" x="116px" y="108px" /><rect fill="rgb(55,55,55)" height="5px" width="5px" x="8px" y="112px" /><rect fill="rgb(109,109,109)" height="5px" width="5px" x="12px" y="112px" /><rect fill="rgb(106,106,106)" height="5px" width="5px" x="16px" y="112px" /><rect fill="rgb(107,107,107)" height="5px" width="5px" x="20px" y="112px" /><rect fill="rgb(109,109,109)" height="5px" width="5px" x="24px" y="112px" /><rect fill="rgb(106,106,106)" height="5px" width="5px" x="28px" y="112px" /><rect fill="rgb(105,105,105)" height="5px" width="5px" x="32px" y="112px" /><rect fill="rgb(106,106,106)" height="5px" width="5px" x="36px" y="112px" /><rect fill="rgb(107,107,107)" height="5px" width="5px" x="40px" y="112px" /><rect fill="rgb(108,108,108)" height="5px" width="5px" x="44px" y="112px" /><rect fill="rgb(55,55,55)" height="5px" width="5px" x="48px" y="112px" /><rect fill="rgb(108,108,108)" height="5px" width="5px" x="52px" y="112px" /><rect fill="rgb(0,0,0)" height="5px" width="5px" x="56px" y="112px" /><rect fill="rgb(0,0,0)" height="5px" width="5px" x="60px" y="112px" /><rect fill="rgb(0,0,0)" height="5px" width="5px" x="64px" y="112px" /><rect fill="rgb(0,0,0)" height="5px" width="5px" x="68px" y="112px" /><rect fill="rgb(106,106,106)" height="5px" width="5px" x="72px" y="112px" /><rect fill="rgb(55,55,55)" height="5px" width="5px" x="76px" y="112px" /><rect fill="rgb(105,105,105)" height="5px" width="5px" x="80px" y="112px" /><rect fill="rgb(105,105,105)" height="5px" width="5px" x="84px" y="112px" /><rect fill="rgb(103,103,103)" height="5px" width="5px" x="88px" y="112px" /><rect fill="rgb(101,101,101)" height="5px" width="5px" x="92px" y="112px" /><rect fill="rgb(103,103,103)" height="5px" width="5px" x="96px" y="112px" /><rect fill="rgb(102,102,102)" height="5px" width="5px" x="100px" y="112px" /><rect fill="rgb(107,107,107)" height="5px" width="5px" x="104px" y="112px" /><rect fill="rgb(106,106,106)" height="5px" width="5px" x="108px" y="112px" /><rect fill="rgb(109,109,109)" height="5px" width="5px" x="112px" y="112px" /><rect fill="rgb(55,55,55)" height="5px" width="5px" x="116px" y="112px" /><rect fill="rgb(55,55,55)" height="5px" width="5px" x="8px" y="116px" /><rect fill="rgb(55,55,55)" height="5px" width="5px" x="12px" y="116px" /><rect fill="rgb(55,55,55)" height="5px" width="5px" x="16px" y="116px" /><rect fill="rgb(55,55,55)" height="5px" width="5px" x="20px" y="116px" /><rect fill="rgb(55,55,55)" height="5px" width="5px" x="24px" y="116px" /><rect fill="rgb(55,55,55)" height="5px" width="5px" x="28px" y="116px" /><rect fill="rgb(55,55,55)" height="5px" width="5px" x="32px" y="116px" /><rect fill="rgb(55,55,55)" height="5px" width="5px" x="36px" y="116px" /><rect fill="rgb(55,55,55)" height="5px" width="5px" x="40px" y="116px" /><rect fill="rgb(55,55,55)" height="5px" width="5px" x="44px" y="116px" /><rect fill="rgb(55,55,55)" height="5px" width="5px" x="48px" y="116px" /><rect fill="rgb(55,55,55)" height="5px" width="5px" x="52px" y="116px" /><rect fill="rgb(55,55,55)" height="5px" width="5px" x="56px" y="116px" /><rect fill="rgb(55,55,55)" height="5px" width="5px" x="60px" y="116px" /><rect fill="rgb(55,55,55)" height="5px" width="5px" x="64px" y="116px" /><rect fill="rgb(55,55,55)" height="5px" width="5px" x="68px" y="116px" /><rect fill="rgb(55,55,55)" height="5px" width="5px" x="72px" y="116px" /><rect fill="rgb(55,55,55)" height="5px" width="5px" x="76px" y="116px" /><rect fill="rgb(55,55,55)" height="5px" width="5px" x="80px" y="116px" /><rect fill="rgb(55,55,55)" height="5px" width="5px" x="84px" y="116px" /><rect fill="rgb(55,55,55)" height="5px" width="5px" x="88px" y="116px" /><rect fill="rgb(55,55,55)" height="5px" width="5px" x="92px" y="116px" /><rect fill="rgb(55,55,55)" height="5px" width="5px" x="96px" y="116px" /><rect fill="rgb(55,55,55)" height="5px" width="5px" x="100px" y="116px" /><rect fill="rgb(55,55,55)" height="5px" width="5px" x="104px" y="116px" /><rect fill="rgb(55,55,55)" height="5px" width="5px" x="108px" y="116px" /><rect fill="rgb(55,55,55)" height="5px" width="5px" x="112px" y="116px" /><rect fill="rgb(55,55,55)" height="5px" width="5px" x="116px" y="116px" /></svg>