<?xml version="1.0" encoding="utf-8" ?>
<svg baseProfile="full" height="128px" version="1.1" width="128px" xmlns="http://www.w3.org/2000/svg" xmlns:ev="http://www.w3.org/2001/xml-events" xmlns:xlink="http://www.w3.org/1999/xlink"><defs /><rect fill="rgb(179,38,46)" height="5px" width="5px" x="64px" y="4px" /><rect fill="rgb(179,38,46)" height="5px" width="5px" x="68px" y="4px" /><rect fill="rgb(105,20,26)" height="5px" width="5px" x="72px" y="4px" /><rect fill="rgb(105,20,26)" height="5px" width="5px" x="76px" y="4px" /><rect fill="rgb(105,20,26)" height="5px" width="5px" x="80px" y="4px" /><rect fill="rgb(105,20,26)" height="5px" width="5px" x="84px" y="4px" /><rect fill="rgb(179,38,46)" height="5px" width="5px" x="60px" y="8px" /><rect fill="rgb(178,38,46)" height="5px" width="5px" x="64px" y="8px" /><rect fill="rgb(178,38,46)" height="5px" width="5px" x="68px" y="8px" /><rect fill="rgb(105,20,26)" height="5px" width="5px" x="72px" y="8px" /><rect fill="rgb(105,20,26)" height="5px" width="5px" x="76px" y="8px" /><rect fill="rgb(105,20,26)" height="5px" width="5px" x="80px" y="8px" /><rect fill="rgb(105,20,26)" height="5px" width="5px" x="84px" y="8px" /><rect fill="rgb(179,38,46)" height="5px" width="5px" x="56px" y="12px" /><rect fill="rgb(178,38,46)" height="5px" width="5px" x="60px" y="12px" /><rect fill="rgb(178,38,46)" height="5px" width="5px" x="64px" y="12px" /><rect fill="rgb(178,38,46)" height="5px" width="5px" x="68px" y="12px" /><rect fill="rgb(178,38,46)" height="5px" width="5px" x="72px" y="12px" /><rect fill="rgb(179,38,46)" height="5px" width="5px" x="76px" y="12px" /><rect fill="rgb(105,73,20)" height="5px" width="5px" x="80px" y="12px" /><rect fill="rgb(179,38,46)" height="5px" width="5px" x="52px" y="16px" /><rect fill="rgb(179,38,46)" height="5px" width="5px" x="56px" y="16px" /><rect fill="rgb(178,38,46)" height="5px" width="5px" x="60px" y="16px" /><rect fill="rgb(178,38,46)" height="5px" width="5px" x="64px" y="16px" /><rect fill="rgb(178,38,46)" height="5px" width="5px" x="68px" y="16px" /><rect fill="rgb(179,38,46)" height="5px" width="5px" x="72px" y="16px" /><rect fill="rgb(179,38,46)" height="5px" width="5px" x="76px" y="16px" /><rect fill="rgb(105,73,20)" height="5px" width="5px" x="80px" y="16px" /><rect fill="rgb(105,73,20)" height="5px" width="5px" x="84px" y="16px" /><rect fill="rgb(179,38,46)" height="5px" width="5px" x="52px" y="20px" /><rect fill="rgb(178,38,46)" height="5px" width="5px" x="56px" y="20px" /><rect fill="rgb(178,38,46)" height="5px" width="5px" x="60px" y="20px" /><rect fill="rgb(178,38,46)" height="5px" width="5px" x="64px" y="20px" /><rect fill="rgb(178,38,46)" height="5px" width="5px" x="68px" y="20px" /><rect fill="rgb(179,38,46)" height="5px" width="5px" x="72px" y="20px" /><rect fill="rgb(105,73,20)" height="5px" width="5px" x="80px" y="20px" /><rect fill="rgb(105,73,20)" height="5px" width="5px" x="84px" y="20px" /><rect fill="rgb(166,35,43)" height="5px" width="5px" x="52px" y="24px" /><rect fill="rgb(178,38,46)" height="5px" width="5px" x="56px" y="24px" /><rect fill="rgb(178,38,46)" height="5px" width="5px" x="60px" y="24px" /><rect fill="rgb(178,38,46)" height="5px" width="5px" x="64px" y="24px" /><rect fill="rgb(179,38,46)" height="5px" width="5px" x="68px" y="24px" /><rect fill="rgb(179,38,46)" height="5px" width="5px" x="72px" y="24px" /><rect fill="rgb(105,73,20)" height="5px" width="5px" x="80px" y="24px" /><rect fill="rgb(105,73,20)" height="5px" width="5px" x="84px" y="24px" /><rect fill="rgb(105,73,20)" height="5px" width="5px" x="88px" y="24px" /><rect fill="rgb(166,35,43)" height="5px" width="5px" x="52px" y="28px" /><rect fill="rgb(178,38,46)" height="5px" width="5px" x="56px" y="28px" /><rect fill="rgb(178,38,46)" height="5px" width="5px" x="60px" y="28px" /><rect fill="rgb(178,38,46)" height="5px" width="5px" x="64px" y="28px" /><rect fill="rgb(179,38,46)" height="5px" width="5px" x="68px" y="28px" /><rect fill="rgb(105,73,20)" height="5px" width="5px" x="84px" y="28px" /><rect fill="rgb(105,73,20)" height="5px" width="5px" x="88px" y="28px" /><rect fill="rgb(156,33,40)" height="5px" width="5px" x="52px" y="32px" /><rect fill="rgb(178,38,46)" height="5px" width="5px" x="56px" y="32px" /><rect fill="rgb(178,38,46)" height="5px" width="5px" x="60px" y="32px" /><rect fill="rgb(178,38,46)" height="5px" width="5px" x="64px" y="32px" /><rect fill="rgb(179,38,46)" height="5px" width="5px" x="68px" y="32px" /><rect fill="rgb(105,73,20)" height="5px" width="5px" x="84px" y="32px" /><rect fill="rgb(105,73,20)" height="5px" width="5px" x="88px" y="32px" /><rect fill="rgb(156,33,40)" height="5px" width="5px" x="52px" y="36px" /><rect fill="rgb(178,38,46)" height="5px" width="5px" x="56px" y="36px" /><rect fill="rgb(178,38,46)" height="5px" width="5px" x="60px" y="36px" /><rect fill="rgb(178,38,46)" height="5px" width="5px" x="64px" y="36px" /><rect fill="rgb(179,38,46)" height="5px" width="5px" x="68px" y="36px" /><rect fill="rgb(105,73,20)" height="5px" width="5px" x="88px" y="36px" /><rect fill="rgb(105,73,20)" height="5px" width="5px" x="92px" y="36px" /><rect fill="rgb(156,33,40)" height="5px" width="5px" x="52px" y="40px" /><rect fill="rgb(178,38,46)" height="5px" width="5px" x="56px" y="40px" /><rect fill="rgb(178,38,46)" height="5px" width="5px" x="60px" y="40px" /><rect fill="rgb(174,37,45)" height="5px" width="5px" x="64px" y="40px" /><rect fill="rgb(179,38,46)" height="5px" width="5px" x="68px" y="40px" /><rect fill="rgb(105,73,20)" height="5px" width="5px" x="88px" y="40px" /><rect fill="rgb(105,73,20)" height="5px" width="5px" x="92px" y="40px" /><rect fill="rgb(166,35,43)" height="5px" width="5px" x="52px" y="44px" /><rect fill="rgb(166,35,43)" height="5px" width="5px" x="56px" y="44px" /><rect fill="rgb(178,38,46)" height="5px" width="5px" x="60px" y="44px" /><rect fill="rgb(174,37,45)" height="5px" width="5px" x="64px" y="44px" /><rect fill="rgb(166,35,43)" height="5px" width="5px" x="68px" y="44px" /><rect fill="rgb(105,73,20)" height="5px" width="5px" x="88px" y="44px" /><rect fill="rgb(105,73,20)" height="5px" width="5px" x="92px" y="44px" /><rect fill="rgb(140,30,36)" height="5px" width="5px" x="52px" y="48px" /><rect fill="rgb(166,35,43)" height="5px" width="5px" x="56px" y="48px" /><rect fill="rgb(178,38,46)" height="5px" width="5px" x="60px" y="48px" /><rect fill="rgb(178,38,46)" height="5px" width="5px" x="64px" y="48px" /><rect fill="rgb(166,35,43)" height="5px" width="5px" x="68px" y="48px" /><rect fill="rgb(105,73,20)" height="5px" width="5px" x="92px" y="48px" /><rect fill="rgb(105,73,20)" height="5px" width="5px" x="96px" y="48px" /><rect fill="rgb(140,30,36)" height="5px" width="5px" x="48px" y="52px" /><rect fill="rgb(166,35,43)" height="5px" width="5px" x="52px" y="52px" /><rect fill="rgb(178,38,46)" height="5px" width="5px" x="56px" y="52px" /><rect fill="rgb(178,38,46)" height="5px" width="5px" x="60px" y="52px" /><rect fill="rgb(174,37,45)" height="5px" width="5px" x="64px" y="52px" /><rect fill="rgb(166,35,43)" height="5px" width="5px" x="68px" y="52px" /><rect fill="rgb(105,73,20)" height="5px" width="5px" x="92px" y="52px" /><rect fill="rgb(105,73,20)" height="5px" width="5px" x="96px" y="52px" /><rect fill="rgb(166,35,43)" height="5px" width="5px" x="48px" y="56px" /><rect fill="rgb(178,38,46)" height="5px" width="5px" x="52px" y="56px" /><rect fill="rgb(178,38,46)" height="5px" width="5px" x="56px" y="56px" /><rect fill="rgb(174,37,45)" height="5px" width="5px" x="60px" y="56px" /><rect fill="rgb(174,37,45)" height="5px" width="5px" x="64px" y="56px" /><rect fill="rgb(156,33,40)" height="5px" width="5px" x="68px" y="56px" /><rect fill="rgb(105,73,20)" height="5px" width="5px" x="92px" y="56px" /><rect fill="rgb(105,73,20)" height="5px" width="5px" x="96px" y="56px" /><rect fill="rgb(140,30,36)" height="5px" width="5px" x="44px" y="60px" /><rect fill="rgb(166,35,43)" height="5px" width="5px" x="48px" y="60px" /><rect fill="rgb(178,38,46)" height="5px" width="5px" x="52px" y="60px" /><rect fill="rgb(178,38,46)" height="5px" width="5px" x="56px" y="60px" /><rect fill="rgb(174,37,45)" height="5px" width="5px" x="60px" y="60px" /><rect fill="rgb(166,35,43)" height="5px" width="5px" x="64px" y="60px" /><rect fill="rgb(156,33,40)" height="5px" width="5px" x="68px" y="60px" /><rect fill="rgb(105,73,20)" height="5px" width="5px" x="96px" y="60px" /><rect fill="rgb(105,73,20)" height="5px" width="5px" x="100px" y="60px" /><rect fill="rgb(140,30,36)" height="5px" width="5px" x="44px" y="64px" /><rect fill="rgb(166,35,43)" height="5px" width="5px" x="48px" y="64px" /><rect fill="rgb(178,38,46)" height="5px" width="5px" x="52px" y="64px" /><rect fill="rgb(178,38,46)" height="5px" width="5px" x="56px" y="64px" /><rect fill="rgb(174,37,45)" height="5px" width="5px" x="60px" y="64px" /><rect fill="rgb(166,35,43)" height="5px" width="5px" x="64px" y="64px" /><rect fill="rgb(156,33,40)" height="5px" width="5px" x="68px" y="64px" /><rect fill="rgb(105,73,20)" height="5px" width="5px" x="96px" y="64px" /><rect fill="rgb(105,73,20)" height="5px" width="5px" x="100px" y="64px" /><rect fill="rgb(156,33,40)" height="5px" width="5px" x="36px" y="68px" /><rect fill="rgb(166,35,43)" height="5px" width="5px" x="40px" y="68px" /><rect fill="rgb(166,35,43)" height="5px" width="5px" x="44px" y="68px" /><rect fill="rgb(166,35,43)" height="5px" width="5px" x="48px" y="68px" /><rect fill="rgb(178,38,46)" height="5px" width="5px" x="52px" y="68px" /><rect fill="rgb(178,38,46)" height="5px" width="5px" x="56px" y="68px" /><rect fill="rgb(174,37,45)" height="5px" width="5px" x="60px" y="68px" /><rect fill="rgb(166,35,43)" height="5px" width="5px" x="64px" y="68px" /><rect fill="rgb(140,30,36)" height="5px" width="5px" x="68px" y="68px" /><rect fill="rgb(105,73,20)" height="5px" width="5px" x="96px" y="68px" /><rect fill="rgb(105,73,20)" height="5px" width="5px" x="100px" y="68px" /><rect fill="rgb(105,73,20)" height="5px" width="5px" x="104px" y="68px" /><rect fill="rgb(140,30,36)" height="5px" width="5px" x="28px" y="72px" /><rect fill="rgb(166,35,43)" height="5px" width="5px" x="32px" y="72px" /><rect fill="rgb(178,38,46)" height="5px" width="5px" x="36px" y="72px" /><rect fill="rgb(178,38,46)" height="5px" width="5px" x="40px" y="72px" /><rect fill="rgb(178,38,46)" height="5px" width="5px" x="44px" y="72px" /><rect fill="rgb(178,38,46)" height="5px" width="5px" x="48px" y="72px" /><rect fill="rgb(178,38,46)" height="5px" width="5px" x="52px" y="72px" /><rect fill="rgb(178,38,46)" height="5px" width="5px" x="56px" y="72px" /><rect fill="rgb(166,35,43)" height="5px" width="5px" x="60px" y="72px" /><rect fill="rgb(166,35,43)" height="5px" width="5px" x="64px" y="72px" /><rect fill="rgb(105,73,20)" height="5px" width="5px" x="100px" y="72px" /><rect fill="rgb(105,73,20)" height="5px" width="5px" x="104px" y="72px" /><rect fill="rgb(156,33,40)" height="5px" width="5px" x="20px" y="76px" /><rect fill="rgb(156,33,40)" height="5px" width="5px" x="24px" y="76px" /><rect fill="rgb(179,38,46)" height="5px" width="5px" x="28px" y="76px" /><rect fill="rgb(178,38,46)" height="5px" width="5px" x="32px" y="76px" /><rect fill="rgb(174,37,45)" height="5px" width="5px" x="36px" y="76px" /><rect fill="rgb(174,37,45)" height="5px" width="5px" x="40px" y="76px" /><rect fill="rgb(178,38,46)" height="5px" width="5px" x="44px" y="76px" /><rect fill="rgb(178,38,46)" height="5px" width="5px" x="48px" y="76px" /><rect fill="rgb(178,38,46)" height="5px" width="5px" x="52px" y="76px" /><rect fill="rgb(166,35,43)" height="5px" width="5px" x="56px" y="76px" /><rect fill="rgb(166,35,43)" height="5px" width="5px" x="60px" y="76px" /><rect fill="rgb(140,30,36)" height="5px" width="5px" x="64px" y="76px" /><rect fill="rgb(105,73,20)" height="5px" width="5px" x="100px" y="76px" /><rect fill="rgb(102,71,19)" height="5px" width="5px" x="104px" y="76px" /><rect fill="rgb(156,33,40)" height="5px" width="5px" x="16px" y="80px" /><rect fill="rgb(166,35,43)" height="5px" width="5px" x="20px" y="80px" /><rect fill="rgb(166,35,43)" height="5px" width="5px" x="24px" y="80px" /><rect fill="rgb(166,35,43)" height="5px" width="5px" x="28px" y="80px" /><rect fill="rgb(166,35,43)" height="5px" width="5px" x="32px" y="80px" /><rect fill="rgb(178,38,46)" height="5px" width="5px" x="36px" y="80px" /><rect fill="rgb(174,37,45)" height="5px" width="5px" x="40px" y="80px" /><rect fill="rgb(178,38,46)" height="5px" width="5px" x="44px" y="80px" /><rect fill="rgb(166,35,43)" height="5px" width="5px" x="48px" y="80px" /><rect fill="rgb(166,35,43)" height="5px" width="5px" x="52px" y="80px" /><rect fill="rgb(166,35,43)" height="5px" width="5px" x="56px" y="80px" /><rect fill="rgb(140,30,36)" height="5px" width="5px" x="60px" y="80px" /><rect fill="rgb(102,71,19)" height="5px" width="5px" x="104px" y="80px" /><rect fill="rgb(97,67,18)" height="5px" width="5px" x="108px" y="80px" /><rect fill="rgb(140,30,36)" height="5px" width="5px" x="16px" y="84px" /><rect fill="rgb(140,30,36)" height="5px" width="5px" x="20px" y="84px" /><rect fill="rgb(156,33,40)" height="5px" width="5px" x="24px" y="84px" /><rect fill="rgb(166,35,43)" height="5px" width="5px" x="28px" y="84px" /><rect fill="rgb(166,35,43)" height="5px" width="5px" x="32px" y="84px" /><rect fill="rgb(166,35,43)" height="5px" width="5px" x="36px" y="84px" /><rect fill="rgb(178,38,46)" height="5px" width="5px" x="40px" y="84px" /><rect fill="rgb(156,33,40)" height="5px" width="5px" x="44px" y="84px" /><rect fill="rgb(156,33,40)" height="5px" width="5px" x="48px" y="84px" /><rect fill="rgb(140,30,36)" height="5px" width="5px" x="52px" y="84px" /><rect fill="rgb(140,30,36)" height="5px" width="5px" x="56px" y="84px" /><rect fill="rgb(97,67,18)" height="5px" width="5px" x="104px" y="84px" /><rect fill="rgb(97,67,18)" height="5px" width="5px" x="108px" y="84px" /><rect fill="rgb(128,27,33)" height="5px" width="5px" x="16px" y="88px" /><rect fill="rgb(140,30,36)" height="5px" width="5px" x="20px" y="88px" /><rect fill="rgb(140,30,36)" height="5px" width="5px" x="24px" y="88px" /><rect fill="rgb(166,35,43)" height="5px" width="5px" x="28px" y="88px" /><rect fill="rgb(166,35,43)" height="5px" width="5px" x="32px" y="88px" /><rect fill="rgb(166,35,43)" height="5px" width="5px" x="36px" y="88px" /><rect fill="rgb(156,33,40)" height="5px" width="5px" x="40px" y="88px" /><rect fill="rgb(97,67,18)" height="5px" width="5px" x="104px" y="88px" /><rect fill="rgb(97,67,18)" height="5px" width="5px" x="108px" y="88px" /><rect fill="rgb(97,67,18)" height="5px" width="5px" x="112px" y="88px" /><rect fill="rgb(128,27,33)" height="5px" width="5px" x="16px" y="92px" /><rect fill="rgb(128,27,33)" height="5px" width="5px" x="20px" y="92px" /><rect fill="rgb(140,30,36)" height="5px" width="5px" x="24px" y="92px" /><rect fill="rgb(156,33,40)" height="5px" width="5px" x="28px" y="92px" /><rect fill="rgb(156,33,40)" height="5px" width="5px" x="32px" y="92px" /><rect fill="rgb(97,67,18)" height="5px" width="5px" x="108px" y="92px" /><rect fill="rgb(97,67,18)" height="5px" width="5px" x="112px" y="92px" /><rect fill="rgb(128,27,33)" height="5px" width="5px" x="16px" y="96px" /><rect fill="rgb(128,27,33)" height="5px" width="5px" x="20px" y="96px" /><rect fill="rgb(128,27,33)" height="5px" width="5px" x="24px" y="96px" /><rect fill="rgb(128,27,33)" height="5px" width="5px" x="28px" y="96px" /><rect fill="rgb(97,67,18)" height="5px" width="5px" x="108px" y="96px" /><rect fill="rgb(97,67,18)" height="5px" width="5px" x="112px" y="96px" /><rect fill="rgb(128,27,33)" height="5px" width="5px" x="16px" y="100px" /><rect fill="rgb(128,27,33)" height="5px" width="5px" x="20px" y="100px" /><rect fill="rgb(128,27,33)" height="5px" width="5px" x="24px" y="100px" /><rect fill="rgb(97,67,18)" height="5px" width="5px" x="108px" y="100px" /><rect fill="rgb(97,67,18)" height="5px" width="5px" x="112px" y="100px" /><rect fill="rgb(128,27,33)" height="5px" width="5px" x="16px" y="104px" /><rect fill="rgb(128,27,33)" height="5px" width="5px" x="20px" y="104px" /><rect fill="rgb(128,27,33)" height="5px" width="5px" x="24px" y="104px" /><rect fill="rgb(97,67,18)" height="5px" width="5px" x="112px" y="104px" /><rect fill="rgb(87,60,16)" height="5px" width="5px" x="116px" y="104px" /><rect fill="rgb(128,27,33)" height="5px" width="5px" x="16px" y="108px" /><rect fill="rgb(97,67,18)" height="5px" width="5px" x="112px" y="108px" /><rect fill="rgb(87,60,16)" height="5px" width="5px" x="116px" y="108px" /><rect fill="rgb(128,27,33)" height="5px" width="5px" x="16px" y="112px" /><rect fill="rgb(97,67,18)" height="5px" width="5px" x="112px" y="112px" /><rect fill="rgb(87,60,16)" height="5px" width="5px" x="116px" y="112px" /><rect fill="rgb(87,60,16)" height="5px" width="5px" x="120px" y="112px" /><rect fill="rgb(87,60,16)" height="5px" width="5px" x="116px" y="116px" /><rect fill="rgb(66,46,12)" height="5px" width="5px" x="120px" y="116px" /><rect fill="rgb(66,46,12)" height="5px" width="5px" x="116px" y="120px" /><rect fill="rgb(66,46,12)" height="5px" width="5px" x="120px" y="120px" /><rect fill="rgb(66,46,12)" height="5px" width="5px" x="120px" y="124px" /></svg>