<?xml version="1.0" encoding="utf-8" ?>
<svg baseProfile="full" height="128px" version="1.1" width="128px" xmlns="http://www.w3.org/2000/svg" xmlns:ev="http://www.w3.org/2001/xml-events" xmlns:xlink="http://www.w3.org/1999/xlink"><defs /><rect fill="rgb(253,209,2)" height="5px" opacity="0.0078431372549" width="5px" x="52px" y="4px" /><rect fill="rgb(253,209,2)" height="5px" opacity="0.101960784314" width="5px" x="56px" y="4px" /><rect fill="rgb(253,209,2)" height="5px" opacity="0.2" width="5px" x="60px" y="4px" /><rect fill="rgb(253,209,2)" height="5px" opacity="0.180392156863" width="5px" x="64px" y="4px" /><rect fill="rgb(253,209,2)" height="5px" opacity="0.0509803921569" width="5px" x="68px" y="4px" /><rect fill="rgb(253,209,2)" height="5px" opacity="0.0313725490196" width="5px" x="52px" y="8px" /><rect fill="rgb(253,209,2)" height="5px" opacity="0.407843137255" width="5px" x="56px" y="8px" /><rect fill="rgb(253,209,2)" height="5px" opacity="0.792156862745" width="5px" x="60px" y="8px" /><rect fill="rgb(253,209,2)" height="5px" opacity="0.705882352941" width="5px" x="64px" y="8px" /><rect fill="rgb(253,209,2)" height="5px" opacity="0.192156862745" width="5px" x="68px" y="8px" /><rect fill="rgb(253,208,2)" height="5px" opacity="0.00392156862745" width="5px" x="44px" y="12px" /><rect fill="rgb(253,210,2)" height="5px" opacity="0.0156862745098" width="5px" x="48px" y="12px" /><rect fill="rgb(253,209,2)" height="5px" opacity="0.0627450980392" width="5px" x="52px" y="12px" /><rect fill="rgb(253,209,2)" height="5px" opacity="0.505882352941" width="5px" x="56px" y="12px" /><rect fill="rgb(253,209,2)" height="5px" opacity="0.949019607843" width="5px" x="60px" y="12px" /><rect fill="rgb(253,209,2)" height="5px" opacity="0.850980392157" width="5px" x="64px" y="12px" /><rect fill="rgb(253,209,2)" height="5px" opacity="0.262745098039" width="5px" x="68px" y="12px" /><rect fill="rgb(253,212,2)" height="5px" opacity="0.0392156862745" width="5px" x="72px" y="12px" /><rect fill="rgb(253,212,2)" height="5px" opacity="0.0313725490196" width="5px" x="76px" y="12px" /><rect fill="rgb(253,209,2)" height="5px" opacity="0.0235294117647" width="5px" x="80px" y="12px" /><rect fill="rgb(254,209,1)" height="5px" opacity="0.0117647058824" width="5px" x="84px" y="12px" /><rect fill="rgb(255,208,0)" height="5px" opacity="0.00392156862745" width="5px" x="88px" y="12px" /><rect fill="rgb(255,198,0)" height="5px" opacity="0.00392156862745" width="5px" x="40px" y="16px" /><rect fill="rgb(253,208,2)" height="5px" opacity="0.0549019607843" width="5px" x="44px" y="16px" /><rect fill="rgb(253,210,2)" height="5px" opacity="0.196078431373" width="5px" x="48px" y="16px" /><rect fill="rgb(252,209,3)" height="5px" opacity="0.345098039216" width="5px" x="52px" y="16px" /><rect fill="rgb(253,209,2)" height="5px" opacity="0.678431372549" width="5px" x="56px" y="16px" /><rect fill="rgb(253,209,2)" height="5px" opacity="0.96862745098" width="5px" x="60px" y="16px" /><rect fill="rgb(253,209,2)" height="5px" opacity="0.921568627451" width="5px" x="64px" y="16px" /><rect fill="rgb(253,209,2)" height="5px" opacity="0.603921568627" width="5px" x="68px" y="16px" /><rect fill="rgb(253,209,2)" height="5px" opacity="0.447058823529" width="5px" x="72px" y="16px" /><rect fill="rgb(253,209,2)" height="5px" opacity="0.376470588235" width="5px" x="76px" y="16px" /><rect fill="rgb(253,209,2)" height="5px" opacity="0.266666666667" width="5px" x="80px" y="16px" /><rect fill="rgb(254,209,1)" height="5px" opacity="0.141176470588" width="5px" x="84px" y="16px" /><rect fill="rgb(255,208,0)" height="5px" opacity="0.043137254902" width="5px" x="88px" y="16px" /><rect fill="rgb(255,213,0)" height="5px" opacity="0.00392156862745" width="5px" x="32px" y="20px" /><rect fill="rgb(254,211,1)" height="5px" opacity="0.0274509803922" width="5px" x="36px" y="20px" /><rect fill="rgb(253,210,2)" height="5px" opacity="0.133333333333" width="5px" x="40px" y="20px" /><rect fill="rgb(253,209,2)" height="5px" opacity="0.333333333333" width="5px" x="44px" y="20px" /><rect fill="rgb(253,209,2)" height="5px" opacity="0.552941176471" width="5px" x="48px" y="20px" /><rect fill="rgb(253,209,2)" height="5px" opacity="0.733333333333" width="5px" x="52px" y="20px" /><rect fill="rgb(253,209,2)" height="5px" opacity="0.894117647059" width="5px" x="56px" y="20px" /><rect fill="rgb(253,209,2)" height="5px" opacity="0.988235294118" width="5px" x="60px" y="20px" /><rect fill="rgb(253,209,2)" height="5px" opacity="0.992156862745" width="5px" x="64px" y="20px" /><rect fill="rgb(253,209,2)" height="5px" opacity="0.952941176471" width="5px" x="68px" y="20px" /><rect fill="rgb(253,209,2)" height="5px" opacity="0.890196078431" width="5px" x="72px" y="20px" /><rect fill="rgb(253,209,2)" height="5px" opacity="0.796078431373" width="5px" x="76px" y="20px" /><rect fill="rgb(253,209,2)" height="5px" opacity="0.654901960784" width="5px" x="80px" y="20px" /><rect fill="rgb(253,209,2)" height="5px" opacity="0.447058823529" width="5px" x="84px" y="20px" /><rect fill="rgb(254,209,1)" height="5px" opacity="0.2" width="5px" x="88px" y="20px" /><rect fill="rgb(255,204,0)" height="5px" opacity="0.0156862745098" width="5px" x="92px" y="20px" /><rect fill="rgb(254,210,1)" height="5px" opacity="0.0235294117647" width="5px" x="32px" y="24px" /><rect fill="rgb(254,210,1)" height="5px" opacity="0.129411764706" width="5px" x="36px" y="24px" /><rect fill="rgb(253,210,2)" height="5px" opacity="0.411764705882" width="5px" x="40px" y="24px" /><rect fill="rgb(253,210,2)" height="5px" opacity="0.772549019608" width="5px" x="44px" y="24px" /><rect fill="rgb(253,209,2)" height="5px" opacity="0.890196078431" width="5px" x="48px" y="24px" /><rect fill="rgb(253,209,2)" height="5px" opacity="0.901960784314" width="5px" x="52px" y="24px" /><rect fill="rgb(253,209,2)" height="5px" opacity="0.941176470588" width="5px" x="56px" y="24px" /><rect fill="rgb(253,209,2)" height="5px" opacity="0.992156862745" width="5px" x="60px" y="24px" /><rect fill="rgb(253,209,2)" height="5px" opacity="0.980392156863" width="5px" x="64px" y="24px" /><rect fill="rgb(253,209,2)" height="5px" opacity="0.894117647059" width="5px" x="68px" y="24px" /><rect fill="rgb(253,209,2)" height="5px" opacity="0.862745098039" width="5px" x="72px" y="24px" /><rect fill="rgb(253,209,2)" height="5px" opacity="0.870588235294" width="5px" x="76px" y="24px" /><rect fill="rgb(253,209,2)" height="5px" opacity="0.874509803922" width="5px" x="80px" y="24px" /><rect fill="rgb(253,209,2)" height="5px" opacity="0.756862745098" width="5px" x="84px" y="24px" /><rect fill="rgb(253,209,2)" height="5px" opacity="0.407843137255" width="5px" x="88px" y="24px" /><rect fill="rgb(255,206,0)" height="5px" opacity="0.043137254902" width="5px" x="92px" y="24px" /><rect fill="rgb(254,209,1)" height="5px" opacity="0.078431372549" width="5px" x="32px" y="28px" /><rect fill="rgb(254,209,1)" height="5px" opacity="0.356862745098" width="5px" x="36px" y="28px" /><rect fill="rgb(254,209,1)" height="5px" opacity="0.729411764706" width="5px" x="40px" y="28px" /><rect fill="rgb(253,209,2)" height="5px" opacity="0.949019607843" width="5px" x="44px" y="28px" /><rect fill="rgb(253,209,2)" height="5px" opacity="0.913725490196" width="5px" x="48px" y="28px" /><rect fill="rgb(253,209,2)" height="5px" opacity="0.705882352941" width="5px" x="52px" y="28px" /><rect fill="rgb(253,209,2)" height="5px" opacity="0.776470588235" width="5px" x="56px" y="28px" /><rect fill="rgb(253,209,2)" height="5px" opacity="0.976470588235" width="5px" x="60px" y="28px" /><rect fill="rgb(253,209,2)" height="5px" opacity="0.890196078431" width="5px" x="64px" y="28px" /><rect fill="rgb(253,209,2)" height="5px" opacity="0.462745098039" width="5px" x="68px" y="28px" /><rect fill="rgb(254,209,1)" height="5px" opacity="0.360784313725" width="5px" x="72px" y="28px" /><rect fill="rgb(253,209,2)" height="5px" opacity="0.494117647059" width="5px" x="76px" y="28px" /><rect fill="rgb(253,209,2)" height="5px" opacity="0.666666666667" width="5px" x="80px" y="28px" /><rect fill="rgb(253,209,2)" height="5px" opacity="0.701960784314" width="5px" x="84px" y="28px" /><rect fill="rgb(253,209,2)" height="5px" opacity="0.423529411765" width="5px" x="88px" y="28px" /><rect fill="rgb(255,211,0)" height="5px" opacity="0.0549019607843" width="5px" x="92px" y="28px" /><rect fill="rgb(255,209,0)" height="5px" opacity="0.0117647058824" width="5px" x="28px" y="32px" /><rect fill="rgb(253,209,2)" height="5px" opacity="0.149019607843" width="5px" x="32px" y="32px" /><rect fill="rgb(253,209,2)" height="5px" opacity="0.537254901961" width="5px" x="36px" y="32px" /><rect fill="rgb(253,209,2)" height="5px" opacity="0.921568627451" width="5px" x="40px" y="32px" /><rect fill="rgb(253,209,2)" height="5px" opacity="0.925490196078" width="5px" x="44px" y="32px" /><rect fill="rgb(253,209,2)" height="5px" opacity="0.666666666667" width="5px" x="48px" y="32px" /><rect fill="rgb(253,209,2)" height="5px" opacity="0.376470588235" width="5px" x="52px" y="32px" /><rect fill="rgb(253,209,2)" height="5px" opacity="0.592156862745" width="5px" x="56px" y="32px" /><rect fill="rgb(253,209,2)" height="5px" opacity="0.956862745098" width="5px" x="60px" y="32px" /><rect fill="rgb(253,209,2)" height="5px" opacity="0.850980392157" width="5px" x="64px" y="32px" /><rect fill="rgb(253,209,2)" height="5px" opacity="0.262745098039" width="5px" x="68px" y="32px" /><rect fill="rgb(255,209,0)" height="5px" opacity="0.078431372549" width="5px" x="72px" y="32px" /><rect fill="rgb(254,209,1)" height="5px" opacity="0.152941176471" width="5px" x="76px" y="32px" /><rect fill="rgb(253,209,2)" height="5px" opacity="0.258823529412" width="5px" x="80px" y="32px" /><rect fill="rgb(253,209,2)" height="5px" opacity="0.294117647059" width="5px" x="84px" y="32px" /><rect fill="rgb(253,209,2)" height="5px" opacity="0.188235294118" width="5px" x="88px" y="32px" /><rect fill="rgb(255,213,0)" height="5px" opacity="0.0235294117647" width="5px" x="92px" y="32px" /><rect fill="rgb(255,208,0)" height="5px" opacity="0.0352941176471" width="5px" x="28px" y="36px" /><rect fill="rgb(254,209,1)" height="5px" opacity="0.211764705882" width="5px" x="32px" y="36px" /><rect fill="rgb(253,209,2)" height="5px" opacity="0.635294117647" width="5px" x="36px" y="36px" /><rect fill="rgb(253,209,2)" height="5px" opacity="0.988235294118" width="5px" x="40px" y="36px" /><rect fill="rgb(253,209,2)" height="5px" opacity="0.870588235294" width="5px" x="44px" y="36px" /><rect fill="rgb(253,209,2)" height="5px" opacity="0.447058823529" width="5px" x="48px" y="36px" /><rect fill="rgb(253,209,2)" height="5px" opacity="0.180392156863" width="5px" x="52px" y="36px" /><rect fill="rgb(253,209,2)" height="5px" opacity="0.501960784314" width="5px" x="56px" y="36px" /><rect fill="rgb(253,209,2)" height="5px" opacity="0.949019607843" width="5px" x="60px" y="36px" /><rect fill="rgb(253,209,2)" height="5px" opacity="0.847058823529" width="5px" x="64px" y="36px" /><rect fill="rgb(253,209,2)" height="5px" opacity="0.235294117647" width="5px" x="68px" y="36px" /><rect fill="rgb(255,209,0)" height="5px" opacity="0.0117647058824" width="5px" x="72px" y="36px" /><rect fill="rgb(254,209,1)" height="5px" opacity="0.0196078431373" width="5px" x="76px" y="36px" /><rect fill="rgb(253,209,2)" height="5px" opacity="0.0313725490196" width="5px" x="80px" y="36px" /><rect fill="rgb(253,209,2)" height="5px" opacity="0.0352941176471" width="5px" x="84px" y="36px" /><rect fill="rgb(253,209,2)" height="5px" opacity="0.0235294117647" width="5px" x="88px" y="36px" /><rect fill="rgb(255,213,0)" height="5px" opacity="0.00392156862745" width="5px" x="92px" y="36px" /><rect fill="rgb(255,208,0)" height="5px" opacity="0.0470588235294" width="5px" x="28px" y="40px" /><rect fill="rgb(254,209,1)" height="5px" opacity="0.243137254902" width="5px" x="32px" y="40px" /><rect fill="rgb(253,209,2)" height="5px" opacity="0.662745098039" width="5px" x="36px" y="40px" /><rect fill="rgb(253,209,2)" height="5px" width="5px" x="40px" y="40px" /><rect fill="rgb(253,209,2)" height="5px" opacity="0.858823529412" width="5px" x="44px" y="40px" /><rect fill="rgb(254,209,1)" height="5px" opacity="0.4" width="5px" x="48px" y="40px" /><rect fill="rgb(254,209,1)" height="5px" opacity="0.145098039216" width="5px" x="52px" y="40px" /><rect fill="rgb(253,209,2)" height="5px" opacity="0.490196078431" width="5px" x="56px" y="40px" /><rect fill="rgb(253,209,2)" height="5px" opacity="0.949019607843" width="5px" x="60px" y="40px" /><rect fill="rgb(253,209,2)" height="5px" opacity="0.847058823529" width="5px" x="64px" y="40px" /><rect fill="rgb(253,209,2)" height="5px" opacity="0.23137254902" width="5px" x="68px" y="40px" /><rect fill="rgb(255,208,0)" height="5px" opacity="0.0352941176471" width="5px" x="28px" y="44px" /><rect fill="rgb(254,209,1)" height="5px" opacity="0.219607843137" width="5px" x="32px" y="44px" /><rect fill="rgb(253,209,2)" height="5px" opacity="0.635294117647" width="5px" x="36px" y="44px" /><rect fill="rgb(253,209,2)" height="5px" opacity="0.988235294118" width="5px" x="40px" y="44px" /><rect fill="rgb(253,209,2)" height="5px" opacity="0.890196078431" width="5px" x="44px" y="44px" /><rect fill="rgb(253,209,2)" height="5px" opacity="0.521568627451" width="5px" x="48px" y="44px" /><rect fill="rgb(253,209,2)" height="5px" opacity="0.235294117647" width="5px" x="52px" y="44px" /><rect fill="rgb(253,209,2)" height="5px" opacity="0.521568627451" width="5px" x="56px" y="44px" /><rect fill="rgb(253,209,2)" height="5px" opacity="0.949019607843" width="5px" x="60px" y="44px" /><rect fill="rgb(253,209,2)" height="5px" opacity="0.847058823529" width="5px" x="64px" y="44px" /><rect fill="rgb(253,209,2)" height="5px" opacity="0.23137254902" width="5px" x="68px" y="44px" /><rect fill="rgb(255,207,0)" height="5px" opacity="0.0156862745098" width="5px" x="28px" y="48px" /><rect fill="rgb(253,209,2)" height="5px" opacity="0.156862745098" width="5px" x="32px" y="48px" /><rect fill="rgb(253,209,2)" height="5px" opacity="0.541176470588" width="5px" x="36px" y="48px" /><rect fill="rgb(253,209,2)" height="5px" opacity="0.917647058824" width="5px" x="40px" y="48px" /><rect fill="rgb(253,209,2)" height="5px" opacity="0.945098039216" width="5px" x="44px" y="48px" /><rect fill="rgb(253,209,2)" height="5px" opacity="0.749019607843" width="5px" x="48px" y="48px" /><rect fill="rgb(253,209,2)" height="5px" opacity="0.458823529412" width="5px" x="52px" y="48px" /><rect fill="rgb(253,209,2)" height="5px" opacity="0.623529411765" width="5px" x="56px" y="48px" /><rect fill="rgb(253,209,2)" height="5px" opacity="0.952941176471" width="5px" x="60px" y="48px" /><rect fill="rgb(253,209,2)" height="5px" opacity="0.847058823529" width="5px" x="64px" y="48px" /><rect fill="rgb(253,209,2)" height="5px" opacity="0.235294117647" width="5px" x="68px" y="48px" /><rect fill="rgb(255,206,0)" height="5px" opacity="0.00392156862745" width="5px" x="72px" y="48px" /><rect fill="rgb(253,209,2)" height="5px" opacity="0.0823529411765" width="5px" x="32px" y="52px" /><rect fill="rgb(253,209,2)" height="5px" opacity="0.364705882353" width="5px" x="36px" y="52px" /><rect fill="rgb(253,209,2)" height="5px" opacity="0.741176470588" width="5px" x="40px" y="52px" /><rect fill="rgb(253,209,2)" height="5px" opacity="0.960784313725" width="5px" x="44px" y="52px" /><rect fill="rgb(253,209,2)" height="5px" opacity="0.945098039216" width="5px" x="48px" y="52px" /><rect fill="rgb(253,209,2)" height="5px" opacity="0.756862745098" width="5px" x="52px" y="52px" /><rect fill="rgb(253,209,2)" height="5px" opacity="0.780392156863" width="5px" x="56px" y="52px" /><rect fill="rgb(253,209,2)" height="5px" opacity="0.941176470588" width="5px" x="60px" y="52px" /><rect fill="rgb(253,209,2)" height="5px" opacity="0.847058823529" width="5px" x="64px" y="52px" /><rect fill="rgb(253,209,2)" height="5px" opacity="0.270588235294" width="5px" x="68px" y="52px" /><rect fill="rgb(254,208,1)" height="5px" opacity="0.0313725490196" width="5px" x="72px" y="52px" /><rect fill="rgb(254,209,1)" height="5px" opacity="0.0117647058824" width="5px" x="76px" y="52px" /><rect fill="rgb(254,209,1)" height="5px" opacity="0.00392156862745" width="5px" x="80px" y="52px" /><rect fill="rgb(255,210,0)" height="5px" opacity="0.0235294117647" width="5px" x="32px" y="56px" /><rect fill="rgb(254,210,1)" height="5px" opacity="0.125490196078" width="5px" x="36px" y="56px" /><rect fill="rgb(253,209,2)" height="5px" opacity="0.43137254902" width="5px" x="40px" y="56px" /><rect fill="rgb(253,209,2)" height="5px" opacity="0.83137254902" width="5px" x="44px" y="56px" /><rect fill="rgb(253,209,2)" height="5px" opacity="0.941176470588" width="5px" x="48px" y="56px" /><rect fill="rgb(253,209,2)" height="5px" opacity="0.98431372549" width="5px" x="52px" y="56px" /><rect fill="rgb(253,209,2)" height="5px" opacity="0.929411764706" width="5px" x="56px" y="56px" /><rect fill="rgb(253,209,2)" height="5px" opacity="0.909803921569" width="5px" x="60px" y="56px" /><rect fill="rgb(253,209,2)" height="5px" opacity="0.866666666667" width="5px" x="64px" y="56px" /><rect fill="rgb(253,209,2)" height="5px" opacity="0.419607843137" width="5px" x="68px" y="56px" /><rect fill="rgb(254,209,1)" height="5px" opacity="0.176470588235" width="5px" x="72px" y="56px" /><rect fill="rgb(254,210,1)" height="5px" opacity="0.0980392156863" width="5px" x="76px" y="56px" /><rect fill="rgb(254,209,1)" height="5px" opacity="0.043137254902" width="5px" x="80px" y="56px" /><rect fill="rgb(255,207,0)" height="5px" opacity="0.0117647058824" width="5px" x="84px" y="56px" /><rect fill="rgb(255,211,0)" height="5px" opacity="0.0156862745098" width="5px" x="36px" y="60px" /><rect fill="rgb(255,211,0)" height="5px" opacity="0.0941176470588" width="5px" x="40px" y="60px" /><rect fill="rgb(253,210,2)" height="5px" opacity="0.333333333333" width="5px" x="44px" y="60px" /><rect fill="rgb(252,209,3)" height="5px" opacity="0.725490196078" width="5px" x="48px" y="60px" /><rect fill="rgb(253,209,2)" height="5px" opacity="0.937254901961" width="5px" x="52px" y="60px" /><rect fill="rgb(253,209,2)" height="5px" opacity="0.992156862745" width="5px" x="56px" y="60px" /><rect fill="rgb(253,209,2)" height="5px" opacity="0.992156862745" width="5px" x="60px" y="60px" /><rect fill="rgb(253,209,2)" height="5px" opacity="0.988235294118" width="5px" x="64px" y="60px" /><rect fill="rgb(253,209,2)" height="5px" opacity="0.949019607843" width="5px" x="68px" y="60px" /><rect fill="rgb(254,210,1)" height="5px" opacity="0.776470588235" width="5px" x="72px" y="60px" /><rect fill="rgb(254,210,1)" height="5px" opacity="0.498039215686" width="5px" x="76px" y="60px" /><rect fill="rgb(254,209,1)" height="5px" opacity="0.227450980392" width="5px" x="80px" y="60px" /><rect fill="rgb(255,207,0)" height="5px" opacity="0.0588235294118" width="5px" x="84px" y="60px" /><rect fill="rgb(255,211,0)" height="5px" opacity="0.00392156862745" width="5px" x="36px" y="64px" /><rect fill="rgb(255,211,0)" height="5px" opacity="0.0235294117647" width="5px" x="40px" y="64px" /><rect fill="rgb(253,210,2)" height="5px" opacity="0.0862745098039" width="5px" x="44px" y="64px" /><rect fill="rgb(253,209,2)" height="5px" opacity="0.21568627451" width="5px" x="48px" y="64px" /><rect fill="rgb(254,209,1)" height="5px" opacity="0.4" width="5px" x="52px" y="64px" /><rect fill="rgb(253,209,2)" height="5px" opacity="0.717647058824" width="5px" x="56px" y="64px" /><rect fill="rgb(253,209,2)" height="5px" opacity="0.972549019608" width="5px" x="60px" y="64px" /><rect fill="rgb(253,209,2)" height="5px" width="5px" x="64px" y="64px" /><rect fill="rgb(253,209,2)" height="5px" opacity="0.992156862745" width="5px" x="68px" y="64px" /><rect fill="rgb(253,209,2)" height="5px" opacity="0.945098039216" width="5px" x="72px" y="64px" /><rect fill="rgb(253,209,2)" height="5px" opacity="0.866666666667" width="5px" x="76px" y="64px" /><rect fill="rgb(253,209,2)" height="5px" opacity="0.713725490196" width="5px" x="80px" y="64px" /><rect fill="rgb(253,209,2)" height="5px" opacity="0.466666666667" width="5px" x="84px" y="64px" /><rect fill="rgb(253,209,2)" height="5px" opacity="0.188235294118" width="5px" x="88px" y="64px" /><rect fill="rgb(255,191,0)" height="5px" opacity="0.00392156862745" width="5px" x="92px" y="64px" /><rect fill="rgb(255,211,0)" height="5px" opacity="0.00392156862745" width="5px" x="40px" y="68px" /><rect fill="rgb(253,210,2)" height="5px" opacity="0.0117647058824" width="5px" x="44px" y="68px" /><rect fill="rgb(253,209,2)" height="5px" opacity="0.0392156862745" width="5px" x="48px" y="68px" /><rect fill="rgb(254,209,1)" height="5px" opacity="0.141176470588" width="5px" x="52px" y="68px" /><rect fill="rgb(253,209,2)" height="5px" opacity="0.564705882353" width="5px" x="56px" y="68px" /><rect fill="rgb(253,209,2)" height="5px" opacity="0.956862745098" width="5px" x="60px" y="68px" /><rect fill="rgb(253,209,2)" height="5px" opacity="0.956862745098" width="5px" x="64px" y="68px" /><rect fill="rgb(253,209,2)" height="5px" opacity="0.776470588235" width="5px" x="68px" y="68px" /><rect fill="rgb(253,209,2)" height="5px" opacity="0.835294117647" width="5px" x="72px" y="68px" /><rect fill="rgb(253,209,2)" height="5px" opacity="0.937254901961" width="5px" x="76px" y="68px" /><rect fill="rgb(253,209,2)" height="5px" opacity="0.917647058824" width="5px" x="80px" y="68px" /><rect fill="rgb(253,209,2)" height="5px" opacity="0.764705882353" width="5px" x="84px" y="68px" /><rect fill="rgb(253,209,2)" height="5px" opacity="0.478431372549" width="5px" x="88px" y="68px" /><rect fill="rgb(253,210,2)" height="5px" opacity="0.172549019608" width="5px" x="92px" y="68px" /><rect fill="rgb(255,210,0)" height="5px" opacity="0.00392156862745" width="5px" x="48px" y="72px" /><rect fill="rgb(254,209,1)" height="5px" opacity="0.0549019607843" width="5px" x="52px" y="72px" /><rect fill="rgb(253,209,2)" height="5px" opacity="0.501960784314" width="5px" x="56px" y="72px" /><rect fill="rgb(253,209,2)" height="5px" opacity="0.949019607843" width="5px" x="60px" y="72px" /><rect fill="rgb(253,209,2)" height="5px" opacity="0.898039215686" width="5px" x="64px" y="72px" /><rect fill="rgb(253,209,2)" height="5px" opacity="0.498039215686" width="5px" x="68px" y="72px" /><rect fill="rgb(253,209,2)" height="5px" opacity="0.505882352941" width="5px" x="72px" y="72px" /><rect fill="rgb(253,209,2)" height="5px" opacity="0.745098039216" width="5px" x="76px" y="72px" /><rect fill="rgb(253,209,2)" height="5px" opacity="0.909803921569" width="5px" x="80px" y="72px" /><rect fill="rgb(253,209,2)" height="5px" opacity="0.909803921569" width="5px" x="84px" y="72px" /><rect fill="rgb(253,209,2)" height="5px" opacity="0.725490196078" width="5px" x="88px" y="72px" /><rect fill="rgb(253,209,2)" height="5px" opacity="0.388235294118" width="5px" x="92px" y="72px" /><rect fill="rgb(255,219,0)" height="5px" opacity="0.0078431372549" width="5px" x="96px" y="72px" /><rect fill="rgb(253,209,2)" height="5px" opacity="0.0392156862745" width="5px" x="52px" y="76px" /><rect fill="rgb(253,209,2)" height="5px" opacity="0.490196078431" width="5px" x="56px" y="76px" /><rect fill="rgb(253,209,2)" height="5px" opacity="0.949019607843" width="5px" x="60px" y="76px" /><rect fill="rgb(253,209,2)" height="5px" opacity="0.858823529412" width="5px" x="64px" y="76px" /><rect fill="rgb(253,209,2)" height="5px" opacity="0.301960784314" width="5px" x="68px" y="76px" /><rect fill="rgb(253,209,2)" height="5px" opacity="0.176470588235" width="5px" x="72px" y="76px" /><rect fill="rgb(253,209,2)" height="5px" opacity="0.454901960784" width="5px" x="76px" y="76px" /><rect fill="rgb(253,209,2)" height="5px" opacity="0.772549019608" width="5px" x="80px" y="76px" /><rect fill="rgb(253,209,2)" height="5px" opacity="0.929411764706" width="5px" x="84px" y="76px" /><rect fill="rgb(253,209,2)" height="5px" opacity="0.874509803922" width="5px" x="88px" y="76px" /><rect fill="rgb(253,209,2)" height="5px" opacity="0.552941176471" width="5px" x="92px" y="76px" /><rect fill="rgb(255,211,0)" height="5px" opacity="0.0392156862745" width="5px" x="96px" y="76px" /><rect fill="rgb(255,210,0)" height="5px" opacity="0.00392156862745" width="5px" x="100px" y="76px" /><rect fill="rgb(253,209,2)" height="5px" opacity="0.0392156862745" width="5px" x="52px" y="80px" /><rect fill="rgb(253,209,2)" height="5px" opacity="0.490196078431" width="5px" x="56px" y="80px" /><rect fill="rgb(253,209,2)" height="5px" opacity="0.949019607843" width="5px" x="60px" y="80px" /><rect fill="rgb(253,209,2)" height="5px" opacity="0.847058823529" width="5px" x="64px" y="80px" /><rect fill="rgb(253,209,2)" height="5px" opacity="0.235294117647" width="5px" x="68px" y="80px" /><rect fill="rgb(255,207,0)" height="5px" opacity="0.0235294117647" width="5px" x="72px" y="80px" /><rect fill="rgb(253,209,2)" height="5px" opacity="0.243137254902" width="5px" x="76px" y="80px" /><rect fill="rgb(253,209,2)" height="5px" opacity="0.6" width="5px" x="80px" y="80px" /><rect fill="rgb(253,209,2)" height="5px" opacity="0.878431372549" width="5px" x="84px" y="80px" /><rect fill="rgb(253,209,2)" height="5px" opacity="0.929411764706" width="5px" x="88px" y="80px" /><rect fill="rgb(253,209,2)" height="5px" opacity="0.639215686275" width="5px" x="92px" y="80px" /><rect fill="rgb(255,208,0)" height="5px" opacity="0.0901960784314" width="5px" x="96px" y="80px" /><rect fill="rgb(255,208,0)" height="5px" opacity="0.0078431372549" width="5px" x="100px" y="80px" /><rect fill="rgb(253,209,2)" height="5px" opacity="0.0392156862745" width="5px" x="52px" y="84px" /><rect fill="rgb(253,209,2)" height="5px" opacity="0.490196078431" width="5px" x="56px" y="84px" /><rect fill="rgb(253,209,2)" height="5px" opacity="0.949019607843" width="5px" x="60px" y="84px" /><rect fill="rgb(253,209,2)" height="5px" opacity="0.847058823529" width="5px" x="64px" y="84px" /><rect fill="rgb(253,209,2)" height="5px" opacity="0.23137254902" width="5px" x="68px" y="84px" /><rect fill="rgb(253,210,2)" height="5px" opacity="0.164705882353" width="5px" x="76px" y="84px" /><rect fill="rgb(253,209,2)" height="5px" opacity="0.505882352941" width="5px" x="80px" y="84px" /><rect fill="rgb(253,209,2)" height="5px" opacity="0.843137254902" width="5px" x="84px" y="84px" /><rect fill="rgb(253,209,2)" height="5px" opacity="0.937254901961" width="5px" x="88px" y="84px" /><rect fill="rgb(253,209,2)" height="5px" opacity="0.654901960784" width="5px" x="92px" y="84px" /><rect fill="rgb(255,207,0)" height="5px" opacity="0.105882352941" width="5px" x="96px" y="84px" /><rect fill="rgb(255,207,0)" height="5px" opacity="0.0078431372549" width="5px" x="100px" y="84px" /><rect fill="rgb(253,209,2)" height="5px" opacity="0.0392156862745" width="5px" x="52px" y="88px" /><rect fill="rgb(253,209,2)" height="5px" opacity="0.490196078431" width="5px" x="56px" y="88px" /><rect fill="rgb(253,209,2)" height="5px" opacity="0.949019607843" width="5px" x="60px" y="88px" /><rect fill="rgb(253,209,2)" height="5px" opacity="0.847058823529" width="5px" x="64px" y="88px" /><rect fill="rgb(253,209,2)" height="5px" opacity="0.23137254902" width="5px" x="68px" y="88px" /><rect fill="rgb(253,210,2)" height="5px" opacity="0.2" width="5px" x="76px" y="88px" /><rect fill="rgb(253,209,2)" height="5px" opacity="0.560784313725" width="5px" x="80px" y="88px" /><rect fill="rgb(253,209,2)" height="5px" opacity="0.862745098039" width="5px" x="84px" y="88px" /><rect fill="rgb(253,209,2)" height="5px" opacity="0.917647058824" width="5px" x="88px" y="88px" /><rect fill="rgb(253,209,2)" height="5px" opacity="0.61568627451" width="5px" x="92px" y="88px" /><rect fill="rgb(255,208,0)" height="5px" opacity="0.0666666666667" width="5px" x="96px" y="88px" /><rect fill="rgb(255,207,0)" height="5px" opacity="0.00392156862745" width="5px" x="100px" y="88px" /><rect fill="rgb(253,209,2)" height="5px" opacity="0.0274509803922" width="5px" x="28px" y="92px" /><rect fill="rgb(253,209,2)" height="5px" opacity="0.078431372549" width="5px" x="32px" y="92px" /><rect fill="rgb(253,209,2)" height="5px" opacity="0.121568627451" width="5px" x="36px" y="92px" /><rect fill="rgb(252,209,3)" height="5px" opacity="0.117647058824" width="5px" x="40px" y="92px" /><rect fill="rgb(253,210,2)" height="5px" opacity="0.0745098039216" width="5px" x="44px" y="92px" /><rect fill="rgb(254,209,1)" height="5px" opacity="0.0392156862745" width="5px" x="48px" y="92px" /><rect fill="rgb(254,210,1)" height="5px" opacity="0.0588235294118" width="5px" x="52px" y="92px" /><rect fill="rgb(253,209,2)" height="5px" opacity="0.494117647059" width="5px" x="56px" y="92px" /><rect fill="rgb(253,209,2)" height="5px" opacity="0.949019607843" width="5px" x="60px" y="92px" /><rect fill="rgb(253,209,2)" height="5px" opacity="0.854901960784" width="5px" x="64px" y="92px" /><rect fill="rgb(253,209,2)" height="5px" opacity="0.274509803922" width="5px" x="68px" y="92px" /><rect fill="rgb(252,211,3)" height="5px" opacity="0.105882352941" width="5px" x="72px" y="92px" /><rect fill="rgb(253,210,2)" height="5px" opacity="0.380392156863" width="5px" x="76px" y="92px" /><rect fill="rgb(253,209,2)" height="5px" opacity="0.733333333333" width="5px" x="80px" y="92px" /><rect fill="rgb(253,209,2)" height="5px" opacity="0.909803921569" width="5px" x="84px" y="92px" /><rect fill="rgb(253,209,2)" height="5px" opacity="0.835294117647" width="5px" x="88px" y="92px" /><rect fill="rgb(253,209,2)" height="5px" opacity="0.498039215686" width="5px" x="92px" y="92px" /><rect fill="rgb(255,219,0)" height="5px" opacity="0.0078431372549" width="5px" x="96px" y="92px" /><rect fill="rgb(253,209,2)" height="5px" opacity="0.113725490196" width="5px" x="28px" y="96px" /><rect fill="rgb(253,209,2)" height="5px" opacity="0.349019607843" width="5px" x="32px" y="96px" /><rect fill="rgb(253,209,2)" height="5px" opacity="0.549019607843" width="5px" x="36px" y="96px" /><rect fill="rgb(252,209,3)" height="5px" opacity="0.541176470588" width="5px" x="40px" y="96px" /><rect fill="rgb(253,210,2)" height="5px" opacity="0.372549019608" width="5px" x="44px" y="96px" /><rect fill="rgb(254,209,1)" height="5px" opacity="0.243137254902" width="5px" x="48px" y="96px" /><rect fill="rgb(254,210,1)" height="5px" opacity="0.192156862745" width="5px" x="52px" y="96px" /><rect fill="rgb(253,209,2)" height="5px" opacity="0.552941176471" width="5px" x="56px" y="96px" /><rect fill="rgb(253,209,2)" height="5px" opacity="0.952941176471" width="5px" x="60px" y="96px" /><rect fill="rgb(253,209,2)" height="5px" opacity="0.890196078431" width="5px" x="64px" y="96px" /><rect fill="rgb(253,209,2)" height="5px" opacity="0.466666666667" width="5px" x="68px" y="96px" /><rect fill="rgb(252,209,3)" height="5px" opacity="0.478431372549" width="5px" x="72px" y="96px" /><rect fill="rgb(253,209,2)" height="5px" opacity="0.729411764706" width="5px" x="76px" y="96px" /><rect fill="rgb(253,209,2)" height="5px" opacity="0.898039215686" width="5px" x="80px" y="96px" /><rect fill="rgb(253,209,2)" height="5px" opacity="0.878431372549" width="5px" x="84px" y="96px" /><rect fill="rgb(253,209,2)" height="5px" opacity="0.639215686275" width="5px" x="88px" y="96px" /><rect fill="rgb(252,210,3)" height="5px" opacity="0.282352941176" width="5px" x="92px" y="96px" /><rect fill="rgb(253,209,2)" height="5px" opacity="0.141176470588" width="5px" x="28px" y="100px" /><rect fill="rgb(253,209,2)" height="5px" opacity="0.443137254902" width="5px" x="32px" y="100px" /><rect fill="rgb(253,209,2)" height="5px" opacity="0.749019607843" width="5px" x="36px" y="100px" /><rect fill="rgb(253,209,2)" height="5px" opacity="0.850980392157" width="5px" x="40px" y="100px" /><rect fill="rgb(253,209,2)" height="5px" opacity="0.76862745098" width="5px" x="44px" y="100px" /><rect fill="rgb(253,209,2)" height="5px" opacity="0.701960784314" width="5px" x="48px" y="100px" /><rect fill="rgb(253,209,2)" height="5px" opacity="0.670588235294" width="5px" x="52px" y="100px" /><rect fill="rgb(253,209,2)" height="5px" opacity="0.81568627451" width="5px" x="56px" y="100px" /><rect fill="rgb(253,209,2)" height="5px" opacity="0.980392156863" width="5px" x="60px" y="100px" /><rect fill="rgb(253,209,2)" height="5px" opacity="0.956862745098" width="5px" x="64px" y="100px" /><rect fill="rgb(253,209,2)" height="5px" opacity="0.792156862745" width="5px" x="68px" y="100px" /><rect fill="rgb(253,209,2)" height="5px" opacity="0.823529411765" width="5px" x="72px" y="100px" /><rect fill="rgb(253,209,2)" height="5px" opacity="0.917647058824" width="5px" x="76px" y="100px" /><rect fill="rgb(253,209,2)" height="5px" opacity="0.882352941176" width="5px" x="80px" y="100px" /><rect fill="rgb(253,209,2)" height="5px" opacity="0.674509803922" width="5px" x="84px" y="100px" /><rect fill="rgb(253,209,2)" height="5px" opacity="0.360784313725" width="5px" x="88px" y="100px" /><rect fill="rgb(252,210,3)" height="5px" opacity="0.0901960784314" width="5px" x="92px" y="100px" /><rect fill="rgb(253,209,2)" height="5px" opacity="0.0823529411765" width="5px" x="28px" y="104px" /><rect fill="rgb(253,209,2)" height="5px" opacity="0.290196078431" width="5px" x="32px" y="104px" /><rect fill="rgb(253,209,2)" height="5px" opacity="0.560784313725" width="5px" x="36px" y="104px" /><rect fill="rgb(253,209,2)" height="5px" opacity="0.76862745098" width="5px" x="40px" y="104px" /><rect fill="rgb(253,209,2)" height="5px" opacity="0.854901960784" width="5px" x="44px" y="104px" /><rect fill="rgb(253,209,2)" height="5px" opacity="0.917647058824" width="5px" x="48px" y="104px" /><rect fill="rgb(253,209,2)" height="5px" opacity="0.964705882353" width="5px" x="52px" y="104px" /><rect fill="rgb(253,209,2)" height="5px" opacity="0.992156862745" width="5px" x="56px" y="104px" /><rect fill="rgb(253,209,2)" height="5px" opacity="0.992156862745" width="5px" x="60px" y="104px" /><rect fill="rgb(253,209,2)" height="5px" opacity="0.972549019608" width="5px" x="64px" y="104px" /><rect fill="rgb(253,209,2)" height="5px" opacity="0.925490196078" width="5px" x="68px" y="104px" /><rect fill="rgb(253,209,2)" height="5px" opacity="0.850980392157" width="5px" x="72px" y="104px" /><rect fill="rgb(253,209,2)" height="5px" opacity="0.745098039216" width="5px" x="76px" y="104px" /><rect fill="rgb(253,209,2)" height="5px" opacity="0.56862745098" width="5px" x="80px" y="104px" /><rect fill="rgb(253,209,2)" height="5px" opacity="0.333333333333" width="5px" x="84px" y="104px" /><rect fill="rgb(253,209,2)" height="5px" opacity="0.121568627451" width="5px" x="88px" y="104px" /><rect fill="rgb(252,210,3)" height="5px" opacity="0.00392156862745" width="5px" x="92px" y="104px" /><rect fill="rgb(253,208,2)" height="5px" opacity="0.0117647058824" width="5px" x="28px" y="108px" /><rect fill="rgb(253,209,2)" height="5px" opacity="0.0745098039216" width="5px" x="32px" y="108px" /><rect fill="rgb(252,210,3)" height="5px" opacity="0.211764705882" width="5px" x="36px" y="108px" /><rect fill="rgb(253,209,2)" height="5px" opacity="0.388235294118" width="5px" x="40px" y="108px" /><rect fill="rgb(253,209,2)" height="5px" opacity="0.525490196078" width="5px" x="44px" y="108px" /><rect fill="rgb(253,209,2)" height="5px" opacity="0.627450980392" width="5px" x="48px" y="108px" /><rect fill="rgb(253,209,2)" height="5px" opacity="0.713725490196" width="5px" x="52px" y="108px" /><rect fill="rgb(253,209,2)" height="5px" opacity="0.862745098039" width="5px" x="56px" y="108px" /><rect fill="rgb(253,209,2)" height="5px" opacity="0.976470588235" width="5px" x="60px" y="108px" /><rect fill="rgb(253,209,2)" height="5px" opacity="0.921568627451" width="5px" x="64px" y="108px" /><rect fill="rgb(253,208,2)" height="5px" opacity="0.694117647059" width="5px" x="68px" y="108px" /><rect fill="rgb(253,208,2)" height="5px" opacity="0.517647058824" width="5px" x="72px" y="108px" /><rect fill="rgb(253,209,2)" height="5px" opacity="0.349019607843" width="5px" x="76px" y="108px" /><rect fill="rgb(254,209,1)" height="5px" opacity="0.180392156863" width="5px" x="80px" y="108px" /><rect fill="rgb(254,209,1)" height="5px" opacity="0.0666666666667" width="5px" x="84px" y="108px" /><rect fill="rgb(253,209,2)" height="5px" opacity="0.0156862745098" width="5px" x="88px" y="108px" /><rect fill="rgb(252,209,3)" height="5px" opacity="0.0078431372549" width="5px" x="32px" y="112px" /><rect fill="rgb(252,210,3)" height="5px" opacity="0.0352941176471" width="5px" x="36px" y="112px" /><rect fill="rgb(252,210,3)" height="5px" opacity="0.0745098039216" width="5px" x="40px" y="112px" /><rect fill="rgb(253,209,2)" height="5px" opacity="0.105882352941" width="5px" x="44px" y="112px" /><rect fill="rgb(253,209,2)" height="5px" opacity="0.129411764706" width="5px" x="48px" y="112px" /><rect fill="rgb(253,209,2)" height="5px" opacity="0.180392156863" width="5px" x="52px" y="112px" /><rect fill="rgb(253,209,2)" height="5px" opacity="0.564705882353" width="5px" x="56px" y="112px" /><rect fill="rgb(253,209,2)" height="5px" opacity="0.952941176471" width="5px" x="60px" y="112px" /><rect fill="rgb(253,209,2)" height="5px" opacity="0.858823529412" width="5px" x="64px" y="112px" /><rect fill="rgb(253,209,2)" height="5px" opacity="0.325490196078" width="5px" x="68px" y="112px" /><rect fill="rgb(253,208,2)" height="5px" opacity="0.101960784314" width="5px" x="72px" y="112px" /><rect fill="rgb(253,208,2)" height="5px" opacity="0.0627450980392" width="5px" x="76px" y="112px" /><rect fill="rgb(254,209,1)" height="5px" opacity="0.0274509803922" width="5px" x="80px" y="112px" /><rect fill="rgb(255,210,0)" height="5px" opacity="0.0078431372549" width="5px" x="84px" y="112px" /><rect fill="rgb(255,204,0)" height="5px" opacity="0.0078431372549" width="5px" x="44px" y="116px" /><rect fill="rgb(255,204,0)" height="5px" opacity="0.0196078431373" width="5px" x="48px" y="116px" /><rect fill="rgb(253,208,2)" height="5px" opacity="0.0470588235294" width="5px" x="52px" y="116px" /><rect fill="rgb(253,209,2)" height="5px" opacity="0.490196078431" width="5px" x="56px" y="116px" /><rect fill="rgb(253,209,2)" height="5px" opacity="0.949019607843" width="5px" x="60px" y="116px" /><rect fill="rgb(253,209,2)" height="5px" opacity="0.847058823529" width="5px" x="64px" y="116px" /><rect fill="rgb(253,209,2)" height="5px" opacity="0.23137254902" width="5px" x="68px" y="116px" /><rect fill="rgb(255,204,0)" height="5px" opacity="0.00392156862745" width="5px" x="44px" y="120px" /><rect fill="rgb(255,204,0)" height="5px" opacity="0.0117647058824" width="5px" x="48px" y="120px" /><rect fill="rgb(253,208,2)" height="5px" opacity="0.0274509803922" width="5px" x="52px" y="120px" /><rect fill="rgb(253,209,2)" height="5px" opacity="0.243137254902" width="5px" x="56px" y="120px" /><rect fill="rgb(253,209,2)" height="5px" opacity="0.470588235294" width="5px" x="60px" y="120px" /><rect fill="rgb(253,209,2)" height="5px" opacity="0.419607843137" width="5px" x="64px" y="120px" /><rect fill="rgb(253,209,2)" height="5px" opacity="0.113725490196" width="5px" x="68px" y="120px" /><rect fill="rgb(254,207,1)" height="5px" opacity="0.00392156862745" width="5px" x="52px" y="124px" /><rect fill="rgb(253,209,2)" height="5px" opacity="0.0392156862745" width="5px" x="56px" y="124px" /><rect fill="rgb(253,209,2)" height="5px" opacity="0.0745098039216" width="5px" x="60px" y="124px" /><rect fill="rgb(253,209,2)" height="5px" opacity="0.0666666666667" width="5px" x="64px" y="124px" /><rect fill="rgb(253,209,2)" height="5px" opacity="0.0196078431373" width="5px" x="68px" y="124px" /></svg>