<?xml version="1.0" encoding="utf-8" ?>
<svg baseProfile="full" height="128px" version="1.1" width="128px" xmlns="http://www.w3.org/2000/svg" xmlns:ev="http://www.w3.org/2001/xml-events" xmlns:xlink="http://www.w3.org/1999/xlink"><defs /><rect fill="rgb(23,255,255)" height="5px" width="5px" x="12px" y="0px" /><rect fill="rgb(23,255,255)" height="5px" width="5px" x="16px" y="0px" /><rect fill="rgb(172,0,0)" height="5px" opacity="0.18431372549" width="5px" x="40px" y="0px" /><rect fill="rgb(142,0,0)" height="5px" opacity="0.639215686275" width="5px" x="44px" y="0px" /><rect fill="rgb(213,76,76)" height="5px" opacity="0.941176470588" width="5px" x="48px" y="0px" /><rect fill="rgb(0,14,14)" height="5px" opacity="0.694117647059" width="5px" x="52px" y="0px" /><rect fill="rgb(23,255,255)" height="5px" width="5px" x="12px" y="4px" /><rect fill="rgb(176,0,0)" height="5px" opacity="0.16862745098" width="5px" x="32px" y="4px" /><rect fill="rgb(152,0,0)" height="5px" opacity="0.623529411765" width="5px" x="36px" y="4px" /><rect fill="rgb(20,0,0)" height="5px" opacity="0.921568627451" width="5px" x="40px" y="4px" /><rect fill="rgb(174,0,0)" height="5px" opacity="0.466666666667" width="5px" x="44px" y="4px" /><rect fill="rgb(169,0,0)" height="5px" opacity="0.0117647058824" width="5px" x="48px" y="4px" /><rect fill="rgb(0,246,246)" height="5px" opacity="0.917647058824" width="5px" x="52px" y="4px" /><rect fill="rgb(0,10,10)" height="5px" opacity="0.254901960784" width="5px" x="56px" y="4px" /><rect fill="rgb(23,255,255)" height="5px" width="5px" x="12px" y="8px" /><rect fill="rgb(0,77,0)" height="5px" opacity="0.152941176471" width="5px" x="24px" y="8px" /><rect fill="rgb(4,53,0)" height="5px" opacity="0.607843137255" width="5px" x="28px" y="8px" /><rect fill="rgb(16,0,0)" height="5px" opacity="0.937254901961" width="5px" x="32px" y="8px" /><rect fill="rgb(177,0,0)" height="5px" opacity="0.482352941176" width="5px" x="36px" y="8px" /><rect fill="rgb(108,0,0)" height="5px" opacity="0.0274509803922" width="5px" x="40px" y="8px" /><rect fill="rgb(175,0,0)" height="5px" opacity="0.419607843137" width="5px" x="44px" y="8px" /><rect fill="rgb(35,0,0)" height="5px" opacity="0.874509803922" width="5px" x="48px" y="8px" /><rect fill="rgb(182,97,97)" height="5px" opacity="0.796078431373" width="5px" x="52px" y="8px" /><rect fill="rgb(0,15,15)" height="5px" opacity="0.709803921569" width="5px" x="56px" y="8px" /><rect fill="rgb(23,255,255)" height="5px" width="5px" x="12px" y="12px" /><rect fill="rgb(0,71,0)" height="5px" opacity="0.137254901961" width="5px" x="16px" y="12px" /><rect fill="rgb(0,78,0)" height="5px" opacity="0.592156862745" width="5px" x="20px" y="12px" /><rect fill="rgb(0,11,0)" height="5px" opacity="0.952941176471" width="5px" x="24px" y="12px" /><rect fill="rgb(0,81,0)" height="5px" opacity="0.498039215686" width="5px" x="28px" y="12px" /><rect fill="rgb(162,115,0)" height="5px" opacity="0.043137254902" width="5px" x="32px" y="12px" /><rect fill="rgb(177,0,0)" height="5px" opacity="0.403921568627" width="5px" x="36px" y="12px" /><rect fill="rgb(40,0,0)" height="5px" opacity="0.858823529412" width="5px" x="40px" y="12px" /><rect fill="rgb(115,0,0)" height="5px" opacity="0.686274509804" width="5px" x="44px" y="12px" /><rect fill="rgb(173,0,0)" height="5px" opacity="0.223529411765" width="5px" x="48px" y="12px" /><rect fill="rgb(48,223,0)" height="5px" opacity="0.223529411765" width="5px" x="52px" y="12px" /><rect fill="rgb(0,10,212)" height="5px" opacity="0.945098039216" width="5px" x="56px" y="12px" /><rect fill="rgb(0,13,13)" height="5px" opacity="0.270588235294" width="5px" x="60px" y="12px" /><rect fill="rgb(0,17,17)" height="5px" opacity="0.333333333333" width="5px" x="12px" y="16px" /><rect fill="rgb(0,3,64)" height="5px" opacity="0.98431372549" width="5px" x="16px" y="16px" /><rect fill="rgb(0,80,0)" height="5px" opacity="0.513725490196" width="5px" x="20px" y="16px" /><rect fill="rgb(0,33,0)" height="5px" opacity="0.0588235294118" width="5px" x="24px" y="16px" /><rect fill="rgb(0,78,0)" height="5px" opacity="0.388235294118" width="5px" x="28px" y="16px" /><rect fill="rgb(0,46,0)" height="5px" opacity="0.843137254902" width="5px" x="32px" y="16px" /><rect fill="rgb(107,0,0)" height="5px" opacity="0.701960784314" width="5px" x="36px" y="16px" /><rect fill="rgb(177,0,0)" height="5px" opacity="0.247058823529" width="5px" x="40px" y="16px" /><rect fill="rgb(49,220,0)" height="5px" opacity="0.2" width="5px" x="44px" y="16px" /><rect fill="rgb(51,224,0)" height="5px" opacity="0.662745098039" width="5px" x="48px" y="16px" /><rect fill="rgb(33,225,0)" height="5px" opacity="0.882352941176" width="5px" x="52px" y="16px" /><rect fill="rgb(91,255,78)" height="5px" opacity="0.647058823529" width="5px" x="56px" y="16px" /><rect fill="rgb(0,16,16)" height="5px" opacity="0.725490196078" width="5px" x="60px" y="16px" /><rect fill="rgb(0,15,15)" height="5px" opacity="0.121568627451" width="5px" x="12px" y="20px" /><rect fill="rgb(0,3,3)" height="5px" opacity="0.98431372549" width="5px" x="16px" y="20px" /><rect fill="rgb(0,61,0)" height="5px" opacity="0.43137254902" width="5px" x="20px" y="20px" /><rect fill="rgb(0,52,0)" height="5px" opacity="0.827450980392" width="5px" x="24px" y="20px" /><rect fill="rgb(0,81,0)" height="5px" opacity="0.717647058824" width="5px" x="28px" y="20px" /><rect fill="rgb(0,71,0)" height="5px" opacity="0.262745098039" width="5px" x="32px" y="20px" /><rect fill="rgb(119,103,21)" height="5px" opacity="0.18431372549" width="5px" x="36px" y="20px" /><rect fill="rgb(50,223,0)" height="5px" opacity="0.639215686275" width="5px" x="40px" y="20px" /><rect fill="rgb(25,225,0)" height="5px" opacity="0.905882352941" width="5px" x="44px" y="20px" /><rect fill="rgb(48,227,0)" height="5px" opacity="0.443137254902" width="5px" x="48px" y="20px" /><rect fill="rgb(0,0,0)" height="5px" opacity="0.00392156862745" width="5px" x="52px" y="20px" /><rect fill="rgb(0,77,0)" height="5px" opacity="0.458823529412" width="5px" x="56px" y="20px" /><rect fill="rgb(0,3,198)" height="5px" opacity="0.98431372549" width="5px" x="60px" y="20px" /><rect fill="rgb(0,9,9)" height="5px" opacity="0.286274509804" width="5px" x="64px" y="20px" /><rect fill="rgb(0,16,16)" height="5px" opacity="0.560784313725" width="5px" x="16px" y="24px" /><rect fill="rgb(0,34,101)" height="5px" opacity="0.878431372549" width="5px" x="20px" y="24px" /><rect fill="rgb(0,81,0)" height="5px" opacity="0.278431372549" width="5px" x="24px" y="24px" /><rect fill="rgb(0,11,207)" height="5px" opacity="0.16862745098" width="5px" x="28px" y="24px" /><rect fill="rgb(0,11,227)" height="5px" opacity="0.623529411765" width="5px" x="32px" y="24px" /><rect fill="rgb(0,18,221)" height="5px" opacity="0.921568627451" width="5px" x="36px" y="24px" /><rect fill="rgb(16,203,0)" height="5px" opacity="0.466666666667" width="5px" x="40px" y="24px" /><rect fill="rgb(0,0,0)" height="5px" opacity="0.00392156862745" width="5px" x="44px" y="24px" /><rect fill="rgb(0,75,0)" height="5px" opacity="0.443137254902" width="5px" x="48px" y="24px" /><rect fill="rgb(0,27,0)" height="5px" opacity="0.898039215686" width="5px" x="52px" y="24px" /><rect fill="rgb(0,77,0)" height="5px" opacity="0.647058823529" width="5px" x="56px" y="24px" /><rect fill="rgb(0,33,159)" height="5px" opacity="0.490196078431" width="5px" x="60px" y="24px" /><rect fill="rgb(0,15,15)" height="5px" opacity="0.741176470588" width="5px" x="64px" y="24px" /><rect fill="rgb(0,8,8)" height="5px" opacity="0.105882352941" width="5px" x="16px" y="28px" /><rect fill="rgb(0,255,255)" height="5px" width="5px" x="20px" y="28px" /><rect fill="rgb(0,58,235)" height="5px" opacity="0.650980392157" width="5px" x="24px" y="28px" /><rect fill="rgb(0,14,228)" height="5px" opacity="0.937254901961" width="5px" x="28px" y="28px" /><rect fill="rgb(0,14,225)" height="5px" opacity="0.482352941176" width="5px" x="32px" y="28px" /><rect fill="rgb(0,0,182)" height="5px" opacity="0.0274509803922" width="5px" x="36px" y="28px" /><rect fill="rgb(224,104,0)" height="5px" opacity="0.419607843137" width="5px" x="40px" y="28px" /><rect fill="rgb(0,33,0)" height="5px" opacity="0.882352941176" width="5px" x="44px" y="28px" /><rect fill="rgb(0,77,0)" height="5px" opacity="0.662745098039" width="5px" x="48px" y="28px" /><rect fill="rgb(0,71,0)" height="5px" opacity="0.207843137255" width="5px" x="52px" y="28px" /><rect fill="rgb(0,12,221)" height="5px" opacity="0.239215686275" width="5px" x="56px" y="28px" /><rect fill="rgb(0,14,227)" height="5px" opacity="0.694117647059" width="5px" x="60px" y="28px" /><rect fill="rgb(0,228,7)" height="5px" opacity="0.96862745098" width="5px" x="64px" y="28px" /><rect fill="rgb(0,12,12)" height="5px" opacity="0.301960784314" width="5px" x="68px" y="28px" /><rect fill="rgb(0,13,13)" height="5px" opacity="0.545098039216" width="5px" x="20px" y="32px" /><rect fill="rgb(0,201,1)" height="5px" opacity="0.780392156863" width="5px" x="24px" y="32px" /><rect fill="rgb(0,0,162)" height="5px" opacity="0.043137254902" width="5px" x="28px" y="32px" /><rect fill="rgb(177,0,0)" height="5px" opacity="0.403921568627" width="5px" x="32px" y="32px" /><rect fill="rgb(40,0,0)" height="5px" opacity="0.858823529412" width="5px" x="36px" y="32px" /><rect fill="rgb(119,0,0)" height="5px" opacity="0.678431372549" width="5px" x="40px" y="32px" /><rect fill="rgb(26,25,0)" height="5px" opacity="0.223529411765" width="5px" x="44px" y="32px" /><rect fill="rgb(0,13,228)" height="5px" opacity="0.223529411765" width="5px" x="48px" y="32px" /><rect fill="rgb(0,14,228)" height="5px" opacity="0.678431372549" width="5px" x="52px" y="32px" /><rect fill="rgb(0,15,228)" height="5px" opacity="0.866666666667" width="5px" x="56px" y="32px" /><rect fill="rgb(0,9,221)" height="5px" opacity="0.411764705882" width="5px" x="60px" y="32px" /><rect fill="rgb(0,16,16)" height="5px" opacity="0.352941176471" width="5px" x="64px" y="32px" /><rect fill="rgb(0,11,11)" height="5px" opacity="0.388235294118" width="5px" x="68px" y="32px" /><rect fill="rgb(0,243,243)" height="5px" opacity="0.0901960784314" width="5px" x="20px" y="36px" /><rect fill="rgb(0,3,3)" height="5px" opacity="0.98431372549" width="5px" x="24px" y="36px" /><rect fill="rgb(39,0,0)" height="5px" opacity="0.862745098039" width="5px" x="28px" y="36px" /><rect fill="rgb(107,0,0)" height="5px" opacity="0.701960784314" width="5px" x="32px" y="36px" /><rect fill="rgb(177,0,0)" height="5px" opacity="0.247058823529" width="5px" x="36px" y="36px" /><rect fill="rgb(47,226,0)" height="5px" opacity="0.207843137255" width="5px" x="40px" y="36px" /><rect fill="rgb(161,134,0)" height="5px" opacity="0.662745098039" width="5px" x="44px" y="36px" /><rect fill="rgb(0,11,227)" height="5px" opacity="0.882352941176" width="5px" x="48px" y="36px" /><rect fill="rgb(0,14,224)" height="5px" opacity="0.427450980392" width="5px" x="52px" y="36px" /><rect fill="rgb(0,14,14)" height="5px" opacity="0.827450980392" width="5px" x="64px" y="36px" /><rect fill="rgb(0,6,6)" height="5px" opacity="0.133333333333" width="5px" x="68px" y="36px" /><rect fill="rgb(0,12,12)" height="5px" opacity="0.529411764706" width="5px" x="24px" y="40px" /><rect fill="rgb(14,214,214)" height="5px" opacity="0.686274509804" width="5px" x="28px" y="40px" /><rect fill="rgb(47,227,0)" height="5px" opacity="0.18431372549" width="5px" x="32px" y="40px" /><rect fill="rgb(50,224,0)" height="5px" opacity="0.647058823529" width="5px" x="36px" y="40px" /><rect fill="rgb(27,227,0)" height="5px" opacity="0.898039215686" width="5px" x="40px" y="40px" /><rect fill="rgb(48,227,0)" height="5px" opacity="0.443137254902" width="5px" x="44px" y="40px" /><rect fill="rgb(0,9,9)" height="5px" opacity="0.2" width="5px" x="60px" y="40px" /><rect fill="rgb(0,13,13)" height="5px" opacity="0.537254901961" width="5px" x="64px" y="40px" /><rect fill="rgb(0,12,12)" height="5px" opacity="0.0745098039216" width="5px" x="24px" y="44px" /><rect fill="rgb(0,7,7)" height="5px" opacity="0.96862745098" width="5px" x="28px" y="44px" /><rect fill="rgb(249,232,0)" height="5px" opacity="0.929411764706" width="5px" x="32px" y="44px" /><rect fill="rgb(49,222,0)" height="5px" opacity="0.458823529412" width="5px" x="36px" y="44px" /><rect fill="rgb(0,0,0)" height="5px" opacity="0.00392156862745" width="5px" x="40px" y="44px" /><rect fill="rgb(0,12,12)" height="5px" opacity="0.301960784314" width="5px" x="60px" y="44px" /><rect fill="rgb(0,12,12)" height="5px" opacity="0.294117647059" width="5px" x="64px" y="44px" /><rect fill="rgb(0,14,14)" height="5px" opacity="0.505882352941" width="5px" x="28px" y="48px" /><rect fill="rgb(0,13,0)" height="5px" opacity="0.603921568627" width="5px" x="32px" y="48px" /><rect fill="rgb(0,12,12)" height="5px" opacity="0.301960784314" width="5px" x="36px" y="48px" /><rect fill="rgb(0,12,12)" height="5px" opacity="0.596078431373" width="5px" x="60px" y="48px" /><rect fill="rgb(0,20,20)" height="5px" opacity="0.18431372549" width="5px" x="64px" y="48px" /><rect fill="rgb(0,223,223)" height="5px" opacity="0.0313725490196" width="5px" x="28px" y="52px" /><rect fill="rgb(0,6,6)" height="5px" opacity="0.125490196078" width="5px" x="32px" y="52px" /><rect fill="rgb(0,18,18)" height="5px" opacity="0.564705882353" width="5px" x="36px" y="52px" /><rect fill="rgb(0,14,14)" height="5px" opacity="0.627450980392" width="5px" x="40px" y="52px" /><rect fill="rgb(0,8,8)" height="5px" opacity="0.43137254902" width="5px" x="44px" y="52px" /><rect fill="rgb(0,17,17)" height="5px" opacity="0.325490196078" width="5px" x="48px" y="52px" /><rect fill="rgb(0,255,255)" height="5px" opacity="0.078431372549" width="5px" x="52px" y="52px" /><rect fill="rgb(0,4,4)" height="5px" opacity="0.172549019608" width="5px" x="56px" y="52px" /><rect fill="rgb(0,14,14)" height="5px" opacity="0.780392156863" width="5px" x="60px" y="52px" /><rect fill="rgb(0,243,243)" height="5px" opacity="0.0901960784314" width="5px" x="40px" y="56px" /><rect fill="rgb(0,13,13)" height="5px" opacity="0.141176470588" width="5px" x="44px" y="56px" /><rect fill="rgb(0,17,17)" height="5px" opacity="0.435294117647" width="5px" x="48px" y="56px" /><rect fill="rgb(0,15,15)" height="5px" opacity="0.929411764706" width="5px" x="52px" y="56px" /><rect fill="rgb(0,13,13)" height="5px" opacity="0.482352941176" width="5px" x="56px" y="56px" /><rect fill="rgb(0,15,15)" height="5px" opacity="0.298039215686" width="5px" x="60px" y="56px" /><rect fill="rgb(0,13,13)" height="5px" opacity="0.141176470588" width="5px" x="64px" y="56px" /><rect fill="rgb(0,255,255)" height="5px" opacity="0.0392156862745" width="5px" x="52px" y="60px" /><rect fill="rgb(0,16,16)" height="5px" opacity="0.466666666667" width="5px" x="56px" y="60px" /><rect fill="rgb(0,13,13)" height="5px" opacity="0.356862745098" width="5px" x="60px" y="60px" /><rect fill="rgb(0,12,12)" height="5px" opacity="0.643137254902" width="5px" x="64px" y="60px" /><rect fill="rgb(0,15,15)" height="5px" opacity="0.686274509804" width="5px" x="68px" y="60px" /><rect fill="rgb(0,12,12)" height="5px" opacity="0.21568627451" width="5px" x="72px" y="60px" /><rect fill="rgb(0,255,255)" height="5px" opacity="0.0980392156863" width="5px" x="76px" y="60px" /><rect fill="rgb(0,212,212)" height="5px" opacity="0.0235294117647" width="5px" x="80px" y="60px" /><rect fill="rgb(0,223,223)" height="5px" opacity="0.0313725490196" width="5px" x="52px" y="64px" /><rect fill="rgb(0,17,17)" height="5px" opacity="0.705882352941" width="5px" x="56px" y="64px" /><rect fill="rgb(0,235,235)" height="5px" opacity="0.0509803921569" width="5px" x="60px" y="64px" /><rect fill="rgb(0,12,12)" height="5px" opacity="0.227450980392" width="5px" x="68px" y="64px" /><rect fill="rgb(0,14,14)" height="5px" opacity="0.458823529412" width="5px" x="72px" y="64px" /><rect fill="rgb(0,13,13)" height="5px" opacity="0.490196078431" width="5px" x="76px" y="64px" /><rect fill="rgb(0,17,17)" height="5px" opacity="0.705882352941" width="5px" x="80px" y="64px" /><rect fill="rgb(0,10,10)" height="5px" opacity="0.360784313725" width="5px" x="84px" y="64px" /><rect fill="rgb(0,13,13)" height="5px" opacity="0.403921568627" width="5px" x="52px" y="68px" /><rect fill="rgb(0,12,12)" height="5px" opacity="0.443137254902" width="5px" x="56px" y="68px" /><rect fill="rgb(0,245,245)" height="5px" opacity="0.101960784314" width="5px" x="80px" y="68px" /><rect fill="rgb(0,232,232)" height="5px" opacity="0.807843137255" width="5px" x="84px" y="68px" /><rect fill="rgb(0,11,11)" height="5px" opacity="0.388235294118" width="5px" x="88px" y="68px" /><rect fill="rgb(0,223,223)" height="5px" opacity="0.0313725490196" width="5px" x="48px" y="72px" /><rect fill="rgb(0,16,16)" height="5px" opacity="0.560784313725" width="5px" x="52px" y="72px" /><rect fill="rgb(170,0,0)" height="5px" opacity="0.309803921569" width="5px" x="76px" y="72px" /><rect fill="rgb(77,0,0)" height="5px" opacity="0.764705882353" width="5px" x="80px" y="72px" /><rect fill="rgb(21,32,32)" height="5px" opacity="0.835294117647" width="5px" x="84px" y="72px" /><rect fill="rgb(0,15,15)" height="5px" opacity="0.843137254902" width="5px" x="88px" y="72px" /><rect fill="rgb(0,62,62)" height="5px" opacity="0.0156862745098" width="5px" x="48px" y="76px" /><rect fill="rgb(0,14,14)" height="5px" opacity="0.505882352941" width="5px" x="52px" y="76px" /><rect fill="rgb(0,212,212)" height="5px" opacity="0.0235294117647" width="5px" x="56px" y="76px" /><rect fill="rgb(175,0,0)" height="5px" opacity="0.294117647059" width="5px" x="68px" y="76px" /><rect fill="rgb(84,0,0)" height="5px" opacity="0.749019607843" width="5px" x="72px" y="76px" /><rect fill="rgb(64,0,0)" height="5px" opacity="0.796078431373" width="5px" x="76px" y="76px" /><rect fill="rgb(174,0,0)" height="5px" opacity="0.341176470588" width="5px" x="80px" y="76px" /><rect fill="rgb(27,207,0)" height="5px" opacity="0.105882352941" width="5px" x="84px" y="76px" /><rect fill="rgb(6,4,176)" height="5px" opacity="0.866666666667" width="5px" x="88px" y="76px" /><rect fill="rgb(0,8,8)" height="5px" opacity="0.411764705882" width="5px" x="92px" y="76px" /><rect fill="rgb(0,8,8)" height="5px" opacity="0.305882352941" width="5px" x="48px" y="80px" /><rect fill="rgb(0,15,15)" height="5px" opacity="0.486274509804" width="5px" x="52px" y="80px" /><rect fill="rgb(0,81,0)" height="5px" opacity="0.278431372549" width="5px" x="60px" y="80px" /><rect fill="rgb(0,80,0)" height="5px" opacity="0.733333333333" width="5px" x="64px" y="80px" /><rect fill="rgb(58,9,0)" height="5px" opacity="0.811764705882" width="5px" x="68px" y="80px" /><rect fill="rgb(172,0,0)" height="5px" opacity="0.356862745098" width="5px" x="72px" y="80px" /><rect fill="rgb(21,210,0)" height="5px" opacity="0.0901960784314" width="5px" x="76px" y="80px" /><rect fill="rgb(46,227,0)" height="5px" opacity="0.545098039216" width="5px" x="80px" y="80px" /><rect fill="rgb(255,225,0)" height="5px" width="5px" x="84px" y="80px" /><rect fill="rgb(171,244,0)" height="5px" opacity="0.654901960784" width="5px" x="88px" y="80px" /><rect fill="rgb(0,14,14)" height="5px" opacity="0.866666666667" width="5px" x="92px" y="80px" /><rect fill="rgb(0,15,15)" height="5px" opacity="0.709803921569" width="5px" x="48px" y="84px" /><rect fill="rgb(0,43,59)" height="5px" opacity="0.423529411765" width="5px" x="52px" y="84px" /><rect fill="rgb(0,81,0)" height="5px" opacity="0.717647058824" width="5px" x="56px" y="84px" /><rect fill="rgb(0,52,0)" height="5px" opacity="0.827450980392" width="5px" x="60px" y="84px" /><rect fill="rgb(0,76,0)" height="5px" opacity="0.372549019608" width="5px" x="64px" y="84px" /><rect fill="rgb(67,67,67)" height="5px" opacity="0.0745098039216" width="5px" x="68px" y="84px" /><rect fill="rgb(46,221,0)" height="5px" opacity="0.529411764706" width="5px" x="72px" y="84px" /><rect fill="rgb(3,224,0)" height="5px" opacity="0.98431372549" width="5px" x="76px" y="84px" /><rect fill="rgb(47,222,0)" height="5px" opacity="0.560784313725" width="5px" x="80px" y="84px" /><rect fill="rgb(27,207,0)" height="5px" opacity="0.105882352941" width="5px" x="84px" y="84px" /><rect fill="rgb(174,0,0)" height="5px" opacity="0.341176470588" width="5px" x="88px" y="84px" /><rect fill="rgb(69,173,173)" height="5px" opacity="0.937254901961" width="5px" x="92px" y="84px" /><rect fill="rgb(0,17,17)" height="5px" opacity="0.427450980392" width="5px" x="96px" y="84px" /><rect fill="rgb(0,17,17)" height="5px" opacity="0.427450980392" width="5px" x="48px" y="88px" /><rect fill="rgb(0,12,142)" height="5px" opacity="0.949019607843" width="5px" x="52px" y="88px" /><rect fill="rgb(0,78,0)" height="5px" opacity="0.388235294118" width="5px" x="56px" y="88px" /><rect fill="rgb(0,17,204)" height="5px" opacity="0.0588235294118" width="5px" x="60px" y="88px" /><rect fill="rgb(0,13,227)" height="5px" opacity="0.513725490196" width="5px" x="64px" y="88px" /><rect fill="rgb(0,14,228)" height="5px" opacity="0.96862745098" width="5px" x="68px" y="88px" /><rect fill="rgb(228,175,0)" height="5px" opacity="0.576470588235" width="5px" x="72px" y="88px" /><rect fill="rgb(31,222,0)" height="5px" opacity="0.121568627451" width="5px" x="76px" y="88px" /><rect fill="rgb(174,0,0)" height="5px" opacity="0.325490196078" width="5px" x="80px" y="88px" /><rect fill="rgb(70,0,0)" height="5px" opacity="0.780392156863" width="5px" x="84px" y="88px" /><rect fill="rgb(80,0,0)" height="5px" opacity="0.756862745098" width="5px" x="88px" y="88px" /><rect fill="rgb(183,93,93)" height="5px" opacity="0.458823529412" width="5px" x="92px" y="88px" /><rect fill="rgb(0,14,14)" height="5px" opacity="0.882352941176" width="5px" x="96px" y="88px" /><rect fill="rgb(0,14,14)" height="5px" opacity="0.866666666667" width="5px" x="52px" y="92px" /><rect fill="rgb(0,112,242)" height="5px" opacity="0.619607843137" width="5px" x="56px" y="92px" /><rect fill="rgb(0,14,226)" height="5px" opacity="0.952941176471" width="5px" x="60px" y="92px" /><rect fill="rgb(0,13,222)" height="5px" opacity="0.592156862745" width="5px" x="64px" y="92px" /><rect fill="rgb(0,7,218)" height="5px" opacity="0.137254901961" width="5px" x="68px" y="92px" /><rect fill="rgb(122,203,0)" height="5px" opacity="0.309803921569" width="5px" x="72px" y="92px" /><rect fill="rgb(77,0,0)" height="5px" opacity="0.764705882353" width="5px" x="76px" y="92px" /><rect fill="rgb(70,0,0)" height="5px" opacity="0.780392156863" width="5px" x="80px" y="92px" /><rect fill="rgb(174,0,0)" height="5px" opacity="0.325490196078" width="5px" x="84px" y="92px" /><rect fill="rgb(176,0,0)" height="5px" opacity="0.129411764706" width="5px" x="88px" y="92px" /><rect fill="rgb(175,0,0)" height="5px" opacity="0.58431372549" width="5px" x="92px" y="92px" /><rect fill="rgb(95,157,157)" height="5px" opacity="0.98431372549" width="5px" x="96px" y="92px" /><rect fill="rgb(0,12,12)" height="5px" opacity="0.443137254902" width="5px" x="100px" y="92px" /><rect fill="rgb(0,13,13)" height="5px" opacity="0.403921568627" width="5px" x="52px" y="96px" /><rect fill="rgb(0,218,6)" height="5px" opacity="0.882352941176" width="5px" x="56px" y="96px" /><rect fill="rgb(0,6,215)" height="5px" opacity="0.152941176471" width="5px" x="60px" y="96px" /><rect fill="rgb(0,80,0)" height="5px" opacity="0.294117647059" width="5px" x="64px" y="96px" /><rect fill="rgb(0,80,0)" height="5px" opacity="0.749019607843" width="5px" x="68px" y="96px" /><rect fill="rgb(0,64,0)" height="5px" opacity="0.796078431373" width="5px" x="72px" y="96px" /><rect fill="rgb(63,20,0)" height="5px" opacity="0.341176470588" width="5px" x="76px" y="96px" /><rect fill="rgb(169,0,0)" height="5px" opacity="0.105882352941" width="5px" x="80px" y="96px" /><rect fill="rgb(173,0,0)" height="5px" opacity="0.56862745098" width="5px" x="84px" y="96px" /><rect fill="rgb(5,0,0)" height="5px" opacity="0.976470588235" width="5px" x="88px" y="96px" /><rect fill="rgb(177,0,0)" height="5px" opacity="0.521568627451" width="5px" x="92px" y="96px" /><rect fill="rgb(30,194,194)" height="5px" opacity="0.262745098039" width="5px" x="96px" y="96px" /><rect fill="rgb(0,15,15)" height="5px" opacity="0.898039215686" width="5px" x="100px" y="96px" /><rect fill="rgb(0,0,0)" height="5px" opacity="0.00392156862745" width="5px" x="104px" y="96px" /><rect fill="rgb(0,15,15)" height="5px" opacity="0.843137254902" width="5px" x="56px" y="100px" /><rect fill="rgb(0,61,0)" height="5px" opacity="0.803921568627" width="5px" x="60px" y="100px" /><rect fill="rgb(0,58,0)" height="5px" opacity="0.811764705882" width="5px" x="64px" y="100px" /><rect fill="rgb(0,77,0)" height="5px" opacity="0.356862745098" width="5px" x="68px" y="100px" /><rect fill="rgb(0,76,0)" height="5px" opacity="0.0901960784314" width="5px" x="72px" y="100px" /><rect fill="rgb(119,209,0)" height="5px" opacity="0.545098039216" width="5px" x="76px" y="100px" /><rect fill="rgb(255,0,0)" height="5px" width="5px" x="80px" y="100px" /><rect fill="rgb(175,0,0)" height="5px" opacity="0.537254901961" width="5px" x="84px" y="100px" /><rect fill="rgb(169,0,0)" height="5px" opacity="0.0823529411765" width="5px" x="88px" y="100px" /><rect fill="rgb(0,78,0)" height="5px" opacity="0.364705882353" width="5px" x="92px" y="100px" /><rect fill="rgb(0,55,0)" height="5px" opacity="0.819607843137" width="5px" x="96px" y="100px" /><rect fill="rgb(0,26,145)" height="5px" opacity="0.901960784314" width="5px" x="100px" y="100px" /><rect fill="rgb(0,14,14)" height="5px" opacity="0.458823529412" width="5px" x="104px" y="100px" /><rect fill="rgb(0,11,11)" height="5px" opacity="0.388235294118" width="5px" x="56px" y="104px" /><rect fill="rgb(0,22,212)" height="5px" opacity="0.823529411765" width="5px" x="60px" y="104px" /><rect fill="rgb(0,79,0)" height="5px" opacity="0.0745098039216" width="5px" x="64px" y="104px" /><rect fill="rgb(0,80,0)" height="5px" opacity="0.529411764706" width="5px" x="68px" y="104px" /><rect fill="rgb(0,3,0)" height="5px" opacity="0.98431372549" width="5px" x="72px" y="104px" /><rect fill="rgb(0,79,0)" height="5px" opacity="0.560784313725" width="5px" x="76px" y="104px" /><rect fill="rgb(50,20,0)" height="5px" opacity="0.0980392156863" width="5px" x="80px" y="104px" /><rect fill="rgb(146,180,0)" height="5px" opacity="0.349019607843" width="5px" x="84px" y="104px" /><rect fill="rgb(0,61,0)" height="5px" opacity="0.803921568627" width="5px" x="88px" y="104px" /><rect fill="rgb(0,79,0)" height="5px" opacity="0.741176470588" width="5px" x="92px" y="104px" /><rect fill="rgb(0,79,0)" height="5px" opacity="0.286274509804" width="5px" x="96px" y="104px" /><rect fill="rgb(79,248,79)" height="5px" opacity="0.325490196078" width="5px" x="100px" y="104px" /><rect fill="rgb(0,14,14)" height="5px" opacity="0.913725490196" width="5px" x="104px" y="104px" /><rect fill="rgb(0,255,255)" height="5px" opacity="0.0196078431373" width="5px" x="108px" y="104px" /><rect fill="rgb(0,14,14)" height="5px" opacity="0.827450980392" width="5px" x="60px" y="108px" /><rect fill="rgb(0,5,0)" height="5px" opacity="0.976470588235" width="5px" x="64px" y="108px" /><rect fill="rgb(0,78,0)" height="5px" opacity="0.576470588235" width="5px" x="68px" y="108px" /><rect fill="rgb(0,73,0)" height="5px" opacity="0.121568627451" width="5px" x="72px" y="108px" /><rect fill="rgb(174,0,0)" height="5px" opacity="0.325490196078" width="5px" x="76px" y="108px" /><rect fill="rgb(67,0,0)" height="5px" opacity="0.788235294118" width="5px" x="80px" y="108px" /><rect fill="rgb(80,0,0)" height="5px" opacity="0.756862745098" width="5px" x="84px" y="108px" /><rect fill="rgb(0,81,0)" height="5px" opacity="0.301960784314" width="5px" x="88px" y="108px" /><rect fill="rgb(40,227,0)" height="5px" opacity="0.145098039216" width="5px" x="92px" y="108px" /><rect fill="rgb(49,223,0)" height="5px" opacity="0.6" width="5px" x="96px" y="108px" /><rect fill="rgb(13,228,0)" height="5px" opacity="0.945098039216" width="5px" x="100px" y="108px" /><rect fill="rgb(14,3,162)" height="5px" opacity="0.811764705882" width="5px" x="104px" y="108px" /><rect fill="rgb(0,11,11)" height="5px" opacity="0.474509803922" width="5px" x="108px" y="108px" /><rect fill="rgb(0,17,17)" height="5px" opacity="0.372549019608" width="5px" x="60px" y="112px" /><rect fill="rgb(0,18,247)" height="5px" opacity="0.76862745098" width="5px" x="64px" y="112px" /><rect fill="rgb(170,0,0)" height="5px" opacity="0.309803921569" width="5px" x="68px" y="112px" /><rect fill="rgb(77,0,0)" height="5px" opacity="0.764705882353" width="5px" x="72px" y="112px" /><rect fill="rgb(74,0,0)" height="5px" opacity="0.772549019608" width="5px" x="76px" y="112px" /><rect fill="rgb(175,0,0)" height="5px" opacity="0.317647058824" width="5px" x="80px" y="112px" /><rect fill="rgb(216,162,0)" height="5px" opacity="0.129411764706" width="5px" x="84px" y="112px" /><rect fill="rgb(48,222,0)" height="5px" opacity="0.58431372549" width="5px" x="88px" y="112px" /><rect fill="rgb(9,224,0)" height="5px" opacity="0.960784313725" width="5px" x="92px" y="112px" /><rect fill="rgb(50,225,0)" height="5px" opacity="0.505882352941" width="5px" x="96px" y="112px" /><rect fill="rgb(38,215,0)" height="5px" opacity="0.0509803921569" width="5px" x="100px" y="112px" /><rect fill="rgb(0,8,8)" height="5px" opacity="0.105882352941" width="5px" x="104px" y="112px" /><rect fill="rgb(23,255,255)" height="5px" width="5px" x="108px" y="112px" /><rect fill="rgb(0,16,16)" height="5px" opacity="0.811764705882" width="5px" x="64px" y="116px" /><rect fill="rgb(2,43,43)" height="5px" opacity="0.854901960784" width="5px" x="68px" y="116px" /><rect fill="rgb(174,0,0)" height="5px" opacity="0.341176470588" width="5px" x="72px" y="116px" /><rect fill="rgb(0,17,219)" height="5px" opacity="0.113725490196" width="5px" x="76px" y="116px" /><rect fill="rgb(0,10,223)" height="5px" opacity="0.56862745098" width="5px" x="80px" y="116px" /><rect fill="rgb(62,68,111)" height="5px" opacity="0.976470588235" width="5px" x="84px" y="116px" /><rect fill="rgb(46,226,0)" height="5px" opacity="0.521568627451" width="5px" x="88px" y="116px" /><rect fill="rgb(44,240,0)" height="5px" opacity="0.0666666666667" width="5px" x="92px" y="116px" /><rect fill="rgb(23,255,255)" height="5px" width="5px" x="104px" y="116px" /><rect fill="rgb(0,13,13)" height="5px" opacity="0.356862745098" width="5px" x="64px" y="120px" /><rect fill="rgb(0,9,14)" height="5px" opacity="0.772549019608" width="5px" x="68px" y="120px" /><rect fill="rgb(0,14,227)" height="5px" opacity="0.545098039216" width="5px" x="72px" y="120px" /><rect fill="rgb(0,15,227)" height="5px" opacity="0.992156862745" width="5px" x="76px" y="120px" /><rect fill="rgb(0,14,227)" height="5px" opacity="0.537254901961" width="5px" x="80px" y="120px" /><rect fill="rgb(0,12,206)" height="5px" opacity="0.0823529411765" width="5px" x="84px" y="120px" /><rect fill="rgb(23,255,255)" height="5px" width="5px" x="104px" y="120px" /><rect fill="rgb(0,15,15)" height="5px" opacity="0.796078431373" width="5px" x="68px" y="124px" /><rect fill="rgb(0,131,246)" height="5px" opacity="0.690196078431" width="5px" x="72px" y="124px" /><rect fill="rgb(0,10,224)" height="5px" opacity="0.0980392156863" width="5px" x="76px" y="124px" /><rect fill="rgb(23,255,255)" height="5px" width="5px" x="88px" y="124px" /><rect fill="rgb(23,255,255)" height="5px" width="5px" x="92px" y="124px" /><rect fill="rgb(23,255,255)" height="5px" width="5px" x="96px" y="124px" /><rect fill="rgb(23,255,255)" height="5px" width="5px" x="104px" y="124px" /></svg>