<?xml version="1.0" encoding="utf-8" ?>
<svg baseProfile="full" height="128px" version="1.1" width="128px" xmlns="http://www.w3.org/2000/svg" xmlns:ev="http://www.w3.org/2001/xml-events" xmlns:xlink="http://www.w3.org/1999/xlink"><defs /><rect fill="rgb(57,132,26)" height="5px" width="5px" x="104px" y="4px" /><rect fill="rgb(57,132,26)" height="5px" width="5px" x="108px" y="4px" /><rect fill="rgb(57,132,26)" height="5px" width="5px" x="96px" y="8px" /><rect fill="rgb(57,132,26)" height="5px" width="5px" x="100px" y="8px" /><rect fill="rgb(57,132,26)" height="5px" width="5px" x="104px" y="8px" /><rect fill="rgb(57,132,26)" height="5px" width="5px" x="108px" y="8px" /><rect fill="rgb(57,132,26)" height="5px" width="5px" x="112px" y="8px" /><rect fill="rgb(57,132,26)" height="5px" width="5px" x="92px" y="12px" /><rect fill="rgb(57,132,26)" height="5px" width="5px" x="96px" y="12px" /><rect fill="rgb(71,160,35)" height="5px" width="5px" x="100px" y="12px" /><rect fill="rgb(71,160,35)" height="5px" width="5px" x="104px" y="12px" /><rect fill="rgb(57,132,26)" height="5px" width="5px" x="108px" y="12px" /><rect fill="rgb(57,132,26)" height="5px" width="5px" x="84px" y="16px" /><rect fill="rgb(57,132,26)" height="5px" width="5px" x="88px" y="16px" /><rect fill="rgb(57,132,26)" height="5px" width="5px" x="92px" y="16px" /><rect fill="rgb(71,160,35)" height="5px" width="5px" x="96px" y="16px" /><rect fill="rgb(71,160,35)" height="5px" width="5px" x="100px" y="16px" /><rect fill="rgb(57,132,26)" height="5px" width="5px" x="104px" y="16px" /><rect fill="rgb(57,132,26)" height="5px" width="5px" x="108px" y="16px" /><rect fill="rgb(57,132,26)" height="5px" width="5px" x="64px" y="20px" /><rect fill="rgb(57,132,26)" height="5px" width="5px" x="68px" y="20px" /><rect fill="rgb(57,132,26)" height="5px" width="5px" x="72px" y="20px" /><rect fill="rgb(57,132,26)" height="5px" width="5px" x="76px" y="20px" /><rect fill="rgb(57,132,26)" height="5px" width="5px" x="80px" y="20px" /><rect fill="rgb(57,132,26)" height="5px" width="5px" x="84px" y="20px" /><rect fill="rgb(71,160,35)" height="5px" width="5px" x="88px" y="20px" /><rect fill="rgb(28,97,0)" height="5px" width="5px" x="92px" y="20px" /><rect fill="rgb(28,97,0)" height="5px" width="5px" x="96px" y="20px" /><rect fill="rgb(71,160,35)" height="5px" width="5px" x="100px" y="20px" /><rect fill="rgb(57,132,26)" height="5px" width="5px" x="104px" y="20px" /><rect fill="rgb(57,132,26)" height="5px" width="5px" x="44px" y="24px" /><rect fill="rgb(57,132,26)" height="5px" width="5px" x="48px" y="24px" /><rect fill="rgb(57,132,26)" height="5px" width="5px" x="52px" y="24px" /><rect fill="rgb(57,132,26)" height="5px" width="5px" x="56px" y="24px" /><rect fill="rgb(57,132,26)" height="5px" width="5px" x="60px" y="24px" /><rect fill="rgb(71,160,35)" height="5px" width="5px" x="64px" y="24px" /><rect fill="rgb(71,160,35)" height="5px" width="5px" x="68px" y="24px" /><rect fill="rgb(71,160,35)" height="5px" width="5px" x="72px" y="24px" /><rect fill="rgb(71,160,35)" height="5px" width="5px" x="76px" y="24px" /><rect fill="rgb(71,160,35)" height="5px" width="5px" x="80px" y="24px" /><rect fill="rgb(71,160,35)" height="5px" width="5px" x="84px" y="24px" /><rect fill="rgb(28,97,0)" height="5px" width="5px" x="88px" y="24px" /><rect fill="rgb(28,97,0)" height="5px" width="5px" x="92px" y="24px" /><rect fill="rgb(75,160,41)" height="5px" width="5px" x="96px" y="24px" /><rect fill="rgb(71,160,35)" height="5px" width="5px" x="100px" y="24px" /><rect fill="rgb(57,132,26)" height="5px" width="5px" x="104px" y="24px" /><rect fill="rgb(57,132,26)" height="5px" width="5px" x="36px" y="28px" /><rect fill="rgb(57,132,26)" height="5px" width="5px" x="40px" y="28px" /><rect fill="rgb(57,132,26)" height="5px" width="5px" x="44px" y="28px" /><rect fill="rgb(71,160,35)" height="5px" width="5px" x="48px" y="28px" /><rect fill="rgb(71,160,35)" height="5px" width="5px" x="52px" y="28px" /><rect fill="rgb(71,160,35)" height="5px" width="5px" x="56px" y="28px" /><rect fill="rgb(28,97,0)" height="5px" width="5px" x="60px" y="28px" /><rect fill="rgb(88,160,59)" height="5px" width="5px" x="64px" y="28px" /><rect fill="rgb(88,160,59)" height="5px" width="5px" x="68px" y="28px" /><rect fill="rgb(88,160,59)" height="5px" width="5px" x="72px" y="28px" /><rect fill="rgb(88,160,59)" height="5px" width="5px" x="76px" y="28px" /><rect fill="rgb(88,160,59)" height="5px" width="5px" x="80px" y="28px" /><rect fill="rgb(28,97,0)" height="5px" width="5px" x="84px" y="28px" /><rect fill="rgb(28,97,0)" height="5px" width="5px" x="88px" y="28px" /><rect fill="rgb(88,160,59)" height="5px" width="5px" x="92px" y="28px" /><rect fill="rgb(75,160,41)" height="5px" width="5px" x="96px" y="28px" /><rect fill="rgb(71,160,35)" height="5px" width="5px" x="100px" y="28px" /><rect fill="rgb(51,120,23)" height="5px" width="5px" x="104px" y="28px" /><rect fill="rgb(57,132,26)" height="5px" width="5px" x="28px" y="32px" /><rect fill="rgb(57,132,26)" height="5px" width="5px" x="32px" y="32px" /><rect fill="rgb(57,132,26)" height="5px" width="5px" x="36px" y="32px" /><rect fill="rgb(71,160,35)" height="5px" width="5px" x="40px" y="32px" /><rect fill="rgb(71,160,35)" height="5px" width="5px" x="44px" y="32px" /><rect fill="rgb(88,160,59)" height="5px" width="5px" x="48px" y="32px" /><rect fill="rgb(88,160,59)" height="5px" width="5px" x="52px" y="32px" /><rect fill="rgb(88,160,59)" height="5px" width="5px" x="56px" y="32px" /><rect fill="rgb(88,160,59)" height="5px" width="5px" x="60px" y="32px" /><rect fill="rgb(28,97,0)" height="5px" width="5px" x="64px" y="32px" /><rect fill="rgb(88,160,59)" height="5px" width="5px" x="68px" y="32px" /><rect fill="rgb(88,160,59)" height="5px" width="5px" x="72px" y="32px" /><rect fill="rgb(88,160,59)" height="5px" width="5px" x="76px" y="32px" /><rect fill="rgb(88,160,59)" height="5px" width="5px" x="80px" y="32px" /><rect fill="rgb(28,97,0)" height="5px" width="5px" x="84px" y="32px" /><rect fill="rgb(88,160,59)" height="5px" width="5px" x="88px" y="32px" /><rect fill="rgb(88,160,59)" height="5px" width="5px" x="92px" y="32px" /><rect fill="rgb(75,160,41)" height="5px" width="5px" x="96px" y="32px" /><rect fill="rgb(71,160,35)" height="5px" width="5px" x="100px" y="32px" /><rect fill="rgb(51,120,23)" height="5px" width="5px" x="104px" y="32px" /><rect fill="rgb(57,132,26)" height="5px" width="5px" x="28px" y="36px" /><rect fill="rgb(71,160,35)" height="5px" width="5px" x="32px" y="36px" /><rect fill="rgb(71,160,35)" height="5px" width="5px" x="36px" y="36px" /><rect fill="rgb(88,160,59)" height="5px" width="5px" x="40px" y="36px" /><rect fill="rgb(88,160,59)" height="5px" width="5px" x="44px" y="36px" /><rect fill="rgb(88,160,59)" height="5px" width="5px" x="48px" y="36px" /><rect fill="rgb(28,97,0)" height="5px" width="5px" x="52px" y="36px" /><rect fill="rgb(88,160,59)" height="5px" width="5px" x="56px" y="36px" /><rect fill="rgb(88,160,59)" height="5px" width="5px" x="60px" y="36px" /><rect fill="rgb(28,97,0)" height="5px" width="5px" x="64px" y="36px" /><rect fill="rgb(28,97,0)" height="5px" width="5px" x="68px" y="36px" /><rect fill="rgb(88,160,59)" height="5px" width="5px" x="72px" y="36px" /><rect fill="rgb(88,160,59)" height="5px" width="5px" x="76px" y="36px" /><rect fill="rgb(28,97,0)" height="5px" width="5px" x="80px" y="36px" /><rect fill="rgb(28,97,0)" height="5px" width="5px" x="84px" y="36px" /><rect fill="rgb(88,160,59)" height="5px" width="5px" x="88px" y="36px" /><rect fill="rgb(88,160,59)" height="5px" width="5px" x="92px" y="36px" /><rect fill="rgb(75,160,41)" height="5px" width="5px" x="96px" y="36px" /><rect fill="rgb(71,160,35)" height="5px" width="5px" x="100px" y="36px" /><rect fill="rgb(51,120,23)" height="5px" width="5px" x="104px" y="36px" /><rect fill="rgb(57,132,26)" height="5px" width="5px" x="28px" y="40px" /><rect fill="rgb(71,160,35)" height="5px" width="5px" x="32px" y="40px" /><rect fill="rgb(88,160,59)" height="5px" width="5px" x="36px" y="40px" /><rect fill="rgb(88,160,59)" height="5px" width="5px" x="40px" y="40px" /><rect fill="rgb(88,160,59)" height="5px" width="5px" x="44px" y="40px" /><rect fill="rgb(88,160,59)" height="5px" width="5px" x="48px" y="40px" /><rect fill="rgb(28,97,0)" height="5px" width="5px" x="52px" y="40px" /><rect fill="rgb(88,160,59)" height="5px" width="5px" x="56px" y="40px" /><rect fill="rgb(88,160,59)" height="5px" width="5px" x="60px" y="40px" /><rect fill="rgb(88,160,59)" height="5px" width="5px" x="64px" y="40px" /><rect fill="rgb(28,97,0)" height="5px" width="5px" x="68px" y="40px" /><rect fill="rgb(28,97,0)" height="5px" width="5px" x="72px" y="40px" /><rect fill="rgb(88,160,59)" height="5px" width="5px" x="76px" y="40px" /><rect fill="rgb(28,97,0)" height="5px" width="5px" x="80px" y="40px" /><rect fill="rgb(88,160,59)" height="5px" width="5px" x="84px" y="40px" /><rect fill="rgb(88,160,59)" height="5px" width="5px" x="88px" y="40px" /><rect fill="rgb(88,160,59)" height="5px" width="5px" x="92px" y="40px" /><rect fill="rgb(75,160,41)" height="5px" width="5px" x="96px" y="40px" /><rect fill="rgb(71,160,35)" height="5px" width="5px" x="100px" y="40px" /><rect fill="rgb(51,120,23)" height="5px" width="5px" x="104px" y="40px" /><rect fill="rgb(57,132,26)" height="5px" width="5px" x="24px" y="44px" /><rect fill="rgb(71,160,35)" height="5px" width="5px" x="28px" y="44px" /><rect fill="rgb(88,160,59)" height="5px" width="5px" x="32px" y="44px" /><rect fill="rgb(28,97,0)" height="5px" width="5px" x="36px" y="44px" /><rect fill="rgb(88,160,59)" height="5px" width="5px" x="40px" y="44px" /><rect fill="rgb(88,160,59)" height="5px" width="5px" x="44px" y="44px" /><rect fill="rgb(88,160,59)" height="5px" width="5px" x="48px" y="44px" /><rect fill="rgb(28,97,0)" height="5px" width="5px" x="52px" y="44px" /><rect fill="rgb(88,160,59)" height="5px" width="5px" x="56px" y="44px" /><rect fill="rgb(88,160,59)" height="5px" width="5px" x="60px" y="44px" /><rect fill="rgb(88,160,59)" height="5px" width="5px" x="64px" y="44px" /><rect fill="rgb(88,160,59)" height="5px" width="5px" x="68px" y="44px" /><rect fill="rgb(28,97,0)" height="5px" width="5px" x="72px" y="44px" /><rect fill="rgb(28,97,0)" height="5px" width="5px" x="76px" y="44px" /><rect fill="rgb(28,97,0)" height="5px" width="5px" x="80px" y="44px" /><rect fill="rgb(28,97,0)" height="5px" width="5px" x="84px" y="44px" /><rect fill="rgb(28,97,0)" height="5px" width="5px" x="88px" y="44px" /><rect fill="rgb(28,97,0)" height="5px" width="5px" x="92px" y="44px" /><rect fill="rgb(28,97,0)" height="5px" width="5px" x="96px" y="44px" /><rect fill="rgb(71,160,35)" height="5px" width="5px" x="100px" y="44px" /><rect fill="rgb(44,102,20)" height="5px" width="5px" x="104px" y="44px" /><rect fill="rgb(57,132,26)" height="5px" width="5px" x="24px" y="48px" /><rect fill="rgb(71,160,35)" height="5px" width="5px" x="28px" y="48px" /><rect fill="rgb(88,160,59)" height="5px" width="5px" x="32px" y="48px" /><rect fill="rgb(28,97,0)" height="5px" width="5px" x="36px" y="48px" /><rect fill="rgb(88,160,59)" height="5px" width="5px" x="40px" y="48px" /><rect fill="rgb(88,160,59)" height="5px" width="5px" x="44px" y="48px" /><rect fill="rgb(88,160,59)" height="5px" width="5px" x="48px" y="48px" /><rect fill="rgb(28,97,0)" height="5px" width="5px" x="52px" y="48px" /><rect fill="rgb(88,160,59)" height="5px" width="5px" x="56px" y="48px" /><rect fill="rgb(88,160,59)" height="5px" width="5px" x="60px" y="48px" /><rect fill="rgb(88,160,59)" height="5px" width="5px" x="64px" y="48px" /><rect fill="rgb(28,97,0)" height="5px" width="5px" x="68px" y="48px" /><rect fill="rgb(88,160,59)" height="5px" width="5px" x="72px" y="48px" /><rect fill="rgb(88,160,59)" height="5px" width="5px" x="76px" y="48px" /><rect fill="rgb(88,160,59)" height="5px" width="5px" x="80px" y="48px" /><rect fill="rgb(88,160,59)" height="5px" width="5px" x="84px" y="48px" /><rect fill="rgb(88,160,59)" height="5px" width="5px" x="88px" y="48px" /><rect fill="rgb(88,160,59)" height="5px" width="5px" x="92px" y="48px" /><rect fill="rgb(75,160,41)" height="5px" width="5px" x="96px" y="48px" /><rect fill="rgb(71,160,35)" height="5px" width="5px" x="100px" y="48px" /><rect fill="rgb(44,102,20)" height="5px" width="5px" x="104px" y="48px" /><rect fill="rgb(57,132,26)" height="5px" width="5px" x="24px" y="52px" /><rect fill="rgb(71,160,35)" height="5px" width="5px" x="28px" y="52px" /><rect fill="rgb(88,160,59)" height="5px" width="5px" x="32px" y="52px" /><rect fill="rgb(28,97,0)" height="5px" width="5px" x="36px" y="52px" /><rect fill="rgb(88,160,59)" height="5px" width="5px" x="40px" y="52px" /><rect fill="rgb(88,160,59)" height="5px" width="5px" x="44px" y="52px" /><rect fill="rgb(88,160,59)" height="5px" width="5px" x="48px" y="52px" /><rect fill="rgb(28,97,0)" height="5px" width="5px" x="52px" y="52px" /><rect fill="rgb(88,160,59)" height="5px" width="5px" x="56px" y="52px" /><rect fill="rgb(88,160,59)" height="5px" width="5px" x="60px" y="52px" /><rect fill="rgb(28,97,0)" height="5px" width="5px" x="64px" y="52px" /><rect fill="rgb(88,160,59)" height="5px" width="5px" x="68px" y="52px" /><rect fill="rgb(88,160,59)" height="5px" width="5px" x="72px" y="52px" /><rect fill="rgb(88,160,59)" height="5px" width="5px" x="76px" y="52px" /><rect fill="rgb(88,160,59)" height="5px" width="5px" x="80px" y="52px" /><rect fill="rgb(88,160,59)" height="5px" width="5px" x="84px" y="52px" /><rect fill="rgb(88,160,59)" height="5px" width="5px" x="88px" y="52px" /><rect fill="rgb(88,160,59)" height="5px" width="5px" x="92px" y="52px" /><rect fill="rgb(75,160,41)" height="5px" width="5px" x="96px" y="52px" /><rect fill="rgb(71,160,35)" height="5px" width="5px" x="100px" y="52px" /><rect fill="rgb(44,102,20)" height="5px" width="5px" x="104px" y="52px" /><rect fill="rgb(57,132,26)" height="5px" width="5px" x="24px" y="56px" /><rect fill="rgb(71,160,35)" height="5px" width="5px" x="28px" y="56px" /><rect fill="rgb(71,160,35)" height="5px" width="5px" x="32px" y="56px" /><rect fill="rgb(28,97,0)" height="5px" width="5px" x="36px" y="56px" /><rect fill="rgb(88,160,59)" height="5px" width="5px" x="40px" y="56px" /><rect fill="rgb(88,160,59)" height="5px" width="5px" x="44px" y="56px" /><rect fill="rgb(88,160,59)" height="5px" width="5px" x="48px" y="56px" /><rect fill="rgb(28,97,0)" height="5px" width="5px" x="52px" y="56px" /><rect fill="rgb(88,160,59)" height="5px" width="5px" x="56px" y="56px" /><rect fill="rgb(28,97,0)" height="5px" width="5px" x="60px" y="56px" /><rect fill="rgb(28,97,0)" height="5px" width="5px" x="64px" y="56px" /><rect fill="rgb(28,97,0)" height="5px" width="5px" x="68px" y="56px" /><rect fill="rgb(28,97,0)" height="5px" width="5px" x="72px" y="56px" /><rect fill="rgb(28,97,0)" height="5px" width="5px" x="76px" y="56px" /><rect fill="rgb(28,97,0)" height="5px" width="5px" x="80px" y="56px" /><rect fill="rgb(28,97,0)" height="5px" width="5px" x="84px" y="56px" /><rect fill="rgb(28,97,0)" height="5px" width="5px" x="88px" y="56px" /><rect fill="rgb(28,97,0)" height="5px" width="5px" x="92px" y="56px" /><rect fill="rgb(71,160,35)" height="5px" width="5px" x="96px" y="56px" /><rect fill="rgb(71,160,35)" height="5px" width="5px" x="100px" y="56px" /><rect fill="rgb(44,102,20)" height="5px" width="5px" x="104px" y="56px" /><rect fill="rgb(57,132,26)" height="5px" width="5px" x="24px" y="60px" /><rect fill="rgb(71,160,35)" height="5px" width="5px" x="28px" y="60px" /><rect fill="rgb(71,160,35)" height="5px" width="5px" x="32px" y="60px" /><rect fill="rgb(28,97,0)" height="5px" width="5px" x="36px" y="60px" /><rect fill="rgb(28,97,0)" height="5px" width="5px" x="40px" y="60px" /><rect fill="rgb(88,160,59)" height="5px" width="5px" x="44px" y="60px" /><rect fill="rgb(88,160,59)" height="5px" width="5px" x="48px" y="60px" /><rect fill="rgb(28,97,0)" height="5px" width="5px" x="52px" y="60px" /><rect fill="rgb(28,97,0)" height="5px" width="5px" x="56px" y="60px" /><rect fill="rgb(88,160,59)" height="5px" width="5px" x="60px" y="60px" /><rect fill="rgb(88,160,59)" height="5px" width="5px" x="64px" y="60px" /><rect fill="rgb(88,160,59)" height="5px" width="5px" x="68px" y="60px" /><rect fill="rgb(88,160,59)" height="5px" width="5px" x="72px" y="60px" /><rect fill="rgb(88,160,59)" height="5px" width="5px" x="76px" y="60px" /><rect fill="rgb(88,160,59)" height="5px" width="5px" x="80px" y="60px" /><rect fill="rgb(80,160,48)" height="5px" width="5px" x="84px" y="60px" /><rect fill="rgb(75,160,41)" height="5px" width="5px" x="88px" y="60px" /><rect fill="rgb(75,160,41)" height="5px" width="5px" x="92px" y="60px" /><rect fill="rgb(71,160,35)" height="5px" width="5px" x="96px" y="60px" /><rect fill="rgb(44,102,20)" height="5px" width="5px" x="100px" y="60px" /><rect fill="rgb(57,132,26)" height="5px" width="5px" x="24px" y="64px" /><rect fill="rgb(71,160,35)" height="5px" width="5px" x="28px" y="64px" /><rect fill="rgb(71,160,35)" height="5px" width="5px" x="32px" y="64px" /><rect fill="rgb(88,160,59)" height="5px" width="5px" x="36px" y="64px" /><rect fill="rgb(28,97,0)" height="5px" width="5px" x="40px" y="64px" /><rect fill="rgb(88,160,59)" height="5px" width="5px" x="44px" y="64px" /><rect fill="rgb(28,97,0)" height="5px" width="5px" x="48px" y="64px" /><rect fill="rgb(28,97,0)" height="5px" width="5px" x="52px" y="64px" /><rect fill="rgb(88,160,59)" height="5px" width="5px" x="56px" y="64px" /><rect fill="rgb(88,160,59)" height="5px" width="5px" x="60px" y="64px" /><rect fill="rgb(88,160,59)" height="5px" width="5px" x="64px" y="64px" /><rect fill="rgb(88,160,59)" height="5px" width="5px" x="68px" y="64px" /><rect fill="rgb(88,160,59)" height="5px" width="5px" x="72px" y="64px" /><rect fill="rgb(88,160,59)" height="5px" width="5px" x="76px" y="64px" /><rect fill="rgb(75,160,41)" height="5px" width="5px" x="80px" y="64px" /><rect fill="rgb(75,160,41)" height="5px" width="5px" x="84px" y="64px" /><rect fill="rgb(75,160,41)" height="5px" width="5px" x="88px" y="64px" /><rect fill="rgb(71,160,35)" height="5px" width="5px" x="92px" y="64px" /><rect fill="rgb(71,160,35)" height="5px" width="5px" x="96px" y="64px" /><rect fill="rgb(44,102,20)" height="5px" width="5px" x="100px" y="64px" /><rect fill="rgb(57,132,26)" height="5px" width="5px" x="28px" y="68px" /><rect fill="rgb(71,160,35)" height="5px" width="5px" x="32px" y="68px" /><rect fill="rgb(88,160,59)" height="5px" width="5px" x="36px" y="68px" /><rect fill="rgb(28,97,0)" height="5px" width="5px" x="40px" y="68px" /><rect fill="rgb(28,97,0)" height="5px" width="5px" x="44px" y="68px" /><rect fill="rgb(88,160,59)" height="5px" width="5px" x="48px" y="68px" /><rect fill="rgb(88,160,59)" height="5px" width="5px" x="52px" y="68px" /><rect fill="rgb(88,160,59)" height="5px" width="5px" x="56px" y="68px" /><rect fill="rgb(88,160,59)" height="5px" width="5px" x="60px" y="68px" /><rect fill="rgb(88,160,59)" height="5px" width="5px" x="64px" y="68px" /><rect fill="rgb(88,160,59)" height="5px" width="5px" x="68px" y="68px" /><rect fill="rgb(28,97,0)" height="5px" width="5px" x="72px" y="68px" /><rect fill="rgb(28,97,0)" height="5px" width="5px" x="76px" y="68px" /><rect fill="rgb(75,160,41)" height="5px" width="5px" x="80px" y="68px" /><rect fill="rgb(71,160,35)" height="5px" width="5px" x="84px" y="68px" /><rect fill="rgb(71,160,35)" height="5px" width="5px" x="88px" y="68px" /><rect fill="rgb(71,160,35)" height="5px" width="5px" x="92px" y="68px" /><rect fill="rgb(39,92,18)" height="5px" width="5px" x="96px" y="68px" /><rect fill="rgb(39,92,18)" height="5px" width="5px" x="100px" y="68px" /><rect fill="rgb(57,132,26)" height="5px" width="5px" x="28px" y="72px" /><rect fill="rgb(71,160,35)" height="5px" width="5px" x="32px" y="72px" /><rect fill="rgb(71,160,35)" height="5px" width="5px" x="36px" y="72px" /><rect fill="rgb(28,97,0)" height="5px" width="5px" x="40px" y="72px" /><rect fill="rgb(28,97,0)" height="5px" width="5px" x="44px" y="72px" /><rect fill="rgb(28,97,0)" height="5px" width="5px" x="48px" y="72px" /><rect fill="rgb(28,97,0)" height="5px" width="5px" x="52px" y="72px" /><rect fill="rgb(28,97,0)" height="5px" width="5px" x="56px" y="72px" /><rect fill="rgb(28,97,0)" height="5px" width="5px" x="60px" y="72px" /><rect fill="rgb(28,97,0)" height="5px" width="5px" x="64px" y="72px" /><rect fill="rgb(28,97,0)" height="5px" width="5px" x="68px" y="72px" /><rect fill="rgb(28,97,0)" height="5px" width="5px" x="72px" y="72px" /><rect fill="rgb(71,160,35)" height="5px" width="5px" x="76px" y="72px" /><rect fill="rgb(71,160,35)" height="5px" width="5px" x="80px" y="72px" /><rect fill="rgb(71,160,35)" height="5px" width="5px" x="84px" y="72px" /><rect fill="rgb(44,102,20)" height="5px" width="5px" x="88px" y="72px" /><rect fill="rgb(39,92,18)" height="5px" width="5px" x="92px" y="72px" /><rect fill="rgb(39,92,18)" height="5px" width="5px" x="96px" y="72px" /><rect fill="rgb(57,132,26)" height="5px" width="5px" x="32px" y="76px" /><rect fill="rgb(71,160,35)" height="5px" width="5px" x="36px" y="76px" /><rect fill="rgb(28,97,0)" height="5px" width="5px" x="40px" y="76px" /><rect fill="rgb(71,160,35)" height="5px" width="5px" x="44px" y="76px" /><rect fill="rgb(71,160,35)" height="5px" width="5px" x="48px" y="76px" /><rect fill="rgb(71,160,35)" height="5px" width="5px" x="52px" y="76px" /><rect fill="rgb(71,160,35)" height="5px" width="5px" x="56px" y="76px" /><rect fill="rgb(71,160,35)" height="5px" width="5px" x="60px" y="76px" /><rect fill="rgb(71,160,35)" height="5px" width="5px" x="64px" y="76px" /><rect fill="rgb(71,160,35)" height="5px" width="5px" x="68px" y="76px" /><rect fill="rgb(71,160,35)" height="5px" width="5px" x="72px" y="76px" /><rect fill="rgb(71,160,35)" height="5px" width="5px" x="76px" y="76px" /><rect fill="rgb(44,102,20)" height="5px" width="5px" x="80px" y="76px" /><rect fill="rgb(44,102,20)" height="5px" width="5px" x="84px" y="76px" /><rect fill="rgb(39,92,18)" height="5px" width="5px" x="88px" y="76px" /><rect fill="rgb(57,132,26)" height="5px" width="5px" x="36px" y="80px" /><rect fill="rgb(28,97,0)" height="5px" width="5px" x="40px" y="80px" /><rect fill="rgb(57,132,26)" height="5px" width="5px" x="44px" y="80px" /><rect fill="rgb(57,132,26)" height="5px" width="5px" x="48px" y="80px" /><rect fill="rgb(57,132,26)" height="5px" width="5px" x="52px" y="80px" /><rect fill="rgb(51,120,23)" height="5px" width="5px" x="56px" y="80px" /><rect fill="rgb(51,120,23)" height="5px" width="5px" x="60px" y="80px" /><rect fill="rgb(51,120,23)" height="5px" width="5px" x="64px" y="80px" /><rect fill="rgb(51,120,23)" height="5px" width="5px" x="68px" y="80px" /><rect fill="rgb(44,102,20)" height="5px" width="5px" x="72px" y="80px" /><rect fill="rgb(44,102,20)" height="5px" width="5px" x="76px" y="80px" /><rect fill="rgb(44,102,20)" height="5px" width="5px" x="80px" y="80px" /><rect fill="rgb(28,97,0)" height="5px" width="5px" x="32px" y="84px" /><rect fill="rgb(28,97,0)" height="5px" width="5px" x="36px" y="84px" /><rect fill="rgb(28,97,0)" height="5px" width="5px" x="40px" y="84px" /><rect fill="rgb(28,97,0)" height="5px" width="5px" x="32px" y="88px" /><rect fill="rgb(28,97,0)" height="5px" width="5px" x="28px" y="92px" /><rect fill="rgb(28,97,0)" height="5px" width="5px" x="32px" y="92px" /><rect fill="rgb(28,97,0)" height="5px" width="5px" x="24px" y="96px" /><rect fill="rgb(28,97,0)" height="5px" width="5px" x="28px" y="96px" /><rect fill="rgb(47,160,0)" height="5px" width="5px" x="20px" y="100px" /><rect fill="rgb(28,97,0)" height="5px" width="5px" x="24px" y="100px" /><rect fill="rgb(28,97,0)" height="5px" width="5px" x="20px" y="104px" /><rect fill="rgb(28,97,0)" height="5px" width="5px" x="24px" y="104px" /><rect fill="rgb(28,97,0)" height="5px" width="5px" x="20px" y="108px" /><rect fill="rgb(28,97,0)" height="5px" width="5px" x="20px" y="112px" /><rect fill="rgb(28,97,0)" height="5px" width="5px" x="20px" y="116px" /><rect fill="rgb(28,97,0)" height="5px" width="5px" x="16px" y="120px" /><rect fill="rgb(28,97,0)" height="5px" width="5px" x="20px" y="120px" /></svg>