<?xml version="1.0" encoding="utf-8" ?>
<svg baseProfile="full" height="128px" version="1.1" width="128px" xmlns="http://www.w3.org/2000/svg" xmlns:ev="http://www.w3.org/2001/xml-events" xmlns:xlink="http://www.w3.org/1999/xlink"><defs /><rect fill="rgb(0,0,0)" height="5px" opacity="0.145098039216" width="5px" x="52px" y="4px" /><rect fill="rgb(0,0,0)" height="5px" opacity="0.717647058824" width="5px" x="56px" y="4px" /><rect fill="rgb(0,0,0)" height="5px" opacity="0.145098039216" width="5px" x="60px" y="4px" /><rect fill="rgb(0,0,0)" height="5px" opacity="0.309803921569" width="5px" x="56px" y="8px" /><rect fill="rgb(0,0,0)" height="5px" opacity="0.611764705882" width="5px" x="60px" y="8px" /><rect fill="rgb(0,0,0)" height="5px" opacity="0.129411764706" width="5px" x="64px" y="8px" /><rect fill="rgb(0,0,0)" height="5px" opacity="0.0078431372549" width="5px" x="96px" y="8px" /><rect fill="rgb(0,0,0)" height="5px" opacity="0.458823529412" width="5px" x="16px" y="12px" /><rect fill="rgb(0,0,0)" height="5px" opacity="0.870588235294" width="5px" x="20px" y="12px" /><rect fill="rgb(0,0,0)" height="5px" opacity="0.0705882352941" width="5px" x="24px" y="12px" /><rect fill="rgb(0,0,0)" height="5px" opacity="0.713725490196" width="5px" x="56px" y="12px" /><rect fill="rgb(0,0,0)" height="5px" opacity="0.772549019608" width="5px" x="60px" y="12px" /><rect fill="rgb(0,0,0)" height="5px" opacity="0.0156862745098" width="5px" x="64px" y="12px" /><rect fill="rgb(0,0,0)" height="5px" opacity="0.643137254902" width="5px" x="92px" y="12px" /><rect fill="rgb(0,0,0)" height="5px" opacity="0.176470588235" width="5px" x="96px" y="12px" /><rect fill="rgb(0,0,0)" height="5px" opacity="0.141176470588" width="5px" x="16px" y="16px" /><rect fill="rgb(0,0,0)" height="5px" opacity="0.929411764706" width="5px" x="20px" y="16px" /><rect fill="rgb(0,0,0)" height="5px" opacity="0.819607843137" width="5px" x="24px" y="16px" /><rect fill="rgb(0,0,0)" height="5px" opacity="0.729411764706" width="5px" x="56px" y="16px" /><rect fill="rgb(0,0,0)" height="5px" opacity="0.772549019608" width="5px" x="60px" y="16px" /><rect fill="rgb(0,0,0)" height="5px" opacity="0.725490196078" width="5px" x="88px" y="16px" /><rect fill="rgb(0,0,0)" height="5px" opacity="0.274509803922" width="5px" x="92px" y="16px" /><rect fill="rgb(0,0,0)" height="5px" opacity="0.137254901961" width="5px" x="20px" y="20px" /><rect fill="rgb(0,0,0)" height="5px" opacity="0.901960784314" width="5px" x="24px" y="20px" /><rect fill="rgb(0,0,0)" height="5px" opacity="0.18431372549" width="5px" x="28px" y="20px" /><rect fill="rgb(0,0,0)" height="5px" opacity="0.862745098039" width="5px" x="56px" y="20px" /><rect fill="rgb(0,0,0)" height="5px" opacity="0.564705882353" width="5px" x="60px" y="20px" /><rect fill="rgb(0,0,0)" height="5px" opacity="0.0156862745098" width="5px" x="80px" y="20px" /><rect fill="rgb(0,0,0)" height="5px" opacity="0.635294117647" width="5px" x="84px" y="20px" /><rect fill="rgb(0,0,0)" height="5px" opacity="0.329411764706" width="5px" x="88px" y="20px" /><rect fill="rgb(0,0,0)" height="5px" opacity="0.403921568627" width="5px" x="24px" y="24px" /><rect fill="rgb(0,0,0)" height="5px" opacity="0.752941176471" width="5px" x="28px" y="24px" /><rect fill="rgb(0,0,0)" height="5px" opacity="0.137254901961" width="5px" x="32px" y="24px" /><rect fill="rgb(0,0,0)" height="5px" opacity="0.043137254902" width="5px" x="52px" y="24px" /><rect fill="rgb(0,0,0)" height="5px" width="5px" x="56px" y="24px" /><rect fill="rgb(0,0,0)" height="5px" opacity="0.341176470588" width="5px" x="60px" y="24px" /><rect fill="rgb(0,0,0)" height="5px" opacity="0.0666666666667" width="5px" x="76px" y="24px" /><rect fill="rgb(0,0,0)" height="5px" opacity="0.835294117647" width="5px" x="80px" y="24px" /><rect fill="rgb(0,0,0)" height="5px" opacity="0.580392156863" width="5px" x="84px" y="24px" /><rect fill="rgb(0,0,0)" height="5px" opacity="0.0627450980392" width="5px" x="24px" y="28px" /><rect fill="rgb(0,0,0)" height="5px" width="5px" x="28px" y="28px" /><rect fill="rgb(0,0,0)" height="5px" width="5px" x="32px" y="28px" /><rect fill="rgb(0,0,0)" height="5px" opacity="0.705882352941" width="5px" x="36px" y="28px" /><rect fill="rgb(0,0,0)" height="5px" opacity="0.137254901961" width="5px" x="40px" y="28px" /><rect fill="rgb(0,0,0)" height="5px" opacity="0.227450980392" width="5px" x="52px" y="28px" /><rect fill="rgb(0,0,0)" height="5px" width="5px" x="56px" y="28px" /><rect fill="rgb(0,0,0)" height="5px" opacity="0.38431372549" width="5px" x="60px" y="28px" /><rect fill="rgb(0,0,0)" height="5px" opacity="0.219607843137" width="5px" x="72px" y="28px" /><rect fill="rgb(0,0,0)" height="5px" opacity="0.976470588235" width="5px" x="76px" y="28px" /><rect fill="rgb(0,0,0)" height="5px" opacity="0.772549019608" width="5px" x="80px" y="28px" /><rect fill="rgb(0,0,0)" height="5px" opacity="0.0078431372549" width="5px" x="84px" y="28px" /><rect fill="rgb(0,0,0)" height="5px" opacity="0.909803921569" width="5px" x="28px" y="32px" /><rect fill="rgb(0,0,0)" height="5px" width="5px" x="32px" y="32px" /><rect fill="rgb(0,0,0)" height="5px" width="5px" x="36px" y="32px" /><rect fill="rgb(0,0,0)" height="5px" width="5px" x="40px" y="32px" /><rect fill="rgb(0,0,0)" height="5px" opacity="0.709803921569" width="5px" x="44px" y="32px" /><rect fill="rgb(0,0,0)" height="5px" opacity="0.125490196078" width="5px" x="48px" y="32px" /><rect fill="rgb(0,0,0)" height="5px" opacity="0.572549019608" width="5px" x="52px" y="32px" /><rect fill="rgb(0,0,0)" height="5px" width="5px" x="56px" y="32px" /><rect fill="rgb(0,0,0)" height="5px" opacity="0.427450980392" width="5px" x="60px" y="32px" /><rect fill="rgb(0,0,0)" height="5px" opacity="0.00392156862745" width="5px" x="64px" y="32px" /><rect fill="rgb(0,0,0)" height="5px" opacity="0.494117647059" width="5px" x="68px" y="32px" /><rect fill="rgb(0,0,0)" height="5px" width="5px" x="72px" y="32px" /><rect fill="rgb(0,0,0)" height="5px" opacity="0.913725490196" width="5px" x="76px" y="32px" /><rect fill="rgb(0,0,0)" height="5px" opacity="0.0352941176471" width="5px" x="80px" y="32px" /><rect fill="rgb(0,0,0)" height="5px" opacity="0.498039215686" width="5px" x="28px" y="36px" /><rect fill="rgb(0,0,0)" height="5px" width="5px" x="32px" y="36px" /><rect fill="rgb(0,0,0)" height="5px" opacity="0.635294117647" width="5px" x="36px" y="36px" /><rect fill="rgb(0,0,0)" height="5px" opacity="0.988235294118" width="5px" x="40px" y="36px" /><rect fill="rgb(0,0,0)" height="5px" width="5px" x="44px" y="36px" /><rect fill="rgb(0,0,0)" height="5px" width="5px" x="48px" y="36px" /><rect fill="rgb(0,0,0)" height="5px" width="5px" x="52px" y="36px" /><rect fill="rgb(0,0,0)" height="5px" opacity="0.933333333333" width="5px" x="56px" y="36px" /><rect fill="rgb(0,0,0)" height="5px" opacity="0.666666666667" width="5px" x="60px" y="36px" /><rect fill="rgb(0,0,0)" height="5px" opacity="0.752941176471" width="5px" x="64px" y="36px" /><rect fill="rgb(0,0,0)" height="5px" width="5px" x="68px" y="36px" /><rect fill="rgb(0,0,0)" height="5px" opacity="0.992156862745" width="5px" x="72px" y="36px" /><rect fill="rgb(0,0,0)" height="5px" opacity="0.109803921569" width="5px" x="76px" y="36px" /><rect fill="rgb(0,0,0)" height="5px" opacity="0.192156862745" width="5px" x="28px" y="40px" /><rect fill="rgb(0,0,0)" height="5px" width="5px" x="32px" y="40px" /><rect fill="rgb(0,0,0)" height="5px" opacity="0.890196078431" width="5px" x="36px" y="40px" /><rect fill="rgb(0,0,0)" height="5px" opacity="0.403921568627" width="5px" x="40px" y="40px" /><rect fill="rgb(0,0,0)" height="5px" opacity="0.749019607843" width="5px" x="44px" y="40px" /><rect fill="rgb(0,0,0)" height="5px" opacity="0.749019607843" width="5px" x="48px" y="40px" /><rect fill="rgb(0,0,0)" height="5px" opacity="0.709803921569" width="5px" x="52px" y="40px" /><rect fill="rgb(0,0,0)" height="5px" opacity="0.513725490196" width="5px" x="56px" y="40px" /><rect fill="rgb(0,0,0)" height="5px" opacity="0.945098039216" width="5px" x="60px" y="40px" /><rect fill="rgb(0,0,0)" height="5px" opacity="0.956862745098" width="5px" x="64px" y="40px" /><rect fill="rgb(0,0,0)" height="5px" width="5px" x="68px" y="40px" /><rect fill="rgb(0,0,0)" height="5px" opacity="0.262745098039" width="5px" x="72px" y="40px" /><rect fill="rgb(0,0,0)" height="5px" opacity="0.0274509803922" width="5px" x="28px" y="44px" /><rect fill="rgb(0,0,0)" height="5px" width="5px" x="32px" y="44px" /><rect fill="rgb(0,0,0)" height="5px" width="5px" x="36px" y="44px" /><rect fill="rgb(0,0,0)" height="5px" opacity="0.192156862745" width="5px" x="40px" y="44px" /><rect fill="rgb(0,0,0)" height="5px" opacity="0.152941176471" width="5px" x="44px" y="44px" /><rect fill="rgb(0,0,0)" height="5px" opacity="0.0549019607843" width="5px" x="48px" y="44px" /><rect fill="rgb(0,0,0)" height="5px" opacity="0.0627450980392" width="5px" x="52px" y="44px" /><rect fill="rgb(0,0,0)" height="5px" opacity="0.192156862745" width="5px" x="56px" y="44px" /><rect fill="rgb(0,0,0)" height="5px" opacity="0.23137254902" width="5px" x="60px" y="44px" /><rect fill="rgb(0,0,0)" height="5px" opacity="0.580392156863" width="5px" x="64px" y="44px" /><rect fill="rgb(0,0,0)" height="5px" width="5px" x="68px" y="44px" /><rect fill="rgb(0,0,0)" height="5px" opacity="0.8" width="5px" x="72px" y="44px" /><rect fill="rgb(0,0,0)" height="5px" opacity="0.705882352941" width="5px" x="76px" y="44px" /><rect fill="rgb(0,0,0)" height="5px" opacity="0.619607843137" width="5px" x="80px" y="44px" /><rect fill="rgb(0,0,0)" height="5px" opacity="0.537254901961" width="5px" x="84px" y="44px" /><rect fill="rgb(0,0,0)" height="5px" opacity="0.450980392157" width="5px" x="88px" y="44px" /><rect fill="rgb(0,0,0)" height="5px" opacity="0.388235294118" width="5px" x="92px" y="44px" /><rect fill="rgb(0,0,0)" height="5px" opacity="0.329411764706" width="5px" x="96px" y="44px" /><rect fill="rgb(0,0,0)" height="5px" opacity="0.270588235294" width="5px" x="100px" y="44px" /><rect fill="rgb(0,0,0)" height="5px" opacity="0.219607843137" width="5px" x="104px" y="44px" /><rect fill="rgb(0,0,0)" height="5px" opacity="0.043137254902" width="5px" x="108px" y="44px" /><rect fill="rgb(0,0,0)" height="5px" opacity="0.792156862745" width="5px" x="32px" y="48px" /><rect fill="rgb(0,0,0)" height="5px" width="5px" x="36px" y="48px" /><rect fill="rgb(0,0,0)" height="5px" opacity="0.137254901961" width="5px" x="40px" y="48px" /><rect fill="rgb(0,0,0)" height="5px" opacity="0.00392156862745" width="5px" x="48px" y="48px" /><rect fill="rgb(0,0,0)" height="5px" opacity="0.0078431372549" width="5px" x="52px" y="48px" /><rect fill="rgb(0,0,0)" height="5px" opacity="0.00392156862745" width="5px" x="56px" y="48px" /><rect fill="rgb(0,0,0)" height="5px" opacity="0.0078431372549" width="5px" x="60px" y="48px" /><rect fill="rgb(0,0,0)" height="5px" opacity="0.137254901961" width="5px" x="64px" y="48px" /><rect fill="rgb(0,0,0)" height="5px" opacity="0.529411764706" width="5px" x="68px" y="48px" /><rect fill="rgb(0,0,0)" height="5px" width="5px" x="72px" y="48px" /><rect fill="rgb(0,0,0)" height="5px" width="5px" x="76px" y="48px" /><rect fill="rgb(0,0,0)" height="5px" width="5px" x="80px" y="48px" /><rect fill="rgb(0,0,0)" height="5px" width="5px" x="84px" y="48px" /><rect fill="rgb(0,0,0)" height="5px" width="5px" x="88px" y="48px" /><rect fill="rgb(0,0,0)" height="5px" width="5px" x="92px" y="48px" /><rect fill="rgb(0,0,0)" height="5px" width="5px" x="96px" y="48px" /><rect fill="rgb(0,0,0)" height="5px" opacity="0.592156862745" width="5px" x="100px" y="48px" /><rect fill="rgb(0,0,0)" height="5px" opacity="0.0901960784314" width="5px" x="104px" y="48px" /><rect fill="rgb(0,0,0)" height="5px" opacity="0.56862745098" width="5px" x="32px" y="52px" /><rect fill="rgb(0,0,0)" height="5px" width="5px" x="36px" y="52px" /><rect fill="rgb(0,0,0)" height="5px" opacity="0.278431372549" width="5px" x="40px" y="52px" /><rect fill="rgb(0,0,0)" height="5px" opacity="0.0078431372549" width="5px" x="44px" y="52px" /><rect fill="rgb(0,0,0)" height="5px" opacity="0.00392156862745" width="5px" x="48px" y="52px" /><rect fill="rgb(0,0,0)" height="5px" opacity="0.00392156862745" width="5px" x="52px" y="52px" /><rect fill="rgb(0,0,0)" height="5px" opacity="0.0078431372549" width="5px" x="56px" y="52px" /><rect fill="rgb(0,0,0)" height="5px" opacity="0.0313725490196" width="5px" x="60px" y="52px" /><rect fill="rgb(0,0,0)" height="5px" opacity="0.0549019607843" width="5px" x="64px" y="52px" /><rect fill="rgb(0,0,0)" height="5px" opacity="0.125490196078" width="5px" x="68px" y="52px" /><rect fill="rgb(0,0,0)" height="5px" opacity="0.317647058824" width="5px" x="72px" y="52px" /><rect fill="rgb(0,0,0)" height="5px" opacity="0.835294117647" width="5px" x="76px" y="52px" /><rect fill="rgb(0,0,0)" height="5px" width="5px" x="80px" y="52px" /><rect fill="rgb(0,0,0)" height="5px" width="5px" x="84px" y="52px" /><rect fill="rgb(0,0,0)" height="5px" opacity="0.992156862745" width="5px" x="88px" y="52px" /><rect fill="rgb(0,0,0)" height="5px" opacity="0.486274509804" width="5px" x="92px" y="52px" /><rect fill="rgb(0,0,0)" height="5px" opacity="0.0509803921569" width="5px" x="96px" y="52px" /><rect fill="rgb(0,0,0)" height="5px" opacity="0.372549019608" width="5px" x="28px" y="56px" /><rect fill="rgb(0,0,0)" height="5px" width="5px" x="32px" y="56px" /><rect fill="rgb(0,0,0)" height="5px" opacity="0.996078431373" width="5px" x="36px" y="56px" /><rect fill="rgb(0,0,0)" height="5px" opacity="0.141176470588" width="5px" x="40px" y="56px" /><rect fill="rgb(0,0,0)" height="5px" opacity="0.0117647058824" width="5px" x="44px" y="56px" /><rect fill="rgb(0,0,0)" height="5px" opacity="0.0078431372549" width="5px" x="48px" y="56px" /><rect fill="rgb(0,0,0)" height="5px" opacity="0.00392156862745" width="5px" x="52px" y="56px" /><rect fill="rgb(0,0,0)" height="5px" opacity="0.0117647058824" width="5px" x="56px" y="56px" /><rect fill="rgb(0,0,0)" height="5px" opacity="0.113725490196" width="5px" x="60px" y="56px" /><rect fill="rgb(0,0,0)" height="5px" opacity="0.101960784314" width="5px" x="64px" y="56px" /><rect fill="rgb(0,0,0)" height="5px" opacity="0.286274509804" width="5px" x="68px" y="56px" /><rect fill="rgb(0,0,0)" height="5px" opacity="0.827450980392" width="5px" x="72px" y="56px" /><rect fill="rgb(0,0,0)" height="5px" width="5px" x="76px" y="56px" /><rect fill="rgb(0,0,0)" height="5px" opacity="0.98431372549" width="5px" x="80px" y="56px" /><rect fill="rgb(0,0,0)" height="5px" opacity="0.494117647059" width="5px" x="84px" y="56px" /><rect fill="rgb(0,0,0)" height="5px" opacity="0.0392156862745" width="5px" x="88px" y="56px" /><rect fill="rgb(0,0,0)" height="5px" opacity="0.00392156862745" width="5px" x="20px" y="60px" /><rect fill="rgb(0,0,0)" height="5px" opacity="0.537254901961" width="5px" x="24px" y="60px" /><rect fill="rgb(0,0,0)" height="5px" width="5px" x="28px" y="60px" /><rect fill="rgb(0,0,0)" height="5px" width="5px" x="32px" y="60px" /><rect fill="rgb(0,0,0)" height="5px" opacity="0.541176470588" width="5px" x="36px" y="60px" /><rect fill="rgb(0,0,0)" height="5px" opacity="0.274509803922" width="5px" x="40px" y="60px" /><rect fill="rgb(0,0,0)" height="5px" opacity="0.333333333333" width="5px" x="44px" y="60px" /><rect fill="rgb(0,0,0)" height="5px" opacity="0.0078431372549" width="5px" x="52px" y="60px" /><rect fill="rgb(0,0,0)" height="5px" opacity="0.0078431372549" width="5px" x="56px" y="60px" /><rect fill="rgb(0,0,0)" height="5px" opacity="0.21568627451" width="5px" x="60px" y="60px" /><rect fill="rgb(0,0,0)" height="5px" opacity="0.290196078431" width="5px" x="64px" y="60px" /><rect fill="rgb(0,0,0)" height="5px" opacity="0.250980392157" width="5px" x="68px" y="60px" /><rect fill="rgb(0,0,0)" height="5px" opacity="0.847058823529" width="5px" x="72px" y="60px" /><rect fill="rgb(0,0,0)" height="5px" opacity="0.913725490196" width="5px" x="76px" y="60px" /><rect fill="rgb(0,0,0)" height="5px" opacity="0.043137254902" width="5px" x="80px" y="60px" /><rect fill="rgb(0,0,0)" height="5px" opacity="0.0078431372549" width="5px" x="16px" y="64px" /><rect fill="rgb(0,0,0)" height="5px" opacity="0.647058823529" width="5px" x="20px" y="64px" /><rect fill="rgb(0,0,0)" height="5px" width="5px" x="24px" y="64px" /><rect fill="rgb(0,0,0)" height="5px" opacity="0.992156862745" width="5px" x="28px" y="64px" /><rect fill="rgb(0,0,0)" height="5px" width="5px" x="32px" y="64px" /><rect fill="rgb(0,0,0)" height="5px" width="5px" x="36px" y="64px" /><rect fill="rgb(0,0,0)" height="5px" width="5px" x="40px" y="64px" /><rect fill="rgb(0,0,0)" height="5px" opacity="0.662745098039" width="5px" x="44px" y="64px" /><rect fill="rgb(0,0,0)" height="5px" opacity="0.0588235294118" width="5px" x="48px" y="64px" /><rect fill="rgb(0,0,0)" height="5px" opacity="0.0156862745098" width="5px" x="52px" y="64px" /><rect fill="rgb(0,0,0)" height="5px" opacity="0.00392156862745" width="5px" x="56px" y="64px" /><rect fill="rgb(0,0,0)" height="5px" opacity="0.00392156862745" width="5px" x="60px" y="64px" /><rect fill="rgb(0,0,0)" height="5px" opacity="0.117647058824" width="5px" x="64px" y="64px" /><rect fill="rgb(0,0,0)" height="5px" opacity="0.254901960784" width="5px" x="68px" y="64px" /><rect fill="rgb(0,0,0)" height="5px" opacity="0.827450980392" width="5px" x="72px" y="64px" /><rect fill="rgb(0,0,0)" height="5px" width="5px" x="76px" y="64px" /><rect fill="rgb(0,0,0)" height="5px" opacity="0.792156862745" width="5px" x="80px" y="64px" /><rect fill="rgb(0,0,0)" height="5px" opacity="0.0549019607843" width="5px" x="84px" y="64px" /><rect fill="rgb(0,0,0)" height="5px" opacity="0.0274509803922" width="5px" x="12px" y="68px" /><rect fill="rgb(0,0,0)" height="5px" opacity="0.772549019608" width="5px" x="16px" y="68px" /><rect fill="rgb(0,0,0)" height="5px" width="5px" x="20px" y="68px" /><rect fill="rgb(0,0,0)" height="5px" width="5px" x="24px" y="68px" /><rect fill="rgb(0,0,0)" height="5px" width="5px" x="28px" y="68px" /><rect fill="rgb(0,0,0)" height="5px" width="5px" x="32px" y="68px" /><rect fill="rgb(0,0,0)" height="5px" opacity="0.870588235294" width="5px" x="36px" y="68px" /><rect fill="rgb(0,0,0)" height="5px" opacity="0.635294117647" width="5px" x="40px" y="68px" /><rect fill="rgb(0,0,0)" height="5px" width="5px" x="44px" y="68px" /><rect fill="rgb(0,0,0)" height="5px" opacity="0.850980392157" width="5px" x="48px" y="68px" /><rect fill="rgb(0,0,0)" height="5px" opacity="0.4" width="5px" x="52px" y="68px" /><rect fill="rgb(0,0,0)" height="5px" opacity="0.388235294118" width="5px" x="56px" y="68px" /><rect fill="rgb(0,0,0)" height="5px" opacity="0.290196078431" width="5px" x="60px" y="68px" /><rect fill="rgb(0,0,0)" height="5px" opacity="0.478431372549" width="5px" x="64px" y="68px" /><rect fill="rgb(0,0,0)" height="5px" opacity="0.937254901961" width="5px" x="68px" y="68px" /><rect fill="rgb(0,0,0)" height="5px" opacity="0.964705882353" width="5px" x="72px" y="68px" /><rect fill="rgb(0,0,0)" height="5px" opacity="0.964705882353" width="5px" x="76px" y="68px" /><rect fill="rgb(0,0,0)" height="5px" width="5px" x="80px" y="68px" /><rect fill="rgb(0,0,0)" height="5px" opacity="0.96862745098" width="5px" x="84px" y="68px" /><rect fill="rgb(0,0,0)" height="5px" opacity="0.219607843137" width="5px" x="88px" y="68px" /><rect fill="rgb(0,0,0)" height="5px" opacity="0.239215686275" width="5px" x="4px" y="72px" /><rect fill="rgb(0,0,0)" height="5px" opacity="0.61568627451" width="5px" x="8px" y="72px" /><rect fill="rgb(0,0,0)" height="5px" opacity="0.878431372549" width="5px" x="12px" y="72px" /><rect fill="rgb(0,0,0)" height="5px" opacity="0.549019607843" width="5px" x="16px" y="72px" /><rect fill="rgb(0,0,0)" height="5px" opacity="0.341176470588" width="5px" x="20px" y="72px" /><rect fill="rgb(0,0,0)" height="5px" opacity="0.172549019608" width="5px" x="24px" y="72px" /><rect fill="rgb(0,0,0)" height="5px" opacity="0.0666666666667" width="5px" x="28px" y="72px" /><rect fill="rgb(0,0,0)" height="5px" opacity="0.0078431372549" width="5px" x="32px" y="72px" /><rect fill="rgb(0,0,0)" height="5px" opacity="0.0509803921569" width="5px" x="40px" y="72px" /><rect fill="rgb(0,0,0)" height="5px" width="5px" x="44px" y="72px" /><rect fill="rgb(0,0,0)" height="5px" opacity="0.81568627451" width="5px" x="48px" y="72px" /><rect fill="rgb(0,0,0)" height="5px" opacity="0.941176470588" width="5px" x="52px" y="72px" /><rect fill="rgb(0,0,0)" height="5px" opacity="0.941176470588" width="5px" x="56px" y="72px" /><rect fill="rgb(0,0,0)" height="5px" opacity="0.941176470588" width="5px" x="60px" y="72px" /><rect fill="rgb(0,0,0)" height="5px" opacity="0.886274509804" width="5px" x="64px" y="72px" /><rect fill="rgb(0,0,0)" height="5px" opacity="0.796078431373" width="5px" x="68px" y="72px" /><rect fill="rgb(0,0,0)" height="5px" opacity="0.745098039216" width="5px" x="72px" y="72px" /><rect fill="rgb(0,0,0)" height="5px" width="5px" x="76px" y="72px" /><rect fill="rgb(0,0,0)" height="5px" width="5px" x="80px" y="72px" /><rect fill="rgb(0,0,0)" height="5px" width="5px" x="84px" y="72px" /><rect fill="rgb(0,0,0)" height="5px" width="5px" x="88px" y="72px" /><rect fill="rgb(0,0,0)" height="5px" opacity="0.521568627451" width="5px" x="92px" y="72px" /><rect fill="rgb(0,0,0)" height="5px" opacity="0.0078431372549" width="5px" x="96px" y="72px" /><rect fill="rgb(0,0,0)" height="5px" opacity="0.529411764706" width="5px" x="4px" y="76px" /><rect fill="rgb(0,0,0)" height="5px" opacity="0.937254901961" width="5px" x="8px" y="76px" /><rect fill="rgb(0,0,0)" height="5px" opacity="0.211764705882" width="5px" x="40px" y="76px" /><rect fill="rgb(0,0,0)" height="5px" width="5px" x="44px" y="76px" /><rect fill="rgb(0,0,0)" height="5px" width="5px" x="48px" y="76px" /><rect fill="rgb(0,0,0)" height="5px" opacity="0.772549019608" width="5px" x="52px" y="76px" /><rect fill="rgb(0,0,0)" height="5px" opacity="0.592156862745" width="5px" x="56px" y="76px" /><rect fill="rgb(0,0,0)" height="5px" width="5px" x="60px" y="76px" /><rect fill="rgb(0,0,0)" height="5px" opacity="0.972549019608" width="5px" x="64px" y="76px" /><rect fill="rgb(0,0,0)" height="5px" opacity="0.98431372549" width="5px" x="68px" y="76px" /><rect fill="rgb(0,0,0)" height="5px" opacity="0.0196078431373" width="5px" x="72px" y="76px" /><rect fill="rgb(0,0,0)" height="5px" opacity="0.0392156862745" width="5px" x="76px" y="76px" /><rect fill="rgb(0,0,0)" height="5px" opacity="0.286274509804" width="5px" x="80px" y="76px" /><rect fill="rgb(0,0,0)" height="5px" opacity="0.752941176471" width="5px" x="84px" y="76px" /><rect fill="rgb(0,0,0)" height="5px" width="5px" x="88px" y="76px" /><rect fill="rgb(0,0,0)" height="5px" width="5px" x="92px" y="76px" /><rect fill="rgb(0,0,0)" height="5px" opacity="0.807843137255" width="5px" x="96px" y="76px" /><rect fill="rgb(0,0,0)" height="5px" opacity="0.0666666666667" width="5px" x="100px" y="76px" /><rect fill="rgb(0,0,0)" height="5px" opacity="0.482352941176" width="5px" x="40px" y="80px" /><rect fill="rgb(0,0,0)" height="5px" width="5px" x="44px" y="80px" /><rect fill="rgb(0,0,0)" height="5px" width="5px" x="48px" y="80px" /><rect fill="rgb(0,0,0)" height="5px" opacity="0.0941176470588" width="5px" x="52px" y="80px" /><rect fill="rgb(0,0,0)" height="5px" opacity="0.00392156862745" width="5px" x="56px" y="80px" /><rect fill="rgb(0,0,0)" height="5px" opacity="0.729411764706" width="5px" x="60px" y="80px" /><rect fill="rgb(0,0,0)" height="5px" width="5px" x="64px" y="80px" /><rect fill="rgb(0,0,0)" height="5px" width="5px" x="68px" y="80px" /><rect fill="rgb(0,0,0)" height="5px" opacity="0.321568627451" width="5px" x="72px" y="80px" /><rect fill="rgb(0,0,0)" height="5px" opacity="0.0274509803922" width="5px" x="88px" y="80px" /><rect fill="rgb(0,0,0)" height="5px" opacity="0.250980392157" width="5px" x="92px" y="80px" /><rect fill="rgb(0,0,0)" height="5px" opacity="0.725490196078" width="5px" x="96px" y="80px" /><rect fill="rgb(0,0,0)" height="5px" opacity="0.992156862745" width="5px" x="100px" y="80px" /><rect fill="rgb(0,0,0)" height="5px" opacity="0.286274509804" width="5px" x="104px" y="80px" /><rect fill="rgb(0,0,0)" height="5px" opacity="0.843137254902" width="5px" x="40px" y="84px" /><rect fill="rgb(0,0,0)" height="5px" width="5px" x="44px" y="84px" /><rect fill="rgb(0,0,0)" height="5px" opacity="0.470588235294" width="5px" x="48px" y="84px" /><rect fill="rgb(0,0,0)" height="5px" opacity="0.0235294117647" width="5px" x="60px" y="84px" /><rect fill="rgb(0,0,0)" height="5px" opacity="0.870588235294" width="5px" x="64px" y="84px" /><rect fill="rgb(0,0,0)" height="5px" width="5px" x="68px" y="84px" /><rect fill="rgb(0,0,0)" height="5px" opacity="0.901960784314" width="5px" x="72px" y="84px" /><rect fill="rgb(0,0,0)" height="5px" opacity="0.00392156862745" width="5px" x="76px" y="84px" /><rect fill="rgb(0,0,0)" height="5px" opacity="0.0274509803922" width="5px" x="100px" y="84px" /><rect fill="rgb(0,0,0)" height="5px" opacity="0.835294117647" width="5px" x="104px" y="84px" /><rect fill="rgb(0,0,0)" height="5px" opacity="0.745098039216" width="5px" x="108px" y="84px" /><rect fill="rgb(0,0,0)" height="5px" opacity="0.0117647058824" width="5px" x="112px" y="84px" /><rect fill="rgb(0,0,0)" height="5px" opacity="0.0235294117647" width="5px" x="36px" y="88px" /><rect fill="rgb(0,0,0)" height="5px" width="5px" x="40px" y="88px" /><rect fill="rgb(0,0,0)" height="5px" opacity="0.913725490196" width="5px" x="44px" y="88px" /><rect fill="rgb(0,0,0)" height="5px" opacity="0.0156862745098" width="5px" x="48px" y="88px" /><rect fill="rgb(0,0,0)" height="5px" opacity="0.0705882352941" width="5px" x="64px" y="88px" /><rect fill="rgb(0,0,0)" height="5px" opacity="0.960784313725" width="5px" x="68px" y="88px" /><rect fill="rgb(0,0,0)" height="5px" width="5px" x="72px" y="88px" /><rect fill="rgb(0,0,0)" height="5px" opacity="0.203921568627" width="5px" x="76px" y="88px" /><rect fill="rgb(0,0,0)" height="5px" opacity="0.0156862745098" width="5px" x="112px" y="88px" /><rect fill="rgb(0,0,0)" height="5px" opacity="0.149019607843" width="5px" x="36px" y="92px" /><rect fill="rgb(0,0,0)" height="5px" width="5px" x="40px" y="92px" /><rect fill="rgb(0,0,0)" height="5px" opacity="0.211764705882" width="5px" x="44px" y="92px" /><rect fill="rgb(0,0,0)" height="5px" opacity="0.149019607843" width="5px" x="68px" y="92px" /><rect fill="rgb(0,0,0)" height="5px" width="5px" x="72px" y="92px" /><rect fill="rgb(0,0,0)" height="5px" opacity="0.772549019608" width="5px" x="76px" y="92px" /><rect fill="rgb(0,0,0)" height="5px" opacity="0.380392156863" width="5px" x="36px" y="96px" /><rect fill="rgb(0,0,0)" height="5px" opacity="0.835294117647" width="5px" x="40px" y="96px" /><rect fill="rgb(0,0,0)" height="5px" opacity="0.129411764706" width="5px" x="44px" y="96px" /><rect fill="rgb(0,0,0)" height="5px" opacity="0.301960784314" width="5px" x="72px" y="96px" /><rect fill="rgb(0,0,0)" height="5px" width="5px" x="76px" y="96px" /><rect fill="rgb(0,0,0)" height="5px" opacity="0.109803921569" width="5px" x="80px" y="96px" /><rect fill="rgb(0,0,0)" height="5px" opacity="0.81568627451" width="5px" x="36px" y="100px" /><rect fill="rgb(0,0,0)" height="5px" opacity="0.176470588235" width="5px" x="40px" y="100px" /><rect fill="rgb(0,0,0)" height="5px" opacity="0.0156862745098" width="5px" x="44px" y="100px" /><rect fill="rgb(0,0,0)" height="5px" opacity="0.470588235294" width="5px" x="76px" y="100px" /><rect fill="rgb(0,0,0)" height="5px" opacity="0.78431372549" width="5px" x="80px" y="100px" /><rect fill="rgb(0,0,0)" height="5px" opacity="0.129411764706" width="5px" x="84px" y="100px" /><rect fill="rgb(0,0,0)" height="5px" opacity="0.192156862745" width="5px" x="28px" y="104px" /><rect fill="rgb(0,0,0)" height="5px" opacity="0.635294117647" width="5px" x="32px" y="104px" /><rect fill="rgb(0,0,0)" height="5px" opacity="0.6" width="5px" x="36px" y="104px" /><rect fill="rgb(0,0,0)" height="5px" opacity="0.866666666667" width="5px" x="80px" y="104px" /><rect fill="rgb(0,0,0)" height="5px" opacity="0.2" width="5px" x="84px" y="104px" /><rect fill="rgb(0,0,0)" height="5px" opacity="0.627450980392" width="5px" x="28px" y="108px" /><rect fill="rgb(0,0,0)" height="5px" opacity="0.505882352941" width="5px" x="32px" y="108px" /><rect fill="rgb(0,0,0)" height="5px" opacity="0.0078431372549" width="5px" x="36px" y="108px" /><rect fill="rgb(0,0,0)" height="5px" opacity="0.0078431372549" width="5px" x="80px" y="108px" /><rect fill="rgb(0,0,0)" height="5px" opacity="0.713725490196" width="5px" x="84px" y="108px" /><rect fill="rgb(0,0,0)" height="5px" opacity="0.172549019608" width="5px" x="84px" y="112px" /><rect fill="rgb(0,0,0)" height="5px" opacity="0.00392156862745" width="5px" x="88px" y="112px" /></svg>