<?xml version="1.0" encoding="utf-8" ?>
<svg baseProfile="full" height="128px" version="1.1" width="128px" xmlns="http://www.w3.org/2000/svg" xmlns:ev="http://www.w3.org/2001/xml-events" xmlns:xlink="http://www.w3.org/1999/xlink"><defs /><rect fill="rgb(63,63,60)" height="5px" opacity="0.443137254902" width="5px" x="40px" y="0px" /><rect fill="rgb(63,63,57)" height="5px" opacity="0.156862745098" width="5px" x="44px" y="0px" /><rect fill="rgb(64,64,60)" height="5px" opacity="0.560784313725" width="5px" x="40px" y="4px" /><rect fill="rgb(64,64,60)" height="5px" opacity="0.964705882353" width="5px" x="44px" y="4px" /><rect fill="rgb(66,66,60)" height="5px" opacity="0.180392156863" width="5px" x="48px" y="4px" /><rect fill="rgb(64,64,60)" height="5px" opacity="0.576470588235" width="5px" x="44px" y="8px" /><rect fill="rgb(63,63,60)" height="5px" opacity="0.976470588235" width="5px" x="48px" y="8px" /><rect fill="rgb(63,63,59)" height="5px" opacity="0.219607843137" width="5px" x="52px" y="8px" /><rect fill="rgb(64,64,60)" height="5px" opacity="0.592156862745" width="5px" x="48px" y="12px" /><rect fill="rgb(64,64,60)" height="5px" opacity="0.980392156863" width="5px" x="52px" y="12px" /><rect fill="rgb(65,65,61)" height="5px" opacity="0.243137254902" width="5px" x="56px" y="12px" /><rect fill="rgb(63,63,60)" height="5px" opacity="0.643137254902" width="5px" x="52px" y="16px" /><rect fill="rgb(62,62,58)" height="5px" opacity="0.988235294118" width="5px" x="56px" y="16px" /><rect fill="rgb(65,65,58)" height="5px" opacity="0.290196078431" width="5px" x="60px" y="16px" /><rect fill="rgb(64,64,58)" height="5px" opacity="0.650980392157" width="5px" x="56px" y="20px" /><rect fill="rgb(63,63,60)" height="5px" opacity="0.992156862745" width="5px" x="60px" y="20px" /><rect fill="rgb(64,64,60)" height="5px" opacity="0.858823529412" width="5px" x="64px" y="20px" /><rect fill="rgb(62,62,60)" height="5px" opacity="0.925490196078" width="5px" x="68px" y="20px" /><rect fill="rgb(63,63,60)" height="5px" opacity="0.549019607843" width="5px" x="72px" y="20px" /><rect fill="rgb(64,64,58)" height="5px" opacity="0.937254901961" width="5px" x="60px" y="24px" /><rect fill="rgb(64,64,60)" height="5px" width="5px" x="64px" y="24px" /><rect fill="rgb(64,64,60)" height="5px" width="5px" x="68px" y="24px" /><rect fill="rgb(64,64,60)" height="5px" width="5px" x="72px" y="24px" /><rect fill="rgb(64,64,59)" height="5px" opacity="0.607843137255" width="5px" x="76px" y="24px" /><rect fill="rgb(64,64,60)" height="5px" opacity="0.513725490196" width="5px" x="60px" y="28px" /><rect fill="rgb(64,64,60)" height="5px" width="5px" x="64px" y="28px" /><rect fill="rgb(64,64,60)" height="5px" width="5px" x="68px" y="28px" /><rect fill="rgb(64,64,60)" height="5px" width="5px" x="72px" y="28px" /><rect fill="rgb(64,64,60)" height="5px" width="5px" x="76px" y="28px" /><rect fill="rgb(64,64,60)" height="5px" opacity="0.713725490196" width="5px" x="80px" y="28px" /><rect fill="rgb(63,63,60)" height="5px" opacity="0.443137254902" width="5px" x="4px" y="32px" /><rect fill="rgb(63,63,57)" height="5px" opacity="0.156862745098" width="5px" x="8px" y="32px" /><rect fill="rgb(63,63,63)" height="5px" opacity="0.0156862745098" width="5px" x="60px" y="32px" /><rect fill="rgb(62,62,58)" height="5px" opacity="0.956862745098" width="5px" x="64px" y="32px" /><rect fill="rgb(64,64,60)" height="5px" width="5px" x="68px" y="32px" /><rect fill="rgb(64,64,60)" height="5px" width="5px" x="72px" y="32px" /><rect fill="rgb(64,64,60)" height="5px" width="5px" x="76px" y="32px" /><rect fill="rgb(64,64,60)" height="5px" width="5px" x="80px" y="32px" /><rect fill="rgb(64,64,60)" height="5px" opacity="0.796078431373" width="5px" x="84px" y="32px" /><rect fill="rgb(127,127,0)" height="5px" opacity="0.0078431372549" width="5px" x="88px" y="32px" /><rect fill="rgb(64,64,60)" height="5px" opacity="0.560784313725" width="5px" x="4px" y="36px" /><rect fill="rgb(64,64,60)" height="5px" opacity="0.964705882353" width="5px" x="8px" y="36px" /><rect fill="rgb(66,66,60)" height="5px" opacity="0.180392156863" width="5px" x="12px" y="36px" /><rect fill="rgb(67,67,60)" height="5px" opacity="0.149019607843" width="5px" x="64px" y="36px" /><rect fill="rgb(64,64,60)" height="5px" opacity="0.964705882353" width="5px" x="68px" y="36px" /><rect fill="rgb(64,64,60)" height="5px" width="5px" x="72px" y="36px" /><rect fill="rgb(64,64,60)" height="5px" width="5px" x="76px" y="36px" /><rect fill="rgb(64,64,60)" height="5px" width="5px" x="80px" y="36px" /><rect fill="rgb(64,64,60)" height="5px" width="5px" x="84px" y="36px" /><rect fill="rgb(62,62,60)" height="5px" opacity="0.847058823529" width="5px" x="88px" y="36px" /><rect fill="rgb(85,85,42)" height="5px" opacity="0.0235294117647" width="5px" x="92px" y="36px" /><rect fill="rgb(64,64,60)" height="5px" opacity="0.576470588235" width="5px" x="8px" y="40px" /><rect fill="rgb(63,63,60)" height="5px" opacity="0.976470588235" width="5px" x="12px" y="40px" /><rect fill="rgb(63,63,59)" height="5px" opacity="0.219607843137" width="5px" x="16px" y="40px" /><rect fill="rgb(67,67,60)" height="5px" opacity="0.149019607843" width="5px" x="68px" y="40px" /><rect fill="rgb(64,64,60)" height="5px" opacity="0.964705882353" width="5px" x="72px" y="40px" /><rect fill="rgb(64,64,60)" height="5px" width="5px" x="76px" y="40px" /><rect fill="rgb(64,64,60)" height="5px" width="5px" x="80px" y="40px" /><rect fill="rgb(64,64,60)" height="5px" width="5px" x="84px" y="40px" /><rect fill="rgb(64,64,60)" height="5px" width="5px" x="88px" y="40px" /><rect fill="rgb(64,64,59)" height="5px" opacity="0.890196078431" width="5px" x="92px" y="40px" /><rect fill="rgb(72,72,54)" height="5px" opacity="0.0549019607843" width="5px" x="96px" y="40px" /><rect fill="rgb(64,64,60)" height="5px" opacity="0.592156862745" width="5px" x="12px" y="44px" /><rect fill="rgb(64,64,60)" height="5px" opacity="0.980392156863" width="5px" x="16px" y="44px" /><rect fill="rgb(65,65,61)" height="5px" opacity="0.243137254902" width="5px" x="20px" y="44px" /><rect fill="rgb(62,62,59)" height="5px" opacity="0.301960784314" width="5px" x="72px" y="44px" /><rect fill="rgb(64,64,60)" height="5px" width="5px" x="76px" y="44px" /><rect fill="rgb(64,64,60)" height="5px" width="5px" x="80px" y="44px" /><rect fill="rgb(64,64,60)" height="5px" width="5px" x="84px" y="44px" /><rect fill="rgb(64,64,60)" height="5px" width="5px" x="88px" y="44px" /><rect fill="rgb(64,64,60)" height="5px" width="5px" x="92px" y="44px" /><rect fill="rgb(64,64,58)" height="5px" opacity="0.937254901961" width="5px" x="96px" y="44px" /><rect fill="rgb(66,66,56)" height="5px" opacity="0.105882352941" width="5px" x="100px" y="44px" /><rect fill="rgb(63,63,60)" height="5px" opacity="0.643137254902" width="5px" x="16px" y="48px" /><rect fill="rgb(62,62,58)" height="5px" opacity="0.988235294118" width="5px" x="20px" y="48px" /><rect fill="rgb(65,65,58)" height="5px" opacity="0.290196078431" width="5px" x="24px" y="48px" /><rect fill="rgb(127,127,0)" height="5px" opacity="0.0078431372549" width="5px" x="64px" y="48px" /><rect fill="rgb(64,64,60)" height="5px" opacity="0.529411764706" width="5px" x="68px" y="48px" /><rect fill="rgb(64,64,60)" height="5px" opacity="0.980392156863" width="5px" x="72px" y="48px" /><rect fill="rgb(64,64,60)" height="5px" width="5px" x="76px" y="48px" /><rect fill="rgb(64,64,60)" height="5px" width="5px" x="80px" y="48px" /><rect fill="rgb(64,64,60)" height="5px" width="5px" x="84px" y="48px" /><rect fill="rgb(64,64,60)" height="5px" width="5px" x="88px" y="48px" /><rect fill="rgb(64,64,60)" height="5px" width="5px" x="92px" y="48px" /><rect fill="rgb(64,64,60)" height="5px" width="5px" x="96px" y="48px" /><rect fill="rgb(63,63,60)" height="5px" opacity="0.960784313725" width="5px" x="100px" y="48px" /><rect fill="rgb(66,66,60)" height="5px" opacity="0.164705882353" width="5px" x="104px" y="48px" /><rect fill="rgb(64,64,58)" height="5px" opacity="0.650980392157" width="5px" x="20px" y="52px" /><rect fill="rgb(63,63,60)" height="5px" opacity="0.992156862745" width="5px" x="24px" y="52px" /><rect fill="rgb(64,64,60)" height="5px" opacity="0.858823529412" width="5px" x="28px" y="52px" /><rect fill="rgb(62,62,60)" height="5px" opacity="0.925490196078" width="5px" x="32px" y="52px" /><rect fill="rgb(63,63,60)" height="5px" opacity="0.549019607843" width="5px" x="36px" y="52px" /><rect fill="rgb(63,63,63)" height="5px" opacity="0.0470588235294" width="5px" x="48px" y="52px" /><rect fill="rgb(63,63,59)" height="5px" opacity="0.235294117647" width="5px" x="56px" y="52px" /><rect fill="rgb(63,63,60)" height="5px" opacity="0.662745098039" width="5px" x="60px" y="52px" /><rect fill="rgb(63,63,60)" height="5px" opacity="0.960784313725" width="5px" x="64px" y="52px" /><rect fill="rgb(64,64,60)" height="5px" width="5px" x="68px" y="52px" /><rect fill="rgb(64,64,60)" height="5px" width="5px" x="72px" y="52px" /><rect fill="rgb(63,63,60)" height="5px" opacity="0.992156862745" width="5px" x="76px" y="52px" /><rect fill="rgb(63,63,60)" height="5px" opacity="0.694117647059" width="5px" x="80px" y="52px" /><rect fill="rgb(64,64,60)" height="5px" width="5px" x="84px" y="52px" /><rect fill="rgb(64,64,60)" height="5px" width="5px" x="88px" y="52px" /><rect fill="rgb(64,64,60)" height="5px" width="5px" x="92px" y="52px" /><rect fill="rgb(64,64,60)" height="5px" width="5px" x="96px" y="52px" /><rect fill="rgb(64,64,60)" height="5px" width="5px" x="100px" y="52px" /><rect fill="rgb(64,64,60)" height="5px" opacity="0.827450980392" width="5px" x="104px" y="52px" /><rect fill="rgb(64,64,58)" height="5px" opacity="0.937254901961" width="5px" x="24px" y="56px" /><rect fill="rgb(64,64,60)" height="5px" width="5px" x="28px" y="56px" /><rect fill="rgb(64,64,60)" height="5px" width="5px" x="32px" y="56px" /><rect fill="rgb(64,64,60)" height="5px" width="5px" x="36px" y="56px" /><rect fill="rgb(64,64,59)" height="5px" opacity="0.607843137255" width="5px" x="40px" y="56px" /><rect fill="rgb(69,69,57)" height="5px" opacity="0.0862745098039" width="5px" x="48px" y="56px" /><rect fill="rgb(64,64,60)" height="5px" opacity="0.980392156863" width="5px" x="52px" y="56px" /><rect fill="rgb(64,64,60)" height="5px" width="5px" x="56px" y="56px" /><rect fill="rgb(64,64,60)" height="5px" width="5px" x="60px" y="56px" /><rect fill="rgb(64,64,60)" height="5px" width="5px" x="64px" y="56px" /><rect fill="rgb(64,64,60)" height="5px" width="5px" x="68px" y="56px" /><rect fill="rgb(63,63,60)" height="5px" opacity="0.976470588235" width="5px" x="72px" y="56px" /><rect fill="rgb(63,63,60)" height="5px" opacity="0.329411764706" width="5px" x="76px" y="56px" /><rect fill="rgb(64,64,60)" height="5px" width="5px" x="84px" y="56px" /><rect fill="rgb(64,64,60)" height="5px" width="5px" x="88px" y="56px" /><rect fill="rgb(64,64,60)" height="5px" width="5px" x="92px" y="56px" /><rect fill="rgb(64,64,60)" height="5px" width="5px" x="96px" y="56px" /><rect fill="rgb(64,64,60)" height="5px" width="5px" x="100px" y="56px" /><rect fill="rgb(64,64,59)" height="5px" opacity="0.890196078431" width="5px" x="104px" y="56px" /><rect fill="rgb(64,64,60)" height="5px" opacity="0.513725490196" width="5px" x="24px" y="60px" /><rect fill="rgb(64,64,60)" height="5px" width="5px" x="28px" y="60px" /><rect fill="rgb(64,64,60)" height="5px" width="5px" x="32px" y="60px" /><rect fill="rgb(64,64,60)" height="5px" width="5px" x="36px" y="60px" /><rect fill="rgb(64,64,60)" height="5px" width="5px" x="40px" y="60px" /><rect fill="rgb(64,64,60)" height="5px" opacity="0.713725490196" width="5px" x="44px" y="60px" /><rect fill="rgb(63,63,58)" height="5px" opacity="0.835294117647" width="5px" x="52px" y="60px" /><rect fill="rgb(64,64,60)" height="5px" width="5px" x="56px" y="60px" /><rect fill="rgb(64,64,60)" height="5px" width="5px" x="60px" y="60px" /><rect fill="rgb(64,64,58)" height="5px" opacity="0.98431372549" width="5px" x="64px" y="60px" /><rect fill="rgb(64,64,58)" height="5px" opacity="0.686274509804" width="5px" x="68px" y="60px" /><rect fill="rgb(70,70,56)" height="5px" opacity="0.0705882352941" width="5px" x="72px" y="60px" /><rect fill="rgb(64,64,60)" height="5px" width="5px" x="84px" y="60px" /><rect fill="rgb(64,64,60)" height="5px" opacity="0.780392156863" width="5px" x="88px" y="60px" /><rect fill="rgb(64,64,60)" height="5px" width="5px" x="92px" y="60px" /><rect fill="rgb(64,64,60)" height="5px" width="5px" x="96px" y="60px" /><rect fill="rgb(64,64,60)" height="5px" width="5px" x="100px" y="60px" /><rect fill="rgb(64,64,60)" height="5px" opacity="0.964705882353" width="5px" x="104px" y="60px" /><rect fill="rgb(63,63,63)" height="5px" opacity="0.0313725490196" width="5px" x="108px" y="60px" /><rect fill="rgb(63,63,63)" height="5px" opacity="0.0156862745098" width="5px" x="24px" y="64px" /><rect fill="rgb(62,62,58)" height="5px" opacity="0.956862745098" width="5px" x="28px" y="64px" /><rect fill="rgb(64,64,60)" height="5px" width="5px" x="32px" y="64px" /><rect fill="rgb(64,64,60)" height="5px" width="5px" x="36px" y="64px" /><rect fill="rgb(64,64,60)" height="5px" width="5px" x="40px" y="64px" /><rect fill="rgb(64,64,60)" height="5px" width="5px" x="44px" y="64px" /><rect fill="rgb(64,64,60)" height="5px" opacity="0.796078431373" width="5px" x="48px" y="64px" /><rect fill="rgb(63,63,63)" height="5px" opacity="0.0313725490196" width="5px" x="52px" y="64px" /><rect fill="rgb(64,64,60)" height="5px" width="5px" x="56px" y="64px" /><rect fill="rgb(64,64,58)" height="5px" opacity="0.901960784314" width="5px" x="60px" y="64px" /><rect fill="rgb(63,63,58)" height="5px" opacity="0.803921568627" width="5px" x="64px" y="64px" /><rect fill="rgb(63,63,60)" height="5px" opacity="0.345098039216" width="5px" x="80px" y="64px" /><rect fill="rgb(64,64,60)" height="5px" width="5px" x="84px" y="64px" /><rect fill="rgb(63,63,63)" height="5px" opacity="0.0627450980392" width="5px" x="88px" y="64px" /><rect fill="rgb(64,64,60)" height="5px" opacity="0.933333333333" width="5px" x="92px" y="64px" /><rect fill="rgb(64,64,60)" height="5px" width="5px" x="96px" y="64px" /><rect fill="rgb(64,64,60)" height="5px" width="5px" x="100px" y="64px" /><rect fill="rgb(64,64,60)" height="5px" width="5px" x="104px" y="64px" /><rect fill="rgb(64,64,60)" height="5px" opacity="0.843137254902" width="5px" x="108px" y="64px" /><rect fill="rgb(67,67,60)" height="5px" opacity="0.149019607843" width="5px" x="28px" y="68px" /><rect fill="rgb(64,64,60)" height="5px" opacity="0.964705882353" width="5px" x="32px" y="68px" /><rect fill="rgb(64,64,60)" height="5px" width="5px" x="36px" y="68px" /><rect fill="rgb(64,64,60)" height="5px" width="5px" x="40px" y="68px" /><rect fill="rgb(64,64,60)" height="5px" width="5px" x="44px" y="68px" /><rect fill="rgb(64,64,60)" height="5px" width="5px" x="48px" y="68px" /><rect fill="rgb(62,62,60)" height="5px" opacity="0.847058823529" width="5px" x="52px" y="68px" /><rect fill="rgb(85,85,42)" height="5px" opacity="0.0235294117647" width="5px" x="56px" y="68px" /><rect fill="rgb(64,64,59)" height="5px" opacity="0.419607843137" width="5px" x="80px" y="68px" /><rect fill="rgb(64,64,60)" height="5px" width="5px" x="84px" y="68px" /><rect fill="rgb(64,64,60)" height="5px" width="5px" x="88px" y="68px" /><rect fill="rgb(64,64,60)" height="5px" width="5px" x="92px" y="68px" /><rect fill="rgb(64,64,60)" height="5px" width="5px" x="96px" y="68px" /><rect fill="rgb(64,64,60)" height="5px" width="5px" x="100px" y="68px" /><rect fill="rgb(64,64,60)" height="5px" width="5px" x="104px" y="68px" /><rect fill="rgb(64,64,60)" height="5px" width="5px" x="108px" y="68px" /><rect fill="rgb(62,62,58)" height="5px" opacity="0.752941176471" width="5px" x="112px" y="68px" /><rect fill="rgb(67,67,60)" height="5px" opacity="0.149019607843" width="5px" x="32px" y="72px" /><rect fill="rgb(64,64,60)" height="5px" opacity="0.964705882353" width="5px" x="36px" y="72px" /><rect fill="rgb(64,64,60)" height="5px" width="5px" x="40px" y="72px" /><rect fill="rgb(64,64,60)" height="5px" width="5px" x="44px" y="72px" /><rect fill="rgb(64,64,60)" height="5px" width="5px" x="48px" y="72px" /><rect fill="rgb(64,64,60)" height="5px" width="5px" x="52px" y="72px" /><rect fill="rgb(64,64,59)" height="5px" opacity="0.890196078431" width="5px" x="56px" y="72px" /><rect fill="rgb(72,72,54)" height="5px" opacity="0.0549019607843" width="5px" x="60px" y="72px" /><rect fill="rgb(63,63,57)" height="5px" opacity="0.156862745098" width="5px" x="96px" y="72px" /><rect fill="rgb(64,64,60)" height="5px" opacity="0.980392156863" width="5px" x="100px" y="72px" /><rect fill="rgb(64,64,60)" height="5px" width="5px" x="104px" y="72px" /><rect fill="rgb(64,64,60)" height="5px" width="5px" x="108px" y="72px" /><rect fill="rgb(64,64,60)" height="5px" width="5px" x="112px" y="72px" /><rect fill="rgb(64,64,58)" height="5px" opacity="0.701960784314" width="5px" x="116px" y="72px" /><rect fill="rgb(63,63,60)" height="5px" opacity="0.678431372549" width="5px" x="120px" y="72px" /><rect fill="rgb(63,63,60)" height="5px" opacity="0.6" width="5px" x="124px" y="72px" /><rect fill="rgb(62,62,59)" height="5px" opacity="0.301960784314" width="5px" x="36px" y="76px" /><rect fill="rgb(64,64,60)" height="5px" width="5px" x="40px" y="76px" /><rect fill="rgb(64,64,60)" height="5px" width="5px" x="44px" y="76px" /><rect fill="rgb(64,64,60)" height="5px" width="5px" x="48px" y="76px" /><rect fill="rgb(64,64,60)" height="5px" width="5px" x="52px" y="76px" /><rect fill="rgb(64,64,60)" height="5px" width="5px" x="56px" y="76px" /><rect fill="rgb(64,64,58)" height="5px" opacity="0.937254901961" width="5px" x="60px" y="76px" /><rect fill="rgb(66,66,56)" height="5px" opacity="0.105882352941" width="5px" x="64px" y="76px" /><rect fill="rgb(65,65,61)" height="5px" opacity="0.243137254902" width="5px" x="100px" y="76px" /><rect fill="rgb(63,63,60)" height="5px" opacity="0.992156862745" width="5px" x="104px" y="76px" /><rect fill="rgb(64,64,60)" height="5px" width="5px" x="108px" y="76px" /><rect fill="rgb(64,64,60)" height="5px" width="5px" x="112px" y="76px" /><rect fill="rgb(64,64,60)" height="5px" width="5px" x="116px" y="76px" /><rect fill="rgb(63,63,60)" height="5px" opacity="0.992156862745" width="5px" x="120px" y="76px" /><rect fill="rgb(64,64,60)" height="5px" opacity="0.996078431373" width="5px" x="124px" y="76px" /><rect fill="rgb(127,127,0)" height="5px" opacity="0.0078431372549" width="5px" x="28px" y="80px" /><rect fill="rgb(64,64,60)" height="5px" opacity="0.529411764706" width="5px" x="32px" y="80px" /><rect fill="rgb(64,64,60)" height="5px" opacity="0.980392156863" width="5px" x="36px" y="80px" /><rect fill="rgb(64,64,60)" height="5px" width="5px" x="40px" y="80px" /><rect fill="rgb(64,64,60)" height="5px" width="5px" x="44px" y="80px" /><rect fill="rgb(64,64,60)" height="5px" width="5px" x="48px" y="80px" /><rect fill="rgb(64,64,60)" height="5px" width="5px" x="52px" y="80px" /><rect fill="rgb(64,64,60)" height="5px" width="5px" x="56px" y="80px" /><rect fill="rgb(64,64,60)" height="5px" width="5px" x="60px" y="80px" /><rect fill="rgb(63,63,60)" height="5px" opacity="0.960784313725" width="5px" x="64px" y="80px" /><rect fill="rgb(66,66,60)" height="5px" opacity="0.164705882353" width="5px" x="68px" y="80px" /><rect fill="rgb(64,64,60)" height="5px" width="5px" x="104px" y="80px" /><rect fill="rgb(64,64,60)" height="5px" opacity="0.996078431373" width="5px" x="108px" y="80px" /><rect fill="rgb(64,64,60)" height="5px" width="5px" x="112px" y="80px" /><rect fill="rgb(63,63,60)" height="5px" opacity="0.976470588235" width="5px" x="116px" y="80px" /><rect fill="rgb(64,64,60)" height="5px" width="5px" x="120px" y="80px" /><rect fill="rgb(63,63,60)" height="5px" opacity="0.960784313725" width="5px" x="124px" y="80px" /><rect fill="rgb(63,63,63)" height="5px" opacity="0.0470588235294" width="5px" x="12px" y="84px" /><rect fill="rgb(63,63,59)" height="5px" opacity="0.235294117647" width="5px" x="20px" y="84px" /><rect fill="rgb(63,63,60)" height="5px" opacity="0.662745098039" width="5px" x="24px" y="84px" /><rect fill="rgb(63,63,60)" height="5px" opacity="0.960784313725" width="5px" x="28px" y="84px" /><rect fill="rgb(64,64,60)" height="5px" width="5px" x="32px" y="84px" /><rect fill="rgb(64,64,60)" height="5px" width="5px" x="36px" y="84px" /><rect fill="rgb(63,63,60)" height="5px" opacity="0.992156862745" width="5px" x="40px" y="84px" /><rect fill="rgb(63,63,60)" height="5px" opacity="0.694117647059" width="5px" x="44px" y="84px" /><rect fill="rgb(64,64,60)" height="5px" width="5px" x="48px" y="84px" /><rect fill="rgb(64,64,60)" height="5px" width="5px" x="52px" y="84px" /><rect fill="rgb(64,64,60)" height="5px" width="5px" x="56px" y="84px" /><rect fill="rgb(64,64,60)" height="5px" width="5px" x="60px" y="84px" /><rect fill="rgb(64,64,60)" height="5px" width="5px" x="64px" y="84px" /><rect fill="rgb(64,64,60)" height="5px" opacity="0.827450980392" width="5px" x="68px" y="84px" /><rect fill="rgb(63,63,63)" height="5px" opacity="0.0470588235294" width="5px" x="100px" y="84px" /><rect fill="rgb(64,64,60)" height="5px" width="5px" x="104px" y="84px" /><rect fill="rgb(63,63,60)" height="5px" opacity="0.976470588235" width="5px" x="108px" y="84px" /><rect fill="rgb(64,64,60)" height="5px" width="5px" x="112px" y="84px" /><rect fill="rgb(64,64,60)" height="5px" width="5px" x="116px" y="84px" /><rect fill="rgb(64,64,58)" height="5px" opacity="0.901960784314" width="5px" x="120px" y="84px" /><rect fill="rgb(69,69,57)" height="5px" opacity="0.0862745098039" width="5px" x="12px" y="88px" /><rect fill="rgb(64,64,60)" height="5px" opacity="0.980392156863" width="5px" x="16px" y="88px" /><rect fill="rgb(64,64,60)" height="5px" width="5px" x="20px" y="88px" /><rect fill="rgb(64,64,60)" height="5px" width="5px" x="24px" y="88px" /><rect fill="rgb(64,64,60)" height="5px" width="5px" x="28px" y="88px" /><rect fill="rgb(64,64,60)" height="5px" width="5px" x="32px" y="88px" /><rect fill="rgb(63,63,60)" height="5px" opacity="0.976470588235" width="5px" x="36px" y="88px" /><rect fill="rgb(63,63,60)" height="5px" opacity="0.329411764706" width="5px" x="40px" y="88px" /><rect fill="rgb(64,64,60)" height="5px" width="5px" x="48px" y="88px" /><rect fill="rgb(64,64,60)" height="5px" width="5px" x="52px" y="88px" /><rect fill="rgb(64,64,60)" height="5px" width="5px" x="56px" y="88px" /><rect fill="rgb(64,64,60)" height="5px" width="5px" x="60px" y="88px" /><rect fill="rgb(64,64,60)" height="5px" width="5px" x="64px" y="88px" /><rect fill="rgb(64,64,59)" height="5px" opacity="0.890196078431" width="5px" x="68px" y="88px" /><rect fill="rgb(63,63,60)" height="5px" opacity="0.345098039216" width="5px" x="100px" y="88px" /><rect fill="rgb(64,64,60)" height="5px" width="5px" x="104px" y="88px" /><rect fill="rgb(64,64,60)" height="5px" width="5px" x="108px" y="88px" /><rect fill="rgb(64,64,60)" height="5px" width="5px" x="112px" y="88px" /><rect fill="rgb(63,63,58)" height="5px" opacity="0.835294117647" width="5px" x="16px" y="92px" /><rect fill="rgb(64,64,60)" height="5px" width="5px" x="20px" y="92px" /><rect fill="rgb(64,64,60)" height="5px" width="5px" x="24px" y="92px" /><rect fill="rgb(64,64,58)" height="5px" opacity="0.98431372549" width="5px" x="28px" y="92px" /><rect fill="rgb(64,64,58)" height="5px" opacity="0.686274509804" width="5px" x="32px" y="92px" /><rect fill="rgb(70,70,56)" height="5px" opacity="0.0705882352941" width="5px" x="36px" y="92px" /><rect fill="rgb(64,64,60)" height="5px" width="5px" x="48px" y="92px" /><rect fill="rgb(64,64,60)" height="5px" opacity="0.780392156863" width="5px" x="52px" y="92px" /><rect fill="rgb(64,64,60)" height="5px" width="5px" x="56px" y="92px" /><rect fill="rgb(64,64,60)" height="5px" width="5px" x="60px" y="92px" /><rect fill="rgb(64,64,60)" height="5px" width="5px" x="64px" y="92px" /><rect fill="rgb(64,64,60)" height="5px" opacity="0.964705882353" width="5px" x="68px" y="92px" /><rect fill="rgb(63,63,63)" height="5px" opacity="0.0313725490196" width="5px" x="72px" y="92px" /><rect fill="rgb(63,63,63)" height="5px" opacity="0.0470588235294" width="5px" x="104px" y="92px" /><rect fill="rgb(63,63,60)" height="5px" opacity="0.345098039216" width="5px" x="108px" y="92px" /><rect fill="rgb(85,85,42)" height="5px" opacity="0.0235294117647" width="5px" x="16px" y="96px" /><rect fill="rgb(64,64,60)" height="5px" width="5px" x="20px" y="96px" /><rect fill="rgb(64,64,58)" height="5px" opacity="0.901960784314" width="5px" x="24px" y="96px" /><rect fill="rgb(63,63,58)" height="5px" opacity="0.803921568627" width="5px" x="28px" y="96px" /><rect fill="rgb(63,63,60)" height="5px" opacity="0.345098039216" width="5px" x="44px" y="96px" /><rect fill="rgb(64,64,60)" height="5px" width="5px" x="48px" y="96px" /><rect fill="rgb(63,63,63)" height="5px" opacity="0.0627450980392" width="5px" x="52px" y="96px" /><rect fill="rgb(64,64,60)" height="5px" opacity="0.933333333333" width="5px" x="56px" y="96px" /><rect fill="rgb(64,64,60)" height="5px" width="5px" x="60px" y="96px" /><rect fill="rgb(64,64,60)" height="5px" width="5px" x="64px" y="96px" /><rect fill="rgb(64,64,60)" height="5px" width="5px" x="68px" y="96px" /><rect fill="rgb(64,64,60)" height="5px" opacity="0.843137254902" width="5px" x="72px" y="96px" /><rect fill="rgb(64,64,59)" height="5px" opacity="0.419607843137" width="5px" x="44px" y="100px" /><rect fill="rgb(64,64,60)" height="5px" width="5px" x="48px" y="100px" /><rect fill="rgb(64,64,60)" height="5px" width="5px" x="52px" y="100px" /><rect fill="rgb(64,64,60)" height="5px" width="5px" x="56px" y="100px" /><rect fill="rgb(64,64,60)" height="5px" width="5px" x="60px" y="100px" /><rect fill="rgb(64,64,60)" height="5px" width="5px" x="64px" y="100px" /><rect fill="rgb(64,64,60)" height="5px" width="5px" x="68px" y="100px" /><rect fill="rgb(64,64,60)" height="5px" width="5px" x="72px" y="100px" /><rect fill="rgb(62,62,58)" height="5px" opacity="0.752941176471" width="5px" x="76px" y="100px" /><rect fill="rgb(63,63,57)" height="5px" opacity="0.156862745098" width="5px" x="60px" y="104px" /><rect fill="rgb(64,64,60)" height="5px" opacity="0.980392156863" width="5px" x="64px" y="104px" /><rect fill="rgb(64,64,60)" height="5px" width="5px" x="68px" y="104px" /><rect fill="rgb(64,64,60)" height="5px" width="5px" x="72px" y="104px" /><rect fill="rgb(64,64,60)" height="5px" width="5px" x="76px" y="104px" /><rect fill="rgb(64,64,58)" height="5px" opacity="0.701960784314" width="5px" x="80px" y="104px" /><rect fill="rgb(63,63,60)" height="5px" opacity="0.678431372549" width="5px" x="84px" y="104px" /><rect fill="rgb(63,63,60)" height="5px" opacity="0.6" width="5px" x="88px" y="104px" /><rect fill="rgb(65,65,61)" height="5px" opacity="0.243137254902" width="5px" x="64px" y="108px" /><rect fill="rgb(63,63,60)" height="5px" opacity="0.992156862745" width="5px" x="68px" y="108px" /><rect fill="rgb(64,64,60)" height="5px" width="5px" x="72px" y="108px" /><rect fill="rgb(64,64,60)" height="5px" width="5px" x="76px" y="108px" /><rect fill="rgb(64,64,60)" height="5px" width="5px" x="80px" y="108px" /><rect fill="rgb(63,63,60)" height="5px" opacity="0.992156862745" width="5px" x="84px" y="108px" /><rect fill="rgb(64,64,60)" height="5px" opacity="0.996078431373" width="5px" x="88px" y="108px" /><rect fill="rgb(64,64,60)" height="5px" width="5px" x="68px" y="112px" /><rect fill="rgb(64,64,60)" height="5px" opacity="0.996078431373" width="5px" x="72px" y="112px" /><rect fill="rgb(64,64,60)" height="5px" width="5px" x="76px" y="112px" /><rect fill="rgb(63,63,60)" height="5px" opacity="0.976470588235" width="5px" x="80px" y="112px" /><rect fill="rgb(64,64,60)" height="5px" width="5px" x="84px" y="112px" /><rect fill="rgb(63,63,60)" height="5px" opacity="0.960784313725" width="5px" x="88px" y="112px" /><rect fill="rgb(63,63,63)" height="5px" opacity="0.0470588235294" width="5px" x="64px" y="116px" /><rect fill="rgb(64,64,60)" height="5px" width="5px" x="68px" y="116px" /><rect fill="rgb(63,63,60)" height="5px" opacity="0.976470588235" width="5px" x="72px" y="116px" /><rect fill="rgb(64,64,60)" height="5px" width="5px" x="76px" y="116px" /><rect fill="rgb(64,64,60)" height="5px" width="5px" x="80px" y="116px" /><rect fill="rgb(64,64,58)" height="5px" opacity="0.901960784314" width="5px" x="84px" y="116px" /><rect fill="rgb(63,63,60)" height="5px" opacity="0.345098039216" width="5px" x="64px" y="120px" /><rect fill="rgb(64,64,60)" height="5px" width="5px" x="68px" y="120px" /><rect fill="rgb(64,64,60)" height="5px" width="5px" x="72px" y="120px" /><rect fill="rgb(64,64,60)" height="5px" width="5px" x="76px" y="120px" /><rect fill="rgb(63,63,63)" height="5px" opacity="0.0470588235294" width="5px" x="68px" y="124px" /><rect fill="rgb(63,63,60)" height="5px" opacity="0.345098039216" width="5px" x="72px" y="124px" /></svg>