<?xml version="1.0" encoding="utf-8" ?>
<svg baseProfile="full" height="128px" version="1.1" width="128px" xmlns="http://www.w3.org/2000/svg" xmlns:ev="http://www.w3.org/2001/xml-events" xmlns:xlink="http://www.w3.org/1999/xlink"><defs /><rect fill="rgb(255,211,0)" height="5px" width="5px" x="64px" y="12px" /><rect fill="rgb(255,211,0)" height="5px" width="5px" x="60px" y="16px" /><rect fill="rgb(255,211,0)" height="5px" width="5px" x="64px" y="16px" /><rect fill="rgb(255,211,0)" height="5px" width="5px" x="68px" y="16px" /><rect fill="rgb(255,211,0)" height="5px" opacity="0.113725490196" width="5px" x="16px" y="20px" /><rect fill="rgb(255,211,0)" height="5px" width="5px" x="64px" y="20px" /><rect fill="rgb(255,170,0)" height="5px" opacity="0.0117647058824" width="5px" x="68px" y="20px" /><rect fill="rgb(255,211,0)" height="5px" opacity="0.682352941176" width="5px" x="16px" y="24px" /><rect fill="rgb(255,211,0)" height="5px" opacity="0.462745098039" width="5px" x="20px" y="24px" /><rect fill="rgb(255,211,0)" height="5px" width="5px" x="64px" y="24px" /><rect fill="rgb(255,211,0)" height="5px" opacity="0.301960784314" width="5px" x="108px" y="24px" /><rect fill="rgb(255,211,0)" height="5px" opacity="0.709803921569" width="5px" x="16px" y="28px" /><rect fill="rgb(255,209,0)" height="5px" opacity="0.996078431373" width="5px" x="20px" y="28px" /><rect fill="rgb(255,212,0)" height="5px" opacity="0.235294117647" width="5px" x="24px" y="28px" /><rect fill="rgb(255,211,0)" height="5px" opacity="0.917647058824" width="5px" x="64px" y="28px" /><rect fill="rgb(255,211,0)" height="5px" opacity="0.113725490196" width="5px" x="68px" y="28px" /><rect fill="rgb(255,213,0)" height="5px" opacity="0.21568627451" width="5px" x="104px" y="28px" /><rect fill="rgb(255,209,0)" height="5px" opacity="0.949019607843" width="5px" x="108px" y="28px" /><rect fill="rgb(255,211,0)" height="5px" opacity="0.729411764706" width="5px" x="16px" y="32px" /><rect fill="rgb(255,211,0)" height="5px" width="5px" x="20px" y="32px" /><rect fill="rgb(255,211,0)" height="5px" opacity="0.956862745098" width="5px" x="24px" y="32px" /><rect fill="rgb(255,218,0)" height="5px" opacity="0.0549019607843" width="5px" x="28px" y="32px" /><rect fill="rgb(255,211,0)" height="5px" opacity="0.439215686275" width="5px" x="60px" y="32px" /><rect fill="rgb(255,211,0)" height="5px" width="5px" x="64px" y="32px" /><rect fill="rgb(255,211,0)" height="5px" opacity="0.705882352941" width="5px" x="68px" y="32px" /><rect fill="rgb(255,204,0)" height="5px" opacity="0.0392156862745" width="5px" x="100px" y="32px" /><rect fill="rgb(255,209,0)" height="5px" opacity="0.945098039216" width="5px" x="104px" y="32px" /><rect fill="rgb(255,211,0)" height="5px" opacity="0.98431372549" width="5px" x="108px" y="32px" /><rect fill="rgb(253,209,1)" height="5px" opacity="0.749019607843" width="5px" x="16px" y="36px" /><rect fill="rgb(255,211,0)" height="5px" width="5px" x="20px" y="36px" /><rect fill="rgb(255,211,0)" height="5px" width="5px" x="24px" y="36px" /><rect fill="rgb(252,210,2)" height="5px" opacity="0.827450980392" width="5px" x="28px" y="36px" /><rect fill="rgb(191,127,63)" height="5px" opacity="0.0156862745098" width="5px" x="32px" y="36px" /><rect fill="rgb(255,209,0)" height="5px" opacity="0.925490196078" width="5px" x="60px" y="36px" /><rect fill="rgb(255,211,0)" height="5px" width="5px" x="64px" y="36px" /><rect fill="rgb(255,209,0)" height="5px" opacity="0.992156862745" width="5px" x="68px" y="36px" /><rect fill="rgb(255,212,0)" height="5px" opacity="0.0705882352941" width="5px" x="72px" y="36px" /><rect fill="rgb(255,210,0)" height="5px" opacity="0.807843137255" width="5px" x="100px" y="36px" /><rect fill="rgb(255,211,0)" height="5px" width="5px" x="104px" y="36px" /><rect fill="rgb(255,211,0)" height="5px" opacity="0.988235294118" width="5px" x="108px" y="36px" /><rect fill="rgb(248,207,5)" height="5px" opacity="0.772549019608" width="5px" x="16px" y="40px" /><rect fill="rgb(255,211,0)" height="5px" width="5px" x="20px" y="40px" /><rect fill="rgb(253,209,2)" height="5px" width="5px" x="24px" y="40px" /><rect fill="rgb(254,210,1)" height="5px" width="5px" x="28px" y="40px" /><rect fill="rgb(253,209,1)" height="5px" opacity="0.61568627451" width="5px" x="32px" y="40px" /><rect fill="rgb(255,212,0)" height="5px" opacity="0.349019607843" width="5px" x="56px" y="40px" /><rect fill="rgb(255,211,0)" height="5px" width="5px" x="60px" y="40px" /><rect fill="rgb(255,211,0)" height="5px" width="5px" x="64px" y="40px" /><rect fill="rgb(255,211,0)" height="5px" width="5px" x="68px" y="40px" /><rect fill="rgb(255,210,0)" height="5px" opacity="0.650980392157" width="5px" x="72px" y="40px" /><rect fill="rgb(255,210,0)" height="5px" opacity="0.513725490196" width="5px" x="96px" y="40px" /><rect fill="rgb(254,210,1)" height="5px" width="5px" x="100px" y="40px" /><rect fill="rgb(254,210,1)" height="5px" width="5px" x="104px" y="40px" /><rect fill="rgb(255,209,0)" height="5px" opacity="0.992156862745" width="5px" x="108px" y="40px" /><rect fill="rgb(170,141,42)" height="5px" opacity="0.0705882352941" width="5px" x="112px" y="40px" /><rect fill="rgb(248,206,6)" height="5px" opacity="0.78431372549" width="5px" x="16px" y="44px" /><rect fill="rgb(248,205,7)" height="5px" width="5px" x="20px" y="44px" /><rect fill="rgb(250,207,5)" height="5px" width="5px" x="24px" y="44px" /><rect fill="rgb(253,209,3)" height="5px" width="5px" x="28px" y="44px" /><rect fill="rgb(253,209,3)" height="5px" width="5px" x="32px" y="44px" /><rect fill="rgb(255,212,0)" height="5px" opacity="0.349019607843" width="5px" x="36px" y="44px" /><rect fill="rgb(255,210,0)" height="5px" opacity="0.898039215686" width="5px" x="56px" y="44px" /><rect fill="rgb(255,211,0)" height="5px" width="5px" x="60px" y="44px" /><rect fill="rgb(213,20,20)" height="5px" width="5px" x="64px" y="44px" /><rect fill="rgb(255,211,0)" height="5px" width="5px" x="68px" y="44px" /><rect fill="rgb(255,211,0)" height="5px" opacity="0.98431372549" width="5px" x="72px" y="44px" /><rect fill="rgb(255,223,0)" height="5px" opacity="0.0313725490196" width="5px" x="76px" y="44px" /><rect fill="rgb(255,211,0)" height="5px" opacity="0.227450980392" width="5px" x="92px" y="44px" /><rect fill="rgb(251,207,3)" height="5px" opacity="0.996078431373" width="5px" x="96px" y="44px" /><rect fill="rgb(250,207,5)" height="5px" width="5px" x="100px" y="44px" /><rect fill="rgb(253,209,2)" height="5px" width="5px" x="104px" y="44px" /><rect fill="rgb(248,205,5)" height="5px" opacity="0.996078431373" width="5px" x="108px" y="44px" /><rect fill="rgb(251,208,2)" height="5px" opacity="0.792156862745" width="5px" x="16px" y="48px" /><rect fill="rgb(239,197,16)" height="5px" width="5px" x="20px" y="48px" /><rect fill="rgb(243,201,12)" height="5px" width="5px" x="24px" y="48px" /><rect fill="rgb(246,203,9)" height="5px" width="5px" x="28px" y="48px" /><rect fill="rgb(251,208,4)" height="5px" width="5px" x="32px" y="48px" /><rect fill="rgb(255,211,0)" height="5px" opacity="0.980392156863" width="5px" x="36px" y="48px" /><rect fill="rgb(255,211,0)" height="5px" opacity="0.113725490196" width="5px" x="40px" y="48px" /><rect fill="rgb(245,204,9)" height="5px" opacity="0.313725490196" width="5px" x="52px" y="48px" /><rect fill="rgb(251,208,4)" height="5px" width="5px" x="56px" y="48px" /><rect fill="rgb(255,211,0)" height="5px" width="5px" x="60px" y="48px" /><rect fill="rgb(213,20,20)" height="5px" width="5px" x="64px" y="48px" /><rect fill="rgb(255,211,0)" height="5px" width="5px" x="68px" y="48px" /><rect fill="rgb(255,211,0)" height="5px" width="5px" x="72px" y="48px" /><rect fill="rgb(255,210,0)" height="5px" opacity="0.580392156863" width="5px" x="76px" y="48px" /><rect fill="rgb(255,218,0)" height="5px" opacity="0.0549019607843" width="5px" x="88px" y="48px" /><rect fill="rgb(250,209,3)" height="5px" opacity="0.960784313725" width="5px" x="92px" y="48px" /><rect fill="rgb(251,207,5)" height="5px" width="5px" x="96px" y="48px" /><rect fill="rgb(241,199,14)" height="5px" width="5px" x="100px" y="48px" /><rect fill="rgb(244,202,11)" height="5px" width="5px" x="104px" y="48px" /><rect fill="rgb(249,206,4)" height="5px" opacity="0.996078431373" width="5px" x="108px" y="48px" /><rect fill="rgb(252,207,2)" height="5px" opacity="0.803921568627" width="5px" x="16px" y="52px" /><rect fill="rgb(252,208,4)" height="5px" width="5px" x="20px" y="52px" /><rect fill="rgb(239,198,15)" height="5px" width="5px" x="24px" y="52px" /><rect fill="rgb(245,203,10)" height="5px" width="5px" x="28px" y="52px" /><rect fill="rgb(248,205,8)" height="5px" width="5px" x="32px" y="52px" /><rect fill="rgb(255,211,0)" height="5px" width="5px" x="36px" y="52px" /><rect fill="rgb(252,208,1)" height="5px" opacity="0.905882352941" width="5px" x="40px" y="52px" /><rect fill="rgb(173,150,34)" height="5px" opacity="0.0862745098039" width="5px" x="44px" y="52px" /><rect fill="rgb(170,141,42)" height="5px" opacity="0.0705882352941" width="5px" x="48px" y="52px" /><rect fill="rgb(251,207,3)" height="5px" opacity="0.866666666667" width="5px" x="52px" y="52px" /><rect fill="rgb(252,209,3)" height="5px" width="5px" x="56px" y="52px" /><rect fill="rgb(255,211,0)" height="5px" width="5px" x="60px" y="52px" /><rect fill="rgb(254,210,1)" height="5px" width="5px" x="64px" y="52px" /><rect fill="rgb(253,209,2)" height="5px" width="5px" x="68px" y="52px" /><rect fill="rgb(253,209,2)" height="5px" width="5px" x="72px" y="52px" /><rect fill="rgb(255,209,0)" height="5px" opacity="0.972549019608" width="5px" x="76px" y="52px" /><rect fill="rgb(255,191,0)" height="5px" opacity="0.0156862745098" width="5px" x="80px" y="52px" /><rect fill="rgb(153,153,51)" height="5px" opacity="0.0196078431373" width="5px" x="84px" y="52px" /><rect fill="rgb(250,207,3)" height="5px" opacity="0.839215686275" width="5px" x="88px" y="52px" /><rect fill="rgb(251,207,5)" height="5px" width="5px" x="92px" y="52px" /><rect fill="rgb(249,206,6)" height="5px" width="5px" x="96px" y="52px" /><rect fill="rgb(242,199,14)" height="5px" width="5px" x="100px" y="52px" /><rect fill="rgb(246,203,9)" height="5px" width="5px" x="104px" y="52px" /><rect fill="rgb(250,207,5)" height="5px" width="5px" x="108px" y="52px" /><rect fill="rgb(252,208,2)" height="5px" opacity="0.81568627451" width="5px" x="16px" y="56px" /><rect fill="rgb(248,205,7)" height="5px" width="5px" x="20px" y="56px" /><rect fill="rgb(245,202,11)" height="5px" width="5px" x="24px" y="56px" /><rect fill="rgb(246,202,9)" height="5px" width="5px" x="28px" y="56px" /><rect fill="rgb(247,203,9)" height="5px" width="5px" x="32px" y="56px" /><rect fill="rgb(241,200,13)" height="5px" width="5px" x="36px" y="56px" /><rect fill="rgb(241,200,13)" height="5px" width="5px" x="40px" y="56px" /><rect fill="rgb(236,197,17)" height="5px" opacity="0.760784313725" width="5px" x="44px" y="56px" /><rect fill="rgb(246,201,8)" height="5px" opacity="0.243137254902" width="5px" x="48px" y="56px" /><rect fill="rgb(251,208,4)" height="5px" width="5px" x="52px" y="56px" /><rect fill="rgb(251,207,4)" height="5px" width="5px" x="56px" y="56px" /><rect fill="rgb(251,208,4)" height="5px" width="5px" x="60px" y="56px" /><rect fill="rgb(250,207,5)" height="5px" width="5px" x="64px" y="56px" /><rect fill="rgb(253,209,2)" height="5px" width="5px" x="68px" y="56px" /><rect fill="rgb(249,205,7)" height="5px" width="5px" x="72px" y="56px" /><rect fill="rgb(249,206,7)" height="5px" width="5px" x="76px" y="56px" /><rect fill="rgb(236,196,17)" height="5px" opacity="0.58431372549" width="5px" x="80px" y="56px" /><rect fill="rgb(234,197,17)" height="5px" opacity="0.639215686275" width="5px" x="84px" y="56px" /><rect fill="rgb(245,203,10)" height="5px" width="5px" x="88px" y="56px" /><rect fill="rgb(252,208,4)" height="5px" width="5px" x="92px" y="56px" /><rect fill="rgb(251,208,4)" height="5px" width="5px" x="96px" y="56px" /><rect fill="rgb(245,203,11)" height="5px" width="5px" x="100px" y="56px" /><rect fill="rgb(246,203,10)" height="5px" width="5px" x="104px" y="56px" /><rect fill="rgb(252,208,4)" height="5px" width="5px" x="108px" y="56px" /><rect fill="rgb(163,145,36)" height="5px" opacity="0.0549019607843" width="5px" x="12px" y="60px" /><rect fill="rgb(250,205,3)" height="5px" opacity="0.83137254902" width="5px" x="16px" y="60px" /><rect fill="rgb(249,206,6)" height="5px" width="5px" x="20px" y="60px" /><rect fill="rgb(242,200,13)" height="5px" width="5px" x="24px" y="60px" /><rect fill="rgb(236,196,17)" height="5px" width="5px" x="28px" y="60px" /><rect fill="rgb(243,200,13)" height="5px" width="5px" x="32px" y="60px" /><rect fill="rgb(247,204,9)" height="5px" width="5px" x="36px" y="60px" /><rect fill="rgb(252,208,4)" height="5px" width="5px" x="40px" y="60px" /><rect fill="rgb(246,203,9)" height="5px" width="5px" x="44px" y="60px" /><rect fill="rgb(245,205,8)" height="5px" opacity="0.945098039216" width="5px" x="48px" y="60px" /><rect fill="rgb(246,203,10)" height="5px" width="5px" x="52px" y="60px" /><rect fill="rgb(249,205,7)" height="5px" width="5px" x="56px" y="60px" /><rect fill="rgb(243,201,12)" height="5px" width="5px" x="60px" y="60px" /><rect fill="rgb(246,203,10)" height="5px" width="5px" x="64px" y="60px" /><rect fill="rgb(243,201,12)" height="5px" width="5px" x="68px" y="60px" /><rect fill="rgb(245,202,11)" height="5px" width="5px" x="72px" y="60px" /><rect fill="rgb(246,203,9)" height="5px" width="5px" x="76px" y="60px" /><rect fill="rgb(242,202,11)" height="5px" opacity="0.96862745098" width="5px" x="80px" y="60px" /><rect fill="rgb(242,200,11)" height="5px" opacity="0.996078431373" width="5px" x="84px" y="60px" /><rect fill="rgb(245,203,10)" height="5px" width="5px" x="88px" y="60px" /><rect fill="rgb(243,202,11)" height="5px" width="5px" x="92px" y="60px" /><rect fill="rgb(248,206,8)" height="5px" width="5px" x="96px" y="60px" /><rect fill="rgb(242,202,12)" height="5px" width="5px" x="100px" y="60px" /><rect fill="rgb(252,208,3)" height="5px" width="5px" x="104px" y="60px" /><rect fill="rgb(253,209,3)" height="5px" width="5px" x="108px" y="60px" /><rect fill="rgb(255,204,0)" height="5px" opacity="0.0392156862745" width="5px" x="112px" y="60px" /><rect fill="rgb(191,127,63)" height="5px" opacity="0.0156862745098" width="5px" x="12px" y="64px" /><rect fill="rgb(252,208,1)" height="5px" opacity="0.839215686275" width="5px" x="16px" y="64px" /><rect fill="rgb(254,210,1)" height="5px" width="5px" x="20px" y="64px" /><rect fill="rgb(249,206,6)" height="5px" width="5px" x="24px" y="64px" /><rect fill="rgb(243,202,12)" height="5px" width="5px" x="28px" y="64px" /><rect fill="rgb(243,201,12)" height="5px" width="5px" x="32px" y="64px" /><rect fill="rgb(240,198,16)" height="5px" width="5px" x="36px" y="64px" /><rect fill="rgb(245,203,11)" height="5px" width="5px" x="40px" y="64px" /><rect fill="rgb(246,204,9)" height="5px" width="5px" x="44px" y="64px" /><rect fill="rgb(246,203,9)" height="5px" width="5px" x="48px" y="64px" /><rect fill="rgb(243,200,12)" height="5px" width="5px" x="52px" y="64px" /><rect fill="rgb(241,200,13)" height="5px" width="5px" x="56px" y="64px" /><rect fill="rgb(245,202,11)" height="5px" width="5px" x="60px" y="64px" /><rect fill="rgb(248,204,8)" height="5px" width="5px" x="64px" y="64px" /><rect fill="rgb(251,207,5)" height="5px" width="5px" x="68px" y="64px" /><rect fill="rgb(247,203,9)" height="5px" width="5px" x="72px" y="64px" /><rect fill="rgb(240,199,14)" height="5px" width="5px" x="76px" y="64px" /><rect fill="rgb(247,204,9)" height="5px" width="5px" x="80px" y="64px" /><rect fill="rgb(248,205,7)" height="5px" width="5px" x="84px" y="64px" /><rect fill="rgb(238,197,17)" height="5px" width="5px" x="88px" y="64px" /><rect fill="rgb(252,208,3)" height="5px" width="5px" x="92px" y="64px" /><rect fill="rgb(249,206,6)" height="5px" width="5px" x="96px" y="64px" /><rect fill="rgb(245,203,10)" height="5px" width="5px" x="100px" y="64px" /><rect fill="rgb(251,208,4)" height="5px" width="5px" x="104px" y="64px" /><rect fill="rgb(253,209,2)" height="5px" width="5px" x="108px" y="64px" /><rect fill="rgb(244,201,10)" height="5px" opacity="0.0941176470588" width="5px" x="112px" y="64px" /><rect fill="rgb(255,211,0)" height="5px" opacity="0.843137254902" width="5px" x="16px" y="68px" /><rect fill="rgb(255,211,0)" height="5px" width="5px" x="20px" y="68px" /><rect fill="rgb(252,208,4)" height="5px" width="5px" x="24px" y="68px" /><rect fill="rgb(205,73,26)" height="5px" width="5px" x="28px" y="68px" /><rect fill="rgb(242,200,13)" height="5px" width="5px" x="32px" y="68px" /><rect fill="rgb(243,202,11)" height="5px" width="5px" x="36px" y="68px" /><rect fill="rgb(249,206,7)" height="5px" width="5px" x="40px" y="68px" /><rect fill="rgb(207,68,25)" height="5px" width="5px" x="44px" y="68px" /><rect fill="rgb(250,207,5)" height="5px" width="5px" x="48px" y="68px" /><rect fill="rgb(249,205,7)" height="5px" width="5px" x="52px" y="68px" /><rect fill="rgb(255,211,0)" height="5px" width="5px" x="56px" y="68px" /><rect fill="rgb(212,27,20)" height="5px" width="5px" x="60px" y="68px" /><rect fill="rgb(253,209,3)" height="5px" width="5px" x="64px" y="68px" /><rect fill="rgb(245,203,10)" height="5px" width="5px" x="68px" y="68px" /><rect fill="rgb(244,202,11)" height="5px" width="5px" x="72px" y="68px" /><rect fill="rgb(210,45,22)" height="5px" width="5px" x="76px" y="68px" /><rect fill="rgb(249,206,6)" height="5px" width="5px" x="80px" y="68px" /><rect fill="rgb(245,203,11)" height="5px" width="5px" x="84px" y="68px" /><rect fill="rgb(254,210,1)" height="5px" width="5px" x="88px" y="68px" /><rect fill="rgb(212,35,21)" height="5px" width="5px" x="92px" y="68px" /><rect fill="rgb(252,208,3)" height="5px" width="5px" x="96px" y="68px" /><rect fill="rgb(249,206,6)" height="5px" width="5px" x="100px" y="68px" /><rect fill="rgb(246,204,9)" height="5px" width="5px" x="104px" y="68px" /><rect fill="rgb(253,209,2)" height="5px" width="5px" x="108px" y="68px" /><rect fill="rgb(247,200,7)" height="5px" opacity="0.129411764706" width="5px" x="112px" y="68px" /><rect fill="rgb(255,210,0)" height="5px" opacity="0.854901960784" width="5px" x="16px" y="72px" /><rect fill="rgb(255,211,0)" height="5px" width="5px" x="20px" y="72px" /><rect fill="rgb(253,209,3)" height="5px" width="5px" x="24px" y="72px" /><rect fill="rgb(246,203,9)" height="5px" width="5px" x="28px" y="72px" /><rect fill="rgb(245,202,10)" height="5px" width="5px" x="32px" y="72px" /><rect fill="rgb(248,205,7)" height="5px" width="5px" x="36px" y="72px" /><rect fill="rgb(247,204,8)" height="5px" width="5px" x="40px" y="72px" /><rect fill="rgb(239,198,15)" height="5px" width="5px" x="44px" y="72px" /><rect fill="rgb(253,209,3)" height="5px" width="5px" x="48px" y="72px" /><rect fill="rgb(254,210,1)" height="5px" width="5px" x="52px" y="72px" /><rect fill="rgb(255,211,0)" height="5px" width="5px" x="56px" y="72px" /><rect fill="rgb(253,209,3)" height="5px" width="5px" x="60px" y="72px" /><rect fill="rgb(250,207,5)" height="5px" width="5px" x="64px" y="72px" /><rect fill="rgb(251,207,4)" height="5px" width="5px" x="68px" y="72px" /><rect fill="rgb(251,207,5)" height="5px" width="5px" x="72px" y="72px" /><rect fill="rgb(244,201,11)" height="5px" width="5px" x="76px" y="72px" /><rect fill="rgb(248,205,7)" height="5px" width="5px" x="80px" y="72px" /><rect fill="rgb(252,208,3)" height="5px" width="5px" x="84px" y="72px" /><rect fill="rgb(255,211,0)" height="5px" width="5px" x="88px" y="72px" /><rect fill="rgb(254,210,1)" height="5px" width="5px" x="92px" y="72px" /><rect fill="rgb(244,202,11)" height="5px" width="5px" x="96px" y="72px" /><rect fill="rgb(243,201,12)" height="5px" width="5px" x="100px" y="72px" /><rect fill="rgb(250,207,5)" height="5px" width="5px" x="104px" y="72px" /><rect fill="rgb(255,211,0)" height="5px" width="5px" x="108px" y="72px" /><rect fill="rgb(255,210,0)" height="5px" opacity="0.156862745098" width="5px" x="112px" y="72px" /><rect fill="rgb(255,211,0)" height="5px" opacity="0.866666666667" width="5px" x="16px" y="76px" /><rect fill="rgb(255,211,0)" height="5px" width="5px" x="20px" y="76px" /><rect fill="rgb(251,208,4)" height="5px" width="5px" x="24px" y="76px" /><rect fill="rgb(250,208,5)" height="5px" width="5px" x="28px" y="76px" /><rect fill="rgb(240,199,15)" height="5px" width="5px" x="32px" y="76px" /><rect fill="rgb(243,202,11)" height="5px" width="5px" x="36px" y="76px" /><rect fill="rgb(247,204,8)" height="5px" width="5px" x="40px" y="76px" /><rect fill="rgb(243,201,12)" height="5px" width="5px" x="44px" y="76px" /><rect fill="rgb(243,200,12)" height="5px" width="5px" x="48px" y="76px" /><rect fill="rgb(246,203,9)" height="5px" width="5px" x="52px" y="76px" /><rect fill="rgb(243,201,12)" height="5px" width="5px" x="56px" y="76px" /><rect fill="rgb(239,197,16)" height="5px" width="5px" x="60px" y="76px" /><rect fill="rgb(246,204,9)" height="5px" width="5px" x="64px" y="76px" /><rect fill="rgb(249,205,7)" height="5px" width="5px" x="68px" y="76px" /><rect fill="rgb(245,203,10)" height="5px" width="5px" x="72px" y="76px" /><rect fill="rgb(249,205,7)" height="5px" width="5px" x="76px" y="76px" /><rect fill="rgb(253,209,3)" height="5px" width="5px" x="80px" y="76px" /><rect fill="rgb(252,209,3)" height="5px" width="5px" x="84px" y="76px" /><rect fill="rgb(240,202,14)" height="5px" width="5px" x="88px" y="76px" /><rect fill="rgb(243,203,12)" height="5px" width="5px" x="92px" y="76px" /><rect fill="rgb(246,203,9)" height="5px" width="5px" x="96px" y="76px" /><rect fill="rgb(251,207,4)" height="5px" width="5px" x="100px" y="76px" /><rect fill="rgb(247,205,8)" height="5px" width="5px" x="104px" y="76px" /><rect fill="rgb(255,211,0)" height="5px" width="5px" x="108px" y="76px" /><rect fill="rgb(255,213,0)" height="5px" opacity="0.192156862745" width="5px" x="112px" y="76px" /><rect fill="rgb(250,208,4)" height="5px" opacity="0.882352941176" width="5px" x="16px" y="80px" /><rect fill="rgb(254,210,1)" height="5px" width="5px" x="20px" y="80px" /><rect fill="rgb(250,207,5)" height="5px" width="5px" x="24px" y="80px" /><rect fill="rgb(251,208,5)" height="5px" width="5px" x="28px" y="80px" /><rect fill="rgb(245,202,11)" height="5px" width="5px" x="32px" y="80px" /><rect fill="rgb(250,206,6)" height="5px" width="5px" x="36px" y="80px" /><rect fill="rgb(244,201,12)" height="5px" width="5px" x="40px" y="80px" /><rect fill="rgb(241,199,14)" height="5px" width="5px" x="44px" y="80px" /><rect fill="rgb(248,205,8)" height="5px" width="5px" x="48px" y="80px" /><rect fill="rgb(243,200,12)" height="5px" width="5px" x="52px" y="80px" /><rect fill="rgb(247,204,8)" height="5px" width="5px" x="56px" y="80px" /><rect fill="rgb(208,59,24)" height="5px" width="5px" x="60px" y="80px" /><rect fill="rgb(248,205,7)" height="5px" width="5px" x="64px" y="80px" /><rect fill="rgb(246,203,10)" height="5px" width="5px" x="68px" y="80px" /><rect fill="rgb(249,206,6)" height="5px" width="5px" x="72px" y="80px" /><rect fill="rgb(248,206,7)" height="5px" width="5px" x="76px" y="80px" /><rect fill="rgb(249,206,6)" height="5px" width="5px" x="80px" y="80px" /><rect fill="rgb(251,208,4)" height="5px" width="5px" x="84px" y="80px" /><rect fill="rgb(234,196,18)" height="5px" width="5px" x="88px" y="80px" /><rect fill="rgb(249,206,6)" height="5px" width="5px" x="92px" y="80px" /><rect fill="rgb(249,206,6)" height="5px" width="5px" x="96px" y="80px" /><rect fill="rgb(253,209,3)" height="5px" width="5px" x="100px" y="80px" /><rect fill="rgb(249,206,6)" height="5px" width="5px" x="104px" y="80px" /><rect fill="rgb(255,211,0)" height="5px" width="5px" x="108px" y="80px" /><rect fill="rgb(255,212,0)" height="5px" opacity="0.235294117647" width="5px" x="112px" y="80px" /><rect fill="rgb(250,207,3)" height="5px" opacity="0.890196078431" width="5px" x="16px" y="84px" /><rect fill="rgb(252,208,3)" height="5px" width="5px" x="20px" y="84px" /><rect fill="rgb(62,169,31)" height="5px" width="5px" x="24px" y="84px" /><rect fill="rgb(57,169,30)" height="5px" width="5px" x="28px" y="84px" /><rect fill="rgb(249,206,6)" height="5px" width="5px" x="32px" y="84px" /><rect fill="rgb(249,206,6)" height="5px" width="5px" x="36px" y="84px" /><rect fill="rgb(246,203,10)" height="5px" width="5px" x="40px" y="84px" /><rect fill="rgb(254,210,1)" height="5px" width="5px" x="44px" y="84px" /><rect fill="rgb(253,209,3)" height="5px" width="5px" x="48px" y="84px" /><rect fill="rgb(248,204,8)" height="5px" width="5px" x="52px" y="84px" /><rect fill="rgb(251,208,4)" height="5px" width="5px" x="56px" y="84px" /><rect fill="rgb(251,207,5)" height="5px" width="5px" x="60px" y="84px" /><rect fill="rgb(255,211,0)" height="5px" width="5px" x="64px" y="84px" /><rect fill="rgb(253,209,2)" height="5px" width="5px" x="68px" y="84px" /><rect fill="rgb(253,209,2)" height="5px" width="5px" x="72px" y="84px" /><rect fill="rgb(246,204,9)" height="5px" width="5px" x="76px" y="84px" /><rect fill="rgb(248,205,7)" height="5px" width="5px" x="80px" y="84px" /><rect fill="rgb(253,209,2)" height="5px" width="5px" x="84px" y="84px" /><rect fill="rgb(249,206,6)" height="5px" width="5px" x="88px" y="84px" /><rect fill="rgb(64,168,30)" height="5px" width="5px" x="92px" y="84px" /><rect fill="rgb(63,168,30)" height="5px" width="5px" x="96px" y="84px" /><rect fill="rgb(253,209,3)" height="5px" width="5px" x="100px" y="84px" /><rect fill="rgb(250,207,5)" height="5px" width="5px" x="104px" y="84px" /><rect fill="rgb(255,211,0)" height="5px" width="5px" x="108px" y="84px" /><rect fill="rgb(248,206,6)" height="5px" opacity="0.290196078431" width="5px" x="112px" y="84px" /><rect fill="rgb(250,209,3)" height="5px" opacity="0.901960784314" width="5px" x="16px" y="88px" /><rect fill="rgb(250,206,6)" height="5px" width="5px" x="20px" y="88px" /><rect fill="rgb(70,168,31)" height="5px" width="5px" x="24px" y="88px" /><rect fill="rgb(47,170,30)" height="5px" width="5px" x="28px" y="88px" /><rect fill="rgb(243,202,12)" height="5px" width="5px" x="32px" y="88px" /><rect fill="rgb(247,204,8)" height="5px" width="5px" x="36px" y="88px" /><rect fill="rgb(249,206,6)" height="5px" width="5px" x="40px" y="88px" /><rect fill="rgb(252,208,3)" height="5px" width="5px" x="44px" y="88px" /><rect fill="rgb(245,201,11)" height="5px" width="5px" x="48px" y="88px" /><rect fill="rgb(238,197,16)" height="5px" width="5px" x="52px" y="88px" /><rect fill="rgb(239,197,16)" height="5px" width="5px" x="56px" y="88px" /><rect fill="rgb(240,198,16)" height="5px" width="5px" x="60px" y="88px" /><rect fill="rgb(240,199,15)" height="5px" width="5px" x="64px" y="88px" /><rect fill="rgb(237,198,16)" height="5px" width="5px" x="68px" y="88px" /><rect fill="rgb(242,200,13)" height="5px" width="5px" x="72px" y="88px" /><rect fill="rgb(247,205,8)" height="5px" width="5px" x="76px" y="88px" /><rect fill="rgb(251,208,4)" height="5px" width="5px" x="80px" y="88px" /><rect fill="rgb(251,208,4)" height="5px" width="5px" x="84px" y="88px" /><rect fill="rgb(246,204,9)" height="5px" width="5px" x="88px" y="88px" /><rect fill="rgb(65,168,31)" height="5px" width="5px" x="92px" y="88px" /><rect fill="rgb(63,168,30)" height="5px" width="5px" x="96px" y="88px" /><rect fill="rgb(253,209,3)" height="5px" width="5px" x="100px" y="88px" /><rect fill="rgb(255,211,0)" height="5px" width="5px" x="104px" y="88px" /><rect fill="rgb(254,210,1)" height="5px" width="5px" x="108px" y="88px" /><rect fill="rgb(238,198,16)" height="5px" opacity="0.36862745098" width="5px" x="112px" y="88px" /><rect fill="rgb(248,204,5)" height="5px" opacity="0.913725490196" width="5px" x="16px" y="92px" /><rect fill="rgb(247,203,9)" height="5px" width="5px" x="20px" y="92px" /><rect fill="rgb(251,207,5)" height="5px" width="5px" x="24px" y="92px" /><rect fill="rgb(255,211,0)" height="5px" width="5px" x="28px" y="92px" /><rect fill="rgb(253,209,2)" height="5px" width="5px" x="32px" y="92px" /><rect fill="rgb(247,204,9)" height="5px" width="5px" x="36px" y="92px" /><rect fill="rgb(240,200,14)" height="5px" width="5px" x="40px" y="92px" /><rect fill="rgb(241,200,13)" height="5px" width="5px" x="44px" y="92px" /><rect fill="rgb(233,193,19)" height="5px" width="5px" x="48px" y="92px" /><rect fill="rgb(244,202,11)" height="5px" width="5px" x="52px" y="92px" /><rect fill="rgb(247,204,8)" height="5px" width="5px" x="56px" y="92px" /><rect fill="rgb(252,208,4)" height="5px" width="5px" x="60px" y="92px" /><rect fill="rgb(252,208,4)" height="5px" width="5px" x="64px" y="92px" /><rect fill="rgb(252,208,3)" height="5px" width="5px" x="68px" y="92px" /><rect fill="rgb(252,208,4)" height="5px" width="5px" x="72px" y="92px" /><rect fill="rgb(247,205,8)" height="5px" width="5px" x="76px" y="92px" /><rect fill="rgb(253,209,3)" height="5px" width="5px" x="80px" y="92px" /><rect fill="rgb(254,210,1)" height="5px" width="5px" x="84px" y="92px" /><rect fill="rgb(251,208,4)" height="5px" width="5px" x="88px" y="92px" /><rect fill="rgb(249,206,6)" height="5px" width="5px" x="92px" y="92px" /><rect fill="rgb(249,205,6)" height="5px" width="5px" x="96px" y="92px" /><rect fill="rgb(253,209,3)" height="5px" width="5px" x="100px" y="92px" /><rect fill="rgb(255,211,0)" height="5px" width="5px" x="104px" y="92px" /><rect fill="rgb(255,211,0)" height="5px" width="5px" x="108px" y="92px" /><rect fill="rgb(242,200,12)" height="5px" opacity="0.388235294118" width="5px" x="112px" y="92px" /><rect fill="rgb(252,210,1)" height="5px" opacity="0.913725490196" width="5px" x="16px" y="96px" /><rect fill="rgb(246,203,9)" height="5px" width="5px" x="20px" y="96px" /><rect fill="rgb(247,204,8)" height="5px" width="5px" x="24px" y="96px" /><rect fill="rgb(254,210,1)" height="5px" width="5px" x="28px" y="96px" /><rect fill="rgb(247,204,8)" height="5px" width="5px" x="32px" y="96px" /><rect fill="rgb(248,204,8)" height="5px" width="5px" x="36px" y="96px" /><rect fill="rgb(248,204,7)" height="5px" width="5px" x="40px" y="96px" /><rect fill="rgb(241,199,15)" height="5px" width="5px" x="44px" y="96px" /><rect fill="rgb(240,198,15)" height="5px" width="5px" x="48px" y="96px" /><rect fill="rgb(246,203,9)" height="5px" width="5px" x="52px" y="96px" /><rect fill="rgb(250,207,5)" height="5px" width="5px" x="56px" y="96px" /><rect fill="rgb(253,209,3)" height="5px" width="5px" x="60px" y="96px" /><rect fill="rgb(253,209,3)" height="5px" width="5px" x="64px" y="96px" /><rect fill="rgb(253,209,3)" height="5px" width="5px" x="68px" y="96px" /><rect fill="rgb(252,208,4)" height="5px" width="5px" x="72px" y="96px" /><rect fill="rgb(251,207,5)" height="5px" width="5px" x="76px" y="96px" /><rect fill="rgb(249,205,7)" height="5px" width="5px" x="80px" y="96px" /><rect fill="rgb(245,202,11)" height="5px" width="5px" x="84px" y="96px" /><rect fill="rgb(250,206,6)" height="5px" width="5px" x="88px" y="96px" /><rect fill="rgb(247,204,9)" height="5px" width="5px" x="92px" y="96px" /><rect fill="rgb(248,206,7)" height="5px" width="5px" x="96px" y="96px" /><rect fill="rgb(247,204,9)" height="5px" width="5px" x="100px" y="96px" /><rect fill="rgb(253,209,3)" height="5px" width="5px" x="104px" y="96px" /><rect fill="rgb(255,211,0)" height="5px" width="5px" x="108px" y="96px" /><rect fill="rgb(243,203,11)" height="5px" opacity="0.423529411765" width="5px" x="112px" y="96px" /><rect fill="rgb(255,210,0)" height="5px" opacity="0.921568627451" width="5px" x="16px" y="100px" /><rect fill="rgb(250,207,5)" height="5px" width="5px" x="20px" y="100px" /><rect fill="rgb(246,204,9)" height="5px" width="5px" x="24px" y="100px" /><rect fill="rgb(246,204,9)" height="5px" width="5px" x="28px" y="100px" /><rect fill="rgb(252,208,3)" height="5px" width="5px" x="32px" y="100px" /><rect fill="rgb(254,210,1)" height="5px" width="5px" x="36px" y="100px" /><rect fill="rgb(253,209,3)" height="5px" width="5px" x="40px" y="100px" /><rect fill="rgb(253,209,3)" height="5px" width="5px" x="44px" y="100px" /><rect fill="rgb(251,207,5)" height="5px" width="5px" x="48px" y="100px" /><rect fill="rgb(249,206,7)" height="5px" width="5px" x="52px" y="100px" /><rect fill="rgb(248,205,7)" height="5px" width="5px" x="56px" y="100px" /><rect fill="rgb(247,204,9)" height="5px" width="5px" x="60px" y="100px" /><rect fill="rgb(245,203,11)" height="5px" width="5px" x="64px" y="100px" /><rect fill="rgb(244,202,12)" height="5px" width="5px" x="68px" y="100px" /><rect fill="rgb(247,204,9)" height="5px" width="5px" x="72px" y="100px" /><rect fill="rgb(247,204,9)" height="5px" width="5px" x="76px" y="100px" /><rect fill="rgb(249,206,7)" height="5px" width="5px" x="80px" y="100px" /><rect fill="rgb(250,206,6)" height="5px" width="5px" x="84px" y="100px" /><rect fill="rgb(248,204,8)" height="5px" width="5px" x="88px" y="100px" /><rect fill="rgb(249,206,7)" height="5px" width="5px" x="92px" y="100px" /><rect fill="rgb(254,210,1)" height="5px" width="5px" x="96px" y="100px" /><rect fill="rgb(255,211,0)" height="5px" width="5px" x="100px" y="100px" /><rect fill="rgb(255,211,0)" height="5px" width="5px" x="104px" y="100px" /><rect fill="rgb(255,211,0)" height="5px" width="5px" x="108px" y="100px" /><rect fill="rgb(255,210,0)" height="5px" opacity="0.407843137255" width="5px" x="112px" y="100px" /><rect fill="rgb(255,211,0)" height="5px" opacity="0.866666666667" width="5px" x="16px" y="104px" /><rect fill="rgb(255,211,0)" height="5px" opacity="0.980392156863" width="5px" x="20px" y="104px" /><rect fill="rgb(255,211,0)" height="5px" opacity="0.980392156863" width="5px" x="24px" y="104px" /><rect fill="rgb(255,211,0)" height="5px" opacity="0.980392156863" width="5px" x="28px" y="104px" /><rect fill="rgb(255,211,0)" height="5px" opacity="0.980392156863" width="5px" x="32px" y="104px" /><rect fill="rgb(255,211,0)" height="5px" opacity="0.980392156863" width="5px" x="36px" y="104px" /><rect fill="rgb(255,211,0)" height="5px" opacity="0.980392156863" width="5px" x="40px" y="104px" /><rect fill="rgb(255,211,0)" height="5px" opacity="0.980392156863" width="5px" x="44px" y="104px" /><rect fill="rgb(255,211,0)" height="5px" opacity="0.980392156863" width="5px" x="48px" y="104px" /><rect fill="rgb(255,211,0)" height="5px" opacity="0.980392156863" width="5px" x="52px" y="104px" /><rect fill="rgb(255,211,0)" height="5px" opacity="0.980392156863" width="5px" x="56px" y="104px" /><rect fill="rgb(251,209,3)" height="5px" opacity="0.980392156863" width="5px" x="60px" y="104px" /><rect fill="rgb(251,209,2)" height="5px" opacity="0.980392156863" width="5px" x="64px" y="104px" /><rect fill="rgb(252,210,1)" height="5px" opacity="0.980392156863" width="5px" x="68px" y="104px" /><rect fill="rgb(251,209,3)" height="5px" opacity="0.980392156863" width="5px" x="72px" y="104px" /><rect fill="rgb(251,209,3)" height="5px" opacity="0.980392156863" width="5px" x="76px" y="104px" /><rect fill="rgb(251,209,2)" height="5px" opacity="0.980392156863" width="5px" x="80px" y="104px" /><rect fill="rgb(255,211,0)" height="5px" opacity="0.980392156863" width="5px" x="84px" y="104px" /><rect fill="rgb(251,209,3)" height="5px" opacity="0.980392156863" width="5px" x="88px" y="104px" /><rect fill="rgb(255,209,0)" height="5px" opacity="0.972549019608" width="5px" x="92px" y="104px" /><rect fill="rgb(255,211,0)" height="5px" opacity="0.960784313725" width="5px" x="96px" y="104px" /><rect fill="rgb(252,210,1)" height="5px" opacity="0.960784313725" width="5px" x="100px" y="104px" /><rect fill="rgb(249,208,4)" height="5px" opacity="0.964705882353" width="5px" x="104px" y="104px" /><rect fill="rgb(255,211,1)" height="5px" opacity="0.960784313725" width="5px" x="108px" y="104px" /><rect fill="rgb(249,208,5)" height="5px" opacity="0.38431372549" width="5px" x="112px" y="104px" /><rect fill="rgb(170,141,28)" height="5px" opacity="0.0352941176471" width="5px" x="104px" y="108px" /><rect fill="rgb(165,140,38)" height="5px" opacity="0.078431372549" width="5px" x="108px" y="108px" /><rect fill="rgb(159,143,47)" height="5px" opacity="0.0627450980392" width="5px" x="112px" y="108px" /></svg>