<?xml version="1.0" encoding="utf-8" ?>
<svg baseProfile="full" height="128px" version="1.1" width="128px" xmlns="http://www.w3.org/2000/svg" xmlns:ev="http://www.w3.org/2001/xml-events" xmlns:xlink="http://www.w3.org/1999/xlink"><defs /><rect fill="rgb(227,227,227)" height="5px" width="5px" x="48px" y="24px" /><rect fill="rgb(209,209,209)" height="5px" width="5px" x="52px" y="24px" /><rect fill="rgb(181,181,181)" height="5px" width="5px" x="56px" y="24px" /><rect fill="rgb(173,173,173)" height="5px" width="5px" x="60px" y="24px" /><rect fill="rgb(227,227,227)" height="5px" width="5px" x="44px" y="28px" /><rect fill="rgb(209,209,209)" height="5px" width="5px" x="48px" y="28px" /><rect fill="rgb(209,209,209)" height="5px" width="5px" x="52px" y="28px" /><rect fill="rgb(181,181,181)" height="5px" width="5px" x="56px" y="28px" /><rect fill="rgb(173,173,173)" height="5px" width="5px" x="60px" y="28px" /><rect fill="rgb(173,173,173)" height="5px" width="5px" x="64px" y="28px" /><rect fill="rgb(81,81,81)" height="5px" width="5px" x="116px" y="28px" /><rect fill="rgb(103,103,103)" height="5px" width="5px" x="44px" y="32px" /><rect fill="rgb(89,89,89)" height="5px" width="5px" x="48px" y="32px" /><rect fill="rgb(78,78,78)" height="5px" width="5px" x="52px" y="32px" /><rect fill="rgb(64,64,64)" height="5px" width="5px" x="56px" y="32px" /><rect fill="rgb(53,53,53)" height="5px" width="5px" x="60px" y="32px" /><rect fill="rgb(46,46,46)" height="5px" width="5px" x="64px" y="32px" /><rect fill="rgb(93,93,93)" height="5px" width="5px" x="112px" y="32px" /><rect fill="rgb(81,81,81)" height="5px" width="5px" x="116px" y="32px" /><rect fill="rgb(103,103,103)" height="5px" width="5px" x="44px" y="36px" /><rect fill="rgb(89,89,89)" height="5px" width="5px" x="48px" y="36px" /><rect fill="rgb(78,78,78)" height="5px" width="5px" x="52px" y="36px" /><rect fill="rgb(64,64,64)" height="5px" width="5px" x="56px" y="36px" /><rect fill="rgb(53,53,53)" height="5px" width="5px" x="60px" y="36px" /><rect fill="rgb(46,46,46)" height="5px" width="5px" x="64px" y="36px" /><rect fill="rgb(81,81,81)" height="5px" width="5px" x="112px" y="36px" /><rect fill="rgb(67,67,67)" height="5px" width="5px" x="116px" y="36px" /><rect fill="rgb(103,103,103)" height="5px" width="5px" x="40px" y="40px" /><rect fill="rgb(89,89,89)" height="5px" width="5px" x="44px" y="40px" /><rect fill="rgb(78,78,78)" height="5px" width="5px" x="48px" y="40px" /><rect fill="rgb(64,64,64)" height="5px" width="5px" x="52px" y="40px" /><rect fill="rgb(53,53,53)" height="5px" width="5px" x="56px" y="40px" /><rect fill="rgb(46,46,46)" height="5px" width="5px" x="60px" y="40px" /><rect fill="rgb(67,67,67)" height="5px" width="5px" x="112px" y="40px" /><rect fill="rgb(67,67,67)" height="5px" width="5px" x="116px" y="40px" /><rect fill="rgb(255,216,0)" height="5px" width="5px" x="12px" y="44px" /><rect fill="rgb(255,216,0)" height="5px" width="5px" x="16px" y="44px" /><rect fill="rgb(103,103,103)" height="5px" width="5px" x="40px" y="44px" /><rect fill="rgb(89,89,89)" height="5px" width="5px" x="44px" y="44px" /><rect fill="rgb(78,78,78)" height="5px" width="5px" x="48px" y="44px" /><rect fill="rgb(64,64,64)" height="5px" width="5px" x="52px" y="44px" /><rect fill="rgb(53,53,53)" height="5px" width="5px" x="56px" y="44px" /><rect fill="rgb(46,46,46)" height="5px" width="5px" x="60px" y="44px" /><rect fill="rgb(67,67,67)" height="5px" width="5px" x="108px" y="44px" /><rect fill="rgb(67,67,67)" height="5px" width="5px" x="112px" y="44px" /><rect fill="rgb(38,38,38)" height="5px" width="5px" x="116px" y="44px" /><rect fill="rgb(29,29,29)" height="5px" width="5px" x="120px" y="44px" /><rect fill="rgb(255,216,0)" height="5px" width="5px" x="12px" y="48px" /><rect fill="rgb(255,216,0)" height="5px" width="5px" x="16px" y="48px" /><rect fill="rgb(103,103,103)" height="5px" width="5px" x="40px" y="48px" /><rect fill="rgb(89,89,89)" height="5px" width="5px" x="44px" y="48px" /><rect fill="rgb(64,64,64)" height="5px" width="5px" x="48px" y="48px" /><rect fill="rgb(53,53,53)" height="5px" width="5px" x="52px" y="48px" /><rect fill="rgb(46,46,46)" height="5px" width="5px" x="56px" y="48px" /><rect fill="rgb(67,67,67)" height="5px" width="5px" x="108px" y="48px" /><rect fill="rgb(37,37,37)" height="5px" width="5px" x="112px" y="48px" /><rect fill="rgb(38,38,38)" height="5px" width="5px" x="116px" y="48px" /><rect fill="rgb(29,29,29)" height="5px" width="5px" x="120px" y="48px" /><rect fill="rgb(24,24,24)" height="5px" width="5px" x="124px" y="48px" /><rect fill="rgb(18,18,18)" height="5px" width="5px" x="12px" y="52px" /><rect fill="rgb(103,103,103)" height="5px" width="5px" x="36px" y="52px" /><rect fill="rgb(89,89,89)" height="5px" width="5px" x="40px" y="52px" /><rect fill="rgb(78,78,78)" height="5px" width="5px" x="44px" y="52px" /><rect fill="rgb(64,64,64)" height="5px" width="5px" x="48px" y="52px" /><rect fill="rgb(53,53,53)" height="5px" width="5px" x="52px" y="52px" /><rect fill="rgb(46,46,46)" height="5px" width="5px" x="56px" y="52px" /><rect fill="rgb(37,37,37)" height="5px" width="5px" x="108px" y="52px" /><rect fill="rgb(37,37,37)" height="5px" width="5px" x="112px" y="52px" /><rect fill="rgb(38,38,38)" height="5px" width="5px" x="116px" y="52px" /><rect fill="rgb(29,29,29)" height="5px" width="5px" x="120px" y="52px" /><rect fill="rgb(24,24,24)" height="5px" width="5px" x="124px" y="52px" /><rect fill="rgb(18,18,18)" height="5px" width="5px" x="12px" y="56px" /><rect fill="rgb(103,103,103)" height="5px" width="5px" x="36px" y="56px" /><rect fill="rgb(89,89,89)" height="5px" width="5px" x="40px" y="56px" /><rect fill="rgb(111,111,111)" height="5px" width="5px" x="44px" y="56px" /><rect fill="rgb(111,111,111)" height="5px" width="5px" x="48px" y="56px" /><rect fill="rgb(111,111,111)" height="5px" width="5px" x="52px" y="56px" /><rect fill="rgb(111,111,111)" height="5px" width="5px" x="56px" y="56px" /><rect fill="rgb(111,111,111)" height="5px" width="5px" x="60px" y="56px" /><rect fill="rgb(111,111,111)" height="5px" width="5px" x="64px" y="56px" /><rect fill="rgb(92,92,92)" height="5px" width="5px" x="68px" y="56px" /><rect fill="rgb(37,37,37)" height="5px" width="5px" x="108px" y="56px" /><rect fill="rgb(67,67,67)" height="5px" width="5px" x="112px" y="56px" /><rect fill="rgb(67,67,67)" height="5px" width="5px" x="116px" y="56px" /><rect fill="rgb(29,29,29)" height="5px" width="5px" x="120px" y="56px" /><rect fill="rgb(24,24,24)" height="5px" width="5px" x="124px" y="56px" /><rect fill="rgb(18,18,18)" height="5px" width="5px" x="8px" y="60px" /><rect fill="rgb(18,18,18)" height="5px" width="5px" x="12px" y="60px" /><rect fill="rgb(67,67,67)" height="5px" width="5px" x="32px" y="60px" /><rect fill="rgb(37,37,37)" height="5px" width="5px" x="36px" y="60px" /><rect fill="rgb(111,111,111)" height="5px" width="5px" x="40px" y="60px" /><rect fill="rgb(153,193,241)" height="5px" width="5px" x="44px" y="60px" /><rect fill="rgb(153,193,241)" height="5px" width="5px" x="48px" y="60px" /><rect fill="rgb(153,193,241)" height="5px" width="5px" x="52px" y="60px" /><rect fill="rgb(92,92,92)" height="5px" width="5px" x="56px" y="60px" /><rect fill="rgb(153,193,241)" height="5px" width="5px" x="60px" y="60px" /><rect fill="rgb(153,193,241)" height="5px" width="5px" x="64px" y="60px" /><rect fill="rgb(153,193,241)" height="5px" width="5px" x="68px" y="60px" /><rect fill="rgb(92,92,92)" height="5px" width="5px" x="72px" y="60px" /><rect fill="rgb(92,92,92)" height="5px" width="5px" x="76px" y="60px" /><rect fill="rgb(72,72,72)" height="5px" width="5px" x="80px" y="60px" /><rect fill="rgb(59,59,59)" height="5px" width="5px" x="84px" y="60px" /><rect fill="rgb(37,37,37)" height="5px" width="5px" x="88px" y="60px" /><rect fill="rgb(37,37,37)" height="5px" width="5px" x="104px" y="60px" /><rect fill="rgb(37,37,37)" height="5px" width="5px" x="108px" y="60px" /><rect fill="rgb(67,67,67)" height="5px" width="5px" x="112px" y="60px" /><rect fill="rgb(67,67,67)" height="5px" width="5px" x="116px" y="60px" /><rect fill="rgb(67,67,67)" height="5px" width="5px" x="120px" y="60px" /><rect fill="rgb(24,24,24)" height="5px" width="5px" x="124px" y="60px" /><rect fill="rgb(18,18,18)" height="5px" width="5px" x="8px" y="64px" /><rect fill="rgb(18,18,18)" height="5px" width="5px" x="12px" y="64px" /><rect fill="rgb(68,68,68)" height="5px" width="5px" x="24px" y="64px" /><rect fill="rgb(68,68,68)" height="5px" width="5px" x="28px" y="64px" /><rect fill="rgb(56,56,56)" height="5px" width="5px" x="32px" y="64px" /><rect fill="rgb(56,56,56)" height="5px" width="5px" x="36px" y="64px" /><rect fill="rgb(92,92,92)" height="5px" width="5px" x="40px" y="64px" /><rect fill="rgb(153,193,241)" height="5px" width="5px" x="44px" y="64px" /><rect fill="rgb(153,193,241)" height="5px" width="5px" x="48px" y="64px" /><rect fill="rgb(153,193,241)" height="5px" width="5px" x="52px" y="64px" /><rect fill="rgb(72,72,72)" height="5px" width="5px" x="56px" y="64px" /><rect fill="rgb(153,193,241)" height="5px" width="5px" x="60px" y="64px" /><rect fill="rgb(153,193,241)" height="5px" width="5px" x="64px" y="64px" /><rect fill="rgb(153,193,241)" height="5px" width="5px" x="68px" y="64px" /><rect fill="rgb(72,72,72)" height="5px" width="5px" x="72px" y="64px" /><rect fill="rgb(72,72,72)" height="5px" width="5px" x="76px" y="64px" /><rect fill="rgb(72,72,72)" height="5px" width="5px" x="80px" y="64px" /><rect fill="rgb(59,59,59)" height="5px" width="5px" x="84px" y="64px" /><rect fill="rgb(59,59,59)" height="5px" width="5px" x="88px" y="64px" /><rect fill="rgb(51,51,51)" height="5px" width="5px" x="92px" y="64px" /><rect fill="rgb(37,37,37)" height="5px" width="5px" x="96px" y="64px" /><rect fill="rgb(37,37,37)" height="5px" width="5px" x="100px" y="64px" /><rect fill="rgb(37,37,37)" height="5px" width="5px" x="104px" y="64px" /><rect fill="rgb(37,37,37)" height="5px" width="5px" x="108px" y="64px" /><rect fill="rgb(37,37,37)" height="5px" width="5px" x="112px" y="64px" /><rect fill="rgb(81,81,81)" height="5px" width="5px" x="116px" y="64px" /><rect fill="rgb(67,67,67)" height="5px" width="5px" x="120px" y="64px" /><rect fill="rgb(67,67,67)" height="5px" width="5px" x="124px" y="64px" /><rect fill="rgb(18,18,18)" height="5px" width="5px" x="8px" y="68px" /><rect fill="rgb(0,0,0)" height="5px" width="5px" x="12px" y="68px" /><rect fill="rgb(68,68,68)" height="5px" width="5px" x="16px" y="68px" /><rect fill="rgb(68,68,68)" height="5px" width="5px" x="20px" y="68px" /><rect fill="rgb(68,68,68)" height="5px" width="5px" x="24px" y="68px" /><rect fill="rgb(68,68,68)" height="5px" width="5px" x="28px" y="68px" /><rect fill="rgb(56,56,56)" height="5px" width="5px" x="32px" y="68px" /><rect fill="rgb(56,56,56)" height="5px" width="5px" x="36px" y="68px" /><rect fill="rgb(72,72,72)" height="5px" width="5px" x="40px" y="68px" /><rect fill="rgb(153,193,241)" height="5px" width="5px" x="44px" y="68px" /><rect fill="rgb(153,193,241)" height="5px" width="5px" x="48px" y="68px" /><rect fill="rgb(59,59,59)" height="5px" width="5px" x="52px" y="68px" /><rect fill="rgb(59,59,59)" height="5px" width="5px" x="56px" y="68px" /><rect fill="rgb(60,60,60)" height="5px" width="5px" x="60px" y="68px" /><rect fill="rgb(60,60,60)" height="5px" width="5px" x="64px" y="68px" /><rect fill="rgb(60,60,60)" height="5px" width="5px" x="68px" y="68px" /><rect fill="rgb(60,60,60)" height="5px" width="5px" x="72px" y="68px" /><rect fill="rgb(59,59,59)" height="5px" width="5px" x="76px" y="68px" /><rect fill="rgb(51,51,51)" height="5px" width="5px" x="80px" y="68px" /><rect fill="rgb(51,51,51)" height="5px" width="5px" x="84px" y="68px" /><rect fill="rgb(51,51,51)" height="5px" width="5px" x="88px" y="68px" /><rect fill="rgb(51,51,51)" height="5px" width="5px" x="92px" y="68px" /><rect fill="rgb(37,37,37)" height="5px" width="5px" x="96px" y="68px" /><rect fill="rgb(37,37,37)" height="5px" width="5px" x="100px" y="68px" /><rect fill="rgb(37,37,37)" height="5px" width="5px" x="104px" y="68px" /><rect fill="rgb(37,37,37)" height="5px" width="5px" x="108px" y="68px" /><rect fill="rgb(37,37,37)" height="5px" width="5px" x="112px" y="68px" /><rect fill="rgb(93,93,93)" height="5px" width="5px" x="116px" y="68px" /><rect fill="rgb(81,81,81)" height="5px" width="5px" x="120px" y="68px" /><rect fill="rgb(67,67,67)" height="5px" width="5px" x="124px" y="68px" /><rect fill="rgb(0,0,0)" height="5px" width="5px" x="8px" y="72px" /><rect fill="rgb(0,0,0)" height="5px" width="5px" x="12px" y="72px" /><rect fill="rgb(68,68,68)" height="5px" width="5px" x="16px" y="72px" /><rect fill="rgb(68,68,68)" height="5px" width="5px" x="20px" y="72px" /><rect fill="rgb(56,56,56)" height="5px" width="5px" x="24px" y="72px" /><rect fill="rgb(56,56,56)" height="5px" width="5px" x="28px" y="72px" /><rect fill="rgb(37,37,37)" height="5px" width="5px" x="32px" y="72px" /><rect fill="rgb(37,37,37)" height="5px" width="5px" x="36px" y="72px" /><rect fill="rgb(72,72,72)" height="5px" width="5px" x="40px" y="72px" /><rect fill="rgb(60,60,60)" height="5px" width="5px" x="44px" y="72px" /><rect fill="rgb(60,60,60)" height="5px" width="5px" x="48px" y="72px" /><rect fill="rgb(37,37,37)" height="5px" width="5px" x="52px" y="72px" /><rect fill="rgb(37,37,37)" height="5px" width="5px" x="56px" y="72px" /><rect fill="rgb(37,37,37)" height="5px" width="5px" x="60px" y="72px" /><rect fill="rgb(37,37,37)" height="5px" width="5px" x="64px" y="72px" /><rect fill="rgb(37,37,37)" height="5px" width="5px" x="68px" y="72px" /><rect fill="rgb(37,37,37)" height="5px" width="5px" x="72px" y="72px" /><rect fill="rgb(37,37,37)" height="5px" width="5px" x="76px" y="72px" /><rect fill="rgb(37,37,37)" height="5px" width="5px" x="80px" y="72px" /><rect fill="rgb(37,37,37)" height="5px" width="5px" x="84px" y="72px" /><rect fill="rgb(37,37,37)" height="5px" width="5px" x="88px" y="72px" /><rect fill="rgb(37,37,37)" height="5px" width="5px" x="92px" y="72px" /><rect fill="rgb(37,37,37)" height="5px" width="5px" x="96px" y="72px" /><rect fill="rgb(40,39,39)" height="5px" width="5px" x="100px" y="72px" /><rect fill="rgb(40,39,39)" height="5px" width="5px" x="104px" y="72px" /><rect fill="rgb(40,39,39)" height="5px" width="5px" x="108px" y="72px" /><rect fill="rgb(29,29,29)" height="5px" width="5px" x="112px" y="72px" /><rect fill="rgb(29,29,29)" height="5px" width="5px" x="116px" y="72px" /><rect fill="rgb(29,29,29)" height="5px" width="5px" x="120px" y="72px" /><rect fill="rgb(81,81,81)" height="5px" width="5px" x="124px" y="72px" /><rect fill="rgb(0,0,0)" height="5px" width="5px" x="4px" y="76px" /><rect fill="rgb(0,0,0)" height="5px" width="5px" x="8px" y="76px" /><rect fill="rgb(18,18,18)" height="5px" width="5px" x="12px" y="76px" /><rect fill="rgb(56,56,56)" height="5px" width="5px" x="16px" y="76px" /><rect fill="rgb(56,56,56)" height="5px" width="5px" x="20px" y="76px" /><rect fill="rgb(37,37,37)" height="5px" width="5px" x="24px" y="76px" /><rect fill="rgb(37,37,37)" height="5px" width="5px" x="28px" y="76px" /><rect fill="rgb(37,37,37)" height="5px" width="5px" x="32px" y="76px" /><rect fill="rgb(37,37,37)" height="5px" width="5px" x="36px" y="76px" /><rect fill="rgb(37,37,37)" height="5px" width="5px" x="40px" y="76px" /><rect fill="rgb(37,37,37)" height="5px" width="5px" x="44px" y="76px" /><rect fill="rgb(37,37,37)" height="5px" width="5px" x="48px" y="76px" /><rect fill="rgb(37,37,37)" height="5px" width="5px" x="52px" y="76px" /><rect fill="rgb(37,37,37)" height="5px" width="5px" x="56px" y="76px" /><rect fill="rgb(37,37,37)" height="5px" width="5px" x="60px" y="76px" /><rect fill="rgb(37,37,37)" height="5px" width="5px" x="64px" y="76px" /><rect fill="rgb(37,37,37)" height="5px" width="5px" x="68px" y="76px" /><rect fill="rgb(37,37,37)" height="5px" width="5px" x="72px" y="76px" /><rect fill="rgb(37,37,37)" height="5px" width="5px" x="76px" y="76px" /><rect fill="rgb(37,37,37)" height="5px" width="5px" x="80px" y="76px" /><rect fill="rgb(37,37,37)" height="5px" width="5px" x="84px" y="76px" /><rect fill="rgb(40,39,39)" height="5px" width="5px" x="88px" y="76px" /><rect fill="rgb(40,39,39)" height="5px" width="5px" x="92px" y="76px" /><rect fill="rgb(40,39,39)" height="5px" width="5px" x="96px" y="76px" /><rect fill="rgb(29,29,29)" height="5px" width="5px" x="100px" y="76px" /><rect fill="rgb(29,29,29)" height="5px" width="5px" x="104px" y="76px" /><rect fill="rgb(29,29,29)" height="5px" width="5px" x="108px" y="76px" /><rect fill="rgb(93,93,93)" height="5px" width="5px" x="124px" y="76px" /><rect fill="rgb(18,18,18)" height="5px" width="5px" x="8px" y="80px" /><rect fill="rgb(18,18,18)" height="5px" width="5px" x="12px" y="80px" /><rect fill="rgb(37,37,37)" height="5px" width="5px" x="16px" y="80px" /><rect fill="rgb(37,37,37)" height="5px" width="5px" x="20px" y="80px" /><rect fill="rgb(37,37,37)" height="5px" width="5px" x="24px" y="80px" /><rect fill="rgb(37,37,37)" height="5px" width="5px" x="28px" y="80px" /><rect fill="rgb(103,103,103)" height="5px" width="5px" x="32px" y="80px" /><rect fill="rgb(89,89,89)" height="5px" width="5px" x="36px" y="80px" /><rect fill="rgb(78,78,78)" height="5px" width="5px" x="40px" y="80px" /><rect fill="rgb(67,67,67)" height="5px" width="5px" x="44px" y="80px" /><rect fill="rgb(67,67,67)" height="5px" width="5px" x="48px" y="80px" /><rect fill="rgb(67,67,67)" height="5px" width="5px" x="52px" y="80px" /><rect fill="rgb(53,53,53)" height="5px" width="5px" x="56px" y="80px" /><rect fill="rgb(53,53,53)" height="5px" width="5px" x="60px" y="80px" /><rect fill="rgb(37,37,37)" height="5px" width="5px" x="64px" y="80px" /><rect fill="rgb(40,39,39)" height="5px" width="5px" x="68px" y="80px" /><rect fill="rgb(40,39,39)" height="5px" width="5px" x="72px" y="80px" /><rect fill="rgb(40,39,39)" height="5px" width="5px" x="76px" y="80px" /><rect fill="rgb(40,39,39)" height="5px" width="5px" x="80px" y="80px" /><rect fill="rgb(40,39,39)" height="5px" width="5px" x="84px" y="80px" /><rect fill="rgb(29,29,29)" height="5px" width="5px" x="88px" y="80px" /><rect fill="rgb(29,29,29)" height="5px" width="5px" x="92px" y="80px" /><rect fill="rgb(29,29,29)" height="5px" width="5px" x="96px" y="80px" /><rect fill="rgb(18,18,18)" height="5px" width="5px" x="8px" y="84px" /><rect fill="rgb(18,18,18)" height="5px" width="5px" x="12px" y="84px" /><rect fill="rgb(29,29,29)" height="5px" width="5px" x="16px" y="84px" /><rect fill="rgb(29,29,29)" height="5px" width="5px" x="20px" y="84px" /><rect fill="rgb(29,29,29)" height="5px" width="5px" x="24px" y="84px" /><rect fill="rgb(29,29,29)" height="5px" width="5px" x="28px" y="84px" /><rect fill="rgb(29,29,29)" height="5px" width="5px" x="32px" y="84px" /><rect fill="rgb(103,103,103)" height="5px" width="5px" x="36px" y="84px" /><rect fill="rgb(89,89,89)" height="5px" width="5px" x="40px" y="84px" /><rect fill="rgb(78,78,78)" height="5px" width="5px" x="44px" y="84px" /><rect fill="rgb(67,67,67)" height="5px" width="5px" x="48px" y="84px" /><rect fill="rgb(67,67,67)" height="5px" width="5px" x="52px" y="84px" /><rect fill="rgb(53,53,53)" height="5px" width="5px" x="56px" y="84px" /><rect fill="rgb(53,53,53)" height="5px" width="5px" x="60px" y="84px" /><rect fill="rgb(46,46,46)" height="5px" width="5px" x="64px" y="84px" /><rect fill="rgb(29,29,29)" height="5px" width="5px" x="68px" y="84px" /><rect fill="rgb(29,29,29)" height="5px" width="5px" x="72px" y="84px" /><rect fill="rgb(29,29,29)" height="5px" width="5px" x="76px" y="84px" /><rect fill="rgb(29,29,29)" height="5px" width="5px" x="80px" y="84px" /><rect fill="rgb(29,29,29)" height="5px" width="5px" x="84px" y="84px" /><rect fill="rgb(18,18,18)" height="5px" width="5px" x="12px" y="88px" /><rect fill="rgb(18,18,18)" height="5px" width="5px" x="16px" y="88px" /><rect fill="rgb(103,103,103)" height="5px" width="5px" x="40px" y="88px" /><rect fill="rgb(89,89,89)" height="5px" width="5px" x="44px" y="88px" /><rect fill="rgb(78,78,78)" height="5px" width="5px" x="48px" y="88px" /><rect fill="rgb(67,67,67)" height="5px" width="5px" x="52px" y="88px" /><rect fill="rgb(67,67,67)" height="5px" width="5px" x="56px" y="88px" /><rect fill="rgb(67,67,67)" height="5px" width="5px" x="60px" y="88px" /><rect fill="rgb(53,53,53)" height="5px" width="5px" x="64px" y="88px" /><rect fill="rgb(46,46,46)" height="5px" width="5px" x="68px" y="88px" /><rect fill="rgb(18,18,18)" height="5px" width="5px" x="12px" y="92px" /><rect fill="rgb(18,18,18)" height="5px" width="5px" x="16px" y="92px" /><rect fill="rgb(103,103,103)" height="5px" width="5px" x="44px" y="92px" /><rect fill="rgb(89,89,89)" height="5px" width="5px" x="48px" y="92px" /><rect fill="rgb(78,78,78)" height="5px" width="5px" x="52px" y="92px" /><rect fill="rgb(67,67,67)" height="5px" width="5px" x="56px" y="92px" /><rect fill="rgb(67,67,67)" height="5px" width="5px" x="60px" y="92px" /><rect fill="rgb(64,64,64)" height="5px" width="5px" x="64px" y="92px" /><rect fill="rgb(53,53,53)" height="5px" width="5px" x="68px" y="92px" /><rect fill="rgb(46,46,46)" height="5px" width="5px" x="72px" y="92px" /><rect fill="rgb(255,216,0)" height="5px" width="5px" x="16px" y="96px" /><rect fill="rgb(255,216,0)" height="5px" width="5px" x="20px" y="96px" /><rect fill="rgb(103,103,103)" height="5px" width="5px" x="48px" y="96px" /><rect fill="rgb(89,89,89)" height="5px" width="5px" x="52px" y="96px" /><rect fill="rgb(78,78,78)" height="5px" width="5px" x="56px" y="96px" /><rect fill="rgb(67,67,67)" height="5px" width="5px" x="60px" y="96px" /><rect fill="rgb(67,67,67)" height="5px" width="5px" x="64px" y="96px" /><rect fill="rgb(53,53,53)" height="5px" width="5px" x="68px" y="96px" /><rect fill="rgb(46,46,46)" height="5px" width="5px" x="72px" y="96px" /><rect fill="rgb(255,216,0)" height="5px" width="5px" x="20px" y="100px" /><rect fill="rgb(103,103,103)" height="5px" width="5px" x="52px" y="100px" /><rect fill="rgb(89,89,89)" height="5px" width="5px" x="56px" y="100px" /><rect fill="rgb(78,78,78)" height="5px" width="5px" x="60px" y="100px" /><rect fill="rgb(78,78,78)" height="5px" width="5px" x="64px" y="100px" /><rect fill="rgb(67,67,67)" height="5px" width="5px" x="68px" y="100px" /><rect fill="rgb(64,64,64)" height="5px" width="5px" x="72px" y="100px" /><rect fill="rgb(46,46,46)" height="5px" width="5px" x="76px" y="100px" /><rect fill="rgb(103,103,103)" height="5px" width="5px" x="56px" y="104px" /><rect fill="rgb(89,89,89)" height="5px" width="5px" x="60px" y="104px" /><rect fill="rgb(78,78,78)" height="5px" width="5px" x="64px" y="104px" /><rect fill="rgb(67,67,67)" height="5px" width="5px" x="68px" y="104px" /><rect fill="rgb(67,67,67)" height="5px" width="5px" x="72px" y="104px" /><rect fill="rgb(53,53,53)" height="5px" width="5px" x="76px" y="104px" /><rect fill="rgb(46,46,46)" height="5px" width="5px" x="80px" y="104px" /><rect fill="rgb(103,103,103)" height="5px" width="5px" x="56px" y="108px" /><rect fill="rgb(89,89,89)" height="5px" width="5px" x="60px" y="108px" /><rect fill="rgb(78,78,78)" height="5px" width="5px" x="64px" y="108px" /><rect fill="rgb(67,67,67)" height="5px" width="5px" x="68px" y="108px" /><rect fill="rgb(67,67,67)" height="5px" width="5px" x="72px" y="108px" /><rect fill="rgb(67,67,67)" height="5px" width="5px" x="76px" y="108px" /><rect fill="rgb(53,53,53)" height="5px" width="5px" x="80px" y="108px" /><rect fill="rgb(173,173,173)" height="5px" width="5px" x="84px" y="108px" /><rect fill="rgb(103,103,103)" height="5px" width="5px" x="60px" y="112px" /><rect fill="rgb(89,89,89)" height="5px" width="5px" x="64px" y="112px" /><rect fill="rgb(78,78,78)" height="5px" width="5px" x="68px" y="112px" /><rect fill="rgb(67,67,67)" height="5px" width="5px" x="72px" y="112px" /><rect fill="rgb(67,67,67)" height="5px" width="5px" x="76px" y="112px" /><rect fill="rgb(181,181,181)" height="5px" width="5px" x="80px" y="112px" /><rect fill="rgb(173,173,173)" height="5px" width="5px" x="84px" y="112px" /><rect fill="rgb(103,103,103)" height="5px" width="5px" x="64px" y="116px" /><rect fill="rgb(89,89,89)" height="5px" width="5px" x="68px" y="116px" /><rect fill="rgb(209,209,209)" height="5px" width="5px" x="72px" y="116px" /><rect fill="rgb(200,200,200)" height="5px" width="5px" x="76px" y="116px" /><rect fill="rgb(181,181,181)" height="5px" width="5px" x="80px" y="116px" /><rect fill="rgb(181,181,181)" height="5px" width="5px" x="84px" y="116px" /><rect fill="rgb(173,173,173)" height="5px" width="5px" x="88px" y="116px" /><rect fill="rgb(227,227,227)" height="5px" width="5px" x="68px" y="120px" /><rect fill="rgb(209,209,209)" height="5px" width="5px" x="72px" y="120px" /><rect fill="rgb(209,209,209)" height="5px" width="5px" x="76px" y="120px" /><rect fill="rgb(200,200,200)" height="5px" width="5px" x="80px" y="120px" /><rect fill="rgb(200,200,200)" height="5px" width="5px" x="84px" y="120px" /><rect fill="rgb(227,227,227)" height="5px" width="5px" x="72px" y="124px" /><rect fill="rgb(227,227,227)" height="5px" width="5px" x="76px" y="124px" /><rect fill="rgb(227,227,227)" height="5px" width="5px" x="80px" y="124px" /></svg>