<?xml version="1.0" encoding="utf-8" ?>
<svg baseProfile="full" height="128px" version="1.1" width="128px" xmlns="http://www.w3.org/2000/svg" xmlns:ev="http://www.w3.org/2001/xml-events" xmlns:xlink="http://www.w3.org/1999/xlink"><defs /><rect fill="rgb(0,0,0)" height="5px" opacity="0.796078431373" width="5px" x="64px" y="8px" /><rect fill="rgb(0,0,0)" height="5px" opacity="0.921568627451" width="5px" x="68px" y="8px" /><rect fill="rgb(0,0,0)" height="5px" opacity="0.882352941176" width="5px" x="64px" y="12px" /><rect fill="rgb(0,0,0)" height="5px" opacity="0.992156862745" width="5px" x="68px" y="12px" /><rect fill="rgb(0,0,0)" height="5px" opacity="0.996078431373" width="5px" x="72px" y="12px" /><rect fill="rgb(0,0,0)" height="5px" opacity="0.98431372549" width="5px" x="76px" y="12px" /><rect fill="rgb(0,0,0)" height="5px" width="5px" x="80px" y="12px" /><rect fill="rgb(0,0,0)" height="5px" width="5px" x="80px" y="16px" /><rect fill="rgb(0,0,0)" height="5px" width="5px" x="80px" y="20px" /><rect fill="rgb(0,0,0)" height="5px" width="5px" x="80px" y="24px" /><rect fill="rgb(0,0,0)" height="5px" width="5px" x="80px" y="28px" /><rect fill="rgb(0,0,0)" height="5px" width="5px" x="80px" y="32px" /><rect fill="rgb(0,0,0)" height="5px" width="5px" x="48px" y="36px" /><rect fill="rgb(0,0,0)" height="5px" width="5px" x="52px" y="36px" /><rect fill="rgb(0,0,0)" height="5px" width="5px" x="56px" y="36px" /><rect fill="rgb(0,0,0)" height="5px" width="5px" x="60px" y="36px" /><rect fill="rgb(0,0,0)" height="5px" width="5px" x="64px" y="36px" /><rect fill="rgb(0,0,0)" height="5px" width="5px" x="68px" y="36px" /><rect fill="rgb(0,0,0)" height="5px" width="5px" x="72px" y="36px" /><rect fill="rgb(0,0,0)" height="5px" width="5px" x="76px" y="36px" /><rect fill="rgb(0,0,0)" height="5px" width="5px" x="80px" y="36px" /><rect fill="rgb(0,0,0)" height="5px" width="5px" x="36px" y="40px" /><rect fill="rgb(0,0,0)" height="5px" width="5px" x="40px" y="40px" /><rect fill="rgb(0,0,0)" height="5px" width="5px" x="44px" y="40px" /><rect fill="rgb(0,0,0)" height="5px" width="5px" x="48px" y="40px" /><rect fill="rgb(0,0,0)" height="5px" width="5px" x="52px" y="40px" /><rect fill="rgb(0,0,0)" height="5px" width="5px" x="56px" y="40px" /><rect fill="rgb(0,0,0)" height="5px" width="5px" x="60px" y="40px" /><rect fill="rgb(0,0,0)" height="5px" width="5px" x="64px" y="40px" /><rect fill="rgb(0,0,0)" height="5px" width="5px" x="68px" y="40px" /><rect fill="rgb(0,0,0)" height="5px" width="5px" x="72px" y="40px" /><rect fill="rgb(0,0,0)" height="5px" width="5px" x="76px" y="40px" /><rect fill="rgb(0,0,0)" height="5px" width="5px" x="80px" y="40px" /><rect fill="rgb(0,0,0)" height="5px" width="5px" x="84px" y="40px" /><rect fill="rgb(0,0,0)" height="5px" opacity="0.0196078431373" width="5px" x="88px" y="40px" /><rect fill="rgb(0,0,0)" height="5px" width="5px" x="36px" y="44px" /><rect fill="rgb(0,0,0)" height="5px" width="5px" x="40px" y="44px" /><rect fill="rgb(0,0,0)" height="5px" width="5px" x="44px" y="44px" /><rect fill="rgb(0,0,0)" height="5px" width="5px" x="48px" y="44px" /><rect fill="rgb(0,0,0)" height="5px" width="5px" x="52px" y="44px" /><rect fill="rgb(0,0,0)" height="5px" width="5px" x="56px" y="44px" /><rect fill="rgb(0,0,0)" height="5px" width="5px" x="60px" y="44px" /><rect fill="rgb(0,0,0)" height="5px" width="5px" x="64px" y="44px" /><rect fill="rgb(0,0,0)" height="5px" width="5px" x="68px" y="44px" /><rect fill="rgb(0,0,0)" height="5px" width="5px" x="72px" y="44px" /><rect fill="rgb(0,0,0)" height="5px" width="5px" x="76px" y="44px" /><rect fill="rgb(0,0,0)" height="5px" width="5px" x="80px" y="44px" /><rect fill="rgb(0,0,0)" height="5px" width="5px" x="84px" y="44px" /><rect fill="rgb(0,0,0)" height="5px" opacity="0.211764705882" width="5px" x="40px" y="48px" /><rect fill="rgb(0,0,0)" height="5px" opacity="0.81568627451" width="5px" x="44px" y="48px" /><rect fill="rgb(0,0,0)" height="5px" opacity="0.972549019608" width="5px" x="48px" y="48px" /><rect fill="rgb(0,0,0)" height="5px" opacity="0.996078431373" width="5px" x="52px" y="48px" /><rect fill="rgb(0,0,0)" height="5px" opacity="0.996078431373" width="5px" x="56px" y="48px" /><rect fill="rgb(0,0,0)" height="5px" opacity="0.996078431373" width="5px" x="60px" y="48px" /><rect fill="rgb(0,0,0)" height="5px" opacity="0.992156862745" width="5px" x="64px" y="48px" /><rect fill="rgb(0,0,0)" height="5px" opacity="0.937254901961" width="5px" x="68px" y="48px" /><rect fill="rgb(0,0,0)" height="5px" opacity="0.964705882353" width="5px" x="72px" y="48px" /><rect fill="rgb(0,0,0)" height="5px" opacity="0.972549019608" width="5px" x="76px" y="48px" /><rect fill="rgb(0,0,0)" height="5px" opacity="0.352941176471" width="5px" x="80px" y="48px" /><rect fill="rgb(0,0,0)" height="5px" opacity="0.0196078431373" width="5px" x="84px" y="48px" /><rect fill="rgb(0,0,0)" height="5px" opacity="0.823529411765" width="5px" x="44px" y="52px" /><rect fill="rgb(0,0,0)" height="5px" opacity="0.98431372549" width="5px" x="48px" y="52px" /><rect fill="rgb(0,0,0)" height="5px" width="5px" x="52px" y="52px" /><rect fill="rgb(0,0,0)" height="5px" width="5px" x="56px" y="52px" /><rect fill="rgb(0,0,0)" height="5px" width="5px" x="60px" y="52px" /><rect fill="rgb(0,0,0)" height="5px" opacity="0.925490196078" width="5px" x="64px" y="52px" /><rect fill="rgb(0,0,0)" height="5px" opacity="0.996078431373" width="5px" x="68px" y="52px" /><rect fill="rgb(0,0,0)" height="5px" opacity="0.980392156863" width="5px" x="72px" y="52px" /><rect fill="rgb(0,0,0)" height="5px" opacity="0.647058823529" width="5px" x="76px" y="52px" /><rect fill="rgb(0,0,0)" height="5px" opacity="0.447058823529" width="5px" x="44px" y="56px" /><rect fill="rgb(0,0,0)" height="5px" opacity="0.996078431373" width="5px" x="48px" y="56px" /><rect fill="rgb(0,0,0)" height="5px" width="5px" x="52px" y="56px" /><rect fill="rgb(0,0,0)" height="5px" width="5px" x="56px" y="56px" /><rect fill="rgb(0,0,0)" height="5px" width="5px" x="60px" y="56px" /><rect fill="rgb(0,0,0)" height="5px" opacity="0.988235294118" width="5px" x="64px" y="56px" /><rect fill="rgb(0,0,0)" height="5px" width="5px" x="68px" y="56px" /><rect fill="rgb(0,0,0)" height="5px" opacity="0.945098039216" width="5px" x="72px" y="56px" /><rect fill="rgb(0,0,0)" height="5px" opacity="0.0392156862745" width="5px" x="76px" y="56px" /><rect fill="rgb(0,0,0)" height="5px" opacity="0.0352941176471" width="5px" x="40px" y="60px" /><rect fill="rgb(0,0,0)" height="5px" opacity="0.913725490196" width="5px" x="48px" y="60px" /><rect fill="rgb(0,0,0)" height="5px" width="5px" x="52px" y="60px" /><rect fill="rgb(0,0,0)" height="5px" width="5px" x="56px" y="60px" /><rect fill="rgb(0,0,0)" height="5px" width="5px" x="60px" y="60px" /><rect fill="rgb(0,0,0)" height="5px" width="5px" x="64px" y="60px" /><rect fill="rgb(0,0,0)" height="5px" opacity="0.976470588235" width="5px" x="68px" y="60px" /><rect fill="rgb(0,0,0)" height="5px" opacity="0.462745098039" width="5px" x="72px" y="60px" /><rect fill="rgb(0,0,0)" height="5px" opacity="0.0078431372549" width="5px" x="76px" y="60px" /><rect fill="rgb(0,0,0)" height="5px" opacity="0.0196078431373" width="5px" x="40px" y="64px" /><rect fill="rgb(0,0,0)" height="5px" opacity="0.372549019608" width="5px" x="48px" y="64px" /><rect fill="rgb(0,0,0)" height="5px" width="5px" x="52px" y="64px" /><rect fill="rgb(0,0,0)" height="5px" width="5px" x="56px" y="64px" /><rect fill="rgb(0,0,0)" height="5px" width="5px" x="60px" y="64px" /><rect fill="rgb(0,0,0)" height="5px" opacity="0.992156862745" width="5px" x="64px" y="64px" /><rect fill="rgb(0,0,0)" height="5px" opacity="0.917647058824" width="5px" x="68px" y="64px" /><rect fill="rgb(0,0,0)" height="5px" opacity="0.18431372549" width="5px" x="72px" y="64px" /><rect fill="rgb(0,0,0)" height="5px" opacity="0.0274509803922" width="5px" x="76px" y="64px" /><rect fill="rgb(0,0,0)" height="5px" opacity="0.00392156862745" width="5px" x="40px" y="68px" /><rect fill="rgb(0,0,0)" height="5px" opacity="0.996078431373" width="5px" x="52px" y="68px" /><rect fill="rgb(0,0,0)" height="5px" width="5px" x="56px" y="68px" /><rect fill="rgb(0,0,0)" height="5px" width="5px" x="60px" y="68px" /><rect fill="rgb(0,0,0)" height="5px" opacity="0.996078431373" width="5px" x="64px" y="68px" /><rect fill="rgb(0,0,0)" height="5px" opacity="0.725490196078" width="5px" x="68px" y="68px" /><rect fill="rgb(0,0,0)" height="5px" opacity="0.18431372549" width="5px" x="72px" y="68px" /><rect fill="rgb(0,0,0)" height="5px" opacity="0.0313725490196" width="5px" x="40px" y="72px" /><rect fill="rgb(0,0,0)" height="5px" opacity="0.956862745098" width="5px" x="52px" y="72px" /><rect fill="rgb(0,0,0)" height="5px" width="5px" x="56px" y="72px" /><rect fill="rgb(0,0,0)" height="5px" width="5px" x="60px" y="72px" /><rect fill="rgb(0,0,0)" height="5px" width="5px" x="64px" y="72px" /><rect fill="rgb(0,0,0)" height="5px" opacity="0.886274509804" width="5px" x="68px" y="72px" /><rect fill="rgb(0,0,0)" height="5px" opacity="0.0117647058824" width="5px" x="76px" y="72px" /><rect fill="rgb(0,0,0)" height="5px" opacity="0.0156862745098" width="5px" x="40px" y="76px" /><rect fill="rgb(0,0,0)" height="5px" opacity="0.937254901961" width="5px" x="52px" y="76px" /><rect fill="rgb(0,0,0)" height="5px" width="5px" x="56px" y="76px" /><rect fill="rgb(0,0,0)" height="5px" width="5px" x="60px" y="76px" /><rect fill="rgb(0,0,0)" height="5px" opacity="0.996078431373" width="5px" x="64px" y="76px" /><rect fill="rgb(0,0,0)" height="5px" opacity="0.764705882353" width="5px" x="68px" y="76px" /><rect fill="rgb(0,0,0)" height="5px" opacity="0.0235294117647" width="5px" x="76px" y="76px" /><rect fill="rgb(0,0,0)" height="5px" opacity="0.00392156862745" width="5px" x="40px" y="80px" /><rect fill="rgb(0,0,0)" height="5px" opacity="0.980392156863" width="5px" x="52px" y="80px" /><rect fill="rgb(0,0,0)" height="5px" width="5px" x="56px" y="80px" /><rect fill="rgb(0,0,0)" height="5px" width="5px" x="60px" y="80px" /><rect fill="rgb(0,0,0)" height="5px" opacity="0.996078431373" width="5px" x="64px" y="80px" /><rect fill="rgb(0,0,0)" height="5px" opacity="0.603921568627" width="5px" x="68px" y="80px" /><rect fill="rgb(0,0,0)" height="5px" opacity="0.0470588235294" width="5px" x="76px" y="80px" /><rect fill="rgb(0,0,0)" height="5px" opacity="0.00392156862745" width="5px" x="40px" y="84px" /><rect fill="rgb(0,0,0)" height="5px" opacity="0.129411764706" width="5px" x="48px" y="84px" /><rect fill="rgb(0,0,0)" height="5px" width="5px" x="52px" y="84px" /><rect fill="rgb(0,0,0)" height="5px" width="5px" x="56px" y="84px" /><rect fill="rgb(0,0,0)" height="5px" width="5px" x="60px" y="84px" /><rect fill="rgb(0,0,0)" height="5px" opacity="0.996078431373" width="5px" x="64px" y="84px" /><rect fill="rgb(0,0,0)" height="5px" opacity="0.654901960784" width="5px" x="68px" y="84px" /><rect fill="rgb(0,0,0)" height="5px" opacity="0.0156862745098" width="5px" x="76px" y="84px" /><rect fill="rgb(0,0,0)" height="5px" opacity="0.0156862745098" width="5px" x="40px" y="88px" /><rect fill="rgb(0,0,0)" height="5px" opacity="0.396078431373" width="5px" x="48px" y="88px" /><rect fill="rgb(0,0,0)" height="5px" width="5px" x="52px" y="88px" /><rect fill="rgb(0,0,0)" height="5px" width="5px" x="56px" y="88px" /><rect fill="rgb(0,0,0)" height="5px" width="5px" x="60px" y="88px" /><rect fill="rgb(0,0,0)" height="5px" width="5px" x="64px" y="88px" /><rect fill="rgb(0,0,0)" height="5px" opacity="0.741176470588" width="5px" x="68px" y="88px" /><rect fill="rgb(0,0,0)" height="5px" opacity="0.0235294117647" width="5px" x="76px" y="88px" /><rect fill="rgb(0,0,0)" height="5px" opacity="0.0235294117647" width="5px" x="40px" y="92px" /><rect fill="rgb(0,0,0)" height="5px" opacity="0.992156862745" width="5px" x="48px" y="92px" /><rect fill="rgb(0,0,0)" height="5px" width="5px" x="52px" y="92px" /><rect fill="rgb(0,0,0)" height="5px" width="5px" x="56px" y="92px" /><rect fill="rgb(0,0,0)" height="5px" width="5px" x="60px" y="92px" /><rect fill="rgb(0,0,0)" height="5px" width="5px" x="64px" y="92px" /><rect fill="rgb(0,0,0)" height="5px" opacity="0.890196078431" width="5px" x="68px" y="92px" /><rect fill="rgb(0,0,0)" height="5px" opacity="0.0274509803922" width="5px" x="76px" y="92px" /><rect fill="rgb(0,0,0)" height="5px" opacity="0.996078431373" width="5px" x="48px" y="96px" /><rect fill="rgb(0,0,0)" height="5px" width="5px" x="52px" y="96px" /><rect fill="rgb(0,0,0)" height="5px" width="5px" x="56px" y="96px" /><rect fill="rgb(0,0,0)" height="5px" width="5px" x="60px" y="96px" /><rect fill="rgb(0,0,0)" height="5px" width="5px" x="64px" y="96px" /><rect fill="rgb(0,0,0)" height="5px" opacity="0.941176470588" width="5px" x="68px" y="96px" /><rect fill="rgb(0,0,0)" height="5px" opacity="0.462745098039" width="5px" x="72px" y="96px" /><rect fill="rgb(0,0,0)" height="5px" opacity="0.603921568627" width="5px" x="40px" y="100px" /><rect fill="rgb(0,0,0)" height="5px" opacity="0.972549019608" width="5px" x="44px" y="100px" /><rect fill="rgb(0,0,0)" height="5px" opacity="0.996078431373" width="5px" x="48px" y="100px" /><rect fill="rgb(0,0,0)" height="5px" width="5px" x="52px" y="100px" /><rect fill="rgb(0,0,0)" height="5px" width="5px" x="56px" y="100px" /><rect fill="rgb(0,0,0)" height="5px" width="5px" x="60px" y="100px" /><rect fill="rgb(0,0,0)" height="5px" width="5px" x="64px" y="100px" /><rect fill="rgb(0,0,0)" height="5px" opacity="0.996078431373" width="5px" x="68px" y="100px" /><rect fill="rgb(0,0,0)" height="5px" opacity="0.819607843137" width="5px" x="72px" y="100px" /><rect fill="rgb(0,0,0)" height="5px" opacity="0.372549019608" width="5px" x="76px" y="100px" /><rect fill="rgb(0,0,0)" height="5px" opacity="0.372549019608" width="5px" x="36px" y="104px" /><rect fill="rgb(0,0,0)" height="5px" opacity="0.909803921569" width="5px" x="40px" y="104px" /><rect fill="rgb(0,0,0)" height="5px" opacity="0.952941176471" width="5px" x="44px" y="104px" /><rect fill="rgb(0,0,0)" height="5px" width="5px" x="48px" y="104px" /><rect fill="rgb(0,0,0)" height="5px" width="5px" x="52px" y="104px" /><rect fill="rgb(0,0,0)" height="5px" width="5px" x="56px" y="104px" /><rect fill="rgb(0,0,0)" height="5px" width="5px" x="60px" y="104px" /><rect fill="rgb(0,0,0)" height="5px" width="5px" x="64px" y="104px" /><rect fill="rgb(0,0,0)" height="5px" width="5px" x="68px" y="104px" /><rect fill="rgb(0,0,0)" height="5px" opacity="0.976470588235" width="5px" x="72px" y="104px" /><rect fill="rgb(0,0,0)" height="5px" opacity="0.78431372549" width="5px" x="76px" y="104px" /><rect fill="rgb(0,0,0)" height="5px" opacity="0.0156862745098" width="5px" x="84px" y="104px" /><rect fill="rgb(0,0,0)" height="5px" width="5px" x="32px" y="108px" /><rect fill="rgb(0,0,0)" height="5px" width="5px" x="36px" y="108px" /><rect fill="rgb(0,0,0)" height="5px" width="5px" x="40px" y="108px" /><rect fill="rgb(0,0,0)" height="5px" width="5px" x="44px" y="108px" /><rect fill="rgb(0,0,0)" height="5px" width="5px" x="48px" y="108px" /><rect fill="rgb(0,0,0)" height="5px" width="5px" x="52px" y="108px" /><rect fill="rgb(0,0,0)" height="5px" width="5px" x="56px" y="108px" /><rect fill="rgb(0,0,0)" height="5px" width="5px" x="60px" y="108px" /><rect fill="rgb(0,0,0)" height="5px" width="5px" x="64px" y="108px" /><rect fill="rgb(0,0,0)" height="5px" width="5px" x="68px" y="108px" /><rect fill="rgb(0,0,0)" height="5px" width="5px" x="72px" y="108px" /><rect fill="rgb(0,0,0)" height="5px" width="5px" x="76px" y="108px" /><rect fill="rgb(0,0,0)" height="5px" width="5px" x="80px" y="108px" /><rect fill="rgb(0,0,0)" height="5px" width="5px" x="84px" y="108px" /><rect fill="rgb(0,0,0)" height="5px" opacity="0.0470588235294" width="5px" x="88px" y="108px" /><rect fill="rgb(0,0,0)" height="5px" width="5px" x="32px" y="112px" /><rect fill="rgb(0,0,0)" height="5px" width="5px" x="36px" y="112px" /><rect fill="rgb(0,0,0)" height="5px" width="5px" x="40px" y="112px" /><rect fill="rgb(0,0,0)" height="5px" width="5px" x="44px" y="112px" /><rect fill="rgb(0,0,0)" height="5px" width="5px" x="48px" y="112px" /><rect fill="rgb(0,0,0)" height="5px" width="5px" x="52px" y="112px" /><rect fill="rgb(0,0,0)" height="5px" width="5px" x="56px" y="112px" /><rect fill="rgb(0,0,0)" height="5px" width="5px" x="60px" y="112px" /><rect fill="rgb(0,0,0)" height="5px" width="5px" x="64px" y="112px" /><rect fill="rgb(0,0,0)" height="5px" width="5px" x="68px" y="112px" /><rect fill="rgb(0,0,0)" height="5px" width="5px" x="72px" y="112px" /><rect fill="rgb(0,0,0)" height="5px" width="5px" x="76px" y="112px" /><rect fill="rgb(0,0,0)" height="5px" width="5px" x="80px" y="112px" /><rect fill="rgb(0,0,0)" height="5px" width="5px" x="84px" y="112px" /><rect fill="rgb(0,0,0)" height="5px" opacity="0.0862745098039" width="5px" x="88px" y="112px" /></svg>