<?xml version="1.0" encoding="utf-8" ?>
<svg baseProfile="full" height="128px" version="1.1" width="128px" xmlns="http://www.w3.org/2000/svg" xmlns:ev="http://www.w3.org/2001/xml-events" xmlns:xlink="http://www.w3.org/1999/xlink"><defs /><rect fill="rgb(26,239,51)" height="5px" opacity="0.0235294117647" width="5px" x="40px" y="40px" /><rect fill="rgb(26,239,51)" height="5px" opacity="0.0392156862745" width="5px" x="44px" y="40px" /><rect fill="rgb(26,239,51)" height="5px" opacity="0.0156862745098" width="5px" x="48px" y="40px" /><rect fill="rgb(26,239,51)" height="5px" opacity="0.043137254902" width="5px" x="76px" y="40px" /><rect fill="rgb(26,239,51)" height="5px" opacity="0.0156862745098" width="5px" x="104px" y="40px" /><rect fill="rgb(26,239,51)" height="5px" opacity="0.0705882352941" width="5px" x="12px" y="44px" /><rect fill="rgb(26,239,51)" height="5px" opacity="0.172549019608" width="5px" x="16px" y="44px" /><rect fill="rgb(26,239,51)" height="5px" opacity="0.113725490196" width="5px" x="20px" y="44px" /><rect fill="rgb(26,239,51)" height="5px" opacity="0.0823529411765" width="5px" x="24px" y="44px" /><rect fill="rgb(26,239,51)" height="5px" opacity="0.0156862745098" width="5px" x="28px" y="44px" /><rect fill="rgb(26,239,51)" height="5px" opacity="0.0745098039216" width="5px" x="36px" y="44px" /><rect fill="rgb(26,239,51)" height="5px" opacity="0.141176470588" width="5px" x="40px" y="44px" /><rect fill="rgb(26,239,51)" height="5px" opacity="0.164705882353" width="5px" x="44px" y="44px" /><rect fill="rgb(26,239,51)" height="5px" opacity="0.0745098039216" width="5px" x="48px" y="44px" /><rect fill="rgb(26,239,51)" height="5px" opacity="0.0196078431373" width="5px" x="68px" y="44px" /><rect fill="rgb(26,239,51)" height="5px" opacity="0.152941176471" width="5px" x="72px" y="44px" /><rect fill="rgb(26,239,51)" height="5px" opacity="0.113725490196" width="5px" x="76px" y="44px" /><rect fill="rgb(26,239,51)" height="5px" opacity="0.0509803921569" width="5px" x="80px" y="44px" /><rect fill="rgb(26,239,51)" height="5px" opacity="0.105882352941" width="5px" x="92px" y="44px" /><rect fill="rgb(26,239,51)" height="5px" opacity="0.270588235294" width="5px" x="96px" y="44px" /><rect fill="rgb(26,239,51)" height="5px" opacity="0.258823529412" width="5px" x="100px" y="44px" /><rect fill="rgb(26,239,51)" height="5px" opacity="0.247058823529" width="5px" x="104px" y="44px" /><rect fill="rgb(26,239,51)" height="5px" opacity="0.2" width="5px" x="108px" y="44px" /><rect fill="rgb(26,239,51)" height="5px" opacity="0.156862745098" width="5px" x="112px" y="44px" /><rect fill="rgb(26,239,51)" height="5px" opacity="0.0156862745098" width="5px" x="116px" y="44px" /><rect fill="rgb(26,239,51)" height="5px" opacity="0.0823529411765" width="5px" x="4px" y="48px" /><rect fill="rgb(26,239,51)" height="5px" opacity="0.18431372549" width="5px" x="8px" y="48px" /><rect fill="rgb(26,239,51)" height="5px" width="5px" x="12px" y="48px" /><rect fill="rgb(26,239,51)" height="5px" width="5px" x="16px" y="48px" /><rect fill="rgb(26,239,51)" height="5px" width="5px" x="20px" y="48px" /><rect fill="rgb(26,239,51)" height="5px" width="5px" x="24px" y="48px" /><rect fill="rgb(26,239,51)" height="5px" opacity="0.129411764706" width="5px" x="28px" y="48px" /><rect fill="rgb(26,239,51)" height="5px" opacity="0.109803921569" width="5px" x="36px" y="48px" /><rect fill="rgb(26,239,51)" height="5px" width="5px" x="40px" y="48px" /><rect fill="rgb(26,239,51)" height="5px" width="5px" x="44px" y="48px" /><rect fill="rgb(26,239,51)" height="5px" opacity="0.145098039216" width="5px" x="48px" y="48px" /><rect fill="rgb(26,239,51)" height="5px" opacity="0.0156862745098" width="5px" x="52px" y="48px" /><rect fill="rgb(26,239,51)" height="5px" opacity="0.243137254902" width="5px" x="68px" y="48px" /><rect fill="rgb(26,239,51)" height="5px" width="5px" x="72px" y="48px" /><rect fill="rgb(26,239,51)" height="5px" width="5px" x="76px" y="48px" /><rect fill="rgb(26,239,51)" height="5px" opacity="0.223529411765" width="5px" x="80px" y="48px" /><rect fill="rgb(26,239,51)" height="5px" opacity="0.192156862745" width="5px" x="88px" y="48px" /><rect fill="rgb(26,239,51)" height="5px" opacity="0.411764705882" width="5px" x="92px" y="48px" /><rect fill="rgb(26,239,51)" height="5px" width="5px" x="96px" y="48px" /><rect fill="rgb(26,239,51)" height="5px" width="5px" x="100px" y="48px" /><rect fill="rgb(26,239,51)" height="5px" width="5px" x="104px" y="48px" /><rect fill="rgb(26,239,51)" height="5px" width="5px" x="108px" y="48px" /><rect fill="rgb(26,239,51)" height="5px" opacity="0.172549019608" width="5px" x="112px" y="48px" /><rect fill="rgb(26,239,51)" height="5px" opacity="0.133333333333" width="5px" x="116px" y="48px" /><rect fill="rgb(26,239,51)" height="5px" opacity="0.172549019608" width="5px" x="0px" y="52px" /><rect fill="rgb(26,239,51)" height="5px" opacity="0.309803921569" width="5px" x="4px" y="52px" /><rect fill="rgb(26,239,51)" height="5px" width="5px" x="8px" y="52px" /><rect fill="rgb(26,239,51)" height="5px" opacity="0.121568627451" width="5px" x="12px" y="52px" /><rect fill="rgb(26,239,51)" height="5px" opacity="0.235294117647" width="5px" x="16px" y="52px" /><rect fill="rgb(26,239,51)" height="5px" opacity="0.133333333333" width="5px" x="20px" y="52px" /><rect fill="rgb(26,239,51)" height="5px" opacity="0.113725490196" width="5px" x="24px" y="52px" /><rect fill="rgb(26,239,51)" height="5px" width="5px" x="28px" y="52px" /><rect fill="rgb(26,239,51)" height="5px" opacity="0.0156862745098" width="5px" x="32px" y="52px" /><rect fill="rgb(26,239,51)" height="5px" opacity="0.145098039216" width="5px" x="36px" y="52px" /><rect fill="rgb(26,239,51)" height="5px" width="5px" x="40px" y="52px" /><rect fill="rgb(26,239,51)" height="5px" width="5px" x="44px" y="52px" /><rect fill="rgb(26,239,51)" height="5px" opacity="0.207843137255" width="5px" x="48px" y="52px" /><rect fill="rgb(26,239,51)" height="5px" opacity="0.0823529411765" width="5px" x="52px" y="52px" /><rect fill="rgb(26,239,51)" height="5px" opacity="0.345098039216" width="5px" x="68px" y="52px" /><rect fill="rgb(26,239,51)" height="5px" width="5px" x="72px" y="52px" /><rect fill="rgb(26,239,51)" height="5px" width="5px" x="76px" y="52px" /><rect fill="rgb(26,239,51)" height="5px" opacity="0.274509803922" width="5px" x="80px" y="52px" /><rect fill="rgb(26,239,51)" height="5px" opacity="0.0156862745098" width="5px" x="84px" y="52px" /><rect fill="rgb(26,239,51)" height="5px" opacity="0.423529411765" width="5px" x="88px" y="52px" /><rect fill="rgb(26,239,51)" height="5px" width="5px" x="92px" y="52px" /><rect fill="rgb(26,239,51)" height="5px" opacity="0.282352941176" width="5px" x="96px" y="52px" /><rect fill="rgb(26,239,51)" height="5px" opacity="0.160784313725" width="5px" x="100px" y="52px" /><rect fill="rgb(26,239,51)" height="5px" opacity="0.0901960784314" width="5px" x="104px" y="52px" /><rect fill="rgb(26,239,51)" height="5px" opacity="0.152941176471" width="5px" x="108px" y="52px" /><rect fill="rgb(26,239,51)" height="5px" width="5px" x="112px" y="52px" /><rect fill="rgb(26,239,51)" height="5px" opacity="0.137254901961" width="5px" x="116px" y="52px" /><rect fill="rgb(26,239,51)" height="5px" opacity="0.172549019608" width="5px" x="0px" y="56px" /><rect fill="rgb(26,239,51)" height="5px" width="5px" x="4px" y="56px" /><rect fill="rgb(26,239,51)" height="5px" opacity="0.141176470588" width="5px" x="8px" y="56px" /><rect fill="rgb(26,239,51)" height="5px" opacity="0.192156862745" width="5px" x="12px" y="56px" /><rect fill="rgb(26,239,51)" height="5px" opacity="0.043137254902" width="5px" x="16px" y="56px" /><rect fill="rgb(26,239,51)" height="5px" opacity="0.043137254902" width="5px" x="28px" y="56px" /><rect fill="rgb(26,239,51)" height="5px" opacity="0.156862745098" width="5px" x="36px" y="56px" /><rect fill="rgb(26,239,51)" height="5px" width="5px" x="40px" y="56px" /><rect fill="rgb(26,239,51)" height="5px" opacity="0.0549019607843" width="5px" x="44px" y="56px" /><rect fill="rgb(26,239,51)" height="5px" width="5px" x="48px" y="56px" /><rect fill="rgb(26,239,51)" height="5px" opacity="0.192156862745" width="5px" x="52px" y="56px" /><rect fill="rgb(26,239,51)" height="5px" opacity="0.152941176471" width="5px" x="64px" y="56px" /><rect fill="rgb(26,239,51)" height="5px" width="5px" x="68px" y="56px" /><rect fill="rgb(26,239,51)" height="5px" opacity="0.180392156863" width="5px" x="72px" y="56px" /><rect fill="rgb(26,239,51)" height="5px" width="5px" x="76px" y="56px" /><rect fill="rgb(26,239,51)" height="5px" opacity="0.247058823529" width="5px" x="80px" y="56px" /><rect fill="rgb(26,239,51)" height="5px" opacity="0.227450980392" width="5px" x="84px" y="56px" /><rect fill="rgb(26,239,51)" height="5px" width="5px" x="88px" y="56px" /><rect fill="rgb(26,239,51)" height="5px" opacity="0.141176470588" width="5px" x="92px" y="56px" /><rect fill="rgb(26,239,51)" height="5px" opacity="0.113725490196" width="5px" x="108px" y="56px" /><rect fill="rgb(26,239,51)" height="5px" opacity="0.172549019608" width="5px" x="112px" y="56px" /><rect fill="rgb(26,239,51)" height="5px" width="5px" x="116px" y="56px" /><rect fill="rgb(26,239,51)" height="5px" opacity="0.129411764706" width="5px" x="120px" y="56px" /><rect fill="rgb(26,239,51)" height="5px" opacity="0.211764705882" width="5px" x="0px" y="60px" /><rect fill="rgb(26,239,51)" height="5px" width="5px" x="4px" y="60px" /><rect fill="rgb(26,239,51)" height="5px" opacity="0.141176470588" width="5px" x="8px" y="60px" /><rect fill="rgb(26,239,51)" height="5px" opacity="0.0823529411765" width="5px" x="12px" y="60px" /><rect fill="rgb(26,239,51)" height="5px" opacity="0.0509803921569" width="5px" x="16px" y="60px" /><rect fill="rgb(26,239,51)" height="5px" opacity="0.125490196078" width="5px" x="20px" y="60px" /><rect fill="rgb(26,239,51)" height="5px" opacity="0.0901960784314" width="5px" x="24px" y="60px" /><rect fill="rgb(26,239,51)" height="5px" opacity="0.0823529411765" width="5px" x="28px" y="60px" /><rect fill="rgb(26,239,51)" height="5px" opacity="0.176470588235" width="5px" x="36px" y="60px" /><rect fill="rgb(26,239,51)" height="5px" width="5px" x="40px" y="60px" /><rect fill="rgb(26,239,51)" height="5px" opacity="0.149019607843" width="5px" x="44px" y="60px" /><rect fill="rgb(26,239,51)" height="5px" width="5px" x="48px" y="60px" /><rect fill="rgb(26,239,51)" height="5px" opacity="0.274509803922" width="5px" x="52px" y="60px" /><rect fill="rgb(26,239,51)" height="5px" opacity="0.0588235294118" width="5px" x="56px" y="60px" /><rect fill="rgb(26,239,51)" height="5px" opacity="0.282352941176" width="5px" x="64px" y="60px" /><rect fill="rgb(26,239,51)" height="5px" width="5px" x="68px" y="60px" /><rect fill="rgb(26,239,51)" height="5px" opacity="0.239215686275" width="5px" x="72px" y="60px" /><rect fill="rgb(26,239,51)" height="5px" width="5px" x="76px" y="60px" /><rect fill="rgb(26,239,51)" height="5px" opacity="0.270588235294" width="5px" x="80px" y="60px" /><rect fill="rgb(26,239,51)" height="5px" opacity="0.278431372549" width="5px" x="84px" y="60px" /><rect fill="rgb(26,239,51)" height="5px" width="5px" x="88px" y="60px" /><rect fill="rgb(26,239,51)" height="5px" opacity="0.294117647059" width="5px" x="92px" y="60px" /><rect fill="rgb(26,239,51)" height="5px" opacity="0.0196078431373" width="5px" x="96px" y="60px" /><rect fill="rgb(26,239,51)" height="5px" opacity="0.133333333333" width="5px" x="112px" y="60px" /><rect fill="rgb(26,239,51)" height="5px" width="5px" x="116px" y="60px" /><rect fill="rgb(26,239,51)" height="5px" opacity="0.219607843137" width="5px" x="120px" y="60px" /><rect fill="rgb(26,239,51)" height="5px" opacity="0.180392156863" width="5px" x="0px" y="64px" /><rect fill="rgb(26,239,51)" height="5px" width="5px" x="4px" y="64px" /><rect fill="rgb(26,239,51)" height="5px" opacity="0.243137254902" width="5px" x="8px" y="64px" /><rect fill="rgb(26,239,51)" height="5px" opacity="0.0156862745098" width="5px" x="16px" y="64px" /><rect fill="rgb(26,239,51)" height="5px" width="5px" x="20px" y="64px" /><rect fill="rgb(26,239,51)" height="5px" width="5px" x="24px" y="64px" /><rect fill="rgb(26,239,51)" height="5px" width="5px" x="28px" y="64px" /><rect fill="rgb(26,239,51)" height="5px" opacity="0.192156862745" width="5px" x="36px" y="64px" /><rect fill="rgb(26,239,51)" height="5px" width="5px" x="40px" y="64px" /><rect fill="rgb(26,239,51)" height="5px" opacity="0.247058823529" width="5px" x="44px" y="64px" /><rect fill="rgb(26,239,51)" height="5px" opacity="0.21568627451" width="5px" x="48px" y="64px" /><rect fill="rgb(26,239,51)" height="5px" width="5px" x="52px" y="64px" /><rect fill="rgb(26,239,51)" height="5px" opacity="0.262745098039" width="5px" x="56px" y="64px" /><rect fill="rgb(26,239,51)" height="5px" opacity="0.156862745098" width="5px" x="60px" y="64px" /><rect fill="rgb(26,239,51)" height="5px" width="5px" x="64px" y="64px" /><rect fill="rgb(26,239,51)" height="5px" opacity="0.211764705882" width="5px" x="68px" y="64px" /><rect fill="rgb(26,239,51)" height="5px" opacity="0.274509803922" width="5px" x="72px" y="64px" /><rect fill="rgb(26,239,51)" height="5px" width="5px" x="76px" y="64px" /><rect fill="rgb(26,239,51)" height="5px" opacity="0.294117647059" width="5px" x="80px" y="64px" /><rect fill="rgb(26,239,51)" height="5px" opacity="0.388235294118" width="5px" x="84px" y="64px" /><rect fill="rgb(26,239,51)" height="5px" width="5px" x="88px" y="64px" /><rect fill="rgb(26,239,51)" height="5px" opacity="0.219607843137" width="5px" x="92px" y="64px" /><rect fill="rgb(26,239,51)" height="5px" opacity="0.0196078431373" width="5px" x="96px" y="64px" /><rect fill="rgb(26,239,51)" height="5px" opacity="0.0588235294118" width="5px" x="112px" y="64px" /><rect fill="rgb(26,239,51)" height="5px" width="5px" x="116px" y="64px" /><rect fill="rgb(26,239,51)" height="5px" opacity="0.156862745098" width="5px" x="120px" y="64px" /><rect fill="rgb(26,239,51)" height="5px" opacity="0.0156862745098" width="5px" x="124px" y="64px" /><rect fill="rgb(26,239,51)" height="5px" opacity="0.247058823529" width="5px" x="0px" y="68px" /><rect fill="rgb(26,239,51)" height="5px" width="5px" x="4px" y="68px" /><rect fill="rgb(26,239,51)" height="5px" opacity="0.23137254902" width="5px" x="8px" y="68px" /><rect fill="rgb(26,239,51)" height="5px" opacity="0.164705882353" width="5px" x="20px" y="68px" /><rect fill="rgb(26,239,51)" height="5px" opacity="0.0745098039216" width="5px" x="24px" y="68px" /><rect fill="rgb(26,239,51)" height="5px" width="5px" x="28px" y="68px" /><rect fill="rgb(26,239,51)" height="5px" opacity="0.0352941176471" width="5px" x="32px" y="68px" /><rect fill="rgb(26,239,51)" height="5px" opacity="0.152941176471" width="5px" x="36px" y="68px" /><rect fill="rgb(26,239,51)" height="5px" width="5px" x="40px" y="68px" /><rect fill="rgb(26,239,51)" height="5px" opacity="0.254901960784" width="5px" x="44px" y="68px" /><rect fill="rgb(26,239,51)" height="5px" opacity="0.152941176471" width="5px" x="48px" y="68px" /><rect fill="rgb(26,239,51)" height="5px" width="5px" x="52px" y="68px" /><rect fill="rgb(26,239,51)" height="5px" opacity="0.2" width="5px" x="56px" y="68px" /><rect fill="rgb(26,239,51)" height="5px" opacity="0.282352941176" width="5px" x="60px" y="68px" /><rect fill="rgb(26,239,51)" height="5px" width="5px" x="64px" y="68px" /><rect fill="rgb(26,239,51)" height="5px" opacity="0.341176470588" width="5px" x="68px" y="68px" /><rect fill="rgb(26,239,51)" height="5px" opacity="0.239215686275" width="5px" x="72px" y="68px" /><rect fill="rgb(26,239,51)" height="5px" width="5px" x="76px" y="68px" /><rect fill="rgb(26,239,51)" height="5px" opacity="0.282352941176" width="5px" x="80px" y="68px" /><rect fill="rgb(26,239,51)" height="5px" opacity="0.380392156863" width="5px" x="84px" y="68px" /><rect fill="rgb(26,239,51)" height="5px" width="5px" x="88px" y="68px" /><rect fill="rgb(26,239,51)" height="5px" opacity="0.380392156863" width="5px" x="92px" y="68px" /><rect fill="rgb(26,239,51)" height="5px" opacity="0.0235294117647" width="5px" x="96px" y="68px" /><rect fill="rgb(26,239,51)" height="5px" opacity="0.18431372549" width="5px" x="112px" y="68px" /><rect fill="rgb(26,239,51)" height="5px" width="5px" x="116px" y="68px" /><rect fill="rgb(26,239,51)" height="5px" opacity="0.145098039216" width="5px" x="120px" y="68px" /><rect fill="rgb(26,239,51)" height="5px" opacity="0.278431372549" width="5px" x="0px" y="72px" /><rect fill="rgb(26,239,51)" height="5px" width="5px" x="4px" y="72px" /><rect fill="rgb(26,239,51)" height="5px" opacity="0.164705882353" width="5px" x="8px" y="72px" /><rect fill="rgb(26,239,51)" height="5px" opacity="0.0941176470588" width="5px" x="12px" y="72px" /><rect fill="rgb(26,239,51)" height="5px" opacity="0.0941176470588" width="5px" x="16px" y="72px" /><rect fill="rgb(26,239,51)" height="5px" opacity="0.0313725490196" width="5px" x="20px" y="72px" /><rect fill="rgb(26,239,51)" height="5px" opacity="0.172549019608" width="5px" x="24px" y="72px" /><rect fill="rgb(26,239,51)" height="5px" width="5px" x="28px" y="72px" /><rect fill="rgb(26,239,51)" height="5px" opacity="0.0745098039216" width="5px" x="32px" y="72px" /><rect fill="rgb(26,239,51)" height="5px" opacity="0.145098039216" width="5px" x="36px" y="72px" /><rect fill="rgb(26,239,51)" height="5px" width="5px" x="40px" y="72px" /><rect fill="rgb(26,239,51)" height="5px" opacity="0.345098039216" width="5px" x="44px" y="72px" /><rect fill="rgb(26,239,51)" height="5px" width="5px" x="52px" y="72px" /><rect fill="rgb(26,239,51)" height="5px" opacity="0.309803921569" width="5px" x="56px" y="72px" /><rect fill="rgb(26,239,51)" height="5px" opacity="0.223529411765" width="5px" x="60px" y="72px" /><rect fill="rgb(26,239,51)" height="5px" width="5px" x="64px" y="72px" /><rect fill="rgb(26,239,51)" height="5px" opacity="0.301960784314" width="5px" x="68px" y="72px" /><rect fill="rgb(26,239,51)" height="5px" opacity="0.16862745098" width="5px" x="72px" y="72px" /><rect fill="rgb(26,239,51)" height="5px" width="5px" x="76px" y="72px" /><rect fill="rgb(26,239,51)" height="5px" opacity="0.274509803922" width="5px" x="80px" y="72px" /><rect fill="rgb(26,239,51)" height="5px" opacity="0.290196078431" width="5px" x="84px" y="72px" /><rect fill="rgb(26,239,51)" height="5px" width="5px" x="88px" y="72px" /><rect fill="rgb(26,239,51)" height="5px" opacity="0.423529411765" width="5px" x="92px" y="72px" /><rect fill="rgb(26,239,51)" height="5px" opacity="0.16862745098" width="5px" x="96px" y="72px" /><rect fill="rgb(26,239,51)" height="5px" opacity="0.0235294117647" width="5px" x="100px" y="72px" /><rect fill="rgb(26,239,51)" height="5px" opacity="0.0235294117647" width="5px" x="104px" y="72px" /><rect fill="rgb(26,239,51)" height="5px" opacity="0.286274509804" width="5px" x="108px" y="72px" /><rect fill="rgb(26,239,51)" height="5px" opacity="0.23137254902" width="5px" x="112px" y="72px" /><rect fill="rgb(26,239,51)" height="5px" width="5px" x="116px" y="72px" /><rect fill="rgb(26,239,51)" height="5px" opacity="0.196078431373" width="5px" x="120px" y="72px" /><rect fill="rgb(26,239,51)" height="5px" opacity="0.172549019608" width="5px" x="0px" y="76px" /><rect fill="rgb(26,239,51)" height="5px" opacity="0.0901960784314" width="5px" x="4px" y="76px" /><rect fill="rgb(26,239,51)" height="5px" width="5px" x="8px" y="76px" /><rect fill="rgb(26,239,51)" height="5px" opacity="0.223529411765" width="5px" x="12px" y="76px" /><rect fill="rgb(26,239,51)" height="5px" opacity="0.305882352941" width="5px" x="16px" y="76px" /><rect fill="rgb(26,239,51)" height="5px" opacity="0.227450980392" width="5px" x="20px" y="76px" /><rect fill="rgb(26,239,51)" height="5px" opacity="0.239215686275" width="5px" x="24px" y="76px" /><rect fill="rgb(26,239,51)" height="5px" width="5px" x="28px" y="76px" /><rect fill="rgb(26,239,51)" height="5px" opacity="0.0588235294118" width="5px" x="32px" y="76px" /><rect fill="rgb(26,239,51)" height="5px" opacity="0.16862745098" width="5px" x="36px" y="76px" /><rect fill="rgb(26,239,51)" height="5px" width="5px" x="40px" y="76px" /><rect fill="rgb(26,239,51)" height="5px" opacity="0.301960784314" width="5px" x="44px" y="76px" /><rect fill="rgb(26,239,51)" height="5px" opacity="0.192156862745" width="5px" x="52px" y="76px" /><rect fill="rgb(26,239,51)" height="5px" width="5px" x="56px" y="76px" /><rect fill="rgb(26,239,51)" height="5px" width="5px" x="60px" y="76px" /><rect fill="rgb(26,239,51)" height="5px" opacity="0.450980392157" width="5px" x="64px" y="76px" /><rect fill="rgb(26,239,51)" height="5px" opacity="0.227450980392" width="5px" x="68px" y="76px" /><rect fill="rgb(26,239,51)" height="5px" opacity="0.180392156863" width="5px" x="72px" y="76px" /><rect fill="rgb(26,239,51)" height="5px" width="5px" x="76px" y="76px" /><rect fill="rgb(26,239,51)" height="5px" opacity="0.345098039216" width="5px" x="80px" y="76px" /><rect fill="rgb(26,239,51)" height="5px" opacity="0.0980392156863" width="5px" x="84px" y="76px" /><rect fill="rgb(26,239,51)" height="5px" opacity="0.211764705882" width="5px" x="88px" y="76px" /><rect fill="rgb(26,239,51)" height="5px" width="5px" x="92px" y="76px" /><rect fill="rgb(26,239,51)" height="5px" opacity="0.188235294118" width="5px" x="96px" y="76px" /><rect fill="rgb(26,239,51)" height="5px" opacity="0.219607843137" width="5px" x="100px" y="76px" /><rect fill="rgb(26,239,51)" height="5px" opacity="0.301960784314" width="5px" x="104px" y="76px" /><rect fill="rgb(26,239,51)" height="5px" opacity="0.376470588235" width="5px" x="108px" y="76px" /><rect fill="rgb(26,239,51)" height="5px" width="5px" x="112px" y="76px" /><rect fill="rgb(26,239,51)" height="5px" opacity="0.403921568627" width="5px" x="116px" y="76px" /><rect fill="rgb(26,239,51)" height="5px" opacity="0.0666666666667" width="5px" x="120px" y="76px" /><rect fill="rgb(26,239,51)" height="5px" opacity="0.0156862745098" width="5px" x="4px" y="80px" /><rect fill="rgb(26,239,51)" height="5px" opacity="0.160784313725" width="5px" x="8px" y="80px" /><rect fill="rgb(26,239,51)" height="5px" width="5px" x="12px" y="80px" /><rect fill="rgb(26,239,51)" height="5px" width="5px" x="16px" y="80px" /><rect fill="rgb(26,239,51)" height="5px" width="5px" x="20px" y="80px" /><rect fill="rgb(26,239,51)" height="5px" width="5px" x="24px" y="80px" /><rect fill="rgb(26,239,51)" height="5px" opacity="0.2" width="5px" x="28px" y="80px" /><rect fill="rgb(26,239,51)" height="5px" opacity="0.117647058824" width="5px" x="36px" y="80px" /><rect fill="rgb(26,239,51)" height="5px" width="5px" x="40px" y="80px" /><rect fill="rgb(26,239,51)" height="5px" opacity="0.164705882353" width="5px" x="44px" y="80px" /><rect fill="rgb(26,239,51)" height="5px" opacity="0.0705882352941" width="5px" x="52px" y="80px" /><rect fill="rgb(26,239,51)" height="5px" width="5px" x="56px" y="80px" /><rect fill="rgb(26,239,51)" height="5px" width="5px" x="60px" y="80px" /><rect fill="rgb(26,239,51)" height="5px" opacity="0.407843137255" width="5px" x="64px" y="80px" /><rect fill="rgb(26,239,51)" height="5px" opacity="0.0313725490196" width="5px" x="68px" y="80px" /><rect fill="rgb(26,239,51)" height="5px" opacity="0.16862745098" width="5px" x="72px" y="80px" /><rect fill="rgb(26,239,51)" height="5px" width="5px" x="76px" y="80px" /><rect fill="rgb(26,239,51)" height="5px" opacity="0.290196078431" width="5px" x="80px" y="80px" /><rect fill="rgb(26,239,51)" height="5px" opacity="0.078431372549" width="5px" x="88px" y="80px" /><rect fill="rgb(26,239,51)" height="5px" opacity="0.258823529412" width="5px" x="92px" y="80px" /><rect fill="rgb(26,239,51)" height="5px" width="5px" x="96px" y="80px" /><rect fill="rgb(26,239,51)" height="5px" width="5px" x="100px" y="80px" /><rect fill="rgb(26,239,51)" height="5px" width="5px" x="104px" y="80px" /><rect fill="rgb(26,239,51)" height="5px" width="5px" x="108px" y="80px" /><rect fill="rgb(26,239,51)" height="5px" opacity="0.294117647059" width="5px" x="112px" y="80px" /><rect fill="rgb(26,239,51)" height="5px" opacity="0.121568627451" width="5px" x="116px" y="80px" /><rect fill="rgb(26,239,51)" height="5px" opacity="0.043137254902" width="5px" x="120px" y="80px" /><rect fill="rgb(26,239,51)" height="5px" opacity="0.043137254902" width="5px" x="12px" y="84px" /><rect fill="rgb(26,239,51)" height="5px" opacity="0.156862745098" width="5px" x="16px" y="84px" /><rect fill="rgb(26,239,51)" height="5px" opacity="0.203921568627" width="5px" x="20px" y="84px" /><rect fill="rgb(26,239,51)" height="5px" opacity="0.0941176470588" width="5px" x="24px" y="84px" /><rect fill="rgb(26,239,51)" height="5px" opacity="0.043137254902" width="5px" x="28px" y="84px" /><rect fill="rgb(26,239,51)" height="5px" opacity="0.0196078431373" width="5px" x="36px" y="84px" /><rect fill="rgb(26,239,51)" height="5px" opacity="0.192156862745" width="5px" x="40px" y="84px" /><rect fill="rgb(26,239,51)" height="5px" opacity="0.0196078431373" width="5px" x="44px" y="84px" /><rect fill="rgb(26,239,51)" height="5px" opacity="0.0156862745098" width="5px" x="52px" y="84px" /><rect fill="rgb(26,239,51)" height="5px" opacity="0.121568627451" width="5px" x="56px" y="84px" /><rect fill="rgb(26,239,51)" height="5px" opacity="0.243137254902" width="5px" x="60px" y="84px" /><rect fill="rgb(26,239,51)" height="5px" opacity="0.141176470588" width="5px" x="64px" y="84px" /><rect fill="rgb(26,239,51)" height="5px" opacity="0.0549019607843" width="5px" x="72px" y="84px" /><rect fill="rgb(26,239,51)" height="5px" opacity="0.192156862745" width="5px" x="76px" y="84px" /><rect fill="rgb(26,239,51)" height="5px" opacity="0.0823529411765" width="5px" x="80px" y="84px" /><rect fill="rgb(26,239,51)" height="5px" opacity="0.121568627451" width="5px" x="92px" y="84px" /><rect fill="rgb(26,239,51)" height="5px" opacity="0.219607843137" width="5px" x="96px" y="84px" /><rect fill="rgb(26,239,51)" height="5px" opacity="0.16862745098" width="5px" x="100px" y="84px" /><rect fill="rgb(26,239,51)" height="5px" opacity="0.278431372549" width="5px" x="104px" y="84px" /><rect fill="rgb(26,239,51)" height="5px" opacity="0.223529411765" width="5px" x="108px" y="84px" /><rect fill="rgb(26,239,51)" height="5px" opacity="0.0862745098039" width="5px" x="112px" y="84px" /><rect fill="rgb(26,239,51)" height="5px" opacity="0.043137254902" width="5px" x="116px" y="84px" /></svg>