<?xml version="1.0" encoding="utf-8" ?>
<svg baseProfile="full" height="128px" version="1.1" width="128px" xmlns="http://www.w3.org/2000/svg" xmlns:ev="http://www.w3.org/2001/xml-events" xmlns:xlink="http://www.w3.org/1999/xlink"><defs /><rect fill="rgb(55,55,55)" height="5px" opacity="0.113725490196" width="5px" x="28px" y="12px" /><rect fill="rgb(55,55,55)" height="5px" opacity="0.282352941176" width="5px" x="32px" y="12px" /><rect fill="rgb(55,55,55)" height="5px" opacity="0.043137254902" width="5px" x="36px" y="12px" /><rect fill="rgb(55,55,55)" height="5px" opacity="0.00392156862745" width="5px" x="52px" y="12px" /><rect fill="rgb(0,0,0)" height="5px" opacity="0.0470588235294" width="5px" x="64px" y="12px" /><rect fill="rgb(55,55,55)" height="5px" opacity="0.00392156862745" width="5px" x="76px" y="12px" /><rect fill="rgb(55,55,55)" height="5px" opacity="0.447058823529" width="5px" x="80px" y="12px" /><rect fill="rgb(55,55,55)" height="5px" opacity="0.243137254902" width="5px" x="84px" y="12px" /><rect fill="rgb(55,55,55)" height="5px" opacity="0.466666666667" width="5px" x="28px" y="16px" /><rect fill="rgb(55,55,55)" height="5px" width="5px" x="32px" y="16px" /><rect fill="rgb(55,55,55)" height="5px" opacity="0.078431372549" width="5px" x="36px" y="16px" /><rect fill="rgb(55,55,55)" height="5px" opacity="0.0196078431373" width="5px" x="48px" y="16px" /><rect fill="rgb(55,55,55)" height="5px" opacity="0.839215686275" width="5px" x="52px" y="16px" /><rect fill="rgb(55,55,55)" height="5px" opacity="0.0666666666667" width="5px" x="56px" y="16px" /><rect fill="rgb(0,0,0)" height="5px" opacity="0.0470588235294" width="5px" x="60px" y="16px" /><rect fill="rgb(0,0,0)" height="5px" opacity="0.690196078431" width="5px" x="64px" y="16px" /><rect fill="rgb(0,0,0)" height="5px" opacity="0.0470588235294" width="5px" x="68px" y="16px" /><rect fill="rgb(55,55,55)" height="5px" opacity="0.41568627451" width="5px" x="76px" y="16px" /><rect fill="rgb(55,55,55)" height="5px" opacity="0.956862745098" width="5px" x="80px" y="16px" /><rect fill="rgb(55,55,55)" height="5px" opacity="0.141176470588" width="5px" x="84px" y="16px" /><rect fill="rgb(55,55,55)" height="5px" opacity="0.650980392157" width="5px" x="28px" y="20px" /><rect fill="rgb(55,55,55)" height="5px" opacity="0.874509803922" width="5px" x="32px" y="20px" /><rect fill="rgb(55,55,55)" height="5px" opacity="0.341176470588" width="5px" x="48px" y="20px" /><rect fill="rgb(55,55,55)" height="5px" opacity="0.713725490196" width="5px" x="52px" y="20px" /><rect fill="rgb(0,0,0)" height="5px" opacity="0.16862745098" width="5px" x="60px" y="20px" /><rect fill="rgb(0,0,0)" height="5px" width="5px" x="64px" y="20px" /><rect fill="rgb(0,0,0)" height="5px" opacity="0.16862745098" width="5px" x="68px" y="20px" /><rect fill="rgb(55,55,55)" height="5px" opacity="0.117647058824" width="5px" x="72px" y="20px" /><rect fill="rgb(55,55,55)" height="5px" opacity="0.949019607843" width="5px" x="76px" y="20px" /><rect fill="rgb(55,55,55)" height="5px" opacity="0.403921568627" width="5px" x="80px" y="20px" /><rect fill="rgb(55,55,55)" height="5px" opacity="0.145098039216" width="5px" x="104px" y="20px" /><rect fill="rgb(55,55,55)" height="5px" opacity="0.839215686275" width="5px" x="28px" y="24px" /><rect fill="rgb(55,55,55)" height="5px" opacity="0.674509803922" width="5px" x="32px" y="24px" /><rect fill="rgb(0,0,0)" height="5px" opacity="0.0196078431373" width="5px" x="36px" y="24px" /><rect fill="rgb(0,0,0)" height="5px" opacity="0.133333333333" width="5px" x="40px" y="24px" /><rect fill="rgb(0,0,0)" height="5px" opacity="0.0313725490196" width="5px" x="44px" y="24px" /><rect fill="rgb(55,55,55)" height="5px" opacity="0.756862745098" width="5px" x="48px" y="24px" /><rect fill="rgb(55,55,55)" height="5px" opacity="0.305882352941" width="5px" x="52px" y="24px" /><rect fill="rgb(0,0,0)" height="5px" opacity="0.16862745098" width="5px" x="64px" y="24px" /><rect fill="rgb(55,55,55)" height="5px" opacity="0.717647058824" width="5px" x="72px" y="24px" /><rect fill="rgb(55,55,55)" height="5px" opacity="0.733333333333" width="5px" x="76px" y="24px" /><rect fill="rgb(55,55,55)" height="5px" opacity="0.00392156862745" width="5px" x="80px" y="24px" /><rect fill="rgb(55,55,55)" height="5px" opacity="0.458823529412" width="5px" x="100px" y="24px" /><rect fill="rgb(55,55,55)" height="5px" width="5px" x="104px" y="24px" /><rect fill="rgb(55,55,55)" height="5px" opacity="0.38431372549" width="5px" x="108px" y="24px" /><rect fill="rgb(55,55,55)" height="5px" opacity="0.0352941176471" width="5px" x="24px" y="28px" /><rect fill="rgb(55,55,55)" height="5px" opacity="0.988235294118" width="5px" x="28px" y="28px" /><rect fill="rgb(54,54,54)" height="5px" opacity="0.486274509804" width="5px" x="32px" y="28px" /><rect fill="rgb(0,0,0)" height="5px" opacity="0.447058823529" width="5px" x="36px" y="28px" /><rect fill="rgb(0,0,0)" height="5px" opacity="0.980392156863" width="5px" x="40px" y="28px" /><rect fill="rgb(15,15,15)" height="5px" opacity="0.603921568627" width="5px" x="44px" y="28px" /><rect fill="rgb(55,55,55)" height="5px" opacity="0.886274509804" width="5px" x="48px" y="28px" /><rect fill="rgb(55,55,55)" height="5px" opacity="0.0117647058824" width="5px" x="52px" y="28px" /><rect fill="rgb(55,55,55)" height="5px" opacity="0.380392156863" width="5px" x="68px" y="28px" /><rect fill="rgb(55,55,55)" height="5px" opacity="0.941176470588" width="5px" x="72px" y="28px" /><rect fill="rgb(55,55,55)" height="5px" opacity="0.113725490196" width="5px" x="76px" y="28px" /><rect fill="rgb(55,55,55)" height="5px" opacity="0.380392156863" width="5px" x="96px" y="28px" /><rect fill="rgb(55,55,55)" height="5px" opacity="0.996078431373" width="5px" x="100px" y="28px" /><rect fill="rgb(55,55,55)" height="5px" opacity="0.545098039216" width="5px" x="104px" y="28px" /><rect fill="rgb(55,55,55)" height="5px" opacity="0.00392156862745" width="5px" x="108px" y="28px" /><rect fill="rgb(0,0,0)" height="5px" opacity="0.109803921569" width="5px" x="16px" y="32px" /><rect fill="rgb(55,55,55)" height="5px" opacity="0.211764705882" width="5px" x="24px" y="32px" /><rect fill="rgb(55,55,55)" height="5px" width="5px" x="28px" y="32px" /><rect fill="rgb(53,53,53)" height="5px" opacity="0.290196078431" width="5px" x="32px" y="32px" /><rect fill="rgb(0,0,0)" height="5px" opacity="0.447058823529" width="5px" x="36px" y="32px" /><rect fill="rgb(0,0,0)" height="5px" opacity="0.980392156863" width="5px" x="40px" y="32px" /><rect fill="rgb(30,30,30)" height="5px" opacity="0.803921568627" width="5px" x="44px" y="32px" /><rect fill="rgb(55,55,55)" height="5px" opacity="0.509803921569" width="5px" x="48px" y="32px" /><rect fill="rgb(55,55,55)" height="5px" opacity="0.0980392156863" width="5px" x="64px" y="32px" /><rect fill="rgb(55,55,55)" height="5px" opacity="0.933333333333" width="5px" x="68px" y="32px" /><rect fill="rgb(55,55,55)" height="5px" opacity="0.360784313725" width="5px" x="72px" y="32px" /><rect fill="rgb(55,55,55)" height="5px" opacity="0.360784313725" width="5px" x="92px" y="32px" /><rect fill="rgb(55,55,55)" height="5px" opacity="0.992156862745" width="5px" x="96px" y="32px" /><rect fill="rgb(55,55,55)" height="5px" opacity="0.533333333333" width="5px" x="100px" y="32px" /><rect fill="rgb(0,0,0)" height="5px" opacity="0.109803921569" width="5px" x="12px" y="36px" /><rect fill="rgb(0,0,0)" height="5px" opacity="0.976470588235" width="5px" x="16px" y="36px" /><rect fill="rgb(0,0,0)" height="5px" opacity="0.109803921569" width="5px" x="20px" y="36px" /><rect fill="rgb(55,55,55)" height="5px" opacity="0.4" width="5px" x="24px" y="36px" /><rect fill="rgb(55,55,55)" height="5px" width="5px" x="28px" y="36px" /><rect fill="rgb(55,55,55)" height="5px" opacity="0.0823529411765" width="5px" x="32px" y="36px" /><rect fill="rgb(0,0,0)" height="5px" opacity="0.0196078431373" width="5px" x="36px" y="36px" /><rect fill="rgb(25,25,25)" height="5px" opacity="0.176470588235" width="5px" x="40px" y="36px" /><rect fill="rgb(55,55,55)" height="5px" opacity="0.929411764706" width="5px" x="44px" y="36px" /><rect fill="rgb(55,55,55)" height="5px" opacity="0.105882352941" width="5px" x="48px" y="36px" /><rect fill="rgb(55,55,55)" height="5px" opacity="0.682352941176" width="5px" x="64px" y="36px" /><rect fill="rgb(55,55,55)" height="5px" opacity="0.690196078431" width="5px" x="68px" y="36px" /><rect fill="rgb(0,0,0)" height="5px" opacity="0.0235294117647" width="5px" x="72px" y="36px" /><rect fill="rgb(0,0,0)" height="5px" opacity="0.0862745098039" width="5px" x="76px" y="36px" /><rect fill="rgb(55,55,55)" height="5px" opacity="0.309803921569" width="5px" x="88px" y="36px" /><rect fill="rgb(55,55,55)" height="5px" opacity="0.98431372549" width="5px" x="92px" y="36px" /><rect fill="rgb(55,55,55)" height="5px" opacity="0.498039215686" width="5px" x="96px" y="36px" /><rect fill="rgb(0,0,0)" height="5px" opacity="0.109803921569" width="5px" x="12px" y="40px" /><rect fill="rgb(0,0,0)" height="5px" opacity="0.976470588235" width="5px" x="16px" y="40px" /><rect fill="rgb(0,0,0)" height="5px" opacity="0.109803921569" width="5px" x="20px" y="40px" /><rect fill="rgb(55,55,55)" height="5px" opacity="0.58431372549" width="5px" x="24px" y="40px" /><rect fill="rgb(55,55,55)" height="5px" opacity="0.882352941176" width="5px" x="28px" y="40px" /><rect fill="rgb(55,55,55)" height="5px" opacity="0.423529411765" width="5px" x="40px" y="40px" /><rect fill="rgb(55,55,55)" height="5px" opacity="0.678431372549" width="5px" x="44px" y="40px" /><rect fill="rgb(55,55,55)" height="5px" opacity="0.345098039216" width="5px" x="60px" y="40px" /><rect fill="rgb(55,55,55)" height="5px" opacity="0.921568627451" width="5px" x="64px" y="40px" /><rect fill="rgb(49,49,49)" height="5px" opacity="0.113725490196" width="5px" x="68px" y="40px" /><rect fill="rgb(0,0,0)" height="5px" opacity="0.427450980392" width="5px" x="72px" y="40px" /><rect fill="rgb(0,0,0)" height="5px" opacity="0.921568627451" width="5px" x="76px" y="40px" /><rect fill="rgb(0,0,0)" height="5px" opacity="0.0862745098039" width="5px" x="80px" y="40px" /><rect fill="rgb(55,55,55)" height="5px" opacity="0.266666666667" width="5px" x="84px" y="40px" /><rect fill="rgb(55,55,55)" height="5px" opacity="0.96862745098" width="5px" x="88px" y="40px" /><rect fill="rgb(55,55,55)" height="5px" opacity="0.447058823529" width="5px" x="92px" y="40px" /><rect fill="rgb(0,0,0)" height="5px" opacity="0.109803921569" width="5px" x="16px" y="44px" /><rect fill="rgb(55,55,55)" height="5px" opacity="0.76862745098" width="5px" x="24px" y="44px" /><rect fill="rgb(55,55,55)" height="5px" opacity="0.686274509804" width="5px" x="28px" y="44px" /><rect fill="rgb(55,55,55)" height="5px" opacity="0.827450980392" width="5px" x="40px" y="44px" /><rect fill="rgb(55,55,55)" height="5px" opacity="0.270588235294" width="5px" x="44px" y="44px" /><rect fill="rgb(55,55,55)" height="5px" opacity="0.078431372549" width="5px" x="56px" y="44px" /><rect fill="rgb(55,55,55)" height="5px" opacity="0.913725490196" width="5px" x="60px" y="44px" /><rect fill="rgb(55,55,55)" height="5px" opacity="0.329411764706" width="5px" x="64px" y="44px" /><rect fill="rgb(0,0,0)" height="5px" opacity="0.0235294117647" width="5px" x="68px" y="44px" /><rect fill="rgb(0,0,0)" height="5px" opacity="0.427450980392" width="5px" x="72px" y="44px" /><rect fill="rgb(0,0,0)" height="5px" opacity="0.921568627451" width="5px" x="76px" y="44px" /><rect fill="rgb(45,45,45)" height="5px" opacity="0.294117647059" width="5px" x="80px" y="44px" /><rect fill="rgb(55,55,55)" height="5px" opacity="0.949019607843" width="5px" x="84px" y="44px" /><rect fill="rgb(55,55,55)" height="5px" opacity="0.435294117647" width="5px" x="88px" y="44px" /><rect fill="rgb(55,55,55)" height="5px" opacity="0.0156862745098" width="5px" x="116px" y="44px" /><rect fill="rgb(55,55,55)" height="5px" opacity="0.00392156862745" width="5px" x="20px" y="48px" /><rect fill="rgb(55,55,55)" height="5px" opacity="0.945098039216" width="5px" x="24px" y="48px" /><rect fill="rgb(55,55,55)" height="5px" opacity="0.486274509804" width="5px" x="28px" y="48px" /><rect fill="rgb(55,55,55)" height="5px" opacity="0.254901960784" width="5px" x="36px" y="48px" /><rect fill="rgb(55,55,55)" height="5px" opacity="0.862745098039" width="5px" x="40px" y="48px" /><rect fill="rgb(55,55,55)" height="5px" opacity="0.0078431372549" width="5px" x="44px" y="48px" /><rect fill="rgb(55,55,55)" height="5px" opacity="0.654901960784" width="5px" x="56px" y="48px" /><rect fill="rgb(55,55,55)" height="5px" opacity="0.635294117647" width="5px" x="60px" y="48px" /><rect fill="rgb(0,0,0)" height="5px" opacity="0.0235294117647" width="5px" x="72px" y="48px" /><rect fill="rgb(44,44,44)" height="5px" opacity="0.254901960784" width="5px" x="76px" y="48px" /><rect fill="rgb(55,55,55)" height="5px" opacity="0.929411764706" width="5px" x="80px" y="48px" /><rect fill="rgb(55,55,55)" height="5px" opacity="0.41568627451" width="5px" x="84px" y="48px" /><rect fill="rgb(55,55,55)" height="5px" opacity="0.301960784314" width="5px" x="112px" y="48px" /><rect fill="rgb(55,55,55)" height="5px" opacity="0.854901960784" width="5px" x="116px" y="48px" /><rect fill="rgb(55,55,55)" height="5px" opacity="0.0901960784314" width="5px" x="120px" y="48px" /><rect fill="rgb(55,55,55)" height="5px" opacity="0.0823529411765" width="5px" x="20px" y="52px" /><rect fill="rgb(55,55,55)" height="5px" opacity="0.780392156863" width="5px" x="24px" y="52px" /><rect fill="rgb(55,55,55)" height="5px" opacity="0.266666666667" width="5px" x="28px" y="52px" /><rect fill="rgb(55,55,55)" height="5px" opacity="0.670588235294" width="5px" x="36px" y="52px" /><rect fill="rgb(55,55,55)" height="5px" opacity="0.458823529412" width="5px" x="40px" y="52px" /><rect fill="rgb(55,55,55)" height="5px" opacity="0.298039215686" width="5px" x="52px" y="52px" /><rect fill="rgb(55,55,55)" height="5px" opacity="0.898039215686" width="5px" x="56px" y="52px" /><rect fill="rgb(55,55,55)" height="5px" opacity="0.0705882352941" width="5px" x="60px" y="52px" /><rect fill="rgb(55,55,55)" height="5px" opacity="0.149019607843" width="5px" x="72px" y="52px" /><rect fill="rgb(55,55,55)" height="5px" opacity="0.898039215686" width="5px" x="76px" y="52px" /><rect fill="rgb(55,55,55)" height="5px" opacity="0.372549019608" width="5px" x="80px" y="52px" /><rect fill="rgb(55,55,55)" height="5px" opacity="0.223529411765" width="5px" x="104px" y="52px" /><rect fill="rgb(55,55,55)" height="5px" opacity="0.772549019608" width="5px" x="108px" y="52px" /><rect fill="rgb(55,55,55)" height="5px" opacity="0.976470588235" width="5px" x="112px" y="52px" /><rect fill="rgb(55,55,55)" height="5px" opacity="0.545098039216" width="5px" x="116px" y="52px" /><rect fill="rgb(55,55,55)" height="5px" opacity="0.0392156862745" width="5px" x="120px" y="52px" /><rect fill="rgb(55,55,55)" height="5px" opacity="0.392156862745" width="5px" x="36px" y="56px" /><rect fill="rgb(55,55,55)" height="5px" opacity="0.078431372549" width="5px" x="40px" y="56px" /><rect fill="rgb(55,55,55)" height="5px" opacity="0.0588235294118" width="5px" x="48px" y="56px" /><rect fill="rgb(55,55,55)" height="5px" opacity="0.890196078431" width="5px" x="52px" y="56px" /><rect fill="rgb(55,55,55)" height="5px" opacity="0.286274509804" width="5px" x="56px" y="56px" /><rect fill="rgb(55,55,55)" height="5px" opacity="0.137254901961" width="5px" x="68px" y="56px" /><rect fill="rgb(55,55,55)" height="5px" opacity="0.886274509804" width="5px" x="72px" y="56px" /><rect fill="rgb(55,55,55)" height="5px" opacity="0.360784313725" width="5px" x="76px" y="56px" /><rect fill="rgb(55,55,55)" height="5px" opacity="0.117647058824" width="5px" x="96px" y="56px" /><rect fill="rgb(55,55,55)" height="5px" opacity="0.635294117647" width="5px" x="100px" y="56px" /><rect fill="rgb(55,55,55)" height="5px" opacity="0.996078431373" width="5px" x="104px" y="56px" /><rect fill="rgb(55,55,55)" height="5px" opacity="0.733333333333" width="5px" x="108px" y="56px" /><rect fill="rgb(55,55,55)" height="5px" opacity="0.164705882353" width="5px" x="112px" y="56px" /><rect fill="rgb(0,0,0)" height="5px" opacity="0.266666666667" width="5px" x="44px" y="60px" /><rect fill="rgb(55,55,55)" height="5px" opacity="0.0627450980392" width="5px" x="48px" y="60px" /><rect fill="rgb(55,55,55)" height="5px" opacity="0.364705882353" width="5px" x="52px" y="60px" /><rect fill="rgb(55,55,55)" height="5px" opacity="0.105882352941" width="5px" x="64px" y="60px" /><rect fill="rgb(55,55,55)" height="5px" opacity="0.847058823529" width="5px" x="68px" y="60px" /><rect fill="rgb(55,55,55)" height="5px" opacity="0.317647058824" width="5px" x="72px" y="60px" /><rect fill="rgb(55,55,55)" height="5px" opacity="0.0705882352941" width="5px" x="88px" y="60px" /><rect fill="rgb(55,55,55)" height="5px" opacity="0.533333333333" width="5px" x="92px" y="60px" /><rect fill="rgb(55,55,55)" height="5px" opacity="0.972549019608" width="5px" x="96px" y="60px" /><rect fill="rgb(55,55,55)" height="5px" opacity="0.850980392157" width="5px" x="100px" y="60px" /><rect fill="rgb(55,55,55)" height="5px" opacity="0.298039215686" width="5px" x="104px" y="60px" /><rect fill="rgb(55,55,55)" height="5px" opacity="0.0901960784314" width="5px" x="20px" y="64px" /><rect fill="rgb(55,55,55)" height="5px" opacity="0.709803921569" width="5px" x="24px" y="64px" /><rect fill="rgb(55,55,55)" height="5px" opacity="0.952941176471" width="5px" x="28px" y="64px" /><rect fill="rgb(55,55,55)" height="5px" opacity="0.8" width="5px" x="32px" y="64px" /><rect fill="rgb(55,55,55)" height="5px" opacity="0.0117647058824" width="5px" x="36px" y="64px" /><rect fill="rgb(0,0,0)" height="5px" opacity="0.266666666667" width="5px" x="40px" y="64px" /><rect fill="rgb(0,0,0)" height="5px" width="5px" x="44px" y="64px" /><rect fill="rgb(0,0,0)" height="5px" opacity="0.266666666667" width="5px" x="48px" y="64px" /><rect fill="rgb(0,0,0)" height="5px" opacity="0.0470588235294" width="5px" x="60px" y="64px" /><rect fill="rgb(55,55,55)" height="5px" opacity="0.498039215686" width="5px" x="64px" y="64px" /><rect fill="rgb(55,55,55)" height="5px" opacity="0.286274509804" width="5px" x="68px" y="64px" /><rect fill="rgb(55,55,55)" height="5px" opacity="0.0235294117647" width="5px" x="80px" y="64px" /><rect fill="rgb(55,55,55)" height="5px" opacity="0.435294117647" width="5px" x="84px" y="64px" /><rect fill="rgb(55,55,55)" height="5px" opacity="0.937254901961" width="5px" x="88px" y="64px" /><rect fill="rgb(55,55,55)" height="5px" opacity="0.952941176471" width="5px" x="92px" y="64px" /><rect fill="rgb(55,55,55)" height="5px" opacity="0.501960784314" width="5px" x="96px" y="64px" /><rect fill="rgb(55,55,55)" height="5px" opacity="0.0274509803922" width="5px" x="100px" y="64px" /><rect fill="rgb(0,0,0)" height="5px" opacity="0.0901960784314" width="5px" x="104px" y="64px" /><rect fill="rgb(0,0,0)" height="5px" opacity="0.0901960784314" width="5px" x="108px" y="64px" /><rect fill="rgb(55,55,55)" height="5px" opacity="0.427450980392" width="5px" x="16px" y="68px" /><rect fill="rgb(55,55,55)" height="5px" opacity="0.929411764706" width="5px" x="20px" y="68px" /><rect fill="rgb(55,55,55)" height="5px" width="5px" x="24px" y="68px" /><rect fill="rgb(55,55,55)" height="5px" width="5px" x="28px" y="68px" /><rect fill="rgb(55,55,55)" height="5px" opacity="0.78431372549" width="5px" x="32px" y="68px" /><rect fill="rgb(55,55,55)" height="5px" opacity="0.0078431372549" width="5px" x="36px" y="68px" /><rect fill="rgb(0,0,0)" height="5px" opacity="0.0745098039216" width="5px" x="40px" y="68px" /><rect fill="rgb(0,0,0)" height="5px" opacity="0.854901960784" width="5px" x="44px" y="68px" /><rect fill="rgb(0,0,0)" height="5px" opacity="0.0745098039216" width="5px" x="48px" y="68px" /><rect fill="rgb(0,0,0)" height="5px" opacity="0.0470588235294" width="5px" x="56px" y="68px" /><rect fill="rgb(0,0,0)" height="5px" opacity="0.729411764706" width="5px" x="60px" y="68px" /><rect fill="rgb(0,0,0)" height="5px" opacity="0.211764705882" width="5px" x="64px" y="68px" /><rect fill="rgb(55,55,55)" height="5px" opacity="0.00392156862745" width="5px" x="72px" y="68px" /><rect fill="rgb(55,55,55)" height="5px" opacity="0.333333333333" width="5px" x="76px" y="68px" /><rect fill="rgb(55,55,55)" height="5px" opacity="0.866666666667" width="5px" x="80px" y="68px" /><rect fill="rgb(55,55,55)" height="5px" opacity="0.992156862745" width="5px" x="84px" y="68px" /><rect fill="rgb(55,55,55)" height="5px" opacity="0.635294117647" width="5px" x="88px" y="68px" /><rect fill="rgb(55,55,55)" height="5px" opacity="0.0901960784314" width="5px" x="92px" y="68px" /><rect fill="rgb(0,0,0)" height="5px" opacity="0.0901960784314" width="5px" x="100px" y="68px" /><rect fill="rgb(0,0,0)" height="5px" opacity="0.901960784314" width="5px" x="104px" y="68px" /><rect fill="rgb(0,0,0)" height="5px" opacity="0.901960784314" width="5px" x="108px" y="68px" /><rect fill="rgb(0,0,0)" height="5px" opacity="0.0901960784314" width="5px" x="112px" y="68px" /><rect fill="rgb(55,55,55)" height="5px" opacity="0.0901960784314" width="5px" x="12px" y="72px" /><rect fill="rgb(55,55,55)" height="5px" opacity="0.929411764706" width="5px" x="16px" y="72px" /><rect fill="rgb(55,55,55)" height="5px" width="5px" x="20px" y="72px" /><rect fill="rgb(55,55,55)" height="5px" width="5px" x="24px" y="72px" /><rect fill="rgb(55,55,55)" height="5px" width="5px" x="28px" y="72px" /><rect fill="rgb(55,55,55)" height="5px" opacity="0.701960784314" width="5px" x="32px" y="72px" /><rect fill="rgb(55,55,55)" height="5px" opacity="0.00392156862745" width="5px" x="36px" y="72px" /><rect fill="rgb(0,0,0)" height="5px" opacity="0.0745098039216" width="5px" x="44px" y="72px" /><rect fill="rgb(0,0,0)" height="5px" opacity="0.172549019608" width="5px" x="56px" y="72px" /><rect fill="rgb(0,0,0)" height="5px" width="5px" x="60px" y="72px" /><rect fill="rgb(0,0,0)" height="5px" opacity="0.729411764706" width="5px" x="64px" y="72px" /><rect fill="rgb(0,0,0)" height="5px" opacity="0.0470588235294" width="5px" x="68px" y="72px" /><rect fill="rgb(55,55,55)" height="5px" opacity="0.474509803922" width="5px" x="72px" y="72px" /><rect fill="rgb(55,55,55)" height="5px" width="5px" x="76px" y="72px" /><rect fill="rgb(55,55,55)" height="5px" opacity="0.760784313725" width="5px" x="80px" y="72px" /><rect fill="rgb(55,55,55)" height="5px" opacity="0.192156862745" width="5px" x="84px" y="72px" /><rect fill="rgb(0,0,0)" height="5px" opacity="0.0901960784314" width="5px" x="100px" y="72px" /><rect fill="rgb(0,0,0)" height="5px" opacity="0.901960784314" width="5px" x="104px" y="72px" /><rect fill="rgb(0,0,0)" height="5px" opacity="0.901960784314" width="5px" x="108px" y="72px" /><rect fill="rgb(0,0,0)" height="5px" opacity="0.0901960784314" width="5px" x="112px" y="72px" /><rect fill="rgb(55,55,55)" height="5px" opacity="0.709803921569" width="5px" x="12px" y="76px" /><rect fill="rgb(55,55,55)" height="5px" width="5px" x="16px" y="76px" /><rect fill="rgb(55,55,55)" height="5px" width="5px" x="20px" y="76px" /><rect fill="rgb(55,55,55)" height="5px" width="5px" x="24px" y="76px" /><rect fill="rgb(55,55,55)" height="5px" width="5px" x="28px" y="76px" /><rect fill="rgb(55,55,55)" height="5px" opacity="0.917647058824" width="5px" x="32px" y="76px" /><rect fill="rgb(55,55,55)" height="5px" opacity="0.203921568627" width="5px" x="36px" y="76px" /><rect fill="rgb(55,55,55)" height="5px" opacity="0.043137254902" width="5px" x="56px" y="76px" /><rect fill="rgb(0,0,0)" height="5px" opacity="0.172549019608" width="5px" x="60px" y="76px" /><rect fill="rgb(0,0,0)" height="5px" opacity="0.0470588235294" width="5px" x="64px" y="76px" /><rect fill="rgb(55,55,55)" height="5px" opacity="0.0823529411765" width="5px" x="72px" y="76px" /><rect fill="rgb(55,55,55)" height="5px" opacity="0.341176470588" width="5px" x="76px" y="76px" /><rect fill="rgb(55,55,55)" height="5px" opacity="0.00392156862745" width="5px" x="80px" y="76px" /><rect fill="rgb(0,0,0)" height="5px" opacity="0.0901960784314" width="5px" x="104px" y="76px" /><rect fill="rgb(0,0,0)" height="5px" opacity="0.0901960784314" width="5px" x="108px" y="76px" /><rect fill="rgb(55,55,55)" height="5px" opacity="0.952941176471" width="5px" x="12px" y="80px" /><rect fill="rgb(55,55,55)" height="5px" width="5px" x="16px" y="80px" /><rect fill="rgb(55,55,55)" height="5px" width="5px" x="20px" y="80px" /><rect fill="rgb(55,55,55)" height="5px" width="5px" x="24px" y="80px" /><rect fill="rgb(55,55,55)" height="5px" width="5px" x="28px" y="80px" /><rect fill="rgb(55,55,55)" height="5px" opacity="0.709803921569" width="5px" x="32px" y="80px" /><rect fill="rgb(55,55,55)" height="5px" opacity="0.0705882352941" width="5px" x="44px" y="80px" /><rect fill="rgb(55,55,55)" height="5px" opacity="0.356862745098" width="5px" x="48px" y="80px" /><rect fill="rgb(55,55,55)" height="5px" opacity="0.36862745098" width="5px" x="52px" y="80px" /><rect fill="rgb(55,55,55)" height="5px" opacity="0.749019607843" width="5px" x="56px" y="80px" /><rect fill="rgb(55,55,55)" height="5px" opacity="0.0588235294118" width="5px" x="96px" y="80px" /><rect fill="rgb(55,55,55)" height="5px" opacity="0.156862745098" width="5px" x="100px" y="80px" /><rect fill="rgb(55,55,55)" height="5px" opacity="0.243137254902" width="5px" x="104px" y="80px" /><rect fill="rgb(55,55,55)" height="5px" opacity="0.341176470588" width="5px" x="108px" y="80px" /><rect fill="rgb(55,55,55)" height="5px" opacity="0.43137254902" width="5px" x="112px" y="80px" /><rect fill="rgb(55,55,55)" height="5px" opacity="0.517647058824" width="5px" x="116px" y="80px" /><rect fill="rgb(55,55,55)" height="5px" opacity="0.298039215686" width="5px" x="120px" y="80px" /><rect fill="rgb(55,55,55)" height="5px" width="5px" x="12px" y="84px" /><rect fill="rgb(55,55,55)" height="5px" width="5px" x="16px" y="84px" /><rect fill="rgb(55,55,55)" height="5px" width="5px" x="20px" y="84px" /><rect fill="rgb(55,55,55)" height="5px" width="5px" x="24px" y="84px" /><rect fill="rgb(55,55,55)" height="5px" width="5px" x="28px" y="84px" /><rect fill="rgb(55,55,55)" height="5px" opacity="0.972549019608" width="5px" x="32px" y="84px" /><rect fill="rgb(55,55,55)" height="5px" opacity="0.650980392157" width="5px" x="36px" y="84px" /><rect fill="rgb(55,55,55)" height="5px" opacity="0.356862745098" width="5px" x="40px" y="84px" /><rect fill="rgb(55,55,55)" height="5px" opacity="0.921568627451" width="5px" x="44px" y="84px" /><rect fill="rgb(55,55,55)" height="5px" width="5px" x="48px" y="84px" /><rect fill="rgb(55,55,55)" height="5px" width="5px" x="52px" y="84px" /><rect fill="rgb(55,55,55)" height="5px" width="5px" x="56px" y="84px" /><rect fill="rgb(55,55,55)" height="5px" opacity="0.458823529412" width="5px" x="76px" y="84px" /><rect fill="rgb(55,55,55)" height="5px" opacity="0.694117647059" width="5px" x="80px" y="84px" /><rect fill="rgb(55,55,55)" height="5px" opacity="0.780392156863" width="5px" x="84px" y="84px" /><rect fill="rgb(55,55,55)" height="5px" opacity="0.882352941176" width="5px" x="88px" y="84px" /><rect fill="rgb(55,55,55)" height="5px" opacity="0.96862745098" width="5px" x="92px" y="84px" /><rect fill="rgb(55,55,55)" height="5px" width="5px" x="96px" y="84px" /><rect fill="rgb(55,55,55)" height="5px" width="5px" x="100px" y="84px" /><rect fill="rgb(55,55,55)" height="5px" width="5px" x="104px" y="84px" /><rect fill="rgb(55,55,55)" height="5px" width="5px" x="108px" y="84px" /><rect fill="rgb(55,55,55)" height="5px" width="5px" x="112px" y="84px" /><rect fill="rgb(55,55,55)" height="5px" opacity="0.952941176471" width="5px" x="116px" y="84px" /><rect fill="rgb(55,55,55)" height="5px" opacity="0.580392156863" width="5px" x="120px" y="84px" /><rect fill="rgb(55,55,55)" height="5px" width="5px" x="12px" y="88px" /><rect fill="rgb(55,55,55)" height="5px" width="5px" x="16px" y="88px" /><rect fill="rgb(55,55,55)" height="5px" width="5px" x="20px" y="88px" /><rect fill="rgb(55,55,55)" height="5px" width="5px" x="24px" y="88px" /><rect fill="rgb(55,55,55)" height="5px" width="5px" x="28px" y="88px" /><rect fill="rgb(55,55,55)" height="5px" width="5px" x="32px" y="88px" /><rect fill="rgb(55,55,55)" height="5px" width="5px" x="36px" y="88px" /><rect fill="rgb(55,55,55)" height="5px" width="5px" x="40px" y="88px" /><rect fill="rgb(55,55,55)" height="5px" width="5px" x="44px" y="88px" /><rect fill="rgb(55,55,55)" height="5px" width="5px" x="48px" y="88px" /><rect fill="rgb(55,55,55)" height="5px" width="5px" x="52px" y="88px" /><rect fill="rgb(55,55,55)" height="5px" width="5px" x="56px" y="88px" /><rect fill="rgb(55,55,55)" height="5px" opacity="0.290196078431" width="5px" x="76px" y="88px" /><rect fill="rgb(55,55,55)" height="5px" opacity="0.552941176471" width="5px" x="80px" y="88px" /><rect fill="rgb(55,55,55)" height="5px" opacity="0.486274509804" width="5px" x="84px" y="88px" /><rect fill="rgb(55,55,55)" height="5px" opacity="0.419607843137" width="5px" x="88px" y="88px" /><rect fill="rgb(55,55,55)" height="5px" opacity="0.352941176471" width="5px" x="92px" y="88px" /><rect fill="rgb(55,55,55)" height="5px" opacity="0.286274509804" width="5px" x="96px" y="88px" /><rect fill="rgb(55,55,55)" height="5px" opacity="0.219607843137" width="5px" x="100px" y="88px" /><rect fill="rgb(55,55,55)" height="5px" opacity="0.152941176471" width="5px" x="104px" y="88px" /><rect fill="rgb(55,55,55)" height="5px" opacity="0.0862745098039" width="5px" x="108px" y="88px" /><rect fill="rgb(55,55,55)" height="5px" opacity="0.0196078431373" width="5px" x="112px" y="88px" /><rect fill="rgb(55,55,55)" height="5px" opacity="0.952941176471" width="5px" x="12px" y="92px" /><rect fill="rgb(55,55,55)" height="5px" width="5px" x="16px" y="92px" /><rect fill="rgb(55,55,55)" height="5px" width="5px" x="20px" y="92px" /><rect fill="rgb(55,55,55)" height="5px" width="5px" x="24px" y="92px" /><rect fill="rgb(55,55,55)" height="5px" width="5px" x="28px" y="92px" /><rect fill="rgb(55,55,55)" height="5px" width="5px" x="32px" y="92px" /><rect fill="rgb(55,55,55)" height="5px" width="5px" x="36px" y="92px" /><rect fill="rgb(55,55,55)" height="5px" width="5px" x="40px" y="92px" /><rect fill="rgb(55,55,55)" height="5px" width="5px" x="44px" y="92px" /><rect fill="rgb(55,55,55)" height="5px" width="5px" x="48px" y="92px" /><rect fill="rgb(55,55,55)" height="5px" width="5px" x="52px" y="92px" /><rect fill="rgb(55,55,55)" height="5px" opacity="0.952941176471" width="5px" x="56px" y="92px" /><rect fill="rgb(0,0,0)" height="5px" opacity="0.0901960784314" width="5px" x="68px" y="92px" /><rect fill="rgb(0,0,0)" height="5px" opacity="0.0901960784314" width="5px" x="72px" y="92px" /><rect fill="rgb(55,55,55)" height="5px" opacity="0.709803921569" width="5px" x="12px" y="96px" /><rect fill="rgb(55,55,55)" height="5px" width="5px" x="16px" y="96px" /><rect fill="rgb(55,55,55)" height="5px" width="5px" x="20px" y="96px" /><rect fill="rgb(55,55,55)" height="5px" width="5px" x="24px" y="96px" /><rect fill="rgb(55,55,55)" height="5px" width="5px" x="28px" y="96px" /><rect fill="rgb(55,55,55)" height="5px" width="5px" x="32px" y="96px" /><rect fill="rgb(55,55,55)" height="5px" width="5px" x="36px" y="96px" /><rect fill="rgb(55,55,55)" height="5px" width="5px" x="40px" y="96px" /><rect fill="rgb(55,55,55)" height="5px" width="5px" x="44px" y="96px" /><rect fill="rgb(55,55,55)" height="5px" width="5px" x="48px" y="96px" /><rect fill="rgb(55,55,55)" height="5px" width="5px" x="52px" y="96px" /><rect fill="rgb(55,55,55)" height="5px" opacity="0.709803921569" width="5px" x="56px" y="96px" /><rect fill="rgb(0,0,0)" height="5px" opacity="0.0901960784314" width="5px" x="64px" y="96px" /><rect fill="rgb(0,0,0)" height="5px" opacity="0.901960784314" width="5px" x="68px" y="96px" /><rect fill="rgb(0,0,0)" height="5px" opacity="0.901960784314" width="5px" x="72px" y="96px" /><rect fill="rgb(0,0,0)" height="5px" opacity="0.0901960784314" width="5px" x="76px" y="96px" /><rect fill="rgb(55,55,55)" height="5px" opacity="0.0901960784314" width="5px" x="12px" y="100px" /><rect fill="rgb(55,55,55)" height="5px" opacity="0.929411764706" width="5px" x="16px" y="100px" /><rect fill="rgb(55,55,55)" height="5px" width="5px" x="20px" y="100px" /><rect fill="rgb(55,55,55)" height="5px" width="5px" x="24px" y="100px" /><rect fill="rgb(55,55,55)" height="5px" width="5px" x="28px" y="100px" /><rect fill="rgb(55,55,55)" height="5px" width="5px" x="32px" y="100px" /><rect fill="rgb(55,55,55)" height="5px" width="5px" x="36px" y="100px" /><rect fill="rgb(55,55,55)" height="5px" width="5px" x="40px" y="100px" /><rect fill="rgb(55,55,55)" height="5px" width="5px" x="44px" y="100px" /><rect fill="rgb(55,55,55)" height="5px" width="5px" x="48px" y="100px" /><rect fill="rgb(55,55,55)" height="5px" opacity="0.929411764706" width="5px" x="52px" y="100px" /><rect fill="rgb(55,55,55)" height="5px" opacity="0.0901960784314" width="5px" x="56px" y="100px" /><rect fill="rgb(0,0,0)" height="5px" opacity="0.0901960784314" width="5px" x="64px" y="100px" /><rect fill="rgb(0,0,0)" height="5px" opacity="0.901960784314" width="5px" x="68px" y="100px" /><rect fill="rgb(0,0,0)" height="5px" opacity="0.901960784314" width="5px" x="72px" y="100px" /><rect fill="rgb(0,0,0)" height="5px" opacity="0.0901960784314" width="5px" x="76px" y="100px" /><rect fill="rgb(55,55,55)" height="5px" opacity="0.427450980392" width="5px" x="16px" y="104px" /><rect fill="rgb(55,55,55)" height="5px" opacity="0.929411764706" width="5px" x="20px" y="104px" /><rect fill="rgb(55,55,55)" height="5px" width="5px" x="24px" y="104px" /><rect fill="rgb(55,55,55)" height="5px" width="5px" x="28px" y="104px" /><rect fill="rgb(55,55,55)" height="5px" width="5px" x="32px" y="104px" /><rect fill="rgb(55,55,55)" height="5px" width="5px" x="36px" y="104px" /><rect fill="rgb(55,55,55)" height="5px" width="5px" x="40px" y="104px" /><rect fill="rgb(55,55,55)" height="5px" width="5px" x="44px" y="104px" /><rect fill="rgb(55,55,55)" height="5px" opacity="0.929411764706" width="5px" x="48px" y="104px" /><rect fill="rgb(55,55,55)" height="5px" opacity="0.427450980392" width="5px" x="52px" y="104px" /><rect fill="rgb(0,0,0)" height="5px" opacity="0.0901960784314" width="5px" x="68px" y="104px" /><rect fill="rgb(0,0,0)" height="5px" opacity="0.0901960784314" width="5px" x="72px" y="104px" /><rect fill="rgb(55,55,55)" height="5px" opacity="0.0901960784314" width="5px" x="20px" y="108px" /><rect fill="rgb(55,55,55)" height="5px" opacity="0.709803921569" width="5px" x="24px" y="108px" /><rect fill="rgb(55,55,55)" height="5px" opacity="0.952941176471" width="5px" x="28px" y="108px" /><rect fill="rgb(55,55,55)" height="5px" width="5px" x="32px" y="108px" /><rect fill="rgb(55,55,55)" height="5px" width="5px" x="36px" y="108px" /><rect fill="rgb(55,55,55)" height="5px" opacity="0.952941176471" width="5px" x="40px" y="108px" /><rect fill="rgb(55,55,55)" height="5px" opacity="0.709803921569" width="5px" x="44px" y="108px" /><rect fill="rgb(55,55,55)" height="5px" opacity="0.0901960784314" width="5px" x="48px" y="108px" /></svg>