<?xml version="1.0" encoding="utf-8" ?>
<svg baseProfile="full" height="128px" version="1.1" width="128px" xmlns="http://www.w3.org/2000/svg" xmlns:ev="http://www.w3.org/2001/xml-events" xmlns:xlink="http://www.w3.org/1999/xlink"><defs /><rect fill="rgb(19,19,4)" height="5px" opacity="0.203921568627" width="5px" x="92px" y="48px" /><rect fill="rgb(0,0,0)" height="5px" opacity="0.0078431372549" width="5px" x="96px" y="48px" /><rect fill="rgb(86,29,8)" height="5px" width="5px" x="92px" y="52px" /><rect fill="rgb(17,17,0)" height="5px" opacity="0.117647058824" width="5px" x="96px" y="52px" /><rect fill="rgb(86,29,8)" height="5px" width="5px" x="84px" y="56px" /><rect fill="rgb(86,29,8)" height="5px" width="5px" x="88px" y="56px" /><rect fill="rgb(86,29,8)" height="5px" width="5px" x="92px" y="56px" /><rect fill="rgb(142,39,0)" height="5px" width="5px" x="96px" y="56px" /><rect fill="rgb(17,17,5)" height="5px" opacity="0.392156862745" width="5px" x="100px" y="56px" /><rect fill="rgb(86,29,8)" height="5px" width="5px" x="80px" y="60px" /><rect fill="rgb(86,29,8)" height="5px" width="5px" x="84px" y="60px" /><rect fill="rgb(142,39,0)" height="5px" width="5px" x="88px" y="60px" /><rect fill="rgb(142,39,0)" height="5px" width="5px" x="92px" y="60px" /><rect fill="rgb(142,39,0)" height="5px" width="5px" x="96px" y="60px" /><rect fill="rgb(142,39,0)" height="5px" width="5px" x="100px" y="60px" /><rect fill="rgb(142,39,0)" height="5px" width="5px" x="104px" y="60px" /><rect fill="rgb(16,16,0)" height="5px" opacity="0.121568627451" width="5px" x="108px" y="60px" /><rect fill="rgb(14,14,7)" height="5px" opacity="0.137254901961" width="5px" x="20px" y="64px" /><rect fill="rgb(17,17,5)" height="5px" opacity="0.172549019608" width="5px" x="32px" y="64px" /><rect fill="rgb(15,15,0)" height="5px" opacity="0.0627450980392" width="5px" x="40px" y="64px" /><rect fill="rgb(20,20,6)" height="5px" opacity="0.149019607843" width="5px" x="48px" y="64px" /><rect fill="rgb(15,15,7)" height="5px" opacity="0.125490196078" width="5px" x="56px" y="64px" /><rect fill="rgb(22,22,0)" height="5px" opacity="0.0901960784314" width="5px" x="64px" y="64px" /><rect fill="rgb(86,29,8)" height="5px" width="5px" x="76px" y="64px" /><rect fill="rgb(86,29,8)" height="5px" width="5px" x="80px" y="64px" /><rect fill="rgb(142,39,0)" height="5px" width="5px" x="84px" y="64px" /><rect fill="rgb(142,39,0)" height="5px" width="5px" x="88px" y="64px" /><rect fill="rgb(142,39,0)" height="5px" width="5px" x="92px" y="64px" /><rect fill="rgb(142,39,0)" height="5px" width="5px" x="96px" y="64px" /><rect fill="rgb(142,39,0)" height="5px" width="5px" x="100px" y="64px" /><rect fill="rgb(142,39,0)" height="5px" width="5px" x="104px" y="64px" /><rect fill="rgb(142,39,0)" height="5px" width="5px" x="108px" y="64px" /><rect fill="rgb(86,29,8)" height="5px" width="5px" x="20px" y="68px" /><rect fill="rgb(86,29,8)" height="5px" width="5px" x="24px" y="68px" /><rect fill="rgb(86,29,8)" height="5px" width="5px" x="28px" y="68px" /><rect fill="rgb(142,39,0)" height="5px" width="5px" x="32px" y="68px" /><rect fill="rgb(142,39,0)" height="5px" width="5px" x="36px" y="68px" /><rect fill="rgb(142,39,0)" height="5px" width="5px" x="40px" y="68px" /><rect fill="rgb(142,39,0)" height="5px" width="5px" x="44px" y="68px" /><rect fill="rgb(142,39,0)" height="5px" width="5px" x="48px" y="68px" /><rect fill="rgb(142,39,0)" height="5px" width="5px" x="52px" y="68px" /><rect fill="rgb(142,39,0)" height="5px" width="5px" x="56px" y="68px" /><rect fill="rgb(142,39,0)" height="5px" width="5px" x="60px" y="68px" /><rect fill="rgb(142,39,0)" height="5px" width="5px" x="64px" y="68px" /><rect fill="rgb(142,39,0)" height="5px" width="5px" x="68px" y="68px" /><rect fill="rgb(142,39,0)" height="5px" width="5px" x="72px" y="68px" /><rect fill="rgb(86,29,8)" height="5px" width="5px" x="76px" y="68px" /><rect fill="rgb(142,39,0)" height="5px" width="5px" x="80px" y="68px" /><rect fill="rgb(142,39,0)" height="5px" width="5px" x="84px" y="68px" /><rect fill="rgb(142,39,0)" height="5px" width="5px" x="88px" y="68px" /><rect fill="rgb(142,39,0)" height="5px" width="5px" x="92px" y="68px" /><rect fill="rgb(142,39,0)" height="5px" width="5px" x="96px" y="68px" /><rect fill="rgb(142,39,0)" height="5px" width="5px" x="100px" y="68px" /><rect fill="rgb(142,39,0)" height="5px" width="5px" x="104px" y="68px" /><rect fill="rgb(15,15,0)" height="5px" opacity="0.0627450980392" width="5px" x="108px" y="68px" /><rect fill="rgb(86,29,8)" height="5px" width="5px" x="16px" y="72px" /><rect fill="rgb(86,29,8)" height="5px" width="5px" x="20px" y="72px" /><rect fill="rgb(142,39,0)" height="5px" width="5px" x="28px" y="72px" /><rect fill="rgb(142,39,0)" height="5px" width="5px" x="32px" y="72px" /><rect fill="rgb(142,39,0)" height="5px" width="5px" x="36px" y="72px" /><rect fill="rgb(142,39,0)" height="5px" width="5px" x="40px" y="72px" /><rect fill="rgb(142,39,0)" height="5px" width="5px" x="44px" y="72px" /><rect fill="rgb(142,39,0)" height="5px" width="5px" x="48px" y="72px" /><rect fill="rgb(142,39,0)" height="5px" width="5px" x="52px" y="72px" /><rect fill="rgb(142,39,0)" height="5px" width="5px" x="56px" y="72px" /><rect fill="rgb(142,39,0)" height="5px" width="5px" x="60px" y="72px" /><rect fill="rgb(142,39,0)" height="5px" width="5px" x="64px" y="72px" /><rect fill="rgb(142,39,0)" height="5px" width="5px" x="68px" y="72px" /><rect fill="rgb(142,39,0)" height="5px" width="5px" x="72px" y="72px" /><rect fill="rgb(142,39,0)" height="5px" width="5px" x="76px" y="72px" /><rect fill="rgb(142,39,0)" height="5px" width="5px" x="80px" y="72px" /><rect fill="rgb(142,39,0)" height="5px" width="5px" x="84px" y="72px" /><rect fill="rgb(142,39,0)" height="5px" width="5px" x="88px" y="72px" /><rect fill="rgb(20,20,5)" height="5px" opacity="0.196078431373" width="5px" x="12px" y="76px" /><rect fill="rgb(86,29,8)" height="5px" width="5px" x="16px" y="76px" /><rect fill="rgb(86,29,8)" height="5px" width="5px" x="20px" y="76px" /><rect fill="rgb(142,39,0)" height="5px" width="5px" x="28px" y="76px" /><rect fill="rgb(142,39,0)" height="5px" width="5px" x="32px" y="76px" /><rect fill="rgb(142,39,0)" height="5px" width="5px" x="36px" y="76px" /><rect fill="rgb(142,39,0)" height="5px" width="5px" x="40px" y="76px" /><rect fill="rgb(142,39,0)" height="5px" width="5px" x="44px" y="76px" /><rect fill="rgb(142,39,0)" height="5px" width="5px" x="48px" y="76px" /><rect fill="rgb(142,39,0)" height="5px" width="5px" x="52px" y="76px" /><rect fill="rgb(142,39,0)" height="5px" width="5px" x="56px" y="76px" /><rect fill="rgb(142,39,0)" height="5px" width="5px" x="60px" y="76px" /><rect fill="rgb(142,39,0)" height="5px" width="5px" x="64px" y="76px" /><rect fill="rgb(142,39,0)" height="5px" width="5px" x="68px" y="76px" /><rect fill="rgb(142,39,0)" height="5px" width="5px" x="72px" y="76px" /><rect fill="rgb(142,39,0)" height="5px" width="5px" x="76px" y="76px" /><rect fill="rgb(142,39,0)" height="5px" width="5px" x="80px" y="76px" /><rect fill="rgb(142,39,0)" height="5px" width="5px" x="84px" y="76px" /><rect fill="rgb(0,0,0)" height="5px" opacity="0.0156862745098" width="5px" x="88px" y="76px" /><rect fill="rgb(20,20,5)" height="5px" opacity="0.196078431373" width="5px" x="12px" y="80px" /><rect fill="rgb(86,29,8)" height="5px" width="5px" x="16px" y="80px" /><rect fill="rgb(86,29,8)" height="5px" width="5px" x="20px" y="80px" /><rect fill="rgb(18,18,4)" height="5px" opacity="0.21568627451" width="5px" x="24px" y="80px" /><rect fill="rgb(142,39,0)" height="5px" width="5px" x="28px" y="80px" /><rect fill="rgb(142,39,0)" height="5px" width="5px" x="32px" y="80px" /><rect fill="rgb(142,39,0)" height="5px" width="5px" x="36px" y="80px" /><rect fill="rgb(142,39,0)" height="5px" width="5px" x="40px" y="80px" /><rect fill="rgb(142,39,0)" height="5px" width="5px" x="44px" y="80px" /><rect fill="rgb(142,39,0)" height="5px" width="5px" x="48px" y="80px" /><rect fill="rgb(142,39,0)" height="5px" width="5px" x="52px" y="80px" /><rect fill="rgb(142,39,0)" height="5px" width="5px" x="56px" y="80px" /><rect fill="rgb(142,39,0)" height="5px" width="5px" x="60px" y="80px" /><rect fill="rgb(142,39,0)" height="5px" width="5px" x="64px" y="80px" /><rect fill="rgb(142,39,0)" height="5px" width="5px" x="68px" y="80px" /><rect fill="rgb(142,39,0)" height="5px" width="5px" x="72px" y="80px" /><rect fill="rgb(142,39,0)" height="5px" width="5px" x="76px" y="80px" /><rect fill="rgb(142,39,0)" height="5px" width="5px" x="80px" y="80px" /><rect fill="rgb(20,20,6)" height="5px" opacity="0.149019607843" width="5px" x="84px" y="80px" /><rect fill="rgb(86,29,8)" height="5px" width="5px" x="16px" y="84px" /><rect fill="rgb(86,29,8)" height="5px" width="5px" x="20px" y="84px" /><rect fill="rgb(142,39,0)" height="5px" width="5px" x="28px" y="84px" /><rect fill="rgb(142,39,0)" height="5px" width="5px" x="32px" y="84px" /><rect fill="rgb(142,39,0)" height="5px" width="5px" x="36px" y="84px" /><rect fill="rgb(142,39,0)" height="5px" width="5px" x="40px" y="84px" /><rect fill="rgb(142,39,0)" height="5px" width="5px" x="44px" y="84px" /><rect fill="rgb(142,39,0)" height="5px" width="5px" x="48px" y="84px" /><rect fill="rgb(142,39,0)" height="5px" width="5px" x="52px" y="84px" /><rect fill="rgb(142,39,0)" height="5px" width="5px" x="56px" y="84px" /><rect fill="rgb(142,39,0)" height="5px" width="5px" x="60px" y="84px" /><rect fill="rgb(142,39,0)" height="5px" width="5px" x="64px" y="84px" /><rect fill="rgb(142,39,0)" height="5px" width="5px" x="68px" y="84px" /><rect fill="rgb(142,39,0)" height="5px" width="5px" x="72px" y="84px" /><rect fill="rgb(142,39,0)" height="5px" width="5px" x="76px" y="84px" /><rect fill="rgb(19,19,4)" height="5px" opacity="0.203921568627" width="5px" x="80px" y="84px" /><rect fill="rgb(21,21,0)" height="5px" opacity="0.0470588235294" width="5px" x="16px" y="88px" /><rect fill="rgb(17,17,2)" height="5px" opacity="0.345098039216" width="5px" x="20px" y="88px" /><rect fill="rgb(18,18,4)" height="5px" opacity="0.211764705882" width="5px" x="24px" y="88px" /><rect fill="rgb(142,39,0)" height="5px" width="5px" x="28px" y="88px" /><rect fill="rgb(23,23,0)" height="5px" opacity="0.0862745098039" width="5px" x="32px" y="88px" /><rect fill="rgb(18,18,5)" height="5px" opacity="0.376470588235" width="5px" x="36px" y="88px" /><rect fill="rgb(142,39,0)" height="5px" width="5px" x="40px" y="88px" /><rect fill="rgb(17,17,5)" height="5px" opacity="0.172549019608" width="5px" x="44px" y="88px" /><rect fill="rgb(21,21,0)" height="5px" opacity="0.0470588235294" width="5px" x="48px" y="88px" /><rect fill="rgb(16,16,4)" height="5px" opacity="0.243137254902" width="5px" x="52px" y="88px" /><rect fill="rgb(16,16,4)" height="5px" opacity="0.243137254902" width="5px" x="56px" y="88px" /><rect fill="rgb(16,16,4)" height="5px" opacity="0.243137254902" width="5px" x="60px" y="88px" /><rect fill="rgb(142,39,0)" height="5px" width="5px" x="64px" y="88px" /><rect fill="rgb(142,39,0)" height="5px" width="5px" x="68px" y="88px" /><rect fill="rgb(142,39,0)" height="5px" width="5px" x="72px" y="88px" /><rect fill="rgb(142,39,0)" height="5px" width="5px" x="76px" y="88px" /><rect fill="rgb(18,18,4)" height="5px" opacity="0.219607843137" width="5px" x="80px" y="88px" /><rect fill="rgb(142,39,0)" height="5px" width="5px" x="28px" y="92px" /><rect fill="rgb(142,39,0)" height="5px" width="5px" x="40px" y="92px" /><rect fill="rgb(18,18,4)" height="5px" opacity="0.486274509804" width="5px" x="44px" y="92px" /><rect fill="rgb(21,21,0)" height="5px" opacity="0.0470588235294" width="5px" x="60px" y="92px" /><rect fill="rgb(142,39,0)" height="5px" width="5px" x="64px" y="92px" /><rect fill="rgb(17,17,3)" height="5px" opacity="0.501960784314" width="5px" x="68px" y="92px" /><rect fill="rgb(18,18,3)" height="5px" opacity="0.325490196078" width="5px" x="72px" y="92px" /><rect fill="rgb(142,39,0)" height="5px" width="5px" x="76px" y="92px" /><rect fill="rgb(142,39,0)" height="5px" width="5px" x="80px" y="92px" /><rect fill="rgb(142,39,0)" height="5px" width="5px" x="28px" y="96px" /><rect fill="rgb(142,39,0)" height="5px" width="5px" x="40px" y="96px" /><rect fill="rgb(142,39,0)" height="5px" width="5px" x="44px" y="96px" /><rect fill="rgb(18,18,6)" height="5px" opacity="0.164705882353" width="5px" x="48px" y="96px" /><rect fill="rgb(19,19,0)" height="5px" opacity="0.0509803921569" width="5px" x="60px" y="96px" /><rect fill="rgb(142,39,0)" height="5px" width="5px" x="64px" y="96px" /><rect fill="rgb(142,39,0)" height="5px" width="5px" x="80px" y="96px" /><rect fill="rgb(18,18,4)" height="5px" opacity="0.21568627451" width="5px" x="84px" y="96px" /><rect fill="rgb(142,39,0)" height="5px" width="5px" x="28px" y="100px" /><rect fill="rgb(18,18,4)" height="5px" opacity="0.43137254902" width="5px" x="40px" y="100px" /><rect fill="rgb(142,39,0)" height="5px" width="5px" x="44px" y="100px" /><rect fill="rgb(18,18,6)" height="5px" opacity="0.160784313725" width="5px" x="48px" y="100px" /><rect fill="rgb(142,39,0)" height="5px" width="5px" x="64px" y="100px" /><rect fill="rgb(16,16,4)" height="5px" opacity="0.243137254902" width="5px" x="68px" y="100px" /><rect fill="rgb(142,39,0)" height="5px" width="5px" x="80px" y="100px" /><rect fill="rgb(142,39,0)" height="5px" width="5px" x="84px" y="100px" /><rect fill="rgb(142,39,0)" height="5px" width="5px" x="28px" y="104px" /><rect fill="rgb(15,15,0)" height="5px" opacity="0.0627450980392" width="5px" x="40px" y="104px" /><rect fill="rgb(142,39,0)" height="5px" width="5px" x="44px" y="104px" /><rect fill="rgb(142,39,0)" height="5px" width="5px" x="48px" y="104px" /><rect fill="rgb(142,39,0)" height="5px" width="5px" x="64px" y="104px" /><rect fill="rgb(16,16,5)" height="5px" opacity="0.18431372549" width="5px" x="80px" y="104px" /><rect fill="rgb(142,39,0)" height="5px" width="5px" x="84px" y="104px" /><rect fill="rgb(142,39,0)" height="5px" width="5px" x="28px" y="108px" /><rect fill="rgb(18,18,6)" height="5px" opacity="0.160784313725" width="5px" x="44px" y="108px" /><rect fill="rgb(142,39,0)" height="5px" width="5px" x="48px" y="108px" /><rect fill="rgb(142,39,0)" height="5px" width="5px" x="64px" y="108px" /><rect fill="rgb(18,18,0)" height="5px" opacity="0.109803921569" width="5px" x="68px" y="108px" /><rect fill="rgb(17,17,5)" height="5px" opacity="0.16862745098" width="5px" x="80px" y="108px" /><rect fill="rgb(142,39,0)" height="5px" width="5px" x="84px" y="108px" /><rect fill="rgb(18,18,3)" height="5px" opacity="0.333333333333" width="5px" x="88px" y="108px" /></svg>