<?xml version="1.0" encoding="utf-8" ?>
<svg baseProfile="full" height="128px" version="1.1" width="128px" xmlns="http://www.w3.org/2000/svg" xmlns:ev="http://www.w3.org/2001/xml-events" xmlns:xlink="http://www.w3.org/1999/xlink"><defs /><rect fill="rgb(246,191,191)" height="5px" width="5px" x="60px" y="0px" /><rect fill="rgb(246,191,191)" height="5px" width="5px" x="64px" y="0px" /><rect fill="rgb(220,235,246)" height="5px" width="5px" x="56px" y="4px" /><rect fill="rgb(238,127,127)" height="5px" width="5px" x="60px" y="4px" /><rect fill="rgb(238,127,127)" height="5px" width="5px" x="64px" y="4px" /><rect fill="rgb(220,235,246)" height="5px" width="5px" x="68px" y="4px" /><rect fill="rgb(185,216,238)" height="5px" width="5px" x="56px" y="8px" /><rect fill="rgb(255,255,255)" height="5px" width="5px" x="60px" y="8px" /><rect fill="rgb(255,255,255)" height="5px" width="5px" x="64px" y="8px" /><rect fill="rgb(185,216,238)" height="5px" width="5px" x="68px" y="8px" /><rect fill="rgb(185,216,238)" height="5px" width="5px" x="56px" y="12px" /><rect fill="rgb(255,255,255)" height="5px" width="5px" x="60px" y="12px" /><rect fill="rgb(255,255,255)" height="5px" width="5px" x="64px" y="12px" /><rect fill="rgb(185,216,238)" height="5px" width="5px" x="68px" y="12px" /><rect fill="rgb(185,216,238)" height="5px" width="5px" x="56px" y="16px" /><rect fill="rgb(185,216,238)" height="5px" width="5px" x="60px" y="16px" /><rect fill="rgb(185,216,238)" height="5px" width="5px" x="64px" y="16px" /><rect fill="rgb(185,216,238)" height="5px" width="5px" x="68px" y="16px" /><rect fill="rgb(61,137,127)" height="5px" width="5px" x="56px" y="20px" /><rect fill="rgb(131,176,144)" height="5px" width="5px" x="60px" y="20px" /><rect fill="rgb(131,176,144)" height="5px" width="5px" x="64px" y="20px" /><rect fill="rgb(61,137,127)" height="5px" width="5px" x="68px" y="20px" /><rect fill="rgb(220,235,246)" height="5px" width="5px" x="52px" y="24px" /><rect fill="rgb(185,216,238)" height="5px" width="5px" x="56px" y="24px" /><rect fill="rgb(131,176,144)" height="5px" width="5px" x="60px" y="24px" /><rect fill="rgb(131,176,144)" height="5px" width="5px" x="64px" y="24px" /><rect fill="rgb(185,216,238)" height="5px" width="5px" x="68px" y="24px" /><rect fill="rgb(220,235,246)" height="5px" width="5px" x="72px" y="24px" /><rect fill="rgb(185,216,238)" height="5px" width="5px" x="52px" y="28px" /><rect fill="rgb(96,156,135)" height="5px" width="5px" x="56px" y="28px" /><rect fill="rgb(185,216,238)" height="5px" width="5px" x="60px" y="28px" /><rect fill="rgb(61,137,127)" height="5px" width="5px" x="64px" y="28px" /><rect fill="rgb(220,235,246)" height="5px" width="5px" x="68px" y="28px" /><rect fill="rgb(185,216,238)" height="5px" width="5px" x="72px" y="28px" /><rect fill="rgb(185,216,238)" height="5px" width="5px" x="52px" y="32px" /><rect fill="rgb(131,176,144)" height="5px" width="5px" x="56px" y="32px" /><rect fill="rgb(131,176,144)" height="5px" width="5px" x="60px" y="32px" /><rect fill="rgb(131,176,144)" height="5px" width="5px" x="64px" y="32px" /><rect fill="rgb(131,176,144)" height="5px" width="5px" x="68px" y="32px" /><rect fill="rgb(185,216,238)" height="5px" width="5px" x="72px" y="32px" /><rect fill="rgb(185,216,238)" height="5px" width="5px" x="52px" y="36px" /><rect fill="rgb(131,176,144)" height="5px" width="5px" x="56px" y="36px" /><rect fill="rgb(131,176,144)" height="5px" width="5px" x="60px" y="36px" /><rect fill="rgb(131,176,144)" height="5px" width="5px" x="64px" y="36px" /><rect fill="rgb(131,176,144)" height="5px" width="5px" x="68px" y="36px" /><rect fill="rgb(185,216,238)" height="5px" width="5px" x="72px" y="36px" /><rect fill="rgb(185,216,238)" height="5px" width="5px" x="52px" y="40px" /><rect fill="rgb(8,97,33)" height="5px" width="5px" x="56px" y="40px" /><rect fill="rgb(131,176,144)" height="5px" width="5px" x="60px" y="40px" /><rect fill="rgb(8,97,33)" height="5px" width="5px" x="64px" y="40px" /><rect fill="rgb(131,176,144)" height="5px" width="5px" x="68px" y="40px" /><rect fill="rgb(185,216,238)" height="5px" width="5px" x="72px" y="40px" /><rect fill="rgb(185,216,238)" height="5px" width="5px" x="52px" y="44px" /><rect fill="rgb(8,97,33)" height="5px" width="5px" x="56px" y="44px" /><rect fill="rgb(8,97,33)" height="5px" width="5px" x="60px" y="44px" /><rect fill="rgb(8,97,33)" height="5px" width="5px" x="64px" y="44px" /><rect fill="rgb(8,97,33)" height="5px" width="5px" x="68px" y="44px" /><rect fill="rgb(185,216,238)" height="5px" width="5px" x="72px" y="44px" /><rect fill="rgb(185,216,238)" height="5px" width="5px" x="52px" y="48px" /><rect fill="rgb(8,97,33)" height="5px" width="5px" x="56px" y="48px" /><rect fill="rgb(8,97,33)" height="5px" width="5px" x="60px" y="48px" /><rect fill="rgb(8,97,33)" height="5px" width="5px" x="64px" y="48px" /><rect fill="rgb(8,97,33)" height="5px" width="5px" x="68px" y="48px" /><rect fill="rgb(185,216,238)" height="5px" width="5px" x="72px" y="48px" /><rect fill="rgb(185,216,238)" height="5px" width="5px" x="52px" y="52px" /><rect fill="rgb(8,97,33)" height="5px" width="5px" x="56px" y="52px" /><rect fill="rgb(8,97,33)" height="5px" width="5px" x="60px" y="52px" /><rect fill="rgb(8,97,33)" height="5px" width="5px" x="64px" y="52px" /><rect fill="rgb(8,97,33)" height="5px" width="5px" x="68px" y="52px" /><rect fill="rgb(185,216,238)" height="5px" width="5px" x="72px" y="52px" /><rect fill="rgb(185,216,238)" height="5px" width="5px" x="52px" y="56px" /><rect fill="rgb(8,97,33)" height="5px" width="5px" x="56px" y="56px" /><rect fill="rgb(8,97,33)" height="5px" width="5px" x="60px" y="56px" /><rect fill="rgb(8,97,33)" height="5px" width="5px" x="64px" y="56px" /><rect fill="rgb(8,97,33)" height="5px" width="5px" x="68px" y="56px" /><rect fill="rgb(185,216,238)" height="5px" width="5px" x="72px" y="56px" /><rect fill="rgb(185,216,238)" height="5px" width="5px" x="52px" y="60px" /><rect fill="rgb(8,97,33)" height="5px" width="5px" x="56px" y="60px" /><rect fill="rgb(8,97,33)" height="5px" width="5px" x="60px" y="60px" /><rect fill="rgb(8,97,33)" height="5px" width="5px" x="64px" y="60px" /><rect fill="rgb(8,97,33)" height="5px" width="5px" x="68px" y="60px" /><rect fill="rgb(185,216,238)" height="5px" width="5px" x="72px" y="60px" /><rect fill="rgb(185,216,238)" height="5px" width="5px" x="52px" y="64px" /><rect fill="rgb(8,97,33)" height="5px" width="5px" x="56px" y="64px" /><rect fill="rgb(8,97,33)" height="5px" width="5px" x="60px" y="64px" /><rect fill="rgb(8,97,33)" height="5px" width="5px" x="64px" y="64px" /><rect fill="rgb(8,97,33)" height="5px" width="5px" x="68px" y="64px" /><rect fill="rgb(185,216,238)" height="5px" width="5px" x="72px" y="64px" /><rect fill="rgb(185,216,238)" height="5px" width="5px" x="52px" y="68px" /><rect fill="rgb(8,97,33)" height="5px" width="5px" x="56px" y="68px" /><rect fill="rgb(8,97,33)" height="5px" width="5px" x="60px" y="68px" /><rect fill="rgb(8,97,33)" height="5px" width="5px" x="64px" y="68px" /><rect fill="rgb(8,97,33)" height="5px" width="5px" x="68px" y="68px" /><rect fill="rgb(185,216,238)" height="5px" width="5px" x="72px" y="68px" /><rect fill="rgb(185,216,238)" height="5px" width="5px" x="52px" y="72px" /><rect fill="rgb(8,97,33)" height="5px" width="5px" x="56px" y="72px" /><rect fill="rgb(8,97,33)" height="5px" width="5px" x="60px" y="72px" /><rect fill="rgb(8,97,33)" height="5px" width="5px" x="64px" y="72px" /><rect fill="rgb(8,97,33)" height="5px" width="5px" x="68px" y="72px" /><rect fill="rgb(185,216,238)" height="5px" width="5px" x="72px" y="72px" /><rect fill="rgb(185,216,238)" height="5px" width="5px" x="52px" y="76px" /><rect fill="rgb(8,97,33)" height="5px" width="5px" x="56px" y="76px" /><rect fill="rgb(8,97,33)" height="5px" width="5px" x="60px" y="76px" /><rect fill="rgb(8,97,33)" height="5px" width="5px" x="64px" y="76px" /><rect fill="rgb(8,97,33)" height="5px" width="5px" x="68px" y="76px" /><rect fill="rgb(185,216,238)" height="5px" width="5px" x="72px" y="76px" /><rect fill="rgb(185,216,238)" height="5px" width="5px" x="52px" y="80px" /><rect fill="rgb(8,97,33)" height="5px" width="5px" x="56px" y="80px" /><rect fill="rgb(8,97,33)" height="5px" width="5px" x="60px" y="80px" /><rect fill="rgb(8,97,33)" height="5px" width="5px" x="64px" y="80px" /><rect fill="rgb(8,97,33)" height="5px" width="5px" x="68px" y="80px" /><rect fill="rgb(185,216,238)" height="5px" width="5px" x="72px" y="80px" /><rect fill="rgb(185,216,238)" height="5px" width="5px" x="52px" y="84px" /><rect fill="rgb(8,97,33)" height="5px" width="5px" x="56px" y="84px" /><rect fill="rgb(8,97,33)" height="5px" width="5px" x="60px" y="84px" /><rect fill="rgb(8,97,33)" height="5px" width="5px" x="64px" y="84px" /><rect fill="rgb(8,97,33)" height="5px" width="5px" x="68px" y="84px" /><rect fill="rgb(185,216,238)" height="5px" width="5px" x="72px" y="84px" /><rect fill="rgb(185,216,238)" height="5px" width="5px" x="52px" y="88px" /><rect fill="rgb(8,97,33)" height="5px" width="5px" x="56px" y="88px" /><rect fill="rgb(8,97,33)" height="5px" width="5px" x="60px" y="88px" /><rect fill="rgb(8,97,33)" height="5px" width="5px" x="64px" y="88px" /><rect fill="rgb(8,97,33)" height="5px" width="5px" x="68px" y="88px" /><rect fill="rgb(185,216,238)" height="5px" width="5px" x="72px" y="88px" /><rect fill="rgb(185,216,238)" height="5px" width="5px" x="52px" y="92px" /><rect fill="rgb(8,97,33)" height="5px" width="5px" x="56px" y="92px" /><rect fill="rgb(8,97,33)" height="5px" width="5px" x="60px" y="92px" /><rect fill="rgb(8,97,33)" height="5px" width="5px" x="64px" y="92px" /><rect fill="rgb(8,97,33)" height="5px" width="5px" x="68px" y="92px" /><rect fill="rgb(185,216,238)" height="5px" width="5px" x="72px" y="92px" /><rect fill="rgb(185,216,238)" height="5px" width="5px" x="52px" y="96px" /><rect fill="rgb(8,97,33)" height="5px" width="5px" x="56px" y="96px" /><rect fill="rgb(8,97,33)" height="5px" width="5px" x="60px" y="96px" /><rect fill="rgb(8,97,33)" height="5px" width="5px" x="64px" y="96px" /><rect fill="rgb(8,97,33)" height="5px" width="5px" x="68px" y="96px" /><rect fill="rgb(185,216,238)" height="5px" width="5px" x="72px" y="96px" /><rect fill="rgb(185,216,238)" height="5px" width="5px" x="52px" y="100px" /><rect fill="rgb(8,97,33)" height="5px" width="5px" x="56px" y="100px" /><rect fill="rgb(8,97,33)" height="5px" width="5px" x="60px" y="100px" /><rect fill="rgb(8,97,33)" height="5px" width="5px" x="64px" y="100px" /><rect fill="rgb(8,97,33)" height="5px" width="5px" x="68px" y="100px" /><rect fill="rgb(185,216,238)" height="5px" width="5px" x="72px" y="100px" /><rect fill="rgb(185,216,238)" height="5px" width="5px" x="52px" y="104px" /><rect fill="rgb(8,97,33)" height="5px" width="5px" x="56px" y="104px" /><rect fill="rgb(8,97,33)" height="5px" width="5px" x="60px" y="104px" /><rect fill="rgb(8,97,33)" height="5px" width="5px" x="64px" y="104px" /><rect fill="rgb(8,97,33)" height="5px" width="5px" x="68px" y="104px" /><rect fill="rgb(185,216,238)" height="5px" width="5px" x="72px" y="104px" /><rect fill="rgb(185,216,238)" height="5px" width="5px" x="52px" y="108px" /><rect fill="rgb(8,97,33)" height="5px" width="5px" x="56px" y="108px" /><rect fill="rgb(8,97,33)" height="5px" width="5px" x="60px" y="108px" /><rect fill="rgb(8,97,33)" height="5px" width="5px" x="64px" y="108px" /><rect fill="rgb(8,97,33)" height="5px" width="5px" x="68px" y="108px" /><rect fill="rgb(185,216,238)" height="5px" width="5px" x="72px" y="108px" /><rect fill="rgb(185,216,238)" height="5px" width="5px" x="52px" y="112px" /><rect fill="rgb(8,97,33)" height="5px" width="5px" x="56px" y="112px" /><rect fill="rgb(8,97,33)" height="5px" width="5px" x="60px" y="112px" /><rect fill="rgb(8,97,33)" height="5px" width="5px" x="64px" y="112px" /><rect fill="rgb(8,97,33)" height="5px" width="5px" x="68px" y="112px" /><rect fill="rgb(185,216,238)" height="5px" width="5px" x="72px" y="112px" /><rect fill="rgb(185,216,238)" height="5px" width="5px" x="52px" y="116px" /><rect fill="rgb(8,97,33)" height="5px" width="5px" x="56px" y="116px" /><rect fill="rgb(8,97,33)" height="5px" width="5px" x="60px" y="116px" /><rect fill="rgb(8,97,33)" height="5px" width="5px" x="64px" y="116px" /><rect fill="rgb(8,97,33)" height="5px" width="5px" x="68px" y="116px" /><rect fill="rgb(185,216,238)" height="5px" width="5px" x="72px" y="116px" /><rect fill="rgb(220,235,246)" height="5px" width="5px" x="52px" y="120px" /><rect fill="rgb(61,137,127)" height="5px" width="5px" x="56px" y="120px" /><rect fill="rgb(8,97,33)" height="5px" width="5px" x="60px" y="120px" /><rect fill="rgb(8,97,33)" height="5px" width="5px" x="64px" y="120px" /><rect fill="rgb(61,137,127)" height="5px" width="5px" x="68px" y="120px" /><rect fill="rgb(220,235,246)" height="5px" width="5px" x="72px" y="120px" /><rect fill="rgb(220,235,246)" height="5px" width="5px" x="56px" y="124px" /><rect fill="rgb(185,216,238)" height="5px" width="5px" x="60px" y="124px" /><rect fill="rgb(185,216,238)" height="5px" width="5px" x="64px" y="124px" /><rect fill="rgb(220,235,246)" height="5px" width="5px" x="68px" y="124px" /></svg>