<?xml version="1.0" encoding="utf-8" ?>
<svg baseProfile="full" height="128px" version="1.1" width="128px" xmlns="http://www.w3.org/2000/svg" xmlns:ev="http://www.w3.org/2001/xml-events" xmlns:xlink="http://www.w3.org/1999/xlink"><defs /><rect fill="rgb(0,0,0)" height="5px" opacity="0.258823529412" width="5px" x="52px" y="28px" /><rect fill="rgb(0,0,0)" height="5px" opacity="0.0862745098039" width="5px" x="48px" y="32px" /><rect fill="rgb(0,0,0)" height="5px" opacity="0.980392156863" width="5px" x="52px" y="32px" /><rect fill="rgb(0,0,0)" height="5px" opacity="0.972549019608" width="5px" x="48px" y="36px" /><rect fill="rgb(0,0,0)" height="5px" opacity="0.996078431373" width="5px" x="52px" y="36px" /><rect fill="rgb(0,0,0)" height="5px" opacity="0.752941176471" width="5px" x="44px" y="40px" /><rect fill="rgb(0,0,0)" height="5px" width="5px" x="48px" y="40px" /><rect fill="rgb(0,0,0)" height="5px" opacity="0.996078431373" width="5px" x="52px" y="40px" /><rect fill="rgb(0,0,0)" height="5px" opacity="0.996078431373" width="5px" x="44px" y="44px" /><rect fill="rgb(0,0,0)" height="5px" width="5px" x="48px" y="44px" /><rect fill="rgb(0,0,0)" height="5px" width="5px" x="52px" y="44px" /><rect fill="rgb(0,0,0)" height="5px" opacity="0.992156862745" width="5px" x="44px" y="48px" /><rect fill="rgb(0,0,0)" height="5px" width="5px" x="48px" y="48px" /><rect fill="rgb(0,0,0)" height="5px" width="5px" x="52px" y="48px" /><rect fill="rgb(0,0,0)" height="5px" width="5px" x="56px" y="48px" /><rect fill="rgb(0,0,0)" height="5px" width="5px" x="60px" y="48px" /><rect fill="rgb(0,0,0)" height="5px" width="5px" x="64px" y="48px" /><rect fill="rgb(0,0,0)" height="5px" width="5px" x="68px" y="48px" /><rect fill="rgb(0,0,0)" height="5px" width="5px" x="72px" y="48px" /><rect fill="rgb(0,0,0)" height="5px" width="5px" x="76px" y="48px" /><rect fill="rgb(0,0,0)" height="5px" width="5px" x="80px" y="48px" /><rect fill="rgb(0,0,0)" height="5px" width="5px" x="84px" y="48px" /><rect fill="rgb(0,0,0)" height="5px" width="5px" x="88px" y="48px" /><rect fill="rgb(0,0,0)" height="5px" width="5px" x="92px" y="48px" /><rect fill="rgb(0,0,0)" height="5px" width="5px" x="96px" y="48px" /><rect fill="rgb(0,0,0)" height="5px" width="5px" x="100px" y="48px" /><rect fill="rgb(0,0,0)" height="5px" width="5px" x="104px" y="48px" /><rect fill="rgb(0,0,0)" height="5px" width="5px" x="108px" y="48px" /><rect fill="rgb(0,0,0)" height="5px" width="5px" x="112px" y="48px" /><rect fill="rgb(0,0,0)" height="5px" width="5px" x="116px" y="48px" /><rect fill="rgb(0,0,0)" height="5px" opacity="0.992156862745" width="5px" x="44px" y="52px" /><rect fill="rgb(0,0,0)" height="5px" width="5px" x="48px" y="52px" /><rect fill="rgb(0,0,0)" height="5px" width="5px" x="52px" y="52px" /><rect fill="rgb(0,0,0)" height="5px" opacity="0.988235294118" width="5px" x="44px" y="56px" /><rect fill="rgb(0,0,0)" height="5px" width="5px" x="48px" y="56px" /><rect fill="rgb(0,0,0)" height="5px" width="5px" x="52px" y="56px" /><rect fill="rgb(0,0,0)" height="5px" width="5px" x="44px" y="60px" /><rect fill="rgb(0,0,0)" height="5px" width="5px" x="48px" y="60px" /><rect fill="rgb(0,0,0)" height="5px" width="5px" x="52px" y="60px" /><rect fill="rgb(0,0,0)" height="5px" width="5px" x="40px" y="80px" /><rect fill="rgb(0,0,0)" height="5px" width="5px" x="44px" y="80px" /><rect fill="rgb(0,0,0)" height="5px" width="5px" x="48px" y="80px" /><rect fill="rgb(0,0,0)" height="5px" width="5px" x="52px" y="80px" /><rect fill="rgb(0,0,0)" height="5px" width="5px" x="56px" y="80px" /><rect fill="rgb(0,0,0)" height="5px" width="5px" x="60px" y="80px" /><rect fill="rgb(0,0,0)" height="5px" width="5px" x="64px" y="80px" /><rect fill="rgb(0,0,0)" height="5px" width="5px" x="68px" y="80px" /><rect fill="rgb(0,0,0)" height="5px" width="5px" x="72px" y="80px" /><rect fill="rgb(0,0,0)" height="5px" width="5px" x="76px" y="80px" /><rect fill="rgb(0,0,0)" height="5px" width="5px" x="80px" y="80px" /><rect fill="rgb(0,0,0)" height="5px" width="5px" x="84px" y="80px" /><rect fill="rgb(0,0,0)" height="5px" width="5px" x="88px" y="80px" /><rect fill="rgb(0,0,0)" height="5px" width="5px" x="92px" y="80px" /><rect fill="rgb(0,0,0)" height="5px" width="5px" x="96px" y="80px" /><rect fill="rgb(0,0,0)" height="5px" width="5px" x="100px" y="80px" /><rect fill="rgb(0,0,0)" height="5px" width="5px" x="104px" y="80px" /><rect fill="rgb(0,0,0)" height="5px" width="5px" x="108px" y="80px" /><rect fill="rgb(0,0,0)" height="5px" opacity="0.0705882352941" width="5px" x="12px" y="84px" /><rect fill="rgb(0,0,0)" height="5px" opacity="0.682352941176" width="5px" x="16px" y="84px" /><rect fill="rgb(0,0,0)" height="5px" opacity="0.850980392157" width="5px" x="20px" y="84px" /><rect fill="rgb(0,0,0)" height="5px" opacity="0.890196078431" width="5px" x="24px" y="84px" /><rect fill="rgb(0,0,0)" height="5px" opacity="0.890196078431" width="5px" x="28px" y="84px" /><rect fill="rgb(0,0,0)" height="5px" opacity="0.929411764706" width="5px" x="32px" y="84px" /><rect fill="rgb(0,0,0)" height="5px" opacity="0.929411764706" width="5px" x="36px" y="84px" /><rect fill="rgb(0,0,0)" height="5px" opacity="0.980392156863" width="5px" x="40px" y="84px" /><rect fill="rgb(0,0,0)" height="5px" width="5px" x="44px" y="84px" /><rect fill="rgb(0,0,0)" height="5px" width="5px" x="48px" y="84px" /><rect fill="rgb(0,0,0)" height="5px" width="5px" x="52px" y="84px" /><rect fill="rgb(0,0,0)" height="5px" width="5px" x="56px" y="84px" /><rect fill="rgb(0,0,0)" height="5px" width="5px" x="60px" y="84px" /><rect fill="rgb(0,0,0)" height="5px" width="5px" x="64px" y="84px" /><rect fill="rgb(0,0,0)" height="5px" width="5px" x="68px" y="84px" /><rect fill="rgb(0,0,0)" height="5px" width="5px" x="72px" y="84px" /><rect fill="rgb(0,0,0)" height="5px" width="5px" x="76px" y="84px" /><rect fill="rgb(0,0,0)" height="5px" width="5px" x="80px" y="84px" /><rect fill="rgb(0,0,0)" height="5px" width="5px" x="84px" y="84px" /><rect fill="rgb(0,0,0)" height="5px" width="5px" x="88px" y="84px" /><rect fill="rgb(0,0,0)" height="5px" width="5px" x="92px" y="84px" /><rect fill="rgb(0,0,0)" height="5px" width="5px" x="96px" y="84px" /><rect fill="rgb(0,0,0)" height="5px" width="5px" x="100px" y="84px" /><rect fill="rgb(0,0,0)" height="5px" width="5px" x="104px" y="84px" /><rect fill="rgb(0,0,0)" height="5px" opacity="0.972549019608" width="5px" x="108px" y="84px" /><rect fill="rgb(0,0,0)" height="5px" opacity="0.0156862745098" width="5px" x="16px" y="88px" /><rect fill="rgb(0,0,0)" height="5px" opacity="0.588235294118" width="5px" x="20px" y="88px" /><rect fill="rgb(0,0,0)" height="5px" opacity="0.980392156863" width="5px" x="24px" y="88px" /><rect fill="rgb(0,0,0)" height="5px" width="5px" x="28px" y="88px" /><rect fill="rgb(0,0,0)" height="5px" width="5px" x="32px" y="88px" /><rect fill="rgb(0,0,0)" height="5px" width="5px" x="36px" y="88px" /><rect fill="rgb(0,0,0)" height="5px" width="5px" x="40px" y="88px" /><rect fill="rgb(0,0,0)" height="5px" width="5px" x="44px" y="88px" /><rect fill="rgb(0,0,0)" height="5px" width="5px" x="48px" y="88px" /><rect fill="rgb(0,0,0)" height="5px" width="5px" x="52px" y="88px" /><rect fill="rgb(0,0,0)" height="5px" width="5px" x="56px" y="88px" /><rect fill="rgb(0,0,0)" height="5px" width="5px" x="60px" y="88px" /><rect fill="rgb(0,0,0)" height="5px" width="5px" x="64px" y="88px" /><rect fill="rgb(0,0,0)" height="5px" width="5px" x="68px" y="88px" /><rect fill="rgb(0,0,0)" height="5px" width="5px" x="72px" y="88px" /><rect fill="rgb(0,0,0)" height="5px" width="5px" x="76px" y="88px" /><rect fill="rgb(0,0,0)" height="5px" width="5px" x="80px" y="88px" /><rect fill="rgb(0,0,0)" height="5px" width="5px" x="84px" y="88px" /><rect fill="rgb(0,0,0)" height="5px" width="5px" x="88px" y="88px" /><rect fill="rgb(0,0,0)" height="5px" width="5px" x="92px" y="88px" /><rect fill="rgb(0,0,0)" height="5px" width="5px" x="96px" y="88px" /><rect fill="rgb(0,0,0)" height="5px" width="5px" x="100px" y="88px" /><rect fill="rgb(0,0,0)" height="5px" opacity="0.909803921569" width="5px" x="104px" y="88px" /><rect fill="rgb(0,0,0)" height="5px" opacity="0.6" width="5px" x="108px" y="88px" /><rect fill="rgb(0,0,0)" height="5px" opacity="0.0156862745098" width="5px" x="24px" y="92px" /><rect fill="rgb(0,0,0)" height="5px" opacity="0.556862745098" width="5px" x="28px" y="92px" /><rect fill="rgb(0,0,0)" height="5px" opacity="0.980392156863" width="5px" x="32px" y="92px" /><rect fill="rgb(0,0,0)" height="5px" width="5px" x="36px" y="92px" /><rect fill="rgb(0,0,0)" height="5px" width="5px" x="40px" y="92px" /><rect fill="rgb(0,0,0)" height="5px" width="5px" x="44px" y="92px" /><rect fill="rgb(0,0,0)" height="5px" width="5px" x="48px" y="92px" /><rect fill="rgb(0,0,0)" height="5px" width="5px" x="52px" y="92px" /><rect fill="rgb(0,0,0)" height="5px" width="5px" x="56px" y="92px" /><rect fill="rgb(0,0,0)" height="5px" width="5px" x="60px" y="92px" /><rect fill="rgb(0,0,0)" height="5px" width="5px" x="64px" y="92px" /><rect fill="rgb(0,0,0)" height="5px" width="5px" x="68px" y="92px" /><rect fill="rgb(0,0,0)" height="5px" width="5px" x="72px" y="92px" /><rect fill="rgb(0,0,0)" height="5px" width="5px" x="76px" y="92px" /><rect fill="rgb(0,0,0)" height="5px" width="5px" x="80px" y="92px" /><rect fill="rgb(0,0,0)" height="5px" width="5px" x="84px" y="92px" /><rect fill="rgb(0,0,0)" height="5px" width="5px" x="88px" y="92px" /><rect fill="rgb(0,0,0)" height="5px" width="5px" x="92px" y="92px" /><rect fill="rgb(0,0,0)" height="5px" opacity="0.960784313725" width="5px" x="96px" y="92px" /><rect fill="rgb(0,0,0)" height="5px" opacity="0.38431372549" width="5px" x="100px" y="92px" /><rect fill="rgb(0,0,0)" height="5px" opacity="0.0470588235294" width="5px" x="32px" y="96px" /><rect fill="rgb(0,0,0)" height="5px" opacity="0.643137254902" width="5px" x="36px" y="96px" /><rect fill="rgb(0,0,0)" height="5px" opacity="0.988235294118" width="5px" x="40px" y="96px" /><rect fill="rgb(0,0,0)" height="5px" width="5px" x="44px" y="96px" /><rect fill="rgb(0,0,0)" height="5px" width="5px" x="48px" y="96px" /><rect fill="rgb(0,0,0)" height="5px" width="5px" x="52px" y="96px" /><rect fill="rgb(0,0,0)" height="5px" width="5px" x="56px" y="96px" /><rect fill="rgb(0,0,0)" height="5px" width="5px" x="60px" y="96px" /><rect fill="rgb(0,0,0)" height="5px" width="5px" x="64px" y="96px" /><rect fill="rgb(0,0,0)" height="5px" width="5px" x="68px" y="96px" /><rect fill="rgb(0,0,0)" height="5px" width="5px" x="72px" y="96px" /><rect fill="rgb(0,0,0)" height="5px" width="5px" x="76px" y="96px" /><rect fill="rgb(0,0,0)" height="5px" width="5px" x="80px" y="96px" /><rect fill="rgb(0,0,0)" height="5px" width="5px" x="84px" y="96px" /><rect fill="rgb(0,0,0)" height="5px" width="5px" x="88px" y="96px" /><rect fill="rgb(0,0,0)" height="5px" opacity="0.749019607843" width="5px" x="92px" y="96px" /><rect fill="rgb(0,0,0)" height="5px" opacity="0.0156862745098" width="5px" x="96px" y="96px" /><rect fill="rgb(0,0,0)" height="5px" opacity="0.00392156862745" width="5px" x="40px" y="100px" /><rect fill="rgb(0,0,0)" height="5px" opacity="0.0078431372549" width="5px" x="44px" y="100px" /><rect fill="rgb(0,0,0)" height="5px" opacity="0.211764705882" width="5px" x="48px" y="100px" /><rect fill="rgb(0,0,0)" height="5px" width="5px" x="52px" y="100px" /><rect fill="rgb(0,0,0)" height="5px" width="5px" x="56px" y="100px" /><rect fill="rgb(0,0,0)" height="5px" width="5px" x="60px" y="100px" /><rect fill="rgb(0,0,0)" height="5px" width="5px" x="64px" y="100px" /><rect fill="rgb(0,0,0)" height="5px" width="5px" x="68px" y="100px" /><rect fill="rgb(0,0,0)" height="5px" width="5px" x="72px" y="100px" /><rect fill="rgb(0,0,0)" height="5px" width="5px" x="76px" y="100px" /><rect fill="rgb(0,0,0)" height="5px" width="5px" x="80px" y="100px" /><rect fill="rgb(0,0,0)" height="5px" width="5px" x="84px" y="100px" /><rect fill="rgb(0,0,0)" height="5px" opacity="0.576470588235" width="5px" x="88px" y="100px" /><rect fill="rgb(0,0,0)" height="5px" opacity="0.403921568627" width="5px" x="52px" y="104px" /><rect fill="rgb(0,0,0)" height="5px" width="5px" x="56px" y="104px" /><rect fill="rgb(0,0,0)" height="5px" width="5px" x="60px" y="104px" /><rect fill="rgb(0,0,0)" height="5px" width="5px" x="64px" y="104px" /><rect fill="rgb(0,0,0)" height="5px" width="5px" x="68px" y="104px" /><rect fill="rgb(0,0,0)" height="5px" width="5px" x="72px" y="104px" /><rect fill="rgb(0,0,0)" height="5px" width="5px" x="76px" y="104px" /><rect fill="rgb(0,0,0)" height="5px" width="5px" x="80px" y="104px" /><rect fill="rgb(0,0,0)" height="5px" opacity="0.921568627451" width="5px" x="84px" y="104px" /><rect fill="rgb(0,0,0)" height="5px" opacity="0.403921568627" width="5px" x="52px" y="108px" /><rect fill="rgb(0,0,0)" height="5px" width="5px" x="56px" y="108px" /><rect fill="rgb(0,0,0)" height="5px" width="5px" x="60px" y="108px" /><rect fill="rgb(0,0,0)" height="5px" width="5px" x="64px" y="108px" /><rect fill="rgb(0,0,0)" height="5px" width="5px" x="68px" y="108px" /><rect fill="rgb(0,0,0)" height="5px" width="5px" x="72px" y="108px" /><rect fill="rgb(0,0,0)" height="5px" width="5px" x="76px" y="108px" /><rect fill="rgb(0,0,0)" height="5px" width="5px" x="80px" y="108px" /><rect fill="rgb(0,0,0)" height="5px" width="5px" x="84px" y="108px" /><rect fill="rgb(0,0,0)" height="5px" opacity="0.541176470588" width="5px" x="44px" y="112px" /><rect fill="rgb(0,0,0)" height="5px" width="5px" x="48px" y="112px" /><rect fill="rgb(0,0,0)" height="5px" width="5px" x="52px" y="112px" /><rect fill="rgb(0,0,0)" height="5px" width="5px" x="56px" y="112px" /><rect fill="rgb(0,0,0)" height="5px" width="5px" x="60px" y="112px" /><rect fill="rgb(0,0,0)" height="5px" width="5px" x="64px" y="112px" /><rect fill="rgb(0,0,0)" height="5px" width="5px" x="68px" y="112px" /><rect fill="rgb(0,0,0)" height="5px" width="5px" x="72px" y="112px" /><rect fill="rgb(0,0,0)" height="5px" width="5px" x="76px" y="112px" /><rect fill="rgb(0,0,0)" height="5px" width="5px" x="80px" y="112px" /><rect fill="rgb(0,0,0)" height="5px" width="5px" x="84px" y="112px" /><rect fill="rgb(0,0,0)" height="5px" opacity="0.776470588235" width="5px" x="88px" y="112px" /><rect fill="rgb(0,0,0)" height="5px" opacity="0.0156862745098" width="5px" x="40px" y="116px" /><rect fill="rgb(0,0,0)" height="5px" opacity="0.898039215686" width="5px" x="44px" y="116px" /><rect fill="rgb(0,0,0)" height="5px" opacity="0.960784313725" width="5px" x="48px" y="116px" /><rect fill="rgb(0,0,0)" height="5px" opacity="0.960784313725" width="5px" x="52px" y="116px" /><rect fill="rgb(0,0,0)" height="5px" opacity="0.960784313725" width="5px" x="56px" y="116px" /><rect fill="rgb(0,0,0)" height="5px" opacity="0.960784313725" width="5px" x="60px" y="116px" /><rect fill="rgb(0,0,0)" height="5px" opacity="0.960784313725" width="5px" x="64px" y="116px" /><rect fill="rgb(0,0,0)" height="5px" opacity="0.960784313725" width="5px" x="68px" y="116px" /><rect fill="rgb(0,0,0)" height="5px" opacity="0.960784313725" width="5px" x="72px" y="116px" /><rect fill="rgb(0,0,0)" height="5px" opacity="0.960784313725" width="5px" x="76px" y="116px" /><rect fill="rgb(0,0,0)" height="5px" opacity="0.960784313725" width="5px" x="80px" y="116px" /><rect fill="rgb(0,0,0)" height="5px" opacity="0.960784313725" width="5px" x="84px" y="116px" /><rect fill="rgb(0,0,0)" height="5px" opacity="0.929411764706" width="5px" x="88px" y="116px" /><rect fill="rgb(0,0,0)" height="5px" opacity="0.0313725490196" width="5px" x="92px" y="116px" /></svg>