<?xml version="1.0" encoding="utf-8" ?>
<svg baseProfile="full" height="128px" version="1.1" width="128px" xmlns="http://www.w3.org/2000/svg" xmlns:ev="http://www.w3.org/2001/xml-events" xmlns:xlink="http://www.w3.org/1999/xlink"><defs /><rect fill="rgb(0,0,0)" height="5px" opacity="0.0745098039216" width="5px" x="36px" y="20px" /><rect fill="rgb(0,0,0)" height="5px" opacity="0.486274509804" width="5px" x="40px" y="20px" /><rect fill="rgb(0,0,0)" height="5px" opacity="0.839215686275" width="5px" x="44px" y="20px" /><rect fill="rgb(0,0,0)" height="5px" opacity="0.937254901961" width="5px" x="48px" y="20px" /><rect fill="rgb(0,0,0)" height="5px" opacity="0.976470588235" width="5px" x="52px" y="20px" /><rect fill="rgb(0,0,0)" height="5px" opacity="0.98431372549" width="5px" x="56px" y="20px" /><rect fill="rgb(0,0,0)" height="5px" opacity="0.964705882353" width="5px" x="60px" y="20px" /><rect fill="rgb(0,0,0)" height="5px" opacity="0.933333333333" width="5px" x="64px" y="20px" /><rect fill="rgb(0,0,0)" height="5px" opacity="0.796078431373" width="5px" x="68px" y="20px" /><rect fill="rgb(0,0,0)" height="5px" opacity="0.541176470588" width="5px" x="72px" y="20px" /><rect fill="rgb(0,0,0)" height="5px" opacity="0.109803921569" width="5px" x="76px" y="20px" /><rect fill="rgb(0,0,0)" height="5px" opacity="0.749019607843" width="5px" x="28px" y="24px" /><rect fill="rgb(0,0,0)" height="5px" width="5px" x="32px" y="24px" /><rect fill="rgb(0,0,0)" height="5px" width="5px" x="36px" y="24px" /><rect fill="rgb(0,0,0)" height="5px" width="5px" x="40px" y="24px" /><rect fill="rgb(0,0,0)" height="5px" width="5px" x="44px" y="24px" /><rect fill="rgb(0,0,0)" height="5px" width="5px" x="48px" y="24px" /><rect fill="rgb(0,0,0)" height="5px" width="5px" x="52px" y="24px" /><rect fill="rgb(0,0,0)" height="5px" width="5px" x="56px" y="24px" /><rect fill="rgb(0,0,0)" height="5px" width="5px" x="60px" y="24px" /><rect fill="rgb(0,0,0)" height="5px" width="5px" x="64px" y="24px" /><rect fill="rgb(0,0,0)" height="5px" width="5px" x="68px" y="24px" /><rect fill="rgb(0,0,0)" height="5px" width="5px" x="72px" y="24px" /><rect fill="rgb(0,0,0)" height="5px" width="5px" x="76px" y="24px" /><rect fill="rgb(0,0,0)" height="5px" width="5px" x="80px" y="24px" /><rect fill="rgb(0,0,0)" height="5px" opacity="0.964705882353" width="5px" x="84px" y="24px" /><rect fill="rgb(0,0,0)" height="5px" opacity="0.501960784314" width="5px" x="88px" y="24px" /><rect fill="rgb(0,0,0)" height="5px" opacity="0.38431372549" width="5px" x="20px" y="28px" /><rect fill="rgb(0,0,0)" height="5px" width="5px" x="24px" y="28px" /><rect fill="rgb(0,0,0)" height="5px" width="5px" x="28px" y="28px" /><rect fill="rgb(0,0,0)" height="5px" width="5px" x="32px" y="28px" /><rect fill="rgb(0,0,0)" height="5px" opacity="0.996078431373" width="5px" x="36px" y="28px" /><rect fill="rgb(0,0,0)" height="5px" opacity="0.901960784314" width="5px" x="40px" y="28px" /><rect fill="rgb(0,0,0)" height="5px" opacity="0.682352941176" width="5px" x="44px" y="28px" /><rect fill="rgb(0,0,0)" height="5px" opacity="0.364705882353" width="5px" x="48px" y="28px" /><rect fill="rgb(0,0,0)" height="5px" opacity="0.145098039216" width="5px" x="52px" y="28px" /><rect fill="rgb(0,0,0)" height="5px" width="5px" x="56px" y="28px" /><rect fill="rgb(0,0,0)" height="5px" width="5px" x="60px" y="28px" /><rect fill="rgb(0,0,0)" height="5px" opacity="0.0274509803922" width="5px" x="68px" y="28px" /><rect fill="rgb(0,0,0)" height="5px" opacity="0.466666666667" width="5px" x="72px" y="28px" /><rect fill="rgb(0,0,0)" height="5px" opacity="0.941176470588" width="5px" x="76px" y="28px" /><rect fill="rgb(0,0,0)" height="5px" width="5px" x="80px" y="28px" /><rect fill="rgb(0,0,0)" height="5px" width="5px" x="84px" y="28px" /><rect fill="rgb(0,0,0)" height="5px" width="5px" x="88px" y="28px" /><rect fill="rgb(0,0,0)" height="5px" width="5px" x="92px" y="28px" /><rect fill="rgb(0,0,0)" height="5px" opacity="0.749019607843" width="5px" x="96px" y="28px" /><rect fill="rgb(0,0,0)" height="5px" opacity="0.501960784314" width="5px" x="16px" y="32px" /><rect fill="rgb(0,0,0)" height="5px" width="5px" x="20px" y="32px" /><rect fill="rgb(0,0,0)" height="5px" width="5px" x="24px" y="32px" /><rect fill="rgb(0,0,0)" height="5px" opacity="0.823529411765" width="5px" x="28px" y="32px" /><rect fill="rgb(0,0,0)" height="5px" opacity="0.0274509803922" width="5px" x="32px" y="32px" /><rect fill="rgb(0,0,0)" height="5px" width="5px" x="56px" y="32px" /><rect fill="rgb(0,0,0)" height="5px" width="5px" x="60px" y="32px" /><rect fill="rgb(0,0,0)" height="5px" opacity="0.533333333333" width="5px" x="84px" y="32px" /><rect fill="rgb(0,0,0)" height="5px" width="5px" x="88px" y="32px" /><rect fill="rgb(0,0,0)" height="5px" width="5px" x="92px" y="32px" /><rect fill="rgb(0,0,0)" height="5px" width="5px" x="96px" y="32px" /><rect fill="rgb(0,0,0)" height="5px" width="5px" x="100px" y="32px" /><rect fill="rgb(0,0,0)" height="5px" opacity="0.109803921569" width="5px" x="104px" y="32px" /><rect fill="rgb(0,0,0)" height="5px" opacity="0.0509803921569" width="5px" x="12px" y="36px" /><rect fill="rgb(0,0,0)" height="5px" width="5px" x="16px" y="36px" /><rect fill="rgb(0,0,0)" height="5px" width="5px" x="20px" y="36px" /><rect fill="rgb(0,0,0)" height="5px" opacity="0.160784313725" width="5px" x="24px" y="36px" /><rect fill="rgb(0,0,0)" height="5px" width="5px" x="56px" y="36px" /><rect fill="rgb(0,0,0)" height="5px" width="5px" x="60px" y="36px" /><rect fill="rgb(0,0,0)" height="5px" opacity="0.0274509803922" width="5px" x="88px" y="36px" /><rect fill="rgb(0,0,0)" height="5px" opacity="0.925490196078" width="5px" x="92px" y="36px" /><rect fill="rgb(0,0,0)" height="5px" width="5px" x="96px" y="36px" /><rect fill="rgb(0,0,0)" height="5px" width="5px" x="100px" y="36px" /><rect fill="rgb(0,0,0)" height="5px" width="5px" x="104px" y="36px" /><rect fill="rgb(0,0,0)" height="5px" opacity="0.0823529411765" width="5px" x="108px" y="36px" /><rect fill="rgb(0,0,0)" height="5px" opacity="0.854901960784" width="5px" x="12px" y="40px" /><rect fill="rgb(0,0,0)" height="5px" opacity="0.976470588235" width="5px" x="16px" y="40px" /><rect fill="rgb(0,0,0)" height="5px" width="5px" x="56px" y="40px" /><rect fill="rgb(0,0,0)" height="5px" width="5px" x="60px" y="40px" /><rect fill="rgb(0,0,0)" height="5px" opacity="0.125490196078" width="5px" x="96px" y="40px" /><rect fill="rgb(0,0,0)" height="5px" opacity="0.98431372549" width="5px" x="100px" y="40px" /><rect fill="rgb(0,0,0)" height="5px" width="5px" x="104px" y="40px" /><rect fill="rgb(0,0,0)" height="5px" opacity="0.976470588235" width="5px" x="108px" y="40px" /><rect fill="rgb(0,0,0)" height="5px" opacity="0.43137254902" width="5px" x="12px" y="44px" /><rect fill="rgb(0,0,0)" height="5px" width="5px" x="56px" y="44px" /><rect fill="rgb(0,0,0)" height="5px" width="5px" x="60px" y="44px" /><rect fill="rgb(0,0,0)" height="5px" opacity="0.345098039216" width="5px" x="104px" y="44px" /><rect fill="rgb(0,0,0)" height="5px" opacity="0.996078431373" width="5px" x="108px" y="44px" /><rect fill="rgb(0,0,0)" height="5px" width="5px" x="56px" y="48px" /><rect fill="rgb(0,0,0)" height="5px" width="5px" x="60px" y="48px" /><rect fill="rgb(0,0,0)" height="5px" width="5px" x="56px" y="52px" /><rect fill="rgb(0,0,0)" height="5px" width="5px" x="60px" y="52px" /><rect fill="rgb(0,0,0)" height="5px" width="5px" x="56px" y="56px" /><rect fill="rgb(0,0,0)" height="5px" width="5px" x="60px" y="56px" /><rect fill="rgb(0,0,0)" height="5px" width="5px" x="56px" y="60px" /><rect fill="rgb(0,0,0)" height="5px" width="5px" x="60px" y="60px" /><rect fill="rgb(0,0,0)" height="5px" width="5px" x="56px" y="64px" /><rect fill="rgb(0,0,0)" height="5px" width="5px" x="60px" y="64px" /><rect fill="rgb(0,0,0)" height="5px" width="5px" x="56px" y="68px" /><rect fill="rgb(0,0,0)" height="5px" width="5px" x="60px" y="68px" /><rect fill="rgb(0,0,0)" height="5px" width="5px" x="56px" y="72px" /><rect fill="rgb(0,0,0)" height="5px" width="5px" x="60px" y="72px" /><rect fill="rgb(0,0,0)" height="5px" width="5px" x="56px" y="76px" /><rect fill="rgb(0,0,0)" height="5px" width="5px" x="60px" y="76px" /><rect fill="rgb(0,0,0)" height="5px" width="5px" x="56px" y="80px" /><rect fill="rgb(0,0,0)" height="5px" width="5px" x="60px" y="80px" /><rect fill="rgb(0,0,0)" height="5px" width="5px" x="56px" y="84px" /><rect fill="rgb(0,0,0)" height="5px" width="5px" x="60px" y="84px" /><rect fill="rgb(0,0,0)" height="5px" width="5px" x="56px" y="88px" /><rect fill="rgb(0,0,0)" height="5px" width="5px" x="60px" y="88px" /><rect fill="rgb(0,0,0)" height="5px" width="5px" x="56px" y="92px" /><rect fill="rgb(0,0,0)" height="5px" width="5px" x="60px" y="92px" /><rect fill="rgb(0,0,0)" height="5px" width="5px" x="56px" y="96px" /><rect fill="rgb(0,0,0)" height="5px" width="5px" x="60px" y="96px" /><rect fill="rgb(0,0,0)" height="5px" width="5px" x="56px" y="100px" /><rect fill="rgb(0,0,0)" height="5px" width="5px" x="60px" y="100px" /><rect fill="rgb(0,0,0)" height="5px" width="5px" x="56px" y="104px" /><rect fill="rgb(0,0,0)" height="5px" width="5px" x="60px" y="104px" /><rect fill="rgb(0,0,0)" height="5px" width="5px" x="56px" y="108px" /><rect fill="rgb(0,0,0)" height="5px" width="5px" x="60px" y="108px" /></svg>