<?xml version="1.0" encoding="utf-8" ?>
<svg baseProfile="full" height="128px" version="1.1" width="128px" xmlns="http://www.w3.org/2000/svg" xmlns:ev="http://www.w3.org/2001/xml-events" xmlns:xlink="http://www.w3.org/1999/xlink"><defs /><rect fill="rgb(99,99,99)" height="5px" width="5px" x="48px" y="44px" /><rect fill="rgb(109,106,104)" height="5px" width="5px" x="44px" y="48px" /><rect fill="rgb(64,60,56)" height="5px" width="5px" x="48px" y="48px" /><rect fill="rgb(131,129,127)" height="5px" width="5px" x="52px" y="48px" /><rect fill="rgb(213,164,139)" height="5px" width="5px" x="24px" y="52px" /><rect fill="rgb(190,124,93)" height="5px" width="5px" x="28px" y="52px" /><rect fill="rgb(172,95,66)" height="5px" width="5px" x="32px" y="52px" /><rect fill="rgb(169,98,75)" height="5px" width="5px" x="36px" y="52px" /><rect fill="rgb(134,86,72)" height="5px" width="5px" x="40px" y="52px" /><rect fill="rgb(70,52,48)" height="5px" width="5px" x="44px" y="52px" /><rect fill="rgb(64,60,60)" height="5px" width="5px" x="48px" y="52px" /><rect fill="rgb(54,50,48)" height="5px" width="5px" x="52px" y="52px" /><rect fill="rgb(114,112,110)" height="5px" width="5px" x="56px" y="52px" /><rect fill="rgb(203,130,99)" height="5px" width="5px" x="20px" y="56px" /><rect fill="rgb(203,130,101)" height="5px" width="5px" x="24px" y="56px" /><rect fill="rgb(175,99,75)" height="5px" width="5px" x="28px" y="56px" /><rect fill="rgb(165,98,82)" height="5px" width="5px" x="32px" y="56px" /><rect fill="rgb(99,92,95)" height="5px" width="5px" x="36px" y="56px" /><rect fill="rgb(81,81,84)" height="5px" width="5px" x="40px" y="56px" /><rect fill="rgb(71,71,74)" height="5px" width="5px" x="44px" y="56px" /><rect fill="rgb(48,65,75)" height="5px" width="5px" x="48px" y="56px" /><rect fill="rgb(45,47,48)" height="5px" width="5px" x="52px" y="56px" /><rect fill="rgb(57,52,50)" height="5px" width="5px" x="56px" y="56px" /><rect fill="rgb(68,53,52)" height="5px" width="5px" x="60px" y="56px" /><rect fill="rgb(72,63,63)" height="5px" width="5px" x="64px" y="56px" /><rect fill="rgb(94,96,99)" height="5px" width="5px" x="68px" y="56px" /><rect fill="rgb(149,151,152)" height="5px" width="5px" x="72px" y="56px" /><rect fill="rgb(204,153,133)" height="5px" width="5px" x="12px" y="60px" /><rect fill="rgb(200,125,97)" height="5px" width="5px" x="16px" y="60px" /><rect fill="rgb(198,120,89)" height="5px" width="5px" x="20px" y="60px" /><rect fill="rgb(194,113,80)" height="5px" width="5px" x="24px" y="60px" /><rect fill="rgb(167,85,57)" height="5px" width="5px" x="28px" y="60px" /><rect fill="rgb(136,63,44)" height="5px" width="5px" x="32px" y="60px" /><rect fill="rgb(118,78,69)" height="5px" width="5px" x="36px" y="60px" /><rect fill="rgb(94,66,60)" height="5px" width="5px" x="40px" y="60px" /><rect fill="rgb(89,65,59)" height="5px" width="5px" x="44px" y="60px" /><rect fill="rgb(98,87,88)" height="5px" width="5px" x="48px" y="60px" /><rect fill="rgb(66,66,68)" height="5px" width="5px" x="52px" y="60px" /><rect fill="rgb(38,36,37)" height="5px" width="5px" x="56px" y="60px" /><rect fill="rgb(63,50,48)" height="5px" width="5px" x="60px" y="60px" /><rect fill="rgb(141,88,73)" height="5px" width="5px" x="64px" y="60px" /><rect fill="rgb(187,120,99)" height="5px" width="5px" x="68px" y="60px" /><rect fill="rgb(167,124,109)" height="5px" width="5px" x="72px" y="60px" /><rect fill="rgb(127,95,85)" height="5px" width="5px" x="76px" y="60px" /><rect fill="rgb(95,80,76)" height="5px" width="5px" x="80px" y="60px" /><rect fill="rgb(86,85,87)" height="5px" width="5px" x="84px" y="60px" /><rect fill="rgb(127,128,130)" height="5px" width="5px" x="88px" y="60px" /><rect fill="rgb(215,184,174)" height="5px" width="5px" x="8px" y="64px" /><rect fill="rgb(180,104,80)" height="5px" width="5px" x="12px" y="64px" /><rect fill="rgb(184,105,79)" height="5px" width="5px" x="16px" y="64px" /><rect fill="rgb(188,112,84)" height="5px" width="5px" x="20px" y="64px" /><rect fill="rgb(174,116,95)" height="5px" width="5px" x="24px" y="64px" /><rect fill="rgb(81,81,84)" height="5px" width="5px" x="32px" y="64px" /><rect fill="rgb(94,66,60)" height="5px" width="5px" x="36px" y="64px" /><rect fill="rgb(154,112,96)" height="5px" width="5px" x="48px" y="64px" /><rect fill="rgb(164,110,95)" height="5px" width="5px" x="52px" y="64px" /><rect fill="rgb(132,85,70)" height="5px" width="5px" x="56px" y="64px" /><rect fill="rgb(110,73,62)" height="5px" width="5px" x="60px" y="64px" /><rect fill="rgb(125,82,72)" height="5px" width="5px" x="64px" y="64px" /><rect fill="rgb(180,104,84)" height="5px" width="5px" x="68px" y="64px" /><rect fill="rgb(201,130,104)" height="5px" width="5px" x="72px" y="64px" /><rect fill="rgb(204,134,106)" height="5px" width="5px" x="76px" y="64px" /><rect fill="rgb(204,133,105)" height="5px" width="5px" x="80px" y="64px" /><rect fill="rgb(202,132,104)" height="5px" width="5px" x="84px" y="64px" /><rect fill="rgb(177,117,94)" height="5px" width="5px" x="88px" y="64px" /><rect fill="rgb(144,101,86)" height="5px" width="5px" x="92px" y="64px" /><rect fill="rgb(111,86,77)" height="5px" width="5px" x="96px" y="64px" /><rect fill="rgb(90,80,79)" height="5px" width="5px" x="100px" y="64px" /><rect fill="rgb(109,111,113)" height="5px" width="5px" x="104px" y="64px" /><rect fill="rgb(154,155,156)" height="5px" width="5px" x="108px" y="64px" /><rect fill="rgb(162,100,84)" height="5px" width="5px" x="8px" y="68px" /><rect fill="rgb(157,87,70)" height="5px" width="5px" x="12px" y="68px" /><rect fill="rgb(166,100,82)" height="5px" width="5px" x="16px" y="68px" /><rect fill="rgb(172,124,110)" height="5px" width="5px" x="20px" y="68px" /><rect fill="rgb(81,81,84)" height="5px" width="5px" x="32px" y="68px" /><rect fill="rgb(81,81,84)" height="5px" width="5px" x="40px" y="68px" /><rect fill="rgb(81,81,84)" height="5px" width="5px" x="44px" y="68px" /><rect fill="rgb(208,181,171)" height="5px" width="5px" x="64px" y="68px" /><rect fill="rgb(198,154,139)" height="5px" width="5px" x="68px" y="68px" /><rect fill="rgb(196,138,116)" height="5px" width="5px" x="72px" y="68px" /><rect fill="rgb(187,120,94)" height="5px" width="5px" x="76px" y="68px" /><rect fill="rgb(184,115,86)" height="5px" width="5px" x="80px" y="68px" /><rect fill="rgb(188,116,87)" height="5px" width="5px" x="84px" y="68px" /><rect fill="rgb(186,114,84)" height="5px" width="5px" x="88px" y="68px" /><rect fill="rgb(196,122,91)" height="5px" width="5px" x="92px" y="68px" /><rect fill="rgb(192,117,88)" height="5px" width="5px" x="96px" y="68px" /><rect fill="rgb(193,117,88)" height="5px" width="5px" x="100px" y="68px" /><rect fill="rgb(183,108,83)" height="5px" width="5px" x="104px" y="68px" /><rect fill="rgb(148,88,71)" height="5px" width="5px" x="108px" y="68px" /><rect fill="rgb(95,71,65)" height="5px" width="5px" x="112px" y="68px" /><rect fill="rgb(78,76,71)" height="5px" width="5px" x="116px" y="68px" /><rect fill="rgb(133,74,60)" height="5px" width="5px" x="8px" y="72px" /><rect fill="rgb(127,68,57)" height="5px" width="5px" x="12px" y="72px" /><rect fill="rgb(150,92,81)" height="5px" width="5px" x="16px" y="72px" /><rect fill="rgb(228,218,216)" height="5px" width="5px" x="20px" y="72px" /><rect fill="rgb(81,81,84)" height="5px" width="5px" x="36px" y="72px" /><rect fill="rgb(205,191,182)" height="5px" width="5px" x="84px" y="72px" /><rect fill="rgb(182,158,146)" height="5px" width="5px" x="88px" y="72px" /><rect fill="rgb(164,119,105)" height="5px" width="5px" x="92px" y="72px" /><rect fill="rgb(128,76,55)" height="5px" width="5px" x="96px" y="72px" /><rect fill="rgb(145,75,54)" height="5px" width="5px" x="100px" y="72px" /><rect fill="rgb(156,81,59)" height="5px" width="5px" x="104px" y="72px" /><rect fill="rgb(165,84,63)" height="5px" width="5px" x="108px" y="72px" /><rect fill="rgb(105,71,56)" height="5px" width="5px" x="112px" y="72px" /><rect fill="rgb(132,107,78)" height="5px" width="5px" x="116px" y="72px" /><rect fill="rgb(142,91,70)" height="5px" width="5px" x="8px" y="76px" /><rect fill="rgb(141,94,78)" height="5px" width="5px" x="12px" y="76px" /><rect fill="rgb(136,91,80)" height="5px" width="5px" x="16px" y="76px" /><rect fill="rgb(222,213,209)" height="5px" width="5px" x="100px" y="76px" /><rect fill="rgb(180,163,152)" height="5px" width="5px" x="104px" y="76px" /><rect fill="rgb(155,123,113)" height="5px" width="5px" x="108px" y="76px" /><rect fill="rgb(138,113,105)" height="5px" width="5px" x="112px" y="76px" /><rect fill="rgb(187,182,177)" height="5px" width="5px" x="116px" y="76px" /><rect fill="rgb(197,134,98)" height="5px" width="5px" x="8px" y="80px" /><rect fill="rgb(203,148,121)" height="5px" width="5px" x="12px" y="80px" /><rect fill="rgb(170,114,93)" height="5px" width="5px" x="16px" y="80px" /><rect fill="rgb(154,89,58)" height="5px" width="5px" x="8px" y="84px" /><rect fill="rgb(176,110,81)" height="5px" width="5px" x="12px" y="84px" /><rect fill="rgb(173,107,80)" height="5px" width="5px" x="16px" y="84px" /><rect fill="rgb(179,149,137)" height="5px" width="5px" x="12px" y="88px" /></svg>