<?xml version="1.0" encoding="utf-8" ?>
<svg baseProfile="full" height="128px" version="1.1" width="128px" xmlns="http://www.w3.org/2000/svg" xmlns:ev="http://www.w3.org/2001/xml-events" xmlns:xlink="http://www.w3.org/1999/xlink"><defs /><rect fill="rgb(162,162,162)" height="5px" opacity="0.129411764706" width="5px" x="12px" y="20px" /><rect fill="rgb(160,160,160)" height="5px" opacity="0.607843137255" width="5px" x="16px" y="20px" /><rect fill="rgb(159,159,159)" height="5px" opacity="0.647058823529" width="5px" x="20px" y="20px" /><rect fill="rgb(160,160,160)" height="5px" opacity="0.576470588235" width="5px" x="24px" y="20px" /><rect fill="rgb(159,159,159)" height="5px" opacity="0.61568627451" width="5px" x="28px" y="20px" /><rect fill="rgb(159,159,159)" height="5px" opacity="0.61568627451" width="5px" x="96px" y="20px" /><rect fill="rgb(160,160,160)" height="5px" opacity="0.576470588235" width="5px" x="100px" y="20px" /><rect fill="rgb(159,159,159)" height="5px" opacity="0.647058823529" width="5px" x="104px" y="20px" /><rect fill="rgb(160,160,160)" height="5px" opacity="0.607843137255" width="5px" x="108px" y="20px" /><rect fill="rgb(162,162,162)" height="5px" opacity="0.129411764706" width="5px" x="112px" y="20px" /><rect fill="rgb(161,161,161)" height="5px" opacity="0.847058823529" width="5px" x="16px" y="24px" /><rect fill="rgb(159,159,159)" height="5px" opacity="0.752941176471" width="5px" x="20px" y="24px" /><rect fill="rgb(160,160,160)" height="5px" opacity="0.898039215686" width="5px" x="24px" y="24px" /><rect fill="rgb(159,159,159)" height="5px" opacity="0.721568627451" width="5px" x="28px" y="24px" /><rect fill="rgb(160,160,160)" height="5px" opacity="0.662745098039" width="5px" x="32px" y="24px" /><rect fill="rgb(161,161,161)" height="5px" opacity="0.266666666667" width="5px" x="36px" y="24px" /><rect fill="rgb(160,160,160)" height="5px" opacity="0.294117647059" width="5px" x="40px" y="24px" /><rect fill="rgb(160,160,160)" height="5px" opacity="0.294117647059" width="5px" x="84px" y="24px" /><rect fill="rgb(161,161,161)" height="5px" opacity="0.266666666667" width="5px" x="88px" y="24px" /><rect fill="rgb(160,160,160)" height="5px" opacity="0.662745098039" width="5px" x="92px" y="24px" /><rect fill="rgb(159,159,159)" height="5px" opacity="0.721568627451" width="5px" x="96px" y="24px" /><rect fill="rgb(160,160,160)" height="5px" opacity="0.898039215686" width="5px" x="100px" y="24px" /><rect fill="rgb(159,159,159)" height="5px" opacity="0.752941176471" width="5px" x="104px" y="24px" /><rect fill="rgb(161,161,161)" height="5px" opacity="0.847058823529" width="5px" x="108px" y="24px" /><rect fill="rgb(160,160,160)" height="5px" opacity="0.560784313725" width="5px" x="12px" y="28px" /><rect fill="rgb(160,160,160)" height="5px" opacity="0.737254901961" width="5px" x="16px" y="28px" /><rect fill="rgb(164,164,164)" height="5px" opacity="0.0549019607843" width="5px" x="24px" y="28px" /><rect fill="rgb(160,160,160)" height="5px" opacity="0.474509803922" width="5px" x="32px" y="28px" /><rect fill="rgb(160,160,160)" height="5px" opacity="0.305882352941" width="5px" x="36px" y="28px" /><rect fill="rgb(160,160,160)" height="5px" opacity="0.96862745098" width="5px" x="40px" y="28px" /><rect fill="rgb(160,160,160)" height="5px" opacity="0.349019607843" width="5px" x="44px" y="28px" /><rect fill="rgb(160,160,160)" height="5px" opacity="0.349019607843" width="5px" x="80px" y="28px" /><rect fill="rgb(160,160,160)" height="5px" opacity="0.96862745098" width="5px" x="84px" y="28px" /><rect fill="rgb(160,160,160)" height="5px" opacity="0.305882352941" width="5px" x="88px" y="28px" /><rect fill="rgb(160,160,160)" height="5px" opacity="0.474509803922" width="5px" x="92px" y="28px" /><rect fill="rgb(164,164,164)" height="5px" opacity="0.0549019607843" width="5px" x="100px" y="28px" /><rect fill="rgb(0,0,0)" height="5px" width="5px" x="104px" y="28px" /><rect fill="rgb(0,0,0)" height="5px" width="5px" x="108px" y="28px" /><rect fill="rgb(0,0,0)" height="5px" width="5px" x="112px" y="28px" /><rect fill="rgb(159,159,159)" height="5px" opacity="0.458823529412" width="5px" x="12px" y="32px" /><rect fill="rgb(159,159,159)" height="5px" opacity="0.854901960784" width="5px" x="16px" y="32px" /><rect fill="rgb(149,149,149)" height="5px" opacity="0.0470588235294" width="5px" x="20px" y="32px" /><rect fill="rgb(160,160,160)" height="5px" opacity="0.23137254902" width="5px" x="40px" y="32px" /><rect fill="rgb(160,160,160)" height="5px" opacity="0.921568627451" width="5px" x="44px" y="32px" /><rect fill="rgb(159,159,159)" height="5px" opacity="0.396078431373" width="5px" x="48px" y="32px" /><rect fill="rgb(128,128,128)" height="5px" opacity="0.0078431372549" width="5px" x="56px" y="32px" /><rect fill="rgb(128,128,128)" height="5px" opacity="0.0078431372549" width="5px" x="68px" y="32px" /><rect fill="rgb(159,159,159)" height="5px" opacity="0.396078431373" width="5px" x="76px" y="32px" /><rect fill="rgb(160,160,160)" height="5px" opacity="0.921568627451" width="5px" x="80px" y="32px" /><rect fill="rgb(160,160,160)" height="5px" opacity="0.23137254902" width="5px" x="84px" y="32px" /><rect fill="rgb(0,0,0)" height="5px" width="5px" x="104px" y="32px" /><rect fill="rgb(0,0,0)" height="5px" width="5px" x="108px" y="32px" /><rect fill="rgb(0,0,0)" height="5px" width="5px" x="112px" y="32px" /><rect fill="rgb(160,160,160)" height="5px" opacity="0.525490196078" width="5px" x="16px" y="36px" /><rect fill="rgb(163,163,163)" height="5px" opacity="0.18431372549" width="5px" x="44px" y="36px" /><rect fill="rgb(159,159,159)" height="5px" opacity="0.866666666667" width="5px" x="48px" y="36px" /><rect fill="rgb(159,159,159)" height="5px" opacity="0.470588235294" width="5px" x="52px" y="36px" /><rect fill="rgb(160,160,160)" height="5px" opacity="0.745098039216" width="5px" x="56px" y="36px" /><rect fill="rgb(158,158,158)" height="5px" opacity="0.0823529411765" width="5px" x="60px" y="36px" /><rect fill="rgb(158,158,158)" height="5px" opacity="0.0823529411765" width="5px" x="64px" y="36px" /><rect fill="rgb(160,160,160)" height="5px" opacity="0.745098039216" width="5px" x="68px" y="36px" /><rect fill="rgb(159,159,159)" height="5px" opacity="0.470588235294" width="5px" x="72px" y="36px" /><rect fill="rgb(159,159,159)" height="5px" opacity="0.866666666667" width="5px" x="76px" y="36px" /><rect fill="rgb(163,163,163)" height="5px" opacity="0.18431372549" width="5px" x="80px" y="36px" /><rect fill="rgb(0,0,0)" height="5px" width="5px" x="104px" y="36px" /><rect fill="rgb(0,0,0)" height="5px" width="5px" x="108px" y="36px" /><rect fill="rgb(0,0,0)" height="5px" width="5px" x="112px" y="36px" /><rect fill="rgb(159,159,159)" height="5px" opacity="0.678431372549" width="5px" x="16px" y="40px" /><rect fill="rgb(160,160,160)" height="5px" opacity="0.588235294118" width="5px" x="20px" y="40px" /><rect fill="rgb(164,164,164)" height="5px" opacity="0.109803921569" width="5px" x="48px" y="40px" /><rect fill="rgb(159,159,159)" height="5px" opacity="0.0627450980392" width="5px" x="52px" y="40px" /><rect fill="rgb(161,161,161)" height="5px" opacity="0.498039215686" width="5px" x="56px" y="40px" /><rect fill="rgb(160,160,160)" height="5px" opacity="0.835294117647" width="5px" x="60px" y="40px" /><rect fill="rgb(160,160,160)" height="5px" opacity="0.835294117647" width="5px" x="64px" y="40px" /><rect fill="rgb(161,161,161)" height="5px" opacity="0.498039215686" width="5px" x="68px" y="40px" /><rect fill="rgb(159,159,159)" height="5px" opacity="0.0627450980392" width="5px" x="72px" y="40px" /><rect fill="rgb(164,164,164)" height="5px" opacity="0.109803921569" width="5px" x="76px" y="40px" /><rect fill="rgb(160,160,160)" height="5px" opacity="0.588235294118" width="5px" x="104px" y="40px" /><rect fill="rgb(159,159,159)" height="5px" opacity="0.678431372549" width="5px" x="108px" y="40px" /><rect fill="rgb(153,153,153)" height="5px" opacity="0.0196078431373" width="5px" x="16px" y="44px" /><rect fill="rgb(160,160,160)" height="5px" opacity="0.43137254902" width="5px" x="20px" y="44px" /><rect fill="rgb(159,159,159)" height="5px" opacity="0.176470588235" width="5px" x="56px" y="44px" /><rect fill="rgb(160,160,160)" height="5px" opacity="0.925490196078" width="5px" x="60px" y="44px" /><rect fill="rgb(160,160,160)" height="5px" opacity="0.925490196078" width="5px" x="64px" y="44px" /><rect fill="rgb(159,159,159)" height="5px" opacity="0.176470588235" width="5px" x="68px" y="44px" /><rect fill="rgb(160,160,160)" height="5px" opacity="0.43137254902" width="5px" x="104px" y="44px" /><rect fill="rgb(153,153,153)" height="5px" opacity="0.0196078431373" width="5px" x="108px" y="44px" /><rect fill="rgb(157,157,157)" height="5px" opacity="0.152941176471" width="5px" x="16px" y="48px" /><rect fill="rgb(160,160,160)" height="5px" opacity="0.905882352941" width="5px" x="20px" y="48px" /><rect fill="rgb(160,160,160)" height="5px" opacity="0.411764705882" width="5px" x="24px" y="48px" /><rect fill="rgb(160,160,160)" height="5px" width="5px" x="36px" y="48px" /><rect fill="rgb(160,160,160)" height="5px" width="5px" x="40px" y="48px" /><rect fill="rgb(160,160,160)" height="5px" width="5px" x="44px" y="48px" /><rect fill="rgb(160,160,160)" height="5px" width="5px" x="48px" y="48px" /><rect fill="rgb(160,160,160)" height="5px" width="5px" x="52px" y="48px" /><rect fill="rgb(160,160,160)" height="5px" width="5px" x="56px" y="48px" /><rect fill="rgb(160,160,160)" height="5px" width="5px" x="60px" y="48px" /><rect fill="rgb(160,160,160)" height="5px" width="5px" x="64px" y="48px" /><rect fill="rgb(160,160,160)" height="5px" width="5px" x="68px" y="48px" /><rect fill="rgb(160,160,160)" height="5px" width="5px" x="72px" y="48px" /><rect fill="rgb(160,160,160)" height="5px" width="5px" x="76px" y="48px" /><rect fill="rgb(160,160,160)" height="5px" width="5px" x="80px" y="48px" /><rect fill="rgb(160,160,160)" height="5px" width="5px" x="84px" y="48px" /><rect fill="rgb(160,160,160)" height="5px" opacity="0.411764705882" width="5px" x="100px" y="48px" /><rect fill="rgb(160,160,160)" height="5px" opacity="0.905882352941" width="5px" x="104px" y="48px" /><rect fill="rgb(157,157,157)" height="5px" opacity="0.152941176471" width="5px" x="108px" y="48px" /><rect fill="rgb(0,0,0)" height="5px" width="5px" x="4px" y="52px" /><rect fill="rgb(0,0,0)" height="5px" width="5px" x="8px" y="52px" /><rect fill="rgb(0,0,0)" height="5px" width="5px" x="12px" y="52px" /><rect fill="rgb(160,160,160)" height="5px" width="5px" x="16px" y="52px" /><rect fill="rgb(160,160,160)" height="5px" width="5px" x="20px" y="52px" /><rect fill="rgb(160,160,160)" height="5px" width="5px" x="24px" y="52px" /><rect fill="rgb(160,160,160)" height="5px" width="5px" x="28px" y="52px" /><rect fill="rgb(160,160,160)" height="5px" width="5px" x="32px" y="52px" /><rect fill="rgb(162,162,162)" height="5px" opacity="0.278431372549" width="5px" x="48px" y="52px" /><rect fill="rgb(159,159,159)" height="5px" opacity="0.960784313725" width="5px" x="52px" y="52px" /><rect fill="rgb(160,160,160)" height="5px" opacity="0.349019607843" width="5px" x="56px" y="52px" /><rect fill="rgb(160,160,160)" height="5px" opacity="0.349019607843" width="5px" x="68px" y="52px" /><rect fill="rgb(159,159,159)" height="5px" opacity="0.960784313725" width="5px" x="72px" y="52px" /><rect fill="rgb(162,162,162)" height="5px" opacity="0.278431372549" width="5px" x="76px" y="52px" /><rect fill="rgb(160,160,160)" height="5px" width="5px" x="88px" y="52px" /><rect fill="rgb(160,160,160)" height="5px" width="5px" x="92px" y="52px" /><rect fill="rgb(160,160,160)" height="5px" width="5px" x="96px" y="52px" /><rect fill="rgb(160,160,160)" height="5px" width="5px" x="100px" y="52px" /><rect fill="rgb(160,160,160)" height="5px" width="5px" x="104px" y="52px" /><rect fill="rgb(0,0,0)" height="5px" width="5px" x="4px" y="56px" /><rect fill="rgb(0,0,0)" height="5px" width="5px" x="8px" y="56px" /><rect fill="rgb(0,0,0)" height="5px" width="5px" x="12px" y="56px" /><rect fill="rgb(165,165,165)" height="5px" opacity="0.121568627451" width="5px" x="24px" y="56px" /><rect fill="rgb(159,159,159)" height="5px" opacity="0.803921568627" width="5px" x="28px" y="56px" /><rect fill="rgb(160,160,160)" height="5px" opacity="0.513725490196" width="5px" x="32px" y="56px" /><rect fill="rgb(160,160,160)" height="5px" opacity="0.325490196078" width="5px" x="44px" y="56px" /><rect fill="rgb(160,160,160)" height="5px" opacity="0.98431372549" width="5px" x="48px" y="56px" /><rect fill="rgb(159,159,159)" height="5px" opacity="0.301960784314" width="5px" x="52px" y="56px" /><rect fill="rgb(159,159,159)" height="5px" opacity="0.301960784314" width="5px" x="72px" y="56px" /><rect fill="rgb(160,160,160)" height="5px" opacity="0.98431372549" width="5px" x="76px" y="56px" /><rect fill="rgb(160,160,160)" height="5px" opacity="0.325490196078" width="5px" x="80px" y="56px" /><rect fill="rgb(160,160,160)" height="5px" opacity="0.513725490196" width="5px" x="92px" y="56px" /><rect fill="rgb(159,159,159)" height="5px" opacity="0.803921568627" width="5px" x="96px" y="56px" /><rect fill="rgb(165,165,165)" height="5px" opacity="0.121568627451" width="5px" x="100px" y="56px" /><rect fill="rgb(160,160,160)" height="5px" width="5px" x="108px" y="56px" /><rect fill="rgb(160,160,160)" height="5px" width="5px" x="112px" y="56px" /><rect fill="rgb(160,160,160)" height="5px" width="5px" x="116px" y="56px" /><rect fill="rgb(160,160,160)" height="5px" width="5px" x="0px" y="60px" /><rect fill="rgb(0,0,0)" height="5px" width="5px" x="4px" y="60px" /><rect fill="rgb(0,0,0)" height="5px" width="5px" x="8px" y="60px" /><rect fill="rgb(0,0,0)" height="5px" width="5px" x="12px" y="60px" /><rect fill="rgb(165,165,165)" height="5px" opacity="0.0666666666667" width="5px" x="28px" y="60px" /><rect fill="rgb(161,161,161)" height="5px" opacity="0.403921568627" width="5px" x="32px" y="60px" /><rect fill="rgb(160,160,160)" height="5px" opacity="0.380392156863" width="5px" x="40px" y="60px" /><rect fill="rgb(160,160,160)" height="5px" opacity="0.937254901961" width="5px" x="44px" y="60px" /><rect fill="rgb(161,161,161)" height="5px" opacity="0.254901960784" width="5px" x="48px" y="60px" /><rect fill="rgb(0,38,255)" height="5px" width="5px" x="52px" y="60px" /><rect fill="rgb(0,38,255)" height="5px" width="5px" x="56px" y="60px" /><rect fill="rgb(255,0,0)" height="5px" width="5px" x="60px" y="60px" /><rect fill="rgb(255,0,0)" height="5px" width="5px" x="64px" y="60px" /><rect fill="rgb(0,38,255)" height="5px" width="5px" x="68px" y="60px" /><rect fill="rgb(0,38,255)" height="5px" width="5px" x="72px" y="60px" /><rect fill="rgb(161,161,161)" height="5px" opacity="0.254901960784" width="5px" x="76px" y="60px" /><rect fill="rgb(160,160,160)" height="5px" opacity="0.937254901961" width="5px" x="80px" y="60px" /><rect fill="rgb(160,160,160)" height="5px" opacity="0.380392156863" width="5px" x="84px" y="60px" /><rect fill="rgb(161,161,161)" height="5px" opacity="0.403921568627" width="5px" x="92px" y="60px" /><rect fill="rgb(165,165,165)" height="5px" opacity="0.0666666666667" width="5px" x="96px" y="60px" /><rect fill="rgb(160,160,160)" height="5px" width="5px" x="116px" y="60px" /><rect fill="rgb(160,160,160)" height="5px" width="5px" x="120px" y="60px" /><rect fill="rgb(160,160,160)" height="5px" width="5px" x="0px" y="64px" /><rect fill="rgb(161,161,161)" height="5px" opacity="0.211764705882" width="5px" x="28px" y="64px" /><rect fill="rgb(160,160,160)" height="5px" opacity="0.976470588235" width="5px" x="32px" y="64px" /><rect fill="rgb(159,159,159)" height="5px" opacity="0.596078431373" width="5px" x="36px" y="64px" /><rect fill="rgb(160,160,160)" height="5px" opacity="0.890196078431" width="5px" x="40px" y="64px" /><rect fill="rgb(159,159,159)" height="5px" opacity="0.207843137255" width="5px" x="44px" y="64px" /><rect fill="rgb(0,38,255)" height="5px" width="5px" x="52px" y="64px" /><rect fill="rgb(0,38,255)" height="5px" width="5px" x="56px" y="64px" /><rect fill="rgb(255,0,0)" height="5px" width="5px" x="60px" y="64px" /><rect fill="rgb(255,0,0)" height="5px" width="5px" x="64px" y="64px" /><rect fill="rgb(0,38,255)" height="5px" width="5px" x="68px" y="64px" /><rect fill="rgb(0,38,255)" height="5px" width="5px" x="72px" y="64px" /><rect fill="rgb(159,159,159)" height="5px" opacity="0.207843137255" width="5px" x="80px" y="64px" /><rect fill="rgb(160,160,160)" height="5px" opacity="0.890196078431" width="5px" x="84px" y="64px" /><rect fill="rgb(159,159,159)" height="5px" opacity="0.596078431373" width="5px" x="88px" y="64px" /><rect fill="rgb(160,160,160)" height="5px" opacity="0.976470588235" width="5px" x="92px" y="64px" /><rect fill="rgb(161,161,161)" height="5px" opacity="0.211764705882" width="5px" x="96px" y="64px" /><rect fill="rgb(160,160,160)" height="5px" width="5px" x="120px" y="64px" /><rect fill="rgb(160,160,160)" height="5px" width="5px" x="124px" y="64px" /><rect fill="rgb(160,160,160)" height="5px" width="5px" x="0px" y="68px" /><rect fill="rgb(161,161,161)" height="5px" opacity="0.619607843137" width="5px" x="32px" y="68px" /><rect fill="rgb(160,160,160)" height="5px" opacity="0.996078431373" width="5px" x="36px" y="68px" /><rect fill="rgb(160,160,160)" height="5px" opacity="0.443137254902" width="5px" x="40px" y="68px" /><rect fill="rgb(255,0,0)" height="5px" width="5px" x="52px" y="68px" /><rect fill="rgb(255,0,0)" height="5px" width="5px" x="56px" y="68px" /><rect fill="rgb(0,38,255)" height="5px" width="5px" x="60px" y="68px" /><rect fill="rgb(0,38,255)" height="5px" width="5px" x="64px" y="68px" /><rect fill="rgb(255,0,0)" height="5px" width="5px" x="68px" y="68px" /><rect fill="rgb(255,0,0)" height="5px" width="5px" x="72px" y="68px" /><rect fill="rgb(162,162,162)" height="5px" opacity="0.443137254902" width="5px" x="84px" y="68px" /><rect fill="rgb(160,160,160)" height="5px" opacity="0.996078431373" width="5px" x="88px" y="68px" /><rect fill="rgb(161,161,161)" height="5px" opacity="0.619607843137" width="5px" x="92px" y="68px" /><rect fill="rgb(160,160,160)" height="5px" width="5px" x="120px" y="68px" /><rect fill="rgb(160,160,160)" height="5px" width="5px" x="0px" y="72px" /><rect fill="rgb(160,160,160)" height="5px" width="5px" x="4px" y="72px" /><rect fill="rgb(159,159,159)" height="5px" opacity="0.38431372549" width="5px" x="32px" y="72px" /><rect fill="rgb(159,159,159)" height="5px" opacity="0.321568627451" width="5px" x="36px" y="72px" /><rect fill="rgb(160,160,160)" height="5px" opacity="0.921568627451" width="5px" x="40px" y="72px" /><rect fill="rgb(160,160,160)" height="5px" opacity="0.388235294118" width="5px" x="44px" y="72px" /><rect fill="rgb(255,0,0)" height="5px" width="5px" x="52px" y="72px" /><rect fill="rgb(255,0,0)" height="5px" width="5px" x="56px" y="72px" /><rect fill="rgb(0,38,255)" height="5px" width="5px" x="60px" y="72px" /><rect fill="rgb(0,38,255)" height="5px" width="5px" x="64px" y="72px" /><rect fill="rgb(255,0,0)" height="5px" width="5px" x="68px" y="72px" /><rect fill="rgb(0,38,255)" height="5px" width="5px" x="72px" y="72px" /><rect fill="rgb(0,38,255)" height="5px" width="5px" x="76px" y="72px" /><rect fill="rgb(160,160,160)" height="5px" opacity="0.388235294118" width="5px" x="80px" y="72px" /><rect fill="rgb(160,160,160)" height="5px" opacity="0.921568627451" width="5px" x="84px" y="72px" /><rect fill="rgb(159,159,159)" height="5px" opacity="0.321568627451" width="5px" x="88px" y="72px" /><rect fill="rgb(159,159,159)" height="5px" opacity="0.38431372549" width="5px" x="92px" y="72px" /><rect fill="rgb(160,160,160)" height="5px" width="5px" x="116px" y="72px" /><rect fill="rgb(160,160,160)" height="5px" width="5px" x="120px" y="72px" /><rect fill="rgb(160,160,160)" height="5px" width="5px" x="8px" y="76px" /><rect fill="rgb(160,160,160)" height="5px" width="5px" x="12px" y="76px" /><rect fill="rgb(161,161,161)" height="5px" opacity="0.254901960784" width="5px" x="28px" y="76px" /><rect fill="rgb(160,160,160)" height="5px" opacity="0.937254901961" width="5px" x="32px" y="76px" /><rect fill="rgb(156,156,156)" height="5px" opacity="0.243137254902" width="5px" x="36px" y="76px" /><rect fill="rgb(161,161,161)" height="5px" opacity="0.192156862745" width="5px" x="40px" y="76px" /><rect fill="rgb(160,160,160)" height="5px" opacity="0.874509803922" width="5px" x="44px" y="76px" /><rect fill="rgb(160,160,160)" height="5px" opacity="0.443137254902" width="5px" x="48px" y="76px" /><rect fill="rgb(0,38,255)" height="5px" width="5px" x="56px" y="76px" /><rect fill="rgb(0,38,255)" height="5px" width="5px" x="60px" y="76px" /><rect fill="rgb(255,0,0)" height="5px" width="5px" x="64px" y="76px" /><rect fill="rgb(255,0,0)" height="5px" width="5px" x="68px" y="76px" /><rect fill="rgb(0,38,255)" height="5px" width="5px" x="72px" y="76px" /><rect fill="rgb(0,38,255)" height="5px" width="5px" x="76px" y="76px" /><rect fill="rgb(160,160,160)" height="5px" opacity="0.874509803922" width="5px" x="80px" y="76px" /><rect fill="rgb(161,161,161)" height="5px" opacity="0.192156862745" width="5px" x="84px" y="76px" /><rect fill="rgb(156,156,156)" height="5px" opacity="0.243137254902" width="5px" x="88px" y="76px" /><rect fill="rgb(160,160,160)" height="5px" opacity="0.937254901961" width="5px" x="92px" y="76px" /><rect fill="rgb(161,161,161)" height="5px" opacity="0.254901960784" width="5px" x="96px" y="76px" /><rect fill="rgb(160,160,160)" height="5px" width="5px" x="108px" y="76px" /><rect fill="rgb(160,160,160)" height="5px" width="5px" x="112px" y="76px" /><rect fill="rgb(160,160,160)" height="5px" width="5px" x="16px" y="80px" /><rect fill="rgb(160,160,160)" height="5px" width="5px" x="20px" y="80px" /><rect fill="rgb(160,160,160)" height="5px" width="5px" x="24px" y="80px" /><rect fill="rgb(159,159,159)" height="5px" width="5px" x="28px" y="80px" /><rect fill="rgb(160,160,160)" height="5px" width="5px" x="32px" y="80px" /><rect fill="rgb(160,160,160)" height="5px" opacity="0.137254901961" width="5px" x="44px" y="80px" /><rect fill="rgb(160,160,160)" height="5px" opacity="0.827450980392" width="5px" x="48px" y="80px" /><rect fill="rgb(159,159,159)" height="5px" opacity="0.490196078431" width="5px" x="52px" y="80px" /><rect fill="rgb(0,38,255)" height="5px" width="5px" x="56px" y="80px" /><rect fill="rgb(0,38,255)" height="5px" width="5px" x="60px" y="80px" /><rect fill="rgb(159,159,159)" height="5px" opacity="0.490196078431" width="5px" x="72px" y="80px" /><rect fill="rgb(160,160,160)" height="5px" opacity="0.827450980392" width="5px" x="76px" y="80px" /><rect fill="rgb(160,160,160)" height="5px" opacity="0.137254901961" width="5px" x="80px" y="80px" /><rect fill="rgb(160,160,160)" height="5px" width="5px" x="88px" y="80px" /><rect fill="rgb(160,160,160)" height="5px" width="5px" x="92px" y="80px" /><rect fill="rgb(159,159,159)" height="5px" width="5px" x="96px" y="80px" /><rect fill="rgb(160,160,160)" height="5px" width="5px" x="100px" y="80px" /><rect fill="rgb(160,160,160)" height="5px" width="5px" x="104px" y="80px" /><rect fill="rgb(160,160,160)" height="5px" opacity="0.356862745098" width="5px" x="20px" y="84px" /><rect fill="rgb(159,159,159)" height="5px" opacity="0.960784313725" width="5px" x="24px" y="84px" /><rect fill="rgb(162,162,162)" height="5px" opacity="0.278431372549" width="5px" x="28px" y="84px" /><rect fill="rgb(160,160,160)" height="5px" width="5px" x="36px" y="84px" /><rect fill="rgb(160,160,160)" height="5px" width="5px" x="40px" y="84px" /><rect fill="rgb(160,160,160)" height="5px" width="5px" x="44px" y="84px" /><rect fill="rgb(161,161,161)" height="5px" width="5px" x="48px" y="84px" /><rect fill="rgb(159,159,159)" height="5px" width="5px" x="52px" y="84px" /><rect fill="rgb(160,160,160)" height="5px" width="5px" x="56px" y="84px" /><rect fill="rgb(160,160,160)" height="5px" width="5px" x="60px" y="84px" /><rect fill="rgb(160,160,160)" height="5px" width="5px" x="64px" y="84px" /><rect fill="rgb(160,160,160)" height="5px" width="5px" x="68px" y="84px" /><rect fill="rgb(159,159,159)" height="5px" width="5px" x="72px" y="84px" /><rect fill="rgb(161,161,161)" height="5px" width="5px" x="76px" y="84px" /><rect fill="rgb(160,160,160)" height="5px" width="5px" x="80px" y="84px" /><rect fill="rgb(160,160,160)" height="5px" width="5px" x="84px" y="84px" /><rect fill="rgb(162,162,162)" height="5px" opacity="0.278431372549" width="5px" x="96px" y="84px" /><rect fill="rgb(159,159,159)" height="5px" opacity="0.960784313725" width="5px" x="100px" y="84px" /><rect fill="rgb(160,160,160)" height="5px" opacity="0.356862745098" width="5px" x="104px" y="84px" /><rect fill="rgb(160,160,160)" height="5px" opacity="0.4" width="5px" x="20px" y="88px" /><rect fill="rgb(161,161,161)" height="5px" opacity="0.223529411765" width="5px" x="24px" y="88px" /><rect fill="rgb(162,162,162)" height="5px" opacity="0.043137254902" width="5px" x="52px" y="88px" /><rect fill="rgb(160,160,160)" height="5px" opacity="0.725490196078" width="5px" x="56px" y="88px" /><rect fill="rgb(160,160,160)" height="5px" opacity="0.592156862745" width="5px" x="60px" y="88px" /><rect fill="rgb(160,160,160)" height="5px" opacity="0.592156862745" width="5px" x="64px" y="88px" /><rect fill="rgb(160,160,160)" height="5px" opacity="0.725490196078" width="5px" x="68px" y="88px" /><rect fill="rgb(162,162,162)" height="5px" opacity="0.043137254902" width="5px" x="72px" y="88px" /><rect fill="rgb(161,161,161)" height="5px" opacity="0.223529411765" width="5px" x="100px" y="88px" /><rect fill="rgb(160,160,160)" height="5px" opacity="0.4" width="5px" x="104px" y="88px" /><rect fill="rgb(160,160,160)" height="5px" opacity="0.137254901961" width="5px" x="16px" y="92px" /><rect fill="rgb(160,160,160)" height="5px" opacity="0.819607843137" width="5px" x="20px" y="92px" /><rect fill="rgb(159,159,159)" height="5px" opacity="0.282352941176" width="5px" x="24px" y="92px" /><rect fill="rgb(156,156,156)" height="5px" opacity="0.121568627451" width="5px" x="52px" y="92px" /><rect fill="rgb(160,160,160)" height="5px" opacity="0.882352941176" width="5px" x="60px" y="92px" /><rect fill="rgb(160,160,160)" height="5px" opacity="0.882352941176" width="5px" x="64px" y="92px" /><rect fill="rgb(156,156,156)" height="5px" opacity="0.121568627451" width="5px" x="72px" y="92px" /><rect fill="rgb(159,159,159)" height="5px" opacity="0.282352941176" width="5px" x="100px" y="92px" /><rect fill="rgb(160,160,160)" height="5px" opacity="0.819607843137" width="5px" x="104px" y="92px" /><rect fill="rgb(160,160,160)" height="5px" opacity="0.137254901961" width="5px" x="108px" y="92px" /><rect fill="rgb(157,157,157)" height="5px" opacity="0.101960784314" width="5px" x="12px" y="96px" /><rect fill="rgb(159,159,159)" height="5px" opacity="0.866666666667" width="5px" x="16px" y="96px" /><rect fill="rgb(160,160,160)" height="5px" opacity="0.443137254902" width="5px" x="20px" y="96px" /><rect fill="rgb(160,160,160)" height="5px" opacity="0.325490196078" width="5px" x="48px" y="96px" /><rect fill="rgb(159,159,159)" height="5px" opacity="0.992156862745" width="5px" x="52px" y="96px" /><rect fill="rgb(160,160,160)" height="5px" opacity="0.537254901961" width="5px" x="56px" y="96px" /><rect fill="rgb(160,160,160)" height="5px" opacity="0.623529411765" width="5px" x="60px" y="96px" /><rect fill="rgb(160,160,160)" height="5px" opacity="0.623529411765" width="5px" x="64px" y="96px" /><rect fill="rgb(160,160,160)" height="5px" opacity="0.537254901961" width="5px" x="68px" y="96px" /><rect fill="rgb(159,159,159)" height="5px" opacity="0.992156862745" width="5px" x="72px" y="96px" /><rect fill="rgb(160,160,160)" height="5px" opacity="0.325490196078" width="5px" x="76px" y="96px" /><rect fill="rgb(160,160,160)" height="5px" opacity="0.443137254902" width="5px" x="104px" y="96px" /><rect fill="rgb(159,159,159)" height="5px" opacity="0.866666666667" width="5px" x="108px" y="96px" /><rect fill="rgb(157,157,157)" height="5px" opacity="0.101960784314" width="5px" x="112px" y="96px" /><rect fill="rgb(160,160,160)" height="5px" opacity="0.843137254902" width="5px" x="16px" y="100px" /><rect fill="rgb(160,160,160)" height="5px" opacity="0.474509803922" width="5px" x="20px" y="100px" /><rect fill="rgb(161,161,161)" height="5px" opacity="0.372549019608" width="5px" x="44px" y="100px" /><rect fill="rgb(160,160,160)" height="5px" opacity="0.945098039216" width="5px" x="48px" y="100px" /><rect fill="rgb(161,161,161)" height="5px" opacity="0.254901960784" width="5px" x="52px" y="100px" /><rect fill="rgb(161,161,161)" height="5px" opacity="0.254901960784" width="5px" x="72px" y="100px" /><rect fill="rgb(160,160,160)" height="5px" opacity="0.945098039216" width="5px" x="76px" y="100px" /><rect fill="rgb(161,161,161)" height="5px" opacity="0.372549019608" width="5px" x="80px" y="100px" /><rect fill="rgb(160,160,160)" height="5px" opacity="0.474509803922" width="5px" x="104px" y="100px" /><rect fill="rgb(160,160,160)" height="5px" opacity="0.843137254902" width="5px" x="108px" y="100px" /><rect fill="rgb(159,159,159)" height="5px" opacity="0.125490196078" width="5px" x="12px" y="104px" /><rect fill="rgb(160,160,160)" height="5px" opacity="0.921568627451" width="5px" x="16px" y="104px" /><rect fill="rgb(161,161,161)" height="5px" opacity="0.341176470588" width="5px" x="20px" y="104px" /><rect fill="rgb(170,170,170)" height="5px" opacity="0.0588235294118" width="5px" x="32px" y="104px" /><rect fill="rgb(161,161,161)" height="5px" opacity="0.309803921569" width="5px" x="36px" y="104px" /><rect fill="rgb(160,160,160)" height="5px" opacity="0.419607843137" width="5px" x="40px" y="104px" /><rect fill="rgb(160,160,160)" height="5px" opacity="0.890196078431" width="5px" x="44px" y="104px" /><rect fill="rgb(159,159,159)" height="5px" opacity="0.207843137255" width="5px" x="48px" y="104px" /><rect fill="rgb(159,159,159)" height="5px" opacity="0.207843137255" width="5px" x="76px" y="104px" /><rect fill="rgb(160,160,160)" height="5px" opacity="0.890196078431" width="5px" x="80px" y="104px" /><rect fill="rgb(160,160,160)" height="5px" opacity="0.419607843137" width="5px" x="84px" y="104px" /><rect fill="rgb(161,161,161)" height="5px" opacity="0.309803921569" width="5px" x="88px" y="104px" /><rect fill="rgb(170,170,170)" height="5px" opacity="0.0588235294118" width="5px" x="92px" y="104px" /><rect fill="rgb(161,161,161)" height="5px" opacity="0.341176470588" width="5px" x="104px" y="104px" /><rect fill="rgb(160,160,160)" height="5px" opacity="0.921568627451" width="5px" x="108px" y="104px" /><rect fill="rgb(159,159,159)" height="5px" opacity="0.125490196078" width="5px" x="112px" y="104px" /><rect fill="rgb(159,159,159)" height="5px" opacity="0.239215686275" width="5px" x="16px" y="108px" /><rect fill="rgb(160,160,160)" height="5px" opacity="0.976470588235" width="5px" x="20px" y="108px" /><rect fill="rgb(159,159,159)" height="5px" opacity="0.596078431373" width="5px" x="24px" y="108px" /><rect fill="rgb(160,160,160)" height="5px" opacity="0.545098039216" width="5px" x="28px" y="108px" /><rect fill="rgb(160,160,160)" height="5px" opacity="0.788235294118" width="5px" x="32px" y="108px" /><rect fill="rgb(159,159,159)" height="5px" opacity="0.521568627451" width="5px" x="36px" y="108px" /><rect fill="rgb(159,159,159)" height="5px" opacity="0.533333333333" width="5px" x="40px" y="108px" /><rect fill="rgb(162,162,162)" height="5px" opacity="0.160784313725" width="5px" x="44px" y="108px" /><rect fill="rgb(162,162,162)" height="5px" opacity="0.160784313725" width="5px" x="80px" y="108px" /><rect fill="rgb(159,159,159)" height="5px" opacity="0.533333333333" width="5px" x="84px" y="108px" /><rect fill="rgb(159,159,159)" height="5px" opacity="0.521568627451" width="5px" x="88px" y="108px" /><rect fill="rgb(160,160,160)" height="5px" opacity="0.788235294118" width="5px" x="92px" y="108px" /><rect fill="rgb(0,0,0)" height="5px" width="5px" x="96px" y="108px" /><rect fill="rgb(0,0,0)" height="5px" width="5px" x="100px" y="108px" /><rect fill="rgb(0,0,0)" height="5px" width="5px" x="104px" y="108px" /><rect fill="rgb(159,159,159)" height="5px" opacity="0.239215686275" width="5px" x="108px" y="108px" /><rect fill="rgb(161,161,161)" height="5px" opacity="0.286274509804" width="5px" x="20px" y="112px" /><rect fill="rgb(160,160,160)" height="5px" opacity="0.843137254902" width="5px" x="24px" y="112px" /><rect fill="rgb(163,163,163)" height="5px" opacity="0.152941176471" width="5px" x="28px" y="112px" /><rect fill="rgb(158,158,158)" height="5px" opacity="0.227450980392" width="5px" x="32px" y="112px" /><rect fill="rgb(158,158,158)" height="5px" opacity="0.227450980392" width="5px" x="92px" y="112px" /><rect fill="rgb(0,0,0)" height="5px" width="5px" x="96px" y="112px" /><rect fill="rgb(0,0,0)" height="5px" width="5px" x="100px" y="112px" /><rect fill="rgb(0,0,0)" height="5px" width="5px" x="104px" y="112px" /><rect fill="rgb(170,170,170)" height="5px" opacity="0.0352941176471" width="5px" x="24px" y="116px" /><rect fill="rgb(0,0,0)" height="5px" width="5px" x="96px" y="116px" /><rect fill="rgb(0,0,0)" height="5px" width="5px" x="100px" y="116px" /><rect fill="rgb(0,0,0)" height="5px" width="5px" x="104px" y="116px" /></svg>