<?xml version="1.0" encoding="utf-8" ?>
<svg baseProfile="full" height="128px" version="1.1" width="128px" xmlns="http://www.w3.org/2000/svg" xmlns:ev="http://www.w3.org/2001/xml-events" xmlns:xlink="http://www.w3.org/1999/xlink"><defs /><rect fill="rgb(253,209,2)" height="5px" width="5px" x="60px" y="4px" /><rect fill="rgb(253,209,2)" height="5px" width="5px" x="64px" y="4px" /><rect fill="rgb(255,209,0)" height="5px" opacity="0.109803921569" width="5px" x="36px" y="8px" /><rect fill="rgb(255,215,0)" height="5px" opacity="0.101960784314" width="5px" x="40px" y="8px" /><rect fill="rgb(251,207,2)" height="5px" opacity="0.933333333333" width="5px" x="60px" y="8px" /><rect fill="rgb(251,207,2)" height="5px" opacity="0.862745098039" width="5px" x="64px" y="8px" /><rect fill="rgb(255,207,0)" height="5px" opacity="0.0627450980392" width="5px" x="84px" y="8px" /><rect fill="rgb(255,210,0)" height="5px" opacity="0.270588235294" width="5px" x="36px" y="12px" /><rect fill="rgb(253,209,2)" height="5px" width="5px" x="40px" y="12px" /><rect fill="rgb(255,170,0)" height="5px" opacity="0.0117647058824" width="5px" x="44px" y="12px" /><rect fill="rgb(253,209,2)" height="5px" width="5px" x="60px" y="12px" /><rect fill="rgb(251,207,2)" height="5px" opacity="0.952941176471" width="5px" x="64px" y="12px" /><rect fill="rgb(255,255,0)" height="5px" opacity="0.0078431372549" width="5px" x="80px" y="12px" /><rect fill="rgb(253,209,2)" height="5px" width="5px" x="84px" y="12px" /><rect fill="rgb(251,209,3)" height="5px" opacity="0.286274509804" width="5px" x="36px" y="16px" /><rect fill="rgb(254,210,1)" height="5px" width="5px" x="40px" y="16px" /><rect fill="rgb(253,210,1)" height="5px" opacity="0.674509803922" width="5px" x="44px" y="16px" /><rect fill="rgb(255,255,0)" height="5px" opacity="0.00392156862745" width="5px" x="56px" y="16px" /><rect fill="rgb(255,211,0)" height="5px" opacity="0.941176470588" width="5px" x="60px" y="16px" /><rect fill="rgb(255,209,0)" height="5px" opacity="0.992156862745" width="5px" x="64px" y="16px" /><rect fill="rgb(255,204,0)" height="5px" opacity="0.0196078431373" width="5px" x="68px" y="16px" /><rect fill="rgb(252,208,1)" height="5px" opacity="0.81568627451" width="5px" x="80px" y="16px" /><rect fill="rgb(253,209,2)" height="5px" width="5px" x="84px" y="16px" /><rect fill="rgb(255,255,0)" height="5px" opacity="0.00392156862745" width="5px" x="88px" y="16px" /><rect fill="rgb(248,204,6)" height="5px" opacity="0.298039215686" width="5px" x="36px" y="20px" /><rect fill="rgb(248,205,8)" height="5px" width="5px" x="40px" y="20px" /><rect fill="rgb(253,209,2)" height="5px" width="5px" x="44px" y="20px" /><rect fill="rgb(251,209,2)" height="5px" opacity="0.874509803922" width="5px" x="48px" y="20px" /><rect fill="rgb(255,209,0)" height="5px" opacity="0.109803921569" width="5px" x="56px" y="20px" /><rect fill="rgb(254,210,0)" height="5px" width="5px" x="60px" y="20px" /><rect fill="rgb(253,207,1)" height="5px" width="5px" x="64px" y="20px" /><rect fill="rgb(255,210,0)" height="5px" opacity="0.2" width="5px" x="68px" y="20px" /><rect fill="rgb(251,209,2)" height="5px" opacity="0.854901960784" width="5px" x="76px" y="20px" /><rect fill="rgb(253,209,2)" height="5px" width="5px" x="80px" y="20px" /><rect fill="rgb(252,208,3)" height="5px" width="5px" x="84px" y="20px" /><rect fill="rgb(251,209,3)" height="5px" opacity="0.305882352941" width="5px" x="36px" y="24px" /><rect fill="rgb(248,205,8)" height="5px" width="5px" x="40px" y="24px" /><rect fill="rgb(247,204,8)" height="5px" width="5px" x="44px" y="24px" /><rect fill="rgb(251,207,2)" height="5px" opacity="0.996078431373" width="5px" x="48px" y="24px" /><rect fill="rgb(95,86,50)" height="5px" opacity="0.890196078431" width="5px" x="52px" y="24px" /><rect fill="rgb(239,199,16)" height="5px" width="5px" x="56px" y="24px" /><rect fill="rgb(255,211,0)" height="5px" width="5px" x="60px" y="24px" /><rect fill="rgb(253,209,2)" height="5px" width="5px" x="64px" y="24px" /><rect fill="rgb(252,208,4)" height="5px" width="5px" x="68px" y="24px" /><rect fill="rgb(82,74,54)" height="5px" opacity="0.996078431373" width="5px" x="72px" y="24px" /><rect fill="rgb(248,205,7)" height="5px" width="5px" x="76px" y="24px" /><rect fill="rgb(246,203,10)" height="5px" width="5px" x="80px" y="24px" /><rect fill="rgb(249,206,6)" height="5px" width="5px" x="84px" y="24px" /><rect fill="rgb(55,55,55)" height="5px" opacity="0.737254901961" width="5px" x="88px" y="24px" /><rect fill="rgb(55,55,55)" height="5px" opacity="0.501960784314" width="5px" x="92px" y="24px" /><rect fill="rgb(52,52,52)" height="5px" opacity="0.133333333333" width="5px" x="96px" y="24px" /><rect fill="rgb(56,56,56)" height="5px" opacity="0.301960784314" width="5px" x="28px" y="28px" /><rect fill="rgb(55,55,55)" height="5px" opacity="0.760784313725" width="5px" x="32px" y="28px" /><rect fill="rgb(160,134,44)" height="5px" opacity="0.96862745098" width="5px" x="36px" y="28px" /><rect fill="rgb(247,204,8)" height="5px" width="5px" x="40px" y="28px" /><rect fill="rgb(238,197,16)" height="5px" width="5px" x="44px" y="28px" /><rect fill="rgb(248,205,8)" height="5px" width="5px" x="48px" y="28px" /><rect fill="rgb(245,202,10)" height="5px" width="5px" x="52px" y="28px" /><rect fill="rgb(246,203,10)" height="5px" width="5px" x="56px" y="28px" /><rect fill="rgb(243,201,12)" height="5px" width="5px" x="60px" y="28px" /><rect fill="rgb(243,201,12)" height="5px" width="5px" x="64px" y="28px" /><rect fill="rgb(246,203,9)" height="5px" width="5px" x="68px" y="28px" /><rect fill="rgb(243,201,12)" height="5px" width="5px" x="72px" y="28px" /><rect fill="rgb(244,202,11)" height="5px" width="5px" x="76px" y="28px" /><rect fill="rgb(244,203,11)" height="5px" width="5px" x="80px" y="28px" /><rect fill="rgb(253,209,3)" height="5px" width="5px" x="84px" y="28px" /><rect fill="rgb(65,62,55)" height="5px" opacity="0.980392156863" width="5px" x="88px" y="28px" /><rect fill="rgb(55,55,55)" height="5px" opacity="0.992156862745" width="5px" x="92px" y="28px" /><rect fill="rgb(55,55,55)" height="5px" width="5px" x="96px" y="28px" /><rect fill="rgb(55,55,55)" height="5px" width="5px" x="100px" y="28px" /><rect fill="rgb(55,55,55)" height="5px" opacity="0.996078431373" width="5px" x="104px" y="28px" /><rect fill="rgb(53,53,53)" height="5px" opacity="0.988235294118" width="5px" x="108px" y="28px" /><rect fill="rgb(53,53,53)" height="5px" opacity="0.949019607843" width="5px" x="112px" y="28px" /><rect fill="rgb(54,54,54)" height="5px" opacity="0.603921568627" width="5px" x="12px" y="32px" /><rect fill="rgb(53,53,53)" height="5px" opacity="0.894117647059" width="5px" x="16px" y="32px" /><rect fill="rgb(53,53,53)" height="5px" opacity="0.98431372549" width="5px" x="20px" y="32px" /><rect fill="rgb(55,55,55)" height="5px" width="5px" x="24px" y="32px" /><rect fill="rgb(55,55,55)" height="5px" width="5px" x="28px" y="32px" /><rect fill="rgb(55,55,55)" height="5px" opacity="0.996078431373" width="5px" x="32px" y="32px" /><rect fill="rgb(161,135,44)" height="5px" opacity="0.96862745098" width="5px" x="36px" y="32px" /><rect fill="rgb(254,210,1)" height="5px" width="5px" x="40px" y="32px" /><rect fill="rgb(217,128,23)" height="5px" width="5px" x="44px" y="32px" /><rect fill="rgb(244,203,10)" height="5px" width="5px" x="48px" y="32px" /><rect fill="rgb(215,110,23)" height="5px" width="5px" x="52px" y="32px" /><rect fill="rgb(249,205,7)" height="5px" width="5px" x="56px" y="32px" /><rect fill="rgb(214,61,19)" height="5px" width="5px" x="60px" y="32px" /><rect fill="rgb(246,203,9)" height="5px" width="5px" x="64px" y="32px" /><rect fill="rgb(215,93,21)" height="5px" width="5px" x="68px" y="32px" /><rect fill="rgb(246,204,10)" height="5px" width="5px" x="72px" y="32px" /><rect fill="rgb(224,118,17)" height="5px" width="5px" x="76px" y="32px" /><rect fill="rgb(250,206,5)" height="5px" width="5px" x="80px" y="32px" /><rect fill="rgb(251,207,4)" height="5px" width="5px" x="84px" y="32px" /><rect fill="rgb(81,73,54)" height="5px" width="5px" x="88px" y="32px" /><rect fill="rgb(53,53,53)" height="5px" opacity="0.803921568627" width="5px" x="92px" y="32px" /><rect fill="rgb(55,55,55)" height="5px" opacity="0.882352941176" width="5px" x="96px" y="32px" /><rect fill="rgb(55,55,55)" height="5px" width="5px" x="100px" y="32px" /><rect fill="rgb(55,55,55)" height="5px" width="5px" x="104px" y="32px" /><rect fill="rgb(55,55,55)" height="5px" width="5px" x="108px" y="32px" /><rect fill="rgb(55,55,55)" height="5px" width="5px" x="112px" y="32px" /><rect fill="rgb(55,55,55)" height="5px" width="5px" x="116px" y="32px" /><rect fill="rgb(56,56,56)" height="5px" opacity="0.196078431373" width="5px" x="120px" y="32px" /><rect fill="rgb(55,55,55)" height="5px" width="5px" x="8px" y="36px" /><rect fill="rgb(55,55,55)" height="5px" opacity="0.992156862745" width="5px" x="12px" y="36px" /><rect fill="rgb(53,53,53)" height="5px" opacity="0.988235294118" width="5px" x="16px" y="36px" /><rect fill="rgb(55,55,55)" height="5px" opacity="0.980392156863" width="5px" x="20px" y="36px" /><rect fill="rgb(55,55,55)" height="5px" width="5px" x="24px" y="36px" /><rect fill="rgb(54,54,54)" height="5px" opacity="0.439215686275" width="5px" x="28px" y="36px" /><rect fill="rgb(255,212,0)" height="5px" opacity="0.329411764706" width="5px" x="36px" y="36px" /><rect fill="rgb(254,210,1)" height="5px" width="5px" x="40px" y="36px" /><rect fill="rgb(247,205,8)" height="5px" width="5px" x="44px" y="36px" /><rect fill="rgb(244,203,10)" height="5px" width="5px" x="48px" y="36px" /><rect fill="rgb(243,201,12)" height="5px" width="5px" x="52px" y="36px" /><rect fill="rgb(247,204,8)" height="5px" width="5px" x="56px" y="36px" /><rect fill="rgb(241,198,15)" height="5px" width="5px" x="60px" y="36px" /><rect fill="rgb(249,205,7)" height="5px" width="5px" x="64px" y="36px" /><rect fill="rgb(248,204,8)" height="5px" width="5px" x="68px" y="36px" /><rect fill="rgb(252,209,3)" height="5px" width="5px" x="72px" y="36px" /><rect fill="rgb(244,204,11)" height="5px" width="5px" x="76px" y="36px" /><rect fill="rgb(249,205,6)" height="5px" width="5px" x="80px" y="36px" /><rect fill="rgb(252,209,3)" height="5px" width="5px" x="84px" y="36px" /><rect fill="rgb(255,216,0)" height="5px" opacity="0.078431372549" width="5px" x="88px" y="36px" /><rect fill="rgb(54,54,54)" height="5px" opacity="0.38431372549" width="5px" x="100px" y="36px" /><rect fill="rgb(55,55,55)" height="5px" width="5px" x="104px" y="36px" /><rect fill="rgb(55,55,55)" height="5px" width="5px" x="108px" y="36px" /><rect fill="rgb(55,55,55)" height="5px" width="5px" x="112px" y="36px" /><rect fill="rgb(55,55,55)" height="5px" opacity="0.960784313725" width="5px" x="116px" y="36px" /><rect fill="rgb(55,55,55)" height="5px" opacity="0.976470588235" width="5px" x="120px" y="36px" /><rect fill="rgb(55,55,55)" height="5px" width="5px" x="124px" y="36px" /><rect fill="rgb(54,54,54)" height="5px" opacity="0.38431372549" width="5px" x="20px" y="40px" /><rect fill="rgb(55,55,55)" height="5px" width="5px" x="24px" y="40px" /><rect fill="rgb(252,207,2)" height="5px" opacity="0.337254901961" width="5px" x="36px" y="40px" /><rect fill="rgb(222,199,14)" height="5px" width="5px" x="40px" y="40px" /><rect fill="rgb(167,184,23)" height="5px" width="5px" x="44px" y="40px" /><rect fill="rgb(248,205,7)" height="5px" width="5px" x="48px" y="40px" /><rect fill="rgb(252,208,3)" height="5px" width="5px" x="52px" y="40px" /><rect fill="rgb(247,204,8)" height="5px" width="5px" x="56px" y="40px" /><rect fill="rgb(245,192,9)" height="5px" width="5px" x="60px" y="40px" /><rect fill="rgb(252,208,3)" height="5px" width="5px" x="64px" y="40px" /><rect fill="rgb(247,205,8)" height="5px" width="5px" x="68px" y="40px" /><rect fill="rgb(252,208,3)" height="5px" width="5px" x="72px" y="40px" /><rect fill="rgb(163,182,24)" height="5px" width="5px" x="76px" y="40px" /><rect fill="rgb(226,200,13)" height="5px" width="5px" x="80px" y="40px" /><rect fill="rgb(253,210,2)" height="5px" width="5px" x="84px" y="40px" /><rect fill="rgb(246,211,8)" height="5px" opacity="0.113725490196" width="5px" x="88px" y="40px" /><rect fill="rgb(53,53,53)" height="5px" opacity="0.372549019608" width="5px" x="96px" y="40px" /><rect fill="rgb(55,55,55)" height="5px" width="5px" x="100px" y="40px" /><rect fill="rgb(53,53,53)" height="5px" opacity="0.964705882353" width="5px" x="104px" y="40px" /><rect fill="rgb(55,55,55)" height="5px" width="5px" x="108px" y="40px" /><rect fill="rgb(56,56,56)" height="5px" opacity="0.196078431373" width="5px" x="116px" y="40px" /><rect fill="rgb(56,56,56)" height="5px" opacity="0.196078431373" width="5px" x="120px" y="40px" /><rect fill="rgb(53,53,53)" height="5px" opacity="0.372549019608" width="5px" x="16px" y="44px" /><rect fill="rgb(55,55,55)" height="5px" width="5px" x="20px" y="44px" /><rect fill="rgb(53,53,53)" height="5px" opacity="0.964705882353" width="5px" x="24px" y="44px" /><rect fill="rgb(55,55,55)" height="5px" width="5px" x="28px" y="44px" /><rect fill="rgb(249,205,5)" height="5px" opacity="0.345098039216" width="5px" x="36px" y="44px" /><rect fill="rgb(241,202,10)" height="5px" width="5px" x="40px" y="44px" /><rect fill="rgb(234,204,8)" height="5px" width="5px" x="44px" y="44px" /><rect fill="rgb(246,203,10)" height="5px" width="5px" x="48px" y="44px" /><rect fill="rgb(243,201,12)" height="5px" width="5px" x="52px" y="44px" /><rect fill="rgb(243,201,12)" height="5px" width="5px" x="56px" y="44px" /><rect fill="rgb(249,206,7)" height="5px" width="5px" x="60px" y="44px" /><rect fill="rgb(249,206,6)" height="5px" width="5px" x="64px" y="44px" /><rect fill="rgb(247,205,8)" height="5px" width="5px" x="68px" y="44px" /><rect fill="rgb(253,209,2)" height="5px" width="5px" x="72px" y="44px" /><rect fill="rgb(230,200,12)" height="5px" width="5px" x="76px" y="44px" /><rect fill="rgb(245,206,6)" height="5px" width="5px" x="80px" y="44px" /><rect fill="rgb(255,211,0)" height="5px" width="5px" x="84px" y="44px" /><rect fill="rgb(242,197,12)" height="5px" opacity="0.156862745098" width="5px" x="88px" y="44px" /><rect fill="rgb(53,53,53)" height="5px" opacity="0.913725490196" width="5px" x="96px" y="44px" /><rect fill="rgb(53,53,53)" height="5px" opacity="0.909803921569" width="5px" x="100px" y="44px" /><rect fill="rgb(54,54,54)" height="5px" opacity="0.313725490196" width="5px" x="104px" y="44px" /><rect fill="rgb(53,53,53)" height="5px" opacity="0.988235294118" width="5px" x="108px" y="44px" /><rect fill="rgb(53,53,53)" height="5px" opacity="0.913725490196" width="5px" x="16px" y="48px" /><rect fill="rgb(53,53,53)" height="5px" opacity="0.909803921569" width="5px" x="20px" y="48px" /><rect fill="rgb(54,54,54)" height="5px" opacity="0.313725490196" width="5px" x="24px" y="48px" /><rect fill="rgb(53,53,53)" height="5px" opacity="0.988235294118" width="5px" x="28px" y="48px" /><rect fill="rgb(255,212,0)" height="5px" opacity="0.349019607843" width="5px" x="36px" y="48px" /><rect fill="rgb(248,205,7)" height="5px" width="5px" x="40px" y="48px" /><rect fill="rgb(249,206,6)" height="5px" width="5px" x="44px" y="48px" /><rect fill="rgb(252,208,3)" height="5px" width="5px" x="48px" y="48px" /><rect fill="rgb(249,206,7)" height="5px" width="5px" x="52px" y="48px" /><rect fill="rgb(248,205,7)" height="5px" width="5px" x="56px" y="48px" /><rect fill="rgb(249,205,7)" height="5px" width="5px" x="60px" y="48px" /><rect fill="rgb(247,204,9)" height="5px" width="5px" x="64px" y="48px" /><rect fill="rgb(248,205,8)" height="5px" width="5px" x="68px" y="48px" /><rect fill="rgb(249,205,7)" height="5px" width="5px" x="72px" y="48px" /><rect fill="rgb(248,205,8)" height="5px" width="5px" x="76px" y="48px" /><rect fill="rgb(253,209,3)" height="5px" width="5px" x="80px" y="48px" /><rect fill="rgb(255,211,0)" height="5px" width="5px" x="84px" y="48px" /><rect fill="rgb(249,207,5)" height="5px" opacity="0.16862745098" width="5px" x="88px" y="48px" /><rect fill="rgb(63,63,63)" height="5px" opacity="0.0156862745098" width="5px" x="92px" y="48px" /><rect fill="rgb(55,55,55)" height="5px" width="5px" x="96px" y="48px" /><rect fill="rgb(54,54,54)" height="5px" opacity="0.38431372549" width="5px" x="100px" y="48px" /><rect fill="rgb(53,53,53)" height="5px" opacity="0.98431372549" width="5px" x="108px" y="48px" /><rect fill="rgb(56,56,56)" height="5px" opacity="0.301960784314" width="5px" x="112px" y="48px" /><rect fill="rgb(63,63,63)" height="5px" opacity="0.0156862745098" width="5px" x="12px" y="52px" /><rect fill="rgb(55,55,55)" height="5px" width="5px" x="16px" y="52px" /><rect fill="rgb(54,54,54)" height="5px" opacity="0.38431372549" width="5px" x="20px" y="52px" /><rect fill="rgb(53,53,53)" height="5px" opacity="0.98431372549" width="5px" x="28px" y="52px" /><rect fill="rgb(56,56,56)" height="5px" opacity="0.301960784314" width="5px" x="32px" y="52px" /><rect fill="rgb(255,211,0)" height="5px" opacity="0.113725490196" width="5px" x="36px" y="52px" /><rect fill="rgb(255,211,0)" height="5px" opacity="0.341176470588" width="5px" x="40px" y="52px" /><rect fill="rgb(255,211,0)" height="5px" opacity="0.341176470588" width="5px" x="44px" y="52px" /><rect fill="rgb(255,211,0)" height="5px" opacity="0.341176470588" width="5px" x="48px" y="52px" /><rect fill="rgb(255,211,0)" height="5px" opacity="0.341176470588" width="5px" x="52px" y="52px" /><rect fill="rgb(255,211,0)" height="5px" opacity="0.341176470588" width="5px" x="56px" y="52px" /><rect fill="rgb(165,138,44)" height="5px" opacity="0.949019607843" width="5px" x="60px" y="52px" /><rect fill="rgb(162,136,44)" height="5px" width="5px" x="64px" y="52px" /><rect fill="rgb(252,208,2)" height="5px" opacity="0.341176470588" width="5px" x="68px" y="52px" /><rect fill="rgb(255,211,0)" height="5px" opacity="0.341176470588" width="5px" x="72px" y="52px" /><rect fill="rgb(255,211,0)" height="5px" opacity="0.341176470588" width="5px" x="76px" y="52px" /><rect fill="rgb(255,210,0)" height="5px" opacity="0.333333333333" width="5px" x="80px" y="52px" /><rect fill="rgb(247,204,7)" height="5px" opacity="0.376470588235" width="5px" x="84px" y="52px" /><rect fill="rgb(240,198,14)" height="5px" opacity="0.0705882352941" width="5px" x="88px" y="52px" /><rect fill="rgb(55,55,55)" height="5px" opacity="0.411764705882" width="5px" x="92px" y="52px" /><rect fill="rgb(55,55,55)" height="5px" width="5px" x="96px" y="52px" /><rect fill="rgb(63,63,63)" height="5px" opacity="0.0156862745098" width="5px" x="100px" y="52px" /><rect fill="rgb(53,53,53)" height="5px" opacity="0.372549019608" width="5px" x="108px" y="52px" /><rect fill="rgb(55,55,55)" height="5px" opacity="0.976470588235" width="5px" x="112px" y="52px" /><rect fill="rgb(55,55,55)" height="5px" opacity="0.411764705882" width="5px" x="12px" y="56px" /><rect fill="rgb(55,55,55)" height="5px" width="5px" x="16px" y="56px" /><rect fill="rgb(63,63,63)" height="5px" opacity="0.0156862745098" width="5px" x="20px" y="56px" /><rect fill="rgb(53,53,53)" height="5px" opacity="0.372549019608" width="5px" x="28px" y="56px" /><rect fill="rgb(55,55,55)" height="5px" opacity="0.976470588235" width="5px" x="32px" y="56px" /><rect fill="rgb(53,53,53)" height="5px" opacity="0.933333333333" width="5px" x="60px" y="56px" /><rect fill="rgb(55,55,55)" height="5px" width="5px" x="64px" y="56px" /><rect fill="rgb(53,53,53)" height="5px" opacity="0.929411764706" width="5px" x="92px" y="56px" /><rect fill="rgb(53,53,53)" height="5px" opacity="0.909803921569" width="5px" x="96px" y="56px" /><rect fill="rgb(55,55,55)" height="5px" opacity="0.992156862745" width="5px" x="112px" y="56px" /><rect fill="rgb(56,56,56)" height="5px" opacity="0.247058823529" width="5px" x="116px" y="56px" /><rect fill="rgb(53,53,53)" height="5px" opacity="0.929411764706" width="5px" x="12px" y="60px" /><rect fill="rgb(53,53,53)" height="5px" opacity="0.909803921569" width="5px" x="16px" y="60px" /><rect fill="rgb(55,55,55)" height="5px" opacity="0.992156862745" width="5px" x="32px" y="60px" /><rect fill="rgb(56,56,56)" height="5px" opacity="0.247058823529" width="5px" x="36px" y="60px" /><rect fill="rgb(53,53,53)" height="5px" opacity="0.933333333333" width="5px" x="60px" y="60px" /><rect fill="rgb(55,55,55)" height="5px" width="5px" x="64px" y="60px" /><rect fill="rgb(63,63,63)" height="5px" opacity="0.0156862745098" width="5px" x="88px" y="60px" /><rect fill="rgb(55,55,55)" height="5px" width="5px" x="92px" y="60px" /><rect fill="rgb(54,54,54)" height="5px" opacity="0.38431372549" width="5px" x="96px" y="60px" /><rect fill="rgb(55,55,55)" height="5px" opacity="0.450980392157" width="5px" x="112px" y="60px" /><rect fill="rgb(55,55,55)" height="5px" opacity="0.960784313725" width="5px" x="116px" y="60px" /><rect fill="rgb(63,63,63)" height="5px" opacity="0.0156862745098" width="5px" x="8px" y="64px" /><rect fill="rgb(55,55,55)" height="5px" width="5px" x="12px" y="64px" /><rect fill="rgb(54,54,54)" height="5px" opacity="0.38431372549" width="5px" x="16px" y="64px" /><rect fill="rgb(55,55,55)" height="5px" opacity="0.450980392157" width="5px" x="32px" y="64px" /><rect fill="rgb(55,55,55)" height="5px" opacity="0.960784313725" width="5px" x="36px" y="64px" /><rect fill="rgb(55,55,55)" height="5px" opacity="0.941176470588" width="5px" x="60px" y="64px" /><rect fill="rgb(55,55,55)" height="5px" width="5px" x="64px" y="64px" /><rect fill="rgb(55,55,55)" height="5px" opacity="0.450980392157" width="5px" x="88px" y="64px" /><rect fill="rgb(55,55,55)" height="5px" width="5px" x="92px" y="64px" /><rect fill="rgb(63,63,63)" height="5px" opacity="0.0156862745098" width="5px" x="96px" y="64px" /><rect fill="rgb(55,55,55)" height="5px" opacity="0.996078431373" width="5px" x="116px" y="64px" /><rect fill="rgb(53,53,53)" height="5px" opacity="0.203921568627" width="5px" x="120px" y="64px" /><rect fill="rgb(55,55,55)" height="5px" opacity="0.450980392157" width="5px" x="8px" y="68px" /><rect fill="rgb(55,55,55)" height="5px" width="5px" x="12px" y="68px" /><rect fill="rgb(63,63,63)" height="5px" opacity="0.0156862745098" width="5px" x="16px" y="68px" /><rect fill="rgb(55,55,55)" height="5px" opacity="0.996078431373" width="5px" x="36px" y="68px" /><rect fill="rgb(53,53,53)" height="5px" opacity="0.203921568627" width="5px" x="40px" y="68px" /><rect fill="rgb(55,55,55)" height="5px" opacity="0.941176470588" width="5px" x="60px" y="68px" /><rect fill="rgb(55,55,55)" height="5px" width="5px" x="64px" y="68px" /><rect fill="rgb(55,55,55)" height="5px" opacity="0.941176470588" width="5px" x="88px" y="68px" /><rect fill="rgb(53,53,53)" height="5px" opacity="0.909803921569" width="5px" x="92px" y="68px" /><rect fill="rgb(54,54,54)" height="5px" opacity="0.517647058824" width="5px" x="116px" y="68px" /><rect fill="rgb(55,55,55)" height="5px" opacity="0.941176470588" width="5px" x="120px" y="68px" /><rect fill="rgb(55,55,55)" height="5px" opacity="0.941176470588" width="5px" x="8px" y="72px" /><rect fill="rgb(53,53,53)" height="5px" opacity="0.909803921569" width="5px" x="12px" y="72px" /><rect fill="rgb(54,54,54)" height="5px" opacity="0.517647058824" width="5px" x="36px" y="72px" /><rect fill="rgb(55,55,55)" height="5px" opacity="0.941176470588" width="5px" x="40px" y="72px" /><rect fill="rgb(55,55,55)" height="5px" opacity="0.941176470588" width="5px" x="60px" y="72px" /><rect fill="rgb(55,55,55)" height="5px" width="5px" x="64px" y="72px" /><rect fill="rgb(55,55,55)" height="5px" opacity="0.925490196078" width="5px" x="88px" y="72px" /><rect fill="rgb(54,54,54)" height="5px" opacity="0.38431372549" width="5px" x="92px" y="72px" /><rect fill="rgb(55,55,55)" height="5px" opacity="0.666666666667" width="5px" x="120px" y="72px" /><rect fill="rgb(55,55,55)" height="5px" opacity="0.925490196078" width="5px" x="8px" y="76px" /><rect fill="rgb(54,54,54)" height="5px" opacity="0.38431372549" width="5px" x="12px" y="76px" /><rect fill="rgb(55,55,55)" height="5px" opacity="0.666666666667" width="5px" x="40px" y="76px" /><rect fill="rgb(55,55,55)" height="5px" opacity="0.945098039216" width="5px" x="60px" y="76px" /><rect fill="rgb(55,55,55)" height="5px" width="5px" x="64px" y="76px" /><rect fill="rgb(55,55,55)" height="5px" opacity="0.960784313725" width="5px" x="88px" y="76px" /><rect fill="rgb(55,55,55)" height="5px" opacity="0.980392156863" width="5px" x="92px" y="76px" /><rect fill="rgb(55,55,55)" height="5px" opacity="0.980392156863" width="5px" x="96px" y="76px" /><rect fill="rgb(55,55,55)" height="5px" opacity="0.980392156863" width="5px" x="100px" y="76px" /><rect fill="rgb(55,55,55)" height="5px" opacity="0.980392156863" width="5px" x="104px" y="76px" /><rect fill="rgb(53,53,53)" height="5px" opacity="0.964705882353" width="5px" x="108px" y="76px" /><rect fill="rgb(55,55,55)" height="5px" opacity="0.960784313725" width="5px" x="112px" y="76px" /><rect fill="rgb(55,55,55)" height="5px" opacity="0.960784313725" width="5px" x="116px" y="76px" /><rect fill="rgb(55,55,55)" height="5px" opacity="0.925490196078" width="5px" x="120px" y="76px" /><rect fill="rgb(55,55,55)" height="5px" opacity="0.960784313725" width="5px" x="8px" y="80px" /><rect fill="rgb(55,55,55)" height="5px" opacity="0.980392156863" width="5px" x="12px" y="80px" /><rect fill="rgb(55,55,55)" height="5px" opacity="0.980392156863" width="5px" x="16px" y="80px" /><rect fill="rgb(55,55,55)" height="5px" opacity="0.980392156863" width="5px" x="20px" y="80px" /><rect fill="rgb(55,55,55)" height="5px" opacity="0.980392156863" width="5px" x="24px" y="80px" /><rect fill="rgb(53,53,53)" height="5px" opacity="0.964705882353" width="5px" x="28px" y="80px" /><rect fill="rgb(55,55,55)" height="5px" opacity="0.960784313725" width="5px" x="32px" y="80px" /><rect fill="rgb(55,55,55)" height="5px" opacity="0.960784313725" width="5px" x="36px" y="80px" /><rect fill="rgb(55,55,55)" height="5px" opacity="0.925490196078" width="5px" x="40px" y="80px" /><rect fill="rgb(53,53,53)" height="5px" opacity="0.949019607843" width="5px" x="60px" y="80px" /><rect fill="rgb(55,55,55)" height="5px" width="5px" x="64px" y="80px" /><rect fill="rgb(55,55,55)" height="5px" opacity="0.81568627451" width="5px" x="88px" y="80px" /><rect fill="rgb(55,55,55)" height="5px" width="5px" x="92px" y="80px" /><rect fill="rgb(55,55,55)" height="5px" width="5px" x="96px" y="80px" /><rect fill="rgb(55,55,55)" height="5px" width="5px" x="100px" y="80px" /><rect fill="rgb(55,55,55)" height="5px" width="5px" x="104px" y="80px" /><rect fill="rgb(55,55,55)" height="5px" width="5px" x="108px" y="80px" /><rect fill="rgb(55,55,55)" height="5px" width="5px" x="112px" y="80px" /><rect fill="rgb(55,55,55)" height="5px" width="5px" x="116px" y="80px" /><rect fill="rgb(53,53,53)" height="5px" opacity="0.898039215686" width="5px" x="120px" y="80px" /><rect fill="rgb(55,55,55)" height="5px" opacity="0.81568627451" width="5px" x="8px" y="84px" /><rect fill="rgb(55,55,55)" height="5px" width="5px" x="12px" y="84px" /><rect fill="rgb(55,55,55)" height="5px" width="5px" x="16px" y="84px" /><rect fill="rgb(55,55,55)" height="5px" width="5px" x="20px" y="84px" /><rect fill="rgb(55,55,55)" height="5px" width="5px" x="24px" y="84px" /><rect fill="rgb(55,55,55)" height="5px" width="5px" x="28px" y="84px" /><rect fill="rgb(55,55,55)" height="5px" width="5px" x="32px" y="84px" /><rect fill="rgb(55,55,55)" height="5px" width="5px" x="36px" y="84px" /><rect fill="rgb(53,53,53)" height="5px" opacity="0.898039215686" width="5px" x="40px" y="84px" /><rect fill="rgb(53,53,53)" height="5px" opacity="0.952941176471" width="5px" x="60px" y="84px" /><rect fill="rgb(55,55,55)" height="5px" width="5px" x="64px" y="84px" /><rect fill="rgb(51,51,51)" height="5px" opacity="0.078431372549" width="5px" x="88px" y="84px" /><rect fill="rgb(55,55,55)" height="5px" opacity="0.882352941176" width="5px" x="92px" y="84px" /><rect fill="rgb(55,55,55)" height="5px" width="5px" x="96px" y="84px" /><rect fill="rgb(55,55,55)" height="5px" width="5px" x="100px" y="84px" /><rect fill="rgb(55,55,55)" height="5px" width="5px" x="104px" y="84px" /><rect fill="rgb(55,55,55)" height="5px" width="5px" x="108px" y="84px" /><rect fill="rgb(55,55,55)" height="5px" width="5px" x="112px" y="84px" /><rect fill="rgb(55,55,55)" height="5px" opacity="0.992156862745" width="5px" x="116px" y="84px" /><rect fill="rgb(53,53,53)" height="5px" opacity="0.262745098039" width="5px" x="120px" y="84px" /><rect fill="rgb(51,51,51)" height="5px" opacity="0.078431372549" width="5px" x="8px" y="88px" /><rect fill="rgb(55,55,55)" height="5px" opacity="0.882352941176" width="5px" x="12px" y="88px" /><rect fill="rgb(55,55,55)" height="5px" width="5px" x="16px" y="88px" /><rect fill="rgb(55,55,55)" height="5px" width="5px" x="20px" y="88px" /><rect fill="rgb(55,55,55)" height="5px" width="5px" x="24px" y="88px" /><rect fill="rgb(55,55,55)" height="5px" width="5px" x="28px" y="88px" /><rect fill="rgb(55,55,55)" height="5px" width="5px" x="32px" y="88px" /><rect fill="rgb(55,55,55)" height="5px" opacity="0.992156862745" width="5px" x="36px" y="88px" /><rect fill="rgb(53,53,53)" height="5px" opacity="0.262745098039" width="5px" x="40px" y="88px" /><rect fill="rgb(53,53,53)" height="5px" opacity="0.952941176471" width="5px" x="60px" y="88px" /><rect fill="rgb(55,55,55)" height="5px" width="5px" x="64px" y="88px" /><rect fill="rgb(56,56,56)" height="5px" opacity="0.392156862745" width="5px" x="96px" y="88px" /><rect fill="rgb(55,55,55)" height="5px" opacity="0.780392156863" width="5px" x="100px" y="88px" /><rect fill="rgb(54,54,54)" height="5px" opacity="0.917647058824" width="5px" x="104px" y="88px" /><rect fill="rgb(55,55,55)" height="5px" opacity="0.890196078431" width="5px" x="108px" y="88px" /><rect fill="rgb(55,55,55)" height="5px" opacity="0.741176470588" width="5px" x="112px" y="88px" /><rect fill="rgb(57,57,57)" height="5px" opacity="0.156862745098" width="5px" x="116px" y="88px" /><rect fill="rgb(56,56,56)" height="5px" opacity="0.392156862745" width="5px" x="16px" y="92px" /><rect fill="rgb(55,55,55)" height="5px" opacity="0.780392156863" width="5px" x="20px" y="92px" /><rect fill="rgb(54,54,54)" height="5px" opacity="0.917647058824" width="5px" x="24px" y="92px" /><rect fill="rgb(55,55,55)" height="5px" opacity="0.890196078431" width="5px" x="28px" y="92px" /><rect fill="rgb(55,55,55)" height="5px" opacity="0.741176470588" width="5px" x="32px" y="92px" /><rect fill="rgb(57,57,57)" height="5px" opacity="0.156862745098" width="5px" x="36px" y="92px" /><rect fill="rgb(55,55,55)" height="5px" opacity="0.956862745098" width="5px" x="60px" y="92px" /><rect fill="rgb(55,55,55)" height="5px" width="5px" x="64px" y="92px" /><rect fill="rgb(55,55,55)" height="5px" opacity="0.960784313725" width="5px" x="60px" y="96px" /><rect fill="rgb(55,55,55)" height="5px" width="5px" x="64px" y="96px" /><rect fill="rgb(55,55,55)" height="5px" opacity="0.960784313725" width="5px" x="60px" y="100px" /><rect fill="rgb(55,55,55)" height="5px" width="5px" x="64px" y="100px" /><rect fill="rgb(54,54,54)" height="5px" opacity="0.254901960784" width="5px" x="52px" y="104px" /><rect fill="rgb(55,55,55)" height="5px" opacity="0.741176470588" width="5px" x="56px" y="104px" /><rect fill="rgb(55,55,55)" height="5px" opacity="0.992156862745" width="5px" x="60px" y="104px" /><rect fill="rgb(55,55,55)" height="5px" width="5px" x="64px" y="104px" /><rect fill="rgb(54,54,54)" height="5px" opacity="0.717647058824" width="5px" x="68px" y="104px" /><rect fill="rgb(54,54,54)" height="5px" opacity="0.458823529412" width="5px" x="72px" y="104px" /><rect fill="rgb(55,55,55)" height="5px" opacity="0.670588235294" width="5px" x="44px" y="108px" /><rect fill="rgb(55,55,55)" height="5px" opacity="0.996078431373" width="5px" x="48px" y="108px" /><rect fill="rgb(55,55,55)" height="5px" width="5px" x="52px" y="108px" /><rect fill="rgb(55,55,55)" height="5px" width="5px" x="56px" y="108px" /><rect fill="rgb(55,55,55)" height="5px" width="5px" x="60px" y="108px" /><rect fill="rgb(55,55,55)" height="5px" width="5px" x="64px" y="108px" /><rect fill="rgb(55,55,55)" height="5px" width="5px" x="68px" y="108px" /><rect fill="rgb(55,55,55)" height="5px" width="5px" x="72px" y="108px" /><rect fill="rgb(55,55,55)" height="5px" width="5px" x="76px" y="108px" /><rect fill="rgb(55,55,55)" height="5px" opacity="0.945098039216" width="5px" x="80px" y="108px" /><rect fill="rgb(53,53,53)" height="5px" opacity="0.203921568627" width="5px" x="84px" y="108px" /><rect fill="rgb(55,55,55)" height="5px" opacity="0.611764705882" width="5px" x="40px" y="112px" /><rect fill="rgb(55,55,55)" height="5px" width="5px" x="44px" y="112px" /><rect fill="rgb(55,55,55)" height="5px" width="5px" x="48px" y="112px" /><rect fill="rgb(55,55,55)" height="5px" width="5px" x="52px" y="112px" /><rect fill="rgb(55,55,55)" height="5px" width="5px" x="56px" y="112px" /><rect fill="rgb(55,55,55)" height="5px" width="5px" x="60px" y="112px" /><rect fill="rgb(55,55,55)" height="5px" width="5px" x="64px" y="112px" /><rect fill="rgb(55,55,55)" height="5px" width="5px" x="68px" y="112px" /><rect fill="rgb(55,55,55)" height="5px" width="5px" x="72px" y="112px" /><rect fill="rgb(55,55,55)" height="5px" width="5px" x="76px" y="112px" /><rect fill="rgb(55,55,55)" height="5px" width="5px" x="80px" y="112px" /><rect fill="rgb(55,55,55)" height="5px" width="5px" x="84px" y="112px" /><rect fill="rgb(63,63,63)" height="5px" opacity="0.0470588235294" width="5px" x="88px" y="112px" /><rect fill="rgb(55,55,55)" height="5px" opacity="0.741176470588" width="5px" x="40px" y="116px" /><rect fill="rgb(53,53,53)" height="5px" opacity="0.952941176471" width="5px" x="44px" y="116px" /><rect fill="rgb(53,53,53)" height="5px" opacity="0.952941176471" width="5px" x="48px" y="116px" /><rect fill="rgb(55,55,55)" height="5px" opacity="0.937254901961" width="5px" x="52px" y="116px" /><rect fill="rgb(54,54,54)" height="5px" opacity="0.917647058824" width="5px" x="56px" y="116px" /><rect fill="rgb(54,54,54)" height="5px" opacity="0.917647058824" width="5px" x="60px" y="116px" /><rect fill="rgb(54,54,54)" height="5px" opacity="0.917647058824" width="5px" x="64px" y="116px" /><rect fill="rgb(54,54,54)" height="5px" opacity="0.917647058824" width="5px" x="68px" y="116px" /><rect fill="rgb(54,54,54)" height="5px" opacity="0.917647058824" width="5px" x="72px" y="116px" /><rect fill="rgb(54,54,54)" height="5px" opacity="0.917647058824" width="5px" x="76px" y="116px" /><rect fill="rgb(54,54,54)" height="5px" opacity="0.917647058824" width="5px" x="80px" y="116px" /><rect fill="rgb(54,54,54)" height="5px" opacity="0.917647058824" width="5px" x="84px" y="116px" /><rect fill="rgb(53,53,53)" height="5px" opacity="0.188235294118" width="5px" x="88px" y="116px" /></svg>