<?xml version="1.0" encoding="utf-8" ?>
<svg baseProfile="full" height="128px" version="1.1" width="128px" xmlns="http://www.w3.org/2000/svg" xmlns:ev="http://www.w3.org/2001/xml-events" xmlns:xlink="http://www.w3.org/1999/xlink"><defs /><rect fill="rgb(0,0,0)" height="5px" opacity="0.00392156862745" width="5px" x="24px" y="36px" /><rect fill="rgb(0,0,0)" height="5px" opacity="0.0627450980392" width="5px" x="28px" y="36px" /><rect fill="rgb(0,0,0)" height="5px" opacity="0.325490196078" width="5px" x="32px" y="36px" /><rect fill="rgb(0,0,0)" height="5px" opacity="0.439215686275" width="5px" x="36px" y="36px" /><rect fill="rgb(0,0,0)" height="5px" opacity="0.4" width="5px" x="40px" y="36px" /><rect fill="rgb(0,0,0)" height="5px" opacity="0.180392156863" width="5px" x="44px" y="36px" /><rect fill="rgb(0,0,0)" height="5px" opacity="0.00392156862745" width="5px" x="76px" y="36px" /><rect fill="rgb(0,0,0)" height="5px" opacity="0.0196078431373" width="5px" x="80px" y="36px" /><rect fill="rgb(0,0,0)" height="5px" opacity="0.0313725490196" width="5px" x="84px" y="36px" /><rect fill="rgb(0,0,0)" height="5px" opacity="0.0352941176471" width="5px" x="88px" y="36px" /><rect fill="rgb(0,0,0)" height="5px" opacity="0.0274509803922" width="5px" x="92px" y="36px" /><rect fill="rgb(0,0,0)" height="5px" opacity="0.0078431372549" width="5px" x="96px" y="36px" /><rect fill="rgb(0,0,0)" height="5px" opacity="0.0156862745098" width="5px" x="20px" y="40px" /><rect fill="rgb(0,0,0)" height="5px" opacity="0.4" width="5px" x="24px" y="40px" /><rect fill="rgb(0,0,0)" height="5px" opacity="0.921568627451" width="5px" x="28px" y="40px" /><rect fill="rgb(0,0,0)" height="5px" opacity="0.976470588235" width="5px" x="32px" y="40px" /><rect fill="rgb(0,0,0)" height="5px" opacity="0.98431372549" width="5px" x="36px" y="40px" /><rect fill="rgb(0,0,0)" height="5px" opacity="0.988235294118" width="5px" x="40px" y="40px" /><rect fill="rgb(0,0,0)" height="5px" opacity="0.976470588235" width="5px" x="44px" y="40px" /><rect fill="rgb(0,0,0)" height="5px" opacity="0.701960784314" width="5px" x="48px" y="40px" /><rect fill="rgb(0,0,0)" height="5px" opacity="0.105882352941" width="5px" x="52px" y="40px" /><rect fill="rgb(0,0,0)" height="5px" opacity="0.0078431372549" width="5px" x="72px" y="40px" /><rect fill="rgb(0,0,0)" height="5px" opacity="0.0823529411765" width="5px" x="76px" y="40px" /><rect fill="rgb(0,0,0)" height="5px" opacity="0.41568627451" width="5px" x="80px" y="40px" /><rect fill="rgb(0,0,0)" height="5px" opacity="0.611764705882" width="5px" x="84px" y="40px" /><rect fill="rgb(0,0,0)" height="5px" opacity="0.619607843137" width="5px" x="88px" y="40px" /><rect fill="rgb(0,0,0)" height="5px" opacity="0.482352941176" width="5px" x="92px" y="40px" /><rect fill="rgb(0,0,0)" height="5px" opacity="0.192156862745" width="5px" x="96px" y="40px" /><rect fill="rgb(0,0,0)" height="5px" opacity="0.0392156862745" width="5px" x="100px" y="40px" /><rect fill="rgb(0,0,0)" height="5px" opacity="0.0156862745098" width="5px" x="16px" y="44px" /><rect fill="rgb(0,0,0)" height="5px" opacity="0.392156862745" width="5px" x="20px" y="44px" /><rect fill="rgb(0,0,0)" height="5px" opacity="0.972549019608" width="5px" x="24px" y="44px" /><rect fill="rgb(0,0,0)" height="5px" width="5px" x="28px" y="44px" /><rect fill="rgb(0,0,0)" height="5px" width="5px" x="32px" y="44px" /><rect fill="rgb(0,0,0)" height="5px" width="5px" x="36px" y="44px" /><rect fill="rgb(0,0,0)" height="5px" width="5px" x="40px" y="44px" /><rect fill="rgb(0,0,0)" height="5px" width="5px" x="44px" y="44px" /><rect fill="rgb(0,0,0)" height="5px" opacity="0.992156862745" width="5px" x="48px" y="44px" /><rect fill="rgb(0,0,0)" height="5px" opacity="0.854901960784" width="5px" x="52px" y="44px" /><rect fill="rgb(0,0,0)" height="5px" opacity="0.117647058824" width="5px" x="56px" y="44px" /><rect fill="rgb(0,0,0)" height="5px" opacity="0.0156862745098" width="5px" x="68px" y="44px" /><rect fill="rgb(0,0,0)" height="5px" opacity="0.262745098039" width="5px" x="72px" y="44px" /><rect fill="rgb(0,0,0)" height="5px" opacity="0.894117647059" width="5px" x="76px" y="44px" /><rect fill="rgb(0,0,0)" height="5px" width="5px" x="80px" y="44px" /><rect fill="rgb(0,0,0)" height="5px" width="5px" x="84px" y="44px" /><rect fill="rgb(0,0,0)" height="5px" width="5px" x="88px" y="44px" /><rect fill="rgb(0,0,0)" height="5px" width="5px" x="92px" y="44px" /><rect fill="rgb(0,0,0)" height="5px" opacity="0.96862745098" width="5px" x="96px" y="44px" /><rect fill="rgb(0,0,0)" height="5px" opacity="0.533333333333" width="5px" x="100px" y="44px" /><rect fill="rgb(0,0,0)" height="5px" opacity="0.0392156862745" width="5px" x="104px" y="44px" /><rect fill="rgb(0,0,0)" height="5px" opacity="0.00392156862745" width="5px" x="12px" y="48px" /><rect fill="rgb(0,0,0)" height="5px" opacity="0.0941176470588" width="5px" x="16px" y="48px" /><rect fill="rgb(0,0,0)" height="5px" opacity="0.913725490196" width="5px" x="20px" y="48px" /><rect fill="rgb(0,0,0)" height="5px" width="5px" x="24px" y="48px" /><rect fill="rgb(0,0,0)" height="5px" width="5px" x="28px" y="48px" /><rect fill="rgb(0,0,0)" height="5px" opacity="0.988235294118" width="5px" x="32px" y="48px" /><rect fill="rgb(0,0,0)" height="5px" opacity="0.819607843137" width="5px" x="36px" y="48px" /><rect fill="rgb(0,0,0)" height="5px" opacity="0.8" width="5px" x="40px" y="48px" /><rect fill="rgb(0,0,0)" height="5px" opacity="0.96862745098" width="5px" x="44px" y="48px" /><rect fill="rgb(0,0,0)" height="5px" width="5px" x="48px" y="48px" /><rect fill="rgb(0,0,0)" height="5px" opacity="0.992156862745" width="5px" x="52px" y="48px" /><rect fill="rgb(0,0,0)" height="5px" opacity="0.764705882353" width="5px" x="56px" y="48px" /><rect fill="rgb(0,0,0)" height="5px" opacity="0.0156862745098" width="5px" x="60px" y="48px" /><rect fill="rgb(0,0,0)" height="5px" opacity="0.0078431372549" width="5px" x="64px" y="48px" /><rect fill="rgb(0,0,0)" height="5px" opacity="0.227450980392" width="5px" x="68px" y="48px" /><rect fill="rgb(0,0,0)" height="5px" opacity="0.941176470588" width="5px" x="72px" y="48px" /><rect fill="rgb(0,0,0)" height="5px" width="5px" x="76px" y="48px" /><rect fill="rgb(0,0,0)" height="5px" opacity="0.996078431373" width="5px" x="80px" y="48px" /><rect fill="rgb(0,0,0)" height="5px" opacity="0.98431372549" width="5px" x="84px" y="48px" /><rect fill="rgb(0,0,0)" height="5px" opacity="0.972549019608" width="5px" x="88px" y="48px" /><rect fill="rgb(0,0,0)" height="5px" opacity="0.988235294118" width="5px" x="92px" y="48px" /><rect fill="rgb(0,0,0)" height="5px" width="5px" x="96px" y="48px" /><rect fill="rgb(0,0,0)" height="5px" opacity="0.98431372549" width="5px" x="100px" y="48px" /><rect fill="rgb(0,0,0)" height="5px" opacity="0.509803921569" width="5px" x="104px" y="48px" /><rect fill="rgb(0,0,0)" height="5px" opacity="0.0117647058824" width="5px" x="108px" y="48px" /><rect fill="rgb(0,0,0)" height="5px" opacity="0.0117647058824" width="5px" x="12px" y="52px" /><rect fill="rgb(0,0,0)" height="5px" opacity="0.41568627451" width="5px" x="16px" y="52px" /><rect fill="rgb(0,0,0)" height="5px" opacity="0.996078431373" width="5px" x="20px" y="52px" /><rect fill="rgb(0,0,0)" height="5px" opacity="0.996078431373" width="5px" x="24px" y="52px" /><rect fill="rgb(0,0,0)" height="5px" opacity="0.81568627451" width="5px" x="28px" y="52px" /><rect fill="rgb(0,0,0)" height="5px" opacity="0.164705882353" width="5px" x="32px" y="52px" /><rect fill="rgb(0,0,0)" height="5px" opacity="0.0196078431373" width="5px" x="36px" y="52px" /><rect fill="rgb(0,0,0)" height="5px" opacity="0.0156862745098" width="5px" x="40px" y="52px" /><rect fill="rgb(0,0,0)" height="5px" opacity="0.0980392156863" width="5px" x="44px" y="52px" /><rect fill="rgb(0,0,0)" height="5px" opacity="0.666666666667" width="5px" x="48px" y="52px" /><rect fill="rgb(0,0,0)" height="5px" width="5px" x="52px" y="52px" /><rect fill="rgb(0,0,0)" height="5px" opacity="0.98431372549" width="5px" x="56px" y="52px" /><rect fill="rgb(0,0,0)" height="5px" opacity="0.396078431373" width="5px" x="60px" y="52px" /><rect fill="rgb(0,0,0)" height="5px" opacity="0.0745098039216" width="5px" x="64px" y="52px" /><rect fill="rgb(0,0,0)" height="5px" opacity="0.882352941176" width="5px" x="68px" y="52px" /><rect fill="rgb(0,0,0)" height="5px" width="5px" x="72px" y="52px" /><rect fill="rgb(0,0,0)" height="5px" opacity="0.992156862745" width="5px" x="76px" y="52px" /><rect fill="rgb(0,0,0)" height="5px" opacity="0.901960784314" width="5px" x="80px" y="52px" /><rect fill="rgb(0,0,0)" height="5px" opacity="0.635294117647" width="5px" x="84px" y="52px" /><rect fill="rgb(0,0,0)" height="5px" opacity="0.533333333333" width="5px" x="88px" y="52px" /><rect fill="rgb(0,0,0)" height="5px" opacity="0.737254901961" width="5px" x="92px" y="52px" /><rect fill="rgb(0,0,0)" height="5px" opacity="0.964705882353" width="5px" x="96px" y="52px" /><rect fill="rgb(0,0,0)" height="5px" width="5px" x="100px" y="52px" /><rect fill="rgb(0,0,0)" height="5px" opacity="0.960784313725" width="5px" x="104px" y="52px" /><rect fill="rgb(0,0,0)" height="5px" opacity="0.149019607843" width="5px" x="108px" y="52px" /><rect fill="rgb(0,0,0)" height="5px" opacity="0.0117647058824" width="5px" x="12px" y="56px" /><rect fill="rgb(0,0,0)" height="5px" opacity="0.686274509804" width="5px" x="16px" y="56px" /><rect fill="rgb(0,0,0)" height="5px" width="5px" x="20px" y="56px" /><rect fill="rgb(0,0,0)" height="5px" opacity="0.976470588235" width="5px" x="24px" y="56px" /><rect fill="rgb(0,0,0)" height="5px" opacity="0.176470588235" width="5px" x="28px" y="56px" /><rect fill="rgb(0,0,0)" height="5px" opacity="0.00392156862745" width="5px" x="32px" y="56px" /><rect fill="rgb(0,0,0)" height="5px" opacity="0.0196078431373" width="5px" x="48px" y="56px" /><rect fill="rgb(0,0,0)" height="5px" opacity="0.674509803922" width="5px" x="52px" y="56px" /><rect fill="rgb(0,0,0)" height="5px" opacity="0.996078431373" width="5px" x="56px" y="56px" /><rect fill="rgb(0,0,0)" height="5px" opacity="0.905882352941" width="5px" x="60px" y="56px" /><rect fill="rgb(0,0,0)" height="5px" opacity="0.572549019608" width="5px" x="64px" y="56px" /><rect fill="rgb(0,0,0)" height="5px" width="5px" x="68px" y="56px" /><rect fill="rgb(0,0,0)" height="5px" opacity="0.992156862745" width="5px" x="72px" y="56px" /><rect fill="rgb(0,0,0)" height="5px" opacity="0.776470588235" width="5px" x="76px" y="56px" /><rect fill="rgb(0,0,0)" height="5px" opacity="0.0941176470588" width="5px" x="80px" y="56px" /><rect fill="rgb(0,0,0)" height="5px" opacity="0.0078431372549" width="5px" x="92px" y="56px" /><rect fill="rgb(0,0,0)" height="5px" opacity="0.474509803922" width="5px" x="96px" y="56px" /><rect fill="rgb(0,0,0)" height="5px" opacity="0.992156862745" width="5px" x="100px" y="56px" /><rect fill="rgb(0,0,0)" height="5px" opacity="0.992156862745" width="5px" x="104px" y="56px" /><rect fill="rgb(0,0,0)" height="5px" opacity="0.513725490196" width="5px" x="108px" y="56px" /><rect fill="rgb(0,0,0)" height="5px" opacity="0.0117647058824" width="5px" x="12px" y="60px" /><rect fill="rgb(0,0,0)" height="5px" opacity="0.862745098039" width="5px" x="16px" y="60px" /><rect fill="rgb(0,0,0)" height="5px" opacity="0.996078431373" width="5px" x="20px" y="60px" /><rect fill="rgb(0,0,0)" height="5px" opacity="0.760784313725" width="5px" x="24px" y="60px" /><rect fill="rgb(0,0,0)" height="5px" opacity="0.0078431372549" width="5px" x="28px" y="60px" /><rect fill="rgb(0,0,0)" height="5px" opacity="0.0705882352941" width="5px" x="52px" y="60px" /><rect fill="rgb(0,0,0)" height="5px" opacity="0.905882352941" width="5px" x="56px" y="60px" /><rect fill="rgb(0,0,0)" height="5px" width="5px" x="60px" y="60px" /><rect fill="rgb(0,0,0)" height="5px" width="5px" x="64px" y="60px" /><rect fill="rgb(0,0,0)" height="5px" width="5px" x="68px" y="60px" /><rect fill="rgb(0,0,0)" height="5px" opacity="0.905882352941" width="5px" x="72px" y="60px" /><rect fill="rgb(0,0,0)" height="5px" opacity="0.105882352941" width="5px" x="76px" y="60px" /><rect fill="rgb(0,0,0)" height="5px" opacity="0.0274509803922" width="5px" x="96px" y="60px" /><rect fill="rgb(0,0,0)" height="5px" opacity="0.862745098039" width="5px" x="100px" y="60px" /><rect fill="rgb(0,0,0)" height="5px" opacity="0.996078431373" width="5px" x="104px" y="60px" /><rect fill="rgb(0,0,0)" height="5px" opacity="0.760784313725" width="5px" x="108px" y="60px" /><rect fill="rgb(0,0,0)" height="5px" opacity="0.0078431372549" width="5px" x="12px" y="64px" /><rect fill="rgb(0,0,0)" height="5px" opacity="0.952941176471" width="5px" x="16px" y="64px" /><rect fill="rgb(0,0,0)" height="5px" opacity="0.996078431373" width="5px" x="20px" y="64px" /><rect fill="rgb(0,0,0)" height="5px" opacity="0.580392156863" width="5px" x="24px" y="64px" /><rect fill="rgb(0,0,0)" height="5px" opacity="0.00392156862745" width="5px" x="52px" y="64px" /><rect fill="rgb(0,0,0)" height="5px" opacity="0.4" width="5px" x="56px" y="64px" /><rect fill="rgb(0,0,0)" height="5px" width="5px" x="60px" y="64px" /><rect fill="rgb(0,0,0)" height="5px" width="5px" x="64px" y="64px" /><rect fill="rgb(0,0,0)" height="5px" opacity="0.992156862745" width="5px" x="68px" y="64px" /><rect fill="rgb(0,0,0)" height="5px" opacity="0.396078431373" width="5px" x="72px" y="64px" /><rect fill="rgb(0,0,0)" height="5px" opacity="0.00392156862745" width="5px" x="96px" y="64px" /><rect fill="rgb(0,0,0)" height="5px" opacity="0.63137254902" width="5px" x="100px" y="64px" /><rect fill="rgb(0,0,0)" height="5px" width="5px" x="104px" y="64px" /><rect fill="rgb(0,0,0)" height="5px" opacity="0.909803921569" width="5px" x="108px" y="64px" /><rect fill="rgb(0,0,0)" height="5px" opacity="0.988235294118" width="5px" x="16px" y="68px" /><rect fill="rgb(0,0,0)" height="5px" width="5px" x="20px" y="68px" /><rect fill="rgb(0,0,0)" height="5px" opacity="0.517647058824" width="5px" x="24px" y="68px" /><rect fill="rgb(0,0,0)" height="5px" opacity="0.0901960784314" width="5px" x="56px" y="68px" /><rect fill="rgb(0,0,0)" height="5px" opacity="0.996078431373" width="5px" x="60px" y="68px" /><rect fill="rgb(0,0,0)" height="5px" width="5px" x="64px" y="68px" /><rect fill="rgb(0,0,0)" height="5px" opacity="0.886274509804" width="5px" x="68px" y="68px" /><rect fill="rgb(0,0,0)" height="5px" opacity="0.0196078431373" width="5px" x="72px" y="68px" /><rect fill="rgb(0,0,0)" height="5px" opacity="0.541176470588" width="5px" x="100px" y="68px" /><rect fill="rgb(0,0,0)" height="5px" width="5px" x="104px" y="68px" /><rect fill="rgb(0,0,0)" height="5px" opacity="0.976470588235" width="5px" x="108px" y="68px" /><rect fill="rgb(0,0,0)" height="5px" opacity="0.941176470588" width="5px" x="16px" y="72px" /><rect fill="rgb(0,0,0)" height="5px" width="5px" x="20px" y="72px" /><rect fill="rgb(0,0,0)" height="5px" opacity="0.545098039216" width="5px" x="24px" y="72px" /><rect fill="rgb(0,0,0)" height="5px" opacity="0.00392156862745" width="5px" x="28px" y="72px" /><rect fill="rgb(0,0,0)" height="5px" opacity="0.501960784314" width="5px" x="56px" y="72px" /><rect fill="rgb(0,0,0)" height="5px" opacity="0.996078431373" width="5px" x="60px" y="72px" /><rect fill="rgb(0,0,0)" height="5px" width="5px" x="64px" y="72px" /><rect fill="rgb(0,0,0)" height="5px" opacity="0.976470588235" width="5px" x="68px" y="72px" /><rect fill="rgb(0,0,0)" height="5px" opacity="0.16862745098" width="5px" x="72px" y="72px" /><rect fill="rgb(0,0,0)" height="5px" opacity="0.627450980392" width="5px" x="100px" y="72px" /><rect fill="rgb(0,0,0)" height="5px" opacity="0.996078431373" width="5px" x="104px" y="72px" /><rect fill="rgb(0,0,0)" height="5px" opacity="0.952941176471" width="5px" x="108px" y="72px" /><rect fill="rgb(0,0,0)" height="5px" opacity="0.0078431372549" width="5px" x="112px" y="72px" /><rect fill="rgb(0,0,0)" height="5px" opacity="0.850980392157" width="5px" x="16px" y="76px" /><rect fill="rgb(0,0,0)" height="5px" width="5px" x="20px" y="76px" /><rect fill="rgb(0,0,0)" height="5px" opacity="0.694117647059" width="5px" x="24px" y="76px" /><rect fill="rgb(0,0,0)" height="5px" opacity="0.0078431372549" width="5px" x="28px" y="76px" /><rect fill="rgb(0,0,0)" height="5px" opacity="0.0901960784314" width="5px" x="52px" y="76px" /><rect fill="rgb(0,0,0)" height="5px" opacity="0.937254901961" width="5px" x="56px" y="76px" /><rect fill="rgb(0,0,0)" height="5px" width="5px" x="60px" y="76px" /><rect fill="rgb(0,0,0)" height="5px" opacity="0.992156862745" width="5px" x="64px" y="76px" /><rect fill="rgb(0,0,0)" height="5px" width="5px" x="68px" y="76px" /><rect fill="rgb(0,0,0)" height="5px" opacity="0.749019607843" width="5px" x="72px" y="76px" /><rect fill="rgb(0,0,0)" height="5px" opacity="0.043137254902" width="5px" x="76px" y="76px" /><rect fill="rgb(0,0,0)" height="5px" opacity="0.0235294117647" width="5px" x="96px" y="76px" /><rect fill="rgb(0,0,0)" height="5px" opacity="0.823529411765" width="5px" x="100px" y="76px" /><rect fill="rgb(0,0,0)" height="5px" opacity="0.996078431373" width="5px" x="104px" y="76px" /><rect fill="rgb(0,0,0)" height="5px" opacity="0.862745098039" width="5px" x="108px" y="76px" /><rect fill="rgb(0,0,0)" height="5px" opacity="0.0117647058824" width="5px" x="112px" y="76px" /><rect fill="rgb(0,0,0)" height="5px" opacity="0.670588235294" width="5px" x="16px" y="80px" /><rect fill="rgb(0,0,0)" height="5px" opacity="0.992156862745" width="5px" x="20px" y="80px" /><rect fill="rgb(0,0,0)" height="5px" opacity="0.949019607843" width="5px" x="24px" y="80px" /><rect fill="rgb(0,0,0)" height="5px" opacity="0.0862745098039" width="5px" x="28px" y="80px" /><rect fill="rgb(0,0,0)" height="5px" opacity="0.662745098039" width="5px" x="52px" y="80px" /><rect fill="rgb(0,0,0)" height="5px" opacity="0.992156862745" width="5px" x="56px" y="80px" /><rect fill="rgb(0,0,0)" height="5px" width="5px" x="60px" y="80px" /><rect fill="rgb(0,0,0)" height="5px" opacity="0.650980392157" width="5px" x="64px" y="80px" /><rect fill="rgb(0,0,0)" height="5px" opacity="0.98431372549" width="5px" x="68px" y="80px" /><rect fill="rgb(0,0,0)" height="5px" width="5px" x="72px" y="80px" /><rect fill="rgb(0,0,0)" height="5px" opacity="0.639215686275" width="5px" x="76px" y="80px" /><rect fill="rgb(0,0,0)" height="5px" opacity="0.0666666666667" width="5px" x="80px" y="80px" /><rect fill="rgb(0,0,0)" height="5px" opacity="0.0235294117647" width="5px" x="84px" y="80px" /><rect fill="rgb(0,0,0)" height="5px" opacity="0.0196078431373" width="5px" x="88px" y="80px" /><rect fill="rgb(0,0,0)" height="5px" opacity="0.0352941176471" width="5px" x="92px" y="80px" /><rect fill="rgb(0,0,0)" height="5px" opacity="0.38431372549" width="5px" x="96px" y="80px" /><rect fill="rgb(0,0,0)" height="5px" opacity="0.988235294118" width="5px" x="100px" y="80px" /><rect fill="rgb(0,0,0)" height="5px" width="5px" x="104px" y="80px" /><rect fill="rgb(0,0,0)" height="5px" opacity="0.658823529412" width="5px" x="108px" y="80px" /><rect fill="rgb(0,0,0)" height="5px" opacity="0.0117647058824" width="5px" x="112px" y="80px" /><rect fill="rgb(0,0,0)" height="5px" opacity="0.4" width="5px" x="16px" y="84px" /><rect fill="rgb(0,0,0)" height="5px" opacity="0.98431372549" width="5px" x="20px" y="84px" /><rect fill="rgb(0,0,0)" height="5px" width="5px" x="24px" y="84px" /><rect fill="rgb(0,0,0)" height="5px" opacity="0.674509803922" width="5px" x="28px" y="84px" /><rect fill="rgb(0,0,0)" height="5px" opacity="0.0470588235294" width="5px" x="32px" y="84px" /><rect fill="rgb(0,0,0)" height="5px" opacity="0.0117647058824" width="5px" x="44px" y="84px" /><rect fill="rgb(0,0,0)" height="5px" opacity="0.529411764706" width="5px" x="48px" y="84px" /><rect fill="rgb(0,0,0)" height="5px" opacity="0.988235294118" width="5px" x="52px" y="84px" /><rect fill="rgb(0,0,0)" height="5px" width="5px" x="56px" y="84px" /><rect fill="rgb(0,0,0)" height="5px" opacity="0.854901960784" width="5px" x="60px" y="84px" /><rect fill="rgb(0,0,0)" height="5px" opacity="0.0392156862745" width="5px" x="64px" y="84px" /><rect fill="rgb(0,0,0)" height="5px" opacity="0.643137254902" width="5px" x="68px" y="84px" /><rect fill="rgb(0,0,0)" height="5px" opacity="0.988235294118" width="5px" x="72px" y="84px" /><rect fill="rgb(0,0,0)" height="5px" width="5px" x="76px" y="84px" /><rect fill="rgb(0,0,0)" height="5px" opacity="0.839215686275" width="5px" x="80px" y="84px" /><rect fill="rgb(0,0,0)" height="5px" opacity="0.498039215686" width="5px" x="84px" y="84px" /><rect fill="rgb(0,0,0)" height="5px" opacity="0.388235294118" width="5px" x="88px" y="84px" /><rect fill="rgb(0,0,0)" height="5px" opacity="0.596078431373" width="5px" x="92px" y="84px" /><rect fill="rgb(0,0,0)" height="5px" opacity="0.96862745098" width="5px" x="96px" y="84px" /><rect fill="rgb(0,0,0)" height="5px" width="5px" x="100px" y="84px" /><rect fill="rgb(0,0,0)" height="5px" opacity="0.988235294118" width="5px" x="104px" y="84px" /><rect fill="rgb(0,0,0)" height="5px" opacity="0.349019607843" width="5px" x="108px" y="84px" /><rect fill="rgb(0,0,0)" height="5px" opacity="0.0078431372549" width="5px" x="112px" y="84px" /><rect fill="rgb(0,0,0)" height="5px" opacity="0.0705882352941" width="5px" x="16px" y="88px" /><rect fill="rgb(0,0,0)" height="5px" opacity="0.894117647059" width="5px" x="20px" y="88px" /><rect fill="rgb(0,0,0)" height="5px" opacity="0.996078431373" width="5px" x="24px" y="88px" /><rect fill="rgb(0,0,0)" height="5px" opacity="0.988235294118" width="5px" x="28px" y="88px" /><rect fill="rgb(0,0,0)" height="5px" opacity="0.858823529412" width="5px" x="32px" y="88px" /><rect fill="rgb(0,0,0)" height="5px" opacity="0.588235294118" width="5px" x="36px" y="88px" /><rect fill="rgb(0,0,0)" height="5px" opacity="0.56862745098" width="5px" x="40px" y="88px" /><rect fill="rgb(0,0,0)" height="5px" opacity="0.83137254902" width="5px" x="44px" y="88px" /><rect fill="rgb(0,0,0)" height="5px" opacity="0.992156862745" width="5px" x="48px" y="88px" /><rect fill="rgb(0,0,0)" height="5px" width="5px" x="52px" y="88px" /><rect fill="rgb(0,0,0)" height="5px" opacity="0.996078431373" width="5px" x="56px" y="88px" /><rect fill="rgb(0,0,0)" height="5px" opacity="0.298039215686" width="5px" x="60px" y="88px" /><rect fill="rgb(0,0,0)" height="5px" opacity="0.0078431372549" width="5px" x="64px" y="88px" /><rect fill="rgb(0,0,0)" height="5px" opacity="0.0705882352941" width="5px" x="68px" y="88px" /><rect fill="rgb(0,0,0)" height="5px" opacity="0.807843137255" width="5px" x="72px" y="88px" /><rect fill="rgb(0,0,0)" height="5px" opacity="0.988235294118" width="5px" x="76px" y="88px" /><rect fill="rgb(0,0,0)" height="5px" width="5px" x="80px" y="88px" /><rect fill="rgb(0,0,0)" height="5px" width="5px" x="84px" y="88px" /><rect fill="rgb(0,0,0)" height="5px" width="5px" x="88px" y="88px" /><rect fill="rgb(0,0,0)" height="5px" width="5px" x="92px" y="88px" /><rect fill="rgb(0,0,0)" height="5px" width="5px" x="96px" y="88px" /><rect fill="rgb(0,0,0)" height="5px" opacity="0.992156862745" width="5px" x="100px" y="88px" /><rect fill="rgb(0,0,0)" height="5px" opacity="0.788235294118" width="5px" x="104px" y="88px" /><rect fill="rgb(0,0,0)" height="5px" opacity="0.0470588235294" width="5px" x="108px" y="88px" /><rect fill="rgb(0,0,0)" height="5px" opacity="0.00392156862745" width="5px" x="16px" y="92px" /><rect fill="rgb(0,0,0)" height="5px" opacity="0.356862745098" width="5px" x="20px" y="92px" /><rect fill="rgb(0,0,0)" height="5px" opacity="0.972549019608" width="5px" x="24px" y="92px" /><rect fill="rgb(0,0,0)" height="5px" width="5px" x="28px" y="92px" /><rect fill="rgb(0,0,0)" height="5px" opacity="0.996078431373" width="5px" x="32px" y="92px" /><rect fill="rgb(0,0,0)" height="5px" opacity="0.988235294118" width="5px" x="36px" y="92px" /><rect fill="rgb(0,0,0)" height="5px" opacity="0.992156862745" width="5px" x="40px" y="92px" /><rect fill="rgb(0,0,0)" height="5px" opacity="0.996078431373" width="5px" x="44px" y="92px" /><rect fill="rgb(0,0,0)" height="5px" width="5px" x="48px" y="92px" /><rect fill="rgb(0,0,0)" height="5px" width="5px" x="52px" y="92px" /><rect fill="rgb(0,0,0)" height="5px" opacity="0.556862745098" width="5px" x="56px" y="92px" /><rect fill="rgb(0,0,0)" height="5px" opacity="0.0196078431373" width="5px" x="60px" y="92px" /><rect fill="rgb(0,0,0)" height="5px" opacity="0.105882352941" width="5px" x="72px" y="92px" /><rect fill="rgb(0,0,0)" height="5px" opacity="0.752941176471" width="5px" x="76px" y="92px" /><rect fill="rgb(0,0,0)" height="5px" opacity="0.964705882353" width="5px" x="80px" y="92px" /><rect fill="rgb(0,0,0)" height="5px" opacity="0.98431372549" width="5px" x="84px" y="92px" /><rect fill="rgb(0,0,0)" height="5px" opacity="0.988235294118" width="5px" x="88px" y="92px" /><rect fill="rgb(0,0,0)" height="5px" opacity="0.98431372549" width="5px" x="92px" y="92px" /><rect fill="rgb(0,0,0)" height="5px" opacity="0.964705882353" width="5px" x="96px" y="92px" /><rect fill="rgb(0,0,0)" height="5px" opacity="0.839215686275" width="5px" x="100px" y="92px" /><rect fill="rgb(0,0,0)" height="5px" opacity="0.176470588235" width="5px" x="104px" y="92px" /><rect fill="rgb(0,0,0)" height="5px" opacity="0.0078431372549" width="5px" x="108px" y="92px" /><rect fill="rgb(0,0,0)" height="5px" opacity="0.0156862745098" width="5px" x="20px" y="96px" /><rect fill="rgb(0,0,0)" height="5px" opacity="0.392156862745" width="5px" x="24px" y="96px" /><rect fill="rgb(0,0,0)" height="5px" opacity="0.929411764706" width="5px" x="28px" y="96px" /><rect fill="rgb(0,0,0)" height="5px" opacity="0.996078431373" width="5px" x="32px" y="96px" /><rect fill="rgb(0,0,0)" height="5px" width="5px" x="36px" y="96px" /><rect fill="rgb(0,0,0)" height="5px" width="5px" x="40px" y="96px" /><rect fill="rgb(0,0,0)" height="5px" width="5px" x="44px" y="96px" /><rect fill="rgb(0,0,0)" height="5px" opacity="0.996078431373" width="5px" x="48px" y="96px" /><rect fill="rgb(0,0,0)" height="5px" opacity="0.552941176471" width="5px" x="52px" y="96px" /><rect fill="rgb(0,0,0)" height="5px" opacity="0.0274509803922" width="5px" x="56px" y="96px" /><rect fill="rgb(0,0,0)" height="5px" opacity="0.0196078431373" width="5px" x="76px" y="96px" /><rect fill="rgb(0,0,0)" height="5px" opacity="0.352941176471" width="5px" x="80px" y="96px" /><rect fill="rgb(0,0,0)" height="5px" opacity="0.658823529412" width="5px" x="84px" y="96px" /><rect fill="rgb(0,0,0)" height="5px" opacity="0.76862745098" width="5px" x="88px" y="96px" /><rect fill="rgb(0,0,0)" height="5px" opacity="0.701960784314" width="5px" x="92px" y="96px" /><rect fill="rgb(0,0,0)" height="5px" opacity="0.462745098039" width="5px" x="96px" y="96px" /><rect fill="rgb(0,0,0)" height="5px" opacity="0.0745098039216" width="5px" x="100px" y="96px" /><rect fill="rgb(0,0,0)" height="5px" opacity="0.00392156862745" width="5px" x="104px" y="96px" /><rect fill="rgb(0,0,0)" height="5px" opacity="0.0156862745098" width="5px" x="24px" y="100px" /><rect fill="rgb(0,0,0)" height="5px" opacity="0.117647058824" width="5px" x="28px" y="100px" /><rect fill="rgb(0,0,0)" height="5px" opacity="0.427450980392" width="5px" x="32px" y="100px" /><rect fill="rgb(0,0,0)" height="5px" opacity="0.619607843137" width="5px" x="36px" y="100px" /><rect fill="rgb(0,0,0)" height="5px" opacity="0.682352941176" width="5px" x="40px" y="100px" /><rect fill="rgb(0,0,0)" height="5px" opacity="0.556862745098" width="5px" x="44px" y="100px" /><rect fill="rgb(0,0,0)" height="5px" opacity="0.207843137255" width="5px" x="48px" y="100px" /><rect fill="rgb(0,0,0)" height="5px" opacity="0.0078431372549" width="5px" x="52px" y="100px" /><rect fill="rgb(0,0,0)" height="5px" opacity="0.00392156862745" width="5px" x="28px" y="104px" /><rect fill="rgb(0,0,0)" height="5px" opacity="0.0117647058824" width="5px" x="32px" y="104px" /><rect fill="rgb(0,0,0)" height="5px" opacity="0.0156862745098" width="5px" x="36px" y="104px" /><rect fill="rgb(0,0,0)" height="5px" opacity="0.0117647058824" width="5px" x="40px" y="104px" /><rect fill="rgb(0,0,0)" height="5px" opacity="0.0078431372549" width="5px" x="44px" y="104px" /></svg>