<?xml version="1.0" encoding="utf-8" ?>
<svg baseProfile="full" height="128px" version="1.1" width="128px" xmlns="http://www.w3.org/2000/svg" xmlns:ev="http://www.w3.org/2001/xml-events" xmlns:xlink="http://www.w3.org/1999/xlink"><defs /><rect fill="rgb(159,138,117)" height="5px" width="5px" x="8px" y="28px" /><rect fill="rgb(159,138,117)" height="5px" width="5px" x="12px" y="28px" /><rect fill="rgb(159,138,117)" height="5px" width="5px" x="16px" y="28px" /><rect fill="rgb(159,138,117)" height="5px" width="5px" x="20px" y="28px" /><rect fill="rgb(159,138,117)" height="5px" width="5px" x="24px" y="28px" /><rect fill="rgb(159,138,117)" height="5px" width="5px" x="28px" y="28px" /><rect fill="rgb(159,138,117)" height="5px" width="5px" x="32px" y="28px" /><rect fill="rgb(159,138,117)" height="5px" width="5px" x="36px" y="28px" /><rect fill="rgb(159,138,117)" height="5px" width="5px" x="40px" y="28px" /><rect fill="rgb(159,138,117)" height="5px" width="5px" x="44px" y="28px" /><rect fill="rgb(116,99,83)" height="5px" width="5px" x="8px" y="32px" /><rect fill="rgb(116,99,83)" height="5px" width="5px" x="12px" y="32px" /><rect fill="rgb(116,99,83)" height="5px" width="5px" x="16px" y="32px" /><rect fill="rgb(116,99,83)" height="5px" width="5px" x="20px" y="32px" /><rect fill="rgb(116,99,83)" height="5px" width="5px" x="24px" y="32px" /><rect fill="rgb(116,99,83)" height="5px" width="5px" x="28px" y="32px" /><rect fill="rgb(116,99,83)" height="5px" width="5px" x="32px" y="32px" /><rect fill="rgb(116,99,83)" height="5px" width="5px" x="36px" y="32px" /><rect fill="rgb(116,99,83)" height="5px" width="5px" x="40px" y="32px" /><rect fill="rgb(116,99,83)" height="5px" width="5px" x="44px" y="32px" /><rect fill="rgb(159,138,117)" height="5px" width="5px" x="48px" y="32px" /><rect fill="rgb(159,138,117)" height="5px" width="5px" x="52px" y="32px" /><rect fill="rgb(159,138,117)" height="5px" width="5px" x="56px" y="32px" /><rect fill="rgb(159,138,117)" height="5px" width="5px" x="60px" y="32px" /><rect fill="rgb(159,138,117)" height="5px" width="5px" x="64px" y="32px" /><rect fill="rgb(142,124,105)" height="5px" width="5px" x="68px" y="32px" /><rect fill="rgb(142,124,105)" height="5px" width="5px" x="72px" y="32px" /><rect fill="rgb(142,124,105)" height="5px" width="5px" x="76px" y="32px" /><rect fill="rgb(142,124,105)" height="5px" width="5px" x="80px" y="32px" /><rect fill="rgb(142,124,105)" height="5px" width="5px" x="84px" y="32px" /><rect fill="rgb(133,116,98)" height="5px" width="5px" x="88px" y="32px" /><rect fill="rgb(125,109,92)" height="5px" width="5px" x="92px" y="32px" /><rect fill="rgb(67,57,48)" height="5px" width="5px" x="16px" y="36px" /><rect fill="rgb(67,57,48)" height="5px" width="5px" x="24px" y="36px" /><rect fill="rgb(67,57,48)" height="5px" width="5px" x="40px" y="36px" /><rect fill="rgb(116,99,83)" height="5px" width="5px" x="48px" y="36px" /><rect fill="rgb(116,99,83)" height="5px" width="5px" x="52px" y="36px" /><rect fill="rgb(116,99,83)" height="5px" width="5px" x="56px" y="36px" /><rect fill="rgb(116,99,83)" height="5px" width="5px" x="60px" y="36px" /><rect fill="rgb(116,99,83)" height="5px" width="5px" x="64px" y="36px" /><rect fill="rgb(94,80,67)" height="5px" width="5px" x="68px" y="36px" /><rect fill="rgb(94,80,67)" height="5px" width="5px" x="72px" y="36px" /><rect fill="rgb(94,80,67)" height="5px" width="5px" x="76px" y="36px" /><rect fill="rgb(94,80,67)" height="5px" width="5px" x="80px" y="36px" /><rect fill="rgb(94,80,67)" height="5px" width="5px" x="84px" y="36px" /><rect fill="rgb(94,80,67)" height="5px" width="5px" x="88px" y="36px" /><rect fill="rgb(88,75,63)" height="5px" width="5px" x="92px" y="36px" /><rect fill="rgb(125,109,92)" height="5px" width="5px" x="96px" y="36px" /><rect fill="rgb(125,109,92)" height="5px" width="5px" x="100px" y="36px" /><rect fill="rgb(125,109,92)" height="5px" width="5px" x="104px" y="36px" /><rect fill="rgb(125,109,92)" height="5px" width="5px" x="108px" y="36px" /><rect fill="rgb(125,109,92)" height="5px" width="5px" x="112px" y="36px" /><rect fill="rgb(67,57,48)" height="5px" width="5px" x="16px" y="40px" /><rect fill="rgb(67,57,48)" height="5px" width="5px" x="24px" y="40px" /><rect fill="rgb(67,57,48)" height="5px" width="5px" x="40px" y="40px" /><rect fill="rgb(67,57,48)" height="5px" width="5px" x="68px" y="40px" /><rect fill="rgb(67,57,48)" height="5px" width="5px" x="76px" y="40px" /><rect fill="rgb(94,80,67)" height="5px" width="5px" x="96px" y="40px" /><rect fill="rgb(94,80,67)" height="5px" width="5px" x="100px" y="40px" /><rect fill="rgb(88,75,63)" height="5px" width="5px" x="104px" y="40px" /><rect fill="rgb(88,75,63)" height="5px" width="5px" x="108px" y="40px" /><rect fill="rgb(88,75,63)" height="5px" width="5px" x="112px" y="40px" /><rect fill="rgb(67,57,48)" height="5px" width="5px" x="16px" y="44px" /><rect fill="rgb(67,57,48)" height="5px" width="5px" x="24px" y="44px" /><rect fill="rgb(67,57,48)" height="5px" width="5px" x="44px" y="44px" /><rect fill="rgb(67,57,48)" height="5px" width="5px" x="64px" y="44px" /><rect fill="rgb(67,57,48)" height="5px" width="5px" x="76px" y="44px" /><rect fill="rgb(67,57,48)" height="5px" width="5px" x="96px" y="44px" /><rect fill="rgb(67,57,48)" height="5px" width="5px" x="104px" y="44px" /><rect fill="rgb(67,57,48)" height="5px" width="5px" x="16px" y="48px" /><rect fill="rgb(67,57,48)" height="5px" width="5px" x="24px" y="48px" /><rect fill="rgb(67,57,48)" height="5px" width="5px" x="48px" y="48px" /><rect fill="rgb(67,57,48)" height="5px" width="5px" x="60px" y="48px" /><rect fill="rgb(67,57,48)" height="5px" width="5px" x="72px" y="48px" /><rect fill="rgb(67,57,48)" height="5px" width="5px" x="96px" y="48px" /><rect fill="rgb(67,57,48)" height="5px" width="5px" x="104px" y="48px" /><rect fill="rgb(137,137,137)" height="5px" width="5px" x="120px" y="48px" /><rect fill="rgb(137,137,137)" height="5px" width="5px" x="124px" y="48px" /><rect fill="rgb(67,57,48)" height="5px" width="5px" x="20px" y="52px" /><rect fill="rgb(67,57,48)" height="5px" width="5px" x="28px" y="52px" /><rect fill="rgb(64,64,64)" height="5px" width="5px" x="52px" y="52px" /><rect fill="rgb(64,64,64)" height="5px" width="5px" x="56px" y="52px" /><rect fill="rgb(129,159,117)" height="5px" width="5px" x="60px" y="52px" /><rect fill="rgb(121,154,108)" height="5px" width="5px" x="64px" y="52px" /><rect fill="rgb(121,154,108)" height="5px" width="5px" x="68px" y="52px" /><rect fill="rgb(67,57,48)" height="5px" width="5px" x="96px" y="52px" /><rect fill="rgb(67,57,48)" height="5px" width="5px" x="104px" y="52px" /><rect fill="rgb(151,151,151)" height="5px" width="5px" x="116px" y="52px" /><rect fill="rgb(92,107,190)" height="5px" width="5px" x="120px" y="52px" /><rect fill="rgb(137,137,137)" height="5px" width="5px" x="124px" y="52px" /><rect fill="rgb(67,57,48)" height="5px" width="5px" x="20px" y="56px" /><rect fill="rgb(67,57,48)" height="5px" width="5px" x="28px" y="56px" /><rect fill="rgb(243,228,144)" height="5px" width="5px" x="36px" y="56px" /><rect fill="rgb(243,228,144)" height="5px" width="5px" x="40px" y="56px" /><rect fill="rgb(243,228,144)" height="5px" width="5px" x="44px" y="56px" /><rect fill="rgb(64,64,64)" height="5px" width="5px" x="48px" y="56px" /><rect fill="rgb(160,160,160)" height="5px" width="5px" x="52px" y="56px" /><rect fill="rgb(160,160,160)" height="5px" width="5px" x="56px" y="56px" /><rect fill="rgb(64,64,64)" height="5px" width="5px" x="60px" y="56px" /><rect fill="rgb(129,159,117)" height="5px" width="5px" x="64px" y="56px" /><rect fill="rgb(129,159,117)" height="5px" width="5px" x="68px" y="56px" /><rect fill="rgb(121,154,108)" height="5px" width="5px" x="72px" y="56px" /><rect fill="rgb(112,142,100)" height="5px" width="5px" x="76px" y="56px" /><rect fill="rgb(112,142,100)" height="5px" width="5px" x="80px" y="56px" /><rect fill="rgb(112,142,100)" height="5px" width="5px" x="84px" y="56px" /><rect fill="rgb(112,142,100)" height="5px" width="5px" x="88px" y="56px" /><rect fill="rgb(67,57,48)" height="5px" width="5px" x="96px" y="56px" /><rect fill="rgb(67,57,48)" height="5px" width="5px" x="108px" y="56px" /><rect fill="rgb(151,151,151)" height="5px" width="5px" x="112px" y="56px" /><rect fill="rgb(255,127,127)" height="5px" width="5px" x="116px" y="56px" /><rect fill="rgb(92,107,190)" height="5px" width="5px" x="120px" y="56px" /><rect fill="rgb(137,137,137)" height="5px" width="5px" x="124px" y="56px" /><rect fill="rgb(67,57,48)" height="5px" width="5px" x="20px" y="60px" /><rect fill="rgb(67,57,48)" height="5px" width="5px" x="28px" y="60px" /><rect fill="rgb(243,228,144)" height="5px" width="5px" x="44px" y="60px" /><rect fill="rgb(243,228,144)" height="5px" width="5px" x="48px" y="60px" /><rect fill="rgb(232,218,140)" height="5px" width="5px" x="52px" y="60px" /><rect fill="rgb(160,160,160)" height="5px" width="5px" x="56px" y="60px" /><rect fill="rgb(160,160,160)" height="5px" width="5px" x="60px" y="60px" /><rect fill="rgb(64,64,64)" height="5px" width="5px" x="64px" y="60px" /><rect fill="rgb(129,159,117)" height="5px" width="5px" x="68px" y="60px" /><rect fill="rgb(121,154,108)" height="5px" width="5px" x="72px" y="60px" /><rect fill="rgb(121,154,108)" height="5px" width="5px" x="76px" y="60px" /><rect fill="rgb(121,154,108)" height="5px" width="5px" x="80px" y="60px" /><rect fill="rgb(121,154,108)" height="5px" width="5px" x="84px" y="60px" /><rect fill="rgb(112,142,100)" height="5px" width="5px" x="88px" y="60px" /><rect fill="rgb(93,116,84)" height="5px" width="5px" x="92px" y="60px" /><rect fill="rgb(84,105,77)" height="5px" width="5px" x="96px" y="60px" /><rect fill="rgb(67,57,48)" height="5px" width="5px" x="100px" y="60px" /><rect fill="rgb(76,95,69)" height="5px" width="5px" x="104px" y="60px" /><rect fill="rgb(67,57,48)" height="5px" width="5px" x="108px" y="60px" /><rect fill="rgb(255,255,255)" height="5px" width="5px" x="112px" y="60px" /><rect fill="rgb(255,127,127)" height="5px" width="5px" x="116px" y="60px" /><rect fill="rgb(92,107,190)" height="5px" width="5px" x="120px" y="60px" /><rect fill="rgb(151,151,151)" height="5px" width="5px" x="124px" y="60px" /><rect fill="rgb(159,138,117)" height="5px" width="5px" x="8px" y="64px" /><rect fill="rgb(159,138,117)" height="5px" width="5px" x="12px" y="64px" /><rect fill="rgb(159,138,117)" height="5px" width="5px" x="16px" y="64px" /><rect fill="rgb(67,57,48)" height="5px" width="5px" x="20px" y="64px" /><rect fill="rgb(67,57,48)" height="5px" width="5px" x="28px" y="64px" /><rect fill="rgb(64,64,64)" height="5px" width="5px" x="44px" y="64px" /><rect fill="rgb(160,160,160)" height="5px" width="5px" x="48px" y="64px" /><rect fill="rgb(160,160,160)" height="5px" width="5px" x="52px" y="64px" /><rect fill="rgb(232,218,140)" height="5px" width="5px" x="56px" y="64px" /><rect fill="rgb(201,189,121)" height="5px" width="5px" x="60px" y="64px" /><rect fill="rgb(201,189,121)" height="5px" width="5px" x="64px" y="64px" /><rect fill="rgb(129,159,117)" height="5px" width="5px" x="68px" y="64px" /><rect fill="rgb(121,154,108)" height="5px" width="5px" x="72px" y="64px" /><rect fill="rgb(121,154,108)" height="5px" width="5px" x="76px" y="64px" /><rect fill="rgb(121,154,108)" height="5px" width="5px" x="80px" y="64px" /><rect fill="rgb(129,159,117)" height="5px" width="5px" x="84px" y="64px" /><rect fill="rgb(112,142,100)" height="5px" width="5px" x="88px" y="64px" /><rect fill="rgb(112,142,100)" height="5px" width="5px" x="92px" y="64px" /><rect fill="rgb(112,142,100)" height="5px" width="5px" x="96px" y="64px" /><rect fill="rgb(67,57,48)" height="5px" width="5px" x="100px" y="64px" /><rect fill="rgb(84,105,77)" height="5px" width="5px" x="104px" y="64px" /><rect fill="rgb(67,57,48)" height="5px" width="5px" x="108px" y="64px" /><rect fill="rgb(76,95,69)" height="5px" width="5px" x="112px" y="64px" /><rect fill="rgb(255,127,127)" height="5px" width="5px" x="116px" y="64px" /><rect fill="rgb(92,107,190)" height="5px" width="5px" x="120px" y="64px" /><rect fill="rgb(151,151,151)" height="5px" width="5px" x="124px" y="64px" /><rect fill="rgb(159,138,117)" height="5px" width="5px" x="20px" y="68px" /><rect fill="rgb(159,138,117)" height="5px" width="5px" x="24px" y="68px" /><rect fill="rgb(159,138,117)" height="5px" width="5px" x="28px" y="68px" /><rect fill="rgb(64,64,64)" height="5px" width="5px" x="44px" y="68px" /><rect fill="rgb(160,160,160)" height="5px" width="5px" x="48px" y="68px" /><rect fill="rgb(160,160,160)" height="5px" width="5px" x="52px" y="68px" /><rect fill="rgb(160,160,160)" height="5px" width="5px" x="56px" y="68px" /><rect fill="rgb(160,160,160)" height="5px" width="5px" x="60px" y="68px" /><rect fill="rgb(201,189,121)" height="5px" width="5px" x="64px" y="68px" /><rect fill="rgb(201,189,121)" height="5px" width="5px" x="68px" y="68px" /><rect fill="rgb(201,189,121)" height="5px" width="5px" x="72px" y="68px" /><rect fill="rgb(121,154,108)" height="5px" width="5px" x="76px" y="68px" /><rect fill="rgb(121,154,108)" height="5px" width="5px" x="80px" y="68px" /><rect fill="rgb(121,154,108)" height="5px" width="5px" x="84px" y="68px" /><rect fill="rgb(112,142,100)" height="5px" width="5px" x="88px" y="68px" /><rect fill="rgb(93,116,84)" height="5px" width="5px" x="92px" y="68px" /><rect fill="rgb(93,116,84)" height="5px" width="5px" x="96px" y="68px" /><rect fill="rgb(67,57,48)" height="5px" width="5px" x="100px" y="68px" /><rect fill="rgb(93,116,84)" height="5px" width="5px" x="104px" y="68px" /><rect fill="rgb(159,138,117)" height="5px" width="5px" x="108px" y="68px" /><rect fill="rgb(159,138,117)" height="5px" width="5px" x="112px" y="68px" /><rect fill="rgb(76,95,69)" height="5px" width="5px" x="116px" y="68px" /><rect fill="rgb(160,160,160)" height="5px" width="5px" x="120px" y="68px" /><rect fill="rgb(159,138,117)" height="5px" width="5px" x="32px" y="72px" /><rect fill="rgb(159,138,117)" height="5px" width="5px" x="36px" y="72px" /><rect fill="rgb(159,138,117)" height="5px" width="5px" x="40px" y="72px" /><rect fill="rgb(64,64,64)" height="5px" width="5px" x="48px" y="72px" /><rect fill="rgb(160,160,160)" height="5px" width="5px" x="52px" y="72px" /><rect fill="rgb(160,160,160)" height="5px" width="5px" x="56px" y="72px" /><rect fill="rgb(64,64,64)" height="5px" width="5px" x="60px" y="72px" /><rect fill="rgb(129,159,117)" height="5px" width="5px" x="64px" y="72px" /><rect fill="rgb(121,154,108)" height="5px" width="5px" x="68px" y="72px" /><rect fill="rgb(121,154,108)" height="5px" width="5px" x="72px" y="72px" /><rect fill="rgb(129,159,117)" height="5px" width="5px" x="76px" y="72px" /><rect fill="rgb(112,142,100)" height="5px" width="5px" x="80px" y="72px" /><rect fill="rgb(112,142,100)" height="5px" width="5px" x="84px" y="72px" /><rect fill="rgb(112,142,100)" height="5px" width="5px" x="88px" y="72px" /><rect fill="rgb(159,138,117)" height="5px" width="5px" x="92px" y="72px" /><rect fill="rgb(159,138,117)" height="5px" width="5px" x="96px" y="72px" /><rect fill="rgb(159,138,117)" height="5px" width="5px" x="100px" y="72px" /><rect fill="rgb(159,138,117)" height="5px" width="5px" x="104px" y="72px" /><rect fill="rgb(148,127,106)" height="5px" width="5px" x="108px" y="72px" /><rect fill="rgb(148,127,106)" height="5px" width="5px" x="112px" y="72px" /><rect fill="rgb(76,95,69)" height="5px" width="5px" x="116px" y="72px" /><rect fill="rgb(159,138,117)" height="5px" width="5px" x="44px" y="76px" /><rect fill="rgb(159,138,117)" height="5px" width="5px" x="48px" y="76px" /><rect fill="rgb(64,64,64)" height="5px" width="5px" x="52px" y="76px" /><rect fill="rgb(64,64,64)" height="5px" width="5px" x="56px" y="76px" /><rect fill="rgb(159,138,117)" height="5px" width="5px" x="60px" y="76px" /><rect fill="rgb(159,138,117)" height="5px" width="5px" x="64px" y="76px" /><rect fill="rgb(159,138,117)" height="5px" width="5px" x="68px" y="76px" /><rect fill="rgb(159,138,117)" height="5px" width="5px" x="72px" y="76px" /><rect fill="rgb(159,138,117)" height="5px" width="5px" x="76px" y="76px" /><rect fill="rgb(159,138,117)" height="5px" width="5px" x="80px" y="76px" /><rect fill="rgb(159,138,117)" height="5px" width="5px" x="84px" y="76px" /><rect fill="rgb(159,138,117)" height="5px" width="5px" x="88px" y="76px" /><rect fill="rgb(148,127,106)" height="5px" width="5px" x="92px" y="76px" /><rect fill="rgb(148,127,106)" height="5px" width="5px" x="96px" y="76px" /><rect fill="rgb(148,127,106)" height="5px" width="5px" x="100px" y="76px" /><rect fill="rgb(148,127,106)" height="5px" width="5px" x="104px" y="76px" /><rect fill="rgb(128,110,92)" height="5px" width="5px" x="108px" y="76px" /><rect fill="rgb(128,110,92)" height="5px" width="5px" x="112px" y="76px" /><rect fill="rgb(128,110,92)" height="5px" width="5px" x="116px" y="76px" /><rect fill="rgb(48,48,48)" height="5px" width="5px" x="48px" y="80px" /><rect fill="rgb(48,48,48)" height="5px" width="5px" x="52px" y="80px" /><rect fill="rgb(48,48,48)" height="5px" width="5px" x="64px" y="80px" /><rect fill="rgb(148,127,106)" height="5px" width="5px" x="68px" y="80px" /><rect fill="rgb(148,127,106)" height="5px" width="5px" x="72px" y="80px" /><rect fill="rgb(148,127,106)" height="5px" width="5px" x="76px" y="80px" /><rect fill="rgb(148,127,106)" height="5px" width="5px" x="80px" y="80px" /><rect fill="rgb(148,127,106)" height="5px" width="5px" x="84px" y="80px" /><rect fill="rgb(148,127,106)" height="5px" width="5px" x="88px" y="80px" /><rect fill="rgb(128,110,92)" height="5px" width="5px" x="92px" y="80px" /><rect fill="rgb(128,110,92)" height="5px" width="5px" x="96px" y="80px" /><rect fill="rgb(128,110,92)" height="5px" width="5px" x="100px" y="80px" /><rect fill="rgb(48,48,48)" height="5px" width="5px" x="44px" y="84px" /><rect fill="rgb(31,31,31)" height="5px" width="5px" x="48px" y="84px" /><rect fill="rgb(31,31,31)" height="5px" width="5px" x="52px" y="84px" /><rect fill="rgb(48,48,48)" height="5px" width="5px" x="56px" y="84px" /><rect fill="rgb(48,48,48)" height="5px" width="5px" x="68px" y="84px" /><rect fill="rgb(48,48,48)" height="5px" width="5px" x="72px" y="84px" /><rect fill="rgb(48,48,48)" height="5px" width="5px" x="44px" y="88px" /><rect fill="rgb(31,31,31)" height="5px" width="5px" x="48px" y="88px" /><rect fill="rgb(31,31,31)" height="5px" width="5px" x="52px" y="88px" /><rect fill="rgb(48,48,48)" height="5px" width="5px" x="56px" y="88px" /><rect fill="rgb(48,48,48)" height="5px" width="5px" x="64px" y="88px" /><rect fill="rgb(160,160,160)" height="5px" width="5px" x="68px" y="88px" /><rect fill="rgb(160,160,160)" height="5px" width="5px" x="72px" y="88px" /><rect fill="rgb(48,48,48)" height="5px" width="5px" x="76px" y="88px" /><rect fill="rgb(48,48,48)" height="5px" width="5px" x="48px" y="92px" /><rect fill="rgb(48,48,48)" height="5px" width="5px" x="52px" y="92px" /><rect fill="rgb(48,48,48)" height="5px" width="5px" x="64px" y="92px" /><rect fill="rgb(160,160,160)" height="5px" width="5px" x="68px" y="92px" /><rect fill="rgb(160,160,160)" height="5px" width="5px" x="72px" y="92px" /><rect fill="rgb(48,48,48)" height="5px" width="5px" x="76px" y="92px" /><rect fill="rgb(48,48,48)" height="5px" width="5px" x="68px" y="96px" /><rect fill="rgb(48,48,48)" height="5px" width="5px" x="72px" y="96px" /></svg>