<?xml version="1.0" encoding="utf-8" ?>
<svg baseProfile="full" height="128px" version="1.1" width="128px" xmlns="http://www.w3.org/2000/svg" xmlns:ev="http://www.w3.org/2001/xml-events" xmlns:xlink="http://www.w3.org/1999/xlink"><defs /><rect fill="rgb(174,133,93)" height="5px" width="5px" x="8px" y="8px" /><rect fill="rgb(168,128,90)" height="5px" width="5px" x="12px" y="8px" /><rect fill="rgb(196,152,108)" height="5px" width="5px" x="4px" y="12px" /><rect fill="rgb(186,144,102)" height="5px" width="5px" x="8px" y="12px" /><rect fill="rgb(168,128,90)" height="5px" width="5px" x="12px" y="12px" /><rect fill="rgb(196,152,108)" height="5px" width="5px" x="4px" y="16px" /><rect fill="rgb(196,152,108)" height="5px" width="5px" x="8px" y="16px" /><rect fill="rgb(174,133,93)" height="5px" width="5px" x="12px" y="16px" /><rect fill="rgb(168,128,90)" height="5px" width="5px" x="16px" y="16px" /><rect fill="rgb(196,152,108)" height="5px" width="5px" x="8px" y="20px" /><rect fill="rgb(196,152,108)" height="5px" width="5px" x="12px" y="20px" /><rect fill="rgb(174,133,93)" height="5px" width="5px" x="16px" y="20px" /><rect fill="rgb(168,128,90)" height="5px" width="5px" x="20px" y="20px" /><rect fill="rgb(196,152,108)" height="5px" width="5px" x="12px" y="24px" /><rect fill="rgb(185,143,102)" height="5px" width="5px" x="16px" y="24px" /><rect fill="rgb(174,133,93)" height="5px" width="5px" x="20px" y="24px" /><rect fill="rgb(168,128,90)" height="5px" width="5px" x="24px" y="24px" /><rect fill="rgb(196,152,108)" height="5px" width="5px" x="12px" y="28px" /><rect fill="rgb(196,152,108)" height="5px" width="5px" x="16px" y="28px" /><rect fill="rgb(185,143,102)" height="5px" width="5px" x="20px" y="28px" /><rect fill="rgb(168,128,90)" height="5px" width="5px" x="24px" y="28px" /><rect fill="rgb(196,152,108)" height="5px" width="5px" x="16px" y="32px" /><rect fill="rgb(196,152,108)" height="5px" width="5px" x="20px" y="32px" /><rect fill="rgb(174,133,93)" height="5px" width="5px" x="24px" y="32px" /><rect fill="rgb(168,128,90)" height="5px" width="5px" x="28px" y="32px" /><rect fill="rgb(196,152,108)" height="5px" width="5px" x="20px" y="36px" /><rect fill="rgb(174,133,93)" height="5px" width="5px" x="24px" y="36px" /><rect fill="rgb(168,128,90)" height="5px" width="5px" x="28px" y="36px" /><rect fill="rgb(168,128,90)" height="5px" width="5px" x="32px" y="36px" /><rect fill="rgb(196,152,108)" height="5px" width="5px" x="24px" y="40px" /><rect fill="rgb(174,133,93)" height="5px" width="5px" x="28px" y="40px" /><rect fill="rgb(168,128,90)" height="5px" width="5px" x="32px" y="40px" /><rect fill="rgb(168,128,90)" height="5px" width="5px" x="36px" y="40px" /><rect fill="rgb(196,152,108)" height="5px" width="5px" x="24px" y="44px" /><rect fill="rgb(186,144,102)" height="5px" width="5px" x="28px" y="44px" /><rect fill="rgb(185,143,102)" height="5px" width="5px" x="32px" y="44px" /><rect fill="rgb(168,128,90)" height="5px" width="5px" x="36px" y="44px" /><rect fill="rgb(196,152,108)" height="5px" width="5px" x="28px" y="48px" /><rect fill="rgb(196,152,108)" height="5px" width="5px" x="32px" y="48px" /><rect fill="rgb(174,133,93)" height="5px" width="5px" x="36px" y="48px" /><rect fill="rgb(168,128,90)" height="5px" width="5px" x="40px" y="48px" /><rect fill="rgb(196,152,108)" height="5px" width="5px" x="32px" y="52px" /><rect fill="rgb(185,143,102)" height="5px" width="5px" x="36px" y="52px" /><rect fill="rgb(174,133,93)" height="5px" width="5px" x="40px" y="52px" /><rect fill="rgb(168,128,90)" height="5px" width="5px" x="44px" y="52px" /><rect fill="rgb(196,152,108)" height="5px" width="5px" x="36px" y="56px" /><rect fill="rgb(185,143,102)" height="5px" width="5px" x="40px" y="56px" /><rect fill="rgb(174,133,93)" height="5px" width="5px" x="44px" y="56px" /><rect fill="rgb(168,128,90)" height="5px" width="5px" x="48px" y="56px" /><rect fill="rgb(196,152,108)" height="5px" width="5px" x="36px" y="60px" /><rect fill="rgb(186,144,102)" height="5px" width="5px" x="40px" y="60px" /><rect fill="rgb(185,143,102)" height="5px" width="5px" x="44px" y="60px" /><rect fill="rgb(168,128,90)" height="5px" width="5px" x="48px" y="60px" /><rect fill="rgb(62,53,44)" height="5px" width="5px" x="88px" y="60px" /><rect fill="rgb(49,42,34)" height="5px" width="5px" x="92px" y="60px" /><rect fill="rgb(33,28,23)" height="5px" width="5px" x="96px" y="60px" /><rect fill="rgb(196,152,108)" height="5px" width="5px" x="40px" y="64px" /><rect fill="rgb(196,152,108)" height="5px" width="5px" x="44px" y="64px" /><rect fill="rgb(174,133,93)" height="5px" width="5px" x="48px" y="64px" /><rect fill="rgb(168,128,90)" height="5px" width="5px" x="52px" y="64px" /><rect fill="rgb(62,53,44)" height="5px" width="5px" x="80px" y="64px" /><rect fill="rgb(62,53,44)" height="5px" width="5px" x="84px" y="64px" /><rect fill="rgb(60,51,42)" height="5px" width="5px" x="88px" y="64px" /><rect fill="rgb(49,42,34)" height="5px" width="5px" x="92px" y="64px" /><rect fill="rgb(33,28,23)" height="5px" width="5px" x="96px" y="64px" /><rect fill="rgb(33,28,23)" height="5px" width="5px" x="100px" y="64px" /><rect fill="rgb(196,152,108)" height="5px" width="5px" x="44px" y="68px" /><rect fill="rgb(196,152,108)" height="5px" width="5px" x="48px" y="68px" /><rect fill="rgb(174,133,93)" height="5px" width="5px" x="52px" y="68px" /><rect fill="rgb(168,128,90)" height="5px" width="5px" x="56px" y="68px" /><rect fill="rgb(62,53,44)" height="5px" width="5px" x="76px" y="68px" /><rect fill="rgb(62,53,44)" height="5px" width="5px" x="80px" y="68px" /><rect fill="rgb(62,53,44)" height="5px" width="5px" x="84px" y="68px" /><rect fill="rgb(60,51,42)" height="5px" width="5px" x="88px" y="68px" /><rect fill="rgb(49,42,34)" height="5px" width="5px" x="92px" y="68px" /><rect fill="rgb(33,28,23)" height="5px" width="5px" x="96px" y="68px" /><rect fill="rgb(29,24,20)" height="5px" width="5px" x="100px" y="68px" /><rect fill="rgb(196,152,108)" height="5px" width="5px" x="48px" y="72px" /><rect fill="rgb(185,143,102)" height="5px" width="5px" x="52px" y="72px" /><rect fill="rgb(174,133,93)" height="5px" width="5px" x="56px" y="72px" /><rect fill="rgb(168,128,90)" height="5px" width="5px" x="60px" y="72px" /><rect fill="rgb(62,53,44)" height="5px" width="5px" x="72px" y="72px" /><rect fill="rgb(62,53,44)" height="5px" width="5px" x="76px" y="72px" /><rect fill="rgb(62,53,44)" height="5px" width="5px" x="80px" y="72px" /><rect fill="rgb(62,53,44)" height="5px" width="5px" x="84px" y="72px" /><rect fill="rgb(60,51,42)" height="5px" width="5px" x="88px" y="72px" /><rect fill="rgb(49,42,34)" height="5px" width="5px" x="92px" y="72px" /><rect fill="rgb(33,28,23)" height="5px" width="5px" x="96px" y="72px" /><rect fill="rgb(29,24,20)" height="5px" width="5px" x="100px" y="72px" /><rect fill="rgb(33,28,23)" height="5px" width="5px" x="104px" y="72px" /><rect fill="rgb(196,152,108)" height="5px" width="5px" x="48px" y="76px" /><rect fill="rgb(186,144,102)" height="5px" width="5px" x="52px" y="76px" /><rect fill="rgb(185,143,102)" height="5px" width="5px" x="56px" y="76px" /><rect fill="rgb(168,128,90)" height="5px" width="5px" x="60px" y="76px" /><rect fill="rgb(62,53,44)" height="5px" width="5px" x="72px" y="76px" /><rect fill="rgb(62,53,44)" height="5px" width="5px" x="76px" y="76px" /><rect fill="rgb(62,53,44)" height="5px" width="5px" x="80px" y="76px" /><rect fill="rgb(62,53,44)" height="5px" width="5px" x="84px" y="76px" /><rect fill="rgb(60,51,42)" height="5px" width="5px" x="88px" y="76px" /><rect fill="rgb(49,42,34)" height="5px" width="5px" x="92px" y="76px" /><rect fill="rgb(33,28,23)" height="5px" width="5px" x="96px" y="76px" /><rect fill="rgb(29,24,20)" height="5px" width="5px" x="100px" y="76px" /><rect fill="rgb(21,18,15)" height="5px" width="5px" x="104px" y="76px" /><rect fill="rgb(196,152,108)" height="5px" width="5px" x="52px" y="80px" /><rect fill="rgb(185,143,102)" height="5px" width="5px" x="56px" y="80px" /><rect fill="rgb(174,133,93)" height="5px" width="5px" x="60px" y="80px" /><rect fill="rgb(168,128,90)" height="5px" width="5px" x="64px" y="80px" /><rect fill="rgb(62,53,44)" height="5px" width="5px" x="72px" y="80px" /><rect fill="rgb(62,53,44)" height="5px" width="5px" x="76px" y="80px" /><rect fill="rgb(62,53,44)" height="5px" width="5px" x="80px" y="80px" /><rect fill="rgb(62,53,44)" height="5px" width="5px" x="84px" y="80px" /><rect fill="rgb(60,51,42)" height="5px" width="5px" x="88px" y="80px" /><rect fill="rgb(49,42,34)" height="5px" width="5px" x="92px" y="80px" /><rect fill="rgb(33,28,23)" height="5px" width="5px" x="96px" y="80px" /><rect fill="rgb(29,24,20)" height="5px" width="5px" x="100px" y="80px" /><rect fill="rgb(21,18,15)" height="5px" width="5px" x="104px" y="80px" /><rect fill="rgb(196,152,108)" height="5px" width="5px" x="56px" y="84px" /><rect fill="rgb(185,143,102)" height="5px" width="5px" x="60px" y="84px" /><rect fill="rgb(62,53,44)" height="5px" width="5px" x="64px" y="84px" /><rect fill="rgb(62,53,44)" height="5px" width="5px" x="68px" y="84px" /><rect fill="rgb(62,53,44)" height="5px" width="5px" x="72px" y="84px" /><rect fill="rgb(62,53,44)" height="5px" width="5px" x="76px" y="84px" /><rect fill="rgb(62,53,44)" height="5px" width="5px" x="80px" y="84px" /><rect fill="rgb(62,53,44)" height="5px" width="5px" x="84px" y="84px" /><rect fill="rgb(49,42,34)" height="5px" width="5px" x="88px" y="84px" /><rect fill="rgb(33,28,23)" height="5px" width="5px" x="92px" y="84px" /><rect fill="rgb(33,28,23)" height="5px" width="5px" x="96px" y="84px" /><rect fill="rgb(29,24,20)" height="5px" width="5px" x="100px" y="84px" /><rect fill="rgb(21,18,15)" height="5px" width="5px" x="104px" y="84px" /><rect fill="rgb(21,18,15)" height="5px" width="5px" x="108px" y="84px" /><rect fill="rgb(196,152,108)" height="5px" width="5px" x="60px" y="88px" /><rect fill="rgb(62,53,44)" height="5px" width="5px" x="64px" y="88px" /><rect fill="rgb(62,53,44)" height="5px" width="5px" x="68px" y="88px" /><rect fill="rgb(62,53,44)" height="5px" width="5px" x="72px" y="88px" /><rect fill="rgb(62,53,44)" height="5px" width="5px" x="76px" y="88px" /><rect fill="rgb(62,53,44)" height="5px" width="5px" x="80px" y="88px" /><rect fill="rgb(62,53,44)" height="5px" width="5px" x="84px" y="88px" /><rect fill="rgb(49,42,34)" height="5px" width="5px" x="88px" y="88px" /><rect fill="rgb(33,28,23)" height="5px" width="5px" x="92px" y="88px" /><rect fill="rgb(33,28,23)" height="5px" width="5px" x="96px" y="88px" /><rect fill="rgb(29,24,20)" height="5px" width="5px" x="100px" y="88px" /><rect fill="rgb(21,18,15)" height="5px" width="5px" x="104px" y="88px" /><rect fill="rgb(21,18,15)" height="5px" width="5px" x="108px" y="88px" /><rect fill="rgb(196,152,108)" height="5px" width="5px" x="60px" y="92px" /><rect fill="rgb(62,53,44)" height="5px" width="5px" x="64px" y="92px" /><rect fill="rgb(185,143,102)" height="5px" width="5px" x="68px" y="92px" /><rect fill="rgb(174,133,93)" height="5px" width="5px" x="72px" y="92px" /><rect fill="rgb(62,53,44)" height="5px" width="5px" x="76px" y="92px" /><rect fill="rgb(62,53,44)" height="5px" width="5px" x="80px" y="92px" /><rect fill="rgb(62,53,44)" height="5px" width="5px" x="84px" y="92px" /><rect fill="rgb(49,42,34)" height="5px" width="5px" x="88px" y="92px" /><rect fill="rgb(33,28,23)" height="5px" width="5px" x="92px" y="92px" /><rect fill="rgb(33,28,23)" height="5px" width="5px" x="96px" y="92px" /><rect fill="rgb(29,24,20)" height="5px" width="5px" x="100px" y="92px" /><rect fill="rgb(21,18,15)" height="5px" width="5px" x="104px" y="92px" /><rect fill="rgb(21,18,15)" height="5px" width="5px" x="108px" y="92px" /><rect fill="rgb(62,53,44)" height="5px" width="5px" x="64px" y="96px" /><rect fill="rgb(185,143,102)" height="5px" width="5px" x="68px" y="96px" /><rect fill="rgb(168,128,90)" height="5px" width="5px" x="72px" y="96px" /><rect fill="rgb(168,128,90)" height="5px" width="5px" x="76px" y="96px" /><rect fill="rgb(62,53,44)" height="5px" width="5px" x="80px" y="96px" /><rect fill="rgb(49,42,34)" height="5px" width="5px" x="84px" y="96px" /><rect fill="rgb(33,28,23)" height="5px" width="5px" x="88px" y="96px" /><rect fill="rgb(33,28,23)" height="5px" width="5px" x="92px" y="96px" /><rect fill="rgb(29,24,20)" height="5px" width="5px" x="96px" y="96px" /><rect fill="rgb(21,18,15)" height="5px" width="5px" x="100px" y="96px" /><rect fill="rgb(21,18,15)" height="5px" width="5px" x="104px" y="96px" /><rect fill="rgb(62,53,44)" height="5px" width="5px" x="64px" y="100px" /><rect fill="rgb(196,152,108)" height="5px" width="5px" x="68px" y="100px" /><rect fill="rgb(186,144,102)" height="5px" width="5px" x="72px" y="100px" /><rect fill="rgb(62,53,44)" height="5px" width="5px" x="76px" y="100px" /><rect fill="rgb(33,28,23)" height="5px" width="5px" x="80px" y="100px" /><rect fill="rgb(33,28,23)" height="5px" width="5px" x="84px" y="100px" /><rect fill="rgb(33,28,23)" height="5px" width="5px" x="88px" y="100px" /><rect fill="rgb(29,24,20)" height="5px" width="5px" x="92px" y="100px" /><rect fill="rgb(21,18,15)" height="5px" width="5px" x="96px" y="100px" /><rect fill="rgb(21,18,15)" height="5px" width="5px" x="100px" y="100px" /><rect fill="rgb(21,18,15)" height="5px" width="5px" x="80px" y="104px" /><rect fill="rgb(21,18,15)" height="5px" width="5px" x="84px" y="104px" /><rect fill="rgb(21,18,15)" height="5px" width="5px" x="88px" y="104px" /><rect fill="rgb(21,18,15)" height="5px" width="5px" x="92px" y="104px" /></svg>