<?xml version="1.0" encoding="utf-8" ?>
<svg baseProfile="full" height="128px" version="1.1" width="128px" xmlns="http://www.w3.org/2000/svg" xmlns:ev="http://www.w3.org/2001/xml-events" xmlns:xlink="http://www.w3.org/1999/xlink"><defs /><rect fill="rgb(233,158,119)" height="5px" width="5px" x="40px" y="16px" /><rect fill="rgb(220,148,110)" height="5px" width="5px" x="44px" y="16px" /><rect fill="rgb(206,142,108)" height="5px" width="5px" x="48px" y="16px" /><rect fill="rgb(206,142,108)" height="5px" width="5px" x="52px" y="16px" /><rect fill="rgb(206,142,108)" height="5px" width="5px" x="56px" y="16px" /><rect fill="rgb(206,142,108)" height="5px" width="5px" x="60px" y="16px" /><rect fill="rgb(206,142,108)" height="5px" width="5px" x="64px" y="16px" /><rect fill="rgb(168,113,82)" height="5px" width="5px" x="68px" y="16px" /><rect fill="rgb(168,113,82)" height="5px" width="5px" x="72px" y="16px" /><rect fill="rgb(141,95,70)" height="5px" width="5px" x="76px" y="16px" /><rect fill="rgb(122,82,60)" height="5px" width="5px" x="80px" y="16px" /><rect fill="rgb(206,142,108)" height="5px" width="5px" x="48px" y="20px" /><rect fill="rgb(206,142,108)" height="5px" width="5px" x="52px" y="20px" /><rect fill="rgb(206,142,108)" height="5px" width="5px" x="56px" y="20px" /><rect fill="rgb(206,142,108)" height="5px" width="5px" x="60px" y="20px" /><rect fill="rgb(206,142,108)" height="5px" width="5px" x="64px" y="20px" /><rect fill="rgb(168,113,82)" height="5px" width="5px" x="68px" y="20px" /><rect fill="rgb(174,117,84)" height="5px" width="5px" x="72px" y="20px" /><rect fill="rgb(233,158,119)" height="5px" width="5px" x="32px" y="24px" /><rect fill="rgb(233,158,119)" height="5px" width="5px" x="36px" y="24px" /><rect fill="rgb(220,148,110)" height="5px" width="5px" x="40px" y="24px" /><rect fill="rgb(206,142,108)" height="5px" width="5px" x="44px" y="24px" /><rect fill="rgb(206,142,108)" height="5px" width="5px" x="48px" y="24px" /><rect fill="rgb(206,142,108)" height="5px" width="5px" x="52px" y="24px" /><rect fill="rgb(206,142,108)" height="5px" width="5px" x="56px" y="24px" /><rect fill="rgb(206,142,108)" height="5px" width="5px" x="60px" y="24px" /><rect fill="rgb(191,126,89)" height="5px" width="5px" x="64px" y="24px" /><rect fill="rgb(168,113,82)" height="5px" width="5px" x="68px" y="24px" /><rect fill="rgb(168,113,82)" height="5px" width="5px" x="72px" y="24px" /><rect fill="rgb(168,113,82)" height="5px" width="5px" x="76px" y="24px" /><rect fill="rgb(168,113,82)" height="5px" width="5px" x="80px" y="24px" /><rect fill="rgb(168,113,82)" height="5px" width="5px" x="84px" y="24px" /><rect fill="rgb(157,106,78)" height="5px" width="5px" x="88px" y="24px" /><rect fill="rgb(233,158,119)" height="5px" width="5px" x="28px" y="28px" /><rect fill="rgb(206,142,108)" height="5px" width="5px" x="52px" y="28px" /><rect fill="rgb(206,142,108)" height="5px" width="5px" x="56px" y="28px" /><rect fill="rgb(206,142,108)" height="5px" width="5px" x="60px" y="28px" /><rect fill="rgb(191,126,89)" height="5px" width="5px" x="64px" y="28px" /><rect fill="rgb(168,113,82)" height="5px" width="5px" x="68px" y="28px" /><rect fill="rgb(122,82,60)" height="5px" width="5px" x="92px" y="28px" /><rect fill="rgb(233,158,119)" height="5px" width="5px" x="28px" y="32px" /><rect fill="rgb(206,142,108)" height="5px" width="5px" x="52px" y="32px" /><rect fill="rgb(206,142,108)" height="5px" width="5px" x="56px" y="32px" /><rect fill="rgb(206,142,108)" height="5px" width="5px" x="60px" y="32px" /><rect fill="rgb(191,126,89)" height="5px" width="5px" x="64px" y="32px" /><rect fill="rgb(168,113,82)" height="5px" width="5px" x="68px" y="32px" /><rect fill="rgb(122,82,60)" height="5px" width="5px" x="92px" y="32px" /><rect fill="rgb(233,158,119)" height="5px" width="5px" x="28px" y="36px" /><rect fill="rgb(206,142,108)" height="5px" width="5px" x="52px" y="36px" /><rect fill="rgb(206,142,108)" height="5px" width="5px" x="56px" y="36px" /><rect fill="rgb(206,142,108)" height="5px" width="5px" x="60px" y="36px" /><rect fill="rgb(191,126,89)" height="5px" width="5px" x="64px" y="36px" /><rect fill="rgb(168,113,82)" height="5px" width="5px" x="68px" y="36px" /><rect fill="rgb(157,106,78)" height="5px" width="5px" x="92px" y="36px" /><rect fill="rgb(233,158,119)" height="5px" width="5px" x="32px" y="40px" /><rect fill="rgb(206,142,108)" height="5px" width="5px" x="48px" y="40px" /><rect fill="rgb(206,142,108)" height="5px" width="5px" x="52px" y="40px" /><rect fill="rgb(206,142,108)" height="5px" width="5px" x="56px" y="40px" /><rect fill="rgb(206,142,108)" height="5px" width="5px" x="60px" y="40px" /><rect fill="rgb(191,126,89)" height="5px" width="5px" x="64px" y="40px" /><rect fill="rgb(168,113,82)" height="5px" width="5px" x="68px" y="40px" /><rect fill="rgb(174,117,84)" height="5px" width="5px" x="72px" y="40px" /><rect fill="rgb(157,106,78)" height="5px" width="5px" x="88px" y="40px" /><rect fill="rgb(220,148,110)" height="5px" width="5px" x="36px" y="44px" /><rect fill="rgb(206,142,108)" height="5px" width="5px" x="40px" y="44px" /><rect fill="rgb(206,142,108)" height="5px" width="5px" x="44px" y="44px" /><rect fill="rgb(212,142,106)" height="5px" width="5px" x="48px" y="44px" /><rect fill="rgb(212,142,106)" height="5px" width="5px" x="52px" y="44px" /><rect fill="rgb(206,142,108)" height="5px" width="5px" x="56px" y="44px" /><rect fill="rgb(206,142,108)" height="5px" width="5px" x="60px" y="44px" /><rect fill="rgb(191,126,89)" height="5px" width="5px" x="64px" y="44px" /><rect fill="rgb(182,121,86)" height="5px" width="5px" x="68px" y="44px" /><rect fill="rgb(174,117,84)" height="5px" width="5px" x="72px" y="44px" /><rect fill="rgb(168,113,82)" height="5px" width="5px" x="76px" y="44px" /><rect fill="rgb(141,95,70)" height="5px" width="5px" x="80px" y="44px" /><rect fill="rgb(141,95,70)" height="5px" width="5px" x="84px" y="44px" /><rect fill="rgb(233,158,119)" height="5px" width="5px" x="32px" y="48px" /><rect fill="rgb(220,148,110)" height="5px" width="5px" x="36px" y="48px" /><rect fill="rgb(212,142,106)" height="5px" width="5px" x="40px" y="48px" /><rect fill="rgb(212,142,106)" height="5px" width="5px" x="44px" y="48px" /><rect fill="rgb(212,142,106)" height="5px" width="5px" x="48px" y="48px" /><rect fill="rgb(212,142,106)" height="5px" width="5px" x="52px" y="48px" /><rect fill="rgb(206,142,108)" height="5px" width="5px" x="56px" y="48px" /><rect fill="rgb(206,142,108)" height="5px" width="5px" x="60px" y="48px" /><rect fill="rgb(191,126,89)" height="5px" width="5px" x="64px" y="48px" /><rect fill="rgb(182,121,86)" height="5px" width="5px" x="68px" y="48px" /><rect fill="rgb(174,117,84)" height="5px" width="5px" x="72px" y="48px" /><rect fill="rgb(168,113,82)" height="5px" width="5px" x="76px" y="48px" /><rect fill="rgb(157,106,78)" height="5px" width="5px" x="80px" y="48px" /><rect fill="rgb(141,95,70)" height="5px" width="5px" x="84px" y="48px" /><rect fill="rgb(122,82,60)" height="5px" width="5px" x="88px" y="48px" /><rect fill="rgb(233,158,119)" height="5px" width="5px" x="28px" y="52px" /><rect fill="rgb(220,148,110)" height="5px" width="5px" x="32px" y="52px" /><rect fill="rgb(220,148,110)" height="5px" width="5px" x="36px" y="52px" /><rect fill="rgb(212,142,106)" height="5px" width="5px" x="40px" y="52px" /><rect fill="rgb(212,142,106)" height="5px" width="5px" x="44px" y="52px" /><rect fill="rgb(212,142,106)" height="5px" width="5px" x="48px" y="52px" /><rect fill="rgb(212,142,106)" height="5px" width="5px" x="52px" y="52px" /><rect fill="rgb(206,142,108)" height="5px" width="5px" x="56px" y="52px" /><rect fill="rgb(206,142,108)" height="5px" width="5px" x="60px" y="52px" /><rect fill="rgb(191,126,89)" height="5px" width="5px" x="64px" y="52px" /><rect fill="rgb(182,121,86)" height="5px" width="5px" x="68px" y="52px" /><rect fill="rgb(174,117,84)" height="5px" width="5px" x="72px" y="52px" /><rect fill="rgb(168,113,82)" height="5px" width="5px" x="76px" y="52px" /><rect fill="rgb(157,106,78)" height="5px" width="5px" x="80px" y="52px" /><rect fill="rgb(157,106,78)" height="5px" width="5px" x="84px" y="52px" /><rect fill="rgb(141,95,70)" height="5px" width="5px" x="88px" y="52px" /><rect fill="rgb(122,82,60)" height="5px" width="5px" x="92px" y="52px" /><rect fill="rgb(233,158,119)" height="5px" width="5px" x="24px" y="56px" /><rect fill="rgb(233,158,119)" height="5px" width="5px" x="28px" y="56px" /><rect fill="rgb(220,148,110)" height="5px" width="5px" x="32px" y="56px" /><rect fill="rgb(212,142,106)" height="5px" width="5px" x="36px" y="56px" /><rect fill="rgb(212,142,106)" height="5px" width="5px" x="40px" y="56px" /><rect fill="rgb(212,142,106)" height="5px" width="5px" x="44px" y="56px" /><rect fill="rgb(212,142,106)" height="5px" width="5px" x="48px" y="56px" /><rect fill="rgb(212,142,106)" height="5px" width="5px" x="52px" y="56px" /><rect fill="rgb(206,142,108)" height="5px" width="5px" x="56px" y="56px" /><rect fill="rgb(206,142,108)" height="5px" width="5px" x="60px" y="56px" /><rect fill="rgb(191,126,89)" height="5px" width="5px" x="64px" y="56px" /><rect fill="rgb(182,121,86)" height="5px" width="5px" x="68px" y="56px" /><rect fill="rgb(174,117,84)" height="5px" width="5px" x="72px" y="56px" /><rect fill="rgb(168,113,82)" height="5px" width="5px" x="76px" y="56px" /><rect fill="rgb(168,113,82)" height="5px" width="5px" x="80px" y="56px" /><rect fill="rgb(157,106,78)" height="5px" width="5px" x="84px" y="56px" /><rect fill="rgb(157,106,78)" height="5px" width="5px" x="88px" y="56px" /><rect fill="rgb(141,95,70)" height="5px" width="5px" x="92px" y="56px" /><rect fill="rgb(122,82,60)" height="5px" width="5px" x="96px" y="56px" /><rect fill="rgb(233,158,119)" height="5px" width="5px" x="20px" y="60px" /><rect fill="rgb(233,158,119)" height="5px" width="5px" x="24px" y="60px" /><rect fill="rgb(220,148,110)" height="5px" width="5px" x="28px" y="60px" /><rect fill="rgb(220,148,110)" height="5px" width="5px" x="32px" y="60px" /><rect fill="rgb(212,142,106)" height="5px" width="5px" x="36px" y="60px" /><rect fill="rgb(212,142,106)" height="5px" width="5px" x="40px" y="60px" /><rect fill="rgb(212,142,106)" height="5px" width="5px" x="44px" y="60px" /><rect fill="rgb(212,142,106)" height="5px" width="5px" x="48px" y="60px" /><rect fill="rgb(212,142,106)" height="5px" width="5px" x="52px" y="60px" /><rect fill="rgb(206,142,108)" height="5px" width="5px" x="56px" y="60px" /><rect fill="rgb(206,142,108)" height="5px" width="5px" x="60px" y="60px" /><rect fill="rgb(191,126,89)" height="5px" width="5px" x="64px" y="60px" /><rect fill="rgb(182,121,86)" height="5px" width="5px" x="68px" y="60px" /><rect fill="rgb(174,117,84)" height="5px" width="5px" x="72px" y="60px" /><rect fill="rgb(168,113,82)" height="5px" width="5px" x="76px" y="60px" /><rect fill="rgb(168,113,82)" height="5px" width="5px" x="80px" y="60px" /><rect fill="rgb(157,106,78)" height="5px" width="5px" x="84px" y="60px" /><rect fill="rgb(157,106,78)" height="5px" width="5px" x="88px" y="60px" /><rect fill="rgb(141,95,70)" height="5px" width="5px" x="92px" y="60px" /><rect fill="rgb(122,82,60)" height="5px" width="5px" x="96px" y="60px" /><rect fill="rgb(122,82,60)" height="5px" width="5px" x="100px" y="60px" /><rect fill="rgb(233,158,119)" height="5px" width="5px" x="20px" y="64px" /><rect fill="rgb(233,158,119)" height="5px" width="5px" x="24px" y="64px" /><rect fill="rgb(220,148,110)" height="5px" width="5px" x="28px" y="64px" /><rect fill="rgb(220,148,110)" height="5px" width="5px" x="32px" y="64px" /><rect fill="rgb(212,142,106)" height="5px" width="5px" x="36px" y="64px" /><rect fill="rgb(212,142,106)" height="5px" width="5px" x="40px" y="64px" /><rect fill="rgb(212,142,106)" height="5px" width="5px" x="44px" y="64px" /><rect fill="rgb(212,142,106)" height="5px" width="5px" x="48px" y="64px" /><rect fill="rgb(212,142,106)" height="5px" width="5px" x="52px" y="64px" /><rect fill="rgb(206,142,108)" height="5px" width="5px" x="56px" y="64px" /><rect fill="rgb(206,142,108)" height="5px" width="5px" x="60px" y="64px" /><rect fill="rgb(191,126,89)" height="5px" width="5px" x="64px" y="64px" /><rect fill="rgb(182,121,86)" height="5px" width="5px" x="68px" y="64px" /><rect fill="rgb(174,117,84)" height="5px" width="5px" x="72px" y="64px" /><rect fill="rgb(168,113,82)" height="5px" width="5px" x="76px" y="64px" /><rect fill="rgb(168,113,82)" height="5px" width="5px" x="80px" y="64px" /><rect fill="rgb(157,106,78)" height="5px" width="5px" x="84px" y="64px" /><rect fill="rgb(157,106,78)" height="5px" width="5px" x="88px" y="64px" /><rect fill="rgb(141,95,70)" height="5px" width="5px" x="92px" y="64px" /><rect fill="rgb(122,82,60)" height="5px" width="5px" x="96px" y="64px" /><rect fill="rgb(122,82,60)" height="5px" width="5px" x="100px" y="64px" /><rect fill="rgb(233,158,119)" height="5px" width="5px" x="24px" y="68px" /><rect fill="rgb(220,148,110)" height="5px" width="5px" x="28px" y="68px" /><rect fill="rgb(220,148,110)" height="5px" width="5px" x="32px" y="68px" /><rect fill="rgb(212,142,106)" height="5px" width="5px" x="36px" y="68px" /><rect fill="rgb(212,142,106)" height="5px" width="5px" x="40px" y="68px" /><rect fill="rgb(212,142,106)" height="5px" width="5px" x="44px" y="68px" /><rect fill="rgb(212,142,106)" height="5px" width="5px" x="48px" y="68px" /><rect fill="rgb(212,142,106)" height="5px" width="5px" x="52px" y="68px" /><rect fill="rgb(206,142,108)" height="5px" width="5px" x="56px" y="68px" /><rect fill="rgb(206,142,108)" height="5px" width="5px" x="60px" y="68px" /><rect fill="rgb(191,126,89)" height="5px" width="5px" x="64px" y="68px" /><rect fill="rgb(182,121,86)" height="5px" width="5px" x="68px" y="68px" /><rect fill="rgb(174,117,84)" height="5px" width="5px" x="72px" y="68px" /><rect fill="rgb(168,113,82)" height="5px" width="5px" x="76px" y="68px" /><rect fill="rgb(168,113,82)" height="5px" width="5px" x="80px" y="68px" /><rect fill="rgb(157,106,78)" height="5px" width="5px" x="84px" y="68px" /><rect fill="rgb(157,106,78)" height="5px" width="5px" x="88px" y="68px" /><rect fill="rgb(141,95,70)" height="5px" width="5px" x="92px" y="68px" /><rect fill="rgb(122,82,60)" height="5px" width="5px" x="96px" y="68px" /><rect fill="rgb(233,158,119)" height="5px" width="5px" x="24px" y="72px" /><rect fill="rgb(220,148,110)" height="5px" width="5px" x="28px" y="72px" /><rect fill="rgb(220,148,110)" height="5px" width="5px" x="32px" y="72px" /><rect fill="rgb(212,142,106)" height="5px" width="5px" x="36px" y="72px" /><rect fill="rgb(212,142,106)" height="5px" width="5px" x="40px" y="72px" /><rect fill="rgb(212,142,106)" height="5px" width="5px" x="44px" y="72px" /><rect fill="rgb(212,142,106)" height="5px" width="5px" x="48px" y="72px" /><rect fill="rgb(212,142,106)" height="5px" width="5px" x="52px" y="72px" /><rect fill="rgb(206,142,108)" height="5px" width="5px" x="56px" y="72px" /><rect fill="rgb(206,142,108)" height="5px" width="5px" x="60px" y="72px" /><rect fill="rgb(191,126,89)" height="5px" width="5px" x="64px" y="72px" /><rect fill="rgb(182,121,86)" height="5px" width="5px" x="68px" y="72px" /><rect fill="rgb(174,117,84)" height="5px" width="5px" x="72px" y="72px" /><rect fill="rgb(168,113,82)" height="5px" width="5px" x="76px" y="72px" /><rect fill="rgb(168,113,82)" height="5px" width="5px" x="80px" y="72px" /><rect fill="rgb(157,106,78)" height="5px" width="5px" x="84px" y="72px" /><rect fill="rgb(157,106,78)" height="5px" width="5px" x="88px" y="72px" /><rect fill="rgb(141,95,70)" height="5px" width="5px" x="92px" y="72px" /><rect fill="rgb(122,82,60)" height="5px" width="5px" x="96px" y="72px" /><rect fill="rgb(233,158,119)" height="5px" width="5px" x="24px" y="76px" /><rect fill="rgb(233,158,119)" height="5px" width="5px" x="28px" y="76px" /><rect fill="rgb(220,148,110)" height="5px" width="5px" x="32px" y="76px" /><rect fill="rgb(212,142,106)" height="5px" width="5px" x="36px" y="76px" /><rect fill="rgb(212,142,106)" height="5px" width="5px" x="40px" y="76px" /><rect fill="rgb(212,142,106)" height="5px" width="5px" x="44px" y="76px" /><rect fill="rgb(212,142,106)" height="5px" width="5px" x="48px" y="76px" /><rect fill="rgb(212,142,106)" height="5px" width="5px" x="52px" y="76px" /><rect fill="rgb(206,142,108)" height="5px" width="5px" x="56px" y="76px" /><rect fill="rgb(206,142,108)" height="5px" width="5px" x="60px" y="76px" /><rect fill="rgb(191,126,89)" height="5px" width="5px" x="64px" y="76px" /><rect fill="rgb(182,121,86)" height="5px" width="5px" x="68px" y="76px" /><rect fill="rgb(174,117,84)" height="5px" width="5px" x="72px" y="76px" /><rect fill="rgb(168,113,82)" height="5px" width="5px" x="76px" y="76px" /><rect fill="rgb(168,113,82)" height="5px" width="5px" x="80px" y="76px" /><rect fill="rgb(157,106,78)" height="5px" width="5px" x="84px" y="76px" /><rect fill="rgb(157,106,78)" height="5px" width="5px" x="88px" y="76px" /><rect fill="rgb(141,95,70)" height="5px" width="5px" x="92px" y="76px" /><rect fill="rgb(122,82,60)" height="5px" width="5px" x="96px" y="76px" /><rect fill="rgb(233,158,119)" height="5px" width="5px" x="28px" y="80px" /><rect fill="rgb(233,158,119)" height="5px" width="5px" x="32px" y="80px" /><rect fill="rgb(212,142,106)" height="5px" width="5px" x="36px" y="80px" /><rect fill="rgb(212,142,106)" height="5px" width="5px" x="40px" y="80px" /><rect fill="rgb(212,142,106)" height="5px" width="5px" x="44px" y="80px" /><rect fill="rgb(212,142,106)" height="5px" width="5px" x="48px" y="80px" /><rect fill="rgb(212,142,106)" height="5px" width="5px" x="52px" y="80px" /><rect fill="rgb(206,142,108)" height="5px" width="5px" x="56px" y="80px" /><rect fill="rgb(206,142,108)" height="5px" width="5px" x="60px" y="80px" /><rect fill="rgb(191,126,89)" height="5px" width="5px" x="64px" y="80px" /><rect fill="rgb(182,121,86)" height="5px" width="5px" x="68px" y="80px" /><rect fill="rgb(174,117,84)" height="5px" width="5px" x="72px" y="80px" /><rect fill="rgb(168,113,82)" height="5px" width="5px" x="76px" y="80px" /><rect fill="rgb(168,113,82)" height="5px" width="5px" x="80px" y="80px" /><rect fill="rgb(157,106,78)" height="5px" width="5px" x="84px" y="80px" /><rect fill="rgb(157,106,78)" height="5px" width="5px" x="88px" y="80px" /><rect fill="rgb(122,82,60)" height="5px" width="5px" x="92px" y="80px" /><rect fill="rgb(233,158,119)" height="5px" width="5px" x="28px" y="84px" /><rect fill="rgb(233,158,119)" height="5px" width="5px" x="32px" y="84px" /><rect fill="rgb(212,142,106)" height="5px" width="5px" x="36px" y="84px" /><rect fill="rgb(212,142,106)" height="5px" width="5px" x="40px" y="84px" /><rect fill="rgb(212,142,106)" height="5px" width="5px" x="44px" y="84px" /><rect fill="rgb(212,142,106)" height="5px" width="5px" x="48px" y="84px" /><rect fill="rgb(212,142,106)" height="5px" width="5px" x="52px" y="84px" /><rect fill="rgb(206,142,108)" height="5px" width="5px" x="56px" y="84px" /><rect fill="rgb(206,142,108)" height="5px" width="5px" x="60px" y="84px" /><rect fill="rgb(191,126,89)" height="5px" width="5px" x="64px" y="84px" /><rect fill="rgb(182,121,86)" height="5px" width="5px" x="68px" y="84px" /><rect fill="rgb(174,117,84)" height="5px" width="5px" x="72px" y="84px" /><rect fill="rgb(168,113,82)" height="5px" width="5px" x="76px" y="84px" /><rect fill="rgb(168,113,82)" height="5px" width="5px" x="80px" y="84px" /><rect fill="rgb(157,106,78)" height="5px" width="5px" x="84px" y="84px" /><rect fill="rgb(141,95,70)" height="5px" width="5px" x="88px" y="84px" /><rect fill="rgb(122,82,60)" height="5px" width="5px" x="92px" y="84px" /><rect fill="rgb(233,158,119)" height="5px" width="5px" x="32px" y="88px" /><rect fill="rgb(220,148,110)" height="5px" width="5px" x="36px" y="88px" /><rect fill="rgb(212,142,106)" height="5px" width="5px" x="40px" y="88px" /><rect fill="rgb(212,142,106)" height="5px" width="5px" x="44px" y="88px" /><rect fill="rgb(212,142,106)" height="5px" width="5px" x="48px" y="88px" /><rect fill="rgb(212,142,106)" height="5px" width="5px" x="52px" y="88px" /><rect fill="rgb(206,142,108)" height="5px" width="5px" x="56px" y="88px" /><rect fill="rgb(206,142,108)" height="5px" width="5px" x="60px" y="88px" /><rect fill="rgb(191,126,89)" height="5px" width="5px" x="64px" y="88px" /><rect fill="rgb(182,121,86)" height="5px" width="5px" x="68px" y="88px" /><rect fill="rgb(174,117,84)" height="5px" width="5px" x="72px" y="88px" /><rect fill="rgb(168,113,82)" height="5px" width="5px" x="76px" y="88px" /><rect fill="rgb(168,113,82)" height="5px" width="5px" x="80px" y="88px" /><rect fill="rgb(168,113,82)" height="5px" width="5px" x="84px" y="88px" /><rect fill="rgb(122,82,60)" height="5px" width="5px" x="88px" y="88px" /><rect fill="rgb(220,148,110)" height="5px" width="5px" x="36px" y="92px" /><rect fill="rgb(212,142,106)" height="5px" width="5px" x="40px" y="92px" /><rect fill="rgb(212,142,106)" height="5px" width="5px" x="44px" y="92px" /><rect fill="rgb(212,142,106)" height="5px" width="5px" x="48px" y="92px" /><rect fill="rgb(212,142,106)" height="5px" width="5px" x="52px" y="92px" /><rect fill="rgb(206,142,108)" height="5px" width="5px" x="56px" y="92px" /><rect fill="rgb(206,142,108)" height="5px" width="5px" x="60px" y="92px" /><rect fill="rgb(191,126,89)" height="5px" width="5px" x="64px" y="92px" /><rect fill="rgb(182,121,86)" height="5px" width="5px" x="68px" y="92px" /><rect fill="rgb(174,117,84)" height="5px" width="5px" x="72px" y="92px" /><rect fill="rgb(168,113,82)" height="5px" width="5px" x="76px" y="92px" /><rect fill="rgb(168,113,82)" height="5px" width="5px" x="80px" y="92px" /><rect fill="rgb(141,95,70)" height="5px" width="5px" x="84px" y="92px" /><rect fill="rgb(220,148,110)" height="5px" width="5px" x="36px" y="96px" /><rect fill="rgb(212,142,106)" height="5px" width="5px" x="40px" y="96px" /><rect fill="rgb(212,142,106)" height="5px" width="5px" x="44px" y="96px" /><rect fill="rgb(212,142,106)" height="5px" width="5px" x="48px" y="96px" /><rect fill="rgb(212,142,106)" height="5px" width="5px" x="52px" y="96px" /><rect fill="rgb(206,142,108)" height="5px" width="5px" x="56px" y="96px" /><rect fill="rgb(206,142,108)" height="5px" width="5px" x="60px" y="96px" /><rect fill="rgb(191,126,89)" height="5px" width="5px" x="64px" y="96px" /><rect fill="rgb(182,121,86)" height="5px" width="5px" x="68px" y="96px" /><rect fill="rgb(174,117,84)" height="5px" width="5px" x="72px" y="96px" /><rect fill="rgb(168,113,82)" height="5px" width="5px" x="76px" y="96px" /><rect fill="rgb(168,113,82)" height="5px" width="5px" x="80px" y="96px" /><rect fill="rgb(141,95,70)" height="5px" width="5px" x="84px" y="96px" /><rect fill="rgb(206,142,108)" height="5px" width="5px" x="40px" y="100px" /><rect fill="rgb(212,142,106)" height="5px" width="5px" x="44px" y="100px" /><rect fill="rgb(212,142,106)" height="5px" width="5px" x="48px" y="100px" /><rect fill="rgb(212,142,106)" height="5px" width="5px" x="52px" y="100px" /><rect fill="rgb(206,142,108)" height="5px" width="5px" x="56px" y="100px" /><rect fill="rgb(206,142,108)" height="5px" width="5px" x="60px" y="100px" /><rect fill="rgb(191,126,89)" height="5px" width="5px" x="64px" y="100px" /><rect fill="rgb(182,121,86)" height="5px" width="5px" x="68px" y="100px" /><rect fill="rgb(174,117,84)" height="5px" width="5px" x="72px" y="100px" /><rect fill="rgb(168,113,82)" height="5px" width="5px" x="76px" y="100px" /><rect fill="rgb(141,95,70)" height="5px" width="5px" x="80px" y="100px" /><rect fill="rgb(206,142,108)" height="5px" width="5px" x="40px" y="104px" /><rect fill="rgb(206,142,108)" height="5px" width="5px" x="44px" y="104px" /><rect fill="rgb(212,142,106)" height="5px" width="5px" x="48px" y="104px" /><rect fill="rgb(212,142,106)" height="5px" width="5px" x="52px" y="104px" /><rect fill="rgb(206,142,108)" height="5px" width="5px" x="56px" y="104px" /><rect fill="rgb(206,142,108)" height="5px" width="5px" x="60px" y="104px" /><rect fill="rgb(191,126,89)" height="5px" width="5px" x="64px" y="104px" /><rect fill="rgb(182,121,86)" height="5px" width="5px" x="68px" y="104px" /><rect fill="rgb(174,117,84)" height="5px" width="5px" x="72px" y="104px" /><rect fill="rgb(168,113,82)" height="5px" width="5px" x="76px" y="104px" /><rect fill="rgb(168,113,82)" height="5px" width="5px" x="80px" y="104px" /><rect fill="rgb(206,142,108)" height="5px" width="5px" x="44px" y="108px" /><rect fill="rgb(212,142,106)" height="5px" width="5px" x="48px" y="108px" /><rect fill="rgb(212,142,106)" height="5px" width="5px" x="52px" y="108px" /><rect fill="rgb(206,142,108)" height="5px" width="5px" x="56px" y="108px" /><rect fill="rgb(206,142,108)" height="5px" width="5px" x="60px" y="108px" /><rect fill="rgb(191,126,89)" height="5px" width="5px" x="64px" y="108px" /><rect fill="rgb(182,121,86)" height="5px" width="5px" x="68px" y="108px" /><rect fill="rgb(174,117,84)" height="5px" width="5px" x="72px" y="108px" /><rect fill="rgb(168,113,82)" height="5px" width="5px" x="76px" y="108px" /><rect fill="rgb(212,142,106)" height="5px" width="5px" x="48px" y="112px" /><rect fill="rgb(212,142,106)" height="5px" width="5px" x="52px" y="112px" /><rect fill="rgb(206,142,108)" height="5px" width="5px" x="56px" y="112px" /><rect fill="rgb(206,142,108)" height="5px" width="5px" x="60px" y="112px" /><rect fill="rgb(191,126,89)" height="5px" width="5px" x="64px" y="112px" /><rect fill="rgb(182,121,86)" height="5px" width="5px" x="68px" y="112px" /><rect fill="rgb(168,113,82)" height="5px" width="5px" x="72px" y="112px" /><rect fill="rgb(206,142,108)" height="5px" width="5px" x="48px" y="116px" /><rect fill="rgb(212,142,106)" height="5px" width="5px" x="52px" y="116px" /><rect fill="rgb(206,142,108)" height="5px" width="5px" x="56px" y="116px" /><rect fill="rgb(206,142,108)" height="5px" width="5px" x="60px" y="116px" /><rect fill="rgb(191,126,89)" height="5px" width="5px" x="64px" y="116px" /><rect fill="rgb(182,121,86)" height="5px" width="5px" x="68px" y="116px" /><rect fill="rgb(168,113,82)" height="5px" width="5px" x="72px" y="116px" /><rect fill="rgb(206,142,108)" height="5px" width="5px" x="52px" y="120px" /><rect fill="rgb(206,142,108)" height="5px" width="5px" x="56px" y="120px" /><rect fill="rgb(206,142,108)" height="5px" width="5px" x="60px" y="120px" /><rect fill="rgb(174,117,84)" height="5px" width="5px" x="64px" y="120px" /><rect fill="rgb(168,113,82)" height="5px" width="5px" x="68px" y="120px" /></svg>