<?xml version="1.0" encoding="utf-8" ?>
<svg baseProfile="full" height="128px" version="1.1" width="128px" xmlns="http://www.w3.org/2000/svg" xmlns:ev="http://www.w3.org/2001/xml-events" xmlns:xlink="http://www.w3.org/1999/xlink"><defs /><rect fill="rgb(177,177,178)" height="5px" width="5px" x="52px" y="32px" /><rect fill="rgb(143,142,144)" height="5px" width="5px" x="56px" y="32px" /><rect fill="rgb(110,110,111)" height="5px" width="5px" x="60px" y="32px" /><rect fill="rgb(111,111,113)" height="5px" width="5px" x="64px" y="32px" /><rect fill="rgb(158,157,159)" height="5px" width="5px" x="68px" y="32px" /><rect fill="rgb(205,205,205)" height="5px" width="5px" x="72px" y="32px" /><rect fill="rgb(180,179,180)" height="5px" width="5px" x="32px" y="36px" /><rect fill="rgb(142,142,143)" height="5px" width="5px" x="36px" y="36px" /><rect fill="rgb(99,99,101)" height="5px" width="5px" x="40px" y="36px" /><rect fill="rgb(64,63,67)" height="5px" width="5px" x="44px" y="36px" /><rect fill="rgb(58,57,60)" height="5px" width="5px" x="48px" y="36px" /><rect fill="rgb(56,55,60)" height="5px" width="5px" x="52px" y="36px" /><rect fill="rgb(55,54,59)" height="5px" width="5px" x="56px" y="36px" /><rect fill="rgb(54,53,58)" height="5px" width="5px" x="60px" y="36px" /><rect fill="rgb(53,53,57)" height="5px" width="5px" x="64px" y="36px" /><rect fill="rgb(55,54,58)" height="5px" width="5px" x="68px" y="36px" /><rect fill="rgb(56,56,59)" height="5px" width="5px" x="72px" y="36px" /><rect fill="rgb(62,62,66)" height="5px" width="5px" x="76px" y="36px" /><rect fill="rgb(99,98,102)" height="5px" width="5px" x="80px" y="36px" /><rect fill="rgb(143,144,146)" height="5px" width="5px" x="84px" y="36px" /><rect fill="rgb(187,187,188)" height="5px" width="5px" x="88px" y="36px" /><rect fill="rgb(208,208,208)" height="5px" width="5px" x="4px" y="40px" /><rect fill="rgb(177,177,177)" height="5px" width="5px" x="8px" y="40px" /><rect fill="rgb(146,146,146)" height="5px" width="5px" x="12px" y="40px" /><rect fill="rgb(114,114,116)" height="5px" width="5px" x="16px" y="40px" /><rect fill="rgb(84,84,87)" height="5px" width="5px" x="20px" y="40px" /><rect fill="rgb(68,67,70)" height="5px" width="5px" x="24px" y="40px" /><rect fill="rgb(65,65,67)" height="5px" width="5px" x="28px" y="40px" /><rect fill="rgb(63,63,66)" height="5px" width="5px" x="32px" y="40px" /><rect fill="rgb(63,62,67)" height="5px" width="5px" x="36px" y="40px" /><rect fill="rgb(62,61,66)" height="5px" width="5px" x="40px" y="40px" /><rect fill="rgb(61,60,65)" height="5px" width="5px" x="44px" y="40px" /><rect fill="rgb(59,58,63)" height="5px" width="5px" x="48px" y="40px" /><rect fill="rgb(56,55,60)" height="5px" width="5px" x="52px" y="40px" /><rect fill="rgb(63,43,44)" height="5px" width="5px" x="56px" y="40px" /><rect fill="rgb(69,38,41)" height="5px" width="5px" x="60px" y="40px" /><rect fill="rgb(80,48,50)" height="5px" width="5px" x="64px" y="40px" /><rect fill="rgb(83,46,49)" height="5px" width="5px" x="68px" y="40px" /><rect fill="rgb(99,47,48)" height="5px" width="5px" x="72px" y="40px" /><rect fill="rgb(103,49,50)" height="5px" width="5px" x="76px" y="40px" /><rect fill="rgb(96,51,53)" height="5px" width="5px" x="80px" y="40px" /><rect fill="rgb(89,51,54)" height="5px" width="5px" x="84px" y="40px" /><rect fill="rgb(90,50,52)" height="5px" width="5px" x="88px" y="40px" /><rect fill="rgb(99,53,54)" height="5px" width="5px" x="92px" y="40px" /><rect fill="rgb(126,67,68)" height="5px" width="5px" x="96px" y="40px" /><rect fill="rgb(153,103,105)" height="5px" width="5px" x="100px" y="40px" /><rect fill="rgb(172,139,139)" height="5px" width="5px" x="104px" y="40px" /><rect fill="rgb(209,176,176)" height="5px" width="5px" x="108px" y="40px" /><rect fill="rgb(189,189,189)" height="5px" width="5px" x="4px" y="44px" /><rect fill="rgb(147,147,148)" height="5px" width="5px" x="8px" y="44px" /><rect fill="rgb(98,98,100)" height="5px" width="5px" x="12px" y="44px" /><rect fill="rgb(70,69,73)" height="5px" width="5px" x="16px" y="44px" /><rect fill="rgb(67,66,71)" height="5px" width="5px" x="20px" y="44px" /><rect fill="rgb(67,66,71)" height="5px" width="5px" x="24px" y="44px" /><rect fill="rgb(65,64,69)" height="5px" width="5px" x="28px" y="44px" /><rect fill="rgb(64,63,68)" height="5px" width="5px" x="32px" y="44px" /><rect fill="rgb(64,63,68)" height="5px" width="5px" x="36px" y="44px" /><rect fill="rgb(63,62,67)" height="5px" width="5px" x="40px" y="44px" /><rect fill="rgb(62,61,66)" height="5px" width="5px" x="44px" y="44px" /><rect fill="rgb(61,60,65)" height="5px" width="5px" x="48px" y="44px" /><rect fill="rgb(60,59,64)" height="5px" width="5px" x="52px" y="44px" /><rect fill="rgb(59,58,62)" height="5px" width="5px" x="56px" y="44px" /><rect fill="rgb(58,58,62)" height="5px" width="5px" x="60px" y="44px" /><rect fill="rgb(61,58,63)" height="5px" width="5px" x="64px" y="44px" /><rect fill="rgb(60,59,63)" height="5px" width="5px" x="68px" y="44px" /><rect fill="rgb(62,59,64)" height="5px" width="5px" x="72px" y="44px" /><rect fill="rgb(62,60,65)" height="5px" width="5px" x="76px" y="44px" /><rect fill="rgb(62,62,66)" height="5px" width="5px" x="80px" y="44px" /><rect fill="rgb(64,62,67)" height="5px" width="5px" x="84px" y="44px" /><rect fill="rgb(65,63,68)" height="5px" width="5px" x="88px" y="44px" /><rect fill="rgb(79,77,81)" height="5px" width="5px" x="92px" y="44px" /><rect fill="rgb(117,115,118)" height="5px" width="5px" x="96px" y="44px" /><rect fill="rgb(149,148,150)" height="5px" width="5px" x="100px" y="44px" /><rect fill="rgb(174,173,175)" height="5px" width="5px" x="104px" y="44px" /><rect fill="rgb(199,100,100)" height="5px" width="5px" x="108px" y="44px" /><rect fill="rgb(207,164,165)" height="5px" width="5px" x="112px" y="44px" /><rect fill="rgb(182,182,183)" height="5px" width="5px" x="20px" y="48px" /><rect fill="rgb(127,127,129)" height="5px" width="5px" x="24px" y="48px" /><rect fill="rgb(74,74,77)" height="5px" width="5px" x="28px" y="48px" /><rect fill="rgb(66,65,69)" height="5px" width="5px" x="32px" y="48px" /><rect fill="rgb(64,63,68)" height="5px" width="5px" x="36px" y="48px" /><rect fill="rgb(64,63,68)" height="5px" width="5px" x="40px" y="48px" /><rect fill="rgb(64,63,68)" height="5px" width="5px" x="44px" y="48px" /><rect fill="rgb(62,61,66)" height="5px" width="5px" x="48px" y="48px" /><rect fill="rgb(61,60,65)" height="5px" width="5px" x="52px" y="48px" /><rect fill="rgb(61,60,65)" height="5px" width="5px" x="56px" y="48px" /><rect fill="rgb(61,60,65)" height="5px" width="5px" x="60px" y="48px" /><rect fill="rgb(62,61,67)" height="5px" width="5px" x="64px" y="48px" /><rect fill="rgb(61,60,66)" height="5px" width="5px" x="68px" y="48px" /><rect fill="rgb(56,55,61)" height="5px" width="5px" x="72px" y="48px" /><rect fill="rgb(50,49,55)" height="5px" width="5px" x="76px" y="48px" /><rect fill="rgb(48,47,53)" height="5px" width="5px" x="80px" y="48px" /><rect fill="rgb(105,104,108)" height="5px" width="5px" x="84px" y="48px" /><rect fill="rgb(228,156,153)" height="5px" width="5px" x="108px" y="48px" /><rect fill="rgb(243,192,189)" height="5px" width="5px" x="112px" y="48px" /><rect fill="rgb(198,198,198)" height="5px" width="5px" x="28px" y="52px" /><rect fill="rgb(54,54,54)" height="5px" width="5px" x="32px" y="52px" /><rect fill="rgb(53,53,53)" height="5px" width="5px" x="36px" y="52px" /><rect fill="rgb(58,58,60)" height="5px" width="5px" x="40px" y="52px" /><rect fill="rgb(62,62,64)" height="5px" width="5px" x="44px" y="52px" /><rect fill="rgb(61,60,65)" height="5px" width="5px" x="48px" y="52px" /><rect fill="rgb(60,59,64)" height="5px" width="5px" x="52px" y="52px" /><rect fill="rgb(55,54,59)" height="5px" width="5px" x="56px" y="52px" /><rect fill="rgb(46,45,50)" height="5px" width="5px" x="60px" y="52px" /><rect fill="rgb(35,36,40)" height="5px" width="5px" x="64px" y="52px" /><rect fill="rgb(32,32,36)" height="5px" width="5px" x="68px" y="52px" /><rect fill="rgb(32,31,37)" height="5px" width="5px" x="72px" y="52px" /><rect fill="rgb(35,34,40)" height="5px" width="5px" x="76px" y="52px" /><rect fill="rgb(38,37,43)" height="5px" width="5px" x="80px" y="52px" /><rect fill="rgb(124,123,127)" height="5px" width="5px" x="84px" y="52px" /><rect fill="rgb(217,207,192)" height="5px" width="5px" x="108px" y="52px" /><rect fill="rgb(183,183,183)" height="5px" width="5px" x="28px" y="56px" /><rect fill="rgb(53,53,53)" height="5px" width="5px" x="32px" y="56px" /><rect fill="rgb(45,45,45)" height="5px" width="5px" x="36px" y="56px" /><rect fill="rgb(31,31,31)" height="5px" width="5px" x="40px" y="56px" /><rect fill="rgb(37,37,37)" height="5px" width="5px" x="44px" y="56px" /><rect fill="rgb(39,39,39)" height="5px" width="5px" x="48px" y="56px" /><rect fill="rgb(31,31,34)" height="5px" width="5px" x="52px" y="56px" /><rect fill="rgb(25,26,30)" height="5px" width="5px" x="56px" y="56px" /><rect fill="rgb(29,28,33)" height="5px" width="5px" x="60px" y="56px" /><rect fill="rgb(32,33,38)" height="5px" width="5px" x="64px" y="56px" /><rect fill="rgb(39,38,44)" height="5px" width="5px" x="68px" y="56px" /><rect fill="rgb(42,41,47)" height="5px" width="5px" x="72px" y="56px" /><rect fill="rgb(40,40,46)" height="5px" width="5px" x="76px" y="56px" /><rect fill="rgb(41,41,47)" height="5px" width="5px" x="80px" y="56px" /><rect fill="rgb(137,137,139)" height="5px" width="5px" x="84px" y="56px" /><rect fill="rgb(223,124,124)" height="5px" width="5px" x="108px" y="56px" /><rect fill="rgb(127,126,126)" height="5px" width="5px" x="28px" y="60px" /><rect fill="rgb(63,62,63)" height="5px" width="5px" x="32px" y="60px" /><rect fill="rgb(45,45,46)" height="5px" width="5px" x="36px" y="60px" /><rect fill="rgb(48,48,48)" height="5px" width="5px" x="40px" y="60px" /><rect fill="rgb(44,44,45)" height="5px" width="5px" x="44px" y="60px" /><rect fill="rgb(35,35,37)" height="5px" width="5px" x="48px" y="60px" /><rect fill="rgb(28,29,31)" height="5px" width="5px" x="52px" y="60px" /><rect fill="rgb(31,32,36)" height="5px" width="5px" x="56px" y="60px" /><rect fill="rgb(34,35,39)" height="5px" width="5px" x="60px" y="60px" /><rect fill="rgb(39,40,45)" height="5px" width="5px" x="64px" y="60px" /><rect fill="rgb(43,44,51)" height="5px" width="5px" x="68px" y="60px" /><rect fill="rgb(44,44,51)" height="5px" width="5px" x="72px" y="60px" /><rect fill="rgb(45,45,53)" height="5px" width="5px" x="76px" y="60px" /><rect fill="rgb(56,55,62)" height="5px" width="5px" x="80px" y="60px" /><rect fill="rgb(126,126,129)" height="5px" width="5px" x="84px" y="60px" /><rect fill="rgb(222,107,109)" height="5px" width="5px" x="108px" y="60px" /><rect fill="rgb(248,176,177)" height="5px" width="5px" x="112px" y="60px" /><rect fill="rgb(85,85,85)" height="5px" width="5px" x="28px" y="64px" /><rect fill="rgb(61,60,61)" height="5px" width="5px" x="32px" y="64px" /><rect fill="rgb(57,57,58)" height="5px" width="5px" x="36px" y="64px" /><rect fill="rgb(55,55,56)" height="5px" width="5px" x="40px" y="64px" /><rect fill="rgb(48,48,50)" height="5px" width="5px" x="44px" y="64px" /><rect fill="rgb(37,37,39)" height="5px" width="5px" x="48px" y="64px" /><rect fill="rgb(33,33,35)" height="5px" width="5px" x="52px" y="64px" /><rect fill="rgb(36,36,41)" height="5px" width="5px" x="56px" y="64px" /><rect fill="rgb(38,39,44)" height="5px" width="5px" x="60px" y="64px" /><rect fill="rgb(39,40,45)" height="5px" width="5px" x="64px" y="64px" /><rect fill="rgb(43,44,51)" height="5px" width="5px" x="68px" y="64px" /><rect fill="rgb(46,46,54)" height="5px" width="5px" x="72px" y="64px" /><rect fill="rgb(50,50,58)" height="5px" width="5px" x="76px" y="64px" /><rect fill="rgb(59,58,65)" height="5px" width="5px" x="80px" y="64px" /><rect fill="rgb(116,115,120)" height="5px" width="5px" x="84px" y="64px" /><rect fill="rgb(221,105,105)" height="5px" width="5px" x="108px" y="64px" /><rect fill="rgb(247,160,161)" height="5px" width="5px" x="112px" y="64px" /><rect fill="rgb(74,74,75)" height="5px" width="5px" x="28px" y="68px" /><rect fill="rgb(65,65,67)" height="5px" width="5px" x="32px" y="68px" /><rect fill="rgb(61,61,63)" height="5px" width="5px" x="36px" y="68px" /><rect fill="rgb(55,55,57)" height="5px" width="5px" x="40px" y="68px" /><rect fill="rgb(47,47,49)" height="5px" width="5px" x="44px" y="68px" /><rect fill="rgb(38,38,40)" height="5px" width="5px" x="48px" y="68px" /><rect fill="rgb(37,37,39)" height="5px" width="5px" x="52px" y="68px" /><rect fill="rgb(38,37,42)" height="5px" width="5px" x="56px" y="68px" /><rect fill="rgb(38,39,44)" height="5px" width="5px" x="60px" y="68px" /><rect fill="rgb(39,39,45)" height="5px" width="5px" x="64px" y="68px" /><rect fill="rgb(42,42,48)" height="5px" width="5px" x="68px" y="68px" /><rect fill="rgb(48,48,55)" height="5px" width="5px" x="72px" y="68px" /><rect fill="rgb(54,53,61)" height="5px" width="5px" x="76px" y="68px" /><rect fill="rgb(56,55,63)" height="5px" width="5px" x="80px" y="68px" /><rect fill="rgb(107,106,111)" height="5px" width="5px" x="84px" y="68px" /><rect fill="rgb(219,92,93)" height="5px" width="5px" x="108px" y="68px" /><rect fill="rgb(241,148,148)" height="5px" width="5px" x="112px" y="68px" /><rect fill="rgb(76,76,76)" height="5px" width="5px" x="28px" y="72px" /><rect fill="rgb(69,69,70)" height="5px" width="5px" x="32px" y="72px" /><rect fill="rgb(61,61,63)" height="5px" width="5px" x="36px" y="72px" /><rect fill="rgb(52,52,54)" height="5px" width="5px" x="40px" y="72px" /><rect fill="rgb(49,49,51)" height="5px" width="5px" x="44px" y="72px" /><rect fill="rgb(39,38,42)" height="5px" width="5px" x="48px" y="72px" /><rect fill="rgb(38,38,40)" height="5px" width="5px" x="52px" y="72px" /><rect fill="rgb(37,37,41)" height="5px" width="5px" x="56px" y="72px" /><rect fill="rgb(39,39,44)" height="5px" width="5px" x="60px" y="72px" /><rect fill="rgb(41,41,47)" height="5px" width="5px" x="64px" y="72px" /><rect fill="rgb(43,43,48)" height="5px" width="5px" x="68px" y="72px" /><rect fill="rgb(47,46,53)" height="5px" width="5px" x="72px" y="72px" /><rect fill="rgb(54,53,61)" height="5px" width="5px" x="76px" y="72px" /><rect fill="rgb(56,55,63)" height="5px" width="5px" x="80px" y="72px" /><rect fill="rgb(88,87,93)" height="5px" width="5px" x="84px" y="72px" /><rect fill="rgb(216,82,85)" height="5px" width="5px" x="108px" y="72px" /><rect fill="rgb(240,142,143)" height="5px" width="5px" x="112px" y="72px" /><rect fill="rgb(75,75,75)" height="5px" width="5px" x="28px" y="76px" /><rect fill="rgb(68,68,69)" height="5px" width="5px" x="32px" y="76px" /><rect fill="rgb(61,61,62)" height="5px" width="5px" x="36px" y="76px" /><rect fill="rgb(53,53,55)" height="5px" width="5px" x="40px" y="76px" /><rect fill="rgb(50,50,52)" height="5px" width="5px" x="44px" y="76px" /><rect fill="rgb(39,38,43)" height="5px" width="5px" x="48px" y="76px" /><rect fill="rgb(38,38,40)" height="5px" width="5px" x="52px" y="76px" /><rect fill="rgb(38,37,42)" height="5px" width="5px" x="56px" y="76px" /><rect fill="rgb(38,37,42)" height="5px" width="5px" x="60px" y="76px" /><rect fill="rgb(45,45,52)" height="5px" width="5px" x="64px" y="76px" /><rect fill="rgb(43,44,50)" height="5px" width="5px" x="68px" y="76px" /><rect fill="rgb(51,50,58)" height="5px" width="5px" x="72px" y="76px" /><rect fill="rgb(55,54,62)" height="5px" width="5px" x="76px" y="76px" /><rect fill="rgb(56,55,63)" height="5px" width="5px" x="80px" y="76px" /><rect fill="rgb(74,73,80)" height="5px" width="5px" x="84px" y="76px" /><rect fill="rgb(214,81,83)" height="5px" width="5px" x="108px" y="76px" /><rect fill="rgb(242,123,124)" height="5px" width="5px" x="112px" y="76px" /><rect fill="rgb(79,79,79)" height="5px" width="5px" x="28px" y="80px" /><rect fill="rgb(68,67,68)" height="5px" width="5px" x="32px" y="80px" /><rect fill="rgb(58,58,58)" height="5px" width="5px" x="36px" y="80px" /><rect fill="rgb(52,52,54)" height="5px" width="5px" x="40px" y="80px" /><rect fill="rgb(48,48,50)" height="5px" width="5px" x="44px" y="80px" /><rect fill="rgb(41,40,44)" height="5px" width="5px" x="48px" y="80px" /><rect fill="rgb(38,38,41)" height="5px" width="5px" x="52px" y="80px" /><rect fill="rgb(38,37,42)" height="5px" width="5px" x="56px" y="80px" /><rect fill="rgb(37,36,41)" height="5px" width="5px" x="60px" y="80px" /><rect fill="rgb(41,41,47)" height="5px" width="5px" x="64px" y="80px" /><rect fill="rgb(50,50,58)" height="5px" width="5px" x="68px" y="80px" /><rect fill="rgb(53,52,60)" height="5px" width="5px" x="72px" y="80px" /><rect fill="rgb(54,53,61)" height="5px" width="5px" x="76px" y="80px" /><rect fill="rgb(54,53,60)" height="5px" width="5px" x="80px" y="80px" /><rect fill="rgb(108,107,112)" height="5px" width="5px" x="84px" y="80px" /><rect fill="rgb(218,75,77)" height="5px" width="5px" x="108px" y="80px" /><rect fill="rgb(234,108,110)" height="5px" width="5px" x="112px" y="80px" /><rect fill="rgb(199,198,199)" height="5px" width="5px" x="28px" y="84px" /><rect fill="rgb(71,70,71)" height="5px" width="5px" x="32px" y="84px" /><rect fill="rgb(56,56,57)" height="5px" width="5px" x="36px" y="84px" /><rect fill="rgb(52,52,54)" height="5px" width="5px" x="40px" y="84px" /><rect fill="rgb(46,46,48)" height="5px" width="5px" x="44px" y="84px" /><rect fill="rgb(40,40,44)" height="5px" width="5px" x="48px" y="84px" /><rect fill="rgb(37,36,40)" height="5px" width="5px" x="52px" y="84px" /><rect fill="rgb(38,37,42)" height="5px" width="5px" x="56px" y="84px" /><rect fill="rgb(40,39,44)" height="5px" width="5px" x="60px" y="84px" /><rect fill="rgb(41,41,46)" height="5px" width="5px" x="64px" y="84px" /><rect fill="rgb(54,53,60)" height="5px" width="5px" x="68px" y="84px" /><rect fill="rgb(55,54,61)" height="5px" width="5px" x="72px" y="84px" /><rect fill="rgb(120,119,123)" height="5px" width="5px" x="76px" y="84px" /><rect fill="rgb(207,207,208)" height="5px" width="5px" x="80px" y="84px" /><rect fill="rgb(218,70,74)" height="5px" width="5px" x="108px" y="84px" /><rect fill="rgb(231,89,91)" height="5px" width="5px" x="112px" y="84px" /><rect fill="rgb(100,100,100)" height="5px" width="5px" x="36px" y="88px" /><rect fill="rgb(48,48,50)" height="5px" width="5px" x="40px" y="88px" /><rect fill="rgb(45,45,47)" height="5px" width="5px" x="44px" y="88px" /><rect fill="rgb(41,41,44)" height="5px" width="5px" x="48px" y="88px" /><rect fill="rgb(40,39,44)" height="5px" width="5px" x="52px" y="88px" /><rect fill="rgb(40,39,44)" height="5px" width="5px" x="56px" y="88px" /><rect fill="rgb(40,39,44)" height="5px" width="5px" x="60px" y="88px" /><rect fill="rgb(42,41,46)" height="5px" width="5px" x="64px" y="88px" /><rect fill="rgb(103,103,107)" height="5px" width="5px" x="68px" y="88px" /><rect fill="rgb(209,64,68)" height="5px" width="5px" x="108px" y="88px" /><rect fill="rgb(215,32,35)" height="5px" width="5px" x="112px" y="88px" /><rect fill="rgb(182,182,182)" height="5px" width="5px" x="40px" y="92px" /><rect fill="rgb(68,68,70)" height="5px" width="5px" x="44px" y="92px" /><rect fill="rgb(43,42,45)" height="5px" width="5px" x="48px" y="92px" /><rect fill="rgb(38,37,42)" height="5px" width="5px" x="52px" y="92px" /><rect fill="rgb(63,63,67)" height="5px" width="5px" x="56px" y="92px" /><rect fill="rgb(139,138,141)" height="5px" width="5px" x="60px" y="92px" /><rect fill="rgb(222,133,136)" height="5px" width="5px" x="108px" y="92px" /><rect fill="rgb(212,26,28)" height="5px" width="5px" x="112px" y="92px" /><rect fill="rgb(234,122,123)" height="5px" width="5px" x="116px" y="92px" /><rect fill="rgb(179,179,180)" height="5px" width="5px" x="48px" y="96px" /><rect fill="rgb(208,208,209)" height="5px" width="5px" x="52px" y="96px" /><rect fill="rgb(220,84,85)" height="5px" width="5px" x="112px" y="96px" /><rect fill="rgb(229,41,44)" height="5px" width="5px" x="116px" y="96px" /><rect fill="rgb(238,116,117)" height="5px" width="5px" x="120px" y="96px" /></svg>