<?xml version="1.0" encoding="utf-8" ?>
<svg baseProfile="full" height="128px" version="1.1" width="128px" xmlns="http://www.w3.org/2000/svg" xmlns:ev="http://www.w3.org/2001/xml-events" xmlns:xlink="http://www.w3.org/1999/xlink"><defs /><rect fill="rgb(70,70,63)" height="5px" opacity="0.301960784314" width="5px" x="64px" y="8px" /><rect fill="rgb(64,64,64)" height="5px" opacity="0.0313725490196" width="5px" x="68px" y="8px" /><rect fill="rgb(69,69,65)" height="5px" opacity="0.262745098039" width="5px" x="60px" y="12px" /><rect fill="rgb(48,48,47)" height="5px" opacity="0.992156862745" width="5px" x="64px" y="12px" /><rect fill="rgb(63,63,61)" height="5px" opacity="0.709803921569" width="5px" x="68px" y="12px" /><rect fill="rgb(70,70,65)" height="5px" opacity="0.2" width="5px" x="56px" y="16px" /><rect fill="rgb(50,50,49)" height="5px" opacity="0.98431372549" width="5px" x="60px" y="16px" /><rect fill="rgb(42,42,42)" height="5px" width="5px" x="64px" y="16px" /><rect fill="rgb(44,44,44)" height="5px" width="5px" x="68px" y="16px" /><rect fill="rgb(70,70,63)" height="5px" opacity="0.301960784314" width="5px" x="72px" y="16px" /><rect fill="rgb(70,70,70)" height="5px" opacity="0.0862745098039" width="5px" x="52px" y="20px" /><rect fill="rgb(52,52,50)" height="5px" opacity="0.972549019608" width="5px" x="56px" y="20px" /><rect fill="rgb(47,47,46)" height="5px" width="5px" x="60px" y="20px" /><rect fill="rgb(47,47,46)" height="5px" width="5px" x="64px" y="20px" /><rect fill="rgb(42,42,42)" height="5px" width="5px" x="68px" y="20px" /><rect fill="rgb(55,55,53)" height="5px" opacity="0.945098039216" width="5px" x="72px" y="20px" /><rect fill="rgb(64,64,64)" height="5px" opacity="0.0156862745098" width="5px" x="76px" y="20px" /><rect fill="rgb(67,67,63)" height="5px" opacity="0.490196078431" width="5px" x="52px" y="24px" /><rect fill="rgb(42,42,42)" height="5px" width="5px" x="56px" y="24px" /><rect fill="rgb(53,53,51)" height="5px" width="5px" x="60px" y="24px" /><rect fill="rgb(50,50,48)" height="5px" width="5px" x="64px" y="24px" /><rect fill="rgb(42,42,42)" height="5px" width="5px" x="68px" y="24px" /><rect fill="rgb(42,42,42)" height="5px" width="5px" x="72px" y="24px" /><rect fill="rgb(66,66,61)" height="5px" opacity="0.670588235294" width="5px" x="76px" y="24px" /><rect fill="rgb(18,18,4)" height="5px" width="5px" x="16px" y="28px" /><rect fill="rgb(18,18,4)" height="5px" width="5px" x="20px" y="28px" /><rect fill="rgb(18,18,4)" height="5px" width="5px" x="24px" y="28px" /><rect fill="rgb(18,18,4)" height="5px" width="5px" x="28px" y="28px" /><rect fill="rgb(18,18,4)" height="5px" width="5px" x="32px" y="28px" /><rect fill="rgb(63,63,59)" height="5px" opacity="0.780392156863" width="5px" x="52px" y="28px" /><rect fill="rgb(47,47,46)" height="5px" width="5px" x="56px" y="28px" /><rect fill="rgb(47,47,46)" height="5px" width="5px" x="60px" y="28px" /><rect fill="rgb(45,45,44)" height="5px" width="5px" x="64px" y="28px" /><rect fill="rgb(45,45,44)" height="5px" width="5px" x="68px" y="28px" /><rect fill="rgb(42,42,42)" height="5px" width="5px" x="72px" y="28px" /><rect fill="rgb(45,45,44)" height="5px" width="5px" x="76px" y="28px" /><rect fill="rgb(71,71,67)" height="5px" opacity="0.254901960784" width="5px" x="80px" y="28px" /><rect fill="rgb(18,18,4)" height="5px" width="5px" x="12px" y="32px" /><rect fill="rgb(18,18,4)" height="5px" width="5px" x="16px" y="32px" /><rect fill="rgb(18,18,4)" height="5px" width="5px" x="20px" y="32px" /><rect fill="rgb(18,18,4)" height="5px" width="5px" x="24px" y="32px" /><rect fill="rgb(18,18,4)" height="5px" width="5px" x="28px" y="32px" /><rect fill="rgb(18,18,4)" height="5px" width="5px" x="32px" y="32px" /><rect fill="rgb(18,18,4)" height="5px" width="5px" x="36px" y="32px" /><rect fill="rgb(55,55,52)" height="5px" opacity="0.952941176471" width="5px" x="52px" y="32px" /><rect fill="rgb(50,50,48)" height="5px" width="5px" x="56px" y="32px" /><rect fill="rgb(44,44,44)" height="5px" width="5px" x="60px" y="32px" /><rect fill="rgb(45,45,44)" height="5px" width="5px" x="64px" y="32px" /><rect fill="rgb(46,46,45)" height="5px" width="5px" x="68px" y="32px" /><rect fill="rgb(46,46,45)" height="5px" width="5px" x="72px" y="32px" /><rect fill="rgb(42,42,42)" height="5px" width="5px" x="76px" y="32px" /><rect fill="rgb(55,55,53)" height="5px" opacity="0.945098039216" width="5px" x="80px" y="32px" /><rect fill="rgb(64,64,64)" height="5px" opacity="0.0470588235294" width="5px" x="84px" y="32px" /><rect fill="rgb(18,18,4)" height="5px" width="5px" x="12px" y="36px" /><rect fill="rgb(18,18,4)" height="5px" width="5px" x="16px" y="36px" /><rect fill="rgb(18,18,4)" height="5px" width="5px" x="24px" y="36px" /><rect fill="rgb(18,18,4)" height="5px" width="5px" x="32px" y="36px" /><rect fill="rgb(18,18,4)" height="5px" width="5px" x="36px" y="36px" /><rect fill="rgb(67,67,67)" height="5px" opacity="0.0901960784314" width="5px" x="48px" y="36px" /><rect fill="rgb(46,46,45)" height="5px" width="5px" x="52px" y="36px" /><rect fill="rgb(50,50,48)" height="5px" width="5px" x="56px" y="36px" /><rect fill="rgb(51,51,50)" height="5px" width="5px" x="60px" y="36px" /><rect fill="rgb(51,51,50)" height="5px" width="5px" x="64px" y="36px" /><rect fill="rgb(45,45,45)" height="5px" width="5px" x="68px" y="36px" /><rect fill="rgb(60,60,57)" height="5px" width="5px" x="72px" y="36px" /><rect fill="rgb(42,42,42)" height="5px" width="5px" x="76px" y="36px" /><rect fill="rgb(42,42,42)" height="5px" width="5px" x="80px" y="36px" /><rect fill="rgb(60,60,57)" height="5px" opacity="0.862745098039" width="5px" x="84px" y="36px" /><rect fill="rgb(18,18,4)" height="5px" width="5px" x="8px" y="40px" /><rect fill="rgb(18,18,4)" height="5px" width="5px" x="12px" y="40px" /><rect fill="rgb(18,18,4)" height="5px" width="5px" x="24px" y="40px" /><rect fill="rgb(18,18,4)" height="5px" width="5px" x="36px" y="40px" /><rect fill="rgb(18,18,4)" height="5px" width="5px" x="40px" y="40px" /><rect fill="rgb(72,72,67)" height="5px" opacity="0.180392156863" width="5px" x="44px" y="40px" /><rect fill="rgb(62,62,58)" height="5px" opacity="0.796078431373" width="5px" x="48px" y="40px" /><rect fill="rgb(47,47,46)" height="5px" width="5px" x="52px" y="40px" /><rect fill="rgb(51,51,50)" height="5px" width="5px" x="56px" y="40px" /><rect fill="rgb(47,47,46)" height="5px" width="5px" x="60px" y="40px" /><rect fill="rgb(42,42,42)" height="5px" width="5px" x="64px" y="40px" /><rect fill="rgb(47,47,46)" height="5px" width="5px" x="68px" y="40px" /><rect fill="rgb(49,49,47)" height="5px" width="5px" x="72px" y="40px" /><rect fill="rgb(50,50,48)" height="5px" width="5px" x="76px" y="40px" /><rect fill="rgb(42,42,42)" height="5px" width="5px" x="80px" y="40px" /><rect fill="rgb(42,42,42)" height="5px" width="5px" x="84px" y="40px" /><rect fill="rgb(65,65,61)" height="5px" opacity="0.694117647059" width="5px" x="88px" y="40px" /><rect fill="rgb(18,18,4)" height="5px" width="5px" x="24px" y="44px" /><rect fill="rgb(68,68,64)" height="5px" opacity="0.235294117647" width="5px" x="36px" y="44px" /><rect fill="rgb(59,59,55)" height="5px" opacity="0.898039215686" width="5px" x="40px" y="44px" /><rect fill="rgb(44,44,43)" height="5px" width="5px" x="44px" y="44px" /><rect fill="rgb(42,42,42)" height="5px" width="5px" x="48px" y="44px" /><rect fill="rgb(57,57,54)" height="5px" width="5px" x="52px" y="44px" /><rect fill="rgb(50,50,48)" height="5px" width="5px" x="56px" y="44px" /><rect fill="rgb(42,42,42)" height="5px" width="5px" x="60px" y="44px" /><rect fill="rgb(47,47,46)" height="5px" width="5px" x="64px" y="44px" /><rect fill="rgb(51,51,50)" height="5px" width="5px" x="68px" y="44px" /><rect fill="rgb(47,47,46)" height="5px" width="5px" x="72px" y="44px" /><rect fill="rgb(47,47,46)" height="5px" width="5px" x="76px" y="44px" /><rect fill="rgb(47,47,46)" height="5px" width="5px" x="80px" y="44px" /><rect fill="rgb(42,42,42)" height="5px" width="5px" x="84px" y="44px" /><rect fill="rgb(43,43,43)" height="5px" width="5px" x="88px" y="44px" /><rect fill="rgb(67,67,63)" height="5px" opacity="0.490196078431" width="5px" x="92px" y="44px" /><rect fill="rgb(18,18,4)" height="5px" width="5px" x="24px" y="48px" /><rect fill="rgb(62,62,58)" height="5px" opacity="0.811764705882" width="5px" x="36px" y="48px" /><rect fill="rgb(42,42,42)" height="5px" width="5px" x="40px" y="48px" /><rect fill="rgb(42,42,42)" height="5px" width="5px" x="44px" y="48px" /><rect fill="rgb(47,47,46)" height="5px" width="5px" x="48px" y="48px" /><rect fill="rgb(52,52,50)" height="5px" width="5px" x="52px" y="48px" /><rect fill="rgb(46,46,45)" height="5px" width="5px" x="56px" y="48px" /><rect fill="rgb(42,42,42)" height="5px" width="5px" x="60px" y="48px" /><rect fill="rgb(42,42,42)" height="5px" width="5px" x="64px" y="48px" /><rect fill="rgb(51,51,50)" height="5px" width="5px" x="68px" y="48px" /><rect fill="rgb(55,55,52)" height="5px" width="5px" x="72px" y="48px" /><rect fill="rgb(45,45,44)" height="5px" width="5px" x="76px" y="48px" /><rect fill="rgb(47,47,46)" height="5px" width="5px" x="80px" y="48px" /><rect fill="rgb(47,47,46)" height="5px" width="5px" x="84px" y="48px" /><rect fill="rgb(42,42,42)" height="5px" width="5px" x="88px" y="48px" /><rect fill="rgb(46,46,45)" height="5px" opacity="0.996078431373" width="5px" x="92px" y="48px" /><rect fill="rgb(70,70,67)" height="5px" opacity="0.298039215686" width="5px" x="96px" y="48px" /><rect fill="rgb(18,18,4)" height="5px" width="5px" x="24px" y="52px" /><rect fill="rgb(64,64,64)" height="5px" opacity="0.0470588235294" width="5px" x="32px" y="52px" /><rect fill="rgb(48,48,46)" height="5px" opacity="0.992156862745" width="5px" x="36px" y="52px" /><rect fill="rgb(42,42,42)" height="5px" width="5px" x="40px" y="52px" /><rect fill="rgb(42,42,42)" height="5px" width="5px" x="44px" y="52px" /><rect fill="rgb(49,49,48)" height="5px" width="5px" x="48px" y="52px" /><rect fill="rgb(60,60,56)" height="5px" width="5px" x="52px" y="52px" /><rect fill="rgb(48,48,46)" height="5px" width="5px" x="56px" y="52px" /><rect fill="rgb(42,42,42)" height="5px" width="5px" x="60px" y="52px" /><rect fill="rgb(42,42,42)" height="5px" width="5px" x="64px" y="52px" /><rect fill="rgb(49,49,47)" height="5px" width="5px" x="68px" y="52px" /><rect fill="rgb(63,63,59)" height="5px" width="5px" x="72px" y="52px" /><rect fill="rgb(60,60,57)" height="5px" width="5px" x="76px" y="52px" /><rect fill="rgb(42,42,42)" height="5px" width="5px" x="80px" y="52px" /><rect fill="rgb(47,47,46)" height="5px" width="5px" x="84px" y="52px" /><rect fill="rgb(47,47,46)" height="5px" width="5px" x="88px" y="52px" /><rect fill="rgb(44,44,43)" height="5px" width="5px" x="92px" y="52px" /><rect fill="rgb(58,58,55)" height="5px" opacity="0.96862745098" width="5px" x="96px" y="52px" /><rect fill="rgb(64,64,64)" height="5px" opacity="0.0470588235294" width="5px" x="100px" y="52px" /><rect fill="rgb(18,18,4)" height="5px" width="5px" x="24px" y="56px" /><rect fill="rgb(67,67,62)" height="5px" opacity="0.564705882353" width="5px" x="32px" y="56px" /><rect fill="rgb(42,42,42)" height="5px" width="5px" x="36px" y="56px" /><rect fill="rgb(42,42,42)" height="5px" width="5px" x="40px" y="56px" /><rect fill="rgb(42,42,42)" height="5px" width="5px" x="44px" y="56px" /><rect fill="rgb(54,54,51)" height="5px" width="5px" x="48px" y="56px" /><rect fill="rgb(49,49,48)" height="5px" width="5px" x="52px" y="56px" /><rect fill="rgb(42,42,42)" height="5px" width="5px" x="56px" y="56px" /><rect fill="rgb(42,42,42)" height="5px" width="5px" x="60px" y="56px" /><rect fill="rgb(42,42,42)" height="5px" width="5px" x="64px" y="56px" /><rect fill="rgb(55,55,53)" height="5px" width="5px" x="68px" y="56px" /><rect fill="rgb(47,47,46)" height="5px" width="5px" x="72px" y="56px" /><rect fill="rgb(51,51,50)" height="5px" width="5px" x="76px" y="56px" /><rect fill="rgb(51,51,50)" height="5px" width="5px" x="80px" y="56px" /><rect fill="rgb(42,42,42)" height="5px" width="5px" x="84px" y="56px" /><rect fill="rgb(47,47,46)" height="5px" width="5px" x="88px" y="56px" /><rect fill="rgb(49,49,47)" height="5px" width="5px" x="92px" y="56px" /><rect fill="rgb(50,50,48)" height="5px" width="5px" x="96px" y="56px" /><rect fill="rgb(63,63,59)" height="5px" opacity="0.764705882353" width="5px" x="100px" y="56px" /><rect fill="rgb(18,18,4)" height="5px" width="5px" x="24px" y="60px" /><rect fill="rgb(57,57,54)" height="5px" opacity="0.925490196078" width="5px" x="32px" y="60px" /><rect fill="rgb(42,42,42)" height="5px" width="5px" x="36px" y="60px" /><rect fill="rgb(42,42,42)" height="5px" width="5px" x="40px" y="60px" /><rect fill="rgb(53,53,51)" height="5px" width="5px" x="44px" y="60px" /><rect fill="rgb(57,57,55)" height="5px" width="5px" x="48px" y="60px" /><rect fill="rgb(45,45,45)" height="5px" width="5px" x="52px" y="60px" /><rect fill="rgb(46,46,45)" height="5px" width="5px" x="56px" y="60px" /><rect fill="rgb(42,42,42)" height="5px" width="5px" x="60px" y="60px" /><rect fill="rgb(47,47,46)" height="5px" width="5px" x="64px" y="60px" /><rect fill="rgb(51,51,50)" height="5px" width="5px" x="68px" y="60px" /><rect fill="rgb(47,47,46)" height="5px" width="5px" x="72px" y="60px" /><rect fill="rgb(42,42,42)" height="5px" width="5px" x="76px" y="60px" /><rect fill="rgb(54,54,51)" height="5px" width="5px" x="80px" y="60px" /><rect fill="rgb(49,49,48)" height="5px" width="5px" x="84px" y="60px" /><rect fill="rgb(42,42,42)" height="5px" width="5px" x="88px" y="60px" /><rect fill="rgb(47,47,46)" height="5px" width="5px" x="92px" y="60px" /><rect fill="rgb(55,55,53)" height="5px" width="5px" x="96px" y="60px" /><rect fill="rgb(43,43,43)" height="5px" width="5px" x="100px" y="60px" /><rect fill="rgb(69,69,64)" height="5px" opacity="0.392156862745" width="5px" x="104px" y="60px" /><rect fill="rgb(18,18,4)" height="5px" width="5px" x="24px" y="64px" /><rect fill="rgb(70,70,65)" height="5px" opacity="0.21568627451" width="5px" x="28px" y="64px" /><rect fill="rgb(43,43,43)" height="5px" width="5px" x="32px" y="64px" /><rect fill="rgb(42,42,42)" height="5px" width="5px" x="36px" y="64px" /><rect fill="rgb(49,49,48)" height="5px" width="5px" x="40px" y="64px" /><rect fill="rgb(65,65,60)" height="5px" width="5px" x="44px" y="64px" /><rect fill="rgb(49,49,48)" height="5px" width="5px" x="48px" y="64px" /><rect fill="rgb(51,51,49)" height="5px" width="5px" x="52px" y="64px" /><rect fill="rgb(46,46,45)" height="5px" width="5px" x="56px" y="64px" /><rect fill="rgb(47,47,46)" height="5px" width="5px" x="60px" y="64px" /><rect fill="rgb(47,47,46)" height="5px" width="5px" x="64px" y="64px" /><rect fill="rgb(50,50,48)" height="5px" width="5px" x="68px" y="64px" /><rect fill="rgb(44,44,44)" height="5px" width="5px" x="72px" y="64px" /><rect fill="rgb(42,42,42)" height="5px" width="5px" x="76px" y="64px" /><rect fill="rgb(42,42,42)" height="5px" width="5px" x="80px" y="64px" /><rect fill="rgb(54,54,51)" height="5px" width="5px" x="84px" y="64px" /><rect fill="rgb(55,55,53)" height="5px" width="5px" x="88px" y="64px" /><rect fill="rgb(44,44,44)" height="5px" width="5px" x="92px" y="64px" /><rect fill="rgb(54,54,52)" height="5px" width="5px" x="96px" y="64px" /><rect fill="rgb(49,49,47)" height="5px" width="5px" x="100px" y="64px" /><rect fill="rgb(55,55,52)" height="5px" opacity="0.949019607843" width="5px" x="104px" y="64px" /><rect fill="rgb(63,63,59)" height="5px" opacity="0.756862745098" width="5px" x="28px" y="68px" /><rect fill="rgb(42,42,42)" height="5px" width="5px" x="32px" y="68px" /><rect fill="rgb(42,42,42)" height="5px" width="5px" x="36px" y="68px" /><rect fill="rgb(65,65,60)" height="5px" width="5px" x="40px" y="68px" /><rect fill="rgb(61,61,57)" height="5px" width="5px" x="44px" y="68px" /><rect fill="rgb(52,49,45)" height="5px" width="5px" x="48px" y="68px" /><rect fill="rgb(48,44,41)" height="5px" width="5px" x="52px" y="68px" /><rect fill="rgb(46,46,46)" height="5px" width="5px" x="56px" y="68px" /><rect fill="rgb(50,50,48)" height="5px" width="5px" x="60px" y="68px" /><rect fill="rgb(42,42,42)" height="5px" width="5px" x="64px" y="68px" /><rect fill="rgb(50,50,48)" height="5px" width="5px" x="68px" y="68px" /><rect fill="rgb(52,52,50)" height="5px" width="5px" x="72px" y="68px" /><rect fill="rgb(47,47,46)" height="5px" width="5px" x="76px" y="68px" /><rect fill="rgb(47,47,46)" height="5px" width="5px" x="80px" y="68px" /><rect fill="rgb(44,44,44)" height="5px" width="5px" x="84px" y="68px" /><rect fill="rgb(50,50,48)" height="5px" width="5px" x="88px" y="68px" /><rect fill="rgb(54,54,52)" height="5px" width="5px" x="92px" y="68px" /><rect fill="rgb(47,47,46)" height="5px" width="5px" x="96px" y="68px" /><rect fill="rgb(51,51,50)" height="5px" width="5px" x="100px" y="68px" /><rect fill="rgb(47,47,46)" height="5px" width="5px" x="104px" y="68px" /><rect fill="rgb(68,68,64)" height="5px" opacity="0.486274509804" width="5px" x="108px" y="68px" /><rect fill="rgb(71,71,65)" height="5px" opacity="0.294117647059" width="5px" x="20px" y="72px" /><rect fill="rgb(64,64,64)" height="5px" opacity="0.0470588235294" width="5px" x="24px" y="72px" /><rect fill="rgb(50,50,48)" height="5px" opacity="0.98431372549" width="5px" x="28px" y="72px" /><rect fill="rgb(42,42,42)" height="5px" width="5px" x="32px" y="72px" /><rect fill="rgb(46,46,46)" height="5px" width="5px" x="36px" y="72px" /><rect fill="rgb(70,70,65)" height="5px" width="5px" x="40px" y="72px" /><rect fill="rgb(53,53,50)" height="5px" width="5px" x="44px" y="72px" /><rect fill="rgb(52,47,43)" height="5px" width="5px" x="48px" y="72px" /><rect fill="rgb(63,59,53)" height="5px" width="5px" x="52px" y="72px" /><rect fill="rgb(58,58,55)" height="5px" width="5px" x="56px" y="72px" /><rect fill="rgb(54,54,52)" height="5px" width="5px" x="60px" y="72px" /><rect fill="rgb(57,57,54)" height="5px" width="5px" x="64px" y="72px" /><rect fill="rgb(57,57,54)" height="5px" width="5px" x="68px" y="72px" /><rect fill="rgb(49,49,47)" height="5px" width="5px" x="72px" y="72px" /><rect fill="rgb(51,51,50)" height="5px" width="5px" x="76px" y="72px" /><rect fill="rgb(49,49,48)" height="5px" width="5px" x="80px" y="72px" /><rect fill="rgb(50,50,48)" height="5px" width="5px" x="84px" y="72px" /><rect fill="rgb(52,52,50)" height="5px" width="5px" x="88px" y="72px" /><rect fill="rgb(47,47,46)" height="5px" width="5px" x="92px" y="72px" /><rect fill="rgb(49,49,47)" height="5px" width="5px" x="96px" y="72px" /><rect fill="rgb(50,50,48)" height="5px" width="5px" x="100px" y="72px" /><rect fill="rgb(50,50,48)" height="5px" width="5px" x="104px" y="72px" /><rect fill="rgb(55,55,53)" height="5px" opacity="0.956862745098" width="5px" x="108px" y="72px" /><rect fill="rgb(57,57,54)" height="5px" opacity="0.925490196078" width="5px" x="20px" y="76px" /><rect fill="rgb(50,50,48)" height="5px" opacity="0.98431372549" width="5px" x="24px" y="76px" /><rect fill="rgb(42,42,42)" height="5px" width="5px" x="28px" y="76px" /><rect fill="rgb(134,92,8)" height="5px" width="5px" x="32px" y="76px" /><rect fill="rgb(125,84,4)" height="5px" width="5px" x="36px" y="76px" /><rect fill="rgb(120,80,1)" height="5px" width="5px" x="40px" y="76px" /><rect fill="rgb(123,81,1)" height="5px" width="5px" x="44px" y="76px" /><rect fill="rgb(127,85,1)" height="5px" width="5px" x="48px" y="76px" /><rect fill="rgb(137,92,2)" height="5px" width="5px" x="52px" y="76px" /><rect fill="rgb(131,88,2)" height="5px" width="5px" x="56px" y="76px" /><rect fill="rgb(132,89,3)" height="5px" width="5px" x="60px" y="76px" /><rect fill="rgb(139,93,1)" height="5px" width="5px" x="64px" y="76px" /><rect fill="rgb(130,88,2)" height="5px" width="5px" x="68px" y="76px" /><rect fill="rgb(130,88,2)" height="5px" width="5px" x="72px" y="76px" /><rect fill="rgb(131,88,3)" height="5px" width="5px" x="76px" y="76px" /><rect fill="rgb(119,80,1)" height="5px" width="5px" x="80px" y="76px" /><rect fill="rgb(127,84,1)" height="5px" width="5px" x="84px" y="76px" /><rect fill="rgb(123,82,1)" height="5px" width="5px" x="88px" y="76px" /><rect fill="rgb(119,79,1)" height="5px" width="5px" x="92px" y="76px" /><rect fill="rgb(51,51,50)" height="5px" width="5px" x="96px" y="76px" /><rect fill="rgb(50,50,48)" height="5px" width="5px" x="100px" y="76px" /><rect fill="rgb(44,44,44)" height="5px" width="5px" x="104px" y="76px" /><rect fill="rgb(50,50,48)" height="5px" width="5px" x="108px" y="76px" /><rect fill="rgb(69,69,64)" height="5px" opacity="0.435294117647" width="5px" x="112px" y="76px" /><rect fill="rgb(64,64,64)" height="5px" opacity="0.0627450980392" width="5px" x="16px" y="80px" /><rect fill="rgb(49,47,44)" height="5px" width="5px" x="20px" y="80px" /><rect fill="rgb(46,44,42)" height="5px" width="5px" x="24px" y="80px" /><rect fill="rgb(57,51,45)" height="5px" width="5px" x="28px" y="80px" /><rect fill="rgb(109,74,2)" height="5px" width="5px" x="32px" y="80px" /><rect fill="rgb(109,74,2)" height="5px" width="5px" x="36px" y="80px" /><rect fill="rgb(123,82,2)" height="5px" width="5px" x="40px" y="80px" /><rect fill="rgb(124,82,1)" height="5px" width="5px" x="44px" y="80px" /><rect fill="rgb(136,90,1)" height="5px" width="5px" x="48px" y="80px" /><rect fill="rgb(138,92,0)" height="5px" width="5px" x="52px" y="80px" /><rect fill="rgb(129,86,0)" height="5px" width="5px" x="56px" y="80px" /><rect fill="rgb(121,81,0)" height="5px" width="5px" x="60px" y="80px" /><rect fill="rgb(128,86,0)" height="5px" width="5px" x="64px" y="80px" /><rect fill="rgb(129,86,0)" height="5px" width="5px" x="68px" y="80px" /><rect fill="rgb(129,86,0)" height="5px" width="5px" x="72px" y="80px" /><rect fill="rgb(129,86,0)" height="5px" width="5px" x="76px" y="80px" /><rect fill="rgb(115,77,0)" height="5px" width="5px" x="80px" y="80px" /><rect fill="rgb(124,82,1)" height="5px" width="5px" x="84px" y="80px" /><rect fill="rgb(128,84,1)" height="5px" width="5px" x="88px" y="80px" /><rect fill="rgb(123,84,2)" height="5px" width="5px" x="92px" y="80px" /><rect fill="rgb(42,42,42)" height="5px" width="5px" x="96px" y="80px" /><rect fill="rgb(47,47,46)" height="5px" width="5px" x="100px" y="80px" /><rect fill="rgb(47,47,46)" height="5px" width="5px" x="104px" y="80px" /><rect fill="rgb(42,42,42)" height="5px" width="5px" x="108px" y="80px" /><rect fill="rgb(67,67,62)" height="5px" opacity="0.870588235294" width="5px" x="112px" y="80px" /><rect fill="rgb(67,67,63)" height="5px" opacity="0.474509803922" width="5px" x="16px" y="84px" /><rect fill="rgb(43,42,42)" height="5px" width="5px" x="20px" y="84px" /><rect fill="rgb(43,42,42)" height="5px" width="5px" x="24px" y="84px" /><rect fill="rgb(50,48,46)" height="5px" width="5px" x="28px" y="84px" /><rect fill="rgb(67,56,44)" height="5px" width="5px" x="32px" y="84px" /><rect fill="rgb(105,70,1)" height="5px" width="5px" x="36px" y="84px" /><rect fill="rgb(111,76,1)" height="5px" width="5px" x="40px" y="84px" /><rect fill="rgb(42,38,31)" height="5px" width="5px" x="44px" y="84px" /><rect fill="rgb(33,26,6)" height="5px" width="5px" x="48px" y="84px" /><rect fill="rgb(20,20,6)" height="5px" width="5px" x="52px" y="84px" /><rect fill="rgb(23,23,12)" height="5px" width="5px" x="56px" y="84px" /><rect fill="rgb(25,25,14)" height="5px" width="5px" x="60px" y="84px" /><rect fill="rgb(24,24,13)" height="5px" width="5px" x="64px" y="84px" /><rect fill="rgb(26,22,6)" height="5px" width="5px" x="68px" y="84px" /><rect fill="rgb(31,29,22)" height="5px" width="5px" x="72px" y="84px" /><rect fill="rgb(47,41,35)" height="5px" width="5px" x="76px" y="84px" /><rect fill="rgb(128,85,0)" height="5px" width="5px" x="80px" y="84px" /><rect fill="rgb(114,75,1)" height="5px" width="5px" x="84px" y="84px" /><rect fill="rgb(66,55,44)" height="5px" width="5px" x="88px" y="84px" /><rect fill="rgb(54,52,48)" height="5px" width="5px" x="92px" y="84px" /><rect fill="rgb(47,47,46)" height="5px" width="5px" x="96px" y="84px" /><rect fill="rgb(42,42,42)" height="5px" width="5px" x="100px" y="84px" /><rect fill="rgb(52,52,50)" height="5px" width="5px" x="104px" y="84px" /><rect fill="rgb(42,42,42)" height="5px" width="5px" x="108px" y="84px" /><rect fill="rgb(46,46,45)" height="5px" opacity="0.996078431373" width="5px" x="112px" y="84px" /><rect fill="rgb(67,67,67)" height="5px" opacity="0.0901960784314" width="5px" x="116px" y="84px" /><rect fill="rgb(62,62,59)" height="5px" opacity="0.792156862745" width="5px" x="16px" y="88px" /><rect fill="rgb(42,42,42)" height="5px" width="5px" x="20px" y="88px" /><rect fill="rgb(42,42,42)" height="5px" width="5px" x="24px" y="88px" /><rect fill="rgb(52,52,50)" height="5px" width="5px" x="28px" y="88px" /><rect fill="rgb(42,42,42)" height="5px" width="5px" x="32px" y="88px" /><rect fill="rgb(100,66,0)" height="5px" width="5px" x="36px" y="88px" /><rect fill="rgb(106,71,1)" height="5px" width="5px" x="40px" y="88px" /><rect fill="rgb(18,18,4)" height="5px" width="5px" x="44px" y="88px" /><rect fill="rgb(24,24,14)" height="5px" width="5px" x="48px" y="88px" /><rect fill="rgb(25,25,14)" height="5px" width="5px" x="52px" y="88px" /><rect fill="rgb(28,28,18)" height="5px" width="5px" x="56px" y="88px" /><rect fill="rgb(34,34,25)" height="5px" width="5px" x="60px" y="88px" /><rect fill="rgb(30,30,20)" height="5px" width="5px" x="64px" y="88px" /><rect fill="rgb(25,25,14)" height="5px" width="5px" x="68px" y="88px" /><rect fill="rgb(26,26,16)" height="5px" width="5px" x="72px" y="88px" /><rect fill="rgb(21,21,8)" height="5px" width="5px" x="76px" y="88px" /><rect fill="rgb(115,77,1)" height="5px" width="5px" x="80px" y="88px" /><rect fill="rgb(115,77,1)" height="5px" width="5px" x="84px" y="88px" /><rect fill="rgb(44,43,42)" height="5px" width="5px" x="88px" y="88px" /><rect fill="rgb(45,44,44)" height="5px" width="5px" x="92px" y="88px" /><rect fill="rgb(47,47,46)" height="5px" width="5px" x="96px" y="88px" /><rect fill="rgb(52,52,50)" height="5px" width="5px" x="100px" y="88px" /><rect fill="rgb(51,51,50)" height="5px" width="5px" x="104px" y="88px" /><rect fill="rgb(47,47,46)" height="5px" width="5px" x="108px" y="88px" /><rect fill="rgb(42,42,42)" height="5px" width="5px" x="112px" y="88px" /><rect fill="rgb(65,65,62)" height="5px" opacity="0.596078431373" width="5px" x="116px" y="88px" /><rect fill="rgb(53,53,51)" height="5px" opacity="0.964705882353" width="5px" x="16px" y="92px" /><rect fill="rgb(42,42,42)" height="5px" width="5px" x="20px" y="92px" /><rect fill="rgb(52,52,50)" height="5px" width="5px" x="24px" y="92px" /><rect fill="rgb(42,42,42)" height="5px" width="5px" x="28px" y="92px" /><rect fill="rgb(42,42,42)" height="5px" width="5px" x="32px" y="92px" /><rect fill="rgb(103,68,1)" height="5px" width="5px" x="36px" y="92px" /><rect fill="rgb(116,79,3)" height="5px" width="5px" x="40px" y="92px" /><rect fill="rgb(18,18,4)" height="5px" width="5px" x="44px" y="92px" /><rect fill="rgb(26,26,16)" height="5px" width="5px" x="48px" y="92px" /><rect fill="rgb(24,24,15)" height="5px" width="5px" x="52px" y="92px" /><rect fill="rgb(20,20,6)" height="5px" width="5px" x="56px" y="92px" /><rect fill="rgb(32,32,22)" height="5px" width="5px" x="60px" y="92px" /><rect fill="rgb(24,24,13)" height="5px" width="5px" x="64px" y="92px" /><rect fill="rgb(18,18,4)" height="5px" width="5px" x="68px" y="92px" /><rect fill="rgb(27,27,16)" height="5px" width="5px" x="72px" y="92px" /><rect fill="rgb(23,21,5)" height="5px" width="5px" x="76px" y="92px" /><rect fill="rgb(104,70,1)" height="5px" width="5px" x="80px" y="92px" /><rect fill="rgb(106,72,11)" height="5px" width="5px" x="84px" y="92px" /><rect fill="rgb(47,46,45)" height="5px" width="5px" x="88px" y="92px" /><rect fill="rgb(44,44,44)" height="5px" width="5px" x="92px" y="92px" /><rect fill="rgb(44,44,43)" height="5px" width="5px" x="96px" y="92px" /><rect fill="rgb(42,42,42)" height="5px" width="5px" x="100px" y="92px" /><rect fill="rgb(49,49,48)" height="5px" width="5px" x="104px" y="92px" /><rect fill="rgb(50,50,48)" height="5px" width="5px" x="108px" y="92px" /><rect fill="rgb(42,42,42)" height="5px" width="5px" x="112px" y="92px" /><rect fill="rgb(56,56,54)" height="5px" opacity="0.933333333333" width="5px" x="116px" y="92px" /><rect fill="rgb(70,70,64)" height="5px" opacity="0.172549019608" width="5px" x="12px" y="96px" /><rect fill="rgb(42,42,42)" height="5px" width="5px" x="16px" y="96px" /><rect fill="rgb(53,53,50)" height="5px" width="5px" x="20px" y="96px" /><rect fill="rgb(60,60,57)" height="5px" width="5px" x="24px" y="96px" /><rect fill="rgb(51,51,50)" height="5px" width="5px" x="28px" y="96px" /><rect fill="rgb(47,47,46)" height="5px" width="5px" x="32px" y="96px" /><rect fill="rgb(107,71,2)" height="5px" width="5px" x="36px" y="96px" /><rect fill="rgb(115,77,3)" height="5px" width="5px" x="40px" y="96px" /><rect fill="rgb(23,23,13)" height="5px" width="5px" x="44px" y="96px" /><rect fill="rgb(34,34,27)" height="5px" width="5px" x="48px" y="96px" /><rect fill="rgb(32,32,25)" height="5px" width="5px" x="52px" y="96px" /><rect fill="rgb(33,33,25)" height="5px" width="5px" x="56px" y="96px" /><rect fill="rgb(27,27,16)" height="5px" width="5px" x="60px" y="96px" /><rect fill="rgb(22,22,10)" height="5px" width="5px" x="64px" y="96px" /><rect fill="rgb(22,22,10)" height="5px" width="5px" x="68px" y="96px" /><rect fill="rgb(25,25,14)" height="5px" width="5px" x="72px" y="96px" /><rect fill="rgb(19,19,5)" height="5px" width="5px" x="76px" y="96px" /><rect fill="rgb(103,69,1)" height="5px" width="5px" x="80px" y="96px" /><rect fill="rgb(105,70,1)" height="5px" width="5px" x="84px" y="96px" /><rect fill="rgb(55,55,52)" height="5px" width="5px" x="88px" y="96px" /><rect fill="rgb(53,53,50)" height="5px" width="5px" x="92px" y="96px" /><rect fill="rgb(50,50,48)" height="5px" width="5px" x="96px" y="96px" /><rect fill="rgb(42,42,42)" height="5px" width="5px" x="100px" y="96px" /><rect fill="rgb(42,42,42)" height="5px" width="5px" x="104px" y="96px" /><rect fill="rgb(50,50,48)" height="5px" width="5px" x="108px" y="96px" /><rect fill="rgb(44,44,44)" height="5px" width="5px" x="112px" y="96px" /><rect fill="rgb(42,42,42)" height="5px" width="5px" x="116px" y="96px" /><rect fill="rgb(69,69,65)" height="5px" opacity="0.247058823529" width="5px" x="120px" y="96px" /><rect fill="rgb(66,66,62)" height="5px" opacity="0.592156862745" width="5px" x="12px" y="100px" /><rect fill="rgb(44,44,43)" height="5px" width="5px" x="16px" y="100px" /><rect fill="rgb(52,52,50)" height="5px" width="5px" x="20px" y="100px" /><rect fill="rgb(49,49,48)" height="5px" width="5px" x="24px" y="100px" /><rect fill="rgb(48,48,47)" height="5px" width="5px" x="28px" y="100px" /><rect fill="rgb(47,47,46)" height="5px" width="5px" x="32px" y="100px" /><rect fill="rgb(108,73,2)" height="5px" width="5px" x="36px" y="100px" /><rect fill="rgb(108,74,2)" height="5px" width="5px" x="40px" y="100px" /><rect fill="rgb(23,23,15)" height="5px" width="5px" x="44px" y="100px" /><rect fill="rgb(26,26,17)" height="5px" width="5px" x="48px" y="100px" /><rect fill="rgb(22,22,10)" height="5px" width="5px" x="52px" y="100px" /><rect fill="rgb(26,26,15)" height="5px" width="5px" x="56px" y="100px" /><rect fill="rgb(23,23,12)" height="5px" width="5px" x="60px" y="100px" /><rect fill="rgb(23,23,12)" height="5px" width="5px" x="64px" y="100px" /><rect fill="rgb(32,32,23)" height="5px" width="5px" x="68px" y="100px" /><rect fill="rgb(23,23,11)" height="5px" width="5px" x="72px" y="100px" /><rect fill="rgb(20,20,7)" height="5px" width="5px" x="76px" y="100px" /><rect fill="rgb(106,71,4)" height="5px" width="5px" x="80px" y="100px" /><rect fill="rgb(101,67,4)" height="5px" width="5px" x="84px" y="100px" /><rect fill="rgb(44,44,41)" height="5px" width="5px" x="88px" y="100px" /><rect fill="rgb(50,50,48)" height="5px" width="5px" x="92px" y="100px" /><rect fill="rgb(50,50,48)" height="5px" width="5px" x="96px" y="100px" /><rect fill="rgb(42,42,42)" height="5px" width="5px" x="100px" y="100px" /><rect fill="rgb(42,42,42)" height="5px" width="5px" x="104px" y="100px" /><rect fill="rgb(51,51,50)" height="5px" width="5px" x="108px" y="100px" /><rect fill="rgb(51,51,50)" height="5px" width="5px" x="112px" y="100px" /><rect fill="rgb(42,42,42)" height="5px" width="5px" x="116px" y="100px" /><rect fill="rgb(64,64,60)" height="5px" opacity="0.745098039216" width="5px" x="120px" y="100px" /><rect fill="rgb(60,60,57)" height="5px" opacity="0.862745098039" width="5px" x="12px" y="104px" /><rect fill="rgb(42,42,42)" height="5px" width="5px" x="16px" y="104px" /><rect fill="rgb(42,42,42)" height="5px" width="5px" x="20px" y="104px" /><rect fill="rgb(46,46,44)" height="5px" width="5px" x="24px" y="104px" /><rect fill="rgb(48,48,47)" height="5px" width="5px" x="28px" y="104px" /><rect fill="rgb(45,45,44)" height="5px" width="5px" x="32px" y="104px" /><rect fill="rgb(109,73,2)" height="5px" width="5px" x="36px" y="104px" /><rect fill="rgb(106,71,2)" height="5px" width="5px" x="40px" y="104px" /><rect fill="rgb(18,18,4)" height="5px" width="5px" x="44px" y="104px" /><rect fill="rgb(24,24,15)" height="5px" width="5px" x="48px" y="104px" /><rect fill="rgb(20,20,6)" height="5px" width="5px" x="52px" y="104px" /><rect fill="rgb(25,25,14)" height="5px" width="5px" x="56px" y="104px" /><rect fill="rgb(22,22,10)" height="5px" width="5px" x="60px" y="104px" /><rect fill="rgb(22,22,10)" height="5px" width="5px" x="64px" y="104px" /><rect fill="rgb(29,29,19)" height="5px" width="5px" x="68px" y="104px" /><rect fill="rgb(26,26,15)" height="5px" width="5px" x="72px" y="104px" /><rect fill="rgb(27,27,17)" height="5px" width="5px" x="76px" y="104px" /><rect fill="rgb(104,69,5)" height="5px" width="5px" x="80px" y="104px" /><rect fill="rgb(101,67,4)" height="5px" width="5px" x="84px" y="104px" /><rect fill="rgb(43,43,43)" height="5px" width="5px" x="88px" y="104px" /><rect fill="rgb(42,42,42)" height="5px" width="5px" x="92px" y="104px" /><rect fill="rgb(43,43,43)" height="5px" width="5px" x="96px" y="104px" /><rect fill="rgb(48,48,46)" height="5px" width="5px" x="100px" y="104px" /><rect fill="rgb(42,42,42)" height="5px" width="5px" x="104px" y="104px" /><rect fill="rgb(47,47,46)" height="5px" width="5px" x="108px" y="104px" /><rect fill="rgb(47,47,46)" height="5px" width="5px" x="112px" y="104px" /><rect fill="rgb(44,44,43)" height="5px" width="5px" x="116px" y="104px" /><rect fill="rgb(53,53,50)" height="5px" opacity="0.98431372549" width="5px" x="120px" y="104px" /><rect fill="rgb(128,128,128)" height="5px" opacity="0.0078431372549" width="5px" x="124px" y="104px" /><rect fill="rgb(34,34,34)" height="5px" opacity="0.0588235294118" width="5px" x="4px" y="108px" /><rect fill="rgb(43,43,43)" height="5px" opacity="0.870588235294" width="5px" x="8px" y="108px" /><rect fill="rgb(42,42,42)" height="5px" width="5px" x="12px" y="108px" /><rect fill="rgb(42,42,42)" height="5px" width="5px" x="16px" y="108px" /><rect fill="rgb(47,47,46)" height="5px" width="5px" x="20px" y="108px" /><rect fill="rgb(57,57,54)" height="5px" width="5px" x="24px" y="108px" /><rect fill="rgb(48,48,47)" height="5px" width="5px" x="28px" y="108px" /><rect fill="rgb(47,46,44)" height="5px" width="5px" x="32px" y="108px" /><rect fill="rgb(103,69,1)" height="5px" width="5px" x="36px" y="108px" /><rect fill="rgb(107,71,2)" height="5px" width="5px" x="40px" y="108px" /><rect fill="rgb(18,18,4)" height="5px" width="5px" x="44px" y="108px" /><rect fill="rgb(22,22,12)" height="5px" width="5px" x="48px" y="108px" /><rect fill="rgb(26,26,16)" height="5px" width="5px" x="52px" y="108px" /><rect fill="rgb(20,20,6)" height="5px" width="5px" x="56px" y="108px" /><rect fill="rgb(22,22,10)" height="5px" width="5px" x="60px" y="108px" /><rect fill="rgb(22,22,10)" height="5px" width="5px" x="64px" y="108px" /><rect fill="rgb(25,25,14)" height="5px" width="5px" x="68px" y="108px" /><rect fill="rgb(32,32,22)" height="5px" width="5px" x="72px" y="108px" /><rect fill="rgb(26,26,15)" height="5px" width="5px" x="76px" y="108px" /><rect fill="rgb(107,72,9)" height="5px" width="5px" x="80px" y="108px" /><rect fill="rgb(98,66,6)" height="5px" width="5px" x="84px" y="108px" /><rect fill="rgb(45,45,44)" height="5px" width="5px" x="88px" y="108px" /><rect fill="rgb(47,47,46)" height="5px" width="5px" x="92px" y="108px" /><rect fill="rgb(50,50,48)" height="5px" opacity="0.937254901961" width="5px" x="96px" y="108px" /><rect fill="rgb(43,43,43)" height="5px" width="5px" x="100px" y="108px" /><rect fill="rgb(45,45,44)" height="5px" width="5px" x="104px" y="108px" /><rect fill="rgb(45,45,44)" height="5px" width="5px" x="108px" y="108px" /><rect fill="rgb(48,48,46)" height="5px" width="5px" x="112px" y="108px" /><rect fill="rgb(47,47,46)" height="5px" width="5px" x="116px" y="108px" /><rect fill="rgb(44,44,44)" height="5px" width="5px" x="120px" y="108px" /><rect fill="rgb(42,42,42)" height="5px" width="5px" x="124px" y="108px" /><rect fill="rgb(85,85,85)" height="5px" opacity="0.0470588235294" width="5px" x="0px" y="112px" /><rect fill="rgb(68,68,62)" height="5px" opacity="0.160784313725" width="5px" x="4px" y="112px" /><rect fill="rgb(48,48,47)" height="5px" opacity="0.894117647059" width="5px" x="8px" y="112px" /><rect fill="rgb(51,51,50)" height="5px" width="5px" x="12px" y="112px" /><rect fill="rgb(55,55,52)" height="5px" width="5px" x="16px" y="112px" /><rect fill="rgb(53,53,51)" height="5px" width="5px" x="20px" y="112px" /><rect fill="rgb(50,50,49)" height="5px" width="5px" x="24px" y="112px" /><rect fill="rgb(47,47,46)" height="5px" width="5px" x="28px" y="112px" /><rect fill="rgb(51,49,46)" height="5px" width="5px" x="32px" y="112px" /><rect fill="rgb(101,67,1)" height="5px" width="5px" x="36px" y="112px" /><rect fill="rgb(101,67,1)" height="5px" width="5px" x="40px" y="112px" /><rect fill="rgb(18,18,4)" height="5px" width="5px" x="44px" y="112px" /><rect fill="rgb(28,28,20)" height="5px" width="5px" x="48px" y="112px" /><rect fill="rgb(22,22,10)" height="5px" width="5px" x="52px" y="112px" /><rect fill="rgb(18,18,4)" height="5px" width="5px" x="56px" y="112px" /><rect fill="rgb(25,25,14)" height="5px" width="5px" x="60px" y="112px" /><rect fill="rgb(20,20,6)" height="5px" width="5px" x="64px" y="112px" /><rect fill="rgb(28,28,18)" height="5px" width="5px" x="68px" y="112px" /><rect fill="rgb(34,34,25)" height="5px" width="5px" x="72px" y="112px" /><rect fill="rgb(27,27,16)" height="5px" width="5px" x="76px" y="112px" /><rect fill="rgb(101,69,13)" height="5px" width="5px" x="80px" y="112px" /><rect fill="rgb(98,66,6)" height="5px" width="5px" x="84px" y="112px" /><rect fill="rgb(48,48,46)" height="5px" width="5px" x="88px" y="112px" /><rect fill="rgb(47,47,46)" height="5px" width="5px" x="92px" y="112px" /><rect fill="rgb(48,48,46)" height="5px" width="5px" x="96px" y="112px" /><rect fill="rgb(47,47,46)" height="5px" width="5px" x="100px" y="112px" /><rect fill="rgb(46,46,44)" height="5px" width="5px" x="104px" y="112px" /><rect fill="rgb(46,46,44)" height="5px" width="5px" x="108px" y="112px" /><rect fill="rgb(42,42,42)" height="5px" width="5px" x="112px" y="112px" /><rect fill="rgb(42,42,42)" height="5px" width="5px" x="116px" y="112px" /><rect fill="rgb(42,42,42)" height="5px" width="5px" x="120px" y="112px" /><rect fill="rgb(42,42,42)" height="5px" width="5px" x="124px" y="112px" /><rect fill="rgb(43,43,43)" height="5px" width="5px" x="0px" y="116px" /><rect fill="rgb(43,43,43)" height="5px" width="5px" x="4px" y="116px" /><rect fill="rgb(47,47,46)" height="5px" width="5px" x="8px" y="116px" /><rect fill="rgb(49,49,47)" height="5px" width="5px" x="12px" y="116px" /><rect fill="rgb(44,44,44)" height="5px" width="5px" x="16px" y="116px" /><rect fill="rgb(43,43,43)" height="5px" width="5px" x="20px" y="116px" /><rect fill="rgb(44,44,44)" height="5px" width="5px" x="24px" y="116px" /><rect fill="rgb(47,47,46)" height="5px" width="5px" x="28px" y="116px" /><rect fill="rgb(46,45,44)" height="5px" width="5px" x="32px" y="116px" /><rect fill="rgb(101,67,1)" height="5px" width="5px" x="36px" y="116px" /><rect fill="rgb(99,66,0)" height="5px" width="5px" x="40px" y="116px" /><rect fill="rgb(18,18,4)" height="5px" width="5px" x="44px" y="116px" /><rect fill="rgb(21,21,11)" height="5px" width="5px" x="48px" y="116px" /><rect fill="rgb(18,18,4)" height="5px" width="5px" x="52px" y="116px" /><rect fill="rgb(18,18,4)" height="5px" width="5px" x="56px" y="116px" /><rect fill="rgb(18,18,4)" height="5px" width="5px" x="60px" y="116px" /><rect fill="rgb(18,18,4)" height="5px" width="5px" x="64px" y="116px" /><rect fill="rgb(26,26,15)" height="5px" width="5px" x="68px" y="116px" /><rect fill="rgb(33,33,24)" height="5px" width="5px" x="72px" y="116px" /><rect fill="rgb(23,23,12)" height="5px" width="5px" x="76px" y="116px" /><rect fill="rgb(105,72,13)" height="5px" width="5px" x="80px" y="116px" /><rect fill="rgb(105,71,7)" height="5px" width="5px" x="84px" y="116px" /><rect fill="rgb(48,48,46)" height="5px" width="5px" x="88px" y="116px" /><rect fill="rgb(43,43,43)" height="5px" width="5px" x="92px" y="116px" /><rect fill="rgb(42,42,42)" height="5px" width="5px" x="96px" y="116px" /><rect fill="rgb(50,50,48)" height="5px" width="5px" x="100px" y="116px" /><rect fill="rgb(53,53,52)" height="5px" width="5px" x="104px" y="116px" /><rect fill="rgb(49,49,48)" height="5px" width="5px" x="108px" y="116px" /><rect fill="rgb(48,48,46)" height="5px" width="5px" x="112px" y="116px" /><rect fill="rgb(48,48,46)" height="5px" width="5px" x="116px" y="116px" /><rect fill="rgb(50,50,48)" height="5px" width="5px" x="120px" y="116px" /><rect fill="rgb(45,45,44)" height="5px" width="5px" x="124px" y="116px" /><rect fill="rgb(42,42,42)" height="5px" opacity="0.56862745098" width="5px" x="0px" y="120px" /><rect fill="rgb(42,42,42)" height="5px" width="5px" x="4px" y="120px" /><rect fill="rgb(42,42,42)" height="5px" width="5px" x="8px" y="120px" /><rect fill="rgb(42,42,42)" height="5px" width="5px" x="12px" y="120px" /><rect fill="rgb(42,42,42)" height="5px" width="5px" x="16px" y="120px" /><rect fill="rgb(42,42,42)" height="5px" width="5px" x="20px" y="120px" /><rect fill="rgb(43,43,43)" height="5px" width="5px" x="24px" y="120px" /><rect fill="rgb(46,46,45)" height="5px" width="5px" x="28px" y="120px" /><rect fill="rgb(46,45,44)" height="5px" width="5px" x="32px" y="120px" /><rect fill="rgb(101,67,1)" height="5px" width="5px" x="36px" y="120px" /><rect fill="rgb(99,66,0)" height="5px" width="5px" x="40px" y="120px" /><rect fill="rgb(18,18,4)" height="5px" width="5px" x="44px" y="120px" /><rect fill="rgb(18,18,4)" height="5px" width="5px" x="48px" y="120px" /><rect fill="rgb(18,18,4)" height="5px" width="5px" x="52px" y="120px" /><rect fill="rgb(18,18,4)" height="5px" width="5px" x="56px" y="120px" /><rect fill="rgb(18,18,4)" height="5px" width="5px" x="60px" y="120px" /><rect fill="rgb(18,18,4)" height="5px" width="5px" x="64px" y="120px" /><rect fill="rgb(18,18,4)" height="5px" width="5px" x="68px" y="120px" /><rect fill="rgb(28,28,18)" height="5px" width="5px" x="72px" y="120px" /><rect fill="rgb(23,23,12)" height="5px" width="5px" x="76px" y="120px" /><rect fill="rgb(105,71,7)" height="5px" width="5px" x="80px" y="120px" /><rect fill="rgb(105,70,1)" height="5px" width="5px" x="84px" y="120px" /><rect fill="rgb(48,48,46)" height="5px" width="5px" x="88px" y="120px" /><rect fill="rgb(47,47,46)" height="5px" width="5px" x="92px" y="120px" /><rect fill="rgb(50,50,48)" height="5px" width="5px" x="96px" y="120px" /><rect fill="rgb(51,51,49)" height="5px" width="5px" x="100px" y="120px" /><rect fill="rgb(45,45,44)" height="5px" width="5px" x="104px" y="120px" /><rect fill="rgb(45,45,44)" height="5px" width="5px" x="108px" y="120px" /><rect fill="rgb(46,46,45)" height="5px" width="5px" x="112px" y="120px" /><rect fill="rgb(46,46,45)" height="5px" width="5px" x="116px" y="120px" /><rect fill="rgb(42,42,42)" height="5px" width="5px" x="120px" y="120px" /><rect fill="rgb(42,42,42)" height="5px" width="5px" x="124px" y="120px" /><rect fill="rgb(140,102,13)" height="5px" opacity="0.078431372549" width="5px" x="80px" y="124px" /><rect fill="rgb(153,102,0)" height="5px" opacity="0.0196078431373" width="5px" x="84px" y="124px" /><rect fill="rgb(64,64,64)" height="5px" opacity="0.0156862745098" width="5px" x="92px" y="124px" /><rect fill="rgb(85,85,85)" height="5px" opacity="0.0352941176471" width="5px" x="96px" y="124px" /><rect fill="rgb(98,98,78)" height="5px" opacity="0.0509803921569" width="5px" x="100px" y="124px" /><rect fill="rgb(85,85,85)" height="5px" opacity="0.0352941176471" width="5px" x="104px" y="124px" /><rect fill="rgb(85,85,85)" height="5px" opacity="0.0352941176471" width="5px" x="108px" y="124px" /><rect fill="rgb(85,85,85)" height="5px" opacity="0.0352941176471" width="5px" x="112px" y="124px" /><rect fill="rgb(85,85,85)" height="5px" opacity="0.0117647058824" width="5px" x="116px" y="124px" /></svg>