<?xml version="1.0" encoding="utf-8" ?>
<svg baseProfile="full" height="128px" version="1.1" width="128px" xmlns="http://www.w3.org/2000/svg" xmlns:ev="http://www.w3.org/2001/xml-events" xmlns:xlink="http://www.w3.org/1999/xlink"><defs /><rect fill="rgb(43,43,40)" height="5px" width="5px" x="44px" y="0px" /><rect fill="rgb(64,64,60)" height="5px" width="5px" x="48px" y="0px" /><rect fill="rgb(62,62,58)" height="5px" width="5px" x="52px" y="0px" /><rect fill="rgb(59,59,55)" height="5px" width="5px" x="56px" y="0px" /><rect fill="rgb(64,64,60)" height="5px" width="5px" x="60px" y="0px" /><rect fill="rgb(64,64,60)" height="5px" width="5px" x="64px" y="0px" /><rect fill="rgb(64,64,60)" height="5px" width="5px" x="68px" y="0px" /><rect fill="rgb(43,43,40)" height="5px" width="5px" x="72px" y="0px" /><rect fill="rgb(43,43,40)" height="5px" width="5px" x="44px" y="4px" /><rect fill="rgb(62,62,58)" height="5px" width="5px" x="48px" y="4px" /><rect fill="rgb(58,58,54)" height="5px" width="5px" x="52px" y="4px" /><rect fill="rgb(61,61,56)" height="5px" width="5px" x="56px" y="4px" /><rect fill="rgb(67,67,61)" height="5px" width="5px" x="60px" y="4px" /><rect fill="rgb(65,65,61)" height="5px" width="5px" x="64px" y="4px" /><rect fill="rgb(64,64,60)" height="5px" width="5px" x="68px" y="4px" /><rect fill="rgb(43,43,40)" height="5px" width="5px" x="72px" y="4px" /><rect fill="rgb(43,43,40)" height="5px" width="5px" x="44px" y="8px" /><rect fill="rgb(64,64,60)" height="5px" width="5px" x="48px" y="8px" /><rect fill="rgb(60,60,56)" height="5px" width="5px" x="52px" y="8px" /><rect fill="rgb(63,63,59)" height="5px" width="5px" x="56px" y="8px" /><rect fill="rgb(63,63,57)" height="5px" width="5px" x="60px" y="8px" /><rect fill="rgb(67,67,63)" height="5px" width="5px" x="64px" y="8px" /><rect fill="rgb(64,64,60)" height="5px" width="5px" x="68px" y="8px" /><rect fill="rgb(43,43,40)" height="5px" width="5px" x="72px" y="8px" /><rect fill="rgb(43,43,40)" height="5px" width="5px" x="44px" y="12px" /><rect fill="rgb(64,64,60)" height="5px" width="5px" x="48px" y="12px" /><rect fill="rgb(60,60,56)" height="5px" width="5px" x="52px" y="12px" /><rect fill="rgb(63,63,58)" height="5px" width="5px" x="56px" y="12px" /><rect fill="rgb(61,61,57)" height="5px" width="5px" x="60px" y="12px" /><rect fill="rgb(65,65,61)" height="5px" width="5px" x="64px" y="12px" /><rect fill="rgb(66,66,61)" height="5px" width="5px" x="68px" y="12px" /><rect fill="rgb(43,43,40)" height="5px" width="5px" x="72px" y="12px" /><rect fill="rgb(43,43,40)" height="5px" width="5px" x="44px" y="16px" /><rect fill="rgb(64,64,60)" height="5px" width="5px" x="48px" y="16px" /><rect fill="rgb(64,64,60)" height="5px" width="5px" x="52px" y="16px" /><rect fill="rgb(59,59,55)" height="5px" width="5px" x="56px" y="16px" /><rect fill="rgb(64,64,59)" height="5px" width="5px" x="60px" y="16px" /><rect fill="rgb(64,64,60)" height="5px" width="5px" x="64px" y="16px" /><rect fill="rgb(66,66,61)" height="5px" width="5px" x="68px" y="16px" /><rect fill="rgb(43,43,40)" height="5px" width="5px" x="72px" y="16px" /><rect fill="rgb(43,43,40)" height="5px" width="5px" x="44px" y="20px" /><rect fill="rgb(59,59,55)" height="5px" width="5px" x="48px" y="20px" /><rect fill="rgb(56,56,52)" height="5px" width="5px" x="52px" y="20px" /><rect fill="rgb(58,58,53)" height="5px" width="5px" x="56px" y="20px" /><rect fill="rgb(66,66,61)" height="5px" width="5px" x="60px" y="20px" /><rect fill="rgb(56,56,52)" height="5px" width="5px" x="64px" y="20px" /><rect fill="rgb(57,57,53)" height="5px" width="5px" x="68px" y="20px" /><rect fill="rgb(43,43,40)" height="5px" width="5px" x="72px" y="20px" /><rect fill="rgb(43,43,40)" height="5px" width="5px" x="44px" y="24px" /><rect fill="rgb(59,59,55)" height="5px" width="5px" x="48px" y="24px" /><rect fill="rgb(63,63,59)" height="5px" width="5px" x="52px" y="24px" /><rect fill="rgb(67,67,62)" height="5px" width="5px" x="56px" y="24px" /><rect fill="rgb(65,65,61)" height="5px" width="5px" x="60px" y="24px" /><rect fill="rgb(63,63,59)" height="5px" width="5px" x="64px" y="24px" /><rect fill="rgb(63,63,59)" height="5px" width="5px" x="68px" y="24px" /><rect fill="rgb(43,43,40)" height="5px" width="5px" x="72px" y="24px" /><rect fill="rgb(43,43,40)" height="5px" width="5px" x="44px" y="28px" /><rect fill="rgb(60,60,56)" height="5px" width="5px" x="48px" y="28px" /><rect fill="rgb(61,61,57)" height="5px" width="5px" x="52px" y="28px" /><rect fill="rgb(60,60,55)" height="5px" width="5px" x="56px" y="28px" /><rect fill="rgb(59,59,55)" height="5px" width="5px" x="60px" y="28px" /><rect fill="rgb(57,57,53)" height="5px" width="5px" x="64px" y="28px" /><rect fill="rgb(63,63,59)" height="5px" width="5px" x="68px" y="28px" /><rect fill="rgb(43,43,40)" height="5px" width="5px" x="72px" y="28px" /><rect fill="rgb(43,43,40)" height="5px" width="5px" x="44px" y="32px" /><rect fill="rgb(58,58,55)" height="5px" width="5px" x="48px" y="32px" /><rect fill="rgb(61,61,57)" height="5px" width="5px" x="52px" y="32px" /><rect fill="rgb(62,62,58)" height="5px" width="5px" x="56px" y="32px" /><rect fill="rgb(63,63,59)" height="5px" width="5px" x="60px" y="32px" /><rect fill="rgb(66,66,61)" height="5px" width="5px" x="64px" y="32px" /><rect fill="rgb(64,64,60)" height="5px" width="5px" x="68px" y="32px" /><rect fill="rgb(43,43,40)" height="5px" width="5px" x="72px" y="32px" /><rect fill="rgb(43,43,40)" height="5px" width="5px" x="44px" y="36px" /><rect fill="rgb(57,57,53)" height="5px" width="5px" x="48px" y="36px" /><rect fill="rgb(64,64,60)" height="5px" width="5px" x="52px" y="36px" /><rect fill="rgb(62,62,58)" height="5px" width="5px" x="56px" y="36px" /><rect fill="rgb(63,63,58)" height="5px" width="5px" x="60px" y="36px" /><rect fill="rgb(63,63,59)" height="5px" width="5px" x="64px" y="36px" /><rect fill="rgb(60,60,56)" height="5px" width="5px" x="68px" y="36px" /><rect fill="rgb(43,43,40)" height="5px" width="5px" x="72px" y="36px" /><rect fill="rgb(43,43,40)" height="5px" width="5px" x="44px" y="40px" /><rect fill="rgb(64,64,60)" height="5px" width="5px" x="48px" y="40px" /><rect fill="rgb(65,65,61)" height="5px" width="5px" x="52px" y="40px" /><rect fill="rgb(63,63,59)" height="5px" width="5px" x="56px" y="40px" /><rect fill="rgb(64,64,60)" height="5px" width="5px" x="60px" y="40px" /><rect fill="rgb(63,63,59)" height="5px" width="5px" x="64px" y="40px" /><rect fill="rgb(60,60,56)" height="5px" width="5px" x="68px" y="40px" /><rect fill="rgb(43,43,40)" height="5px" width="5px" x="72px" y="40px" /><rect fill="rgb(43,43,40)" height="5px" width="5px" x="0px" y="44px" /><rect fill="rgb(43,43,40)" height="5px" width="5px" x="4px" y="44px" /><rect fill="rgb(43,43,40)" height="5px" width="5px" x="8px" y="44px" /><rect fill="rgb(43,43,40)" height="5px" width="5px" x="12px" y="44px" /><rect fill="rgb(43,43,40)" height="5px" width="5px" x="16px" y="44px" /><rect fill="rgb(43,43,40)" height="5px" width="5px" x="20px" y="44px" /><rect fill="rgb(43,43,40)" height="5px" width="5px" x="24px" y="44px" /><rect fill="rgb(43,43,40)" height="5px" width="5px" x="28px" y="44px" /><rect fill="rgb(44,44,41)" height="5px" width="5px" x="32px" y="44px" /><rect fill="rgb(43,43,40)" height="5px" width="5px" x="36px" y="44px" /><rect fill="rgb(43,43,40)" height="5px" width="5px" x="40px" y="44px" /><rect fill="rgb(44,44,41)" height="5px" width="5px" x="44px" y="44px" /><rect fill="rgb(66,66,62)" height="5px" width="5px" x="48px" y="44px" /><rect fill="rgb(65,65,61)" height="5px" width="5px" x="52px" y="44px" /><rect fill="rgb(63,63,58)" height="5px" width="5px" x="56px" y="44px" /><rect fill="rgb(64,64,60)" height="5px" width="5px" x="60px" y="44px" /><rect fill="rgb(64,64,60)" height="5px" width="5px" x="64px" y="44px" /><rect fill="rgb(65,65,61)" height="5px" width="5px" x="68px" y="44px" /><rect fill="rgb(43,43,40)" height="5px" width="5px" x="72px" y="44px" /><rect fill="rgb(43,43,40)" height="5px" width="5px" x="76px" y="44px" /><rect fill="rgb(43,43,40)" height="5px" width="5px" x="80px" y="44px" /><rect fill="rgb(43,43,40)" height="5px" width="5px" x="84px" y="44px" /><rect fill="rgb(43,43,40)" height="5px" width="5px" x="88px" y="44px" /><rect fill="rgb(43,43,40)" height="5px" width="5px" x="92px" y="44px" /><rect fill="rgb(43,43,40)" height="5px" width="5px" x="96px" y="44px" /><rect fill="rgb(43,43,40)" height="5px" width="5px" x="100px" y="44px" /><rect fill="rgb(43,43,40)" height="5px" width="5px" x="104px" y="44px" /><rect fill="rgb(43,43,40)" height="5px" width="5px" x="108px" y="44px" /><rect fill="rgb(43,43,40)" height="5px" width="5px" x="112px" y="44px" /><rect fill="rgb(43,43,40)" height="5px" width="5px" x="116px" y="44px" /><rect fill="rgb(43,43,40)" height="5px" width="5px" x="120px" y="44px" /><rect fill="rgb(43,43,40)" height="5px" width="5px" x="124px" y="44px" /><rect fill="rgb(58,58,55)" height="5px" width="5px" x="0px" y="48px" /><rect fill="rgb(60,60,56)" height="5px" width="5px" x="4px" y="48px" /><rect fill="rgb(56,56,52)" height="5px" width="5px" x="8px" y="48px" /><rect fill="rgb(58,58,55)" height="5px" width="5px" x="12px" y="48px" /><rect fill="rgb(63,63,59)" height="5px" width="5px" x="16px" y="48px" /><rect fill="rgb(64,64,60)" height="5px" width="5px" x="20px" y="48px" /><rect fill="rgb(60,60,56)" height="5px" width="5px" x="24px" y="48px" /><rect fill="rgb(56,56,52)" height="5px" width="5px" x="28px" y="48px" /><rect fill="rgb(65,65,61)" height="5px" width="5px" x="32px" y="48px" /><rect fill="rgb(64,64,60)" height="5px" width="5px" x="36px" y="48px" /><rect fill="rgb(67,67,62)" height="5px" width="5px" x="40px" y="48px" /><rect fill="rgb(65,65,61)" height="5px" width="5px" x="44px" y="48px" /><rect fill="rgb(66,66,62)" height="5px" width="5px" x="48px" y="48px" /><rect fill="rgb(65,65,60)" height="5px" width="5px" x="52px" y="48px" /><rect fill="rgb(65,65,60)" height="5px" width="5px" x="56px" y="48px" /><rect fill="rgb(66,66,62)" height="5px" width="5px" x="60px" y="48px" /><rect fill="rgb(64,64,60)" height="5px" width="5px" x="64px" y="48px" /><rect fill="rgb(65,65,61)" height="5px" width="5px" x="68px" y="48px" /><rect fill="rgb(59,59,55)" height="5px" width="5px" x="72px" y="48px" /><rect fill="rgb(62,62,58)" height="5px" width="5px" x="76px" y="48px" /><rect fill="rgb(64,64,60)" height="5px" width="5px" x="80px" y="48px" /><rect fill="rgb(64,64,60)" height="5px" width="5px" x="84px" y="48px" /><rect fill="rgb(62,62,58)" height="5px" width="5px" x="88px" y="48px" /><rect fill="rgb(62,62,58)" height="5px" width="5px" x="92px" y="48px" /><rect fill="rgb(64,64,60)" height="5px" width="5px" x="96px" y="48px" /><rect fill="rgb(64,64,60)" height="5px" width="5px" x="100px" y="48px" /><rect fill="rgb(64,64,60)" height="5px" width="5px" x="104px" y="48px" /><rect fill="rgb(64,64,60)" height="5px" width="5px" x="108px" y="48px" /><rect fill="rgb(57,57,53)" height="5px" width="5px" x="112px" y="48px" /><rect fill="rgb(62,62,58)" height="5px" width="5px" x="116px" y="48px" /><rect fill="rgb(62,62,58)" height="5px" width="5px" x="120px" y="48px" /><rect fill="rgb(62,62,58)" height="5px" width="5px" x="124px" y="48px" /><rect fill="rgb(64,64,60)" height="5px" width="5px" x="0px" y="52px" /><rect fill="rgb(66,66,61)" height="5px" width="5px" x="4px" y="52px" /><rect fill="rgb(69,69,64)" height="5px" width="5px" x="8px" y="52px" /><rect fill="rgb(63,63,58)" height="5px" width="5px" x="12px" y="52px" /><rect fill="rgb(62,62,57)" height="5px" width="5px" x="16px" y="52px" /><rect fill="rgb(66,66,62)" height="5px" width="5px" x="20px" y="52px" /><rect fill="rgb(66,66,62)" height="5px" width="5px" x="24px" y="52px" /><rect fill="rgb(54,54,51)" height="5px" width="5px" x="28px" y="52px" /><rect fill="rgb(66,66,62)" height="5px" width="5px" x="32px" y="52px" /><rect fill="rgb(68,68,64)" height="5px" width="5px" x="36px" y="52px" /><rect fill="rgb(71,71,66)" height="5px" width="5px" x="40px" y="52px" /><rect fill="rgb(62,62,58)" height="5px" width="5px" x="44px" y="52px" /><rect fill="rgb(62,62,59)" height="5px" width="5px" x="48px" y="52px" /><rect fill="rgb(64,64,61)" height="5px" width="5px" x="52px" y="52px" /><rect fill="rgb(55,55,51)" height="5px" width="5px" x="56px" y="52px" /><rect fill="rgb(67,67,62)" height="5px" width="5px" x="60px" y="52px" /><rect fill="rgb(65,65,61)" height="5px" width="5px" x="64px" y="52px" /><rect fill="rgb(65,65,61)" height="5px" width="5px" x="68px" y="52px" /><rect fill="rgb(58,58,54)" height="5px" width="5px" x="72px" y="52px" /><rect fill="rgb(60,60,56)" height="5px" width="5px" x="76px" y="52px" /><rect fill="rgb(65,65,61)" height="5px" width="5px" x="80px" y="52px" /><rect fill="rgb(68,68,63)" height="5px" width="5px" x="84px" y="52px" /><rect fill="rgb(64,64,60)" height="5px" width="5px" x="88px" y="52px" /><rect fill="rgb(64,64,59)" height="5px" width="5px" x="92px" y="52px" /><rect fill="rgb(67,67,61)" height="5px" width="5px" x="96px" y="52px" /><rect fill="rgb(64,64,60)" height="5px" width="5px" x="100px" y="52px" /><rect fill="rgb(64,64,60)" height="5px" width="5px" x="104px" y="52px" /><rect fill="rgb(64,64,60)" height="5px" width="5px" x="108px" y="52px" /><rect fill="rgb(58,58,55)" height="5px" width="5px" x="112px" y="52px" /><rect fill="rgb(63,63,59)" height="5px" width="5px" x="116px" y="52px" /><rect fill="rgb(60,60,56)" height="5px" width="5px" x="120px" y="52px" /><rect fill="rgb(60,60,56)" height="5px" width="5px" x="124px" y="52px" /><rect fill="rgb(64,64,60)" height="5px" width="5px" x="0px" y="56px" /><rect fill="rgb(52,52,48)" height="5px" width="5px" x="4px" y="56px" /><rect fill="rgb(68,68,63)" height="5px" width="5px" x="8px" y="56px" /><rect fill="rgb(66,66,62)" height="5px" width="5px" x="12px" y="56px" /><rect fill="rgb(62,62,58)" height="5px" width="5px" x="16px" y="56px" /><rect fill="rgb(65,65,61)" height="5px" width="5px" x="20px" y="56px" /><rect fill="rgb(67,67,63)" height="5px" width="5px" x="24px" y="56px" /><rect fill="rgb(69,69,65)" height="5px" width="5px" x="28px" y="56px" /><rect fill="rgb(68,68,64)" height="5px" width="5px" x="32px" y="56px" /><rect fill="rgb(70,70,65)" height="5px" width="5px" x="36px" y="56px" /><rect fill="rgb(68,68,63)" height="5px" width="5px" x="40px" y="56px" /><rect fill="rgb(68,68,64)" height="5px" width="5px" x="44px" y="56px" /><rect fill="rgb(72,72,68)" height="5px" width="5px" x="48px" y="56px" /><rect fill="rgb(72,72,68)" height="5px" width="5px" x="52px" y="56px" /><rect fill="rgb(68,68,63)" height="5px" width="5px" x="56px" y="56px" /><rect fill="rgb(64,64,59)" height="5px" width="5px" x="60px" y="56px" /><rect fill="rgb(64,64,59)" height="5px" width="5px" x="64px" y="56px" /><rect fill="rgb(67,67,62)" height="5px" width="5px" x="68px" y="56px" /><rect fill="rgb(68,68,64)" height="5px" width="5px" x="72px" y="56px" /><rect fill="rgb(69,69,65)" height="5px" width="5px" x="76px" y="56px" /><rect fill="rgb(70,70,66)" height="5px" width="5px" x="80px" y="56px" /><rect fill="rgb(69,69,65)" height="5px" width="5px" x="84px" y="56px" /><rect fill="rgb(60,60,57)" height="5px" width="5px" x="88px" y="56px" /><rect fill="rgb(60,60,56)" height="5px" width="5px" x="92px" y="56px" /><rect fill="rgb(70,70,65)" height="5px" width="5px" x="96px" y="56px" /><rect fill="rgb(70,70,65)" height="5px" width="5px" x="100px" y="56px" /><rect fill="rgb(69,69,64)" height="5px" width="5px" x="104px" y="56px" /><rect fill="rgb(70,70,65)" height="5px" width="5px" x="108px" y="56px" /><rect fill="rgb(69,69,64)" height="5px" width="5px" x="112px" y="56px" /><rect fill="rgb(68,68,64)" height="5px" width="5px" x="116px" y="56px" /><rect fill="rgb(65,65,61)" height="5px" width="5px" x="120px" y="56px" /><rect fill="rgb(63,63,58)" height="5px" width="5px" x="124px" y="56px" /><rect fill="rgb(64,64,60)" height="5px" width="5px" x="0px" y="60px" /><rect fill="rgb(61,61,57)" height="5px" width="5px" x="4px" y="60px" /><rect fill="rgb(67,67,63)" height="5px" width="5px" x="8px" y="60px" /><rect fill="rgb(65,65,61)" height="5px" width="5px" x="12px" y="60px" /><rect fill="rgb(64,64,60)" height="5px" width="5px" x="16px" y="60px" /><rect fill="rgb(64,64,60)" height="5px" width="5px" x="20px" y="60px" /><rect fill="rgb(60,60,56)" height="5px" width="5px" x="24px" y="60px" /><rect fill="rgb(62,62,57)" height="5px" width="5px" x="28px" y="60px" /><rect fill="rgb(64,64,60)" height="5px" width="5px" x="32px" y="60px" /><rect fill="rgb(66,66,61)" height="5px" width="5px" x="36px" y="60px" /><rect fill="rgb(58,58,54)" height="5px" width="5px" x="40px" y="60px" /><rect fill="rgb(62,62,58)" height="5px" width="5px" x="44px" y="60px" /><rect fill="rgb(67,67,62)" height="5px" width="5px" x="48px" y="60px" /><rect fill="rgb(65,65,61)" height="5px" width="5px" x="52px" y="60px" /><rect fill="rgb(64,64,60)" height="5px" width="5px" x="56px" y="60px" /><rect fill="rgb(64,64,60)" height="5px" width="5px" x="60px" y="60px" /><rect fill="rgb(66,66,61)" height="5px" width="5px" x="64px" y="60px" /><rect fill="rgb(66,66,61)" height="5px" width="5px" x="68px" y="60px" /><rect fill="rgb(61,61,57)" height="5px" width="5px" x="72px" y="60px" /><rect fill="rgb(64,64,60)" height="5px" width="5px" x="76px" y="60px" /><rect fill="rgb(65,65,61)" height="5px" width="5px" x="80px" y="60px" /><rect fill="rgb(67,67,62)" height="5px" width="5px" x="84px" y="60px" /><rect fill="rgb(65,65,60)" height="5px" width="5px" x="88px" y="60px" /><rect fill="rgb(64,64,60)" height="5px" width="5px" x="92px" y="60px" /><rect fill="rgb(67,67,63)" height="5px" width="5px" x="96px" y="60px" /><rect fill="rgb(67,67,63)" height="5px" width="5px" x="100px" y="60px" /><rect fill="rgb(59,59,55)" height="5px" width="5px" x="104px" y="60px" /><rect fill="rgb(63,63,59)" height="5px" width="5px" x="108px" y="60px" /><rect fill="rgb(65,65,61)" height="5px" width="5px" x="112px" y="60px" /><rect fill="rgb(65,65,61)" height="5px" width="5px" x="116px" y="60px" /><rect fill="rgb(63,63,59)" height="5px" width="5px" x="120px" y="60px" /><rect fill="rgb(59,59,55)" height="5px" width="5px" x="124px" y="60px" /><rect fill="rgb(43,43,40)" height="5px" width="5px" x="0px" y="64px" /><rect fill="rgb(47,47,44)" height="5px" width="5px" x="4px" y="64px" /><rect fill="rgb(43,43,40)" height="5px" width="5px" x="8px" y="64px" /><rect fill="rgb(47,47,43)" height="5px" width="5px" x="12px" y="64px" /><rect fill="rgb(47,47,44)" height="5px" width="5px" x="16px" y="64px" /><rect fill="rgb(43,43,40)" height="5px" width="5px" x="20px" y="64px" /><rect fill="rgb(45,45,42)" height="5px" width="5px" x="24px" y="64px" /><rect fill="rgb(50,50,46)" height="5px" width="5px" x="28px" y="64px" /><rect fill="rgb(44,44,41)" height="5px" width="5px" x="32px" y="64px" /><rect fill="rgb(47,47,43)" height="5px" width="5px" x="36px" y="64px" /><rect fill="rgb(43,43,40)" height="5px" width="5px" x="40px" y="64px" /><rect fill="rgb(44,44,41)" height="5px" width="5px" x="44px" y="64px" /><rect fill="rgb(67,67,62)" height="5px" width="5px" x="48px" y="64px" /><rect fill="rgb(65,65,61)" height="5px" width="5px" x="52px" y="64px" /><rect fill="rgb(66,66,62)" height="5px" width="5px" x="56px" y="64px" /><rect fill="rgb(68,68,63)" height="5px" width="5px" x="60px" y="64px" /><rect fill="rgb(64,64,60)" height="5px" width="5px" x="64px" y="64px" /><rect fill="rgb(66,66,61)" height="5px" width="5px" x="68px" y="64px" /><rect fill="rgb(43,43,40)" height="5px" width="5px" x="72px" y="64px" /><rect fill="rgb(43,43,40)" height="5px" width="5px" x="76px" y="64px" /><rect fill="rgb(43,43,40)" height="5px" width="5px" x="80px" y="64px" /><rect fill="rgb(43,43,40)" height="5px" width="5px" x="84px" y="64px" /><rect fill="rgb(43,43,40)" height="5px" width="5px" x="88px" y="64px" /><rect fill="rgb(43,43,40)" height="5px" width="5px" x="92px" y="64px" /><rect fill="rgb(43,43,40)" height="5px" width="5px" x="96px" y="64px" /><rect fill="rgb(43,43,40)" height="5px" width="5px" x="100px" y="64px" /><rect fill="rgb(43,43,40)" height="5px" width="5px" x="104px" y="64px" /><rect fill="rgb(43,43,40)" height="5px" width="5px" x="108px" y="64px" /><rect fill="rgb(43,43,40)" height="5px" width="5px" x="112px" y="64px" /><rect fill="rgb(43,43,40)" height="5px" width="5px" x="116px" y="64px" /><rect fill="rgb(43,43,40)" height="5px" width="5px" x="120px" y="64px" /><rect fill="rgb(43,43,40)" height="5px" width="5px" x="124px" y="64px" /><rect fill="rgb(96,96,96)" height="5px" opacity="0.0313725490196" width="5px" x="0px" y="68px" /><rect fill="rgb(96,96,96)" height="5px" opacity="0.0313725490196" width="5px" x="4px" y="68px" /><rect fill="rgb(85,85,85)" height="5px" opacity="0.0588235294118" width="5px" x="12px" y="68px" /><rect fill="rgb(96,96,96)" height="5px" opacity="0.0313725490196" width="5px" x="24px" y="68px" /><rect fill="rgb(96,96,96)" height="5px" opacity="0.0313725490196" width="5px" x="28px" y="68px" /><rect fill="rgb(45,45,42)" height="5px" width="5px" x="44px" y="68px" /><rect fill="rgb(66,66,62)" height="5px" width="5px" x="48px" y="68px" /><rect fill="rgb(67,67,63)" height="5px" width="5px" x="52px" y="68px" /><rect fill="rgb(67,67,63)" height="5px" width="5px" x="56px" y="68px" /><rect fill="rgb(64,64,60)" height="5px" width="5px" x="60px" y="68px" /><rect fill="rgb(66,66,61)" height="5px" width="5px" x="64px" y="68px" /><rect fill="rgb(64,64,60)" height="5px" width="5px" x="68px" y="68px" /><rect fill="rgb(43,43,40)" height="5px" width="5px" x="72px" y="68px" /><rect fill="rgb(94,94,85)" height="5px" opacity="0.105882352941" width="5px" x="0px" y="72px" /><rect fill="rgb(45,45,42)" height="5px" width="5px" x="44px" y="72px" /><rect fill="rgb(67,67,63)" height="5px" width="5px" x="48px" y="72px" /><rect fill="rgb(67,67,63)" height="5px" width="5px" x="52px" y="72px" /><rect fill="rgb(57,57,53)" height="5px" width="5px" x="56px" y="72px" /><rect fill="rgb(64,64,60)" height="5px" width="5px" x="60px" y="72px" /><rect fill="rgb(66,66,62)" height="5px" width="5px" x="64px" y="72px" /><rect fill="rgb(62,62,58)" height="5px" width="5px" x="68px" y="72px" /><rect fill="rgb(43,43,40)" height="5px" width="5px" x="72px" y="72px" /><rect fill="rgb(96,96,96)" height="5px" opacity="0.0313725490196" width="5px" x="0px" y="76px" /><rect fill="rgb(43,43,40)" height="5px" width="5px" x="44px" y="76px" /><rect fill="rgb(67,67,62)" height="5px" width="5px" x="48px" y="76px" /><rect fill="rgb(66,66,61)" height="5px" width="5px" x="52px" y="76px" /><rect fill="rgb(65,65,61)" height="5px" width="5px" x="56px" y="76px" /><rect fill="rgb(67,67,62)" height="5px" width="5px" x="60px" y="76px" /><rect fill="rgb(61,61,56)" height="5px" width="5px" x="64px" y="76px" /><rect fill="rgb(62,62,58)" height="5px" width="5px" x="68px" y="76px" /><rect fill="rgb(43,43,40)" height="5px" width="5px" x="72px" y="76px" /><rect fill="rgb(43,43,40)" height="5px" width="5px" x="44px" y="80px" /><rect fill="rgb(67,67,63)" height="5px" width="5px" x="48px" y="80px" /><rect fill="rgb(66,66,62)" height="5px" width="5px" x="52px" y="80px" /><rect fill="rgb(65,65,61)" height="5px" width="5px" x="56px" y="80px" /><rect fill="rgb(69,69,64)" height="5px" width="5px" x="60px" y="80px" /><rect fill="rgb(62,62,58)" height="5px" width="5px" x="64px" y="80px" /><rect fill="rgb(64,64,60)" height="5px" width="5px" x="68px" y="80px" /><rect fill="rgb(43,43,40)" height="5px" width="5px" x="72px" y="80px" /><rect fill="rgb(43,43,40)" height="5px" width="5px" x="44px" y="84px" /><rect fill="rgb(66,66,61)" height="5px" width="5px" x="48px" y="84px" /><rect fill="rgb(57,57,53)" height="5px" width="5px" x="52px" y="84px" /><rect fill="rgb(66,66,62)" height="5px" width="5px" x="56px" y="84px" /><rect fill="rgb(68,68,64)" height="5px" width="5px" x="60px" y="84px" /><rect fill="rgb(65,65,61)" height="5px" width="5px" x="64px" y="84px" /><rect fill="rgb(64,64,60)" height="5px" width="5px" x="68px" y="84px" /><rect fill="rgb(43,43,40)" height="5px" width="5px" x="72px" y="84px" /><rect fill="rgb(46,46,42)" height="5px" width="5px" x="44px" y="88px" /><rect fill="rgb(69,69,64)" height="5px" width="5px" x="48px" y="88px" /><rect fill="rgb(63,63,59)" height="5px" width="5px" x="52px" y="88px" /><rect fill="rgb(64,64,60)" height="5px" width="5px" x="56px" y="88px" /><rect fill="rgb(65,65,60)" height="5px" width="5px" x="60px" y="88px" /><rect fill="rgb(65,65,60)" height="5px" width="5px" x="64px" y="88px" /><rect fill="rgb(64,64,60)" height="5px" width="5px" x="68px" y="88px" /><rect fill="rgb(43,43,40)" height="5px" width="5px" x="72px" y="88px" /><rect fill="rgb(48,48,45)" height="5px" width="5px" x="44px" y="92px" /><rect fill="rgb(66,66,61)" height="5px" width="5px" x="48px" y="92px" /><rect fill="rgb(63,63,59)" height="5px" width="5px" x="52px" y="92px" /><rect fill="rgb(63,63,59)" height="5px" width="5px" x="56px" y="92px" /><rect fill="rgb(65,65,60)" height="5px" width="5px" x="60px" y="92px" /><rect fill="rgb(65,65,60)" height="5px" width="5px" x="64px" y="92px" /><rect fill="rgb(66,66,61)" height="5px" width="5px" x="68px" y="92px" /><rect fill="rgb(44,44,41)" height="5px" width="5px" x="72px" y="92px" /><rect fill="rgb(44,44,41)" height="5px" width="5px" x="44px" y="96px" /><rect fill="rgb(66,66,61)" height="5px" width="5px" x="48px" y="96px" /><rect fill="rgb(64,64,60)" height="5px" width="5px" x="52px" y="96px" /><rect fill="rgb(66,66,61)" height="5px" width="5px" x="56px" y="96px" /><rect fill="rgb(62,62,57)" height="5px" width="5px" x="60px" y="96px" /><rect fill="rgb(65,65,61)" height="5px" width="5px" x="64px" y="96px" /><rect fill="rgb(64,64,60)" height="5px" width="5px" x="68px" y="96px" /><rect fill="rgb(43,43,40)" height="5px" width="5px" x="72px" y="96px" /><rect fill="rgb(44,44,41)" height="5px" width="5px" x="44px" y="100px" /><rect fill="rgb(67,67,62)" height="5px" width="5px" x="48px" y="100px" /><rect fill="rgb(65,65,61)" height="5px" width="5px" x="52px" y="100px" /><rect fill="rgb(58,58,54)" height="5px" width="5px" x="56px" y="100px" /><rect fill="rgb(56,56,51)" height="5px" width="5px" x="60px" y="100px" /><rect fill="rgb(64,64,60)" height="5px" width="5px" x="64px" y="100px" /><rect fill="rgb(64,64,60)" height="5px" width="5px" x="68px" y="100px" /><rect fill="rgb(43,43,40)" height="5px" width="5px" x="72px" y="100px" /><rect fill="rgb(43,43,40)" height="5px" width="5px" x="44px" y="104px" /><rect fill="rgb(65,65,61)" height="5px" width="5px" x="48px" y="104px" /><rect fill="rgb(64,64,60)" height="5px" width="5px" x="52px" y="104px" /><rect fill="rgb(59,59,55)" height="5px" width="5px" x="56px" y="104px" /><rect fill="rgb(59,59,55)" height="5px" width="5px" x="60px" y="104px" /><rect fill="rgb(65,65,61)" height="5px" width="5px" x="64px" y="104px" /><rect fill="rgb(64,64,60)" height="5px" width="5px" x="68px" y="104px" /><rect fill="rgb(43,43,40)" height="5px" width="5px" x="72px" y="104px" /><rect fill="rgb(43,43,40)" height="5px" width="5px" x="44px" y="108px" /><rect fill="rgb(62,62,58)" height="5px" width="5px" x="48px" y="108px" /><rect fill="rgb(63,63,59)" height="5px" width="5px" x="52px" y="108px" /><rect fill="rgb(66,66,62)" height="5px" width="5px" x="56px" y="108px" /><rect fill="rgb(60,60,56)" height="5px" width="5px" x="60px" y="108px" /><rect fill="rgb(66,66,62)" height="5px" width="5px" x="64px" y="108px" /><rect fill="rgb(64,64,60)" height="5px" width="5px" x="68px" y="108px" /><rect fill="rgb(43,43,40)" height="5px" width="5px" x="72px" y="108px" /><rect fill="rgb(43,43,40)" height="5px" width="5px" x="44px" y="112px" /><rect fill="rgb(62,62,58)" height="5px" width="5px" x="48px" y="112px" /><rect fill="rgb(64,64,60)" height="5px" width="5px" x="52px" y="112px" /><rect fill="rgb(69,69,65)" height="5px" width="5px" x="56px" y="112px" /><rect fill="rgb(66,66,62)" height="5px" width="5px" x="60px" y="112px" /><rect fill="rgb(62,62,58)" height="5px" width="5px" x="64px" y="112px" /><rect fill="rgb(64,64,60)" height="5px" width="5px" x="68px" y="112px" /><rect fill="rgb(43,43,40)" height="5px" width="5px" x="72px" y="112px" /><rect fill="rgb(43,43,40)" height="5px" width="5px" x="44px" y="116px" /><rect fill="rgb(64,64,60)" height="5px" width="5px" x="48px" y="116px" /><rect fill="rgb(67,67,62)" height="5px" width="5px" x="52px" y="116px" /><rect fill="rgb(67,67,63)" height="5px" width="5px" x="56px" y="116px" /><rect fill="rgb(68,68,64)" height="5px" width="5px" x="60px" y="116px" /><rect fill="rgb(61,61,56)" height="5px" width="5px" x="64px" y="116px" /><rect fill="rgb(64,64,60)" height="5px" width="5px" x="68px" y="116px" /><rect fill="rgb(43,43,40)" height="5px" width="5px" x="72px" y="116px" /><rect fill="rgb(43,43,40)" height="5px" width="5px" x="44px" y="120px" /><rect fill="rgb(64,64,60)" height="5px" width="5px" x="48px" y="120px" /><rect fill="rgb(57,57,54)" height="5px" width="5px" x="52px" y="120px" /><rect fill="rgb(64,64,60)" height="5px" width="5px" x="56px" y="120px" /><rect fill="rgb(65,65,61)" height="5px" width="5px" x="60px" y="120px" /><rect fill="rgb(64,64,60)" height="5px" width="5px" x="64px" y="120px" /><rect fill="rgb(64,64,60)" height="5px" width="5px" x="68px" y="120px" /><rect fill="rgb(43,43,40)" height="5px" width="5px" x="72px" y="120px" /><rect fill="rgb(43,43,40)" height="5px" width="5px" x="44px" y="124px" /><rect fill="rgb(64,64,60)" height="5px" width="5px" x="48px" y="124px" /><rect fill="rgb(65,65,61)" height="5px" width="5px" x="52px" y="124px" /><rect fill="rgb(65,65,61)" height="5px" width="5px" x="56px" y="124px" /><rect fill="rgb(65,65,61)" height="5px" width="5px" x="60px" y="124px" /><rect fill="rgb(64,64,60)" height="5px" width="5px" x="64px" y="124px" /><rect fill="rgb(54,54,50)" height="5px" width="5px" x="68px" y="124px" /><rect fill="rgb(43,43,40)" height="5px" width="5px" x="72px" y="124px" /></svg>