<?xml version="1.0" encoding="utf-8" ?>
<svg baseProfile="full" height="128px" version="1.1" width="128px" xmlns="http://www.w3.org/2000/svg" xmlns:ev="http://www.w3.org/2001/xml-events" xmlns:xlink="http://www.w3.org/1999/xlink"><defs /><rect fill="rgb(243,243,109)" height="5px" opacity="0.0823529411765" width="5px" x="60px" y="16px" /><rect fill="rgb(236,44,44)" height="5px" width="5px" x="64px" y="16px" /><rect fill="rgb(236,44,44)" height="5px" width="5px" x="68px" y="16px" /><rect fill="rgb(236,44,44)" height="5px" width="5px" x="72px" y="16px" /><rect fill="rgb(243,231,97)" height="5px" opacity="0.0823529411765" width="5px" x="76px" y="16px" /><rect fill="rgb(247,239,107)" height="5px" opacity="0.364705882353" width="5px" x="56px" y="20px" /><rect fill="rgb(236,44,44)" height="5px" width="5px" x="60px" y="20px" /><rect fill="rgb(236,44,44)" height="5px" width="5px" x="64px" y="20px" /><rect fill="rgb(236,44,44)" height="5px" width="5px" x="68px" y="20px" /><rect fill="rgb(236,44,44)" height="5px" width="5px" x="72px" y="20px" /><rect fill="rgb(236,44,44)" height="5px" width="5px" x="76px" y="20px" /><rect fill="rgb(247,236,99)" height="5px" opacity="0.364705882353" width="5px" x="80px" y="20px" /><rect fill="rgb(247,239,106)" height="5px" opacity="0.254901960784" width="5px" x="52px" y="24px" /><rect fill="rgb(236,44,44)" height="5px" width="5px" x="56px" y="24px" /><rect fill="rgb(236,44,44)" height="5px" width="5px" x="60px" y="24px" /><rect fill="rgb(95,92,73)" height="5px" width="5px" x="64px" y="24px" /><rect fill="rgb(61,59,65)" height="5px" width="5px" x="68px" y="24px" /><rect fill="rgb(92,89,71)" height="5px" width="5px" x="72px" y="24px" /><rect fill="rgb(236,44,44)" height="5px" width="5px" x="76px" y="24px" /><rect fill="rgb(236,44,44)" height="5px" width="5px" x="80px" y="24px" /><rect fill="rgb(247,235,98)" height="5px" opacity="0.254901960784" width="5px" x="84px" y="24px" /><rect fill="rgb(236,44,44)" height="5px" width="5px" x="52px" y="28px" /><rect fill="rgb(236,44,44)" height="5px" width="5px" x="56px" y="28px" /><rect fill="rgb(64,61,64)" height="5px" width="5px" x="60px" y="28px" /><rect fill="rgb(50,47,57)" height="5px" width="5px" x="64px" y="28px" /><rect fill="rgb(41,38,49)" height="5px" width="5px" x="68px" y="28px" /><rect fill="rgb(48,45,55)" height="5px" width="5px" x="72px" y="28px" /><rect fill="rgb(57,55,58)" height="5px" width="5px" x="76px" y="28px" /><rect fill="rgb(236,44,44)" height="5px" width="5px" x="80px" y="28px" /><rect fill="rgb(236,44,44)" height="5px" width="5px" x="84px" y="28px" /><rect fill="rgb(236,44,44)" height="5px" width="5px" x="52px" y="32px" /><rect fill="rgb(236,44,44)" height="5px" width="5px" x="56px" y="32px" /><rect fill="rgb(49,47,56)" height="5px" width="5px" x="60px" y="32px" /><rect fill="rgb(36,33,44)" height="5px" width="5px" x="64px" y="32px" /><rect fill="rgb(37,35,45)" height="5px" width="5px" x="68px" y="32px" /><rect fill="rgb(42,40,50)" height="5px" width="5px" x="72px" y="32px" /><rect fill="rgb(42,40,50)" height="5px" width="5px" x="76px" y="32px" /><rect fill="rgb(236,44,44)" height="5px" width="5px" x="80px" y="32px" /><rect fill="rgb(236,44,44)" height="5px" width="5px" x="84px" y="32px" /><rect fill="rgb(248,240,106)" height="5px" opacity="0.274509803922" width="5px" x="48px" y="36px" /><rect fill="rgb(236,44,44)" height="5px" width="5px" x="52px" y="36px" /><rect fill="rgb(236,44,44)" height="5px" width="5px" x="56px" y="36px" /><rect fill="rgb(43,40,51)" height="5px" width="5px" x="60px" y="36px" /><rect fill="rgb(47,45,55)" height="5px" width="5px" x="64px" y="36px" /><rect fill="rgb(53,50,60)" height="5px" width="5px" x="68px" y="36px" /><rect fill="rgb(54,51,60)" height="5px" width="5px" x="72px" y="36px" /><rect fill="rgb(36,34,44)" height="5px" width="5px" x="76px" y="36px" /><rect fill="rgb(236,44,44)" height="5px" width="5px" x="80px" y="36px" /><rect fill="rgb(236,44,44)" height="5px" width="5px" x="84px" y="36px" /><rect fill="rgb(248,240,106)" height="5px" opacity="0.274509803922" width="5px" x="44px" y="40px" /><rect fill="rgb(236,44,44)" height="5px" width="5px" x="48px" y="40px" /><rect fill="rgb(236,44,44)" height="5px" width="5px" x="52px" y="40px" /><rect fill="rgb(236,44,44)" height="5px" width="5px" x="56px" y="40px" /><rect fill="rgb(46,43,48)" height="5px" width="5px" x="60px" y="40px" /><rect fill="rgb(38,36,46)" height="5px" width="5px" x="64px" y="40px" /><rect fill="rgb(47,44,54)" height="5px" width="5px" x="68px" y="40px" /><rect fill="rgb(36,34,44)" height="5px" width="5px" x="72px" y="40px" /><rect fill="rgb(40,37,42)" height="5px" width="5px" x="76px" y="40px" /><rect fill="rgb(236,44,44)" height="5px" width="5px" x="80px" y="40px" /><rect fill="rgb(236,44,44)" height="5px" width="5px" x="84px" y="40px" /><rect fill="rgb(248,240,106)" height="5px" opacity="0.274509803922" width="5px" x="40px" y="44px" /><rect fill="rgb(236,44,44)" height="5px" width="5px" x="44px" y="44px" /><rect fill="rgb(236,44,44)" height="5px" width="5px" x="48px" y="44px" /><rect fill="rgb(236,44,44)" height="5px" width="5px" x="52px" y="44px" /><rect fill="rgb(236,44,44)" height="5px" width="5px" x="56px" y="44px" /><rect fill="rgb(236,44,44)" height="5px" width="5px" x="60px" y="44px" /><rect fill="rgb(71,67,51)" height="5px" width="5px" x="64px" y="44px" /><rect fill="rgb(31,28,37)" height="5px" width="5px" x="68px" y="44px" /><rect fill="rgb(69,64,49)" height="5px" width="5px" x="72px" y="44px" /><rect fill="rgb(236,44,44)" height="5px" width="5px" x="76px" y="44px" /><rect fill="rgb(236,44,44)" height="5px" width="5px" x="80px" y="44px" /><rect fill="rgb(236,44,44)" height="5px" width="5px" x="84px" y="44px" /><rect fill="rgb(146,146,128)" height="5px" opacity="0.0549019607843" width="5px" x="88px" y="44px" /><rect fill="rgb(255,255,85)" height="5px" opacity="0.0117647058824" width="5px" x="20px" y="48px" /><rect fill="rgb(248,238,105)" height="5px" opacity="0.407843137255" width="5px" x="24px" y="48px" /><rect fill="rgb(236,44,44)" height="5px" width="5px" x="28px" y="48px" /><rect fill="rgb(236,44,44)" height="5px" width="5px" x="32px" y="48px" /><rect fill="rgb(236,44,44)" height="5px" width="5px" x="36px" y="48px" /><rect fill="rgb(236,44,44)" height="5px" width="5px" x="40px" y="48px" /><rect fill="rgb(236,44,44)" height="5px" width="5px" x="44px" y="48px" /><rect fill="rgb(236,44,44)" height="5px" width="5px" x="48px" y="48px" /><rect fill="rgb(245,218,54)" height="5px" opacity="0.403921568627" width="5px" x="52px" y="48px" /><rect fill="rgb(236,44,44)" height="5px" width="5px" x="56px" y="48px" /><rect fill="rgb(236,44,44)" height="5px" width="5px" x="60px" y="48px" /><rect fill="rgb(236,44,44)" height="5px" width="5px" x="64px" y="48px" /><rect fill="rgb(236,44,44)" height="5px" width="5px" x="68px" y="48px" /><rect fill="rgb(236,44,44)" height="5px" width="5px" x="72px" y="48px" /><rect fill="rgb(236,44,44)" height="5px" width="5px" x="76px" y="48px" /><rect fill="rgb(236,44,44)" height="5px" width="5px" x="80px" y="48px" /><rect fill="rgb(236,44,44)" height="5px" width="5px" x="84px" y="48px" /><rect fill="rgb(142,140,138)" height="5px" opacity="0.776470588235" width="5px" x="88px" y="48px" /><rect fill="rgb(146,146,128)" height="5px" opacity="0.0549019607843" width="5px" x="92px" y="48px" /><rect fill="rgb(255,230,102)" height="5px" opacity="0.0392156862745" width="5px" x="16px" y="52px" /><rect fill="rgb(236,44,44)" height="5px" width="5px" x="20px" y="52px" /><rect fill="rgb(236,44,44)" height="5px" width="5px" x="24px" y="52px" /><rect fill="rgb(236,44,44)" height="5px" width="5px" x="28px" y="52px" /><rect fill="rgb(236,44,44)" height="5px" width="5px" x="32px" y="52px" /><rect fill="rgb(236,44,44)" height="5px" width="5px" x="36px" y="52px" /><rect fill="rgb(236,44,44)" height="5px" width="5px" x="40px" y="52px" /><rect fill="rgb(236,44,44)" height="5px" width="5px" x="44px" y="52px" /><rect fill="rgb(236,44,44)" height="5px" width="5px" x="48px" y="52px" /><rect fill="rgb(255,232,93)" height="5px" opacity="0.043137254902" width="5px" x="52px" y="52px" /><rect fill="rgb(236,44,44)" height="5px" width="5px" x="56px" y="52px" /><rect fill="rgb(236,44,44)" height="5px" width="5px" x="60px" y="52px" /><rect fill="rgb(236,44,44)" height="5px" width="5px" x="64px" y="52px" /><rect fill="rgb(236,44,44)" height="5px" width="5px" x="68px" y="52px" /><rect fill="rgb(236,44,44)" height="5px" width="5px" x="72px" y="52px" /><rect fill="rgb(236,44,44)" height="5px" width="5px" x="76px" y="52px" /><rect fill="rgb(126,115,93)" height="5px" opacity="0.764705882353" width="5px" x="80px" y="52px" /><rect fill="rgb(121,120,121)" height="5px" width="5px" x="84px" y="52px" /><rect fill="rgb(166,163,129)" height="5px" width="5px" x="88px" y="52px" /><rect fill="rgb(236,44,44)" height="5px" width="5px" x="92px" y="52px" /><rect fill="rgb(236,44,44)" height="5px" width="5px" x="96px" y="52px" /><rect fill="rgb(236,44,44)" height="5px" width="5px" x="100px" y="52px" /><rect fill="rgb(247,232,99)" height="5px" opacity="0.262745098039" width="5px" x="104px" y="52px" /><rect fill="rgb(236,44,44)" height="5px" width="5px" x="16px" y="56px" /><rect fill="rgb(236,44,44)" height="5px" width="5px" x="20px" y="56px" /><rect fill="rgb(236,44,44)" height="5px" width="5px" x="24px" y="56px" /><rect fill="rgb(127,122,80)" height="5px" width="5px" x="28px" y="56px" /><rect fill="rgb(69,66,68)" height="5px" width="5px" x="32px" y="56px" /><rect fill="rgb(67,65,66)" height="5px" width="5px" x="36px" y="56px" /><rect fill="rgb(124,120,78)" height="5px" width="5px" x="40px" y="56px" /><rect fill="rgb(236,44,44)" height="5px" width="5px" x="44px" y="56px" /><rect fill="rgb(236,44,44)" height="5px" width="5px" x="48px" y="56px" /><rect fill="rgb(236,44,44)" height="5px" width="5px" x="52px" y="56px" /><rect fill="rgb(236,44,44)" height="5px" width="5px" x="56px" y="56px" /><rect fill="rgb(236,44,44)" height="5px" width="5px" x="60px" y="56px" /><rect fill="rgb(236,44,44)" height="5px" width="5px" x="64px" y="56px" /><rect fill="rgb(239,202,53)" height="5px" opacity="0.486274509804" width="5px" x="68px" y="56px" /><rect fill="rgb(236,188,40)" height="5px" opacity="0.372549019608" width="5px" x="72px" y="56px" /><rect fill="rgb(227,184,28)" height="5px" opacity="0.0705882352941" width="5px" x="76px" y="56px" /><rect fill="rgb(102,102,102)" height="5px" opacity="0.0196078431373" width="5px" x="80px" y="56px" /><rect fill="rgb(236,44,44)" height="5px" width="5px" x="84px" y="56px" /><rect fill="rgb(236,44,44)" height="5px" width="5px" x="88px" y="56px" /><rect fill="rgb(115,111,77)" height="5px" width="5px" x="92px" y="56px" /><rect fill="rgb(61,58,64)" height="5px" width="5px" x="96px" y="56px" /><rect fill="rgb(113,108,74)" height="5px" width="5px" x="100px" y="56px" /><rect fill="rgb(236,44,44)" height="5px" width="5px" x="104px" y="56px" /><rect fill="rgb(248,233,98)" height="5px" opacity="0.133333333333" width="5px" x="108px" y="56px" /><rect fill="rgb(248,233,102)" height="5px" opacity="0.137254901961" width="5px" x="12px" y="60px" /><rect fill="rgb(236,44,44)" height="5px" width="5px" x="16px" y="60px" /><rect fill="rgb(236,44,44)" height="5px" width="5px" x="20px" y="60px" /><rect fill="rgb(90,87,71)" height="5px" width="5px" x="24px" y="60px" /><rect fill="rgb(54,52,61)" height="5px" width="5px" x="28px" y="60px" /><rect fill="rgb(42,40,50)" height="5px" width="5px" x="32px" y="60px" /><rect fill="rgb(42,40,50)" height="5px" width="5px" x="36px" y="60px" /><rect fill="rgb(50,48,58)" height="5px" width="5px" x="40px" y="60px" /><rect fill="rgb(85,81,66)" height="5px" width="5px" x="44px" y="60px" /><rect fill="rgb(236,44,44)" height="5px" width="5px" x="48px" y="60px" /><rect fill="rgb(236,44,44)" height="5px" width="5px" x="52px" y="60px" /><rect fill="rgb(236,44,44)" height="5px" width="5px" x="56px" y="60px" /><rect fill="rgb(236,44,44)" height="5px" width="5px" x="60px" y="60px" /><rect fill="rgb(255,219,36)" height="5px" opacity="0.0274509803922" width="5px" x="64px" y="60px" /><rect fill="rgb(236,44,44)" height="5px" width="5px" x="84px" y="60px" /><rect fill="rgb(236,44,44)" height="5px" width="5px" x="88px" y="60px" /><rect fill="rgb(45,43,53)" height="5px" width="5px" x="92px" y="60px" /><rect fill="rgb(35,32,43)" height="5px" width="5px" x="96px" y="60px" /><rect fill="rgb(44,42,52)" height="5px" width="5px" x="100px" y="60px" /><rect fill="rgb(236,44,44)" height="5px" width="5px" x="104px" y="60px" /><rect fill="rgb(236,44,44)" height="5px" width="5px" x="108px" y="60px" /><rect fill="rgb(248,238,102)" height="5px" opacity="0.419607843137" width="5px" x="12px" y="64px" /><rect fill="rgb(236,44,44)" height="5px" width="5px" x="16px" y="64px" /><rect fill="rgb(236,44,44)" height="5px" width="5px" x="20px" y="64px" /><rect fill="rgb(52,49,59)" height="5px" width="5px" x="24px" y="64px" /><rect fill="rgb(36,34,45)" height="5px" width="5px" x="28px" y="64px" /><rect fill="rgb(32,29,40)" height="5px" width="5px" x="32px" y="64px" /><rect fill="rgb(35,32,43)" height="5px" width="5px" x="36px" y="64px" /><rect fill="rgb(41,39,49)" height="5px" width="5px" x="40px" y="64px" /><rect fill="rgb(44,42,52)" height="5px" width="5px" x="44px" y="64px" /><rect fill="rgb(236,44,44)" height="5px" width="5px" x="48px" y="64px" /><rect fill="rgb(236,44,44)" height="5px" width="5px" x="52px" y="64px" /><rect fill="rgb(236,44,44)" height="5px" width="5px" x="56px" y="64px" /><rect fill="rgb(255,219,36)" height="5px" opacity="0.0274509803922" width="5px" x="60px" y="64px" /><rect fill="rgb(236,44,44)" height="5px" width="5px" x="84px" y="64px" /><rect fill="rgb(236,44,44)" height="5px" width="5px" x="88px" y="64px" /><rect fill="rgb(43,40,50)" height="5px" width="5px" x="92px" y="64px" /><rect fill="rgb(55,53,62)" height="5px" width="5px" x="96px" y="64px" /><rect fill="rgb(41,39,49)" height="5px" width="5px" x="100px" y="64px" /><rect fill="rgb(236,44,44)" height="5px" width="5px" x="104px" y="64px" /><rect fill="rgb(236,44,44)" height="5px" width="5px" x="108px" y="64px" /><rect fill="rgb(249,239,104)" height="5px" opacity="0.498039215686" width="5px" x="12px" y="68px" /><rect fill="rgb(236,44,44)" height="5px" width="5px" x="16px" y="68px" /><rect fill="rgb(236,44,44)" height="5px" width="5px" x="20px" y="68px" /><rect fill="rgb(46,44,54)" height="5px" width="5px" x="24px" y="68px" /><rect fill="rgb(41,38,48)" height="5px" width="5px" x="28px" y="68px" /><rect fill="rgb(43,41,51)" height="5px" width="5px" x="32px" y="68px" /><rect fill="rgb(47,44,54)" height="5px" width="5px" x="36px" y="68px" /><rect fill="rgb(50,48,57)" height="5px" width="5px" x="40px" y="68px" /><rect fill="rgb(39,37,47)" height="5px" width="5px" x="44px" y="68px" /><rect fill="rgb(236,44,44)" height="5px" width="5px" x="48px" y="68px" /><rect fill="rgb(236,44,44)" height="5px" width="5px" x="52px" y="68px" /><rect fill="rgb(236,44,44)" height="5px" width="5px" x="56px" y="68px" /><rect fill="rgb(236,44,44)" height="5px" width="5px" x="84px" y="68px" /><rect fill="rgb(236,44,44)" height="5px" width="5px" x="88px" y="68px" /><rect fill="rgb(99,94,61)" height="5px" width="5px" x="92px" y="68px" /><rect fill="rgb(34,31,39)" height="5px" width="5px" x="96px" y="68px" /><rect fill="rgb(95,90,58)" height="5px" width="5px" x="100px" y="68px" /><rect fill="rgb(236,44,44)" height="5px" width="5px" x="104px" y="68px" /><rect fill="rgb(236,44,44)" height="5px" width="5px" x="108px" y="68px" /><rect fill="rgb(249,235,95)" height="5px" opacity="0.494117647059" width="5px" x="12px" y="72px" /><rect fill="rgb(236,44,44)" height="5px" width="5px" x="16px" y="72px" /><rect fill="rgb(236,44,44)" height="5px" width="5px" x="20px" y="72px" /><rect fill="rgb(41,38,49)" height="5px" width="5px" x="24px" y="72px" /><rect fill="rgb(48,46,56)" height="5px" width="5px" x="28px" y="72px" /><rect fill="rgb(55,53,62)" height="5px" width="5px" x="32px" y="72px" /><rect fill="rgb(58,56,65)" height="5px" width="5px" x="36px" y="72px" /><rect fill="rgb(53,51,60)" height="5px" width="5px" x="40px" y="72px" /><rect fill="rgb(34,31,42)" height="5px" width="5px" x="44px" y="72px" /><rect fill="rgb(236,44,44)" height="5px" width="5px" x="48px" y="72px" /><rect fill="rgb(236,44,44)" height="5px" width="5px" x="52px" y="72px" /><rect fill="rgb(236,44,44)" height="5px" width="5px" x="56px" y="72px" /><rect fill="rgb(0,255,255)" height="5px" opacity="0.00392156862745" width="5px" x="76px" y="72px" /><rect fill="rgb(121,134,153)" height="5px" opacity="0.372549019608" width="5px" x="80px" y="72px" /><rect fill="rgb(236,44,44)" height="5px" width="5px" x="84px" y="72px" /><rect fill="rgb(236,44,44)" height="5px" width="5px" x="88px" y="72px" /><rect fill="rgb(236,44,44)" height="5px" width="5px" x="92px" y="72px" /><rect fill="rgb(236,44,44)" height="5px" width="5px" x="96px" y="72px" /><rect fill="rgb(236,44,44)" height="5px" width="5px" x="100px" y="72px" /><rect fill="rgb(236,44,44)" height="5px" width="5px" x="104px" y="72px" /><rect fill="rgb(236,44,44)" height="5px" width="5px" x="108px" y="72px" /><rect fill="rgb(121,132,153)" height="5px" opacity="0.372549019608" width="5px" x="112px" y="72px" /><rect fill="rgb(0,255,255)" height="5px" opacity="0.00392156862745" width="5px" x="116px" y="72px" /><rect fill="rgb(247,222,68)" height="5px" opacity="0.396078431373" width="5px" x="12px" y="76px" /><rect fill="rgb(236,44,44)" height="5px" width="5px" x="16px" y="76px" /><rect fill="rgb(236,44,44)" height="5px" width="5px" x="20px" y="76px" /><rect fill="rgb(74,70,55)" height="5px" width="5px" x="24px" y="76px" /><rect fill="rgb(35,33,44)" height="5px" width="5px" x="28px" y="76px" /><rect fill="rgb(46,43,53)" height="5px" width="5px" x="32px" y="76px" /><rect fill="rgb(46,43,53)" height="5px" width="5px" x="36px" y="76px" /><rect fill="rgb(32,29,40)" height="5px" width="5px" x="40px" y="76px" /><rect fill="rgb(68,64,50)" height="5px" width="5px" x="44px" y="76px" /><rect fill="rgb(236,44,44)" height="5px" width="5px" x="48px" y="76px" /><rect fill="rgb(236,44,44)" height="5px" width="5px" x="52px" y="76px" /><rect fill="rgb(236,44,44)" height="5px" width="5px" x="56px" y="76px" /><rect fill="rgb(121,132,153)" height="5px" opacity="0.372549019608" width="5px" x="76px" y="76px" /><rect fill="rgb(110,120,136)" height="5px" width="5px" x="80px" y="76px" /><rect fill="rgb(111,120,136)" height="5px" width="5px" x="84px" y="76px" /><rect fill="rgb(117,120,116)" height="5px" opacity="0.733333333333" width="5px" x="88px" y="76px" /><rect fill="rgb(236,44,44)" height="5px" width="5px" x="92px" y="76px" /><rect fill="rgb(236,44,44)" height="5px" width="5px" x="96px" y="76px" /><rect fill="rgb(236,44,44)" height="5px" width="5px" x="100px" y="76px" /><rect fill="rgb(115,112,105)" height="5px" opacity="0.733333333333" width="5px" x="104px" y="76px" /><rect fill="rgb(111,120,136)" height="5px" width="5px" x="108px" y="76px" /><rect fill="rgb(110,120,136)" height="5px" width="5px" x="112px" y="76px" /><rect fill="rgb(121,132,153)" height="5px" opacity="0.372549019608" width="5px" x="116px" y="76px" /><rect fill="rgb(247,214,58)" height="5px" opacity="0.121568627451" width="5px" x="12px" y="80px" /><rect fill="rgb(236,44,44)" height="5px" width="5px" x="16px" y="80px" /><rect fill="rgb(236,44,44)" height="5px" width="5px" x="20px" y="80px" /><rect fill="rgb(236,44,44)" height="5px" width="5px" x="24px" y="80px" /><rect fill="rgb(108,103,63)" height="5px" width="5px" x="28px" y="80px" /><rect fill="rgb(39,36,40)" height="5px" width="5px" x="32px" y="80px" /><rect fill="rgb(38,34,39)" height="5px" width="5px" x="36px" y="80px" /><rect fill="rgb(105,100,60)" height="5px" width="5px" x="40px" y="80px" /><rect fill="rgb(236,44,44)" height="5px" width="5px" x="44px" y="80px" /><rect fill="rgb(236,44,44)" height="5px" width="5px" x="48px" y="80px" /><rect fill="rgb(236,44,44)" height="5px" width="5px" x="52px" y="80px" /><rect fill="rgb(247,206,41)" height="5px" opacity="0.121568627451" width="5px" x="56px" y="80px" /><rect fill="rgb(122,133,153)" height="5px" opacity="0.498039215686" width="5px" x="76px" y="80px" /><rect fill="rgb(107,117,134)" height="5px" width="5px" x="80px" y="80px" /><rect fill="rgb(107,117,134)" height="5px" width="5px" x="84px" y="80px" /><rect fill="rgb(122,133,153)" height="5px" opacity="0.498039215686" width="5px" x="88px" y="80px" /><rect fill="rgb(122,133,153)" height="5px" opacity="0.498039215686" width="5px" x="104px" y="80px" /><rect fill="rgb(107,117,134)" height="5px" width="5px" x="108px" y="80px" /><rect fill="rgb(107,117,134)" height="5px" width="5px" x="112px" y="80px" /><rect fill="rgb(122,133,153)" height="5px" opacity="0.498039215686" width="5px" x="116px" y="80px" /><rect fill="rgb(236,44,44)" height="5px" width="5px" x="16px" y="84px" /><rect fill="rgb(236,44,44)" height="5px" width="5px" x="20px" y="84px" /><rect fill="rgb(236,44,44)" height="5px" width="5px" x="24px" y="84px" /><rect fill="rgb(236,44,44)" height="5px" width="5px" x="28px" y="84px" /><rect fill="rgb(236,44,44)" height="5px" width="5px" x="32px" y="84px" /><rect fill="rgb(236,44,44)" height="5px" width="5px" x="36px" y="84px" /><rect fill="rgb(236,44,44)" height="5px" width="5px" x="40px" y="84px" /><rect fill="rgb(236,44,44)" height="5px" width="5px" x="44px" y="84px" /><rect fill="rgb(236,44,44)" height="5px" width="5px" x="48px" y="84px" /><rect fill="rgb(236,44,44)" height="5px" width="5px" x="52px" y="84px" /><rect fill="rgb(122,133,153)" height="5px" opacity="0.498039215686" width="5px" x="76px" y="84px" /><rect fill="rgb(122,133,153)" height="5px" width="5px" x="80px" y="84px" /><rect fill="rgb(122,133,153)" height="5px" width="5px" x="84px" y="84px" /><rect fill="rgb(122,133,153)" height="5px" opacity="0.498039215686" width="5px" x="88px" y="84px" /><rect fill="rgb(122,133,153)" height="5px" opacity="0.498039215686" width="5px" x="104px" y="84px" /><rect fill="rgb(122,133,153)" height="5px" width="5px" x="108px" y="84px" /><rect fill="rgb(122,133,153)" height="5px" width="5px" x="112px" y="84px" /><rect fill="rgb(122,133,153)" height="5px" opacity="0.498039215686" width="5px" x="116px" y="84px" /><rect fill="rgb(255,223,96)" height="5px" opacity="0.0313725490196" width="5px" x="16px" y="88px" /><rect fill="rgb(236,44,44)" height="5px" width="5px" x="20px" y="88px" /><rect fill="rgb(236,44,44)" height="5px" width="5px" x="24px" y="88px" /><rect fill="rgb(236,44,44)" height="5px" width="5px" x="28px" y="88px" /><rect fill="rgb(236,44,44)" height="5px" width="5px" x="32px" y="88px" /><rect fill="rgb(236,44,44)" height="5px" width="5px" x="36px" y="88px" /><rect fill="rgb(236,44,44)" height="5px" width="5px" x="40px" y="88px" /><rect fill="rgb(236,44,44)" height="5px" width="5px" x="44px" y="88px" /><rect fill="rgb(236,44,44)" height="5px" width="5px" x="48px" y="88px" /><rect fill="rgb(223,191,32)" height="5px" opacity="0.0313725490196" width="5px" x="52px" y="88px" /><rect fill="rgb(122,133,153)" height="5px" opacity="0.498039215686" width="5px" x="76px" y="88px" /><rect fill="rgb(122,133,153)" height="5px" width="5px" x="80px" y="88px" /><rect fill="rgb(122,133,153)" height="5px" width="5px" x="84px" y="88px" /><rect fill="rgb(122,133,153)" height="5px" opacity="0.498039215686" width="5px" x="88px" y="88px" /><rect fill="rgb(122,133,153)" height="5px" opacity="0.498039215686" width="5px" x="104px" y="88px" /><rect fill="rgb(122,133,153)" height="5px" width="5px" x="108px" y="88px" /><rect fill="rgb(122,133,153)" height="5px" width="5px" x="112px" y="88px" /><rect fill="rgb(122,133,153)" height="5px" opacity="0.498039215686" width="5px" x="116px" y="88px" /><rect fill="rgb(153,153,102)" height="5px" opacity="0.0196078431373" width="5px" x="20px" y="92px" /><rect fill="rgb(120,118,120)" height="5px" width="5px" x="24px" y="92px" /><rect fill="rgb(152,144,108)" height="5px" width="5px" x="28px" y="92px" /><rect fill="rgb(175,159,94)" height="5px" width="5px" x="32px" y="92px" /><rect fill="rgb(173,154,88)" height="5px" width="5px" x="36px" y="92px" /><rect fill="rgb(150,136,97)" height="5px" width="5px" x="40px" y="92px" /><rect fill="rgb(120,118,119)" height="5px" width="5px" x="44px" y="92px" /><rect fill="rgb(153,153,51)" height="5px" opacity="0.0196078431373" width="5px" x="48px" y="92px" /><rect fill="rgb(91,94,118)" height="5px" opacity="0.372549019608" width="5px" x="76px" y="92px" /><rect fill="rgb(116,125,146)" height="5px" width="5px" x="80px" y="92px" /><rect fill="rgb(122,133,153)" height="5px" width="5px" x="84px" y="92px" /><rect fill="rgb(122,133,153)" height="5px" opacity="0.498039215686" width="5px" x="88px" y="92px" /><rect fill="rgb(122,133,153)" height="5px" opacity="0.498039215686" width="5px" x="104px" y="92px" /><rect fill="rgb(122,133,153)" height="5px" width="5px" x="108px" y="92px" /><rect fill="rgb(116,125,146)" height="5px" width="5px" x="112px" y="92px" /><rect fill="rgb(90,96,117)" height="5px" opacity="0.376470588235" width="5px" x="116px" y="92px" /><rect fill="rgb(119,116,123)" height="5px" opacity="0.301960784314" width="5px" x="20px" y="96px" /><rect fill="rgb(118,117,121)" height="5px" width="5px" x="24px" y="96px" /><rect fill="rgb(124,123,125)" height="5px" width="5px" x="28px" y="96px" /><rect fill="rgb(130,129,130)" height="5px" width="5px" x="32px" y="96px" /><rect fill="rgb(130,129,130)" height="5px" width="5px" x="36px" y="96px" /><rect fill="rgb(124,123,125)" height="5px" width="5px" x="40px" y="96px" /><rect fill="rgb(118,117,121)" height="5px" width="5px" x="44px" y="96px" /><rect fill="rgb(116,116,119)" height="5px" opacity="0.301960784314" width="5px" x="48px" y="96px" /><rect fill="rgb(86,90,112)" height="5px" opacity="0.498039215686" width="5px" x="80px" y="96px" /><rect fill="rgb(99,104,126)" height="5px" width="5px" x="84px" y="96px" /><rect fill="rgb(98,104,126)" height="5px" opacity="0.498039215686" width="5px" x="88px" y="96px" /><rect fill="rgb(98,104,126)" height="5px" opacity="0.498039215686" width="5px" x="104px" y="96px" /><rect fill="rgb(99,104,126)" height="5px" width="5px" x="108px" y="96px" /><rect fill="rgb(88,90,114)" height="5px" opacity="0.501960784314" width="5px" x="112px" y="96px" /><rect fill="rgb(104,102,106)" height="5px" opacity="0.498039215686" width="5px" x="12px" y="100px" /><rect fill="rgb(105,105,109)" height="5px" opacity="0.588235294118" width="5px" x="16px" y="100px" /><rect fill="rgb(110,109,113)" height="5px" opacity="0.960784313725" width="5px" x="20px" y="100px" /><rect fill="rgb(111,110,114)" height="5px" width="5px" x="24px" y="100px" /><rect fill="rgb(117,116,118)" height="5px" width="5px" x="28px" y="100px" /><rect fill="rgb(122,121,122)" height="5px" width="5px" x="32px" y="100px" /><rect fill="rgb(122,121,122)" height="5px" width="5px" x="36px" y="100px" /><rect fill="rgb(117,116,118)" height="5px" width="5px" x="40px" y="100px" /><rect fill="rgb(111,110,114)" height="5px" width="5px" x="44px" y="100px" /><rect fill="rgb(110,109,113)" height="5px" opacity="0.960784313725" width="5px" x="48px" y="100px" /><rect fill="rgb(105,105,109)" height="5px" opacity="0.588235294118" width="5px" x="52px" y="100px" /><rect fill="rgb(104,102,106)" height="5px" opacity="0.498039215686" width="5px" x="56px" y="100px" /><rect fill="rgb(104,103,107)" height="5px" width="5px" x="12px" y="104px" /><rect fill="rgb(104,103,107)" height="5px" width="5px" x="16px" y="104px" /><rect fill="rgb(104,103,107)" height="5px" width="5px" x="20px" y="104px" /><rect fill="rgb(104,103,107)" height="5px" width="5px" x="24px" y="104px" /><rect fill="rgb(104,103,107)" height="5px" width="5px" x="28px" y="104px" /><rect fill="rgb(104,103,107)" height="5px" width="5px" x="32px" y="104px" /><rect fill="rgb(104,103,107)" height="5px" width="5px" x="36px" y="104px" /><rect fill="rgb(104,103,107)" height="5px" width="5px" x="40px" y="104px" /><rect fill="rgb(104,103,107)" height="5px" width="5px" x="44px" y="104px" /><rect fill="rgb(104,103,107)" height="5px" width="5px" x="48px" y="104px" /><rect fill="rgb(104,103,107)" height="5px" width="5px" x="52px" y="104px" /><rect fill="rgb(104,103,107)" height="5px" width="5px" x="56px" y="104px" /><rect fill="rgb(85,83,89)" height="5px" width="5px" x="12px" y="108px" /><rect fill="rgb(85,83,89)" height="5px" width="5px" x="16px" y="108px" /><rect fill="rgb(85,83,89)" height="5px" width="5px" x="20px" y="108px" /><rect fill="rgb(85,83,89)" height="5px" width="5px" x="24px" y="108px" /><rect fill="rgb(85,83,89)" height="5px" width="5px" x="28px" y="108px" /><rect fill="rgb(85,83,89)" height="5px" width="5px" x="32px" y="108px" /><rect fill="rgb(85,83,89)" height="5px" width="5px" x="36px" y="108px" /><rect fill="rgb(85,83,89)" height="5px" width="5px" x="40px" y="108px" /><rect fill="rgb(85,83,89)" height="5px" width="5px" x="44px" y="108px" /><rect fill="rgb(85,83,89)" height="5px" width="5px" x="48px" y="108px" /><rect fill="rgb(85,83,89)" height="5px" width="5px" x="52px" y="108px" /><rect fill="rgb(85,83,89)" height="5px" width="5px" x="56px" y="108px" /><rect fill="rgb(66,64,72)" height="5px" width="5px" x="12px" y="112px" /><rect fill="rgb(66,64,72)" height="5px" width="5px" x="16px" y="112px" /><rect fill="rgb(66,64,72)" height="5px" width="5px" x="20px" y="112px" /><rect fill="rgb(66,64,72)" height="5px" width="5px" x="24px" y="112px" /><rect fill="rgb(66,64,72)" height="5px" width="5px" x="28px" y="112px" /><rect fill="rgb(66,64,72)" height="5px" width="5px" x="32px" y="112px" /><rect fill="rgb(66,64,72)" height="5px" width="5px" x="36px" y="112px" /><rect fill="rgb(66,64,72)" height="5px" width="5px" x="40px" y="112px" /><rect fill="rgb(66,64,72)" height="5px" width="5px" x="44px" y="112px" /><rect fill="rgb(66,64,72)" height="5px" width="5px" x="48px" y="112px" /><rect fill="rgb(66,64,72)" height="5px" width="5px" x="52px" y="112px" /><rect fill="rgb(66,64,72)" height="5px" width="5px" x="56px" y="112px" /></svg>