<?xml version="1.0" encoding="utf-8" ?>
<svg baseProfile="full" height="128px" version="1.1" width="128px" xmlns="http://www.w3.org/2000/svg" xmlns:ev="http://www.w3.org/2001/xml-events" xmlns:xlink="http://www.w3.org/1999/xlink"><defs /><rect fill="rgb(255,255,255)" height="5px" opacity="0.0549019607843" width="5px" x="0px" y="0px" /><rect fill="rgb(255,255,255)" height="5px" opacity="0.0313725490196" width="5px" x="4px" y="0px" /><rect fill="rgb(255,255,255)" height="5px" opacity="0.0196078431373" width="5px" x="8px" y="0px" /><rect fill="rgb(255,255,255)" height="5px" opacity="0.0078431372549" width="5px" x="12px" y="0px" /><rect fill="rgb(255,255,255)" height="5px" opacity="0.00392156862745" width="5px" x="16px" y="0px" /><rect fill="rgb(255,255,255)" height="5px" opacity="0.00392156862745" width="5px" x="84px" y="0px" /><rect fill="rgb(255,255,255)" height="5px" opacity="0.00392156862745" width="5px" x="88px" y="0px" /><rect fill="rgb(255,255,255)" height="5px" opacity="0.00392156862745" width="5px" x="92px" y="0px" /><rect fill="rgb(255,255,255)" height="5px" opacity="0.00392156862745" width="5px" x="96px" y="0px" /><rect fill="rgb(255,255,255)" height="5px" opacity="0.00392156862745" width="5px" x="100px" y="0px" /><rect fill="rgb(255,255,255)" height="5px" opacity="0.00392156862745" width="5px" x="104px" y="0px" /><rect fill="rgb(255,255,255)" height="5px" opacity="0.00392156862745" width="5px" x="108px" y="0px" /><rect fill="rgb(255,255,255)" height="5px" opacity="0.00392156862745" width="5px" x="112px" y="0px" /><rect fill="rgb(255,255,255)" height="5px" opacity="0.00392156862745" width="5px" x="116px" y="0px" /><rect fill="rgb(255,255,255)" height="5px" opacity="0.00392156862745" width="5px" x="120px" y="0px" /><rect fill="rgb(255,255,255)" height="5px" opacity="0.00392156862745" width="5px" x="124px" y="0px" /><rect fill="rgb(255,255,255)" height="5px" opacity="0.00392156862745" width="5px" x="92px" y="12px" /><rect fill="rgb(255,255,255)" height="5px" opacity="0.00392156862745" width="5px" x="96px" y="12px" /><rect fill="rgb(255,255,255)" height="5px" opacity="0.00392156862745" width="5px" x="100px" y="12px" /><rect fill="rgb(255,255,255)" height="5px" opacity="0.00392156862745" width="5px" x="104px" y="12px" /><rect fill="rgb(255,255,255)" height="5px" opacity="0.00392156862745" width="5px" x="108px" y="12px" /><rect fill="rgb(255,255,255)" height="5px" opacity="0.00392156862745" width="5px" x="112px" y="12px" /><rect fill="rgb(255,255,255)" height="5px" opacity="0.00392156862745" width="5px" x="116px" y="12px" /><rect fill="rgb(55,55,55)" height="5px" opacity="0.509803921569" width="5px" x="52px" y="24px" /><rect fill="rgb(0,0,0)" height="5px" width="5px" x="60px" y="24px" /><rect fill="rgb(0,0,0)" height="5px" width="5px" x="64px" y="24px" /><rect fill="rgb(54,54,54)" height="5px" opacity="0.643137254902" width="5px" x="72px" y="24px" /><rect fill="rgb(55,55,55)" height="5px" opacity="0.274509803922" width="5px" x="48px" y="28px" /><rect fill="rgb(55,55,55)" height="5px" opacity="0.988235294118" width="5px" x="52px" y="28px" /><rect fill="rgb(0,0,0)" height="5px" width="5px" x="60px" y="28px" /><rect fill="rgb(0,0,0)" height="5px" width="5px" x="64px" y="28px" /><rect fill="rgb(55,55,55)" height="5px" opacity="0.96862745098" width="5px" x="72px" y="28px" /><rect fill="rgb(55,55,55)" height="5px" opacity="0.654901960784" width="5px" x="76px" y="28px" /><rect fill="rgb(85,85,85)" height="5px" opacity="0.0117647058824" width="5px" x="44px" y="32px" /><rect fill="rgb(55,55,55)" height="5px" opacity="0.976470588235" width="5px" x="48px" y="32px" /><rect fill="rgb(55,55,55)" height="5px" opacity="0.996078431373" width="5px" x="52px" y="32px" /><rect fill="rgb(0,0,0)" height="5px" width="5px" x="60px" y="32px" /><rect fill="rgb(0,0,0)" height="5px" width="5px" x="64px" y="32px" /><rect fill="rgb(55,55,55)" height="5px" opacity="0.96862745098" width="5px" x="72px" y="32px" /><rect fill="rgb(204,204,204)" height="5px" opacity="0.937254901961" width="5px" x="76px" y="32px" /><rect fill="rgb(57,57,57)" height="5px" opacity="0.247058823529" width="5px" x="80px" y="32px" /><rect fill="rgb(56,56,56)" height="5px" opacity="0.827450980392" width="5px" x="44px" y="36px" /><rect fill="rgb(204,204,204)" height="5px" opacity="0.937254901961" width="5px" x="48px" y="36px" /><rect fill="rgb(55,55,55)" height="5px" opacity="0.992156862745" width="5px" x="52px" y="36px" /><rect fill="rgb(0,0,0)" height="5px" width="5px" x="60px" y="36px" /><rect fill="rgb(0,0,0)" height="5px" width="5px" x="64px" y="36px" /><rect fill="rgb(55,55,55)" height="5px" opacity="0.96862745098" width="5px" x="72px" y="36px" /><rect fill="rgb(204,204,204)" height="5px" opacity="0.937254901961" width="5px" x="76px" y="36px" /><rect fill="rgb(54,54,54)" height="5px" opacity="0.972549019608" width="5px" x="80px" y="36px" /><rect fill="rgb(255,255,255)" height="5px" opacity="0.00392156862745" width="5px" x="120px" y="36px" /><rect fill="rgb(255,255,255)" height="5px" opacity="0.00392156862745" width="5px" x="124px" y="36px" /><rect fill="rgb(56,56,56)" height="5px" opacity="0.427450980392" width="5px" x="40px" y="40px" /><rect fill="rgb(204,204,204)" height="5px" opacity="0.937254901961" width="5px" x="44px" y="40px" /><rect fill="rgb(204,204,204)" height="5px" opacity="0.937254901961" width="5px" x="48px" y="40px" /><rect fill="rgb(55,55,55)" height="5px" opacity="0.992156862745" width="5px" x="52px" y="40px" /><rect fill="rgb(0,0,0)" height="5px" width="5px" x="60px" y="40px" /><rect fill="rgb(0,0,0)" height="5px" width="5px" x="64px" y="40px" /><rect fill="rgb(55,55,55)" height="5px" opacity="0.96862745098" width="5px" x="72px" y="40px" /><rect fill="rgb(204,204,204)" height="5px" opacity="0.937254901961" width="5px" x="76px" y="40px" /><rect fill="rgb(204,204,204)" height="5px" opacity="0.937254901961" width="5px" x="80px" y="40px" /><rect fill="rgb(54,54,54)" height="5px" opacity="0.772549019608" width="5px" x="84px" y="40px" /><rect fill="rgb(255,255,255)" height="5px" opacity="0.00392156862745" width="5px" x="88px" y="40px" /><rect fill="rgb(255,255,255)" height="5px" opacity="0.00392156862745" width="5px" x="92px" y="40px" /><rect fill="rgb(255,255,255)" height="5px" opacity="0.00392156862745" width="5px" x="96px" y="40px" /><rect fill="rgb(255,255,255)" height="5px" opacity="0.0078431372549" width="5px" x="100px" y="40px" /><rect fill="rgb(255,255,255)" height="5px" opacity="0.0117647058824" width="5px" x="104px" y="40px" /><rect fill="rgb(255,255,255)" height="5px" opacity="0.0117647058824" width="5px" x="108px" y="40px" /><rect fill="rgb(255,255,255)" height="5px" opacity="0.0117647058824" width="5px" x="112px" y="40px" /><rect fill="rgb(255,255,255)" height="5px" opacity="0.0117647058824" width="5px" x="116px" y="40px" /><rect fill="rgb(255,255,255)" height="5px" opacity="0.0117647058824" width="5px" x="120px" y="40px" /><rect fill="rgb(255,255,255)" height="5px" opacity="0.0117647058824" width="5px" x="124px" y="40px" /><rect fill="rgb(61,61,61)" height="5px" opacity="0.0823529411765" width="5px" x="36px" y="44px" /><rect fill="rgb(55,55,55)" height="5px" opacity="0.992156862745" width="5px" x="40px" y="44px" /><rect fill="rgb(204,204,204)" height="5px" opacity="0.937254901961" width="5px" x="44px" y="44px" /><rect fill="rgb(204,204,204)" height="5px" opacity="0.937254901961" width="5px" x="48px" y="44px" /><rect fill="rgb(55,55,55)" height="5px" opacity="0.988235294118" width="5px" x="52px" y="44px" /><rect fill="rgb(0,0,0)" height="5px" width="5px" x="60px" y="44px" /><rect fill="rgb(0,0,0)" height="5px" width="5px" x="64px" y="44px" /><rect fill="rgb(55,55,55)" height="5px" opacity="0.964705882353" width="5px" x="72px" y="44px" /><rect fill="rgb(204,204,204)" height="5px" opacity="0.937254901961" width="5px" x="76px" y="44px" /><rect fill="rgb(204,204,204)" height="5px" opacity="0.937254901961" width="5px" x="80px" y="44px" /><rect fill="rgb(204,204,204)" height="5px" opacity="0.937254901961" width="5px" x="84px" y="44px" /><rect fill="rgb(58,58,58)" height="5px" opacity="0.376470588235" width="5px" x="88px" y="44px" /><rect fill="rgb(255,255,255)" height="5px" opacity="0.00392156862745" width="5px" x="92px" y="44px" /><rect fill="rgb(255,255,255)" height="5px" opacity="0.00392156862745" width="5px" x="96px" y="44px" /><rect fill="rgb(255,255,255)" height="5px" opacity="0.00392156862745" width="5px" x="100px" y="44px" /><rect fill="rgb(255,255,255)" height="5px" opacity="0.00392156862745" width="5px" x="104px" y="44px" /><rect fill="rgb(55,55,55)" height="5px" opacity="0.913725490196" width="5px" x="36px" y="48px" /><rect fill="rgb(204,204,204)" height="5px" opacity="0.937254901961" width="5px" x="40px" y="48px" /><rect fill="rgb(204,204,204)" height="5px" opacity="0.937254901961" width="5px" x="44px" y="48px" /><rect fill="rgb(204,204,204)" height="5px" opacity="0.937254901961" width="5px" x="48px" y="48px" /><rect fill="rgb(55,55,55)" height="5px" opacity="0.988235294118" width="5px" x="52px" y="48px" /><rect fill="rgb(0,0,0)" height="5px" width="5px" x="60px" y="48px" /><rect fill="rgb(0,0,0)" height="5px" width="5px" x="64px" y="48px" /><rect fill="rgb(55,55,55)" height="5px" opacity="0.964705882353" width="5px" x="72px" y="48px" /><rect fill="rgb(204,204,204)" height="5px" opacity="0.937254901961" width="5px" x="76px" y="48px" /><rect fill="rgb(204,204,204)" height="5px" opacity="0.937254901961" width="5px" x="80px" y="48px" /><rect fill="rgb(204,204,204)" height="5px" opacity="0.937254901961" width="5px" x="84px" y="48px" /><rect fill="rgb(55,55,55)" height="5px" opacity="0.988235294118" width="5px" x="88px" y="48px" /><rect fill="rgb(57,57,57)" height="5px" opacity="0.0352941176471" width="5px" x="92px" y="48px" /><rect fill="rgb(54,54,54)" height="5px" opacity="0.607843137255" width="5px" x="32px" y="52px" /><rect fill="rgb(204,204,204)" height="5px" opacity="0.937254901961" width="5px" x="36px" y="52px" /><rect fill="rgb(204,204,204)" height="5px" opacity="0.937254901961" width="5px" x="40px" y="52px" /><rect fill="rgb(204,204,204)" height="5px" opacity="0.937254901961" width="5px" x="44px" y="52px" /><rect fill="rgb(204,204,204)" height="5px" opacity="0.937254901961" width="5px" x="48px" y="52px" /><rect fill="rgb(55,55,55)" height="5px" opacity="0.98431372549" width="5px" x="52px" y="52px" /><rect fill="rgb(0,0,0)" height="5px" width="5px" x="60px" y="52px" /><rect fill="rgb(0,0,0)" height="5px" width="5px" x="64px" y="52px" /><rect fill="rgb(55,55,55)" height="5px" opacity="0.960784313725" width="5px" x="72px" y="52px" /><rect fill="rgb(204,204,204)" height="5px" opacity="0.937254901961" width="5px" x="76px" y="52px" /><rect fill="rgb(204,204,204)" height="5px" opacity="0.937254901961" width="5px" x="80px" y="52px" /><rect fill="rgb(204,204,204)" height="5px" opacity="0.937254901961" width="5px" x="84px" y="52px" /><rect fill="rgb(204,204,204)" height="5px" opacity="0.937254901961" width="5px" x="88px" y="52px" /><rect fill="rgb(55,55,55)" height="5px" opacity="0.866666666667" width="5px" x="92px" y="52px" /><rect fill="rgb(57,57,57)" height="5px" opacity="0.176470588235" width="5px" x="28px" y="56px" /><rect fill="rgb(204,204,204)" height="5px" opacity="0.937254901961" width="5px" x="32px" y="56px" /><rect fill="rgb(204,204,204)" height="5px" opacity="0.937254901961" width="5px" x="36px" y="56px" /><rect fill="rgb(204,204,204)" height="5px" opacity="0.937254901961" width="5px" x="40px" y="56px" /><rect fill="rgb(204,204,204)" height="5px" opacity="0.937254901961" width="5px" x="44px" y="56px" /><rect fill="rgb(204,204,204)" height="5px" opacity="0.937254901961" width="5px" x="48px" y="56px" /><rect fill="rgb(55,55,55)" height="5px" opacity="0.980392156863" width="5px" x="52px" y="56px" /><rect fill="rgb(0,0,0)" height="5px" width="5px" x="60px" y="56px" /><rect fill="rgb(0,0,0)" height="5px" width="5px" x="64px" y="56px" /><rect fill="rgb(55,55,55)" height="5px" opacity="0.960784313725" width="5px" x="72px" y="56px" /><rect fill="rgb(204,204,204)" height="5px" opacity="0.937254901961" width="5px" x="76px" y="56px" /><rect fill="rgb(204,204,204)" height="5px" opacity="0.937254901961" width="5px" x="80px" y="56px" /><rect fill="rgb(204,204,204)" height="5px" opacity="0.937254901961" width="5px" x="84px" y="56px" /><rect fill="rgb(204,204,204)" height="5px" opacity="0.937254901961" width="5px" x="88px" y="56px" /><rect fill="rgb(204,204,204)" height="5px" opacity="0.937254901961" width="5px" x="92px" y="56px" /><rect fill="rgb(54,54,54)" height="5px" opacity="0.517647058824" width="5px" x="96px" y="56px" /><rect fill="rgb(55,55,55)" height="5px" opacity="0.960784313725" width="5px" x="28px" y="60px" /><rect fill="rgb(204,204,204)" height="5px" opacity="0.937254901961" width="5px" x="32px" y="60px" /><rect fill="rgb(204,204,204)" height="5px" opacity="0.937254901961" width="5px" x="36px" y="60px" /><rect fill="rgb(204,204,204)" height="5px" opacity="0.937254901961" width="5px" x="40px" y="60px" /><rect fill="rgb(204,204,204)" height="5px" opacity="0.937254901961" width="5px" x="44px" y="60px" /><rect fill="rgb(204,204,204)" height="5px" opacity="0.937254901961" width="5px" x="48px" y="60px" /><rect fill="rgb(55,55,55)" height="5px" opacity="0.976470588235" width="5px" x="52px" y="60px" /><rect fill="rgb(0,0,0)" height="5px" width="5px" x="60px" y="60px" /><rect fill="rgb(0,0,0)" height="5px" width="5px" x="64px" y="60px" /><rect fill="rgb(55,55,55)" height="5px" opacity="0.960784313725" width="5px" x="72px" y="60px" /><rect fill="rgb(204,204,204)" height="5px" opacity="0.937254901961" width="5px" x="76px" y="60px" /><rect fill="rgb(204,204,204)" height="5px" opacity="0.937254901961" width="5px" x="80px" y="60px" /><rect fill="rgb(204,204,204)" height="5px" opacity="0.937254901961" width="5px" x="84px" y="60px" /><rect fill="rgb(204,204,204)" height="5px" opacity="0.937254901961" width="5px" x="88px" y="60px" /><rect fill="rgb(204,204,204)" height="5px" opacity="0.937254901961" width="5px" x="92px" y="60px" /><rect fill="rgb(55,55,55)" height="5px" opacity="0.996078431373" width="5px" x="96px" y="60px" /><rect fill="rgb(53,53,53)" height="5px" opacity="0.133333333333" width="5px" x="100px" y="60px" /><rect fill="rgb(55,55,55)" height="5px" opacity="0.760784313725" width="5px" x="24px" y="64px" /><rect fill="rgb(204,204,204)" height="5px" opacity="0.937254901961" width="5px" x="28px" y="64px" /><rect fill="rgb(204,204,204)" height="5px" opacity="0.937254901961" width="5px" x="32px" y="64px" /><rect fill="rgb(204,204,204)" height="5px" opacity="0.937254901961" width="5px" x="36px" y="64px" /><rect fill="rgb(204,204,204)" height="5px" opacity="0.937254901961" width="5px" x="40px" y="64px" /><rect fill="rgb(204,204,204)" height="5px" opacity="0.937254901961" width="5px" x="44px" y="64px" /><rect fill="rgb(204,204,204)" height="5px" opacity="0.937254901961" width="5px" x="48px" y="64px" /><rect fill="rgb(55,55,55)" height="5px" opacity="0.976470588235" width="5px" x="52px" y="64px" /><rect fill="rgb(0,0,0)" height="5px" width="5px" x="60px" y="64px" /><rect fill="rgb(0,0,0)" height="5px" width="5px" x="64px" y="64px" /><rect fill="rgb(55,55,55)" height="5px" opacity="0.956862745098" width="5px" x="72px" y="64px" /><rect fill="rgb(204,204,204)" height="5px" opacity="0.937254901961" width="5px" x="76px" y="64px" /><rect fill="rgb(204,204,204)" height="5px" opacity="0.937254901961" width="5px" x="80px" y="64px" /><rect fill="rgb(204,204,204)" height="5px" opacity="0.937254901961" width="5px" x="84px" y="64px" /><rect fill="rgb(204,204,204)" height="5px" opacity="0.937254901961" width="5px" x="88px" y="64px" /><rect fill="rgb(204,204,204)" height="5px" opacity="0.937254901961" width="5px" x="92px" y="64px" /><rect fill="rgb(204,204,204)" height="5px" opacity="0.937254901961" width="5px" x="96px" y="64px" /><rect fill="rgb(55,55,55)" height="5px" opacity="0.925490196078" width="5px" x="100px" y="64px" /><rect fill="rgb(56,56,56)" height="5px" opacity="0.341176470588" width="5px" x="20px" y="68px" /><rect fill="rgb(204,204,204)" height="5px" opacity="0.937254901961" width="5px" x="24px" y="68px" /><rect fill="rgb(204,204,204)" height="5px" opacity="0.937254901961" width="5px" x="28px" y="68px" /><rect fill="rgb(204,204,204)" height="5px" opacity="0.937254901961" width="5px" x="32px" y="68px" /><rect fill="rgb(204,204,204)" height="5px" opacity="0.937254901961" width="5px" x="36px" y="68px" /><rect fill="rgb(204,204,204)" height="5px" opacity="0.937254901961" width="5px" x="40px" y="68px" /><rect fill="rgb(204,204,204)" height="5px" opacity="0.937254901961" width="5px" x="44px" y="68px" /><rect fill="rgb(204,204,204)" height="5px" opacity="0.937254901961" width="5px" x="48px" y="68px" /><rect fill="rgb(54,54,54)" height="5px" opacity="0.972549019608" width="5px" x="52px" y="68px" /><rect fill="rgb(0,0,0)" height="5px" width="5px" x="60px" y="68px" /><rect fill="rgb(0,0,0)" height="5px" width="5px" x="64px" y="68px" /><rect fill="rgb(55,55,55)" height="5px" opacity="0.956862745098" width="5px" x="72px" y="68px" /><rect fill="rgb(204,204,204)" height="5px" opacity="0.937254901961" width="5px" x="76px" y="68px" /><rect fill="rgb(204,204,204)" height="5px" opacity="0.937254901961" width="5px" x="80px" y="68px" /><rect fill="rgb(204,204,204)" height="5px" opacity="0.937254901961" width="5px" x="84px" y="68px" /><rect fill="rgb(204,204,204)" height="5px" opacity="0.937254901961" width="5px" x="88px" y="68px" /><rect fill="rgb(204,204,204)" height="5px" opacity="0.937254901961" width="5px" x="92px" y="68px" /><rect fill="rgb(204,204,204)" height="5px" opacity="0.937254901961" width="5px" x="96px" y="68px" /><rect fill="rgb(204,204,204)" height="5px" opacity="0.937254901961" width="5px" x="100px" y="68px" /><rect fill="rgb(56,56,56)" height="5px" opacity="0.647058823529" width="5px" x="104px" y="68px" /><rect fill="rgb(43,43,43)" height="5px" opacity="0.0235294117647" width="5px" x="16px" y="72px" /><rect fill="rgb(55,55,55)" height="5px" opacity="0.98431372549" width="5px" x="20px" y="72px" /><rect fill="rgb(204,204,204)" height="5px" opacity="0.937254901961" width="5px" x="24px" y="72px" /><rect fill="rgb(204,204,204)" height="5px" opacity="0.937254901961" width="5px" x="28px" y="72px" /><rect fill="rgb(204,204,204)" height="5px" opacity="0.937254901961" width="5px" x="32px" y="72px" /><rect fill="rgb(204,204,204)" height="5px" opacity="0.937254901961" width="5px" x="36px" y="72px" /><rect fill="rgb(204,204,204)" height="5px" opacity="0.937254901961" width="5px" x="40px" y="72px" /><rect fill="rgb(204,204,204)" height="5px" opacity="0.937254901961" width="5px" x="44px" y="72px" /><rect fill="rgb(204,204,204)" height="5px" opacity="0.937254901961" width="5px" x="48px" y="72px" /><rect fill="rgb(55,55,55)" height="5px" opacity="0.964705882353" width="5px" x="52px" y="72px" /><rect fill="rgb(0,0,0)" height="5px" width="5px" x="60px" y="72px" /><rect fill="rgb(0,0,0)" height="5px" width="5px" x="64px" y="72px" /><rect fill="rgb(55,55,55)" height="5px" opacity="0.956862745098" width="5px" x="72px" y="72px" /><rect fill="rgb(204,204,204)" height="5px" opacity="0.937254901961" width="5px" x="76px" y="72px" /><rect fill="rgb(204,204,204)" height="5px" opacity="0.937254901961" width="5px" x="80px" y="72px" /><rect fill="rgb(204,204,204)" height="5px" opacity="0.937254901961" width="5px" x="84px" y="72px" /><rect fill="rgb(204,204,204)" height="5px" opacity="0.937254901961" width="5px" x="88px" y="72px" /><rect fill="rgb(204,204,204)" height="5px" opacity="0.937254901961" width="5px" x="92px" y="72px" /><rect fill="rgb(204,204,204)" height="5px" opacity="0.937254901961" width="5px" x="96px" y="72px" /><rect fill="rgb(204,204,204)" height="5px" opacity="0.937254901961" width="5px" x="100px" y="72px" /><rect fill="rgb(204,204,204)" height="5px" opacity="0.937254901961" width="5px" x="104px" y="72px" /><rect fill="rgb(55,55,55)" height="5px" opacity="0.235294117647" width="5px" x="108px" y="72px" /><rect fill="rgb(55,55,55)" height="5px" opacity="0.870588235294" width="5px" x="16px" y="76px" /><rect fill="rgb(204,204,204)" height="5px" opacity="0.937254901961" width="5px" x="20px" y="76px" /><rect fill="rgb(204,204,204)" height="5px" opacity="0.937254901961" width="5px" x="24px" y="76px" /><rect fill="rgb(204,204,204)" height="5px" opacity="0.937254901961" width="5px" x="28px" y="76px" /><rect fill="rgb(204,204,204)" height="5px" opacity="0.937254901961" width="5px" x="32px" y="76px" /><rect fill="rgb(204,204,204)" height="5px" opacity="0.937254901961" width="5px" x="36px" y="76px" /><rect fill="rgb(204,204,204)" height="5px" opacity="0.937254901961" width="5px" x="40px" y="76px" /><rect fill="rgb(204,204,204)" height="5px" opacity="0.937254901961" width="5px" x="44px" y="76px" /><rect fill="rgb(204,204,204)" height="5px" opacity="0.937254901961" width="5px" x="48px" y="76px" /><rect fill="rgb(55,55,55)" height="5px" opacity="0.960784313725" width="5px" x="52px" y="76px" /><rect fill="rgb(0,0,0)" height="5px" width="5px" x="60px" y="76px" /><rect fill="rgb(0,0,0)" height="5px" width="5px" x="64px" y="76px" /><rect fill="rgb(55,55,55)" height="5px" opacity="0.952941176471" width="5px" x="72px" y="76px" /><rect fill="rgb(204,204,204)" height="5px" opacity="0.937254901961" width="5px" x="76px" y="76px" /><rect fill="rgb(204,204,204)" height="5px" opacity="0.937254901961" width="5px" x="80px" y="76px" /><rect fill="rgb(204,204,204)" height="5px" opacity="0.937254901961" width="5px" x="84px" y="76px" /><rect fill="rgb(204,204,204)" height="5px" opacity="0.937254901961" width="5px" x="88px" y="76px" /><rect fill="rgb(204,204,204)" height="5px" opacity="0.937254901961" width="5px" x="92px" y="76px" /><rect fill="rgb(204,204,204)" height="5px" opacity="0.937254901961" width="5px" x="96px" y="76px" /><rect fill="rgb(204,204,204)" height="5px" opacity="0.937254901961" width="5px" x="100px" y="76px" /><rect fill="rgb(204,204,204)" height="5px" opacity="0.937254901961" width="5px" x="104px" y="76px" /><rect fill="rgb(204,204,204)" height="5px" opacity="0.937254901961" width="5px" x="108px" y="76px" /><rect fill="rgb(55,55,55)" height="5px" opacity="0.490196078431" width="5px" x="12px" y="80px" /><rect fill="rgb(204,204,204)" height="5px" opacity="0.937254901961" width="5px" x="16px" y="80px" /><rect fill="rgb(204,204,204)" height="5px" opacity="0.937254901961" width="5px" x="20px" y="80px" /><rect fill="rgb(204,204,204)" height="5px" opacity="0.937254901961" width="5px" x="24px" y="80px" /><rect fill="rgb(204,204,204)" height="5px" opacity="0.937254901961" width="5px" x="28px" y="80px" /><rect fill="rgb(204,204,204)" height="5px" opacity="0.937254901961" width="5px" x="32px" y="80px" /><rect fill="rgb(204,204,204)" height="5px" opacity="0.937254901961" width="5px" x="36px" y="80px" /><rect fill="rgb(204,204,204)" height="5px" opacity="0.937254901961" width="5px" x="40px" y="80px" /><rect fill="rgb(204,204,204)" height="5px" opacity="0.937254901961" width="5px" x="44px" y="80px" /><rect fill="rgb(204,204,204)" height="5px" opacity="0.937254901961" width="5px" x="48px" y="80px" /><rect fill="rgb(55,55,55)" height="5px" opacity="0.956862745098" width="5px" x="52px" y="80px" /><rect fill="rgb(0,0,0)" height="5px" width="5px" x="60px" y="80px" /><rect fill="rgb(0,0,0)" height="5px" width="5px" x="64px" y="80px" /><rect fill="rgb(55,55,55)" height="5px" opacity="0.949019607843" width="5px" x="72px" y="80px" /><rect fill="rgb(204,204,204)" height="5px" opacity="0.937254901961" width="5px" x="76px" y="80px" /><rect fill="rgb(204,204,204)" height="5px" opacity="0.937254901961" width="5px" x="80px" y="80px" /><rect fill="rgb(204,204,204)" height="5px" opacity="0.937254901961" width="5px" x="84px" y="80px" /><rect fill="rgb(204,204,204)" height="5px" opacity="0.937254901961" width="5px" x="88px" y="80px" /><rect fill="rgb(204,204,204)" height="5px" opacity="0.937254901961" width="5px" x="92px" y="80px" /><rect fill="rgb(204,204,204)" height="5px" opacity="0.937254901961" width="5px" x="96px" y="80px" /><rect fill="rgb(204,204,204)" height="5px" opacity="0.937254901961" width="5px" x="100px" y="80px" /><rect fill="rgb(204,204,204)" height="5px" opacity="0.937254901961" width="5px" x="104px" y="80px" /><rect fill="rgb(204,204,204)" height="5px" opacity="0.937254901961" width="5px" x="108px" y="80px" /><rect fill="rgb(55,55,55)" height="5px" opacity="0.756862745098" width="5px" x="112px" y="80px" /><rect fill="rgb(56,56,56)" height="5px" opacity="0.125490196078" width="5px" x="8px" y="84px" /><rect fill="rgb(55,55,55)" height="5px" opacity="0.996078431373" width="5px" x="12px" y="84px" /><rect fill="rgb(204,204,204)" height="5px" opacity="0.937254901961" width="5px" x="16px" y="84px" /><rect fill="rgb(204,204,204)" height="5px" opacity="0.937254901961" width="5px" x="20px" y="84px" /><rect fill="rgb(204,204,204)" height="5px" opacity="0.937254901961" width="5px" x="24px" y="84px" /><rect fill="rgb(204,204,204)" height="5px" opacity="0.937254901961" width="5px" x="28px" y="84px" /><rect fill="rgb(204,204,204)" height="5px" opacity="0.937254901961" width="5px" x="32px" y="84px" /><rect fill="rgb(204,204,204)" height="5px" opacity="0.937254901961" width="5px" x="36px" y="84px" /><rect fill="rgb(204,204,204)" height="5px" opacity="0.937254901961" width="5px" x="40px" y="84px" /><rect fill="rgb(204,204,204)" height="5px" opacity="0.937254901961" width="5px" x="44px" y="84px" /><rect fill="rgb(204,204,204)" height="5px" opacity="0.937254901961" width="5px" x="48px" y="84px" /><rect fill="rgb(55,55,55)" height="5px" opacity="0.949019607843" width="5px" x="52px" y="84px" /><rect fill="rgb(0,0,0)" height="5px" width="5px" x="60px" y="84px" /><rect fill="rgb(0,0,0)" height="5px" width="5px" x="64px" y="84px" /><rect fill="rgb(55,55,55)" height="5px" opacity="0.949019607843" width="5px" x="72px" y="84px" /><rect fill="rgb(204,204,204)" height="5px" opacity="0.937254901961" width="5px" x="76px" y="84px" /><rect fill="rgb(204,204,204)" height="5px" opacity="0.937254901961" width="5px" x="80px" y="84px" /><rect fill="rgb(204,204,204)" height="5px" opacity="0.937254901961" width="5px" x="84px" y="84px" /><rect fill="rgb(204,204,204)" height="5px" opacity="0.937254901961" width="5px" x="88px" y="84px" /><rect fill="rgb(204,204,204)" height="5px" opacity="0.937254901961" width="5px" x="92px" y="84px" /><rect fill="rgb(204,204,204)" height="5px" opacity="0.937254901961" width="5px" x="96px" y="84px" /><rect fill="rgb(204,204,204)" height="5px" opacity="0.937254901961" width="5px" x="100px" y="84px" /><rect fill="rgb(204,204,204)" height="5px" opacity="0.937254901961" width="5px" x="104px" y="84px" /><rect fill="rgb(204,204,204)" height="5px" opacity="0.937254901961" width="5px" x="108px" y="84px" /><rect fill="rgb(204,204,204)" height="5px" opacity="0.937254901961" width="5px" x="112px" y="84px" /><rect fill="rgb(54,54,54)" height="5px" opacity="0.36862745098" width="5px" x="116px" y="84px" /><rect fill="rgb(55,55,55)" height="5px" opacity="0.941176470588" width="5px" x="8px" y="88px" /><rect fill="rgb(204,204,204)" height="5px" opacity="0.937254901961" width="5px" x="12px" y="88px" /><rect fill="rgb(204,204,204)" height="5px" opacity="0.937254901961" width="5px" x="16px" y="88px" /><rect fill="rgb(204,204,204)" height="5px" opacity="0.937254901961" width="5px" x="20px" y="88px" /><rect fill="rgb(204,204,204)" height="5px" opacity="0.937254901961" width="5px" x="24px" y="88px" /><rect fill="rgb(204,204,204)" height="5px" opacity="0.937254901961" width="5px" x="28px" y="88px" /><rect fill="rgb(204,204,204)" height="5px" opacity="0.937254901961" width="5px" x="32px" y="88px" /><rect fill="rgb(204,204,204)" height="5px" opacity="0.937254901961" width="5px" x="36px" y="88px" /><rect fill="rgb(204,204,204)" height="5px" opacity="0.937254901961" width="5px" x="40px" y="88px" /><rect fill="rgb(204,204,204)" height="5px" opacity="0.937254901961" width="5px" x="44px" y="88px" /><rect fill="rgb(204,204,204)" height="5px" opacity="0.937254901961" width="5px" x="48px" y="88px" /><rect fill="rgb(55,55,55)" height="5px" opacity="0.941176470588" width="5px" x="52px" y="88px" /><rect fill="rgb(0,0,0)" height="5px" width="5px" x="60px" y="88px" /><rect fill="rgb(0,0,0)" height="5px" width="5px" x="64px" y="88px" /><rect fill="rgb(55,55,55)" height="5px" opacity="0.945098039216" width="5px" x="72px" y="88px" /><rect fill="rgb(204,204,204)" height="5px" opacity="0.937254901961" width="5px" x="76px" y="88px" /><rect fill="rgb(204,204,204)" height="5px" opacity="0.937254901961" width="5px" x="80px" y="88px" /><rect fill="rgb(204,204,204)" height="5px" opacity="0.937254901961" width="5px" x="84px" y="88px" /><rect fill="rgb(204,204,204)" height="5px" opacity="0.937254901961" width="5px" x="88px" y="88px" /><rect fill="rgb(204,204,204)" height="5px" opacity="0.937254901961" width="5px" x="92px" y="88px" /><rect fill="rgb(204,204,204)" height="5px" opacity="0.937254901961" width="5px" x="96px" y="88px" /><rect fill="rgb(204,204,204)" height="5px" opacity="0.937254901961" width="5px" x="100px" y="88px" /><rect fill="rgb(204,204,204)" height="5px" opacity="0.937254901961" width="5px" x="104px" y="88px" /><rect fill="rgb(204,204,204)" height="5px" opacity="0.937254901961" width="5px" x="108px" y="88px" /><rect fill="rgb(204,204,204)" height="5px" opacity="0.937254901961" width="5px" x="112px" y="88px" /><rect fill="rgb(55,55,55)" height="5px" opacity="0.988235294118" width="5px" x="116px" y="88px" /><rect fill="rgb(57,57,57)" height="5px" opacity="0.0352941176471" width="5px" x="120px" y="88px" /><rect fill="rgb(55,55,55)" height="5px" opacity="0.670588235294" width="5px" x="4px" y="92px" /><rect fill="rgb(204,204,204)" height="5px" opacity="0.937254901961" width="5px" x="8px" y="92px" /><rect fill="rgb(204,204,204)" height="5px" opacity="0.937254901961" width="5px" x="12px" y="92px" /><rect fill="rgb(204,204,204)" height="5px" opacity="0.937254901961" width="5px" x="16px" y="92px" /><rect fill="rgb(204,204,204)" height="5px" opacity="0.937254901961" width="5px" x="20px" y="92px" /><rect fill="rgb(204,204,204)" height="5px" opacity="0.937254901961" width="5px" x="24px" y="92px" /><rect fill="rgb(204,204,204)" height="5px" opacity="0.937254901961" width="5px" x="28px" y="92px" /><rect fill="rgb(204,204,204)" height="5px" opacity="0.937254901961" width="5px" x="32px" y="92px" /><rect fill="rgb(204,204,204)" height="5px" opacity="0.937254901961" width="5px" x="36px" y="92px" /><rect fill="rgb(204,204,204)" height="5px" opacity="0.937254901961" width="5px" x="40px" y="92px" /><rect fill="rgb(204,204,204)" height="5px" opacity="0.937254901961" width="5px" x="44px" y="92px" /><rect fill="rgb(204,204,204)" height="5px" opacity="0.937254901961" width="5px" x="48px" y="92px" /><rect fill="rgb(55,55,55)" height="5px" opacity="0.933333333333" width="5px" x="52px" y="92px" /><rect fill="rgb(0,0,0)" height="5px" width="5px" x="60px" y="92px" /><rect fill="rgb(0,0,0)" height="5px" width="5px" x="64px" y="92px" /><rect fill="rgb(55,55,55)" height="5px" opacity="0.945098039216" width="5px" x="72px" y="92px" /><rect fill="rgb(204,204,204)" height="5px" opacity="0.937254901961" width="5px" x="76px" y="92px" /><rect fill="rgb(204,204,204)" height="5px" opacity="0.937254901961" width="5px" x="80px" y="92px" /><rect fill="rgb(204,204,204)" height="5px" opacity="0.937254901961" width="5px" x="84px" y="92px" /><rect fill="rgb(204,204,204)" height="5px" opacity="0.937254901961" width="5px" x="88px" y="92px" /><rect fill="rgb(204,204,204)" height="5px" opacity="0.937254901961" width="5px" x="92px" y="92px" /><rect fill="rgb(204,204,204)" height="5px" opacity="0.937254901961" width="5px" x="96px" y="92px" /><rect fill="rgb(204,204,204)" height="5px" opacity="0.937254901961" width="5px" x="100px" y="92px" /><rect fill="rgb(204,204,204)" height="5px" opacity="0.937254901961" width="5px" x="104px" y="92px" /><rect fill="rgb(204,204,204)" height="5px" opacity="0.937254901961" width="5px" x="108px" y="92px" /><rect fill="rgb(204,204,204)" height="5px" opacity="0.937254901961" width="5px" x="112px" y="92px" /><rect fill="rgb(204,204,204)" height="5px" opacity="0.937254901961" width="5px" x="116px" y="92px" /><rect fill="rgb(55,55,55)" height="5px" opacity="0.854901960784" width="5px" x="120px" y="92px" /><rect fill="rgb(55,55,55)" height="5px" opacity="0.235294117647" width="5px" x="0px" y="96px" /><rect fill="rgb(204,204,204)" height="5px" opacity="0.937254901961" width="5px" x="4px" y="96px" /><rect fill="rgb(204,204,204)" height="5px" opacity="0.937254901961" width="5px" x="8px" y="96px" /><rect fill="rgb(204,204,204)" height="5px" opacity="0.937254901961" width="5px" x="12px" y="96px" /><rect fill="rgb(204,204,204)" height="5px" opacity="0.937254901961" width="5px" x="16px" y="96px" /><rect fill="rgb(204,204,204)" height="5px" opacity="0.937254901961" width="5px" x="20px" y="96px" /><rect fill="rgb(204,204,204)" height="5px" opacity="0.937254901961" width="5px" x="24px" y="96px" /><rect fill="rgb(204,204,204)" height="5px" opacity="0.937254901961" width="5px" x="28px" y="96px" /><rect fill="rgb(204,204,204)" height="5px" opacity="0.937254901961" width="5px" x="32px" y="96px" /><rect fill="rgb(204,204,204)" height="5px" opacity="0.937254901961" width="5px" x="36px" y="96px" /><rect fill="rgb(204,204,204)" height="5px" opacity="0.937254901961" width="5px" x="40px" y="96px" /><rect fill="rgb(204,204,204)" height="5px" opacity="0.937254901961" width="5px" x="44px" y="96px" /><rect fill="rgb(204,204,204)" height="5px" opacity="0.937254901961" width="5px" x="48px" y="96px" /><rect fill="rgb(55,55,55)" height="5px" opacity="0.925490196078" width="5px" x="52px" y="96px" /><rect fill="rgb(0,0,0)" height="5px" width="5px" x="60px" y="96px" /><rect fill="rgb(0,0,0)" height="5px" width="5px" x="64px" y="96px" /><rect fill="rgb(55,55,55)" height="5px" opacity="0.941176470588" width="5px" x="72px" y="96px" /><rect fill="rgb(204,204,204)" height="5px" opacity="0.937254901961" width="5px" x="76px" y="96px" /><rect fill="rgb(204,204,204)" height="5px" opacity="0.937254901961" width="5px" x="80px" y="96px" /><rect fill="rgb(204,204,204)" height="5px" opacity="0.937254901961" width="5px" x="84px" y="96px" /><rect fill="rgb(204,204,204)" height="5px" opacity="0.937254901961" width="5px" x="88px" y="96px" /><rect fill="rgb(204,204,204)" height="5px" opacity="0.937254901961" width="5px" x="92px" y="96px" /><rect fill="rgb(204,204,204)" height="5px" opacity="0.937254901961" width="5px" x="96px" y="96px" /><rect fill="rgb(204,204,204)" height="5px" opacity="0.937254901961" width="5px" x="100px" y="96px" /><rect fill="rgb(204,204,204)" height="5px" opacity="0.937254901961" width="5px" x="104px" y="96px" /><rect fill="rgb(204,204,204)" height="5px" opacity="0.937254901961" width="5px" x="108px" y="96px" /><rect fill="rgb(204,204,204)" height="5px" opacity="0.937254901961" width="5px" x="112px" y="96px" /><rect fill="rgb(204,204,204)" height="5px" opacity="0.937254901961" width="5px" x="116px" y="96px" /><rect fill="rgb(204,204,204)" height="5px" opacity="0.937254901961" width="5px" x="120px" y="96px" /><rect fill="rgb(56,56,56)" height="5px" opacity="0.501960784314" width="5px" x="124px" y="96px" /><rect fill="rgb(55,55,55)" height="5px" opacity="0.654901960784" width="5px" x="0px" y="100px" /><rect fill="rgb(55,55,55)" height="5px" opacity="0.898039215686" width="5px" x="4px" y="100px" /><rect fill="rgb(55,55,55)" height="5px" opacity="0.901960784314" width="5px" x="8px" y="100px" /><rect fill="rgb(55,55,55)" height="5px" opacity="0.937254901961" width="5px" x="12px" y="100px" /><rect fill="rgb(55,55,55)" height="5px" opacity="0.937254901961" width="5px" x="16px" y="100px" /><rect fill="rgb(55,55,55)" height="5px" opacity="0.937254901961" width="5px" x="20px" y="100px" /><rect fill="rgb(55,55,55)" height="5px" opacity="0.937254901961" width="5px" x="24px" y="100px" /><rect fill="rgb(55,55,55)" height="5px" opacity="0.960784313725" width="5px" x="28px" y="100px" /><rect fill="rgb(55,55,55)" height="5px" opacity="0.964705882353" width="5px" x="32px" y="100px" /><rect fill="rgb(55,55,55)" height="5px" opacity="0.964705882353" width="5px" x="36px" y="100px" /><rect fill="rgb(55,55,55)" height="5px" opacity="0.964705882353" width="5px" x="40px" y="100px" /><rect fill="rgb(55,55,55)" height="5px" opacity="0.976470588235" width="5px" x="44px" y="100px" /><rect fill="rgb(55,55,55)" height="5px" opacity="0.980392156863" width="5px" x="48px" y="100px" /><rect fill="rgb(55,55,55)" height="5px" opacity="0.803921568627" width="5px" x="52px" y="100px" /><rect fill="rgb(0,0,0)" height="5px" width="5px" x="60px" y="100px" /><rect fill="rgb(0,0,0)" height="5px" width="5px" x="64px" y="100px" /><rect fill="rgb(55,55,55)" height="5px" opacity="0.494117647059" width="5px" x="72px" y="100px" /><rect fill="rgb(55,55,55)" height="5px" opacity="0.705882352941" width="5px" x="76px" y="100px" /><rect fill="rgb(55,55,55)" height="5px" opacity="0.705882352941" width="5px" x="80px" y="100px" /><rect fill="rgb(55,55,55)" height="5px" opacity="0.705882352941" width="5px" x="84px" y="100px" /><rect fill="rgb(55,55,55)" height="5px" opacity="0.705882352941" width="5px" x="88px" y="100px" /><rect fill="rgb(55,55,55)" height="5px" opacity="0.705882352941" width="5px" x="92px" y="100px" /><rect fill="rgb(55,55,55)" height="5px" opacity="0.721568627451" width="5px" x="96px" y="100px" /><rect fill="rgb(55,55,55)" height="5px" opacity="0.78431372549" width="5px" x="100px" y="100px" /><rect fill="rgb(55,55,55)" height="5px" opacity="0.78431372549" width="5px" x="104px" y="100px" /><rect fill="rgb(55,55,55)" height="5px" opacity="0.78431372549" width="5px" x="108px" y="100px" /><rect fill="rgb(55,55,55)" height="5px" opacity="0.78431372549" width="5px" x="112px" y="100px" /><rect fill="rgb(55,55,55)" height="5px" opacity="0.78431372549" width="5px" x="116px" y="100px" /><rect fill="rgb(55,55,55)" height="5px" opacity="0.78431372549" width="5px" x="120px" y="100px" /><rect fill="rgb(54,54,54)" height="5px" opacity="0.607843137255" width="5px" x="124px" y="100px" /><rect fill="rgb(0,0,0)" height="5px" width="5px" x="60px" y="104px" /><rect fill="rgb(0,0,0)" height="5px" width="5px" x="64px" y="104px" /><rect fill="rgb(0,0,0)" height="5px" width="5px" x="60px" y="108px" /><rect fill="rgb(0,0,0)" height="5px" width="5px" x="64px" y="108px" /><rect fill="rgb(0,0,0)" height="5px" width="5px" x="60px" y="112px" /><rect fill="rgb(0,0,0)" height="5px" width="5px" x="64px" y="112px" /><rect fill="rgb(0,0,0)" height="5px" width="5px" x="60px" y="116px" /><rect fill="rgb(0,0,0)" height="5px" width="5px" x="64px" y="116px" /><rect fill="rgb(0,0,0)" height="5px" width="5px" x="60px" y="120px" /><rect fill="rgb(0,0,0)" height="5px" width="5px" x="64px" y="120px" /><rect fill="rgb(0,0,0)" height="5px" width="5px" x="60px" y="124px" /><rect fill="rgb(0,0,0)" height="5px" width="5px" x="64px" y="124px" /></svg>