<?xml version="1.0" encoding="utf-8" ?>
<svg baseProfile="full" height="128px" version="1.1" width="128px" xmlns="http://www.w3.org/2000/svg" xmlns:ev="http://www.w3.org/2001/xml-events" xmlns:xlink="http://www.w3.org/1999/xlink"><defs /><rect fill="rgb(99,69,44)" height="5px" width="5px" x="72px" y="36px" /><rect fill="rgb(99,69,44)" height="5px" width="5px" x="76px" y="36px" /><rect fill="rgb(99,69,44)" height="5px" width="5px" x="80px" y="36px" /><rect fill="rgb(99,69,44)" height="5px" width="5px" x="84px" y="36px" /><rect fill="rgb(99,69,44)" height="5px" width="5px" x="72px" y="40px" /><rect fill="rgb(99,69,44)" height="5px" width="5px" x="76px" y="40px" /><rect fill="rgb(99,69,44)" height="5px" width="5px" x="80px" y="40px" /><rect fill="rgb(99,69,44)" height="5px" width="5px" x="84px" y="40px" /><rect fill="rgb(99,69,44)" height="5px" width="5px" x="88px" y="40px" /><rect fill="rgb(99,69,44)" height="5px" width="5px" x="68px" y="44px" /><rect fill="rgb(99,69,44)" height="5px" width="5px" x="72px" y="44px" /><rect fill="rgb(99,69,44)" height="5px" width="5px" x="76px" y="44px" /><rect fill="rgb(99,69,44)" height="5px" width="5px" x="80px" y="44px" /><rect fill="rgb(99,69,44)" height="5px" width="5px" x="84px" y="44px" /><rect fill="rgb(99,69,44)" height="5px" width="5px" x="88px" y="44px" /><rect fill="rgb(23,23,0)" height="5px" opacity="0.043137254902" width="5px" x="92px" y="44px" /><rect fill="rgb(99,69,44)" height="5px" width="5px" x="68px" y="48px" /><rect fill="rgb(99,69,44)" height="5px" width="5px" x="72px" y="48px" /><rect fill="rgb(99,69,44)" height="5px" width="5px" x="76px" y="48px" /><rect fill="rgb(99,69,44)" height="5px" width="5px" x="80px" y="48px" /><rect fill="rgb(99,69,44)" height="5px" width="5px" x="84px" y="48px" /><rect fill="rgb(99,69,44)" height="5px" width="5px" x="88px" y="48px" /><rect fill="rgb(99,69,44)" height="5px" width="5px" x="92px" y="48px" /><rect fill="rgb(46,46,46)" height="5px" opacity="0.043137254902" width="5px" x="4px" y="52px" /><rect fill="rgb(41,41,41)" height="5px" opacity="0.0980392156863" width="5px" x="8px" y="52px" /><rect fill="rgb(32,32,32)" height="5px" opacity="0.0313725490196" width="5px" x="12px" y="52px" /><rect fill="rgb(46,46,46)" height="5px" opacity="0.109803921569" width="5px" x="16px" y="52px" /><rect fill="rgb(0,0,0)" height="5px" opacity="0.0078431372549" width="5px" x="20px" y="52px" /><rect fill="rgb(99,69,44)" height="5px" width="5px" x="64px" y="52px" /><rect fill="rgb(99,69,44)" height="5px" width="5px" x="68px" y="52px" /><rect fill="rgb(18,18,4)" height="5px" opacity="0.564705882353" width="5px" x="72px" y="52px" /><rect fill="rgb(99,69,44)" height="5px" width="5px" x="76px" y="52px" /><rect fill="rgb(99,69,44)" height="5px" width="5px" x="80px" y="52px" /><rect fill="rgb(99,69,44)" height="5px" width="5px" x="88px" y="52px" /><rect fill="rgb(99,69,44)" height="5px" width="5px" x="92px" y="52px" /><rect fill="rgb(99,69,44)" height="5px" width="5px" x="96px" y="52px" /><rect fill="rgb(42,42,42)" height="5px" opacity="0.996078431373" width="5px" x="0px" y="56px" /><rect fill="rgb(42,42,42)" height="5px" width="5px" x="4px" y="56px" /><rect fill="rgb(42,42,42)" height="5px" width="5px" x="8px" y="56px" /><rect fill="rgb(42,42,42)" height="5px" width="5px" x="12px" y="56px" /><rect fill="rgb(42,42,42)" height="5px" width="5px" x="16px" y="56px" /><rect fill="rgb(42,42,42)" height="5px" width="5px" x="20px" y="56px" /><rect fill="rgb(39,39,39)" height="5px" opacity="0.152941176471" width="5px" x="24px" y="56px" /><rect fill="rgb(99,69,44)" height="5px" width="5px" x="64px" y="56px" /><rect fill="rgb(99,69,44)" height="5px" width="5px" x="68px" y="56px" /><rect fill="rgb(99,69,44)" height="5px" width="5px" x="76px" y="56px" /><rect fill="rgb(99,69,44)" height="5px" width="5px" x="80px" y="56px" /><rect fill="rgb(99,69,44)" height="5px" width="5px" x="92px" y="56px" /><rect fill="rgb(99,69,44)" height="5px" width="5px" x="96px" y="56px" /><rect fill="rgb(99,69,44)" height="5px" width="5px" x="100px" y="56px" /><rect fill="rgb(45,45,45)" height="5px" opacity="0.0666666666667" width="5px" x="0px" y="60px" /><rect fill="rgb(42,42,42)" height="5px" width="5px" x="4px" y="60px" /><rect fill="rgb(42,42,42)" height="5px" width="5px" x="8px" y="60px" /><rect fill="rgb(42,42,42)" height="5px" width="5px" x="12px" y="60px" /><rect fill="rgb(42,42,42)" height="5px" width="5px" x="16px" y="60px" /><rect fill="rgb(42,42,42)" height="5px" width="5px" x="20px" y="60px" /><rect fill="rgb(42,42,42)" height="5px" width="5px" x="24px" y="60px" /><rect fill="rgb(42,42,42)" height="5px" width="5px" x="28px" y="60px" /><rect fill="rgb(42,42,42)" height="5px" opacity="0.980392156863" width="5px" x="32px" y="60px" /><rect fill="rgb(99,69,44)" height="5px" width="5px" x="60px" y="60px" /><rect fill="rgb(99,69,44)" height="5px" width="5px" x="64px" y="60px" /><rect fill="rgb(99,69,44)" height="5px" width="5px" x="68px" y="60px" /><rect fill="rgb(99,69,44)" height="5px" width="5px" x="76px" y="60px" /><rect fill="rgb(99,69,44)" height="5px" width="5px" x="80px" y="60px" /><rect fill="rgb(23,23,0)" height="5px" opacity="0.0862745098039" width="5px" x="92px" y="60px" /><rect fill="rgb(99,69,44)" height="5px" width="5px" x="96px" y="60px" /><rect fill="rgb(99,69,44)" height="5px" width="5px" x="100px" y="60px" /><rect fill="rgb(42,42,42)" height="5px" width="5px" x="8px" y="64px" /><rect fill="rgb(42,42,42)" height="5px" width="5px" x="12px" y="64px" /><rect fill="rgb(51,51,51)" height="5px" opacity="0.0392156862745" width="5px" x="16px" y="64px" /><rect fill="rgb(42,42,42)" height="5px" opacity="0.850980392157" width="5px" x="24px" y="64px" /><rect fill="rgb(42,42,42)" height="5px" width="5px" x="28px" y="64px" /><rect fill="rgb(42,42,42)" height="5px" width="5px" x="32px" y="64px" /><rect fill="rgb(42,42,42)" height="5px" width="5px" x="36px" y="64px" /><rect fill="rgb(42,42,42)" height="5px" opacity="0.949019607843" width="5px" x="40px" y="64px" /><rect fill="rgb(99,69,44)" height="5px" width="5px" x="60px" y="64px" /><rect fill="rgb(99,69,44)" height="5px" width="5px" x="64px" y="64px" /><rect fill="rgb(99,69,44)" height="5px" width="5px" x="76px" y="64px" /><rect fill="rgb(99,69,44)" height="5px" width="5px" x="80px" y="64px" /><rect fill="rgb(99,69,44)" height="5px" width="5px" x="96px" y="64px" /><rect fill="rgb(99,69,44)" height="5px" width="5px" x="100px" y="64px" /><rect fill="rgb(99,69,44)" height="5px" width="5px" x="104px" y="64px" /><rect fill="rgb(42,42,42)" height="5px" opacity="0.925490196078" width="5px" x="32px" y="68px" /><rect fill="rgb(42,42,42)" height="5px" width="5px" x="36px" y="68px" /><rect fill="rgb(42,42,42)" height="5px" width="5px" x="40px" y="68px" /><rect fill="rgb(42,42,42)" height="5px" width="5px" x="44px" y="68px" /><rect fill="rgb(42,42,42)" height="5px" opacity="0.882352941176" width="5px" x="48px" y="68px" /><rect fill="rgb(99,69,44)" height="5px" width="5px" x="56px" y="68px" /><rect fill="rgb(99,69,44)" height="5px" width="5px" x="60px" y="68px" /><rect fill="rgb(99,69,44)" height="5px" width="5px" x="64px" y="68px" /><rect fill="rgb(99,69,44)" height="5px" width="5px" x="76px" y="68px" /><rect fill="rgb(99,69,44)" height="5px" width="5px" x="80px" y="68px" /><rect fill="rgb(99,69,44)" height="5px" width="5px" x="100px" y="68px" /><rect fill="rgb(99,69,44)" height="5px" width="5px" x="104px" y="68px" /><rect fill="rgb(99,69,44)" height="5px" width="5px" x="108px" y="68px" /><rect fill="rgb(42,42,42)" height="5px" opacity="0.972549019608" width="5px" x="40px" y="72px" /><rect fill="rgb(42,42,42)" height="5px" width="5px" x="44px" y="72px" /><rect fill="rgb(42,42,42)" height="5px" width="5px" x="48px" y="72px" /><rect fill="rgb(42,42,42)" height="5px" width="5px" x="52px" y="72px" /><rect fill="rgb(99,69,44)" height="5px" width="5px" x="56px" y="72px" /><rect fill="rgb(99,69,44)" height="5px" width="5px" x="60px" y="72px" /><rect fill="rgb(99,69,44)" height="5px" width="5px" x="76px" y="72px" /><rect fill="rgb(99,69,44)" height="5px" width="5px" x="80px" y="72px" /><rect fill="rgb(99,69,44)" height="5px" width="5px" x="104px" y="72px" /><rect fill="rgb(99,69,44)" height="5px" width="5px" x="108px" y="72px" /><rect fill="rgb(17,17,4)" height="5px" opacity="0.23137254902" width="5px" x="112px" y="72px" /><rect fill="rgb(42,42,42)" height="5px" opacity="0.980392156863" width="5px" x="48px" y="76px" /><rect fill="rgb(99,69,44)" height="5px" width="5px" x="52px" y="76px" /><rect fill="rgb(99,69,44)" height="5px" width="5px" x="56px" y="76px" /><rect fill="rgb(99,69,44)" height="5px" width="5px" x="60px" y="76px" /><rect fill="rgb(42,42,42)" height="5px" opacity="0.596078431373" width="5px" x="64px" y="76px" /><rect fill="rgb(99,69,44)" height="5px" width="5px" x="76px" y="76px" /><rect fill="rgb(99,69,44)" height="5px" width="5px" x="80px" y="76px" /><rect fill="rgb(99,69,44)" height="5px" width="5px" x="108px" y="76px" /><rect fill="rgb(99,69,44)" height="5px" width="5px" x="112px" y="76px" /><rect fill="rgb(64,64,64)" height="5px" opacity="0.0156862745098" width="5px" x="20px" y="80px" /><rect fill="rgb(42,42,42)" height="5px" width="5px" x="24px" y="80px" /><rect fill="rgb(42,42,42)" height="5px" width="5px" x="28px" y="80px" /><rect fill="rgb(42,42,42)" height="5px" width="5px" x="32px" y="80px" /><rect fill="rgb(43,43,43)" height="5px" opacity="0.0235294117647" width="5px" x="36px" y="80px" /><rect fill="rgb(99,69,44)" height="5px" width="5px" x="52px" y="80px" /><rect fill="rgb(99,69,44)" height="5px" width="5px" x="56px" y="80px" /><rect fill="rgb(42,42,42)" height="5px" width="5px" x="60px" y="80px" /><rect fill="rgb(42,42,42)" height="5px" width="5px" x="64px" y="80px" /><rect fill="rgb(42,42,42)" height="5px" opacity="0.996078431373" width="5px" x="68px" y="80px" /><rect fill="rgb(43,43,43)" height="5px" opacity="0.376470588235" width="5px" x="72px" y="80px" /><rect fill="rgb(99,69,44)" height="5px" width="5px" x="76px" y="80px" /><rect fill="rgb(99,69,44)" height="5px" width="5px" x="80px" y="80px" /><rect fill="rgb(43,43,43)" height="5px" opacity="0.0235294117647" width="5px" x="88px" y="80px" /><rect fill="rgb(42,42,42)" height="5px" width="5px" x="92px" y="80px" /><rect fill="rgb(42,42,42)" height="5px" width="5px" x="96px" y="80px" /><rect fill="rgb(42,42,42)" height="5px" width="5px" x="100px" y="80px" /><rect fill="rgb(28,28,28)" height="5px" opacity="0.0352941176471" width="5px" x="104px" y="80px" /><rect fill="rgb(20,20,5)" height="5px" opacity="0.196078431373" width="5px" x="108px" y="80px" /><rect fill="rgb(99,69,44)" height="5px" width="5px" x="112px" y="80px" /><rect fill="rgb(99,69,44)" height="5px" width="5px" x="116px" y="80px" /><rect fill="rgb(0,0,0)" height="5px" opacity="0.0117647058824" width="5px" x="16px" y="84px" /><rect fill="rgb(42,42,42)" height="5px" width="5px" x="20px" y="84px" /><rect fill="rgb(42,42,42)" height="5px" width="5px" x="24px" y="84px" /><rect fill="rgb(42,42,42)" height="5px" width="5px" x="28px" y="84px" /><rect fill="rgb(42,42,42)" height="5px" width="5px" x="32px" y="84px" /><rect fill="rgb(42,42,42)" height="5px" width="5px" x="36px" y="84px" /><rect fill="rgb(51,51,51)" height="5px" opacity="0.0196078431373" width="5px" x="40px" y="84px" /><rect fill="rgb(99,69,44)" height="5px" width="5px" x="48px" y="84px" /><rect fill="rgb(99,69,44)" height="5px" width="5px" x="52px" y="84px" /><rect fill="rgb(99,69,44)" height="5px" width="5px" x="56px" y="84px" /><rect fill="rgb(43,43,43)" height="5px" opacity="0.117647058824" width="5px" x="60px" y="84px" /><rect fill="rgb(42,42,42)" height="5px" opacity="0.996078431373" width="5px" x="64px" y="84px" /><rect fill="rgb(42,42,42)" height="5px" width="5px" x="68px" y="84px" /><rect fill="rgb(42,42,42)" height="5px" width="5px" x="72px" y="84px" /><rect fill="rgb(99,69,44)" height="5px" width="5px" x="76px" y="84px" /><rect fill="rgb(99,69,44)" height="5px" width="5px" x="80px" y="84px" /><rect fill="rgb(36,36,36)" height="5px" opacity="0.0549019607843" width="5px" x="84px" y="84px" /><rect fill="rgb(42,42,42)" height="5px" opacity="0.980392156863" width="5px" x="88px" y="84px" /><rect fill="rgb(42,42,42)" height="5px" width="5px" x="92px" y="84px" /><rect fill="rgb(42,42,42)" height="5px" width="5px" x="96px" y="84px" /><rect fill="rgb(42,42,42)" height="5px" width="5px" x="100px" y="84px" /><rect fill="rgb(42,42,42)" height="5px" width="5px" x="104px" y="84px" /><rect fill="rgb(51,51,51)" height="5px" opacity="0.0392156862745" width="5px" x="108px" y="84px" /><rect fill="rgb(99,69,44)" height="5px" width="5px" x="112px" y="84px" /><rect fill="rgb(99,69,44)" height="5px" width="5px" x="116px" y="84px" /><rect fill="rgb(17,17,4)" height="5px" opacity="0.462745098039" width="5px" x="120px" y="84px" /><rect fill="rgb(99,69,44)" height="5px" width="5px" x="8px" y="88px" /><rect fill="rgb(99,69,44)" height="5px" width="5px" x="12px" y="88px" /><rect fill="rgb(42,42,42)" height="5px" width="5px" x="16px" y="88px" /><rect fill="rgb(42,42,42)" height="5px" width="5px" x="20px" y="88px" /><rect fill="rgb(42,42,42)" height="5px" width="5px" x="24px" y="88px" /><rect fill="rgb(42,42,42)" height="5px" width="5px" x="28px" y="88px" /><rect fill="rgb(42,42,42)" height="5px" width="5px" x="32px" y="88px" /><rect fill="rgb(42,42,42)" height="5px" width="5px" x="36px" y="88px" /><rect fill="rgb(42,42,42)" height="5px" width="5px" x="40px" y="88px" /><rect fill="rgb(99,69,44)" height="5px" width="5px" x="44px" y="88px" /><rect fill="rgb(99,69,44)" height="5px" width="5px" x="48px" y="88px" /><rect fill="rgb(99,69,44)" height="5px" width="5px" x="52px" y="88px" /><rect fill="rgb(99,69,44)" height="5px" width="5px" x="56px" y="88px" /><rect fill="rgb(99,69,44)" height="5px" width="5px" x="60px" y="88px" /><rect fill="rgb(99,69,44)" height="5px" width="5px" x="64px" y="88px" /><rect fill="rgb(27,27,21)" height="5px" width="5px" x="68px" y="88px" /><rect fill="rgb(42,42,42)" height="5px" width="5px" x="72px" y="88px" /><rect fill="rgb(99,69,44)" height="5px" width="5px" x="76px" y="88px" /><rect fill="rgb(99,69,44)" height="5px" width="5px" x="80px" y="88px" /><rect fill="rgb(41,41,41)" height="5px" width="5px" x="84px" y="88px" /><rect fill="rgb(42,42,42)" height="5px" width="5px" x="88px" y="88px" /><rect fill="rgb(42,42,42)" height="5px" width="5px" x="92px" y="88px" /><rect fill="rgb(42,42,42)" height="5px" width="5px" x="96px" y="88px" /><rect fill="rgb(42,42,42)" height="5px" width="5px" x="100px" y="88px" /><rect fill="rgb(42,42,42)" height="5px" width="5px" x="104px" y="88px" /><rect fill="rgb(41,41,41)" height="5px" width="5px" x="108px" y="88px" /><rect fill="rgb(99,69,44)" height="5px" width="5px" x="112px" y="88px" /><rect fill="rgb(99,69,44)" height="5px" width="5px" x="116px" y="88px" /><rect fill="rgb(99,69,44)" height="5px" width="5px" x="120px" y="88px" /><rect fill="rgb(99,69,44)" height="5px" width="5px" x="8px" y="92px" /><rect fill="rgb(99,69,44)" height="5px" width="5px" x="12px" y="92px" /><rect fill="rgb(42,42,42)" height="5px" width="5px" x="16px" y="92px" /><rect fill="rgb(42,42,42)" height="5px" width="5px" x="20px" y="92px" /><rect fill="rgb(42,42,42)" height="5px" width="5px" x="24px" y="92px" /><rect fill="rgb(42,42,42)" height="5px" width="5px" x="28px" y="92px" /><rect fill="rgb(42,42,42)" height="5px" width="5px" x="32px" y="92px" /><rect fill="rgb(42,42,42)" height="5px" width="5px" x="36px" y="92px" /><rect fill="rgb(42,42,42)" height="5px" width="5px" x="40px" y="92px" /><rect fill="rgb(99,69,44)" height="5px" width="5px" x="44px" y="92px" /><rect fill="rgb(99,69,44)" height="5px" width="5px" x="48px" y="92px" /><rect fill="rgb(99,69,44)" height="5px" width="5px" x="52px" y="92px" /><rect fill="rgb(99,69,44)" height="5px" width="5px" x="56px" y="92px" /><rect fill="rgb(99,69,44)" height="5px" width="5px" x="60px" y="92px" /><rect fill="rgb(99,69,44)" height="5px" width="5px" x="64px" y="92px" /><rect fill="rgb(99,69,44)" height="5px" width="5px" x="68px" y="92px" /><rect fill="rgb(99,69,44)" height="5px" width="5px" x="72px" y="92px" /><rect fill="rgb(99,69,44)" height="5px" width="5px" x="76px" y="92px" /><rect fill="rgb(99,69,44)" height="5px" width="5px" x="80px" y="92px" /><rect fill="rgb(42,42,42)" height="5px" width="5px" x="84px" y="92px" /><rect fill="rgb(42,42,42)" height="5px" width="5px" x="88px" y="92px" /><rect fill="rgb(42,42,42)" height="5px" width="5px" x="92px" y="92px" /><rect fill="rgb(42,42,42)" height="5px" width="5px" x="96px" y="92px" /><rect fill="rgb(42,42,42)" height="5px" width="5px" x="100px" y="92px" /><rect fill="rgb(42,42,42)" height="5px" width="5px" x="104px" y="92px" /><rect fill="rgb(42,42,42)" height="5px" width="5px" x="108px" y="92px" /><rect fill="rgb(99,69,44)" height="5px" width="5px" x="112px" y="92px" /><rect fill="rgb(99,69,44)" height="5px" width="5px" x="116px" y="92px" /><rect fill="rgb(99,69,44)" height="5px" width="5px" x="120px" y="92px" /><rect fill="rgb(99,69,44)" height="5px" width="5px" x="8px" y="96px" /><rect fill="rgb(99,69,44)" height="5px" width="5px" x="12px" y="96px" /><rect fill="rgb(42,42,42)" height="5px" width="5px" x="16px" y="96px" /><rect fill="rgb(42,42,42)" height="5px" width="5px" x="20px" y="96px" /><rect fill="rgb(42,42,42)" height="5px" width="5px" x="24px" y="96px" /><rect fill="rgb(42,42,42)" height="5px" width="5px" x="28px" y="96px" /><rect fill="rgb(42,42,42)" height="5px" width="5px" x="32px" y="96px" /><rect fill="rgb(42,42,42)" height="5px" width="5px" x="36px" y="96px" /><rect fill="rgb(42,42,42)" height="5px" width="5px" x="40px" y="96px" /><rect fill="rgb(99,69,44)" height="5px" width="5px" x="44px" y="96px" /><rect fill="rgb(99,69,44)" height="5px" width="5px" x="48px" y="96px" /><rect fill="rgb(99,69,44)" height="5px" width="5px" x="52px" y="96px" /><rect fill="rgb(99,69,44)" height="5px" width="5px" x="56px" y="96px" /><rect fill="rgb(99,69,44)" height="5px" width="5px" x="60px" y="96px" /><rect fill="rgb(99,69,44)" height="5px" width="5px" x="64px" y="96px" /><rect fill="rgb(99,69,44)" height="5px" width="5px" x="68px" y="96px" /><rect fill="rgb(99,69,44)" height="5px" width="5px" x="72px" y="96px" /><rect fill="rgb(99,69,44)" height="5px" width="5px" x="76px" y="96px" /><rect fill="rgb(99,69,44)" height="5px" width="5px" x="80px" y="96px" /><rect fill="rgb(41,41,41)" height="5px" width="5px" x="84px" y="96px" /><rect fill="rgb(42,42,42)" height="5px" width="5px" x="88px" y="96px" /><rect fill="rgb(42,42,42)" height="5px" width="5px" x="92px" y="96px" /><rect fill="rgb(42,42,42)" height="5px" width="5px" x="96px" y="96px" /><rect fill="rgb(42,42,42)" height="5px" width="5px" x="100px" y="96px" /><rect fill="rgb(42,42,42)" height="5px" width="5px" x="104px" y="96px" /><rect fill="rgb(41,41,41)" height="5px" width="5px" x="108px" y="96px" /><rect fill="rgb(99,69,44)" height="5px" width="5px" x="112px" y="96px" /><rect fill="rgb(99,69,44)" height="5px" width="5px" x="116px" y="96px" /><rect fill="rgb(99,69,44)" height="5px" width="5px" x="120px" y="96px" /><rect fill="rgb(51,51,51)" height="5px" opacity="0.0196078431373" width="5px" x="16px" y="100px" /><rect fill="rgb(42,42,42)" height="5px" opacity="0.996078431373" width="5px" x="20px" y="100px" /><rect fill="rgb(42,42,42)" height="5px" width="5px" x="24px" y="100px" /><rect fill="rgb(42,42,42)" height="5px" width="5px" x="28px" y="100px" /><rect fill="rgb(42,42,42)" height="5px" width="5px" x="32px" y="100px" /><rect fill="rgb(42,42,42)" height="5px" width="5px" x="36px" y="100px" /><rect fill="rgb(28,28,28)" height="5px" opacity="0.0352941176471" width="5px" x="40px" y="100px" /><rect fill="rgb(34,34,34)" height="5px" opacity="0.0588235294118" width="5px" x="84px" y="100px" /><rect fill="rgb(42,42,42)" height="5px" width="5px" x="88px" y="100px" /><rect fill="rgb(42,42,42)" height="5px" width="5px" x="92px" y="100px" /><rect fill="rgb(42,42,42)" height="5px" width="5px" x="96px" y="100px" /><rect fill="rgb(42,42,42)" height="5px" width="5px" x="100px" y="100px" /><rect fill="rgb(42,42,42)" height="5px" width="5px" x="104px" y="100px" /><rect fill="rgb(43,43,43)" height="5px" opacity="0.0705882352941" width="5px" x="108px" y="100px" /><rect fill="rgb(0,0,0)" height="5px" opacity="0.0078431372549" width="5px" x="20px" y="104px" /><rect fill="rgb(42,42,42)" height="5px" width="5px" x="24px" y="104px" /><rect fill="rgb(42,42,42)" height="5px" width="5px" x="28px" y="104px" /><rect fill="rgb(42,42,42)" height="5px" width="5px" x="32px" y="104px" /><rect fill="rgb(32,32,32)" height="5px" opacity="0.0313725490196" width="5px" x="36px" y="104px" /><rect fill="rgb(36,36,36)" height="5px" opacity="0.0549019607843" width="5px" x="88px" y="104px" /><rect fill="rgb(42,42,42)" height="5px" width="5px" x="92px" y="104px" /><rect fill="rgb(42,42,42)" height="5px" width="5px" x="96px" y="104px" /><rect fill="rgb(42,42,42)" height="5px" width="5px" x="100px" y="104px" /><rect fill="rgb(32,32,32)" height="5px" opacity="0.0313725490196" width="5px" x="104px" y="104px" /></svg>