<?xml version="1.0" encoding="utf-8" ?>
<svg baseProfile="full" height="128px" version="1.1" width="128px" xmlns="http://www.w3.org/2000/svg" xmlns:ev="http://www.w3.org/2001/xml-events" xmlns:xlink="http://www.w3.org/1999/xlink"><defs /><rect fill="rgb(12,14,32)" height="5px" width="5px" x="24px" y="16px" /><rect fill="rgb(12,14,32)" height="5px" width="5px" x="28px" y="16px" /><rect fill="rgb(18,21,49)" height="5px" width="5px" x="32px" y="16px" /><rect fill="rgb(12,14,32)" height="5px" width="5px" x="20px" y="20px" /><rect fill="rgb(12,14,32)" height="5px" width="5px" x="24px" y="20px" /><rect fill="rgb(15,17,40)" height="5px" width="5px" x="28px" y="20px" /><rect fill="rgb(18,21,49)" height="5px" width="5px" x="32px" y="20px" /><rect fill="rgb(18,21,49)" height="5px" width="5px" x="36px" y="20px" /><rect fill="rgb(18,21,49)" height="5px" width="5px" x="40px" y="20px" /><rect fill="rgb(18,21,49)" height="5px" width="5px" x="44px" y="20px" /><rect fill="rgb(12,14,32)" height="5px" width="5px" x="16px" y="24px" /><rect fill="rgb(12,14,32)" height="5px" width="5px" x="20px" y="24px" /><rect fill="rgb(12,14,32)" height="5px" width="5px" x="24px" y="24px" /><rect fill="rgb(15,17,40)" height="5px" width="5px" x="28px" y="24px" /><rect fill="rgb(15,17,40)" height="5px" width="5px" x="32px" y="24px" /><rect fill="rgb(15,17,40)" height="5px" width="5px" x="36px" y="24px" /><rect fill="rgb(15,17,40)" height="5px" width="5px" x="40px" y="24px" /><rect fill="rgb(18,21,49)" height="5px" width="5px" x="44px" y="24px" /><rect fill="rgb(23,26,60)" height="5px" width="5px" x="48px" y="24px" /><rect fill="rgb(23,26,60)" height="5px" width="5px" x="52px" y="24px" /><rect fill="rgb(23,26,60)" height="5px" width="5px" x="56px" y="24px" /><rect fill="rgb(23,26,60)" height="5px" width="5px" x="60px" y="24px" /><rect fill="rgb(12,14,32)" height="5px" width="5px" x="20px" y="28px" /><rect fill="rgb(12,14,32)" height="5px" width="5px" x="24px" y="28px" /><rect fill="rgb(12,14,32)" height="5px" width="5px" x="28px" y="28px" /><rect fill="rgb(12,14,32)" height="5px" width="5px" x="32px" y="28px" /><rect fill="rgb(12,14,32)" height="5px" width="5px" x="36px" y="28px" /><rect fill="rgb(15,17,40)" height="5px" width="5px" x="40px" y="28px" /><rect fill="rgb(18,21,49)" height="5px" width="5px" x="44px" y="28px" /><rect fill="rgb(18,21,49)" height="5px" width="5px" x="48px" y="28px" /><rect fill="rgb(18,21,49)" height="5px" width="5px" x="52px" y="28px" /><rect fill="rgb(18,21,49)" height="5px" width="5px" x="56px" y="28px" /><rect fill="rgb(18,21,49)" height="5px" width="5px" x="60px" y="28px" /><rect fill="rgb(23,26,60)" height="5px" width="5px" x="64px" y="28px" /><rect fill="rgb(23,26,60)" height="5px" width="5px" x="68px" y="28px" /><rect fill="rgb(23,26,60)" height="5px" width="5px" x="72px" y="28px" /><rect fill="rgb(12,14,32)" height="5px" width="5px" x="32px" y="32px" /><rect fill="rgb(12,14,32)" height="5px" width="5px" x="36px" y="32px" /><rect fill="rgb(12,14,32)" height="5px" width="5px" x="40px" y="32px" /><rect fill="rgb(12,14,32)" height="5px" width="5px" x="44px" y="32px" /><rect fill="rgb(15,17,40)" height="5px" width="5px" x="48px" y="32px" /><rect fill="rgb(15,17,40)" height="5px" width="5px" x="52px" y="32px" /><rect fill="rgb(15,17,40)" height="5px" width="5px" x="56px" y="32px" /><rect fill="rgb(15,17,40)" height="5px" width="5px" x="60px" y="32px" /><rect fill="rgb(18,21,49)" height="5px" width="5px" x="64px" y="32px" /><rect fill="rgb(18,21,49)" height="5px" width="5px" x="68px" y="32px" /><rect fill="rgb(18,21,49)" height="5px" width="5px" x="72px" y="32px" /><rect fill="rgb(18,21,49)" height="5px" width="5px" x="76px" y="32px" /><rect fill="rgb(41,48,108)" height="5px" width="5px" x="80px" y="32px" /><rect fill="rgb(41,48,108)" height="5px" width="5px" x="84px" y="32px" /><rect fill="rgb(41,48,108)" height="5px" width="5px" x="88px" y="32px" /><rect fill="rgb(41,48,108)" height="5px" width="5px" x="92px" y="32px" /><rect fill="rgb(41,48,108)" height="5px" width="5px" x="96px" y="32px" /><rect fill="rgb(41,48,108)" height="5px" width="5px" x="100px" y="32px" /><rect fill="rgb(12,14,32)" height="5px" width="5px" x="32px" y="36px" /><rect fill="rgb(12,14,32)" height="5px" width="5px" x="36px" y="36px" /><rect fill="rgb(12,14,32)" height="5px" width="5px" x="40px" y="36px" /><rect fill="rgb(12,14,32)" height="5px" width="5px" x="44px" y="36px" /><rect fill="rgb(12,14,32)" height="5px" width="5px" x="48px" y="36px" /><rect fill="rgb(12,14,32)" height="5px" width="5px" x="52px" y="36px" /><rect fill="rgb(15,17,40)" height="5px" width="5px" x="56px" y="36px" /><rect fill="rgb(15,17,40)" height="5px" width="5px" x="60px" y="36px" /><rect fill="rgb(15,17,40)" height="5px" width="5px" x="64px" y="36px" /><rect fill="rgb(36,42,93)" height="5px" width="5px" x="68px" y="36px" /><rect fill="rgb(36,42,93)" height="5px" width="5px" x="72px" y="36px" /><rect fill="rgb(36,42,93)" height="5px" width="5px" x="76px" y="36px" /><rect fill="rgb(36,42,93)" height="5px" width="5px" x="80px" y="36px" /><rect fill="rgb(50,68,228)" height="5px" width="5px" x="84px" y="36px" /><rect fill="rgb(50,68,228)" height="5px" width="5px" x="88px" y="36px" /><rect fill="rgb(41,48,108)" height="5px" width="5px" x="92px" y="36px" /><rect fill="rgb(50,68,228)" height="5px" width="5px" x="96px" y="36px" /><rect fill="rgb(50,68,228)" height="5px" width="5px" x="100px" y="36px" /><rect fill="rgb(41,48,108)" height="5px" width="5px" x="104px" y="36px" /><rect fill="rgb(22,25,59)" height="5px" width="5px" x="28px" y="40px" /><rect fill="rgb(12,14,32)" height="5px" width="5px" x="32px" y="40px" /><rect fill="rgb(12,14,32)" height="5px" width="5px" x="36px" y="40px" /><rect fill="rgb(12,14,32)" height="5px" width="5px" x="40px" y="40px" /><rect fill="rgb(23,27,62)" height="5px" width="5px" x="44px" y="40px" /><rect fill="rgb(23,27,62)" height="5px" width="5px" x="48px" y="40px" /><rect fill="rgb(23,27,62)" height="5px" width="5px" x="52px" y="40px" /><rect fill="rgb(23,27,62)" height="5px" width="5px" x="56px" y="40px" /><rect fill="rgb(23,27,62)" height="5px" width="5px" x="60px" y="40px" /><rect fill="rgb(23,27,62)" height="5px" width="5px" x="64px" y="40px" /><rect fill="rgb(30,35,79)" height="5px" width="5px" x="68px" y="40px" /><rect fill="rgb(30,35,79)" height="5px" width="5px" x="72px" y="40px" /><rect fill="rgb(30,35,79)" height="5px" width="5px" x="76px" y="40px" /><rect fill="rgb(30,35,79)" height="5px" width="5px" x="80px" y="40px" /><rect fill="rgb(30,35,79)" height="5px" width="5px" x="84px" y="40px" /><rect fill="rgb(30,35,79)" height="5px" width="5px" x="88px" y="40px" /><rect fill="rgb(36,42,93)" height="5px" width="5px" x="92px" y="40px" /><rect fill="rgb(38,52,178)" height="5px" width="5px" x="96px" y="40px" /><rect fill="rgb(38,52,178)" height="5px" width="5px" x="100px" y="40px" /><rect fill="rgb(50,68,228)" height="5px" width="5px" x="104px" y="40px" /><rect fill="rgb(41,48,108)" height="5px" width="5px" x="108px" y="40px" /><rect fill="rgb(23,26,60)" height="5px" width="5px" x="112px" y="40px" /><rect fill="rgb(255,246,203)" height="5px" width="5px" x="16px" y="44px" /><rect fill="rgb(255,246,203)" height="5px" width="5px" x="20px" y="44px" /><rect fill="rgb(251,234,150)" height="5px" width="5px" x="24px" y="44px" /><rect fill="rgb(255,233,127)" height="5px" width="5px" x="28px" y="44px" /><rect fill="rgb(22,25,59)" height="5px" width="5px" x="32px" y="44px" /><rect fill="rgb(20,23,52)" height="5px" width="5px" x="36px" y="44px" /><rect fill="rgb(20,23,52)" height="5px" width="5px" x="40px" y="44px" /><rect fill="rgb(20,23,52)" height="5px" width="5px" x="44px" y="44px" /><rect fill="rgb(23,27,62)" height="5px" width="5px" x="48px" y="44px" /><rect fill="rgb(20,23,52)" height="5px" width="5px" x="52px" y="44px" /><rect fill="rgb(20,23,52)" height="5px" width="5px" x="56px" y="44px" /><rect fill="rgb(23,27,62)" height="5px" width="5px" x="60px" y="44px" /><rect fill="rgb(23,27,62)" height="5px" width="5px" x="64px" y="44px" /><rect fill="rgb(23,27,62)" height="5px" width="5px" x="68px" y="44px" /><rect fill="rgb(15,18,42)" height="5px" width="5px" x="72px" y="44px" /><rect fill="rgb(15,18,42)" height="5px" width="5px" x="76px" y="44px" /><rect fill="rgb(15,18,42)" height="5px" width="5px" x="80px" y="44px" /><rect fill="rgb(15,18,42)" height="5px" width="5px" x="84px" y="44px" /><rect fill="rgb(18,22,51)" height="5px" width="5px" x="88px" y="44px" /><rect fill="rgb(23,27,62)" height="5px" width="5px" x="92px" y="44px" /><rect fill="rgb(23,27,62)" height="5px" width="5px" x="96px" y="44px" /><rect fill="rgb(36,42,93)" height="5px" width="5px" x="100px" y="44px" /><rect fill="rgb(36,42,93)" height="5px" width="5px" x="104px" y="44px" /><rect fill="rgb(36,42,93)" height="5px" width="5px" x="108px" y="44px" /><rect fill="rgb(23,26,60)" height="5px" width="5px" x="112px" y="44px" /><rect fill="rgb(12,14,32)" height="5px" width="5px" x="20px" y="48px" /><rect fill="rgb(12,14,32)" height="5px" width="5px" x="24px" y="48px" /><rect fill="rgb(22,25,59)" height="5px" width="5px" x="28px" y="48px" /><rect fill="rgb(20,23,52)" height="5px" width="5px" x="32px" y="48px" /><rect fill="rgb(20,23,52)" height="5px" width="5px" x="36px" y="48px" /><rect fill="rgb(20,23,52)" height="5px" width="5px" x="40px" y="48px" /><rect fill="rgb(20,23,52)" height="5px" width="5px" x="44px" y="48px" /><rect fill="rgb(20,23,52)" height="5px" width="5px" x="48px" y="48px" /><rect fill="rgb(20,23,52)" height="5px" width="5px" x="52px" y="48px" /><rect fill="rgb(20,23,52)" height="5px" width="5px" x="56px" y="48px" /><rect fill="rgb(15,18,42)" height="5px" width="5px" x="60px" y="48px" /><rect fill="rgb(15,18,42)" height="5px" width="5px" x="64px" y="48px" /><rect fill="rgb(15,18,42)" height="5px" width="5px" x="68px" y="48px" /><rect fill="rgb(15,18,42)" height="5px" width="5px" x="72px" y="48px" /><rect fill="rgb(15,18,42)" height="5px" width="5px" x="76px" y="48px" /><rect fill="rgb(15,18,42)" height="5px" width="5px" x="80px" y="48px" /><rect fill="rgb(15,18,42)" height="5px" width="5px" x="84px" y="48px" /><rect fill="rgb(15,18,42)" height="5px" width="5px" x="88px" y="48px" /><rect fill="rgb(15,18,42)" height="5px" width="5px" x="92px" y="48px" /><rect fill="rgb(23,27,62)" height="5px" width="5px" x="96px" y="48px" /><rect fill="rgb(18,21,49)" height="5px" width="5px" x="100px" y="48px" /><rect fill="rgb(23,26,60)" height="5px" width="5px" x="104px" y="48px" /><rect fill="rgb(22,25,59)" height="5px" width="5px" x="28px" y="52px" /><rect fill="rgb(12,14,32)" height="5px" width="5px" x="32px" y="52px" /><rect fill="rgb(12,14,32)" height="5px" width="5px" x="36px" y="52px" /><rect fill="rgb(12,14,32)" height="5px" width="5px" x="40px" y="52px" /><rect fill="rgb(12,14,32)" height="5px" width="5px" x="44px" y="52px" /><rect fill="rgb(12,14,32)" height="5px" width="5px" x="48px" y="52px" /><rect fill="rgb(12,14,32)" height="5px" width="5px" x="52px" y="52px" /><rect fill="rgb(12,14,32)" height="5px" width="5px" x="56px" y="52px" /><rect fill="rgb(12,14,32)" height="5px" width="5px" x="60px" y="52px" /><rect fill="rgb(12,14,32)" height="5px" width="5px" x="64px" y="52px" /><rect fill="rgb(13,15,34)" height="5px" width="5px" x="68px" y="52px" /><rect fill="rgb(13,15,34)" height="5px" width="5px" x="72px" y="52px" /><rect fill="rgb(15,17,40)" height="5px" width="5px" x="76px" y="52px" /><rect fill="rgb(15,17,40)" height="5px" width="5px" x="80px" y="52px" /><rect fill="rgb(15,17,40)" height="5px" width="5px" x="84px" y="52px" /><rect fill="rgb(18,21,49)" height="5px" width="5px" x="88px" y="52px" /><rect fill="rgb(23,26,60)" height="5px" width="5px" x="92px" y="52px" /><rect fill="rgb(23,26,60)" height="5px" width="5px" x="96px" y="52px" /><rect fill="rgb(255,246,203)" height="5px" width="5px" x="16px" y="56px" /><rect fill="rgb(255,246,203)" height="5px" width="5px" x="20px" y="56px" /><rect fill="rgb(251,234,150)" height="5px" width="5px" x="24px" y="56px" /><rect fill="rgb(255,233,127)" height="5px" width="5px" x="28px" y="56px" /><rect fill="rgb(22,25,59)" height="5px" width="5px" x="32px" y="56px" /><rect fill="rgb(12,14,32)" height="5px" width="5px" x="36px" y="56px" /><rect fill="rgb(12,14,32)" height="5px" width="5px" x="40px" y="56px" /><rect fill="rgb(12,14,32)" height="5px" width="5px" x="44px" y="56px" /><rect fill="rgb(12,14,32)" height="5px" width="5px" x="48px" y="56px" /><rect fill="rgb(12,14,32)" height="5px" width="5px" x="52px" y="56px" /><rect fill="rgb(12,14,32)" height="5px" width="5px" x="56px" y="56px" /><rect fill="rgb(12,14,32)" height="5px" width="5px" x="60px" y="56px" /><rect fill="rgb(12,14,32)" height="5px" width="5px" x="64px" y="56px" /><rect fill="rgb(15,17,40)" height="5px" width="5px" x="68px" y="56px" /><rect fill="rgb(15,17,40)" height="5px" width="5px" x="72px" y="56px" /><rect fill="rgb(15,17,40)" height="5px" width="5px" x="76px" y="56px" /><rect fill="rgb(18,21,49)" height="5px" width="5px" x="80px" y="56px" /><rect fill="rgb(23,26,60)" height="5px" width="5px" x="84px" y="56px" /><rect fill="rgb(23,26,60)" height="5px" width="5px" x="88px" y="56px" /><rect fill="rgb(12,14,32)" height="5px" width="5px" x="24px" y="60px" /><rect fill="rgb(22,25,59)" height="5px" width="5px" x="28px" y="60px" /><rect fill="rgb(12,14,32)" height="5px" width="5px" x="32px" y="60px" /><rect fill="rgb(12,14,32)" height="5px" width="5px" x="36px" y="60px" /><rect fill="rgb(12,14,32)" height="5px" width="5px" x="40px" y="60px" /><rect fill="rgb(12,14,32)" height="5px" width="5px" x="44px" y="60px" /><rect fill="rgb(12,14,32)" height="5px" width="5px" x="48px" y="60px" /><rect fill="rgb(12,14,32)" height="5px" width="5px" x="52px" y="60px" /><rect fill="rgb(12,14,32)" height="5px" width="5px" x="56px" y="60px" /><rect fill="rgb(15,17,40)" height="5px" width="5px" x="60px" y="60px" /><rect fill="rgb(15,17,40)" height="5px" width="5px" x="64px" y="60px" /><rect fill="rgb(15,17,40)" height="5px" width="5px" x="68px" y="60px" /><rect fill="rgb(18,21,49)" height="5px" width="5px" x="72px" y="60px" /><rect fill="rgb(18,21,49)" height="5px" width="5px" x="76px" y="60px" /><rect fill="rgb(23,26,60)" height="5px" width="5px" x="80px" y="60px" /><rect fill="rgb(23,26,60)" height="5px" width="5px" x="84px" y="60px" /><rect fill="rgb(12,14,32)" height="5px" width="5px" x="28px" y="64px" /><rect fill="rgb(12,14,32)" height="5px" width="5px" x="32px" y="64px" /><rect fill="rgb(12,14,32)" height="5px" width="5px" x="36px" y="64px" /><rect fill="rgb(12,14,32)" height="5px" width="5px" x="40px" y="64px" /><rect fill="rgb(12,14,32)" height="5px" width="5px" x="44px" y="64px" /><rect fill="rgb(12,14,32)" height="5px" width="5px" x="48px" y="64px" /><rect fill="rgb(12,14,32)" height="5px" width="5px" x="52px" y="64px" /><rect fill="rgb(12,14,32)" height="5px" width="5px" x="56px" y="64px" /><rect fill="rgb(15,17,40)" height="5px" width="5px" x="60px" y="64px" /><rect fill="rgb(15,17,40)" height="5px" width="5px" x="64px" y="64px" /><rect fill="rgb(18,21,49)" height="5px" width="5px" x="68px" y="64px" /><rect fill="rgb(23,26,60)" height="5px" width="5px" x="72px" y="64px" /><rect fill="rgb(23,26,60)" height="5px" width="5px" x="76px" y="64px" /><rect fill="rgb(12,14,32)" height="5px" width="5px" x="36px" y="68px" /><rect fill="rgb(12,14,32)" height="5px" width="5px" x="40px" y="68px" /><rect fill="rgb(12,14,32)" height="5px" width="5px" x="44px" y="68px" /><rect fill="rgb(12,14,32)" height="5px" width="5px" x="48px" y="68px" /><rect fill="rgb(13,15,34)" height="5px" width="5px" x="52px" y="68px" /><rect fill="rgb(15,17,40)" height="5px" width="5px" x="56px" y="68px" /><rect fill="rgb(15,17,40)" height="5px" width="5px" x="60px" y="68px" /><rect fill="rgb(18,21,49)" height="5px" width="5px" x="64px" y="68px" /><rect fill="rgb(23,26,60)" height="5px" width="5px" x="68px" y="68px" /><rect fill="rgb(12,14,32)" height="5px" width="5px" x="28px" y="72px" /><rect fill="rgb(12,14,32)" height="5px" width="5px" x="32px" y="72px" /><rect fill="rgb(12,14,32)" height="5px" width="5px" x="36px" y="72px" /><rect fill="rgb(12,14,32)" height="5px" width="5px" x="40px" y="72px" /><rect fill="rgb(12,14,32)" height="5px" width="5px" x="44px" y="72px" /><rect fill="rgb(13,15,34)" height="5px" width="5px" x="48px" y="72px" /><rect fill="rgb(15,17,40)" height="5px" width="5px" x="52px" y="72px" /><rect fill="rgb(18,21,49)" height="5px" width="5px" x="56px" y="72px" /><rect fill="rgb(18,21,49)" height="5px" width="5px" x="60px" y="72px" /><rect fill="rgb(12,14,32)" height="5px" width="5px" x="20px" y="76px" /><rect fill="rgb(12,14,32)" height="5px" width="5px" x="24px" y="76px" /><rect fill="rgb(12,14,32)" height="5px" width="5px" x="28px" y="76px" /><rect fill="rgb(12,14,32)" height="5px" width="5px" x="32px" y="76px" /><rect fill="rgb(12,14,32)" height="5px" width="5px" x="36px" y="76px" /><rect fill="rgb(12,14,32)" height="5px" width="5px" x="40px" y="76px" /><rect fill="rgb(12,14,32)" height="5px" width="5px" x="44px" y="76px" /><rect fill="rgb(15,17,40)" height="5px" width="5px" x="48px" y="76px" /><rect fill="rgb(15,17,40)" height="5px" width="5px" x="52px" y="76px" /><rect fill="rgb(12,14,32)" height="5px" width="5px" x="16px" y="80px" /><rect fill="rgb(12,14,32)" height="5px" width="5px" x="20px" y="80px" /><rect fill="rgb(12,14,32)" height="5px" width="5px" x="24px" y="80px" /><rect fill="rgb(12,14,32)" height="5px" width="5px" x="28px" y="80px" /><rect fill="rgb(12,14,32)" height="5px" width="5px" x="32px" y="80px" /><rect fill="rgb(12,14,32)" height="5px" width="5px" x="36px" y="80px" /><rect fill="rgb(12,14,32)" height="5px" width="5px" x="40px" y="80px" /><rect fill="rgb(12,14,32)" height="5px" width="5px" x="44px" y="80px" /><rect fill="rgb(12,14,32)" height="5px" width="5px" x="16px" y="84px" /><rect fill="rgb(12,14,32)" height="5px" width="5px" x="20px" y="84px" /><rect fill="rgb(12,14,32)" height="5px" width="5px" x="24px" y="84px" /><rect fill="rgb(12,14,32)" height="5px" width="5px" x="28px" y="84px" /><rect fill="rgb(12,14,32)" height="5px" width="5px" x="32px" y="84px" /><rect fill="rgb(12,14,32)" height="5px" width="5px" x="36px" y="84px" /><rect fill="rgb(12,14,32)" height="5px" width="5px" x="20px" y="88px" /><rect fill="rgb(12,14,32)" height="5px" width="5px" x="24px" y="88px" /><rect fill="rgb(12,14,32)" height="5px" width="5px" x="28px" y="88px" /><rect fill="rgb(12,14,32)" height="5px" width="5px" x="32px" y="88px" /></svg>