<?xml version="1.0" encoding="utf-8" ?>
<svg baseProfile="full" height="128px" version="1.1" width="128px" xmlns="http://www.w3.org/2000/svg" xmlns:ev="http://www.w3.org/2001/xml-events" xmlns:xlink="http://www.w3.org/1999/xlink"><defs /><rect fill="rgb(127,119,81)" height="5px" width="5px" x="108px" y="4px" /><rect fill="rgb(127,119,81)" height="5px" width="5px" x="112px" y="4px" /><rect fill="rgb(79,74,50)" height="5px" width="5px" x="116px" y="4px" /><rect fill="rgb(79,74,50)" height="5px" width="5px" x="120px" y="4px" /><rect fill="rgb(79,74,50)" height="5px" width="5px" x="108px" y="8px" /><rect fill="rgb(79,74,50)" height="5px" width="5px" x="112px" y="8px" /><rect fill="rgb(161,151,102)" height="5px" width="5px" x="116px" y="8px" /><rect fill="rgb(79,74,50)" height="5px" width="5px" x="120px" y="8px" /><rect fill="rgb(127,119,81)" height="5px" width="5px" x="104px" y="12px" /><rect fill="rgb(127,119,81)" height="5px" width="5px" x="108px" y="12px" /><rect fill="rgb(127,119,81)" height="5px" width="5px" x="112px" y="12px" /><rect fill="rgb(79,74,50)" height="5px" width="5px" x="116px" y="12px" /><rect fill="rgb(127,119,81)" height="5px" width="5px" x="120px" y="12px" /><rect fill="rgb(53,25,25)" height="5px" width="5px" x="100px" y="16px" /><rect fill="rgb(53,25,25)" height="5px" width="5px" x="104px" y="16px" /><rect fill="rgb(76,36,36)" height="5px" width="5px" x="108px" y="16px" /><rect fill="rgb(127,119,81)" height="5px" width="5px" x="112px" y="16px" /><rect fill="rgb(79,74,50)" height="5px" width="5px" x="116px" y="16px" /><rect fill="rgb(127,119,81)" height="5px" width="5px" x="120px" y="16px" /><rect fill="rgb(89,43,43)" height="5px" width="5px" x="96px" y="20px" /><rect fill="rgb(89,43,43)" height="5px" width="5px" x="100px" y="20px" /><rect fill="rgb(76,36,36)" height="5px" width="5px" x="104px" y="20px" /><rect fill="rgb(89,43,43)" height="5px" width="5px" x="108px" y="20px" /><rect fill="rgb(127,119,81)" height="5px" width="5px" x="112px" y="20px" /><rect fill="rgb(53,25,25)" height="5px" width="5px" x="92px" y="24px" /><rect fill="rgb(53,25,25)" height="5px" width="5px" x="96px" y="24px" /><rect fill="rgb(76,36,36)" height="5px" width="5px" x="100px" y="24px" /><rect fill="rgb(53,25,25)" height="5px" width="5px" x="104px" y="24px" /><rect fill="rgb(89,43,43)" height="5px" width="5px" x="108px" y="24px" /><rect fill="rgb(89,43,43)" height="5px" width="5px" x="88px" y="28px" /><rect fill="rgb(89,43,43)" height="5px" width="5px" x="92px" y="28px" /><rect fill="rgb(76,36,36)" height="5px" width="5px" x="96px" y="28px" /><rect fill="rgb(89,43,43)" height="5px" width="5px" x="100px" y="28px" /><rect fill="rgb(53,25,25)" height="5px" width="5px" x="104px" y="28px" /><rect fill="rgb(127,119,81)" height="5px" width="5px" x="64px" y="32px" /><rect fill="rgb(127,119,81)" height="5px" width="5px" x="68px" y="32px" /><rect fill="rgb(79,74,50)" height="5px" width="5px" x="72px" y="32px" /><rect fill="rgb(127,119,81)" height="5px" width="5px" x="76px" y="32px" /><rect fill="rgb(127,119,81)" height="5px" width="5px" x="80px" y="32px" /><rect fill="rgb(53,25,25)" height="5px" width="5px" x="84px" y="32px" /><rect fill="rgb(53,25,25)" height="5px" width="5px" x="88px" y="32px" /><rect fill="rgb(76,36,36)" height="5px" width="5px" x="92px" y="32px" /><rect fill="rgb(53,25,25)" height="5px" width="5px" x="96px" y="32px" /><rect fill="rgb(89,43,43)" height="5px" width="5px" x="100px" y="32px" /><rect fill="rgb(127,119,81)" height="5px" width="5px" x="64px" y="36px" /><rect fill="rgb(161,151,102)" height="5px" width="5px" x="68px" y="36px" /><rect fill="rgb(127,119,81)" height="5px" width="5px" x="72px" y="36px" /><rect fill="rgb(79,74,50)" height="5px" width="5px" x="76px" y="36px" /><rect fill="rgb(127,119,81)" height="5px" width="5px" x="80px" y="36px" /><rect fill="rgb(89,43,43)" height="5px" width="5px" x="84px" y="36px" /><rect fill="rgb(76,36,36)" height="5px" width="5px" x="88px" y="36px" /><rect fill="rgb(89,43,43)" height="5px" width="5px" x="92px" y="36px" /><rect fill="rgb(53,25,25)" height="5px" width="5px" x="96px" y="36px" /><rect fill="rgb(79,74,50)" height="5px" width="5px" x="64px" y="40px" /><rect fill="rgb(127,119,81)" height="5px" width="5px" x="68px" y="40px" /><rect fill="rgb(127,119,81)" height="5px" width="5px" x="72px" y="40px" /><rect fill="rgb(127,119,81)" height="5px" width="5px" x="76px" y="40px" /><rect fill="rgb(79,74,50)" height="5px" width="5px" x="80px" y="40px" /><rect fill="rgb(127,119,81)" height="5px" width="5px" x="84px" y="40px" /><rect fill="rgb(89,43,43)" height="5px" width="5px" x="88px" y="40px" /><rect fill="rgb(89,43,43)" height="5px" width="5px" x="92px" y="40px" /><rect fill="rgb(127,119,81)" height="5px" width="5px" x="64px" y="44px" /><rect fill="rgb(79,74,50)" height="5px" width="5px" x="68px" y="44px" /><rect fill="rgb(127,119,81)" height="5px" width="5px" x="72px" y="44px" /><rect fill="rgb(161,151,102)" height="5px" width="5px" x="76px" y="44px" /><rect fill="rgb(127,119,81)" height="5px" width="5px" x="80px" y="44px" /><rect fill="rgb(79,74,50)" height="5px" width="5px" x="84px" y="44px" /><rect fill="rgb(127,119,81)" height="5px" width="5px" x="88px" y="44px" /><rect fill="rgb(127,119,81)" height="5px" width="5px" x="92px" y="44px" /><rect fill="rgb(90,90,99)" height="5px" width="5px" x="64px" y="48px" /><rect fill="rgb(90,90,99)" height="5px" width="5px" x="68px" y="48px" /><rect fill="rgb(79,74,50)" height="5px" width="5px" x="72px" y="48px" /><rect fill="rgb(127,119,81)" height="5px" width="5px" x="76px" y="48px" /><rect fill="rgb(127,119,81)" height="5px" width="5px" x="80px" y="48px" /><rect fill="rgb(127,119,81)" height="5px" width="5px" x="84px" y="48px" /><rect fill="rgb(79,74,50)" height="5px" width="5px" x="88px" y="48px" /><rect fill="rgb(127,119,81)" height="5px" width="5px" x="92px" y="48px" /><rect fill="rgb(90,90,99)" height="5px" width="5px" x="60px" y="52px" /><rect fill="rgb(90,90,99)" height="5px" width="5px" x="64px" y="52px" /><rect fill="rgb(90,90,99)" height="5px" width="5px" x="68px" y="52px" /><rect fill="rgb(62,62,69)" height="5px" width="5px" x="72px" y="52px" /><rect fill="rgb(79,74,50)" height="5px" width="5px" x="76px" y="52px" /><rect fill="rgb(127,119,81)" height="5px" width="5px" x="80px" y="52px" /><rect fill="rgb(161,151,102)" height="5px" width="5px" x="84px" y="52px" /><rect fill="rgb(127,119,81)" height="5px" width="5px" x="88px" y="52px" /><rect fill="rgb(79,74,50)" height="5px" width="5px" x="92px" y="52px" /><rect fill="rgb(90,90,99)" height="5px" width="5px" x="56px" y="56px" /><rect fill="rgb(90,90,99)" height="5px" width="5px" x="60px" y="56px" /><rect fill="rgb(90,90,99)" height="5px" width="5px" x="64px" y="56px" /><rect fill="rgb(62,62,69)" height="5px" width="5px" x="68px" y="56px" /><rect fill="rgb(75,75,84)" height="5px" width="5px" x="72px" y="56px" /><rect fill="rgb(90,90,99)" height="5px" width="5px" x="76px" y="56px" /><rect fill="rgb(79,74,50)" height="5px" width="5px" x="80px" y="56px" /><rect fill="rgb(127,119,81)" height="5px" width="5px" x="84px" y="56px" /><rect fill="rgb(127,119,81)" height="5px" width="5px" x="88px" y="56px" /><rect fill="rgb(127,119,81)" height="5px" width="5px" x="92px" y="56px" /><rect fill="rgb(90,90,99)" height="5px" width="5px" x="52px" y="60px" /><rect fill="rgb(90,90,99)" height="5px" width="5px" x="56px" y="60px" /><rect fill="rgb(90,90,99)" height="5px" width="5px" x="60px" y="60px" /><rect fill="rgb(62,62,69)" height="5px" width="5px" x="64px" y="60px" /><rect fill="rgb(75,75,84)" height="5px" width="5px" x="68px" y="60px" /><rect fill="rgb(90,90,99)" height="5px" width="5px" x="72px" y="60px" /><rect fill="rgb(90,90,99)" height="5px" width="5px" x="76px" y="60px" /><rect fill="rgb(127,119,81)" height="5px" width="5px" x="80px" y="60px" /><rect fill="rgb(79,74,50)" height="5px" width="5px" x="84px" y="60px" /><rect fill="rgb(127,119,81)" height="5px" width="5px" x="88px" y="60px" /><rect fill="rgb(161,151,102)" height="5px" width="5px" x="92px" y="60px" /><rect fill="rgb(90,90,99)" height="5px" width="5px" x="48px" y="64px" /><rect fill="rgb(90,90,99)" height="5px" width="5px" x="52px" y="64px" /><rect fill="rgb(90,90,99)" height="5px" width="5px" x="56px" y="64px" /><rect fill="rgb(62,62,69)" height="5px" width="5px" x="60px" y="64px" /><rect fill="rgb(75,75,84)" height="5px" width="5px" x="64px" y="64px" /><rect fill="rgb(90,90,99)" height="5px" width="5px" x="68px" y="64px" /><rect fill="rgb(90,90,99)" height="5px" width="5px" x="72px" y="64px" /><rect fill="rgb(90,90,99)" height="5px" width="5px" x="44px" y="68px" /><rect fill="rgb(90,90,99)" height="5px" width="5px" x="48px" y="68px" /><rect fill="rgb(90,90,99)" height="5px" width="5px" x="52px" y="68px" /><rect fill="rgb(62,62,69)" height="5px" width="5px" x="56px" y="68px" /><rect fill="rgb(75,75,84)" height="5px" width="5px" x="60px" y="68px" /><rect fill="rgb(90,90,99)" height="5px" width="5px" x="64px" y="68px" /><rect fill="rgb(90,90,99)" height="5px" width="5px" x="68px" y="68px" /><rect fill="rgb(90,90,99)" height="5px" width="5px" x="40px" y="72px" /><rect fill="rgb(90,90,99)" height="5px" width="5px" x="44px" y="72px" /><rect fill="rgb(90,90,99)" height="5px" width="5px" x="48px" y="72px" /><rect fill="rgb(62,62,69)" height="5px" width="5px" x="52px" y="72px" /><rect fill="rgb(75,75,84)" height="5px" width="5px" x="56px" y="72px" /><rect fill="rgb(90,90,99)" height="5px" width="5px" x="60px" y="72px" /><rect fill="rgb(90,90,99)" height="5px" width="5px" x="64px" y="72px" /><rect fill="rgb(90,90,99)" height="5px" width="5px" x="36px" y="76px" /><rect fill="rgb(90,90,99)" height="5px" width="5px" x="40px" y="76px" /><rect fill="rgb(90,90,99)" height="5px" width="5px" x="44px" y="76px" /><rect fill="rgb(62,62,69)" height="5px" width="5px" x="48px" y="76px" /><rect fill="rgb(75,75,84)" height="5px" width="5px" x="52px" y="76px" /><rect fill="rgb(90,90,99)" height="5px" width="5px" x="56px" y="76px" /><rect fill="rgb(90,90,99)" height="5px" width="5px" x="60px" y="76px" /><rect fill="rgb(90,90,99)" height="5px" width="5px" x="32px" y="80px" /><rect fill="rgb(90,90,99)" height="5px" width="5px" x="36px" y="80px" /><rect fill="rgb(90,90,99)" height="5px" width="5px" x="40px" y="80px" /><rect fill="rgb(62,62,69)" height="5px" width="5px" x="44px" y="80px" /><rect fill="rgb(75,75,84)" height="5px" width="5px" x="48px" y="80px" /><rect fill="rgb(90,90,99)" height="5px" width="5px" x="52px" y="80px" /><rect fill="rgb(90,90,99)" height="5px" width="5px" x="56px" y="80px" /><rect fill="rgb(90,90,99)" height="5px" width="5px" x="28px" y="84px" /><rect fill="rgb(90,90,99)" height="5px" width="5px" x="32px" y="84px" /><rect fill="rgb(90,90,99)" height="5px" width="5px" x="36px" y="84px" /><rect fill="rgb(62,62,69)" height="5px" width="5px" x="40px" y="84px" /><rect fill="rgb(75,75,84)" height="5px" width="5px" x="44px" y="84px" /><rect fill="rgb(90,90,99)" height="5px" width="5px" x="48px" y="84px" /><rect fill="rgb(90,90,99)" height="5px" width="5px" x="52px" y="84px" /><rect fill="rgb(90,90,99)" height="5px" width="5px" x="24px" y="88px" /><rect fill="rgb(90,90,99)" height="5px" width="5px" x="28px" y="88px" /><rect fill="rgb(90,90,99)" height="5px" width="5px" x="32px" y="88px" /><rect fill="rgb(62,62,69)" height="5px" width="5px" x="36px" y="88px" /><rect fill="rgb(75,75,84)" height="5px" width="5px" x="40px" y="88px" /><rect fill="rgb(90,90,99)" height="5px" width="5px" x="44px" y="88px" /><rect fill="rgb(90,90,99)" height="5px" width="5px" x="48px" y="88px" /><rect fill="rgb(90,90,99)" height="5px" width="5px" x="20px" y="92px" /><rect fill="rgb(90,90,99)" height="5px" width="5px" x="24px" y="92px" /><rect fill="rgb(90,90,99)" height="5px" width="5px" x="28px" y="92px" /><rect fill="rgb(62,62,69)" height="5px" width="5px" x="32px" y="92px" /><rect fill="rgb(75,75,84)" height="5px" width="5px" x="36px" y="92px" /><rect fill="rgb(90,90,99)" height="5px" width="5px" x="40px" y="92px" /><rect fill="rgb(90,90,99)" height="5px" width="5px" x="44px" y="92px" /><rect fill="rgb(81,81,89)" height="5px" width="5px" x="16px" y="96px" /><rect fill="rgb(90,90,99)" height="5px" width="5px" x="20px" y="96px" /><rect fill="rgb(90,90,99)" height="5px" width="5px" x="24px" y="96px" /><rect fill="rgb(62,62,69)" height="5px" width="5px" x="28px" y="96px" /><rect fill="rgb(75,75,84)" height="5px" width="5px" x="32px" y="96px" /><rect fill="rgb(90,90,99)" height="5px" width="5px" x="36px" y="96px" /><rect fill="rgb(90,90,99)" height="5px" width="5px" x="40px" y="96px" /><rect fill="rgb(81,81,89)" height="5px" width="5px" x="12px" y="100px" /><rect fill="rgb(81,81,89)" height="5px" width="5px" x="16px" y="100px" /><rect fill="rgb(90,90,99)" height="5px" width="5px" x="20px" y="100px" /><rect fill="rgb(62,62,69)" height="5px" width="5px" x="24px" y="100px" /><rect fill="rgb(75,75,84)" height="5px" width="5px" x="28px" y="100px" /><rect fill="rgb(90,90,99)" height="5px" width="5px" x="32px" y="100px" /><rect fill="rgb(90,90,99)" height="5px" width="5px" x="36px" y="100px" /><rect fill="rgb(71,71,79)" height="5px" width="5px" x="12px" y="104px" /><rect fill="rgb(71,71,79)" height="5px" width="5px" x="16px" y="104px" /><rect fill="rgb(62,62,69)" height="5px" width="5px" x="20px" y="104px" /><rect fill="rgb(81,81,89)" height="5px" width="5px" x="24px" y="104px" /><rect fill="rgb(81,81,89)" height="5px" width="5px" x="28px" y="104px" /><rect fill="rgb(81,81,89)" height="5px" width="5px" x="32px" y="104px" /><rect fill="rgb(71,71,79)" height="5px" width="5px" x="12px" y="108px" /><rect fill="rgb(62,62,69)" height="5px" width="5px" x="16px" y="108px" /><rect fill="rgb(71,71,79)" height="5px" width="5px" x="20px" y="108px" /><rect fill="rgb(81,81,89)" height="5px" width="5px" x="24px" y="108px" /><rect fill="rgb(81,81,89)" height="5px" width="5px" x="28px" y="108px" /><rect fill="rgb(62,62,69)" height="5px" width="5px" x="12px" y="112px" /><rect fill="rgb(71,71,79)" height="5px" width="5px" x="16px" y="112px" /><rect fill="rgb(71,71,79)" height="5px" width="5px" x="20px" y="112px" /><rect fill="rgb(71,71,79)" height="5px" width="5px" x="24px" y="112px" /></svg>