<?xml version="1.0" encoding="utf-8" ?>
<svg baseProfile="full" height="128px" version="1.1" width="128px" xmlns="http://www.w3.org/2000/svg" xmlns:ev="http://www.w3.org/2001/xml-events" xmlns:xlink="http://www.w3.org/1999/xlink"><defs /><rect fill="rgb(0,43,8)" height="5px" width="5px" x="76px" y="40px" /><rect fill="rgb(0,43,8)" height="5px" width="5px" x="80px" y="40px" /><rect fill="rgb(0,43,8)" height="5px" width="5px" x="84px" y="40px" /><rect fill="rgb(0,43,8)" height="5px" width="5px" x="88px" y="40px" /><rect fill="rgb(0,43,8)" height="5px" width="5px" x="92px" y="40px" /><rect fill="rgb(0,43,8)" height="5px" width="5px" x="48px" y="44px" /><rect fill="rgb(0,43,8)" height="5px" width="5px" x="52px" y="44px" /><rect fill="rgb(0,43,8)" height="5px" width="5px" x="56px" y="44px" /><rect fill="rgb(0,43,8)" height="5px" width="5px" x="60px" y="44px" /><rect fill="rgb(0,43,8)" height="5px" width="5px" x="64px" y="44px" /><rect fill="rgb(0,43,8)" height="5px" width="5px" x="68px" y="44px" /><rect fill="rgb(0,43,8)" height="5px" width="5px" x="72px" y="44px" /><rect fill="rgb(0,43,8)" height="5px" width="5px" x="76px" y="44px" /><rect fill="rgb(0,43,8)" height="5px" width="5px" x="80px" y="44px" /><rect fill="rgb(0,43,8)" height="5px" width="5px" x="84px" y="44px" /><rect fill="rgb(0,43,8)" height="5px" width="5px" x="88px" y="44px" /><rect fill="rgb(0,43,8)" height="5px" width="5px" x="92px" y="44px" /><rect fill="rgb(0,43,8)" height="5px" width="5px" x="96px" y="44px" /><rect fill="rgb(20,20,5)" height="5px" opacity="0.196078431373" width="5px" x="100px" y="44px" /><rect fill="rgb(0,43,8)" height="5px" width="5px" x="44px" y="48px" /><rect fill="rgb(0,43,8)" height="5px" width="5px" x="48px" y="48px" /><rect fill="rgb(0,43,8)" height="5px" width="5px" x="52px" y="48px" /><rect fill="rgb(0,43,8)" height="5px" width="5px" x="56px" y="48px" /><rect fill="rgb(0,43,8)" height="5px" width="5px" x="60px" y="48px" /><rect fill="rgb(0,43,8)" height="5px" width="5px" x="64px" y="48px" /><rect fill="rgb(0,43,8)" height="5px" width="5px" x="68px" y="48px" /><rect fill="rgb(0,43,8)" height="5px" width="5px" x="72px" y="48px" /><rect fill="rgb(0,43,8)" height="5px" width="5px" x="76px" y="48px" /><rect fill="rgb(0,43,8)" height="5px" width="5px" x="80px" y="48px" /><rect fill="rgb(0,43,8)" height="5px" width="5px" x="84px" y="48px" /><rect fill="rgb(0,43,8)" height="5px" width="5px" x="88px" y="48px" /><rect fill="rgb(0,43,8)" height="5px" width="5px" x="92px" y="48px" /><rect fill="rgb(0,43,8)" height="5px" width="5px" x="96px" y="48px" /><rect fill="rgb(0,43,8)" height="5px" width="5px" x="100px" y="48px" /><rect fill="rgb(0,43,8)" height="5px" width="5px" x="4px" y="52px" /><rect fill="rgb(0,43,8)" height="5px" width="5px" x="8px" y="52px" /><rect fill="rgb(0,43,8)" height="5px" width="5px" x="12px" y="52px" /><rect fill="rgb(0,43,8)" height="5px" width="5px" x="16px" y="52px" /><rect fill="rgb(0,43,8)" height="5px" width="5px" x="20px" y="52px" /><rect fill="rgb(0,43,8)" height="5px" width="5px" x="24px" y="52px" /><rect fill="rgb(0,43,8)" height="5px" width="5px" x="28px" y="52px" /><rect fill="rgb(0,43,8)" height="5px" width="5px" x="32px" y="52px" /><rect fill="rgb(0,43,8)" height="5px" width="5px" x="36px" y="52px" /><rect fill="rgb(0,43,8)" height="5px" width="5px" x="40px" y="52px" /><rect fill="rgb(0,43,8)" height="5px" width="5px" x="44px" y="52px" /><rect fill="rgb(0,43,8)" height="5px" width="5px" x="48px" y="52px" /><rect fill="rgb(0,43,8)" height="5px" width="5px" x="52px" y="52px" /><rect fill="rgb(0,43,8)" height="5px" width="5px" x="56px" y="52px" /><rect fill="rgb(0,43,8)" height="5px" width="5px" x="60px" y="52px" /><rect fill="rgb(0,43,8)" height="5px" width="5px" x="64px" y="52px" /><rect fill="rgb(0,43,8)" height="5px" width="5px" x="68px" y="52px" /><rect fill="rgb(0,43,8)" height="5px" width="5px" x="72px" y="52px" /><rect fill="rgb(0,43,8)" height="5px" width="5px" x="76px" y="52px" /><rect fill="rgb(0,43,8)" height="5px" width="5px" x="80px" y="52px" /><rect fill="rgb(0,43,8)" height="5px" width="5px" x="84px" y="52px" /><rect fill="rgb(0,43,8)" height="5px" width="5px" x="88px" y="52px" /><rect fill="rgb(0,43,8)" height="5px" width="5px" x="92px" y="52px" /><rect fill="rgb(0,43,8)" height="5px" width="5px" x="96px" y="52px" /><rect fill="rgb(0,43,8)" height="5px" width="5px" x="100px" y="52px" /><rect fill="rgb(0,43,8)" height="5px" width="5px" x="44px" y="56px" /><rect fill="rgb(0,43,8)" height="5px" width="5px" x="48px" y="56px" /><rect fill="rgb(0,43,8)" height="5px" width="5px" x="52px" y="56px" /><rect fill="rgb(0,43,8)" height="5px" width="5px" x="56px" y="56px" /><rect fill="rgb(0,43,8)" height="5px" width="5px" x="60px" y="56px" /><rect fill="rgb(0,43,8)" height="5px" width="5px" x="64px" y="56px" /><rect fill="rgb(0,43,8)" height="5px" width="5px" x="68px" y="56px" /><rect fill="rgb(0,43,8)" height="5px" width="5px" x="72px" y="56px" /><rect fill="rgb(0,43,8)" height="5px" width="5px" x="76px" y="56px" /><rect fill="rgb(0,43,8)" height="5px" width="5px" x="80px" y="56px" /><rect fill="rgb(0,43,8)" height="5px" width="5px" x="84px" y="56px" /><rect fill="rgb(0,43,8)" height="5px" width="5px" x="88px" y="56px" /><rect fill="rgb(0,43,8)" height="5px" width="5px" x="92px" y="56px" /><rect fill="rgb(0,43,8)" height="5px" width="5px" x="96px" y="56px" /><rect fill="rgb(0,43,8)" height="5px" width="5px" x="100px" y="56px" /><rect fill="rgb(0,43,8)" height="5px" width="5px" x="44px" y="60px" /><rect fill="rgb(0,43,8)" height="5px" width="5px" x="48px" y="60px" /><rect fill="rgb(0,43,8)" height="5px" width="5px" x="52px" y="60px" /><rect fill="rgb(0,43,8)" height="5px" width="5px" x="56px" y="60px" /><rect fill="rgb(0,43,8)" height="5px" width="5px" x="60px" y="60px" /><rect fill="rgb(0,43,8)" height="5px" width="5px" x="64px" y="60px" /><rect fill="rgb(0,43,8)" height="5px" width="5px" x="68px" y="60px" /><rect fill="rgb(0,43,8)" height="5px" width="5px" x="72px" y="60px" /><rect fill="rgb(0,43,8)" height="5px" width="5px" x="76px" y="60px" /><rect fill="rgb(0,43,8)" height="5px" width="5px" x="80px" y="60px" /><rect fill="rgb(0,43,8)" height="5px" width="5px" x="84px" y="60px" /><rect fill="rgb(0,43,8)" height="5px" width="5px" x="88px" y="60px" /><rect fill="rgb(0,43,8)" height="5px" width="5px" x="92px" y="60px" /><rect fill="rgb(0,43,8)" height="5px" width="5px" x="96px" y="60px" /><rect fill="rgb(18,18,4)" height="5px" opacity="0.933333333333" width="5px" x="100px" y="60px" /><rect fill="rgb(0,43,8)" height="5px" width="5px" x="120px" y="60px" /><rect fill="rgb(0,43,8)" height="5px" width="5px" x="124px" y="60px" /><rect fill="rgb(0,43,8)" height="5px" width="5px" x="52px" y="64px" /><rect fill="rgb(0,43,8)" height="5px" width="5px" x="56px" y="64px" /><rect fill="rgb(0,43,8)" height="5px" width="5px" x="60px" y="64px" /><rect fill="rgb(0,43,8)" height="5px" width="5px" x="64px" y="64px" /><rect fill="rgb(0,43,8)" height="5px" width="5px" x="68px" y="64px" /><rect fill="rgb(0,43,8)" height="5px" width="5px" x="72px" y="64px" /><rect fill="rgb(0,43,8)" height="5px" width="5px" x="76px" y="64px" /><rect fill="rgb(0,43,8)" height="5px" width="5px" x="80px" y="64px" /><rect fill="rgb(0,43,8)" height="5px" width="5px" x="84px" y="64px" /><rect fill="rgb(0,43,8)" height="5px" width="5px" x="88px" y="64px" /><rect fill="rgb(0,43,8)" height="5px" width="5px" x="92px" y="64px" /><rect fill="rgb(0,43,8)" height="5px" width="5px" x="120px" y="64px" /><rect fill="rgb(0,43,8)" height="5px" width="5px" x="124px" y="64px" /><rect fill="rgb(40,40,40)" height="5px" opacity="0.196078431373" width="5px" x="12px" y="68px" /><rect fill="rgb(0,79,0)" height="5px" width="5px" x="24px" y="68px" /><rect fill="rgb(0,79,0)" height="5px" width="5px" x="28px" y="68px" /><rect fill="rgb(0,79,0)" height="5px" width="5px" x="32px" y="68px" /><rect fill="rgb(0,79,0)" height="5px" width="5px" x="36px" y="68px" /><rect fill="rgb(0,79,0)" height="5px" width="5px" x="40px" y="68px" /><rect fill="rgb(0,79,0)" height="5px" width="5px" x="44px" y="68px" /><rect fill="rgb(0,79,0)" height="5px" width="5px" x="48px" y="68px" /><rect fill="rgb(0,79,0)" height="5px" width="5px" x="52px" y="68px" /><rect fill="rgb(0,79,0)" height="5px" width="5px" x="56px" y="68px" /><rect fill="rgb(0,79,0)" height="5px" width="5px" x="60px" y="68px" /><rect fill="rgb(0,79,0)" height="5px" width="5px" x="64px" y="68px" /><rect fill="rgb(0,79,0)" height="5px" width="5px" x="68px" y="68px" /><rect fill="rgb(0,79,0)" height="5px" width="5px" x="72px" y="68px" /><rect fill="rgb(0,79,0)" height="5px" width="5px" x="76px" y="68px" /><rect fill="rgb(0,79,0)" height="5px" width="5px" x="80px" y="68px" /><rect fill="rgb(0,79,0)" height="5px" width="5px" x="84px" y="68px" /><rect fill="rgb(0,79,0)" height="5px" width="5px" x="88px" y="68px" /><rect fill="rgb(0,79,0)" height="5px" width="5px" x="92px" y="68px" /><rect fill="rgb(0,79,0)" height="5px" width="5px" x="96px" y="68px" /><rect fill="rgb(0,79,0)" height="5px" width="5px" x="100px" y="68px" /><rect fill="rgb(0,79,0)" height="5px" width="5px" x="104px" y="68px" /><rect fill="rgb(0,79,0)" height="5px" width="5px" x="108px" y="68px" /><rect fill="rgb(0,79,0)" height="5px" width="5px" x="112px" y="68px" /><rect fill="rgb(0,79,0)" height="5px" width="5px" x="116px" y="68px" /><rect fill="rgb(0,43,8)" height="5px" width="5px" x="120px" y="68px" /><rect fill="rgb(0,43,8)" height="5px" width="5px" x="124px" y="68px" /><rect fill="rgb(41,41,41)" height="5px" opacity="0.121568627451" width="5px" x="12px" y="72px" /><rect fill="rgb(0,79,0)" height="5px" width="5px" x="20px" y="72px" /><rect fill="rgb(0,79,0)" height="5px" width="5px" x="24px" y="72px" /><rect fill="rgb(0,79,0)" height="5px" width="5px" x="28px" y="72px" /><rect fill="rgb(0,79,0)" height="5px" width="5px" x="32px" y="72px" /><rect fill="rgb(0,79,0)" height="5px" width="5px" x="36px" y="72px" /><rect fill="rgb(0,79,0)" height="5px" width="5px" x="40px" y="72px" /><rect fill="rgb(0,79,0)" height="5px" width="5px" x="44px" y="72px" /><rect fill="rgb(0,79,0)" height="5px" width="5px" x="48px" y="72px" /><rect fill="rgb(0,79,0)" height="5px" width="5px" x="52px" y="72px" /><rect fill="rgb(0,79,0)" height="5px" width="5px" x="56px" y="72px" /><rect fill="rgb(0,79,0)" height="5px" width="5px" x="60px" y="72px" /><rect fill="rgb(0,79,0)" height="5px" width="5px" x="64px" y="72px" /><rect fill="rgb(0,79,0)" height="5px" width="5px" x="68px" y="72px" /><rect fill="rgb(0,79,0)" height="5px" width="5px" x="72px" y="72px" /><rect fill="rgb(0,79,0)" height="5px" width="5px" x="76px" y="72px" /><rect fill="rgb(0,79,0)" height="5px" width="5px" x="80px" y="72px" /><rect fill="rgb(0,79,0)" height="5px" width="5px" x="84px" y="72px" /><rect fill="rgb(0,79,0)" height="5px" width="5px" x="88px" y="72px" /><rect fill="rgb(0,79,0)" height="5px" width="5px" x="92px" y="72px" /><rect fill="rgb(0,79,0)" height="5px" width="5px" x="96px" y="72px" /><rect fill="rgb(0,79,0)" height="5px" width="5px" x="100px" y="72px" /><rect fill="rgb(0,79,0)" height="5px" width="5px" x="104px" y="72px" /><rect fill="rgb(0,79,0)" height="5px" width="5px" x="108px" y="72px" /><rect fill="rgb(0,79,0)" height="5px" width="5px" x="112px" y="72px" /><rect fill="rgb(0,79,0)" height="5px" width="5px" x="116px" y="72px" /><rect fill="rgb(0,43,8)" height="5px" width="5px" x="120px" y="72px" /><rect fill="rgb(0,43,8)" height="5px" width="5px" x="124px" y="72px" /><rect fill="rgb(0,79,0)" height="5px" width="5px" x="16px" y="76px" /><rect fill="rgb(0,79,0)" height="5px" width="5px" x="20px" y="76px" /><rect fill="rgb(0,79,0)" height="5px" width="5px" x="24px" y="76px" /><rect fill="rgb(0,79,0)" height="5px" width="5px" x="28px" y="76px" /><rect fill="rgb(0,79,0)" height="5px" width="5px" x="32px" y="76px" /><rect fill="rgb(0,79,0)" height="5px" width="5px" x="36px" y="76px" /><rect fill="rgb(0,79,0)" height="5px" width="5px" x="40px" y="76px" /><rect fill="rgb(0,79,0)" height="5px" width="5px" x="44px" y="76px" /><rect fill="rgb(0,79,0)" height="5px" width="5px" x="48px" y="76px" /><rect fill="rgb(0,79,0)" height="5px" width="5px" x="52px" y="76px" /><rect fill="rgb(0,79,0)" height="5px" width="5px" x="56px" y="76px" /><rect fill="rgb(0,79,0)" height="5px" width="5px" x="60px" y="76px" /><rect fill="rgb(0,79,0)" height="5px" width="5px" x="64px" y="76px" /><rect fill="rgb(0,79,0)" height="5px" width="5px" x="68px" y="76px" /><rect fill="rgb(0,79,0)" height="5px" width="5px" x="72px" y="76px" /><rect fill="rgb(0,79,0)" height="5px" width="5px" x="76px" y="76px" /><rect fill="rgb(0,79,0)" height="5px" width="5px" x="80px" y="76px" /><rect fill="rgb(0,79,0)" height="5px" width="5px" x="84px" y="76px" /><rect fill="rgb(0,79,0)" height="5px" width="5px" x="88px" y="76px" /><rect fill="rgb(0,79,0)" height="5px" width="5px" x="92px" y="76px" /><rect fill="rgb(0,79,0)" height="5px" width="5px" x="96px" y="76px" /><rect fill="rgb(0,79,0)" height="5px" width="5px" x="100px" y="76px" /><rect fill="rgb(0,79,0)" height="5px" width="5px" x="104px" y="76px" /><rect fill="rgb(0,79,0)" height="5px" width="5px" x="108px" y="76px" /><rect fill="rgb(0,79,0)" height="5px" width="5px" x="112px" y="76px" /><rect fill="rgb(0,79,0)" height="5px" width="5px" x="116px" y="76px" /><rect fill="rgb(0,43,8)" height="5px" width="5px" x="120px" y="76px" /><rect fill="rgb(0,43,8)" height="5px" width="5px" x="124px" y="76px" /><rect fill="rgb(40,40,40)" height="5px" opacity="0.196078431373" width="5px" x="8px" y="80px" /><rect fill="rgb(0,79,0)" height="5px" width="5px" x="12px" y="80px" /><rect fill="rgb(0,79,0)" height="5px" width="5px" x="16px" y="80px" /><rect fill="rgb(0,79,0)" height="5px" width="5px" x="20px" y="80px" /><rect fill="rgb(0,79,0)" height="5px" width="5px" x="24px" y="80px" /><rect fill="rgb(0,79,0)" height="5px" width="5px" x="28px" y="80px" /><rect fill="rgb(0,79,0)" height="5px" width="5px" x="32px" y="80px" /><rect fill="rgb(0,79,0)" height="5px" width="5px" x="36px" y="80px" /><rect fill="rgb(0,79,0)" height="5px" width="5px" x="40px" y="80px" /><rect fill="rgb(0,79,0)" height="5px" width="5px" x="44px" y="80px" /><rect fill="rgb(0,79,0)" height="5px" width="5px" x="48px" y="80px" /><rect fill="rgb(0,79,0)" height="5px" width="5px" x="52px" y="80px" /><rect fill="rgb(0,79,0)" height="5px" width="5px" x="56px" y="80px" /><rect fill="rgb(0,79,0)" height="5px" width="5px" x="60px" y="80px" /><rect fill="rgb(0,79,0)" height="5px" width="5px" x="64px" y="80px" /><rect fill="rgb(0,79,0)" height="5px" width="5px" x="68px" y="80px" /><rect fill="rgb(0,79,0)" height="5px" width="5px" x="72px" y="80px" /><rect fill="rgb(0,79,0)" height="5px" width="5px" x="76px" y="80px" /><rect fill="rgb(0,79,0)" height="5px" width="5px" x="80px" y="80px" /><rect fill="rgb(0,79,0)" height="5px" width="5px" x="84px" y="80px" /><rect fill="rgb(0,79,0)" height="5px" width="5px" x="88px" y="80px" /><rect fill="rgb(0,79,0)" height="5px" width="5px" x="92px" y="80px" /><rect fill="rgb(0,79,0)" height="5px" width="5px" x="96px" y="80px" /><rect fill="rgb(0,79,0)" height="5px" width="5px" x="100px" y="80px" /><rect fill="rgb(0,79,0)" height="5px" width="5px" x="104px" y="80px" /><rect fill="rgb(0,79,0)" height="5px" width="5px" x="108px" y="80px" /><rect fill="rgb(0,79,0)" height="5px" width="5px" x="112px" y="80px" /><rect fill="rgb(0,79,0)" height="5px" width="5px" x="116px" y="80px" /><rect fill="rgb(0,79,0)" height="5px" width="5px" x="8px" y="84px" /><rect fill="rgb(0,79,0)" height="5px" width="5px" x="12px" y="84px" /><rect fill="rgb(0,79,0)" height="5px" width="5px" x="16px" y="84px" /><rect fill="rgb(0,79,0)" height="5px" width="5px" x="20px" y="84px" /><rect fill="rgb(0,79,0)" height="5px" width="5px" x="24px" y="84px" /><rect fill="rgb(0,79,0)" height="5px" width="5px" x="28px" y="84px" /><rect fill="rgb(0,79,0)" height="5px" width="5px" x="32px" y="84px" /><rect fill="rgb(0,79,0)" height="5px" width="5px" x="36px" y="84px" /><rect fill="rgb(0,79,0)" height="5px" width="5px" x="40px" y="84px" /><rect fill="rgb(0,79,0)" height="5px" width="5px" x="44px" y="84px" /><rect fill="rgb(0,79,0)" height="5px" width="5px" x="48px" y="84px" /><rect fill="rgb(0,79,0)" height="5px" width="5px" x="52px" y="84px" /><rect fill="rgb(0,79,0)" height="5px" width="5px" x="56px" y="84px" /><rect fill="rgb(0,79,0)" height="5px" width="5px" x="60px" y="84px" /><rect fill="rgb(0,79,0)" height="5px" width="5px" x="64px" y="84px" /><rect fill="rgb(0,79,0)" height="5px" width="5px" x="68px" y="84px" /><rect fill="rgb(0,79,0)" height="5px" width="5px" x="72px" y="84px" /><rect fill="rgb(0,79,0)" height="5px" width="5px" x="76px" y="84px" /><rect fill="rgb(0,79,0)" height="5px" width="5px" x="80px" y="84px" /><rect fill="rgb(0,79,0)" height="5px" width="5px" x="84px" y="84px" /><rect fill="rgb(0,79,0)" height="5px" width="5px" x="88px" y="84px" /><rect fill="rgb(0,79,0)" height="5px" width="5px" x="92px" y="84px" /><rect fill="rgb(0,79,0)" height="5px" width="5px" x="96px" y="84px" /><rect fill="rgb(0,79,0)" height="5px" width="5px" x="100px" y="84px" /><rect fill="rgb(0,79,0)" height="5px" width="5px" x="104px" y="84px" /><rect fill="rgb(0,79,0)" height="5px" width="5px" x="108px" y="84px" /><rect fill="rgb(0,79,0)" height="5px" width="5px" x="112px" y="84px" /><rect fill="rgb(0,79,0)" height="5px" width="5px" x="116px" y="84px" /><rect fill="rgb(15,15,7)" height="5px" opacity="0.133333333333" width="5px" x="4px" y="88px" /><rect fill="rgb(0,0,0)" height="5px" width="5px" x="8px" y="88px" /><rect fill="rgb(0,0,0)" height="5px" width="5px" x="12px" y="88px" /><rect fill="rgb(0,0,0)" height="5px" width="5px" x="16px" y="88px" /><rect fill="rgb(0,0,0)" height="5px" width="5px" x="20px" y="88px" /><rect fill="rgb(0,0,0)" height="5px" width="5px" x="24px" y="88px" /><rect fill="rgb(0,0,0)" height="5px" width="5px" x="28px" y="88px" /><rect fill="rgb(0,0,0)" height="5px" width="5px" x="32px" y="88px" /><rect fill="rgb(0,0,0)" height="5px" width="5px" x="36px" y="88px" /><rect fill="rgb(0,0,0)" height="5px" width="5px" x="40px" y="88px" /><rect fill="rgb(0,0,0)" height="5px" width="5px" x="44px" y="88px" /><rect fill="rgb(0,0,0)" height="5px" width="5px" x="48px" y="88px" /><rect fill="rgb(0,0,0)" height="5px" width="5px" x="52px" y="88px" /><rect fill="rgb(0,0,0)" height="5px" width="5px" x="56px" y="88px" /><rect fill="rgb(0,0,0)" height="5px" width="5px" x="60px" y="88px" /><rect fill="rgb(0,0,0)" height="5px" width="5px" x="64px" y="88px" /><rect fill="rgb(0,0,0)" height="5px" width="5px" x="68px" y="88px" /><rect fill="rgb(0,0,0)" height="5px" width="5px" x="72px" y="88px" /><rect fill="rgb(0,0,0)" height="5px" width="5px" x="76px" y="88px" /><rect fill="rgb(0,0,0)" height="5px" width="5px" x="80px" y="88px" /><rect fill="rgb(0,0,0)" height="5px" width="5px" x="84px" y="88px" /><rect fill="rgb(0,0,0)" height="5px" width="5px" x="88px" y="88px" /><rect fill="rgb(0,0,0)" height="5px" width="5px" x="92px" y="88px" /><rect fill="rgb(0,0,0)" height="5px" width="5px" x="96px" y="88px" /><rect fill="rgb(0,0,0)" height="5px" width="5px" x="100px" y="88px" /><rect fill="rgb(0,0,0)" height="5px" width="5px" x="104px" y="88px" /><rect fill="rgb(0,0,0)" height="5px" width="5px" x="108px" y="88px" /><rect fill="rgb(0,0,0)" height="5px" width="5px" x="112px" y="88px" /><rect fill="rgb(0,0,0)" height="5px" width="5px" x="116px" y="88px" /><rect fill="rgb(17,17,3)" height="5px" opacity="0.290196078431" width="5px" x="120px" y="88px" /><rect fill="rgb(0,0,0)" height="5px" width="5px" x="4px" y="92px" /><rect fill="rgb(0,0,0)" height="5px" width="5px" x="8px" y="92px" /><rect fill="rgb(0,0,0)" height="5px" width="5px" x="12px" y="92px" /><rect fill="rgb(0,0,0)" height="5px" width="5px" x="16px" y="92px" /><rect fill="rgb(0,0,0)" height="5px" width="5px" x="20px" y="92px" /><rect fill="rgb(0,0,0)" height="5px" width="5px" x="24px" y="92px" /><rect fill="rgb(0,0,0)" height="5px" width="5px" x="28px" y="92px" /><rect fill="rgb(0,0,0)" height="5px" width="5px" x="32px" y="92px" /><rect fill="rgb(0,0,0)" height="5px" width="5px" x="36px" y="92px" /><rect fill="rgb(0,0,0)" height="5px" width="5px" x="40px" y="92px" /><rect fill="rgb(0,0,0)" height="5px" width="5px" x="44px" y="92px" /><rect fill="rgb(0,0,0)" height="5px" width="5px" x="48px" y="92px" /><rect fill="rgb(0,0,0)" height="5px" width="5px" x="52px" y="92px" /><rect fill="rgb(0,0,0)" height="5px" width="5px" x="56px" y="92px" /><rect fill="rgb(0,0,0)" height="5px" width="5px" x="60px" y="92px" /><rect fill="rgb(0,0,0)" height="5px" width="5px" x="64px" y="92px" /><rect fill="rgb(0,0,0)" height="5px" width="5px" x="68px" y="92px" /><rect fill="rgb(0,0,0)" height="5px" width="5px" x="72px" y="92px" /><rect fill="rgb(0,0,0)" height="5px" width="5px" x="76px" y="92px" /><rect fill="rgb(0,0,0)" height="5px" width="5px" x="80px" y="92px" /><rect fill="rgb(0,0,0)" height="5px" width="5px" x="84px" y="92px" /><rect fill="rgb(0,0,0)" height="5px" width="5px" x="88px" y="92px" /><rect fill="rgb(0,0,0)" height="5px" width="5px" x="92px" y="92px" /><rect fill="rgb(0,0,0)" height="5px" width="5px" x="96px" y="92px" /><rect fill="rgb(0,0,0)" height="5px" width="5px" x="100px" y="92px" /><rect fill="rgb(0,0,0)" height="5px" width="5px" x="104px" y="92px" /><rect fill="rgb(0,0,0)" height="5px" width="5px" x="108px" y="92px" /><rect fill="rgb(0,0,0)" height="5px" width="5px" x="112px" y="92px" /><rect fill="rgb(0,0,0)" height="5px" width="5px" x="116px" y="92px" /><rect fill="rgb(0,0,0)" height="5px" width="5px" x="120px" y="92px" /><rect fill="rgb(18,18,4)" height="5px" opacity="0.21568627451" width="5px" x="0px" y="96px" /><rect fill="rgb(0,0,0)" height="5px" width="5px" x="4px" y="96px" /><rect fill="rgb(0,0,0)" height="5px" width="5px" x="8px" y="96px" /><rect fill="rgb(42,42,42)" height="5px" opacity="0.4" width="5px" x="12px" y="96px" /><rect fill="rgb(0,79,0)" height="5px" width="5px" x="16px" y="96px" /><rect fill="rgb(0,79,0)" height="5px" width="5px" x="20px" y="96px" /><rect fill="rgb(0,79,0)" height="5px" width="5px" x="24px" y="96px" /><rect fill="rgb(0,79,0)" height="5px" width="5px" x="28px" y="96px" /><rect fill="rgb(42,42,42)" height="5px" opacity="0.376470588235" width="5px" x="32px" y="96px" /><rect fill="rgb(40,40,40)" height="5px" opacity="0.2" width="5px" x="36px" y="96px" /><rect fill="rgb(0,79,0)" height="5px" width="5px" x="40px" y="96px" /><rect fill="rgb(0,79,0)" height="5px" width="5px" x="44px" y="96px" /><rect fill="rgb(0,79,0)" height="5px" width="5px" x="48px" y="96px" /><rect fill="rgb(0,79,0)" height="5px" width="5px" x="52px" y="96px" /><rect fill="rgb(0,79,0)" height="5px" width="5px" x="56px" y="96px" /><rect fill="rgb(42,42,42)" height="5px" opacity="0.686274509804" width="5px" x="60px" y="96px" /><rect fill="rgb(40,40,40)" height="5px" opacity="0.345098039216" width="5px" x="64px" y="96px" /><rect fill="rgb(0,79,0)" height="5px" width="5px" x="68px" y="96px" /><rect fill="rgb(0,79,0)" height="5px" width="5px" x="72px" y="96px" /><rect fill="rgb(0,79,0)" height="5px" width="5px" x="76px" y="96px" /><rect fill="rgb(0,79,0)" height="5px" width="5px" x="80px" y="96px" /><rect fill="rgb(0,79,0)" height="5px" width="5px" x="84px" y="96px" /><rect fill="rgb(42,42,42)" height="5px" opacity="0.666666666667" width="5px" x="88px" y="96px" /><rect fill="rgb(0,79,0)" height="5px" width="5px" x="92px" y="96px" /><rect fill="rgb(0,79,0)" height="5px" width="5px" x="96px" y="96px" /><rect fill="rgb(0,79,0)" height="5px" width="5px" x="100px" y="96px" /><rect fill="rgb(0,79,0)" height="5px" width="5px" x="104px" y="96px" /><rect fill="rgb(0,79,0)" height="5px" width="5px" x="108px" y="96px" /><rect fill="rgb(0,79,0)" height="5px" width="5px" x="112px" y="96px" /><rect fill="rgb(0,0,0)" height="5px" width="5px" x="116px" y="96px" /><rect fill="rgb(0,0,0)" height="5px" width="5px" x="120px" y="96px" /><rect fill="rgb(0,0,0)" height="5px" width="5px" x="124px" y="96px" /><rect fill="rgb(0,0,0)" height="5px" width="5px" x="0px" y="100px" /><rect fill="rgb(0,0,0)" height="5px" width="5px" x="4px" y="100px" /><rect fill="rgb(0,0,0)" height="5px" width="5px" x="8px" y="100px" /><rect fill="rgb(0,79,0)" height="5px" width="5px" x="12px" y="100px" /><rect fill="rgb(0,79,0)" height="5px" width="5px" x="16px" y="100px" /><rect fill="rgb(0,79,0)" height="5px" width="5px" x="20px" y="100px" /><rect fill="rgb(0,79,0)" height="5px" width="5px" x="24px" y="100px" /><rect fill="rgb(0,79,0)" height="5px" width="5px" x="28px" y="100px" /><rect fill="rgb(0,79,0)" height="5px" width="5px" x="32px" y="100px" /><rect fill="rgb(40,40,40)" height="5px" opacity="0.223529411765" width="5px" x="36px" y="100px" /><rect fill="rgb(0,79,0)" height="5px" width="5px" x="40px" y="100px" /><rect fill="rgb(0,79,0)" height="5px" width="5px" x="44px" y="100px" /><rect fill="rgb(0,79,0)" height="5px" width="5px" x="48px" y="100px" /><rect fill="rgb(0,79,0)" height="5px" width="5px" x="52px" y="100px" /><rect fill="rgb(0,79,0)" height="5px" width="5px" x="56px" y="100px" /><rect fill="rgb(42,42,42)" height="5px" opacity="0.8" width="5px" x="60px" y="100px" /><rect fill="rgb(41,41,41)" height="5px" opacity="0.341176470588" width="5px" x="64px" y="100px" /><rect fill="rgb(0,79,0)" height="5px" width="5px" x="68px" y="100px" /><rect fill="rgb(0,79,0)" height="5px" width="5px" x="72px" y="100px" /><rect fill="rgb(0,79,0)" height="5px" width="5px" x="76px" y="100px" /><rect fill="rgb(0,79,0)" height="5px" width="5px" x="80px" y="100px" /><rect fill="rgb(0,79,0)" height="5px" width="5px" x="84px" y="100px" /><rect fill="rgb(42,42,42)" height="5px" opacity="0.658823529412" width="5px" x="88px" y="100px" /><rect fill="rgb(0,79,0)" height="5px" width="5px" x="92px" y="100px" /><rect fill="rgb(0,79,0)" height="5px" width="5px" x="96px" y="100px" /><rect fill="rgb(0,79,0)" height="5px" width="5px" x="100px" y="100px" /><rect fill="rgb(0,79,0)" height="5px" width="5px" x="104px" y="100px" /><rect fill="rgb(0,79,0)" height="5px" width="5px" x="108px" y="100px" /><rect fill="rgb(0,79,0)" height="5px" width="5px" x="112px" y="100px" /><rect fill="rgb(0,0,0)" height="5px" width="5px" x="116px" y="100px" /><rect fill="rgb(0,0,0)" height="5px" width="5px" x="120px" y="100px" /><rect fill="rgb(0,0,0)" height="5px" width="5px" x="124px" y="100px" /><rect fill="rgb(0,0,0)" height="5px" width="5px" x="0px" y="104px" /><rect fill="rgb(0,0,0)" height="5px" width="5px" x="4px" y="104px" /><rect fill="rgb(0,0,0)" height="5px" width="5px" x="8px" y="104px" /><rect fill="rgb(0,79,0)" height="5px" width="5px" x="12px" y="104px" /><rect fill="rgb(0,79,0)" height="5px" width="5px" x="16px" y="104px" /><rect fill="rgb(0,79,0)" height="5px" width="5px" x="20px" y="104px" /><rect fill="rgb(0,79,0)" height="5px" width="5px" x="24px" y="104px" /><rect fill="rgb(0,79,0)" height="5px" width="5px" x="28px" y="104px" /><rect fill="rgb(0,79,0)" height="5px" width="5px" x="32px" y="104px" /><rect fill="rgb(43,43,43)" height="5px" opacity="0.207843137255" width="5px" x="36px" y="104px" /><rect fill="rgb(0,79,0)" height="5px" width="5px" x="40px" y="104px" /><rect fill="rgb(0,79,0)" height="5px" width="5px" x="44px" y="104px" /><rect fill="rgb(0,79,0)" height="5px" width="5px" x="48px" y="104px" /><rect fill="rgb(0,79,0)" height="5px" width="5px" x="52px" y="104px" /><rect fill="rgb(0,79,0)" height="5px" width="5px" x="56px" y="104px" /><rect fill="rgb(41,41,41)" height="5px" opacity="0.721568627451" width="5px" x="60px" y="104px" /><rect fill="rgb(41,41,41)" height="5px" opacity="0.262745098039" width="5px" x="64px" y="104px" /><rect fill="rgb(0,79,0)" height="5px" width="5px" x="68px" y="104px" /><rect fill="rgb(0,79,0)" height="5px" width="5px" x="72px" y="104px" /><rect fill="rgb(0,79,0)" height="5px" width="5px" x="76px" y="104px" /><rect fill="rgb(0,79,0)" height="5px" width="5px" x="80px" y="104px" /><rect fill="rgb(0,79,0)" height="5px" width="5px" x="84px" y="104px" /><rect fill="rgb(42,42,42)" height="5px" opacity="0.517647058824" width="5px" x="88px" y="104px" /><rect fill="rgb(41,41,41)" height="5px" opacity="0.843137254902" width="5px" x="92px" y="104px" /><rect fill="rgb(0,79,0)" height="5px" width="5px" x="96px" y="104px" /><rect fill="rgb(0,79,0)" height="5px" width="5px" x="100px" y="104px" /><rect fill="rgb(0,79,0)" height="5px" width="5px" x="104px" y="104px" /><rect fill="rgb(0,79,0)" height="5px" width="5px" x="108px" y="104px" /><rect fill="rgb(42,42,42)" height="5px" opacity="0.780392156863" width="5px" x="112px" y="104px" /><rect fill="rgb(0,0,0)" height="5px" width="5px" x="116px" y="104px" /><rect fill="rgb(0,0,0)" height="5px" width="5px" x="120px" y="104px" /><rect fill="rgb(0,0,0)" height="5px" width="5px" x="124px" y="104px" /><rect fill="rgb(0,0,0)" height="5px" width="5px" x="0px" y="108px" /><rect fill="rgb(0,0,0)" height="5px" width="5px" x="4px" y="108px" /><rect fill="rgb(0,0,0)" height="5px" width="5px" x="8px" y="108px" /><rect fill="rgb(41,41,41)" height="5px" opacity="0.772549019608" width="5px" x="12px" y="108px" /><rect fill="rgb(0,79,0)" height="5px" width="5px" x="16px" y="108px" /><rect fill="rgb(0,79,0)" height="5px" width="5px" x="20px" y="108px" /><rect fill="rgb(0,79,0)" height="5px" width="5px" x="24px" y="108px" /><rect fill="rgb(0,79,0)" height="5px" width="5px" x="28px" y="108px" /><rect fill="rgb(41,41,41)" height="5px" opacity="0.745098039216" width="5px" x="32px" y="108px" /><rect fill="rgb(38,38,38)" height="5px" opacity="0.078431372549" width="5px" x="36px" y="108px" /><rect fill="rgb(41,41,41)" height="5px" opacity="0.525490196078" width="5px" x="40px" y="108px" /><rect fill="rgb(0,79,0)" height="5px" width="5px" x="44px" y="108px" /><rect fill="rgb(0,79,0)" height="5px" width="5px" x="48px" y="108px" /><rect fill="rgb(0,79,0)" height="5px" width="5px" x="52px" y="108px" /><rect fill="rgb(42,42,42)" height="5px" opacity="0.776470588235" width="5px" x="56px" y="108px" /><rect fill="rgb(43,43,43)" height="5px" opacity="0.23137254902" width="5px" x="60px" y="108px" /><rect fill="rgb(46,46,46)" height="5px" opacity="0.043137254902" width="5px" x="64px" y="108px" /><rect fill="rgb(41,41,41)" height="5px" opacity="0.407843137255" width="5px" x="68px" y="108px" /><rect fill="rgb(40,40,40)" height="5px" opacity="0.886274509804" width="5px" x="72px" y="108px" /><rect fill="rgb(0,79,0)" height="5px" width="5px" x="76px" y="108px" /><rect fill="rgb(0,79,0)" height="5px" width="5px" x="80px" y="108px" /><rect fill="rgb(41,41,41)" height="5px" opacity="0.576470588235" width="5px" x="84px" y="108px" /><rect fill="rgb(40,40,40)" height="5px" opacity="0.0980392156863" width="5px" x="88px" y="108px" /><rect fill="rgb(43,43,43)" height="5px" opacity="0.254901960784" width="5px" x="92px" y="108px" /><rect fill="rgb(40,40,40)" height="5px" opacity="0.839215686275" width="5px" x="96px" y="108px" /><rect fill="rgb(0,79,0)" height="5px" width="5px" x="100px" y="108px" /><rect fill="rgb(0,79,0)" height="5px" width="5px" x="104px" y="108px" /><rect fill="rgb(40,40,40)" height="5px" opacity="0.788235294118" width="5px" x="108px" y="108px" /><rect fill="rgb(44,44,44)" height="5px" opacity="0.203921568627" width="5px" x="112px" y="108px" /><rect fill="rgb(0,0,0)" height="5px" width="5px" x="116px" y="108px" /><rect fill="rgb(0,0,0)" height="5px" width="5px" x="120px" y="108px" /><rect fill="rgb(0,0,0)" height="5px" width="5px" x="124px" y="108px" /><rect fill="rgb(18,18,4)" height="5px" opacity="0.21568627451" width="5px" x="0px" y="112px" /><rect fill="rgb(0,0,0)" height="5px" width="5px" x="4px" y="112px" /><rect fill="rgb(0,0,0)" height="5px" width="5px" x="8px" y="112px" /><rect fill="rgb(0,0,0)" height="5px" width="5px" x="12px" y="112px" /><rect fill="rgb(0,0,0)" height="5px" width="5px" x="16px" y="112px" /><rect fill="rgb(0,0,0)" height="5px" width="5px" x="20px" y="112px" /><rect fill="rgb(0,0,0)" height="5px" width="5px" x="24px" y="112px" /><rect fill="rgb(0,0,0)" height="5px" width="5px" x="28px" y="112px" /><rect fill="rgb(0,0,0)" height="5px" width="5px" x="32px" y="112px" /><rect fill="rgb(0,0,0)" height="5px" width="5px" x="36px" y="112px" /><rect fill="rgb(0,0,0)" height="5px" width="5px" x="40px" y="112px" /><rect fill="rgb(0,0,0)" height="5px" width="5px" x="44px" y="112px" /><rect fill="rgb(0,0,0)" height="5px" width="5px" x="48px" y="112px" /><rect fill="rgb(0,0,0)" height="5px" width="5px" x="52px" y="112px" /><rect fill="rgb(0,0,0)" height="5px" width="5px" x="56px" y="112px" /><rect fill="rgb(0,0,0)" height="5px" width="5px" x="60px" y="112px" /><rect fill="rgb(0,0,0)" height="5px" width="5px" x="64px" y="112px" /><rect fill="rgb(0,0,0)" height="5px" width="5px" x="68px" y="112px" /><rect fill="rgb(0,0,0)" height="5px" width="5px" x="72px" y="112px" /><rect fill="rgb(0,0,0)" height="5px" width="5px" x="76px" y="112px" /><rect fill="rgb(0,0,0)" height="5px" width="5px" x="80px" y="112px" /><rect fill="rgb(0,0,0)" height="5px" width="5px" x="84px" y="112px" /><rect fill="rgb(0,0,0)" height="5px" width="5px" x="88px" y="112px" /><rect fill="rgb(0,0,0)" height="5px" width="5px" x="92px" y="112px" /><rect fill="rgb(0,0,0)" height="5px" width="5px" x="96px" y="112px" /><rect fill="rgb(0,0,0)" height="5px" width="5px" x="100px" y="112px" /><rect fill="rgb(0,0,0)" height="5px" width="5px" x="104px" y="112px" /><rect fill="rgb(0,0,0)" height="5px" width="5px" x="108px" y="112px" /><rect fill="rgb(0,0,0)" height="5px" width="5px" x="112px" y="112px" /><rect fill="rgb(0,0,0)" height="5px" width="5px" x="116px" y="112px" /><rect fill="rgb(0,0,0)" height="5px" width="5px" x="120px" y="112px" /><rect fill="rgb(0,0,0)" height="5px" width="5px" x="8px" y="116px" /><rect fill="rgb(0,0,0)" height="5px" width="5px" x="12px" y="116px" /><rect fill="rgb(0,0,0)" height="5px" width="5px" x="16px" y="116px" /><rect fill="rgb(0,0,0)" height="5px" width="5px" x="20px" y="116px" /><rect fill="rgb(0,0,0)" height="5px" width="5px" x="24px" y="116px" /><rect fill="rgb(0,0,0)" height="5px" width="5px" x="28px" y="116px" /><rect fill="rgb(0,0,0)" height="5px" width="5px" x="32px" y="116px" /><rect fill="rgb(0,0,0)" height="5px" width="5px" x="36px" y="116px" /><rect fill="rgb(0,0,0)" height="5px" width="5px" x="40px" y="116px" /><rect fill="rgb(0,0,0)" height="5px" width="5px" x="44px" y="116px" /><rect fill="rgb(0,0,0)" height="5px" width="5px" x="48px" y="116px" /><rect fill="rgb(0,0,0)" height="5px" width="5px" x="52px" y="116px" /><rect fill="rgb(0,0,0)" height="5px" width="5px" x="56px" y="116px" /><rect fill="rgb(0,0,0)" height="5px" width="5px" x="60px" y="116px" /><rect fill="rgb(0,0,0)" height="5px" width="5px" x="64px" y="116px" /><rect fill="rgb(0,0,0)" height="5px" width="5px" x="68px" y="116px" /><rect fill="rgb(0,0,0)" height="5px" width="5px" x="72px" y="116px" /><rect fill="rgb(0,0,0)" height="5px" width="5px" x="76px" y="116px" /><rect fill="rgb(0,0,0)" height="5px" width="5px" x="80px" y="116px" /><rect fill="rgb(0,0,0)" height="5px" width="5px" x="84px" y="116px" /><rect fill="rgb(0,0,0)" height="5px" width="5px" x="88px" y="116px" /><rect fill="rgb(0,0,0)" height="5px" width="5px" x="92px" y="116px" /><rect fill="rgb(0,0,0)" height="5px" width="5px" x="96px" y="116px" /><rect fill="rgb(0,0,0)" height="5px" width="5px" x="100px" y="116px" /><rect fill="rgb(0,0,0)" height="5px" width="5px" x="104px" y="116px" /><rect fill="rgb(0,0,0)" height="5px" width="5px" x="108px" y="116px" /><rect fill="rgb(0,0,0)" height="5px" width="5px" x="112px" y="116px" /><rect fill="rgb(0,0,0)" height="5px" width="5px" x="116px" y="116px" /></svg>