<?xml version="1.0" encoding="utf-8" ?>
<svg baseProfile="full" height="128px" version="1.1" width="128px" xmlns="http://www.w3.org/2000/svg" xmlns:ev="http://www.w3.org/2001/xml-events" xmlns:xlink="http://www.w3.org/1999/xlink"><defs /><rect fill="rgb(255,219,64)" height="5px" width="5px" x="28px" y="4px" /><rect fill="rgb(255,219,64)" height="5px" width="5px" x="32px" y="4px" /><rect fill="rgb(220,188,47)" height="5px" width="5px" x="36px" y="4px" /><rect fill="rgb(220,188,47)" height="5px" width="5px" x="40px" y="4px" /><rect fill="rgb(193,165,42)" height="5px" width="5px" x="44px" y="4px" /><rect fill="rgb(255,219,64)" height="5px" width="5px" x="20px" y="8px" /><rect fill="rgb(255,219,64)" height="5px" width="5px" x="24px" y="8px" /><rect fill="rgb(255,219,64)" height="5px" width="5px" x="28px" y="8px" /><rect fill="rgb(255,219,64)" height="5px" width="5px" x="36px" y="8px" /><rect fill="rgb(193,165,42)" height="5px" width="5px" x="48px" y="8px" /><rect fill="rgb(174,148,36)" height="5px" width="5px" x="52px" y="8px" /><rect fill="rgb(171,146,40)" height="5px" width="5px" x="56px" y="8px" /><rect fill="rgb(255,219,64)" height="5px" width="5px" x="16px" y="12px" /><rect fill="rgb(255,219,64)" height="5px" width="5px" x="36px" y="12px" /><rect fill="rgb(171,146,40)" height="5px" width="5px" x="56px" y="12px" /><rect fill="rgb(171,146,40)" height="5px" width="5px" x="60px" y="12px" /><rect fill="rgb(255,219,64)" height="5px" width="5px" x="12px" y="16px" /><rect fill="rgb(255,219,64)" height="5px" width="5px" x="16px" y="16px" /><rect fill="rgb(255,219,64)" height="5px" width="5px" x="36px" y="16px" /><rect fill="rgb(171,146,40)" height="5px" width="5px" x="56px" y="16px" /><rect fill="rgb(171,146,40)" height="5px" width="5px" x="60px" y="16px" /><rect fill="rgb(171,146,40)" height="5px" width="5px" x="64px" y="16px" /><rect fill="rgb(255,219,64)" height="5px" width="5px" x="8px" y="20px" /><rect fill="rgb(255,219,64)" height="5px" width="5px" x="20px" y="20px" /><rect fill="rgb(255,219,64)" height="5px" width="5px" x="36px" y="20px" /><rect fill="rgb(184,157,43)" height="5px" width="5px" x="52px" y="20px" /><rect fill="rgb(184,157,43)" height="5px" width="5px" x="56px" y="20px" /><rect fill="rgb(171,146,40)" height="5px" width="5px" x="64px" y="20px" /><rect fill="rgb(255,219,64)" height="5px" width="5px" x="8px" y="24px" /><rect fill="rgb(255,219,64)" height="5px" width="5px" x="24px" y="24px" /><rect fill="rgb(255,219,64)" height="5px" width="5px" x="28px" y="24px" /><rect fill="rgb(255,219,64)" height="5px" width="5px" x="32px" y="24px" /><rect fill="rgb(255,219,64)" height="5px" width="5px" x="36px" y="24px" /><rect fill="rgb(255,219,64)" height="5px" width="5px" x="40px" y="24px" /><rect fill="rgb(171,146,40)" height="5px" width="5px" x="44px" y="24px" /><rect fill="rgb(171,146,40)" height="5px" width="5px" x="48px" y="24px" /><rect fill="rgb(184,157,43)" height="5px" width="5px" x="52px" y="24px" /><rect fill="rgb(174,148,36)" height="5px" width="5px" x="68px" y="24px" /><rect fill="rgb(255,219,64)" height="5px" width="5px" x="4px" y="28px" /><rect fill="rgb(255,219,64)" height="5px" width="5px" x="24px" y="28px" /><rect fill="rgb(255,219,64)" height="5px" width="5px" x="28px" y="28px" /><rect fill="rgb(255,219,64)" height="5px" width="5px" x="36px" y="28px" /><rect fill="rgb(147,126,34)" height="5px" width="5px" x="44px" y="28px" /><rect fill="rgb(171,146,40)" height="5px" width="5px" x="48px" y="28px" /><rect fill="rgb(193,165,42)" height="5px" width="5px" x="68px" y="28px" /><rect fill="rgb(255,219,64)" height="5px" width="5px" x="4px" y="32px" /><rect fill="rgb(255,219,64)" height="5px" width="5px" x="24px" y="32px" /><rect fill="rgb(255,219,64)" height="5px" width="5px" x="32px" y="32px" /><rect fill="rgb(255,219,64)" height="5px" width="5px" x="36px" y="32px" /><rect fill="rgb(147,126,34)" height="5px" width="5px" x="40px" y="32px" /><rect fill="rgb(255,219,64)" height="5px" width="5px" x="52px" y="32px" /><rect fill="rgb(193,165,42)" height="5px" width="5px" x="72px" y="32px" /><rect fill="rgb(220,188,47)" height="5px" width="5px" x="4px" y="36px" /><rect fill="rgb(255,219,64)" height="5px" width="5px" x="8px" y="36px" /><rect fill="rgb(255,219,64)" height="5px" width="5px" x="12px" y="36px" /><rect fill="rgb(255,219,64)" height="5px" width="5px" x="16px" y="36px" /><rect fill="rgb(255,219,64)" height="5px" width="5px" x="20px" y="36px" /><rect fill="rgb(255,219,64)" height="5px" width="5px" x="24px" y="36px" /><rect fill="rgb(255,219,64)" height="5px" width="5px" x="28px" y="36px" /><rect fill="rgb(220,188,47)" height="5px" width="5px" x="32px" y="36px" /><rect fill="rgb(147,126,34)" height="5px" width="5px" x="36px" y="36px" /><rect fill="rgb(220,188,47)" height="5px" width="5px" x="40px" y="36px" /><rect fill="rgb(255,219,64)" height="5px" width="5px" x="44px" y="36px" /><rect fill="rgb(255,219,64)" height="5px" width="5px" x="48px" y="36px" /><rect fill="rgb(255,219,64)" height="5px" width="5px" x="52px" y="36px" /><rect fill="rgb(255,219,64)" height="5px" width="5px" x="56px" y="36px" /><rect fill="rgb(255,219,64)" height="5px" width="5px" x="60px" y="36px" /><rect fill="rgb(255,219,64)" height="5px" width="5px" x="64px" y="36px" /><rect fill="rgb(255,219,64)" height="5px" width="5px" x="68px" y="36px" /><rect fill="rgb(220,188,47)" height="5px" width="5px" x="72px" y="36px" /><rect fill="rgb(220,188,47)" height="5px" width="5px" x="4px" y="40px" /><rect fill="rgb(255,219,64)" height="5px" width="5px" x="20px" y="40px" /><rect fill="rgb(147,126,34)" height="5px" width="5px" x="32px" y="40px" /><rect fill="rgb(220,188,47)" height="5px" width="5px" x="36px" y="40px" /><rect fill="rgb(255,219,64)" height="5px" width="5px" x="40px" y="40px" /><rect fill="rgb(255,219,64)" height="5px" width="5px" x="52px" y="40px" /><rect fill="rgb(220,188,47)" height="5px" width="5px" x="72px" y="40px" /><rect fill="rgb(193,165,42)" height="5px" width="5px" x="4px" y="44px" /><rect fill="rgb(255,219,64)" height="5px" width="5px" x="20px" y="44px" /><rect fill="rgb(171,146,40)" height="5px" width="5px" x="28px" y="44px" /><rect fill="rgb(216,186,54)" height="5px" width="5px" x="32px" y="44px" /><rect fill="rgb(255,219,64)" height="5px" width="5px" x="36px" y="44px" /><rect fill="rgb(216,186,54)" height="5px" width="5px" x="40px" y="44px" /><rect fill="rgb(255,219,64)" height="5px" width="5px" x="44px" y="44px" /><rect fill="rgb(255,219,64)" height="5px" width="5px" x="52px" y="44px" /><rect fill="rgb(255,219,64)" height="5px" width="5px" x="72px" y="44px" /><rect fill="rgb(174,148,36)" height="5px" width="5px" x="4px" y="48px" /><rect fill="rgb(171,146,40)" height="5px" width="5px" x="24px" y="48px" /><rect fill="rgb(216,186,54)" height="5px" width="5px" x="32px" y="48px" /><rect fill="rgb(255,219,64)" height="5px" width="5px" x="36px" y="48px" /><rect fill="rgb(216,186,54)" height="5px" width="5px" x="40px" y="48px" /><rect fill="rgb(255,219,64)" height="5px" width="5px" x="48px" y="48px" /><rect fill="rgb(255,219,64)" height="5px" width="5px" x="68px" y="48px" /><rect fill="rgb(171,146,40)" height="5px" width="5px" x="8px" y="52px" /><rect fill="rgb(184,157,43)" height="5px" width="5px" x="20px" y="52px" /><rect fill="rgb(184,157,43)" height="5px" width="5px" x="24px" y="52px" /><rect fill="rgb(171,146,40)" height="5px" width="5px" x="28px" y="52px" /><rect fill="rgb(216,186,54)" height="5px" width="5px" x="32px" y="52px" /><rect fill="rgb(255,219,64)" height="5px" width="5px" x="36px" y="52px" /><rect fill="rgb(216,186,54)" height="5px" width="5px" x="40px" y="52px" /><rect fill="rgb(255,219,64)" height="5px" width="5px" x="44px" y="52px" /><rect fill="rgb(255,219,64)" height="5px" width="5px" x="48px" y="52px" /><rect fill="rgb(255,219,64)" height="5px" width="5px" x="52px" y="52px" /><rect fill="rgb(255,219,64)" height="5px" width="5px" x="68px" y="52px" /><rect fill="rgb(171,146,40)" height="5px" width="5px" x="8px" y="56px" /><rect fill="rgb(171,146,40)" height="5px" width="5px" x="16px" y="56px" /><rect fill="rgb(184,157,43)" height="5px" width="5px" x="20px" y="56px" /><rect fill="rgb(255,219,64)" height="5px" width="5px" x="32px" y="56px" /><rect fill="rgb(255,219,64)" height="5px" width="5px" x="36px" y="56px" /><rect fill="rgb(255,219,64)" height="5px" width="5px" x="40px" y="56px" /><rect fill="rgb(255,219,64)" height="5px" width="5px" x="56px" y="56px" /><rect fill="rgb(255,219,64)" height="5px" width="5px" x="68px" y="56px" /><rect fill="rgb(171,146,40)" height="5px" width="5px" x="12px" y="60px" /><rect fill="rgb(171,146,40)" height="5px" width="5px" x="16px" y="60px" /><rect fill="rgb(216,186,54)" height="5px" width="5px" x="32px" y="60px" /><rect fill="rgb(255,219,64)" height="5px" width="5px" x="36px" y="60px" /><rect fill="rgb(216,186,54)" height="5px" width="5px" x="40px" y="60px" /><rect fill="rgb(255,219,64)" height="5px" width="5px" x="60px" y="60px" /><rect fill="rgb(255,219,64)" height="5px" width="5px" x="64px" y="60px" /><rect fill="rgb(171,146,40)" height="5px" width="5px" x="16px" y="64px" /><rect fill="rgb(216,186,54)" height="5px" width="5px" x="32px" y="64px" /><rect fill="rgb(255,219,64)" height="5px" width="5px" x="36px" y="64px" /><rect fill="rgb(216,186,54)" height="5px" width="5px" x="40px" y="64px" /><rect fill="rgb(255,219,64)" height="5px" width="5px" x="60px" y="64px" /><rect fill="rgb(171,146,40)" height="5px" width="5px" x="20px" y="68px" /><rect fill="rgb(171,146,40)" height="5px" width="5px" x="24px" y="68px" /><rect fill="rgb(216,186,54)" height="5px" width="5px" x="32px" y="68px" /><rect fill="rgb(255,219,64)" height="5px" width="5px" x="36px" y="68px" /><rect fill="rgb(216,186,54)" height="5px" width="5px" x="40px" y="68px" /><rect fill="rgb(255,219,64)" height="5px" width="5px" x="52px" y="68px" /><rect fill="rgb(255,219,64)" height="5px" width="5px" x="56px" y="68px" /><rect fill="rgb(243,206,47)" height="5px" width="5px" x="72px" y="68px" /><rect fill="rgb(243,206,47)" height="5px" width="5px" x="76px" y="68px" /><rect fill="rgb(243,206,47)" height="5px" width="5px" x="80px" y="68px" /><rect fill="rgb(243,206,47)" height="5px" width="5px" x="84px" y="68px" /><rect fill="rgb(171,146,40)" height="5px" width="5px" x="28px" y="72px" /><rect fill="rgb(174,148,36)" height="5px" width="5px" x="32px" y="72px" /><rect fill="rgb(193,165,42)" height="5px" width="5px" x="36px" y="72px" /><rect fill="rgb(220,188,47)" height="5px" width="5px" x="40px" y="72px" /><rect fill="rgb(220,188,47)" height="5px" width="5px" x="44px" y="72px" /><rect fill="rgb(255,219,64)" height="5px" width="5px" x="48px" y="72px" /><rect fill="rgb(243,206,47)" height="5px" width="5px" x="72px" y="72px" /><rect fill="rgb(243,206,47)" height="5px" width="5px" x="84px" y="72px" /><rect fill="rgb(216,186,54)" height="5px" width="5px" x="112px" y="72px" /><rect fill="rgb(216,186,54)" height="5px" width="5px" x="32px" y="76px" /><rect fill="rgb(216,186,54)" height="5px" width="5px" x="36px" y="76px" /><rect fill="rgb(216,186,54)" height="5px" width="5px" x="40px" y="76px" /><rect fill="rgb(243,206,47)" height="5px" width="5px" x="72px" y="76px" /><rect fill="rgb(216,186,54)" height="5px" width="5px" x="108px" y="76px" /><rect fill="rgb(216,186,54)" height="5px" width="5px" x="112px" y="76px" /><rect fill="rgb(216,186,54)" height="5px" width="5px" x="116px" y="76px" /><rect fill="rgb(216,186,54)" height="5px" width="5px" x="8px" y="80px" /><rect fill="rgb(216,186,54)" height="5px" width="5px" x="12px" y="80px" /><rect fill="rgb(216,186,54)" height="5px" width="5px" x="16px" y="80px" /><rect fill="rgb(216,186,54)" height="5px" width="5px" x="20px" y="80px" /><rect fill="rgb(216,186,54)" height="5px" width="5px" x="24px" y="80px" /><rect fill="rgb(216,186,54)" height="5px" width="5px" x="28px" y="80px" /><rect fill="rgb(216,186,54)" height="5px" width="5px" x="32px" y="80px" /><rect fill="rgb(231,225,225)" height="5px" width="5px" x="36px" y="80px" /><rect fill="rgb(216,186,54)" height="5px" width="5px" x="40px" y="80px" /><rect fill="rgb(216,186,54)" height="5px" width="5px" x="44px" y="80px" /><rect fill="rgb(216,186,54)" height="5px" width="5px" x="48px" y="80px" /><rect fill="rgb(216,186,54)" height="5px" width="5px" x="52px" y="80px" /><rect fill="rgb(216,186,54)" height="5px" width="5px" x="56px" y="80px" /><rect fill="rgb(216,186,54)" height="5px" width="5px" x="60px" y="80px" /><rect fill="rgb(216,186,54)" height="5px" width="5px" x="64px" y="80px" /><rect fill="rgb(216,186,54)" height="5px" width="5px" x="68px" y="80px" /><rect fill="rgb(243,206,47)" height="5px" width="5px" x="72px" y="80px" /><rect fill="rgb(185,129,80)" height="5px" width="5px" x="92px" y="80px" /><rect fill="rgb(185,129,80)" height="5px" width="5px" x="96px" y="80px" /><rect fill="rgb(185,129,80)" height="5px" width="5px" x="100px" y="80px" /><rect fill="rgb(185,129,80)" height="5px" width="5px" x="104px" y="80px" /><rect fill="rgb(216,186,54)" height="5px" width="5px" x="112px" y="80px" /><rect fill="rgb(216,186,54)" height="5px" width="5px" x="8px" y="84px" /><rect fill="rgb(215,185,54)" height="5px" width="5px" x="12px" y="84px" /><rect fill="rgb(215,185,54)" height="5px" width="5px" x="16px" y="84px" /><rect fill="rgb(215,185,54)" height="5px" width="5px" x="20px" y="84px" /><rect fill="rgb(160,160,160)" height="5px" width="5px" x="24px" y="84px" /><rect fill="rgb(160,160,160)" height="5px" width="5px" x="28px" y="84px" /><rect fill="rgb(231,225,225)" height="5px" width="5px" x="32px" y="84px" /><rect fill="rgb(243,206,47)" height="5px" width="5px" x="36px" y="84px" /><rect fill="rgb(243,206,47)" height="5px" width="5px" x="40px" y="84px" /><rect fill="rgb(215,185,54)" height="5px" width="5px" x="44px" y="84px" /><rect fill="rgb(215,185,54)" height="5px" width="5px" x="48px" y="84px" /><rect fill="rgb(215,185,54)" height="5px" width="5px" x="52px" y="84px" /><rect fill="rgb(215,185,54)" height="5px" width="5px" x="56px" y="84px" /><rect fill="rgb(215,185,54)" height="5px" width="5px" x="60px" y="84px" /><rect fill="rgb(215,185,54)" height="5px" width="5px" x="64px" y="84px" /><rect fill="rgb(215,185,54)" height="5px" width="5px" x="68px" y="84px" /><rect fill="rgb(243,206,47)" height="5px" width="5px" x="72px" y="84px" /><rect fill="rgb(160,160,160)" height="5px" width="5px" x="96px" y="84px" /><rect fill="rgb(160,160,160)" height="5px" width="5px" x="100px" y="84px" /><rect fill="rgb(216,186,54)" height="5px" width="5px" x="112px" y="84px" /><rect fill="rgb(216,186,54)" height="5px" width="5px" x="8px" y="88px" /><rect fill="rgb(243,206,47)" height="5px" width="5px" x="12px" y="88px" /><rect fill="rgb(243,206,47)" height="5px" width="5px" x="16px" y="88px" /><rect fill="rgb(160,160,160)" height="5px" width="5px" x="20px" y="88px" /><rect fill="rgb(215,185,54)" height="5px" width="5px" x="24px" y="88px" /><rect fill="rgb(231,225,225)" height="5px" width="5px" x="28px" y="88px" /><rect fill="rgb(160,160,160)" height="5px" width="5px" x="32px" y="88px" /><rect fill="rgb(243,206,47)" height="5px" width="5px" x="36px" y="88px" /><rect fill="rgb(243,206,47)" height="5px" width="5px" x="40px" y="88px" /><rect fill="rgb(215,185,54)" height="5px" width="5px" x="44px" y="88px" /><rect fill="rgb(215,185,54)" height="5px" width="5px" x="48px" y="88px" /><rect fill="rgb(215,185,54)" height="5px" width="5px" x="52px" y="88px" /><rect fill="rgb(215,185,54)" height="5px" width="5px" x="56px" y="88px" /><rect fill="rgb(215,185,54)" height="5px" width="5px" x="60px" y="88px" /><rect fill="rgb(215,185,54)" height="5px" width="5px" x="64px" y="88px" /><rect fill="rgb(160,160,160)" height="5px" width="5px" x="68px" y="88px" /><rect fill="rgb(216,186,54)" height="5px" width="5px" x="72px" y="88px" /><rect fill="rgb(160,160,160)" height="5px" width="5px" x="96px" y="88px" /><rect fill="rgb(160,160,160)" height="5px" width="5px" x="100px" y="88px" /><rect fill="rgb(216,186,54)" height="5px" width="5px" x="112px" y="88px" /><rect fill="rgb(216,186,54)" height="5px" width="5px" x="8px" y="92px" /><rect fill="rgb(243,206,47)" height="5px" width="5px" x="12px" y="92px" /><rect fill="rgb(243,206,47)" height="5px" width="5px" x="16px" y="92px" /><rect fill="rgb(231,225,225)" height="5px" width="5px" x="20px" y="92px" /><rect fill="rgb(231,225,225)" height="5px" width="5px" x="24px" y="92px" /><rect fill="rgb(216,186,54)" height="5px" width="5px" x="28px" y="92px" /><rect fill="rgb(215,185,54)" height="5px" width="5px" x="32px" y="92px" /><rect fill="rgb(215,185,54)" height="5px" width="5px" x="36px" y="92px" /><rect fill="rgb(215,185,54)" height="5px" width="5px" x="40px" y="92px" /><rect fill="rgb(160,160,160)" height="5px" width="5px" x="44px" y="92px" /><rect fill="rgb(215,185,54)" height="5px" width="5px" x="48px" y="92px" /><rect fill="rgb(215,185,54)" height="5px" width="5px" x="52px" y="92px" /><rect fill="rgb(215,185,54)" height="5px" width="5px" x="56px" y="92px" /><rect fill="rgb(215,185,54)" height="5px" width="5px" x="60px" y="92px" /><rect fill="rgb(160,160,160)" height="5px" width="5px" x="64px" y="92px" /><rect fill="rgb(215,185,54)" height="5px" width="5px" x="68px" y="92px" /><rect fill="rgb(216,186,54)" height="5px" width="5px" x="72px" y="92px" /><rect fill="rgb(160,160,160)" height="5px" width="5px" x="96px" y="92px" /><rect fill="rgb(160,160,160)" height="5px" width="5px" x="100px" y="92px" /><rect fill="rgb(216,186,54)" height="5px" width="5px" x="112px" y="92px" /><rect fill="rgb(216,186,54)" height="5px" width="5px" x="8px" y="96px" /><rect fill="rgb(215,185,54)" height="5px" width="5px" x="12px" y="96px" /><rect fill="rgb(215,185,54)" height="5px" width="5px" x="16px" y="96px" /><rect fill="rgb(231,225,225)" height="5px" width="5px" x="20px" y="96px" /><rect fill="rgb(231,225,225)" height="5px" width="5px" x="24px" y="96px" /><rect fill="rgb(215,185,54)" height="5px" width="5px" x="28px" y="96px" /><rect fill="rgb(215,185,54)" height="5px" width="5px" x="32px" y="96px" /><rect fill="rgb(215,185,54)" height="5px" width="5px" x="36px" y="96px" /><rect fill="rgb(215,185,54)" height="5px" width="5px" x="40px" y="96px" /><rect fill="rgb(215,185,54)" height="5px" width="5px" x="44px" y="96px" /><rect fill="rgb(160,160,160)" height="5px" width="5px" x="48px" y="96px" /><rect fill="rgb(160,160,160)" height="5px" width="5px" x="52px" y="96px" /><rect fill="rgb(215,185,54)" height="5px" width="5px" x="56px" y="96px" /><rect fill="rgb(215,185,54)" height="5px" width="5px" x="60px" y="96px" /><rect fill="rgb(160,160,160)" height="5px" width="5px" x="64px" y="96px" /><rect fill="rgb(215,185,54)" height="5px" width="5px" x="68px" y="96px" /><rect fill="rgb(216,186,54)" height="5px" width="5px" x="72px" y="96px" /><rect fill="rgb(160,160,160)" height="5px" width="5px" x="96px" y="96px" /><rect fill="rgb(160,160,160)" height="5px" width="5px" x="100px" y="96px" /><rect fill="rgb(216,186,54)" height="5px" width="5px" x="112px" y="96px" /><rect fill="rgb(216,186,54)" height="5px" width="5px" x="8px" y="100px" /><rect fill="rgb(216,186,54)" height="5px" width="5px" x="12px" y="100px" /><rect fill="rgb(231,225,225)" height="5px" width="5px" x="16px" y="100px" /><rect fill="rgb(216,186,54)" height="5px" width="5px" x="20px" y="100px" /><rect fill="rgb(216,186,54)" height="5px" width="5px" x="24px" y="100px" /><rect fill="rgb(216,186,54)" height="5px" width="5px" x="28px" y="100px" /><rect fill="rgb(216,186,54)" height="5px" width="5px" x="32px" y="100px" /><rect fill="rgb(216,186,54)" height="5px" width="5px" x="36px" y="100px" /><rect fill="rgb(216,186,54)" height="5px" width="5px" x="40px" y="100px" /><rect fill="rgb(216,186,54)" height="5px" width="5px" x="44px" y="100px" /><rect fill="rgb(216,186,54)" height="5px" width="5px" x="48px" y="100px" /><rect fill="rgb(216,186,54)" height="5px" width="5px" x="52px" y="100px" /><rect fill="rgb(160,160,160)" height="5px" width="5px" x="56px" y="100px" /><rect fill="rgb(160,160,160)" height="5px" width="5px" x="60px" y="100px" /><rect fill="rgb(160,160,160)" height="5px" width="5px" x="64px" y="100px" /><rect fill="rgb(216,186,54)" height="5px" width="5px" x="68px" y="100px" /><rect fill="rgb(216,186,54)" height="5px" width="5px" x="72px" y="100px" /><rect fill="rgb(185,129,80)" height="5px" width="5px" x="92px" y="100px" /><rect fill="rgb(185,129,80)" height="5px" width="5px" x="96px" y="100px" /><rect fill="rgb(185,129,80)" height="5px" width="5px" x="100px" y="100px" /><rect fill="rgb(185,129,80)" height="5px" width="5px" x="104px" y="100px" /><rect fill="rgb(216,186,54)" height="5px" width="5px" x="108px" y="100px" /><rect fill="rgb(216,186,54)" height="5px" width="5px" x="112px" y="100px" /><rect fill="rgb(216,186,54)" height="5px" width="5px" x="116px" y="100px" /><rect fill="rgb(229,158,97)" height="5px" width="5px" x="0px" y="104px" /><rect fill="rgb(229,158,97)" height="5px" width="5px" x="4px" y="104px" /><rect fill="rgb(229,158,97)" height="5px" width="5px" x="8px" y="104px" /><rect fill="rgb(231,225,225)" height="5px" width="5px" x="12px" y="104px" /><rect fill="rgb(229,158,97)" height="5px" width="5px" x="16px" y="104px" /><rect fill="rgb(229,158,97)" height="5px" width="5px" x="20px" y="104px" /><rect fill="rgb(229,158,97)" height="5px" width="5px" x="24px" y="104px" /><rect fill="rgb(229,158,97)" height="5px" width="5px" x="28px" y="104px" /><rect fill="rgb(229,158,97)" height="5px" width="5px" x="32px" y="104px" /><rect fill="rgb(229,158,97)" height="5px" width="5px" x="36px" y="104px" /><rect fill="rgb(229,158,97)" height="5px" width="5px" x="40px" y="104px" /><rect fill="rgb(229,158,97)" height="5px" width="5px" x="44px" y="104px" /><rect fill="rgb(229,158,97)" height="5px" width="5px" x="48px" y="104px" /><rect fill="rgb(229,158,97)" height="5px" width="5px" x="52px" y="104px" /><rect fill="rgb(229,158,97)" height="5px" width="5px" x="56px" y="104px" /><rect fill="rgb(229,158,97)" height="5px" width="5px" x="60px" y="104px" /><rect fill="rgb(229,158,97)" height="5px" width="5px" x="64px" y="104px" /><rect fill="rgb(229,158,97)" height="5px" width="5px" x="68px" y="104px" /><rect fill="rgb(229,158,97)" height="5px" width="5px" x="72px" y="104px" /><rect fill="rgb(213,145,86)" height="5px" width="5px" x="76px" y="104px" /><rect fill="rgb(213,145,86)" height="5px" width="5px" x="80px" y="104px" /><rect fill="rgb(213,145,86)" height="5px" width="5px" x="84px" y="104px" /><rect fill="rgb(213,145,86)" height="5px" width="5px" x="88px" y="104px" /><rect fill="rgb(213,145,86)" height="5px" width="5px" x="92px" y="104px" /><rect fill="rgb(213,145,86)" height="5px" width="5px" x="96px" y="104px" /><rect fill="rgb(213,145,86)" height="5px" width="5px" x="100px" y="104px" /><rect fill="rgb(213,145,86)" height="5px" width="5px" x="104px" y="104px" /><rect fill="rgb(213,145,86)" height="5px" width="5px" x="108px" y="104px" /><rect fill="rgb(213,145,86)" height="5px" width="5px" x="112px" y="104px" /><rect fill="rgb(199,137,82)" height="5px" width="5px" x="116px" y="104px" /><rect fill="rgb(187,128,76)" height="5px" width="5px" x="120px" y="104px" /><rect fill="rgb(229,158,97)" height="5px" width="5px" x="0px" y="108px" /><rect fill="rgb(228,158,96)" height="5px" width="5px" x="4px" y="108px" /><rect fill="rgb(231,225,225)" height="5px" width="5px" x="8px" y="108px" /><rect fill="rgb(228,158,96)" height="5px" width="5px" x="12px" y="108px" /><rect fill="rgb(228,158,96)" height="5px" width="5px" x="16px" y="108px" /><rect fill="rgb(228,158,96)" height="5px" width="5px" x="20px" y="108px" /><rect fill="rgb(228,158,96)" height="5px" width="5px" x="24px" y="108px" /><rect fill="rgb(228,158,96)" height="5px" width="5px" x="28px" y="108px" /><rect fill="rgb(228,158,96)" height="5px" width="5px" x="32px" y="108px" /><rect fill="rgb(228,158,96)" height="5px" width="5px" x="36px" y="108px" /><rect fill="rgb(228,158,96)" height="5px" width="5px" x="40px" y="108px" /><rect fill="rgb(228,158,96)" height="5px" width="5px" x="44px" y="108px" /><rect fill="rgb(228,158,96)" height="5px" width="5px" x="48px" y="108px" /><rect fill="rgb(228,158,96)" height="5px" width="5px" x="52px" y="108px" /><rect fill="rgb(213,145,86)" height="5px" width="5px" x="56px" y="108px" /><rect fill="rgb(213,145,86)" height="5px" width="5px" x="60px" y="108px" /><rect fill="rgb(213,145,86)" height="5px" width="5px" x="64px" y="108px" /><rect fill="rgb(213,145,86)" height="5px" width="5px" x="68px" y="108px" /><rect fill="rgb(213,145,86)" height="5px" width="5px" x="72px" y="108px" /><rect fill="rgb(213,145,86)" height="5px" width="5px" x="76px" y="108px" /><rect fill="rgb(213,145,86)" height="5px" width="5px" x="80px" y="108px" /><rect fill="rgb(213,145,86)" height="5px" width="5px" x="84px" y="108px" /><rect fill="rgb(213,145,86)" height="5px" width="5px" x="88px" y="108px" /><rect fill="rgb(213,145,86)" height="5px" width="5px" x="92px" y="108px" /><rect fill="rgb(213,145,86)" height="5px" width="5px" x="96px" y="108px" /><rect fill="rgb(213,145,86)" height="5px" width="5px" x="100px" y="108px" /><rect fill="rgb(213,145,86)" height="5px" width="5px" x="104px" y="108px" /><rect fill="rgb(213,145,86)" height="5px" width="5px" x="108px" y="108px" /><rect fill="rgb(199,137,82)" height="5px" width="5px" x="112px" y="108px" /><rect fill="rgb(199,137,82)" height="5px" width="5px" x="116px" y="108px" /><rect fill="rgb(187,128,76)" height="5px" width="5px" x="120px" y="108px" /><rect fill="rgb(229,158,97)" height="5px" width="5px" x="0px" y="112px" /><rect fill="rgb(229,158,97)" height="5px" width="5px" x="4px" y="112px" /><rect fill="rgb(229,158,97)" height="5px" width="5px" x="8px" y="112px" /><rect fill="rgb(228,158,96)" height="5px" width="5px" x="12px" y="112px" /><rect fill="rgb(228,158,96)" height="5px" width="5px" x="16px" y="112px" /><rect fill="rgb(228,158,96)" height="5px" width="5px" x="20px" y="112px" /><rect fill="rgb(228,158,96)" height="5px" width="5px" x="24px" y="112px" /><rect fill="rgb(228,158,96)" height="5px" width="5px" x="28px" y="112px" /><rect fill="rgb(228,158,96)" height="5px" width="5px" x="32px" y="112px" /><rect fill="rgb(228,158,96)" height="5px" width="5px" x="36px" y="112px" /><rect fill="rgb(228,158,96)" height="5px" width="5px" x="40px" y="112px" /><rect fill="rgb(228,158,96)" height="5px" width="5px" x="44px" y="112px" /><rect fill="rgb(228,158,96)" height="5px" width="5px" x="48px" y="112px" /><rect fill="rgb(228,158,96)" height="5px" width="5px" x="52px" y="112px" /><rect fill="rgb(213,145,86)" height="5px" width="5px" x="56px" y="112px" /><rect fill="rgb(199,137,82)" height="5px" width="5px" x="60px" y="112px" /><rect fill="rgb(199,137,82)" height="5px" width="5px" x="64px" y="112px" /><rect fill="rgb(199,137,82)" height="5px" width="5px" x="68px" y="112px" /><rect fill="rgb(199,137,82)" height="5px" width="5px" x="72px" y="112px" /><rect fill="rgb(199,137,82)" height="5px" width="5px" x="76px" y="112px" /><rect fill="rgb(199,137,82)" height="5px" width="5px" x="80px" y="112px" /><rect fill="rgb(199,137,82)" height="5px" width="5px" x="84px" y="112px" /><rect fill="rgb(199,137,82)" height="5px" width="5px" x="88px" y="112px" /><rect fill="rgb(199,137,82)" height="5px" width="5px" x="92px" y="112px" /><rect fill="rgb(199,137,82)" height="5px" width="5px" x="96px" y="112px" /><rect fill="rgb(199,137,82)" height="5px" width="5px" x="100px" y="112px" /><rect fill="rgb(199,137,82)" height="5px" width="5px" x="104px" y="112px" /><rect fill="rgb(199,137,82)" height="5px" width="5px" x="108px" y="112px" /><rect fill="rgb(199,137,82)" height="5px" width="5px" x="112px" y="112px" /><rect fill="rgb(199,137,82)" height="5px" width="5px" x="116px" y="112px" /><rect fill="rgb(187,128,76)" height="5px" width="5px" x="120px" y="112px" /><rect fill="rgb(229,158,97)" height="5px" width="5px" x="0px" y="116px" /><rect fill="rgb(229,158,97)" height="5px" width="5px" x="4px" y="116px" /><rect fill="rgb(229,158,97)" height="5px" width="5px" x="8px" y="116px" /><rect fill="rgb(229,158,97)" height="5px" width="5px" x="12px" y="116px" /><rect fill="rgb(229,158,97)" height="5px" width="5px" x="16px" y="116px" /><rect fill="rgb(229,158,97)" height="5px" width="5px" x="20px" y="116px" /><rect fill="rgb(229,158,97)" height="5px" width="5px" x="24px" y="116px" /><rect fill="rgb(229,158,97)" height="5px" width="5px" x="28px" y="116px" /><rect fill="rgb(229,158,97)" height="5px" width="5px" x="32px" y="116px" /><rect fill="rgb(229,158,97)" height="5px" width="5px" x="36px" y="116px" /><rect fill="rgb(229,158,97)" height="5px" width="5px" x="40px" y="116px" /><rect fill="rgb(229,158,97)" height="5px" width="5px" x="44px" y="116px" /><rect fill="rgb(229,158,97)" height="5px" width="5px" x="48px" y="116px" /><rect fill="rgb(229,158,97)" height="5px" width="5px" x="52px" y="116px" /><rect fill="rgb(213,145,86)" height="5px" width="5px" x="56px" y="116px" /><rect fill="rgb(199,137,82)" height="5px" width="5px" x="60px" y="116px" /><rect fill="rgb(187,128,76)" height="5px" width="5px" x="64px" y="116px" /><rect fill="rgb(187,128,76)" height="5px" width="5px" x="68px" y="116px" /><rect fill="rgb(187,128,76)" height="5px" width="5px" x="72px" y="116px" /><rect fill="rgb(187,128,76)" height="5px" width="5px" x="76px" y="116px" /><rect fill="rgb(187,128,76)" height="5px" width="5px" x="80px" y="116px" /><rect fill="rgb(187,128,76)" height="5px" width="5px" x="84px" y="116px" /><rect fill="rgb(187,128,76)" height="5px" width="5px" x="88px" y="116px" /><rect fill="rgb(187,128,76)" height="5px" width="5px" x="92px" y="116px" /><rect fill="rgb(187,128,76)" height="5px" width="5px" x="96px" y="116px" /><rect fill="rgb(187,128,76)" height="5px" width="5px" x="100px" y="116px" /><rect fill="rgb(187,128,76)" height="5px" width="5px" x="104px" y="116px" /><rect fill="rgb(187,128,76)" height="5px" width="5px" x="108px" y="116px" /><rect fill="rgb(187,128,76)" height="5px" width="5px" x="112px" y="116px" /><rect fill="rgb(187,128,76)" height="5px" width="5px" x="116px" y="116px" /><rect fill="rgb(187,128,76)" height="5px" width="5px" x="120px" y="116px" /></svg>