<?xml version="1.0" encoding="utf-8" ?>
<svg baseProfile="full" height="128px" version="1.1" width="128px" xmlns="http://www.w3.org/2000/svg" xmlns:ev="http://www.w3.org/2001/xml-events" xmlns:xlink="http://www.w3.org/1999/xlink"><defs /><rect fill="rgb(160,160,160)" height="5px" width="5px" x="64px" y="44px" /><rect fill="rgb(160,160,160)" height="5px" width="5px" x="68px" y="44px" /><rect fill="rgb(160,160,160)" height="5px" width="5px" x="72px" y="44px" /><rect fill="rgb(160,160,160)" height="5px" width="5px" x="76px" y="44px" /><rect fill="rgb(160,160,160)" height="5px" width="5px" x="80px" y="44px" /><rect fill="rgb(160,160,160)" height="5px" width="5px" x="84px" y="44px" /><rect fill="rgb(160,160,160)" height="5px" width="5px" x="88px" y="44px" /><rect fill="rgb(160,160,160)" height="5px" width="5px" x="92px" y="44px" /><rect fill="rgb(160,160,160)" height="5px" width="5px" x="96px" y="44px" /><rect fill="rgb(160,160,160)" height="5px" width="5px" x="100px" y="44px" /><rect fill="rgb(160,160,160)" height="5px" width="5px" x="104px" y="44px" /><rect fill="rgb(160,160,160)" height="5px" width="5px" x="108px" y="44px" /><rect fill="rgb(160,160,160)" height="5px" width="5px" x="112px" y="44px" /><rect fill="rgb(0,0,0)" height="5px" opacity="0.0078431372549" width="5px" x="64px" y="48px" /><rect fill="rgb(160,160,160)" height="5px" width="5px" x="68px" y="48px" /><rect fill="rgb(160,160,160)" height="5px" width="5px" x="72px" y="48px" /><rect fill="rgb(160,160,160)" height="5px" width="5px" x="76px" y="48px" /><rect fill="rgb(160,160,160)" height="5px" width="5px" x="80px" y="48px" /><rect fill="rgb(160,160,160)" height="5px" width="5px" x="84px" y="48px" /><rect fill="rgb(160,160,160)" height="5px" width="5px" x="88px" y="48px" /><rect fill="rgb(160,160,160)" height="5px" width="5px" x="92px" y="48px" /><rect fill="rgb(160,160,160)" height="5px" width="5px" x="96px" y="48px" /><rect fill="rgb(160,160,160)" height="5px" width="5px" x="100px" y="48px" /><rect fill="rgb(160,160,160)" height="5px" width="5px" x="104px" y="48px" /><rect fill="rgb(160,160,160)" height="5px" width="5px" x="108px" y="48px" /><rect fill="rgb(160,160,160)" height="5px" width="5px" x="72px" y="52px" /><rect fill="rgb(160,160,160)" height="5px" width="5px" x="76px" y="52px" /><rect fill="rgb(160,160,160)" height="5px" width="5px" x="80px" y="52px" /><rect fill="rgb(160,160,160)" height="5px" width="5px" x="84px" y="52px" /><rect fill="rgb(160,160,160)" height="5px" width="5px" x="88px" y="52px" /><rect fill="rgb(160,160,160)" height="5px" width="5px" x="92px" y="52px" /><rect fill="rgb(160,160,160)" height="5px" width="5px" x="96px" y="52px" /><rect fill="rgb(160,160,160)" height="5px" width="5px" x="100px" y="52px" /><rect fill="rgb(160,160,160)" height="5px" width="5px" x="104px" y="52px" /><rect fill="rgb(164,164,164)" height="5px" opacity="0.329411764706" width="5px" x="20px" y="56px" /><rect fill="rgb(163,163,163)" height="5px" width="5px" x="24px" y="56px" /><rect fill="rgb(163,163,163)" height="5px" width="5px" x="28px" y="56px" /><rect fill="rgb(163,163,163)" height="5px" width="5px" x="32px" y="56px" /><rect fill="rgb(165,165,165)" height="5px" opacity="0.133333333333" width="5px" x="36px" y="56px" /><rect fill="rgb(160,160,160)" height="5px" width="5px" x="72px" y="56px" /><rect fill="rgb(160,160,160)" height="5px" width="5px" x="76px" y="56px" /><rect fill="rgb(160,160,160)" height="5px" width="5px" x="80px" y="56px" /><rect fill="rgb(160,160,160)" height="5px" width="5px" x="84px" y="56px" /><rect fill="rgb(160,160,160)" height="5px" width="5px" x="88px" y="56px" /><rect fill="rgb(160,160,160)" height="5px" width="5px" x="92px" y="56px" /><rect fill="rgb(160,160,160)" height="5px" width="5px" x="96px" y="56px" /><rect fill="rgb(160,160,160)" height="5px" width="5px" x="100px" y="56px" /><rect fill="rgb(160,160,160)" height="5px" width="5px" x="104px" y="56px" /><rect fill="rgb(163,163,163)" height="5px" opacity="0.313725490196" width="5px" x="12px" y="60px" /><rect fill="rgb(163,163,163)" height="5px" opacity="0.988235294118" width="5px" x="16px" y="60px" /><rect fill="rgb(163,163,163)" height="5px" width="5px" x="20px" y="60px" /><rect fill="rgb(163,163,163)" height="5px" width="5px" x="24px" y="60px" /><rect fill="rgb(163,163,163)" height="5px" width="5px" x="28px" y="60px" /><rect fill="rgb(163,163,163)" height="5px" width="5px" x="32px" y="60px" /><rect fill="rgb(163,163,163)" height="5px" width="5px" x="36px" y="60px" /><rect fill="rgb(163,163,163)" height="5px" opacity="0.952941176471" width="5px" x="40px" y="60px" /><rect fill="rgb(162,162,162)" height="5px" opacity="0.117647058824" width="5px" x="44px" y="60px" /><rect fill="rgb(160,160,160)" height="5px" width="5px" x="72px" y="60px" /><rect fill="rgb(160,160,160)" height="5px" width="5px" x="76px" y="60px" /><rect fill="rgb(160,160,160)" height="5px" width="5px" x="80px" y="60px" /><rect fill="rgb(160,160,160)" height="5px" width="5px" x="84px" y="60px" /><rect fill="rgb(160,160,160)" height="5px" width="5px" x="88px" y="60px" /><rect fill="rgb(160,160,160)" height="5px" width="5px" x="92px" y="60px" /><rect fill="rgb(160,160,160)" height="5px" width="5px" x="96px" y="60px" /><rect fill="rgb(160,160,160)" height="5px" width="5px" x="100px" y="60px" /><rect fill="rgb(160,160,160)" height="5px" width="5px" x="104px" y="60px" /><rect fill="rgb(162,162,162)" height="5px" opacity="0.21568627451" width="5px" x="8px" y="64px" /><rect fill="rgb(163,163,163)" height="5px" width="5px" x="12px" y="64px" /><rect fill="rgb(163,163,163)" height="5px" width="5px" x="16px" y="64px" /><rect fill="rgb(163,163,163)" height="5px" width="5px" x="20px" y="64px" /><rect fill="rgb(163,163,163)" height="5px" width="5px" x="24px" y="64px" /><rect fill="rgb(163,163,163)" height="5px" width="5px" x="28px" y="64px" /><rect fill="rgb(163,163,163)" height="5px" width="5px" x="32px" y="64px" /><rect fill="rgb(163,163,163)" height="5px" width="5px" x="36px" y="64px" /><rect fill="rgb(163,163,163)" height="5px" width="5px" x="40px" y="64px" /><rect fill="rgb(163,163,163)" height="5px" opacity="0.996078431373" width="5px" x="44px" y="64px" /><rect fill="rgb(159,159,159)" height="5px" opacity="0.0941176470588" width="5px" x="48px" y="64px" /><rect fill="rgb(0,38,255)" height="5px" width="5px" x="72px" y="64px" /><rect fill="rgb(0,38,255)" height="5px" width="5px" x="76px" y="64px" /><rect fill="rgb(0,38,255)" height="5px" width="5px" x="80px" y="64px" /><rect fill="rgb(0,38,255)" height="5px" width="5px" x="84px" y="64px" /><rect fill="rgb(0,38,255)" height="5px" width="5px" x="88px" y="64px" /><rect fill="rgb(0,38,255)" height="5px" width="5px" x="92px" y="64px" /><rect fill="rgb(0,38,255)" height="5px" width="5px" x="96px" y="64px" /><rect fill="rgb(0,38,255)" height="5px" width="5px" x="100px" y="64px" /><rect fill="rgb(0,38,255)" height="5px" width="5px" x="104px" y="64px" /><rect fill="rgb(163,163,163)" height="5px" opacity="0.941176470588" width="5px" x="8px" y="68px" /><rect fill="rgb(163,163,163)" height="5px" width="5px" x="12px" y="68px" /><rect fill="rgb(163,163,163)" height="5px" width="5px" x="16px" y="68px" /><rect fill="rgb(163,163,163)" height="5px" width="5px" x="20px" y="68px" /><rect fill="rgb(163,163,163)" height="5px" width="5px" x="24px" y="68px" /><rect fill="rgb(163,163,163)" height="5px" width="5px" x="28px" y="68px" /><rect fill="rgb(163,163,163)" height="5px" width="5px" x="32px" y="68px" /><rect fill="rgb(163,163,163)" height="5px" width="5px" x="36px" y="68px" /><rect fill="rgb(163,163,163)" height="5px" width="5px" x="40px" y="68px" /><rect fill="rgb(163,163,163)" height="5px" width="5px" x="44px" y="68px" /><rect fill="rgb(163,163,163)" height="5px" opacity="0.894117647059" width="5px" x="48px" y="68px" /><rect fill="rgb(0,38,255)" height="5px" width="5px" x="72px" y="68px" /><rect fill="rgb(0,38,255)" height="5px" width="5px" x="76px" y="68px" /><rect fill="rgb(0,38,255)" height="5px" width="5px" x="80px" y="68px" /><rect fill="rgb(0,38,255)" height="5px" width="5px" x="84px" y="68px" /><rect fill="rgb(0,38,255)" height="5px" width="5px" x="88px" y="68px" /><rect fill="rgb(0,38,255)" height="5px" width="5px" x="92px" y="68px" /><rect fill="rgb(0,38,255)" height="5px" width="5px" x="96px" y="68px" /><rect fill="rgb(0,38,255)" height="5px" width="5px" x="100px" y="68px" /><rect fill="rgb(0,38,255)" height="5px" width="5px" x="104px" y="68px" /><rect fill="rgb(0,0,0)" height="5px" opacity="0.0078431372549" width="5px" x="108px" y="68px" /><rect fill="rgb(163,163,163)" height="5px" width="5px" x="8px" y="72px" /><rect fill="rgb(163,163,163)" height="5px" width="5px" x="12px" y="72px" /><rect fill="rgb(163,163,163)" height="5px" width="5px" x="16px" y="72px" /><rect fill="rgb(163,163,163)" height="5px" width="5px" x="20px" y="72px" /><rect fill="rgb(163,163,163)" height="5px" width="5px" x="24px" y="72px" /><rect fill="rgb(163,163,163)" height="5px" width="5px" x="28px" y="72px" /><rect fill="rgb(163,163,163)" height="5px" width="5px" x="32px" y="72px" /><rect fill="rgb(163,163,163)" height="5px" width="5px" x="36px" y="72px" /><rect fill="rgb(163,163,163)" height="5px" width="5px" x="40px" y="72px" /><rect fill="rgb(163,163,163)" height="5px" width="5px" x="44px" y="72px" /><rect fill="rgb(163,163,163)" height="5px" opacity="0.996078431373" width="5px" x="48px" y="72px" /><rect fill="rgb(160,160,160)" height="5px" width="5px" x="68px" y="72px" /><rect fill="rgb(160,160,160)" height="5px" width="5px" x="72px" y="72px" /><rect fill="rgb(160,160,160)" height="5px" width="5px" x="76px" y="72px" /><rect fill="rgb(160,160,160)" height="5px" width="5px" x="80px" y="72px" /><rect fill="rgb(160,160,160)" height="5px" width="5px" x="84px" y="72px" /><rect fill="rgb(160,160,160)" height="5px" width="5px" x="88px" y="72px" /><rect fill="rgb(160,160,160)" height="5px" width="5px" x="92px" y="72px" /><rect fill="rgb(160,160,160)" height="5px" width="5px" x="96px" y="72px" /><rect fill="rgb(160,160,160)" height="5px" width="5px" x="100px" y="72px" /><rect fill="rgb(160,160,160)" height="5px" width="5px" x="104px" y="72px" /><rect fill="rgb(160,160,160)" height="5px" width="5px" x="108px" y="72px" /><rect fill="rgb(163,163,163)" height="5px" width="5px" x="8px" y="76px" /><rect fill="rgb(163,163,163)" height="5px" width="5px" x="12px" y="76px" /><rect fill="rgb(163,163,163)" height="5px" width="5px" x="16px" y="76px" /><rect fill="rgb(163,163,163)" height="5px" width="5px" x="20px" y="76px" /><rect fill="rgb(163,163,163)" height="5px" width="5px" x="24px" y="76px" /><rect fill="rgb(163,163,163)" height="5px" width="5px" x="28px" y="76px" /><rect fill="rgb(163,163,163)" height="5px" width="5px" x="32px" y="76px" /><rect fill="rgb(163,163,163)" height="5px" width="5px" x="36px" y="76px" /><rect fill="rgb(163,163,163)" height="5px" width="5px" x="40px" y="76px" /><rect fill="rgb(163,163,163)" height="5px" width="5px" x="44px" y="76px" /><rect fill="rgb(163,163,163)" height="5px" width="5px" x="48px" y="76px" /><rect fill="rgb(160,160,160)" height="5px" width="5px" x="68px" y="76px" /><rect fill="rgb(160,160,160)" height="5px" width="5px" x="72px" y="76px" /><rect fill="rgb(160,160,160)" height="5px" width="5px" x="76px" y="76px" /><rect fill="rgb(160,160,160)" height="5px" width="5px" x="80px" y="76px" /><rect fill="rgb(160,160,160)" height="5px" width="5px" x="84px" y="76px" /><rect fill="rgb(160,160,160)" height="5px" width="5px" x="88px" y="76px" /><rect fill="rgb(160,160,160)" height="5px" width="5px" x="92px" y="76px" /><rect fill="rgb(160,160,160)" height="5px" width="5px" x="96px" y="76px" /><rect fill="rgb(160,160,160)" height="5px" width="5px" x="100px" y="76px" /><rect fill="rgb(160,160,160)" height="5px" width="5px" x="104px" y="76px" /><rect fill="rgb(160,160,160)" height="5px" width="5px" x="108px" y="76px" /><rect fill="rgb(55,55,55)" height="5px" width="5px" x="8px" y="80px" /><rect fill="rgb(55,55,55)" height="5px" width="5px" x="12px" y="80px" /><rect fill="rgb(55,55,55)" height="5px" width="5px" x="16px" y="80px" /><rect fill="rgb(55,55,55)" height="5px" width="5px" x="20px" y="80px" /><rect fill="rgb(55,55,55)" height="5px" width="5px" x="24px" y="80px" /><rect fill="rgb(55,55,55)" height="5px" width="5px" x="28px" y="80px" /><rect fill="rgb(55,55,55)" height="5px" width="5px" x="32px" y="80px" /><rect fill="rgb(55,55,55)" height="5px" width="5px" x="36px" y="80px" /><rect fill="rgb(55,55,55)" height="5px" width="5px" x="40px" y="80px" /><rect fill="rgb(55,55,55)" height="5px" width="5px" x="44px" y="80px" /><rect fill="rgb(55,55,55)" height="5px" width="5px" x="48px" y="80px" /><rect fill="rgb(43,43,43)" height="5px" opacity="0.0235294117647" width="5px" x="64px" y="80px" /><rect fill="rgb(160,160,160)" height="5px" width="5px" x="68px" y="80px" /><rect fill="rgb(160,160,160)" height="5px" width="5px" x="72px" y="80px" /><rect fill="rgb(160,160,160)" height="5px" width="5px" x="76px" y="80px" /><rect fill="rgb(160,160,160)" height="5px" width="5px" x="80px" y="80px" /><rect fill="rgb(160,160,160)" height="5px" width="5px" x="84px" y="80px" /><rect fill="rgb(160,160,160)" height="5px" width="5px" x="88px" y="80px" /><rect fill="rgb(160,160,160)" height="5px" width="5px" x="92px" y="80px" /><rect fill="rgb(160,160,160)" height="5px" width="5px" x="96px" y="80px" /><rect fill="rgb(160,160,160)" height="5px" width="5px" x="100px" y="80px" /><rect fill="rgb(160,160,160)" height="5px" width="5px" x="104px" y="80px" /><rect fill="rgb(160,160,160)" height="5px" width="5px" x="108px" y="80px" /><rect fill="rgb(55,55,55)" height="5px" width="5px" x="8px" y="84px" /><rect fill="rgb(109,109,109)" height="5px" width="5px" x="12px" y="84px" /><rect fill="rgb(109,109,109)" height="5px" width="5px" x="16px" y="84px" /><rect fill="rgb(109,109,109)" height="5px" width="5px" x="20px" y="84px" /><rect fill="rgb(109,109,109)" height="5px" width="5px" x="24px" y="84px" /><rect fill="rgb(109,109,109)" height="5px" width="5px" x="28px" y="84px" /><rect fill="rgb(109,109,109)" height="5px" width="5px" x="32px" y="84px" /><rect fill="rgb(109,109,109)" height="5px" width="5px" x="36px" y="84px" /><rect fill="rgb(109,109,109)" height="5px" width="5px" x="40px" y="84px" /><rect fill="rgb(109,109,109)" height="5px" width="5px" x="44px" y="84px" /><rect fill="rgb(55,55,55)" height="5px" width="5px" x="48px" y="84px" /><rect fill="rgb(160,160,160)" height="5px" width="5px" x="64px" y="84px" /><rect fill="rgb(160,160,160)" height="5px" width="5px" x="68px" y="84px" /><rect fill="rgb(160,160,160)" height="5px" width="5px" x="72px" y="84px" /><rect fill="rgb(160,160,160)" height="5px" width="5px" x="76px" y="84px" /><rect fill="rgb(160,160,160)" height="5px" width="5px" x="80px" y="84px" /><rect fill="rgb(160,160,160)" height="5px" width="5px" x="84px" y="84px" /><rect fill="rgb(160,160,160)" height="5px" width="5px" x="88px" y="84px" /><rect fill="rgb(160,160,160)" height="5px" width="5px" x="92px" y="84px" /><rect fill="rgb(160,160,160)" height="5px" width="5px" x="96px" y="84px" /><rect fill="rgb(160,160,160)" height="5px" width="5px" x="100px" y="84px" /><rect fill="rgb(160,160,160)" height="5px" width="5px" x="104px" y="84px" /><rect fill="rgb(160,160,160)" height="5px" width="5px" x="108px" y="84px" /><rect fill="rgb(64,64,64)" height="5px" opacity="0.0313725490196" width="5px" x="112px" y="84px" /><rect fill="rgb(55,55,55)" height="5px" width="5px" x="8px" y="88px" /><rect fill="rgb(109,109,109)" height="5px" width="5px" x="12px" y="88px" /><rect fill="rgb(55,55,55)" height="5px" width="5px" x="16px" y="88px" /><rect fill="rgb(55,55,55)" height="5px" width="5px" x="20px" y="88px" /><rect fill="rgb(109,109,109)" height="5px" width="5px" x="24px" y="88px" /><rect fill="rgb(109,109,109)" height="5px" width="5px" x="28px" y="88px" /><rect fill="rgb(109,109,109)" height="5px" width="5px" x="32px" y="88px" /><rect fill="rgb(55,55,55)" height="5px" width="5px" x="36px" y="88px" /><rect fill="rgb(55,55,55)" height="5px" width="5px" x="40px" y="88px" /><rect fill="rgb(109,109,109)" height="5px" width="5px" x="44px" y="88px" /><rect fill="rgb(55,55,55)" height="5px" width="5px" x="48px" y="88px" /><rect fill="rgb(160,160,160)" height="5px" width="5px" x="64px" y="88px" /><rect fill="rgb(160,160,160)" height="5px" width="5px" x="68px" y="88px" /><rect fill="rgb(160,160,160)" height="5px" width="5px" x="72px" y="88px" /><rect fill="rgb(160,160,160)" height="5px" width="5px" x="76px" y="88px" /><rect fill="rgb(160,160,160)" height="5px" width="5px" x="80px" y="88px" /><rect fill="rgb(160,160,160)" height="5px" width="5px" x="84px" y="88px" /><rect fill="rgb(160,160,160)" height="5px" width="5px" x="88px" y="88px" /><rect fill="rgb(160,160,160)" height="5px" width="5px" x="92px" y="88px" /><rect fill="rgb(160,160,160)" height="5px" width="5px" x="96px" y="88px" /><rect fill="rgb(160,160,160)" height="5px" width="5px" x="100px" y="88px" /><rect fill="rgb(160,160,160)" height="5px" width="5px" x="104px" y="88px" /><rect fill="rgb(160,160,160)" height="5px" width="5px" x="108px" y="88px" /><rect fill="rgb(160,160,160)" height="5px" width="5px" x="112px" y="88px" /><rect fill="rgb(55,55,55)" height="5px" width="5px" x="8px" y="92px" /><rect fill="rgb(109,109,109)" height="5px" width="5px" x="12px" y="92px" /><rect fill="rgb(109,109,109)" height="5px" width="5px" x="16px" y="92px" /><rect fill="rgb(109,109,109)" height="5px" width="5px" x="20px" y="92px" /><rect fill="rgb(109,109,109)" height="5px" width="5px" x="24px" y="92px" /><rect fill="rgb(109,109,109)" height="5px" width="5px" x="28px" y="92px" /><rect fill="rgb(109,109,109)" height="5px" width="5px" x="32px" y="92px" /><rect fill="rgb(109,109,109)" height="5px" width="5px" x="36px" y="92px" /><rect fill="rgb(109,109,109)" height="5px" width="5px" x="40px" y="92px" /><rect fill="rgb(109,109,109)" height="5px" width="5px" x="44px" y="92px" /><rect fill="rgb(55,55,55)" height="5px" width="5px" x="48px" y="92px" /><rect fill="rgb(43,43,43)" height="5px" opacity="0.0235294117647" width="5px" x="60px" y="92px" /><rect fill="rgb(160,160,160)" height="5px" width="5px" x="64px" y="92px" /><rect fill="rgb(160,160,160)" height="5px" width="5px" x="68px" y="92px" /><rect fill="rgb(160,160,160)" height="5px" width="5px" x="72px" y="92px" /><rect fill="rgb(160,160,160)" height="5px" width="5px" x="76px" y="92px" /><rect fill="rgb(160,160,160)" height="5px" width="5px" x="80px" y="92px" /><rect fill="rgb(160,160,160)" height="5px" width="5px" x="84px" y="92px" /><rect fill="rgb(160,160,160)" height="5px" width="5px" x="88px" y="92px" /><rect fill="rgb(160,160,160)" height="5px" width="5px" x="92px" y="92px" /><rect fill="rgb(160,160,160)" height="5px" width="5px" x="96px" y="92px" /><rect fill="rgb(160,160,160)" height="5px" width="5px" x="100px" y="92px" /><rect fill="rgb(160,160,160)" height="5px" width="5px" x="104px" y="92px" /><rect fill="rgb(160,160,160)" height="5px" width="5px" x="108px" y="92px" /><rect fill="rgb(160,160,160)" height="5px" width="5px" x="112px" y="92px" /><rect fill="rgb(55,55,55)" height="5px" width="5px" x="8px" y="96px" /><rect fill="rgb(109,109,109)" height="5px" width="5px" x="12px" y="96px" /><rect fill="rgb(109,109,109)" height="5px" width="5px" x="16px" y="96px" /><rect fill="rgb(109,109,109)" height="5px" width="5px" x="20px" y="96px" /><rect fill="rgb(55,55,55)" height="5px" width="5px" x="24px" y="96px" /><rect fill="rgb(55,55,55)" height="5px" width="5px" x="28px" y="96px" /><rect fill="rgb(55,55,55)" height="5px" width="5px" x="32px" y="96px" /><rect fill="rgb(109,109,109)" height="5px" width="5px" x="36px" y="96px" /><rect fill="rgb(109,109,109)" height="5px" width="5px" x="40px" y="96px" /><rect fill="rgb(109,109,109)" height="5px" width="5px" x="44px" y="96px" /><rect fill="rgb(55,55,55)" height="5px" width="5px" x="48px" y="96px" /><rect fill="rgb(160,160,160)" height="5px" width="5px" x="60px" y="96px" /><rect fill="rgb(160,160,160)" height="5px" width="5px" x="64px" y="96px" /><rect fill="rgb(160,160,160)" height="5px" width="5px" x="68px" y="96px" /><rect fill="rgb(160,160,160)" height="5px" width="5px" x="72px" y="96px" /><rect fill="rgb(160,160,160)" height="5px" width="5px" x="76px" y="96px" /><rect fill="rgb(160,160,160)" height="5px" width="5px" x="80px" y="96px" /><rect fill="rgb(160,160,160)" height="5px" width="5px" x="84px" y="96px" /><rect fill="rgb(160,160,160)" height="5px" width="5px" x="88px" y="96px" /><rect fill="rgb(160,160,160)" height="5px" width="5px" x="92px" y="96px" /><rect fill="rgb(160,160,160)" height="5px" width="5px" x="96px" y="96px" /><rect fill="rgb(160,160,160)" height="5px" width="5px" x="100px" y="96px" /><rect fill="rgb(160,160,160)" height="5px" width="5px" x="104px" y="96px" /><rect fill="rgb(160,160,160)" height="5px" width="5px" x="108px" y="96px" /><rect fill="rgb(160,160,160)" height="5px" width="5px" x="112px" y="96px" /><rect fill="rgb(0,0,0)" height="5px" opacity="0.00392156862745" width="5px" x="116px" y="96px" /><rect fill="rgb(55,55,55)" height="5px" width="5px" x="8px" y="100px" /><rect fill="rgb(109,109,109)" height="5px" width="5px" x="12px" y="100px" /><rect fill="rgb(109,109,109)" height="5px" width="5px" x="16px" y="100px" /><rect fill="rgb(109,109,109)" height="5px" width="5px" x="20px" y="100px" /><rect fill="rgb(55,55,55)" height="5px" width="5px" x="24px" y="100px" /><rect fill="rgb(109,109,109)" height="5px" width="5px" x="28px" y="100px" /><rect fill="rgb(55,55,55)" height="5px" width="5px" x="32px" y="100px" /><rect fill="rgb(109,109,109)" height="5px" width="5px" x="36px" y="100px" /><rect fill="rgb(109,109,109)" height="5px" width="5px" x="40px" y="100px" /><rect fill="rgb(109,109,109)" height="5px" width="5px" x="44px" y="100px" /><rect fill="rgb(55,55,55)" height="5px" width="5px" x="48px" y="100px" /><rect fill="rgb(0,38,255)" height="5px" width="5px" x="60px" y="100px" /><rect fill="rgb(0,38,255)" height="5px" width="5px" x="64px" y="100px" /><rect fill="rgb(0,38,255)" height="5px" width="5px" x="68px" y="100px" /><rect fill="rgb(0,38,255)" height="5px" width="5px" x="72px" y="100px" /><rect fill="rgb(0,38,255)" height="5px" width="5px" x="76px" y="100px" /><rect fill="rgb(0,38,255)" height="5px" width="5px" x="80px" y="100px" /><rect fill="rgb(0,38,255)" height="5px" width="5px" x="84px" y="100px" /><rect fill="rgb(0,38,255)" height="5px" width="5px" x="88px" y="100px" /><rect fill="rgb(0,38,255)" height="5px" width="5px" x="92px" y="100px" /><rect fill="rgb(0,38,255)" height="5px" width="5px" x="96px" y="100px" /><rect fill="rgb(0,38,255)" height="5px" width="5px" x="100px" y="100px" /><rect fill="rgb(0,38,255)" height="5px" width="5px" x="104px" y="100px" /><rect fill="rgb(0,38,255)" height="5px" width="5px" x="108px" y="100px" /><rect fill="rgb(0,38,255)" height="5px" width="5px" x="112px" y="100px" /><rect fill="rgb(0,38,255)" height="5px" width="5px" x="116px" y="100px" /><rect fill="rgb(55,55,55)" height="5px" width="5px" x="8px" y="104px" /><rect fill="rgb(109,109,109)" height="5px" width="5px" x="12px" y="104px" /><rect fill="rgb(109,109,109)" height="5px" width="5px" x="16px" y="104px" /><rect fill="rgb(109,109,109)" height="5px" width="5px" x="20px" y="104px" /><rect fill="rgb(55,55,55)" height="5px" width="5px" x="24px" y="104px" /><rect fill="rgb(109,109,109)" height="5px" width="5px" x="28px" y="104px" /><rect fill="rgb(55,55,55)" height="5px" width="5px" x="32px" y="104px" /><rect fill="rgb(109,109,109)" height="5px" width="5px" x="36px" y="104px" /><rect fill="rgb(109,109,109)" height="5px" width="5px" x="40px" y="104px" /><rect fill="rgb(109,109,109)" height="5px" width="5px" x="44px" y="104px" /><rect fill="rgb(55,55,55)" height="5px" width="5px" x="48px" y="104px" /><rect fill="rgb(0,38,255)" height="5px" width="5px" x="56px" y="104px" /><rect fill="rgb(0,38,255)" height="5px" width="5px" x="60px" y="104px" /><rect fill="rgb(0,38,255)" height="5px" width="5px" x="64px" y="104px" /><rect fill="rgb(0,38,255)" height="5px" width="5px" x="68px" y="104px" /><rect fill="rgb(0,38,255)" height="5px" width="5px" x="72px" y="104px" /><rect fill="rgb(0,38,255)" height="5px" width="5px" x="76px" y="104px" /><rect fill="rgb(0,38,255)" height="5px" width="5px" x="80px" y="104px" /><rect fill="rgb(0,38,255)" height="5px" width="5px" x="84px" y="104px" /><rect fill="rgb(0,38,255)" height="5px" width="5px" x="88px" y="104px" /><rect fill="rgb(0,38,255)" height="5px" width="5px" x="92px" y="104px" /><rect fill="rgb(0,38,255)" height="5px" width="5px" x="96px" y="104px" /><rect fill="rgb(0,38,255)" height="5px" width="5px" x="100px" y="104px" /><rect fill="rgb(0,38,255)" height="5px" width="5px" x="104px" y="104px" /><rect fill="rgb(0,38,255)" height="5px" width="5px" x="108px" y="104px" /><rect fill="rgb(0,38,255)" height="5px" width="5px" x="112px" y="104px" /><rect fill="rgb(0,38,255)" height="5px" width="5px" x="116px" y="104px" /><rect fill="rgb(55,55,55)" height="5px" width="5px" x="8px" y="108px" /><rect fill="rgb(55,55,55)" height="5px" width="5px" x="12px" y="108px" /><rect fill="rgb(55,55,55)" height="5px" width="5px" x="16px" y="108px" /><rect fill="rgb(55,55,55)" height="5px" width="5px" x="20px" y="108px" /><rect fill="rgb(55,55,55)" height="5px" width="5px" x="24px" y="108px" /><rect fill="rgb(55,55,55)" height="5px" width="5px" x="28px" y="108px" /><rect fill="rgb(55,55,55)" height="5px" width="5px" x="32px" y="108px" /><rect fill="rgb(55,55,55)" height="5px" width="5px" x="36px" y="108px" /><rect fill="rgb(55,55,55)" height="5px" width="5px" x="40px" y="108px" /><rect fill="rgb(55,55,55)" height="5px" width="5px" x="44px" y="108px" /><rect fill="rgb(55,55,55)" height="5px" width="5px" x="48px" y="108px" /><rect fill="rgb(160,160,160)" height="5px" width="5px" x="56px" y="108px" /><rect fill="rgb(160,160,160)" height="5px" width="5px" x="60px" y="108px" /><rect fill="rgb(160,160,160)" height="5px" width="5px" x="64px" y="108px" /><rect fill="rgb(160,160,160)" height="5px" width="5px" x="68px" y="108px" /><rect fill="rgb(160,160,160)" height="5px" width="5px" x="72px" y="108px" /><rect fill="rgb(160,160,160)" height="5px" width="5px" x="76px" y="108px" /><rect fill="rgb(160,160,160)" height="5px" width="5px" x="80px" y="108px" /><rect fill="rgb(160,160,160)" height="5px" width="5px" x="84px" y="108px" /><rect fill="rgb(160,160,160)" height="5px" width="5px" x="88px" y="108px" /><rect fill="rgb(160,160,160)" height="5px" width="5px" x="92px" y="108px" /><rect fill="rgb(160,160,160)" height="5px" width="5px" x="96px" y="108px" /><rect fill="rgb(160,160,160)" height="5px" width="5px" x="100px" y="108px" /><rect fill="rgb(160,160,160)" height="5px" width="5px" x="104px" y="108px" /><rect fill="rgb(160,160,160)" height="5px" width="5px" x="108px" y="108px" /><rect fill="rgb(160,160,160)" height="5px" width="5px" x="112px" y="108px" /><rect fill="rgb(160,160,160)" height="5px" width="5px" x="116px" y="108px" /><rect fill="rgb(160,160,160)" height="5px" width="5px" x="120px" y="108px" /><rect fill="rgb(61,61,61)" height="5px" opacity="0.0823529411765" width="5px" x="88px" y="112px" /><rect fill="rgb(59,59,59)" height="5px" opacity="0.101960784314" width="5px" x="92px" y="112px" /><rect fill="rgb(57,57,57)" height="5px" opacity="0.105882352941" width="5px" x="96px" y="112px" /><rect fill="rgb(57,57,57)" height="5px" opacity="0.105882352941" width="5px" x="100px" y="112px" /></svg>