<?xml version="1.0" encoding="utf-8" ?>
<svg baseProfile="full" height="128px" version="1.1" width="128px" xmlns="http://www.w3.org/2000/svg" xmlns:ev="http://www.w3.org/2001/xml-events" xmlns:xlink="http://www.w3.org/1999/xlink"><defs /><rect fill="rgb(218,100,110)" height="5px" width="5px" x="24px" y="36px" /><rect fill="rgb(223,65,77)" height="5px" width="5px" x="28px" y="36px" /><rect fill="rgb(217,67,82)" height="5px" width="5px" x="32px" y="36px" /><rect fill="rgb(198,83,104)" height="5px" width="5px" x="36px" y="36px" /><rect fill="rgb(187,85,98)" height="5px" width="5px" x="20px" y="40px" /><rect fill="rgb(211,55,63)" height="5px" width="5px" x="24px" y="40px" /><rect fill="rgb(237,105,116)" height="5px" width="5px" x="28px" y="40px" /><rect fill="rgb(227,74,86)" height="5px" width="5px" x="32px" y="40px" /><rect fill="rgb(214,54,63)" height="5px" width="5px" x="36px" y="40px" /><rect fill="rgb(215,52,60)" height="5px" width="5px" x="40px" y="40px" /><rect fill="rgb(219,53,65)" height="5px" width="5px" x="44px" y="40px" /><rect fill="rgb(215,60,75)" height="5px" width="5px" x="48px" y="40px" /><rect fill="rgb(196,86,106)" height="5px" width="5px" x="52px" y="40px" /><rect fill="rgb(167,115,136)" height="5px" width="5px" x="56px" y="40px" /><rect fill="rgb(92,63,59)" height="5px" width="5px" x="100px" y="40px" /><rect fill="rgb(135,74,70)" height="5px" width="5px" x="104px" y="40px" /><rect fill="rgb(124,73,63)" height="5px" width="5px" x="108px" y="40px" /><rect fill="rgb(171,38,43)" height="5px" width="5px" x="20px" y="44px" /><rect fill="rgb(189,46,52)" height="5px" width="5px" x="24px" y="44px" /><rect fill="rgb(205,53,60)" height="5px" width="5px" x="28px" y="44px" /><rect fill="rgb(206,60,65)" height="5px" width="5px" x="32px" y="44px" /><rect fill="rgb(211,54,61)" height="5px" width="5px" x="36px" y="44px" /><rect fill="rgb(208,46,54)" height="5px" width="5px" x="40px" y="44px" /><rect fill="rgb(205,43,50)" height="5px" width="5px" x="44px" y="44px" /><rect fill="rgb(206,38,48)" height="5px" width="5px" x="48px" y="44px" /><rect fill="rgb(209,39,49)" height="5px" width="5px" x="52px" y="44px" /><rect fill="rgb(212,40,52)" height="5px" width="5px" x="56px" y="44px" /><rect fill="rgb(217,46,59)" height="5px" width="5px" x="60px" y="44px" /><rect fill="rgb(216,55,67)" height="5px" width="5px" x="64px" y="44px" /><rect fill="rgb(168,63,62)" height="5px" width="5px" x="68px" y="44px" /><rect fill="rgb(125,58,59)" height="5px" width="5px" x="72px" y="44px" /><rect fill="rgb(83,50,36)" height="5px" width="5px" x="92px" y="44px" /><rect fill="rgb(139,78,72)" height="5px" width="5px" x="96px" y="44px" /><rect fill="rgb(191,68,77)" height="5px" width="5px" x="100px" y="44px" /><rect fill="rgb(181,53,60)" height="5px" width="5px" x="104px" y="44px" /><rect fill="rgb(83,23,21)" height="5px" width="5px" x="108px" y="44px" /><rect fill="rgb(96,50,44)" height="5px" width="5px" x="112px" y="44px" /><rect fill="rgb(157,27,28)" height="5px" width="5px" x="20px" y="48px" /><rect fill="rgb(154,26,28)" height="5px" width="5px" x="24px" y="48px" /><rect fill="rgb(188,27,30)" height="5px" width="5px" x="28px" y="48px" /><rect fill="rgb(197,31,34)" height="5px" width="5px" x="32px" y="48px" /><rect fill="rgb(188,21,24)" height="5px" width="5px" x="36px" y="48px" /><rect fill="rgb(190,25,29)" height="5px" width="5px" x="40px" y="48px" /><rect fill="rgb(195,52,54)" height="5px" width="5px" x="44px" y="48px" /><rect fill="rgb(200,81,82)" height="5px" width="5px" x="48px" y="48px" /><rect fill="rgb(205,76,80)" height="5px" width="5px" x="52px" y="48px" /><rect fill="rgb(211,68,74)" height="5px" width="5px" x="56px" y="48px" /><rect fill="rgb(214,69,76)" height="5px" width="5px" x="60px" y="48px" /><rect fill="rgb(210,42,51)" height="5px" width="5px" x="64px" y="48px" /><rect fill="rgb(206,41,51)" height="5px" width="5px" x="68px" y="48px" /><rect fill="rgb(210,66,72)" height="5px" width="5px" x="72px" y="48px" /><rect fill="rgb(201,38,45)" height="5px" width="5px" x="76px" y="48px" /><rect fill="rgb(168,49,54)" height="5px" width="5px" x="80px" y="48px" /><rect fill="rgb(137,65,49)" height="5px" width="5px" x="84px" y="48px" /><rect fill="rgb(87,20,21)" height="5px" width="5px" x="96px" y="48px" /><rect fill="rgb(128,42,43)" height="5px" width="5px" x="100px" y="48px" /><rect fill="rgb(63,31,28)" height="5px" width="5px" x="104px" y="48px" /><rect fill="rgb(67,37,34)" height="5px" width="5px" x="108px" y="48px" /><rect fill="rgb(70,16,14)" height="5px" width="5px" x="112px" y="48px" /><rect fill="rgb(150,24,21)" height="5px" width="5px" x="20px" y="52px" /><rect fill="rgb(149,23,23)" height="5px" width="5px" x="24px" y="52px" /><rect fill="rgb(178,4,4)" height="5px" width="5px" x="28px" y="52px" /><rect fill="rgb(180,12,13)" height="5px" width="5px" x="32px" y="52px" /><rect fill="rgb(174,2,1)" height="5px" width="5px" x="36px" y="52px" /><rect fill="rgb(115,19,14)" height="5px" width="5px" x="40px" y="52px" /><rect fill="rgb(41,13,12)" height="5px" width="5px" x="44px" y="52px" /><rect fill="rgb(46,13,11)" height="5px" width="5px" x="48px" y="52px" /><rect fill="rgb(68,16,14)" height="5px" width="5px" x="52px" y="52px" /><rect fill="rgb(125,20,18)" height="5px" width="5px" x="56px" y="52px" /><rect fill="rgb(142,33,34)" height="5px" width="5px" x="60px" y="52px" /><rect fill="rgb(153,36,39)" height="5px" width="5px" x="64px" y="52px" /><rect fill="rgb(199,33,36)" height="5px" width="5px" x="68px" y="52px" /><rect fill="rgb(201,29,30)" height="5px" width="5px" x="72px" y="52px" /><rect fill="rgb(196,6,4)" height="5px" width="5px" x="76px" y="52px" /><rect fill="rgb(188,41,40)" height="5px" width="5px" x="80px" y="52px" /><rect fill="rgb(180,110,103)" height="5px" width="5px" x="84px" y="52px" /><rect fill="rgb(143,116,103)" height="5px" width="5px" x="88px" y="52px" /><rect fill="rgb(88,39,36)" height="5px" width="5px" x="92px" y="52px" /><rect fill="rgb(16,0,0)" height="5px" width="5px" x="96px" y="52px" /><rect fill="rgb(25,17,16)" height="5px" width="5px" x="100px" y="52px" /><rect fill="rgb(100,89,84)" height="5px" width="5px" x="104px" y="52px" /><rect fill="rgb(89,77,73)" height="5px" width="5px" x="108px" y="52px" /><rect fill="rgb(83,54,51)" height="5px" width="5px" x="112px" y="52px" /><rect fill="rgb(81,46,30)" height="5px" width="5px" x="116px" y="52px" /><rect fill="rgb(150,26,22)" height="5px" width="5px" x="20px" y="56px" /><rect fill="rgb(149,25,24)" height="5px" width="5px" x="24px" y="56px" /><rect fill="rgb(173,9,5)" height="5px" width="5px" x="28px" y="56px" /><rect fill="rgb(173,15,10)" height="5px" width="5px" x="32px" y="56px" /><rect fill="rgb(159,24,15)" height="5px" width="5px" x="36px" y="56px" /><rect fill="rgb(57,17,16)" height="5px" width="5px" x="40px" y="56px" /><rect fill="rgb(40,24,26)" height="5px" width="5px" x="44px" y="56px" /><rect fill="rgb(52,14,14)" height="5px" width="5px" x="48px" y="56px" /><rect fill="rgb(64,10,10)" height="5px" width="5px" x="52px" y="56px" /><rect fill="rgb(131,10,9)" height="5px" width="5px" x="56px" y="56px" /><rect fill="rgb(138,17,15)" height="5px" width="5px" x="60px" y="56px" /><rect fill="rgb(111,20,17)" height="5px" width="5px" x="64px" y="56px" /><rect fill="rgb(176,12,6)" height="5px" width="5px" x="68px" y="56px" /><rect fill="rgb(183,7,5)" height="5px" width="5px" x="72px" y="56px" /><rect fill="rgb(179,3,2)" height="5px" width="5px" x="76px" y="56px" /><rect fill="rgb(147,88,79)" height="5px" width="5px" x="80px" y="56px" /><rect fill="rgb(172,146,131)" height="5px" width="5px" x="84px" y="56px" /><rect fill="rgb(139,99,90)" height="5px" width="5px" x="88px" y="56px" /><rect fill="rgb(64,13,12)" height="5px" width="5px" x="92px" y="56px" /><rect fill="rgb(22,14,14)" height="5px" width="5px" x="96px" y="56px" /><rect fill="rgb(68,58,54)" height="5px" width="5px" x="100px" y="56px" /><rect fill="rgb(87,75,70)" height="5px" width="5px" x="104px" y="56px" /><rect fill="rgb(88,71,56)" height="5px" width="5px" x="108px" y="56px" /><rect fill="rgb(88,72,62)" height="5px" width="5px" x="112px" y="56px" /><rect fill="rgb(72,33,22)" height="5px" width="5px" x="116px" y="56px" /><rect fill="rgb(150,33,28)" height="5px" width="5px" x="20px" y="60px" /><rect fill="rgb(153,29,27)" height="5px" width="5px" x="24px" y="60px" /><rect fill="rgb(170,20,14)" height="5px" width="5px" x="28px" y="60px" /><rect fill="rgb(170,17,12)" height="5px" width="5px" x="32px" y="60px" /><rect fill="rgb(152,43,36)" height="5px" width="5px" x="36px" y="60px" /><rect fill="rgb(135,123,125)" height="5px" width="5px" x="40px" y="60px" /><rect fill="rgb(64,30,37)" height="5px" width="5px" x="44px" y="60px" /><rect fill="rgb(57,4,4)" height="5px" width="5px" x="48px" y="60px" /><rect fill="rgb(61,8,8)" height="5px" width="5px" x="52px" y="60px" /><rect fill="rgb(132,16,14)" height="5px" width="5px" x="56px" y="60px" /><rect fill="rgb(90,17,15)" height="5px" width="5px" x="60px" y="60px" /><rect fill="rgb(83,12,11)" height="5px" width="5px" x="64px" y="60px" /><rect fill="rgb(117,15,11)" height="5px" width="5px" x="68px" y="60px" /><rect fill="rgb(129,6,5)" height="5px" width="5px" x="72px" y="60px" /><rect fill="rgb(139,7,5)" height="5px" width="5px" x="76px" y="60px" /><rect fill="rgb(138,22,24)" height="5px" width="5px" x="80px" y="60px" /><rect fill="rgb(66,8,9)" height="5px" width="5px" x="84px" y="60px" /><rect fill="rgb(77,29,23)" height="5px" width="5px" x="88px" y="60px" /><rect fill="rgb(54,3,3)" height="5px" width="5px" x="92px" y="60px" /><rect fill="rgb(43,35,33)" height="5px" width="5px" x="96px" y="60px" /><rect fill="rgb(92,80,74)" height="5px" width="5px" x="100px" y="60px" /><rect fill="rgb(93,81,72)" height="5px" width="5px" x="104px" y="60px" /><rect fill="rgb(139,107,69)" height="5px" width="5px" x="108px" y="60px" /><rect fill="rgb(117,90,60)" height="5px" width="5px" x="112px" y="60px" /><rect fill="rgb(63,58,41)" height="5px" width="5px" x="116px" y="60px" /><rect fill="rgb(151,46,38)" height="5px" width="5px" x="20px" y="64px" /><rect fill="rgb(160,31,24)" height="5px" width="5px" x="24px" y="64px" /><rect fill="rgb(171,20,13)" height="5px" width="5px" x="28px" y="64px" /><rect fill="rgb(169,15,7)" height="5px" width="5px" x="32px" y="64px" /><rect fill="rgb(158,70,61)" height="5px" width="5px" x="36px" y="64px" /><rect fill="rgb(164,150,141)" height="5px" width="5px" x="40px" y="64px" /><rect fill="rgb(101,46,44)" height="5px" width="5px" x="44px" y="64px" /><rect fill="rgb(78,1,1)" height="5px" width="5px" x="48px" y="64px" /><rect fill="rgb(173,23,24)" height="5px" width="5px" x="52px" y="64px" /><rect fill="rgb(190,10,3)" height="5px" width="5px" x="56px" y="64px" /><rect fill="rgb(152,18,15)" height="5px" width="5px" x="60px" y="64px" /><rect fill="rgb(114,21,20)" height="5px" width="5px" x="64px" y="64px" /><rect fill="rgb(133,13,11)" height="5px" width="5px" x="68px" y="64px" /><rect fill="rgb(147,7,6)" height="5px" width="5px" x="72px" y="64px" /><rect fill="rgb(137,9,9)" height="5px" width="5px" x="76px" y="64px" /><rect fill="rgb(160,34,32)" height="5px" width="5px" x="80px" y="64px" /><rect fill="rgb(85,11,10)" height="5px" width="5px" x="84px" y="64px" /><rect fill="rgb(90,31,21)" height="5px" width="5px" x="88px" y="64px" /><rect fill="rgb(56,19,18)" height="5px" width="5px" x="92px" y="64px" /><rect fill="rgb(55,47,43)" height="5px" width="5px" x="96px" y="64px" /><rect fill="rgb(84,77,75)" height="5px" width="5px" x="100px" y="64px" /><rect fill="rgb(115,100,85)" height="5px" width="5px" x="104px" y="64px" /><rect fill="rgb(163,134,94)" height="5px" width="5px" x="108px" y="64px" /><rect fill="rgb(149,116,74)" height="5px" width="5px" x="112px" y="64px" /><rect fill="rgb(61,57,38)" height="5px" width="5px" x="116px" y="64px" /><rect fill="rgb(151,52,40)" height="5px" width="5px" x="20px" y="68px" /><rect fill="rgb(165,29,19)" height="5px" width="5px" x="24px" y="68px" /><rect fill="rgb(172,21,12)" height="5px" width="5px" x="28px" y="68px" /><rect fill="rgb(171,19,10)" height="5px" width="5px" x="32px" y="68px" /><rect fill="rgb(130,34,30)" height="5px" width="5px" x="36px" y="68px" /><rect fill="rgb(110,78,77)" height="5px" width="5px" x="40px" y="68px" /><rect fill="rgb(132,34,37)" height="5px" width="5px" x="44px" y="68px" /><rect fill="rgb(113,18,18)" height="5px" width="5px" x="48px" y="68px" /><rect fill="rgb(164,28,29)" height="5px" width="5px" x="52px" y="68px" /><rect fill="rgb(184,24,19)" height="5px" width="5px" x="56px" y="68px" /><rect fill="rgb(183,34,34)" height="5px" width="5px" x="60px" y="68px" /><rect fill="rgb(149,22,21)" height="5px" width="5px" x="64px" y="68px" /><rect fill="rgb(179,26,23)" height="5px" width="5px" x="68px" y="68px" /><rect fill="rgb(196,13,10)" height="5px" width="5px" x="72px" y="68px" /><rect fill="rgb(161,15,14)" height="5px" width="5px" x="76px" y="68px" /><rect fill="rgb(147,21,20)" height="5px" width="5px" x="80px" y="68px" /><rect fill="rgb(159,25,24)" height="5px" width="5px" x="84px" y="68px" /><rect fill="rgb(145,21,20)" height="5px" width="5px" x="88px" y="68px" /><rect fill="rgb(36,3,3)" height="5px" width="5px" x="92px" y="68px" /><rect fill="rgb(50,41,38)" height="5px" width="5px" x="96px" y="68px" /><rect fill="rgb(81,72,68)" height="5px" width="5px" x="100px" y="68px" /><rect fill="rgb(166,147,119)" height="5px" width="5px" x="104px" y="68px" /><rect fill="rgb(207,180,138)" height="5px" width="5px" x="108px" y="68px" /><rect fill="rgb(154,124,81)" height="5px" width="5px" x="112px" y="68px" /><rect fill="rgb(79,67,50)" height="5px" width="5px" x="116px" y="68px" /><rect fill="rgb(144,57,40)" height="5px" width="5px" x="20px" y="72px" /><rect fill="rgb(163,26,16)" height="5px" width="5px" x="24px" y="72px" /><rect fill="rgb(174,25,15)" height="5px" width="5px" x="28px" y="72px" /><rect fill="rgb(169,17,11)" height="5px" width="5px" x="32px" y="72px" /><rect fill="rgb(112,21,18)" height="5px" width="5px" x="36px" y="72px" /><rect fill="rgb(43,42,45)" height="5px" width="5px" x="40px" y="72px" /><rect fill="rgb(47,41,44)" height="5px" width="5px" x="44px" y="72px" /><rect fill="rgb(105,32,32)" height="5px" width="5px" x="48px" y="72px" /><rect fill="rgb(83,48,48)" height="5px" width="5px" x="52px" y="72px" /><rect fill="rgb(133,32,25)" height="5px" width="5px" x="56px" y="72px" /><rect fill="rgb(119,49,42)" height="5px" width="5px" x="60px" y="72px" /><rect fill="rgb(97,33,26)" height="5px" width="5px" x="64px" y="72px" /><rect fill="rgb(123,23,18)" height="5px" width="5px" x="68px" y="72px" /><rect fill="rgb(130,14,12)" height="5px" width="5px" x="72px" y="72px" /><rect fill="rgb(121,10,8)" height="5px" width="5px" x="76px" y="72px" /><rect fill="rgb(144,13,11)" height="5px" width="5px" x="80px" y="72px" /><rect fill="rgb(171,10,8)" height="5px" width="5px" x="84px" y="72px" /><rect fill="rgb(156,10,9)" height="5px" width="5px" x="88px" y="72px" /><rect fill="rgb(50,20,19)" height="5px" width="5px" x="92px" y="72px" /><rect fill="rgb(36,28,25)" height="5px" width="5px" x="96px" y="72px" /><rect fill="rgb(55,46,43)" height="5px" width="5px" x="100px" y="72px" /><rect fill="rgb(171,147,113)" height="5px" width="5px" x="104px" y="72px" /><rect fill="rgb(164,119,95)" height="5px" width="5px" x="108px" y="72px" /><rect fill="rgb(176,146,104)" height="5px" width="5px" x="112px" y="72px" /><rect fill="rgb(116,99,74)" height="5px" width="5px" x="116px" y="72px" /><rect fill="rgb(150,27,19)" height="5px" width="5px" x="24px" y="76px" /><rect fill="rgb(163,25,18)" height="5px" width="5px" x="28px" y="76px" /><rect fill="rgb(141,14,9)" height="5px" width="5px" x="32px" y="76px" /><rect fill="rgb(86,5,4)" height="5px" width="5px" x="36px" y="76px" /><rect fill="rgb(24,15,12)" height="5px" width="5px" x="40px" y="76px" /><rect fill="rgb(18,15,16)" height="5px" width="5px" x="44px" y="76px" /><rect fill="rgb(15,9,11)" height="5px" width="5px" x="48px" y="76px" /><rect fill="rgb(115,45,42)" height="5px" width="5px" x="52px" y="76px" /><rect fill="rgb(119,100,90)" height="5px" width="5px" x="56px" y="76px" /><rect fill="rgb(99,84,74)" height="5px" width="5px" x="60px" y="76px" /><rect fill="rgb(89,65,54)" height="5px" width="5px" x="64px" y="76px" /><rect fill="rgb(68,12,10)" height="5px" width="5px" x="68px" y="76px" /><rect fill="rgb(49,6,6)" height="5px" width="5px" x="72px" y="76px" /><rect fill="rgb(68,3,3)" height="5px" width="5px" x="76px" y="76px" /><rect fill="rgb(81,9,8)" height="5px" width="5px" x="80px" y="76px" /><rect fill="rgb(79,16,11)" height="5px" width="5px" x="84px" y="76px" /><rect fill="rgb(76,9,7)" height="5px" width="5px" x="88px" y="76px" /><rect fill="rgb(28,9,7)" height="5px" width="5px" x="92px" y="76px" /><rect fill="rgb(42,34,30)" height="5px" width="5px" x="96px" y="76px" /><rect fill="rgb(70,59,54)" height="5px" width="5px" x="100px" y="76px" /><rect fill="rgb(157,130,97)" height="5px" width="5px" x="104px" y="76px" /><rect fill="rgb(184,125,104)" height="5px" width="5px" x="108px" y="76px" /><rect fill="rgb(213,181,133)" height="5px" width="5px" x="112px" y="76px" /><rect fill="rgb(130,111,92)" height="5px" width="5px" x="116px" y="76px" /><rect fill="rgb(89,15,14)" height="5px" width="5px" x="24px" y="80px" /><rect fill="rgb(84,13,10)" height="5px" width="5px" x="28px" y="80px" /><rect fill="rgb(94,13,10)" height="5px" width="5px" x="32px" y="80px" /><rect fill="rgb(88,9,7)" height="5px" width="5px" x="36px" y="80px" /><rect fill="rgb(38,5,4)" height="5px" width="5px" x="40px" y="80px" /><rect fill="rgb(29,4,3)" height="5px" width="5px" x="44px" y="80px" /><rect fill="rgb(35,10,7)" height="5px" width="5px" x="48px" y="80px" /><rect fill="rgb(98,78,69)" height="5px" width="5px" x="52px" y="80px" /><rect fill="rgb(114,97,86)" height="5px" width="5px" x="56px" y="80px" /><rect fill="rgb(78,63,52)" height="5px" width="5px" x="60px" y="80px" /><rect fill="rgb(69,52,41)" height="5px" width="5px" x="64px" y="80px" /><rect fill="rgb(69,25,20)" height="5px" width="5px" x="68px" y="80px" /><rect fill="rgb(51,12,12)" height="5px" width="5px" x="72px" y="80px" /><rect fill="rgb(84,9,8)" height="5px" width="5px" x="76px" y="80px" /><rect fill="rgb(64,3,3)" height="5px" width="5px" x="80px" y="80px" /><rect fill="rgb(65,33,27)" height="5px" width="5px" x="84px" y="80px" /><rect fill="rgb(69,33,28)" height="5px" width="5px" x="88px" y="80px" /><rect fill="rgb(35,18,15)" height="5px" width="5px" x="92px" y="80px" /><rect fill="rgb(36,27,23)" height="5px" width="5px" x="96px" y="80px" /><rect fill="rgb(46,35,29)" height="5px" width="5px" x="100px" y="80px" /><rect fill="rgb(136,110,79)" height="5px" width="5px" x="104px" y="80px" /><rect fill="rgb(197,169,129)" height="5px" width="5px" x="108px" y="80px" /><rect fill="rgb(244,209,156)" height="5px" width="5px" x="112px" y="80px" /><rect fill="rgb(145,124,104)" height="5px" width="5px" x="116px" y="80px" /><rect fill="rgb(86,11,9)" height="5px" width="5px" x="24px" y="84px" /><rect fill="rgb(85,12,8)" height="5px" width="5px" x="28px" y="84px" /><rect fill="rgb(105,16,10)" height="5px" width="5px" x="32px" y="84px" /><rect fill="rgb(70,12,10)" height="5px" width="5px" x="36px" y="84px" /><rect fill="rgb(55,3,3)" height="5px" width="5px" x="40px" y="84px" /><rect fill="rgb(41,3,3)" height="5px" width="5px" x="44px" y="84px" /><rect fill="rgb(105,69,57)" height="5px" width="5px" x="48px" y="84px" /><rect fill="rgb(118,101,88)" height="5px" width="5px" x="52px" y="84px" /><rect fill="rgb(98,82,71)" height="5px" width="5px" x="56px" y="84px" /><rect fill="rgb(112,91,67)" height="5px" width="5px" x="60px" y="84px" /><rect fill="rgb(117,88,55)" height="5px" width="5px" x="64px" y="84px" /><rect fill="rgb(67,33,27)" height="5px" width="5px" x="68px" y="84px" /><rect fill="rgb(36,10,10)" height="5px" width="5px" x="72px" y="84px" /><rect fill="rgb(60,30,29)" height="5px" width="5px" x="76px" y="84px" /><rect fill="rgb(40,28,26)" height="5px" width="5px" x="80px" y="84px" /><rect fill="rgb(22,16,12)" height="5px" width="5px" x="96px" y="84px" /><rect fill="rgb(47,38,33)" height="5px" width="5px" x="100px" y="84px" /><rect fill="rgb(108,88,64)" height="5px" width="5px" x="104px" y="84px" /><rect fill="rgb(196,167,119)" height="5px" width="5px" x="108px" y="84px" /><rect fill="rgb(236,211,164)" height="5px" width="5px" x="112px" y="84px" /><rect fill="rgb(138,112,94)" height="5px" width="5px" x="116px" y="84px" /><rect fill="rgb(69,10,6)" height="5px" width="5px" x="24px" y="88px" /><rect fill="rgb(64,6,6)" height="5px" width="5px" x="28px" y="88px" /><rect fill="rgb(77,9,7)" height="5px" width="5px" x="32px" y="88px" /><rect fill="rgb(74,12,11)" height="5px" width="5px" x="36px" y="88px" /><rect fill="rgb(76,16,17)" height="5px" width="5px" x="40px" y="88px" /><rect fill="rgb(105,13,10)" height="5px" width="5px" x="44px" y="88px" /><rect fill="rgb(150,55,45)" height="5px" width="5px" x="48px" y="88px" /><rect fill="rgb(106,92,81)" height="5px" width="5px" x="52px" y="88px" /><rect fill="rgb(94,77,62)" height="5px" width="5px" x="56px" y="88px" /><rect fill="rgb(212,188,149)" height="5px" width="5px" x="60px" y="88px" /><rect fill="rgb(166,134,94)" height="5px" width="5px" x="64px" y="88px" /><rect fill="rgb(68,40,32)" height="5px" width="5px" x="68px" y="88px" /><rect fill="rgb(27,7,6)" height="5px" width="5px" x="72px" y="88px" /><rect fill="rgb(2,4,4)" height="5px" width="5px" x="76px" y="88px" /><rect fill="rgb(11,11,11)" height="5px" width="5px" x="80px" y="88px" /><rect fill="rgb(24,16,12)" height="5px" width="5px" x="96px" y="88px" /><rect fill="rgb(39,27,21)" height="5px" width="5px" x="100px" y="88px" /><rect fill="rgb(77,62,49)" height="5px" width="5px" x="104px" y="88px" /><rect fill="rgb(216,191,145)" height="5px" width="5px" x="108px" y="88px" /><rect fill="rgb(180,160,126)" height="5px" width="5px" x="112px" y="88px" /><rect fill="rgb(163,138,115)" height="5px" width="5px" x="116px" y="88px" /><rect fill="rgb(18,12,8)" height="5px" width="5px" x="20px" y="92px" /><rect fill="rgb(50,20,10)" height="5px" width="5px" x="24px" y="92px" /><rect fill="rgb(57,22,17)" height="5px" width="5px" x="28px" y="92px" /><rect fill="rgb(72,54,40)" height="5px" width="5px" x="32px" y="92px" /><rect fill="rgb(75,55,45)" height="5px" width="5px" x="36px" y="92px" /><rect fill="rgb(175,106,84)" height="5px" width="5px" x="44px" y="92px" /><rect fill="rgb(137,82,69)" height="5px" width="5px" x="48px" y="92px" /><rect fill="rgb(94,80,70)" height="5px" width="5px" x="52px" y="92px" /><rect fill="rgb(119,101,81)" height="5px" width="5px" x="56px" y="92px" /><rect fill="rgb(204,172,136)" height="5px" width="5px" x="60px" y="92px" /><rect fill="rgb(160,128,94)" height="5px" width="5px" x="64px" y="92px" /><rect fill="rgb(85,66,51)" height="5px" width="5px" x="68px" y="92px" /><rect fill="rgb(28,20,18)" height="5px" width="5px" x="72px" y="92px" /><rect fill="rgb(6,6,5)" height="5px" width="5px" x="76px" y="92px" /><rect fill="rgb(29,21,17)" height="5px" width="5px" x="96px" y="92px" /><rect fill="rgb(22,14,9)" height="5px" width="5px" x="100px" y="92px" /><rect fill="rgb(61,49,40)" height="5px" width="5px" x="104px" y="92px" /><rect fill="rgb(112,94,75)" height="5px" width="5px" x="108px" y="92px" /><rect fill="rgb(91,77,66)" height="5px" width="5px" x="112px" y="92px" /><rect fill="rgb(20,14,10)" height="5px" width="5px" x="20px" y="96px" /><rect fill="rgb(50,37,25)" height="5px" width="5px" x="24px" y="96px" /><rect fill="rgb(84,70,57)" height="5px" width="5px" x="28px" y="96px" /><rect fill="rgb(52,42,34)" height="5px" width="5px" x="32px" y="96px" /><rect fill="rgb(133,111,92)" height="5px" width="5px" x="48px" y="96px" /><rect fill="rgb(85,71,59)" height="5px" width="5px" x="52px" y="96px" /><rect fill="rgb(142,118,89)" height="5px" width="5px" x="56px" y="96px" /><rect fill="rgb(205,125,95)" height="5px" width="5px" x="60px" y="96px" /><rect fill="rgb(198,96,74)" height="5px" width="5px" x="64px" y="96px" /><rect fill="rgb(100,82,66)" height="5px" width="5px" x="68px" y="96px" /><rect fill="rgb(20,13,8)" height="5px" width="5px" x="100px" y="96px" /><rect fill="rgb(33,23,15)" height="5px" width="5px" x="104px" y="96px" /><rect fill="rgb(62,48,36)" height="5px" width="5px" x="108px" y="96px" /><rect fill="rgb(92,73,56)" height="5px" width="5px" x="112px" y="96px" /><rect fill="rgb(20,14,10)" height="5px" width="5px" x="20px" y="100px" /><rect fill="rgb(21,14,10)" height="5px" width="5px" x="24px" y="100px" /><rect fill="rgb(45,37,31)" height="5px" width="5px" x="28px" y="100px" /><rect fill="rgb(16,10,9)" height="5px" width="5px" x="32px" y="100px" /><rect fill="rgb(76,61,50)" height="5px" width="5px" x="52px" y="100px" /><rect fill="rgb(130,106,79)" height="5px" width="5px" x="56px" y="100px" /><rect fill="rgb(157,118,87)" height="5px" width="5px" x="60px" y="100px" /><rect fill="rgb(188,148,112)" height="5px" width="5px" x="64px" y="100px" /><rect fill="rgb(122,99,79)" height="5px" width="5px" x="68px" y="100px" /><rect fill="rgb(9,5,4)" height="5px" width="5px" x="24px" y="104px" /><rect fill="rgb(9,6,4)" height="5px" width="5px" x="28px" y="104px" /><rect fill="rgb(36,29,26)" height="5px" width="5px" x="32px" y="104px" /><rect fill="rgb(69,54,43)" height="5px" width="5px" x="52px" y="104px" /><rect fill="rgb(107,84,60)" height="5px" width="5px" x="56px" y="104px" /><rect fill="rgb(163,134,96)" height="5px" width="5px" x="60px" y="104px" /><rect fill="rgb(182,161,126)" height="5px" width="5px" x="64px" y="104px" /><rect fill="rgb(136,107,84)" height="5px" width="5px" x="68px" y="104px" /><rect fill="rgb(61,45,35)" height="5px" width="5px" x="52px" y="108px" /><rect fill="rgb(90,70,51)" height="5px" width="5px" x="56px" y="108px" /><rect fill="rgb(135,111,78)" height="5px" width="5px" x="60px" y="108px" /><rect fill="rgb(136,114,92)" height="5px" width="5px" x="64px" y="108px" /><rect fill="rgb(158,122,93)" height="5px" width="5px" x="68px" y="108px" /><rect fill="rgb(47,34,25)" height="5px" width="5px" x="52px" y="112px" /><rect fill="rgb(67,51,39)" height="5px" width="5px" x="56px" y="112px" /><rect fill="rgb(139,119,94)" height="5px" width="5px" x="60px" y="112px" /><rect fill="rgb(88,74,61)" height="5px" width="5px" x="64px" y="112px" /><rect fill="rgb(39,26,19)" height="5px" width="5px" x="52px" y="116px" /><rect fill="rgb(56,39,28)" height="5px" width="5px" x="56px" y="116px" /><rect fill="rgb(67,51,40)" height="5px" width="5px" x="60px" y="116px" /><rect fill="rgb(97,74,55)" height="5px" width="5px" x="64px" y="116px" /><rect fill="rgb(38,26,18)" height="5px" width="5px" x="56px" y="120px" /></svg>