<?xml version="1.0" encoding="utf-8" ?>
<svg baseProfile="full" height="128px" version="1.1" width="128px" xmlns="http://www.w3.org/2000/svg" xmlns:ev="http://www.w3.org/2001/xml-events" xmlns:xlink="http://www.w3.org/1999/xlink"><defs /><rect fill="rgb(54,34,30)" height="5px" width="5px" x="108px" y="0px" /><rect fill="rgb(54,34,30)" height="5px" width="5px" x="112px" y="0px" /><rect fill="rgb(54,34,30)" height="5px" width="5px" x="116px" y="0px" /><rect fill="rgb(54,34,30)" height="5px" width="5px" x="104px" y="4px" /><rect fill="rgb(54,34,30)" height="5px" width="5px" x="108px" y="4px" /><rect fill="rgb(54,34,30)" height="5px" width="5px" x="96px" y="16px" /><rect fill="rgb(54,34,30)" height="5px" width="5px" x="96px" y="20px" /><rect fill="rgb(54,34,30)" height="5px" width="5px" x="96px" y="24px" /><rect fill="rgb(54,34,30)" height="5px" width="5px" x="100px" y="24px" /><rect fill="rgb(54,34,30)" height="5px" width="5px" x="100px" y="28px" /><rect fill="rgb(54,34,30)" height="5px" width="5px" x="108px" y="36px" /><rect fill="rgb(54,34,30)" height="5px" width="5px" x="108px" y="40px" /><rect fill="rgb(54,34,30)" height="5px" width="5px" x="112px" y="40px" /><rect fill="rgb(54,34,30)" height="5px" width="5px" x="116px" y="40px" /><rect fill="rgb(29,48,161)" height="5px" width="5px" x="88px" y="44px" /><rect fill="rgb(29,48,161)" height="5px" width="5px" x="92px" y="44px" /><rect fill="rgb(29,48,161)" height="5px" width="5px" x="96px" y="44px" /><rect fill="rgb(54,34,30)" height="5px" width="5px" x="116px" y="44px" /><rect fill="rgb(29,48,161)" height="5px" width="5px" x="84px" y="48px" /><rect fill="rgb(29,48,161)" height="5px" width="5px" x="88px" y="48px" /><rect fill="rgb(29,48,161)" height="5px" width="5px" x="92px" y="48px" /><rect fill="rgb(29,48,161)" height="5px" width="5px" x="96px" y="48px" /><rect fill="rgb(29,48,161)" height="5px" width="5px" x="100px" y="48px" /><rect fill="rgb(54,34,30)" height="5px" width="5px" x="116px" y="48px" /><rect fill="rgb(54,34,30)" height="5px" width="5px" x="44px" y="52px" /><rect fill="rgb(29,48,161)" height="5px" width="5px" x="84px" y="52px" /><rect fill="rgb(29,48,161)" height="5px" width="5px" x="88px" y="52px" /><rect fill="rgb(29,48,161)" height="5px" width="5px" x="92px" y="52px" /><rect fill="rgb(29,48,161)" height="5px" width="5px" x="96px" y="52px" /><rect fill="rgb(29,48,161)" height="5px" width="5px" x="100px" y="52px" /><rect fill="rgb(54,34,30)" height="5px" width="5px" x="116px" y="52px" /><rect fill="rgb(54,34,30)" height="5px" width="5px" x="24px" y="56px" /><rect fill="rgb(54,34,30)" height="5px" width="5px" x="44px" y="56px" /><rect fill="rgb(54,34,30)" height="5px" width="5px" x="48px" y="56px" /><rect fill="rgb(29,48,161)" height="5px" width="5px" x="84px" y="56px" /><rect fill="rgb(29,48,161)" height="5px" width="5px" x="88px" y="56px" /><rect fill="rgb(29,48,161)" height="5px" width="5px" x="92px" y="56px" /><rect fill="rgb(29,48,161)" height="5px" width="5px" x="96px" y="56px" /><rect fill="rgb(29,48,161)" height="5px" width="5px" x="100px" y="56px" /><rect fill="rgb(54,34,30)" height="5px" width="5px" x="12px" y="60px" /><rect fill="rgb(54,34,30)" height="5px" width="5px" x="16px" y="60px" /><rect fill="rgb(54,34,30)" height="5px" width="5px" x="20px" y="60px" /><rect fill="rgb(54,34,30)" height="5px" width="5px" x="48px" y="60px" /><rect fill="rgb(54,34,30)" height="5px" width="5px" x="52px" y="60px" /><rect fill="rgb(29,48,161)" height="5px" width="5px" x="84px" y="60px" /><rect fill="rgb(29,48,161)" height="5px" width="5px" x="88px" y="60px" /><rect fill="rgb(29,48,161)" height="5px" width="5px" x="92px" y="60px" /><rect fill="rgb(29,48,161)" height="5px" width="5px" x="96px" y="60px" /><rect fill="rgb(29,48,161)" height="5px" width="5px" x="100px" y="60px" /><rect fill="rgb(54,34,30)" height="5px" width="5px" x="8px" y="64px" /><rect fill="rgb(54,34,30)" height="5px" width="5px" x="12px" y="64px" /><rect fill="rgb(54,34,30)" height="5px" width="5px" x="52px" y="64px" /><rect fill="rgb(54,34,30)" height="5px" width="5px" x="56px" y="64px" /><rect fill="rgb(54,34,30)" height="5px" width="5px" x="60px" y="64px" /><rect fill="rgb(29,48,161)" height="5px" width="5px" x="88px" y="64px" /><rect fill="rgb(29,48,161)" height="5px" width="5px" x="92px" y="64px" /><rect fill="rgb(29,48,161)" height="5px" width="5px" x="96px" y="64px" /><rect fill="rgb(54,34,30)" height="5px" width="5px" x="8px" y="68px" /><rect fill="rgb(107,40,26)" height="5px" opacity="0.0745098039216" width="5px" x="24px" y="68px" /><rect fill="rgb(158,75,75)" height="5px" width="5px" x="28px" y="68px" /><rect fill="rgb(158,75,75)" height="5px" width="5px" x="32px" y="68px" /><rect fill="rgb(158,75,75)" height="5px" width="5px" x="36px" y="68px" /><rect fill="rgb(127,0,0)" height="5px" opacity="0.0078431372549" width="5px" x="40px" y="68px" /><rect fill="rgb(54,34,30)" height="5px" width="5px" x="76px" y="68px" /><rect fill="rgb(54,34,30)" height="5px" width="5px" x="112px" y="68px" /><rect fill="rgb(54,34,30)" height="5px" width="5px" x="116px" y="68px" /><rect fill="rgb(158,75,75)" height="5px" width="5px" x="24px" y="72px" /><rect fill="rgb(158,75,75)" height="5px" width="5px" x="28px" y="72px" /><rect fill="rgb(158,75,75)" height="5px" width="5px" x="32px" y="72px" /><rect fill="rgb(158,75,75)" height="5px" width="5px" x="36px" y="72px" /><rect fill="rgb(158,75,75)" height="5px" width="5px" x="40px" y="72px" /><rect fill="rgb(54,34,30)" height="5px" width="5px" x="76px" y="72px" /><rect fill="rgb(54,34,30)" height="5px" width="5px" x="80px" y="72px" /><rect fill="rgb(54,34,30)" height="5px" width="5px" x="104px" y="72px" /><rect fill="rgb(54,34,30)" height="5px" width="5px" x="108px" y="72px" /><rect fill="rgb(54,34,30)" height="5px" width="5px" x="112px" y="72px" /><rect fill="rgb(115,46,23)" height="5px" opacity="0.043137254902" width="5px" x="20px" y="76px" /><rect fill="rgb(158,75,75)" height="5px" width="5px" x="24px" y="76px" /><rect fill="rgb(158,75,75)" height="5px" width="5px" x="28px" y="76px" /><rect fill="rgb(158,75,75)" height="5px" width="5px" x="32px" y="76px" /><rect fill="rgb(158,75,75)" height="5px" width="5px" x="36px" y="76px" /><rect fill="rgb(158,75,75)" height="5px" width="5px" x="40px" y="76px" /><rect fill="rgb(54,34,30)" height="5px" width="5px" x="80px" y="76px" /><rect fill="rgb(54,34,30)" height="5px" width="5px" x="84px" y="76px" /><rect fill="rgb(54,34,30)" height="5px" width="5px" x="100px" y="76px" /><rect fill="rgb(54,34,30)" height="5px" width="5px" x="104px" y="76px" /><rect fill="rgb(113,28,28)" height="5px" opacity="0.0352941176471" width="5px" x="20px" y="80px" /><rect fill="rgb(158,75,75)" height="5px" width="5px" x="24px" y="80px" /><rect fill="rgb(158,75,75)" height="5px" width="5px" x="28px" y="80px" /><rect fill="rgb(158,75,75)" height="5px" width="5px" x="32px" y="80px" /><rect fill="rgb(158,75,75)" height="5px" width="5px" x="36px" y="80px" /><rect fill="rgb(158,75,75)" height="5px" width="5px" x="40px" y="80px" /><rect fill="rgb(54,34,30)" height="5px" width="5px" x="84px" y="80px" /><rect fill="rgb(54,34,30)" height="5px" width="5px" x="88px" y="80px" /><rect fill="rgb(54,34,30)" height="5px" width="5px" x="100px" y="80px" /><rect fill="rgb(54,34,30)" height="5px" width="5px" x="8px" y="84px" /><rect fill="rgb(158,75,75)" height="5px" width="5px" x="24px" y="84px" /><rect fill="rgb(158,75,75)" height="5px" width="5px" x="28px" y="84px" /><rect fill="rgb(158,75,75)" height="5px" width="5px" x="32px" y="84px" /><rect fill="rgb(158,75,75)" height="5px" width="5px" x="36px" y="84px" /><rect fill="rgb(158,75,75)" height="5px" width="5px" x="40px" y="84px" /><rect fill="rgb(54,34,30)" height="5px" width="5px" x="8px" y="88px" /><rect fill="rgb(54,34,30)" height="5px" width="5px" x="12px" y="88px" /><rect fill="rgb(115,46,23)" height="5px" opacity="0.043137254902" width="5px" x="24px" y="88px" /><rect fill="rgb(158,75,75)" height="5px" width="5px" x="28px" y="88px" /><rect fill="rgb(158,75,75)" height="5px" width="5px" x="32px" y="88px" /><rect fill="rgb(158,75,75)" height="5px" width="5px" x="36px" y="88px" /><rect fill="rgb(54,34,30)" height="5px" width="5px" x="12px" y="92px" /><rect fill="rgb(54,34,30)" height="5px" width="5px" x="12px" y="96px" /><rect fill="rgb(54,34,30)" height="5px" width="5px" x="16px" y="96px" /><rect fill="rgb(54,34,30)" height="5px" width="5px" x="16px" y="100px" /><rect fill="rgb(54,34,30)" height="5px" width="5px" x="20px" y="100px" /><rect fill="rgb(54,34,30)" height="5px" width="5px" x="36px" y="108px" /><rect fill="rgb(54,34,30)" height="5px" width="5px" x="36px" y="112px" /><rect fill="rgb(54,34,30)" height="5px" width="5px" x="40px" y="112px" /><rect fill="rgb(54,34,30)" height="5px" width="5px" x="40px" y="116px" /><rect fill="rgb(54,34,30)" height="5px" width="5px" x="40px" y="120px" /><rect fill="rgb(54,34,30)" height="5px" width="5px" x="44px" y="120px" /><rect fill="rgb(54,34,30)" height="5px" width="5px" x="44px" y="124px" /></svg>