<?xml version="1.0" encoding="utf-8" ?>
<svg baseProfile="full" height="128px" version="1.1" width="128px" xmlns="http://www.w3.org/2000/svg" xmlns:ev="http://www.w3.org/2001/xml-events" xmlns:xlink="http://www.w3.org/1999/xlink"><defs /><rect fill="rgb(255,0,0)" height="5px" width="5px" x="80px" y="8px" /><rect fill="rgb(255,0,0)" height="5px" width="5px" x="80px" y="12px" /><rect fill="rgb(255,0,0)" height="5px" width="5px" x="84px" y="12px" /><rect fill="rgb(255,0,0)" height="5px" width="5px" x="80px" y="16px" /><rect fill="rgb(255,0,0)" height="5px" width="5px" x="84px" y="16px" /><rect fill="rgb(255,0,0)" height="5px" width="5px" x="88px" y="16px" /><rect fill="rgb(255,0,0)" height="5px" width="5px" x="80px" y="20px" /><rect fill="rgb(255,0,0)" height="5px" width="5px" x="84px" y="20px" /><rect fill="rgb(255,0,0)" height="5px" width="5px" x="88px" y="20px" /><rect fill="rgb(255,0,0)" height="5px" width="5px" x="92px" y="20px" /><rect fill="rgb(255,0,0)" height="5px" width="5px" x="80px" y="24px" /><rect fill="rgb(255,0,0)" height="5px" width="5px" x="84px" y="24px" /><rect fill="rgb(255,0,0)" height="5px" width="5px" x="88px" y="24px" /><rect fill="rgb(255,0,0)" height="5px" width="5px" x="92px" y="24px" /><rect fill="rgb(255,0,0)" height="5px" width="5px" x="96px" y="24px" /><rect fill="rgb(255,0,0)" height="5px" width="5px" x="80px" y="28px" /><rect fill="rgb(255,0,0)" height="5px" width="5px" x="84px" y="28px" /><rect fill="rgb(255,0,0)" height="5px" width="5px" x="88px" y="28px" /><rect fill="rgb(255,0,0)" height="5px" width="5px" x="92px" y="28px" /><rect fill="rgb(255,0,0)" height="5px" width="5px" x="96px" y="28px" /><rect fill="rgb(255,0,0)" height="5px" width="5px" x="100px" y="28px" /><rect fill="rgb(255,0,0)" height="5px" width="5px" x="8px" y="32px" /><rect fill="rgb(255,0,0)" height="5px" width="5px" x="12px" y="32px" /><rect fill="rgb(255,0,0)" height="5px" width="5px" x="16px" y="32px" /><rect fill="rgb(255,0,0)" height="5px" width="5px" x="20px" y="32px" /><rect fill="rgb(255,0,0)" height="5px" width="5px" x="24px" y="32px" /><rect fill="rgb(255,0,0)" height="5px" width="5px" x="28px" y="32px" /><rect fill="rgb(255,0,0)" height="5px" width="5px" x="32px" y="32px" /><rect fill="rgb(255,0,0)" height="5px" width="5px" x="36px" y="32px" /><rect fill="rgb(255,0,0)" height="5px" width="5px" x="40px" y="32px" /><rect fill="rgb(255,0,0)" height="5px" width="5px" x="44px" y="32px" /><rect fill="rgb(255,0,0)" height="5px" width="5px" x="48px" y="32px" /><rect fill="rgb(255,0,0)" height="5px" width="5px" x="52px" y="32px" /><rect fill="rgb(255,0,0)" height="5px" width="5px" x="56px" y="32px" /><rect fill="rgb(255,0,0)" height="5px" width="5px" x="60px" y="32px" /><rect fill="rgb(255,0,0)" height="5px" width="5px" x="64px" y="32px" /><rect fill="rgb(255,0,0)" height="5px" width="5px" x="68px" y="32px" /><rect fill="rgb(255,0,0)" height="5px" width="5px" x="72px" y="32px" /><rect fill="rgb(255,0,0)" height="5px" width="5px" x="76px" y="32px" /><rect fill="rgb(255,0,0)" height="5px" width="5px" x="80px" y="32px" /><rect fill="rgb(255,0,0)" height="5px" width="5px" x="84px" y="32px" /><rect fill="rgb(255,0,0)" height="5px" width="5px" x="88px" y="32px" /><rect fill="rgb(255,0,0)" height="5px" width="5px" x="92px" y="32px" /><rect fill="rgb(255,0,0)" height="5px" width="5px" x="96px" y="32px" /><rect fill="rgb(255,0,0)" height="5px" width="5px" x="100px" y="32px" /><rect fill="rgb(255,0,0)" height="5px" width="5px" x="104px" y="32px" /><rect fill="rgb(255,0,0)" height="5px" width="5px" x="8px" y="36px" /><rect fill="rgb(255,0,0)" height="5px" width="5px" x="12px" y="36px" /><rect fill="rgb(255,0,0)" height="5px" width="5px" x="16px" y="36px" /><rect fill="rgb(255,0,0)" height="5px" width="5px" x="20px" y="36px" /><rect fill="rgb(255,0,0)" height="5px" width="5px" x="24px" y="36px" /><rect fill="rgb(255,0,0)" height="5px" width="5px" x="28px" y="36px" /><rect fill="rgb(255,0,0)" height="5px" width="5px" x="32px" y="36px" /><rect fill="rgb(255,0,0)" height="5px" width="5px" x="36px" y="36px" /><rect fill="rgb(255,0,0)" height="5px" width="5px" x="40px" y="36px" /><rect fill="rgb(255,0,0)" height="5px" width="5px" x="44px" y="36px" /><rect fill="rgb(255,0,0)" height="5px" width="5px" x="48px" y="36px" /><rect fill="rgb(255,0,0)" height="5px" width="5px" x="52px" y="36px" /><rect fill="rgb(255,0,0)" height="5px" width="5px" x="56px" y="36px" /><rect fill="rgb(255,0,0)" height="5px" width="5px" x="60px" y="36px" /><rect fill="rgb(255,0,0)" height="5px" width="5px" x="64px" y="36px" /><rect fill="rgb(255,0,0)" height="5px" width="5px" x="68px" y="36px" /><rect fill="rgb(255,0,0)" height="5px" width="5px" x="72px" y="36px" /><rect fill="rgb(255,0,0)" height="5px" width="5px" x="76px" y="36px" /><rect fill="rgb(255,0,0)" height="5px" width="5px" x="80px" y="36px" /><rect fill="rgb(255,0,0)" height="5px" width="5px" x="84px" y="36px" /><rect fill="rgb(255,0,0)" height="5px" width="5px" x="88px" y="36px" /><rect fill="rgb(255,0,0)" height="5px" width="5px" x="92px" y="36px" /><rect fill="rgb(255,0,0)" height="5px" width="5px" x="96px" y="36px" /><rect fill="rgb(255,0,0)" height="5px" width="5px" x="100px" y="36px" /><rect fill="rgb(255,0,0)" height="5px" width="5px" x="104px" y="36px" /><rect fill="rgb(255,0,0)" height="5px" width="5px" x="108px" y="36px" /><rect fill="rgb(255,0,0)" height="5px" width="5px" x="8px" y="40px" /><rect fill="rgb(255,0,0)" height="5px" width="5px" x="12px" y="40px" /><rect fill="rgb(255,0,0)" height="5px" width="5px" x="16px" y="40px" /><rect fill="rgb(255,0,0)" height="5px" width="5px" x="20px" y="40px" /><rect fill="rgb(255,0,0)" height="5px" width="5px" x="24px" y="40px" /><rect fill="rgb(255,0,0)" height="5px" width="5px" x="28px" y="40px" /><rect fill="rgb(255,0,0)" height="5px" width="5px" x="32px" y="40px" /><rect fill="rgb(255,0,0)" height="5px" width="5px" x="36px" y="40px" /><rect fill="rgb(255,0,0)" height="5px" width="5px" x="40px" y="40px" /><rect fill="rgb(255,0,0)" height="5px" width="5px" x="44px" y="40px" /><rect fill="rgb(255,0,0)" height="5px" width="5px" x="48px" y="40px" /><rect fill="rgb(255,0,0)" height="5px" width="5px" x="52px" y="40px" /><rect fill="rgb(255,0,0)" height="5px" width="5px" x="56px" y="40px" /><rect fill="rgb(255,0,0)" height="5px" width="5px" x="60px" y="40px" /><rect fill="rgb(255,0,0)" height="5px" width="5px" x="64px" y="40px" /><rect fill="rgb(255,0,0)" height="5px" width="5px" x="68px" y="40px" /><rect fill="rgb(255,0,0)" height="5px" width="5px" x="72px" y="40px" /><rect fill="rgb(255,0,0)" height="5px" width="5px" x="76px" y="40px" /><rect fill="rgb(255,0,0)" height="5px" width="5px" x="80px" y="40px" /><rect fill="rgb(255,0,0)" height="5px" width="5px" x="84px" y="40px" /><rect fill="rgb(255,0,0)" height="5px" width="5px" x="88px" y="40px" /><rect fill="rgb(255,0,0)" height="5px" width="5px" x="92px" y="40px" /><rect fill="rgb(255,0,0)" height="5px" width="5px" x="96px" y="40px" /><rect fill="rgb(255,0,0)" height="5px" width="5px" x="100px" y="40px" /><rect fill="rgb(255,0,0)" height="5px" width="5px" x="104px" y="40px" /><rect fill="rgb(255,0,0)" height="5px" width="5px" x="108px" y="40px" /><rect fill="rgb(255,0,0)" height="5px" width="5px" x="112px" y="40px" /><rect fill="rgb(255,0,0)" height="5px" width="5px" x="8px" y="44px" /><rect fill="rgb(255,0,0)" height="5px" width="5px" x="12px" y="44px" /><rect fill="rgb(255,0,0)" height="5px" width="5px" x="16px" y="44px" /><rect fill="rgb(255,0,0)" height="5px" width="5px" x="20px" y="44px" /><rect fill="rgb(255,0,0)" height="5px" width="5px" x="24px" y="44px" /><rect fill="rgb(255,0,0)" height="5px" width="5px" x="28px" y="44px" /><rect fill="rgb(255,0,0)" height="5px" width="5px" x="32px" y="44px" /><rect fill="rgb(255,0,0)" height="5px" width="5px" x="36px" y="44px" /><rect fill="rgb(255,0,0)" height="5px" width="5px" x="40px" y="44px" /><rect fill="rgb(255,0,0)" height="5px" width="5px" x="44px" y="44px" /><rect fill="rgb(255,0,0)" height="5px" width="5px" x="48px" y="44px" /><rect fill="rgb(255,0,0)" height="5px" width="5px" x="52px" y="44px" /><rect fill="rgb(255,0,0)" height="5px" width="5px" x="56px" y="44px" /><rect fill="rgb(255,0,0)" height="5px" width="5px" x="60px" y="44px" /><rect fill="rgb(255,0,0)" height="5px" width="5px" x="64px" y="44px" /><rect fill="rgb(255,0,0)" height="5px" width="5px" x="68px" y="44px" /><rect fill="rgb(255,0,0)" height="5px" width="5px" x="72px" y="44px" /><rect fill="rgb(255,0,0)" height="5px" width="5px" x="76px" y="44px" /><rect fill="rgb(255,0,0)" height="5px" width="5px" x="80px" y="44px" /><rect fill="rgb(255,0,0)" height="5px" width="5px" x="84px" y="44px" /><rect fill="rgb(255,0,0)" height="5px" width="5px" x="88px" y="44px" /><rect fill="rgb(255,0,0)" height="5px" width="5px" x="92px" y="44px" /><rect fill="rgb(255,0,0)" height="5px" width="5px" x="96px" y="44px" /><rect fill="rgb(255,0,0)" height="5px" width="5px" x="100px" y="44px" /><rect fill="rgb(255,0,0)" height="5px" width="5px" x="104px" y="44px" /><rect fill="rgb(255,0,0)" height="5px" width="5px" x="108px" y="44px" /><rect fill="rgb(255,0,0)" height="5px" width="5px" x="112px" y="44px" /><rect fill="rgb(255,0,0)" height="5px" width="5px" x="116px" y="44px" /><rect fill="rgb(255,0,0)" height="5px" width="5px" x="8px" y="48px" /><rect fill="rgb(255,0,0)" height="5px" width="5px" x="12px" y="48px" /><rect fill="rgb(255,0,0)" height="5px" width="5px" x="16px" y="48px" /><rect fill="rgb(255,0,0)" height="5px" width="5px" x="20px" y="48px" /><rect fill="rgb(255,0,0)" height="5px" width="5px" x="24px" y="48px" /><rect fill="rgb(255,0,0)" height="5px" width="5px" x="28px" y="48px" /><rect fill="rgb(255,0,0)" height="5px" width="5px" x="32px" y="48px" /><rect fill="rgb(255,0,0)" height="5px" width="5px" x="36px" y="48px" /><rect fill="rgb(255,0,0)" height="5px" width="5px" x="40px" y="48px" /><rect fill="rgb(255,0,0)" height="5px" width="5px" x="44px" y="48px" /><rect fill="rgb(255,0,0)" height="5px" width="5px" x="48px" y="48px" /><rect fill="rgb(255,0,0)" height="5px" width="5px" x="52px" y="48px" /><rect fill="rgb(255,0,0)" height="5px" width="5px" x="56px" y="48px" /><rect fill="rgb(255,0,0)" height="5px" width="5px" x="60px" y="48px" /><rect fill="rgb(255,0,0)" height="5px" width="5px" x="64px" y="48px" /><rect fill="rgb(255,0,0)" height="5px" width="5px" x="68px" y="48px" /><rect fill="rgb(255,0,0)" height="5px" width="5px" x="72px" y="48px" /><rect fill="rgb(255,0,0)" height="5px" width="5px" x="76px" y="48px" /><rect fill="rgb(255,0,0)" height="5px" width="5px" x="80px" y="48px" /><rect fill="rgb(255,0,0)" height="5px" width="5px" x="84px" y="48px" /><rect fill="rgb(255,0,0)" height="5px" width="5px" x="88px" y="48px" /><rect fill="rgb(255,0,0)" height="5px" width="5px" x="92px" y="48px" /><rect fill="rgb(255,0,0)" height="5px" width="5px" x="96px" y="48px" /><rect fill="rgb(255,0,0)" height="5px" width="5px" x="100px" y="48px" /><rect fill="rgb(255,0,0)" height="5px" width="5px" x="104px" y="48px" /><rect fill="rgb(255,0,0)" height="5px" width="5px" x="108px" y="48px" /><rect fill="rgb(255,0,0)" height="5px" width="5px" x="112px" y="48px" /><rect fill="rgb(255,0,0)" height="5px" width="5px" x="116px" y="48px" /><rect fill="rgb(255,0,0)" height="5px" width="5px" x="120px" y="48px" /><rect fill="rgb(0,38,255)" height="5px" width="5px" x="4px" y="76px" /><rect fill="rgb(0,38,255)" height="5px" width="5px" x="8px" y="76px" /><rect fill="rgb(0,38,255)" height="5px" width="5px" x="12px" y="76px" /><rect fill="rgb(0,38,255)" height="5px" width="5px" x="16px" y="76px" /><rect fill="rgb(0,38,255)" height="5px" width="5px" x="20px" y="76px" /><rect fill="rgb(0,38,255)" height="5px" width="5px" x="24px" y="76px" /><rect fill="rgb(0,38,255)" height="5px" width="5px" x="28px" y="76px" /><rect fill="rgb(0,38,255)" height="5px" width="5px" x="32px" y="76px" /><rect fill="rgb(0,38,255)" height="5px" width="5px" x="36px" y="76px" /><rect fill="rgb(0,38,255)" height="5px" width="5px" x="40px" y="76px" /><rect fill="rgb(0,38,255)" height="5px" width="5px" x="44px" y="76px" /><rect fill="rgb(0,38,255)" height="5px" width="5px" x="48px" y="76px" /><rect fill="rgb(0,38,255)" height="5px" width="5px" x="52px" y="76px" /><rect fill="rgb(0,38,255)" height="5px" width="5px" x="56px" y="76px" /><rect fill="rgb(0,38,255)" height="5px" width="5px" x="60px" y="76px" /><rect fill="rgb(0,38,255)" height="5px" width="5px" x="64px" y="76px" /><rect fill="rgb(0,38,255)" height="5px" width="5px" x="68px" y="76px" /><rect fill="rgb(0,38,255)" height="5px" width="5px" x="72px" y="76px" /><rect fill="rgb(0,38,255)" height="5px" width="5px" x="76px" y="76px" /><rect fill="rgb(0,38,255)" height="5px" width="5px" x="80px" y="76px" /><rect fill="rgb(0,38,255)" height="5px" width="5px" x="84px" y="76px" /><rect fill="rgb(0,38,255)" height="5px" width="5px" x="88px" y="76px" /><rect fill="rgb(0,38,255)" height="5px" width="5px" x="92px" y="76px" /><rect fill="rgb(0,38,255)" height="5px" width="5px" x="96px" y="76px" /><rect fill="rgb(0,38,255)" height="5px" width="5px" x="100px" y="76px" /><rect fill="rgb(0,38,255)" height="5px" width="5px" x="104px" y="76px" /><rect fill="rgb(0,38,255)" height="5px" width="5px" x="108px" y="76px" /><rect fill="rgb(0,38,255)" height="5px" width="5px" x="112px" y="76px" /><rect fill="rgb(0,38,255)" height="5px" width="5px" x="116px" y="76px" /><rect fill="rgb(0,38,255)" height="5px" width="5px" x="8px" y="80px" /><rect fill="rgb(0,38,255)" height="5px" width="5px" x="12px" y="80px" /><rect fill="rgb(0,38,255)" height="5px" width="5px" x="16px" y="80px" /><rect fill="rgb(0,38,255)" height="5px" width="5px" x="20px" y="80px" /><rect fill="rgb(0,38,255)" height="5px" width="5px" x="24px" y="80px" /><rect fill="rgb(0,38,255)" height="5px" width="5px" x="28px" y="80px" /><rect fill="rgb(0,38,255)" height="5px" width="5px" x="32px" y="80px" /><rect fill="rgb(0,38,255)" height="5px" width="5px" x="36px" y="80px" /><rect fill="rgb(0,38,255)" height="5px" width="5px" x="40px" y="80px" /><rect fill="rgb(0,38,255)" height="5px" width="5px" x="44px" y="80px" /><rect fill="rgb(0,38,255)" height="5px" width="5px" x="48px" y="80px" /><rect fill="rgb(0,38,255)" height="5px" width="5px" x="52px" y="80px" /><rect fill="rgb(0,38,255)" height="5px" width="5px" x="56px" y="80px" /><rect fill="rgb(0,38,255)" height="5px" width="5px" x="60px" y="80px" /><rect fill="rgb(0,38,255)" height="5px" width="5px" x="64px" y="80px" /><rect fill="rgb(0,38,255)" height="5px" width="5px" x="68px" y="80px" /><rect fill="rgb(0,38,255)" height="5px" width="5px" x="72px" y="80px" /><rect fill="rgb(0,38,255)" height="5px" width="5px" x="76px" y="80px" /><rect fill="rgb(0,38,255)" height="5px" width="5px" x="80px" y="80px" /><rect fill="rgb(0,38,255)" height="5px" width="5px" x="84px" y="80px" /><rect fill="rgb(0,38,255)" height="5px" width="5px" x="88px" y="80px" /><rect fill="rgb(0,38,255)" height="5px" width="5px" x="92px" y="80px" /><rect fill="rgb(0,38,255)" height="5px" width="5px" x="96px" y="80px" /><rect fill="rgb(0,38,255)" height="5px" width="5px" x="100px" y="80px" /><rect fill="rgb(0,38,255)" height="5px" width="5px" x="104px" y="80px" /><rect fill="rgb(0,38,255)" height="5px" width="5px" x="108px" y="80px" /><rect fill="rgb(0,38,255)" height="5px" width="5px" x="112px" y="80px" /><rect fill="rgb(0,38,255)" height="5px" width="5px" x="116px" y="80px" /><rect fill="rgb(0,38,255)" height="5px" width="5px" x="12px" y="84px" /><rect fill="rgb(0,38,255)" height="5px" width="5px" x="16px" y="84px" /><rect fill="rgb(0,38,255)" height="5px" width="5px" x="20px" y="84px" /><rect fill="rgb(0,38,255)" height="5px" width="5px" x="24px" y="84px" /><rect fill="rgb(0,38,255)" height="5px" width="5px" x="28px" y="84px" /><rect fill="rgb(0,38,255)" height="5px" width="5px" x="32px" y="84px" /><rect fill="rgb(0,38,255)" height="5px" width="5px" x="36px" y="84px" /><rect fill="rgb(0,38,255)" height="5px" width="5px" x="40px" y="84px" /><rect fill="rgb(0,38,255)" height="5px" width="5px" x="44px" y="84px" /><rect fill="rgb(0,38,255)" height="5px" width="5px" x="48px" y="84px" /><rect fill="rgb(0,38,255)" height="5px" width="5px" x="52px" y="84px" /><rect fill="rgb(0,38,255)" height="5px" width="5px" x="56px" y="84px" /><rect fill="rgb(0,38,255)" height="5px" width="5px" x="60px" y="84px" /><rect fill="rgb(0,38,255)" height="5px" width="5px" x="64px" y="84px" /><rect fill="rgb(0,38,255)" height="5px" width="5px" x="68px" y="84px" /><rect fill="rgb(0,38,255)" height="5px" width="5px" x="72px" y="84px" /><rect fill="rgb(0,38,255)" height="5px" width="5px" x="76px" y="84px" /><rect fill="rgb(0,38,255)" height="5px" width="5px" x="80px" y="84px" /><rect fill="rgb(0,38,255)" height="5px" width="5px" x="84px" y="84px" /><rect fill="rgb(0,38,255)" height="5px" width="5px" x="88px" y="84px" /><rect fill="rgb(0,38,255)" height="5px" width="5px" x="92px" y="84px" /><rect fill="rgb(0,38,255)" height="5px" width="5px" x="96px" y="84px" /><rect fill="rgb(0,38,255)" height="5px" width="5px" x="100px" y="84px" /><rect fill="rgb(0,38,255)" height="5px" width="5px" x="104px" y="84px" /><rect fill="rgb(0,38,255)" height="5px" width="5px" x="108px" y="84px" /><rect fill="rgb(0,38,255)" height="5px" width="5px" x="112px" y="84px" /><rect fill="rgb(0,38,255)" height="5px" width="5px" x="116px" y="84px" /><rect fill="rgb(0,38,255)" height="5px" width="5px" x="16px" y="88px" /><rect fill="rgb(0,38,255)" height="5px" width="5px" x="20px" y="88px" /><rect fill="rgb(0,38,255)" height="5px" width="5px" x="24px" y="88px" /><rect fill="rgb(0,38,255)" height="5px" width="5px" x="28px" y="88px" /><rect fill="rgb(0,38,255)" height="5px" width="5px" x="32px" y="88px" /><rect fill="rgb(0,38,255)" height="5px" width="5px" x="36px" y="88px" /><rect fill="rgb(0,38,255)" height="5px" width="5px" x="40px" y="88px" /><rect fill="rgb(0,38,255)" height="5px" width="5px" x="44px" y="88px" /><rect fill="rgb(0,38,255)" height="5px" width="5px" x="48px" y="88px" /><rect fill="rgb(0,38,255)" height="5px" width="5px" x="52px" y="88px" /><rect fill="rgb(0,38,255)" height="5px" width="5px" x="56px" y="88px" /><rect fill="rgb(0,38,255)" height="5px" width="5px" x="60px" y="88px" /><rect fill="rgb(0,38,255)" height="5px" width="5px" x="64px" y="88px" /><rect fill="rgb(0,38,255)" height="5px" width="5px" x="68px" y="88px" /><rect fill="rgb(0,38,255)" height="5px" width="5px" x="72px" y="88px" /><rect fill="rgb(0,38,255)" height="5px" width="5px" x="76px" y="88px" /><rect fill="rgb(0,38,255)" height="5px" width="5px" x="80px" y="88px" /><rect fill="rgb(0,38,255)" height="5px" width="5px" x="84px" y="88px" /><rect fill="rgb(0,38,255)" height="5px" width="5px" x="88px" y="88px" /><rect fill="rgb(0,38,255)" height="5px" width="5px" x="92px" y="88px" /><rect fill="rgb(0,38,255)" height="5px" width="5px" x="96px" y="88px" /><rect fill="rgb(0,38,255)" height="5px" width="5px" x="100px" y="88px" /><rect fill="rgb(0,38,255)" height="5px" width="5px" x="104px" y="88px" /><rect fill="rgb(0,38,255)" height="5px" width="5px" x="108px" y="88px" /><rect fill="rgb(0,38,255)" height="5px" width="5px" x="112px" y="88px" /><rect fill="rgb(0,38,255)" height="5px" width="5px" x="116px" y="88px" /><rect fill="rgb(0,38,255)" height="5px" width="5px" x="20px" y="92px" /><rect fill="rgb(0,38,255)" height="5px" width="5px" x="24px" y="92px" /><rect fill="rgb(0,38,255)" height="5px" width="5px" x="28px" y="92px" /><rect fill="rgb(0,38,255)" height="5px" width="5px" x="32px" y="92px" /><rect fill="rgb(0,38,255)" height="5px" width="5px" x="36px" y="92px" /><rect fill="rgb(0,38,255)" height="5px" width="5px" x="40px" y="92px" /><rect fill="rgb(0,38,255)" height="5px" width="5px" x="44px" y="92px" /><rect fill="rgb(0,38,255)" height="5px" width="5px" x="48px" y="92px" /><rect fill="rgb(0,38,255)" height="5px" width="5px" x="52px" y="92px" /><rect fill="rgb(0,38,255)" height="5px" width="5px" x="56px" y="92px" /><rect fill="rgb(0,38,255)" height="5px" width="5px" x="60px" y="92px" /><rect fill="rgb(0,38,255)" height="5px" width="5px" x="64px" y="92px" /><rect fill="rgb(0,38,255)" height="5px" width="5px" x="68px" y="92px" /><rect fill="rgb(0,38,255)" height="5px" width="5px" x="72px" y="92px" /><rect fill="rgb(0,38,255)" height="5px" width="5px" x="76px" y="92px" /><rect fill="rgb(0,38,255)" height="5px" width="5px" x="80px" y="92px" /><rect fill="rgb(0,38,255)" height="5px" width="5px" x="84px" y="92px" /><rect fill="rgb(0,38,255)" height="5px" width="5px" x="88px" y="92px" /><rect fill="rgb(0,38,255)" height="5px" width="5px" x="92px" y="92px" /><rect fill="rgb(0,38,255)" height="5px" width="5px" x="96px" y="92px" /><rect fill="rgb(0,38,255)" height="5px" width="5px" x="100px" y="92px" /><rect fill="rgb(0,38,255)" height="5px" width="5px" x="104px" y="92px" /><rect fill="rgb(0,38,255)" height="5px" width="5px" x="108px" y="92px" /><rect fill="rgb(0,38,255)" height="5px" width="5px" x="112px" y="92px" /><rect fill="rgb(0,38,255)" height="5px" width="5px" x="116px" y="92px" /><rect fill="rgb(0,38,255)" height="5px" width="5px" x="24px" y="96px" /><rect fill="rgb(0,38,255)" height="5px" width="5px" x="28px" y="96px" /><rect fill="rgb(0,38,255)" height="5px" width="5px" x="32px" y="96px" /><rect fill="rgb(0,38,255)" height="5px" width="5px" x="36px" y="96px" /><rect fill="rgb(0,38,255)" height="5px" width="5px" x="40px" y="96px" /><rect fill="rgb(0,38,255)" height="5px" width="5px" x="44px" y="96px" /><rect fill="rgb(0,38,255)" height="5px" width="5px" x="28px" y="100px" /><rect fill="rgb(0,38,255)" height="5px" width="5px" x="32px" y="100px" /><rect fill="rgb(0,38,255)" height="5px" width="5px" x="36px" y="100px" /><rect fill="rgb(0,38,255)" height="5px" width="5px" x="40px" y="100px" /><rect fill="rgb(0,38,255)" height="5px" width="5px" x="44px" y="100px" /><rect fill="rgb(0,38,255)" height="5px" width="5px" x="32px" y="104px" /><rect fill="rgb(0,38,255)" height="5px" width="5px" x="36px" y="104px" /><rect fill="rgb(0,38,255)" height="5px" width="5px" x="40px" y="104px" /><rect fill="rgb(0,38,255)" height="5px" width="5px" x="44px" y="104px" /><rect fill="rgb(0,38,255)" height="5px" width="5px" x="36px" y="108px" /><rect fill="rgb(0,38,255)" height="5px" width="5px" x="40px" y="108px" /><rect fill="rgb(0,38,255)" height="5px" width="5px" x="44px" y="108px" /><rect fill="rgb(0,38,255)" height="5px" width="5px" x="40px" y="112px" /><rect fill="rgb(0,38,255)" height="5px" width="5px" x="44px" y="112px" /><rect fill="rgb(0,38,255)" height="5px" width="5px" x="44px" y="116px" /></svg>