<?xml version="1.0" encoding="utf-8" ?>
<svg baseProfile="full" height="128px" version="1.1" width="128px" xmlns="http://www.w3.org/2000/svg" xmlns:ev="http://www.w3.org/2001/xml-events" xmlns:xlink="http://www.w3.org/1999/xlink"><defs /><rect fill="rgb(53,161,154)" height="5px" opacity="0.149019607843" width="5px" x="32px" y="20px" /><rect fill="rgb(42,155,155)" height="5px" opacity="0.0705882352941" width="5px" x="20px" y="24px" /><rect fill="rgb(51,164,155)" height="5px" opacity="0.23137254902" width="5px" x="28px" y="24px" /><rect fill="rgb(51,164,153)" height="5px" opacity="0.835294117647" width="5px" x="32px" y="24px" /><rect fill="rgb(51,164,153)" height="5px" opacity="0.717647058824" width="5px" x="20px" y="28px" /><rect fill="rgb(53,163,152)" height="5px" opacity="0.262745098039" width="5px" x="24px" y="28px" /><rect fill="rgb(53,164,154)" height="5px" opacity="0.58431372549" width="5px" x="28px" y="28px" /><rect fill="rgb(52,164,153)" height="5px" opacity="0.474509803922" width="5px" x="32px" y="28px" /><rect fill="rgb(55,165,151)" height="5px" opacity="0.145098039216" width="5px" x="16px" y="32px" /><rect fill="rgb(53,162,153)" height="5px" opacity="0.921568627451" width="5px" x="20px" y="32px" /><rect fill="rgb(0,170,170)" height="5px" opacity="0.0117647058824" width="5px" x="24px" y="32px" /><rect fill="rgb(51,164,153)" height="5px" opacity="0.945098039216" width="5px" x="28px" y="32px" /><rect fill="rgb(52,167,158)" height="5px" opacity="0.113725490196" width="5px" x="32px" y="32px" /><rect fill="rgb(53,164,154)" height="5px" opacity="0.505882352941" width="5px" x="16px" y="36px" /><rect fill="rgb(53,164,153)" height="5px" opacity="0.560784313725" width="5px" x="20px" y="36px" /><rect fill="rgb(53,163,153)" height="5px" opacity="0.372549019608" width="5px" x="24px" y="36px" /><rect fill="rgb(83,192,184)" height="5px" width="5px" x="28px" y="36px" /><rect fill="rgb(149,251,255)" height="5px" opacity="0.921568627451" width="5px" x="32px" y="36px" /><rect fill="rgb(151,253,255)" height="5px" opacity="0.560784313725" width="5px" x="36px" y="36px" /><rect fill="rgb(153,255,255)" height="5px" opacity="0.207843137255" width="5px" x="40px" y="36px" /><rect fill="rgb(53,165,153)" height="5px" opacity="0.866666666667" width="5px" x="16px" y="40px" /><rect fill="rgb(128,232,231)" height="5px" opacity="0.941176470588" width="5px" x="20px" y="40px" /><rect fill="rgb(67,180,171)" height="5px" opacity="0.886274509804" width="5px" x="24px" y="40px" /><rect fill="rgb(119,224,221)" height="5px" width="5px" x="28px" y="40px" /><rect fill="rgb(152,254,255)" height="5px" width="5px" x="32px" y="40px" /><rect fill="rgb(152,254,255)" height="5px" width="5px" x="36px" y="40px" /><rect fill="rgb(152,254,255)" height="5px" width="5px" x="40px" y="40px" /><rect fill="rgb(151,252,255)" height="5px" opacity="0.780392156863" width="5px" x="44px" y="40px" /><rect fill="rgb(152,255,255)" height="5px" opacity="0.419607843137" width="5px" x="48px" y="40px" /><rect fill="rgb(153,255,255)" height="5px" opacity="0.0588235294118" width="5px" x="52px" y="40px" /><rect fill="rgb(52,164,153)" height="5px" opacity="0.286274509804" width="5px" x="12px" y="44px" /><rect fill="rgb(75,184,176)" height="5px" width="5px" x="16px" y="44px" /><rect fill="rgb(136,239,239)" height="5px" width="5px" x="20px" y="44px" /><rect fill="rgb(62,172,162)" height="5px" width="5px" x="24px" y="44px" /><rect fill="rgb(152,254,255)" height="5px" width="5px" x="28px" y="44px" /><rect fill="rgb(152,254,255)" height="5px" width="5px" x="32px" y="44px" /><rect fill="rgb(117,244,238)" height="5px" width="5px" x="36px" y="44px" /><rect fill="rgb(150,251,255)" height="5px" opacity="0.933333333333" width="5px" x="40px" y="44px" /><rect fill="rgb(152,254,255)" height="5px" width="5px" x="44px" y="44px" /><rect fill="rgb(152,254,255)" height="5px" width="5px" x="48px" y="44px" /><rect fill="rgb(152,254,255)" height="5px" width="5px" x="52px" y="44px" /><rect fill="rgb(151,253,255)" height="5px" opacity="0.639215686275" width="5px" x="56px" y="44px" /><rect fill="rgb(150,255,255)" height="5px" opacity="0.278431372549" width="5px" x="60px" y="44px" /><rect fill="rgb(54,162,153)" height="5px" opacity="0.647058823529" width="5px" x="12px" y="48px" /><rect fill="rgb(110,215,212)" height="5px" width="5px" x="16px" y="48px" /><rect fill="rgb(101,207,202)" height="5px" width="5px" x="20px" y="48px" /><rect fill="rgb(97,204,198)" height="5px" width="5px" x="24px" y="48px" /><rect fill="rgb(152,254,255)" height="5px" width="5px" x="28px" y="48px" /><rect fill="rgb(123,246,241)" height="5px" width="5px" x="32px" y="48px" /><rect fill="rgb(61,229,212)" height="5px" opacity="0.749019607843" width="5px" x="36px" y="48px" /><rect fill="rgb(135,247,245)" height="5px" opacity="0.427450980392" width="5px" x="44px" y="48px" /><rect fill="rgb(124,244,240)" height="5px" opacity="0.98431372549" width="5px" x="48px" y="48px" /><rect fill="rgb(152,254,255)" height="5px" width="5px" x="52px" y="48px" /><rect fill="rgb(152,254,255)" height="5px" width="5px" x="56px" y="48px" /><rect fill="rgb(152,254,255)" height="5px" width="5px" x="60px" y="48px" /><rect fill="rgb(151,251,255)" height="5px" opacity="0.858823529412" width="5px" x="64px" y="48px" /><rect fill="rgb(152,255,255)" height="5px" opacity="0.498039215686" width="5px" x="68px" y="48px" /><rect fill="rgb(153,255,255)" height="5px" opacity="0.137254901961" width="5px" x="72px" y="48px" /><rect fill="rgb(45,165,150)" height="5px" opacity="0.0666666666667" width="5px" x="8px" y="52px" /><rect fill="rgb(54,162,151)" height="5px" opacity="0.996078431373" width="5px" x="12px" y="52px" /><rect fill="rgb(145,247,248)" height="5px" opacity="0.909803921569" width="5px" x="16px" y="52px" /><rect fill="rgb(66,176,166)" height="5px" width="5px" x="20px" y="52px" /><rect fill="rgb(132,236,235)" height="5px" width="5px" x="24px" y="52px" /><rect fill="rgb(152,254,255)" height="5px" width="5px" x="28px" y="52px" /><rect fill="rgb(91,237,226)" height="5px" width="5px" x="32px" y="52px" /><rect fill="rgb(61,229,213)" height="5px" opacity="0.388235294118" width="5px" x="36px" y="52px" /><rect fill="rgb(61,229,212)" height="5px" opacity="0.474509803922" width="5px" x="44px" y="52px" /><rect fill="rgb(60,229,212)" height="5px" opacity="0.592156862745" width="5px" x="48px" y="52px" /><rect fill="rgb(154,255,255)" height="5px" opacity="0.129411764706" width="5px" x="52px" y="52px" /><rect fill="rgb(132,248,247)" height="5px" opacity="0.627450980392" width="5px" x="56px" y="52px" /><rect fill="rgb(140,248,247)" height="5px" opacity="0.96862745098" width="5px" x="60px" y="52px" /><rect fill="rgb(152,254,255)" height="5px" width="5px" x="64px" y="52px" /><rect fill="rgb(152,254,255)" height="5px" width="5px" x="68px" y="52px" /><rect fill="rgb(152,254,255)" height="5px" width="5px" x="72px" y="52px" /><rect fill="rgb(150,253,255)" height="5px" opacity="0.717647058824" width="5px" x="76px" y="52px" /><rect fill="rgb(151,255,255)" height="5px" opacity="0.356862745098" width="5px" x="80px" y="52px" /><rect fill="rgb(53,163,154)" height="5px" opacity="0.427450980392" width="5px" x="8px" y="56px" /><rect fill="rgb(52,164,153)" height="5px" opacity="0.63137254902" width="5px" x="12px" y="56px" /><rect fill="rgb(54,163,153)" height="5px" opacity="0.294117647059" width="5px" x="16px" y="56px" /><rect fill="rgb(76,185,177)" height="5px" width="5px" x="20px" y="56px" /><rect fill="rgb(152,254,255)" height="5px" width="5px" x="24px" y="56px" /><rect fill="rgb(148,251,255)" height="5px" opacity="0.901960784314" width="5px" x="28px" y="56px" /><rect fill="rgb(61,229,211)" height="5px" opacity="0.392156862745" width="5px" x="32px" y="56px" /><rect fill="rgb(42,212,212)" height="5px" opacity="0.0235294117647" width="5px" x="36px" y="56px" /><rect fill="rgb(61,227,213)" height="5px" opacity="0.835294117647" width="5px" x="44px" y="56px" /><rect fill="rgb(60,229,211)" height="5px" opacity="0.23137254902" width="5px" x="48px" y="56px" /><rect fill="rgb(61,229,212)" height="5px" opacity="0.63137254902" width="5px" x="56px" y="56px" /><rect fill="rgb(60,229,212)" height="5px" opacity="0.427450980392" width="5px" x="60px" y="56px" /><rect fill="rgb(151,255,255)" height="5px" opacity="0.270588235294" width="5px" x="64px" y="56px" /><rect fill="rgb(132,247,246)" height="5px" opacity="0.792156862745" width="5px" x="68px" y="56px" /><rect fill="rgb(149,251,255)" height="5px" opacity="0.996078431373" width="5px" x="72px" y="56px" /><rect fill="rgb(152,254,255)" height="5px" width="5px" x="76px" y="56px" /><rect fill="rgb(152,254,255)" height="5px" width="5px" x="80px" y="56px" /><rect fill="rgb(149,251,255)" height="5px" opacity="0.929411764706" width="5px" x="84px" y="56px" /><rect fill="rgb(149,253,255)" height="5px" opacity="0.576470588235" width="5px" x="88px" y="56px" /><rect fill="rgb(153,255,255)" height="5px" opacity="0.21568627451" width="5px" x="92px" y="56px" /><rect fill="rgb(53,162,153)" height="5px" opacity="0.788235294118" width="5px" x="8px" y="60px" /><rect fill="rgb(53,165,154)" height="5px" opacity="0.278431372549" width="5px" x="12px" y="60px" /><rect fill="rgb(53,163,154)" height="5px" opacity="0.654901960784" width="5px" x="16px" y="60px" /><rect fill="rgb(111,217,213)" height="5px" width="5px" x="20px" y="60px" /><rect fill="rgb(152,254,255)" height="5px" width="5px" x="24px" y="60px" /><rect fill="rgb(151,251,255)" height="5px" opacity="0.945098039216" width="5px" x="28px" y="60px" /><rect fill="rgb(151,253,255)" height="5px" opacity="0.521568627451" width="5px" x="32px" y="60px" /><rect fill="rgb(149,255,255)" height="5px" opacity="0.160784313725" width="5px" x="36px" y="60px" /><rect fill="rgb(42,233,212)" height="5px" opacity="0.0470588235294" width="5px" x="40px" y="60px" /><rect fill="rgb(60,230,212)" height="5px" opacity="0.443137254902" width="5px" x="44px" y="60px" /><rect fill="rgb(58,235,215)" height="5px" opacity="0.0509803921569" width="5px" x="52px" y="60px" /><rect fill="rgb(61,227,210)" height="5px" opacity="0.992156862745" width="5px" x="56px" y="60px" /><rect fill="rgb(53,228,214)" height="5px" opacity="0.0745098039216" width="5px" x="60px" y="60px" /><rect fill="rgb(59,229,213)" height="5px" opacity="0.788235294118" width="5px" x="68px" y="60px" /><rect fill="rgb(77,235,222)" height="5px" opacity="0.309803921569" width="5px" x="72px" y="60px" /><rect fill="rgb(150,255,255)" height="5px" opacity="0.411764705882" width="5px" x="76px" y="60px" /><rect fill="rgb(135,249,248)" height="5px" opacity="0.905882352941" width="5px" x="80px" y="60px" /><rect fill="rgb(152,254,255)" height="5px" width="5px" x="84px" y="60px" /><rect fill="rgb(152,254,255)" height="5px" width="5px" x="88px" y="60px" /><rect fill="rgb(152,254,255)" height="5px" width="5px" x="92px" y="60px" /><rect fill="rgb(148,252,255)" height="5px" opacity="0.788235294118" width="5px" x="96px" y="60px" /><rect fill="rgb(152,255,255)" height="5px" opacity="0.427450980392" width="5px" x="100px" y="60px" /><rect fill="rgb(147,255,255)" height="5px" opacity="0.0745098039216" width="5px" x="104px" y="60px" /><rect fill="rgb(0,255,255)" height="5px" opacity="0.00392156862745" width="5px" x="4px" y="64px" /><rect fill="rgb(51,163,154)" height="5px" opacity="0.329411764706" width="5px" x="8px" y="64px" /><rect fill="rgb(53,161,161)" height="5px" opacity="0.0745098039216" width="5px" x="12px" y="64px" /><rect fill="rgb(51,162,154)" height="5px" opacity="0.98431372549" width="5px" x="16px" y="64px" /><rect fill="rgb(141,244,244)" height="5px" opacity="0.494117647059" width="5px" x="20px" y="64px" /><rect fill="rgb(151,252,255)" height="5px" opacity="0.819607843137" width="5px" x="24px" y="64px" /><rect fill="rgb(152,254,255)" height="5px" width="5px" x="28px" y="64px" /><rect fill="rgb(152,254,255)" height="5px" width="5px" x="32px" y="64px" /><rect fill="rgb(152,254,255)" height="5px" width="5px" x="36px" y="64px" /><rect fill="rgb(151,253,255)" height="5px" opacity="0.741176470588" width="5px" x="40px" y="64px" /><rect fill="rgb(152,255,255)" height="5px" opacity="0.380392156863" width="5px" x="44px" y="64px" /><rect fill="rgb(153,255,255)" height="5px" opacity="0.0196078431373" width="5px" x="48px" y="64px" /><rect fill="rgb(58,225,211)" height="5px" opacity="0.137254901961" width="5px" x="52px" y="64px" /><rect fill="rgb(60,230,212)" height="5px" opacity="0.443137254902" width="5px" x="56px" y="64px" /><rect fill="rgb(60,231,213)" height="5px" opacity="0.21568627451" width="5px" x="64px" y="64px" /><rect fill="rgb(61,229,211)" height="5px" opacity="0.850980392157" width="5px" x="68px" y="64px" /><rect fill="rgb(0,255,255)" height="5px" opacity="0.0117647058824" width="5px" x="76px" y="64px" /><rect fill="rgb(59,227,213)" height="5px" opacity="0.952941176471" width="5px" x="80px" y="64px" /><rect fill="rgb(122,248,241)" height="5px" opacity="0.294117647059" width="5px" x="84px" y="64px" /><rect fill="rgb(150,253,255)" height="5px" opacity="0.552941176471" width="5px" x="88px" y="64px" /><rect fill="rgb(145,249,249)" height="5px" opacity="0.976470588235" width="5px" x="92px" y="64px" /><rect fill="rgb(152,254,255)" height="5px" width="5px" x="96px" y="64px" /><rect fill="rgb(152,254,255)" height="5px" width="5px" x="100px" y="64px" /><rect fill="rgb(152,254,255)" height="5px" width="5px" x="104px" y="64px" /><rect fill="rgb(150,252,255)" height="5px" opacity="0.333333333333" width="5px" x="108px" y="64px" /><rect fill="rgb(53,164,153)" height="5px" opacity="0.352941176471" width="5px" x="12px" y="68px" /><rect fill="rgb(51,165,152)" height="5px" opacity="0.623529411765" width="5px" x="16px" y="68px" /><rect fill="rgb(153,255,255)" height="5px" opacity="0.247058823529" width="5px" x="28px" y="68px" /><rect fill="rgb(151,253,255)" height="5px" opacity="0.607843137255" width="5px" x="32px" y="68px" /><rect fill="rgb(149,251,255)" height="5px" opacity="0.96862745098" width="5px" x="36px" y="68px" /><rect fill="rgb(152,254,255)" height="5px" width="5px" x="40px" y="68px" /><rect fill="rgb(152,254,255)" height="5px" width="5px" x="44px" y="68px" /><rect fill="rgb(149,251,255)" height="5px" opacity="0.960784313725" width="5px" x="48px" y="68px" /><rect fill="rgb(151,253,255)" height="5px" opacity="0.6" width="5px" x="52px" y="68px" /><rect fill="rgb(150,255,255)" height="5px" opacity="0.239215686275" width="5px" x="56px" y="68px" /><rect fill="rgb(61,229,211)" height="5px" opacity="0.274509803922" width="5px" x="64px" y="68px" /><rect fill="rgb(61,230,213)" height="5px" opacity="0.407843137255" width="5px" x="68px" y="68px" /><rect fill="rgb(61,230,212)" height="5px" opacity="0.372549019608" width="5px" x="76px" y="68px" /><rect fill="rgb(61,230,211)" height="5px" opacity="0.686274509804" width="5px" x="80px" y="68px" /><rect fill="rgb(62,232,215)" height="5px" opacity="0.176470588235" width="5px" x="88px" y="68px" /><rect fill="rgb(59,229,212)" height="5px" opacity="0.890196078431" width="5px" x="92px" y="68px" /><rect fill="rgb(150,255,255)" height="5px" opacity="0.372549019608" width="5px" x="96px" y="68px" /><rect fill="rgb(151,251,255)" height="5px" opacity="0.992156862745" width="5px" x="100px" y="68px" /><rect fill="rgb(152,254,255)" height="5px" width="5px" x="104px" y="68px" /><rect fill="rgb(150,255,255)" height="5px" opacity="0.152941176471" width="5px" x="108px" y="68px" /><rect fill="rgb(47,159,143)" height="5px" opacity="0.0627450980392" width="5px" x="16px" y="72px" /><rect fill="rgb(145,255,255)" height="5px" opacity="0.0274509803922" width="5px" x="36px" y="72px" /><rect fill="rgb(151,255,255)" height="5px" opacity="0.388235294118" width="5px" x="40px" y="72px" /><rect fill="rgb(152,253,255)" height="5px" opacity="0.749019607843" width="5px" x="44px" y="72px" /><rect fill="rgb(152,254,255)" height="5px" width="5px" x="48px" y="72px" /><rect fill="rgb(152,254,255)" height="5px" width="5px" x="52px" y="72px" /><rect fill="rgb(152,254,255)" height="5px" width="5px" x="56px" y="72px" /><rect fill="rgb(151,252,255)" height="5px" opacity="0.819607843137" width="5px" x="60px" y="72px" /><rect fill="rgb(152,255,255)" height="5px" opacity="0.458823529412" width="5px" x="64px" y="72px" /><rect fill="rgb(153,255,255)" height="5px" opacity="0.0980392156863" width="5px" x="68px" y="72px" /><rect fill="rgb(62,230,212)" height="5px" opacity="0.450980392157" width="5px" x="76px" y="72px" /><rect fill="rgb(59,229,214)" height="5px" opacity="0.317647058824" width="5px" x="80px" y="72px" /><rect fill="rgb(61,227,212)" height="5px" opacity="0.537254901961" width="5px" x="88px" y="72px" /><rect fill="rgb(60,230,213)" height="5px" opacity="0.529411764706" width="5px" x="92px" y="72px" /><rect fill="rgb(151,255,255)" height="5px" opacity="0.403921568627" width="5px" x="96px" y="72px" /><rect fill="rgb(152,254,255)" height="5px" width="5px" x="100px" y="72px" /><rect fill="rgb(151,253,255)" height="5px" opacity="0.725490196078" width="5px" x="104px" y="72px" /><rect fill="rgb(154,255,255)" height="5px" opacity="0.16862745098" width="5px" x="48px" y="76px" /><rect fill="rgb(151,253,255)" height="5px" opacity="0.529411764706" width="5px" x="52px" y="76px" /><rect fill="rgb(150,251,255)" height="5px" opacity="0.890196078431" width="5px" x="56px" y="76px" /><rect fill="rgb(152,254,255)" height="5px" width="5px" x="60px" y="76px" /><rect fill="rgb(152,254,255)" height="5px" width="5px" x="64px" y="76px" /><rect fill="rgb(152,254,255)" height="5px" width="5px" x="68px" y="76px" /><rect fill="rgb(150,253,255)" height="5px" opacity="0.678431372549" width="5px" x="72px" y="76px" /><rect fill="rgb(151,255,255)" height="5px" opacity="0.317647058824" width="5px" x="76px" y="76px" /><rect fill="rgb(59,228,212)" height="5px" opacity="0.674509803922" width="5px" x="88px" y="76px" /><rect fill="rgb(59,231,213)" height="5px" opacity="0.16862745098" width="5px" x="92px" y="76px" /><rect fill="rgb(150,252,255)" height="5px" opacity="0.756862745098" width="5px" x="96px" y="76px" /><rect fill="rgb(152,254,255)" height="5px" width="5px" x="100px" y="76px" /><rect fill="rgb(63,163,172)" height="5px" opacity="0.882352941176" width="5px" x="104px" y="76px" /><rect fill="rgb(0,95,110)" height="5px" opacity="0.450980392157" width="5px" x="108px" y="76px" /><rect fill="rgb(0,99,110)" height="5px" opacity="0.0901960784314" width="5px" x="112px" y="76px" /><rect fill="rgb(151,255,255)" height="5px" opacity="0.309803921569" width="5px" x="60px" y="80px" /><rect fill="rgb(152,253,255)" height="5px" opacity="0.670588235294" width="5px" x="64px" y="80px" /><rect fill="rgb(152,254,255)" height="5px" width="5px" x="68px" y="80px" /><rect fill="rgb(152,254,255)" height="5px" width="5px" x="72px" y="80px" /><rect fill="rgb(152,254,255)" height="5px" width="5px" x="76px" y="80px" /><rect fill="rgb(150,251,255)" height="5px" opacity="0.890196078431" width="5px" x="80px" y="80px" /><rect fill="rgb(151,253,255)" height="5px" opacity="0.529411764706" width="5px" x="84px" y="80px" /><rect fill="rgb(153,255,255)" height="5px" opacity="0.176470588235" width="5px" x="88px" y="80px" /><rect fill="rgb(151,255,255)" height="5px" opacity="0.18431372549" width="5px" x="92px" y="80px" /><rect fill="rgb(152,254,255)" height="5px" width="5px" x="96px" y="80px" /><rect fill="rgb(144,243,245)" height="5px" opacity="0.992156862745" width="5px" x="100px" y="80px" /><rect fill="rgb(2,99,114)" height="5px" width="5px" x="104px" y="80px" /><rect fill="rgb(0,97,112)" height="5px" width="5px" x="108px" y="80px" /><rect fill="rgb(0,97,112)" height="5px" width="5px" x="112px" y="80px" /><rect fill="rgb(0,94,109)" height="5px" opacity="0.137254901961" width="5px" x="116px" y="80px" /><rect fill="rgb(153,255,255)" height="5px" opacity="0.0980392156863" width="5px" x="68px" y="84px" /><rect fill="rgb(150,255,255)" height="5px" opacity="0.450980392157" width="5px" x="72px" y="84px" /><rect fill="rgb(151,252,255)" height="5px" opacity="0.811764705882" width="5px" x="76px" y="84px" /><rect fill="rgb(152,254,255)" height="5px" width="5px" x="80px" y="84px" /><rect fill="rgb(152,254,255)" height="5px" width="5px" x="84px" y="84px" /><rect fill="rgb(152,254,255)" height="5px" width="5px" x="88px" y="84px" /><rect fill="rgb(151,251,255)" height="5px" opacity="0.886274509804" width="5px" x="92px" y="84px" /><rect fill="rgb(152,254,255)" height="5px" width="5px" x="96px" y="84px" /><rect fill="rgb(152,253,255)" height="5px" opacity="0.58431372549" width="5px" x="100px" y="84px" /><rect fill="rgb(0,97,110)" height="5px" opacity="0.317647058824" width="5px" x="104px" y="84px" /><rect fill="rgb(0,94,112)" height="5px" opacity="0.678431372549" width="5px" x="108px" y="84px" /><rect fill="rgb(0,96,110)" height="5px" opacity="0.788235294118" width="5px" x="112px" y="84px" /><rect fill="rgb(150,255,255)" height="5px" opacity="0.239215686275" width="5px" x="80px" y="88px" /><rect fill="rgb(151,253,255)" height="5px" opacity="0.6" width="5px" x="84px" y="88px" /><rect fill="rgb(151,251,255)" height="5px" opacity="0.952941176471" width="5px" x="88px" y="88px" /><rect fill="rgb(152,254,255)" height="5px" width="5px" x="92px" y="88px" /><rect fill="rgb(152,254,255)" height="5px" width="5px" x="96px" y="88px" /><rect fill="rgb(152,255,255)" height="5px" opacity="0.223529411765" width="5px" x="100px" y="88px" /><rect fill="rgb(0,92,115)" height="5px" opacity="0.043137254902" width="5px" x="112px" y="88px" /><rect fill="rgb(153,255,255)" height="5px" opacity="0.0196078431373" width="5px" x="88px" y="92px" /><rect fill="rgb(152,255,255)" height="5px" opacity="0.380392156863" width="5px" x="92px" y="92px" /><rect fill="rgb(149,253,255)" height="5px" opacity="0.596078431373" width="5px" x="96px" y="92px" /></svg>