<?xml version="1.0" encoding="utf-8" ?>
<svg baseProfile="full" height="128px" version="1.1" width="128px" xmlns="http://www.w3.org/2000/svg" xmlns:ev="http://www.w3.org/2001/xml-events" xmlns:xlink="http://www.w3.org/1999/xlink"><defs /><rect fill="rgb(18,18,4)" height="5px" opacity="0.235294117647" width="5px" x="48px" y="12px" /><rect fill="rgb(18,18,4)" height="5px" opacity="0.894117647059" width="5px" x="52px" y="12px" /><rect fill="rgb(18,18,4)" height="5px" opacity="0.996078431373" width="5px" x="56px" y="12px" /><rect fill="rgb(18,18,4)" height="5px" width="5px" x="60px" y="12px" /><rect fill="rgb(18,18,4)" height="5px" opacity="0.996078431373" width="5px" x="64px" y="12px" /><rect fill="rgb(18,18,4)" height="5px" opacity="0.894117647059" width="5px" x="68px" y="12px" /><rect fill="rgb(18,18,4)" height="5px" opacity="0.235294117647" width="5px" x="72px" y="12px" /><rect fill="rgb(18,18,4)" height="5px" opacity="0.235294117647" width="5px" x="44px" y="16px" /><rect fill="rgb(18,18,4)" height="5px" opacity="0.96862745098" width="5px" x="48px" y="16px" /><rect fill="rgb(18,18,4)" height="5px" opacity="0.913725490196" width="5px" x="52px" y="16px" /><rect fill="rgb(18,18,4)" height="5px" width="5px" x="56px" y="16px" /><rect fill="rgb(18,18,4)" height="5px" width="5px" x="60px" y="16px" /><rect fill="rgb(18,18,4)" height="5px" width="5px" x="64px" y="16px" /><rect fill="rgb(18,18,4)" height="5px" opacity="0.913725490196" width="5px" x="68px" y="16px" /><rect fill="rgb(18,18,4)" height="5px" opacity="0.96862745098" width="5px" x="72px" y="16px" /><rect fill="rgb(18,18,4)" height="5px" opacity="0.235294117647" width="5px" x="76px" y="16px" /><rect fill="rgb(18,18,4)" height="5px" opacity="0.894117647059" width="5px" x="44px" y="20px" /><rect fill="rgb(18,18,4)" height="5px" width="5px" x="48px" y="20px" /><rect fill="rgb(18,18,4)" height="5px" width="5px" x="52px" y="20px" /><rect fill="rgb(18,18,4)" height="5px" opacity="0.952941176471" width="5px" x="56px" y="20px" /><rect fill="rgb(18,18,4)" height="5px" opacity="0.474509803922" width="5px" x="60px" y="20px" /><rect fill="rgb(18,18,4)" height="5px" opacity="0.913725490196" width="5px" x="64px" y="20px" /><rect fill="rgb(18,18,4)" height="5px" width="5px" x="68px" y="20px" /><rect fill="rgb(18,18,4)" height="5px" opacity="0.913725490196" width="5px" x="72px" y="20px" /><rect fill="rgb(18,18,4)" height="5px" opacity="0.894117647059" width="5px" x="76px" y="20px" /><rect fill="rgb(18,18,4)" height="5px" width="5px" x="84px" y="20px" /><rect fill="rgb(18,18,4)" height="5px" width="5px" x="88px" y="20px" /><rect fill="rgb(18,18,4)" height="5px" opacity="0.996078431373" width="5px" x="92px" y="20px" /><rect fill="rgb(18,18,4)" height="5px" width="5px" x="96px" y="20px" /><rect fill="rgb(18,18,4)" height="5px" opacity="0.0588235294118" width="5px" x="100px" y="20px" /><rect fill="rgb(18,18,4)" height="5px" opacity="0.996078431373" width="5px" x="44px" y="24px" /><rect fill="rgb(18,18,4)" height="5px" width="5px" x="48px" y="24px" /><rect fill="rgb(18,18,4)" height="5px" width="5px" x="52px" y="24px" /><rect fill="rgb(18,18,4)" height="5px" opacity="0.360784313725" width="5px" x="56px" y="24px" /><rect fill="rgb(18,18,4)" height="5px" opacity="0.317647058824" width="5px" x="64px" y="24px" /><rect fill="rgb(18,18,4)" height="5px" opacity="0.913725490196" width="5px" x="68px" y="24px" /><rect fill="rgb(18,18,4)" height="5px" width="5px" x="72px" y="24px" /><rect fill="rgb(18,18,4)" height="5px" opacity="0.996078431373" width="5px" x="76px" y="24px" /><rect fill="rgb(18,18,4)" height="5px" opacity="0.196078431373" width="5px" x="88px" y="24px" /><rect fill="rgb(18,18,4)" height="5px" width="5px" x="92px" y="24px" /><rect fill="rgb(18,18,4)" height="5px" width="5px" x="96px" y="24px" /><rect fill="rgb(18,18,4)" height="5px" width="5px" x="100px" y="24px" /><rect fill="rgb(18,18,4)" height="5px" opacity="0.737254901961" width="5px" x="104px" y="24px" /><rect fill="rgb(18,18,4)" height="5px" width="5px" x="44px" y="28px" /><rect fill="rgb(18,18,4)" height="5px" width="5px" x="48px" y="28px" /><rect fill="rgb(18,18,4)" height="5px" opacity="0.666666666667" width="5px" x="52px" y="28px" /><rect fill="rgb(18,18,4)" height="5px" opacity="0.474509803922" width="5px" x="68px" y="28px" /><rect fill="rgb(18,18,4)" height="5px" width="5px" x="72px" y="28px" /><rect fill="rgb(18,18,4)" height="5px" width="5px" x="76px" y="28px" /><rect fill="rgb(18,18,4)" height="5px" width="5px" x="104px" y="28px" /><rect fill="rgb(18,18,4)" height="5px" opacity="0.776470588235" width="5px" x="108px" y="28px" /><rect fill="rgb(18,18,4)" height="5px" opacity="0.996078431373" width="5px" x="44px" y="32px" /><rect fill="rgb(18,18,4)" height="5px" width="5px" x="48px" y="32px" /><rect fill="rgb(18,18,4)" height="5px" opacity="0.992156862745" width="5px" x="52px" y="32px" /><rect fill="rgb(18,18,4)" height="5px" opacity="0.317647058824" width="5px" x="56px" y="32px" /><rect fill="rgb(18,18,4)" height="5px" opacity="0.317647058824" width="5px" x="64px" y="32px" /><rect fill="rgb(18,18,4)" height="5px" opacity="0.913725490196" width="5px" x="68px" y="32px" /><rect fill="rgb(18,18,4)" height="5px" width="5px" x="72px" y="32px" /><rect fill="rgb(18,18,4)" height="5px" opacity="0.996078431373" width="5px" x="76px" y="32px" /><rect fill="rgb(18,18,4)" height="5px" width="5px" x="104px" y="32px" /><rect fill="rgb(18,18,4)" height="5px" width="5px" x="108px" y="32px" /><rect fill="rgb(18,18,4)" height="5px" opacity="0.305882352941" width="5px" x="112px" y="32px" /><rect fill="rgb(18,18,4)" height="5px" opacity="0.894117647059" width="5px" x="44px" y="36px" /><rect fill="rgb(18,18,4)" height="5px" width="5px" x="48px" y="36px" /><rect fill="rgb(18,18,4)" height="5px" width="5px" x="52px" y="36px" /><rect fill="rgb(18,18,4)" height="5px" opacity="0.913725490196" width="5px" x="56px" y="36px" /><rect fill="rgb(18,18,4)" height="5px" opacity="0.474509803922" width="5px" x="60px" y="36px" /><rect fill="rgb(18,18,4)" height="5px" opacity="0.913725490196" width="5px" x="64px" y="36px" /><rect fill="rgb(18,18,4)" height="5px" width="5px" x="68px" y="36px" /><rect fill="rgb(18,18,4)" height="5px" opacity="0.949019607843" width="5px" x="72px" y="36px" /><rect fill="rgb(18,18,4)" height="5px" opacity="0.894117647059" width="5px" x="76px" y="36px" /><rect fill="rgb(18,18,4)" height="5px" width="5px" x="108px" y="36px" /><rect fill="rgb(18,18,4)" height="5px" opacity="0.96862745098" width="5px" x="112px" y="36px" /><rect fill="rgb(18,18,4)" height="5px" opacity="0.235294117647" width="5px" x="44px" y="40px" /><rect fill="rgb(18,18,4)" height="5px" opacity="0.96862745098" width="5px" x="48px" y="40px" /><rect fill="rgb(18,18,4)" height="5px" opacity="0.913725490196" width="5px" x="52px" y="40px" /><rect fill="rgb(18,18,4)" height="5px" width="5px" x="56px" y="40px" /><rect fill="rgb(18,18,4)" height="5px" width="5px" x="60px" y="40px" /><rect fill="rgb(18,18,4)" height="5px" width="5px" x="64px" y="40px" /><rect fill="rgb(18,18,4)" height="5px" opacity="0.913725490196" width="5px" x="68px" y="40px" /><rect fill="rgb(18,18,4)" height="5px" opacity="0.96862745098" width="5px" x="72px" y="40px" /><rect fill="rgb(18,18,4)" height="5px" opacity="0.235294117647" width="5px" x="76px" y="40px" /><rect fill="rgb(18,18,4)" height="5px" width="5px" x="108px" y="40px" /><rect fill="rgb(18,18,4)" height="5px" width="5px" x="112px" y="40px" /><rect fill="rgb(18,18,4)" height="5px" opacity="0.235294117647" width="5px" x="48px" y="44px" /><rect fill="rgb(18,18,4)" height="5px" opacity="0.894117647059" width="5px" x="52px" y="44px" /><rect fill="rgb(18,18,4)" height="5px" opacity="0.996078431373" width="5px" x="56px" y="44px" /><rect fill="rgb(18,18,4)" height="5px" width="5px" x="60px" y="44px" /><rect fill="rgb(18,18,4)" height="5px" opacity="0.996078431373" width="5px" x="64px" y="44px" /><rect fill="rgb(18,18,4)" height="5px" opacity="0.894117647059" width="5px" x="68px" y="44px" /><rect fill="rgb(18,18,4)" height="5px" opacity="0.235294117647" width="5px" x="72px" y="44px" /><rect fill="rgb(18,18,4)" height="5px" opacity="0.117647058824" width="5px" x="108px" y="44px" /><rect fill="rgb(18,18,4)" height="5px" width="5px" x="112px" y="44px" /><rect fill="rgb(18,18,4)" height="5px" opacity="0.376470588235" width="5px" x="116px" y="44px" /><rect fill="rgb(18,18,4)" height="5px" opacity="0.0588235294118" width="5px" x="108px" y="48px" /><rect fill="rgb(18,18,4)" height="5px" width="5px" x="112px" y="48px" /><rect fill="rgb(18,18,4)" height="5px" width="5px" x="116px" y="48px" /><rect fill="rgb(18,18,4)" height="5px" opacity="0.788235294118" width="5px" x="28px" y="52px" /><rect fill="rgb(18,18,4)" height="5px" opacity="0.992156862745" width="5px" x="32px" y="52px" /><rect fill="rgb(18,18,4)" height="5px" opacity="0.992156862745" width="5px" x="36px" y="52px" /><rect fill="rgb(18,18,4)" height="5px" opacity="0.992156862745" width="5px" x="40px" y="52px" /><rect fill="rgb(18,18,4)" height="5px" opacity="0.992156862745" width="5px" x="44px" y="52px" /><rect fill="rgb(18,18,4)" height="5px" opacity="0.992156862745" width="5px" x="48px" y="52px" /><rect fill="rgb(18,18,4)" height="5px" opacity="0.992156862745" width="5px" x="52px" y="52px" /><rect fill="rgb(18,18,4)" height="5px" opacity="0.996078431373" width="5px" x="56px" y="52px" /><rect fill="rgb(18,18,4)" height="5px" opacity="0.996078431373" width="5px" x="60px" y="52px" /><rect fill="rgb(18,18,4)" height="5px" opacity="0.992156862745" width="5px" x="64px" y="52px" /><rect fill="rgb(18,18,4)" height="5px" opacity="0.992156862745" width="5px" x="68px" y="52px" /><rect fill="rgb(18,18,4)" height="5px" opacity="0.992156862745" width="5px" x="72px" y="52px" /><rect fill="rgb(18,18,4)" height="5px" opacity="0.992156862745" width="5px" x="76px" y="52px" /><rect fill="rgb(18,18,4)" height="5px" opacity="0.992156862745" width="5px" x="80px" y="52px" /><rect fill="rgb(18,18,4)" height="5px" opacity="0.952941176471" width="5px" x="84px" y="52px" /><rect fill="rgb(18,18,4)" height="5px" width="5px" x="92px" y="52px" /><rect fill="rgb(18,18,4)" height="5px" width="5px" x="96px" y="52px" /><rect fill="rgb(18,18,4)" height="5px" width="5px" x="100px" y="52px" /><rect fill="rgb(18,18,4)" height="5px" width="5px" x="104px" y="52px" /><rect fill="rgb(18,18,4)" height="5px" width="5px" x="108px" y="52px" /><rect fill="rgb(18,18,4)" height="5px" width="5px" x="112px" y="52px" /><rect fill="rgb(18,18,4)" height="5px" width="5px" x="116px" y="52px" /><rect fill="rgb(18,18,4)" height="5px" opacity="0.96862745098" width="5px" x="28px" y="56px" /><rect fill="rgb(18,18,4)" height="5px" width="5px" x="32px" y="56px" /><rect fill="rgb(18,18,4)" height="5px" width="5px" x="36px" y="56px" /><rect fill="rgb(18,18,4)" height="5px" width="5px" x="40px" y="56px" /><rect fill="rgb(18,18,4)" height="5px" width="5px" x="44px" y="56px" /><rect fill="rgb(18,18,4)" height="5px" width="5px" x="48px" y="56px" /><rect fill="rgb(18,18,4)" height="5px" width="5px" x="52px" y="56px" /><rect fill="rgb(18,18,4)" height="5px" width="5px" x="56px" y="56px" /><rect fill="rgb(18,18,4)" height="5px" width="5px" x="60px" y="56px" /><rect fill="rgb(18,18,4)" height="5px" width="5px" x="64px" y="56px" /><rect fill="rgb(18,18,4)" height="5px" width="5px" x="68px" y="56px" /><rect fill="rgb(18,18,4)" height="5px" width="5px" x="72px" y="56px" /><rect fill="rgb(18,18,4)" height="5px" width="5px" x="76px" y="56px" /><rect fill="rgb(18,18,4)" height="5px" width="5px" x="80px" y="56px" /><rect fill="rgb(18,18,4)" height="5px" width="5px" x="84px" y="56px" /><rect fill="rgb(18,18,4)" height="5px" width="5px" x="92px" y="56px" /><rect fill="rgb(18,18,4)" height="5px" width="5px" x="96px" y="56px" /><rect fill="rgb(18,18,4)" height="5px" width="5px" x="100px" y="56px" /><rect fill="rgb(18,18,4)" height="5px" width="5px" x="104px" y="56px" /><rect fill="rgb(18,18,4)" height="5px" width="5px" x="108px" y="56px" /><rect fill="rgb(18,18,4)" height="5px" width="5px" x="112px" y="56px" /><rect fill="rgb(18,18,4)" height="5px" opacity="0.678431372549" width="5px" x="116px" y="56px" /><rect fill="rgb(18,18,4)" height="5px" width="5px" x="56px" y="60px" /><rect fill="rgb(18,18,4)" height="5px" width="5px" x="60px" y="60px" /><rect fill="rgb(18,18,4)" height="5px" opacity="0.980392156863" width="5px" x="64px" y="60px" /><rect fill="rgb(18,18,4)" height="5px" opacity="0.117647058824" width="5px" x="108px" y="60px" /><rect fill="rgb(18,18,4)" height="5px" width="5px" x="112px" y="60px" /><rect fill="rgb(18,18,4)" height="5px" opacity="0.078431372549" width="5px" x="116px" y="60px" /><rect fill="rgb(18,18,4)" height="5px" width="5px" x="56px" y="64px" /><rect fill="rgb(18,18,4)" height="5px" width="5px" x="60px" y="64px" /><rect fill="rgb(18,18,4)" height="5px" opacity="0.976470588235" width="5px" x="64px" y="64px" /><rect fill="rgb(18,18,4)" height="5px" opacity="0.196078431373" width="5px" x="108px" y="64px" /><rect fill="rgb(18,18,4)" height="5px" opacity="0.996078431373" width="5px" x="112px" y="64px" /><rect fill="rgb(18,18,4)" height="5px" opacity="0.176470588235" width="5px" x="52px" y="68px" /><rect fill="rgb(18,18,4)" height="5px" width="5px" x="56px" y="68px" /><rect fill="rgb(18,18,4)" height="5px" width="5px" x="60px" y="68px" /><rect fill="rgb(18,18,4)" height="5px" opacity="0.976470588235" width="5px" x="64px" y="68px" /><rect fill="rgb(18,18,4)" height="5px" opacity="0.607843137255" width="5px" x="104px" y="68px" /><rect fill="rgb(18,18,4)" height="5px" width="5px" x="108px" y="68px" /><rect fill="rgb(18,18,4)" height="5px" opacity="0.803921568627" width="5px" x="112px" y="68px" /><rect fill="rgb(18,18,4)" height="5px" opacity="0.141176470588" width="5px" x="52px" y="72px" /><rect fill="rgb(18,18,4)" height="5px" width="5px" x="56px" y="72px" /><rect fill="rgb(18,18,4)" height="5px" width="5px" x="60px" y="72px" /><rect fill="rgb(18,18,4)" height="5px" opacity="0.976470588235" width="5px" x="64px" y="72px" /><rect fill="rgb(18,18,4)" height="5px" opacity="0.0156862745098" width="5px" x="84px" y="72px" /><rect fill="rgb(18,18,4)" height="5px" width="5px" x="100px" y="72px" /><rect fill="rgb(18,18,4)" height="5px" width="5px" x="104px" y="72px" /><rect fill="rgb(18,18,4)" height="5px" width="5px" x="108px" y="72px" /><rect fill="rgb(18,18,4)" height="5px" opacity="0.0196078431373" width="5px" x="112px" y="72px" /><rect fill="rgb(18,18,4)" height="5px" width="5px" x="56px" y="76px" /><rect fill="rgb(18,18,4)" height="5px" width="5px" x="60px" y="76px" /><rect fill="rgb(18,18,4)" height="5px" opacity="0.972549019608" width="5px" x="64px" y="76px" /><rect fill="rgb(18,18,4)" height="5px" opacity="0.0823529411765" width="5px" x="84px" y="76px" /><rect fill="rgb(18,18,4)" height="5px" opacity="0.125490196078" width="5px" x="88px" y="76px" /><rect fill="rgb(18,18,4)" height="5px" width="5px" x="96px" y="76px" /><rect fill="rgb(18,18,4)" height="5px" width="5px" x="100px" y="76px" /><rect fill="rgb(18,18,4)" height="5px" width="5px" x="104px" y="76px" /><rect fill="rgb(18,18,4)" height="5px" opacity="0.521568627451" width="5px" x="108px" y="76px" /><rect fill="rgb(18,18,4)" height="5px" width="5px" x="56px" y="80px" /><rect fill="rgb(18,18,4)" height="5px" width="5px" x="60px" y="80px" /><rect fill="rgb(18,18,4)" height="5px" opacity="0.972549019608" width="5px" x="64px" y="80px" /><rect fill="rgb(18,18,4)" height="5px" opacity="0.345098039216" width="5px" x="88px" y="80px" /><rect fill="rgb(18,18,4)" height="5px" width="5px" x="92px" y="80px" /><rect fill="rgb(18,18,4)" height="5px" width="5px" x="96px" y="80px" /><rect fill="rgb(18,18,4)" height="5px" width="5px" x="100px" y="80px" /><rect fill="rgb(18,18,4)" height="5px" opacity="0.650980392157" width="5px" x="104px" y="80px" /><rect fill="rgb(18,18,4)" height="5px" opacity="0.0235294117647" width="5px" x="52px" y="84px" /><rect fill="rgb(18,18,4)" height="5px" width="5px" x="56px" y="84px" /><rect fill="rgb(18,18,4)" height="5px" width="5px" x="60px" y="84px" /><rect fill="rgb(18,18,4)" height="5px" opacity="0.972549019608" width="5px" x="64px" y="84px" /><rect fill="rgb(18,18,4)" height="5px" opacity="0.929411764706" width="5px" x="84px" y="84px" /><rect fill="rgb(18,18,4)" height="5px" width="5px" x="88px" y="84px" /><rect fill="rgb(18,18,4)" height="5px" width="5px" x="92px" y="84px" /><rect fill="rgb(18,18,4)" height="5px" opacity="0.976470588235" width="5px" x="96px" y="84px" /><rect fill="rgb(18,18,4)" height="5px" opacity="0.133333333333" width="5px" x="100px" y="84px" /><rect fill="rgb(18,18,4)" height="5px" opacity="0.18431372549" width="5px" x="52px" y="88px" /><rect fill="rgb(18,18,4)" height="5px" width="5px" x="56px" y="88px" /><rect fill="rgb(18,18,4)" height="5px" opacity="0.992156862745" width="5px" x="60px" y="88px" /><rect fill="rgb(18,18,4)" height="5px" width="5px" x="64px" y="88px" /><rect fill="rgb(18,18,4)" height="5px" opacity="0.0588235294118" width="5px" x="68px" y="88px" /><rect fill="rgb(18,18,4)" height="5px" opacity="0.172549019608" width="5px" x="88px" y="88px" /><rect fill="rgb(18,18,4)" height="5px" opacity="0.0392156862745" width="5px" x="92px" y="88px" /><rect fill="rgb(18,18,4)" height="5px" opacity="0.0196078431373" width="5px" x="48px" y="92px" /><rect fill="rgb(18,18,4)" height="5px" width="5px" x="52px" y="92px" /><rect fill="rgb(18,18,4)" height="5px" opacity="0.996078431373" width="5px" x="56px" y="92px" /><rect fill="rgb(18,18,4)" height="5px" opacity="0.211764705882" width="5px" x="60px" y="92px" /><rect fill="rgb(18,18,4)" height="5px" width="5px" x="64px" y="92px" /><rect fill="rgb(18,18,4)" height="5px" opacity="0.929411764706" width="5px" x="68px" y="92px" /><rect fill="rgb(18,18,4)" height="5px" opacity="0.803921568627" width="5px" x="48px" y="96px" /><rect fill="rgb(18,18,4)" height="5px" width="5px" x="52px" y="96px" /><rect fill="rgb(18,18,4)" height="5px" opacity="0.874509803922" width="5px" x="56px" y="96px" /><rect fill="rgb(18,18,4)" height="5px" opacity="0.886274509804" width="5px" x="64px" y="96px" /><rect fill="rgb(18,18,4)" height="5px" width="5px" x="68px" y="96px" /><rect fill="rgb(18,18,4)" height="5px" opacity="0.321568627451" width="5px" x="72px" y="96px" /><rect fill="rgb(18,18,4)" height="5px" opacity="0.996078431373" width="5px" x="48px" y="100px" /><rect fill="rgb(18,18,4)" height="5px" width="5px" x="52px" y="100px" /><rect fill="rgb(18,18,4)" height="5px" opacity="0.18431372549" width="5px" x="56px" y="100px" /><rect fill="rgb(18,18,4)" height="5px" width="5px" x="68px" y="100px" /><rect fill="rgb(18,18,4)" height="5px" opacity="0.98431372549" width="5px" x="72px" y="100px" /><rect fill="rgb(18,18,4)" height="5px" opacity="0.454901960784" width="5px" x="44px" y="104px" /><rect fill="rgb(18,18,4)" height="5px" width="5px" x="48px" y="104px" /><rect fill="rgb(18,18,4)" height="5px" opacity="0.992156862745" width="5px" x="52px" y="104px" /><rect fill="rgb(18,18,4)" height="5px" opacity="0.603921568627" width="5px" x="68px" y="104px" /><rect fill="rgb(18,18,4)" height="5px" width="5px" x="72px" y="104px" /><rect fill="rgb(18,18,4)" height="5px" opacity="0.603921568627" width="5px" x="76px" y="104px" /><rect fill="rgb(18,18,4)" height="5px" opacity="0.972549019608" width="5px" x="44px" y="108px" /><rect fill="rgb(18,18,4)" height="5px" width="5px" x="48px" y="108px" /><rect fill="rgb(18,18,4)" height="5px" opacity="0.76862745098" width="5px" x="52px" y="108px" /><rect fill="rgb(18,18,4)" height="5px" opacity="0.98431372549" width="5px" x="72px" y="108px" /><rect fill="rgb(18,18,4)" height="5px" opacity="0.996078431373" width="5px" x="76px" y="108px" /><rect fill="rgb(18,18,4)" height="5px" width="5px" x="40px" y="112px" /><rect fill="rgb(18,18,4)" height="5px" width="5px" x="44px" y="112px" /><rect fill="rgb(18,18,4)" height="5px" width="5px" x="48px" y="112px" /><rect fill="rgb(18,18,4)" height="5px" opacity="0.0588235294118" width="5px" x="52px" y="112px" /><rect fill="rgb(18,18,4)" height="5px" opacity="0.247058823529" width="5px" x="72px" y="112px" /><rect fill="rgb(18,18,4)" height="5px" width="5px" x="76px" y="112px" /><rect fill="rgb(18,18,4)" height="5px" width="5px" x="80px" y="112px" /><rect fill="rgb(18,18,4)" height="5px" width="5px" x="40px" y="116px" /><rect fill="rgb(18,18,4)" height="5px" opacity="0.956862745098" width="5px" x="44px" y="116px" /><rect fill="rgb(18,18,4)" height="5px" opacity="0.858823529412" width="5px" x="48px" y="116px" /><rect fill="rgb(18,18,4)" height="5px" width="5px" x="76px" y="116px" /><rect fill="rgb(18,18,4)" height="5px" opacity="0.941176470588" width="5px" x="80px" y="116px" /></svg>