<?xml version="1.0" encoding="utf-8" ?>
<svg baseProfile="full" height="128px" version="1.1" width="128px" xmlns="http://www.w3.org/2000/svg" xmlns:ev="http://www.w3.org/2001/xml-events" xmlns:xlink="http://www.w3.org/1999/xlink"><defs /><rect fill="rgb(125,125,125)" height="5px" width="5px" x="32px" y="16px" /><rect fill="rgb(49,49,49)" height="5px" width="5px" x="32px" y="20px" /><rect fill="rgb(49,49,49)" height="5px" width="5px" x="44px" y="20px" /><rect fill="rgb(125,125,125)" height="5px" width="5px" x="48px" y="20px" /><rect fill="rgb(49,49,49)" height="5px" width="5px" x="24px" y="24px" /><rect fill="rgb(49,49,49)" height="5px" width="5px" x="28px" y="24px" /><rect fill="rgb(49,49,49)" height="5px" width="5px" x="32px" y="24px" /><rect fill="rgb(0,0,0)" height="5px" width="5px" x="44px" y="24px" /><rect fill="rgb(49,49,49)" height="5px" width="5px" x="32px" y="28px" /><rect fill="rgb(164,168,182)" height="5px" width="5px" x="40px" y="28px" /><rect fill="rgb(101,114,154)" height="5px" width="5px" x="44px" y="28px" /><rect fill="rgb(101,114,154)" height="5px" width="5px" x="48px" y="28px" /><rect fill="rgb(164,168,182)" height="5px" width="5px" x="52px" y="28px" /><rect fill="rgb(49,49,49)" height="5px" width="5px" x="32px" y="32px" /><rect fill="rgb(128,137,165)" height="5px" width="5px" x="36px" y="32px" /><rect fill="rgb(101,114,154)" height="5px" width="5px" x="40px" y="32px" /><rect fill="rgb(101,114,154)" height="5px" width="5px" x="44px" y="32px" /><rect fill="rgb(101,114,154)" height="5px" width="5px" x="48px" y="32px" /><rect fill="rgb(128,137,165)" height="5px" width="5px" x="52px" y="32px" /><rect fill="rgb(49,49,49)" height="5px" width="5px" x="32px" y="36px" /><rect fill="rgb(200,200,200)" height="5px" width="5px" x="36px" y="36px" /><rect fill="rgb(93,107,149)" height="5px" width="5px" x="40px" y="36px" /><rect fill="rgb(101,114,154)" height="5px" width="5px" x="44px" y="36px" /><rect fill="rgb(101,114,154)" height="5px" width="5px" x="48px" y="36px" /><rect fill="rgb(101,114,154)" height="5px" width="5px" x="52px" y="36px" /><rect fill="rgb(128,137,165)" height="5px" width="5px" x="56px" y="36px" /><rect fill="rgb(0,6,26)" height="5px" width="5px" x="32px" y="40px" /><rect fill="rgb(101,114,154)" height="5px" width="5px" x="36px" y="40px" /><rect fill="rgb(79,95,143)" height="5px" width="5px" x="40px" y="40px" /><rect fill="rgb(101,114,154)" height="5px" width="5px" x="44px" y="40px" /><rect fill="rgb(101,114,154)" height="5px" width="5px" x="48px" y="40px" /><rect fill="rgb(93,107,149)" height="5px" width="5px" x="52px" y="40px" /><rect fill="rgb(164,168,182)" height="5px" width="5px" x="24px" y="44px" /><rect fill="rgb(79,95,143)" height="5px" width="5px" x="28px" y="44px" /><rect fill="rgb(39,50,84)" height="5px" width="5px" x="32px" y="44px" /><rect fill="rgb(101,114,154)" height="5px" width="5px" x="36px" y="44px" /><rect fill="rgb(79,95,143)" height="5px" width="5px" x="40px" y="44px" /><rect fill="rgb(101,114,154)" height="5px" width="5px" x="44px" y="44px" /><rect fill="rgb(101,114,154)" height="5px" width="5px" x="48px" y="44px" /><rect fill="rgb(93,107,149)" height="5px" width="5px" x="52px" y="44px" /><rect fill="rgb(164,168,182)" height="5px" width="5px" x="56px" y="44px" /><rect fill="rgb(49,49,49)" height="5px" width="5px" x="64px" y="44px" /><rect fill="rgb(49,49,49)" height="5px" width="5px" x="68px" y="44px" /><rect fill="rgb(125,125,125)" height="5px" width="5px" x="72px" y="44px" /><rect fill="rgb(101,114,154)" height="5px" width="5px" x="24px" y="48px" /><rect fill="rgb(101,114,154)" height="5px" width="5px" x="28px" y="48px" /><rect fill="rgb(144,153,177)" height="5px" width="5px" x="32px" y="48px" /><rect fill="rgb(144,153,177)" height="5px" width="5px" x="36px" y="48px" /><rect fill="rgb(144,153,177)" height="5px" width="5px" x="40px" y="48px" /><rect fill="rgb(144,153,177)" height="5px" width="5px" x="44px" y="48px" /><rect fill="rgb(144,153,177)" height="5px" width="5px" x="48px" y="48px" /><rect fill="rgb(144,153,177)" height="5px" width="5px" x="52px" y="48px" /><rect fill="rgb(21,25,37)" height="5px" width="5px" x="56px" y="48px" /><rect fill="rgb(0,0,15)" height="5px" width="5px" x="60px" y="48px" /><rect fill="rgb(58,76,132)" height="5px" width="5px" x="64px" y="48px" /><rect fill="rgb(51,92,142)" height="5px" width="5px" x="68px" y="48px" /><rect fill="rgb(10,46,82)" height="5px" width="5px" x="72px" y="48px" /><rect fill="rgb(122,153,175)" height="5px" width="5px" x="76px" y="48px" /><rect fill="rgb(122,153,175)" height="5px" width="5px" x="80px" y="48px" /><rect fill="rgb(122,153,175)" height="5px" width="5px" x="84px" y="48px" /><rect fill="rgb(161,176,187)" height="5px" width="5px" x="88px" y="48px" /><rect fill="rgb(122,153,175)" height="5px" width="5px" x="8px" y="52px" /><rect fill="rgb(122,153,175)" height="5px" width="5px" x="12px" y="52px" /><rect fill="rgb(122,153,175)" height="5px" width="5px" x="16px" y="52px" /><rect fill="rgb(49,49,49)" height="5px" width="5px" x="20px" y="52px" /><rect fill="rgb(0,6,26)" height="5px" width="5px" x="24px" y="52px" /><rect fill="rgb(61,70,96)" height="5px" width="5px" x="28px" y="52px" /><rect fill="rgb(144,153,177)" height="5px" width="5px" x="32px" y="52px" /><rect fill="rgb(144,153,177)" height="5px" width="5px" x="36px" y="52px" /><rect fill="rgb(144,153,177)" height="5px" width="5px" x="40px" y="52px" /><rect fill="rgb(144,153,177)" height="5px" width="5px" x="44px" y="52px" /><rect fill="rgb(144,153,177)" height="5px" width="5px" x="48px" y="52px" /><rect fill="rgb(144,153,177)" height="5px" width="5px" x="52px" y="52px" /><rect fill="rgb(21,25,37)" height="5px" width="5px" x="56px" y="52px" /><rect fill="rgb(0,0,15)" height="5px" width="5px" x="60px" y="52px" /><rect fill="rgb(0,0,15)" height="5px" width="5px" x="64px" y="52px" /><rect fill="rgb(0,0,15)" height="5px" width="5px" x="68px" y="52px" /><rect fill="rgb(0,0,0)" height="5px" width="5px" x="72px" y="52px" /><rect fill="rgb(125,125,125)" height="5px" width="5px" x="76px" y="52px" /><rect fill="rgb(49,49,49)" height="5px" width="5px" x="80px" y="52px" /><rect fill="rgb(49,49,49)" height="5px" width="5px" x="84px" y="52px" /><rect fill="rgb(49,49,49)" height="5px" width="5px" x="88px" y="52px" /><rect fill="rgb(125,125,125)" height="5px" width="5px" x="92px" y="52px" /><rect fill="rgb(49,49,49)" height="5px" width="5px" x="0px" y="56px" /><rect fill="rgb(49,49,49)" height="5px" width="5px" x="4px" y="56px" /><rect fill="rgb(49,49,49)" height="5px" width="5px" x="8px" y="56px" /><rect fill="rgb(49,49,49)" height="5px" width="5px" x="12px" y="56px" /><rect fill="rgb(58,76,132)" height="5px" width="5px" x="16px" y="56px" /><rect fill="rgb(51,92,142)" height="5px" width="5px" x="20px" y="56px" /><rect fill="rgb(58,76,132)" height="5px" width="5px" x="24px" y="56px" /><rect fill="rgb(0,0,15)" height="5px" width="5px" x="28px" y="56px" /><rect fill="rgb(58,76,132)" height="5px" width="5px" x="32px" y="56px" /><rect fill="rgb(58,76,132)" height="5px" width="5px" x="36px" y="56px" /><rect fill="rgb(58,76,132)" height="5px" width="5px" x="40px" y="56px" /><rect fill="rgb(58,76,132)" height="5px" width="5px" x="44px" y="56px" /><rect fill="rgb(58,76,132)" height="5px" width="5px" x="48px" y="56px" /><rect fill="rgb(58,76,132)" height="5px" width="5px" x="52px" y="56px" /><rect fill="rgb(58,76,132)" height="5px" width="5px" x="56px" y="56px" /><rect fill="rgb(58,76,132)" height="5px" width="5px" x="60px" y="56px" /><rect fill="rgb(58,76,132)" height="5px" width="5px" x="64px" y="56px" /><rect fill="rgb(58,76,132)" height="5px" width="5px" x="68px" y="56px" /><rect fill="rgb(58,76,132)" height="5px" width="5px" x="72px" y="56px" /><rect fill="rgb(0,0,15)" height="5px" width="5px" x="76px" y="56px" /><rect fill="rgb(58,76,132)" height="5px" width="5px" x="80px" y="56px" /><rect fill="rgb(54,84,137)" height="5px" width="5px" x="84px" y="56px" /><rect fill="rgb(51,92,142)" height="5px" width="5px" x="88px" y="56px" /><rect fill="rgb(10,46,82)" height="5px" width="5px" x="92px" y="56px" /><rect fill="rgb(122,153,175)" height="5px" width="5px" x="96px" y="56px" /><rect fill="rgb(122,153,175)" height="5px" width="5px" x="100px" y="56px" /><rect fill="rgb(125,125,125)" height="5px" width="5px" x="112px" y="56px" /><rect fill="rgb(49,49,49)" height="5px" width="5px" x="116px" y="56px" /><rect fill="rgb(49,49,49)" height="5px" width="5px" x="120px" y="56px" /><rect fill="rgb(125,125,125)" height="5px" width="5px" x="124px" y="56px" /><rect fill="rgb(21,25,37)" height="5px" width="5px" x="0px" y="60px" /><rect fill="rgb(144,153,177)" height="5px" width="5px" x="4px" y="60px" /><rect fill="rgb(144,153,177)" height="5px" width="5px" x="8px" y="60px" /><rect fill="rgb(21,25,37)" height="5px" width="5px" x="12px" y="60px" /><rect fill="rgb(21,25,37)" height="5px" width="5px" x="16px" y="60px" /><rect fill="rgb(21,25,37)" height="5px" width="5px" x="20px" y="60px" /><rect fill="rgb(21,25,37)" height="5px" width="5px" x="24px" y="60px" /><rect fill="rgb(21,25,37)" height="5px" width="5px" x="28px" y="60px" /><rect fill="rgb(21,25,37)" height="5px" width="5px" x="32px" y="60px" /><rect fill="rgb(21,25,37)" height="5px" width="5px" x="36px" y="60px" /><rect fill="rgb(21,25,37)" height="5px" width="5px" x="40px" y="60px" /><rect fill="rgb(21,25,37)" height="5px" width="5px" x="44px" y="60px" /><rect fill="rgb(21,25,37)" height="5px" width="5px" x="48px" y="60px" /><rect fill="rgb(21,25,37)" height="5px" width="5px" x="52px" y="60px" /><rect fill="rgb(21,25,37)" height="5px" width="5px" x="56px" y="60px" /><rect fill="rgb(21,25,37)" height="5px" width="5px" x="60px" y="60px" /><rect fill="rgb(21,25,37)" height="5px" width="5px" x="64px" y="60px" /><rect fill="rgb(21,25,37)" height="5px" width="5px" x="68px" y="60px" /><rect fill="rgb(21,25,37)" height="5px" width="5px" x="72px" y="60px" /><rect fill="rgb(0,6,26)" height="5px" width="5px" x="76px" y="60px" /><rect fill="rgb(0,0,15)" height="5px" width="5px" x="80px" y="60px" /><rect fill="rgb(0,0,15)" height="5px" width="5px" x="84px" y="60px" /><rect fill="rgb(0,0,15)" height="5px" width="5px" x="88px" y="60px" /><rect fill="rgb(0,0,15)" height="5px" width="5px" x="92px" y="60px" /><rect fill="rgb(0,0,15)" height="5px" width="5px" x="96px" y="60px" /><rect fill="rgb(0,0,15)" height="5px" width="5px" x="100px" y="60px" /><rect fill="rgb(0,0,15)" height="5px" width="5px" x="104px" y="60px" /><rect fill="rgb(0,0,15)" height="5px" width="5px" x="108px" y="60px" /><rect fill="rgb(39,50,84)" height="5px" width="5px" x="112px" y="60px" /><rect fill="rgb(101,114,154)" height="5px" width="5px" x="116px" y="60px" /><rect fill="rgb(101,114,154)" height="5px" width="5px" x="120px" y="60px" /><rect fill="rgb(0,6,26)" height="5px" width="5px" x="124px" y="60px" /><rect fill="rgb(35,37,43)" height="5px" width="5px" x="0px" y="64px" /><rect fill="rgb(144,153,177)" height="5px" width="5px" x="4px" y="64px" /><rect fill="rgb(144,153,177)" height="5px" width="5px" x="8px" y="64px" /><rect fill="rgb(144,153,177)" height="5px" width="5px" x="12px" y="64px" /><rect fill="rgb(144,153,177)" height="5px" width="5px" x="16px" y="64px" /><rect fill="rgb(144,153,177)" height="5px" width="5px" x="20px" y="64px" /><rect fill="rgb(144,153,177)" height="5px" width="5px" x="24px" y="64px" /><rect fill="rgb(144,153,177)" height="5px" width="5px" x="28px" y="64px" /><rect fill="rgb(144,153,177)" height="5px" width="5px" x="32px" y="64px" /><rect fill="rgb(144,153,177)" height="5px" width="5px" x="36px" y="64px" /><rect fill="rgb(144,153,177)" height="5px" width="5px" x="40px" y="64px" /><rect fill="rgb(144,153,177)" height="5px" width="5px" x="44px" y="64px" /><rect fill="rgb(144,153,177)" height="5px" width="5px" x="48px" y="64px" /><rect fill="rgb(144,153,177)" height="5px" width="5px" x="52px" y="64px" /><rect fill="rgb(144,153,177)" height="5px" width="5px" x="56px" y="64px" /><rect fill="rgb(144,153,177)" height="5px" width="5px" x="60px" y="64px" /><rect fill="rgb(144,153,177)" height="5px" width="5px" x="64px" y="64px" /><rect fill="rgb(144,153,177)" height="5px" width="5px" x="68px" y="64px" /><rect fill="rgb(144,153,177)" height="5px" width="5px" x="72px" y="64px" /><rect fill="rgb(144,153,177)" height="5px" width="5px" x="76px" y="64px" /><rect fill="rgb(144,153,177)" height="5px" width="5px" x="80px" y="64px" /><rect fill="rgb(144,153,177)" height="5px" width="5px" x="84px" y="64px" /><rect fill="rgb(144,153,177)" height="5px" width="5px" x="88px" y="64px" /><rect fill="rgb(144,153,177)" height="5px" width="5px" x="92px" y="64px" /><rect fill="rgb(144,153,177)" height="5px" width="5px" x="96px" y="64px" /><rect fill="rgb(144,153,177)" height="5px" width="5px" x="100px" y="64px" /><rect fill="rgb(144,153,177)" height="5px" width="5px" x="104px" y="64px" /><rect fill="rgb(144,153,177)" height="5px" width="5px" x="108px" y="64px" /><rect fill="rgb(144,153,177)" height="5px" width="5px" x="112px" y="64px" /><rect fill="rgb(144,153,177)" height="5px" width="5px" x="116px" y="64px" /><rect fill="rgb(144,153,177)" height="5px" width="5px" x="120px" y="64px" /><rect fill="rgb(35,37,43)" height="5px" width="5px" x="124px" y="64px" /><rect fill="rgb(49,49,49)" height="5px" width="5px" x="0px" y="68px" /><rect fill="rgb(144,153,177)" height="5px" width="5px" x="4px" y="68px" /><rect fill="rgb(144,153,177)" height="5px" width="5px" x="8px" y="68px" /><rect fill="rgb(144,153,177)" height="5px" width="5px" x="12px" y="68px" /><rect fill="rgb(144,153,177)" height="5px" width="5px" x="16px" y="68px" /><rect fill="rgb(144,153,177)" height="5px" width="5px" x="20px" y="68px" /><rect fill="rgb(144,153,177)" height="5px" width="5px" x="24px" y="68px" /><rect fill="rgb(144,153,177)" height="5px" width="5px" x="28px" y="68px" /><rect fill="rgb(144,153,177)" height="5px" width="5px" x="32px" y="68px" /><rect fill="rgb(144,153,177)" height="5px" width="5px" x="36px" y="68px" /><rect fill="rgb(144,153,177)" height="5px" width="5px" x="40px" y="68px" /><rect fill="rgb(144,153,177)" height="5px" width="5px" x="44px" y="68px" /><rect fill="rgb(144,153,177)" height="5px" width="5px" x="48px" y="68px" /><rect fill="rgb(144,153,177)" height="5px" width="5px" x="52px" y="68px" /><rect fill="rgb(144,153,177)" height="5px" width="5px" x="56px" y="68px" /><rect fill="rgb(144,153,177)" height="5px" width="5px" x="60px" y="68px" /><rect fill="rgb(144,153,177)" height="5px" width="5px" x="64px" y="68px" /><rect fill="rgb(144,153,177)" height="5px" width="5px" x="68px" y="68px" /><rect fill="rgb(144,153,177)" height="5px" width="5px" x="72px" y="68px" /><rect fill="rgb(144,153,177)" height="5px" width="5px" x="76px" y="68px" /><rect fill="rgb(144,153,177)" height="5px" width="5px" x="80px" y="68px" /><rect fill="rgb(144,153,177)" height="5px" width="5px" x="84px" y="68px" /><rect fill="rgb(144,153,177)" height="5px" width="5px" x="88px" y="68px" /><rect fill="rgb(144,153,177)" height="5px" width="5px" x="92px" y="68px" /><rect fill="rgb(144,153,177)" height="5px" width="5px" x="96px" y="68px" /><rect fill="rgb(144,153,177)" height="5px" width="5px" x="100px" y="68px" /><rect fill="rgb(144,153,177)" height="5px" width="5px" x="104px" y="68px" /><rect fill="rgb(144,153,177)" height="5px" width="5px" x="108px" y="68px" /><rect fill="rgb(144,153,177)" height="5px" width="5px" x="112px" y="68px" /><rect fill="rgb(144,153,177)" height="5px" width="5px" x="116px" y="68px" /><rect fill="rgb(35,37,43)" height="5px" width="5px" x="120px" y="68px" /><rect fill="rgb(49,49,49)" height="5px" width="5px" x="4px" y="72px" /><rect fill="rgb(49,49,49)" height="5px" width="5px" x="8px" y="72px" /><rect fill="rgb(49,49,49)" height="5px" width="5px" x="12px" y="72px" /><rect fill="rgb(49,49,49)" height="5px" width="5px" x="16px" y="72px" /><rect fill="rgb(49,49,49)" height="5px" width="5px" x="20px" y="72px" /><rect fill="rgb(49,49,49)" height="5px" width="5px" x="24px" y="72px" /><rect fill="rgb(49,49,49)" height="5px" width="5px" x="28px" y="72px" /><rect fill="rgb(49,49,49)" height="5px" width="5px" x="32px" y="72px" /><rect fill="rgb(49,49,49)" height="5px" width="5px" x="36px" y="72px" /><rect fill="rgb(49,49,49)" height="5px" width="5px" x="40px" y="72px" /><rect fill="rgb(49,49,49)" height="5px" width="5px" x="44px" y="72px" /><rect fill="rgb(49,49,49)" height="5px" width="5px" x="48px" y="72px" /><rect fill="rgb(49,49,49)" height="5px" width="5px" x="52px" y="72px" /><rect fill="rgb(49,49,49)" height="5px" width="5px" x="56px" y="72px" /><rect fill="rgb(49,49,49)" height="5px" width="5px" x="60px" y="72px" /><rect fill="rgb(49,49,49)" height="5px" width="5px" x="64px" y="72px" /><rect fill="rgb(49,49,49)" height="5px" width="5px" x="68px" y="72px" /><rect fill="rgb(49,49,49)" height="5px" width="5px" x="72px" y="72px" /><rect fill="rgb(49,49,49)" height="5px" width="5px" x="76px" y="72px" /><rect fill="rgb(49,49,49)" height="5px" width="5px" x="80px" y="72px" /><rect fill="rgb(49,49,49)" height="5px" width="5px" x="84px" y="72px" /><rect fill="rgb(49,49,49)" height="5px" width="5px" x="88px" y="72px" /><rect fill="rgb(49,49,49)" height="5px" width="5px" x="92px" y="72px" /><rect fill="rgb(49,49,49)" height="5px" width="5px" x="96px" y="72px" /><rect fill="rgb(49,49,49)" height="5px" width="5px" x="100px" y="72px" /><rect fill="rgb(49,49,49)" height="5px" width="5px" x="104px" y="72px" /><rect fill="rgb(49,49,49)" height="5px" width="5px" x="108px" y="72px" /><rect fill="rgb(49,49,49)" height="5px" width="5px" x="112px" y="72px" /><rect fill="rgb(49,49,49)" height="5px" width="5px" x="116px" y="72px" /></svg>