<?xml version="1.0" encoding="utf-8" ?>
<svg baseProfile="full" height="128px" version="1.1" width="128px" xmlns="http://www.w3.org/2000/svg" xmlns:ev="http://www.w3.org/2001/xml-events" xmlns:xlink="http://www.w3.org/1999/xlink"><defs /><rect fill="rgb(75,253,0)" height="5px" opacity="0.960784313725" width="5px" x="0px" y="12px" /><rect fill="rgb(73,255,0)" height="5px" opacity="0.23137254902" width="5px" x="4px" y="12px" /><rect fill="rgb(26,26,26)" height="5px" opacity="0.0392156862745" width="5px" x="8px" y="12px" /><rect fill="rgb(71,233,3)" height="5px" opacity="0.588235294118" width="5px" x="0px" y="16px" /><rect fill="rgb(71,222,5)" height="5px" opacity="0.737254901961" width="5px" x="4px" y="16px" /><rect fill="rgb(63,177,14)" height="5px" opacity="0.588235294118" width="5px" x="8px" y="16px" /><rect fill="rgb(53,171,0)" height="5px" opacity="0.356862745098" width="5px" x="12px" y="16px" /><rect fill="rgb(17,17,3)" height="5px" opacity="0.356862745098" width="5px" x="16px" y="16px" /><rect fill="rgb(16,16,3)" height="5px" opacity="0.372549019608" width="5px" x="20px" y="16px" /><rect fill="rgb(16,16,3)" height="5px" opacity="0.36862745098" width="5px" x="24px" y="16px" /><rect fill="rgb(17,17,4)" height="5px" opacity="0.239215686275" width="5px" x="28px" y="16px" /><rect fill="rgb(0,0,0)" height="5px" opacity="0.0313725490196" width="5px" x="32px" y="16px" /><rect fill="rgb(160,160,160)" height="5px" width="5px" x="76px" y="16px" /><rect fill="rgb(160,160,160)" height="5px" width="5px" x="80px" y="16px" /><rect fill="rgb(75,251,0)" height="5px" opacity="0.776470588235" width="5px" x="0px" y="20px" /><rect fill="rgb(71,222,5)" height="5px" opacity="0.737254901961" width="5px" x="4px" y="20px" /><rect fill="rgb(54,172,0)" height="5px" opacity="0.576470588235" width="5px" x="8px" y="20px" /><rect fill="rgb(31,75,3)" height="5px" opacity="0.949019607843" width="5px" x="12px" y="20px" /><rect fill="rgb(18,18,4)" height="5px" opacity="0.960784313725" width="5px" x="16px" y="20px" /><rect fill="rgb(18,18,4)" height="5px" opacity="0.996078431373" width="5px" x="20px" y="20px" /><rect fill="rgb(17,17,4)" height="5px" opacity="0.98431372549" width="5px" x="24px" y="20px" /><rect fill="rgb(17,17,4)" height="5px" opacity="0.823529411765" width="5px" x="28px" y="20px" /><rect fill="rgb(14,14,3)" height="5px" opacity="0.349019607843" width="5px" x="32px" y="20px" /><rect fill="rgb(0,0,0)" height="5px" opacity="0.0156862745098" width="5px" x="36px" y="20px" /><rect fill="rgb(160,160,160)" height="5px" width="5px" x="72px" y="20px" /><rect fill="rgb(160,160,160)" height="5px" width="5px" x="76px" y="20px" /><rect fill="rgb(160,160,160)" height="5px" width="5px" x="80px" y="20px" /><rect fill="rgb(0,0,0)" height="5px" opacity="0.00392156862745" width="5px" x="120px" y="20px" /><rect fill="rgb(70,220,6)" height="5px" opacity="0.8" width="5px" x="0px" y="24px" /><rect fill="rgb(76,255,0)" height="5px" width="5px" x="4px" y="24px" /><rect fill="rgb(17,17,4)" height="5px" opacity="0.83137254902" width="5px" x="8px" y="24px" /><rect fill="rgb(17,17,4)" height="5px" opacity="0.992156862745" width="5px" x="12px" y="24px" /><rect fill="rgb(17,17,4)" height="5px" opacity="0.96862745098" width="5px" x="16px" y="24px" /><rect fill="rgb(17,17,3)" height="5px" opacity="0.592156862745" width="5px" x="20px" y="24px" /><rect fill="rgb(17,17,4)" height="5px" opacity="0.929411764706" width="5px" x="24px" y="24px" /><rect fill="rgb(18,18,4)" height="5px" opacity="0.960784313725" width="5px" x="28px" y="24px" /><rect fill="rgb(16,16,4)" height="5px" opacity="0.850980392157" width="5px" x="32px" y="24px" /><rect fill="rgb(10,10,0)" height="5px" opacity="0.0980392156863" width="5px" x="36px" y="24px" /><rect fill="rgb(181,131,90)" height="5px" width="5px" x="72px" y="24px" /><rect fill="rgb(160,160,160)" height="5px" width="5px" x="76px" y="24px" /><rect fill="rgb(0,0,0)" height="5px" opacity="0.00392156862745" width="5px" x="120px" y="24px" /><rect fill="rgb(75,255,0)" height="5px" opacity="0.874509803922" width="5px" x="0px" y="28px" /><rect fill="rgb(75,255,0)" height="5px" opacity="0.874509803922" width="5px" x="4px" y="28px" /><rect fill="rgb(18,18,4)" height="5px" opacity="0.996078431373" width="5px" x="8px" y="28px" /><rect fill="rgb(17,17,3)" height="5px" opacity="0.98431372549" width="5px" x="12px" y="28px" /><rect fill="rgb(16,16,4)" height="5px" opacity="0.552941176471" width="5px" x="16px" y="28px" /><rect fill="rgb(0,0,0)" height="5px" opacity="0.0392156862745" width="5px" x="20px" y="28px" /><rect fill="rgb(17,17,3)" height="5px" opacity="0.349019607843" width="5px" x="24px" y="28px" /><rect fill="rgb(18,18,3)" height="5px" opacity="0.909803921569" width="5px" x="28px" y="28px" /><rect fill="rgb(18,18,4)" height="5px" opacity="0.996078431373" width="5px" x="32px" y="28px" /><rect fill="rgb(16,16,0)" height="5px" opacity="0.121568627451" width="5px" x="36px" y="28px" /><rect fill="rgb(181,131,90)" height="5px" width="5px" x="68px" y="28px" /><rect fill="rgb(18,18,4)" height="5px" opacity="0.996078431373" width="5px" x="8px" y="32px" /><rect fill="rgb(17,17,3)" height="5px" opacity="0.917647058824" width="5px" x="12px" y="32px" /><rect fill="rgb(16,16,3)" height="5px" opacity="0.36862745098" width="5px" x="16px" y="32px" /><rect fill="rgb(0,0,0)" height="5px" opacity="0.0117647058824" width="5px" x="20px" y="32px" /><rect fill="rgb(17,17,0)" height="5px" opacity="0.180392156863" width="5px" x="24px" y="32px" /><rect fill="rgb(18,18,4)" height="5px" opacity="0.772549019608" width="5px" x="28px" y="32px" /><rect fill="rgb(18,18,4)" height="5px" opacity="0.996078431373" width="5px" x="32px" y="32px" /><rect fill="rgb(16,16,0)" height="5px" opacity="0.121568627451" width="5px" x="36px" y="32px" /><rect fill="rgb(181,131,90)" height="5px" width="5px" x="64px" y="32px" /><rect fill="rgb(17,17,4)" height="5px" opacity="0.937254901961" width="5px" x="8px" y="36px" /><rect fill="rgb(18,18,4)" height="5px" opacity="0.996078431373" width="5px" x="12px" y="36px" /><rect fill="rgb(17,17,4)" height="5px" opacity="0.803921568627" width="5px" x="16px" y="36px" /><rect fill="rgb(17,17,3)" height="5px" opacity="0.345098039216" width="5px" x="20px" y="36px" /><rect fill="rgb(17,17,4)" height="5px" opacity="0.721568627451" width="5px" x="24px" y="36px" /><rect fill="rgb(18,18,4)" height="5px" opacity="0.964705882353" width="5px" x="28px" y="36px" /><rect fill="rgb(17,17,4)" height="5px" opacity="0.945098039216" width="5px" x="32px" y="36px" /><rect fill="rgb(18,18,0)" height="5px" opacity="0.113725490196" width="5px" x="36px" y="36px" /><rect fill="rgb(181,131,90)" height="5px" width="5px" x="60px" y="36px" /><rect fill="rgb(15,15,3)" height="5px" opacity="0.396078431373" width="5px" x="8px" y="40px" /><rect fill="rgb(17,17,4)" height="5px" opacity="0.952941176471" width="5px" x="12px" y="40px" /><rect fill="rgb(18,18,4)" height="5px" opacity="0.964705882353" width="5px" x="16px" y="40px" /><rect fill="rgb(17,17,3)" height="5px" opacity="0.941176470588" width="5px" x="20px" y="40px" /><rect fill="rgb(17,17,4)" height="5px" opacity="0.980392156863" width="5px" x="24px" y="40px" /><rect fill="rgb(17,17,4)" height="5px" opacity="0.937254901961" width="5px" x="28px" y="40px" /><rect fill="rgb(16,16,4)" height="5px" opacity="0.560784313725" width="5px" x="32px" y="40px" /><rect fill="rgb(0,0,0)" height="5px" opacity="0.0392156862745" width="5px" x="36px" y="40px" /><rect fill="rgb(181,131,90)" height="5px" width="5px" x="56px" y="40px" /><rect fill="rgb(181,131,90)" height="5px" width="5px" x="60px" y="40px" /><rect fill="rgb(0,0,0)" height="5px" opacity="0.0235294117647" width="5px" x="8px" y="44px" /><rect fill="rgb(17,17,2)" height="5px" opacity="0.419607843137" width="5px" x="12px" y="44px" /><rect fill="rgb(17,17,4)" height="5px" opacity="0.835294117647" width="5px" x="16px" y="44px" /><rect fill="rgb(17,17,3)" height="5px" opacity="0.874509803922" width="5px" x="20px" y="44px" /><rect fill="rgb(17,17,3)" height="5px" opacity="0.858823529412" width="5px" x="24px" y="44px" /><rect fill="rgb(16,16,4)" height="5px" opacity="0.564705882353" width="5px" x="28px" y="44px" /><rect fill="rgb(13,13,0)" height="5px" opacity="0.0745098039216" width="5px" x="32px" y="44px" /><rect fill="rgb(181,131,90)" height="5px" width="5px" x="52px" y="44px" /><rect fill="rgb(181,131,90)" height="5px" width="5px" x="56px" y="44px" /><rect fill="rgb(16,16,3)" height="5px" opacity="0.372549019608" width="5px" x="0px" y="48px" /><rect fill="rgb(16,16,3)" height="5px" opacity="0.36862745098" width="5px" x="4px" y="48px" /><rect fill="rgb(16,16,3)" height="5px" opacity="0.36862745098" width="5px" x="8px" y="48px" /><rect fill="rgb(16,16,3)" height="5px" opacity="0.36862745098" width="5px" x="12px" y="48px" /><rect fill="rgb(16,16,3)" height="5px" opacity="0.372549019608" width="5px" x="16px" y="48px" /><rect fill="rgb(16,16,3)" height="5px" opacity="0.372549019608" width="5px" x="20px" y="48px" /><rect fill="rgb(16,16,3)" height="5px" opacity="0.36862745098" width="5px" x="24px" y="48px" /><rect fill="rgb(16,16,3)" height="5px" opacity="0.36862745098" width="5px" x="28px" y="48px" /><rect fill="rgb(16,16,3)" height="5px" opacity="0.36862745098" width="5px" x="32px" y="48px" /><rect fill="rgb(16,16,3)" height="5px" opacity="0.36862745098" width="5px" x="36px" y="48px" /><rect fill="rgb(181,131,90)" height="5px" width="5px" x="52px" y="48px" /><rect fill="rgb(0,0,0)" height="5px" opacity="0.0156862745098" width="5px" x="112px" y="48px" /><rect fill="rgb(18,18,4)" height="5px" opacity="0.996078431373" width="5px" x="0px" y="52px" /><rect fill="rgb(18,18,4)" height="5px" opacity="0.996078431373" width="5px" x="4px" y="52px" /><rect fill="rgb(18,18,4)" height="5px" opacity="0.996078431373" width="5px" x="8px" y="52px" /><rect fill="rgb(18,18,4)" height="5px" opacity="0.996078431373" width="5px" x="12px" y="52px" /><rect fill="rgb(18,18,4)" height="5px" opacity="0.996078431373" width="5px" x="16px" y="52px" /><rect fill="rgb(18,18,4)" height="5px" opacity="0.996078431373" width="5px" x="20px" y="52px" /><rect fill="rgb(18,18,4)" height="5px" opacity="0.996078431373" width="5px" x="24px" y="52px" /><rect fill="rgb(18,18,4)" height="5px" opacity="0.996078431373" width="5px" x="28px" y="52px" /><rect fill="rgb(18,18,4)" height="5px" opacity="0.996078431373" width="5px" x="32px" y="52px" /><rect fill="rgb(18,18,4)" height="5px" opacity="0.996078431373" width="5px" x="36px" y="52px" /><rect fill="rgb(17,17,4)" height="5px" opacity="0.98431372549" width="5px" x="40px" y="52px" /><rect fill="rgb(18,18,4)" height="5px" width="5px" x="44px" y="52px" /><rect fill="rgb(181,131,90)" height="5px" width="5px" x="48px" y="52px" /><rect fill="rgb(36,36,36)" height="5px" opacity="0.0274509803922" width="5px" x="92px" y="52px" /><rect fill="rgb(95,67,41)" height="5px" opacity="0.388235294118" width="5px" x="108px" y="52px" /><rect fill="rgb(76,55,30)" height="5px" opacity="0.329411764706" width="5px" x="112px" y="52px" /><rect fill="rgb(0,0,0)" height="5px" opacity="0.0156862745098" width="5px" x="116px" y="52px" /><rect fill="rgb(16,16,0)" height="5px" opacity="0.121568627451" width="5px" x="0px" y="56px" /><rect fill="rgb(16,16,0)" height="5px" opacity="0.121568627451" width="5px" x="4px" y="56px" /><rect fill="rgb(16,16,0)" height="5px" opacity="0.121568627451" width="5px" x="8px" y="56px" /><rect fill="rgb(16,16,0)" height="5px" opacity="0.121568627451" width="5px" x="12px" y="56px" /><rect fill="rgb(18,18,3)" height="5px" opacity="0.670588235294" width="5px" x="16px" y="56px" /><rect fill="rgb(18,18,4)" height="5px" width="5px" x="20px" y="56px" /><rect fill="rgb(18,18,3)" height="5px" opacity="0.874509803922" width="5px" x="24px" y="56px" /><rect fill="rgb(16,16,0)" height="5px" opacity="0.121568627451" width="5px" x="28px" y="56px" /><rect fill="rgb(16,16,0)" height="5px" opacity="0.121568627451" width="5px" x="32px" y="56px" /><rect fill="rgb(16,16,0)" height="5px" opacity="0.121568627451" width="5px" x="36px" y="56px" /><rect fill="rgb(16,16,0)" height="5px" opacity="0.121568627451" width="5px" x="40px" y="56px" /><rect fill="rgb(181,131,90)" height="5px" width="5px" x="44px" y="56px" /><rect fill="rgb(36,36,36)" height="5px" opacity="0.0274509803922" width="5px" x="92px" y="56px" /><rect fill="rgb(99,68,44)" height="5px" opacity="0.545098039216" width="5px" x="104px" y="56px" /><rect fill="rgb(106,72,43)" height="5px" width="5px" x="108px" y="56px" /><rect fill="rgb(161,96,40)" height="5px" opacity="0.874509803922" width="5px" x="112px" y="56px" /><rect fill="rgb(116,69,25)" height="5px" opacity="0.403921568627" width="5px" x="116px" y="56px" /><rect fill="rgb(0,0,0)" height="5px" opacity="0.0274509803922" width="5px" x="120px" y="56px" /><rect fill="rgb(0,0,0)" height="5px" opacity="0.0078431372549" width="5px" x="12px" y="60px" /><rect fill="rgb(17,17,3)" height="5px" opacity="0.63137254902" width="5px" x="16px" y="60px" /><rect fill="rgb(18,18,4)" height="5px" width="5px" x="20px" y="60px" /><rect fill="rgb(18,18,4)" height="5px" opacity="0.850980392157" width="5px" x="24px" y="60px" /><rect fill="rgb(181,131,90)" height="5px" width="5px" x="40px" y="60px" /><rect fill="rgb(0,0,0)" height="5px" opacity="0.00392156862745" width="5px" x="84px" y="60px" /><rect fill="rgb(99,68,44)" height="5px" opacity="0.545098039216" width="5px" x="100px" y="60px" /><rect fill="rgb(169,100,42)" height="5px" opacity="0.98431372549" width="5px" x="104px" y="60px" /><rect fill="rgb(163,97,41)" height="5px" width="5px" x="108px" y="60px" /><rect fill="rgb(108,72,41)" height="5px" width="5px" x="112px" y="60px" /><rect fill="rgb(183,106,39)" height="5px" opacity="0.949019607843" width="5px" x="116px" y="60px" /><rect fill="rgb(188,108,40)" height="5px" opacity="0.878431372549" width="5px" x="120px" y="60px" /><rect fill="rgb(11,11,0)" height="5px" opacity="0.0901960784314" width="5px" x="124px" y="60px" /><rect fill="rgb(0,0,0)" height="5px" opacity="0.0392156862745" width="5px" x="12px" y="64px" /><rect fill="rgb(16,16,4)" height="5px" opacity="0.549019607843" width="5px" x="16px" y="64px" /><rect fill="rgb(17,17,3)" height="5px" opacity="0.976470588235" width="5px" x="20px" y="64px" /><rect fill="rgb(18,18,4)" height="5px" opacity="0.850980392157" width="5px" x="24px" y="64px" /><rect fill="rgb(181,131,90)" height="5px" width="5px" x="36px" y="64px" /><rect fill="rgb(181,131,90)" height="5px" width="5px" x="40px" y="64px" /><rect fill="rgb(52,39,20)" height="5px" opacity="0.152941176471" width="5px" x="52px" y="64px" /><rect fill="rgb(87,58,36)" height="5px" opacity="0.137254901961" width="5px" x="56px" y="64px" /><rect fill="rgb(163,92,35)" height="5px" opacity="0.141176470588" width="5px" x="60px" y="64px" /><rect fill="rgb(116,70,23)" height="5px" opacity="0.21568627451" width="5px" x="64px" y="64px" /><rect fill="rgb(153,89,32)" height="5px" opacity="0.156862745098" width="5px" x="68px" y="64px" /><rect fill="rgb(153,89,32)" height="5px" opacity="0.156862745098" width="5px" x="72px" y="64px" /><rect fill="rgb(189,107,41)" height="5px" opacity="0.121568627451" width="5px" x="76px" y="64px" /><rect fill="rgb(189,107,41)" height="5px" opacity="0.121568627451" width="5px" x="80px" y="64px" /><rect fill="rgb(189,107,41)" height="5px" opacity="0.121568627451" width="5px" x="84px" y="64px" /><rect fill="rgb(130,78,26)" height="5px" opacity="0.192156862745" width="5px" x="88px" y="64px" /><rect fill="rgb(143,86,39)" height="5px" opacity="0.23137254902" width="5px" x="92px" y="64px" /><rect fill="rgb(103,70,43)" height="5px" width="5px" x="96px" y="64px" /><rect fill="rgb(110,74,43)" height="5px" width="5px" x="100px" y="64px" /><rect fill="rgb(179,104,41)" height="5px" width="5px" x="104px" y="64px" /><rect fill="rgb(189,109,41)" height="5px" width="5px" x="108px" y="64px" /><rect fill="rgb(189,109,41)" height="5px" width="5px" x="112px" y="64px" /><rect fill="rgb(189,109,41)" height="5px" width="5px" x="116px" y="64px" /><rect fill="rgb(189,109,41)" height="5px" width="5px" x="120px" y="64px" /><rect fill="rgb(187,108,40)" height="5px" opacity="0.76862745098" width="5px" x="124px" y="64px" /><rect fill="rgb(99,69,44)" height="5px" width="5px" x="0px" y="68px" /><rect fill="rgb(99,69,44)" height="5px" width="5px" x="4px" y="68px" /><rect fill="rgb(99,69,44)" height="5px" width="5px" x="8px" y="68px" /><rect fill="rgb(99,69,44)" height="5px" width="5px" x="12px" y="68px" /><rect fill="rgb(89,63,39)" height="5px" width="5px" x="16px" y="68px" /><rect fill="rgb(70,51,30)" height="5px" width="5px" x="20px" y="68px" /><rect fill="rgb(73,52,31)" height="5px" width="5px" x="24px" y="68px" /><rect fill="rgb(99,69,44)" height="5px" width="5px" x="28px" y="68px" /><rect fill="rgb(99,69,44)" height="5px" width="5px" x="32px" y="68px" /><rect fill="rgb(181,131,90)" height="5px" width="5px" x="36px" y="68px" /><rect fill="rgb(99,69,44)" height="5px" width="5px" x="40px" y="68px" /><rect fill="rgb(95,66,44)" height="5px" opacity="0.137254901961" width="5px" x="48px" y="68px" /><rect fill="rgb(98,68,43)" height="5px" opacity="0.764705882353" width="5px" x="52px" y="68px" /><rect fill="rgb(98,69,43)" height="5px" opacity="0.670588235294" width="5px" x="56px" y="68px" /><rect fill="rgb(189,109,41)" height="5px" width="5px" x="60px" y="68px" /><rect fill="rgb(189,109,41)" height="5px" width="5px" x="64px" y="68px" /><rect fill="rgb(189,109,41)" height="5px" width="5px" x="68px" y="68px" /><rect fill="rgb(189,109,41)" height="5px" width="5px" x="72px" y="68px" /><rect fill="rgb(152,106,68)" height="5px" width="5px" x="76px" y="68px" /><rect fill="rgb(189,109,41)" height="5px" width="5px" x="80px" y="68px" /><rect fill="rgb(189,109,41)" height="5px" width="5px" x="84px" y="68px" /><rect fill="rgb(189,109,41)" height="5px" width="5px" x="88px" y="68px" /><rect fill="rgb(181,105,41)" height="5px" width="5px" x="92px" y="68px" /><rect fill="rgb(153,93,42)" height="5px" width="5px" x="96px" y="68px" /><rect fill="rgb(189,109,41)" height="5px" width="5px" x="100px" y="68px" /><rect fill="rgb(189,109,41)" height="5px" width="5px" x="104px" y="68px" /><rect fill="rgb(190,108,41)" height="5px" opacity="0.952941176471" width="5px" x="108px" y="68px" /><rect fill="rgb(189,109,40)" height="5px" opacity="0.623529411765" width="5px" x="112px" y="68px" /><rect fill="rgb(189,109,40)" height="5px" opacity="0.623529411765" width="5px" x="116px" y="68px" /><rect fill="rgb(189,109,40)" height="5px" opacity="0.623529411765" width="5px" x="120px" y="68px" /><rect fill="rgb(0,0,0)" height="5px" opacity="0.0313725490196" width="5px" x="124px" y="68px" /><rect fill="rgb(99,69,44)" height="5px" width="5px" x="0px" y="72px" /><rect fill="rgb(99,69,44)" height="5px" width="5px" x="4px" y="72px" /><rect fill="rgb(99,69,44)" height="5px" width="5px" x="8px" y="72px" /><rect fill="rgb(99,69,44)" height="5px" width="5px" x="12px" y="72px" /><rect fill="rgb(99,69,44)" height="5px" width="5px" x="16px" y="72px" /><rect fill="rgb(99,69,44)" height="5px" width="5px" x="20px" y="72px" /><rect fill="rgb(99,69,44)" height="5px" width="5px" x="24px" y="72px" /><rect fill="rgb(99,69,44)" height="5px" width="5px" x="28px" y="72px" /><rect fill="rgb(181,131,90)" height="5px" width="5px" x="32px" y="72px" /><rect fill="rgb(99,69,44)" height="5px" width="5px" x="36px" y="72px" /><rect fill="rgb(99,69,44)" height="5px" width="5px" x="40px" y="72px" /><rect fill="rgb(0,0,0)" height="5px" opacity="0.0117647058824" width="5px" x="44px" y="72px" /><rect fill="rgb(84,60,35)" height="5px" opacity="0.450980392157" width="5px" x="48px" y="72px" /><rect fill="rgb(99,69,44)" height="5px" width="5px" x="52px" y="72px" /><rect fill="rgb(99,66,41)" height="5px" opacity="0.121568627451" width="5px" x="56px" y="72px" /><rect fill="rgb(189,109,41)" height="5px" width="5px" x="60px" y="72px" /><rect fill="rgb(189,109,41)" height="5px" width="5px" x="64px" y="72px" /><rect fill="rgb(189,109,41)" height="5px" width="5px" x="68px" y="72px" /><rect fill="rgb(152,106,68)" height="5px" width="5px" x="72px" y="72px" /><rect fill="rgb(152,106,68)" height="5px" width="5px" x="76px" y="72px" /><rect fill="rgb(189,109,41)" height="5px" width="5px" x="80px" y="72px" /><rect fill="rgb(189,109,41)" height="5px" width="5px" x="84px" y="72px" /><rect fill="rgb(189,109,41)" height="5px" width="5px" x="88px" y="72px" /><rect fill="rgb(189,109,41)" height="5px" width="5px" x="92px" y="72px" /><rect fill="rgb(189,109,41)" height="5px" width="5px" x="96px" y="72px" /><rect fill="rgb(189,109,41)" height="5px" width="5px" x="100px" y="72px" /><rect fill="rgb(189,109,41)" height="5px" width="5px" x="104px" y="72px" /><rect fill="rgb(186,105,39)" height="5px" opacity="0.333333333333" width="5px" x="108px" y="72px" /><rect fill="rgb(99,69,44)" height="5px" width="5px" x="0px" y="76px" /><rect fill="rgb(99,69,44)" height="5px" width="5px" x="4px" y="76px" /><rect fill="rgb(99,69,44)" height="5px" width="5px" x="8px" y="76px" /><rect fill="rgb(99,69,44)" height="5px" width="5px" x="12px" y="76px" /><rect fill="rgb(69,49,32)" height="5px" width="5px" x="16px" y="76px" /><rect fill="rgb(69,49,32)" height="5px" width="5px" x="20px" y="76px" /><rect fill="rgb(69,49,32)" height="5px" width="5px" x="24px" y="76px" /><rect fill="rgb(181,131,90)" height="5px" width="5px" x="28px" y="76px" /><rect fill="rgb(99,69,44)" height="5px" width="5px" x="32px" y="76px" /><rect fill="rgb(99,69,44)" height="5px" width="5px" x="36px" y="76px" /><rect fill="rgb(99,69,44)" height="5px" width="5px" x="40px" y="76px" /><rect fill="rgb(0,0,0)" height="5px" opacity="0.0235294117647" width="5px" x="44px" y="76px" /><rect fill="rgb(79,57,34)" height="5px" opacity="0.494117647059" width="5px" x="48px" y="76px" /><rect fill="rgb(99,69,44)" height="5px" width="5px" x="52px" y="76px" /><rect fill="rgb(52,38,21)" height="5px" opacity="0.286274509804" width="5px" x="56px" y="76px" /><rect fill="rgb(189,109,41)" height="5px" width="5px" x="60px" y="76px" /><rect fill="rgb(152,106,68)" height="5px" width="5px" x="64px" y="76px" /><rect fill="rgb(152,106,68)" height="5px" width="5px" x="68px" y="76px" /><rect fill="rgb(152,106,68)" height="5px" width="5px" x="72px" y="76px" /><rect fill="rgb(152,106,68)" height="5px" width="5px" x="76px" y="76px" /><rect fill="rgb(189,109,41)" height="5px" width="5px" x="80px" y="76px" /><rect fill="rgb(189,109,41)" height="5px" width="5px" x="84px" y="76px" /><rect fill="rgb(189,109,41)" height="5px" width="5px" x="88px" y="76px" /><rect fill="rgb(189,109,41)" height="5px" width="5px" x="92px" y="76px" /><rect fill="rgb(189,109,41)" height="5px" width="5px" x="96px" y="76px" /><rect fill="rgb(189,109,41)" height="5px" width="5px" x="100px" y="76px" /><rect fill="rgb(133,78,29)" height="5px" opacity="0.345098039216" width="5px" x="104px" y="76px" /><rect fill="rgb(99,69,44)" height="5px" width="5px" x="0px" y="80px" /><rect fill="rgb(99,69,44)" height="5px" width="5px" x="4px" y="80px" /><rect fill="rgb(69,49,32)" height="5px" width="5px" x="8px" y="80px" /><rect fill="rgb(69,49,32)" height="5px" width="5px" x="12px" y="80px" /><rect fill="rgb(99,69,44)" height="5px" width="5px" x="16px" y="80px" /><rect fill="rgb(69,49,32)" height="5px" width="5px" x="20px" y="80px" /><rect fill="rgb(181,131,90)" height="5px" width="5px" x="24px" y="80px" /><rect fill="rgb(69,49,32)" height="5px" width="5px" x="28px" y="80px" /><rect fill="rgb(69,49,32)" height="5px" width="5px" x="32px" y="80px" /><rect fill="rgb(99,69,44)" height="5px" width="5px" x="36px" y="80px" /><rect fill="rgb(99,69,44)" height="5px" width="5px" x="40px" y="80px" /><rect fill="rgb(97,67,43)" height="5px" opacity="0.329411764706" width="5px" x="48px" y="80px" /><rect fill="rgb(96,67,42)" height="5px" opacity="0.901960784314" width="5px" x="52px" y="80px" /><rect fill="rgb(152,106,68)" height="5px" width="5px" x="56px" y="80px" /><rect fill="rgb(152,106,68)" height="5px" width="5px" x="60px" y="80px" /><rect fill="rgb(184,106,39)" height="5px" opacity="0.898039215686" width="5px" x="64px" y="80px" /><rect fill="rgb(186,107,40)" height="5px" opacity="0.96862745098" width="5px" x="68px" y="80px" /><rect fill="rgb(185,107,40)" height="5px" opacity="0.905882352941" width="5px" x="72px" y="80px" /><rect fill="rgb(152,106,68)" height="5px" width="5px" x="76px" y="80px" /><rect fill="rgb(183,105,40)" height="5px" opacity="0.901960784314" width="5px" x="80px" y="80px" /><rect fill="rgb(183,105,40)" height="5px" opacity="0.901960784314" width="5px" x="84px" y="80px" /><rect fill="rgb(189,109,41)" height="5px" opacity="0.98431372549" width="5px" x="88px" y="80px" /><rect fill="rgb(189,109,41)" height="5px" width="5px" x="92px" y="80px" /><rect fill="rgb(189,109,41)" height="5px" width="5px" x="96px" y="80px" /><rect fill="rgb(145,86,32)" height="5px" opacity="0.501960784314" width="5px" x="100px" y="80px" /><rect fill="rgb(0,0,0)" height="5px" opacity="0.0235294117647" width="5px" x="104px" y="80px" /><rect fill="rgb(99,69,44)" height="5px" width="5px" x="0px" y="84px" /><rect fill="rgb(99,69,44)" height="5px" width="5px" x="4px" y="84px" /><rect fill="rgb(69,49,32)" height="5px" width="5px" x="8px" y="84px" /><rect fill="rgb(69,49,32)" height="5px" width="5px" x="12px" y="84px" /><rect fill="rgb(99,69,44)" height="5px" width="5px" x="16px" y="84px" /><rect fill="rgb(69,49,32)" height="5px" width="5px" x="20px" y="84px" /><rect fill="rgb(99,69,44)" height="5px" width="5px" x="24px" y="84px" /><rect fill="rgb(69,49,32)" height="5px" width="5px" x="28px" y="84px" /><rect fill="rgb(99,69,44)" height="5px" width="5px" x="32px" y="84px" /><rect fill="rgb(69,49,32)" height="5px" width="5px" x="36px" y="84px" /><rect fill="rgb(99,69,44)" height="5px" width="5px" x="40px" y="84px" /><rect fill="rgb(0,0,0)" height="5px" opacity="0.0078431372549" width="5px" x="48px" y="84px" /><rect fill="rgb(152,106,68)" height="5px" width="5px" x="52px" y="84px" /><rect fill="rgb(14,14,0)" height="5px" opacity="0.141176470588" width="5px" x="56px" y="84px" /><rect fill="rgb(188,108,40)" height="5px" opacity="0.878431372549" width="5px" x="60px" y="84px" /><rect fill="rgb(16,16,0)" height="5px" opacity="0.121568627451" width="5px" x="64px" y="84px" /><rect fill="rgb(168,97,37)" height="5px" opacity="0.709803921569" width="5px" x="68px" y="84px" /><rect fill="rgb(74,48,16)" height="5px" opacity="0.376470588235" width="5px" x="72px" y="84px" /><rect fill="rgb(0,0,0)" height="5px" opacity="0.043137254902" width="5px" x="76px" y="84px" /><rect fill="rgb(13,13,0)" height="5px" opacity="0.149019607843" width="5px" x="80px" y="84px" /><rect fill="rgb(12,12,0)" height="5px" opacity="0.160784313725" width="5px" x="84px" y="84px" /><rect fill="rgb(185,106,39)" height="5px" opacity="0.894117647059" width="5px" x="88px" y="84px" /><rect fill="rgb(151,88,32)" height="5px" opacity="0.803921568627" width="5px" x="92px" y="84px" /><rect fill="rgb(174,100,37)" height="5px" opacity="0.839215686275" width="5px" x="96px" y="84px" /><rect fill="rgb(167,97,36)" height="5px" opacity="0.694117647059" width="5px" x="100px" y="84px" /><rect fill="rgb(143,80,32)" height="5px" opacity="0.0627450980392" width="5px" x="104px" y="84px" /><rect fill="rgb(99,69,44)" height="5px" width="5px" x="0px" y="88px" /><rect fill="rgb(69,49,32)" height="5px" width="5px" x="4px" y="88px" /><rect fill="rgb(99,69,44)" height="5px" width="5px" x="8px" y="88px" /><rect fill="rgb(99,69,44)" height="5px" width="5px" x="12px" y="88px" /><rect fill="rgb(69,49,32)" height="5px" width="5px" x="16px" y="88px" /><rect fill="rgb(69,49,32)" height="5px" width="5px" x="20px" y="88px" /><rect fill="rgb(69,49,32)" height="5px" width="5px" x="24px" y="88px" /><rect fill="rgb(99,69,44)" height="5px" width="5px" x="28px" y="88px" /><rect fill="rgb(99,69,44)" height="5px" width="5px" x="32px" y="88px" /><rect fill="rgb(69,49,32)" height="5px" width="5px" x="36px" y="88px" /><rect fill="rgb(99,69,44)" height="5px" width="5px" x="40px" y="88px" /><rect fill="rgb(152,106,68)" height="5px" width="5px" x="48px" y="88px" /><rect fill="rgb(189,109,40)" height="5px" opacity="0.874509803922" width="5px" x="60px" y="88px" /><rect fill="rgb(189,109,40)" height="5px" opacity="0.623529411765" width="5px" x="68px" y="88px" /><rect fill="rgb(155,91,34)" height="5px" opacity="0.83137254902" width="5px" x="72px" y="88px" /><rect fill="rgb(12,12,0)" height="5px" opacity="0.0862745098039" width="5px" x="76px" y="88px" /><rect fill="rgb(0,0,0)" height="5px" opacity="0.0274509803922" width="5px" x="84px" y="88px" /><rect fill="rgb(188,108,40)" height="5px" opacity="0.878431372549" width="5px" x="88px" y="88px" /><rect fill="rgb(17,17,0)" height="5px" opacity="0.176470588235" width="5px" x="92px" y="88px" /><rect fill="rgb(125,74,28)" height="5px" opacity="0.21568627451" width="5px" x="96px" y="88px" /><rect fill="rgb(188,109,41)" height="5px" opacity="0.764705882353" width="5px" x="100px" y="88px" /><rect fill="rgb(105,63,21)" height="5px" opacity="0.239215686275" width="5px" x="104px" y="88px" /><rect fill="rgb(99,69,44)" height="5px" width="5px" x="0px" y="92px" /><rect fill="rgb(69,49,32)" height="5px" width="5px" x="4px" y="92px" /><rect fill="rgb(69,49,32)" height="5px" width="5px" x="8px" y="92px" /><rect fill="rgb(69,49,32)" height="5px" width="5px" x="12px" y="92px" /><rect fill="rgb(69,49,32)" height="5px" width="5px" x="16px" y="92px" /><rect fill="rgb(69,49,32)" height="5px" width="5px" x="20px" y="92px" /><rect fill="rgb(69,49,32)" height="5px" width="5px" x="24px" y="92px" /><rect fill="rgb(69,49,32)" height="5px" width="5px" x="28px" y="92px" /><rect fill="rgb(69,49,32)" height="5px" width="5px" x="32px" y="92px" /><rect fill="rgb(69,49,32)" height="5px" width="5px" x="36px" y="92px" /><rect fill="rgb(99,69,44)" height="5px" width="5px" x="40px" y="92px" /><rect fill="rgb(152,106,68)" height="5px" width="5px" x="44px" y="92px" /><rect fill="rgb(189,109,40)" height="5px" opacity="0.874509803922" width="5px" x="60px" y="92px" /><rect fill="rgb(61,38,13)" height="5px" opacity="0.313725490196" width="5px" x="68px" y="92px" /><rect fill="rgb(180,103,38)" height="5px" opacity="0.937254901961" width="5px" x="72px" y="92px" /><rect fill="rgb(15,15,0)" height="5px" opacity="0.137254901961" width="5px" x="76px" y="92px" /><rect fill="rgb(0,0,0)" height="5px" opacity="0.00392156862745" width="5px" x="84px" y="92px" /><rect fill="rgb(189,109,40)" height="5px" opacity="0.874509803922" width="5px" x="88px" y="92px" /><rect fill="rgb(16,16,0)" height="5px" opacity="0.18431372549" width="5px" x="92px" y="92px" /><rect fill="rgb(189,109,40)" height="5px" opacity="0.623529411765" width="5px" x="100px" y="92px" /><rect fill="rgb(184,106,39)" height="5px" opacity="0.913725490196" width="5px" x="104px" y="92px" /><rect fill="rgb(69,49,32)" height="5px" width="5px" x="4px" y="96px" /><rect fill="rgb(69,49,32)" height="5px" width="5px" x="16px" y="96px" /><rect fill="rgb(69,49,32)" height="5px" width="5px" x="20px" y="96px" /><rect fill="rgb(69,49,32)" height="5px" width="5px" x="24px" y="96px" /><rect fill="rgb(69,49,32)" height="5px" width="5px" x="36px" y="96px" /><rect fill="rgb(189,109,40)" height="5px" opacity="0.874509803922" width="5px" x="60px" y="96px" /><rect fill="rgb(0,0,0)" height="5px" opacity="0.0313725490196" width="5px" x="68px" y="96px" /><rect fill="rgb(184,105,39)" height="5px" opacity="0.788235294118" width="5px" x="72px" y="96px" /><rect fill="rgb(189,109,40)" height="5px" opacity="0.874509803922" width="5px" x="76px" y="96px" /><rect fill="rgb(189,109,40)" height="5px" opacity="0.874509803922" width="5px" x="88px" y="96px" /><rect fill="rgb(0,0,0)" height="5px" opacity="0.0117647058824" width="5px" x="92px" y="96px" /><rect fill="rgb(9,9,0)" height="5px" opacity="0.113725490196" width="5px" x="100px" y="96px" /><rect fill="rgb(185,106,40)" height="5px" opacity="0.894117647059" width="5px" x="104px" y="96px" /><rect fill="rgb(0,0,0)" height="5px" opacity="0.0352941176471" width="5px" x="108px" y="96px" /><rect fill="rgb(69,49,32)" height="5px" width="5px" x="4px" y="100px" /><rect fill="rgb(69,49,32)" height="5px" width="5px" x="8px" y="100px" /><rect fill="rgb(69,49,32)" height="5px" width="5px" x="12px" y="100px" /><rect fill="rgb(69,49,32)" height="5px" width="5px" x="20px" y="100px" /><rect fill="rgb(69,49,32)" height="5px" width="5px" x="28px" y="100px" /><rect fill="rgb(69,49,32)" height="5px" width="5px" x="36px" y="100px" /><rect fill="rgb(189,108,40)" height="5px" opacity="0.545098039216" width="5px" x="60px" y="100px" /><rect fill="rgb(12,12,0)" height="5px" opacity="0.0862745098039" width="5px" x="72px" y="100px" /><rect fill="rgb(189,108,40)" height="5px" opacity="0.545098039216" width="5px" x="76px" y="100px" /><rect fill="rgb(189,108,40)" height="5px" opacity="0.545098039216" width="5px" x="88px" y="100px" /><rect fill="rgb(17,17,0)" height="5px" opacity="0.0588235294118" width="5px" x="92px" y="100px" /><rect fill="rgb(16,16,0)" height="5px" opacity="0.0627450980392" width="5px" x="100px" y="100px" /><rect fill="rgb(187,106,40)" height="5px" opacity="0.556862745098" width="5px" x="104px" y="100px" /><rect fill="rgb(17,17,0)" height="5px" opacity="0.180392156863" width="5px" x="108px" y="100px" /><rect fill="rgb(69,49,32)" height="5px" width="5px" x="8px" y="104px" /><rect fill="rgb(69,49,32)" height="5px" width="5px" x="20px" y="104px" /><rect fill="rgb(69,49,32)" height="5px" width="5px" x="32px" y="104px" /><rect fill="rgb(69,49,32)" height="5px" width="5px" x="12px" y="108px" /><rect fill="rgb(69,49,32)" height="5px" width="5px" x="16px" y="108px" /><rect fill="rgb(69,49,32)" height="5px" width="5px" x="20px" y="108px" /><rect fill="rgb(69,49,32)" height="5px" width="5px" x="24px" y="108px" /><rect fill="rgb(69,49,32)" height="5px" width="5px" x="28px" y="108px" /></svg>