<?xml version="1.0" encoding="utf-8" ?>
<svg baseProfile="full" height="128px" version="1.1" width="128px" xmlns="http://www.w3.org/2000/svg" xmlns:ev="http://www.w3.org/2001/xml-events" xmlns:xlink="http://www.w3.org/1999/xlink"><defs /><rect fill="rgb(144,153,177)" height="5px" width="5px" x="60px" y="48px" /><rect fill="rgb(144,153,177)" height="5px" width="5px" x="64px" y="48px" /><rect fill="rgb(144,153,177)" height="5px" width="5px" x="68px" y="48px" /><rect fill="rgb(144,153,177)" height="5px" width="5px" x="72px" y="48px" /><rect fill="rgb(58,76,132)" height="5px" width="5px" x="60px" y="52px" /><rect fill="rgb(58,76,132)" height="5px" width="5px" x="64px" y="52px" /><rect fill="rgb(58,76,132)" height="5px" width="5px" x="68px" y="52px" /><rect fill="rgb(58,76,132)" height="5px" width="5px" x="72px" y="52px" /><rect fill="rgb(144,153,177)" height="5px" width="5px" x="48px" y="56px" /><rect fill="rgb(144,153,177)" height="5px" width="5px" x="52px" y="56px" /><rect fill="rgb(144,153,177)" height="5px" width="5px" x="56px" y="56px" /><rect fill="rgb(144,153,177)" height="5px" width="5px" x="60px" y="56px" /><rect fill="rgb(144,153,177)" height="5px" width="5px" x="64px" y="56px" /><rect fill="rgb(144,153,177)" height="5px" width="5px" x="68px" y="56px" /><rect fill="rgb(144,153,177)" height="5px" width="5px" x="72px" y="56px" /><rect fill="rgb(58,76,132)" height="5px" width="5px" x="48px" y="60px" /><rect fill="rgb(58,76,132)" height="5px" width="5px" x="52px" y="60px" /><rect fill="rgb(58,76,132)" height="5px" width="5px" x="56px" y="60px" /><rect fill="rgb(144,153,177)" height="5px" width="5px" x="60px" y="60px" /><rect fill="rgb(144,153,177)" height="5px" width="5px" x="64px" y="60px" /><rect fill="rgb(144,153,177)" height="5px" width="5px" x="68px" y="60px" /><rect fill="rgb(144,153,177)" height="5px" width="5px" x="72px" y="60px" /><rect fill="rgb(58,76,132)" height="5px" width="5px" x="12px" y="64px" /><rect fill="rgb(58,76,132)" height="5px" width="5px" x="16px" y="64px" /><rect fill="rgb(58,76,132)" height="5px" width="5px" x="20px" y="64px" /><rect fill="rgb(58,76,132)" height="5px" width="5px" x="24px" y="64px" /><rect fill="rgb(58,76,132)" height="5px" width="5px" x="28px" y="64px" /><rect fill="rgb(23,23,0)" height="5px" opacity="0.0862745098039" width="5px" x="32px" y="64px" /><rect fill="rgb(144,153,177)" height="5px" width="5px" x="48px" y="64px" /><rect fill="rgb(144,153,177)" height="5px" width="5px" x="52px" y="64px" /><rect fill="rgb(144,153,177)" height="5px" width="5px" x="56px" y="64px" /><rect fill="rgb(144,153,177)" height="5px" width="5px" x="60px" y="64px" /><rect fill="rgb(144,153,177)" height="5px" width="5px" x="64px" y="64px" /><rect fill="rgb(144,153,177)" height="5px" width="5px" x="68px" y="64px" /><rect fill="rgb(144,153,177)" height="5px" width="5px" x="72px" y="64px" /><rect fill="rgb(58,76,132)" height="5px" width="5px" x="0px" y="68px" /><rect fill="rgb(58,76,132)" height="5px" width="5px" x="4px" y="68px" /><rect fill="rgb(58,76,132)" height="5px" width="5px" x="8px" y="68px" /><rect fill="rgb(58,76,132)" height="5px" width="5px" x="12px" y="68px" /><rect fill="rgb(58,76,132)" height="5px" width="5px" x="16px" y="68px" /><rect fill="rgb(58,76,132)" height="5px" width="5px" x="20px" y="68px" /><rect fill="rgb(58,76,132)" height="5px" width="5px" x="24px" y="68px" /><rect fill="rgb(58,76,132)" height="5px" width="5px" x="28px" y="68px" /><rect fill="rgb(0,0,0)" height="5px" opacity="0.0156862745098" width="5px" x="32px" y="68px" /><rect fill="rgb(144,153,177)" height="5px" width="5px" x="48px" y="68px" /><rect fill="rgb(144,153,177)" height="5px" width="5px" x="52px" y="68px" /><rect fill="rgb(144,153,177)" height="5px" width="5px" x="56px" y="68px" /><rect fill="rgb(144,153,177)" height="5px" width="5px" x="60px" y="68px" /><rect fill="rgb(144,153,177)" height="5px" width="5px" x="64px" y="68px" /><rect fill="rgb(144,153,177)" height="5px" width="5px" x="68px" y="68px" /><rect fill="rgb(144,153,177)" height="5px" width="5px" x="72px" y="68px" /><rect fill="rgb(23,23,0)" height="5px" opacity="0.0862745098039" width="5px" x="88px" y="68px" /><rect fill="rgb(58,76,132)" height="5px" width="5px" x="92px" y="68px" /><rect fill="rgb(58,76,132)" height="5px" width="5px" x="96px" y="68px" /><rect fill="rgb(58,76,132)" height="5px" width="5px" x="100px" y="68px" /><rect fill="rgb(58,76,132)" height="5px" width="5px" x="104px" y="68px" /><rect fill="rgb(58,76,132)" height="5px" width="5px" x="108px" y="68px" /><rect fill="rgb(58,76,132)" height="5px" width="5px" x="12px" y="72px" /><rect fill="rgb(58,76,132)" height="5px" width="5px" x="16px" y="72px" /><rect fill="rgb(58,76,132)" height="5px" width="5px" x="20px" y="72px" /><rect fill="rgb(58,76,132)" height="5px" width="5px" x="24px" y="72px" /><rect fill="rgb(58,76,132)" height="5px" width="5px" x="28px" y="72px" /><rect fill="rgb(16,16,0)" height="5px" opacity="0.121568627451" width="5px" x="32px" y="72px" /><rect fill="rgb(144,153,177)" height="5px" width="5px" x="48px" y="72px" /><rect fill="rgb(144,153,177)" height="5px" width="5px" x="52px" y="72px" /><rect fill="rgb(144,153,177)" height="5px" width="5px" x="56px" y="72px" /><rect fill="rgb(144,153,177)" height="5px" width="5px" x="60px" y="72px" /><rect fill="rgb(144,153,177)" height="5px" width="5px" x="64px" y="72px" /><rect fill="rgb(144,153,177)" height="5px" width="5px" x="68px" y="72px" /><rect fill="rgb(144,153,177)" height="5px" width="5px" x="72px" y="72px" /><rect fill="rgb(0,0,0)" height="5px" opacity="0.0156862745098" width="5px" x="88px" y="72px" /><rect fill="rgb(58,76,132)" height="5px" width="5px" x="92px" y="72px" /><rect fill="rgb(58,76,132)" height="5px" width="5px" x="96px" y="72px" /><rect fill="rgb(58,76,132)" height="5px" width="5px" x="100px" y="72px" /><rect fill="rgb(58,76,132)" height="5px" width="5px" x="104px" y="72px" /><rect fill="rgb(58,76,132)" height="5px" width="5px" x="108px" y="72px" /><rect fill="rgb(58,76,132)" height="5px" width="5px" x="112px" y="72px" /><rect fill="rgb(58,76,132)" height="5px" width="5px" x="116px" y="72px" /><rect fill="rgb(58,76,132)" height="5px" width="5px" x="120px" y="72px" /><rect fill="rgb(58,76,132)" height="5px" width="5px" x="12px" y="76px" /><rect fill="rgb(58,76,132)" height="5px" width="5px" x="16px" y="76px" /><rect fill="rgb(58,76,132)" height="5px" width="5px" x="20px" y="76px" /><rect fill="rgb(58,76,132)" height="5px" width="5px" x="24px" y="76px" /><rect fill="rgb(16,16,4)" height="5px" opacity="0.247058823529" width="5px" x="28px" y="76px" /><rect fill="rgb(144,153,177)" height="5px" width="5px" x="40px" y="76px" /><rect fill="rgb(144,153,177)" height="5px" width="5px" x="44px" y="76px" /><rect fill="rgb(144,153,177)" height="5px" width="5px" x="48px" y="76px" /><rect fill="rgb(144,153,177)" height="5px" width="5px" x="52px" y="76px" /><rect fill="rgb(144,153,177)" height="5px" width="5px" x="56px" y="76px" /><rect fill="rgb(58,76,132)" height="5px" width="5px" x="60px" y="76px" /><rect fill="rgb(58,76,132)" height="5px" width="5px" x="64px" y="76px" /><rect fill="rgb(144,153,177)" height="5px" width="5px" x="68px" y="76px" /><rect fill="rgb(144,153,177)" height="5px" width="5px" x="72px" y="76px" /><rect fill="rgb(16,16,0)" height="5px" opacity="0.121568627451" width="5px" x="88px" y="76px" /><rect fill="rgb(58,76,132)" height="5px" width="5px" x="92px" y="76px" /><rect fill="rgb(58,76,132)" height="5px" width="5px" x="96px" y="76px" /><rect fill="rgb(58,76,132)" height="5px" width="5px" x="100px" y="76px" /><rect fill="rgb(58,76,132)" height="5px" width="5px" x="104px" y="76px" /><rect fill="rgb(58,76,132)" height="5px" width="5px" x="108px" y="76px" /><rect fill="rgb(144,153,177)" height="5px" width="5px" x="16px" y="80px" /><rect fill="rgb(144,153,177)" height="5px" width="5px" x="20px" y="80px" /><rect fill="rgb(144,153,177)" height="5px" width="5px" x="24px" y="80px" /><rect fill="rgb(144,153,177)" height="5px" width="5px" x="40px" y="80px" /><rect fill="rgb(144,153,177)" height="5px" width="5px" x="44px" y="80px" /><rect fill="rgb(144,153,177)" height="5px" width="5px" x="48px" y="80px" /><rect fill="rgb(144,153,177)" height="5px" width="5px" x="52px" y="80px" /><rect fill="rgb(144,153,177)" height="5px" width="5px" x="56px" y="80px" /><rect fill="rgb(58,76,132)" height="5px" width="5px" x="60px" y="80px" /><rect fill="rgb(58,76,132)" height="5px" width="5px" x="64px" y="80px" /><rect fill="rgb(144,153,177)" height="5px" width="5px" x="68px" y="80px" /><rect fill="rgb(144,153,177)" height="5px" width="5px" x="72px" y="80px" /><rect fill="rgb(16,16,4)" height="5px" opacity="0.247058823529" width="5px" x="92px" y="80px" /><rect fill="rgb(58,76,132)" height="5px" width="5px" x="96px" y="80px" /><rect fill="rgb(58,76,132)" height="5px" width="5px" x="100px" y="80px" /><rect fill="rgb(58,76,132)" height="5px" width="5px" x="104px" y="80px" /><rect fill="rgb(58,76,132)" height="5px" width="5px" x="108px" y="80px" /><rect fill="rgb(58,76,132)" height="5px" width="5px" x="0px" y="84px" /><rect fill="rgb(58,76,132)" height="5px" width="5px" x="4px" y="84px" /><rect fill="rgb(58,76,132)" height="5px" width="5px" x="8px" y="84px" /><rect fill="rgb(58,76,132)" height="5px" width="5px" x="12px" y="84px" /><rect fill="rgb(58,76,132)" height="5px" width="5px" x="16px" y="84px" /><rect fill="rgb(58,76,132)" height="5px" width="5px" x="20px" y="84px" /><rect fill="rgb(58,76,132)" height="5px" width="5px" x="24px" y="84px" /><rect fill="rgb(58,76,132)" height="5px" width="5px" x="28px" y="84px" /><rect fill="rgb(58,76,132)" height="5px" width="5px" x="32px" y="84px" /><rect fill="rgb(58,76,132)" height="5px" width="5px" x="36px" y="84px" /><rect fill="rgb(58,76,132)" height="5px" width="5px" x="40px" y="84px" /><rect fill="rgb(58,76,132)" height="5px" width="5px" x="44px" y="84px" /><rect fill="rgb(58,76,132)" height="5px" width="5px" x="48px" y="84px" /><rect fill="rgb(58,76,132)" height="5px" width="5px" x="52px" y="84px" /><rect fill="rgb(58,76,132)" height="5px" width="5px" x="56px" y="84px" /><rect fill="rgb(58,76,132)" height="5px" width="5px" x="60px" y="84px" /><rect fill="rgb(58,76,132)" height="5px" width="5px" x="64px" y="84px" /><rect fill="rgb(58,76,132)" height="5px" width="5px" x="68px" y="84px" /><rect fill="rgb(58,76,132)" height="5px" width="5px" x="72px" y="84px" /><rect fill="rgb(58,76,132)" height="5px" width="5px" x="76px" y="84px" /><rect fill="rgb(58,76,132)" height="5px" width="5px" x="80px" y="84px" /><rect fill="rgb(58,76,132)" height="5px" width="5px" x="84px" y="84px" /><rect fill="rgb(20,20,15)" height="5px" opacity="0.203921568627" width="5px" x="88px" y="84px" /><rect fill="rgb(24,24,24)" height="5px" opacity="0.0823529411765" width="5px" x="92px" y="84px" /><rect fill="rgb(144,153,177)" height="5px" width="5px" x="96px" y="84px" /><rect fill="rgb(144,153,177)" height="5px" width="5px" x="100px" y="84px" /><rect fill="rgb(144,153,177)" height="5px" width="5px" x="104px" y="84px" /><rect fill="rgb(26,26,26)" height="5px" opacity="0.078431372549" width="5px" x="108px" y="84px" /><rect fill="rgb(27,27,27)" height="5px" opacity="0.0745098039216" width="5px" x="112px" y="84px" /><rect fill="rgb(20,20,10)" height="5px" opacity="0.101960784314" width="5px" x="116px" y="84px" /><rect fill="rgb(22,22,0)" height="5px" opacity="0.0901960784314" width="5px" x="120px" y="84px" /><rect fill="rgb(17,17,0)" height="5px" opacity="0.0588235294118" width="5px" x="124px" y="84px" /><rect fill="rgb(58,76,132)" height="5px" width="5px" x="0px" y="88px" /><rect fill="rgb(58,76,132)" height="5px" width="5px" x="4px" y="88px" /><rect fill="rgb(58,76,132)" height="5px" width="5px" x="8px" y="88px" /><rect fill="rgb(58,76,132)" height="5px" width="5px" x="12px" y="88px" /><rect fill="rgb(58,76,132)" height="5px" width="5px" x="16px" y="88px" /><rect fill="rgb(58,76,132)" height="5px" width="5px" x="20px" y="88px" /><rect fill="rgb(58,76,132)" height="5px" width="5px" x="24px" y="88px" /><rect fill="rgb(58,76,132)" height="5px" width="5px" x="28px" y="88px" /><rect fill="rgb(58,76,132)" height="5px" width="5px" x="32px" y="88px" /><rect fill="rgb(58,76,132)" height="5px" width="5px" x="36px" y="88px" /><rect fill="rgb(58,76,132)" height="5px" width="5px" x="40px" y="88px" /><rect fill="rgb(58,76,132)" height="5px" width="5px" x="44px" y="88px" /><rect fill="rgb(58,76,132)" height="5px" width="5px" x="48px" y="88px" /><rect fill="rgb(58,76,132)" height="5px" width="5px" x="52px" y="88px" /><rect fill="rgb(58,76,132)" height="5px" width="5px" x="56px" y="88px" /><rect fill="rgb(58,76,132)" height="5px" width="5px" x="60px" y="88px" /><rect fill="rgb(58,76,132)" height="5px" width="5px" x="64px" y="88px" /><rect fill="rgb(58,76,132)" height="5px" width="5px" x="68px" y="88px" /><rect fill="rgb(58,76,132)" height="5px" width="5px" x="72px" y="88px" /><rect fill="rgb(58,76,132)" height="5px" width="5px" x="76px" y="88px" /><rect fill="rgb(58,76,132)" height="5px" width="5px" x="80px" y="88px" /><rect fill="rgb(58,76,132)" height="5px" width="5px" x="84px" y="88px" /><rect fill="rgb(58,76,132)" height="5px" width="5px" x="88px" y="88px" /><rect fill="rgb(58,76,132)" height="5px" width="5px" x="92px" y="88px" /><rect fill="rgb(58,76,132)" height="5px" width="5px" x="96px" y="88px" /><rect fill="rgb(58,76,132)" height="5px" width="5px" x="100px" y="88px" /><rect fill="rgb(58,76,132)" height="5px" width="5px" x="104px" y="88px" /><rect fill="rgb(58,76,132)" height="5px" width="5px" x="108px" y="88px" /><rect fill="rgb(58,76,132)" height="5px" width="5px" x="112px" y="88px" /><rect fill="rgb(58,76,132)" height="5px" width="5px" x="116px" y="88px" /><rect fill="rgb(58,76,132)" height="5px" width="5px" x="120px" y="88px" /><rect fill="rgb(58,76,132)" height="5px" width="5px" x="124px" y="88px" /><rect fill="rgb(48,48,48)" height="5px" opacity="0.0627450980392" width="5px" x="0px" y="92px" /><rect fill="rgb(58,76,132)" height="5px" width="5px" x="4px" y="92px" /><rect fill="rgb(58,76,132)" height="5px" width="5px" x="8px" y="92px" /><rect fill="rgb(58,76,132)" height="5px" width="5px" x="12px" y="92px" /><rect fill="rgb(58,76,132)" height="5px" width="5px" x="16px" y="92px" /><rect fill="rgb(58,76,132)" height="5px" width="5px" x="20px" y="92px" /><rect fill="rgb(58,76,132)" height="5px" width="5px" x="24px" y="92px" /><rect fill="rgb(58,76,132)" height="5px" width="5px" x="28px" y="92px" /><rect fill="rgb(58,76,132)" height="5px" width="5px" x="32px" y="92px" /><rect fill="rgb(58,76,132)" height="5px" width="5px" x="36px" y="92px" /><rect fill="rgb(58,76,132)" height="5px" width="5px" x="40px" y="92px" /><rect fill="rgb(58,76,132)" height="5px" width="5px" x="44px" y="92px" /><rect fill="rgb(58,76,132)" height="5px" width="5px" x="48px" y="92px" /><rect fill="rgb(58,76,132)" height="5px" width="5px" x="52px" y="92px" /><rect fill="rgb(58,76,132)" height="5px" width="5px" x="56px" y="92px" /><rect fill="rgb(58,76,132)" height="5px" width="5px" x="60px" y="92px" /><rect fill="rgb(58,76,132)" height="5px" width="5px" x="64px" y="92px" /><rect fill="rgb(58,76,132)" height="5px" width="5px" x="68px" y="92px" /><rect fill="rgb(58,76,132)" height="5px" width="5px" x="72px" y="92px" /><rect fill="rgb(58,76,132)" height="5px" width="5px" x="76px" y="92px" /><rect fill="rgb(58,76,132)" height="5px" width="5px" x="80px" y="92px" /><rect fill="rgb(58,76,132)" height="5px" width="5px" x="84px" y="92px" /><rect fill="rgb(58,76,132)" height="5px" width="5px" x="88px" y="92px" /><rect fill="rgb(58,76,132)" height="5px" width="5px" x="92px" y="92px" /><rect fill="rgb(58,76,132)" height="5px" width="5px" x="96px" y="92px" /><rect fill="rgb(58,76,132)" height="5px" width="5px" x="100px" y="92px" /><rect fill="rgb(58,76,132)" height="5px" width="5px" x="104px" y="92px" /><rect fill="rgb(58,76,132)" height="5px" width="5px" x="108px" y="92px" /><rect fill="rgb(58,76,132)" height="5px" width="5px" x="112px" y="92px" /><rect fill="rgb(58,76,132)" height="5px" width="5px" x="116px" y="92px" /><rect fill="rgb(58,76,132)" height="5px" width="5px" x="120px" y="92px" /><rect fill="rgb(17,17,3)" height="5px" opacity="0.298039215686" width="5px" x="124px" y="92px" /><rect fill="rgb(38,38,38)" height="5px" opacity="0.211764705882" width="5px" x="4px" y="96px" /><rect fill="rgb(58,76,132)" height="5px" width="5px" x="8px" y="96px" /><rect fill="rgb(58,76,132)" height="5px" width="5px" x="12px" y="96px" /><rect fill="rgb(58,76,132)" height="5px" width="5px" x="16px" y="96px" /><rect fill="rgb(58,76,132)" height="5px" width="5px" x="20px" y="96px" /><rect fill="rgb(58,76,132)" height="5px" width="5px" x="24px" y="96px" /><rect fill="rgb(58,76,132)" height="5px" width="5px" x="28px" y="96px" /><rect fill="rgb(58,76,132)" height="5px" width="5px" x="32px" y="96px" /><rect fill="rgb(58,76,132)" height="5px" width="5px" x="36px" y="96px" /><rect fill="rgb(58,76,132)" height="5px" width="5px" x="40px" y="96px" /><rect fill="rgb(58,76,132)" height="5px" width="5px" x="44px" y="96px" /><rect fill="rgb(58,76,132)" height="5px" width="5px" x="48px" y="96px" /><rect fill="rgb(58,76,132)" height="5px" width="5px" x="52px" y="96px" /><rect fill="rgb(58,76,132)" height="5px" width="5px" x="56px" y="96px" /><rect fill="rgb(58,76,132)" height="5px" width="5px" x="60px" y="96px" /><rect fill="rgb(58,76,132)" height="5px" width="5px" x="64px" y="96px" /><rect fill="rgb(58,76,132)" height="5px" width="5px" x="68px" y="96px" /><rect fill="rgb(58,76,132)" height="5px" width="5px" x="72px" y="96px" /><rect fill="rgb(58,76,132)" height="5px" width="5px" x="76px" y="96px" /><rect fill="rgb(58,76,132)" height="5px" width="5px" x="80px" y="96px" /><rect fill="rgb(58,76,132)" height="5px" width="5px" x="84px" y="96px" /><rect fill="rgb(58,76,132)" height="5px" width="5px" x="88px" y="96px" /><rect fill="rgb(58,76,132)" height="5px" width="5px" x="92px" y="96px" /><rect fill="rgb(58,76,132)" height="5px" width="5px" x="96px" y="96px" /><rect fill="rgb(58,76,132)" height="5px" width="5px" x="100px" y="96px" /><rect fill="rgb(58,76,132)" height="5px" width="5px" x="104px" y="96px" /><rect fill="rgb(58,76,132)" height="5px" width="5px" x="108px" y="96px" /><rect fill="rgb(58,76,132)" height="5px" width="5px" x="112px" y="96px" /><rect fill="rgb(58,76,132)" height="5px" width="5px" x="116px" y="96px" /><rect fill="rgb(58,76,132)" height="5px" width="5px" x="120px" y="96px" /><rect fill="rgb(42,42,42)" height="5px" opacity="0.21568627451" width="5px" x="8px" y="100px" /><rect fill="rgb(58,76,132)" height="5px" width="5px" x="12px" y="100px" /><rect fill="rgb(58,76,132)" height="5px" width="5px" x="16px" y="100px" /><rect fill="rgb(58,76,132)" height="5px" width="5px" x="20px" y="100px" /><rect fill="rgb(58,76,132)" height="5px" width="5px" x="24px" y="100px" /><rect fill="rgb(58,76,132)" height="5px" width="5px" x="28px" y="100px" /><rect fill="rgb(58,76,132)" height="5px" width="5px" x="32px" y="100px" /><rect fill="rgb(58,76,132)" height="5px" width="5px" x="36px" y="100px" /><rect fill="rgb(58,76,132)" height="5px" width="5px" x="40px" y="100px" /><rect fill="rgb(58,76,132)" height="5px" width="5px" x="44px" y="100px" /><rect fill="rgb(58,76,132)" height="5px" width="5px" x="48px" y="100px" /><rect fill="rgb(58,76,132)" height="5px" width="5px" x="52px" y="100px" /><rect fill="rgb(58,76,132)" height="5px" width="5px" x="56px" y="100px" /><rect fill="rgb(58,76,132)" height="5px" width="5px" x="60px" y="100px" /><rect fill="rgb(58,76,132)" height="5px" width="5px" x="64px" y="100px" /><rect fill="rgb(58,76,132)" height="5px" width="5px" x="68px" y="100px" /><rect fill="rgb(58,76,132)" height="5px" width="5px" x="72px" y="100px" /><rect fill="rgb(58,76,132)" height="5px" width="5px" x="76px" y="100px" /><rect fill="rgb(58,76,132)" height="5px" width="5px" x="80px" y="100px" /><rect fill="rgb(58,76,132)" height="5px" width="5px" x="84px" y="100px" /><rect fill="rgb(58,76,132)" height="5px" width="5px" x="88px" y="100px" /><rect fill="rgb(58,76,132)" height="5px" width="5px" x="92px" y="100px" /><rect fill="rgb(58,76,132)" height="5px" width="5px" x="96px" y="100px" /><rect fill="rgb(58,76,132)" height="5px" width="5px" x="100px" y="100px" /><rect fill="rgb(58,76,132)" height="5px" width="5px" x="104px" y="100px" /><rect fill="rgb(58,76,132)" height="5px" width="5px" x="108px" y="100px" /><rect fill="rgb(58,76,132)" height="5px" width="5px" x="112px" y="100px" /><rect fill="rgb(58,76,132)" height="5px" width="5px" x="116px" y="100px" /><rect fill="rgb(19,19,4)" height="5px" opacity="0.258823529412" width="5px" x="120px" y="100px" /><rect fill="rgb(43,43,43)" height="5px" opacity="0.282352941176" width="5px" x="12px" y="104px" /><rect fill="rgb(58,76,132)" height="5px" width="5px" x="16px" y="104px" /><rect fill="rgb(58,76,132)" height="5px" width="5px" x="20px" y="104px" /><rect fill="rgb(58,76,132)" height="5px" width="5px" x="24px" y="104px" /><rect fill="rgb(58,76,132)" height="5px" width="5px" x="28px" y="104px" /><rect fill="rgb(58,76,132)" height="5px" width="5px" x="32px" y="104px" /><rect fill="rgb(58,76,132)" height="5px" width="5px" x="36px" y="104px" /><rect fill="rgb(58,76,132)" height="5px" width="5px" x="40px" y="104px" /><rect fill="rgb(58,76,132)" height="5px" width="5px" x="44px" y="104px" /><rect fill="rgb(58,76,132)" height="5px" width="5px" x="48px" y="104px" /><rect fill="rgb(58,76,132)" height="5px" width="5px" x="52px" y="104px" /><rect fill="rgb(58,76,132)" height="5px" width="5px" x="56px" y="104px" /><rect fill="rgb(58,76,132)" height="5px" width="5px" x="60px" y="104px" /><rect fill="rgb(58,76,132)" height="5px" width="5px" x="64px" y="104px" /><rect fill="rgb(58,76,132)" height="5px" width="5px" x="68px" y="104px" /><rect fill="rgb(58,76,132)" height="5px" width="5px" x="72px" y="104px" /><rect fill="rgb(58,76,132)" height="5px" width="5px" x="76px" y="104px" /><rect fill="rgb(58,76,132)" height="5px" width="5px" x="80px" y="104px" /><rect fill="rgb(58,76,132)" height="5px" width="5px" x="84px" y="104px" /><rect fill="rgb(58,76,132)" height="5px" width="5px" x="88px" y="104px" /><rect fill="rgb(58,76,132)" height="5px" width="5px" x="92px" y="104px" /><rect fill="rgb(58,76,132)" height="5px" width="5px" x="96px" y="104px" /><rect fill="rgb(58,76,132)" height="5px" width="5px" x="100px" y="104px" /><rect fill="rgb(58,76,132)" height="5px" width="5px" x="104px" y="104px" /><rect fill="rgb(58,76,132)" height="5px" width="5px" x="108px" y="104px" /><rect fill="rgb(58,76,132)" height="5px" width="5px" x="112px" y="104px" /><rect fill="rgb(13,13,0)" height="5px" opacity="0.078431372549" width="5px" x="116px" y="104px" /></svg>