<?xml version="1.0" encoding="utf-8" ?>
<svg baseProfile="full" height="128px" version="1.1" width="128px" xmlns="http://www.w3.org/2000/svg" xmlns:ev="http://www.w3.org/2001/xml-events" xmlns:xlink="http://www.w3.org/1999/xlink"><defs /><rect fill="rgb(134,94,60)" height="5px" width="5px" x="68px" y="20px" /><rect fill="rgb(255,255,255)" height="5px" opacity="0.972549019608" width="5px" x="72px" y="20px" /><rect fill="rgb(255,255,255)" height="5px" opacity="0.309803921569" width="5px" x="76px" y="20px" /><rect fill="rgb(134,94,60)" height="5px" width="5px" x="68px" y="24px" /><rect fill="rgb(255,255,255)" height="5px" width="5px" x="72px" y="24px" /><rect fill="rgb(255,255,255)" height="5px" width="5px" x="76px" y="24px" /><rect fill="rgb(255,255,255)" height="5px" opacity="0.988235294118" width="5px" x="80px" y="24px" /><rect fill="rgb(255,255,255)" height="5px" opacity="0.0941176470588" width="5px" x="84px" y="24px" /><rect fill="rgb(134,94,60)" height="5px" width="5px" x="68px" y="28px" /><rect fill="rgb(255,255,255)" height="5px" width="5px" x="80px" y="28px" /><rect fill="rgb(255,255,255)" height="5px" opacity="0.949019607843" width="5px" x="84px" y="28px" /><rect fill="rgb(134,94,60)" height="5px" width="5px" x="32px" y="32px" /><rect fill="rgb(255,255,255)" height="5px" opacity="0.941176470588" width="5px" x="36px" y="32px" /><rect fill="rgb(255,255,255)" height="5px" opacity="0.835294117647" width="5px" x="40px" y="32px" /><rect fill="rgb(255,255,255)" height="5px" opacity="0.262745098039" width="5px" x="44px" y="32px" /><rect fill="rgb(134,94,60)" height="5px" width="5px" x="68px" y="32px" /><rect fill="rgb(255,255,255)" height="5px" width="5px" x="84px" y="32px" /><rect fill="rgb(255,255,255)" height="5px" opacity="0.188235294118" width="5px" x="88px" y="32px" /><rect fill="rgb(134,94,60)" height="5px" width="5px" x="96px" y="32px" /><rect fill="rgb(255,255,255)" height="5px" opacity="0.996078431373" width="5px" x="100px" y="32px" /><rect fill="rgb(255,255,255)" height="5px" opacity="0.858823529412" width="5px" x="104px" y="32px" /><rect fill="rgb(255,255,255)" height="5px" opacity="0.180392156863" width="5px" x="108px" y="32px" /><rect fill="rgb(134,94,60)" height="5px" width="5px" x="32px" y="36px" /><rect fill="rgb(255,255,255)" height="5px" width="5px" x="40px" y="36px" /><rect fill="rgb(255,255,255)" height="5px" width="5px" x="44px" y="36px" /><rect fill="rgb(255,255,255)" height="5px" opacity="0.341176470588" width="5px" x="48px" y="36px" /><rect fill="rgb(134,94,60)" height="5px" width="5px" x="68px" y="36px" /><rect fill="rgb(255,255,255)" height="5px" width="5px" x="84px" y="36px" /><rect fill="rgb(255,255,255)" height="5px" opacity="0.0588235294118" width="5px" x="88px" y="36px" /><rect fill="rgb(134,94,60)" height="5px" width="5px" x="96px" y="36px" /><rect fill="rgb(255,255,255)" height="5px" width="5px" x="100px" y="36px" /><rect fill="rgb(255,255,255)" height="5px" width="5px" x="104px" y="36px" /><rect fill="rgb(255,255,255)" height="5px" opacity="0.964705882353" width="5px" x="108px" y="36px" /><rect fill="rgb(255,255,255)" height="5px" opacity="0.247058823529" width="5px" x="112px" y="36px" /><rect fill="rgb(134,94,60)" height="5px" width="5px" x="32px" y="40px" /><rect fill="rgb(255,255,255)" height="5px" width="5px" x="44px" y="40px" /><rect fill="rgb(255,255,255)" height="5px" width="5px" x="48px" y="40px" /><rect fill="rgb(255,255,255)" height="5px" opacity="0.274509803922" width="5px" x="52px" y="40px" /><rect fill="rgb(134,94,60)" height="5px" width="5px" x="68px" y="40px" /><rect fill="rgb(255,255,255)" height="5px" width="5px" x="84px" y="40px" /><rect fill="rgb(255,255,255)" height="5px" opacity="0.964705882353" width="5px" x="88px" y="40px" /><rect fill="rgb(134,94,60)" height="5px" width="5px" x="96px" y="40px" /><rect fill="rgb(255,255,255)" height="5px" width="5px" x="108px" y="40px" /><rect fill="rgb(255,255,255)" height="5px" width="5px" x="112px" y="40px" /><rect fill="rgb(255,255,255)" height="5px" opacity="0.227450980392" width="5px" x="116px" y="40px" /><rect fill="rgb(134,94,60)" height="5px" width="5px" x="32px" y="44px" /><rect fill="rgb(255,255,255)" height="5px" width="5px" x="48px" y="44px" /><rect fill="rgb(255,255,255)" height="5px" opacity="0.941176470588" width="5px" x="52px" y="44px" /><rect fill="rgb(134,94,60)" height="5px" width="5px" x="68px" y="44px" /><rect fill="rgb(255,255,255)" height="5px" opacity="0.996078431373" width="5px" x="88px" y="44px" /><rect fill="rgb(134,94,60)" height="5px" width="5px" x="96px" y="44px" /><rect fill="rgb(255,255,255)" height="5px" width="5px" x="112px" y="44px" /><rect fill="rgb(255,255,255)" height="5px" opacity="0.870588235294" width="5px" x="116px" y="44px" /><rect fill="rgb(134,94,60)" height="5px" width="5px" x="32px" y="48px" /><rect fill="rgb(255,255,255)" height="5px" width="5px" x="52px" y="48px" /><rect fill="rgb(255,255,255)" height="5px" opacity="0.0588235294118" width="5px" x="56px" y="48px" /><rect fill="rgb(134,94,60)" height="5px" width="5px" x="68px" y="48px" /><rect fill="rgb(255,255,255)" height="5px" width="5px" x="88px" y="48px" /><rect fill="rgb(134,94,60)" height="5px" width="5px" x="96px" y="48px" /><rect fill="rgb(255,255,255)" height="5px" width="5px" x="116px" y="48px" /><rect fill="rgb(255,255,255)" height="5px" opacity="0.0235294117647" width="5px" x="120px" y="48px" /><rect fill="rgb(134,94,60)" height="5px" width="5px" x="32px" y="52px" /><rect fill="rgb(255,255,255)" height="5px" width="5px" x="52px" y="52px" /><rect fill="rgb(255,255,255)" height="5px" opacity="0.243137254902" width="5px" x="56px" y="52px" /><rect fill="rgb(134,94,60)" height="5px" width="5px" x="68px" y="52px" /><rect fill="rgb(255,255,255)" height="5px" opacity="0.996078431373" width="5px" x="88px" y="52px" /><rect fill="rgb(134,94,60)" height="5px" width="5px" x="96px" y="52px" /><rect fill="rgb(255,255,255)" height="5px" width="5px" x="116px" y="52px" /><rect fill="rgb(255,255,255)" height="5px" opacity="0.176470588235" width="5px" x="120px" y="52px" /><rect fill="rgb(134,94,60)" height="5px" width="5px" x="32px" y="56px" /><rect fill="rgb(255,255,255)" height="5px" width="5px" x="52px" y="56px" /><rect fill="rgb(255,255,255)" height="5px" opacity="0.16862745098" width="5px" x="56px" y="56px" /><rect fill="rgb(134,94,60)" height="5px" width="5px" x="68px" y="56px" /><rect fill="rgb(255,255,255)" height="5px" width="5px" x="84px" y="56px" /><rect fill="rgb(255,255,255)" height="5px" opacity="0.976470588235" width="5px" x="88px" y="56px" /><rect fill="rgb(134,94,60)" height="5px" width="5px" x="96px" y="56px" /><rect fill="rgb(255,255,255)" height="5px" width="5px" x="116px" y="56px" /><rect fill="rgb(255,255,255)" height="5px" opacity="0.21568627451" width="5px" x="120px" y="56px" /><rect fill="rgb(134,94,60)" height="5px" width="5px" x="32px" y="60px" /><rect fill="rgb(255,255,255)" height="5px" width="5px" x="52px" y="60px" /><rect fill="rgb(255,255,255)" height="5px" opacity="0.180392156863" width="5px" x="56px" y="60px" /><rect fill="rgb(134,94,60)" height="5px" width="5px" x="68px" y="60px" /><rect fill="rgb(255,255,255)" height="5px" width="5px" x="84px" y="60px" /><rect fill="rgb(255,255,255)" height="5px" opacity="0.152941176471" width="5px" x="88px" y="60px" /><rect fill="rgb(134,94,60)" height="5px" width="5px" x="96px" y="60px" /><rect fill="rgb(255,255,255)" height="5px" width="5px" x="116px" y="60px" /><rect fill="rgb(255,255,255)" height="5px" opacity="0.262745098039" width="5px" x="120px" y="60px" /><rect fill="rgb(134,94,60)" height="5px" width="5px" x="32px" y="64px" /><rect fill="rgb(255,255,255)" height="5px" width="5px" x="52px" y="64px" /><rect fill="rgb(255,255,255)" height="5px" opacity="0.18431372549" width="5px" x="56px" y="64px" /><rect fill="rgb(134,94,60)" height="5px" width="5px" x="68px" y="64px" /><rect fill="rgb(255,255,255)" height="5px" width="5px" x="84px" y="64px" /><rect fill="rgb(255,255,255)" height="5px" opacity="0.192156862745" width="5px" x="88px" y="64px" /><rect fill="rgb(134,94,60)" height="5px" width="5px" x="96px" y="64px" /><rect fill="rgb(255,255,255)" height="5px" width="5px" x="116px" y="64px" /><rect fill="rgb(255,255,255)" height="5px" opacity="0.0588235294118" width="5px" x="120px" y="64px" /><rect fill="rgb(134,94,60)" height="5px" width="5px" x="32px" y="68px" /><rect fill="rgb(255,255,255)" height="5px" width="5px" x="48px" y="68px" /><rect fill="rgb(255,255,255)" height="5px" opacity="0.992156862745" width="5px" x="52px" y="68px" /><rect fill="rgb(134,94,60)" height="5px" width="5px" x="68px" y="68px" /><rect fill="rgb(255,255,255)" height="5px" width="5px" x="80px" y="68px" /><rect fill="rgb(255,255,255)" height="5px" width="5px" x="84px" y="68px" /><rect fill="rgb(134,94,60)" height="5px" width="5px" x="96px" y="68px" /><rect fill="rgb(255,255,255)" height="5px" width="5px" x="112px" y="68px" /><rect fill="rgb(255,255,255)" height="5px" width="5px" x="116px" y="68px" /><rect fill="rgb(134,94,60)" height="5px" width="5px" x="32px" y="72px" /><rect fill="rgb(255,255,255)" height="5px" width="5px" x="44px" y="72px" /><rect fill="rgb(255,255,255)" height="5px" width="5px" x="48px" y="72px" /><rect fill="rgb(255,255,255)" height="5px" opacity="0.282352941176" width="5px" x="52px" y="72px" /><rect fill="rgb(134,94,60)" height="5px" width="5px" x="68px" y="72px" /><rect fill="rgb(255,255,255)" height="5px" opacity="0.992156862745" width="5px" x="76px" y="72px" /><rect fill="rgb(255,255,255)" height="5px" width="5px" x="80px" y="72px" /><rect fill="rgb(255,255,255)" height="5px" opacity="0.105882352941" width="5px" x="84px" y="72px" /><rect fill="rgb(134,94,60)" height="5px" width="5px" x="96px" y="72px" /><rect fill="rgb(255,255,255)" height="5px" width="5px" x="108px" y="72px" /><rect fill="rgb(255,255,255)" height="5px" width="5px" x="112px" y="72px" /><rect fill="rgb(255,255,255)" height="5px" opacity="0.250980392157" width="5px" x="116px" y="72px" /><rect fill="rgb(134,94,60)" height="5px" width="5px" x="32px" y="76px" /><rect fill="rgb(255,255,255)" height="5px" opacity="0.988235294118" width="5px" x="36px" y="76px" /><rect fill="rgb(255,255,255)" height="5px" width="5px" x="40px" y="76px" /><rect fill="rgb(255,255,255)" height="5px" width="5px" x="44px" y="76px" /><rect fill="rgb(255,255,255)" height="5px" opacity="0.274509803922" width="5px" x="48px" y="76px" /><rect fill="rgb(134,94,60)" height="5px" width="5px" x="68px" y="76px" /><rect fill="rgb(255,255,255)" height="5px" width="5px" x="72px" y="76px" /><rect fill="rgb(255,255,255)" height="5px" width="5px" x="76px" y="76px" /><rect fill="rgb(255,255,255)" height="5px" opacity="0.0666666666667" width="5px" x="80px" y="76px" /><rect fill="rgb(134,94,60)" height="5px" width="5px" x="96px" y="76px" /><rect fill="rgb(255,255,255)" height="5px" width="5px" x="100px" y="76px" /><rect fill="rgb(255,255,255)" height="5px" width="5px" x="104px" y="76px" /><rect fill="rgb(255,255,255)" height="5px" opacity="0.937254901961" width="5px" x="108px" y="76px" /><rect fill="rgb(255,255,255)" height="5px" opacity="0.164705882353" width="5px" x="112px" y="76px" /><rect fill="rgb(134,94,60)" height="5px" width="5px" x="4px" y="80px" /><rect fill="rgb(134,94,60)" height="5px" width="5px" x="8px" y="80px" /><rect fill="rgb(134,94,60)" height="5px" width="5px" x="12px" y="80px" /><rect fill="rgb(134,94,60)" height="5px" width="5px" x="16px" y="80px" /><rect fill="rgb(134,94,60)" height="5px" width="5px" x="32px" y="80px" /><rect fill="rgb(255,255,255)" height="5px" opacity="0.258823529412" width="5px" x="36px" y="80px" /><rect fill="rgb(255,255,255)" height="5px" opacity="0.274509803922" width="5px" x="40px" y="80px" /><rect fill="rgb(255,255,255)" height="5px" opacity="0.203921568627" width="5px" x="44px" y="80px" /><rect fill="rgb(134,94,60)" height="5px" width="5px" x="68px" y="80px" /><rect fill="rgb(255,255,255)" height="5px" opacity="0.192156862745" width="5px" x="72px" y="80px" /><rect fill="rgb(255,255,255)" height="5px" opacity="0.23137254902" width="5px" x="76px" y="80px" /><rect fill="rgb(134,94,60)" height="5px" width="5px" x="96px" y="80px" /><rect fill="rgb(255,255,255)" height="5px" opacity="0.0196078431373" width="5px" x="100px" y="80px" /><rect fill="rgb(255,255,255)" height="5px" opacity="0.207843137255" width="5px" x="104px" y="80px" /><rect fill="rgb(134,94,60)" height="5px" width="5px" x="4px" y="84px" /><rect fill="rgb(134,94,60)" height="5px" width="5px" x="8px" y="84px" /><rect fill="rgb(134,94,60)" height="5px" width="5px" x="12px" y="84px" /><rect fill="rgb(134,94,60)" height="5px" width="5px" x="16px" y="84px" /><rect fill="rgb(134,94,60)" height="5px" width="5px" x="20px" y="84px" /><rect fill="rgb(134,94,60)" height="5px" width="5px" x="24px" y="84px" /><rect fill="rgb(134,94,60)" height="5px" width="5px" x="28px" y="84px" /><rect fill="rgb(134,94,60)" height="5px" width="5px" x="32px" y="84px" /><rect fill="rgb(134,94,60)" height="5px" width="5px" x="36px" y="84px" /><rect fill="rgb(134,94,60)" height="5px" width="5px" x="40px" y="84px" /><rect fill="rgb(134,94,60)" height="5px" width="5px" x="44px" y="84px" /><rect fill="rgb(134,94,60)" height="5px" width="5px" x="48px" y="84px" /><rect fill="rgb(134,94,60)" height="5px" width="5px" x="52px" y="84px" /><rect fill="rgb(134,94,60)" height="5px" width="5px" x="56px" y="84px" /><rect fill="rgb(134,94,60)" height="5px" width="5px" x="60px" y="84px" /><rect fill="rgb(134,94,60)" height="5px" width="5px" x="64px" y="84px" /><rect fill="rgb(134,94,60)" height="5px" width="5px" x="68px" y="84px" /><rect fill="rgb(134,94,60)" height="5px" width="5px" x="72px" y="84px" /><rect fill="rgb(134,94,60)" height="5px" width="5px" x="76px" y="84px" /><rect fill="rgb(134,94,60)" height="5px" width="5px" x="80px" y="84px" /><rect fill="rgb(134,94,60)" height="5px" width="5px" x="84px" y="84px" /><rect fill="rgb(134,94,60)" height="5px" width="5px" x="88px" y="84px" /><rect fill="rgb(134,94,60)" height="5px" width="5px" x="92px" y="84px" /><rect fill="rgb(134,94,60)" height="5px" width="5px" x="96px" y="84px" /><rect fill="rgb(134,94,60)" height="5px" width="5px" x="100px" y="84px" /><rect fill="rgb(134,94,60)" height="5px" width="5px" x="104px" y="84px" /><rect fill="rgb(134,94,60)" height="5px" width="5px" x="108px" y="84px" /><rect fill="rgb(134,94,60)" height="5px" width="5px" x="112px" y="84px" /><rect fill="rgb(134,94,60)" height="5px" width="5px" x="116px" y="84px" /><rect fill="rgb(134,94,60)" height="5px" width="5px" x="120px" y="84px" /><rect fill="rgb(134,94,60)" height="5px" width="5px" x="124px" y="84px" /><rect fill="rgb(134,94,60)" height="5px" width="5px" x="4px" y="88px" /><rect fill="rgb(134,94,60)" height="5px" width="5px" x="8px" y="88px" /><rect fill="rgb(134,94,60)" height="5px" width="5px" x="12px" y="88px" /><rect fill="rgb(134,94,60)" height="5px" width="5px" x="16px" y="88px" /><rect fill="rgb(134,94,60)" height="5px" width="5px" x="20px" y="88px" /><rect fill="rgb(134,94,60)" height="5px" width="5px" x="24px" y="88px" /><rect fill="rgb(134,94,60)" height="5px" width="5px" x="28px" y="88px" /><rect fill="rgb(134,94,60)" height="5px" width="5px" x="32px" y="88px" /><rect fill="rgb(134,94,60)" height="5px" width="5px" x="36px" y="88px" /><rect fill="rgb(134,94,60)" height="5px" width="5px" x="40px" y="88px" /><rect fill="rgb(134,94,60)" height="5px" width="5px" x="44px" y="88px" /><rect fill="rgb(134,94,60)" height="5px" width="5px" x="48px" y="88px" /><rect fill="rgb(134,94,60)" height="5px" width="5px" x="52px" y="88px" /><rect fill="rgb(134,94,60)" height="5px" width="5px" x="56px" y="88px" /><rect fill="rgb(134,94,60)" height="5px" width="5px" x="60px" y="88px" /><rect fill="rgb(134,94,60)" height="5px" width="5px" x="64px" y="88px" /><rect fill="rgb(134,94,60)" height="5px" width="5px" x="68px" y="88px" /><rect fill="rgb(134,94,60)" height="5px" width="5px" x="72px" y="88px" /><rect fill="rgb(134,94,60)" height="5px" width="5px" x="76px" y="88px" /><rect fill="rgb(134,94,60)" height="5px" width="5px" x="80px" y="88px" /><rect fill="rgb(134,94,60)" height="5px" width="5px" x="84px" y="88px" /><rect fill="rgb(134,94,60)" height="5px" width="5px" x="88px" y="88px" /><rect fill="rgb(134,94,60)" height="5px" width="5px" x="92px" y="88px" /><rect fill="rgb(134,94,60)" height="5px" width="5px" x="96px" y="88px" /><rect fill="rgb(134,94,60)" height="5px" width="5px" x="100px" y="88px" /><rect fill="rgb(134,94,60)" height="5px" width="5px" x="104px" y="88px" /><rect fill="rgb(134,94,60)" height="5px" width="5px" x="108px" y="88px" /><rect fill="rgb(134,94,60)" height="5px" width="5px" x="112px" y="88px" /><rect fill="rgb(134,94,60)" height="5px" width="5px" x="116px" y="88px" /><rect fill="rgb(134,94,60)" height="5px" width="5px" x="120px" y="88px" /><rect fill="rgb(134,94,60)" height="5px" width="5px" x="124px" y="88px" /><rect fill="rgb(134,94,60)" height="5px" width="5px" x="4px" y="92px" /><rect fill="rgb(134,94,60)" height="5px" width="5px" x="8px" y="92px" /><rect fill="rgb(134,94,60)" height="5px" width="5px" x="12px" y="92px" /><rect fill="rgb(134,94,60)" height="5px" width="5px" x="16px" y="92px" /><rect fill="rgb(42,42,42)" height="5px" width="5px" x="20px" y="92px" /><rect fill="rgb(134,94,60)" height="5px" width="5px" x="24px" y="92px" /><rect fill="rgb(42,42,42)" height="5px" width="5px" x="28px" y="92px" /><rect fill="rgb(134,94,60)" height="5px" width="5px" x="32px" y="92px" /><rect fill="rgb(42,42,42)" height="5px" width="5px" x="36px" y="92px" /><rect fill="rgb(134,94,60)" height="5px" width="5px" x="40px" y="92px" /><rect fill="rgb(35,35,32)" height="5px" width="5px" x="44px" y="92px" /><rect fill="rgb(134,94,60)" height="5px" width="5px" x="48px" y="92px" /><rect fill="rgb(42,42,42)" height="5px" width="5px" x="52px" y="92px" /><rect fill="rgb(134,94,60)" height="5px" width="5px" x="56px" y="92px" /><rect fill="rgb(42,42,42)" height="5px" width="5px" x="60px" y="92px" /><rect fill="rgb(134,94,60)" height="5px" width="5px" x="64px" y="92px" /><rect fill="rgb(42,42,42)" height="5px" width="5px" x="68px" y="92px" /><rect fill="rgb(134,94,60)" height="5px" width="5px" x="72px" y="92px" /><rect fill="rgb(42,42,42)" height="5px" width="5px" x="76px" y="92px" /><rect fill="rgb(134,94,60)" height="5px" width="5px" x="80px" y="92px" /><rect fill="rgb(42,42,42)" height="5px" width="5px" x="84px" y="92px" /><rect fill="rgb(134,94,60)" height="5px" width="5px" x="88px" y="92px" /><rect fill="rgb(42,42,42)" height="5px" width="5px" x="92px" y="92px" /><rect fill="rgb(134,94,60)" height="5px" width="5px" x="96px" y="92px" /><rect fill="rgb(36,36,33)" height="5px" width="5px" x="100px" y="92px" /><rect fill="rgb(134,94,60)" height="5px" width="5px" x="104px" y="92px" /><rect fill="rgb(42,42,42)" height="5px" width="5px" x="108px" y="92px" /><rect fill="rgb(134,94,60)" height="5px" width="5px" x="112px" y="92px" /><rect fill="rgb(134,94,60)" height="5px" width="5px" x="116px" y="92px" /><rect fill="rgb(134,94,60)" height="5px" width="5px" x="120px" y="92px" /><rect fill="rgb(134,94,60)" height="5px" width="5px" x="4px" y="96px" /><rect fill="rgb(134,94,60)" height="5px" width="5px" x="8px" y="96px" /><rect fill="rgb(134,94,60)" height="5px" width="5px" x="12px" y="96px" /><rect fill="rgb(134,94,60)" height="5px" width="5px" x="16px" y="96px" /><rect fill="rgb(134,94,60)" height="5px" width="5px" x="20px" y="96px" /><rect fill="rgb(134,94,60)" height="5px" width="5px" x="24px" y="96px" /><rect fill="rgb(134,94,60)" height="5px" width="5px" x="28px" y="96px" /><rect fill="rgb(134,94,60)" height="5px" width="5px" x="32px" y="96px" /><rect fill="rgb(134,94,60)" height="5px" width="5px" x="36px" y="96px" /><rect fill="rgb(134,94,60)" height="5px" width="5px" x="40px" y="96px" /><rect fill="rgb(134,94,60)" height="5px" width="5px" x="44px" y="96px" /><rect fill="rgb(134,94,60)" height="5px" width="5px" x="48px" y="96px" /><rect fill="rgb(134,94,60)" height="5px" width="5px" x="52px" y="96px" /><rect fill="rgb(134,94,60)" height="5px" width="5px" x="56px" y="96px" /><rect fill="rgb(134,94,60)" height="5px" width="5px" x="60px" y="96px" /><rect fill="rgb(134,94,60)" height="5px" width="5px" x="64px" y="96px" /><rect fill="rgb(134,94,60)" height="5px" width="5px" x="68px" y="96px" /><rect fill="rgb(134,94,60)" height="5px" width="5px" x="72px" y="96px" /><rect fill="rgb(134,94,60)" height="5px" width="5px" x="76px" y="96px" /><rect fill="rgb(134,94,60)" height="5px" width="5px" x="80px" y="96px" /><rect fill="rgb(134,94,60)" height="5px" width="5px" x="84px" y="96px" /><rect fill="rgb(134,94,60)" height="5px" width="5px" x="88px" y="96px" /><rect fill="rgb(134,94,60)" height="5px" width="5px" x="92px" y="96px" /><rect fill="rgb(134,94,60)" height="5px" width="5px" x="96px" y="96px" /><rect fill="rgb(134,94,60)" height="5px" width="5px" x="100px" y="96px" /><rect fill="rgb(134,94,60)" height="5px" width="5px" x="104px" y="96px" /><rect fill="rgb(134,94,60)" height="5px" width="5px" x="108px" y="96px" /><rect fill="rgb(134,94,60)" height="5px" width="5px" x="112px" y="96px" /><rect fill="rgb(134,94,60)" height="5px" width="5px" x="116px" y="96px" /><rect fill="rgb(134,94,60)" height="5px" width="5px" x="120px" y="96px" /><rect fill="rgb(134,94,60)" height="5px" width="5px" x="4px" y="100px" /><rect fill="rgb(134,94,60)" height="5px" width="5px" x="8px" y="100px" /><rect fill="rgb(134,94,60)" height="5px" width="5px" x="12px" y="100px" /><rect fill="rgb(134,94,60)" height="5px" width="5px" x="16px" y="100px" /><rect fill="rgb(134,94,60)" height="5px" width="5px" x="20px" y="100px" /><rect fill="rgb(134,94,60)" height="5px" width="5px" x="24px" y="100px" /><rect fill="rgb(134,94,60)" height="5px" width="5px" x="28px" y="100px" /><rect fill="rgb(134,94,60)" height="5px" width="5px" x="32px" y="100px" /><rect fill="rgb(134,94,60)" height="5px" width="5px" x="36px" y="100px" /><rect fill="rgb(134,94,60)" height="5px" width="5px" x="40px" y="100px" /><rect fill="rgb(134,94,60)" height="5px" width="5px" x="44px" y="100px" /><rect fill="rgb(134,94,60)" height="5px" width="5px" x="48px" y="100px" /><rect fill="rgb(134,94,60)" height="5px" width="5px" x="52px" y="100px" /><rect fill="rgb(134,94,60)" height="5px" width="5px" x="56px" y="100px" /><rect fill="rgb(134,94,60)" height="5px" width="5px" x="60px" y="100px" /><rect fill="rgb(134,94,60)" height="5px" width="5px" x="64px" y="100px" /><rect fill="rgb(134,94,60)" height="5px" width="5px" x="68px" y="100px" /><rect fill="rgb(134,94,60)" height="5px" width="5px" x="72px" y="100px" /><rect fill="rgb(134,94,60)" height="5px" width="5px" x="76px" y="100px" /><rect fill="rgb(134,94,60)" height="5px" width="5px" x="80px" y="100px" /><rect fill="rgb(134,94,60)" height="5px" width="5px" x="84px" y="100px" /><rect fill="rgb(134,94,60)" height="5px" width="5px" x="88px" y="100px" /><rect fill="rgb(134,94,60)" height="5px" width="5px" x="92px" y="100px" /><rect fill="rgb(134,94,60)" height="5px" width="5px" x="96px" y="100px" /><rect fill="rgb(134,94,60)" height="5px" width="5px" x="100px" y="100px" /><rect fill="rgb(134,94,60)" height="5px" width="5px" x="104px" y="100px" /><rect fill="rgb(134,94,60)" height="5px" width="5px" x="108px" y="100px" /><rect fill="rgb(134,94,60)" height="5px" width="5px" x="112px" y="100px" /><rect fill="rgb(134,94,60)" height="5px" width="5px" x="116px" y="100px" /><rect fill="rgb(21,21,0)" height="5px" opacity="0.0470588235294" width="5px" x="120px" y="100px" /><rect fill="rgb(134,94,60)" height="5px" width="5px" x="8px" y="104px" /><rect fill="rgb(134,94,60)" height="5px" width="5px" x="12px" y="104px" /><rect fill="rgb(134,94,60)" height="5px" width="5px" x="16px" y="104px" /><rect fill="rgb(134,94,60)" height="5px" width="5px" x="20px" y="104px" /><rect fill="rgb(134,94,60)" height="5px" width="5px" x="24px" y="104px" /><rect fill="rgb(134,94,60)" height="5px" width="5px" x="28px" y="104px" /><rect fill="rgb(134,94,60)" height="5px" width="5px" x="32px" y="104px" /><rect fill="rgb(134,94,60)" height="5px" width="5px" x="36px" y="104px" /><rect fill="rgb(134,94,60)" height="5px" width="5px" x="40px" y="104px" /><rect fill="rgb(134,94,60)" height="5px" width="5px" x="44px" y="104px" /><rect fill="rgb(134,94,60)" height="5px" width="5px" x="48px" y="104px" /><rect fill="rgb(134,94,60)" height="5px" width="5px" x="52px" y="104px" /><rect fill="rgb(134,94,60)" height="5px" width="5px" x="56px" y="104px" /><rect fill="rgb(134,94,60)" height="5px" width="5px" x="60px" y="104px" /><rect fill="rgb(134,94,60)" height="5px" width="5px" x="64px" y="104px" /><rect fill="rgb(134,94,60)" height="5px" width="5px" x="68px" y="104px" /><rect fill="rgb(134,94,60)" height="5px" width="5px" x="72px" y="104px" /><rect fill="rgb(134,94,60)" height="5px" width="5px" x="76px" y="104px" /><rect fill="rgb(134,94,60)" height="5px" width="5px" x="80px" y="104px" /><rect fill="rgb(134,94,60)" height="5px" width="5px" x="84px" y="104px" /><rect fill="rgb(134,94,60)" height="5px" width="5px" x="88px" y="104px" /><rect fill="rgb(134,94,60)" height="5px" width="5px" x="92px" y="104px" /><rect fill="rgb(134,94,60)" height="5px" width="5px" x="96px" y="104px" /><rect fill="rgb(134,94,60)" height="5px" width="5px" x="100px" y="104px" /><rect fill="rgb(134,94,60)" height="5px" width="5px" x="104px" y="104px" /><rect fill="rgb(134,94,60)" height="5px" width="5px" x="108px" y="104px" /><rect fill="rgb(134,94,60)" height="5px" width="5px" x="112px" y="104px" /><rect fill="rgb(134,94,60)" height="5px" width="5px" x="116px" y="104px" /><rect fill="rgb(134,94,60)" height="5px" width="5px" x="12px" y="108px" /><rect fill="rgb(134,94,60)" height="5px" width="5px" x="16px" y="108px" /><rect fill="rgb(134,94,60)" height="5px" width="5px" x="20px" y="108px" /><rect fill="rgb(134,94,60)" height="5px" width="5px" x="24px" y="108px" /><rect fill="rgb(134,94,60)" height="5px" width="5px" x="28px" y="108px" /><rect fill="rgb(134,94,60)" height="5px" width="5px" x="32px" y="108px" /><rect fill="rgb(134,94,60)" height="5px" width="5px" x="36px" y="108px" /><rect fill="rgb(134,94,60)" height="5px" width="5px" x="40px" y="108px" /><rect fill="rgb(134,94,60)" height="5px" width="5px" x="44px" y="108px" /><rect fill="rgb(134,94,60)" height="5px" width="5px" x="48px" y="108px" /><rect fill="rgb(134,94,60)" height="5px" width="5px" x="52px" y="108px" /><rect fill="rgb(134,94,60)" height="5px" width="5px" x="56px" y="108px" /><rect fill="rgb(134,94,60)" height="5px" width="5px" x="60px" y="108px" /><rect fill="rgb(134,94,60)" height="5px" width="5px" x="64px" y="108px" /><rect fill="rgb(134,94,60)" height="5px" width="5px" x="68px" y="108px" /><rect fill="rgb(134,94,60)" height="5px" width="5px" x="72px" y="108px" /><rect fill="rgb(134,94,60)" height="5px" width="5px" x="76px" y="108px" /><rect fill="rgb(134,94,60)" height="5px" width="5px" x="80px" y="108px" /><rect fill="rgb(134,94,60)" height="5px" width="5px" x="84px" y="108px" /><rect fill="rgb(134,94,60)" height="5px" width="5px" x="88px" y="108px" /><rect fill="rgb(134,94,60)" height="5px" width="5px" x="92px" y="108px" /><rect fill="rgb(134,94,60)" height="5px" width="5px" x="96px" y="108px" /><rect fill="rgb(134,94,60)" height="5px" width="5px" x="100px" y="108px" /><rect fill="rgb(134,94,60)" height="5px" width="5px" x="104px" y="108px" /><rect fill="rgb(134,94,60)" height="5px" width="5px" x="108px" y="108px" /><rect fill="rgb(134,94,60)" height="5px" width="5px" x="112px" y="108px" /></svg>