<?xml version="1.0" encoding="utf-8" ?>
<svg baseProfile="full" height="128px" version="1.1" width="128px" xmlns="http://www.w3.org/2000/svg" xmlns:ev="http://www.w3.org/2001/xml-events" xmlns:xlink="http://www.w3.org/1999/xlink"><defs /><rect fill="rgb(255,255,255)" height="5px" opacity="0.541176470588" width="5px" x="28px" y="12px" /><rect fill="rgb(255,255,255)" height="5px" opacity="0.98431372549" width="5px" x="32px" y="12px" /><rect fill="rgb(255,255,255)" height="5px" opacity="0.619607843137" width="5px" x="28px" y="16px" /><rect fill="rgb(255,255,255)" height="5px" width="5px" x="32px" y="16px" /><rect fill="rgb(255,255,255)" height="5px" opacity="0.976470588235" width="5px" x="36px" y="16px" /><rect fill="rgb(255,255,255)" height="5px" width="5px" x="32px" y="20px" /><rect fill="rgb(255,255,255)" height="5px" width="5px" x="36px" y="20px" /><rect fill="rgb(255,255,255)" height="5px" opacity="0.960784313725" width="5px" x="40px" y="20px" /><rect fill="rgb(99,69,44)" height="5px" width="5px" x="52px" y="20px" /><rect fill="rgb(255,255,255)" height="5px" width="5px" x="36px" y="24px" /><rect fill="rgb(255,255,255)" height="5px" width="5px" x="40px" y="24px" /><rect fill="rgb(255,255,255)" height="5px" opacity="0.952941176471" width="5px" x="44px" y="24px" /><rect fill="rgb(99,69,44)" height="5px" width="5px" x="52px" y="24px" /><rect fill="rgb(255,255,255)" height="5px" width="5px" x="36px" y="28px" /><rect fill="rgb(255,255,255)" height="5px" width="5px" x="40px" y="28px" /><rect fill="rgb(255,255,255)" height="5px" width="5px" x="44px" y="28px" /><rect fill="rgb(255,255,255)" height="5px" opacity="0.921568627451" width="5px" x="48px" y="28px" /><rect fill="rgb(99,69,44)" height="5px" width="5px" x="52px" y="28px" /><rect fill="rgb(255,255,255)" height="5px" width="5px" x="36px" y="32px" /><rect fill="rgb(255,255,255)" height="5px" width="5px" x="40px" y="32px" /><rect fill="rgb(255,255,255)" height="5px" width="5px" x="44px" y="32px" /><rect fill="rgb(255,255,255)" height="5px" width="5px" x="48px" y="32px" /><rect fill="rgb(99,69,44)" height="5px" width="5px" x="52px" y="32px" /><rect fill="rgb(255,255,255)" height="5px" width="5px" x="36px" y="36px" /><rect fill="rgb(255,255,255)" height="5px" width="5px" x="40px" y="36px" /><rect fill="rgb(255,255,255)" height="5px" width="5px" x="44px" y="36px" /><rect fill="rgb(255,255,255)" height="5px" width="5px" x="48px" y="36px" /><rect fill="rgb(99,69,44)" height="5px" width="5px" x="52px" y="36px" /><rect fill="rgb(255,255,255)" height="5px" opacity="0.2" width="5px" x="56px" y="36px" /><rect fill="rgb(255,255,255)" height="5px" width="5px" x="36px" y="40px" /><rect fill="rgb(255,255,255)" height="5px" width="5px" x="40px" y="40px" /><rect fill="rgb(255,255,255)" height="5px" width="5px" x="44px" y="40px" /><rect fill="rgb(255,255,255)" height="5px" width="5px" x="48px" y="40px" /><rect fill="rgb(99,69,44)" height="5px" width="5px" x="52px" y="40px" /><rect fill="rgb(255,255,255)" height="5px" opacity="0.917647058824" width="5px" x="56px" y="40px" /><rect fill="rgb(255,255,255)" height="5px" opacity="0.16862745098" width="5px" x="60px" y="40px" /><rect fill="rgb(255,255,255)" height="5px" width="5px" x="36px" y="44px" /><rect fill="rgb(255,255,255)" height="5px" width="5px" x="40px" y="44px" /><rect fill="rgb(255,255,255)" height="5px" width="5px" x="44px" y="44px" /><rect fill="rgb(255,255,255)" height="5px" width="5px" x="48px" y="44px" /><rect fill="rgb(99,69,44)" height="5px" width="5px" x="52px" y="44px" /><rect fill="rgb(255,255,255)" height="5px" width="5px" x="56px" y="44px" /><rect fill="rgb(255,255,255)" height="5px" opacity="0.913725490196" width="5px" x="60px" y="44px" /><rect fill="rgb(255,255,255)" height="5px" opacity="0.156862745098" width="5px" x="64px" y="44px" /><rect fill="rgb(255,255,255)" height="5px" width="5px" x="36px" y="48px" /><rect fill="rgb(255,255,255)" height="5px" width="5px" x="40px" y="48px" /><rect fill="rgb(255,255,255)" height="5px" width="5px" x="44px" y="48px" /><rect fill="rgb(255,255,255)" height="5px" width="5px" x="48px" y="48px" /><rect fill="rgb(99,69,44)" height="5px" width="5px" x="52px" y="48px" /><rect fill="rgb(255,255,255)" height="5px" width="5px" x="56px" y="48px" /><rect fill="rgb(255,255,255)" height="5px" width="5px" x="60px" y="48px" /><rect fill="rgb(255,255,255)" height="5px" opacity="0.890196078431" width="5px" x="64px" y="48px" /><rect fill="rgb(255,255,255)" height="5px" opacity="0.129411764706" width="5px" x="68px" y="48px" /><rect fill="rgb(255,255,255)" height="5px" width="5px" x="36px" y="52px" /><rect fill="rgb(255,255,255)" height="5px" width="5px" x="40px" y="52px" /><rect fill="rgb(255,255,255)" height="5px" width="5px" x="44px" y="52px" /><rect fill="rgb(255,255,255)" height="5px" width="5px" x="48px" y="52px" /><rect fill="rgb(99,69,44)" height="5px" width="5px" x="52px" y="52px" /><rect fill="rgb(255,255,255)" height="5px" width="5px" x="56px" y="52px" /><rect fill="rgb(255,255,255)" height="5px" width="5px" x="60px" y="52px" /><rect fill="rgb(255,255,255)" height="5px" width="5px" x="64px" y="52px" /><rect fill="rgb(255,255,255)" height="5px" opacity="0.862745098039" width="5px" x="68px" y="52px" /><rect fill="rgb(255,255,255)" height="5px" opacity="0.101960784314" width="5px" x="72px" y="52px" /><rect fill="rgb(99,69,44)" height="5px" width="5px" x="96px" y="52px" /><rect fill="rgb(99,69,44)" height="5px" width="5px" x="100px" y="52px" /><rect fill="rgb(17,17,0)" height="5px" opacity="0.0588235294118" width="5px" x="4px" y="56px" /><rect fill="rgb(0,0,0)" height="5px" opacity="0.00392156862745" width="5px" x="8px" y="56px" /><rect fill="rgb(255,255,255)" height="5px" width="5px" x="36px" y="56px" /><rect fill="rgb(255,255,255)" height="5px" width="5px" x="40px" y="56px" /><rect fill="rgb(255,255,255)" height="5px" width="5px" x="44px" y="56px" /><rect fill="rgb(255,255,255)" height="5px" width="5px" x="48px" y="56px" /><rect fill="rgb(99,69,44)" height="5px" width="5px" x="52px" y="56px" /><rect fill="rgb(255,255,255)" height="5px" width="5px" x="56px" y="56px" /><rect fill="rgb(255,255,255)" height="5px" width="5px" x="60px" y="56px" /><rect fill="rgb(255,255,255)" height="5px" width="5px" x="64px" y="56px" /><rect fill="rgb(255,255,255)" height="5px" width="5px" x="68px" y="56px" /><rect fill="rgb(255,255,255)" height="5px" opacity="0.850980392157" width="5px" x="72px" y="56px" /><rect fill="rgb(255,255,255)" height="5px" opacity="0.0941176470588" width="5px" x="76px" y="56px" /><rect fill="rgb(99,69,44)" height="5px" width="5px" x="96px" y="56px" /><rect fill="rgb(99,69,44)" height="5px" width="5px" x="100px" y="56px" /><rect fill="rgb(99,69,44)" height="5px" width="5px" x="104px" y="56px" /><rect fill="rgb(99,69,44)" height="5px" width="5px" x="4px" y="60px" /><rect fill="rgb(18,18,4)" height="5px" opacity="0.227450980392" width="5px" x="8px" y="60px" /><rect fill="rgb(255,255,255)" height="5px" width="5px" x="32px" y="60px" /><rect fill="rgb(255,255,255)" height="5px" width="5px" x="36px" y="60px" /><rect fill="rgb(255,255,255)" height="5px" width="5px" x="40px" y="60px" /><rect fill="rgb(255,255,255)" height="5px" width="5px" x="44px" y="60px" /><rect fill="rgb(255,255,255)" height="5px" width="5px" x="48px" y="60px" /><rect fill="rgb(99,69,44)" height="5px" width="5px" x="52px" y="60px" /><rect fill="rgb(255,255,255)" height="5px" width="5px" x="56px" y="60px" /><rect fill="rgb(255,255,255)" height="5px" width="5px" x="60px" y="60px" /><rect fill="rgb(255,255,255)" height="5px" width="5px" x="64px" y="60px" /><rect fill="rgb(255,255,255)" height="5px" width="5px" x="68px" y="60px" /><rect fill="rgb(255,255,255)" height="5px" width="5px" x="72px" y="60px" /><rect fill="rgb(255,255,255)" height="5px" opacity="0.823529411765" width="5px" x="76px" y="60px" /><rect fill="rgb(255,255,255)" height="5px" opacity="0.0745098039216" width="5px" x="80px" y="60px" /><rect fill="rgb(18,18,4)" height="5px" opacity="0.564705882353" width="5px" x="100px" y="60px" /><rect fill="rgb(99,69,44)" height="5px" width="5px" x="104px" y="60px" /><rect fill="rgb(99,69,44)" height="5px" width="5px" x="108px" y="60px" /><rect fill="rgb(99,69,44)" height="5px" width="5px" x="0px" y="64px" /><rect fill="rgb(99,69,44)" height="5px" width="5px" x="4px" y="64px" /><rect fill="rgb(255,255,255)" height="5px" opacity="0.882352941176" width="5px" x="28px" y="64px" /><rect fill="rgb(255,255,255)" height="5px" width="5px" x="32px" y="64px" /><rect fill="rgb(255,255,255)" height="5px" width="5px" x="36px" y="64px" /><rect fill="rgb(255,255,255)" height="5px" width="5px" x="40px" y="64px" /><rect fill="rgb(255,255,255)" height="5px" width="5px" x="44px" y="64px" /><rect fill="rgb(255,255,255)" height="5px" width="5px" x="48px" y="64px" /><rect fill="rgb(99,69,44)" height="5px" width="5px" x="52px" y="64px" /><rect fill="rgb(255,255,255)" height="5px" width="5px" x="56px" y="64px" /><rect fill="rgb(255,255,255)" height="5px" width="5px" x="60px" y="64px" /><rect fill="rgb(255,255,255)" height="5px" width="5px" x="64px" y="64px" /><rect fill="rgb(255,255,255)" height="5px" width="5px" x="68px" y="64px" /><rect fill="rgb(255,255,255)" height="5px" width="5px" x="72px" y="64px" /><rect fill="rgb(255,255,255)" height="5px" width="5px" x="76px" y="64px" /><rect fill="rgb(255,255,255)" height="5px" opacity="0.811764705882" width="5px" x="80px" y="64px" /><rect fill="rgb(255,255,255)" height="5px" opacity="0.0666666666667" width="5px" x="84px" y="64px" /><rect fill="rgb(0,0,0)" height="5px" opacity="0.0117647058824" width="5px" x="100px" y="64px" /><rect fill="rgb(99,69,44)" height="5px" width="5px" x="104px" y="64px" /><rect fill="rgb(99,69,44)" height="5px" width="5px" x="108px" y="64px" /><rect fill="rgb(20,20,5)" height="5px" opacity="0.196078431373" width="5px" x="112px" y="64px" /><rect fill="rgb(99,69,44)" height="5px" width="5px" x="0px" y="68px" /><rect fill="rgb(99,69,44)" height="5px" width="5px" x="4px" y="68px" /><rect fill="rgb(255,255,255)" height="5px" opacity="0.619607843137" width="5px" x="28px" y="68px" /><rect fill="rgb(255,255,255)" height="5px" opacity="0.996078431373" width="5px" x="32px" y="68px" /><rect fill="rgb(255,255,255)" height="5px" opacity="0.996078431373" width="5px" x="36px" y="68px" /><rect fill="rgb(255,255,255)" height="5px" width="5px" x="40px" y="68px" /><rect fill="rgb(255,255,255)" height="5px" width="5px" x="44px" y="68px" /><rect fill="rgb(255,255,255)" height="5px" width="5px" x="48px" y="68px" /><rect fill="rgb(99,69,44)" height="5px" width="5px" x="52px" y="68px" /><rect fill="rgb(255,255,255)" height="5px" opacity="0.533333333333" width="5px" x="56px" y="68px" /><rect fill="rgb(255,255,255)" height="5px" opacity="0.596078431373" width="5px" x="60px" y="68px" /><rect fill="rgb(255,255,255)" height="5px" opacity="0.6" width="5px" x="64px" y="68px" /><rect fill="rgb(255,255,255)" height="5px" opacity="0.6" width="5px" x="68px" y="68px" /><rect fill="rgb(255,255,255)" height="5px" opacity="0.6" width="5px" x="72px" y="68px" /><rect fill="rgb(255,255,255)" height="5px" opacity="0.6" width="5px" x="76px" y="68px" /><rect fill="rgb(255,255,255)" height="5px" opacity="0.639215686275" width="5px" x="80px" y="68px" /><rect fill="rgb(255,255,255)" height="5px" opacity="0.435294117647" width="5px" x="84px" y="68px" /><rect fill="rgb(18,18,4)" height="5px" opacity="0.227450980392" width="5px" x="100px" y="68px" /><rect fill="rgb(99,69,44)" height="5px" width="5px" x="104px" y="68px" /><rect fill="rgb(99,69,44)" height="5px" width="5px" x="108px" y="68px" /><rect fill="rgb(20,20,5)" height="5px" opacity="0.196078431373" width="5px" x="112px" y="68px" /><rect fill="rgb(99,69,44)" height="5px" width="5px" x="0px" y="72px" /><rect fill="rgb(99,69,44)" height="5px" width="5px" x="4px" y="72px" /><rect fill="rgb(99,69,44)" height="5px" width="5px" x="8px" y="72px" /><rect fill="rgb(99,69,44)" height="5px" width="5px" x="52px" y="72px" /><rect fill="rgb(14,14,0)" height="5px" opacity="0.0705882352941" width="5px" x="96px" y="72px" /><rect fill="rgb(99,69,44)" height="5px" width="5px" x="100px" y="72px" /><rect fill="rgb(99,69,44)" height="5px" width="5px" x="104px" y="72px" /><rect fill="rgb(99,69,44)" height="5px" width="5px" x="108px" y="72px" /><rect fill="rgb(99,69,44)" height="5px" width="5px" x="112px" y="72px" /><rect fill="rgb(99,69,44)" height="5px" width="5px" x="0px" y="76px" /><rect fill="rgb(99,69,44)" height="5px" width="5px" x="4px" y="76px" /><rect fill="rgb(99,69,44)" height="5px" width="5px" x="8px" y="76px" /><rect fill="rgb(28,28,0)" height="5px" opacity="0.0352941176471" width="5px" x="12px" y="76px" /><rect fill="rgb(134,94,60)" height="5px" width="5px" x="28px" y="76px" /><rect fill="rgb(134,94,60)" height="5px" width="5px" x="32px" y="76px" /><rect fill="rgb(134,94,60)" height="5px" width="5px" x="36px" y="76px" /><rect fill="rgb(134,94,60)" height="5px" width="5px" x="40px" y="76px" /><rect fill="rgb(134,94,60)" height="5px" width="5px" x="44px" y="76px" /><rect fill="rgb(134,94,60)" height="5px" width="5px" x="48px" y="76px" /><rect fill="rgb(134,94,60)" height="5px" width="5px" x="52px" y="76px" /><rect fill="rgb(134,94,60)" height="5px" width="5px" x="56px" y="76px" /><rect fill="rgb(134,94,60)" height="5px" width="5px" x="60px" y="76px" /><rect fill="rgb(134,94,60)" height="5px" width="5px" x="64px" y="76px" /><rect fill="rgb(134,94,60)" height="5px" width="5px" x="68px" y="76px" /><rect fill="rgb(134,94,60)" height="5px" width="5px" x="72px" y="76px" /><rect fill="rgb(134,94,60)" height="5px" width="5px" x="76px" y="76px" /><rect fill="rgb(134,94,60)" height="5px" width="5px" x="80px" y="76px" /><rect fill="rgb(134,94,60)" height="5px" width="5px" x="84px" y="76px" /><rect fill="rgb(99,69,44)" height="5px" width="5px" x="96px" y="76px" /><rect fill="rgb(99,69,44)" height="5px" width="5px" x="100px" y="76px" /><rect fill="rgb(99,69,44)" height="5px" width="5px" x="104px" y="76px" /><rect fill="rgb(99,69,44)" height="5px" width="5px" x="108px" y="76px" /><rect fill="rgb(99,69,44)" height="5px" width="5px" x="112px" y="76px" /><rect fill="rgb(28,28,0)" height="5px" opacity="0.0352941176471" width="5px" x="0px" y="80px" /><rect fill="rgb(99,69,44)" height="5px" width="5px" x="4px" y="80px" /><rect fill="rgb(99,69,44)" height="5px" width="5px" x="8px" y="80px" /><rect fill="rgb(99,69,44)" height="5px" width="5px" x="12px" y="80px" /><rect fill="rgb(99,69,44)" height="5px" width="5px" x="16px" y="80px" /><rect fill="rgb(99,69,44)" height="5px" width="5px" x="20px" y="80px" /><rect fill="rgb(99,69,44)" height="5px" width="5px" x="24px" y="80px" /><rect fill="rgb(134,94,60)" height="5px" width="5px" x="28px" y="80px" /><rect fill="rgb(134,94,60)" height="5px" width="5px" x="32px" y="80px" /><rect fill="rgb(134,94,60)" height="5px" width="5px" x="36px" y="80px" /><rect fill="rgb(134,94,60)" height="5px" width="5px" x="40px" y="80px" /><rect fill="rgb(134,94,60)" height="5px" width="5px" x="44px" y="80px" /><rect fill="rgb(134,94,60)" height="5px" width="5px" x="48px" y="80px" /><rect fill="rgb(134,94,60)" height="5px" width="5px" x="52px" y="80px" /><rect fill="rgb(134,94,60)" height="5px" width="5px" x="56px" y="80px" /><rect fill="rgb(134,94,60)" height="5px" width="5px" x="60px" y="80px" /><rect fill="rgb(134,94,60)" height="5px" width="5px" x="64px" y="80px" /><rect fill="rgb(134,94,60)" height="5px" width="5px" x="68px" y="80px" /><rect fill="rgb(134,94,60)" height="5px" width="5px" x="72px" y="80px" /><rect fill="rgb(134,94,60)" height="5px" width="5px" x="76px" y="80px" /><rect fill="rgb(134,94,60)" height="5px" width="5px" x="80px" y="80px" /><rect fill="rgb(134,94,60)" height="5px" width="5px" x="84px" y="80px" /><rect fill="rgb(99,69,44)" height="5px" width="5px" x="88px" y="80px" /><rect fill="rgb(99,69,44)" height="5px" width="5px" x="92px" y="80px" /><rect fill="rgb(99,69,44)" height="5px" width="5px" x="96px" y="80px" /><rect fill="rgb(99,69,44)" height="5px" width="5px" x="100px" y="80px" /><rect fill="rgb(99,69,44)" height="5px" width="5px" x="104px" y="80px" /><rect fill="rgb(99,69,44)" height="5px" width="5px" x="108px" y="80px" /><rect fill="rgb(99,69,44)" height="5px" width="5px" x="112px" y="80px" /><rect fill="rgb(99,69,44)" height="5px" width="5px" x="4px" y="84px" /><rect fill="rgb(99,69,44)" height="5px" width="5px" x="8px" y="84px" /><rect fill="rgb(99,69,44)" height="5px" width="5px" x="12px" y="84px" /><rect fill="rgb(99,69,44)" height="5px" width="5px" x="16px" y="84px" /><rect fill="rgb(99,69,44)" height="5px" width="5px" x="20px" y="84px" /><rect fill="rgb(99,69,44)" height="5px" width="5px" x="24px" y="84px" /><rect fill="rgb(134,94,60)" height="5px" width="5px" x="28px" y="84px" /><rect fill="rgb(99,69,44)" height="5px" width="5px" x="32px" y="84px" /><rect fill="rgb(99,69,44)" height="5px" width="5px" x="36px" y="84px" /><rect fill="rgb(99,69,44)" height="5px" width="5px" x="40px" y="84px" /><rect fill="rgb(99,69,44)" height="5px" width="5px" x="44px" y="84px" /><rect fill="rgb(99,69,44)" height="5px" width="5px" x="48px" y="84px" /><rect fill="rgb(99,69,44)" height="5px" width="5px" x="52px" y="84px" /><rect fill="rgb(134,94,60)" height="5px" width="5px" x="56px" y="84px" /><rect fill="rgb(99,69,44)" height="5px" width="5px" x="60px" y="84px" /><rect fill="rgb(99,69,44)" height="5px" width="5px" x="64px" y="84px" /><rect fill="rgb(99,69,44)" height="5px" width="5px" x="68px" y="84px" /><rect fill="rgb(99,69,44)" height="5px" width="5px" x="72px" y="84px" /><rect fill="rgb(99,69,44)" height="5px" width="5px" x="76px" y="84px" /><rect fill="rgb(134,94,60)" height="5px" width="5px" x="80px" y="84px" /><rect fill="rgb(99,69,44)" height="5px" width="5px" x="84px" y="84px" /><rect fill="rgb(99,69,44)" height="5px" width="5px" x="88px" y="84px" /><rect fill="rgb(99,69,44)" height="5px" width="5px" x="92px" y="84px" /><rect fill="rgb(99,69,44)" height="5px" width="5px" x="96px" y="84px" /><rect fill="rgb(99,69,44)" height="5px" width="5px" x="100px" y="84px" /><rect fill="rgb(99,69,44)" height="5px" width="5px" x="104px" y="84px" /><rect fill="rgb(99,69,44)" height="5px" width="5px" x="108px" y="84px" /><rect fill="rgb(99,69,44)" height="5px" width="5px" x="112px" y="84px" /><rect fill="rgb(99,69,44)" height="5px" width="5px" x="116px" y="84px" /><rect fill="rgb(21,21,0)" height="5px" opacity="0.0470588235294" width="5px" x="4px" y="88px" /><rect fill="rgb(99,69,44)" height="5px" width="5px" x="8px" y="88px" /><rect fill="rgb(99,69,44)" height="5px" width="5px" x="12px" y="88px" /><rect fill="rgb(99,69,44)" height="5px" width="5px" x="16px" y="88px" /><rect fill="rgb(99,69,44)" height="5px" width="5px" x="20px" y="88px" /><rect fill="rgb(134,94,60)" height="5px" width="5px" x="24px" y="88px" /><rect fill="rgb(134,94,60)" height="5px" width="5px" x="28px" y="88px" /><rect fill="rgb(99,69,44)" height="5px" width="5px" x="32px" y="88px" /><rect fill="rgb(99,69,44)" height="5px" width="5px" x="36px" y="88px" /><rect fill="rgb(99,69,44)" height="5px" width="5px" x="40px" y="88px" /><rect fill="rgb(99,69,44)" height="5px" width="5px" x="44px" y="88px" /><rect fill="rgb(99,69,44)" height="5px" width="5px" x="48px" y="88px" /><rect fill="rgb(134,94,60)" height="5px" width="5px" x="52px" y="88px" /><rect fill="rgb(134,94,60)" height="5px" width="5px" x="56px" y="88px" /><rect fill="rgb(99,69,44)" height="5px" width="5px" x="60px" y="88px" /><rect fill="rgb(99,69,44)" height="5px" width="5px" x="64px" y="88px" /><rect fill="rgb(99,69,44)" height="5px" width="5px" x="68px" y="88px" /><rect fill="rgb(99,69,44)" height="5px" width="5px" x="72px" y="88px" /><rect fill="rgb(134,94,60)" height="5px" width="5px" x="76px" y="88px" /><rect fill="rgb(134,94,60)" height="5px" width="5px" x="80px" y="88px" /><rect fill="rgb(99,69,44)" height="5px" width="5px" x="84px" y="88px" /><rect fill="rgb(99,69,44)" height="5px" width="5px" x="88px" y="88px" /><rect fill="rgb(99,69,44)" height="5px" width="5px" x="92px" y="88px" /><rect fill="rgb(99,69,44)" height="5px" width="5px" x="96px" y="88px" /><rect fill="rgb(99,69,44)" height="5px" width="5px" x="100px" y="88px" /><rect fill="rgb(99,69,44)" height="5px" width="5px" x="104px" y="88px" /><rect fill="rgb(99,69,44)" height="5px" width="5px" x="108px" y="88px" /><rect fill="rgb(99,69,44)" height="5px" width="5px" x="112px" y="88px" /><rect fill="rgb(99,69,44)" height="5px" width="5px" x="116px" y="88px" /><rect fill="rgb(99,69,44)" height="5px" width="5px" x="120px" y="88px" /><rect fill="rgb(99,69,44)" height="5px" width="5px" x="8px" y="92px" /><rect fill="rgb(99,69,44)" height="5px" width="5px" x="12px" y="92px" /><rect fill="rgb(99,69,44)" height="5px" width="5px" x="16px" y="92px" /><rect fill="rgb(134,94,60)" height="5px" width="5px" x="20px" y="92px" /><rect fill="rgb(134,94,60)" height="5px" width="5px" x="24px" y="92px" /><rect fill="rgb(99,69,44)" height="5px" width="5px" x="28px" y="92px" /><rect fill="rgb(99,69,44)" height="5px" width="5px" x="32px" y="92px" /><rect fill="rgb(99,69,44)" height="5px" width="5px" x="36px" y="92px" /><rect fill="rgb(99,69,44)" height="5px" width="5px" x="40px" y="92px" /><rect fill="rgb(99,69,44)" height="5px" width="5px" x="44px" y="92px" /><rect fill="rgb(134,94,60)" height="5px" width="5px" x="48px" y="92px" /><rect fill="rgb(134,94,60)" height="5px" width="5px" x="52px" y="92px" /><rect fill="rgb(99,69,44)" height="5px" width="5px" x="56px" y="92px" /><rect fill="rgb(99,69,44)" height="5px" width="5px" x="60px" y="92px" /><rect fill="rgb(99,69,44)" height="5px" width="5px" x="64px" y="92px" /><rect fill="rgb(99,69,44)" height="5px" width="5px" x="68px" y="92px" /><rect fill="rgb(134,94,60)" height="5px" width="5px" x="72px" y="92px" /><rect fill="rgb(134,94,60)" height="5px" width="5px" x="76px" y="92px" /><rect fill="rgb(99,69,44)" height="5px" width="5px" x="80px" y="92px" /><rect fill="rgb(99,69,44)" height="5px" width="5px" x="84px" y="92px" /><rect fill="rgb(99,69,44)" height="5px" width="5px" x="88px" y="92px" /><rect fill="rgb(99,69,44)" height="5px" width="5px" x="92px" y="92px" /><rect fill="rgb(99,69,44)" height="5px" width="5px" x="96px" y="92px" /><rect fill="rgb(99,69,44)" height="5px" width="5px" x="100px" y="92px" /><rect fill="rgb(99,69,44)" height="5px" width="5px" x="104px" y="92px" /><rect fill="rgb(99,69,44)" height="5px" width="5px" x="108px" y="92px" /><rect fill="rgb(99,69,44)" height="5px" width="5px" x="112px" y="92px" /><rect fill="rgb(99,69,44)" height="5px" width="5px" x="116px" y="92px" /><rect fill="rgb(99,69,44)" height="5px" width="5px" x="120px" y="92px" /><rect fill="rgb(99,69,44)" height="5px" width="5px" x="124px" y="92px" /><rect fill="rgb(99,69,44)" height="5px" width="5px" x="12px" y="96px" /><rect fill="rgb(99,69,44)" height="5px" width="5px" x="16px" y="96px" /><rect fill="rgb(134,94,60)" height="5px" width="5px" x="20px" y="96px" /><rect fill="rgb(99,69,44)" height="5px" width="5px" x="24px" y="96px" /><rect fill="rgb(99,69,44)" height="5px" width="5px" x="28px" y="96px" /><rect fill="rgb(99,69,44)" height="5px" width="5px" x="32px" y="96px" /><rect fill="rgb(99,69,44)" height="5px" width="5px" x="36px" y="96px" /><rect fill="rgb(99,69,44)" height="5px" width="5px" x="40px" y="96px" /><rect fill="rgb(99,69,44)" height="5px" width="5px" x="44px" y="96px" /><rect fill="rgb(134,94,60)" height="5px" width="5px" x="48px" y="96px" /><rect fill="rgb(99,69,44)" height="5px" width="5px" x="52px" y="96px" /><rect fill="rgb(99,69,44)" height="5px" width="5px" x="56px" y="96px" /><rect fill="rgb(99,69,44)" height="5px" width="5px" x="60px" y="96px" /><rect fill="rgb(99,69,44)" height="5px" width="5px" x="64px" y="96px" /><rect fill="rgb(99,69,44)" height="5px" width="5px" x="68px" y="96px" /><rect fill="rgb(134,94,60)" height="5px" width="5px" x="72px" y="96px" /><rect fill="rgb(99,69,44)" height="5px" width="5px" x="76px" y="96px" /><rect fill="rgb(99,69,44)" height="5px" width="5px" x="80px" y="96px" /><rect fill="rgb(99,69,44)" height="5px" width="5px" x="84px" y="96px" /><rect fill="rgb(99,69,44)" height="5px" width="5px" x="88px" y="96px" /><rect fill="rgb(99,69,44)" height="5px" width="5px" x="92px" y="96px" /><rect fill="rgb(99,69,44)" height="5px" width="5px" x="96px" y="96px" /><rect fill="rgb(99,69,44)" height="5px" width="5px" x="100px" y="96px" /><rect fill="rgb(99,69,44)" height="5px" width="5px" x="104px" y="96px" /><rect fill="rgb(99,69,44)" height="5px" width="5px" x="108px" y="96px" /><rect fill="rgb(99,69,44)" height="5px" width="5px" x="112px" y="96px" /><rect fill="rgb(99,69,44)" height="5px" width="5px" x="116px" y="96px" /><rect fill="rgb(99,69,44)" height="5px" width="5px" x="120px" y="96px" /><rect fill="rgb(99,69,44)" height="5px" width="5px" x="124px" y="96px" /><rect fill="rgb(41,41,41)" height="5px" opacity="0.196078431373" width="5px" x="12px" y="100px" /><rect fill="rgb(134,94,60)" height="5px" width="5px" x="16px" y="100px" /><rect fill="rgb(134,94,60)" height="5px" width="5px" x="20px" y="100px" /><rect fill="rgb(41,41,41)" height="5px" opacity="0.196078431373" width="5px" x="40px" y="100px" /><rect fill="rgb(134,94,60)" height="5px" width="5px" x="44px" y="100px" /><rect fill="rgb(134,94,60)" height="5px" width="5px" x="48px" y="100px" /><rect fill="rgb(41,41,41)" height="5px" opacity="0.196078431373" width="5px" x="64px" y="100px" /><rect fill="rgb(134,94,60)" height="5px" width="5px" x="68px" y="100px" /><rect fill="rgb(134,94,60)" height="5px" width="5px" x="72px" y="100px" /><rect fill="rgb(0,0,0)" height="5px" opacity="0.00392156862745" width="5px" x="8px" y="104px" /><rect fill="rgb(134,94,60)" height="5px" width="5px" x="12px" y="104px" /><rect fill="rgb(134,94,60)" height="5px" width="5px" x="16px" y="104px" /><rect fill="rgb(39,39,39)" height="5px" opacity="0.101960784314" width="5px" x="20px" y="104px" /><rect fill="rgb(0,0,0)" height="5px" opacity="0.00392156862745" width="5px" x="36px" y="104px" /><rect fill="rgb(134,94,60)" height="5px" width="5px" x="40px" y="104px" /><rect fill="rgb(134,94,60)" height="5px" width="5px" x="44px" y="104px" /><rect fill="rgb(39,39,39)" height="5px" opacity="0.101960784314" width="5px" x="48px" y="104px" /><rect fill="rgb(0,0,0)" height="5px" opacity="0.00392156862745" width="5px" x="60px" y="104px" /><rect fill="rgb(134,94,60)" height="5px" width="5px" x="64px" y="104px" /><rect fill="rgb(134,94,60)" height="5px" width="5px" x="68px" y="104px" /><rect fill="rgb(39,39,39)" height="5px" opacity="0.101960784314" width="5px" x="72px" y="104px" /><rect fill="rgb(41,41,41)" height="5px" opacity="0.121568627451" width="5px" x="8px" y="108px" /><rect fill="rgb(134,94,60)" height="5px" width="5px" x="12px" y="108px" /><rect fill="rgb(39,39,39)" height="5px" opacity="0.101960784314" width="5px" x="16px" y="108px" /><rect fill="rgb(41,41,41)" height="5px" opacity="0.121568627451" width="5px" x="36px" y="108px" /><rect fill="rgb(134,94,60)" height="5px" width="5px" x="40px" y="108px" /><rect fill="rgb(39,39,39)" height="5px" opacity="0.101960784314" width="5px" x="44px" y="108px" /><rect fill="rgb(41,41,41)" height="5px" opacity="0.121568627451" width="5px" x="60px" y="108px" /><rect fill="rgb(134,94,60)" height="5px" width="5px" x="64px" y="108px" /><rect fill="rgb(39,39,39)" height="5px" opacity="0.101960784314" width="5px" x="68px" y="108px" /><rect fill="rgb(46,46,46)" height="5px" opacity="0.109803921569" width="5px" x="4px" y="112px" /><rect fill="rgb(134,94,60)" height="5px" width="5px" x="8px" y="112px" /><rect fill="rgb(134,94,60)" height="5px" width="5px" x="12px" y="112px" /><rect fill="rgb(0,0,0)" height="5px" opacity="0.00392156862745" width="5px" x="16px" y="112px" /><rect fill="rgb(46,46,46)" height="5px" opacity="0.109803921569" width="5px" x="32px" y="112px" /><rect fill="rgb(134,94,60)" height="5px" width="5px" x="36px" y="112px" /><rect fill="rgb(134,94,60)" height="5px" width="5px" x="40px" y="112px" /><rect fill="rgb(0,0,0)" height="5px" opacity="0.00392156862745" width="5px" x="44px" y="112px" /><rect fill="rgb(46,46,46)" height="5px" opacity="0.109803921569" width="5px" x="56px" y="112px" /><rect fill="rgb(134,94,60)" height="5px" width="5px" x="60px" y="112px" /><rect fill="rgb(134,94,60)" height="5px" width="5px" x="64px" y="112px" /><rect fill="rgb(0,0,0)" height="5px" opacity="0.00392156862745" width="5px" x="68px" y="112px" /><rect fill="rgb(134,94,60)" height="5px" width="5px" x="8px" y="116px" /><rect fill="rgb(42,42,42)" height="5px" opacity="0.192156862745" width="5px" x="12px" y="116px" /><rect fill="rgb(134,94,60)" height="5px" width="5px" x="36px" y="116px" /><rect fill="rgb(42,42,42)" height="5px" opacity="0.192156862745" width="5px" x="40px" y="116px" /><rect fill="rgb(134,94,60)" height="5px" width="5px" x="60px" y="116px" /><rect fill="rgb(42,42,42)" height="5px" opacity="0.192156862745" width="5px" x="64px" y="116px" /><rect fill="rgb(43,43,43)" height="5px" opacity="0.0705882352941" width="5px" x="8px" y="120px" /><rect fill="rgb(43,43,43)" height="5px" opacity="0.0705882352941" width="5px" x="36px" y="120px" /><rect fill="rgb(43,43,43)" height="5px" opacity="0.0705882352941" width="5px" x="60px" y="120px" /></svg>