<?xml version="1.0" encoding="utf-8" ?>
<svg baseProfile="full" height="128px" version="1.1" width="128px" xmlns="http://www.w3.org/2000/svg" xmlns:ev="http://www.w3.org/2001/xml-events" xmlns:xlink="http://www.w3.org/1999/xlink"><defs /><rect fill="rgb(217,66,66)" height="5px" width="5px" x="56px" y="0px" /><rect fill="rgb(217,66,66)" height="5px" width="5px" x="60px" y="0px" /><rect fill="rgb(217,66,66)" height="5px" width="5px" x="64px" y="0px" /><rect fill="rgb(217,66,66)" height="5px" width="5px" x="68px" y="0px" /><rect fill="rgb(217,66,66)" height="5px" width="5px" x="72px" y="0px" /><rect fill="rgb(217,66,66)" height="5px" width="5px" x="56px" y="4px" /><rect fill="rgb(217,66,66)" height="5px" width="5px" x="60px" y="4px" /><rect fill="rgb(217,66,66)" height="5px" width="5px" x="68px" y="4px" /><rect fill="rgb(217,66,66)" height="5px" width="5px" x="72px" y="4px" /><rect fill="rgb(217,66,66)" height="5px" width="5px" x="92px" y="4px" /><rect fill="rgb(42,42,42)" height="5px" width="5px" x="40px" y="8px" /><rect fill="rgb(42,42,42)" height="5px" width="5px" x="44px" y="8px" /><rect fill="rgb(42,42,42)" height="5px" width="5px" x="48px" y="8px" /><rect fill="rgb(42,42,42)" height="5px" width="5px" x="52px" y="8px" /><rect fill="rgb(42,42,42)" height="5px" width="5px" x="56px" y="8px" /><rect fill="rgb(42,42,42)" height="5px" width="5px" x="60px" y="8px" /><rect fill="rgb(42,42,42)" height="5px" width="5px" x="64px" y="8px" /><rect fill="rgb(42,42,42)" height="5px" width="5px" x="68px" y="8px" /><rect fill="rgb(217,66,66)" height="5px" width="5px" x="72px" y="8px" /><rect fill="rgb(217,66,66)" height="5px" width="5px" x="76px" y="8px" /><rect fill="rgb(42,42,42)" height="5px" width="5px" x="80px" y="8px" /><rect fill="rgb(217,66,66)" height="5px" width="5px" x="84px" y="8px" /><rect fill="rgb(217,66,66)" height="5px" width="5px" x="88px" y="8px" /><rect fill="rgb(217,66,66)" height="5px" width="5px" x="92px" y="8px" /><rect fill="rgb(42,42,42)" height="5px" width="5px" x="40px" y="12px" /><rect fill="rgb(42,42,42)" height="5px" width="5px" x="44px" y="12px" /><rect fill="rgb(42,42,42)" height="5px" width="5px" x="48px" y="12px" /><rect fill="rgb(39,39,38)" height="5px" opacity="0.980392156863" width="5px" x="52px" y="12px" /><rect fill="rgb(42,42,42)" height="5px" width="5px" x="56px" y="12px" /><rect fill="rgb(42,42,42)" height="5px" width="5px" x="60px" y="12px" /><rect fill="rgb(42,42,42)" height="5px" width="5px" x="64px" y="12px" /><rect fill="rgb(42,42,42)" height="5px" width="5px" x="68px" y="12px" /><rect fill="rgb(217,66,66)" height="5px" width="5px" x="72px" y="12px" /><rect fill="rgb(217,66,66)" height="5px" width="5px" x="76px" y="12px" /><rect fill="rgb(217,66,66)" height="5px" width="5px" x="80px" y="12px" /><rect fill="rgb(217,66,66)" height="5px" width="5px" x="84px" y="12px" /><rect fill="rgb(217,66,66)" height="5px" width="5px" x="88px" y="12px" /><rect fill="rgb(42,42,42)" height="5px" width="5px" x="40px" y="16px" /><rect fill="rgb(42,42,42)" height="5px" width="5px" x="44px" y="16px" /><rect fill="rgb(42,42,42)" height="5px" width="5px" x="48px" y="16px" /><rect fill="rgb(42,42,42)" height="5px" width="5px" x="52px" y="16px" /><rect fill="rgb(42,42,42)" height="5px" width="5px" x="56px" y="16px" /><rect fill="rgb(42,42,42)" height="5px" width="5px" x="60px" y="16px" /><rect fill="rgb(42,42,42)" height="5px" width="5px" x="64px" y="16px" /><rect fill="rgb(42,42,42)" height="5px" width="5px" x="68px" y="16px" /><rect fill="rgb(42,42,42)" height="5px" width="5px" x="72px" y="16px" /><rect fill="rgb(42,42,42)" height="5px" width="5px" x="76px" y="16px" /><rect fill="rgb(42,42,42)" height="5px" width="5px" x="80px" y="16px" /><rect fill="rgb(42,42,42)" height="5px" width="5px" x="40px" y="20px" /><rect fill="rgb(34,34,33)" height="5px" opacity="0.956862745098" width="5px" x="44px" y="20px" /><rect fill="rgb(30,30,25)" height="5px" width="5px" x="48px" y="20px" /><rect fill="rgb(30,30,25)" height="5px" width="5px" x="52px" y="20px" /><rect fill="rgb(30,30,26)" height="5px" opacity="0.972549019608" width="5px" x="56px" y="20px" /><rect fill="rgb(34,34,31)" height="5px" opacity="0.682352941176" width="5px" x="60px" y="20px" /><rect fill="rgb(18,18,4)" height="5px" opacity="0.913725490196" width="5px" x="64px" y="20px" /><rect fill="rgb(18,18,4)" height="5px" width="5px" x="68px" y="20px" /><rect fill="rgb(18,18,4)" height="5px" opacity="0.913725490196" width="5px" x="72px" y="20px" /><rect fill="rgb(18,18,4)" height="5px" opacity="0.894117647059" width="5px" x="76px" y="20px" /><rect fill="rgb(42,42,42)" height="5px" width="5px" x="80px" y="20px" /><rect fill="rgb(162,162,162)" height="5px" opacity="0.235294117647" width="5px" x="104px" y="20px" /><rect fill="rgb(160,160,160)" height="5px" opacity="0.380392156863" width="5px" x="108px" y="20px" /><rect fill="rgb(156,156,156)" height="5px" opacity="0.192156862745" width="5px" x="112px" y="20px" /><rect fill="rgb(42,42,42)" height="5px" width="5px" x="40px" y="24px" /><rect fill="rgb(18,18,4)" height="5px" opacity="0.996078431373" width="5px" x="44px" y="24px" /><rect fill="rgb(18,18,4)" height="5px" width="5px" x="48px" y="24px" /><rect fill="rgb(18,18,4)" height="5px" width="5px" x="52px" y="24px" /><rect fill="rgb(17,17,3)" height="5px" opacity="0.360784313725" width="5px" x="56px" y="24px" /><rect fill="rgb(19,19,3)" height="5px" opacity="0.317647058824" width="5px" x="64px" y="24px" /><rect fill="rgb(18,18,4)" height="5px" opacity="0.913725490196" width="5px" x="68px" y="24px" /><rect fill="rgb(18,18,4)" height="5px" width="5px" x="72px" y="24px" /><rect fill="rgb(18,18,4)" height="5px" opacity="0.996078431373" width="5px" x="76px" y="24px" /><rect fill="rgb(42,42,42)" height="5px" width="5px" x="80px" y="24px" /><rect fill="rgb(159,159,159)" height="5px" opacity="0.835294117647" width="5px" x="104px" y="24px" /><rect fill="rgb(159,159,159)" height="5px" opacity="0.886274509804" width="5px" x="108px" y="24px" /><rect fill="rgb(159,159,159)" height="5px" opacity="0.301960784314" width="5px" x="112px" y="24px" /><rect fill="rgb(42,42,42)" height="5px" width="5px" x="40px" y="28px" /><rect fill="rgb(18,18,4)" height="5px" width="5px" x="44px" y="28px" /><rect fill="rgb(18,18,4)" height="5px" width="5px" x="48px" y="28px" /><rect fill="rgb(18,18,5)" height="5px" opacity="0.666666666667" width="5px" x="52px" y="28px" /><rect fill="rgb(19,19,4)" height="5px" opacity="0.474509803922" width="5px" x="68px" y="28px" /><rect fill="rgb(18,18,4)" height="5px" width="5px" x="72px" y="28px" /><rect fill="rgb(18,18,4)" height="5px" width="5px" x="76px" y="28px" /><rect fill="rgb(42,42,42)" height="5px" width="5px" x="80px" y="28px" /><rect fill="rgb(159,159,159)" height="5px" opacity="0.490196078431" width="5px" x="100px" y="28px" /><rect fill="rgb(160,160,160)" height="5px" width="5px" x="104px" y="28px" /><rect fill="rgb(160,160,160)" height="5px" width="5px" x="108px" y="28px" /><rect fill="rgb(42,42,42)" height="5px" width="5px" x="40px" y="32px" /><rect fill="rgb(42,42,42)" height="5px" width="5px" x="44px" y="32px" /><rect fill="rgb(18,18,4)" height="5px" width="5px" x="48px" y="32px" /><rect fill="rgb(18,18,4)" height="5px" opacity="0.992156862745" width="5px" x="52px" y="32px" /><rect fill="rgb(19,19,3)" height="5px" opacity="0.317647058824" width="5px" x="56px" y="32px" /><rect fill="rgb(19,19,3)" height="5px" opacity="0.317647058824" width="5px" x="64px" y="32px" /><rect fill="rgb(18,18,4)" height="5px" opacity="0.913725490196" width="5px" x="68px" y="32px" /><rect fill="rgb(18,18,4)" height="5px" width="5px" x="72px" y="32px" /><rect fill="rgb(30,30,25)" height="5px" opacity="0.996078431373" width="5px" x="76px" y="32px" /><rect fill="rgb(42,42,42)" height="5px" width="5px" x="80px" y="32px" /><rect fill="rgb(159,159,159)" height="5px" opacity="0.145098039216" width="5px" x="96px" y="32px" /><rect fill="rgb(160,160,160)" height="5px" width="5px" x="100px" y="32px" /><rect fill="rgb(160,160,160)" height="5px" width="5px" x="104px" y="32px" /><rect fill="rgb(162,162,162)" height="5px" opacity="0.129411764706" width="5px" x="108px" y="32px" /><rect fill="rgb(42,42,42)" height="5px" width="5px" x="40px" y="36px" /><rect fill="rgb(42,42,42)" height="5px" width="5px" x="44px" y="36px" /><rect fill="rgb(18,18,4)" height="5px" width="5px" x="48px" y="36px" /><rect fill="rgb(18,18,4)" height="5px" width="5px" x="52px" y="36px" /><rect fill="rgb(18,18,4)" height="5px" opacity="0.913725490196" width="5px" x="56px" y="36px" /><rect fill="rgb(19,19,4)" height="5px" opacity="0.474509803922" width="5px" x="60px" y="36px" /><rect fill="rgb(18,18,4)" height="5px" opacity="0.913725490196" width="5px" x="64px" y="36px" /><rect fill="rgb(18,18,4)" height="5px" width="5px" x="68px" y="36px" /><rect fill="rgb(18,18,4)" height="5px" opacity="0.949019607843" width="5px" x="72px" y="36px" /><rect fill="rgb(42,42,42)" height="5px" width="5px" x="76px" y="36px" /><rect fill="rgb(42,42,42)" height="5px" width="5px" x="80px" y="36px" /><rect fill="rgb(160,160,160)" height="5px" width="5px" x="96px" y="36px" /><rect fill="rgb(160,160,160)" height="5px" width="5px" x="100px" y="36px" /><rect fill="rgb(160,160,160)" height="5px" opacity="0.474509803922" width="5px" x="104px" y="36px" /><rect fill="rgb(42,42,42)" height="5px" width="5px" x="40px" y="40px" /><rect fill="rgb(42,42,42)" height="5px" width="5px" x="44px" y="40px" /><rect fill="rgb(18,18,4)" height="5px" opacity="0.96862745098" width="5px" x="48px" y="40px" /><rect fill="rgb(18,18,4)" height="5px" opacity="0.913725490196" width="5px" x="52px" y="40px" /><rect fill="rgb(18,18,4)" height="5px" width="5px" x="56px" y="40px" /><rect fill="rgb(18,18,4)" height="5px" width="5px" x="60px" y="40px" /><rect fill="rgb(18,18,4)" height="5px" width="5px" x="64px" y="40px" /><rect fill="rgb(18,18,4)" height="5px" opacity="0.913725490196" width="5px" x="68px" y="40px" /><rect fill="rgb(18,18,4)" height="5px" opacity="0.96862745098" width="5px" x="72px" y="40px" /><rect fill="rgb(42,42,42)" height="5px" width="5px" x="76px" y="40px" /><rect fill="rgb(42,42,42)" height="5px" width="5px" x="80px" y="40px" /><rect fill="rgb(160,160,160)" height="5px" opacity="0.325490196078" width="5px" x="92px" y="40px" /><rect fill="rgb(160,160,160)" height="5px" width="5px" x="96px" y="40px" /><rect fill="rgb(160,160,160)" height="5px" width="5px" x="100px" y="40px" /><rect fill="rgb(0,0,0)" height="5px" opacity="0.0117647058824" width="5px" x="16px" y="44px" /><rect fill="rgb(0,0,0)" height="5px" opacity="0.00392156862745" width="5px" x="20px" y="44px" /><rect fill="rgb(0,0,0)" height="5px" opacity="0.00392156862745" width="5px" x="24px" y="44px" /><rect fill="rgb(0,0,0)" height="5px" opacity="0.00392156862745" width="5px" x="28px" y="44px" /><rect fill="rgb(0,0,0)" height="5px" opacity="0.00392156862745" width="5px" x="32px" y="44px" /><rect fill="rgb(0,0,0)" height="5px" opacity="0.00392156862745" width="5px" x="36px" y="44px" /><rect fill="rgb(0,0,0)" height="5px" opacity="0.0117647058824" width="5px" x="40px" y="44px" /><rect fill="rgb(0,0,0)" height="5px" opacity="0.00392156862745" width="5px" x="44px" y="44px" /><rect fill="rgb(17,17,4)" height="5px" opacity="0.239215686275" width="5px" x="48px" y="44px" /><rect fill="rgb(18,18,4)" height="5px" opacity="0.894117647059" width="5px" x="52px" y="44px" /><rect fill="rgb(18,18,4)" height="5px" opacity="0.996078431373" width="5px" x="56px" y="44px" /><rect fill="rgb(18,18,4)" height="5px" width="5px" x="60px" y="44px" /><rect fill="rgb(18,18,4)" height="5px" opacity="0.996078431373" width="5px" x="64px" y="44px" /><rect fill="rgb(18,18,4)" height="5px" opacity="0.894117647059" width="5px" x="68px" y="44px" /><rect fill="rgb(17,17,4)" height="5px" opacity="0.235294117647" width="5px" x="72px" y="44px" /><rect fill="rgb(152,106,68)" height="5px" width="5px" x="80px" y="44px" /><rect fill="rgb(160,160,160)" height="5px" width="5px" x="92px" y="44px" /><rect fill="rgb(160,160,160)" height="5px" width="5px" x="96px" y="44px" /><rect fill="rgb(159,159,159)" height="5px" opacity="0.301960784314" width="5px" x="100px" y="44px" /><rect fill="rgb(51,0,0)" height="5px" opacity="0.603921568627" width="5px" x="12px" y="48px" /><rect fill="rgb(154,0,0)" height="5px" width="5px" x="16px" y="48px" /><rect fill="rgb(154,0,0)" height="5px" width="5px" x="20px" y="48px" /><rect fill="rgb(112,0,0)" height="5px" width="5px" x="24px" y="48px" /><rect fill="rgb(154,0,0)" height="5px" width="5px" x="28px" y="48px" /><rect fill="rgb(154,0,0)" height="5px" width="5px" x="32px" y="48px" /><rect fill="rgb(92,31,0)" height="5px" width="5px" x="36px" y="48px" /><rect fill="rgb(154,154,0)" height="5px" width="5px" x="40px" y="48px" /><rect fill="rgb(123,123,0)" height="5px" width="5px" x="44px" y="48px" /><rect fill="rgb(124,0,0)" height="5px" width="5px" x="48px" y="48px" /><rect fill="rgb(154,0,0)" height="5px" width="5px" x="52px" y="48px" /><rect fill="rgb(50,0,0)" height="5px" opacity="0.596078431373" width="5px" x="56px" y="48px" /><rect fill="rgb(152,106,68)" height="5px" width="5px" x="84px" y="48px" /><rect fill="rgb(160,160,160)" height="5px" width="5px" x="88px" y="48px" /><rect fill="rgb(160,160,160)" height="5px" width="5px" x="92px" y="48px" /><rect fill="rgb(160,160,160)" height="5px" width="5px" x="96px" y="48px" /><rect fill="rgb(86,0,0)" height="5px" opacity="0.603921568627" width="5px" x="12px" y="52px" /><rect fill="rgb(255,0,0)" height="5px" width="5px" x="16px" y="52px" /><rect fill="rgb(213,0,0)" height="5px" width="5px" x="20px" y="52px" /><rect fill="rgb(174,164,0)" height="5px" width="5px" x="24px" y="52px" /><rect fill="rgb(173,0,0)" height="5px" width="5px" x="28px" y="52px" /><rect fill="rgb(254,0,0)" height="5px" width="5px" x="32px" y="52px" /><rect fill="rgb(153,52,0)" height="5px" width="5px" x="36px" y="52px" /><rect fill="rgb(254,254,0)" height="5px" width="5px" x="40px" y="52px" /><rect fill="rgb(203,203,0)" height="5px" width="5px" x="44px" y="52px" /><rect fill="rgb(204,0,0)" height="5px" width="5px" x="48px" y="52px" /><rect fill="rgb(255,0,0)" height="5px" width="5px" x="52px" y="52px" /><rect fill="rgb(52,10,3)" height="5px" width="5px" x="56px" y="52px" /><rect fill="rgb(18,18,4)" height="5px" opacity="0.996078431373" width="5px" x="60px" y="52px" /><rect fill="rgb(18,18,4)" height="5px" opacity="0.992156862745" width="5px" x="64px" y="52px" /><rect fill="rgb(18,18,4)" height="5px" opacity="0.992156862745" width="5px" x="68px" y="52px" /><rect fill="rgb(18,18,4)" height="5px" opacity="0.992156862745" width="5px" x="72px" y="52px" /><rect fill="rgb(18,18,4)" height="5px" opacity="0.992156862745" width="5px" x="76px" y="52px" /><rect fill="rgb(18,18,4)" height="5px" opacity="0.992156862745" width="5px" x="80px" y="52px" /><rect fill="rgb(36,36,24)" height="5px" opacity="0.960784313725" width="5px" x="84px" y="52px" /><rect fill="rgb(152,106,68)" height="5px" width="5px" x="88px" y="52px" /><rect fill="rgb(160,160,160)" height="5px" width="5px" x="92px" y="52px" /><rect fill="rgb(162,162,162)" height="5px" opacity="0.129411764706" width="5px" x="96px" y="52px" /><rect fill="rgb(86,0,0)" height="5px" opacity="0.603921568627" width="5px" x="12px" y="56px" /><rect fill="rgb(153,62,0)" height="5px" width="5px" x="16px" y="56px" /><rect fill="rgb(122,41,0)" height="5px" width="5px" x="20px" y="56px" /><rect fill="rgb(204,204,0)" height="5px" width="5px" x="24px" y="56px" /><rect fill="rgb(62,61,2)" height="5px" width="5px" x="28px" y="56px" /><rect fill="rgb(102,101,4)" height="5px" width="5px" x="32px" y="56px" /><rect fill="rgb(102,101,3)" height="5px" width="5px" x="36px" y="56px" /><rect fill="rgb(102,102,0)" height="5px" width="5px" x="40px" y="56px" /><rect fill="rgb(102,102,1)" height="5px" width="5px" x="44px" y="56px" /><rect fill="rgb(123,121,4)" height="5px" width="5px" x="48px" y="56px" /><rect fill="rgb(194,21,0)" height="5px" width="5px" x="52px" y="56px" /><rect fill="rgb(57,7,2)" height="5px" width="5px" x="56px" y="56px" /><rect fill="rgb(18,18,4)" height="5px" width="5px" x="60px" y="56px" /><rect fill="rgb(18,18,4)" height="5px" width="5px" x="64px" y="56px" /><rect fill="rgb(18,18,4)" height="5px" width="5px" x="68px" y="56px" /><rect fill="rgb(18,18,4)" height="5px" width="5px" x="72px" y="56px" /><rect fill="rgb(18,18,4)" height="5px" width="5px" x="76px" y="56px" /><rect fill="rgb(18,18,4)" height="5px" width="5px" x="80px" y="56px" /><rect fill="rgb(152,106,68)" height="5px" width="5px" x="84px" y="56px" /><rect fill="rgb(159,159,159)" height="5px" opacity="0.219607843137" width="5px" x="88px" y="56px" /><rect fill="rgb(152,106,68)" height="5px" width="5px" x="92px" y="56px" /><rect fill="rgb(86,0,0)" height="5px" opacity="0.603921568627" width="5px" x="12px" y="60px" /><rect fill="rgb(153,61,0)" height="5px" width="5px" x="16px" y="60px" /><rect fill="rgb(122,40,0)" height="5px" width="5px" x="20px" y="60px" /><rect fill="rgb(204,204,0)" height="5px" width="5px" x="24px" y="60px" /><rect fill="rgb(62,61,2)" height="5px" width="5px" x="28px" y="60px" /><rect fill="rgb(103,101,4)" height="5px" width="5px" x="32px" y="60px" /><rect fill="rgb(102,101,3)" height="5px" width="5px" x="36px" y="60px" /><rect fill="rgb(103,103,0)" height="5px" width="5px" x="40px" y="60px" /><rect fill="rgb(103,102,1)" height="5px" width="5px" x="44px" y="60px" /><rect fill="rgb(123,121,4)" height="5px" width="5px" x="48px" y="60px" /><rect fill="rgb(194,20,0)" height="5px" width="5px" x="52px" y="60px" /><rect fill="rgb(57,7,2)" height="5px" width="5px" x="56px" y="60px" /><rect fill="rgb(18,18,4)" height="5px" width="5px" x="60px" y="60px" /><rect fill="rgb(18,18,4)" height="5px" opacity="0.980392156863" width="5px" x="64px" y="60px" /><rect fill="rgb(152,106,68)" height="5px" width="5px" x="80px" y="60px" /><rect fill="rgb(152,106,68)" height="5px" width="5px" x="96px" y="60px" /><rect fill="rgb(86,0,0)" height="5px" opacity="0.603921568627" width="5px" x="12px" y="64px" /><rect fill="rgb(255,0,0)" height="5px" width="5px" x="16px" y="64px" /><rect fill="rgb(214,0,0)" height="5px" width="5px" x="20px" y="64px" /><rect fill="rgb(173,163,0)" height="5px" width="5px" x="24px" y="64px" /><rect fill="rgb(174,0,0)" height="5px" width="5px" x="28px" y="64px" /><rect fill="rgb(255,0,0)" height="5px" width="5px" x="32px" y="64px" /><rect fill="rgb(153,52,0)" height="5px" width="5px" x="36px" y="64px" /><rect fill="rgb(255,255,0)" height="5px" width="5px" x="40px" y="64px" /><rect fill="rgb(203,203,0)" height="5px" width="5px" x="44px" y="64px" /><rect fill="rgb(205,0,0)" height="5px" width="5px" x="48px" y="64px" /><rect fill="rgb(255,0,0)" height="5px" width="5px" x="52px" y="64px" /><rect fill="rgb(57,7,2)" height="5px" width="5px" x="56px" y="64px" /><rect fill="rgb(18,18,4)" height="5px" width="5px" x="60px" y="64px" /><rect fill="rgb(18,18,4)" height="5px" opacity="0.976470588235" width="5px" x="64px" y="64px" /><rect fill="rgb(86,0,0)" height="5px" opacity="0.603921568627" width="5px" x="12px" y="68px" /><rect fill="rgb(254,0,0)" height="5px" width="5px" x="16px" y="68px" /><rect fill="rgb(214,0,0)" height="5px" width="5px" x="20px" y="68px" /><rect fill="rgb(215,0,0)" height="5px" width="5px" x="24px" y="68px" /><rect fill="rgb(255,0,0)" height="5px" width="5px" x="28px" y="68px" /><rect fill="rgb(255,0,0)" height="5px" width="5px" x="32px" y="68px" /><rect fill="rgb(153,52,0)" height="5px" width="5px" x="36px" y="68px" /><rect fill="rgb(255,255,0)" height="5px" width="5px" x="40px" y="68px" /><rect fill="rgb(203,203,0)" height="5px" width="5px" x="44px" y="68px" /><rect fill="rgb(205,0,0)" height="5px" width="5px" x="48px" y="68px" /><rect fill="rgb(255,0,0)" height="5px" width="5px" x="52px" y="68px" /><rect fill="rgb(57,7,2)" height="5px" width="5px" x="56px" y="68px" /><rect fill="rgb(18,18,4)" height="5px" width="5px" x="60px" y="68px" /><rect fill="rgb(18,18,4)" height="5px" opacity="0.976470588235" width="5px" x="64px" y="68px" /><rect fill="rgb(86,0,0)" height="5px" opacity="0.603921568627" width="5px" x="12px" y="72px" /><rect fill="rgb(111,21,0)" height="5px" width="5px" x="16px" y="72px" /><rect fill="rgb(31,71,0)" height="5px" width="5px" x="20px" y="72px" /><rect fill="rgb(235,0,0)" height="5px" width="5px" x="24px" y="72px" /><rect fill="rgb(255,0,0)" height="5px" width="5px" x="28px" y="72px" /><rect fill="rgb(255,0,0)" height="5px" width="5px" x="32px" y="72px" /><rect fill="rgb(153,52,0)" height="5px" width="5px" x="36px" y="72px" /><rect fill="rgb(255,255,0)" height="5px" width="5px" x="40px" y="72px" /><rect fill="rgb(203,203,0)" height="5px" width="5px" x="44px" y="72px" /><rect fill="rgb(205,0,0)" height="5px" width="5px" x="48px" y="72px" /><rect fill="rgb(255,0,0)" height="5px" width="5px" x="52px" y="72px" /><rect fill="rgb(57,7,2)" height="5px" width="5px" x="56px" y="72px" /><rect fill="rgb(18,18,4)" height="5px" width="5px" x="60px" y="72px" /><rect fill="rgb(17,17,3)" height="5px" width="5px" x="64px" y="72px" /><rect fill="rgb(86,0,0)" height="5px" opacity="0.603921568627" width="5px" x="12px" y="76px" /><rect fill="rgb(112,21,0)" height="5px" width="5px" x="16px" y="76px" /><rect fill="rgb(31,71,0)" height="5px" width="5px" x="20px" y="76px" /><rect fill="rgb(235,0,0)" height="5px" width="5px" x="24px" y="76px" /><rect fill="rgb(255,0,0)" height="5px" width="5px" x="28px" y="76px" /><rect fill="rgb(255,0,0)" height="5px" width="5px" x="32px" y="76px" /><rect fill="rgb(153,52,0)" height="5px" width="5px" x="36px" y="76px" /><rect fill="rgb(255,255,0)" height="5px" width="5px" x="40px" y="76px" /><rect fill="rgb(203,203,0)" height="5px" width="5px" x="44px" y="76px" /><rect fill="rgb(205,0,0)" height="5px" width="5px" x="48px" y="76px" /><rect fill="rgb(255,0,0)" height="5px" width="5px" x="52px" y="76px" /><rect fill="rgb(57,7,2)" height="5px" width="5px" x="56px" y="76px" /><rect fill="rgb(17,17,3)" height="5px" width="5px" x="60px" y="76px" /><rect fill="rgb(17,17,3)" height="5px" width="5px" x="64px" y="76px" /><rect fill="rgb(86,0,0)" height="5px" opacity="0.603921568627" width="5px" x="12px" y="80px" /><rect fill="rgb(254,0,0)" height="5px" width="5px" x="16px" y="80px" /><rect fill="rgb(143,0,0)" height="5px" width="5px" x="20px" y="80px" /><rect fill="rgb(81,41,0)" height="5px" width="5px" x="24px" y="80px" /><rect fill="rgb(61,46,0)" height="5px" width="5px" x="28px" y="80px" /><rect fill="rgb(204,5,0)" height="5px" width="5px" x="32px" y="80px" /><rect fill="rgb(153,52,0)" height="5px" width="5px" x="36px" y="80px" /><rect fill="rgb(255,255,0)" height="5px" width="5px" x="40px" y="80px" /><rect fill="rgb(203,203,0)" height="5px" width="5px" x="44px" y="80px" /><rect fill="rgb(205,0,0)" height="5px" width="5px" x="48px" y="80px" /><rect fill="rgb(255,0,0)" height="5px" width="5px" x="52px" y="80px" /><rect fill="rgb(57,7,2)" height="5px" width="5px" x="56px" y="80px" /><rect fill="rgb(17,17,3)" height="5px" width="5px" x="60px" y="80px" /><rect fill="rgb(17,17,3)" height="5px" width="5px" x="64px" y="80px" /><rect fill="rgb(70,0,0)" height="5px" opacity="0.443137254902" width="5px" x="12px" y="84px" /><rect fill="rgb(234,0,0)" height="5px" width="5px" x="16px" y="84px" /><rect fill="rgb(225,0,0)" height="5px" width="5px" x="20px" y="84px" /><rect fill="rgb(82,41,0)" height="5px" width="5px" x="24px" y="84px" /><rect fill="rgb(62,46,0)" height="5px" width="5px" x="28px" y="84px" /><rect fill="rgb(205,5,0)" height="5px" width="5px" x="32px" y="84px" /><rect fill="rgb(153,52,0)" height="5px" width="5px" x="36px" y="84px" /><rect fill="rgb(255,255,0)" height="5px" width="5px" x="40px" y="84px" /><rect fill="rgb(203,203,0)" height="5px" width="5px" x="44px" y="84px" /><rect fill="rgb(204,0,0)" height="5px" width="5px" x="48px" y="84px" /><rect fill="rgb(187,0,0)" height="5px" opacity="0.917647058824" width="5px" x="52px" y="84px" /><rect fill="rgb(21,11,2)" height="5px" width="5px" x="56px" y="84px" /><rect fill="rgb(17,17,3)" height="5px" width="5px" x="60px" y="84px" /><rect fill="rgb(17,17,3)" height="5px" width="5px" x="64px" y="84px" /><rect fill="rgb(0,0,0)" height="5px" opacity="0.321568627451" width="5px" x="16px" y="88px" /><rect fill="rgb(145,0,0)" height="5px" opacity="0.839215686275" width="5px" x="20px" y="88px" /><rect fill="rgb(224,0,0)" height="5px" width="5px" x="24px" y="88px" /><rect fill="rgb(255,0,0)" height="5px" width="5px" x="28px" y="88px" /><rect fill="rgb(255,0,0)" height="5px" width="5px" x="32px" y="88px" /><rect fill="rgb(153,52,0)" height="5px" width="5px" x="36px" y="88px" /><rect fill="rgb(255,255,0)" height="5px" width="5px" x="40px" y="88px" /><rect fill="rgb(182,182,0)" height="5px" width="5px" x="44px" y="88px" /><rect fill="rgb(59,0,0)" height="5px" opacity="0.674509803922" width="5px" x="48px" y="88px" /><rect fill="rgb(0,0,0)" height="5px" opacity="0.156862745098" width="5px" x="52px" y="88px" /><rect fill="rgb(18,18,4)" height="5px" width="5px" x="56px" y="88px" /><rect fill="rgb(18,18,4)" height="5px" opacity="0.992156862745" width="5px" x="60px" y="88px" /><rect fill="rgb(18,18,4)" height="5px" width="5px" x="64px" y="88px" /><rect fill="rgb(17,17,0)" height="5px" opacity="0.0588235294118" width="5px" x="68px" y="88px" /><rect fill="rgb(0,0,0)" height="5px" opacity="0.0392156862745" width="5px" x="20px" y="92px" /><rect fill="rgb(56,0,0)" height="5px" opacity="0.356862745098" width="5px" x="24px" y="92px" /><rect fill="rgb(133,0,0)" height="5px" opacity="0.839215686275" width="5px" x="28px" y="92px" /><rect fill="rgb(153,0,0)" height="5px" opacity="0.996078431373" width="5px" x="32px" y="92px" /><rect fill="rgb(91,31,0)" height="5px" opacity="0.996078431373" width="5px" x="36px" y="92px" /><rect fill="rgb(133,133,0)" height="5px" opacity="0.835294117647" width="5px" x="40px" y="92px" /><rect fill="rgb(56,56,0)" height="5px" opacity="0.356862745098" width="5px" x="44px" y="92px" /><rect fill="rgb(0,0,0)" height="5px" opacity="0.0392156862745" width="5px" x="48px" y="92px" /><rect fill="rgb(17,17,3)" height="5px" width="5px" x="52px" y="92px" /><rect fill="rgb(18,18,4)" height="5px" opacity="0.996078431373" width="5px" x="56px" y="92px" /><rect fill="rgb(19,19,5)" height="5px" opacity="0.211764705882" width="5px" x="60px" y="92px" /><rect fill="rgb(18,18,4)" height="5px" width="5px" x="64px" y="92px" /><rect fill="rgb(18,18,4)" height="5px" opacity="0.929411764706" width="5px" x="68px" y="92px" /><rect fill="rgb(17,17,4)" height="5px" opacity="0.803921568627" width="5px" x="48px" y="96px" /><rect fill="rgb(17,17,3)" height="5px" width="5px" x="52px" y="96px" /><rect fill="rgb(18,18,3)" height="5px" opacity="0.874509803922" width="5px" x="56px" y="96px" /><rect fill="rgb(18,18,5)" height="5px" opacity="0.886274509804" width="5px" x="64px" y="96px" /><rect fill="rgb(18,18,4)" height="5px" width="5px" x="68px" y="96px" /><rect fill="rgb(19,19,3)" height="5px" opacity="0.321568627451" width="5px" x="72px" y="96px" /><rect fill="rgb(18,18,4)" height="5px" opacity="0.996078431373" width="5px" x="48px" y="100px" /><rect fill="rgb(18,18,4)" height="5px" width="5px" x="52px" y="100px" /><rect fill="rgb(16,16,5)" height="5px" opacity="0.18431372549" width="5px" x="56px" y="100px" /><rect fill="rgb(18,18,4)" height="5px" width="5px" x="68px" y="100px" /><rect fill="rgb(18,18,4)" height="5px" opacity="0.98431372549" width="5px" x="72px" y="100px" /><rect fill="rgb(18,18,4)" height="5px" opacity="0.454901960784" width="5px" x="44px" y="104px" /><rect fill="rgb(18,18,4)" height="5px" width="5px" x="48px" y="104px" /><rect fill="rgb(18,18,4)" height="5px" opacity="0.992156862745" width="5px" x="52px" y="104px" /><rect fill="rgb(18,18,3)" height="5px" opacity="0.603921568627" width="5px" x="68px" y="104px" /><rect fill="rgb(18,18,4)" height="5px" width="5px" x="72px" y="104px" /><rect fill="rgb(18,18,3)" height="5px" opacity="0.603921568627" width="5px" x="76px" y="104px" /><rect fill="rgb(19,19,4)" height="5px" opacity="0.972549019608" width="5px" x="44px" y="108px" /><rect fill="rgb(18,18,4)" height="5px" width="5px" x="48px" y="108px" /><rect fill="rgb(18,18,4)" height="5px" opacity="0.76862745098" width="5px" x="52px" y="108px" /><rect fill="rgb(18,18,4)" height="5px" opacity="0.98431372549" width="5px" x="72px" y="108px" /><rect fill="rgb(18,18,4)" height="5px" opacity="0.996078431373" width="5px" x="76px" y="108px" /><rect fill="rgb(18,18,4)" height="5px" width="5px" x="40px" y="112px" /><rect fill="rgb(18,18,4)" height="5px" width="5px" x="44px" y="112px" /><rect fill="rgb(18,18,4)" height="5px" width="5px" x="48px" y="112px" /><rect fill="rgb(17,17,0)" height="5px" opacity="0.0588235294118" width="5px" x="52px" y="112px" /><rect fill="rgb(16,16,4)" height="5px" opacity="0.247058823529" width="5px" x="72px" y="112px" /><rect fill="rgb(18,18,4)" height="5px" width="5px" x="76px" y="112px" /><rect fill="rgb(18,18,4)" height="5px" width="5px" x="80px" y="112px" /><rect fill="rgb(18,18,4)" height="5px" width="5px" x="40px" y="116px" /><rect fill="rgb(18,18,4)" height="5px" opacity="0.956862745098" width="5px" x="44px" y="116px" /><rect fill="rgb(17,17,3)" height="5px" opacity="0.858823529412" width="5px" x="48px" y="116px" /><rect fill="rgb(18,18,4)" height="5px" width="5px" x="76px" y="116px" /><rect fill="rgb(18,18,4)" height="5px" opacity="0.941176470588" width="5px" x="80px" y="116px" /></svg>