<?xml version="1.0" encoding="utf-8" ?>
<svg baseProfile="full" height="128px" version="1.1" width="128px" xmlns="http://www.w3.org/2000/svg" xmlns:ev="http://www.w3.org/2001/xml-events" xmlns:xlink="http://www.w3.org/1999/xlink"><defs /><rect fill="rgb(217,66,66)" height="5px" width="5px" x="36px" y="0px" /><rect fill="rgb(217,66,66)" height="5px" width="5px" x="40px" y="0px" /><rect fill="rgb(217,66,66)" height="5px" width="5px" x="44px" y="0px" /><rect fill="rgb(217,66,66)" height="5px" width="5px" x="48px" y="0px" /><rect fill="rgb(217,66,66)" height="5px" width="5px" x="32px" y="4px" /><rect fill="rgb(217,66,66)" height="5px" width="5px" x="48px" y="4px" /><rect fill="rgb(217,66,66)" height="5px" width="5px" x="52px" y="4px" /><rect fill="rgb(38,38,38)" height="5px" opacity="0.078431372549" width="5px" x="80px" y="4px" /><rect fill="rgb(217,66,66)" height="5px" width="5px" x="28px" y="8px" /><rect fill="rgb(217,66,66)" height="5px" width="5px" x="32px" y="8px" /><rect fill="rgb(217,66,66)" height="5px" width="5px" x="48px" y="8px" /><rect fill="rgb(217,66,66)" height="5px" width="5px" x="52px" y="8px" /><rect fill="rgb(217,66,66)" height="5px" width="5px" x="20px" y="12px" /><rect fill="rgb(217,66,66)" height="5px" width="5px" x="24px" y="12px" /><rect fill="rgb(217,66,66)" height="5px" width="5px" x="28px" y="12px" /><rect fill="rgb(43,43,43)" height="5px" opacity="0.988235294118" width="5px" x="36px" y="12px" /><rect fill="rgb(42,42,42)" height="5px" width="5px" x="40px" y="12px" /><rect fill="rgb(42,42,42)" height="5px" width="5px" x="44px" y="12px" /><rect fill="rgb(42,42,42)" height="5px" width="5px" x="48px" y="12px" /><rect fill="rgb(42,42,42)" height="5px" width="5px" x="52px" y="12px" /><rect fill="rgb(42,42,42)" height="5px" width="5px" x="56px" y="12px" /><rect fill="rgb(42,42,42)" height="5px" width="5px" x="60px" y="12px" /><rect fill="rgb(42,42,42)" height="5px" width="5px" x="64px" y="12px" /><rect fill="rgb(36,36,36)" height="5px" opacity="0.0549019607843" width="5px" x="68px" y="12px" /><rect fill="rgb(46,46,46)" height="5px" opacity="0.109803921569" width="5px" x="100px" y="12px" /><rect fill="rgb(51,51,51)" height="5px" opacity="0.0196078431373" width="5px" x="104px" y="12px" /><rect fill="rgb(42,42,42)" height="5px" width="5px" x="36px" y="16px" /><rect fill="rgb(42,42,42)" height="5px" width="5px" x="40px" y="16px" /><rect fill="rgb(42,42,42)" height="5px" width="5px" x="44px" y="16px" /><rect fill="rgb(42,42,42)" height="5px" width="5px" x="48px" y="16px" /><rect fill="rgb(42,42,42)" height="5px" width="5px" x="52px" y="16px" /><rect fill="rgb(42,42,42)" height="5px" width="5px" x="56px" y="16px" /><rect fill="rgb(42,42,42)" height="5px" width="5px" x="60px" y="16px" /><rect fill="rgb(42,42,42)" height="5px" width="5px" x="64px" y="16px" /><rect fill="rgb(28,28,28)" height="5px" opacity="0.0352941176471" width="5px" x="104px" y="16px" /><rect fill="rgb(42,42,42)" height="5px" width="5px" x="36px" y="20px" /><rect fill="rgb(42,42,42)" height="5px" width="5px" x="40px" y="20px" /><rect fill="rgb(18,18,4)" height="5px" opacity="0.854901960784" width="5px" x="44px" y="20px" /><rect fill="rgb(18,18,4)" height="5px" width="5px" x="48px" y="20px" /><rect fill="rgb(18,18,4)" height="5px" width="5px" x="52px" y="20px" /><rect fill="rgb(18,18,4)" height="5px" opacity="0.847058823529" width="5px" x="56px" y="20px" /><rect fill="rgb(42,42,42)" height="5px" opacity="0.992156862745" width="5px" x="60px" y="20px" /><rect fill="rgb(42,42,42)" height="5px" width="5px" x="64px" y="20px" /><rect fill="rgb(42,42,42)" height="5px" width="5px" x="36px" y="24px" /><rect fill="rgb(18,18,4)" height="5px" opacity="0.929411764706" width="5px" x="40px" y="24px" /><rect fill="rgb(18,18,4)" height="5px" width="5px" x="44px" y="24px" /><rect fill="rgb(18,18,4)" height="5px" opacity="0.670588235294" width="5px" x="48px" y="24px" /><rect fill="rgb(18,18,5)" height="5px" opacity="0.658823529412" width="5px" x="52px" y="24px" /><rect fill="rgb(18,18,4)" height="5px" opacity="0.960784313725" width="5px" x="56px" y="24px" /><rect fill="rgb(18,18,4)" height="5px" opacity="0.925490196078" width="5px" x="60px" y="24px" /><rect fill="rgb(42,42,42)" height="5px" width="5px" x="64px" y="24px" /><rect fill="rgb(41,41,41)" height="5px" opacity="0.121568627451" width="5px" x="100px" y="24px" /><rect fill="rgb(18,18,4)" height="5px" width="5px" x="40px" y="28px" /><rect fill="rgb(19,19,4)" height="5px" opacity="0.807843137255" width="5px" x="44px" y="28px" /><rect fill="rgb(32,32,0)" height="5px" opacity="0.0313725490196" width="5px" x="48px" y="28px" /><rect fill="rgb(0,0,0)" height="5px" opacity="0.0274509803922" width="5px" x="52px" y="28px" /><rect fill="rgb(18,18,4)" height="5px" opacity="0.717647058824" width="5px" x="56px" y="28px" /><rect fill="rgb(18,18,4)" height="5px" width="5px" x="60px" y="28px" /><rect fill="rgb(0,0,0)" height="5px" opacity="0.00392156862745" width="5px" x="16px" y="32px" /><rect fill="rgb(0,0,0)" height="5px" opacity="0.00392156862745" width="5px" x="20px" y="32px" /><rect fill="rgb(0,0,0)" height="5px" opacity="0.00392156862745" width="5px" x="24px" y="32px" /><rect fill="rgb(0,0,0)" height="5px" opacity="0.00392156862745" width="5px" x="28px" y="32px" /><rect fill="rgb(0,0,0)" height="5px" opacity="0.00392156862745" width="5px" x="32px" y="32px" /><rect fill="rgb(0,0,0)" height="5px" opacity="0.00392156862745" width="5px" x="36px" y="32px" /><rect fill="rgb(18,18,4)" height="5px" opacity="0.949019607843" width="5px" x="40px" y="32px" /><rect fill="rgb(18,18,4)" height="5px" opacity="0.996078431373" width="5px" x="44px" y="32px" /><rect fill="rgb(17,17,4)" height="5px" opacity="0.517647058824" width="5px" x="48px" y="32px" /><rect fill="rgb(19,19,4)" height="5px" opacity="0.537254901961" width="5px" x="52px" y="32px" /><rect fill="rgb(18,18,4)" height="5px" opacity="0.964705882353" width="5px" x="56px" y="32px" /><rect fill="rgb(18,18,4)" height="5px" opacity="0.949019607843" width="5px" x="60px" y="32px" /><rect fill="rgb(246,245,244)" height="5px" width="5px" x="96px" y="32px" /><rect fill="rgb(246,245,244)" height="5px" width="5px" x="100px" y="32px" /><rect fill="rgb(81,0,0)" height="5px" opacity="0.470588235294" width="5px" x="12px" y="36px" /><rect fill="rgb(168,1,1)" height="5px" opacity="0.933333333333" width="5px" x="16px" y="36px" /><rect fill="rgb(130,27,4)" height="5px" opacity="0.992156862745" width="5px" x="20px" y="36px" /><rect fill="rgb(152,4,4)" height="5px" width="5px" x="24px" y="36px" /><rect fill="rgb(125,23,4)" height="5px" width="5px" x="28px" y="36px" /><rect fill="rgb(151,145,4)" height="5px" opacity="0.992156862745" width="5px" x="32px" y="36px" /><rect fill="rgb(138,69,1)" height="5px" opacity="0.933333333333" width="5px" x="36px" y="36px" /><rect fill="rgb(156,1,0)" height="5px" opacity="0.901960784314" width="5px" x="40px" y="36px" /><rect fill="rgb(32,12,3)" height="5px" opacity="0.941176470588" width="5px" x="44px" y="36px" /><rect fill="rgb(18,18,4)" height="5px" width="5px" x="48px" y="36px" /><rect fill="rgb(18,18,4)" height="5px" width="5px" x="52px" y="36px" /><rect fill="rgb(18,18,4)" height="5px" opacity="0.913725490196" width="5px" x="56px" y="36px" /><rect fill="rgb(18,18,4)" height="5px" opacity="0.223529411765" width="5px" x="60px" y="36px" /><rect fill="rgb(152,106,68)" height="5px" width="5px" x="96px" y="36px" /><rect fill="rgb(246,245,244)" height="5px" width="5px" x="100px" y="36px" /><rect fill="rgb(246,245,244)" height="5px" width="5px" x="104px" y="36px" /><rect fill="rgb(107,6,0)" height="5px" opacity="0.521568627451" width="5px" x="12px" y="40px" /><rect fill="rgb(189,27,0)" height="5px" width="5px" x="16px" y="40px" /><rect fill="rgb(183,135,0)" height="5px" width="5px" x="20px" y="40px" /><rect fill="rgb(135,37,1)" height="5px" width="5px" x="24px" y="40px" /><rect fill="rgb(147,66,2)" height="5px" width="5px" x="28px" y="40px" /><rect fill="rgb(168,163,0)" height="5px" width="5px" x="32px" y="40px" /><rect fill="rgb(158,106,1)" height="5px" width="5px" x="36px" y="40px" /><rect fill="rgb(203,21,0)" height="5px" opacity="0.960784313725" width="5px" x="40px" y="40px" /><rect fill="rgb(66,6,2)" height="5px" opacity="0.501960784314" width="5px" x="44px" y="40px" /><rect fill="rgb(17,17,3)" height="5px" opacity="0.345098039216" width="5px" x="48px" y="40px" /><rect fill="rgb(17,17,3)" height="5px" opacity="0.345098039216" width="5px" x="52px" y="40px" /><rect fill="rgb(19,19,5)" height="5px" opacity="0.21568627451" width="5px" x="56px" y="40px" /><rect fill="rgb(152,106,68)" height="5px" width="5px" x="84px" y="40px" /><rect fill="rgb(152,106,68)" height="5px" width="5px" x="88px" y="40px" /><rect fill="rgb(152,106,68)" height="5px" width="5px" x="92px" y="40px" /><rect fill="rgb(246,245,244)" height="5px" width="5px" x="96px" y="40px" /><rect fill="rgb(246,245,244)" height="5px" width="5px" x="100px" y="40px" /><rect fill="rgb(100,10,0)" height="5px" opacity="0.521568627451" width="5px" x="12px" y="44px" /><rect fill="rgb(150,48,0)" height="5px" width="5px" x="16px" y="44px" /><rect fill="rgb(180,151,0)" height="5px" width="5px" x="20px" y="44px" /><rect fill="rgb(86,66,2)" height="5px" width="5px" x="24px" y="44px" /><rect fill="rgb(111,94,3)" height="5px" width="5px" x="28px" y="44px" /><rect fill="rgb(116,114,0)" height="5px" width="5px" x="32px" y="44px" /><rect fill="rgb(122,111,2)" height="5px" width="5px" x="36px" y="44px" /><rect fill="rgb(172,36,1)" height="5px" width="5px" x="40px" y="44px" /><rect fill="rgb(42,12,3)" height="5px" opacity="0.996078431373" width="5px" x="44px" y="44px" /><rect fill="rgb(18,18,4)" height="5px" opacity="0.996078431373" width="5px" x="48px" y="44px" /><rect fill="rgb(18,18,4)" height="5px" opacity="0.996078431373" width="5px" x="52px" y="44px" /><rect fill="rgb(18,18,4)" height="5px" opacity="0.992156862745" width="5px" x="56px" y="44px" /><rect fill="rgb(18,18,4)" height="5px" opacity="0.992156862745" width="5px" x="60px" y="44px" /><rect fill="rgb(18,18,4)" height="5px" opacity="0.976470588235" width="5px" x="64px" y="44px" /><rect fill="rgb(22,22,12)" height="5px" width="5px" x="68px" y="44px" /><rect fill="rgb(152,106,68)" height="5px" width="5px" x="76px" y="44px" /><rect fill="rgb(152,106,68)" height="5px" width="5px" x="80px" y="44px" /><rect fill="rgb(117,0,0)" height="5px" opacity="0.521568627451" width="5px" x="12px" y="48px" /><rect fill="rgb(238,0,0)" height="5px" width="5px" x="16px" y="48px" /><rect fill="rgb(197,69,0)" height="5px" width="5px" x="20px" y="48px" /><rect fill="rgb(221,0,0)" height="5px" width="5px" x="24px" y="48px" /><rect fill="rgb(194,31,0)" height="5px" width="5px" x="28px" y="48px" /><rect fill="rgb(234,225,0)" height="5px" width="5px" x="32px" y="48px" /><rect fill="rgb(204,101,0)" height="5px" width="5px" x="36px" y="48px" /><rect fill="rgb(232,0,0)" height="5px" opacity="0.96862745098" width="5px" x="40px" y="48px" /><rect fill="rgb(69,4,2)" height="5px" opacity="0.466666666667" width="5px" x="44px" y="48px" /><rect fill="rgb(18,18,4)" height="5px" width="5px" x="48px" y="48px" /><rect fill="rgb(18,18,4)" height="5px" opacity="0.988235294118" width="5px" x="52px" y="48px" /><rect fill="rgb(15,15,7)" height="5px" opacity="0.137254901961" width="5px" x="56px" y="48px" /><rect fill="rgb(15,15,7)" height="5px" opacity="0.137254901961" width="5px" x="60px" y="48px" /><rect fill="rgb(152,106,68)" height="5px" width="5px" x="64px" y="48px" /><rect fill="rgb(152,106,68)" height="5px" width="5px" x="68px" y="48px" /><rect fill="rgb(152,106,68)" height="5px" width="5px" x="72px" y="48px" /><rect fill="rgb(20,20,5)" height="5px" opacity="0.203921568627" width="5px" x="92px" y="48px" /><rect fill="rgb(0,0,0)" height="5px" opacity="0.0078431372549" width="5px" x="96px" y="48px" /><rect fill="rgb(98,2,0)" height="5px" opacity="0.521568627451" width="5px" x="12px" y="52px" /><rect fill="rgb(127,29,0)" height="5px" width="5px" x="16px" y="52px" /><rect fill="rgb(186,15,0)" height="5px" width="5px" x="20px" y="52px" /><rect fill="rgb(255,0,0)" height="5px" width="5px" x="24px" y="52px" /><rect fill="rgb(194,31,0)" height="5px" width="5px" x="28px" y="52px" /><rect fill="rgb(234,225,0)" height="5px" width="5px" x="32px" y="52px" /><rect fill="rgb(204,101,0)" height="5px" width="5px" x="36px" y="52px" /><rect fill="rgb(234,0,0)" height="5px" opacity="0.960784313725" width="5px" x="40px" y="52px" /><rect fill="rgb(80,3,0)" height="5px" opacity="0.388235294118" width="5px" x="44px" y="52px" /><rect fill="rgb(18,18,4)" height="5px" width="5px" x="48px" y="52px" /><rect fill="rgb(18,18,4)" height="5px" opacity="0.980392156863" width="5px" x="52px" y="52px" /><rect fill="rgb(152,106,68)" height="5px" width="5px" x="56px" y="52px" /><rect fill="rgb(152,106,68)" height="5px" width="5px" x="60px" y="52px" /><rect fill="rgb(80,36,0)" height="5px" width="5px" x="88px" y="52px" /><rect fill="rgb(80,36,0)" height="5px" width="5px" x="92px" y="52px" /><rect fill="rgb(17,17,0)" height="5px" opacity="0.117647058824" width="5px" x="96px" y="52px" /><rect fill="rgb(100,2,0)" height="5px" opacity="0.521568627451" width="5px" x="12px" y="56px" /><rect fill="rgb(119,29,0)" height="5px" width="5px" x="16px" y="56px" /><rect fill="rgb(151,24,0)" height="5px" width="5px" x="20px" y="56px" /><rect fill="rgb(210,10,0)" height="5px" width="5px" x="24px" y="56px" /><rect fill="rgb(188,32,0)" height="5px" width="5px" x="28px" y="56px" /><rect fill="rgb(234,225,0)" height="5px" width="5px" x="32px" y="56px" /><rect fill="rgb(204,101,0)" height="5px" width="5px" x="36px" y="56px" /><rect fill="rgb(234,0,0)" height="5px" opacity="0.960784313725" width="5px" x="40px" y="56px" /><rect fill="rgb(128,68,44)" height="5px" width="5px" x="44px" y="56px" /><rect fill="rgb(152,106,68)" height="5px" width="5px" x="48px" y="56px" /><rect fill="rgb(152,106,68)" height="5px" width="5px" x="52px" y="56px" /><rect fill="rgb(80,36,0)" height="5px" width="5px" x="84px" y="56px" /><rect fill="rgb(80,36,0)" height="5px" width="5px" x="88px" y="56px" /><rect fill="rgb(129,68,17)" height="5px" width="5px" x="92px" y="56px" /><rect fill="rgb(129,68,17)" height="5px" width="5px" x="96px" y="56px" /><rect fill="rgb(18,18,5)" height="5px" opacity="0.392156862745" width="5px" x="100px" y="56px" /><rect fill="rgb(112,0,0)" height="5px" opacity="0.454901960784" width="5px" x="12px" y="60px" /><rect fill="rgb(222,0,0)" height="5px" width="5px" x="16px" y="60px" /><rect fill="rgb(115,29,0)" height="5px" width="5px" x="20px" y="60px" /><rect fill="rgb(105,34,0)" height="5px" width="5px" x="24px" y="60px" /><rect fill="rgb(174,33,0)" height="5px" width="5px" x="28px" y="60px" /><rect fill="rgb(234,225,0)" height="5px" width="5px" x="32px" y="60px" /><rect fill="rgb(204,101,0)" height="5px" width="5px" x="36px" y="60px" /><rect fill="rgb(201,10,6)" height="5px" width="5px" x="40px" y="60px" /><rect fill="rgb(59,0,0)" height="5px" opacity="0.270588235294" width="5px" x="44px" y="60px" /><rect fill="rgb(18,18,4)" height="5px" width="5px" x="48px" y="60px" /><rect fill="rgb(18,18,4)" height="5px" opacity="0.976470588235" width="5px" x="52px" y="60px" /><rect fill="rgb(0,0,0)" height="5px" opacity="0.0117647058824" width="5px" x="60px" y="60px" /><rect fill="rgb(80,36,0)" height="5px" width="5px" x="80px" y="60px" /><rect fill="rgb(80,36,0)" height="5px" width="5px" x="84px" y="60px" /><rect fill="rgb(129,68,17)" height="5px" width="5px" x="88px" y="60px" /><rect fill="rgb(42,42,42)" height="5px" width="5px" x="92px" y="60px" /><rect fill="rgb(129,68,17)" height="5px" width="5px" x="96px" y="60px" /><rect fill="rgb(129,68,17)" height="5px" width="5px" x="100px" y="60px" /><rect fill="rgb(129,68,17)" height="5px" width="5px" x="104px" y="60px" /><rect fill="rgb(16,16,0)" height="5px" opacity="0.121568627451" width="5px" x="108px" y="60px" /><rect fill="rgb(64,0,0)" height="5px" opacity="0.0627450980392" width="5px" x="12px" y="64px" /><rect fill="rgb(121,0,0)" height="5px" opacity="0.470588235294" width="5px" x="16px" y="64px" /><rect fill="rgb(179,4,0)" height="5px" opacity="0.839215686275" width="5px" x="20px" y="64px" /><rect fill="rgb(218,5,2)" height="5px" width="5px" x="24px" y="64px" /><rect fill="rgb(176,29,0)" height="5px" width="5px" x="28px" y="64px" /><rect fill="rgb(210,198,3)" height="5px" width="5px" x="32px" y="64px" /><rect fill="rgb(137,104,0)" height="5px" opacity="0.721568627451" width="5px" x="36px" y="64px" /><rect fill="rgb(75,3,0)" height="5px" opacity="0.305882352941" width="5px" x="40px" y="64px" /><rect fill="rgb(36,18,0)" height="5px" opacity="0.0549019607843" width="5px" x="44px" y="64px" /><rect fill="rgb(18,18,4)" height="5px" width="5px" x="48px" y="64px" /><rect fill="rgb(18,18,4)" height="5px" opacity="0.980392156863" width="5px" x="52px" y="64px" /><rect fill="rgb(15,15,8)" height="5px" opacity="0.133333333333" width="5px" x="56px" y="64px" /><rect fill="rgb(22,22,0)" height="5px" opacity="0.0901960784314" width="5px" x="64px" y="64px" /><rect fill="rgb(80,36,0)" height="5px" width="5px" x="72px" y="64px" /><rect fill="rgb(80,36,0)" height="5px" width="5px" x="76px" y="64px" /><rect fill="rgb(80,36,0)" height="5px" width="5px" x="80px" y="64px" /><rect fill="rgb(129,68,17)" height="5px" width="5px" x="84px" y="64px" /><rect fill="rgb(129,68,17)" height="5px" width="5px" x="88px" y="64px" /><rect fill="rgb(129,68,17)" height="5px" width="5px" x="92px" y="64px" /><rect fill="rgb(129,68,17)" height="5px" width="5px" x="96px" y="64px" /><rect fill="rgb(129,68,17)" height="5px" width="5px" x="100px" y="64px" /><rect fill="rgb(129,68,17)" height="5px" width="5px" x="104px" y="64px" /><rect fill="rgb(129,68,17)" height="5px" width="5px" x="108px" y="64px" /><rect fill="rgb(152,106,68)" height="5px" width="5px" x="12px" y="68px" /><rect fill="rgb(151,105,67)" height="5px" width="5px" x="16px" y="68px" /><rect fill="rgb(139,92,59)" height="5px" width="5px" x="20px" y="68px" /><rect fill="rgb(134,38,10)" height="5px" width="5px" x="24px" y="68px" /><rect fill="rgb(122,43,9)" height="5px" width="5px" x="28px" y="68px" /><rect fill="rgb(125,84,11)" height="5px" width="5px" x="32px" y="68px" /><rect fill="rgb(121,66,15)" height="5px" width="5px" x="36px" y="68px" /><rect fill="rgb(42,42,42)" height="5px" width="5px" x="40px" y="68px" /><rect fill="rgb(42,42,42)" height="5px" width="5px" x="44px" y="68px" /><rect fill="rgb(18,18,4)" height="5px" width="5px" x="48px" y="68px" /><rect fill="rgb(18,18,4)" height="5px" width="5px" x="52px" y="68px" /><rect fill="rgb(42,42,42)" height="5px" width="5px" x="56px" y="68px" /><rect fill="rgb(42,42,42)" height="5px" width="5px" x="60px" y="68px" /><rect fill="rgb(129,68,17)" height="5px" width="5px" x="64px" y="68px" /><rect fill="rgb(129,68,17)" height="5px" width="5px" x="68px" y="68px" /><rect fill="rgb(80,36,0)" height="5px" width="5px" x="72px" y="68px" /><rect fill="rgb(129,68,17)" height="5px" width="5px" x="76px" y="68px" /><rect fill="rgb(129,68,17)" height="5px" width="5px" x="80px" y="68px" /><rect fill="rgb(129,68,17)" height="5px" width="5px" x="84px" y="68px" /><rect fill="rgb(129,68,17)" height="5px" width="5px" x="88px" y="68px" /><rect fill="rgb(129,68,17)" height="5px" width="5px" x="92px" y="68px" /><rect fill="rgb(129,68,17)" height="5px" width="5px" x="96px" y="68px" /><rect fill="rgb(129,68,17)" height="5px" width="5px" x="100px" y="68px" /><rect fill="rgb(129,68,17)" height="5px" width="5px" x="104px" y="68px" /><rect fill="rgb(16,16,0)" height="5px" opacity="0.0627450980392" width="5px" x="108px" y="68px" /><rect fill="rgb(152,106,68)" height="5px" width="5px" x="4px" y="72px" /><rect fill="rgb(152,106,68)" height="5px" width="5px" x="8px" y="72px" /><rect fill="rgb(152,106,68)" height="5px" width="5px" x="12px" y="72px" /><rect fill="rgb(80,36,0)" height="5px" width="5px" x="16px" y="72px" /><rect fill="rgb(80,36,0)" height="5px" width="5px" x="20px" y="72px" /><rect fill="rgb(129,68,17)" height="5px" width="5px" x="28px" y="72px" /><rect fill="rgb(129,68,17)" height="5px" width="5px" x="32px" y="72px" /><rect fill="rgb(129,68,17)" height="5px" width="5px" x="36px" y="72px" /><rect fill="rgb(42,42,42)" height="5px" width="5px" x="40px" y="72px" /><rect fill="rgb(42,42,42)" height="5px" width="5px" x="44px" y="72px" /><rect fill="rgb(35,35,33)" height="5px" width="5px" x="48px" y="72px" /><rect fill="rgb(18,18,4)" height="5px" width="5px" x="52px" y="72px" /><rect fill="rgb(18,18,4)" height="5px" width="5px" x="56px" y="72px" /><rect fill="rgb(42,42,42)" height="5px" width="5px" x="60px" y="72px" /><rect fill="rgb(129,68,17)" height="5px" width="5px" x="64px" y="72px" /><rect fill="rgb(129,68,17)" height="5px" width="5px" x="68px" y="72px" /><rect fill="rgb(129,68,17)" height="5px" width="5px" x="72px" y="72px" /><rect fill="rgb(129,68,17)" height="5px" width="5px" x="76px" y="72px" /><rect fill="rgb(129,68,17)" height="5px" width="5px" x="80px" y="72px" /><rect fill="rgb(129,68,17)" height="5px" width="5px" x="84px" y="72px" /><rect fill="rgb(129,68,17)" height="5px" width="5px" x="88px" y="72px" /><rect fill="rgb(20,20,5)" height="5px" opacity="0.196078431373" width="5px" x="12px" y="76px" /><rect fill="rgb(80,36,0)" height="5px" width="5px" x="16px" y="76px" /><rect fill="rgb(80,36,0)" height="5px" width="5px" x="20px" y="76px" /><rect fill="rgb(129,68,17)" height="5px" width="5px" x="28px" y="76px" /><rect fill="rgb(129,68,17)" height="5px" width="5px" x="32px" y="76px" /><rect fill="rgb(129,68,17)" height="5px" width="5px" x="36px" y="76px" /><rect fill="rgb(42,42,42)" height="5px" width="5px" x="40px" y="76px" /><rect fill="rgb(42,42,42)" height="5px" width="5px" x="44px" y="76px" /><rect fill="rgb(42,42,42)" height="5px" width="5px" x="48px" y="76px" /><rect fill="rgb(36,36,34)" height="5px" width="5px" x="52px" y="76px" /><rect fill="rgb(18,18,4)" height="5px" width="5px" x="56px" y="76px" /><rect fill="rgb(18,18,4)" height="5px" width="5px" x="60px" y="76px" /><rect fill="rgb(129,68,17)" height="5px" width="5px" x="64px" y="76px" /><rect fill="rgb(129,68,17)" height="5px" width="5px" x="68px" y="76px" /><rect fill="rgb(129,68,17)" height="5px" width="5px" x="72px" y="76px" /><rect fill="rgb(129,68,17)" height="5px" width="5px" x="76px" y="76px" /><rect fill="rgb(129,68,17)" height="5px" width="5px" x="80px" y="76px" /><rect fill="rgb(129,68,17)" height="5px" width="5px" x="84px" y="76px" /><rect fill="rgb(0,0,0)" height="5px" opacity="0.0156862745098" width="5px" x="88px" y="76px" /><rect fill="rgb(20,20,5)" height="5px" opacity="0.196078431373" width="5px" x="12px" y="80px" /><rect fill="rgb(80,36,0)" height="5px" width="5px" x="16px" y="80px" /><rect fill="rgb(80,36,0)" height="5px" width="5px" x="20px" y="80px" /><rect fill="rgb(19,19,5)" height="5px" opacity="0.21568627451" width="5px" x="24px" y="80px" /><rect fill="rgb(129,68,17)" height="5px" width="5px" x="28px" y="80px" /><rect fill="rgb(129,68,17)" height="5px" width="5px" x="32px" y="80px" /><rect fill="rgb(129,68,17)" height="5px" width="5px" x="36px" y="80px" /><rect fill="rgb(129,68,17)" height="5px" width="5px" x="40px" y="80px" /><rect fill="rgb(129,68,17)" height="5px" width="5px" x="44px" y="80px" /><rect fill="rgb(129,68,17)" height="5px" width="5px" x="48px" y="80px" /><rect fill="rgb(129,68,17)" height="5px" width="5px" x="52px" y="80px" /><rect fill="rgb(129,68,17)" height="5px" width="5px" x="56px" y="80px" /><rect fill="rgb(129,68,17)" height="5px" width="5px" x="60px" y="80px" /><rect fill="rgb(129,68,17)" height="5px" width="5px" x="64px" y="80px" /><rect fill="rgb(129,68,17)" height="5px" width="5px" x="68px" y="80px" /><rect fill="rgb(129,68,17)" height="5px" width="5px" x="72px" y="80px" /><rect fill="rgb(129,68,17)" height="5px" width="5px" x="76px" y="80px" /><rect fill="rgb(129,68,17)" height="5px" width="5px" x="80px" y="80px" /><rect fill="rgb(20,20,7)" height="5px" opacity="0.149019607843" width="5px" x="84px" y="80px" /><rect fill="rgb(80,36,0)" height="5px" width="5px" x="16px" y="84px" /><rect fill="rgb(80,36,0)" height="5px" width="5px" x="20px" y="84px" /><rect fill="rgb(129,68,17)" height="5px" width="5px" x="28px" y="84px" /><rect fill="rgb(129,68,17)" height="5px" width="5px" x="32px" y="84px" /><rect fill="rgb(129,68,17)" height="5px" width="5px" x="36px" y="84px" /><rect fill="rgb(129,68,17)" height="5px" width="5px" x="40px" y="84px" /><rect fill="rgb(129,68,17)" height="5px" width="5px" x="44px" y="84px" /><rect fill="rgb(129,68,17)" height="5px" width="5px" x="48px" y="84px" /><rect fill="rgb(129,68,17)" height="5px" width="5px" x="52px" y="84px" /><rect fill="rgb(129,68,17)" height="5px" width="5px" x="56px" y="84px" /><rect fill="rgb(129,68,17)" height="5px" width="5px" x="60px" y="84px" /><rect fill="rgb(129,68,17)" height="5px" width="5px" x="64px" y="84px" /><rect fill="rgb(129,68,17)" height="5px" width="5px" x="68px" y="84px" /><rect fill="rgb(129,68,17)" height="5px" width="5px" x="72px" y="84px" /><rect fill="rgb(129,68,17)" height="5px" width="5px" x="76px" y="84px" /><rect fill="rgb(20,20,5)" height="5px" opacity="0.203921568627" width="5px" x="80px" y="84px" /><rect fill="rgb(21,21,0)" height="5px" opacity="0.0470588235294" width="5px" x="16px" y="88px" /><rect fill="rgb(17,17,3)" height="5px" opacity="0.345098039216" width="5px" x="20px" y="88px" /><rect fill="rgb(19,19,5)" height="5px" opacity="0.211764705882" width="5px" x="24px" y="88px" /><rect fill="rgb(129,68,17)" height="5px" width="5px" x="28px" y="88px" /><rect fill="rgb(23,23,0)" height="5px" opacity="0.0862745098039" width="5px" x="32px" y="88px" /><rect fill="rgb(19,19,5)" height="5px" opacity="0.376470588235" width="5px" x="36px" y="88px" /><rect fill="rgb(129,68,17)" height="5px" width="5px" x="40px" y="88px" /><rect fill="rgb(17,17,6)" height="5px" opacity="0.172549019608" width="5px" x="44px" y="88px" /><rect fill="rgb(21,21,0)" height="5px" opacity="0.0470588235294" width="5px" x="48px" y="88px" /><rect fill="rgb(16,16,4)" height="5px" opacity="0.243137254902" width="5px" x="52px" y="88px" /><rect fill="rgb(16,16,4)" height="5px" opacity="0.243137254902" width="5px" x="56px" y="88px" /><rect fill="rgb(16,16,4)" height="5px" opacity="0.243137254902" width="5px" x="60px" y="88px" /><rect fill="rgb(129,68,17)" height="5px" width="5px" x="64px" y="88px" /><rect fill="rgb(129,68,17)" height="5px" width="5px" x="68px" y="88px" /><rect fill="rgb(129,68,17)" height="5px" width="5px" x="72px" y="88px" /><rect fill="rgb(129,68,17)" height="5px" width="5px" x="76px" y="88px" /><rect fill="rgb(18,18,5)" height="5px" opacity="0.219607843137" width="5px" x="80px" y="88px" /><rect fill="rgb(129,68,17)" height="5px" width="5px" x="28px" y="92px" /><rect fill="rgb(129,68,17)" height="5px" width="5px" x="40px" y="92px" /><rect fill="rgb(19,19,4)" height="5px" opacity="0.486274509804" width="5px" x="44px" y="92px" /><rect fill="rgb(21,21,0)" height="5px" opacity="0.0470588235294" width="5px" x="60px" y="92px" /><rect fill="rgb(129,68,17)" height="5px" width="5px" x="64px" y="92px" /><rect fill="rgb(18,18,4)" height="5px" opacity="0.501960784314" width="5px" x="68px" y="92px" /><rect fill="rgb(18,18,3)" height="5px" opacity="0.325490196078" width="5px" x="72px" y="92px" /><rect fill="rgb(129,68,17)" height="5px" width="5px" x="76px" y="92px" /><rect fill="rgb(129,68,17)" height="5px" width="5px" x="80px" y="92px" /><rect fill="rgb(129,68,17)" height="5px" width="5px" x="28px" y="96px" /><rect fill="rgb(129,68,17)" height="5px" width="5px" x="40px" y="96px" /><rect fill="rgb(129,68,17)" height="5px" width="5px" x="44px" y="96px" /><rect fill="rgb(18,18,6)" height="5px" opacity="0.164705882353" width="5px" x="48px" y="96px" /><rect fill="rgb(20,20,0)" height="5px" opacity="0.0509803921569" width="5px" x="60px" y="96px" /><rect fill="rgb(129,68,17)" height="5px" width="5px" x="64px" y="96px" /><rect fill="rgb(129,68,17)" height="5px" width="5px" x="80px" y="96px" /><rect fill="rgb(19,19,5)" height="5px" opacity="0.21568627451" width="5px" x="84px" y="96px" /><rect fill="rgb(129,68,17)" height="5px" width="5px" x="28px" y="100px" /><rect fill="rgb(19,19,5)" height="5px" opacity="0.43137254902" width="5px" x="40px" y="100px" /><rect fill="rgb(129,68,17)" height="5px" width="5px" x="44px" y="100px" /><rect fill="rgb(19,19,6)" height="5px" opacity="0.160784313725" width="5px" x="48px" y="100px" /><rect fill="rgb(129,68,17)" height="5px" width="5px" x="64px" y="100px" /><rect fill="rgb(16,16,4)" height="5px" opacity="0.243137254902" width="5px" x="68px" y="100px" /><rect fill="rgb(129,68,17)" height="5px" width="5px" x="80px" y="100px" /><rect fill="rgb(129,68,17)" height="5px" width="5px" x="84px" y="100px" /><rect fill="rgb(129,68,17)" height="5px" width="5px" x="28px" y="104px" /><rect fill="rgb(16,16,0)" height="5px" opacity="0.0627450980392" width="5px" x="40px" y="104px" /><rect fill="rgb(129,68,17)" height="5px" width="5px" x="44px" y="104px" /><rect fill="rgb(129,68,17)" height="5px" width="5px" x="48px" y="104px" /><rect fill="rgb(129,68,17)" height="5px" width="5px" x="64px" y="104px" /><rect fill="rgb(16,16,5)" height="5px" opacity="0.18431372549" width="5px" x="80px" y="104px" /><rect fill="rgb(129,68,17)" height="5px" width="5px" x="84px" y="104px" /><rect fill="rgb(80,36,0)" height="5px" width="5px" x="28px" y="108px" /><rect fill="rgb(19,19,6)" height="5px" opacity="0.160784313725" width="5px" x="44px" y="108px" /><rect fill="rgb(80,36,0)" height="5px" width="5px" x="48px" y="108px" /><rect fill="rgb(80,36,0)" height="5px" width="5px" x="64px" y="108px" /><rect fill="rgb(18,18,0)" height="5px" opacity="0.109803921569" width="5px" x="68px" y="108px" /><rect fill="rgb(18,18,6)" height="5px" opacity="0.16862745098" width="5px" x="80px" y="108px" /><rect fill="rgb(80,36,0)" height="5px" width="5px" x="84px" y="108px" /><rect fill="rgb(18,18,3)" height="5px" opacity="0.333333333333" width="5px" x="88px" y="108px" /></svg>