<?xml version="1.0" encoding="utf-8" ?>
<svg baseProfile="full" height="128px" version="1.1" width="128px" xmlns="http://www.w3.org/2000/svg" xmlns:ev="http://www.w3.org/2001/xml-events" xmlns:xlink="http://www.w3.org/1999/xlink"><defs /><rect fill="rgb(87,98,107)" height="5px" width="5px" x="84px" y="44px" /><rect fill="rgb(87,98,107)" height="5px" width="5px" x="88px" y="44px" /><rect fill="rgb(87,98,107)" height="5px" width="5px" x="92px" y="44px" /><rect fill="rgb(104,112,113)" height="5px" width="5px" x="76px" y="48px" /><rect fill="rgb(104,112,113)" height="5px" width="5px" x="80px" y="48px" /><rect fill="rgb(104,112,113)" height="5px" width="5px" x="84px" y="48px" /><rect fill="rgb(104,112,113)" height="5px" width="5px" x="88px" y="48px" /><rect fill="rgb(104,112,113)" height="5px" width="5px" x="92px" y="48px" /><rect fill="rgb(104,112,113)" height="5px" width="5px" x="96px" y="48px" /><rect fill="rgb(87,98,107)" height="5px" width="5px" x="64px" y="52px" /><rect fill="rgb(87,98,107)" height="5px" width="5px" x="68px" y="52px" /><rect fill="rgb(87,98,107)" height="5px" width="5px" x="72px" y="52px" /><rect fill="rgb(104,112,113)" height="5px" width="5px" x="76px" y="52px" /><rect fill="rgb(104,112,113)" height="5px" width="5px" x="80px" y="52px" /><rect fill="rgb(104,112,113)" height="5px" width="5px" x="84px" y="52px" /><rect fill="rgb(104,112,113)" height="5px" width="5px" x="88px" y="52px" /><rect fill="rgb(104,112,113)" height="5px" width="5px" x="92px" y="52px" /><rect fill="rgb(104,112,113)" height="5px" width="5px" x="96px" y="52px" /><rect fill="rgb(108,116,121)" height="5px" width="5px" x="76px" y="56px" /><rect fill="rgb(104,113,116)" height="5px" width="5px" x="80px" y="56px" /><rect fill="rgb(104,112,113)" height="5px" width="5px" x="84px" y="56px" /><rect fill="rgb(104,112,113)" height="5px" width="5px" x="88px" y="56px" /><rect fill="rgb(107,114,116)" height="5px" width="5px" x="92px" y="56px" /><rect fill="rgb(104,112,113)" height="5px" width="5px" x="96px" y="56px" /><rect fill="rgb(104,112,113)" height="5px" width="5px" x="100px" y="56px" /><rect fill="rgb(91,99,105)" height="5px" width="5px" x="64px" y="60px" /><rect fill="rgb(91,99,105)" height="5px" width="5px" x="68px" y="60px" /><rect fill="rgb(91,99,105)" height="5px" width="5px" x="72px" y="60px" /><rect fill="rgb(91,99,105)" height="5px" width="5px" x="76px" y="60px" /><rect fill="rgb(104,112,113)" height="5px" width="5px" x="80px" y="60px" /><rect fill="rgb(104,112,113)" height="5px" width="5px" x="84px" y="60px" /><rect fill="rgb(104,112,113)" height="5px" width="5px" x="88px" y="60px" /><rect fill="rgb(104,112,113)" height="5px" width="5px" x="92px" y="60px" /><rect fill="rgb(104,112,113)" height="5px" width="5px" x="96px" y="60px" /><rect fill="rgb(104,112,113)" height="5px" width="5px" x="100px" y="60px" /><rect fill="rgb(104,112,113)" height="5px" width="5px" x="60px" y="64px" /><rect fill="rgb(91,99,105)" height="5px" width="5px" x="64px" y="64px" /><rect fill="rgb(104,112,113)" height="5px" width="5px" x="68px" y="64px" /><rect fill="rgb(104,112,113)" height="5px" width="5px" x="72px" y="64px" /><rect fill="rgb(91,99,105)" height="5px" width="5px" x="76px" y="64px" /><rect fill="rgb(104,112,113)" height="5px" width="5px" x="80px" y="64px" /><rect fill="rgb(104,112,113)" height="5px" width="5px" x="84px" y="64px" /><rect fill="rgb(107,109,105)" height="5px" width="5px" x="88px" y="64px" /><rect fill="rgb(104,112,113)" height="5px" width="5px" x="92px" y="64px" /><rect fill="rgb(104,112,113)" height="5px" width="5px" x="96px" y="64px" /><rect fill="rgb(104,112,113)" height="5px" width="5px" x="100px" y="64px" /><rect fill="rgb(104,112,113)" height="5px" width="5px" x="104px" y="64px" /><rect fill="rgb(46,53,57)" height="5px" width="5px" x="108px" y="64px" /><rect fill="rgb(104,112,113)" height="5px" width="5px" x="60px" y="68px" /><rect fill="rgb(91,99,105)" height="5px" width="5px" x="64px" y="68px" /><rect fill="rgb(104,112,113)" height="5px" width="5px" x="68px" y="68px" /><rect fill="rgb(104,112,113)" height="5px" width="5px" x="72px" y="68px" /><rect fill="rgb(91,99,105)" height="5px" width="5px" x="76px" y="68px" /><rect fill="rgb(104,112,113)" height="5px" width="5px" x="80px" y="68px" /><rect fill="rgb(104,112,113)" height="5px" width="5px" x="84px" y="68px" /><rect fill="rgb(105,108,107)" height="5px" width="5px" x="88px" y="68px" /><rect fill="rgb(105,110,110)" height="5px" width="5px" x="92px" y="68px" /><rect fill="rgb(104,112,113)" height="5px" width="5px" x="96px" y="68px" /><rect fill="rgb(104,112,113)" height="5px" width="5px" x="100px" y="68px" /><rect fill="rgb(104,112,113)" height="5px" width="5px" x="104px" y="68px" /><rect fill="rgb(46,53,57)" height="5px" width="5px" x="108px" y="68px" /><rect fill="rgb(46,53,57)" height="5px" width="5px" x="112px" y="68px" /><rect fill="rgb(255,255,255)" height="5px" width="5px" x="20px" y="72px" /><rect fill="rgb(91,99,105)" height="5px" width="5px" x="24px" y="72px" /><rect fill="rgb(91,99,105)" height="5px" width="5px" x="28px" y="72px" /><rect fill="rgb(104,112,113)" height="5px" width="5px" x="32px" y="72px" /><rect fill="rgb(104,112,113)" height="5px" width="5px" x="36px" y="72px" /><rect fill="rgb(104,112,113)" height="5px" width="5px" x="40px" y="72px" /><rect fill="rgb(104,112,113)" height="5px" width="5px" x="44px" y="72px" /><rect fill="rgb(104,112,113)" height="5px" width="5px" x="48px" y="72px" /><rect fill="rgb(104,112,113)" height="5px" width="5px" x="52px" y="72px" /><rect fill="rgb(104,112,113)" height="5px" width="5px" x="56px" y="72px" /><rect fill="rgb(104,112,113)" height="5px" width="5px" x="60px" y="72px" /><rect fill="rgb(91,99,105)" height="5px" width="5px" x="64px" y="72px" /><rect fill="rgb(104,112,113)" height="5px" width="5px" x="68px" y="72px" /><rect fill="rgb(104,112,113)" height="5px" width="5px" x="72px" y="72px" /><rect fill="rgb(91,99,105)" height="5px" width="5px" x="76px" y="72px" /><rect fill="rgb(98,108,114)" height="5px" width="5px" x="80px" y="72px" /><rect fill="rgb(102,110,115)" height="5px" width="5px" x="84px" y="72px" /><rect fill="rgb(102,110,112)" height="5px" width="5px" x="88px" y="72px" /><rect fill="rgb(106,114,119)" height="5px" width="5px" x="92px" y="72px" /><rect fill="rgb(104,112,113)" height="5px" width="5px" x="96px" y="72px" /><rect fill="rgb(104,112,113)" height="5px" width="5px" x="100px" y="72px" /><rect fill="rgb(104,112,113)" height="5px" width="5px" x="104px" y="72px" /><rect fill="rgb(46,53,57)" height="5px" width="5px" x="108px" y="72px" /><rect fill="rgb(46,53,57)" height="5px" width="5px" x="112px" y="72px" /><rect fill="rgb(255,255,255)" height="5px" width="5px" x="20px" y="76px" /><rect fill="rgb(91,99,105)" height="5px" width="5px" x="24px" y="76px" /><rect fill="rgb(91,99,105)" height="5px" width="5px" x="28px" y="76px" /><rect fill="rgb(104,112,113)" height="5px" width="5px" x="32px" y="76px" /><rect fill="rgb(104,112,113)" height="5px" width="5px" x="36px" y="76px" /><rect fill="rgb(104,112,113)" height="5px" width="5px" x="40px" y="76px" /><rect fill="rgb(104,112,113)" height="5px" width="5px" x="44px" y="76px" /><rect fill="rgb(104,112,113)" height="5px" width="5px" x="48px" y="76px" /><rect fill="rgb(104,112,113)" height="5px" width="5px" x="52px" y="76px" /><rect fill="rgb(104,112,113)" height="5px" width="5px" x="56px" y="76px" /><rect fill="rgb(104,112,113)" height="5px" width="5px" x="60px" y="76px" /><rect fill="rgb(91,99,105)" height="5px" width="5px" x="64px" y="76px" /><rect fill="rgb(91,99,105)" height="5px" width="5px" x="68px" y="76px" /><rect fill="rgb(91,99,105)" height="5px" width="5px" x="72px" y="76px" /><rect fill="rgb(88,94,96)" height="5px" width="5px" x="76px" y="76px" /><rect fill="rgb(97,107,113)" height="5px" width="5px" x="80px" y="76px" /><rect fill="rgb(102,111,116)" height="5px" width="5px" x="84px" y="76px" /><rect fill="rgb(104,113,115)" height="5px" width="5px" x="88px" y="76px" /><rect fill="rgb(104,112,113)" height="5px" width="5px" x="92px" y="76px" /><rect fill="rgb(68,75,76)" height="5px" width="5px" x="96px" y="76px" /><rect fill="rgb(68,75,76)" height="5px" width="5px" x="100px" y="76px" /><rect fill="rgb(68,75,76)" height="5px" width="5px" x="104px" y="76px" /><rect fill="rgb(46,53,57)" height="5px" width="5px" x="108px" y="76px" /><rect fill="rgb(46,53,57)" height="5px" width="5px" x="112px" y="76px" /><rect fill="rgb(68,75,76)" height="5px" width="5px" x="12px" y="80px" /><rect fill="rgb(68,75,76)" height="5px" width="5px" x="16px" y="80px" /><rect fill="rgb(68,75,76)" height="5px" width="5px" x="20px" y="80px" /><rect fill="rgb(68,75,76)" height="5px" width="5px" x="24px" y="80px" /><rect fill="rgb(68,75,76)" height="5px" width="5px" x="28px" y="80px" /><rect fill="rgb(68,75,76)" height="5px" width="5px" x="32px" y="80px" /><rect fill="rgb(68,75,76)" height="5px" width="5px" x="36px" y="80px" /><rect fill="rgb(68,75,76)" height="5px" width="5px" x="40px" y="80px" /><rect fill="rgb(104,112,113)" height="5px" width="5px" x="44px" y="80px" /><rect fill="rgb(104,112,113)" height="5px" width="5px" x="48px" y="80px" /><rect fill="rgb(104,112,113)" height="5px" width="5px" x="52px" y="80px" /><rect fill="rgb(104,112,113)" height="5px" width="5px" x="56px" y="80px" /><rect fill="rgb(104,112,113)" height="5px" width="5px" x="60px" y="80px" /><rect fill="rgb(152,131,113)" height="5px" width="5px" x="64px" y="80px" /><rect fill="rgb(152,131,113)" height="5px" width="5px" x="68px" y="80px" /><rect fill="rgb(152,131,113)" height="5px" width="5px" x="72px" y="80px" /><rect fill="rgb(152,131,113)" height="5px" width="5px" x="76px" y="80px" /><rect fill="rgb(152,131,113)" height="5px" width="5px" x="80px" y="80px" /><rect fill="rgb(107,114,114)" height="5px" width="5px" x="84px" y="80px" /><rect fill="rgb(104,112,113)" height="5px" width="5px" x="88px" y="80px" /><rect fill="rgb(68,75,76)" height="5px" width="5px" x="92px" y="80px" /><rect fill="rgb(68,75,76)" height="5px" width="5px" x="96px" y="80px" /><rect fill="rgb(78,81,81)" height="5px" width="5px" x="100px" y="80px" /><rect fill="rgb(68,75,76)" height="5px" width="5px" x="104px" y="80px" /><rect fill="rgb(68,75,76)" height="5px" width="5px" x="108px" y="80px" /><rect fill="rgb(46,53,57)" height="5px" width="5px" x="112px" y="80px" /><rect fill="rgb(68,75,76)" height="5px" width="5px" x="8px" y="84px" /><rect fill="rgb(68,75,76)" height="5px" width="5px" x="12px" y="84px" /><rect fill="rgb(78,81,81)" height="5px" width="5px" x="16px" y="84px" /><rect fill="rgb(78,81,81)" height="5px" width="5px" x="20px" y="84px" /><rect fill="rgb(44,45,45)" height="5px" width="5px" x="24px" y="84px" /><rect fill="rgb(44,45,45)" height="5px" width="5px" x="28px" y="84px" /><rect fill="rgb(104,112,113)" height="5px" width="5px" x="32px" y="84px" /><rect fill="rgb(68,75,76)" height="5px" width="5px" x="36px" y="84px" /><rect fill="rgb(68,75,76)" height="5px" width="5px" x="40px" y="84px" /><rect fill="rgb(104,112,113)" height="5px" width="5px" x="44px" y="84px" /><rect fill="rgb(104,112,113)" height="5px" width="5px" x="48px" y="84px" /><rect fill="rgb(104,112,113)" height="5px" width="5px" x="52px" y="84px" /><rect fill="rgb(104,112,113)" height="5px" width="5px" x="56px" y="84px" /><rect fill="rgb(148,128,111)" height="5px" width="5px" x="60px" y="84px" /><rect fill="rgb(152,131,113)" height="5px" width="5px" x="64px" y="84px" /><rect fill="rgb(152,131,113)" height="5px" width="5px" x="68px" y="84px" /><rect fill="rgb(152,131,113)" height="5px" width="5px" x="72px" y="84px" /><rect fill="rgb(152,131,113)" height="5px" width="5px" x="76px" y="84px" /><rect fill="rgb(152,131,113)" height="5px" width="5px" x="80px" y="84px" /><rect fill="rgb(152,131,113)" height="5px" width="5px" x="84px" y="84px" /><rect fill="rgb(68,75,76)" height="5px" width="5px" x="88px" y="84px" /><rect fill="rgb(68,75,76)" height="5px" width="5px" x="92px" y="84px" /><rect fill="rgb(78,81,81)" height="5px" width="5px" x="96px" y="84px" /><rect fill="rgb(78,81,81)" height="5px" width="5px" x="100px" y="84px" /><rect fill="rgb(78,81,81)" height="5px" width="5px" x="104px" y="84px" /><rect fill="rgb(82,80,78)" height="5px" width="5px" x="108px" y="84px" /><rect fill="rgb(68,75,76)" height="5px" width="5px" x="112px" y="84px" /><rect fill="rgb(68,75,76)" height="5px" width="5px" x="8px" y="88px" /><rect fill="rgb(78,81,81)" height="5px" width="5px" x="12px" y="88px" /><rect fill="rgb(78,81,81)" height="5px" width="5px" x="16px" y="88px" /><rect fill="rgb(44,45,45)" height="5px" width="5px" x="20px" y="88px" /><rect fill="rgb(44,45,45)" height="5px" width="5px" x="24px" y="88px" /><rect fill="rgb(44,45,45)" height="5px" width="5px" x="28px" y="88px" /><rect fill="rgb(44,45,45)" height="5px" width="5px" x="32px" y="88px" /><rect fill="rgb(96,99,101)" height="5px" width="5px" x="36px" y="88px" /><rect fill="rgb(68,75,76)" height="5px" width="5px" x="40px" y="88px" /><rect fill="rgb(68,75,76)" height="5px" width="5px" x="44px" y="88px" /><rect fill="rgb(104,112,113)" height="5px" width="5px" x="48px" y="88px" /><rect fill="rgb(104,112,113)" height="5px" width="5px" x="52px" y="88px" /><rect fill="rgb(104,112,113)" height="5px" width="5px" x="56px" y="88px" /><rect fill="rgb(152,131,113)" height="5px" width="5px" x="60px" y="88px" /><rect fill="rgb(152,131,113)" height="5px" width="5px" x="64px" y="88px" /><rect fill="rgb(152,131,113)" height="5px" width="5px" x="68px" y="88px" /><rect fill="rgb(152,131,113)" height="5px" width="5px" x="72px" y="88px" /><rect fill="rgb(152,131,113)" height="5px" width="5px" x="76px" y="88px" /><rect fill="rgb(152,131,113)" height="5px" width="5px" x="80px" y="88px" /><rect fill="rgb(152,131,113)" height="5px" width="5px" x="84px" y="88px" /><rect fill="rgb(68,75,76)" height="5px" width="5px" x="88px" y="88px" /><rect fill="rgb(78,81,81)" height="5px" width="5px" x="92px" y="88px" /><rect fill="rgb(44,45,45)" height="5px" width="5px" x="96px" y="88px" /><rect fill="rgb(44,45,45)" height="5px" width="5px" x="100px" y="88px" /><rect fill="rgb(44,45,45)" height="5px" width="5px" x="104px" y="88px" /><rect fill="rgb(44,45,45)" height="5px" width="5px" x="108px" y="88px" /><rect fill="rgb(68,75,76)" height="5px" width="5px" x="112px" y="88px" /><rect fill="rgb(68,75,76)" height="5px" width="5px" x="116px" y="88px" /><rect fill="rgb(68,75,76)" height="5px" width="5px" x="8px" y="92px" /><rect fill="rgb(68,75,76)" height="5px" width="5px" x="12px" y="92px" /><rect fill="rgb(44,45,45)" height="5px" width="5px" x="16px" y="92px" /><rect fill="rgb(44,45,45)" height="5px" width="5px" x="20px" y="92px" /><rect fill="rgb(44,45,45)" height="5px" width="5px" x="24px" y="92px" /><rect fill="rgb(44,45,45)" height="5px" width="5px" x="28px" y="92px" /><rect fill="rgb(44,45,45)" height="5px" width="5px" x="32px" y="92px" /><rect fill="rgb(44,45,45)" height="5px" width="5px" x="36px" y="92px" /><rect fill="rgb(68,75,76)" height="5px" width="5px" x="40px" y="92px" /><rect fill="rgb(68,75,76)" height="5px" width="5px" x="44px" y="92px" /><rect fill="rgb(68,75,76)" height="5px" width="5px" x="48px" y="92px" /><rect fill="rgb(68,75,76)" height="5px" width="5px" x="52px" y="92px" /><rect fill="rgb(68,75,76)" height="5px" width="5px" x="56px" y="92px" /><rect fill="rgb(68,75,76)" height="5px" width="5px" x="60px" y="92px" /><rect fill="rgb(68,75,76)" height="5px" width="5px" x="64px" y="92px" /><rect fill="rgb(68,75,76)" height="5px" width="5px" x="68px" y="92px" /><rect fill="rgb(68,75,76)" height="5px" width="5px" x="72px" y="92px" /><rect fill="rgb(68,75,76)" height="5px" width="5px" x="76px" y="92px" /><rect fill="rgb(68,75,76)" height="5px" width="5px" x="80px" y="92px" /><rect fill="rgb(68,75,76)" height="5px" width="5px" x="84px" y="92px" /><rect fill="rgb(68,75,76)" height="5px" width="5px" x="88px" y="92px" /><rect fill="rgb(78,81,81)" height="5px" width="5px" x="92px" y="92px" /><rect fill="rgb(44,45,45)" height="5px" width="5px" x="96px" y="92px" /><rect fill="rgb(44,45,45)" height="5px" width="5px" x="100px" y="92px" /><rect fill="rgb(44,45,45)" height="5px" width="5px" x="104px" y="92px" /><rect fill="rgb(44,45,45)" height="5px" width="5px" x="108px" y="92px" /><rect fill="rgb(68,75,76)" height="5px" width="5px" x="112px" y="92px" /><rect fill="rgb(68,75,76)" height="5px" width="5px" x="116px" y="92px" /><rect fill="rgb(44,45,45)" height="5px" width="5px" x="16px" y="96px" /><rect fill="rgb(44,45,45)" height="5px" width="5px" x="20px" y="96px" /><rect fill="rgb(43,48,54)" height="5px" width="5px" x="24px" y="96px" /><rect fill="rgb(41,44,47)" height="5px" width="5px" x="28px" y="96px" /><rect fill="rgb(44,45,45)" height="5px" width="5px" x="32px" y="96px" /><rect fill="rgb(46,48,54)" height="5px" width="5px" x="92px" y="96px" /><rect fill="rgb(44,45,45)" height="5px" width="5px" x="96px" y="96px" /><rect fill="rgb(44,45,45)" height="5px" width="5px" x="100px" y="96px" /><rect fill="rgb(44,45,45)" height="5px" width="5px" x="104px" y="96px" /><rect fill="rgb(44,45,45)" height="5px" width="5px" x="108px" y="96px" /><rect fill="rgb(44,45,45)" height="5px" width="5px" x="20px" y="100px" /><rect fill="rgb(44,45,45)" height="5px" width="5px" x="24px" y="100px" /><rect fill="rgb(44,45,45)" height="5px" width="5px" x="28px" y="100px" /><rect fill="rgb(44,45,45)" height="5px" width="5px" x="32px" y="100px" /><rect fill="rgb(44,45,45)" height="5px" width="5px" x="96px" y="100px" /><rect fill="rgb(44,45,45)" height="5px" width="5px" x="100px" y="100px" /><rect fill="rgb(44,45,45)" height="5px" width="5px" x="104px" y="100px" /></svg>