<?xml version="1.0" encoding="utf-8" ?>
<svg baseProfile="full" height="1280px" version="1.1" width="1280px" xmlns="http://www.w3.org/2000/svg" xmlns:ev="http://www.w3.org/2001/xml-events" xmlns:xlink="http://www.w3.org/1999/xlink"><defs /><rect fill="rgb(0,0,0)" height="41px" opacity="0.0117647058824" width="41px" x="40px" y="0px" /><rect fill="rgb(0,0,0)" height="41px" opacity="0.0196078431373" width="41px" x="800px" y="0px" /><rect fill="rgb(210,0,0)" height="41px" opacity="0.403921568627" width="41px" x="840px" y="0px" /><rect fill="rgb(196,0,0)" height="41px" opacity="0.866666666667" width="41px" x="880px" y="0px" /><rect fill="rgb(0,0,0)" height="41px" opacity="0.121568627451" width="41px" x="920px" y="0px" /><rect fill="rgb(0,0,0)" height="41px" opacity="0.043137254902" width="41px" x="240px" y="40px" /><rect fill="rgb(192,0,0)" height="41px" opacity="0.443137254902" width="41px" x="720px" y="40px" /><rect fill="rgb(210,105,0)" height="41px" opacity="0.807843137255" width="41px" x="760px" y="40px" /><rect fill="rgb(193,0,0)" height="41px" opacity="0.882352941176" width="41px" x="800px" y="40px" /><rect fill="rgb(255,0,0)" height="41px" width="41px" x="840px" y="40px" /><rect fill="rgb(255,85,0)" height="41px" width="41px" x="880px" y="40px" /><rect fill="rgb(28,0,0)" height="41px" opacity="0.898039215686" width="41px" x="920px" y="40px" /><rect fill="rgb(0,0,0)" height="41px" opacity="0.0196078431373" width="41px" x="960px" y="40px" /><rect fill="rgb(0,0,0)" height="41px" opacity="0.0509803921569" width="41px" x="1120px" y="40px" /><rect fill="rgb(0,0,0)" height="41px" opacity="0.0862745098039" width="41px" x="320px" y="80px" /><rect fill="rgb(0,0,0)" height="41px" opacity="0.0392156862745" width="41px" x="640px" y="80px" /><rect fill="rgb(222,0,0)" height="41px" opacity="0.764705882353" width="41px" x="680px" y="80px" /><rect fill="rgb(2,86,0)" height="41px" opacity="0.988235294118" width="41px" x="720px" y="80px" /><rect fill="rgb(255,170,0)" height="41px" width="41px" x="760px" y="80px" /><rect fill="rgb(255,170,0)" height="41px" width="41px" x="800px" y="80px" /><rect fill="rgb(255,85,0)" height="41px" width="41px" x="840px" y="80px" /><rect fill="rgb(255,85,0)" height="41px" width="41px" x="880px" y="80px" /><rect fill="rgb(255,85,0)" height="41px" width="41px" x="920px" y="80px" /><rect fill="rgb(0,0,0)" height="41px" opacity="0.043137254902" width="41px" x="240px" y="120px" /><rect fill="rgb(0,0,0)" height="41px" opacity="0.388235294118" width="41px" x="280px" y="120px" /><rect fill="rgb(208,0,0)" height="41px" opacity="0.81568627451" width="41px" x="320px" y="120px" /><rect fill="rgb(179,0,0)" height="41px" opacity="0.474509803922" width="41px" x="360px" y="120px" /><rect fill="rgb(0,0,0)" height="41px" opacity="0.196078431373" width="41px" x="640px" y="120px" /><rect fill="rgb(255,0,0)" height="41px" width="41px" x="680px" y="120px" /><rect fill="rgb(255,85,0)" height="41px" width="41px" x="720px" y="120px" /><rect fill="rgb(255,170,0)" height="41px" width="41px" x="760px" y="120px" /><rect fill="rgb(255,255,0)" height="41px" width="41px" x="800px" y="120px" /><rect fill="rgb(255,170,0)" height="41px" width="41px" x="840px" y="120px" /><rect fill="rgb(255,170,0)" height="41px" width="41px" x="880px" y="120px" /><rect fill="rgb(255,85,0)" height="41px" width="41px" x="920px" y="120px" /><rect fill="rgb(0,0,0)" height="41px" opacity="0.321568627451" width="41px" x="240px" y="160px" /><rect fill="rgb(170,0,0)" height="41px" width="41px" x="280px" y="160px" /><rect fill="rgb(170,0,0)" height="41px" width="41px" x="320px" y="160px" /><rect fill="rgb(184,0,0)" height="41px" opacity="0.925490196078" width="41px" x="360px" y="160px" /><rect fill="rgb(0,0,0)" height="41px" opacity="0.160784313725" width="41px" x="400px" y="160px" /><rect fill="rgb(0,0,0)" height="41px" opacity="0.192156862745" width="41px" x="440px" y="160px" /><rect fill="rgb(0,0,0)" height="41px" opacity="0.0352941176471" width="41px" x="480px" y="160px" /><rect fill="rgb(0,0,0)" height="41px" opacity="0.152941176471" width="41px" x="640px" y="160px" /><rect fill="rgb(6,0,0)" height="41px" opacity="0.972549019608" width="41px" x="680px" y="160px" /><rect fill="rgb(255,85,0)" height="41px" width="41px" x="720px" y="160px" /><rect fill="rgb(255,170,0)" height="41px" width="41px" x="760px" y="160px" /><rect fill="rgb(255,255,0)" height="41px" width="41px" x="800px" y="160px" /><rect fill="rgb(255,255,0)" height="41px" width="41px" x="840px" y="160px" /><rect fill="rgb(255,255,0)" height="41px" width="41px" x="880px" y="160px" /><rect fill="rgb(255,85,0)" height="41px" width="41px" x="920px" y="160px" /><rect fill="rgb(188,0,0)" height="41px" opacity="0.450980392157" width="41px" x="240px" y="200px" /><rect fill="rgb(170,0,0)" height="41px" width="41px" x="280px" y="200px" /><rect fill="rgb(255,0,0)" height="41px" width="41px" x="320px" y="200px" /><rect fill="rgb(218,0,0)" height="41px" opacity="0.780392156863" width="41px" x="360px" y="200px" /><rect fill="rgb(130,0,0)" height="41px" opacity="0.654901960784" width="41px" x="400px" y="200px" /><rect fill="rgb(255,0,0)" height="41px" width="41px" x="440px" y="200px" /><rect fill="rgb(106,0,0)" height="41px" opacity="0.803921568627" width="41px" x="480px" y="200px" /><rect fill="rgb(0,0,0)" height="41px" opacity="0.243137254902" width="41px" x="520px" y="200px" /><rect fill="rgb(0,0,0)" height="41px" opacity="0.364705882353" width="41px" x="560px" y="200px" /><rect fill="rgb(0,0,0)" height="41px" opacity="0.121568627451" width="41px" x="600px" y="200px" /><rect fill="rgb(0,0,0)" height="41px" opacity="0.227450980392" width="41px" x="640px" y="200px" /><rect fill="rgb(255,0,0)" height="41px" width="41px" x="680px" y="200px" /><rect fill="rgb(255,170,0)" height="41px" width="41px" x="720px" y="200px" /><rect fill="rgb(255,170,0)" height="41px" width="41px" x="760px" y="200px" /><rect fill="rgb(255,255,0)" height="41px" width="41px" x="800px" y="200px" /><rect fill="rgb(255,255,0)" height="41px" width="41px" x="840px" y="200px" /><rect fill="rgb(255,255,0)" height="41px" width="41px" x="880px" y="200px" /><rect fill="rgb(255,85,0)" height="41px" width="41px" x="920px" y="200px" /><rect fill="rgb(0,0,0)" height="41px" opacity="0.0705882352941" width="41px" x="200px" y="240px" /><rect fill="rgb(111,0,0)" height="41px" opacity="0.764705882353" width="41px" x="240px" y="240px" /><rect fill="rgb(255,0,0)" height="41px" width="41px" x="280px" y="240px" /><rect fill="rgb(255,0,0)" height="41px" width="41px" x="320px" y="240px" /><rect fill="rgb(255,0,0)" height="41px" width="41px" x="360px" y="240px" /><rect fill="rgb(255,0,0)" height="41px" width="41px" x="400px" y="240px" /><rect fill="rgb(255,0,0)" height="41px" width="41px" x="440px" y="240px" /><rect fill="rgb(170,0,0)" height="41px" width="41px" x="480px" y="240px" /><rect fill="rgb(170,0,0)" height="41px" width="41px" x="520px" y="240px" /><rect fill="rgb(170,0,0)" height="41px" width="41px" x="560px" y="240px" /><rect fill="rgb(181,0,0)" height="41px" opacity="0.941176470588" width="41px" x="600px" y="240px" /><rect fill="rgb(141,0,0)" height="41px" opacity="0.603921568627" width="41px" x="640px" y="240px" /><rect fill="rgb(255,85,0)" height="41px" width="41px" x="680px" y="240px" /><rect fill="rgb(255,85,0)" height="41px" width="41px" x="720px" y="240px" /><rect fill="rgb(255,170,0)" height="41px" width="41px" x="760px" y="240px" /><rect fill="rgb(255,170,0)" height="41px" width="41px" x="800px" y="240px" /><rect fill="rgb(255,255,0)" height="41px" width="41px" x="840px" y="240px" /><rect fill="rgb(255,170,0)" height="41px" width="41px" x="880px" y="240px" /><rect fill="rgb(255,0,0)" height="41px" width="41px" x="920px" y="240px" /><rect fill="rgb(195,0,0)" height="41px" opacity="0.870588235294" width="41px" x="960px" y="240px" /><rect fill="rgb(0,0,0)" height="41px" opacity="0.0156862745098" width="41px" x="1160px" y="240px" /><rect fill="rgb(108,0,0)" height="41px" opacity="0.78431372549" width="41px" x="240px" y="280px" /><rect fill="rgb(170,0,0)" height="41px" width="41px" x="280px" y="280px" /><rect fill="rgb(170,0,0)" height="41px" width="41px" x="320px" y="280px" /><rect fill="rgb(255,85,0)" height="41px" width="41px" x="360px" y="280px" /><rect fill="rgb(255,85,0)" height="41px" width="41px" x="400px" y="280px" /><rect fill="rgb(255,0,0)" height="41px" width="41px" x="440px" y="280px" /><rect fill="rgb(255,0,0)" height="41px" width="41px" x="480px" y="280px" /><rect fill="rgb(255,0,0)" height="41px" width="41px" x="520px" y="280px" /><rect fill="rgb(255,0,0)" height="41px" width="41px" x="560px" y="280px" /><rect fill="rgb(255,85,0)" height="41px" width="41px" x="600px" y="280px" /><rect fill="rgb(255,85,0)" height="41px" width="41px" x="640px" y="280px" /><rect fill="rgb(255,170,0)" height="41px" width="41px" x="680px" y="280px" /><rect fill="rgb(255,85,0)" height="41px" width="41px" x="720px" y="280px" /><rect fill="rgb(255,170,0)" height="41px" width="41px" x="760px" y="280px" /><rect fill="rgb(255,255,0)" height="41px" width="41px" x="800px" y="280px" /><rect fill="rgb(255,255,0)" height="41px" width="41px" x="840px" y="280px" /><rect fill="rgb(255,170,0)" height="41px" width="41px" x="880px" y="280px" /><rect fill="rgb(255,0,0)" height="41px" width="41px" x="920px" y="280px" /><rect fill="rgb(255,0,0)" height="41px" width="41px" x="960px" y="280px" /><rect fill="rgb(154,0,0)" height="41px" opacity="0.552941176471" width="41px" x="1000px" y="280px" /><rect fill="rgb(153,0,0)" height="41px" opacity="0.556862745098" width="41px" x="240px" y="320px" /><rect fill="rgb(170,0,0)" height="41px" width="41px" x="280px" y="320px" /><rect fill="rgb(170,0,0)" height="41px" width="41px" x="320px" y="320px" /><rect fill="rgb(255,0,0)" height="41px" width="41px" x="360px" y="320px" /><rect fill="rgb(255,0,0)" height="41px" width="41px" x="400px" y="320px" /><rect fill="rgb(255,85,0)" height="41px" width="41px" x="440px" y="320px" /><rect fill="rgb(255,0,0)" height="41px" width="41px" x="480px" y="320px" /><rect fill="rgb(255,0,0)" height="41px" width="41px" x="520px" y="320px" /><rect fill="rgb(255,85,0)" height="41px" width="41px" x="560px" y="320px" /><rect fill="rgb(255,170,0)" height="41px" width="41px" x="600px" y="320px" /><rect fill="rgb(255,170,0)" height="41px" width="41px" x="640px" y="320px" /><rect fill="rgb(255,255,0)" height="41px" width="41px" x="680px" y="320px" /><rect fill="rgb(255,170,0)" height="41px" width="41px" x="720px" y="320px" /><rect fill="rgb(255,170,0)" height="41px" width="41px" x="760px" y="320px" /><rect fill="rgb(255,170,0)" height="41px" width="41px" x="800px" y="320px" /><rect fill="rgb(255,255,0)" height="41px" width="41px" x="840px" y="320px" /><rect fill="rgb(255,170,0)" height="41px" width="41px" x="880px" y="320px" /><rect fill="rgb(255,170,0)" height="41px" width="41px" x="920px" y="320px" /><rect fill="rgb(255,170,0)" height="41px" width="41px" x="960px" y="320px" /><rect fill="rgb(255,85,0)" height="41px" width="41px" x="1000px" y="320px" /><rect fill="rgb(255,0,0)" height="41px" width="41px" x="1040px" y="320px" /><rect fill="rgb(255,0,0)" height="41px" width="41px" x="1080px" y="320px" /><rect fill="rgb(170,0,0)" height="41px" width="41px" x="1120px" y="320px" /><rect fill="rgb(255,0,0)" height="41px" width="41px" x="1160px" y="320px" /><rect fill="rgb(183,0,0)" height="41px" opacity="0.929411764706" width="41px" x="1200px" y="320px" /><rect fill="rgb(0,0,0)" height="41px" opacity="0.305882352941" width="41px" x="200px" y="360px" /><rect fill="rgb(188,0,0)" height="41px" opacity="0.901960784314" width="41px" x="240px" y="360px" /><rect fill="rgb(255,0,0)" height="41px" width="41px" x="280px" y="360px" /><rect fill="rgb(255,0,0)" height="41px" width="41px" x="320px" y="360px" /><rect fill="rgb(255,85,0)" height="41px" width="41px" x="360px" y="360px" /><rect fill="rgb(255,85,0)" height="41px" width="41px" x="400px" y="360px" /><rect fill="rgb(255,85,0)" height="41px" width="41px" x="440px" y="360px" /><rect fill="rgb(255,0,0)" height="41px" width="41px" x="480px" y="360px" /><rect fill="rgb(255,0,0)" height="41px" width="41px" x="520px" y="360px" /><rect fill="rgb(255,85,0)" height="41px" width="41px" x="560px" y="360px" /><rect fill="rgb(255,170,0)" height="41px" width="41px" x="600px" y="360px" /><rect fill="rgb(255,170,0)" height="41px" width="41px" x="640px" y="360px" /><rect fill="rgb(255,170,0)" height="41px" width="41px" x="680px" y="360px" /><rect fill="rgb(255,85,0)" height="41px" width="41px" x="720px" y="360px" /><rect fill="rgb(255,85,0)" height="41px" width="41px" x="760px" y="360px" /><rect fill="rgb(255,170,0)" height="41px" width="41px" x="800px" y="360px" /><rect fill="rgb(255,170,0)" height="41px" width="41px" x="840px" y="360px" /><rect fill="rgb(255,85,0)" height="41px" width="41px" x="880px" y="360px" /><rect fill="rgb(255,85,0)" height="41px" width="41px" x="920px" y="360px" /><rect fill="rgb(255,170,0)" height="41px" width="41px" x="960px" y="360px" /><rect fill="rgb(255,85,0)" height="41px" width="41px" x="1000px" y="360px" /><rect fill="rgb(255,0,0)" height="41px" width="41px" x="1040px" y="360px" /><rect fill="rgb(255,85,0)" height="41px" width="41px" x="1080px" y="360px" /><rect fill="rgb(255,0,0)" height="41px" width="41px" x="1120px" y="360px" /><rect fill="rgb(170,0,0)" height="41px" width="41px" x="1160px" y="360px" /><rect fill="rgb(0,0,0)" height="41px" opacity="0.41568627451" width="41px" x="1200px" y="360px" /><rect fill="rgb(231,0,0)" height="41px" opacity="0.737254901961" width="41px" x="240px" y="400px" /><rect fill="rgb(255,0,0)" height="41px" width="41px" x="280px" y="400px" /><rect fill="rgb(255,85,0)" height="41px" width="41px" x="320px" y="400px" /><rect fill="rgb(255,85,0)" height="41px" width="41px" x="360px" y="400px" /><rect fill="rgb(255,85,0)" height="41px" width="41px" x="400px" y="400px" /><rect fill="rgb(255,0,0)" height="41px" width="41px" x="440px" y="400px" /><rect fill="rgb(255,0,0)" height="41px" width="41px" x="480px" y="400px" /><rect fill="rgb(255,0,0)" height="41px" width="41px" x="520px" y="400px" /><rect fill="rgb(255,85,0)" height="41px" width="41px" x="560px" y="400px" /><rect fill="rgb(255,85,0)" height="41px" width="41px" x="600px" y="400px" /><rect fill="rgb(255,170,0)" height="41px" width="41px" x="640px" y="400px" /><rect fill="rgb(255,255,0)" height="41px" width="41px" x="680px" y="400px" /><rect fill="rgb(255,85,0)" height="41px" width="41px" x="720px" y="400px" /><rect fill="rgb(255,85,0)" height="41px" width="41px" x="760px" y="400px" /><rect fill="rgb(255,85,0)" height="41px" width="41px" x="800px" y="400px" /><rect fill="rgb(255,0,0)" height="41px" width="41px" x="840px" y="400px" /><rect fill="rgb(255,0,0)" height="41px" width="41px" x="920px" y="400px" /><rect fill="rgb(255,85,0)" height="41px" width="41px" x="960px" y="400px" /><rect fill="rgb(255,85,0)" height="41px" width="41px" x="1000px" y="400px" /><rect fill="rgb(255,85,0)" height="41px" width="41px" x="1040px" y="400px" /><rect fill="rgb(255,85,0)" height="41px" width="41px" x="1080px" y="400px" /><rect fill="rgb(255,85,0)" height="41px" width="41px" x="1120px" y="400px" /><rect fill="rgb(255,0,0)" height="41px" width="41px" x="1160px" y="400px" /><rect fill="rgb(178,0,0)" height="41px" opacity="0.952941176471" width="41px" x="1200px" y="400px" /><rect fill="rgb(199,0,0)" height="41px" opacity="0.427450980392" width="41px" x="1240px" y="400px" /><rect fill="rgb(0,0,0)" height="41px" opacity="0.0313725490196" width="41px" x="80px" y="440px" /><rect fill="rgb(0,0,0)" height="41px" opacity="0.0705882352941" width="41px" x="120px" y="440px" /><rect fill="rgb(0,0,0)" height="41px" opacity="0.0274509803922" width="41px" x="160px" y="440px" /><rect fill="rgb(2,0,0)" height="41px" opacity="0.329411764706" width="41px" x="200px" y="440px" /><rect fill="rgb(1,0,0)" height="41px" opacity="0.992156862745" width="41px" x="240px" y="440px" /><rect fill="rgb(255,0,0)" height="41px" width="41px" x="280px" y="440px" /><rect fill="rgb(255,85,0)" height="41px" width="41px" x="320px" y="440px" /><rect fill="rgb(255,85,0)" height="41px" width="41px" x="360px" y="440px" /><rect fill="rgb(255,85,0)" height="41px" width="41px" x="400px" y="440px" /><rect fill="rgb(255,85,0)" height="41px" width="41px" x="440px" y="440px" /><rect fill="rgb(255,85,0)" height="41px" width="41px" x="480px" y="440px" /><rect fill="rgb(255,85,0)" height="41px" width="41px" x="520px" y="440px" /><rect fill="rgb(255,85,0)" height="41px" width="41px" x="560px" y="440px" /><rect fill="rgb(255,85,0)" height="41px" width="41px" x="600px" y="440px" /><rect fill="rgb(255,170,0)" height="41px" width="41px" x="640px" y="440px" /><rect fill="rgb(255,170,0)" height="41px" width="41px" x="680px" y="440px" /><rect fill="rgb(255,170,0)" height="41px" width="41px" x="720px" y="440px" /><rect fill="rgb(255,85,0)" height="41px" width="41px" x="760px" y="440px" /><rect fill="rgb(255,0,0)" height="41px" width="41px" x="800px" y="440px" /><rect fill="rgb(255,0,0)" height="41px" width="41px" x="920px" y="440px" /><rect fill="rgb(255,85,0)" height="41px" width="41px" x="960px" y="440px" /><rect fill="rgb(255,85,0)" height="41px" width="41px" x="1000px" y="440px" /><rect fill="rgb(255,170,0)" height="41px" width="41px" x="1040px" y="440px" /><rect fill="rgb(255,170,0)" height="41px" width="41px" x="1080px" y="440px" /><rect fill="rgb(255,170,0)" height="41px" width="41px" x="1120px" y="440px" /><rect fill="rgb(255,85,0)" height="41px" width="41px" x="1160px" y="440px" /><rect fill="rgb(255,0,0)" height="41px" width="41px" x="1200px" y="440px" /><rect fill="rgb(203,0,0)" height="41px" opacity="0.839215686275" width="41px" x="1240px" y="440px" /><rect fill="rgb(0,0,0)" height="41px" opacity="0.105882352941" width="41px" x="80px" y="480px" /><rect fill="rgb(125,0,0)" height="41px" opacity="0.682352941176" width="41px" x="120px" y="480px" /><rect fill="rgb(151,0,0)" height="41px" opacity="0.564705882353" width="41px" x="160px" y="480px" /><rect fill="rgb(255,170,0)" height="41px" width="41px" x="200px" y="480px" /><rect fill="rgb(255,170,0)" height="41px" width="41px" x="240px" y="480px" /><rect fill="rgb(255,170,0)" height="41px" width="41px" x="280px" y="480px" /><rect fill="rgb(255,170,0)" height="41px" width="41px" x="320px" y="480px" /><rect fill="rgb(255,85,0)" height="41px" width="41px" x="360px" y="480px" /><rect fill="rgb(255,85,0)" height="41px" width="41px" x="400px" y="480px" /><rect fill="rgb(255,85,0)" height="41px" width="41px" x="440px" y="480px" /><rect fill="rgb(255,85,0)" height="41px" width="41px" x="480px" y="480px" /><rect fill="rgb(255,85,0)" height="41px" width="41px" x="520px" y="480px" /><rect fill="rgb(255,85,0)" height="41px" width="41px" x="560px" y="480px" /><rect fill="rgb(255,170,0)" height="41px" width="41px" x="600px" y="480px" /><rect fill="rgb(255,170,0)" height="41px" width="41px" x="640px" y="480px" /><rect fill="rgb(255,170,0)" height="41px" width="41px" x="680px" y="480px" /><rect fill="rgb(255,170,0)" height="41px" width="41px" x="720px" y="480px" /><rect fill="rgb(255,85,0)" height="41px" width="41px" x="760px" y="480px" /><rect fill="rgb(255,0,0)" height="41px" width="41px" x="800px" y="480px" /><rect fill="rgb(255,0,0)" height="41px" width="41px" x="920px" y="480px" /><rect fill="rgb(255,0,0)" height="41px" width="41px" x="960px" y="480px" /><rect fill="rgb(255,85,0)" height="41px" width="41px" x="1000px" y="480px" /><rect fill="rgb(255,85,0)" height="41px" width="41px" x="1040px" y="480px" /><rect fill="rgb(255,85,0)" height="41px" width="41px" x="1080px" y="480px" /><rect fill="rgb(255,170,0)" height="41px" width="41px" x="1120px" y="480px" /><rect fill="rgb(255,170,0)" height="41px" width="41px" x="1160px" y="480px" /><rect fill="rgb(255,0,0)" height="41px" width="41px" x="1200px" y="480px" /><rect fill="rgb(228,0,0)" height="41px" opacity="0.745098039216" width="41px" x="1240px" y="480px" /><rect fill="rgb(0,0,0)" height="41px" opacity="0.247058823529" width="41px" x="40px" y="520px" /><rect fill="rgb(0,0,0)" height="41px" opacity="0.141176470588" width="41px" x="80px" y="520px" /><rect fill="rgb(23,0,0)" height="41px" opacity="0.913725490196" width="41px" x="120px" y="520px" /><rect fill="rgb(255,170,0)" height="41px" width="41px" x="160px" y="520px" /><rect fill="rgb(255,255,0)" height="41px" width="41px" x="200px" y="520px" /><rect fill="rgb(255,255,0)" height="41px" width="41px" x="240px" y="520px" /><rect fill="rgb(255,170,0)" height="41px" width="41px" x="280px" y="520px" /><rect fill="rgb(255,170,0)" height="41px" width="41px" x="320px" y="520px" /><rect fill="rgb(255,170,0)" height="41px" width="41px" x="360px" y="520px" /><rect fill="rgb(255,85,0)" height="41px" width="41px" x="400px" y="520px" /><rect fill="rgb(255,170,0)" height="41px" width="41px" x="440px" y="520px" /><rect fill="rgb(255,170,0)" height="41px" width="41px" x="480px" y="520px" /><rect fill="rgb(255,170,0)" height="41px" width="41px" x="520px" y="520px" /><rect fill="rgb(255,170,0)" height="41px" width="41px" x="560px" y="520px" /><rect fill="rgb(255,170,0)" height="41px" width="41px" x="600px" y="520px" /><rect fill="rgb(255,85,0)" height="41px" width="41px" x="640px" y="520px" /><rect fill="rgb(255,170,0)" height="41px" width="41px" x="680px" y="520px" /><rect fill="rgb(255,170,0)" height="41px" width="41px" x="720px" y="520px" /><rect fill="rgb(255,170,0)" height="41px" width="41px" x="760px" y="520px" /><rect fill="rgb(255,0,0)" height="41px" width="41px" x="800px" y="520px" /><rect fill="rgb(255,0,0)" height="41px" width="41px" x="920px" y="520px" /><rect fill="rgb(255,85,0)" height="41px" width="41px" x="960px" y="520px" /><rect fill="rgb(255,85,0)" height="41px" width="41px" x="1000px" y="520px" /><rect fill="rgb(255,0,0)" height="41px" width="41px" x="1040px" y="520px" /><rect fill="rgb(255,0,0)" height="41px" width="41px" x="1080px" y="520px" /><rect fill="rgb(255,85,0)" height="41px" width="41px" x="1120px" y="520px" /><rect fill="rgb(255,85,0)" height="41px" width="41px" x="1160px" y="520px" /><rect fill="rgb(255,0,0)" height="41px" width="41px" x="1200px" y="520px" /><rect fill="rgb(211,0,0)" height="41px" opacity="0.803921568627" width="41px" x="1240px" y="520px" /><rect fill="rgb(181,0,0)" height="41px" opacity="0.941176470588" width="41px" x="40px" y="560px" /><rect fill="rgb(114,0,0)" height="41px" opacity="0.745098039216" width="41px" x="80px" y="560px" /><rect fill="rgb(23,93,0)" height="41px" opacity="0.913725490196" width="41px" x="120px" y="560px" /><rect fill="rgb(255,170,0)" height="41px" width="41px" x="160px" y="560px" /><rect fill="rgb(255,255,0)" height="41px" width="41px" x="200px" y="560px" /><rect fill="rgb(255,255,0)" height="41px" width="41px" x="240px" y="560px" /><rect fill="rgb(255,170,0)" height="41px" width="41px" x="280px" y="560px" /><rect fill="rgb(255,170,0)" height="41px" width="41px" x="320px" y="560px" /><rect fill="rgb(255,85,0)" height="41px" width="41px" x="360px" y="560px" /><rect fill="rgb(255,85,0)" height="41px" width="41px" x="400px" y="560px" /><rect fill="rgb(255,170,0)" height="41px" width="41px" x="440px" y="560px" /><rect fill="rgb(255,170,0)" height="41px" width="41px" x="480px" y="560px" /><rect fill="rgb(255,170,0)" height="41px" width="41px" x="520px" y="560px" /><rect fill="rgb(255,170,0)" height="41px" width="41px" x="560px" y="560px" /><rect fill="rgb(255,85,0)" height="41px" width="41px" x="600px" y="560px" /><rect fill="rgb(255,85,0)" height="41px" width="41px" x="640px" y="560px" /><rect fill="rgb(255,170,0)" height="41px" width="41px" x="680px" y="560px" /><rect fill="rgb(255,170,0)" height="41px" width="41px" x="720px" y="560px" /><rect fill="rgb(255,170,0)" height="41px" width="41px" x="760px" y="560px" /><rect fill="rgb(255,85,0)" height="41px" width="41px" x="800px" y="560px" /><rect fill="rgb(255,0,0)" height="41px" width="41px" x="840px" y="560px" /><rect fill="rgb(255,0,0)" height="41px" width="41px" x="960px" y="560px" /><rect fill="rgb(255,85,0)" height="41px" width="41px" x="1000px" y="560px" /><rect fill="rgb(255,0,0)" height="41px" width="41px" x="1040px" y="560px" /><rect fill="rgb(255,0,0)" height="41px" width="41px" x="1080px" y="560px" /><rect fill="rgb(255,85,0)" height="41px" width="41px" x="1120px" y="560px" /><rect fill="rgb(255,85,0)" height="41px" width="41px" x="1160px" y="560px" /><rect fill="rgb(255,0,0)" height="41px" width="41px" x="1200px" y="560px" /><rect fill="rgb(220,0,0)" height="41px" opacity="0.772549019608" width="41px" x="1240px" y="560px" /><rect fill="rgb(170,0,0)" height="41px" width="41px" x="40px" y="600px" /><rect fill="rgb(255,0,0)" height="41px" width="41px" x="80px" y="600px" /><rect fill="rgb(255,170,0)" height="41px" width="41px" x="120px" y="600px" /><rect fill="rgb(255,170,0)" height="41px" width="41px" x="160px" y="600px" /><rect fill="rgb(255,255,0)" height="41px" width="41px" x="200px" y="600px" /><rect fill="rgb(255,255,0)" height="41px" width="41px" x="240px" y="600px" /><rect fill="rgb(255,170,0)" height="41px" width="41px" x="280px" y="600px" /><rect fill="rgb(255,170,0)" height="41px" width="41px" x="320px" y="600px" /><rect fill="rgb(255,170,0)" height="41px" width="41px" x="360px" y="600px" /><rect fill="rgb(255,170,0)" height="41px" width="41px" x="400px" y="600px" /><rect fill="rgb(255,170,0)" height="41px" width="41px" x="440px" y="600px" /><rect fill="rgb(255,170,0)" height="41px" width="41px" x="480px" y="600px" /><rect fill="rgb(255,170,0)" height="41px" width="41px" x="520px" y="600px" /><rect fill="rgb(255,170,0)" height="41px" width="41px" x="560px" y="600px" /><rect fill="rgb(255,170,0)" height="41px" width="41px" x="600px" y="600px" /><rect fill="rgb(255,170,0)" height="41px" width="41px" x="640px" y="600px" /><rect fill="rgb(255,170,0)" height="41px" width="41px" x="680px" y="600px" /><rect fill="rgb(255,170,0)" height="41px" width="41px" x="720px" y="600px" /><rect fill="rgb(255,170,0)" height="41px" width="41px" x="760px" y="600px" /><rect fill="rgb(255,0,0)" height="41px" width="41px" x="800px" y="600px" /><rect fill="rgb(255,0,0)" height="41px" width="41px" x="840px" y="600px" /><rect fill="rgb(255,0,0)" height="41px" width="41px" x="960px" y="600px" /><rect fill="rgb(255,0,0)" height="41px" width="41px" x="1000px" y="600px" /><rect fill="rgb(255,0,0)" height="41px" width="41px" x="1040px" y="600px" /><rect fill="rgb(255,0,0)" height="41px" width="41px" x="1080px" y="600px" /><rect fill="rgb(255,85,0)" height="41px" width="41px" x="1120px" y="600px" /><rect fill="rgb(255,0,0)" height="41px" width="41px" x="1160px" y="600px" /><rect fill="rgb(255,0,0)" height="41px" width="41px" x="1200px" y="600px" /><rect fill="rgb(229,0,0)" height="41px" opacity="0.741176470588" width="41px" x="1240px" y="600px" /><rect fill="rgb(117,0,0)" height="41px" opacity="0.729411764706" width="41px" x="40px" y="640px" /><rect fill="rgb(143,0,0)" height="41px" opacity="0.596078431373" width="41px" x="80px" y="640px" /><rect fill="rgb(5,174,0)" height="41px" opacity="0.976470588235" width="41px" x="120px" y="640px" /><rect fill="rgb(255,255,0)" height="41px" width="41px" x="160px" y="640px" /><rect fill="rgb(255,255,0)" height="41px" width="41px" x="200px" y="640px" /><rect fill="rgb(255,255,0)" height="41px" width="41px" x="240px" y="640px" /><rect fill="rgb(255,255,0)" height="41px" width="41px" x="280px" y="640px" /><rect fill="rgb(255,170,0)" height="41px" width="41px" x="320px" y="640px" /><rect fill="rgb(255,170,0)" height="41px" width="41px" x="360px" y="640px" /><rect fill="rgb(255,170,0)" height="41px" width="41px" x="400px" y="640px" /><rect fill="rgb(255,170,0)" height="41px" width="41px" x="440px" y="640px" /><rect fill="rgb(255,255,0)" height="41px" width="41px" x="480px" y="640px" /><rect fill="rgb(255,170,0)" height="41px" width="41px" x="520px" y="640px" /><rect fill="rgb(255,170,0)" height="41px" width="41px" x="560px" y="640px" /><rect fill="rgb(255,170,0)" height="41px" width="41px" x="600px" y="640px" /><rect fill="rgb(255,170,0)" height="41px" width="41px" x="640px" y="640px" /><rect fill="rgb(255,170,0)" height="41px" width="41px" x="680px" y="640px" /><rect fill="rgb(255,170,0)" height="41px" width="41px" x="720px" y="640px" /><rect fill="rgb(255,0,0)" height="41px" width="41px" x="760px" y="640px" /><rect fill="rgb(255,0,0)" height="41px" width="41px" x="800px" y="640px" /><rect fill="rgb(255,0,0)" height="41px" width="41px" x="960px" y="640px" /><rect fill="rgb(170,0,0)" height="41px" width="41px" x="1000px" y="640px" /><rect fill="rgb(255,0,0)" height="41px" width="41px" x="1040px" y="640px" /><rect fill="rgb(255,85,0)" height="41px" width="41px" x="1080px" y="640px" /><rect fill="rgb(255,85,0)" height="41px" width="41px" x="1120px" y="640px" /><rect fill="rgb(255,0,0)" height="41px" width="41px" x="1160px" y="640px" /><rect fill="rgb(255,0,0)" height="41px" width="41px" x="1200px" y="640px" /><rect fill="rgb(178,0,0)" height="41px" opacity="0.952941176471" width="41px" x="1240px" y="640px" /><rect fill="rgb(0,0,0)" height="41px" opacity="0.129411764706" width="41px" x="80px" y="680px" /><rect fill="rgb(196,0,0)" height="41px" opacity="0.866666666667" width="41px" x="120px" y="680px" /><rect fill="rgb(255,170,0)" height="41px" width="41px" x="160px" y="680px" /><rect fill="rgb(255,170,0)" height="41px" width="41px" x="200px" y="680px" /><rect fill="rgb(255,255,0)" height="41px" width="41px" x="240px" y="680px" /><rect fill="rgb(255,255,0)" height="41px" width="41px" x="280px" y="680px" /><rect fill="rgb(255,85,0)" height="41px" width="41px" x="320px" y="680px" /><rect fill="rgb(255,170,0)" height="41px" width="41px" x="360px" y="680px" /><rect fill="rgb(255,170,0)" height="41px" width="41px" x="400px" y="680px" /><rect fill="rgb(255,170,0)" height="41px" width="41px" x="440px" y="680px" /><rect fill="rgb(255,170,0)" height="41px" width="41px" x="480px" y="680px" /><rect fill="rgb(255,255,0)" height="41px" width="41px" x="520px" y="680px" /><rect fill="rgb(255,255,0)" height="41px" width="41px" x="560px" y="680px" /><rect fill="rgb(255,170,0)" height="41px" width="41px" x="600px" y="680px" /><rect fill="rgb(255,170,0)" height="41px" width="41px" x="640px" y="680px" /><rect fill="rgb(255,170,0)" height="41px" width="41px" x="680px" y="680px" /><rect fill="rgb(255,0,0)" height="41px" width="41px" x="720px" y="680px" /><rect fill="rgb(255,0,0)" height="41px" width="41px" x="1000px" y="680px" /><rect fill="rgb(255,0,0)" height="41px" width="41px" x="1040px" y="680px" /><rect fill="rgb(255,85,0)" height="41px" width="41px" x="1080px" y="680px" /><rect fill="rgb(255,85,0)" height="41px" width="41px" x="1120px" y="680px" /><rect fill="rgb(255,0,0)" height="41px" width="41px" x="1160px" y="680px" /><rect fill="rgb(255,0,0)" height="41px" width="41px" x="1200px" y="680px" /><rect fill="rgb(20,0,0)" height="41px" opacity="0.925490196078" width="41px" x="1240px" y="680px" /><rect fill="rgb(0,0,0)" height="41px" opacity="0.113725490196" width="41px" x="0px" y="720px" /><rect fill="rgb(255,85,0)" height="41px" width="41px" x="240px" y="720px" /><rect fill="rgb(255,85,0)" height="41px" width="41px" x="280px" y="720px" /><rect fill="rgb(255,0,0)" height="41px" width="41px" x="320px" y="720px" /><rect fill="rgb(255,0,0)" height="41px" width="41px" x="360px" y="720px" /><rect fill="rgb(255,85,0)" height="41px" width="41px" x="400px" y="720px" /><rect fill="rgb(255,170,0)" height="41px" width="41px" x="440px" y="720px" /><rect fill="rgb(255,170,0)" height="41px" width="41px" x="480px" y="720px" /><rect fill="rgb(255,170,0)" height="41px" width="41px" x="520px" y="720px" /><rect fill="rgb(255,170,0)" height="41px" width="41px" x="560px" y="720px" /><rect fill="rgb(255,255,0)" height="41px" width="41px" x="600px" y="720px" /><rect fill="rgb(255,255,0)" height="41px" width="41px" x="640px" y="720px" /><rect fill="rgb(255,170,0)" height="41px" width="41px" x="680px" y="720px" /><rect fill="rgb(255,0,0)" height="41px" width="41px" x="720px" y="720px" /><rect fill="rgb(255,0,0)" height="41px" width="41px" x="1040px" y="720px" /><rect fill="rgb(255,0,0)" height="41px" width="41px" x="1080px" y="720px" /><rect fill="rgb(255,85,0)" height="41px" width="41px" x="1120px" y="720px" /><rect fill="rgb(255,85,0)" height="41px" width="41px" x="1160px" y="720px" /><rect fill="rgb(255,85,0)" height="41px" width="41px" x="1200px" y="720px" /><rect fill="rgb(161,0,0)" height="41px" opacity="0.529411764706" width="41px" x="1240px" y="720px" /><rect fill="rgb(255,85,0)" height="41px" width="41px" x="440px" y="760px" /><rect fill="rgb(255,170,0)" height="41px" width="41px" x="480px" y="760px" /><rect fill="rgb(255,170,0)" height="41px" width="41px" x="520px" y="760px" /><rect fill="rgb(255,85,0)" height="41px" width="41px" x="560px" y="760px" /><rect fill="rgb(255,85,0)" height="41px" width="41px" x="600px" y="760px" /><rect fill="rgb(255,255,0)" height="41px" width="41px" x="640px" y="760px" /><rect fill="rgb(255,255,0)" height="41px" width="41px" x="680px" y="760px" /><rect fill="rgb(255,85,0)" height="41px" width="41px" x="720px" y="760px" /><rect fill="rgb(255,0,0)" height="41px" width="41px" x="1040px" y="760px" /><rect fill="rgb(255,0,0)" height="41px" width="41px" x="1080px" y="760px" /><rect fill="rgb(255,85,0)" height="41px" width="41px" x="1120px" y="760px" /><rect fill="rgb(255,85,0)" height="41px" width="41px" x="1160px" y="760px" /><rect fill="rgb(0,0,0)" height="41px" opacity="0.996078431373" width="41px" x="1200px" y="760px" /><rect fill="rgb(0,0,0)" height="41px" opacity="0.16862745098" width="41px" x="0px" y="800px" /><rect fill="rgb(255,0,0)" height="41px" width="41px" x="440px" y="800px" /><rect fill="rgb(255,85,0)" height="41px" width="41px" x="480px" y="800px" /><rect fill="rgb(255,85,0)" height="41px" width="41px" x="520px" y="800px" /><rect fill="rgb(255,0,0)" height="41px" width="41px" x="560px" y="800px" /><rect fill="rgb(255,0,0)" height="41px" width="41px" x="600px" y="800px" /><rect fill="rgb(255,170,0)" height="41px" width="41px" x="640px" y="800px" /><rect fill="rgb(255,255,0)" height="41px" width="41px" x="680px" y="800px" /><rect fill="rgb(255,255,0)" height="41px" width="41px" x="720px" y="800px" /><rect fill="rgb(255,85,0)" height="41px" width="41px" x="760px" y="800px" /><rect fill="rgb(255,0,0)" height="41px" width="41px" x="1080px" y="800px" /><rect fill="rgb(255,0,0)" height="41px" width="41px" x="1120px" y="800px" /><rect fill="rgb(10,0,0)" height="41px" opacity="0.956862745098" width="41px" x="0px" y="840px" /><rect fill="rgb(255,0,0)" height="41px" width="41px" x="480px" y="840px" /><rect fill="rgb(255,85,0)" height="41px" width="41px" x="520px" y="840px" /><rect fill="rgb(255,0,0)" height="41px" width="41px" x="560px" y="840px" /><rect fill="rgb(255,85,0)" height="41px" width="41px" x="600px" y="840px" /><rect fill="rgb(255,85,0)" height="41px" width="41px" x="640px" y="840px" /><rect fill="rgb(255,170,0)" height="41px" width="41px" x="680px" y="840px" /><rect fill="rgb(255,170,0)" height="41px" width="41px" x="720px" y="840px" /><rect fill="rgb(255,170,0)" height="41px" width="41px" x="760px" y="840px" /><rect fill="rgb(255,0,0)" height="41px" width="41px" x="800px" y="840px" /><rect fill="rgb(255,85,0)" height="41px" width="41px" x="0px" y="880px" /><rect fill="rgb(178,0,0)" height="41px" opacity="0.478431372549" width="41px" x="120px" y="880px" /><rect fill="rgb(1,86,0)" height="41px" opacity="0.992156862745" width="41px" x="160px" y="880px" /><rect fill="rgb(255,0,0)" height="41px" width="41px" x="200px" y="880px" /><rect fill="rgb(255,0,0)" height="41px" width="41px" x="480px" y="880px" /><rect fill="rgb(255,85,0)" height="41px" width="41px" x="520px" y="880px" /><rect fill="rgb(255,85,0)" height="41px" width="41px" x="560px" y="880px" /><rect fill="rgb(255,85,0)" height="41px" width="41px" x="600px" y="880px" /><rect fill="rgb(255,170,0)" height="41px" width="41px" x="640px" y="880px" /><rect fill="rgb(255,170,0)" height="41px" width="41px" x="680px" y="880px" /><rect fill="rgb(255,170,0)" height="41px" width="41px" x="720px" y="880px" /><rect fill="rgb(255,170,0)" height="41px" width="41px" x="760px" y="880px" /><rect fill="rgb(255,0,0)" height="41px" width="41px" x="800px" y="880px" /><rect fill="rgb(255,0,0)" height="41px" width="41px" x="0px" y="920px" /><rect fill="rgb(255,0,0)" height="41px" width="41px" x="40px" y="920px" /><rect fill="rgb(0,0,0)" height="41px" opacity="0.254901960784" width="41px" x="80px" y="920px" /><rect fill="rgb(13,0,0)" height="41px" opacity="0.949019607843" width="41px" x="120px" y="920px" /><rect fill="rgb(255,170,0)" height="41px" width="41px" x="160px" y="920px" /><rect fill="rgb(255,85,0)" height="41px" width="41px" x="200px" y="920px" /><rect fill="rgb(255,0,0)" height="41px" width="41px" x="520px" y="920px" /><rect fill="rgb(255,0,0)" height="41px" width="41px" x="560px" y="920px" /><rect fill="rgb(255,0,0)" height="41px" width="41px" x="600px" y="920px" /><rect fill="rgb(255,170,0)" height="41px" width="41px" x="640px" y="920px" /><rect fill="rgb(255,170,0)" height="41px" width="41px" x="680px" y="920px" /><rect fill="rgb(255,170,0)" height="41px" width="41px" x="720px" y="920px" /><rect fill="rgb(255,170,0)" height="41px" width="41px" x="760px" y="920px" /><rect fill="rgb(255,0,0)" height="41px" width="41px" x="800px" y="920px" /><rect fill="rgb(120,0,0)" height="41px" opacity="0.705882352941" width="41px" x="0px" y="960px" /><rect fill="rgb(222,0,0)" height="41px" opacity="0.764705882353" width="41px" x="40px" y="960px" /><rect fill="rgb(10,0,0)" height="41px" opacity="0.956862745098" width="41px" x="80px" y="960px" /><rect fill="rgb(255,85,0)" height="41px" width="41px" x="120px" y="960px" /><rect fill="rgb(255,170,0)" height="41px" width="41px" x="160px" y="960px" /><rect fill="rgb(255,0,0)" height="41px" width="41px" x="200px" y="960px" /><rect fill="rgb(255,0,0)" height="41px" width="41px" x="240px" y="960px" /><rect fill="rgb(255,0,0)" height="41px" width="41px" x="520px" y="960px" /><rect fill="rgb(170,0,0)" height="41px" width="41px" x="560px" y="960px" /><rect fill="rgb(255,0,0)" height="41px" width="41px" x="600px" y="960px" /><rect fill="rgb(255,170,0)" height="41px" width="41px" x="640px" y="960px" /><rect fill="rgb(255,255,0)" height="41px" width="41px" x="680px" y="960px" /><rect fill="rgb(255,255,0)" height="41px" width="41px" x="720px" y="960px" /><rect fill="rgb(255,170,0)" height="41px" width="41px" x="760px" y="960px" /><rect fill="rgb(255,85,0)" height="41px" width="41px" x="800px" y="960px" /><rect fill="rgb(255,85,0)" height="41px" width="41px" x="840px" y="960px" /><rect fill="rgb(255,0,0)" height="41px" width="41px" x="880px" y="960px" /><rect fill="rgb(0,0,0)" height="41px" opacity="0.0078431372549" width="41px" x="0px" y="1000px" /><rect fill="rgb(0,0,0)" height="41px" opacity="0.0509803921569" width="41px" x="40px" y="1000px" /><rect fill="rgb(192,0,0)" height="41px" opacity="0.886274509804" width="41px" x="80px" y="1000px" /><rect fill="rgb(255,85,0)" height="41px" width="41px" x="120px" y="1000px" /><rect fill="rgb(255,170,0)" height="41px" width="41px" x="160px" y="1000px" /><rect fill="rgb(255,0,0)" height="41px" width="41px" x="200px" y="1000px" /><rect fill="rgb(255,0,0)" height="41px" width="41px" x="240px" y="1000px" /><rect fill="rgb(255,0,0)" height="41px" width="41px" x="520px" y="1000px" /><rect fill="rgb(255,0,0)" height="41px" width="41px" x="560px" y="1000px" /><rect fill="rgb(255,85,0)" height="41px" width="41px" x="600px" y="1000px" /><rect fill="rgb(255,170,0)" height="41px" width="41px" x="640px" y="1000px" /><rect fill="rgb(255,255,0)" height="41px" width="41px" x="680px" y="1000px" /><rect fill="rgb(255,255,0)" height="41px" width="41px" x="720px" y="1000px" /><rect fill="rgb(255,170,0)" height="41px" width="41px" x="760px" y="1000px" /><rect fill="rgb(255,85,0)" height="41px" width="41px" x="800px" y="1000px" /><rect fill="rgb(255,170,0)" height="41px" width="41px" x="840px" y="1000px" /><rect fill="rgb(255,170,0)" height="41px" width="41px" x="880px" y="1000px" /><rect fill="rgb(255,85,0)" height="41px" width="41px" x="920px" y="1000px" /><rect fill="rgb(0,0,0)" height="41px" opacity="0.00392156862745" width="41px" x="1120px" y="1000px" /><rect fill="rgb(0,0,0)" height="41px" opacity="0.227450980392" width="41px" x="40px" y="1040px" /><rect fill="rgb(6,0,0)" height="41px" opacity="0.972549019608" width="41px" x="80px" y="1040px" /><rect fill="rgb(255,170,0)" height="41px" width="41px" x="120px" y="1040px" /><rect fill="rgb(255,170,0)" height="41px" width="41px" x="160px" y="1040px" /><rect fill="rgb(255,85,0)" height="41px" width="41px" x="200px" y="1040px" /><rect fill="rgb(255,0,0)" height="41px" width="41px" x="240px" y="1040px" /><rect fill="rgb(255,0,0)" height="41px" width="41px" x="280px" y="1040px" /><rect fill="rgb(255,0,0)" height="41px" width="41px" x="320px" y="1040px" /><rect fill="rgb(255,0,0)" height="41px" width="41px" x="520px" y="1040px" /><rect fill="rgb(255,85,0)" height="41px" width="41px" x="560px" y="1040px" /><rect fill="rgb(255,170,0)" height="41px" width="41px" x="600px" y="1040px" /><rect fill="rgb(255,170,0)" height="41px" width="41px" x="640px" y="1040px" /><rect fill="rgb(255,255,0)" height="41px" width="41px" x="680px" y="1040px" /><rect fill="rgb(255,255,0)" height="41px" width="41px" x="720px" y="1040px" /><rect fill="rgb(255,255,0)" height="41px" width="41px" x="760px" y="1040px" /><rect fill="rgb(255,170,0)" height="41px" width="41px" x="800px" y="1040px" /><rect fill="rgb(255,170,0)" height="41px" width="41px" x="840px" y="1040px" /><rect fill="rgb(255,255,0)" height="41px" width="41px" x="880px" y="1040px" /><rect fill="rgb(255,85,0)" height="41px" width="41px" x="920px" y="1040px" /><rect fill="rgb(158,0,0)" height="41px" opacity="0.537254901961" width="41px" x="40px" y="1080px" /><rect fill="rgb(123,0,0)" height="41px" opacity="0.690196078431" width="41px" x="80px" y="1080px" /><rect fill="rgb(255,85,0)" height="41px" width="41px" x="120px" y="1080px" /><rect fill="rgb(255,170,0)" height="41px" width="41px" x="160px" y="1080px" /><rect fill="rgb(255,170,0)" height="41px" width="41px" x="200px" y="1080px" /><rect fill="rgb(255,170,0)" height="41px" width="41px" x="240px" y="1080px" /><rect fill="rgb(255,170,0)" height="41px" width="41px" x="280px" y="1080px" /><rect fill="rgb(255,170,0)" height="41px" width="41px" x="320px" y="1080px" /><rect fill="rgb(255,0,0)" height="41px" width="41px" x="360px" y="1080px" /><rect fill="rgb(255,0,0)" height="41px" width="41px" x="520px" y="1080px" /><rect fill="rgb(255,0,0)" height="41px" width="41px" x="560px" y="1080px" /><rect fill="rgb(255,85,0)" height="41px" width="41px" x="600px" y="1080px" /><rect fill="rgb(255,170,0)" height="41px" width="41px" x="640px" y="1080px" /><rect fill="rgb(255,170,0)" height="41px" width="41px" x="680px" y="1080px" /><rect fill="rgb(255,170,0)" height="41px" width="41px" x="720px" y="1080px" /><rect fill="rgb(255,170,0)" height="41px" width="41px" x="760px" y="1080px" /><rect fill="rgb(255,85,0)" height="41px" width="41px" x="800px" y="1080px" /><rect fill="rgb(255,170,0)" height="41px" width="41px" x="840px" y="1080px" /><rect fill="rgb(255,170,0)" height="41px" width="41px" x="880px" y="1080px" /><rect fill="rgb(21,0,0)" height="41px" opacity="0.921568627451" width="41px" x="920px" y="1080px" /><rect fill="rgb(0,0,0)" height="41px" opacity="0.0235294117647" width="41px" x="1120px" y="1080px" /><rect fill="rgb(199,0,0)" height="41px" opacity="0.427450980392" width="41px" x="0px" y="1120px" /><rect fill="rgb(159,0,0)" height="41px" opacity="0.533333333333" width="41px" x="40px" y="1120px" /><rect fill="rgb(175,0,0)" height="41px" opacity="0.972549019608" width="41px" x="80px" y="1120px" /><rect fill="rgb(255,85,0)" height="41px" width="41px" x="120px" y="1120px" /><rect fill="rgb(255,170,0)" height="41px" width="41px" x="160px" y="1120px" /><rect fill="rgb(255,170,0)" height="41px" width="41px" x="200px" y="1120px" /><rect fill="rgb(255,255,0)" height="41px" width="41px" x="240px" y="1120px" /><rect fill="rgb(255,255,0)" height="41px" width="41px" x="280px" y="1120px" /><rect fill="rgb(255,170,0)" height="41px" width="41px" x="320px" y="1120px" /><rect fill="rgb(255,0,0)" height="41px" width="41px" x="360px" y="1120px" /><rect fill="rgb(119,0,0)" height="41px" opacity="0.713725490196" width="41px" x="520px" y="1120px" /><rect fill="rgb(170,0,0)" height="41px" width="41px" x="560px" y="1120px" /><rect fill="rgb(255,0,0)" height="41px" width="41px" x="600px" y="1120px" /><rect fill="rgb(0,0,0)" height="41px" opacity="0.996078431373" width="41px" x="640px" y="1120px" /><rect fill="rgb(198,0,0)" height="41px" opacity="0.858823529412" width="41px" x="680px" y="1120px" /><rect fill="rgb(4,0,0)" height="41px" opacity="0.654901960784" width="41px" x="720px" y="1120px" /><rect fill="rgb(255,0,0)" height="41px" width="41px" x="760px" y="1120px" /><rect fill="rgb(255,0,0)" height="41px" width="41px" x="800px" y="1120px" /><rect fill="rgb(255,0,0)" height="41px" width="41px" x="840px" y="1120px" /><rect fill="rgb(255,0,0)" height="41px" width="41px" x="880px" y="1120px" /><rect fill="rgb(0,0,0)" height="41px" opacity="0.313725490196" width="41px" x="920px" y="1120px" /><rect fill="rgb(255,85,0)" height="41px" width="41px" x="0px" y="1160px" /><rect fill="rgb(22,0,0)" height="41px" opacity="0.917647058824" width="41px" x="40px" y="1160px" /><rect fill="rgb(131,0,0)" height="41px" opacity="0.650980392157" width="41px" x="80px" y="1160px" /><rect fill="rgb(207,0,0)" height="41px" opacity="0.819607843137" width="41px" x="120px" y="1160px" /><rect fill="rgb(5,87,0)" height="41px" opacity="0.976470588235" width="41px" x="160px" y="1160px" /><rect fill="rgb(255,255,0)" height="41px" width="41px" x="200px" y="1160px" /><rect fill="rgb(255,255,0)" height="41px" width="41px" x="240px" y="1160px" /><rect fill="rgb(255,170,0)" height="41px" width="41px" x="280px" y="1160px" /><rect fill="rgb(255,85,0)" height="41px" width="41px" x="320px" y="1160px" /><rect fill="rgb(0,0,0)" height="41px" opacity="0.105882352941" width="41px" x="680px" y="1160px" /><rect fill="rgb(0,0,0)" height="41px" opacity="0.341176470588" width="41px" x="720px" y="1160px" /><rect fill="rgb(170,0,0)" height="41px" width="41px" x="760px" y="1160px" /><rect fill="rgb(8,0,0)" height="41px" opacity="0.964705882353" width="41px" x="800px" y="1160px" /><rect fill="rgb(255,0,0)" height="41px" width="41px" x="840px" y="1160px" /><rect fill="rgb(228,0,0)" height="41px" opacity="0.745098039216" width="41px" x="880px" y="1160px" /><rect fill="rgb(8,0,0)" height="41px" opacity="0.964705882353" width="41px" x="0px" y="1200px" /><rect fill="rgb(16,0,0)" height="41px" opacity="0.937254901961" width="41px" x="40px" y="1200px" /><rect fill="rgb(172,0,0)" height="41px" opacity="0.494117647059" width="41px" x="80px" y="1200px" /><rect fill="rgb(122,0,0)" height="41px" opacity="0.694117647059" width="41px" x="160px" y="1200px" /><rect fill="rgb(255,85,0)" height="41px" width="41px" x="200px" y="1200px" /><rect fill="rgb(255,170,0)" height="41px" width="41px" x="240px" y="1200px" /><rect fill="rgb(255,85,0)" height="41px" width="41px" x="280px" y="1200px" /><rect fill="rgb(134,0,0)" height="41px" opacity="0.635294117647" width="41px" x="720px" y="1200px" /><rect fill="rgb(188,0,0)" height="41px" opacity="0.905882352941" width="41px" x="760px" y="1200px" /><rect fill="rgb(0,0,0)" height="41px" opacity="0.329411764706" width="41px" x="800px" y="1200px" /><rect fill="rgb(255,0,0)" height="41px" width="41px" x="840px" y="1200px" /><rect fill="rgb(0,0,0)" height="41px" opacity="0.101960784314" width="41px" x="0px" y="1240px" /><rect fill="rgb(0,0,0)" height="41px" opacity="0.0941176470588" width="41px" x="40px" y="1240px" /><rect fill="rgb(197,0,0)" height="41px" opacity="0.43137254902" width="41px" x="160px" y="1240px" /><rect fill="rgb(188,0,0)" height="41px" opacity="0.905882352941" width="41px" x="200px" y="1240px" /><rect fill="rgb(255,0,0)" height="41px" width="41px" x="240px" y="1240px" /><rect fill="rgb(255,0,0)" height="41px" width="41px" x="280px" y="1240px" /></svg>