<?xml version="1.0" encoding="utf-8" ?>
<svg baseProfile="full" height="72px" version="1.1" width="64px" xmlns="http://www.w3.org/2000/svg" xmlns:ev="http://www.w3.org/2001/xml-events" xmlns:xlink="http://www.w3.org/1999/xlink"><defs /><rect fill="rgb(165,143,110)" height="5px" width="5px" x="0px" y="0px" /><rect fill="rgb(165,143,110)" height="5px" width="5px" x="4px" y="0px" /><rect fill="rgb(165,143,110)" height="5px" width="5px" x="8px" y="0px" /><rect fill="rgb(165,129,66)" height="5px" width="5px" x="12px" y="0px" /><rect fill="rgb(165,143,110)" height="5px" width="5px" x="16px" y="0px" /><rect fill="rgb(165,129,66)" height="5px" width="5px" x="20px" y="0px" /><rect fill="rgb(165,129,66)" height="5px" width="5px" x="24px" y="0px" /><rect fill="rgb(165,129,66)" height="5px" width="5px" x="28px" y="0px" /><rect fill="rgb(165,143,110)" height="5px" width="5px" x="32px" y="0px" /><rect fill="rgb(165,143,110)" height="5px" width="5px" x="36px" y="0px" /><rect fill="rgb(165,143,110)" height="5px" width="5px" x="40px" y="0px" /><rect fill="rgb(165,129,66)" height="5px" width="5px" x="44px" y="0px" /><rect fill="rgb(165,143,110)" height="5px" width="5px" x="48px" y="0px" /><rect fill="rgb(165,129,66)" height="5px" width="5px" x="52px" y="0px" /><rect fill="rgb(165,129,66)" height="5px" width="5px" x="56px" y="0px" /><rect fill="rgb(165,129,66)" height="5px" width="5px" x="60px" y="0px" /><rect fill="rgb(165,143,110)" height="5px" width="5px" x="0px" y="4px" /><rect fill="rgb(165,143,110)" height="5px" width="5px" x="4px" y="4px" /><rect fill="rgb(165,143,110)" height="5px" width="5px" x="8px" y="4px" /><rect fill="rgb(165,129,66)" height="5px" width="5px" x="12px" y="4px" /><rect fill="rgb(165,143,110)" height="5px" width="5px" x="16px" y="4px" /><rect fill="rgb(165,129,66)" height="5px" width="5px" x="20px" y="4px" /><rect fill="rgb(165,143,110)" height="5px" width="5px" x="24px" y="4px" /><rect fill="rgb(165,143,110)" height="5px" width="5px" x="28px" y="4px" /><rect fill="rgb(165,143,110)" height="5px" width="5px" x="32px" y="4px" /><rect fill="rgb(165,143,110)" height="5px" width="5px" x="36px" y="4px" /><rect fill="rgb(165,143,110)" height="5px" width="5px" x="40px" y="4px" /><rect fill="rgb(165,129,66)" height="5px" width="5px" x="44px" y="4px" /><rect fill="rgb(165,143,110)" height="5px" width="5px" x="48px" y="4px" /><rect fill="rgb(165,129,66)" height="5px" width="5px" x="52px" y="4px" /><rect fill="rgb(165,143,110)" height="5px" width="5px" x="56px" y="4px" /><rect fill="rgb(165,143,110)" height="5px" width="5px" x="60px" y="4px" /><rect fill="rgb(165,143,110)" height="5px" width="5px" x="0px" y="8px" /><rect fill="rgb(165,129,66)" height="5px" width="5px" x="4px" y="8px" /><rect fill="rgb(165,129,66)" height="5px" width="5px" x="8px" y="8px" /><rect fill="rgb(165,129,66)" height="5px" width="5px" x="12px" y="8px" /><rect fill="rgb(165,143,110)" height="5px" width="5px" x="16px" y="8px" /><rect fill="rgb(165,129,66)" height="5px" width="5px" x="20px" y="8px" /><rect fill="rgb(165,143,110)" height="5px" width="5px" x="24px" y="8px" /><rect fill="rgb(165,143,110)" height="5px" width="5px" x="28px" y="8px" /><rect fill="rgb(165,143,110)" height="5px" width="5px" x="32px" y="8px" /><rect fill="rgb(165,129,66)" height="5px" width="5px" x="36px" y="8px" /><rect fill="rgb(165,129,66)" height="5px" width="5px" x="40px" y="8px" /><rect fill="rgb(165,129,66)" height="5px" width="5px" x="44px" y="8px" /><rect fill="rgb(165,143,110)" height="5px" width="5px" x="48px" y="8px" /><rect fill="rgb(165,129,66)" height="5px" width="5px" x="52px" y="8px" /><rect fill="rgb(165,143,110)" height="5px" width="5px" x="56px" y="8px" /><rect fill="rgb(165,143,110)" height="5px" width="5px" x="60px" y="8px" /><rect fill="rgb(165,143,110)" height="5px" width="5px" x="0px" y="12px" /><rect fill="rgb(165,129,66)" height="5px" width="5px" x="4px" y="12px" /><rect fill="rgb(165,143,110)" height="5px" width="5px" x="8px" y="12px" /><rect fill="rgb(165,143,110)" height="5px" width="5px" x="12px" y="12px" /><rect fill="rgb(165,143,110)" height="5px" width="5px" x="16px" y="12px" /><rect fill="rgb(165,129,66)" height="5px" width="5px" x="20px" y="12px" /><rect fill="rgb(165,129,66)" height="5px" width="5px" x="24px" y="12px" /><rect fill="rgb(165,129,66)" height="5px" width="5px" x="28px" y="12px" /><rect fill="rgb(165,143,110)" height="5px" width="5px" x="32px" y="12px" /><rect fill="rgb(165,129,66)" height="5px" width="5px" x="36px" y="12px" /><rect fill="rgb(165,143,110)" height="5px" width="5px" x="40px" y="12px" /><rect fill="rgb(165,143,110)" height="5px" width="5px" x="44px" y="12px" /><rect fill="rgb(165,143,110)" height="5px" width="5px" x="48px" y="12px" /><rect fill="rgb(165,129,66)" height="5px" width="5px" x="52px" y="12px" /><rect fill="rgb(165,129,66)" height="5px" width="5px" x="56px" y="12px" /><rect fill="rgb(165,129,66)" height="5px" width="5px" x="60px" y="12px" /><rect fill="rgb(165,143,110)" height="5px" width="5px" x="0px" y="16px" /><rect fill="rgb(165,129,66)" height="5px" width="5px" x="4px" y="16px" /><rect fill="rgb(165,143,110)" height="5px" width="5px" x="8px" y="16px" /><rect fill="rgb(165,143,110)" height="5px" width="5px" x="12px" y="16px" /><rect fill="rgb(165,143,110)" height="5px" width="5px" x="16px" y="16px" /><rect fill="rgb(165,143,110)" height="5px" width="5px" x="20px" y="16px" /><rect fill="rgb(165,143,110)" height="5px" width="5px" x="24px" y="16px" /><rect fill="rgb(165,129,66)" height="5px" width="5px" x="28px" y="16px" /><rect fill="rgb(165,143,110)" height="5px" width="5px" x="32px" y="16px" /><rect fill="rgb(165,129,66)" height="5px" width="5px" x="36px" y="16px" /><rect fill="rgb(165,143,110)" height="5px" width="5px" x="40px" y="16px" /><rect fill="rgb(165,143,110)" height="5px" width="5px" x="44px" y="16px" /><rect fill="rgb(165,143,110)" height="5px" width="5px" x="48px" y="16px" /><rect fill="rgb(165,143,110)" height="5px" width="5px" x="52px" y="16px" /><rect fill="rgb(165,143,110)" height="5px" width="5px" x="56px" y="16px" /><rect fill="rgb(165,129,66)" height="5px" width="5px" x="60px" y="16px" /><rect fill="rgb(165,143,110)" height="5px" width="5px" x="0px" y="20px" /><rect fill="rgb(165,129,66)" height="5px" width="5px" x="4px" y="20px" /><rect fill="rgb(165,129,66)" height="5px" width="5px" x="8px" y="20px" /><rect fill="rgb(165,129,66)" height="5px" width="5px" x="12px" y="20px" /><rect fill="rgb(165,143,110)" height="5px" width="5px" x="16px" y="20px" /><rect fill="rgb(165,143,110)" height="5px" width="5px" x="20px" y="20px" /><rect fill="rgb(165,143,110)" height="5px" width="5px" x="24px" y="20px" /><rect fill="rgb(165,129,66)" height="5px" width="5px" x="28px" y="20px" /><rect fill="rgb(165,143,110)" height="5px" width="5px" x="32px" y="20px" /><rect fill="rgb(165,129,66)" height="5px" width="5px" x="36px" y="20px" /><rect fill="rgb(165,129,66)" height="5px" width="5px" x="40px" y="20px" /><rect fill="rgb(165,129,66)" height="5px" width="5px" x="44px" y="20px" /><rect fill="rgb(165,143,110)" height="5px" width="5px" x="48px" y="20px" /><rect fill="rgb(165,143,110)" height="5px" width="5px" x="52px" y="20px" /><rect fill="rgb(165,143,110)" height="5px" width="5px" x="56px" y="20px" /><rect fill="rgb(165,129,66)" height="5px" width="5px" x="60px" y="20px" /><rect fill="rgb(165,143,110)" height="5px" width="5px" x="0px" y="24px" /><rect fill="rgb(165,143,110)" height="5px" width="5px" x="4px" y="24px" /><rect fill="rgb(165,143,110)" height="5px" width="5px" x="8px" y="24px" /><rect fill="rgb(165,129,66)" height="5px" width="5px" x="12px" y="24px" /><rect fill="rgb(165,143,110)" height="5px" width="5px" x="16px" y="24px" /><rect fill="rgb(165,129,66)" height="5px" width="5px" x="20px" y="24px" /><rect fill="rgb(165,129,66)" height="5px" width="5px" x="24px" y="24px" /><rect fill="rgb(165,129,66)" height="5px" width="5px" x="28px" y="24px" /><rect fill="rgb(165,143,110)" height="5px" width="5px" x="32px" y="24px" /><rect fill="rgb(165,143,110)" height="5px" width="5px" x="36px" y="24px" /><rect fill="rgb(165,143,110)" height="5px" width="5px" x="40px" y="24px" /><rect fill="rgb(165,129,66)" height="5px" width="5px" x="44px" y="24px" /><rect fill="rgb(165,143,110)" height="5px" width="5px" x="48px" y="24px" /><rect fill="rgb(165,129,66)" height="5px" width="5px" x="52px" y="24px" /><rect fill="rgb(165,129,66)" height="5px" width="5px" x="56px" y="24px" /><rect fill="rgb(165,129,66)" height="5px" width="5px" x="60px" y="24px" /><rect fill="rgb(165,143,110)" height="5px" width="5px" x="0px" y="28px" /><rect fill="rgb(165,143,110)" height="5px" width="5px" x="4px" y="28px" /><rect fill="rgb(165,143,110)" height="5px" width="5px" x="8px" y="28px" /><rect fill="rgb(165,129,66)" height="5px" width="5px" x="12px" y="28px" /><rect fill="rgb(165,143,110)" height="5px" width="5px" x="16px" y="28px" /><rect fill="rgb(165,129,66)" height="5px" width="5px" x="20px" y="28px" /><rect fill="rgb(165,143,110)" height="5px" width="5px" x="24px" y="28px" /><rect fill="rgb(165,143,110)" height="5px" width="5px" x="28px" y="28px" /><rect fill="rgb(165,143,110)" height="5px" width="5px" x="32px" y="28px" /><rect fill="rgb(165,143,110)" height="5px" width="5px" x="36px" y="28px" /><rect fill="rgb(165,143,110)" height="5px" width="5px" x="40px" y="28px" /><rect fill="rgb(165,129,66)" height="5px" width="5px" x="44px" y="28px" /><rect fill="rgb(165,143,110)" height="5px" width="5px" x="48px" y="28px" /><rect fill="rgb(165,129,66)" height="5px" width="5px" x="52px" y="28px" /><rect fill="rgb(165,143,110)" height="5px" width="5px" x="56px" y="28px" /><rect fill="rgb(165,143,110)" height="5px" width="5px" x="60px" y="28px" /><rect fill="rgb(165,143,110)" height="5px" width="5px" x="0px" y="32px" /><rect fill="rgb(165,129,66)" height="5px" width="5px" x="4px" y="32px" /><rect fill="rgb(165,129,66)" height="5px" width="5px" x="8px" y="32px" /><rect fill="rgb(165,129,66)" height="5px" width="5px" x="12px" y="32px" /><rect fill="rgb(165,143,110)" height="5px" width="5px" x="16px" y="32px" /><rect fill="rgb(165,129,66)" height="5px" width="5px" x="20px" y="32px" /><rect fill="rgb(165,143,110)" height="5px" width="5px" x="24px" y="32px" /><rect fill="rgb(165,143,110)" height="5px" width="5px" x="28px" y="32px" /><rect fill="rgb(165,143,110)" height="5px" width="5px" x="32px" y="32px" /><rect fill="rgb(165,129,66)" height="5px" width="5px" x="36px" y="32px" /><rect fill="rgb(165,129,66)" height="5px" width="5px" x="40px" y="32px" /><rect fill="rgb(165,129,66)" height="5px" width="5px" x="44px" y="32px" /><rect fill="rgb(165,143,110)" height="5px" width="5px" x="48px" y="32px" /><rect fill="rgb(165,129,66)" height="5px" width="5px" x="52px" y="32px" /><rect fill="rgb(165,143,110)" height="5px" width="5px" x="56px" y="32px" /><rect fill="rgb(165,143,110)" height="5px" width="5px" x="60px" y="32px" /><rect fill="rgb(165,143,110)" height="5px" width="5px" x="0px" y="36px" /><rect fill="rgb(165,129,66)" height="5px" width="5px" x="4px" y="36px" /><rect fill="rgb(165,143,110)" height="5px" width="5px" x="8px" y="36px" /><rect fill="rgb(165,143,110)" height="5px" width="5px" x="12px" y="36px" /><rect fill="rgb(165,143,110)" height="5px" width="5px" x="16px" y="36px" /><rect fill="rgb(165,129,66)" height="5px" width="5px" x="20px" y="36px" /><rect fill="rgb(165,129,66)" height="5px" width="5px" x="24px" y="36px" /><rect fill="rgb(165,129,66)" height="5px" width="5px" x="28px" y="36px" /><rect fill="rgb(165,143,110)" height="5px" width="5px" x="32px" y="36px" /><rect fill="rgb(165,129,66)" height="5px" width="5px" x="36px" y="36px" /><rect fill="rgb(165,143,110)" height="5px" width="5px" x="40px" y="36px" /><rect fill="rgb(165,143,110)" height="5px" width="5px" x="44px" y="36px" /><rect fill="rgb(165,143,110)" height="5px" width="5px" x="48px" y="36px" /><rect fill="rgb(165,129,66)" height="5px" width="5px" x="52px" y="36px" /><rect fill="rgb(165,129,66)" height="5px" width="5px" x="56px" y="36px" /><rect fill="rgb(165,129,66)" height="5px" width="5px" x="60px" y="36px" /><rect fill="rgb(165,143,110)" height="5px" width="5px" x="0px" y="40px" /><rect fill="rgb(165,129,66)" height="5px" width="5px" x="4px" y="40px" /><rect fill="rgb(165,143,110)" height="5px" width="5px" x="8px" y="40px" /><rect fill="rgb(165,143,110)" height="5px" width="5px" x="12px" y="40px" /><rect fill="rgb(165,143,110)" height="5px" width="5px" x="16px" y="40px" /><rect fill="rgb(165,143,110)" height="5px" width="5px" x="20px" y="40px" /><rect fill="rgb(165,143,110)" height="5px" width="5px" x="24px" y="40px" /><rect fill="rgb(165,129,66)" height="5px" width="5px" x="28px" y="40px" /><rect fill="rgb(165,143,110)" height="5px" width="5px" x="32px" y="40px" /><rect fill="rgb(165,129,66)" height="5px" width="5px" x="36px" y="40px" /><rect fill="rgb(165,143,110)" height="5px" width="5px" x="40px" y="40px" /><rect fill="rgb(165,143,110)" height="5px" width="5px" x="44px" y="40px" /><rect fill="rgb(165,143,110)" height="5px" width="5px" x="48px" y="40px" /><rect fill="rgb(165,143,110)" height="5px" width="5px" x="52px" y="40px" /><rect fill="rgb(165,143,110)" height="5px" width="5px" x="56px" y="40px" /><rect fill="rgb(165,129,66)" height="5px" width="5px" x="60px" y="40px" /><rect fill="rgb(165,143,110)" height="5px" width="5px" x="0px" y="44px" /><rect fill="rgb(165,129,66)" height="5px" width="5px" x="4px" y="44px" /><rect fill="rgb(165,129,66)" height="5px" width="5px" x="8px" y="44px" /><rect fill="rgb(165,129,66)" height="5px" width="5px" x="12px" y="44px" /><rect fill="rgb(165,143,110)" height="5px" width="5px" x="16px" y="44px" /><rect fill="rgb(165,143,110)" height="5px" width="5px" x="20px" y="44px" /><rect fill="rgb(165,143,110)" height="5px" width="5px" x="24px" y="44px" /><rect fill="rgb(165,129,66)" height="5px" width="5px" x="28px" y="44px" /><rect fill="rgb(165,143,110)" height="5px" width="5px" x="32px" y="44px" /><rect fill="rgb(165,129,66)" height="5px" width="5px" x="36px" y="44px" /><rect fill="rgb(165,129,66)" height="5px" width="5px" x="40px" y="44px" /><rect fill="rgb(165,129,66)" height="5px" width="5px" x="44px" y="44px" /><rect fill="rgb(165,143,110)" height="5px" width="5px" x="48px" y="44px" /><rect fill="rgb(165,143,110)" height="5px" width="5px" x="52px" y="44px" /><rect fill="rgb(165,143,110)" height="5px" width="5px" x="56px" y="44px" /><rect fill="rgb(165,129,66)" height="5px" width="5px" x="60px" y="44px" /><rect fill="rgb(165,143,110)" height="5px" width="5px" x="0px" y="48px" /><rect fill="rgb(165,143,110)" height="5px" width="5px" x="4px" y="48px" /><rect fill="rgb(165,143,110)" height="5px" width="5px" x="8px" y="48px" /><rect fill="rgb(165,129,66)" height="5px" width="5px" x="12px" y="48px" /><rect fill="rgb(165,143,110)" height="5px" width="5px" x="16px" y="48px" /><rect fill="rgb(165,129,66)" height="5px" width="5px" x="20px" y="48px" /><rect fill="rgb(165,129,66)" height="5px" width="5px" x="24px" y="48px" /><rect fill="rgb(165,129,66)" height="5px" width="5px" x="28px" y="48px" /><rect fill="rgb(165,143,110)" height="5px" width="5px" x="32px" y="48px" /><rect fill="rgb(165,143,110)" height="5px" width="5px" x="36px" y="48px" /><rect fill="rgb(165,143,110)" height="5px" width="5px" x="40px" y="48px" /><rect fill="rgb(165,129,66)" height="5px" width="5px" x="44px" y="48px" /><rect fill="rgb(165,143,110)" height="5px" width="5px" x="48px" y="48px" /><rect fill="rgb(165,129,66)" height="5px" width="5px" x="52px" y="48px" /><rect fill="rgb(165,129,66)" height="5px" width="5px" x="56px" y="48px" /><rect fill="rgb(165,129,66)" height="5px" width="5px" x="60px" y="48px" /><rect fill="rgb(165,143,110)" height="5px" width="5px" x="0px" y="52px" /><rect fill="rgb(165,143,110)" height="5px" width="5px" x="4px" y="52px" /><rect fill="rgb(165,143,110)" height="5px" width="5px" x="8px" y="52px" /><rect fill="rgb(165,129,66)" height="5px" width="5px" x="12px" y="52px" /><rect fill="rgb(165,143,110)" height="5px" width="5px" x="16px" y="52px" /><rect fill="rgb(165,129,66)" height="5px" width="5px" x="20px" y="52px" /><rect fill="rgb(165,143,110)" height="5px" width="5px" x="24px" y="52px" /><rect fill="rgb(165,143,110)" height="5px" width="5px" x="28px" y="52px" /><rect fill="rgb(165,143,110)" height="5px" width="5px" x="32px" y="52px" /><rect fill="rgb(165,143,110)" height="5px" width="5px" x="36px" y="52px" /><rect fill="rgb(165,143,110)" height="5px" width="5px" x="40px" y="52px" /><rect fill="rgb(165,129,66)" height="5px" width="5px" x="44px" y="52px" /><rect fill="rgb(165,143,110)" height="5px" width="5px" x="48px" y="52px" /><rect fill="rgb(165,129,66)" height="5px" width="5px" x="52px" y="52px" /><rect fill="rgb(165,143,110)" height="5px" width="5px" x="56px" y="52px" /><rect fill="rgb(165,143,110)" height="5px" width="5px" x="60px" y="52px" /><rect fill="rgb(165,143,110)" height="5px" width="5px" x="0px" y="56px" /><rect fill="rgb(165,129,66)" height="5px" width="5px" x="4px" y="56px" /><rect fill="rgb(165,129,66)" height="5px" width="5px" x="8px" y="56px" /><rect fill="rgb(165,129,66)" height="5px" width="5px" x="12px" y="56px" /><rect fill="rgb(165,143,110)" height="5px" width="5px" x="16px" y="56px" /><rect fill="rgb(165,129,66)" height="5px" width="5px" x="20px" y="56px" /><rect fill="rgb(165,143,110)" height="5px" width="5px" x="24px" y="56px" /><rect fill="rgb(165,143,110)" height="5px" width="5px" x="28px" y="56px" /><rect fill="rgb(165,143,110)" height="5px" width="5px" x="32px" y="56px" /><rect fill="rgb(165,129,66)" height="5px" width="5px" x="36px" y="56px" /><rect fill="rgb(165,129,66)" height="5px" width="5px" x="40px" y="56px" /><rect fill="rgb(165,129,66)" height="5px" width="5px" x="44px" y="56px" /><rect fill="rgb(165,143,110)" height="5px" width="5px" x="48px" y="56px" /><rect fill="rgb(165,129,66)" height="5px" width="5px" x="52px" y="56px" /><rect fill="rgb(165,143,110)" height="5px" width="5px" x="56px" y="56px" /><rect fill="rgb(165,143,110)" height="5px" width="5px" x="60px" y="56px" /><rect fill="rgb(165,143,110)" height="5px" width="5px" x="0px" y="60px" /><rect fill="rgb(165,129,66)" height="5px" width="5px" x="4px" y="60px" /><rect fill="rgb(165,143,110)" height="5px" width="5px" x="8px" y="60px" /><rect fill="rgb(165,143,110)" height="5px" width="5px" x="12px" y="60px" /><rect fill="rgb(165,143,110)" height="5px" width="5px" x="16px" y="60px" /><rect fill="rgb(165,129,66)" height="5px" width="5px" x="20px" y="60px" /><rect fill="rgb(165,129,66)" height="5px" width="5px" x="24px" y="60px" /><rect fill="rgb(165,129,66)" height="5px" width="5px" x="28px" y="60px" /><rect fill="rgb(165,143,110)" height="5px" width="5px" x="32px" y="60px" /><rect fill="rgb(165,129,66)" height="5px" width="5px" x="36px" y="60px" /><rect fill="rgb(165,143,110)" height="5px" width="5px" x="40px" y="60px" /><rect fill="rgb(165,143,110)" height="5px" width="5px" x="44px" y="60px" /><rect fill="rgb(165,143,110)" height="5px" width="5px" x="48px" y="60px" /><rect fill="rgb(165,129,66)" height="5px" width="5px" x="52px" y="60px" /><rect fill="rgb(165,129,66)" height="5px" width="5px" x="56px" y="60px" /><rect fill="rgb(165,129,66)" height="5px" width="5px" x="60px" y="60px" /><rect fill="rgb(165,143,110)" height="5px" width="5px" x="0px" y="64px" /><rect fill="rgb(165,129,66)" height="5px" width="5px" x="4px" y="64px" /><rect fill="rgb(165,143,110)" height="5px" width="5px" x="8px" y="64px" /><rect fill="rgb(165,143,110)" height="5px" width="5px" x="12px" y="64px" /><rect fill="rgb(165,143,110)" height="5px" width="5px" x="16px" y="64px" /><rect fill="rgb(165,143,110)" height="5px" width="5px" x="20px" y="64px" /><rect fill="rgb(165,143,110)" height="5px" width="5px" x="24px" y="64px" /><rect fill="rgb(165,129,66)" height="5px" width="5px" x="28px" y="64px" /><rect fill="rgb(165,143,110)" height="5px" width="5px" x="32px" y="64px" /><rect fill="rgb(165,129,66)" height="5px" width="5px" x="36px" y="64px" /><rect fill="rgb(165,143,110)" height="5px" width="5px" x="40px" y="64px" /><rect fill="rgb(165,143,110)" height="5px" width="5px" x="44px" y="64px" /><rect fill="rgb(165,143,110)" height="5px" width="5px" x="48px" y="64px" /><rect fill="rgb(165,143,110)" height="5px" width="5px" x="52px" y="64px" /><rect fill="rgb(165,143,110)" height="5px" width="5px" x="56px" y="64px" /><rect fill="rgb(165,129,66)" height="5px" width="5px" x="60px" y="64px" /><rect fill="rgb(165,143,110)" height="5px" width="5px" x="0px" y="68px" /><rect fill="rgb(165,129,66)" height="5px" width="5px" x="4px" y="68px" /><rect fill="rgb(165,129,66)" height="5px" width="5px" x="8px" y="68px" /><rect fill="rgb(165,129,66)" height="5px" width="5px" x="12px" y="68px" /><rect fill="rgb(165,143,110)" height="5px" width="5px" x="16px" y="68px" /><rect fill="rgb(165,143,110)" height="5px" width="5px" x="20px" y="68px" /><rect fill="rgb(165,143,110)" height="5px" width="5px" x="24px" y="68px" /><rect fill="rgb(165,129,66)" height="5px" width="5px" x="28px" y="68px" /><rect fill="rgb(165,143,110)" height="5px" width="5px" x="32px" y="68px" /><rect fill="rgb(165,129,66)" height="5px" width="5px" x="36px" y="68px" /><rect fill="rgb(165,129,66)" height="5px" width="5px" x="40px" y="68px" /><rect fill="rgb(165,129,66)" height="5px" width="5px" x="44px" y="68px" /><rect fill="rgb(165,143,110)" height="5px" width="5px" x="48px" y="68px" /><rect fill="rgb(165,143,110)" height="5px" width="5px" x="52px" y="68px" /><rect fill="rgb(165,143,110)" height="5px" width="5px" x="56px" y="68px" /><rect fill="rgb(165,129,66)" height="5px" width="5px" x="60px" y="68px" /></svg>