<?xml version="1.0" encoding="utf-8" ?>
<svg baseProfile="full" height="320px" version="1.1" width="320px" xmlns="http://www.w3.org/2000/svg" xmlns:ev="http://www.w3.org/2001/xml-events" xmlns:xlink="http://www.w3.org/1999/xlink"><defs /><rect fill="rgb(48,48,48)" height="40px" width="40px" x="80px" y="80px" /><rect fill="rgb(48,48,48)" height="40px" width="40px" x="120px" y="80px" /><rect fill="rgb(48,48,48)" height="40px" width="40px" x="160px" y="80px" /><rect fill="rgb(48,48,48)" height="40px" width="40px" x="280px" y="80px" /><rect fill="rgb(99,69,44)" height="40px" width="40px" x="40px" y="120px" /><rect fill="rgb(48,48,48)" height="40px" width="40px" x="80px" y="120px" /><rect fill="rgb(64,64,64)" height="40px" width="40px" x="120px" y="120px" /><rect fill="rgb(48,48,48)" height="40px" width="40px" x="160px" y="120px" /><rect fill="rgb(64,64,64)" height="40px" width="40px" x="200px" y="120px" /><rect fill="rgb(64,64,64)" height="40px" width="40px" x="240px" y="120px" /><rect fill="rgb(48,48,48)" height="40px" width="40px" x="280px" y="120px" /><rect fill="rgb(99,69,44)" height="40px" width="40px" x="0px" y="160px" /><rect fill="rgb(99,69,44)" height="40px" width="40px" x="40px" y="160px" /><rect fill="rgb(48,48,48)" height="40px" width="40px" x="80px" y="160px" /><rect fill="rgb(64,64,64)" height="40px" width="40px" x="120px" y="160px" /><rect fill="rgb(48,48,48)" height="40px" width="40px" x="160px" y="160px" /><rect fill="rgb(64,64,64)" height="40px" width="40px" x="200px" y="160px" /><rect fill="rgb(64,64,64)" height="40px" width="40px" x="240px" y="160px" /><rect fill="rgb(64,64,64)" height="40px" width="40px" x="280px" y="160px" /><rect fill="rgb(99,69,44)" height="40px" width="40px" x="0px" y="200px" /><rect fill="rgb(99,69,44)" height="40px" width="40px" x="40px" y="200px" /><rect fill="rgb(48,48,48)" height="40px" width="40px" x="80px" y="200px" /><rect fill="rgb(48,48,48)" height="40px" width="40px" x="120px" y="200px" /><rect fill="rgb(48,48,48)" height="40px" width="40px" x="160px" y="200px" /><rect fill="rgb(99,69,44)" height="40px" width="40px" x="0px" y="240px" /><rect fill="rgb(99,69,44)" height="40px" width="40px" x="40px" y="240px" /><rect fill="rgb(99,69,44)" height="40px" width="40px" x="0px" y="280px" /></svg>