<?xml version="1.0" encoding="utf-8" ?>
<svg baseProfile="full" height="24px" version="1.1" width="24px" xmlns="http://www.w3.org/2000/svg" xmlns:ev="http://www.w3.org/2001/xml-events" xmlns:xlink="http://www.w3.org/1999/xlink"><defs /><rect fill="rgb(0,0,0)" height="4px" width="4px" x="3px" y="3px" /><rect fill="rgb(255,216,0)" height="4px" width="4px" x="6px" y="3px" /><rect fill="rgb(255,216,0)" height="4px" width="4px" x="9px" y="3px" /><rect fill="rgb(0,0,0)" height="4px" width="4px" x="3px" y="6px" /><rect fill="rgb(31,191,31)" height="4px" width="4px" x="6px" y="6px" /><rect fill="rgb(31,191,31)" height="4px" width="4px" x="9px" y="6px" /><rect fill="rgb(255,216,0)" height="4px" width="4px" x="12px" y="6px" /><rect fill="rgb(0,0,0)" height="4px" width="4px" x="3px" y="9px" /><rect fill="rgb(31,191,31)" height="4px" width="4px" x="12px" y="9px" /><rect fill="rgb(255,216,0)" height="4px" width="4px" x="15px" y="9px" /><rect fill="rgb(0,0,0)" height="4px" width="4px" x="3px" y="12px" /><rect fill="rgb(31,191,31)" height="4px" width="4px" x="12px" y="12px" /><rect fill="rgb(255,216,0)" height="4px" width="4px" x="15px" y="12px" /><rect fill="rgb(0,0,0)" height="4px" width="4px" x="3px" y="15px" /><rect fill="rgb(31,191,31)" height="4px" width="4px" x="15px" y="15px" /><rect fill="rgb(255,216,0)" height="4px" width="4px" x="18px" y="15px" /><rect fill="rgb(0,0,0)" height="4px" width="4px" x="3px" y="18px" /><rect fill="rgb(0,0,0)" height="4px" width="4px" x="3px" y="21px" /></svg>