<?xml version="1.0" encoding="utf-8" ?>
<svg baseProfile="full" height="64px" version="1.1" width="64px" xmlns="http://www.w3.org/2000/svg" xmlns:ev="http://www.w3.org/2001/xml-events" xmlns:xlink="http://www.w3.org/1999/xlink"><defs /><rect fill="rgb(255,255,255)" height="3px" width="3px" x="8px" y="12px" /><rect fill="rgb(255,255,255)" height="3px" width="3px" x="10px" y="12px" /><rect fill="rgb(255,255,255)" height="3px" width="3px" x="12px" y="12px" /><rect fill="rgb(255,255,255)" height="3px" width="3px" x="14px" y="12px" /><rect fill="rgb(255,255,255)" height="3px" width="3px" x="16px" y="12px" /><rect fill="rgb(255,255,255)" height="3px" width="3px" x="18px" y="12px" /><rect fill="rgb(255,255,255)" height="3px" width="3px" x="20px" y="12px" /><rect fill="rgb(255,255,255)" height="3px" width="3px" x="22px" y="12px" /><rect fill="rgb(255,255,255)" height="3px" width="3px" x="24px" y="12px" /><rect fill="rgb(255,255,255)" height="3px" width="3px" x="26px" y="12px" /><rect fill="rgb(255,255,255)" height="3px" width="3px" x="28px" y="12px" /><rect fill="rgb(255,255,255)" height="3px" width="3px" x="30px" y="12px" /><rect fill="rgb(255,255,255)" height="3px" width="3px" x="32px" y="12px" /><rect fill="rgb(255,255,255)" height="3px" width="3px" x="34px" y="12px" /><rect fill="rgb(255,255,255)" height="3px" width="3px" x="36px" y="12px" /><rect fill="rgb(255,255,255)" height="3px" width="3px" x="38px" y="12px" /><rect fill="rgb(255,255,255)" height="3px" width="3px" x="40px" y="12px" /><rect fill="rgb(255,255,255)" height="3px" width="3px" x="6px" y="14px" /><rect fill="rgb(255,255,255)" height="3px" width="3px" x="8px" y="14px" /><rect fill="rgb(255,255,255)" height="3px" width="3px" x="10px" y="14px" /><rect fill="rgb(255,255,255)" height="3px" width="3px" x="12px" y="14px" /><rect fill="rgb(255,255,255)" height="3px" width="3px" x="14px" y="14px" /><rect fill="rgb(255,255,255)" height="3px" width="3px" x="16px" y="14px" /><rect fill="rgb(255,255,255)" height="3px" width="3px" x="18px" y="14px" /><rect fill="rgb(255,255,255)" height="3px" width="3px" x="20px" y="14px" /><rect fill="rgb(255,255,255)" height="3px" width="3px" x="22px" y="14px" /><rect fill="rgb(255,255,255)" height="3px" width="3px" x="24px" y="14px" /><rect fill="rgb(255,255,255)" height="3px" width="3px" x="26px" y="14px" /><rect fill="rgb(255,255,255)" height="3px" width="3px" x="28px" y="14px" /><rect fill="rgb(255,255,255)" height="3px" width="3px" x="30px" y="14px" /><rect fill="rgb(255,255,255)" height="3px" width="3px" x="32px" y="14px" /><rect fill="rgb(255,255,255)" height="3px" width="3px" x="34px" y="14px" /><rect fill="rgb(255,255,255)" height="3px" width="3px" x="36px" y="14px" /><rect fill="rgb(255,255,255)" height="3px" width="3px" x="38px" y="14px" /><rect fill="rgb(255,255,255)" height="3px" width="3px" x="40px" y="14px" /><rect fill="rgb(255,255,255)" height="3px" width="3px" x="42px" y="14px" /><rect fill="rgb(255,255,255)" height="3px" width="3px" x="6px" y="16px" /><rect fill="rgb(255,255,255)" height="3px" width="3px" x="8px" y="16px" /><rect fill="rgb(255,255,255)" height="3px" width="3px" x="10px" y="16px" /><rect fill="rgb(255,255,255)" height="3px" width="3px" x="12px" y="16px" /><rect fill="rgb(255,255,255)" height="3px" width="3px" x="14px" y="16px" /><rect fill="rgb(255,255,255)" height="3px" width="3px" x="16px" y="16px" /><rect fill="rgb(255,255,255)" height="3px" width="3px" x="18px" y="16px" /><rect fill="rgb(255,255,255)" height="3px" width="3px" x="20px" y="16px" /><rect fill="rgb(255,255,255)" height="3px" width="3px" x="22px" y="16px" /><rect fill="rgb(255,255,255)" height="3px" width="3px" x="24px" y="16px" /><rect fill="rgb(255,255,255)" height="3px" width="3px" x="26px" y="16px" /><rect fill="rgb(255,255,255)" height="3px" width="3px" x="28px" y="16px" /><rect fill="rgb(255,255,255)" height="3px" width="3px" x="30px" y="16px" /><rect fill="rgb(255,255,255)" height="3px" width="3px" x="32px" y="16px" /><rect fill="rgb(255,255,255)" height="3px" width="3px" x="34px" y="16px" /><rect fill="rgb(255,255,255)" height="3px" width="3px" x="36px" y="16px" /><rect fill="rgb(255,255,255)" height="3px" width="3px" x="38px" y="16px" /><rect fill="rgb(255,255,255)" height="3px" width="3px" x="40px" y="16px" /><rect fill="rgb(255,255,255)" height="3px" width="3px" x="42px" y="16px" /><rect fill="rgb(255,255,255)" height="3px" width="3px" x="6px" y="18px" /><rect fill="rgb(255,255,255)" height="3px" width="3px" x="8px" y="18px" /><rect fill="rgb(255,255,255)" height="3px" width="3px" x="10px" y="18px" /><rect fill="rgb(255,255,255)" height="3px" width="3px" x="12px" y="18px" /><rect fill="rgb(255,255,255)" height="3px" width="3px" x="14px" y="18px" /><rect fill="rgb(255,255,255)" height="3px" width="3px" x="16px" y="18px" /><rect fill="rgb(255,255,255)" height="3px" width="3px" x="18px" y="18px" /><rect fill="rgb(255,255,255)" height="3px" width="3px" x="20px" y="18px" /><rect fill="rgb(255,255,255)" height="3px" width="3px" x="22px" y="18px" /><rect fill="rgb(255,255,255)" height="3px" width="3px" x="24px" y="18px" /><rect fill="rgb(255,255,255)" height="3px" width="3px" x="26px" y="18px" /><rect fill="rgb(255,255,255)" height="3px" width="3px" x="28px" y="18px" /><rect fill="rgb(255,255,255)" height="3px" width="3px" x="30px" y="18px" /><rect fill="rgb(255,255,255)" height="3px" width="3px" x="32px" y="18px" /><rect fill="rgb(255,255,255)" height="3px" width="3px" x="34px" y="18px" /><rect fill="rgb(255,255,255)" height="3px" width="3px" x="36px" y="18px" /><rect fill="rgb(255,255,255)" height="3px" width="3px" x="38px" y="18px" /><rect fill="rgb(255,255,255)" height="3px" width="3px" x="40px" y="18px" /><rect fill="rgb(255,255,255)" height="3px" width="3px" x="42px" y="18px" /><rect fill="rgb(160,160,160)" height="3px" width="3px" x="2px" y="20px" /><rect fill="rgb(190,190,190)" height="3px" width="3px" x="4px" y="20px" /><rect fill="rgb(160,160,160)" height="3px" width="3px" x="6px" y="20px" /><rect fill="rgb(190,190,190)" height="3px" width="3px" x="8px" y="20px" /><rect fill="rgb(160,160,160)" height="3px" width="3px" x="10px" y="20px" /><rect fill="rgb(190,190,190)" height="3px" width="3px" x="12px" y="20px" /><rect fill="rgb(160,160,160)" height="3px" width="3px" x="14px" y="20px" /><rect fill="rgb(190,190,190)" height="3px" width="3px" x="16px" y="20px" /><rect fill="rgb(160,160,160)" height="3px" width="3px" x="18px" y="20px" /><rect fill="rgb(190,190,190)" height="3px" width="3px" x="20px" y="20px" /><rect fill="rgb(160,160,160)" height="3px" width="3px" x="22px" y="20px" /><rect fill="rgb(190,190,190)" height="3px" width="3px" x="24px" y="20px" /><rect fill="rgb(160,160,160)" height="3px" width="3px" x="26px" y="20px" /><rect fill="rgb(190,190,190)" height="3px" width="3px" x="28px" y="20px" /><rect fill="rgb(160,160,160)" height="3px" width="3px" x="30px" y="20px" /><rect fill="rgb(190,190,190)" height="3px" width="3px" x="32px" y="20px" /><rect fill="rgb(160,160,160)" height="3px" width="3px" x="34px" y="20px" /><rect fill="rgb(190,190,190)" height="3px" width="3px" x="36px" y="20px" /><rect fill="rgb(160,160,160)" height="3px" width="3px" x="38px" y="20px" /><rect fill="rgb(190,190,190)" height="3px" width="3px" x="40px" y="20px" /><rect fill="rgb(160,160,160)" height="3px" width="3px" x="42px" y="20px" /><rect fill="rgb(190,190,190)" height="3px" width="3px" x="44px" y="20px" /><rect fill="rgb(160,160,160)" height="3px" width="3px" x="46px" y="20px" /><rect fill="rgb(190,190,190)" height="3px" width="3px" x="48px" y="20px" /><rect fill="rgb(160,160,160)" height="3px" width="3px" x="50px" y="20px" /><rect fill="rgb(190,190,190)" height="3px" width="3px" x="52px" y="20px" /><rect fill="rgb(160,160,160)" height="3px" width="3px" x="54px" y="20px" /><rect fill="rgb(190,190,190)" height="3px" width="3px" x="56px" y="20px" /><rect fill="rgb(160,160,160)" height="3px" width="3px" x="2px" y="22px" /><rect fill="rgb(190,190,190)" height="3px" width="3px" x="4px" y="22px" /><rect fill="rgb(160,160,160)" height="3px" width="3px" x="6px" y="22px" /><rect fill="rgb(190,190,190)" height="3px" width="3px" x="8px" y="22px" /><rect fill="rgb(160,160,160)" height="3px" width="3px" x="10px" y="22px" /><rect fill="rgb(190,190,190)" height="3px" width="3px" x="12px" y="22px" /><rect fill="rgb(160,160,160)" height="3px" width="3px" x="14px" y="22px" /><rect fill="rgb(190,190,190)" height="3px" width="3px" x="16px" y="22px" /><rect fill="rgb(160,160,160)" height="3px" width="3px" x="18px" y="22px" /><rect fill="rgb(190,190,190)" height="3px" width="3px" x="20px" y="22px" /><rect fill="rgb(160,160,160)" height="3px" width="3px" x="22px" y="22px" /><rect fill="rgb(190,190,190)" height="3px" width="3px" x="24px" y="22px" /><rect fill="rgb(160,160,160)" height="3px" width="3px" x="26px" y="22px" /><rect fill="rgb(190,190,190)" height="3px" width="3px" x="28px" y="22px" /><rect fill="rgb(160,160,160)" height="3px" width="3px" x="30px" y="22px" /><rect fill="rgb(190,190,190)" height="3px" width="3px" x="32px" y="22px" /><rect fill="rgb(160,160,160)" height="3px" width="3px" x="34px" y="22px" /><rect fill="rgb(190,190,190)" height="3px" width="3px" x="36px" y="22px" /><rect fill="rgb(160,160,160)" height="3px" width="3px" x="38px" y="22px" /><rect fill="rgb(190,190,190)" height="3px" width="3px" x="40px" y="22px" /><rect fill="rgb(160,160,160)" height="3px" width="3px" x="42px" y="22px" /><rect fill="rgb(190,190,190)" height="3px" width="3px" x="44px" y="22px" /><rect fill="rgb(160,160,160)" height="3px" width="3px" x="46px" y="22px" /><rect fill="rgb(190,190,190)" height="3px" width="3px" x="48px" y="22px" /><rect fill="rgb(160,160,160)" height="3px" width="3px" x="50px" y="22px" /><rect fill="rgb(190,190,190)" height="3px" width="3px" x="52px" y="22px" /><rect fill="rgb(160,160,160)" height="3px" width="3px" x="54px" y="22px" /><rect fill="rgb(190,190,190)" height="3px" width="3px" x="56px" y="22px" /><rect fill="rgb(160,160,160)" height="3px" width="3px" x="2px" y="24px" /><rect fill="rgb(190,190,190)" height="3px" width="3px" x="4px" y="24px" /><rect fill="rgb(160,160,160)" height="3px" width="3px" x="6px" y="24px" /><rect fill="rgb(190,190,190)" height="3px" width="3px" x="8px" y="24px" /><rect fill="rgb(160,160,160)" height="3px" width="3px" x="10px" y="24px" /><rect fill="rgb(190,190,190)" height="3px" width="3px" x="12px" y="24px" /><rect fill="rgb(160,160,160)" height="3px" width="3px" x="14px" y="24px" /><rect fill="rgb(190,190,190)" height="3px" width="3px" x="16px" y="24px" /><rect fill="rgb(160,160,160)" height="3px" width="3px" x="18px" y="24px" /><rect fill="rgb(190,190,190)" height="3px" width="3px" x="20px" y="24px" /><rect fill="rgb(160,160,160)" height="3px" width="3px" x="22px" y="24px" /><rect fill="rgb(190,190,190)" height="3px" width="3px" x="24px" y="24px" /><rect fill="rgb(160,160,160)" height="3px" width="3px" x="26px" y="24px" /><rect fill="rgb(190,190,190)" height="3px" width="3px" x="28px" y="24px" /><rect fill="rgb(160,160,160)" height="3px" width="3px" x="30px" y="24px" /><rect fill="rgb(190,190,190)" height="3px" width="3px" x="32px" y="24px" /><rect fill="rgb(160,160,160)" height="3px" width="3px" x="34px" y="24px" /><rect fill="rgb(190,190,190)" height="3px" width="3px" x="36px" y="24px" /><rect fill="rgb(160,160,160)" height="3px" width="3px" x="38px" y="24px" /><rect fill="rgb(190,190,190)" height="3px" width="3px" x="40px" y="24px" /><rect fill="rgb(160,160,160)" height="3px" width="3px" x="42px" y="24px" /><rect fill="rgb(190,190,190)" height="3px" width="3px" x="44px" y="24px" /><rect fill="rgb(160,160,160)" height="3px" width="3px" x="46px" y="24px" /><rect fill="rgb(190,190,190)" height="3px" width="3px" x="48px" y="24px" /><rect fill="rgb(160,160,160)" height="3px" width="3px" x="50px" y="24px" /><rect fill="rgb(190,190,190)" height="3px" width="3px" x="52px" y="24px" /><rect fill="rgb(160,160,160)" height="3px" width="3px" x="54px" y="24px" /><rect fill="rgb(190,190,190)" height="3px" width="3px" x="56px" y="24px" /><rect fill="rgb(160,160,160)" height="3px" width="3px" x="2px" y="26px" /><rect fill="rgb(190,190,190)" height="3px" width="3px" x="4px" y="26px" /><rect fill="rgb(130,255,255)" height="3px" width="3px" x="6px" y="26px" /><rect fill="rgb(130,255,255)" height="3px" width="3px" x="8px" y="26px" /><rect fill="rgb(130,255,255)" height="3px" width="3px" x="10px" y="26px" /><rect fill="rgb(130,255,255)" height="3px" width="3px" x="12px" y="26px" /><rect fill="rgb(142,142,142)" height="3px" width="3px" x="14px" y="26px" /><rect fill="rgb(190,190,190)" height="3px" width="3px" x="16px" y="26px" /><rect fill="rgb(160,160,160)" height="3px" width="3px" x="18px" y="26px" /><rect fill="rgb(130,255,255)" height="3px" width="3px" x="20px" y="26px" /><rect fill="rgb(130,255,255)" height="3px" width="3px" x="22px" y="26px" /><rect fill="rgb(130,255,255)" height="3px" width="3px" x="24px" y="26px" /><rect fill="rgb(130,255,255)" height="3px" width="3px" x="26px" y="26px" /><rect fill="rgb(173,173,173)" height="3px" width="3px" x="28px" y="26px" /><rect fill="rgb(160,160,160)" height="3px" width="3px" x="30px" y="26px" /><rect fill="rgb(190,190,190)" height="3px" width="3px" x="32px" y="26px" /><rect fill="rgb(130,255,255)" height="3px" width="3px" x="34px" y="26px" /><rect fill="rgb(130,255,255)" height="3px" width="3px" x="36px" y="26px" /><rect fill="rgb(130,255,255)" height="3px" width="3px" x="38px" y="26px" /><rect fill="rgb(130,255,255)" height="3px" width="3px" x="40px" y="26px" /><rect fill="rgb(142,142,142)" height="3px" width="3px" x="42px" y="26px" /><rect fill="rgb(190,190,190)" height="3px" width="3px" x="44px" y="26px" /><rect fill="rgb(160,160,160)" height="3px" width="3px" x="46px" y="26px" /><rect fill="rgb(130,255,255)" height="3px" width="3px" x="48px" y="26px" /><rect fill="rgb(130,255,255)" height="3px" width="3px" x="50px" y="26px" /><rect fill="rgb(130,255,255)" height="3px" width="3px" x="52px" y="26px" /><rect fill="rgb(130,255,255)" height="3px" width="3px" x="54px" y="26px" /><rect fill="rgb(173,173,173)" height="3px" width="3px" x="56px" y="26px" /><rect fill="rgb(160,160,160)" height="3px" width="3px" x="2px" y="28px" /><rect fill="rgb(190,190,190)" height="3px" width="3px" x="4px" y="28px" /><rect fill="rgb(130,255,255)" height="3px" width="3px" x="6px" y="28px" /><rect fill="rgb(130,255,255)" height="3px" width="3px" x="8px" y="28px" /><rect fill="rgb(130,255,255)" height="3px" width="3px" x="10px" y="28px" /><rect fill="rgb(130,255,255)" height="3px" width="3px" x="12px" y="28px" /><rect fill="rgb(142,142,142)" height="3px" width="3px" x="14px" y="28px" /><rect fill="rgb(190,190,190)" height="3px" width="3px" x="16px" y="28px" /><rect fill="rgb(160,160,160)" height="3px" width="3px" x="18px" y="28px" /><rect fill="rgb(130,255,255)" height="3px" width="3px" x="20px" y="28px" /><rect fill="rgb(130,255,255)" height="3px" width="3px" x="22px" y="28px" /><rect fill="rgb(130,255,255)" height="3px" width="3px" x="24px" y="28px" /><rect fill="rgb(130,255,255)" height="3px" width="3px" x="26px" y="28px" /><rect fill="rgb(173,173,173)" height="3px" width="3px" x="28px" y="28px" /><rect fill="rgb(160,160,160)" height="3px" width="3px" x="30px" y="28px" /><rect fill="rgb(190,190,190)" height="3px" width="3px" x="32px" y="28px" /><rect fill="rgb(130,255,255)" height="3px" width="3px" x="34px" y="28px" /><rect fill="rgb(130,255,255)" height="3px" width="3px" x="36px" y="28px" /><rect fill="rgb(130,255,255)" height="3px" width="3px" x="38px" y="28px" /><rect fill="rgb(130,255,255)" height="3px" width="3px" x="40px" y="28px" /><rect fill="rgb(142,142,142)" height="3px" width="3px" x="42px" y="28px" /><rect fill="rgb(190,190,190)" height="3px" width="3px" x="44px" y="28px" /><rect fill="rgb(160,160,160)" height="3px" width="3px" x="46px" y="28px" /><rect fill="rgb(130,255,255)" height="3px" width="3px" x="48px" y="28px" /><rect fill="rgb(130,255,255)" height="3px" width="3px" x="50px" y="28px" /><rect fill="rgb(130,255,255)" height="3px" width="3px" x="52px" y="28px" /><rect fill="rgb(130,255,255)" height="3px" width="3px" x="54px" y="28px" /><rect fill="rgb(173,173,173)" height="3px" width="3px" x="56px" y="28px" /><rect fill="rgb(160,160,160)" height="3px" width="3px" x="2px" y="30px" /><rect fill="rgb(190,190,190)" height="3px" width="3px" x="4px" y="30px" /><rect fill="rgb(130,255,255)" height="3px" width="3px" x="6px" y="30px" /><rect fill="rgb(130,255,255)" height="3px" width="3px" x="8px" y="30px" /><rect fill="rgb(130,255,255)" height="3px" width="3px" x="10px" y="30px" /><rect fill="rgb(130,255,255)" height="3px" width="3px" x="12px" y="30px" /><rect fill="rgb(142,142,142)" height="3px" width="3px" x="14px" y="30px" /><rect fill="rgb(190,190,190)" height="3px" width="3px" x="16px" y="30px" /><rect fill="rgb(160,160,160)" height="3px" width="3px" x="18px" y="30px" /><rect fill="rgb(130,255,255)" height="3px" width="3px" x="20px" y="30px" /><rect fill="rgb(130,255,255)" height="3px" width="3px" x="22px" y="30px" /><rect fill="rgb(130,255,255)" height="3px" width="3px" x="24px" y="30px" /><rect fill="rgb(130,255,255)" height="3px" width="3px" x="26px" y="30px" /><rect fill="rgb(173,173,173)" height="3px" width="3px" x="28px" y="30px" /><rect fill="rgb(160,160,160)" height="3px" width="3px" x="30px" y="30px" /><rect fill="rgb(190,190,190)" height="3px" width="3px" x="32px" y="30px" /><rect fill="rgb(130,255,255)" height="3px" width="3px" x="34px" y="30px" /><rect fill="rgb(130,255,255)" height="3px" width="3px" x="36px" y="30px" /><rect fill="rgb(130,255,255)" height="3px" width="3px" x="38px" y="30px" /><rect fill="rgb(130,255,255)" height="3px" width="3px" x="40px" y="30px" /><rect fill="rgb(142,142,142)" height="3px" width="3px" x="42px" y="30px" /><rect fill="rgb(190,190,190)" height="3px" width="3px" x="44px" y="30px" /><rect fill="rgb(160,160,160)" height="3px" width="3px" x="46px" y="30px" /><rect fill="rgb(130,255,255)" height="3px" width="3px" x="48px" y="30px" /><rect fill="rgb(130,255,255)" height="3px" width="3px" x="50px" y="30px" /><rect fill="rgb(130,255,255)" height="3px" width="3px" x="52px" y="30px" /><rect fill="rgb(130,255,255)" height="3px" width="3px" x="54px" y="30px" /><rect fill="rgb(173,173,173)" height="3px" width="3px" x="56px" y="30px" /><rect fill="rgb(160,160,160)" height="3px" width="3px" x="2px" y="32px" /><rect fill="rgb(190,190,190)" height="3px" width="3px" x="4px" y="32px" /><rect fill="rgb(142,142,142)" height="3px" width="3px" x="6px" y="32px" /><rect fill="rgb(173,173,173)" height="3px" width="3px" x="8px" y="32px" /><rect fill="rgb(142,142,142)" height="3px" width="3px" x="10px" y="32px" /><rect fill="rgb(173,173,173)" height="3px" width="3px" x="12px" y="32px" /><rect fill="rgb(142,142,142)" height="3px" width="3px" x="14px" y="32px" /><rect fill="rgb(190,190,190)" height="3px" width="3px" x="16px" y="32px" /><rect fill="rgb(160,160,160)" height="3px" width="3px" x="18px" y="32px" /><rect fill="rgb(173,173,173)" height="3px" width="3px" x="20px" y="32px" /><rect fill="rgb(142,142,142)" height="3px" width="3px" x="22px" y="32px" /><rect fill="rgb(173,173,173)" height="3px" width="3px" x="24px" y="32px" /><rect fill="rgb(142,142,142)" height="3px" width="3px" x="26px" y="32px" /><rect fill="rgb(173,173,173)" height="3px" width="3px" x="28px" y="32px" /><rect fill="rgb(160,160,160)" height="3px" width="3px" x="30px" y="32px" /><rect fill="rgb(190,190,190)" height="3px" width="3px" x="32px" y="32px" /><rect fill="rgb(142,142,142)" height="3px" width="3px" x="34px" y="32px" /><rect fill="rgb(173,173,173)" height="3px" width="3px" x="36px" y="32px" /><rect fill="rgb(142,142,142)" height="3px" width="3px" x="38px" y="32px" /><rect fill="rgb(173,173,173)" height="3px" width="3px" x="40px" y="32px" /><rect fill="rgb(142,142,142)" height="3px" width="3px" x="42px" y="32px" /><rect fill="rgb(190,190,190)" height="3px" width="3px" x="44px" y="32px" /><rect fill="rgb(160,160,160)" height="3px" width="3px" x="46px" y="32px" /><rect fill="rgb(173,173,173)" height="3px" width="3px" x="48px" y="32px" /><rect fill="rgb(142,142,142)" height="3px" width="3px" x="50px" y="32px" /><rect fill="rgb(173,173,173)" height="3px" width="3px" x="52px" y="32px" /><rect fill="rgb(142,142,142)" height="3px" width="3px" x="54px" y="32px" /><rect fill="rgb(173,173,173)" height="3px" width="3px" x="56px" y="32px" /><rect fill="rgb(160,160,160)" height="3px" width="3px" x="2px" y="34px" /><rect fill="rgb(190,190,190)" height="3px" width="3px" x="4px" y="34px" /><rect fill="rgb(130,255,255)" height="3px" width="3px" x="6px" y="34px" /><rect fill="rgb(130,255,255)" height="3px" width="3px" x="8px" y="34px" /><rect fill="rgb(130,255,255)" height="3px" width="3px" x="10px" y="34px" /><rect fill="rgb(130,255,255)" height="3px" width="3px" x="12px" y="34px" /><rect fill="rgb(142,142,142)" height="3px" width="3px" x="14px" y="34px" /><rect fill="rgb(190,190,190)" height="3px" width="3px" x="16px" y="34px" /><rect fill="rgb(160,160,160)" height="3px" width="3px" x="18px" y="34px" /><rect fill="rgb(130,255,255)" height="3px" width="3px" x="20px" y="34px" /><rect fill="rgb(130,255,255)" height="3px" width="3px" x="22px" y="34px" /><rect fill="rgb(130,255,255)" height="3px" width="3px" x="24px" y="34px" /><rect fill="rgb(130,255,255)" height="3px" width="3px" x="26px" y="34px" /><rect fill="rgb(173,173,173)" height="3px" width="3px" x="28px" y="34px" /><rect fill="rgb(160,160,160)" height="3px" width="3px" x="30px" y="34px" /><rect fill="rgb(190,190,190)" height="3px" width="3px" x="32px" y="34px" /><rect fill="rgb(130,255,255)" height="3px" width="3px" x="34px" y="34px" /><rect fill="rgb(130,255,255)" height="3px" width="3px" x="36px" y="34px" /><rect fill="rgb(130,255,255)" height="3px" width="3px" x="38px" y="34px" /><rect fill="rgb(130,255,255)" height="3px" width="3px" x="40px" y="34px" /><rect fill="rgb(142,142,142)" height="3px" width="3px" x="42px" y="34px" /><rect fill="rgb(190,190,190)" height="3px" width="3px" x="44px" y="34px" /><rect fill="rgb(160,160,160)" height="3px" width="3px" x="46px" y="34px" /><rect fill="rgb(130,255,255)" height="3px" width="3px" x="48px" y="34px" /><rect fill="rgb(130,255,255)" height="3px" width="3px" x="50px" y="34px" /><rect fill="rgb(130,255,255)" height="3px" width="3px" x="52px" y="34px" /><rect fill="rgb(130,255,255)" height="3px" width="3px" x="54px" y="34px" /><rect fill="rgb(173,173,173)" height="3px" width="3px" x="56px" y="34px" /><rect fill="rgb(160,160,160)" height="3px" width="3px" x="2px" y="36px" /><rect fill="rgb(190,190,190)" height="3px" width="3px" x="4px" y="36px" /><rect fill="rgb(130,255,255)" height="3px" width="3px" x="6px" y="36px" /><rect fill="rgb(130,255,255)" height="3px" width="3px" x="8px" y="36px" /><rect fill="rgb(130,255,255)" height="3px" width="3px" x="10px" y="36px" /><rect fill="rgb(130,255,255)" height="3px" width="3px" x="12px" y="36px" /><rect fill="rgb(142,142,142)" height="3px" width="3px" x="14px" y="36px" /><rect fill="rgb(190,190,190)" height="3px" width="3px" x="16px" y="36px" /><rect fill="rgb(160,160,160)" height="3px" width="3px" x="18px" y="36px" /><rect fill="rgb(130,255,255)" height="3px" width="3px" x="20px" y="36px" /><rect fill="rgb(130,255,255)" height="3px" width="3px" x="22px" y="36px" /><rect fill="rgb(130,255,255)" height="3px" width="3px" x="24px" y="36px" /><rect fill="rgb(130,255,255)" height="3px" width="3px" x="26px" y="36px" /><rect fill="rgb(173,173,173)" height="3px" width="3px" x="28px" y="36px" /><rect fill="rgb(160,160,160)" height="3px" width="3px" x="30px" y="36px" /><rect fill="rgb(190,190,190)" height="3px" width="3px" x="32px" y="36px" /><rect fill="rgb(130,255,255)" height="3px" width="3px" x="34px" y="36px" /><rect fill="rgb(130,255,255)" height="3px" width="3px" x="36px" y="36px" /><rect fill="rgb(130,255,255)" height="3px" width="3px" x="38px" y="36px" /><rect fill="rgb(130,255,255)" height="3px" width="3px" x="40px" y="36px" /><rect fill="rgb(142,142,142)" height="3px" width="3px" x="42px" y="36px" /><rect fill="rgb(190,190,190)" height="3px" width="3px" x="44px" y="36px" /><rect fill="rgb(160,160,160)" height="3px" width="3px" x="46px" y="36px" /><rect fill="rgb(130,255,255)" height="3px" width="3px" x="48px" y="36px" /><rect fill="rgb(130,255,255)" height="3px" width="3px" x="50px" y="36px" /><rect fill="rgb(130,255,255)" height="3px" width="3px" x="52px" y="36px" /><rect fill="rgb(130,255,255)" height="3px" width="3px" x="54px" y="36px" /><rect fill="rgb(173,173,173)" height="3px" width="3px" x="56px" y="36px" /><rect fill="rgb(160,160,160)" height="3px" width="3px" x="2px" y="38px" /><rect fill="rgb(190,190,190)" height="3px" width="3px" x="4px" y="38px" /><rect fill="rgb(130,255,255)" height="3px" width="3px" x="6px" y="38px" /><rect fill="rgb(130,255,255)" height="3px" width="3px" x="8px" y="38px" /><rect fill="rgb(130,255,255)" height="3px" width="3px" x="10px" y="38px" /><rect fill="rgb(130,255,255)" height="3px" width="3px" x="12px" y="38px" /><rect fill="rgb(142,142,142)" height="3px" width="3px" x="14px" y="38px" /><rect fill="rgb(190,190,190)" height="3px" width="3px" x="16px" y="38px" /><rect fill="rgb(160,160,160)" height="3px" width="3px" x="18px" y="38px" /><rect fill="rgb(130,255,255)" height="3px" width="3px" x="20px" y="38px" /><rect fill="rgb(130,255,255)" height="3px" width="3px" x="22px" y="38px" /><rect fill="rgb(130,255,255)" height="3px" width="3px" x="24px" y="38px" /><rect fill="rgb(130,255,255)" height="3px" width="3px" x="26px" y="38px" /><rect fill="rgb(173,173,173)" height="3px" width="3px" x="28px" y="38px" /><rect fill="rgb(160,160,160)" height="3px" width="3px" x="30px" y="38px" /><rect fill="rgb(190,190,190)" height="3px" width="3px" x="32px" y="38px" /><rect fill="rgb(130,255,255)" height="3px" width="3px" x="34px" y="38px" /><rect fill="rgb(130,255,255)" height="3px" width="3px" x="36px" y="38px" /><rect fill="rgb(130,255,255)" height="3px" width="3px" x="38px" y="38px" /><rect fill="rgb(130,255,255)" height="3px" width="3px" x="40px" y="38px" /><rect fill="rgb(142,142,142)" height="3px" width="3px" x="42px" y="38px" /><rect fill="rgb(190,190,190)" height="3px" width="3px" x="44px" y="38px" /><rect fill="rgb(160,160,160)" height="3px" width="3px" x="46px" y="38px" /><rect fill="rgb(130,255,255)" height="3px" width="3px" x="48px" y="38px" /><rect fill="rgb(130,255,255)" height="3px" width="3px" x="50px" y="38px" /><rect fill="rgb(130,255,255)" height="3px" width="3px" x="52px" y="38px" /><rect fill="rgb(130,255,255)" height="3px" width="3px" x="54px" y="38px" /><rect fill="rgb(173,173,173)" height="3px" width="3px" x="56px" y="38px" /><rect fill="rgb(160,160,160)" height="3px" width="3px" x="2px" y="40px" /><rect fill="rgb(190,190,190)" height="3px" width="3px" x="4px" y="40px" /><rect fill="rgb(160,160,160)" height="3px" width="3px" x="6px" y="40px" /><rect fill="rgb(190,190,190)" height="3px" width="3px" x="8px" y="40px" /><rect fill="rgb(160,160,160)" height="3px" width="3px" x="10px" y="40px" /><rect fill="rgb(190,190,190)" height="3px" width="3px" x="12px" y="40px" /><rect fill="rgb(160,160,160)" height="3px" width="3px" x="14px" y="40px" /><rect fill="rgb(190,190,190)" height="3px" width="3px" x="16px" y="40px" /><rect fill="rgb(160,160,160)" height="3px" width="3px" x="18px" y="40px" /><rect fill="rgb(190,190,190)" height="3px" width="3px" x="20px" y="40px" /><rect fill="rgb(160,160,160)" height="3px" width="3px" x="22px" y="40px" /><rect fill="rgb(190,190,190)" height="3px" width="3px" x="24px" y="40px" /><rect fill="rgb(160,160,160)" height="3px" width="3px" x="26px" y="40px" /><rect fill="rgb(190,190,190)" height="3px" width="3px" x="28px" y="40px" /><rect fill="rgb(160,160,160)" height="3px" width="3px" x="30px" y="40px" /><rect fill="rgb(190,190,190)" height="3px" width="3px" x="32px" y="40px" /><rect fill="rgb(160,160,160)" height="3px" width="3px" x="34px" y="40px" /><rect fill="rgb(190,190,190)" height="3px" width="3px" x="36px" y="40px" /><rect fill="rgb(160,160,160)" height="3px" width="3px" x="38px" y="40px" /><rect fill="rgb(190,190,190)" height="3px" width="3px" x="40px" y="40px" /><rect fill="rgb(160,160,160)" height="3px" width="3px" x="42px" y="40px" /><rect fill="rgb(190,190,190)" height="3px" width="3px" x="44px" y="40px" /><rect fill="rgb(160,160,160)" height="3px" width="3px" x="46px" y="40px" /><rect fill="rgb(190,190,190)" height="3px" width="3px" x="48px" y="40px" /><rect fill="rgb(160,160,160)" height="3px" width="3px" x="50px" y="40px" /><rect fill="rgb(190,190,190)" height="3px" width="3px" x="52px" y="40px" /><rect fill="rgb(160,160,160)" height="3px" width="3px" x="54px" y="40px" /><rect fill="rgb(190,190,190)" height="3px" width="3px" x="56px" y="40px" /><rect fill="rgb(160,160,160)" height="3px" width="3px" x="2px" y="42px" /><rect fill="rgb(190,190,190)" height="3px" width="3px" x="4px" y="42px" /><rect fill="rgb(130,255,255)" height="3px" width="3px" x="6px" y="42px" /><rect fill="rgb(130,255,255)" height="3px" width="3px" x="8px" y="42px" /><rect fill="rgb(130,255,255)" height="3px" width="3px" x="10px" y="42px" /><rect fill="rgb(130,255,255)" height="3px" width="3px" x="12px" y="42px" /><rect fill="rgb(142,142,142)" height="3px" width="3px" x="14px" y="42px" /><rect fill="rgb(190,190,190)" height="3px" width="3px" x="16px" y="42px" /><rect fill="rgb(160,160,160)" height="3px" width="3px" x="18px" y="42px" /><rect fill="rgb(130,255,255)" height="3px" width="3px" x="20px" y="42px" /><rect fill="rgb(130,255,255)" height="3px" width="3px" x="22px" y="42px" /><rect fill="rgb(130,255,255)" height="3px" width="3px" x="24px" y="42px" /><rect fill="rgb(130,255,255)" height="3px" width="3px" x="26px" y="42px" /><rect fill="rgb(173,173,173)" height="3px" width="3px" x="28px" y="42px" /><rect fill="rgb(160,160,160)" height="3px" width="3px" x="30px" y="42px" /><rect fill="rgb(190,190,190)" height="3px" width="3px" x="32px" y="42px" /><rect fill="rgb(130,255,255)" height="3px" width="3px" x="34px" y="42px" /><rect fill="rgb(130,255,255)" height="3px" width="3px" x="36px" y="42px" /><rect fill="rgb(130,255,255)" height="3px" width="3px" x="38px" y="42px" /><rect fill="rgb(130,255,255)" height="3px" width="3px" x="40px" y="42px" /><rect fill="rgb(142,142,142)" height="3px" width="3px" x="42px" y="42px" /><rect fill="rgb(190,190,190)" height="3px" width="3px" x="44px" y="42px" /><rect fill="rgb(160,160,160)" height="3px" width="3px" x="46px" y="42px" /><rect fill="rgb(130,255,255)" height="3px" width="3px" x="48px" y="42px" /><rect fill="rgb(130,255,255)" height="3px" width="3px" x="50px" y="42px" /><rect fill="rgb(130,255,255)" height="3px" width="3px" x="52px" y="42px" /><rect fill="rgb(130,255,255)" height="3px" width="3px" x="54px" y="42px" /><rect fill="rgb(173,173,173)" height="3px" width="3px" x="56px" y="42px" /><rect fill="rgb(160,160,160)" height="3px" width="3px" x="2px" y="44px" /><rect fill="rgb(190,190,190)" height="3px" width="3px" x="4px" y="44px" /><rect fill="rgb(130,255,255)" height="3px" width="3px" x="6px" y="44px" /><rect fill="rgb(130,255,255)" height="3px" width="3px" x="8px" y="44px" /><rect fill="rgb(130,255,255)" height="3px" width="3px" x="10px" y="44px" /><rect fill="rgb(130,255,255)" height="3px" width="3px" x="12px" y="44px" /><rect fill="rgb(142,142,142)" height="3px" width="3px" x="14px" y="44px" /><rect fill="rgb(190,190,190)" height="3px" width="3px" x="16px" y="44px" /><rect fill="rgb(160,160,160)" height="3px" width="3px" x="18px" y="44px" /><rect fill="rgb(130,255,255)" height="3px" width="3px" x="20px" y="44px" /><rect fill="rgb(130,255,255)" height="3px" width="3px" x="22px" y="44px" /><rect fill="rgb(130,255,255)" height="3px" width="3px" x="24px" y="44px" /><rect fill="rgb(130,255,255)" height="3px" width="3px" x="26px" y="44px" /><rect fill="rgb(173,173,173)" height="3px" width="3px" x="28px" y="44px" /><rect fill="rgb(160,160,160)" height="3px" width="3px" x="30px" y="44px" /><rect fill="rgb(190,190,190)" height="3px" width="3px" x="32px" y="44px" /><rect fill="rgb(130,255,255)" height="3px" width="3px" x="34px" y="44px" /><rect fill="rgb(130,255,255)" height="3px" width="3px" x="36px" y="44px" /><rect fill="rgb(130,255,255)" height="3px" width="3px" x="38px" y="44px" /><rect fill="rgb(130,255,255)" height="3px" width="3px" x="40px" y="44px" /><rect fill="rgb(142,142,142)" height="3px" width="3px" x="42px" y="44px" /><rect fill="rgb(190,190,190)" height="3px" width="3px" x="44px" y="44px" /><rect fill="rgb(160,160,160)" height="3px" width="3px" x="46px" y="44px" /><rect fill="rgb(130,255,255)" height="3px" width="3px" x="48px" y="44px" /><rect fill="rgb(130,255,255)" height="3px" width="3px" x="50px" y="44px" /><rect fill="rgb(130,255,255)" height="3px" width="3px" x="52px" y="44px" /><rect fill="rgb(130,255,255)" height="3px" width="3px" x="54px" y="44px" /><rect fill="rgb(173,173,173)" height="3px" width="3px" x="56px" y="44px" /><rect fill="rgb(160,160,160)" height="3px" width="3px" x="2px" y="46px" /><rect fill="rgb(190,190,190)" height="3px" width="3px" x="4px" y="46px" /><rect fill="rgb(130,255,255)" height="3px" width="3px" x="6px" y="46px" /><rect fill="rgb(130,255,255)" height="3px" width="3px" x="8px" y="46px" /><rect fill="rgb(130,255,255)" height="3px" width="3px" x="10px" y="46px" /><rect fill="rgb(130,255,255)" height="3px" width="3px" x="12px" y="46px" /><rect fill="rgb(142,142,142)" height="3px" width="3px" x="14px" y="46px" /><rect fill="rgb(190,190,190)" height="3px" width="3px" x="16px" y="46px" /><rect fill="rgb(160,160,160)" height="3px" width="3px" x="18px" y="46px" /><rect fill="rgb(130,255,255)" height="3px" width="3px" x="20px" y="46px" /><rect fill="rgb(130,255,255)" height="3px" width="3px" x="22px" y="46px" /><rect fill="rgb(130,255,255)" height="3px" width="3px" x="24px" y="46px" /><rect fill="rgb(130,255,255)" height="3px" width="3px" x="26px" y="46px" /><rect fill="rgb(173,173,173)" height="3px" width="3px" x="28px" y="46px" /><rect fill="rgb(160,160,160)" height="3px" width="3px" x="30px" y="46px" /><rect fill="rgb(190,190,190)" height="3px" width="3px" x="32px" y="46px" /><rect fill="rgb(130,255,255)" height="3px" width="3px" x="34px" y="46px" /><rect fill="rgb(130,255,255)" height="3px" width="3px" x="36px" y="46px" /><rect fill="rgb(130,255,255)" height="3px" width="3px" x="38px" y="46px" /><rect fill="rgb(130,255,255)" height="3px" width="3px" x="40px" y="46px" /><rect fill="rgb(142,142,142)" height="3px" width="3px" x="42px" y="46px" /><rect fill="rgb(190,190,190)" height="3px" width="3px" x="44px" y="46px" /><rect fill="rgb(160,160,160)" height="3px" width="3px" x="46px" y="46px" /><rect fill="rgb(130,255,255)" height="3px" width="3px" x="48px" y="46px" /><rect fill="rgb(130,255,255)" height="3px" width="3px" x="50px" y="46px" /><rect fill="rgb(130,255,255)" height="3px" width="3px" x="52px" y="46px" /><rect fill="rgb(130,255,255)" height="3px" width="3px" x="54px" y="46px" /><rect fill="rgb(173,173,173)" height="3px" width="3px" x="56px" y="46px" /><rect fill="rgb(160,160,160)" height="3px" width="3px" x="2px" y="48px" /><rect fill="rgb(190,190,190)" height="3px" width="3px" x="4px" y="48px" /><rect fill="rgb(142,142,142)" height="3px" width="3px" x="6px" y="48px" /><rect fill="rgb(173,173,173)" height="3px" width="3px" x="8px" y="48px" /><rect fill="rgb(142,142,142)" height="3px" width="3px" x="10px" y="48px" /><rect fill="rgb(173,173,173)" height="3px" width="3px" x="12px" y="48px" /><rect fill="rgb(142,142,142)" height="3px" width="3px" x="14px" y="48px" /><rect fill="rgb(190,190,190)" height="3px" width="3px" x="16px" y="48px" /><rect fill="rgb(160,160,160)" height="3px" width="3px" x="18px" y="48px" /><rect fill="rgb(173,173,173)" height="3px" width="3px" x="20px" y="48px" /><rect fill="rgb(142,142,142)" height="3px" width="3px" x="22px" y="48px" /><rect fill="rgb(173,173,173)" height="3px" width="3px" x="24px" y="48px" /><rect fill="rgb(142,142,142)" height="3px" width="3px" x="26px" y="48px" /><rect fill="rgb(173,173,173)" height="3px" width="3px" x="28px" y="48px" /><rect fill="rgb(160,160,160)" height="3px" width="3px" x="30px" y="48px" /><rect fill="rgb(190,190,190)" height="3px" width="3px" x="32px" y="48px" /><rect fill="rgb(142,142,142)" height="3px" width="3px" x="34px" y="48px" /><rect fill="rgb(173,173,173)" height="3px" width="3px" x="36px" y="48px" /><rect fill="rgb(142,142,142)" height="3px" width="3px" x="38px" y="48px" /><rect fill="rgb(173,173,173)" height="3px" width="3px" x="40px" y="48px" /><rect fill="rgb(142,142,142)" height="3px" width="3px" x="42px" y="48px" /><rect fill="rgb(190,190,190)" height="3px" width="3px" x="44px" y="48px" /><rect fill="rgb(160,160,160)" height="3px" width="3px" x="46px" y="48px" /><rect fill="rgb(173,173,173)" height="3px" width="3px" x="48px" y="48px" /><rect fill="rgb(142,142,142)" height="3px" width="3px" x="50px" y="48px" /><rect fill="rgb(173,173,173)" height="3px" width="3px" x="52px" y="48px" /><rect fill="rgb(142,142,142)" height="3px" width="3px" x="54px" y="48px" /><rect fill="rgb(173,173,173)" height="3px" width="3px" x="56px" y="48px" /></svg>