<?xml version="1.0" encoding="utf-8" ?>
<svg baseProfile="full" height="64px" version="1.1" width="64px" xmlns="http://www.w3.org/2000/svg" xmlns:ev="http://www.w3.org/2001/xml-events" xmlns:xlink="http://www.w3.org/1999/xlink"><defs /><rect fill="rgb(255,255,255)" height="3px" width="3px" x="44px" y="18px" /><rect fill="rgb(55,55,55)" height="3px" width="3px" x="46px" y="18px" /><rect fill="rgb(55,55,55)" height="3px" width="3px" x="48px" y="18px" /><rect fill="rgb(55,55,55)" height="3px" width="3px" x="50px" y="18px" /><rect fill="rgb(55,55,55)" height="3px" width="3px" x="52px" y="18px" /><rect fill="rgb(55,55,55)" height="3px" width="3px" x="54px" y="18px" /><rect fill="rgb(55,55,55)" height="3px" width="3px" x="56px" y="18px" /><rect fill="rgb(55,55,55)" height="3px" width="3px" x="58px" y="18px" /><rect fill="rgb(55,55,55)" height="3px" opacity="0.392156862745" width="3px" x="2px" y="20px" /><rect fill="rgb(55,55,55)" height="3px" width="3px" x="4px" y="20px" /><rect fill="rgb(55,55,55)" height="3px" width="3px" x="6px" y="20px" /><rect fill="rgb(255,255,255)" height="3px" width="3px" x="8px" y="20px" /><rect fill="rgb(255,255,255)" height="3px" width="3px" x="42px" y="20px" /><rect fill="rgb(55,55,55)" height="3px" width="3px" x="46px" y="20px" /><rect fill="rgb(55,55,55)" height="3px" width="3px" x="58px" y="20px" /><rect fill="rgb(55,55,55)" height="3px" width="3px" x="60px" y="20px" /><rect fill="rgb(55,55,55)" height="3px" width="3px" x="2px" y="22px" /><rect fill="rgb(55,55,55)" height="3px" opacity="0.0470588235294" width="3px" x="4px" y="22px" /><rect fill="rgb(55,55,55)" height="3px" width="3px" x="6px" y="22px" /><rect fill="rgb(255,255,255)" height="3px" width="3px" x="10px" y="22px" /><rect fill="rgb(255,255,255)" height="3px" width="3px" x="40px" y="22px" /><rect fill="rgb(55,55,55)" height="3px" width="3px" x="46px" y="22px" /><rect fill="rgb(55,55,55)" height="3px" opacity="0.419607843137" width="3px" x="58px" y="22px" /><rect fill="rgb(55,55,55)" height="3px" width="3px" x="60px" y="22px" /><rect fill="rgb(55,55,55)" height="3px" width="3px" x="0px" y="24px" /><rect fill="rgb(55,55,55)" height="3px" width="3px" x="6px" y="24px" /><rect fill="rgb(255,255,255)" height="3px" width="3px" x="12px" y="24px" /><rect fill="rgb(255,255,255)" height="3px" width="3px" x="38px" y="24px" /><rect fill="rgb(55,55,55)" height="3px" width="3px" x="46px" y="24px" /><rect fill="rgb(55,55,55)" height="3px" width="3px" x="60px" y="24px" /><rect fill="rgb(55,55,55)" height="3px" opacity="0.196078431373" width="3px" x="62px" y="24px" /><rect fill="rgb(55,55,55)" height="3px" width="3px" x="6px" y="26px" /><rect fill="rgb(255,255,255)" height="3px" width="3px" x="14px" y="26px" /><rect fill="rgb(255,255,255)" height="3px" width="3px" x="36px" y="26px" /><rect fill="rgb(55,55,55)" height="3px" width="3px" x="46px" y="26px" /><rect fill="rgb(55,55,55)" height="3px" width="3px" x="60px" y="26px" /><rect fill="rgb(55,55,55)" height="3px" opacity="0.196078431373" width="3px" x="62px" y="26px" /><rect fill="rgb(55,55,55)" height="3px" width="3px" x="6px" y="28px" /><rect fill="rgb(255,255,255)" height="3px" width="3px" x="16px" y="28px" /><rect fill="rgb(255,255,255)" height="3px" width="3px" x="34px" y="28px" /><rect fill="rgb(55,55,55)" height="3px" width="3px" x="46px" y="28px" /><rect fill="rgb(55,55,55)" height="3px" width="3px" x="6px" y="30px" /><rect fill="rgb(255,255,255)" height="3px" width="3px" x="18px" y="30px" /><rect fill="rgb(255,255,255)" height="3px" width="3px" x="32px" y="30px" /><rect fill="rgb(55,55,55)" height="3px" width="3px" x="46px" y="30px" /><rect fill="rgb(55,55,55)" height="3px" width="3px" x="6px" y="32px" /><rect fill="rgb(55,55,55)" height="3px" opacity="0.945098039216" width="3px" x="18px" y="32px" /><rect fill="rgb(55,55,55)" height="3px" opacity="0.992156862745" width="3px" x="20px" y="32px" /><rect fill="rgb(55,55,55)" height="3px" opacity="0.964705882353" width="3px" x="22px" y="32px" /><rect fill="rgb(55,55,55)" height="3px" opacity="0.964705882353" width="3px" x="24px" y="32px" /><rect fill="rgb(55,55,55)" height="3px" width="3px" x="26px" y="32px" /><rect fill="rgb(55,55,55)" height="3px" width="3px" x="28px" y="32px" /><rect fill="rgb(255,255,255)" height="3px" width="3px" x="30px" y="32px" /><rect fill="rgb(55,55,55)" height="3px" width="3px" x="46px" y="32px" /><rect fill="rgb(55,55,55)" height="3px" width="3px" x="6px" y="34px" /><rect fill="rgb(55,55,55)" height="3px" width="3px" x="16px" y="34px" /><rect fill="rgb(55,55,55)" height="3px" width="3px" x="18px" y="34px" /><rect fill="rgb(55,55,55)" height="3px" width="3px" x="20px" y="34px" /><rect fill="rgb(55,55,55)" height="3px" width="3px" x="22px" y="34px" /><rect fill="rgb(55,55,55)" height="3px" width="3px" x="24px" y="34px" /><rect fill="rgb(55,55,55)" height="3px" width="3px" x="26px" y="34px" /><rect fill="rgb(55,55,55)" height="3px" opacity="0.960784313725" width="3px" x="28px" y="34px" /><rect fill="rgb(55,55,55)" height="3px" width="3px" x="46px" y="34px" /><rect fill="rgb(55,55,55)" height="3px" width="3px" x="6px" y="36px" /><rect fill="rgb(241,241,241)" height="3px" opacity="0.996078431373" width="3px" x="16px" y="36px" /><rect fill="rgb(255,255,255)" height="3px" width="3px" x="18px" y="36px" /><rect fill="rgb(255,255,255)" height="3px" width="3px" x="20px" y="36px" /><rect fill="rgb(255,255,255)" height="3px" width="3px" x="22px" y="36px" /><rect fill="rgb(242,242,242)" height="3px" width="3px" x="24px" y="36px" /><rect fill="rgb(55,55,55)" height="3px" width="3px" x="26px" y="36px" /><rect fill="rgb(55,55,55)" height="3px" opacity="0.964705882353" width="3px" x="28px" y="36px" /><rect fill="rgb(55,55,55)" height="3px" width="3px" x="46px" y="36px" /><rect fill="rgb(55,55,55)" height="3px" width="3px" x="6px" y="38px" /><rect fill="rgb(55,55,55)" height="3px" width="3px" x="14px" y="38px" /><rect fill="rgb(255,255,255)" height="3px" width="3px" x="16px" y="38px" /><rect fill="rgb(255,255,255)" height="3px" width="3px" x="18px" y="38px" /><rect fill="rgb(248,248,248)" height="3px" width="3px" x="20px" y="38px" /><rect fill="rgb(255,255,255)" height="3px" width="3px" x="22px" y="38px" /><rect fill="rgb(255,255,255)" height="3px" width="3px" x="24px" y="38px" /><rect fill="rgb(55,55,55)" height="3px" width="3px" x="26px" y="38px" /><rect fill="rgb(55,55,55)" height="3px" opacity="0.96862745098" width="3px" x="28px" y="38px" /><rect fill="rgb(55,55,55)" height="3px" width="3px" x="46px" y="38px" /><rect fill="rgb(55,55,55)" height="3px" opacity="0.972549019608" width="3px" x="0px" y="40px" /><rect fill="rgb(55,55,55)" height="3px" width="3px" x="2px" y="40px" /><rect fill="rgb(55,55,55)" height="3px" width="3px" x="4px" y="40px" /><rect fill="rgb(55,55,55)" height="3px" width="3px" x="6px" y="40px" /><rect fill="rgb(55,55,55)" height="3px" width="3px" x="8px" y="40px" /><rect fill="rgb(55,55,55)" height="3px" opacity="0.98431372549" width="3px" x="10px" y="40px" /><rect fill="rgb(55,55,55)" height="3px" opacity="0.98431372549" width="3px" x="12px" y="40px" /><rect fill="rgb(55,55,55)" height="3px" width="3px" x="14px" y="40px" /><rect fill="rgb(55,55,55)" height="3px" width="3px" x="16px" y="40px" /><rect fill="rgb(55,55,55)" height="3px" width="3px" x="18px" y="40px" /><rect fill="rgb(55,55,55)" height="3px" width="3px" x="20px" y="40px" /><rect fill="rgb(55,55,55)" height="3px" width="3px" x="22px" y="40px" /><rect fill="rgb(55,55,55)" height="3px" width="3px" x="24px" y="40px" /><rect fill="rgb(55,55,55)" height="3px" width="3px" x="26px" y="40px" /><rect fill="rgb(55,55,55)" height="3px" opacity="0.972549019608" width="3px" x="28px" y="40px" /><rect fill="rgb(55,55,55)" height="3px" width="3px" x="46px" y="40px" /><rect fill="rgb(55,55,55)" height="3px" opacity="0.0156862745098" width="3px" x="0px" y="42px" /><rect fill="rgb(55,55,55)" height="3px" opacity="0.988235294118" width="3px" x="2px" y="42px" /><rect fill="rgb(55,55,55)" height="3px" width="3px" x="4px" y="42px" /><rect fill="rgb(55,55,55)" height="3px" width="3px" x="6px" y="42px" /><rect fill="rgb(55,55,55)" height="3px" width="3px" x="8px" y="42px" /><rect fill="rgb(55,55,55)" height="3px" width="3px" x="10px" y="42px" /><rect fill="rgb(55,55,55)" height="3px" width="3px" x="12px" y="42px" /><rect fill="rgb(55,55,55)" height="3px" width="3px" x="14px" y="42px" /><rect fill="rgb(55,55,55)" height="3px" width="3px" x="16px" y="42px" /><rect fill="rgb(55,55,55)" height="3px" width="3px" x="18px" y="42px" /><rect fill="rgb(55,55,55)" height="3px" width="3px" x="20px" y="42px" /><rect fill="rgb(55,55,55)" height="3px" width="3px" x="22px" y="42px" /><rect fill="rgb(55,55,55)" height="3px" width="3px" x="24px" y="42px" /><rect fill="rgb(55,55,55)" height="3px" width="3px" x="26px" y="42px" /><rect fill="rgb(55,55,55)" height="3px" opacity="0.972549019608" width="3px" x="28px" y="42px" /><rect fill="rgb(55,55,55)" height="3px" opacity="0.196078431373" width="3px" x="30px" y="42px" /><rect fill="rgb(55,55,55)" height="3px" opacity="0.941176470588" width="3px" x="32px" y="42px" /><rect fill="rgb(55,55,55)" height="3px" opacity="0.988235294118" width="3px" x="34px" y="42px" /><rect fill="rgb(55,55,55)" height="3px" width="3px" x="46px" y="42px" /><rect fill="rgb(55,55,55)" height="3px" opacity="0.133333333333" width="3px" x="2px" y="44px" /><rect fill="rgb(55,55,55)" height="3px" opacity="0.996078431373" width="3px" x="4px" y="44px" /><rect fill="rgb(55,55,55)" height="3px" width="3px" x="6px" y="44px" /><rect fill="rgb(55,55,55)" height="3px" width="3px" x="8px" y="44px" /><rect fill="rgb(55,55,55)" height="3px" width="3px" x="10px" y="44px" /><rect fill="rgb(55,55,55)" height="3px" width="3px" x="12px" y="44px" /><rect fill="rgb(55,55,55)" height="3px" width="3px" x="14px" y="44px" /><rect fill="rgb(55,55,55)" height="3px" width="3px" x="16px" y="44px" /><rect fill="rgb(55,55,55)" height="3px" width="3px" x="18px" y="44px" /><rect fill="rgb(55,55,55)" height="3px" width="3px" x="20px" y="44px" /><rect fill="rgb(55,55,55)" height="3px" width="3px" x="22px" y="44px" /><rect fill="rgb(55,55,55)" height="3px" width="3px" x="24px" y="44px" /><rect fill="rgb(55,55,55)" height="3px" width="3px" x="26px" y="44px" /><rect fill="rgb(55,55,55)" height="3px" opacity="0.976470588235" width="3px" x="28px" y="44px" /><rect fill="rgb(55,55,55)" height="3px" opacity="0.509803921569" width="3px" x="30px" y="44px" /><rect fill="rgb(55,55,55)" height="3px" width="3px" x="32px" y="44px" /><rect fill="rgb(55,55,55)" height="3px" width="3px" x="34px" y="44px" /><rect fill="rgb(55,55,55)" height="3px" width="3px" x="46px" y="44px" /><rect fill="rgb(55,55,55)" height="3px" opacity="0.121568627451" width="3px" x="4px" y="46px" /><rect fill="rgb(55,55,55)" height="3px" width="3px" x="6px" y="46px" /><rect fill="rgb(55,55,55)" height="3px" width="3px" x="8px" y="46px" /><rect fill="rgb(55,55,55)" height="3px" width="3px" x="10px" y="46px" /><rect fill="rgb(55,55,55)" height="3px" width="3px" x="12px" y="46px" /><rect fill="rgb(55,55,55)" height="3px" width="3px" x="14px" y="46px" /><rect fill="rgb(55,55,55)" height="3px" width="3px" x="16px" y="46px" /><rect fill="rgb(55,55,55)" height="3px" width="3px" x="18px" y="46px" /><rect fill="rgb(55,55,55)" height="3px" width="3px" x="20px" y="46px" /><rect fill="rgb(55,55,55)" height="3px" width="3px" x="22px" y="46px" /><rect fill="rgb(55,55,55)" height="3px" width="3px" x="24px" y="46px" /><rect fill="rgb(55,55,55)" height="3px" width="3px" x="26px" y="46px" /><rect fill="rgb(55,55,55)" height="3px" width="3px" x="28px" y="46px" /><rect fill="rgb(55,55,55)" height="3px" width="3px" x="30px" y="46px" /><rect fill="rgb(55,55,55)" height="3px" width="3px" x="32px" y="46px" /><rect fill="rgb(55,55,55)" height="3px" width="3px" x="34px" y="46px" /><rect fill="rgb(55,55,55)" height="3px" width="3px" x="36px" y="46px" /><rect fill="rgb(55,55,55)" height="3px" width="3px" x="38px" y="46px" /><rect fill="rgb(55,55,55)" height="3px" width="3px" x="40px" y="46px" /><rect fill="rgb(55,55,55)" height="3px" width="3px" x="42px" y="46px" /><rect fill="rgb(55,55,55)" height="3px" width="3px" x="44px" y="46px" /><rect fill="rgb(55,55,55)" height="3px" width="3px" x="46px" y="46px" /><rect fill="rgb(55,55,55)" height="3px" width="3px" x="48px" y="46px" /><rect fill="rgb(55,55,55)" height="3px" width="3px" x="50px" y="46px" /><rect fill="rgb(55,55,55)" height="3px" width="3px" x="52px" y="46px" /><rect fill="rgb(55,55,55)" height="3px" width="3px" x="54px" y="46px" /><rect fill="rgb(55,55,55)" height="3px" width="3px" x="56px" y="46px" /><rect fill="rgb(55,55,55)" height="3px" width="3px" x="58px" y="46px" /><rect fill="rgb(55,55,55)" height="3px" width="3px" x="60px" y="46px" /><rect fill="rgb(55,55,55)" height="3px" width="3px" x="62px" y="46px" /><rect fill="rgb(55,55,55)" height="3px" opacity="0.96862745098" width="3px" x="6px" y="48px" /><rect fill="rgb(55,55,55)" height="3px" width="3px" x="8px" y="48px" /><rect fill="rgb(55,55,55)" height="3px" width="3px" x="10px" y="48px" /><rect fill="rgb(55,55,55)" height="3px" width="3px" x="12px" y="48px" /><rect fill="rgb(55,55,55)" height="3px" width="3px" x="14px" y="48px" /><rect fill="rgb(55,55,55)" height="3px" width="3px" x="16px" y="48px" /><rect fill="rgb(55,55,55)" height="3px" width="3px" x="18px" y="48px" /><rect fill="rgb(55,55,55)" height="3px" width="3px" x="20px" y="48px" /><rect fill="rgb(55,55,55)" height="3px" width="3px" x="22px" y="48px" /><rect fill="rgb(55,55,55)" height="3px" width="3px" x="24px" y="48px" /><rect fill="rgb(55,55,55)" height="3px" width="3px" x="26px" y="48px" /><rect fill="rgb(55,55,55)" height="3px" width="3px" x="28px" y="48px" /><rect fill="rgb(55,55,55)" height="3px" width="3px" x="30px" y="48px" /><rect fill="rgb(55,55,55)" height="3px" width="3px" x="32px" y="48px" /><rect fill="rgb(55,55,55)" height="3px" width="3px" x="34px" y="48px" /><rect fill="rgb(55,55,55)" height="3px" width="3px" x="36px" y="48px" /><rect fill="rgb(55,55,55)" height="3px" width="3px" x="38px" y="48px" /><rect fill="rgb(55,55,55)" height="3px" width="3px" x="40px" y="48px" /><rect fill="rgb(55,55,55)" height="3px" width="3px" x="42px" y="48px" /><rect fill="rgb(55,55,55)" height="3px" width="3px" x="44px" y="48px" /><rect fill="rgb(55,55,55)" height="3px" width="3px" x="46px" y="48px" /><rect fill="rgb(55,55,55)" height="3px" width="3px" x="48px" y="48px" /><rect fill="rgb(55,55,55)" height="3px" width="3px" x="50px" y="48px" /><rect fill="rgb(55,55,55)" height="3px" width="3px" x="52px" y="48px" /><rect fill="rgb(55,55,55)" height="3px" width="3px" x="54px" y="48px" /><rect fill="rgb(55,55,55)" height="3px" width="3px" x="56px" y="48px" /><rect fill="rgb(55,55,55)" height="3px" width="3px" x="58px" y="48px" /><rect fill="rgb(55,55,55)" height="3px" width="3px" x="60px" y="48px" /><rect fill="rgb(55,55,55)" height="3px" opacity="0.952941176471" width="3px" x="8px" y="50px" /><rect fill="rgb(55,55,55)" height="3px" width="3px" x="10px" y="50px" /><rect fill="rgb(55,55,55)" height="3px" width="3px" x="12px" y="50px" /><rect fill="rgb(55,55,55)" height="3px" width="3px" x="14px" y="50px" /><rect fill="rgb(55,55,55)" height="3px" width="3px" x="16px" y="50px" /><rect fill="rgb(55,55,55)" height="3px" width="3px" x="18px" y="50px" /><rect fill="rgb(55,55,55)" height="3px" width="3px" x="20px" y="50px" /><rect fill="rgb(55,55,55)" height="3px" width="3px" x="22px" y="50px" /><rect fill="rgb(55,55,55)" height="3px" width="3px" x="24px" y="50px" /><rect fill="rgb(55,55,55)" height="3px" width="3px" x="26px" y="50px" /><rect fill="rgb(55,55,55)" height="3px" width="3px" x="28px" y="50px" /><rect fill="rgb(55,55,55)" height="3px" width="3px" x="30px" y="50px" /><rect fill="rgb(55,55,55)" height="3px" width="3px" x="32px" y="50px" /><rect fill="rgb(55,55,55)" height="3px" width="3px" x="34px" y="50px" /><rect fill="rgb(55,55,55)" height="3px" width="3px" x="36px" y="50px" /><rect fill="rgb(55,55,55)" height="3px" width="3px" x="38px" y="50px" /><rect fill="rgb(55,55,55)" height="3px" width="3px" x="40px" y="50px" /><rect fill="rgb(55,55,55)" height="3px" width="3px" x="42px" y="50px" /><rect fill="rgb(55,55,55)" height="3px" width="3px" x="44px" y="50px" /><rect fill="rgb(55,55,55)" height="3px" width="3px" x="46px" y="50px" /><rect fill="rgb(55,55,55)" height="3px" width="3px" x="48px" y="50px" /><rect fill="rgb(55,55,55)" height="3px" width="3px" x="50px" y="50px" /><rect fill="rgb(55,55,55)" height="3px" width="3px" x="52px" y="50px" /><rect fill="rgb(55,55,55)" height="3px" width="3px" x="54px" y="50px" /><rect fill="rgb(55,55,55)" height="3px" width="3px" x="56px" y="50px" /><rect fill="rgb(55,55,55)" height="3px" opacity="0.992156862745" width="3px" x="58px" y="50px" /><rect fill="rgb(55,55,55)" height="3px" opacity="0.0235294117647" width="3px" x="60px" y="50px" /><rect fill="rgb(55,55,55)" height="3px" opacity="0.0862745098039" width="3px" x="8px" y="52px" /><rect fill="rgb(55,55,55)" height="3px" opacity="0.996078431373" width="3px" x="10px" y="52px" /><rect fill="rgb(55,55,55)" height="3px" width="3px" x="12px" y="52px" /><rect fill="rgb(55,55,55)" height="3px" width="3px" x="14px" y="52px" /><rect fill="rgb(55,55,55)" height="3px" width="3px" x="16px" y="52px" /><rect fill="rgb(55,55,55)" height="3px" width="3px" x="18px" y="52px" /><rect fill="rgb(55,55,55)" height="3px" width="3px" x="20px" y="52px" /><rect fill="rgb(55,55,55)" height="3px" width="3px" x="22px" y="52px" /><rect fill="rgb(55,55,55)" height="3px" width="3px" x="24px" y="52px" /><rect fill="rgb(55,55,55)" height="3px" width="3px" x="26px" y="52px" /><rect fill="rgb(55,55,55)" height="3px" width="3px" x="28px" y="52px" /><rect fill="rgb(55,55,55)" height="3px" width="3px" x="30px" y="52px" /><rect fill="rgb(55,55,55)" height="3px" width="3px" x="32px" y="52px" /><rect fill="rgb(55,55,55)" height="3px" width="3px" x="34px" y="52px" /><rect fill="rgb(55,55,55)" height="3px" width="3px" x="36px" y="52px" /><rect fill="rgb(55,55,55)" height="3px" width="3px" x="38px" y="52px" /><rect fill="rgb(55,55,55)" height="3px" width="3px" x="40px" y="52px" /><rect fill="rgb(55,55,55)" height="3px" width="3px" x="42px" y="52px" /><rect fill="rgb(55,55,55)" height="3px" width="3px" x="44px" y="52px" /><rect fill="rgb(55,55,55)" height="3px" width="3px" x="46px" y="52px" /><rect fill="rgb(55,55,55)" height="3px" width="3px" x="48px" y="52px" /><rect fill="rgb(55,55,55)" height="3px" width="3px" x="50px" y="52px" /><rect fill="rgb(55,55,55)" height="3px" width="3px" x="52px" y="52px" /><rect fill="rgb(55,55,55)" height="3px" width="3px" x="54px" y="52px" /><rect fill="rgb(55,55,55)" height="3px" width="3px" x="56px" y="52px" /><rect fill="rgb(55,55,55)" height="3px" opacity="0.0352941176471" width="3px" x="58px" y="52px" /><rect fill="rgb(55,55,55)" height="3px" width="3px" x="12px" y="54px" /><rect fill="rgb(55,55,55)" height="3px" width="3px" x="14px" y="54px" /><rect fill="rgb(55,55,55)" height="3px" width="3px" x="16px" y="54px" /><rect fill="rgb(55,55,55)" height="3px" width="3px" x="18px" y="54px" /><rect fill="rgb(55,55,55)" height="3px" width="3px" x="20px" y="54px" /><rect fill="rgb(55,55,55)" height="3px" width="3px" x="22px" y="54px" /><rect fill="rgb(55,55,55)" height="3px" width="3px" x="24px" y="54px" /><rect fill="rgb(55,55,55)" height="3px" opacity="0.964705882353" width="3px" x="26px" y="54px" /><rect fill="rgb(55,55,55)" height="3px" opacity="0.964705882353" width="3px" x="28px" y="54px" /><rect fill="rgb(55,55,55)" height="3px" opacity="0.964705882353" width="3px" x="30px" y="54px" /><rect fill="rgb(55,55,55)" height="3px" opacity="0.980392156863" width="3px" x="32px" y="54px" /><rect fill="rgb(55,55,55)" height="3px" opacity="0.980392156863" width="3px" x="34px" y="54px" /><rect fill="rgb(55,55,55)" height="3px" opacity="0.980392156863" width="3px" x="36px" y="54px" /><rect fill="rgb(55,55,55)" height="3px" opacity="0.980392156863" width="3px" x="38px" y="54px" /><rect fill="rgb(55,55,55)" height="3px" opacity="0.98431372549" width="3px" x="40px" y="54px" /><rect fill="rgb(55,55,55)" height="3px" opacity="0.992156862745" width="3px" x="42px" y="54px" /><rect fill="rgb(55,55,55)" height="3px" opacity="0.992156862745" width="3px" x="44px" y="54px" /><rect fill="rgb(55,55,55)" height="3px" opacity="0.992156862745" width="3px" x="46px" y="54px" /><rect fill="rgb(55,55,55)" height="3px" opacity="0.992156862745" width="3px" x="48px" y="54px" /><rect fill="rgb(55,55,55)" height="3px" opacity="0.996078431373" width="3px" x="50px" y="54px" /><rect fill="rgb(55,55,55)" height="3px" opacity="0.996078431373" width="3px" x="52px" y="54px" /><rect fill="rgb(55,55,55)" height="3px" opacity="0.996078431373" width="3px" x="54px" y="54px" /><rect fill="rgb(55,55,55)" height="3px" opacity="0.964705882353" width="3px" x="56px" y="54px" /><rect fill="rgb(55,55,55)" height="3px" opacity="0.0470588235294" width="3px" x="10px" y="56px" /><rect fill="rgb(55,55,55)" height="3px" width="3px" x="12px" y="56px" /><rect fill="rgb(55,55,55)" height="3px" width="3px" x="14px" y="56px" /><rect fill="rgb(55,55,55)" height="3px" width="3px" x="16px" y="56px" /><rect fill="rgb(55,55,55)" height="3px" width="3px" x="52px" y="56px" /><rect fill="rgb(55,55,55)" height="3px" width="3px" x="54px" y="56px" /><rect fill="rgb(55,55,55)" height="3px" width="3px" x="56px" y="56px" /><rect fill="rgb(55,55,55)" height="3px" width="3px" x="12px" y="58px" /><rect fill="rgb(55,55,55)" height="3px" width="3px" x="56px" y="58px" /><rect fill="rgb(55,55,55)" height="3px" width="3px" x="12px" y="60px" /><rect fill="rgb(55,55,55)" height="3px" width="3px" x="56px" y="60px" /><rect fill="rgb(55,55,55)" height="3px" width="3px" x="12px" y="62px" /><rect fill="rgb(55,55,55)" height="3px" width="3px" x="56px" y="62px" /></svg>