<?xml version="1.0" encoding="utf-8" ?>
<svg baseProfile="full" height="64px" version="1.1" width="64px" xmlns="http://www.w3.org/2000/svg" xmlns:ev="http://www.w3.org/2001/xml-events" xmlns:xlink="http://www.w3.org/1999/xlink"><defs /><rect fill="rgb(55,55,55)" height="3px" width="3px" x="4px" y="8px" /><rect fill="rgb(55,55,55)" height="3px" width="3px" x="6px" y="8px" /><rect fill="rgb(55,55,55)" height="3px" width="3px" x="8px" y="8px" /><rect fill="rgb(55,55,55)" height="3px" width="3px" x="12px" y="8px" /><rect fill="rgb(55,55,55)" height="3px" width="3px" x="14px" y="8px" /><rect fill="rgb(55,55,55)" height="3px" width="3px" x="16px" y="8px" /><rect fill="rgb(55,55,55)" height="3px" width="3px" x="20px" y="8px" /><rect fill="rgb(55,55,55)" height="3px" width="3px" x="22px" y="8px" /><rect fill="rgb(55,55,55)" height="3px" width="3px" x="24px" y="8px" /><rect fill="rgb(55,55,55)" height="3px" width="3px" x="38px" y="8px" /><rect fill="rgb(55,55,55)" height="3px" width="3px" x="40px" y="8px" /><rect fill="rgb(55,55,55)" height="3px" width="3px" x="42px" y="8px" /><rect fill="rgb(55,55,55)" height="3px" width="3px" x="46px" y="8px" /><rect fill="rgb(55,55,55)" height="3px" width="3px" x="48px" y="8px" /><rect fill="rgb(55,55,55)" height="3px" width="3px" x="50px" y="8px" /><rect fill="rgb(55,55,55)" height="3px" width="3px" x="54px" y="8px" /><rect fill="rgb(55,55,55)" height="3px" width="3px" x="56px" y="8px" /><rect fill="rgb(55,55,55)" height="3px" width="3px" x="58px" y="8px" /><rect fill="rgb(55,55,55)" height="3px" width="3px" x="4px" y="10px" /><rect fill="rgb(109,109,109)" height="3px" width="3px" x="6px" y="10px" /><rect fill="rgb(55,55,55)" height="3px" width="3px" x="8px" y="10px" /><rect fill="rgb(55,55,55)" height="3px" width="3px" x="12px" y="10px" /><rect fill="rgb(109,109,109)" height="3px" width="3px" x="14px" y="10px" /><rect fill="rgb(55,55,55)" height="3px" width="3px" x="16px" y="10px" /><rect fill="rgb(55,55,55)" height="3px" width="3px" x="20px" y="10px" /><rect fill="rgb(109,109,109)" height="3px" width="3px" x="22px" y="10px" /><rect fill="rgb(55,55,55)" height="3px" width="3px" x="24px" y="10px" /><rect fill="rgb(55,55,55)" height="3px" width="3px" x="38px" y="10px" /><rect fill="rgb(109,109,109)" height="3px" width="3px" x="40px" y="10px" /><rect fill="rgb(55,55,55)" height="3px" width="3px" x="42px" y="10px" /><rect fill="rgb(55,55,55)" height="3px" width="3px" x="46px" y="10px" /><rect fill="rgb(109,109,109)" height="3px" width="3px" x="48px" y="10px" /><rect fill="rgb(55,55,55)" height="3px" width="3px" x="50px" y="10px" /><rect fill="rgb(55,55,55)" height="3px" width="3px" x="54px" y="10px" /><rect fill="rgb(109,109,109)" height="3px" width="3px" x="56px" y="10px" /><rect fill="rgb(55,55,55)" height="3px" width="3px" x="58px" y="10px" /><rect fill="rgb(55,55,55)" height="3px" width="3px" x="4px" y="12px" /><rect fill="rgb(109,109,109)" height="3px" width="3px" x="6px" y="12px" /><rect fill="rgb(55,55,55)" height="3px" width="3px" x="8px" y="12px" /><rect fill="rgb(55,55,55)" height="3px" width="3px" x="10px" y="12px" /><rect fill="rgb(55,55,55)" height="3px" width="3px" x="12px" y="12px" /><rect fill="rgb(109,109,109)" height="3px" width="3px" x="14px" y="12px" /><rect fill="rgb(55,55,55)" height="3px" width="3px" x="16px" y="12px" /><rect fill="rgb(55,55,55)" height="3px" width="3px" x="18px" y="12px" /><rect fill="rgb(55,55,55)" height="3px" width="3px" x="20px" y="12px" /><rect fill="rgb(109,109,109)" height="3px" width="3px" x="22px" y="12px" /><rect fill="rgb(55,55,55)" height="3px" width="3px" x="24px" y="12px" /><rect fill="rgb(55,55,55)" height="3px" width="3px" x="38px" y="12px" /><rect fill="rgb(109,109,109)" height="3px" width="3px" x="40px" y="12px" /><rect fill="rgb(55,55,55)" height="3px" width="3px" x="42px" y="12px" /><rect fill="rgb(55,55,55)" height="3px" width="3px" x="44px" y="12px" /><rect fill="rgb(55,55,55)" height="3px" width="3px" x="46px" y="12px" /><rect fill="rgb(109,109,109)" height="3px" width="3px" x="48px" y="12px" /><rect fill="rgb(55,55,55)" height="3px" width="3px" x="50px" y="12px" /><rect fill="rgb(55,55,55)" height="3px" width="3px" x="52px" y="12px" /><rect fill="rgb(55,55,55)" height="3px" width="3px" x="54px" y="12px" /><rect fill="rgb(109,109,109)" height="3px" width="3px" x="56px" y="12px" /><rect fill="rgb(55,55,55)" height="3px" width="3px" x="58px" y="12px" /><rect fill="rgb(55,55,55)" height="3px" width="3px" x="4px" y="14px" /><rect fill="rgb(109,109,109)" height="3px" width="3px" x="6px" y="14px" /><rect fill="rgb(107,107,107)" height="3px" width="3px" x="8px" y="14px" /><rect fill="rgb(105,105,105)" height="3px" width="3px" x="10px" y="14px" /><rect fill="rgb(106,106,106)" height="3px" width="3px" x="12px" y="14px" /><rect fill="rgb(109,109,109)" height="3px" width="3px" x="14px" y="14px" /><rect fill="rgb(109,109,109)" height="3px" width="3px" x="16px" y="14px" /><rect fill="rgb(109,109,109)" height="3px" width="3px" x="18px" y="14px" /><rect fill="rgb(107,107,107)" height="3px" width="3px" x="20px" y="14px" /><rect fill="rgb(106,106,106)" height="3px" width="3px" x="22px" y="14px" /><rect fill="rgb(55,55,55)" height="3px" width="3px" x="24px" y="14px" /><rect fill="rgb(55,55,55)" height="3px" width="3px" x="38px" y="14px" /><rect fill="rgb(109,109,109)" height="3px" width="3px" x="40px" y="14px" /><rect fill="rgb(107,107,107)" height="3px" width="3px" x="42px" y="14px" /><rect fill="rgb(105,105,105)" height="3px" width="3px" x="44px" y="14px" /><rect fill="rgb(106,106,106)" height="3px" width="3px" x="46px" y="14px" /><rect fill="rgb(109,109,109)" height="3px" width="3px" x="48px" y="14px" /><rect fill="rgb(109,109,109)" height="3px" width="3px" x="50px" y="14px" /><rect fill="rgb(109,109,109)" height="3px" width="3px" x="52px" y="14px" /><rect fill="rgb(107,107,107)" height="3px" width="3px" x="54px" y="14px" /><rect fill="rgb(106,106,106)" height="3px" width="3px" x="56px" y="14px" /><rect fill="rgb(55,55,55)" height="3px" width="3px" x="58px" y="14px" /><rect fill="rgb(55,55,55)" height="3px" width="3px" x="4px" y="16px" /><rect fill="rgb(109,109,109)" height="3px" width="3px" x="6px" y="16px" /><rect fill="rgb(109,109,109)" height="3px" width="3px" x="8px" y="16px" /><rect fill="rgb(109,109,109)" height="3px" width="3px" x="10px" y="16px" /><rect fill="rgb(108,108,108)" height="3px" width="3px" x="12px" y="16px" /><rect fill="rgb(107,107,107)" height="3px" width="3px" x="14px" y="16px" /><rect fill="rgb(107,107,107)" height="3px" width="3px" x="16px" y="16px" /><rect fill="rgb(109,109,109)" height="3px" width="3px" x="18px" y="16px" /><rect fill="rgb(109,109,109)" height="3px" width="3px" x="20px" y="16px" /><rect fill="rgb(109,109,109)" height="3px" width="3px" x="22px" y="16px" /><rect fill="rgb(55,55,55)" height="3px" width="3px" x="24px" y="16px" /><rect fill="rgb(55,55,55)" height="3px" width="3px" x="38px" y="16px" /><rect fill="rgb(109,109,109)" height="3px" width="3px" x="40px" y="16px" /><rect fill="rgb(109,109,109)" height="3px" width="3px" x="42px" y="16px" /><rect fill="rgb(108,108,108)" height="3px" width="3px" x="44px" y="16px" /><rect fill="rgb(107,107,107)" height="3px" width="3px" x="46px" y="16px" /><rect fill="rgb(108,108,108)" height="3px" width="3px" x="48px" y="16px" /><rect fill="rgb(108,108,108)" height="3px" width="3px" x="50px" y="16px" /><rect fill="rgb(94,94,94)" height="3px" width="3px" x="52px" y="16px" /><rect fill="rgb(90,90,90)" height="3px" width="3px" x="54px" y="16px" /><rect fill="rgb(109,109,109)" height="3px" width="3px" x="56px" y="16px" /><rect fill="rgb(55,55,55)" height="3px" width="3px" x="58px" y="16px" /><rect fill="rgb(55,55,55)" height="3px" width="3px" x="4px" y="18px" /><rect fill="rgb(109,109,109)" height="3px" width="3px" x="6px" y="18px" /><rect fill="rgb(109,109,109)" height="3px" width="3px" x="8px" y="18px" /><rect fill="rgb(104,104,104)" height="3px" width="3px" x="10px" y="18px" /><rect fill="rgb(104,104,104)" height="3px" width="3px" x="12px" y="18px" /><rect fill="rgb(105,105,105)" height="3px" width="3px" x="14px" y="18px" /><rect fill="rgb(106,106,106)" height="3px" width="3px" x="16px" y="18px" /><rect fill="rgb(109,109,109)" height="3px" width="3px" x="18px" y="18px" /><rect fill="rgb(109,109,109)" height="3px" width="3px" x="20px" y="18px" /><rect fill="rgb(109,109,109)" height="3px" width="3px" x="22px" y="18px" /><rect fill="rgb(55,55,55)" height="3px" width="3px" x="24px" y="18px" /><rect fill="rgb(55,55,55)" height="3px" width="3px" x="38px" y="18px" /><rect fill="rgb(109,109,109)" height="3px" width="3px" x="40px" y="18px" /><rect fill="rgb(86,86,86)" height="3px" width="3px" x="42px" y="18px" /><rect fill="rgb(85,85,85)" height="3px" width="3px" x="44px" y="18px" /><rect fill="rgb(105,105,105)" height="3px" width="3px" x="46px" y="18px" /><rect fill="rgb(108,108,108)" height="3px" width="3px" x="48px" y="18px" /><rect fill="rgb(108,108,108)" height="3px" width="3px" x="50px" y="18px" /><rect fill="rgb(108,108,108)" height="3px" width="3px" x="52px" y="18px" /><rect fill="rgb(109,109,109)" height="3px" width="3px" x="54px" y="18px" /><rect fill="rgb(109,109,109)" height="3px" width="3px" x="56px" y="18px" /><rect fill="rgb(55,55,55)" height="3px" width="3px" x="58px" y="18px" /><rect fill="rgb(55,55,55)" height="3px" width="3px" x="4px" y="20px" /><rect fill="rgb(109,109,109)" height="3px" width="3px" x="6px" y="20px" /><rect fill="rgb(109,109,109)" height="3px" width="3px" x="8px" y="20px" /><rect fill="rgb(88,88,88)" height="3px" width="3px" x="10px" y="20px" /><rect fill="rgb(90,90,90)" height="3px" width="3px" x="12px" y="20px" /><rect fill="rgb(106,106,106)" height="3px" width="3px" x="14px" y="20px" /><rect fill="rgb(106,106,106)" height="3px" width="3px" x="16px" y="20px" /><rect fill="rgb(106,106,106)" height="3px" width="3px" x="18px" y="20px" /><rect fill="rgb(106,106,106)" height="3px" width="3px" x="20px" y="20px" /><rect fill="rgb(107,107,107)" height="3px" width="3px" x="22px" y="20px" /><rect fill="rgb(55,55,55)" height="3px" width="3px" x="24px" y="20px" /><rect fill="rgb(55,55,55)" height="3px" width="3px" x="38px" y="20px" /><rect fill="rgb(109,109,109)" height="3px" width="3px" x="40px" y="20px" /><rect fill="rgb(108,108,108)" height="3px" width="3px" x="42px" y="20px" /><rect fill="rgb(102,102,102)" height="3px" width="3px" x="44px" y="20px" /><rect fill="rgb(107,107,107)" height="3px" width="3px" x="46px" y="20px" /><rect fill="rgb(108,108,108)" height="3px" width="3px" x="48px" y="20px" /><rect fill="rgb(107,107,107)" height="3px" width="3px" x="50px" y="20px" /><rect fill="rgb(106,106,106)" height="3px" width="3px" x="52px" y="20px" /><rect fill="rgb(109,109,109)" height="3px" width="3px" x="54px" y="20px" /><rect fill="rgb(109,109,109)" height="3px" width="3px" x="56px" y="20px" /><rect fill="rgb(55,55,55)" height="3px" width="3px" x="58px" y="20px" /><rect fill="rgb(55,55,55)" height="3px" width="3px" x="4px" y="22px" /><rect fill="rgb(109,109,109)" height="3px" width="3px" x="6px" y="22px" /><rect fill="rgb(107,107,107)" height="3px" width="3px" x="8px" y="22px" /><rect fill="rgb(107,107,107)" height="3px" width="3px" x="10px" y="22px" /><rect fill="rgb(106,106,106)" height="3px" width="3px" x="12px" y="22px" /><rect fill="rgb(108,108,108)" height="3px" width="3px" x="14px" y="22px" /><rect fill="rgb(108,108,108)" height="3px" width="3px" x="16px" y="22px" /><rect fill="rgb(108,108,108)" height="3px" width="3px" x="18px" y="22px" /><rect fill="rgb(107,107,107)" height="3px" width="3px" x="20px" y="22px" /><rect fill="rgb(108,108,108)" height="3px" width="3px" x="22px" y="22px" /><rect fill="rgb(55,55,55)" height="3px" width="3px" x="24px" y="22px" /><rect fill="rgb(55,55,55)" height="3px" width="3px" x="38px" y="22px" /><rect fill="rgb(109,109,109)" height="3px" width="3px" x="40px" y="22px" /><rect fill="rgb(109,109,109)" height="3px" width="3px" x="42px" y="22px" /><rect fill="rgb(107,107,107)" height="3px" width="3px" x="44px" y="22px" /><rect fill="rgb(99,99,99)" height="3px" width="3px" x="46px" y="22px" /><rect fill="rgb(103,103,103)" height="3px" width="3px" x="48px" y="22px" /><rect fill="rgb(106,106,106)" height="3px" width="3px" x="50px" y="22px" /><rect fill="rgb(108,108,108)" height="3px" width="3px" x="52px" y="22px" /><rect fill="rgb(109,109,109)" height="3px" width="3px" x="54px" y="22px" /><rect fill="rgb(109,109,109)" height="3px" width="3px" x="56px" y="22px" /><rect fill="rgb(55,55,55)" height="3px" width="3px" x="58px" y="22px" /><rect fill="rgb(55,55,55)" height="3px" width="3px" x="4px" y="24px" /><rect fill="rgb(109,109,109)" height="3px" width="3px" x="6px" y="24px" /><rect fill="rgb(109,109,109)" height="3px" width="3px" x="8px" y="24px" /><rect fill="rgb(107,107,107)" height="3px" width="3px" x="10px" y="24px" /><rect fill="rgb(107,107,107)" height="3px" width="3px" x="12px" y="24px" /><rect fill="rgb(107,107,107)" height="3px" width="3px" x="14px" y="24px" /><rect fill="rgb(107,107,107)" height="3px" width="3px" x="16px" y="24px" /><rect fill="rgb(107,107,107)" height="3px" width="3px" x="18px" y="24px" /><rect fill="rgb(108,108,108)" height="3px" width="3px" x="20px" y="24px" /><rect fill="rgb(108,108,108)" height="3px" width="3px" x="22px" y="24px" /><rect fill="rgb(55,55,55)" height="3px" width="3px" x="24px" y="24px" /><rect fill="rgb(55,55,55)" height="3px" width="3px" x="38px" y="24px" /><rect fill="rgb(109,109,109)" height="3px" width="3px" x="40px" y="24px" /><rect fill="rgb(109,109,109)" height="3px" width="3px" x="42px" y="24px" /><rect fill="rgb(109,109,109)" height="3px" width="3px" x="44px" y="24px" /><rect fill="rgb(87,87,87)" height="3px" width="3px" x="46px" y="24px" /><rect fill="rgb(86,86,86)" height="3px" width="3px" x="48px" y="24px" /><rect fill="rgb(108,108,108)" height="3px" width="3px" x="50px" y="24px" /><rect fill="rgb(108,108,108)" height="3px" width="3px" x="52px" y="24px" /><rect fill="rgb(109,109,109)" height="3px" width="3px" x="54px" y="24px" /><rect fill="rgb(109,109,109)" height="3px" width="3px" x="56px" y="24px" /><rect fill="rgb(55,55,55)" height="3px" width="3px" x="58px" y="24px" /><rect fill="rgb(55,55,55)" height="3px" width="3px" x="4px" y="26px" /><rect fill="rgb(109,109,109)" height="3px" width="3px" x="6px" y="26px" /><rect fill="rgb(109,109,109)" height="3px" width="3px" x="8px" y="26px" /><rect fill="rgb(108,108,108)" height="3px" width="3px" x="10px" y="26px" /><rect fill="rgb(104,104,104)" height="3px" width="3px" x="12px" y="26px" /><rect fill="rgb(106,106,106)" height="3px" width="3px" x="14px" y="26px" /><rect fill="rgb(93,93,93)" height="3px" width="3px" x="16px" y="26px" /><rect fill="rgb(88,88,88)" height="3px" width="3px" x="18px" y="26px" /><rect fill="rgb(109,109,109)" height="3px" width="3px" x="20px" y="26px" /><rect fill="rgb(109,109,109)" height="3px" width="3px" x="22px" y="26px" /><rect fill="rgb(55,55,55)" height="3px" width="3px" x="24px" y="26px" /><rect fill="rgb(55,55,55)" height="3px" width="3px" x="38px" y="26px" /><rect fill="rgb(107,107,107)" height="3px" width="3px" x="40px" y="26px" /><rect fill="rgb(109,109,109)" height="3px" width="3px" x="42px" y="26px" /><rect fill="rgb(109,109,109)" height="3px" width="3px" x="44px" y="26px" /><rect fill="rgb(109,109,109)" height="3px" width="3px" x="46px" y="26px" /><rect fill="rgb(108,108,108)" height="3px" width="3px" x="48px" y="26px" /><rect fill="rgb(107,107,107)" height="3px" width="3px" x="50px" y="26px" /><rect fill="rgb(109,109,109)" height="3px" width="3px" x="52px" y="26px" /><rect fill="rgb(109,109,109)" height="3px" width="3px" x="54px" y="26px" /><rect fill="rgb(108,108,108)" height="3px" width="3px" x="56px" y="26px" /><rect fill="rgb(55,55,55)" height="3px" width="3px" x="58px" y="26px" /><rect fill="rgb(55,55,55)" height="3px" width="3px" x="4px" y="28px" /><rect fill="rgb(109,109,109)" height="3px" width="3px" x="6px" y="28px" /><rect fill="rgb(107,107,107)" height="3px" width="3px" x="8px" y="28px" /><rect fill="rgb(105,105,105)" height="3px" width="3px" x="10px" y="28px" /><rect fill="rgb(105,105,105)" height="3px" width="3px" x="12px" y="28px" /><rect fill="rgb(107,107,107)" height="3px" width="3px" x="14px" y="28px" /><rect fill="rgb(107,107,107)" height="3px" width="3px" x="16px" y="28px" /><rect fill="rgb(109,109,109)" height="3px" width="3px" x="18px" y="28px" /><rect fill="rgb(107,107,107)" height="3px" width="3px" x="20px" y="28px" /><rect fill="rgb(106,106,106)" height="3px" width="3px" x="22px" y="28px" /><rect fill="rgb(55,55,55)" height="3px" width="3px" x="24px" y="28px" /><rect fill="rgb(55,55,55)" height="3px" opacity="0.101960784314" width="3px" x="32px" y="28px" /><rect fill="rgb(55,55,55)" height="3px" opacity="0.129411764706" width="3px" x="34px" y="28px" /><rect fill="rgb(55,55,55)" height="3px" opacity="0.078431372549" width="3px" x="36px" y="28px" /><rect fill="rgb(55,55,55)" height="3px" width="3px" x="38px" y="28px" /><rect fill="rgb(102,102,102)" height="3px" width="3px" x="40px" y="28px" /><rect fill="rgb(109,109,109)" height="3px" width="3px" x="42px" y="28px" /><rect fill="rgb(107,107,107)" height="3px" width="3px" x="44px" y="28px" /><rect fill="rgb(108,108,108)" height="3px" width="3px" x="46px" y="28px" /><rect fill="rgb(106,106,106)" height="3px" width="3px" x="48px" y="28px" /><rect fill="rgb(107,107,107)" height="3px" width="3px" x="50px" y="28px" /><rect fill="rgb(106,106,106)" height="3px" width="3px" x="52px" y="28px" /><rect fill="rgb(109,109,109)" height="3px" width="3px" x="54px" y="28px" /><rect fill="rgb(105,105,105)" height="3px" width="3px" x="56px" y="28px" /><rect fill="rgb(55,55,55)" height="3px" width="3px" x="58px" y="28px" /><rect fill="rgb(55,55,55)" height="3px" width="3px" x="4px" y="30px" /><rect fill="rgb(109,109,109)" height="3px" width="3px" x="6px" y="30px" /><rect fill="rgb(96,96,96)" height="3px" width="3px" x="8px" y="30px" /><rect fill="rgb(99,99,99)" height="3px" width="3px" x="10px" y="30px" /><rect fill="rgb(109,109,109)" height="3px" width="3px" x="12px" y="30px" /><rect fill="rgb(0,0,0)" height="3px" width="3px" x="14px" y="30px" /><rect fill="rgb(109,109,109)" height="3px" width="3px" x="16px" y="30px" /><rect fill="rgb(106,106,106)" height="3px" width="3px" x="18px" y="30px" /><rect fill="rgb(102,102,102)" height="3px" width="3px" x="20px" y="30px" /><rect fill="rgb(100,100,100)" height="3px" width="3px" x="22px" y="30px" /><rect fill="rgb(55,55,55)" height="3px" width="3px" x="24px" y="30px" /><rect fill="rgb(55,55,55)" height="3px" width="3px" x="26px" y="30px" /><rect fill="rgb(55,55,55)" height="3px" width="3px" x="28px" y="30px" /><rect fill="rgb(55,55,55)" height="3px" width="3px" x="32px" y="30px" /><rect fill="rgb(55,55,55)" height="3px" width="3px" x="34px" y="30px" /><rect fill="rgb(55,55,55)" height="3px" width="3px" x="36px" y="30px" /><rect fill="rgb(55,55,55)" height="3px" width="3px" x="38px" y="30px" /><rect fill="rgb(103,103,103)" height="3px" width="3px" x="40px" y="30px" /><rect fill="rgb(105,105,105)" height="3px" width="3px" x="42px" y="30px" /><rect fill="rgb(108,108,108)" height="3px" width="3px" x="44px" y="30px" /><rect fill="rgb(109,109,109)" height="3px" width="3px" x="46px" y="30px" /><rect fill="rgb(0,0,0)" height="3px" width="3px" x="48px" y="30px" /><rect fill="rgb(109,109,109)" height="3px" width="3px" x="50px" y="30px" /><rect fill="rgb(106,106,106)" height="3px" width="3px" x="52px" y="30px" /><rect fill="rgb(107,107,107)" height="3px" width="3px" x="54px" y="30px" /><rect fill="rgb(105,105,105)" height="3px" width="3px" x="56px" y="30px" /><rect fill="rgb(55,55,55)" height="3px" width="3px" x="58px" y="30px" /><rect fill="rgb(55,55,55)" height="3px" width="3px" x="4px" y="32px" /><rect fill="rgb(109,109,109)" height="3px" width="3px" x="6px" y="32px" /><rect fill="rgb(106,106,106)" height="3px" width="3px" x="8px" y="32px" /><rect fill="rgb(107,107,107)" height="3px" width="3px" x="10px" y="32px" /><rect fill="rgb(0,0,0)" height="3px" width="3px" x="12px" y="32px" /><rect fill="rgb(0,0,0)" height="3px" width="3px" x="14px" y="32px" /><rect fill="rgb(17,17,17)" height="3px" width="3px" x="16px" y="32px" /><rect fill="rgb(105,105,105)" height="3px" width="3px" x="18px" y="32px" /><rect fill="rgb(100,100,100)" height="3px" width="3px" x="20px" y="32px" /><rect fill="rgb(105,105,105)" height="3px" width="3px" x="22px" y="32px" /><rect fill="rgb(55,55,55)" height="3px" width="3px" x="24px" y="32px" /><rect fill="rgb(109,109,109)" height="3px" width="3px" x="26px" y="32px" /><rect fill="rgb(55,55,55)" height="3px" width="3px" x="28px" y="32px" /><rect fill="rgb(55,55,55)" height="3px" width="3px" x="32px" y="32px" /><rect fill="rgb(109,109,109)" height="3px" width="3px" x="34px" y="32px" /><rect fill="rgb(109,109,109)" height="3px" width="3px" x="36px" y="32px" /><rect fill="rgb(55,55,55)" height="3px" width="3px" x="38px" y="32px" /><rect fill="rgb(101,101,101)" height="3px" width="3px" x="40px" y="32px" /><rect fill="rgb(107,107,107)" height="3px" width="3px" x="42px" y="32px" /><rect fill="rgb(108,108,108)" height="3px" width="3px" x="44px" y="32px" /><rect fill="rgb(0,0,0)" height="3px" width="3px" x="46px" y="32px" /><rect fill="rgb(0,0,0)" height="3px" width="3px" x="48px" y="32px" /><rect fill="rgb(17,17,17)" height="3px" width="3px" x="50px" y="32px" /><rect fill="rgb(106,106,106)" height="3px" width="3px" x="52px" y="32px" /><rect fill="rgb(107,107,107)" height="3px" width="3px" x="54px" y="32px" /><rect fill="rgb(104,104,104)" height="3px" width="3px" x="56px" y="32px" /><rect fill="rgb(55,55,55)" height="3px" width="3px" x="58px" y="32px" /><rect fill="rgb(55,55,55)" height="3px" width="3px" x="4px" y="34px" /><rect fill="rgb(107,107,107)" height="3px" width="3px" x="6px" y="34px" /><rect fill="rgb(108,108,108)" height="3px" width="3px" x="8px" y="34px" /><rect fill="rgb(109,109,109)" height="3px" width="3px" x="10px" y="34px" /><rect fill="rgb(0,0,0)" height="3px" width="3px" x="12px" y="34px" /><rect fill="rgb(0,0,0)" height="3px" width="3px" x="14px" y="34px" /><rect fill="rgb(0,0,0)" height="3px" width="3px" x="16px" y="34px" /><rect fill="rgb(101,101,101)" height="3px" width="3px" x="18px" y="34px" /><rect fill="rgb(106,106,106)" height="3px" width="3px" x="20px" y="34px" /><rect fill="rgb(108,108,108)" height="3px" width="3px" x="22px" y="34px" /><rect fill="rgb(55,55,55)" height="3px" width="3px" x="24px" y="34px" /><rect fill="rgb(109,109,109)" height="3px" width="3px" x="26px" y="34px" /><rect fill="rgb(55,55,55)" height="3px" width="3px" x="28px" y="34px" /><rect fill="rgb(55,55,55)" height="3px" width="3px" x="32px" y="34px" /><rect fill="rgb(109,109,109)" height="3px" width="3px" x="34px" y="34px" /><rect fill="rgb(109,109,109)" height="3px" width="3px" x="36px" y="34px" /><rect fill="rgb(55,55,55)" height="3px" width="3px" x="38px" y="34px" /><rect fill="rgb(109,109,109)" height="3px" width="3px" x="40px" y="34px" /><rect fill="rgb(109,109,109)" height="3px" width="3px" x="42px" y="34px" /><rect fill="rgb(108,108,108)" height="3px" width="3px" x="44px" y="34px" /><rect fill="rgb(0,0,0)" height="3px" width="3px" x="46px" y="34px" /><rect fill="rgb(0,0,0)" height="3px" width="3px" x="48px" y="34px" /><rect fill="rgb(0,0,0)" height="3px" width="3px" x="50px" y="34px" /><rect fill="rgb(107,107,107)" height="3px" width="3px" x="52px" y="34px" /><rect fill="rgb(105,105,105)" height="3px" width="3px" x="54px" y="34px" /><rect fill="rgb(106,106,106)" height="3px" width="3px" x="56px" y="34px" /><rect fill="rgb(55,55,55)" height="3px" width="3px" x="58px" y="34px" /><rect fill="rgb(55,55,55)" height="3px" width="3px" x="4px" y="36px" /><rect fill="rgb(104,104,104)" height="3px" width="3px" x="6px" y="36px" /><rect fill="rgb(109,109,109)" height="3px" width="3px" x="8px" y="36px" /><rect fill="rgb(0,0,0)" height="3px" width="3px" x="10px" y="36px" /><rect fill="rgb(0,0,0)" height="3px" width="3px" x="12px" y="36px" /><rect fill="rgb(0,0,0)" height="3px" width="3px" x="14px" y="36px" /><rect fill="rgb(0,0,0)" height="3px" width="3px" x="16px" y="36px" /><rect fill="rgb(17,17,17)" height="3px" width="3px" x="18px" y="36px" /><rect fill="rgb(107,107,107)" height="3px" width="3px" x="20px" y="36px" /><rect fill="rgb(105,105,105)" height="3px" width="3px" x="22px" y="36px" /><rect fill="rgb(55,55,55)" height="3px" width="3px" x="24px" y="36px" /><rect fill="rgb(109,109,109)" height="3px" width="3px" x="26px" y="36px" /><rect fill="rgb(55,55,55)" height="3px" width="3px" x="28px" y="36px" /><rect fill="rgb(55,55,55)" height="3px" width="3px" x="30px" y="36px" /><rect fill="rgb(55,55,55)" height="3px" width="3px" x="32px" y="36px" /><rect fill="rgb(108,108,108)" height="3px" width="3px" x="34px" y="36px" /><rect fill="rgb(107,107,107)" height="3px" width="3px" x="36px" y="36px" /><rect fill="rgb(55,55,55)" height="3px" width="3px" x="38px" y="36px" /><rect fill="rgb(107,107,107)" height="3px" width="3px" x="40px" y="36px" /><rect fill="rgb(107,107,107)" height="3px" width="3px" x="42px" y="36px" /><rect fill="rgb(0,0,0)" height="3px" width="3px" x="44px" y="36px" /><rect fill="rgb(0,0,0)" height="3px" width="3px" x="46px" y="36px" /><rect fill="rgb(0,0,0)" height="3px" width="3px" x="48px" y="36px" /><rect fill="rgb(0,0,0)" height="3px" width="3px" x="50px" y="36px" /><rect fill="rgb(18,18,18)" height="3px" width="3px" x="52px" y="36px" /><rect fill="rgb(107,107,107)" height="3px" width="3px" x="54px" y="36px" /><rect fill="rgb(107,107,107)" height="3px" width="3px" x="56px" y="36px" /><rect fill="rgb(55,55,55)" height="3px" width="3px" x="58px" y="36px" /><rect fill="rgb(55,55,55)" height="3px" width="3px" x="4px" y="38px" /><rect fill="rgb(107,107,107)" height="3px" width="3px" x="6px" y="38px" /><rect fill="rgb(105,105,105)" height="3px" width="3px" x="8px" y="38px" /><rect fill="rgb(2,2,2)" height="3px" width="3px" x="10px" y="38px" /><rect fill="rgb(0,0,0)" height="3px" width="3px" x="12px" y="38px" /><rect fill="rgb(0,0,0)" height="3px" width="3px" x="14px" y="38px" /><rect fill="rgb(0,0,0)" height="3px" width="3px" x="16px" y="38px" /><rect fill="rgb(0,0,0)" height="3px" width="3px" x="18px" y="38px" /><rect fill="rgb(107,107,107)" height="3px" width="3px" x="20px" y="38px" /><rect fill="rgb(104,104,104)" height="3px" width="3px" x="22px" y="38px" /><rect fill="rgb(55,55,55)" height="3px" width="3px" x="24px" y="38px" /><rect fill="rgb(109,109,109)" height="3px" width="3px" x="26px" y="38px" /><rect fill="rgb(106,106,106)" height="3px" width="3px" x="28px" y="38px" /><rect fill="rgb(106,106,106)" height="3px" width="3px" x="30px" y="38px" /><rect fill="rgb(107,107,107)" height="3px" width="3px" x="32px" y="38px" /><rect fill="rgb(106,106,106)" height="3px" width="3px" x="34px" y="38px" /><rect fill="rgb(108,108,108)" height="3px" width="3px" x="36px" y="38px" /><rect fill="rgb(55,55,55)" height="3px" width="3px" x="38px" y="38px" /><rect fill="rgb(107,107,107)" height="3px" width="3px" x="40px" y="38px" /><rect fill="rgb(107,107,107)" height="3px" width="3px" x="42px" y="38px" /><rect fill="rgb(0,0,0)" height="3px" width="3px" x="44px" y="38px" /><rect fill="rgb(0,0,0)" height="3px" width="3px" x="46px" y="38px" /><rect fill="rgb(0,0,0)" height="3px" width="3px" x="48px" y="38px" /><rect fill="rgb(0,0,0)" height="3px" width="3px" x="50px" y="38px" /><rect fill="rgb(0,0,0)" height="3px" width="3px" x="52px" y="38px" /><rect fill="rgb(108,108,108)" height="3px" width="3px" x="54px" y="38px" /><rect fill="rgb(107,107,107)" height="3px" width="3px" x="56px" y="38px" /><rect fill="rgb(55,55,55)" height="3px" width="3px" x="58px" y="38px" /><rect fill="rgb(55,55,55)" height="3px" width="3px" x="4px" y="40px" /><rect fill="rgb(107,107,107)" height="3px" width="3px" x="6px" y="40px" /><rect fill="rgb(103,103,103)" height="3px" width="3px" x="8px" y="40px" /><rect fill="rgb(105,105,105)" height="3px" width="3px" x="10px" y="40px" /><rect fill="rgb(109,109,109)" height="3px" width="3px" x="12px" y="40px" /><rect fill="rgb(109,109,109)" height="3px" width="3px" x="14px" y="40px" /><rect fill="rgb(107,107,107)" height="3px" width="3px" x="16px" y="40px" /><rect fill="rgb(103,103,103)" height="3px" width="3px" x="18px" y="40px" /><rect fill="rgb(107,107,107)" height="3px" width="3px" x="20px" y="40px" /><rect fill="rgb(104,104,104)" height="3px" width="3px" x="22px" y="40px" /><rect fill="rgb(55,55,55)" height="3px" width="3px" x="24px" y="40px" /><rect fill="rgb(102,102,102)" height="3px" width="3px" x="26px" y="40px" /><rect fill="rgb(105,105,105)" height="3px" width="3px" x="28px" y="40px" /><rect fill="rgb(106,106,106)" height="3px" width="3px" x="30px" y="40px" /><rect fill="rgb(99,99,99)" height="3px" width="3px" x="32px" y="40px" /><rect fill="rgb(99,99,99)" height="3px" width="3px" x="34px" y="40px" /><rect fill="rgb(102,102,102)" height="3px" width="3px" x="36px" y="40px" /><rect fill="rgb(55,55,55)" height="3px" width="3px" x="38px" y="40px" /><rect fill="rgb(104,104,104)" height="3px" width="3px" x="40px" y="40px" /><rect fill="rgb(102,102,102)" height="3px" width="3px" x="42px" y="40px" /><rect fill="rgb(104,104,104)" height="3px" width="3px" x="44px" y="40px" /><rect fill="rgb(102,102,102)" height="3px" width="3px" x="46px" y="40px" /><rect fill="rgb(107,107,107)" height="3px" width="3px" x="48px" y="40px" /><rect fill="rgb(109,109,109)" height="3px" width="3px" x="50px" y="40px" /><rect fill="rgb(107,107,107)" height="3px" width="3px" x="52px" y="40px" /><rect fill="rgb(104,104,104)" height="3px" width="3px" x="54px" y="40px" /><rect fill="rgb(104,104,104)" height="3px" width="3px" x="56px" y="40px" /><rect fill="rgb(55,55,55)" height="3px" width="3px" x="58px" y="40px" /><rect fill="rgb(55,55,55)" height="3px" width="3px" x="4px" y="42px" /><rect fill="rgb(107,107,107)" height="3px" width="3px" x="6px" y="42px" /><rect fill="rgb(102,102,102)" height="3px" width="3px" x="8px" y="42px" /><rect fill="rgb(106,106,106)" height="3px" width="3px" x="10px" y="42px" /><rect fill="rgb(109,109,109)" height="3px" width="3px" x="12px" y="42px" /><rect fill="rgb(109,109,109)" height="3px" width="3px" x="14px" y="42px" /><rect fill="rgb(106,106,106)" height="3px" width="3px" x="16px" y="42px" /><rect fill="rgb(108,108,108)" height="3px" width="3px" x="18px" y="42px" /><rect fill="rgb(106,106,106)" height="3px" width="3px" x="20px" y="42px" /><rect fill="rgb(104,104,104)" height="3px" width="3px" x="22px" y="42px" /><rect fill="rgb(55,55,55)" height="3px" width="3px" x="24px" y="42px" /><rect fill="rgb(105,105,105)" height="3px" width="3px" x="26px" y="42px" /><rect fill="rgb(103,103,103)" height="3px" width="3px" x="28px" y="42px" /><rect fill="rgb(96,96,96)" height="3px" width="3px" x="30px" y="42px" /><rect fill="rgb(67,67,67)" height="3px" width="3px" x="32px" y="42px" /><rect fill="rgb(62,62,62)" height="3px" width="3px" x="34px" y="42px" /><rect fill="rgb(102,102,102)" height="3px" width="3px" x="36px" y="42px" /><rect fill="rgb(55,55,55)" height="3px" width="3px" x="38px" y="42px" /><rect fill="rgb(103,103,103)" height="3px" width="3px" x="40px" y="42px" /><rect fill="rgb(97,97,97)" height="3px" width="3px" x="42px" y="42px" /><rect fill="rgb(105,105,105)" height="3px" width="3px" x="44px" y="42px" /><rect fill="rgb(106,106,106)" height="3px" width="3px" x="46px" y="42px" /><rect fill="rgb(103,103,103)" height="3px" width="3px" x="48px" y="42px" /><rect fill="rgb(103,103,103)" height="3px" width="3px" x="50px" y="42px" /><rect fill="rgb(107,107,107)" height="3px" width="3px" x="52px" y="42px" /><rect fill="rgb(106,106,106)" height="3px" width="3px" x="54px" y="42px" /><rect fill="rgb(106,106,106)" height="3px" width="3px" x="56px" y="42px" /><rect fill="rgb(55,55,55)" height="3px" width="3px" x="58px" y="42px" /><rect fill="rgb(55,55,55)" height="3px" width="3px" x="4px" y="44px" /><rect fill="rgb(107,107,107)" height="3px" width="3px" x="6px" y="44px" /><rect fill="rgb(106,106,106)" height="3px" width="3px" x="8px" y="44px" /><rect fill="rgb(106,106,106)" height="3px" width="3px" x="10px" y="44px" /><rect fill="rgb(109,109,109)" height="3px" width="3px" x="12px" y="44px" /><rect fill="rgb(109,109,109)" height="3px" width="3px" x="14px" y="44px" /><rect fill="rgb(105,105,105)" height="3px" width="3px" x="16px" y="44px" /><rect fill="rgb(107,107,107)" height="3px" width="3px" x="18px" y="44px" /><rect fill="rgb(106,106,106)" height="3px" width="3px" x="20px" y="44px" /><rect fill="rgb(108,108,108)" height="3px" width="3px" x="22px" y="44px" /><rect fill="rgb(55,55,55)" height="3px" width="3px" x="24px" y="44px" /><rect fill="rgb(109,109,109)" height="3px" width="3px" x="26px" y="44px" /><rect fill="rgb(103,103,103)" height="3px" width="3px" x="28px" y="44px" /><rect fill="rgb(94,94,94)" height="3px" width="3px" x="30px" y="44px" /><rect fill="rgb(96,96,96)" height="3px" width="3px" x="32px" y="44px" /><rect fill="rgb(104,104,104)" height="3px" width="3px" x="34px" y="44px" /><rect fill="rgb(109,109,109)" height="3px" width="3px" x="36px" y="44px" /><rect fill="rgb(55,55,55)" height="3px" width="3px" x="38px" y="44px" /><rect fill="rgb(109,109,109)" height="3px" width="3px" x="40px" y="44px" /><rect fill="rgb(73,73,73)" height="3px" width="3px" x="42px" y="44px" /><rect fill="rgb(76,76,76)" height="3px" width="3px" x="44px" y="44px" /><rect fill="rgb(109,109,109)" height="3px" width="3px" x="46px" y="44px" /><rect fill="rgb(106,106,106)" height="3px" width="3px" x="48px" y="44px" /><rect fill="rgb(106,106,106)" height="3px" width="3px" x="50px" y="44px" /><rect fill="rgb(108,108,108)" height="3px" width="3px" x="52px" y="44px" /><rect fill="rgb(107,107,107)" height="3px" width="3px" x="54px" y="44px" /><rect fill="rgb(108,108,108)" height="3px" width="3px" x="56px" y="44px" /><rect fill="rgb(55,55,55)" height="3px" width="3px" x="58px" y="44px" /><rect fill="rgb(55,55,55)" height="3px" width="3px" x="4px" y="46px" /><rect fill="rgb(106,106,106)" height="3px" width="3px" x="6px" y="46px" /><rect fill="rgb(81,81,81)" height="3px" width="3px" x="8px" y="46px" /><rect fill="rgb(83,83,83)" height="3px" width="3px" x="10px" y="46px" /><rect fill="rgb(109,109,109)" height="3px" width="3px" x="12px" y="46px" /><rect fill="rgb(109,109,109)" height="3px" width="3px" x="14px" y="46px" /><rect fill="rgb(104,104,104)" height="3px" width="3px" x="16px" y="46px" /><rect fill="rgb(108,108,108)" height="3px" width="3px" x="18px" y="46px" /><rect fill="rgb(109,109,109)" height="3px" width="3px" x="20px" y="46px" /><rect fill="rgb(109,109,109)" height="3px" width="3px" x="22px" y="46px" /><rect fill="rgb(55,55,55)" height="3px" width="3px" x="24px" y="46px" /><rect fill="rgb(107,107,107)" height="3px" width="3px" x="26px" y="46px" /><rect fill="rgb(102,102,102)" height="3px" width="3px" x="28px" y="46px" /><rect fill="rgb(15,15,15)" height="3px" width="3px" x="30px" y="46px" /><rect fill="rgb(0,0,0)" height="3px" width="3px" x="32px" y="46px" /><rect fill="rgb(109,109,109)" height="3px" width="3px" x="34px" y="46px" /><rect fill="rgb(109,109,109)" height="3px" width="3px" x="36px" y="46px" /><rect fill="rgb(55,55,55)" height="3px" width="3px" x="38px" y="46px" /><rect fill="rgb(106,106,106)" height="3px" width="3px" x="40px" y="46px" /><rect fill="rgb(106,106,106)" height="3px" width="3px" x="42px" y="46px" /><rect fill="rgb(104,104,104)" height="3px" width="3px" x="44px" y="46px" /><rect fill="rgb(104,104,104)" height="3px" width="3px" x="46px" y="46px" /><rect fill="rgb(105,105,105)" height="3px" width="3px" x="48px" y="46px" /><rect fill="rgb(102,102,102)" height="3px" width="3px" x="50px" y="46px" /><rect fill="rgb(104,104,104)" height="3px" width="3px" x="52px" y="46px" /><rect fill="rgb(103,103,103)" height="3px" width="3px" x="54px" y="46px" /><rect fill="rgb(107,107,107)" height="3px" width="3px" x="56px" y="46px" /><rect fill="rgb(55,55,55)" height="3px" width="3px" x="58px" y="46px" /><rect fill="rgb(55,55,55)" height="3px" width="3px" x="4px" y="48px" /><rect fill="rgb(107,107,107)" height="3px" width="3px" x="6px" y="48px" /><rect fill="rgb(107,107,107)" height="3px" width="3px" x="8px" y="48px" /><rect fill="rgb(106,106,106)" height="3px" width="3px" x="10px" y="48px" /><rect fill="rgb(103,103,103)" height="3px" width="3px" x="12px" y="48px" /><rect fill="rgb(109,109,109)" height="3px" width="3px" x="14px" y="48px" /><rect fill="rgb(107,107,107)" height="3px" width="3px" x="16px" y="48px" /><rect fill="rgb(105,105,105)" height="3px" width="3px" x="18px" y="48px" /><rect fill="rgb(107,107,107)" height="3px" width="3px" x="20px" y="48px" /><rect fill="rgb(109,109,109)" height="3px" width="3px" x="22px" y="48px" /><rect fill="rgb(55,55,55)" height="3px" width="3px" x="24px" y="48px" /><rect fill="rgb(103,103,103)" height="3px" width="3px" x="26px" y="48px" /><rect fill="rgb(13,13,13)" height="3px" width="3px" x="28px" y="48px" /><rect fill="rgb(7,7,7)" height="3px" width="3px" x="30px" y="48px" /><rect fill="rgb(7,7,7)" height="3px" width="3px" x="32px" y="48px" /><rect fill="rgb(12,12,12)" height="3px" width="3px" x="34px" y="48px" /><rect fill="rgb(107,107,107)" height="3px" width="3px" x="36px" y="48px" /><rect fill="rgb(55,55,55)" height="3px" width="3px" x="38px" y="48px" /><rect fill="rgb(106,106,106)" height="3px" width="3px" x="40px" y="48px" /><rect fill="rgb(104,104,104)" height="3px" width="3px" x="42px" y="48px" /><rect fill="rgb(98,98,98)" height="3px" width="3px" x="44px" y="48px" /><rect fill="rgb(99,99,99)" height="3px" width="3px" x="46px" y="48px" /><rect fill="rgb(103,103,103)" height="3px" width="3px" x="48px" y="48px" /><rect fill="rgb(102,102,102)" height="3px" width="3px" x="50px" y="48px" /><rect fill="rgb(77,77,77)" height="3px" width="3px" x="52px" y="48px" /><rect fill="rgb(78,78,78)" height="3px" width="3px" x="54px" y="48px" /><rect fill="rgb(108,108,108)" height="3px" width="3px" x="56px" y="48px" /><rect fill="rgb(55,55,55)" height="3px" width="3px" x="58px" y="48px" /><rect fill="rgb(55,55,55)" height="3px" width="3px" x="4px" y="50px" /><rect fill="rgb(109,109,109)" height="3px" width="3px" x="6px" y="50px" /><rect fill="rgb(109,109,109)" height="3px" width="3px" x="8px" y="50px" /><rect fill="rgb(106,106,106)" height="3px" width="3px" x="10px" y="50px" /><rect fill="rgb(95,95,95)" height="3px" width="3px" x="12px" y="50px" /><rect fill="rgb(97,97,97)" height="3px" width="3px" x="14px" y="50px" /><rect fill="rgb(99,99,99)" height="3px" width="3px" x="16px" y="50px" /><rect fill="rgb(84,84,84)" height="3px" width="3px" x="18px" y="50px" /><rect fill="rgb(87,87,87)" height="3px" width="3px" x="20px" y="50px" /><rect fill="rgb(109,109,109)" height="3px" width="3px" x="22px" y="50px" /><rect fill="rgb(55,55,55)" height="3px" width="3px" x="24px" y="50px" /><rect fill="rgb(107,107,107)" height="3px" width="3px" x="26px" y="50px" /><rect fill="rgb(12,12,12)" height="3px" width="3px" x="28px" y="50px" /><rect fill="rgb(9,9,9)" height="3px" width="3px" x="30px" y="50px" /><rect fill="rgb(2,2,2)" height="3px" width="3px" x="32px" y="50px" /><rect fill="rgb(5,5,5)" height="3px" width="3px" x="34px" y="50px" /><rect fill="rgb(107,107,107)" height="3px" width="3px" x="36px" y="50px" /><rect fill="rgb(55,55,55)" height="3px" width="3px" x="38px" y="50px" /><rect fill="rgb(106,106,106)" height="3px" width="3px" x="40px" y="50px" /><rect fill="rgb(103,103,103)" height="3px" width="3px" x="42px" y="50px" /><rect fill="rgb(97,97,97)" height="3px" width="3px" x="44px" y="50px" /><rect fill="rgb(101,101,101)" height="3px" width="3px" x="46px" y="50px" /><rect fill="rgb(96,96,96)" height="3px" width="3px" x="48px" y="50px" /><rect fill="rgb(100,100,100)" height="3px" width="3px" x="50px" y="50px" /><rect fill="rgb(105,105,105)" height="3px" width="3px" x="52px" y="50px" /><rect fill="rgb(106,106,106)" height="3px" width="3px" x="54px" y="50px" /><rect fill="rgb(106,106,106)" height="3px" width="3px" x="56px" y="50px" /><rect fill="rgb(55,55,55)" height="3px" width="3px" x="58px" y="50px" /><rect fill="rgb(55,55,55)" height="3px" opacity="0.0117647058824" width="3px" x="60px" y="50px" /><rect fill="rgb(55,55,55)" height="3px" width="3px" x="4px" y="52px" /><rect fill="rgb(108,108,108)" height="3px" width="3px" x="6px" y="52px" /><rect fill="rgb(108,108,108)" height="3px" width="3px" x="8px" y="52px" /><rect fill="rgb(108,108,108)" height="3px" width="3px" x="10px" y="52px" /><rect fill="rgb(102,102,102)" height="3px" width="3px" x="12px" y="52px" /><rect fill="rgb(98,98,98)" height="3px" width="3px" x="14px" y="52px" /><rect fill="rgb(101,101,101)" height="3px" width="3px" x="16px" y="52px" /><rect fill="rgb(101,101,101)" height="3px" width="3px" x="18px" y="52px" /><rect fill="rgb(106,106,106)" height="3px" width="3px" x="20px" y="52px" /><rect fill="rgb(105,105,105)" height="3px" width="3px" x="22px" y="52px" /><rect fill="rgb(55,55,55)" height="3px" width="3px" x="24px" y="52px" /><rect fill="rgb(106,106,106)" height="3px" width="3px" x="26px" y="52px" /><rect fill="rgb(17,17,17)" height="3px" width="3px" x="28px" y="52px" /><rect fill="rgb(8,8,8)" height="3px" width="3px" x="30px" y="52px" /><rect fill="rgb(0,0,0)" height="3px" width="3px" x="32px" y="52px" /><rect fill="rgb(9,9,9)" height="3px" width="3px" x="34px" y="52px" /><rect fill="rgb(107,107,107)" height="3px" width="3px" x="36px" y="52px" /><rect fill="rgb(55,55,55)" height="3px" width="3px" x="38px" y="52px" /><rect fill="rgb(106,106,106)" height="3px" width="3px" x="40px" y="52px" /><rect fill="rgb(106,106,106)" height="3px" width="3px" x="42px" y="52px" /><rect fill="rgb(107,107,107)" height="3px" width="3px" x="44px" y="52px" /><rect fill="rgb(71,71,71)" height="3px" width="3px" x="46px" y="52px" /><rect fill="rgb(73,73,73)" height="3px" width="3px" x="48px" y="52px" /><rect fill="rgb(108,108,108)" height="3px" width="3px" x="50px" y="52px" /><rect fill="rgb(106,106,106)" height="3px" width="3px" x="52px" y="52px" /><rect fill="rgb(105,105,105)" height="3px" width="3px" x="54px" y="52px" /><rect fill="rgb(107,107,107)" height="3px" width="3px" x="56px" y="52px" /><rect fill="rgb(55,55,55)" height="3px" width="3px" x="58px" y="52px" /><rect fill="rgb(55,55,55)" height="3px" width="3px" x="4px" y="54px" /><rect fill="rgb(107,107,107)" height="3px" width="3px" x="6px" y="54px" /><rect fill="rgb(106,106,106)" height="3px" width="3px" x="8px" y="54px" /><rect fill="rgb(105,105,105)" height="3px" width="3px" x="10px" y="54px" /><rect fill="rgb(101,101,101)" height="3px" width="3px" x="12px" y="54px" /><rect fill="rgb(103,103,103)" height="3px" width="3px" x="14px" y="54px" /><rect fill="rgb(102,102,102)" height="3px" width="3px" x="16px" y="54px" /><rect fill="rgb(101,101,101)" height="3px" width="3px" x="18px" y="54px" /><rect fill="rgb(99,99,99)" height="3px" width="3px" x="20px" y="54px" /><rect fill="rgb(100,100,100)" height="3px" width="3px" x="22px" y="54px" /><rect fill="rgb(55,55,55)" height="3px" width="3px" x="24px" y="54px" /><rect fill="rgb(106,106,106)" height="3px" width="3px" x="26px" y="54px" /><rect fill="rgb(12,12,12)" height="3px" width="3px" x="28px" y="54px" /><rect fill="rgb(8,8,8)" height="3px" width="3px" x="30px" y="54px" /><rect fill="rgb(10,10,10)" height="3px" width="3px" x="32px" y="54px" /><rect fill="rgb(13,13,13)" height="3px" width="3px" x="34px" y="54px" /><rect fill="rgb(106,106,106)" height="3px" width="3px" x="36px" y="54px" /><rect fill="rgb(55,55,55)" height="3px" width="3px" x="38px" y="54px" /><rect fill="rgb(99,99,99)" height="3px" width="3px" x="40px" y="54px" /><rect fill="rgb(102,102,102)" height="3px" width="3px" x="42px" y="54px" /><rect fill="rgb(102,102,102)" height="3px" width="3px" x="44px" y="54px" /><rect fill="rgb(102,102,102)" height="3px" width="3px" x="46px" y="54px" /><rect fill="rgb(102,102,102)" height="3px" width="3px" x="48px" y="54px" /><rect fill="rgb(100,100,100)" height="3px" width="3px" x="50px" y="54px" /><rect fill="rgb(100,100,100)" height="3px" width="3px" x="52px" y="54px" /><rect fill="rgb(101,101,101)" height="3px" width="3px" x="54px" y="54px" /><rect fill="rgb(106,106,106)" height="3px" width="3px" x="56px" y="54px" /><rect fill="rgb(55,55,55)" height="3px" width="3px" x="58px" y="54px" /><rect fill="rgb(55,55,55)" height="3px" width="3px" x="4px" y="56px" /><rect fill="rgb(109,109,109)" height="3px" width="3px" x="6px" y="56px" /><rect fill="rgb(106,106,106)" height="3px" width="3px" x="8px" y="56px" /><rect fill="rgb(107,107,107)" height="3px" width="3px" x="10px" y="56px" /><rect fill="rgb(109,109,109)" height="3px" width="3px" x="12px" y="56px" /><rect fill="rgb(106,106,106)" height="3px" width="3px" x="14px" y="56px" /><rect fill="rgb(105,105,105)" height="3px" width="3px" x="16px" y="56px" /><rect fill="rgb(106,106,106)" height="3px" width="3px" x="18px" y="56px" /><rect fill="rgb(107,107,107)" height="3px" width="3px" x="20px" y="56px" /><rect fill="rgb(108,108,108)" height="3px" width="3px" x="22px" y="56px" /><rect fill="rgb(55,55,55)" height="3px" width="3px" x="24px" y="56px" /><rect fill="rgb(108,108,108)" height="3px" width="3px" x="26px" y="56px" /><rect fill="rgb(0,0,0)" height="3px" width="3px" x="28px" y="56px" /><rect fill="rgb(0,0,0)" height="3px" width="3px" x="30px" y="56px" /><rect fill="rgb(0,0,0)" height="3px" width="3px" x="32px" y="56px" /><rect fill="rgb(0,0,0)" height="3px" width="3px" x="34px" y="56px" /><rect fill="rgb(106,106,106)" height="3px" width="3px" x="36px" y="56px" /><rect fill="rgb(55,55,55)" height="3px" width="3px" x="38px" y="56px" /><rect fill="rgb(105,105,105)" height="3px" width="3px" x="40px" y="56px" /><rect fill="rgb(105,105,105)" height="3px" width="3px" x="42px" y="56px" /><rect fill="rgb(103,103,103)" height="3px" width="3px" x="44px" y="56px" /><rect fill="rgb(101,101,101)" height="3px" width="3px" x="46px" y="56px" /><rect fill="rgb(103,103,103)" height="3px" width="3px" x="48px" y="56px" /><rect fill="rgb(102,102,102)" height="3px" width="3px" x="50px" y="56px" /><rect fill="rgb(107,107,107)" height="3px" width="3px" x="52px" y="56px" /><rect fill="rgb(106,106,106)" height="3px" width="3px" x="54px" y="56px" /><rect fill="rgb(109,109,109)" height="3px" width="3px" x="56px" y="56px" /><rect fill="rgb(55,55,55)" height="3px" width="3px" x="58px" y="56px" /><rect fill="rgb(55,55,55)" height="3px" width="3px" x="4px" y="58px" /><rect fill="rgb(55,55,55)" height="3px" width="3px" x="6px" y="58px" /><rect fill="rgb(55,55,55)" height="3px" width="3px" x="8px" y="58px" /><rect fill="rgb(55,55,55)" height="3px" width="3px" x="10px" y="58px" /><rect fill="rgb(55,55,55)" height="3px" width="3px" x="12px" y="58px" /><rect fill="rgb(55,55,55)" height="3px" width="3px" x="14px" y="58px" /><rect fill="rgb(55,55,55)" height="3px" width="3px" x="16px" y="58px" /><rect fill="rgb(55,55,55)" height="3px" width="3px" x="18px" y="58px" /><rect fill="rgb(55,55,55)" height="3px" width="3px" x="20px" y="58px" /><rect fill="rgb(55,55,55)" height="3px" width="3px" x="22px" y="58px" /><rect fill="rgb(55,55,55)" height="3px" width="3px" x="24px" y="58px" /><rect fill="rgb(55,55,55)" height="3px" width="3px" x="26px" y="58px" /><rect fill="rgb(55,55,55)" height="3px" width="3px" x="28px" y="58px" /><rect fill="rgb(55,55,55)" height="3px" width="3px" x="30px" y="58px" /><rect fill="rgb(55,55,55)" height="3px" width="3px" x="32px" y="58px" /><rect fill="rgb(55,55,55)" height="3px" width="3px" x="34px" y="58px" /><rect fill="rgb(55,55,55)" height="3px" width="3px" x="36px" y="58px" /><rect fill="rgb(55,55,55)" height="3px" width="3px" x="38px" y="58px" /><rect fill="rgb(55,55,55)" height="3px" width="3px" x="40px" y="58px" /><rect fill="rgb(55,55,55)" height="3px" width="3px" x="42px" y="58px" /><rect fill="rgb(55,55,55)" height="3px" width="3px" x="44px" y="58px" /><rect fill="rgb(55,55,55)" height="3px" width="3px" x="46px" y="58px" /><rect fill="rgb(55,55,55)" height="3px" width="3px" x="48px" y="58px" /><rect fill="rgb(55,55,55)" height="3px" width="3px" x="50px" y="58px" /><rect fill="rgb(55,55,55)" height="3px" width="3px" x="52px" y="58px" /><rect fill="rgb(55,55,55)" height="3px" width="3px" x="54px" y="58px" /><rect fill="rgb(55,55,55)" height="3px" width="3px" x="56px" y="58px" /><rect fill="rgb(55,55,55)" height="3px" width="3px" x="58px" y="58px" /></svg>