<?xml version="1.0" encoding="utf-8" ?>
<svg baseProfile="full" height="64px" version="1.1" width="64px" xmlns="http://www.w3.org/2000/svg" xmlns:ev="http://www.w3.org/2001/xml-events" xmlns:xlink="http://www.w3.org/1999/xlink"><defs /><rect fill="rgb(106,106,82)" height="3px" opacity="0.0117647058824" width="3px" x="46px" y="2px" /><rect fill="rgb(108,108,82)" height="3px" width="3px" x="48px" y="2px" /><rect fill="rgb(106,106,82)" height="3px" opacity="0.0235294117647" width="3px" x="46px" y="4px" /><rect fill="rgb(114,114,84)" height="3px" width="3px" x="48px" y="4px" /><rect fill="rgb(106,106,82)" height="3px" opacity="0.0078431372549" width="3px" x="50px" y="4px" /><rect fill="rgb(106,106,82)" height="3px" opacity="0.0470588235294" width="3px" x="46px" y="6px" /><rect fill="rgb(116,116,85)" height="3px" width="3px" x="48px" y="6px" /><rect fill="rgb(106,106,82)" height="3px" opacity="0.0274509803922" width="3px" x="50px" y="6px" /><rect fill="rgb(106,106,82)" height="3px" opacity="0.0470588235294" width="3px" x="46px" y="8px" /><rect fill="rgb(115,115,84)" height="3px" width="3px" x="48px" y="8px" /><rect fill="rgb(106,106,82)" height="3px" opacity="0.0588235294118" width="3px" x="50px" y="8px" /><rect fill="rgb(91,91,83)" height="3px" width="3px" x="18px" y="10px" /><rect fill="rgb(91,91,83)" height="3px" width="3px" x="20px" y="10px" /><rect fill="rgb(88,88,80)" height="3px" width="3px" x="22px" y="10px" /><rect fill="rgb(86,86,78)" height="3px" width="3px" x="24px" y="10px" /><rect fill="rgb(89,89,81)" height="3px" width="3px" x="26px" y="10px" /><rect fill="rgb(88,88,80)" height="3px" width="3px" x="28px" y="10px" /><rect fill="rgb(89,89,81)" height="3px" width="3px" x="30px" y="10px" /><rect fill="rgb(87,87,80)" height="3px" width="3px" x="32px" y="10px" /><rect fill="rgb(86,86,79)" height="3px" width="3px" x="34px" y="10px" /><rect fill="rgb(106,106,82)" height="3px" opacity="0.0509803921569" width="3px" x="46px" y="10px" /><rect fill="rgb(112,112,83)" height="3px" width="3px" x="48px" y="10px" /><rect fill="rgb(106,106,82)" height="3px" opacity="0.0588235294118" width="3px" x="50px" y="10px" /><rect fill="rgb(87,87,80)" height="3px" width="3px" x="18px" y="12px" /><rect fill="rgb(86,86,80)" height="3px" width="3px" x="20px" y="12px" /><rect fill="rgb(84,84,78)" height="3px" width="3px" x="22px" y="12px" /><rect fill="rgb(87,87,80)" height="3px" width="3px" x="24px" y="12px" /><rect fill="rgb(87,87,79)" height="3px" width="3px" x="26px" y="12px" /><rect fill="rgb(85,85,78)" height="3px" width="3px" x="28px" y="12px" /><rect fill="rgb(86,86,78)" height="3px" width="3px" x="30px" y="12px" /><rect fill="rgb(79,79,73)" height="3px" width="3px" x="32px" y="12px" /><rect fill="rgb(88,88,81)" height="3px" width="3px" x="34px" y="12px" /><rect fill="rgb(106,106,82)" height="3px" opacity="0.0627450980392" width="3px" x="46px" y="12px" /><rect fill="rgb(116,116,85)" height="3px" width="3px" x="48px" y="12px" /><rect fill="rgb(106,106,82)" height="3px" opacity="0.0549019607843" width="3px" x="50px" y="12px" /><rect fill="rgb(77,77,72)" height="3px" width="3px" x="18px" y="14px" /><rect fill="rgb(18,18,4)" height="3px" width="3px" x="20px" y="14px" /><rect fill="rgb(73,73,68)" height="3px" width="3px" x="22px" y="14px" /><rect fill="rgb(76,76,69)" height="3px" width="3px" x="24px" y="14px" /><rect fill="rgb(18,18,4)" height="3px" width="3px" x="26px" y="14px" /><rect fill="rgb(77,77,71)" height="3px" width="3px" x="28px" y="14px" /><rect fill="rgb(76,76,70)" height="3px" width="3px" x="30px" y="14px" /><rect fill="rgb(18,18,4)" height="3px" width="3px" x="32px" y="14px" /><rect fill="rgb(86,86,78)" height="3px" width="3px" x="34px" y="14px" /><rect fill="rgb(106,106,82)" height="3px" opacity="0.0274509803922" width="3px" x="44px" y="14px" /><rect fill="rgb(106,106,82)" height="3px" opacity="0.0823529411765" width="3px" x="46px" y="14px" /><rect fill="rgb(113,113,84)" height="3px" width="3px" x="48px" y="14px" /><rect fill="rgb(106,106,82)" height="3px" opacity="0.0823529411765" width="3px" x="50px" y="14px" /><rect fill="rgb(86,86,78)" height="3px" width="3px" x="18px" y="16px" /><rect fill="rgb(83,83,75)" height="3px" width="3px" x="20px" y="16px" /><rect fill="rgb(83,83,75)" height="3px" width="3px" x="22px" y="16px" /><rect fill="rgb(83,83,75)" height="3px" width="3px" x="24px" y="16px" /><rect fill="rgb(83,83,75)" height="3px" width="3px" x="26px" y="16px" /><rect fill="rgb(85,85,77)" height="3px" width="3px" x="28px" y="16px" /><rect fill="rgb(79,79,73)" height="3px" width="3px" x="30px" y="16px" /><rect fill="rgb(84,84,78)" height="3px" width="3px" x="32px" y="16px" /><rect fill="rgb(90,90,82)" height="3px" width="3px" x="34px" y="16px" /><rect fill="rgb(123,123,86)" height="3px" width="3px" x="44px" y="16px" /><rect fill="rgb(123,123,86)" height="3px" width="3px" x="46px" y="16px" /><rect fill="rgb(124,124,87)" height="3px" width="3px" x="48px" y="16px" /><rect fill="rgb(125,125,88)" height="3px" width="3px" x="50px" y="16px" /><rect fill="rgb(126,126,88)" height="3px" width="3px" x="52px" y="16px" /><rect fill="rgb(106,106,82)" height="3px" opacity="0.0156862745098" width="3px" x="54px" y="16px" /><rect fill="rgb(106,106,82)" height="3px" opacity="0.0156862745098" width="3px" x="56px" y="16px" /><rect fill="rgb(86,86,78)" height="3px" width="3px" x="18px" y="18px" /><rect fill="rgb(85,85,77)" height="3px" width="3px" x="20px" y="18px" /><rect fill="rgb(86,86,78)" height="3px" width="3px" x="22px" y="18px" /><rect fill="rgb(83,83,76)" height="3px" width="3px" x="24px" y="18px" /><rect fill="rgb(82,82,75)" height="3px" width="3px" x="26px" y="18px" /><rect fill="rgb(74,74,69)" height="3px" width="3px" x="28px" y="18px" /><rect fill="rgb(79,79,73)" height="3px" width="3px" x="30px" y="18px" /><rect fill="rgb(83,83,76)" height="3px" width="3px" x="32px" y="18px" /><rect fill="rgb(89,89,81)" height="3px" width="3px" x="34px" y="18px" /><rect fill="rgb(106,106,82)" height="3px" opacity="0.0549019607843" width="3px" x="42px" y="18px" /><rect fill="rgb(123,123,86)" height="3px" width="3px" x="44px" y="18px" /><rect fill="rgb(123,123,86)" height="3px" width="3px" x="46px" y="18px" /><rect fill="rgb(121,121,86)" height="3px" width="3px" x="48px" y="18px" /><rect fill="rgb(123,123,87)" height="3px" width="3px" x="50px" y="18px" /><rect fill="rgb(124,124,88)" height="3px" width="3px" x="52px" y="18px" /><rect fill="rgb(106,106,82)" height="3px" opacity="0.0470588235294" width="3px" x="54px" y="18px" /><rect fill="rgb(100,100,77)" height="3px" opacity="0.0313725490196" width="3px" x="56px" y="18px" /><rect fill="rgb(101,101,78)" height="3px" opacity="0.0352941176471" width="3px" x="58px" y="18px" /><rect fill="rgb(84,84,76)" height="3px" width="3px" x="18px" y="20px" /><rect fill="rgb(87,87,79)" height="3px" width="3px" x="20px" y="20px" /><rect fill="rgb(84,84,77)" height="3px" width="3px" x="22px" y="20px" /><rect fill="rgb(80,80,74)" height="3px" width="3px" x="24px" y="20px" /><rect fill="rgb(83,83,75)" height="3px" width="3px" x="26px" y="20px" /><rect fill="rgb(79,79,73)" height="3px" width="3px" x="28px" y="20px" /><rect fill="rgb(90,90,82)" height="3px" width="3px" x="30px" y="20px" /><rect fill="rgb(85,85,77)" height="3px" width="3px" x="32px" y="20px" /><rect fill="rgb(89,89,81)" height="3px" width="3px" x="34px" y="20px" /><rect fill="rgb(106,106,82)" height="3px" opacity="0.0666666666667" width="3px" x="40px" y="20px" /><rect fill="rgb(106,106,82)" height="3px" opacity="0.0745098039216" width="3px" x="42px" y="20px" /><rect fill="rgb(125,125,88)" height="3px" width="3px" x="44px" y="20px" /><rect fill="rgb(74,74,55)" height="3px" width="3px" x="46px" y="20px" /><rect fill="rgb(122,122,87)" height="3px" width="3px" x="48px" y="20px" /><rect fill="rgb(74,74,55)" height="3px" width="3px" x="50px" y="20px" /><rect fill="rgb(124,124,88)" height="3px" width="3px" x="52px" y="20px" /><rect fill="rgb(106,106,82)" height="3px" opacity="0.0666666666667" width="3px" x="54px" y="20px" /><rect fill="rgb(99,99,76)" height="3px" opacity="0.0980392156863" width="3px" x="56px" y="20px" /><rect fill="rgb(92,92,70)" height="3px" opacity="0.0549019607843" width="3px" x="58px" y="20px" /><rect fill="rgb(85,85,78)" height="3px" width="3px" x="18px" y="22px" /><rect fill="rgb(18,18,4)" height="3px" width="3px" x="20px" y="22px" /><rect fill="rgb(84,84,77)" height="3px" width="3px" x="22px" y="22px" /><rect fill="rgb(84,84,76)" height="3px" width="3px" x="24px" y="22px" /><rect fill="rgb(18,18,4)" height="3px" width="3px" x="26px" y="22px" /><rect fill="rgb(82,82,75)" height="3px" width="3px" x="28px" y="22px" /><rect fill="rgb(88,88,80)" height="3px" width="3px" x="30px" y="22px" /><rect fill="rgb(18,18,4)" height="3px" width="3px" x="32px" y="22px" /><rect fill="rgb(88,88,80)" height="3px" width="3px" x="34px" y="22px" /><rect fill="rgb(106,106,82)" height="3px" opacity="0.0549019607843" width="3px" x="40px" y="22px" /><rect fill="rgb(106,106,82)" height="3px" opacity="0.0470588235294" width="3px" x="42px" y="22px" /><rect fill="rgb(120,120,87)" height="3px" width="3px" x="44px" y="22px" /><rect fill="rgb(122,122,87)" height="3px" width="3px" x="46px" y="22px" /><rect fill="rgb(118,118,85)" height="3px" width="3px" x="48px" y="22px" /><rect fill="rgb(120,120,87)" height="3px" width="3px" x="50px" y="22px" /><rect fill="rgb(122,122,87)" height="3px" width="3px" x="52px" y="22px" /><rect fill="rgb(106,106,82)" height="3px" opacity="0.121568627451" width="3px" x="54px" y="22px" /><rect fill="rgb(84,84,64)" height="3px" opacity="0.0941176470588" width="3px" x="56px" y="22px" /><rect fill="rgb(84,84,77)" height="3px" width="3px" x="18px" y="24px" /><rect fill="rgb(84,84,76)" height="3px" width="3px" x="20px" y="24px" /><rect fill="rgb(86,86,78)" height="3px" width="3px" x="22px" y="24px" /><rect fill="rgb(81,81,74)" height="3px" width="3px" x="24px" y="24px" /><rect fill="rgb(83,83,76)" height="3px" width="3px" x="26px" y="24px" /><rect fill="rgb(86,86,78)" height="3px" width="3px" x="28px" y="24px" /><rect fill="rgb(86,86,78)" height="3px" width="3px" x="30px" y="24px" /><rect fill="rgb(84,84,77)" height="3px" width="3px" x="32px" y="24px" /><rect fill="rgb(84,84,76)" height="3px" width="3px" x="34px" y="24px" /><rect fill="rgb(106,106,82)" height="3px" opacity="0.0666666666667" width="3px" x="40px" y="24px" /><rect fill="rgb(106,106,82)" height="3px" opacity="0.0235294117647" width="3px" x="42px" y="24px" /><rect fill="rgb(121,121,87)" height="3px" width="3px" x="44px" y="24px" /><rect fill="rgb(120,120,85)" height="3px" width="3px" x="46px" y="24px" /><rect fill="rgb(122,122,86)" height="3px" width="3px" x="48px" y="24px" /><rect fill="rgb(122,122,86)" height="3px" width="3px" x="50px" y="24px" /><rect fill="rgb(123,123,87)" height="3px" width="3px" x="52px" y="24px" /><rect fill="rgb(89,89,68)" height="3px" opacity="0.0901960784314" width="3px" x="54px" y="24px" /><rect fill="rgb(87,87,67)" height="3px" opacity="0.0196078431373" width="3px" x="56px" y="24px" /><rect fill="rgb(90,90,83)" height="3px" width="3px" x="18px" y="26px" /><rect fill="rgb(86,86,78)" height="3px" width="3px" x="20px" y="26px" /><rect fill="rgb(82,82,74)" height="3px" width="3px" x="22px" y="26px" /><rect fill="rgb(87,87,79)" height="3px" width="3px" x="24px" y="26px" /><rect fill="rgb(85,85,78)" height="3px" width="3px" x="26px" y="26px" /><rect fill="rgb(85,85,78)" height="3px" width="3px" x="28px" y="26px" /><rect fill="rgb(83,83,75)" height="3px" width="3px" x="30px" y="26px" /><rect fill="rgb(85,85,77)" height="3px" width="3px" x="32px" y="26px" /><rect fill="rgb(85,85,78)" height="3px" width="3px" x="34px" y="26px" /><rect fill="rgb(106,106,82)" height="3px" opacity="0.078431372549" width="3px" x="42px" y="26px" /><rect fill="rgb(119,119,86)" height="3px" width="3px" x="44px" y="26px" /><rect fill="rgb(123,123,88)" height="3px" width="3px" x="46px" y="26px" /><rect fill="rgb(118,118,83)" height="3px" width="3px" x="48px" y="26px" /><rect fill="rgb(123,123,87)" height="3px" width="3px" x="50px" y="26px" /><rect fill="rgb(124,124,87)" height="3px" width="3px" x="52px" y="26px" /><rect fill="rgb(74,74,55)" height="3px" opacity="0.0352941176471" width="3px" x="54px" y="26px" /><rect fill="rgb(131,87,0)" height="3px" width="3px" x="4px" y="28px" /><rect fill="rgb(107,71,0)" height="3px" width="3px" x="6px" y="28px" /><rect fill="rgb(138,92,0)" height="3px" width="3px" x="8px" y="28px" /><rect fill="rgb(138,92,0)" height="3px" width="3px" x="10px" y="28px" /><rect fill="rgb(120,80,0)" height="3px" width="3px" x="12px" y="28px" /><rect fill="rgb(120,80,0)" height="3px" width="3px" x="14px" y="28px" /><rect fill="rgb(138,92,0)" height="3px" width="3px" x="16px" y="28px" /><rect fill="rgb(138,92,0)" height="3px" width="3px" x="18px" y="28px" /><rect fill="rgb(138,92,0)" height="3px" width="3px" x="20px" y="28px" /><rect fill="rgb(138,92,0)" height="3px" width="3px" x="22px" y="28px" /><rect fill="rgb(138,92,0)" height="3px" width="3px" x="24px" y="28px" /><rect fill="rgb(87,87,81)" height="3px" width="3px" x="26px" y="28px" /><rect fill="rgb(18,18,4)" height="3px" width="3px" x="28px" y="28px" /><rect fill="rgb(88,88,80)" height="3px" width="3px" x="30px" y="28px" /><rect fill="rgb(83,83,76)" height="3px" width="3px" x="32px" y="28px" /><rect fill="rgb(90,90,82)" height="3px" width="3px" x="34px" y="28px" /><rect fill="rgb(106,106,82)" height="3px" opacity="0.0117647058824" width="3px" x="42px" y="28px" /><rect fill="rgb(122,122,88)" height="3px" width="3px" x="44px" y="28px" /><rect fill="rgb(74,74,55)" height="3px" width="3px" x="46px" y="28px" /><rect fill="rgb(121,121,88)" height="3px" width="3px" x="48px" y="28px" /><rect fill="rgb(74,74,55)" height="3px" width="3px" x="50px" y="28px" /><rect fill="rgb(121,121,86)" height="3px" width="3px" x="52px" y="28px" /><rect fill="rgb(106,106,82)" height="3px" opacity="0.0352941176471" width="3px" x="54px" y="28px" /><rect fill="rgb(106,106,82)" height="3px" opacity="0.0862745098039" width="3px" x="56px" y="28px" /><rect fill="rgb(106,106,82)" height="3px" opacity="0.0117647058824" width="3px" x="58px" y="28px" /><rect fill="rgb(131,87,0)" height="3px" width="3px" x="4px" y="30px" /><rect fill="rgb(138,92,0)" height="3px" width="3px" x="6px" y="30px" /><rect fill="rgb(138,92,0)" height="3px" width="3px" x="8px" y="30px" /><rect fill="rgb(138,92,0)" height="3px" width="3px" x="10px" y="30px" /><rect fill="rgb(138,92,0)" height="3px" width="3px" x="12px" y="30px" /><rect fill="rgb(138,92,0)" height="3px" width="3px" x="14px" y="30px" /><rect fill="rgb(138,92,0)" height="3px" width="3px" x="16px" y="30px" /><rect fill="rgb(138,92,0)" height="3px" width="3px" x="18px" y="30px" /><rect fill="rgb(138,92,0)" height="3px" width="3px" x="20px" y="30px" /><rect fill="rgb(138,92,0)" height="3px" width="3px" x="22px" y="30px" /><rect fill="rgb(138,92,0)" height="3px" width="3px" x="24px" y="30px" /><rect fill="rgb(82,82,77)" height="3px" width="3px" x="26px" y="30px" /><rect fill="rgb(85,85,80)" height="3px" width="3px" x="28px" y="30px" /><rect fill="rgb(88,88,81)" height="3px" width="3px" x="30px" y="30px" /><rect fill="rgb(84,84,76)" height="3px" width="3px" x="32px" y="30px" /><rect fill="rgb(87,87,79)" height="3px" width="3px" x="34px" y="30px" /><rect fill="rgb(106,106,82)" height="3px" opacity="0.0666666666667" width="3px" x="38px" y="30px" /><rect fill="rgb(106,106,82)" height="3px" opacity="0.0352941176471" width="3px" x="40px" y="30px" /><rect fill="rgb(106,106,82)" height="3px" opacity="0.0352941176471" width="3px" x="42px" y="30px" /><rect fill="rgb(121,121,88)" height="3px" width="3px" x="44px" y="30px" /><rect fill="rgb(122,122,88)" height="3px" width="3px" x="46px" y="30px" /><rect fill="rgb(122,122,88)" height="3px" width="3px" x="48px" y="30px" /><rect fill="rgb(120,120,87)" height="3px" width="3px" x="50px" y="30px" /><rect fill="rgb(122,122,87)" height="3px" width="3px" x="52px" y="30px" /><rect fill="rgb(106,106,82)" height="3px" opacity="0.0980392156863" width="3px" x="54px" y="30px" /><rect fill="rgb(106,106,82)" height="3px" opacity="0.0352941176471" width="3px" x="56px" y="30px" /><rect fill="rgb(138,92,0)" height="3px" width="3px" x="4px" y="32px" /><rect fill="rgb(138,92,0)" height="3px" width="3px" x="6px" y="32px" /><rect fill="rgb(142,97,6)" height="3px" width="3px" x="8px" y="32px" /><rect fill="rgb(139,93,2)" height="3px" width="3px" x="10px" y="32px" /><rect fill="rgb(139,93,1)" height="3px" width="3px" x="12px" y="32px" /><rect fill="rgb(143,98,7)" height="3px" width="3px" x="14px" y="32px" /><rect fill="rgb(146,101,11)" height="3px" width="3px" x="16px" y="32px" /><rect fill="rgb(146,101,11)" height="3px" width="3px" x="18px" y="32px" /><rect fill="rgb(146,101,11)" height="3px" width="3px" x="20px" y="32px" /><rect fill="rgb(138,92,0)" height="3px" width="3px" x="22px" y="32px" /><rect fill="rgb(120,80,0)" height="3px" width="3px" x="24px" y="32px" /><rect fill="rgb(81,81,75)" height="3px" width="3px" x="26px" y="32px" /><rect fill="rgb(82,82,77)" height="3px" width="3px" x="28px" y="32px" /><rect fill="rgb(86,86,79)" height="3px" width="3px" x="30px" y="32px" /><rect fill="rgb(83,83,77)" height="3px" width="3px" x="32px" y="32px" /><rect fill="rgb(84,84,76)" height="3px" width="3px" x="34px" y="32px" /><rect fill="rgb(106,106,82)" height="3px" opacity="0.0352941176471" width="3px" x="40px" y="32px" /><rect fill="rgb(92,92,70)" height="3px" opacity="0.0666666666667" width="3px" x="42px" y="32px" /><rect fill="rgb(123,123,88)" height="3px" width="3px" x="44px" y="32px" /><rect fill="rgb(122,122,88)" height="3px" width="3px" x="46px" y="32px" /><rect fill="rgb(120,120,86)" height="3px" width="3px" x="48px" y="32px" /><rect fill="rgb(121,121,87)" height="3px" width="3px" x="50px" y="32px" /><rect fill="rgb(121,121,87)" height="3px" width="3px" x="52px" y="32px" /><rect fill="rgb(74,74,55)" height="3px" opacity="0.0156862745098" width="3px" x="54px" y="32px" /><rect fill="rgb(138,92,0)" height="3px" width="3px" x="4px" y="34px" /><rect fill="rgb(18,18,4)" height="3px" width="3px" x="6px" y="34px" /><rect fill="rgb(146,101,11)" height="3px" width="3px" x="8px" y="34px" /><rect fill="rgb(146,101,11)" height="3px" width="3px" x="10px" y="34px" /><rect fill="rgb(18,18,4)" height="3px" width="3px" x="12px" y="34px" /><rect fill="rgb(146,101,11)" height="3px" width="3px" x="14px" y="34px" /><rect fill="rgb(140,94,2)" height="3px" width="3px" x="16px" y="34px" /><rect fill="rgb(18,18,4)" height="3px" width="3px" x="18px" y="34px" /><rect fill="rgb(138,92,0)" height="3px" width="3px" x="20px" y="34px" /><rect fill="rgb(18,18,4)" height="3px" width="3px" x="22px" y="34px" /><rect fill="rgb(138,92,0)" height="3px" width="3px" x="24px" y="34px" /><rect fill="rgb(80,80,73)" height="3px" width="3px" x="26px" y="34px" /><rect fill="rgb(78,78,71)" height="3px" width="3px" x="28px" y="34px" /><rect fill="rgb(18,18,4)" height="3px" width="3px" x="30px" y="34px" /><rect fill="rgb(86,86,78)" height="3px" width="3px" x="32px" y="34px" /><rect fill="rgb(89,89,81)" height="3px" width="3px" x="34px" y="34px" /><rect fill="rgb(74,74,55)" height="3px" opacity="0.0352941176471" width="3px" x="42px" y="34px" /><rect fill="rgb(122,122,86)" height="3px" width="3px" x="44px" y="34px" /><rect fill="rgb(74,74,55)" height="3px" width="3px" x="46px" y="34px" /><rect fill="rgb(114,114,86)" height="3px" width="3px" x="48px" y="34px" /><rect fill="rgb(74,74,55)" height="3px" width="3px" x="50px" y="34px" /><rect fill="rgb(123,123,87)" height="3px" width="3px" x="52px" y="34px" /><rect fill="rgb(97,97,75)" height="3px" opacity="0.0509803921569" width="3px" x="54px" y="34px" /><rect fill="rgb(106,106,82)" height="3px" opacity="0.0274509803922" width="3px" x="56px" y="34px" /><rect fill="rgb(106,106,82)" height="3px" opacity="0.0274509803922" width="3px" x="58px" y="34px" /><rect fill="rgb(138,92,0)" height="3px" width="3px" x="4px" y="36px" /><rect fill="rgb(138,92,0)" height="3px" width="3px" x="6px" y="36px" /><rect fill="rgb(138,92,0)" height="3px" width="3px" x="8px" y="36px" /><rect fill="rgb(138,92,0)" height="3px" width="3px" x="10px" y="36px" /><rect fill="rgb(138,92,0)" height="3px" width="3px" x="12px" y="36px" /><rect fill="rgb(138,92,0)" height="3px" width="3px" x="14px" y="36px" /><rect fill="rgb(138,92,0)" height="3px" width="3px" x="16px" y="36px" /><rect fill="rgb(138,92,0)" height="3px" width="3px" x="18px" y="36px" /><rect fill="rgb(138,92,0)" height="3px" width="3px" x="20px" y="36px" /><rect fill="rgb(138,92,0)" height="3px" width="3px" x="22px" y="36px" /><rect fill="rgb(138,92,0)" height="3px" width="3px" x="24px" y="36px" /><rect fill="rgb(87,87,79)" height="3px" width="3px" x="26px" y="36px" /><rect fill="rgb(87,87,80)" height="3px" width="3px" x="28px" y="36px" /><rect fill="rgb(88,88,81)" height="3px" width="3px" x="30px" y="36px" /><rect fill="rgb(88,88,80)" height="3px" width="3px" x="32px" y="36px" /><rect fill="rgb(89,89,81)" height="3px" width="3px" x="34px" y="36px" /><rect fill="rgb(106,106,82)" height="3px" opacity="0.0117647058824" width="3px" x="42px" y="36px" /><rect fill="rgb(123,123,87)" height="3px" width="3px" x="44px" y="36px" /><rect fill="rgb(121,121,88)" height="3px" width="3px" x="46px" y="36px" /><rect fill="rgb(121,121,88)" height="3px" width="3px" x="48px" y="36px" /><rect fill="rgb(122,122,88)" height="3px" width="3px" x="50px" y="36px" /><rect fill="rgb(122,122,88)" height="3px" width="3px" x="52px" y="36px" /><rect fill="rgb(106,106,82)" height="3px" opacity="0.0352941176471" width="3px" x="54px" y="36px" /><rect fill="rgb(106,106,82)" height="3px" opacity="0.0078431372549" width="3px" x="56px" y="36px" /><rect fill="rgb(106,106,82)" height="3px" opacity="0.0078431372549" width="3px" x="58px" y="36px" /><rect fill="rgb(119,79,0)" height="3px" width="3px" x="4px" y="38px" /><rect fill="rgb(18,18,4)" height="3px" width="3px" x="6px" y="38px" /><rect fill="rgb(139,93,1)" height="3px" width="3px" x="8px" y="38px" /><rect fill="rgb(146,101,11)" height="3px" width="3px" x="10px" y="38px" /><rect fill="rgb(18,18,4)" height="3px" width="3px" x="12px" y="38px" /><rect fill="rgb(146,101,11)" height="3px" width="3px" x="14px" y="38px" /><rect fill="rgb(143,98,7)" height="3px" width="3px" x="16px" y="38px" /><rect fill="rgb(18,18,4)" height="3px" width="3px" x="18px" y="38px" /><rect fill="rgb(140,94,2)" height="3px" width="3px" x="20px" y="38px" /><rect fill="rgb(18,18,4)" height="3px" width="3px" x="22px" y="38px" /><rect fill="rgb(120,80,0)" height="3px" width="3px" x="24px" y="38px" /><rect fill="rgb(87,87,79)" height="3px" width="3px" x="26px" y="38px" /><rect fill="rgb(84,84,76)" height="3px" width="3px" x="28px" y="38px" /><rect fill="rgb(90,90,82)" height="3px" width="3px" x="30px" y="38px" /><rect fill="rgb(86,86,79)" height="3px" width="3px" x="32px" y="38px" /><rect fill="rgb(86,86,79)" height="3px" width="3px" x="34px" y="38px" /><rect fill="rgb(120,120,86)" height="3px" width="3px" x="40px" y="38px" /><rect fill="rgb(117,117,84)" height="3px" width="3px" x="42px" y="38px" /><rect fill="rgb(118,118,84)" height="3px" width="3px" x="44px" y="38px" /><rect fill="rgb(117,117,83)" height="3px" width="3px" x="46px" y="38px" /><rect fill="rgb(118,118,85)" height="3px" width="3px" x="48px" y="38px" /><rect fill="rgb(119,119,84)" height="3px" width="3px" x="50px" y="38px" /><rect fill="rgb(121,121,85)" height="3px" width="3px" x="52px" y="38px" /><rect fill="rgb(125,125,87)" height="3px" width="3px" x="54px" y="38px" /><rect fill="rgb(123,123,86)" height="3px" width="3px" x="56px" y="38px" /><rect fill="rgb(138,92,0)" height="3px" width="3px" x="4px" y="40px" /><rect fill="rgb(138,92,0)" height="3px" width="3px" x="6px" y="40px" /><rect fill="rgb(143,98,7)" height="3px" width="3px" x="8px" y="40px" /><rect fill="rgb(138,92,0)" height="3px" width="3px" x="10px" y="40px" /><rect fill="rgb(143,98,7)" height="3px" width="3px" x="12px" y="40px" /><rect fill="rgb(146,101,11)" height="3px" width="3px" x="14px" y="40px" /><rect fill="rgb(146,101,11)" height="3px" width="3px" x="16px" y="40px" /><rect fill="rgb(146,101,11)" height="3px" width="3px" x="18px" y="40px" /><rect fill="rgb(146,101,11)" height="3px" width="3px" x="20px" y="40px" /><rect fill="rgb(138,92,0)" height="3px" width="3px" x="22px" y="40px" /><rect fill="rgb(138,92,0)" height="3px" width="3px" x="24px" y="40px" /><rect fill="rgb(86,86,78)" height="3px" width="3px" x="26px" y="40px" /><rect fill="rgb(18,18,4)" height="3px" width="3px" x="28px" y="40px" /><rect fill="rgb(89,89,81)" height="3px" width="3px" x="30px" y="40px" /><rect fill="rgb(85,85,78)" height="3px" width="3px" x="32px" y="40px" /><rect fill="rgb(87,87,80)" height="3px" width="3px" x="34px" y="40px" /><rect fill="rgb(122,122,87)" height="3px" width="3px" x="40px" y="40px" /><rect fill="rgb(114,114,82)" height="3px" width="3px" x="42px" y="40px" /><rect fill="rgb(116,116,81)" height="3px" width="3px" x="44px" y="40px" /><rect fill="rgb(109,109,76)" height="3px" width="3px" x="46px" y="40px" /><rect fill="rgb(121,121,86)" height="3px" width="3px" x="48px" y="40px" /><rect fill="rgb(118,118,84)" height="3px" width="3px" x="50px" y="40px" /><rect fill="rgb(120,120,83)" height="3px" width="3px" x="52px" y="40px" /><rect fill="rgb(116,116,79)" height="3px" width="3px" x="54px" y="40px" /><rect fill="rgb(121,121,83)" height="3px" width="3px" x="56px" y="40px" /><rect fill="rgb(138,92,0)" height="3px" width="3px" x="4px" y="42px" /><rect fill="rgb(18,18,4)" height="3px" width="3px" x="6px" y="42px" /><rect fill="rgb(138,92,0)" height="3px" width="3px" x="8px" y="42px" /><rect fill="rgb(138,92,0)" height="3px" width="3px" x="10px" y="42px" /><rect fill="rgb(18,18,4)" height="3px" width="3px" x="12px" y="42px" /><rect fill="rgb(138,92,0)" height="3px" width="3px" x="14px" y="42px" /><rect fill="rgb(138,92,0)" height="3px" width="3px" x="16px" y="42px" /><rect fill="rgb(18,18,4)" height="3px" width="3px" x="18px" y="42px" /><rect fill="rgb(146,101,11)" height="3px" width="3px" x="20px" y="42px" /><rect fill="rgb(18,18,4)" height="3px" width="3px" x="22px" y="42px" /><rect fill="rgb(138,92,0)" height="3px" width="3px" x="24px" y="42px" /><rect fill="rgb(85,85,78)" height="3px" width="3px" x="26px" y="42px" /><rect fill="rgb(84,84,77)" height="3px" width="3px" x="28px" y="42px" /><rect fill="rgb(88,88,80)" height="3px" width="3px" x="30px" y="42px" /><rect fill="rgb(84,84,76)" height="3px" width="3px" x="32px" y="42px" /><rect fill="rgb(88,88,80)" height="3px" width="3px" x="34px" y="42px" /><rect fill="rgb(120,120,84)" height="3px" width="3px" x="40px" y="42px" /><rect fill="rgb(111,111,80)" height="3px" width="3px" x="42px" y="42px" /><rect fill="rgb(114,114,80)" height="3px" width="3px" x="44px" y="42px" /><rect fill="rgb(118,118,83)" height="3px" width="3px" x="46px" y="42px" /><rect fill="rgb(118,118,84)" height="3px" width="3px" x="48px" y="42px" /><rect fill="rgb(112,112,79)" height="3px" width="3px" x="50px" y="42px" /><rect fill="rgb(115,115,81)" height="3px" width="3px" x="52px" y="42px" /><rect fill="rgb(118,118,83)" height="3px" width="3px" x="54px" y="42px" /><rect fill="rgb(125,125,88)" height="3px" width="3px" x="56px" y="42px" /><rect fill="rgb(138,92,0)" height="3px" width="3px" x="4px" y="44px" /><rect fill="rgb(138,92,0)" height="3px" width="3px" x="6px" y="44px" /><rect fill="rgb(143,98,7)" height="3px" width="3px" x="8px" y="44px" /><rect fill="rgb(146,101,11)" height="3px" width="3px" x="10px" y="44px" /><rect fill="rgb(144,99,9)" height="3px" width="3px" x="12px" y="44px" /><rect fill="rgb(140,94,2)" height="3px" width="3px" x="14px" y="44px" /><rect fill="rgb(138,92,0)" height="3px" width="3px" x="16px" y="44px" /><rect fill="rgb(138,92,0)" height="3px" width="3px" x="18px" y="44px" /><rect fill="rgb(138,92,0)" height="3px" width="3px" x="20px" y="44px" /><rect fill="rgb(138,92,0)" height="3px" width="3px" x="22px" y="44px" /><rect fill="rgb(138,92,0)" height="3px" width="3px" x="24px" y="44px" /><rect fill="rgb(82,82,75)" height="3px" width="3px" x="26px" y="44px" /><rect fill="rgb(85,85,78)" height="3px" width="3px" x="28px" y="44px" /><rect fill="rgb(85,85,78)" height="3px" width="3px" x="30px" y="44px" /><rect fill="rgb(82,82,75)" height="3px" width="3px" x="32px" y="44px" /><rect fill="rgb(90,90,82)" height="3px" width="3px" x="34px" y="44px" /><rect fill="rgb(122,122,86)" height="3px" width="3px" x="40px" y="44px" /><rect fill="rgb(74,74,55)" height="3px" width="3px" x="42px" y="44px" /><rect fill="rgb(116,116,82)" height="3px" width="3px" x="44px" y="44px" /><rect fill="rgb(113,113,80)" height="3px" width="3px" x="46px" y="44px" /><rect fill="rgb(74,74,55)" height="3px" width="3px" x="48px" y="44px" /><rect fill="rgb(111,111,79)" height="3px" width="3px" x="50px" y="44px" /><rect fill="rgb(122,122,86)" height="3px" width="3px" x="52px" y="44px" /><rect fill="rgb(74,74,55)" height="3px" width="3px" x="54px" y="44px" /><rect fill="rgb(123,123,87)" height="3px" width="3px" x="56px" y="44px" /><rect fill="rgb(138,92,0)" height="3px" width="3px" x="4px" y="46px" /><rect fill="rgb(138,92,0)" height="3px" width="3px" x="6px" y="46px" /><rect fill="rgb(143,98,7)" height="3px" width="3px" x="8px" y="46px" /><rect fill="rgb(146,101,11)" height="3px" width="3px" x="10px" y="46px" /><rect fill="rgb(144,99,9)" height="3px" width="3px" x="12px" y="46px" /><rect fill="rgb(140,94,2)" height="3px" width="3px" x="14px" y="46px" /><rect fill="rgb(138,92,0)" height="3px" width="3px" x="16px" y="46px" /><rect fill="rgb(138,92,0)" height="3px" width="3px" x="18px" y="46px" /><rect fill="rgb(138,92,0)" height="3px" width="3px" x="20px" y="46px" /><rect fill="rgb(138,92,0)" height="3px" width="3px" x="22px" y="46px" /><rect fill="rgb(138,92,0)" height="3px" width="3px" x="24px" y="46px" /><rect fill="rgb(85,85,78)" height="3px" width="3px" x="26px" y="46px" /><rect fill="rgb(88,88,81)" height="3px" width="3px" x="28px" y="46px" /><rect fill="rgb(80,80,75)" height="3px" width="3px" x="30px" y="46px" /><rect fill="rgb(18,18,4)" height="3px" width="3px" x="32px" y="46px" /><rect fill="rgb(90,90,82)" height="3px" width="3px" x="34px" y="46px" /><rect fill="rgb(122,122,86)" height="3px" width="3px" x="40px" y="46px" /><rect fill="rgb(109,109,78)" height="3px" width="3px" x="42px" y="46px" /><rect fill="rgb(114,114,82)" height="3px" width="3px" x="44px" y="46px" /><rect fill="rgb(111,111,80)" height="3px" width="3px" x="46px" y="46px" /><rect fill="rgb(114,114,80)" height="3px" width="3px" x="48px" y="46px" /><rect fill="rgb(120,120,83)" height="3px" width="3px" x="50px" y="46px" /><rect fill="rgb(119,119,84)" height="3px" width="3px" x="52px" y="46px" /><rect fill="rgb(124,124,88)" height="3px" width="3px" x="54px" y="46px" /><rect fill="rgb(123,123,87)" height="3px" width="3px" x="56px" y="46px" /><rect fill="rgb(138,92,0)" height="3px" width="3px" x="4px" y="48px" /><rect fill="rgb(18,18,4)" height="3px" width="3px" x="6px" y="48px" /><rect fill="rgb(143,98,7)" height="3px" width="3px" x="8px" y="48px" /><rect fill="rgb(146,101,11)" height="3px" width="3px" x="10px" y="48px" /><rect fill="rgb(18,18,4)" height="3px" width="3px" x="12px" y="48px" /><rect fill="rgb(140,94,2)" height="3px" width="3px" x="14px" y="48px" /><rect fill="rgb(138,92,0)" height="3px" width="3px" x="16px" y="48px" /><rect fill="rgb(18,18,4)" height="3px" width="3px" x="18px" y="48px" /><rect fill="rgb(138,92,0)" height="3px" width="3px" x="20px" y="48px" /><rect fill="rgb(18,18,4)" height="3px" width="3px" x="22px" y="48px" /><rect fill="rgb(138,92,0)" height="3px" width="3px" x="24px" y="48px" /><rect fill="rgb(86,86,78)" height="3px" width="3px" x="26px" y="48px" /><rect fill="rgb(18,18,4)" height="3px" width="3px" x="28px" y="48px" /><rect fill="rgb(85,85,77)" height="3px" width="3px" x="30px" y="48px" /><rect fill="rgb(86,86,78)" height="3px" width="3px" x="32px" y="48px" /><rect fill="rgb(89,89,81)" height="3px" width="3px" x="34px" y="48px" /><rect fill="rgb(119,119,84)" height="3px" width="3px" x="40px" y="48px" /><rect fill="rgb(120,120,83)" height="3px" width="3px" x="42px" y="48px" /><rect fill="rgb(118,118,84)" height="3px" width="3px" x="44px" y="48px" /><rect fill="rgb(120,120,85)" height="3px" width="3px" x="46px" y="48px" /><rect fill="rgb(120,120,85)" height="3px" width="3px" x="48px" y="48px" /><rect fill="rgb(116,116,83)" height="3px" width="3px" x="50px" y="48px" /><rect fill="rgb(115,115,82)" height="3px" width="3px" x="52px" y="48px" /><rect fill="rgb(118,118,84)" height="3px" width="3px" x="54px" y="48px" /><rect fill="rgb(122,122,86)" height="3px" width="3px" x="56px" y="48px" /><rect fill="rgb(138,92,0)" height="3px" width="3px" x="4px" y="50px" /><rect fill="rgb(138,92,0)" height="3px" width="3px" x="6px" y="50px" /><rect fill="rgb(143,98,7)" height="3px" width="3px" x="8px" y="50px" /><rect fill="rgb(146,101,11)" height="3px" width="3px" x="10px" y="50px" /><rect fill="rgb(146,101,11)" height="3px" width="3px" x="12px" y="50px" /><rect fill="rgb(140,94,2)" height="3px" width="3px" x="14px" y="50px" /><rect fill="rgb(138,92,0)" height="3px" width="3px" x="16px" y="50px" /><rect fill="rgb(138,92,0)" height="3px" width="3px" x="18px" y="50px" /><rect fill="rgb(138,92,0)" height="3px" width="3px" x="20px" y="50px" /><rect fill="rgb(138,92,0)" height="3px" width="3px" x="22px" y="50px" /><rect fill="rgb(138,92,0)" height="3px" width="3px" x="24px" y="50px" /><rect fill="rgb(83,83,76)" height="3px" width="3px" x="26px" y="50px" /><rect fill="rgb(85,85,78)" height="3px" width="3px" x="28px" y="50px" /><rect fill="rgb(83,83,76)" height="3px" width="3px" x="30px" y="50px" /><rect fill="rgb(86,86,78)" height="3px" width="3px" x="32px" y="50px" /><rect fill="rgb(89,89,81)" height="3px" width="3px" x="34px" y="50px" /><rect fill="rgb(123,123,85)" height="3px" width="3px" x="40px" y="50px" /><rect fill="rgb(74,74,55)" height="3px" width="3px" x="42px" y="50px" /><rect fill="rgb(118,118,84)" height="3px" width="3px" x="44px" y="50px" /><rect fill="rgb(114,114,80)" height="3px" width="3px" x="46px" y="50px" /><rect fill="rgb(74,74,55)" height="3px" width="3px" x="48px" y="50px" /><rect fill="rgb(116,116,82)" height="3px" width="3px" x="50px" y="50px" /><rect fill="rgb(116,116,82)" height="3px" width="3px" x="52px" y="50px" /><rect fill="rgb(74,74,55)" height="3px" width="3px" x="54px" y="50px" /><rect fill="rgb(122,122,86)" height="3px" width="3px" x="56px" y="50px" /><rect fill="rgb(138,92,0)" height="3px" width="3px" x="4px" y="52px" /><rect fill="rgb(138,92,0)" height="3px" width="3px" x="6px" y="52px" /><rect fill="rgb(138,92,0)" height="3px" width="3px" x="8px" y="52px" /><rect fill="rgb(138,92,0)" height="3px" width="3px" x="10px" y="52px" /><rect fill="rgb(138,92,0)" height="3px" width="3px" x="12px" y="52px" /><rect fill="rgb(138,92,0)" height="3px" width="3px" x="14px" y="52px" /><rect fill="rgb(138,92,0)" height="3px" width="3px" x="16px" y="52px" /><rect fill="rgb(138,92,0)" height="3px" width="3px" x="18px" y="52px" /><rect fill="rgb(146,101,11)" height="3px" width="3px" x="20px" y="52px" /><rect fill="rgb(138,92,0)" height="3px" width="3px" x="22px" y="52px" /><rect fill="rgb(138,92,0)" height="3px" width="3px" x="24px" y="52px" /><rect fill="rgb(87,87,80)" height="3px" width="3px" x="26px" y="52px" /><rect fill="rgb(88,88,81)" height="3px" width="3px" x="28px" y="52px" /><rect fill="rgb(82,82,76)" height="3px" width="3px" x="30px" y="52px" /><rect fill="rgb(18,18,4)" height="3px" width="3px" x="32px" y="52px" /><rect fill="rgb(88,88,80)" height="3px" width="3px" x="34px" y="52px" /><rect fill="rgb(121,121,84)" height="3px" width="3px" x="40px" y="52px" /><rect fill="rgb(117,117,82)" height="3px" width="3px" x="42px" y="52px" /><rect fill="rgb(120,120,86)" height="3px" width="3px" x="44px" y="52px" /><rect fill="rgb(113,113,81)" height="3px" width="3px" x="46px" y="52px" /><rect fill="rgb(118,118,84)" height="3px" width="3px" x="48px" y="52px" /><rect fill="rgb(116,116,82)" height="3px" width="3px" x="50px" y="52px" /><rect fill="rgb(118,118,83)" height="3px" width="3px" x="52px" y="52px" /><rect fill="rgb(117,117,81)" height="3px" width="3px" x="54px" y="52px" /><rect fill="rgb(120,120,84)" height="3px" width="3px" x="56px" y="52px" /><rect fill="rgb(138,92,0)" height="3px" width="3px" x="4px" y="54px" /><rect fill="rgb(138,92,0)" height="3px" width="3px" x="6px" y="54px" /><rect fill="rgb(139,94,2)" height="3px" width="3px" x="8px" y="54px" /><rect fill="rgb(138,92,0)" height="3px" width="3px" x="10px" y="54px" /><rect fill="rgb(18,18,4)" height="3px" width="3px" x="12px" y="54px" /><rect fill="rgb(18,18,4)" height="3px" width="3px" x="14px" y="54px" /><rect fill="rgb(138,92,0)" height="3px" width="3px" x="16px" y="54px" /><rect fill="rgb(138,92,0)" height="3px" width="3px" x="18px" y="54px" /><rect fill="rgb(146,101,11)" height="3px" width="3px" x="20px" y="54px" /><rect fill="rgb(138,92,0)" height="3px" width="3px" x="22px" y="54px" /><rect fill="rgb(138,92,0)" height="3px" width="3px" x="24px" y="54px" /><rect fill="rgb(88,88,80)" height="3px" width="3px" x="26px" y="54px" /><rect fill="rgb(89,89,81)" height="3px" width="3px" x="28px" y="54px" /><rect fill="rgb(84,84,77)" height="3px" width="3px" x="30px" y="54px" /><rect fill="rgb(72,72,64)" height="3px" width="3px" x="32px" y="54px" /><rect fill="rgb(89,89,81)" height="3px" width="3px" x="34px" y="54px" /><rect fill="rgb(120,120,85)" height="3px" width="3px" x="40px" y="54px" /><rect fill="rgb(116,116,83)" height="3px" width="3px" x="42px" y="54px" /><rect fill="rgb(115,115,80)" height="3px" width="3px" x="44px" y="54px" /><rect fill="rgb(116,116,81)" height="3px" width="3px" x="46px" y="54px" /><rect fill="rgb(118,118,82)" height="3px" width="3px" x="48px" y="54px" /><rect fill="rgb(115,115,80)" height="3px" width="3px" x="50px" y="54px" /><rect fill="rgb(119,119,84)" height="3px" width="3px" x="52px" y="54px" /><rect fill="rgb(119,119,82)" height="3px" width="3px" x="54px" y="54px" /><rect fill="rgb(121,121,84)" height="3px" width="3px" x="56px" y="54px" /><rect fill="rgb(114,75,0)" height="3px" width="3px" x="4px" y="56px" /><rect fill="rgb(138,92,0)" height="3px" width="3px" x="6px" y="56px" /><rect fill="rgb(138,92,0)" height="3px" width="3px" x="8px" y="56px" /><rect fill="rgb(138,92,0)" height="3px" width="3px" x="10px" y="56px" /><rect fill="rgb(18,18,4)" height="3px" width="3px" x="12px" y="56px" /><rect fill="rgb(18,18,4)" height="3px" width="3px" x="14px" y="56px" /><rect fill="rgb(138,92,0)" height="3px" width="3px" x="16px" y="56px" /><rect fill="rgb(138,92,0)" height="3px" width="3px" x="18px" y="56px" /><rect fill="rgb(138,92,0)" height="3px" width="3px" x="20px" y="56px" /><rect fill="rgb(138,92,0)" height="3px" width="3px" x="22px" y="56px" /><rect fill="rgb(138,92,0)" height="3px" width="3px" x="24px" y="56px" /><rect fill="rgb(88,88,80)" height="3px" width="3px" x="26px" y="56px" /><rect fill="rgb(88,88,80)" height="3px" width="3px" x="28px" y="56px" /><rect fill="rgb(18,18,4)" height="3px" width="3px" x="30px" y="56px" /><rect fill="rgb(85,85,78)" height="3px" width="3px" x="32px" y="56px" /><rect fill="rgb(90,90,83)" height="3px" width="3px" x="34px" y="56px" /><rect fill="rgb(116,116,82)" height="3px" width="3px" x="40px" y="56px" /><rect fill="rgb(120,120,85)" height="3px" width="3px" x="42px" y="56px" /><rect fill="rgb(74,74,55)" height="3px" width="3px" x="44px" y="56px" /><rect fill="rgb(120,120,84)" height="3px" width="3px" x="46px" y="56px" /><rect fill="rgb(120,120,84)" height="3px" width="3px" x="48px" y="56px" /><rect fill="rgb(116,116,81)" height="3px" width="3px" x="50px" y="56px" /><rect fill="rgb(118,118,82)" height="3px" width="3px" x="52px" y="56px" /><rect fill="rgb(74,74,55)" height="3px" width="3px" x="54px" y="56px" /><rect fill="rgb(120,120,82)" height="3px" width="3px" x="56px" y="56px" /><rect fill="rgb(138,92,0)" height="3px" width="3px" x="4px" y="58px" /><rect fill="rgb(138,92,0)" height="3px" width="3px" x="6px" y="58px" /><rect fill="rgb(138,92,0)" height="3px" width="3px" x="8px" y="58px" /><rect fill="rgb(138,92,0)" height="3px" width="3px" x="10px" y="58px" /><rect fill="rgb(18,18,4)" height="3px" width="3px" x="12px" y="58px" /><rect fill="rgb(18,18,4)" height="3px" width="3px" x="14px" y="58px" /><rect fill="rgb(138,92,0)" height="3px" width="3px" x="16px" y="58px" /><rect fill="rgb(138,92,0)" height="3px" width="3px" x="18px" y="58px" /><rect fill="rgb(138,92,0)" height="3px" width="3px" x="20px" y="58px" /><rect fill="rgb(138,92,0)" height="3px" width="3px" x="22px" y="58px" /><rect fill="rgb(138,92,0)" height="3px" width="3px" x="24px" y="58px" /><rect fill="rgb(89,89,81)" height="3px" width="3px" x="26px" y="58px" /><rect fill="rgb(83,83,76)" height="3px" width="3px" x="28px" y="58px" /><rect fill="rgb(18,18,4)" height="3px" width="3px" x="30px" y="58px" /><rect fill="rgb(89,89,82)" height="3px" width="3px" x="32px" y="58px" /><rect fill="rgb(90,90,83)" height="3px" width="3px" x="34px" y="58px" /><rect fill="rgb(119,119,84)" height="3px" width="3px" x="40px" y="58px" /><rect fill="rgb(119,119,83)" height="3px" width="3px" x="42px" y="58px" /><rect fill="rgb(74,74,55)" height="3px" width="3px" x="44px" y="58px" /><rect fill="rgb(121,121,85)" height="3px" width="3px" x="46px" y="58px" /><rect fill="rgb(122,122,85)" height="3px" width="3px" x="48px" y="58px" /><rect fill="rgb(120,120,84)" height="3px" width="3px" x="50px" y="58px" /><rect fill="rgb(121,121,84)" height="3px" width="3px" x="52px" y="58px" /><rect fill="rgb(74,74,55)" height="3px" width="3px" x="54px" y="58px" /><rect fill="rgb(120,120,83)" height="3px" width="3px" x="56px" y="58px" /></svg>