<?xml version="1.0" encoding="utf-8" ?>
<svg baseProfile="full" height="64px" version="1.1" width="64px" xmlns="http://www.w3.org/2000/svg" xmlns:ev="http://www.w3.org/2001/xml-events" xmlns:xlink="http://www.w3.org/1999/xlink"><defs /><rect fill="rgb(255,255,255)" height="3px" opacity="0.0941176470588" width="3px" x="34px" y="0px" /><rect fill="rgb(255,255,255)" height="3px" width="3px" x="38px" y="0px" /><rect fill="rgb(255,255,255)" height="3px" width="3px" x="40px" y="0px" /><rect fill="rgb(255,255,255)" height="3px" opacity="0.160784313725" width="3px" x="42px" y="0px" /><rect fill="rgb(255,255,255)" height="3px" opacity="0.109803921569" width="3px" x="34px" y="2px" /><rect fill="rgb(255,255,255)" height="3px" width="3px" x="36px" y="2px" /><rect fill="rgb(255,255,255)" height="3px" width="3px" x="38px" y="2px" /><rect fill="rgb(255,255,255)" height="3px" width="3px" x="40px" y="2px" /><rect fill="rgb(255,255,255)" height="3px" opacity="0.156862745098" width="3px" x="42px" y="2px" /><rect fill="rgb(255,255,255)" height="3px" width="3px" x="36px" y="4px" /><rect fill="rgb(255,255,255)" height="3px" width="3px" x="38px" y="4px" /><rect fill="rgb(255,255,255)" height="3px" opacity="0.278431372549" width="3px" x="40px" y="4px" /><rect fill="rgb(255,255,255)" height="3px" width="3px" x="34px" y="6px" /><rect fill="rgb(255,255,255)" height="3px" width="3px" x="36px" y="6px" /><rect fill="rgb(255,255,255)" height="3px" width="3px" x="38px" y="6px" /><rect fill="rgb(255,255,255)" height="3px" opacity="0.0274509803922" width="3px" x="40px" y="6px" /><rect fill="rgb(255,255,255)" height="3px" width="3px" x="32px" y="8px" /><rect fill="rgb(255,255,255)" height="3px" width="3px" x="34px" y="8px" /><rect fill="rgb(255,255,255)" height="3px" width="3px" x="36px" y="8px" /><rect fill="rgb(255,255,255)" height="3px" width="3px" x="32px" y="10px" /><rect fill="rgb(255,255,255)" height="3px" width="3px" x="34px" y="10px" /><rect fill="rgb(255,255,255)" height="3px" width="3px" x="36px" y="10px" /><rect fill="rgb(255,255,255)" height="3px" opacity="0.0313725490196" width="3px" x="38px" y="10px" /><rect fill="rgb(255,255,255)" height="3px" width="3px" x="30px" y="12px" /><rect fill="rgb(255,255,255)" height="3px" width="3px" x="32px" y="12px" /><rect fill="rgb(255,255,255)" height="3px" width="3px" x="34px" y="12px" /><rect fill="rgb(255,255,255)" height="3px" opacity="0.125490196078" width="3px" x="36px" y="12px" /><rect fill="rgb(255,255,255)" height="3px" opacity="0.0078431372549" width="3px" x="38px" y="12px" /><rect fill="rgb(255,255,255)" height="3px" width="3px" x="30px" y="14px" /><rect fill="rgb(255,255,255)" height="3px" width="3px" x="32px" y="14px" /><rect fill="rgb(255,255,255)" height="3px" width="3px" x="34px" y="14px" /><rect fill="rgb(255,255,255)" height="3px" opacity="0.129411764706" width="3px" x="36px" y="14px" /><rect fill="rgb(255,255,255)" height="3px" opacity="0.0196078431373" width="3px" x="22px" y="16px" /><rect fill="rgb(255,255,255)" height="3px" opacity="0.176470588235" width="3px" x="24px" y="16px" /><rect fill="rgb(255,255,255)" height="3px" opacity="0.117647058824" width="3px" x="26px" y="16px" /><rect fill="rgb(222,221,218)" height="3px" width="3px" x="28px" y="16px" /><rect fill="rgb(237,237,235)" height="3px" width="3px" x="30px" y="16px" /><rect fill="rgb(255,255,255)" height="3px" width="3px" x="32px" y="16px" /><rect fill="rgb(255,255,255)" height="3px" opacity="0.207843137255" width="3px" x="34px" y="16px" /><rect fill="rgb(255,255,255)" height="3px" opacity="0.00392156862745" width="3px" x="36px" y="16px" /><rect fill="rgb(255,255,255)" height="3px" opacity="0.0549019607843" width="3px" x="16px" y="18px" /><rect fill="rgb(255,255,255)" height="3px" opacity="0.0666666666667" width="3px" x="18px" y="18px" /><rect fill="rgb(255,255,255)" height="3px" width="3px" x="20px" y="18px" /><rect fill="rgb(255,255,255)" height="3px" width="3px" x="22px" y="18px" /><rect fill="rgb(255,255,255)" height="3px" width="3px" x="24px" y="18px" /><rect fill="rgb(234,233,231)" height="3px" width="3px" x="26px" y="18px" /><rect fill="rgb(222,221,218)" height="3px" width="3px" x="28px" y="18px" /><rect fill="rgb(229,228,226)" height="3px" width="3px" x="30px" y="18px" /><rect fill="rgb(229,228,226)" height="3px" width="3px" x="32px" y="18px" /><rect fill="rgb(255,255,255)" height="3px" width="3px" x="34px" y="18px" /><rect fill="rgb(255,255,255)" height="3px" opacity="0.0901960784314" width="3px" x="12px" y="20px" /><rect fill="rgb(255,255,255)" height="3px" width="3px" x="14px" y="20px" /><rect fill="rgb(255,255,255)" height="3px" width="3px" x="16px" y="20px" /><rect fill="rgb(255,255,255)" height="3px" width="3px" x="18px" y="20px" /><rect fill="rgb(255,255,255)" height="3px" width="3px" x="20px" y="20px" /><rect fill="rgb(255,255,255)" height="3px" width="3px" x="22px" y="20px" /><rect fill="rgb(255,255,255)" height="3px" width="3px" x="24px" y="20px" /><rect fill="rgb(222,221,218)" height="3px" width="3px" x="26px" y="20px" /><rect fill="rgb(222,221,218)" height="3px" width="3px" x="28px" y="20px" /><rect fill="rgb(222,221,218)" height="3px" width="3px" x="30px" y="20px" /><rect fill="rgb(223,222,219)" height="3px" width="3px" x="32px" y="20px" /><rect fill="rgb(255,255,255)" height="3px" width="3px" x="34px" y="20px" /><rect fill="rgb(255,255,255)" height="3px" width="3px" x="36px" y="20px" /><rect fill="rgb(255,255,255)" height="3px" opacity="0.227450980392" width="3px" x="6px" y="22px" /><rect fill="rgb(255,255,255)" height="3px" width="3px" x="8px" y="22px" /><rect fill="rgb(255,255,255)" height="3px" width="3px" x="10px" y="22px" /><rect fill="rgb(255,255,255)" height="3px" width="3px" x="12px" y="22px" /><rect fill="rgb(255,255,255)" height="3px" width="3px" x="14px" y="22px" /><rect fill="rgb(255,255,255)" height="3px" width="3px" x="16px" y="22px" /><rect fill="rgb(255,255,255)" height="3px" width="3px" x="18px" y="22px" /><rect fill="rgb(255,255,255)" height="3px" opacity="0.83137254902" width="3px" x="20px" y="22px" /><rect fill="rgb(255,255,255)" height="3px" width="3px" x="22px" y="22px" /><rect fill="rgb(255,255,255)" height="3px" width="3px" x="24px" y="22px" /><rect fill="rgb(222,221,218)" height="3px" width="3px" x="28px" y="22px" /><rect fill="rgb(222,221,218)" height="3px" width="3px" x="30px" y="22px" /><rect fill="rgb(255,255,255)" height="3px" width="3px" x="34px" y="22px" /><rect fill="rgb(255,255,255)" height="3px" width="3px" x="36px" y="22px" /><rect fill="rgb(255,255,255)" height="3px" width="3px" x="38px" y="22px" /><rect fill="rgb(255,255,255)" height="3px" opacity="0.2" width="3px" x="4px" y="24px" /><rect fill="rgb(255,255,255)" height="3px" width="3px" x="6px" y="24px" /><rect fill="rgb(255,255,255)" height="3px" width="3px" x="8px" y="24px" /><rect fill="rgb(255,255,255)" height="3px" width="3px" x="10px" y="24px" /><rect fill="rgb(255,255,255)" height="3px" width="3px" x="12px" y="24px" /><rect fill="rgb(255,255,255)" height="3px" width="3px" x="14px" y="24px" /><rect fill="rgb(255,255,255)" height="3px" width="3px" x="16px" y="24px" /><rect fill="rgb(255,255,255)" height="3px" width="3px" x="18px" y="24px" /><rect fill="rgb(255,255,255)" height="3px" width="3px" x="28px" y="24px" /><rect fill="rgb(255,255,255)" height="3px" width="3px" x="30px" y="24px" /><rect fill="rgb(255,255,255)" height="3px" width="3px" x="36px" y="24px" /><rect fill="rgb(255,255,255)" height="3px" width="3px" x="38px" y="24px" /><rect fill="rgb(255,255,255)" height="3px" width="3px" x="40px" y="24px" /><rect fill="rgb(255,255,255)" height="3px" opacity="0.262745098039" width="3px" x="4px" y="26px" /><rect fill="rgb(255,255,255)" height="3px" width="3px" x="6px" y="26px" /><rect fill="rgb(255,255,255)" height="3px" width="3px" x="8px" y="26px" /><rect fill="rgb(255,255,255)" height="3px" width="3px" x="10px" y="26px" /><rect fill="rgb(255,255,255)" height="3px" opacity="0.16862745098" width="3px" x="12px" y="26px" /><rect fill="rgb(255,255,255)" height="3px" width="3px" x="28px" y="26px" /><rect fill="rgb(255,255,255)" height="3px" width="3px" x="30px" y="26px" /><rect fill="rgb(255,255,255)" height="3px" width="3px" x="38px" y="26px" /><rect fill="rgb(255,255,255)" height="3px" width="3px" x="40px" y="26px" /><rect fill="rgb(255,255,255)" height="3px" width="3px" x="42px" y="26px" /><rect fill="rgb(255,255,255)" height="3px" opacity="0.0392156862745" width="3px" x="8px" y="28px" /><rect fill="rgb(255,255,255)" height="3px" width="3px" x="28px" y="28px" /><rect fill="rgb(255,255,255)" height="3px" width="3px" x="30px" y="28px" /><rect fill="rgb(255,255,255)" height="3px" width="3px" x="40px" y="28px" /><rect fill="rgb(255,255,255)" height="3px" width="3px" x="42px" y="28px" /><rect fill="rgb(255,255,255)" height="3px" width="3px" x="44px" y="28px" /><rect fill="rgb(255,255,255)" height="3px" width="3px" x="28px" y="30px" /><rect fill="rgb(255,255,255)" height="3px" width="3px" x="30px" y="30px" /><rect fill="rgb(255,255,255)" height="3px" width="3px" x="42px" y="30px" /><rect fill="rgb(255,255,255)" height="3px" width="3px" x="44px" y="30px" /><rect fill="rgb(255,255,255)" height="3px" width="3px" x="46px" y="30px" /><rect fill="rgb(255,255,255)" height="3px" width="3px" x="28px" y="32px" /><rect fill="rgb(255,255,255)" height="3px" width="3px" x="30px" y="32px" /><rect fill="rgb(255,255,255)" height="3px" width="3px" x="44px" y="32px" /><rect fill="rgb(255,255,255)" height="3px" width="3px" x="46px" y="32px" /><rect fill="rgb(255,255,255)" height="3px" width="3px" x="48px" y="32px" /><rect fill="rgb(255,255,255)" height="3px" width="3px" x="28px" y="34px" /><rect fill="rgb(255,255,255)" height="3px" width="3px" x="30px" y="34px" /><rect fill="rgb(255,255,255)" height="3px" width="3px" x="46px" y="34px" /><rect fill="rgb(255,255,255)" height="3px" width="3px" x="48px" y="34px" /><rect fill="rgb(255,255,255)" height="3px" width="3px" x="28px" y="36px" /><rect fill="rgb(255,255,255)" height="3px" width="3px" x="30px" y="36px" /><rect fill="rgb(255,255,255)" height="3px" width="3px" x="28px" y="38px" /><rect fill="rgb(255,255,255)" height="3px" width="3px" x="30px" y="38px" /><rect fill="rgb(255,255,255)" height="3px" width="3px" x="28px" y="40px" /><rect fill="rgb(255,255,255)" height="3px" width="3px" x="30px" y="40px" /><rect fill="rgb(255,255,255)" height="3px" width="3px" x="28px" y="42px" /><rect fill="rgb(255,255,255)" height="3px" width="3px" x="30px" y="42px" /><rect fill="rgb(255,255,255)" height="3px" width="3px" x="28px" y="44px" /><rect fill="rgb(255,255,255)" height="3px" width="3px" x="30px" y="44px" /><rect fill="rgb(255,255,255)" height="3px" width="3px" x="28px" y="46px" /><rect fill="rgb(255,255,255)" height="3px" width="3px" x="30px" y="46px" /><rect fill="rgb(255,255,255)" height="3px" width="3px" x="28px" y="48px" /><rect fill="rgb(255,255,255)" height="3px" width="3px" x="30px" y="48px" /><rect fill="rgb(255,255,255)" height="3px" width="3px" x="28px" y="50px" /><rect fill="rgb(255,255,255)" height="3px" width="3px" x="30px" y="50px" /><rect fill="rgb(255,255,255)" height="3px" width="3px" x="28px" y="52px" /><rect fill="rgb(255,255,255)" height="3px" width="3px" x="30px" y="52px" /><rect fill="rgb(255,255,255)" height="3px" width="3px" x="28px" y="54px" /><rect fill="rgb(255,255,255)" height="3px" width="3px" x="30px" y="54px" /><rect fill="rgb(255,255,255)" height="3px" width="3px" x="28px" y="56px" /><rect fill="rgb(255,255,255)" height="3px" width="3px" x="30px" y="56px" /><rect fill="rgb(255,255,255)" height="3px" width="3px" x="28px" y="58px" /><rect fill="rgb(255,255,255)" height="3px" width="3px" x="30px" y="58px" /><rect fill="rgb(255,255,255)" height="3px" width="3px" x="28px" y="60px" /><rect fill="rgb(255,255,255)" height="3px" width="3px" x="30px" y="60px" /><rect fill="rgb(255,255,255)" height="3px" width="3px" x="28px" y="62px" /><rect fill="rgb(255,255,255)" height="3px" width="3px" x="30px" y="62px" /></svg>