<?xml version="1.0" encoding="utf-8" ?>
<svg baseProfile="full" height="64px" version="1.1" width="64px" xmlns="http://www.w3.org/2000/svg" xmlns:ev="http://www.w3.org/2001/xml-events" xmlns:xlink="http://www.w3.org/1999/xlink"><defs /><rect fill="rgb(69,69,64)" height="3px" opacity="0.301960784314" width="3px" x="32px" y="4px" /><rect fill="rgb(71,71,66)" height="3px" opacity="0.0313725490196" width="3px" x="34px" y="4px" /><rect fill="rgb(70,70,65)" height="3px" opacity="0.262745098039" width="3px" x="30px" y="6px" /><rect fill="rgb(48,48,47)" height="3px" opacity="0.992156862745" width="3px" x="32px" y="6px" /><rect fill="rgb(64,64,60)" height="3px" opacity="0.709803921569" width="3px" x="34px" y="6px" /><rect fill="rgb(70,70,65)" height="3px" opacity="0.2" width="3px" x="28px" y="8px" /><rect fill="rgb(50,50,49)" height="3px" opacity="0.98431372549" width="3px" x="30px" y="8px" /><rect fill="rgb(42,42,42)" height="3px" width="3px" x="32px" y="8px" /><rect fill="rgb(44,44,44)" height="3px" width="3px" x="34px" y="8px" /><rect fill="rgb(69,69,64)" height="3px" opacity="0.301960784314" width="3px" x="36px" y="8px" /><rect fill="rgb(71,71,66)" height="3px" opacity="0.0862745098039" width="3px" x="26px" y="10px" /><rect fill="rgb(52,52,50)" height="3px" opacity="0.972549019608" width="3px" x="28px" y="10px" /><rect fill="rgb(47,47,46)" height="3px" width="3px" x="30px" y="10px" /><rect fill="rgb(47,47,46)" height="3px" width="3px" x="32px" y="10px" /><rect fill="rgb(42,42,42)" height="3px" width="3px" x="34px" y="10px" /><rect fill="rgb(55,55,53)" height="3px" opacity="0.945098039216" width="3px" x="36px" y="10px" /><rect fill="rgb(71,71,66)" height="3px" opacity="0.0156862745098" width="3px" x="38px" y="10px" /><rect fill="rgb(68,68,63)" height="3px" opacity="0.490196078431" width="3px" x="26px" y="12px" /><rect fill="rgb(42,42,42)" height="3px" width="3px" x="28px" y="12px" /><rect fill="rgb(53,53,51)" height="3px" width="3px" x="30px" y="12px" /><rect fill="rgb(50,50,48)" height="3px" width="3px" x="32px" y="12px" /><rect fill="rgb(42,42,42)" height="3px" width="3px" x="34px" y="12px" /><rect fill="rgb(42,42,42)" height="3px" width="3px" x="36px" y="12px" /><rect fill="rgb(65,65,61)" height="3px" opacity="0.670588235294" width="3px" x="38px" y="12px" /><rect fill="rgb(18,18,4)" height="3px" width="3px" x="8px" y="14px" /><rect fill="rgb(18,18,4)" height="3px" width="3px" x="10px" y="14px" /><rect fill="rgb(18,18,4)" height="3px" width="3px" x="12px" y="14px" /><rect fill="rgb(18,18,4)" height="3px" width="3px" x="14px" y="14px" /><rect fill="rgb(18,18,4)" height="3px" width="3px" x="16px" y="14px" /><rect fill="rgb(63,63,59)" height="3px" opacity="0.780392156863" width="3px" x="26px" y="14px" /><rect fill="rgb(47,47,46)" height="3px" width="3px" x="28px" y="14px" /><rect fill="rgb(47,47,46)" height="3px" width="3px" x="30px" y="14px" /><rect fill="rgb(45,45,44)" height="3px" width="3px" x="32px" y="14px" /><rect fill="rgb(45,45,44)" height="3px" width="3px" x="34px" y="14px" /><rect fill="rgb(42,42,42)" height="3px" width="3px" x="36px" y="14px" /><rect fill="rgb(45,45,44)" height="3px" width="3px" x="38px" y="14px" /><rect fill="rgb(70,70,65)" height="3px" opacity="0.254901960784" width="3px" x="40px" y="14px" /><rect fill="rgb(18,18,4)" height="3px" width="3px" x="6px" y="16px" /><rect fill="rgb(18,18,4)" height="3px" width="3px" x="8px" y="16px" /><rect fill="rgb(18,18,4)" height="3px" width="3px" x="10px" y="16px" /><rect fill="rgb(18,18,4)" height="3px" width="3px" x="12px" y="16px" /><rect fill="rgb(18,18,4)" height="3px" width="3px" x="14px" y="16px" /><rect fill="rgb(18,18,4)" height="3px" width="3px" x="16px" y="16px" /><rect fill="rgb(18,18,4)" height="3px" width="3px" x="18px" y="16px" /><rect fill="rgb(55,55,52)" height="3px" opacity="0.952941176471" width="3px" x="26px" y="16px" /><rect fill="rgb(50,50,48)" height="3px" width="3px" x="28px" y="16px" /><rect fill="rgb(44,44,44)" height="3px" width="3px" x="30px" y="16px" /><rect fill="rgb(45,45,44)" height="3px" width="3px" x="32px" y="16px" /><rect fill="rgb(46,46,45)" height="3px" width="3px" x="34px" y="16px" /><rect fill="rgb(46,46,45)" height="3px" width="3px" x="36px" y="16px" /><rect fill="rgb(42,42,42)" height="3px" width="3px" x="38px" y="16px" /><rect fill="rgb(55,55,53)" height="3px" opacity="0.945098039216" width="3px" x="40px" y="16px" /><rect fill="rgb(71,71,66)" height="3px" opacity="0.0470588235294" width="3px" x="42px" y="16px" /><rect fill="rgb(18,18,4)" height="3px" width="3px" x="6px" y="18px" /><rect fill="rgb(18,18,4)" height="3px" width="3px" x="8px" y="18px" /><rect fill="rgb(18,18,4)" height="3px" width="3px" x="12px" y="18px" /><rect fill="rgb(18,18,4)" height="3px" width="3px" x="16px" y="18px" /><rect fill="rgb(18,18,4)" height="3px" width="3px" x="18px" y="18px" /><rect fill="rgb(71,71,66)" height="3px" opacity="0.0901960784314" width="3px" x="24px" y="18px" /><rect fill="rgb(46,46,45)" height="3px" width="3px" x="26px" y="18px" /><rect fill="rgb(50,50,48)" height="3px" width="3px" x="28px" y="18px" /><rect fill="rgb(51,51,50)" height="3px" width="3px" x="30px" y="18px" /><rect fill="rgb(51,51,50)" height="3px" width="3px" x="32px" y="18px" /><rect fill="rgb(45,45,45)" height="3px" width="3px" x="34px" y="18px" /><rect fill="rgb(60,60,57)" height="3px" width="3px" x="36px" y="18px" /><rect fill="rgb(42,42,42)" height="3px" width="3px" x="38px" y="18px" /><rect fill="rgb(42,42,42)" height="3px" width="3px" x="40px" y="18px" /><rect fill="rgb(60,60,57)" height="3px" opacity="0.862745098039" width="3px" x="42px" y="18px" /><rect fill="rgb(18,18,4)" height="3px" width="3px" x="4px" y="20px" /><rect fill="rgb(18,18,4)" height="3px" width="3px" x="6px" y="20px" /><rect fill="rgb(18,18,4)" height="3px" width="3px" x="12px" y="20px" /><rect fill="rgb(18,18,4)" height="3px" width="3px" x="18px" y="20px" /><rect fill="rgb(18,18,4)" height="3px" width="3px" x="20px" y="20px" /><rect fill="rgb(70,70,65)" height="3px" opacity="0.180392156863" width="3px" x="22px" y="20px" /><rect fill="rgb(62,62,58)" height="3px" opacity="0.796078431373" width="3px" x="24px" y="20px" /><rect fill="rgb(47,47,46)" height="3px" width="3px" x="26px" y="20px" /><rect fill="rgb(51,51,50)" height="3px" width="3px" x="28px" y="20px" /><rect fill="rgb(47,47,46)" height="3px" width="3px" x="30px" y="20px" /><rect fill="rgb(42,42,42)" height="3px" width="3px" x="32px" y="20px" /><rect fill="rgb(47,47,46)" height="3px" width="3px" x="34px" y="20px" /><rect fill="rgb(49,49,47)" height="3px" width="3px" x="36px" y="20px" /><rect fill="rgb(50,50,48)" height="3px" width="3px" x="38px" y="20px" /><rect fill="rgb(42,42,42)" height="3px" width="3px" x="40px" y="20px" /><rect fill="rgb(42,42,42)" height="3px" width="3px" x="42px" y="20px" /><rect fill="rgb(65,65,60)" height="3px" opacity="0.694117647059" width="3px" x="44px" y="20px" /><rect fill="rgb(18,18,4)" height="3px" width="3px" x="12px" y="22px" /><rect fill="rgb(70,70,65)" height="3px" opacity="0.235294117647" width="3px" x="18px" y="22px" /><rect fill="rgb(59,59,55)" height="3px" opacity="0.898039215686" width="3px" x="20px" y="22px" /><rect fill="rgb(44,44,43)" height="3px" width="3px" x="22px" y="22px" /><rect fill="rgb(42,42,42)" height="3px" width="3px" x="24px" y="22px" /><rect fill="rgb(57,57,54)" height="3px" width="3px" x="26px" y="22px" /><rect fill="rgb(50,50,48)" height="3px" width="3px" x="28px" y="22px" /><rect fill="rgb(42,42,42)" height="3px" width="3px" x="30px" y="22px" /><rect fill="rgb(47,47,46)" height="3px" width="3px" x="32px" y="22px" /><rect fill="rgb(51,51,50)" height="3px" width="3px" x="34px" y="22px" /><rect fill="rgb(47,47,46)" height="3px" width="3px" x="36px" y="22px" /><rect fill="rgb(47,47,46)" height="3px" width="3px" x="38px" y="22px" /><rect fill="rgb(47,47,46)" height="3px" width="3px" x="40px" y="22px" /><rect fill="rgb(42,42,42)" height="3px" width="3px" x="42px" y="22px" /><rect fill="rgb(43,43,43)" height="3px" width="3px" x="44px" y="22px" /><rect fill="rgb(68,68,63)" height="3px" opacity="0.490196078431" width="3px" x="46px" y="22px" /><rect fill="rgb(18,18,4)" height="3px" width="3px" x="12px" y="24px" /><rect fill="rgb(62,62,58)" height="3px" opacity="0.811764705882" width="3px" x="18px" y="24px" /><rect fill="rgb(42,42,42)" height="3px" width="3px" x="20px" y="24px" /><rect fill="rgb(42,42,42)" height="3px" width="3px" x="22px" y="24px" /><rect fill="rgb(47,47,46)" height="3px" width="3px" x="24px" y="24px" /><rect fill="rgb(52,52,50)" height="3px" width="3px" x="26px" y="24px" /><rect fill="rgb(46,46,45)" height="3px" width="3px" x="28px" y="24px" /><rect fill="rgb(42,42,42)" height="3px" width="3px" x="30px" y="24px" /><rect fill="rgb(42,42,42)" height="3px" width="3px" x="32px" y="24px" /><rect fill="rgb(51,51,50)" height="3px" width="3px" x="34px" y="24px" /><rect fill="rgb(55,55,52)" height="3px" width="3px" x="36px" y="24px" /><rect fill="rgb(45,45,44)" height="3px" width="3px" x="38px" y="24px" /><rect fill="rgb(47,47,46)" height="3px" width="3px" x="40px" y="24px" /><rect fill="rgb(47,47,46)" height="3px" width="3px" x="42px" y="24px" /><rect fill="rgb(42,42,42)" height="3px" width="3px" x="44px" y="24px" /><rect fill="rgb(46,46,45)" height="3px" opacity="0.996078431373" width="3px" x="46px" y="24px" /><rect fill="rgb(72,72,67)" height="3px" opacity="0.298039215686" width="3px" x="48px" y="24px" /><rect fill="rgb(18,18,4)" height="3px" width="3px" x="12px" y="26px" /><rect fill="rgb(71,71,66)" height="3px" opacity="0.0470588235294" width="3px" x="16px" y="26px" /><rect fill="rgb(48,48,46)" height="3px" opacity="0.992156862745" width="3px" x="18px" y="26px" /><rect fill="rgb(42,42,42)" height="3px" width="3px" x="20px" y="26px" /><rect fill="rgb(42,42,42)" height="3px" width="3px" x="22px" y="26px" /><rect fill="rgb(49,49,48)" height="3px" width="3px" x="24px" y="26px" /><rect fill="rgb(60,60,56)" height="3px" width="3px" x="26px" y="26px" /><rect fill="rgb(48,48,46)" height="3px" width="3px" x="28px" y="26px" /><rect fill="rgb(42,42,42)" height="3px" width="3px" x="30px" y="26px" /><rect fill="rgb(42,42,42)" height="3px" width="3px" x="32px" y="26px" /><rect fill="rgb(49,49,47)" height="3px" width="3px" x="34px" y="26px" /><rect fill="rgb(63,63,59)" height="3px" width="3px" x="36px" y="26px" /><rect fill="rgb(60,60,57)" height="3px" width="3px" x="38px" y="26px" /><rect fill="rgb(42,42,42)" height="3px" width="3px" x="40px" y="26px" /><rect fill="rgb(47,47,46)" height="3px" width="3px" x="42px" y="26px" /><rect fill="rgb(47,47,46)" height="3px" width="3px" x="44px" y="26px" /><rect fill="rgb(44,44,43)" height="3px" width="3px" x="46px" y="26px" /><rect fill="rgb(58,58,55)" height="3px" opacity="0.96862745098" width="3px" x="48px" y="26px" /><rect fill="rgb(71,71,66)" height="3px" opacity="0.0470588235294" width="3px" x="50px" y="26px" /><rect fill="rgb(18,18,4)" height="3px" width="3px" x="12px" y="28px" /><rect fill="rgb(67,67,62)" height="3px" opacity="0.564705882353" width="3px" x="16px" y="28px" /><rect fill="rgb(42,42,42)" height="3px" width="3px" x="18px" y="28px" /><rect fill="rgb(42,42,42)" height="3px" width="3px" x="20px" y="28px" /><rect fill="rgb(42,42,42)" height="3px" width="3px" x="22px" y="28px" /><rect fill="rgb(54,54,51)" height="3px" width="3px" x="24px" y="28px" /><rect fill="rgb(49,49,48)" height="3px" width="3px" x="26px" y="28px" /><rect fill="rgb(42,42,42)" height="3px" width="3px" x="28px" y="28px" /><rect fill="rgb(42,42,42)" height="3px" width="3px" x="30px" y="28px" /><rect fill="rgb(42,42,42)" height="3px" width="3px" x="32px" y="28px" /><rect fill="rgb(55,55,53)" height="3px" width="3px" x="34px" y="28px" /><rect fill="rgb(47,47,46)" height="3px" width="3px" x="36px" y="28px" /><rect fill="rgb(51,51,50)" height="3px" width="3px" x="38px" y="28px" /><rect fill="rgb(51,51,50)" height="3px" width="3px" x="40px" y="28px" /><rect fill="rgb(42,42,42)" height="3px" width="3px" x="42px" y="28px" /><rect fill="rgb(47,47,46)" height="3px" width="3px" x="44px" y="28px" /><rect fill="rgb(49,49,47)" height="3px" width="3px" x="46px" y="28px" /><rect fill="rgb(50,50,48)" height="3px" width="3px" x="48px" y="28px" /><rect fill="rgb(63,63,59)" height="3px" opacity="0.764705882353" width="3px" x="50px" y="28px" /><rect fill="rgb(18,18,4)" height="3px" width="3px" x="12px" y="30px" /><rect fill="rgb(57,57,54)" height="3px" opacity="0.925490196078" width="3px" x="16px" y="30px" /><rect fill="rgb(42,42,42)" height="3px" width="3px" x="18px" y="30px" /><rect fill="rgb(42,42,42)" height="3px" width="3px" x="20px" y="30px" /><rect fill="rgb(53,53,51)" height="3px" width="3px" x="22px" y="30px" /><rect fill="rgb(57,57,55)" height="3px" width="3px" x="24px" y="30px" /><rect fill="rgb(45,45,45)" height="3px" width="3px" x="26px" y="30px" /><rect fill="rgb(46,46,45)" height="3px" width="3px" x="28px" y="30px" /><rect fill="rgb(42,42,42)" height="3px" width="3px" x="30px" y="30px" /><rect fill="rgb(47,47,46)" height="3px" width="3px" x="32px" y="30px" /><rect fill="rgb(51,51,50)" height="3px" width="3px" x="34px" y="30px" /><rect fill="rgb(47,47,46)" height="3px" width="3px" x="36px" y="30px" /><rect fill="rgb(42,42,42)" height="3px" width="3px" x="38px" y="30px" /><rect fill="rgb(54,54,51)" height="3px" width="3px" x="40px" y="30px" /><rect fill="rgb(49,49,48)" height="3px" width="3px" x="42px" y="30px" /><rect fill="rgb(42,42,42)" height="3px" width="3px" x="44px" y="30px" /><rect fill="rgb(47,47,46)" height="3px" width="3px" x="46px" y="30px" /><rect fill="rgb(55,55,53)" height="3px" width="3px" x="48px" y="30px" /><rect fill="rgb(43,43,43)" height="3px" width="3px" x="50px" y="30px" /><rect fill="rgb(69,69,64)" height="3px" opacity="0.392156862745" width="3px" x="52px" y="30px" /><rect fill="rgb(18,18,4)" height="3px" width="3px" x="12px" y="32px" /><rect fill="rgb(70,70,65)" height="3px" opacity="0.21568627451" width="3px" x="14px" y="32px" /><rect fill="rgb(43,43,43)" height="3px" width="3px" x="16px" y="32px" /><rect fill="rgb(42,42,42)" height="3px" width="3px" x="18px" y="32px" /><rect fill="rgb(49,49,48)" height="3px" width="3px" x="20px" y="32px" /><rect fill="rgb(65,65,60)" height="3px" width="3px" x="22px" y="32px" /><rect fill="rgb(49,49,48)" height="3px" width="3px" x="24px" y="32px" /><rect fill="rgb(51,51,49)" height="3px" width="3px" x="26px" y="32px" /><rect fill="rgb(46,46,45)" height="3px" width="3px" x="28px" y="32px" /><rect fill="rgb(47,47,46)" height="3px" width="3px" x="30px" y="32px" /><rect fill="rgb(47,47,46)" height="3px" width="3px" x="32px" y="32px" /><rect fill="rgb(50,50,48)" height="3px" width="3px" x="34px" y="32px" /><rect fill="rgb(44,44,44)" height="3px" width="3px" x="36px" y="32px" /><rect fill="rgb(42,42,42)" height="3px" width="3px" x="38px" y="32px" /><rect fill="rgb(42,42,42)" height="3px" width="3px" x="40px" y="32px" /><rect fill="rgb(54,54,51)" height="3px" width="3px" x="42px" y="32px" /><rect fill="rgb(55,55,53)" height="3px" width="3px" x="44px" y="32px" /><rect fill="rgb(44,44,44)" height="3px" width="3px" x="46px" y="32px" /><rect fill="rgb(54,54,52)" height="3px" width="3px" x="48px" y="32px" /><rect fill="rgb(49,49,47)" height="3px" width="3px" x="50px" y="32px" /><rect fill="rgb(55,55,52)" height="3px" opacity="0.949019607843" width="3px" x="52px" y="32px" /><rect fill="rgb(63,63,59)" height="3px" opacity="0.756862745098" width="3px" x="14px" y="34px" /><rect fill="rgb(42,42,42)" height="3px" width="3px" x="16px" y="34px" /><rect fill="rgb(42,42,42)" height="3px" width="3px" x="18px" y="34px" /><rect fill="rgb(65,65,60)" height="3px" width="3px" x="20px" y="34px" /><rect fill="rgb(61,61,57)" height="3px" width="3px" x="22px" y="34px" /><rect fill="rgb(52,49,45)" height="3px" width="3px" x="24px" y="34px" /><rect fill="rgb(48,44,41)" height="3px" width="3px" x="26px" y="34px" /><rect fill="rgb(46,46,46)" height="3px" width="3px" x="28px" y="34px" /><rect fill="rgb(50,50,48)" height="3px" width="3px" x="30px" y="34px" /><rect fill="rgb(42,42,42)" height="3px" width="3px" x="32px" y="34px" /><rect fill="rgb(50,50,48)" height="3px" width="3px" x="34px" y="34px" /><rect fill="rgb(52,52,50)" height="3px" width="3px" x="36px" y="34px" /><rect fill="rgb(47,47,46)" height="3px" width="3px" x="38px" y="34px" /><rect fill="rgb(47,47,46)" height="3px" width="3px" x="40px" y="34px" /><rect fill="rgb(44,44,44)" height="3px" width="3px" x="42px" y="34px" /><rect fill="rgb(50,50,48)" height="3px" width="3px" x="44px" y="34px" /><rect fill="rgb(54,54,52)" height="3px" width="3px" x="46px" y="34px" /><rect fill="rgb(47,47,46)" height="3px" width="3px" x="48px" y="34px" /><rect fill="rgb(51,51,50)" height="3px" width="3px" x="50px" y="34px" /><rect fill="rgb(47,47,46)" height="3px" width="3px" x="52px" y="34px" /><rect fill="rgb(68,68,63)" height="3px" opacity="0.486274509804" width="3px" x="54px" y="34px" /><rect fill="rgb(70,70,65)" height="3px" opacity="0.294117647059" width="3px" x="10px" y="36px" /><rect fill="rgb(71,71,66)" height="3px" opacity="0.0470588235294" width="3px" x="12px" y="36px" /><rect fill="rgb(50,50,48)" height="3px" opacity="0.98431372549" width="3px" x="14px" y="36px" /><rect fill="rgb(42,42,42)" height="3px" width="3px" x="16px" y="36px" /><rect fill="rgb(46,46,46)" height="3px" width="3px" x="18px" y="36px" /><rect fill="rgb(70,70,65)" height="3px" width="3px" x="20px" y="36px" /><rect fill="rgb(53,53,50)" height="3px" width="3px" x="22px" y="36px" /><rect fill="rgb(52,47,43)" height="3px" width="3px" x="24px" y="36px" /><rect fill="rgb(63,59,53)" height="3px" width="3px" x="26px" y="36px" /><rect fill="rgb(58,58,55)" height="3px" width="3px" x="28px" y="36px" /><rect fill="rgb(54,54,52)" height="3px" width="3px" x="30px" y="36px" /><rect fill="rgb(57,57,54)" height="3px" width="3px" x="32px" y="36px" /><rect fill="rgb(57,57,54)" height="3px" width="3px" x="34px" y="36px" /><rect fill="rgb(49,49,47)" height="3px" width="3px" x="36px" y="36px" /><rect fill="rgb(51,51,50)" height="3px" width="3px" x="38px" y="36px" /><rect fill="rgb(49,49,48)" height="3px" width="3px" x="40px" y="36px" /><rect fill="rgb(50,50,48)" height="3px" width="3px" x="42px" y="36px" /><rect fill="rgb(52,52,50)" height="3px" width="3px" x="44px" y="36px" /><rect fill="rgb(47,47,46)" height="3px" width="3px" x="46px" y="36px" /><rect fill="rgb(49,49,47)" height="3px" width="3px" x="48px" y="36px" /><rect fill="rgb(50,50,48)" height="3px" width="3px" x="50px" y="36px" /><rect fill="rgb(50,50,48)" height="3px" width="3px" x="52px" y="36px" /><rect fill="rgb(55,55,53)" height="3px" opacity="0.956862745098" width="3px" x="54px" y="36px" /><rect fill="rgb(57,57,54)" height="3px" opacity="0.925490196078" width="3px" x="10px" y="38px" /><rect fill="rgb(50,50,48)" height="3px" opacity="0.98431372549" width="3px" x="12px" y="38px" /><rect fill="rgb(42,42,42)" height="3px" width="3px" x="14px" y="38px" /><rect fill="rgb(134,92,8)" height="3px" width="3px" x="16px" y="38px" /><rect fill="rgb(125,84,4)" height="3px" width="3px" x="18px" y="38px" /><rect fill="rgb(120,80,1)" height="3px" width="3px" x="20px" y="38px" /><rect fill="rgb(123,81,1)" height="3px" width="3px" x="22px" y="38px" /><rect fill="rgb(127,85,1)" height="3px" width="3px" x="24px" y="38px" /><rect fill="rgb(137,92,2)" height="3px" width="3px" x="26px" y="38px" /><rect fill="rgb(131,88,2)" height="3px" width="3px" x="28px" y="38px" /><rect fill="rgb(132,89,3)" height="3px" width="3px" x="30px" y="38px" /><rect fill="rgb(139,93,1)" height="3px" width="3px" x="32px" y="38px" /><rect fill="rgb(130,88,2)" height="3px" width="3px" x="34px" y="38px" /><rect fill="rgb(130,88,2)" height="3px" width="3px" x="36px" y="38px" /><rect fill="rgb(131,88,3)" height="3px" width="3px" x="38px" y="38px" /><rect fill="rgb(119,80,1)" height="3px" width="3px" x="40px" y="38px" /><rect fill="rgb(127,84,1)" height="3px" width="3px" x="42px" y="38px" /><rect fill="rgb(123,82,1)" height="3px" width="3px" x="44px" y="38px" /><rect fill="rgb(119,79,1)" height="3px" width="3px" x="46px" y="38px" /><rect fill="rgb(51,51,50)" height="3px" width="3px" x="48px" y="38px" /><rect fill="rgb(50,50,48)" height="3px" width="3px" x="50px" y="38px" /><rect fill="rgb(44,44,44)" height="3px" width="3px" x="52px" y="38px" /><rect fill="rgb(50,50,48)" height="3px" width="3px" x="54px" y="38px" /><rect fill="rgb(70,70,65)" height="3px" opacity="0.435294117647" width="3px" x="56px" y="38px" /><rect fill="rgb(71,71,66)" height="3px" opacity="0.0627450980392" width="3px" x="8px" y="40px" /><rect fill="rgb(49,47,44)" height="3px" width="3px" x="10px" y="40px" /><rect fill="rgb(46,44,42)" height="3px" width="3px" x="12px" y="40px" /><rect fill="rgb(57,51,45)" height="3px" width="3px" x="14px" y="40px" /><rect fill="rgb(109,74,2)" height="3px" width="3px" x="16px" y="40px" /><rect fill="rgb(109,74,2)" height="3px" width="3px" x="18px" y="40px" /><rect fill="rgb(123,82,2)" height="3px" width="3px" x="20px" y="40px" /><rect fill="rgb(124,82,1)" height="3px" width="3px" x="22px" y="40px" /><rect fill="rgb(136,90,1)" height="3px" width="3px" x="24px" y="40px" /><rect fill="rgb(138,92,0)" height="3px" width="3px" x="26px" y="40px" /><rect fill="rgb(129,86,0)" height="3px" width="3px" x="28px" y="40px" /><rect fill="rgb(121,81,0)" height="3px" width="3px" x="30px" y="40px" /><rect fill="rgb(128,86,0)" height="3px" width="3px" x="32px" y="40px" /><rect fill="rgb(129,86,0)" height="3px" width="3px" x="34px" y="40px" /><rect fill="rgb(129,86,0)" height="3px" width="3px" x="36px" y="40px" /><rect fill="rgb(129,86,0)" height="3px" width="3px" x="38px" y="40px" /><rect fill="rgb(115,77,0)" height="3px" width="3px" x="40px" y="40px" /><rect fill="rgb(124,82,1)" height="3px" width="3px" x="42px" y="40px" /><rect fill="rgb(128,84,1)" height="3px" width="3px" x="44px" y="40px" /><rect fill="rgb(123,84,2)" height="3px" width="3px" x="46px" y="40px" /><rect fill="rgb(42,42,42)" height="3px" width="3px" x="48px" y="40px" /><rect fill="rgb(47,47,46)" height="3px" width="3px" x="50px" y="40px" /><rect fill="rgb(47,47,46)" height="3px" width="3px" x="52px" y="40px" /><rect fill="rgb(42,42,42)" height="3px" width="3px" x="54px" y="40px" /><rect fill="rgb(67,67,62)" height="3px" opacity="0.870588235294" width="3px" x="56px" y="40px" /><rect fill="rgb(68,68,63)" height="3px" opacity="0.474509803922" width="3px" x="8px" y="42px" /><rect fill="rgb(43,42,42)" height="3px" width="3px" x="10px" y="42px" /><rect fill="rgb(43,42,42)" height="3px" width="3px" x="12px" y="42px" /><rect fill="rgb(50,48,46)" height="3px" width="3px" x="14px" y="42px" /><rect fill="rgb(67,56,44)" height="3px" width="3px" x="16px" y="42px" /><rect fill="rgb(105,70,1)" height="3px" width="3px" x="18px" y="42px" /><rect fill="rgb(111,76,1)" height="3px" width="3px" x="20px" y="42px" /><rect fill="rgb(42,38,31)" height="3px" width="3px" x="22px" y="42px" /><rect fill="rgb(33,26,6)" height="3px" width="3px" x="24px" y="42px" /><rect fill="rgb(20,20,6)" height="3px" width="3px" x="26px" y="42px" /><rect fill="rgb(23,23,12)" height="3px" width="3px" x="28px" y="42px" /><rect fill="rgb(25,25,14)" height="3px" width="3px" x="30px" y="42px" /><rect fill="rgb(24,24,13)" height="3px" width="3px" x="32px" y="42px" /><rect fill="rgb(26,22,6)" height="3px" width="3px" x="34px" y="42px" /><rect fill="rgb(31,29,22)" height="3px" width="3px" x="36px" y="42px" /><rect fill="rgb(47,41,35)" height="3px" width="3px" x="38px" y="42px" /><rect fill="rgb(128,85,0)" height="3px" width="3px" x="40px" y="42px" /><rect fill="rgb(114,75,1)" height="3px" width="3px" x="42px" y="42px" /><rect fill="rgb(66,55,44)" height="3px" width="3px" x="44px" y="42px" /><rect fill="rgb(54,52,48)" height="3px" width="3px" x="46px" y="42px" /><rect fill="rgb(47,47,46)" height="3px" width="3px" x="48px" y="42px" /><rect fill="rgb(42,42,42)" height="3px" width="3px" x="50px" y="42px" /><rect fill="rgb(52,52,50)" height="3px" width="3px" x="52px" y="42px" /><rect fill="rgb(42,42,42)" height="3px" width="3px" x="54px" y="42px" /><rect fill="rgb(46,46,45)" height="3px" opacity="0.996078431373" width="3px" x="56px" y="42px" /><rect fill="rgb(71,71,66)" height="3px" opacity="0.0901960784314" width="3px" x="58px" y="42px" /><rect fill="rgb(62,62,59)" height="3px" opacity="0.792156862745" width="3px" x="8px" y="44px" /><rect fill="rgb(42,42,42)" height="3px" width="3px" x="10px" y="44px" /><rect fill="rgb(42,42,42)" height="3px" width="3px" x="12px" y="44px" /><rect fill="rgb(52,52,50)" height="3px" width="3px" x="14px" y="44px" /><rect fill="rgb(42,42,42)" height="3px" width="3px" x="16px" y="44px" /><rect fill="rgb(100,66,0)" height="3px" width="3px" x="18px" y="44px" /><rect fill="rgb(106,71,1)" height="3px" width="3px" x="20px" y="44px" /><rect fill="rgb(18,18,4)" height="3px" width="3px" x="22px" y="44px" /><rect fill="rgb(24,24,14)" height="3px" width="3px" x="24px" y="44px" /><rect fill="rgb(25,25,14)" height="3px" width="3px" x="26px" y="44px" /><rect fill="rgb(28,28,18)" height="3px" width="3px" x="28px" y="44px" /><rect fill="rgb(34,34,25)" height="3px" width="3px" x="30px" y="44px" /><rect fill="rgb(30,30,20)" height="3px" width="3px" x="32px" y="44px" /><rect fill="rgb(25,25,14)" height="3px" width="3px" x="34px" y="44px" /><rect fill="rgb(26,26,16)" height="3px" width="3px" x="36px" y="44px" /><rect fill="rgb(21,21,8)" height="3px" width="3px" x="38px" y="44px" /><rect fill="rgb(115,77,1)" height="3px" width="3px" x="40px" y="44px" /><rect fill="rgb(115,77,1)" height="3px" width="3px" x="42px" y="44px" /><rect fill="rgb(44,43,42)" height="3px" width="3px" x="44px" y="44px" /><rect fill="rgb(45,44,44)" height="3px" width="3px" x="46px" y="44px" /><rect fill="rgb(47,47,46)" height="3px" width="3px" x="48px" y="44px" /><rect fill="rgb(52,52,50)" height="3px" width="3px" x="50px" y="44px" /><rect fill="rgb(51,51,50)" height="3px" width="3px" x="52px" y="44px" /><rect fill="rgb(47,47,46)" height="3px" width="3px" x="54px" y="44px" /><rect fill="rgb(42,42,42)" height="3px" width="3px" x="56px" y="44px" /><rect fill="rgb(66,66,62)" height="3px" opacity="0.596078431373" width="3px" x="58px" y="44px" /><rect fill="rgb(53,53,51)" height="3px" opacity="0.964705882353" width="3px" x="8px" y="46px" /><rect fill="rgb(42,42,42)" height="3px" width="3px" x="10px" y="46px" /><rect fill="rgb(52,52,50)" height="3px" width="3px" x="12px" y="46px" /><rect fill="rgb(42,42,42)" height="3px" width="3px" x="14px" y="46px" /><rect fill="rgb(42,42,42)" height="3px" width="3px" x="16px" y="46px" /><rect fill="rgb(103,68,1)" height="3px" width="3px" x="18px" y="46px" /><rect fill="rgb(116,79,3)" height="3px" width="3px" x="20px" y="46px" /><rect fill="rgb(18,18,4)" height="3px" width="3px" x="22px" y="46px" /><rect fill="rgb(26,26,16)" height="3px" width="3px" x="24px" y="46px" /><rect fill="rgb(24,24,15)" height="3px" width="3px" x="26px" y="46px" /><rect fill="rgb(20,20,6)" height="3px" width="3px" x="28px" y="46px" /><rect fill="rgb(32,32,22)" height="3px" width="3px" x="30px" y="46px" /><rect fill="rgb(24,24,13)" height="3px" width="3px" x="32px" y="46px" /><rect fill="rgb(18,18,4)" height="3px" width="3px" x="34px" y="46px" /><rect fill="rgb(27,27,16)" height="3px" width="3px" x="36px" y="46px" /><rect fill="rgb(23,21,5)" height="3px" width="3px" x="38px" y="46px" /><rect fill="rgb(104,70,1)" height="3px" width="3px" x="40px" y="46px" /><rect fill="rgb(106,72,11)" height="3px" width="3px" x="42px" y="46px" /><rect fill="rgb(47,46,45)" height="3px" width="3px" x="44px" y="46px" /><rect fill="rgb(44,44,44)" height="3px" width="3px" x="46px" y="46px" /><rect fill="rgb(44,44,43)" height="3px" width="3px" x="48px" y="46px" /><rect fill="rgb(42,42,42)" height="3px" width="3px" x="50px" y="46px" /><rect fill="rgb(49,49,48)" height="3px" width="3px" x="52px" y="46px" /><rect fill="rgb(50,50,48)" height="3px" width="3px" x="54px" y="46px" /><rect fill="rgb(42,42,42)" height="3px" width="3px" x="56px" y="46px" /><rect fill="rgb(56,56,54)" height="3px" opacity="0.933333333333" width="3px" x="58px" y="46px" /><rect fill="rgb(70,70,65)" height="3px" opacity="0.172549019608" width="3px" x="6px" y="48px" /><rect fill="rgb(42,42,42)" height="3px" width="3px" x="8px" y="48px" /><rect fill="rgb(53,53,50)" height="3px" width="3px" x="10px" y="48px" /><rect fill="rgb(60,60,57)" height="3px" width="3px" x="12px" y="48px" /><rect fill="rgb(51,51,50)" height="3px" width="3px" x="14px" y="48px" /><rect fill="rgb(47,47,46)" height="3px" width="3px" x="16px" y="48px" /><rect fill="rgb(107,71,2)" height="3px" width="3px" x="18px" y="48px" /><rect fill="rgb(115,77,3)" height="3px" width="3px" x="20px" y="48px" /><rect fill="rgb(23,23,13)" height="3px" width="3px" x="22px" y="48px" /><rect fill="rgb(34,34,27)" height="3px" width="3px" x="24px" y="48px" /><rect fill="rgb(32,32,25)" height="3px" width="3px" x="26px" y="48px" /><rect fill="rgb(33,33,25)" height="3px" width="3px" x="28px" y="48px" /><rect fill="rgb(27,27,16)" height="3px" width="3px" x="30px" y="48px" /><rect fill="rgb(22,22,10)" height="3px" width="3px" x="32px" y="48px" /><rect fill="rgb(22,22,10)" height="3px" width="3px" x="34px" y="48px" /><rect fill="rgb(25,25,14)" height="3px" width="3px" x="36px" y="48px" /><rect fill="rgb(19,19,5)" height="3px" width="3px" x="38px" y="48px" /><rect fill="rgb(103,69,1)" height="3px" width="3px" x="40px" y="48px" /><rect fill="rgb(105,70,1)" height="3px" width="3px" x="42px" y="48px" /><rect fill="rgb(55,55,52)" height="3px" width="3px" x="44px" y="48px" /><rect fill="rgb(53,53,50)" height="3px" width="3px" x="46px" y="48px" /><rect fill="rgb(50,50,48)" height="3px" width="3px" x="48px" y="48px" /><rect fill="rgb(42,42,42)" height="3px" width="3px" x="50px" y="48px" /><rect fill="rgb(42,42,42)" height="3px" width="3px" x="52px" y="48px" /><rect fill="rgb(50,50,48)" height="3px" width="3px" x="54px" y="48px" /><rect fill="rgb(44,44,44)" height="3px" width="3px" x="56px" y="48px" /><rect fill="rgb(42,42,42)" height="3px" width="3px" x="58px" y="48px" /><rect fill="rgb(70,70,65)" height="3px" opacity="0.247058823529" width="3px" x="60px" y="48px" /><rect fill="rgb(66,66,62)" height="3px" opacity="0.592156862745" width="3px" x="6px" y="50px" /><rect fill="rgb(44,44,43)" height="3px" width="3px" x="8px" y="50px" /><rect fill="rgb(52,52,50)" height="3px" width="3px" x="10px" y="50px" /><rect fill="rgb(49,49,48)" height="3px" width="3px" x="12px" y="50px" /><rect fill="rgb(48,48,47)" height="3px" width="3px" x="14px" y="50px" /><rect fill="rgb(47,47,46)" height="3px" width="3px" x="16px" y="50px" /><rect fill="rgb(108,73,2)" height="3px" width="3px" x="18px" y="50px" /><rect fill="rgb(108,74,2)" height="3px" width="3px" x="20px" y="50px" /><rect fill="rgb(23,23,15)" height="3px" width="3px" x="22px" y="50px" /><rect fill="rgb(26,26,17)" height="3px" width="3px" x="24px" y="50px" /><rect fill="rgb(22,22,10)" height="3px" width="3px" x="26px" y="50px" /><rect fill="rgb(26,26,15)" height="3px" width="3px" x="28px" y="50px" /><rect fill="rgb(23,23,12)" height="3px" width="3px" x="30px" y="50px" /><rect fill="rgb(23,23,12)" height="3px" width="3px" x="32px" y="50px" /><rect fill="rgb(32,32,23)" height="3px" width="3px" x="34px" y="50px" /><rect fill="rgb(23,23,11)" height="3px" width="3px" x="36px" y="50px" /><rect fill="rgb(20,20,7)" height="3px" width="3px" x="38px" y="50px" /><rect fill="rgb(106,71,4)" height="3px" width="3px" x="40px" y="50px" /><rect fill="rgb(101,67,4)" height="3px" width="3px" x="42px" y="50px" /><rect fill="rgb(44,44,41)" height="3px" width="3px" x="44px" y="50px" /><rect fill="rgb(50,50,48)" height="3px" width="3px" x="46px" y="50px" /><rect fill="rgb(50,50,48)" height="3px" width="3px" x="48px" y="50px" /><rect fill="rgb(42,42,42)" height="3px" width="3px" x="50px" y="50px" /><rect fill="rgb(42,42,42)" height="3px" width="3px" x="52px" y="50px" /><rect fill="rgb(51,51,50)" height="3px" width="3px" x="54px" y="50px" /><rect fill="rgb(51,51,50)" height="3px" width="3px" x="56px" y="50px" /><rect fill="rgb(42,42,42)" height="3px" width="3px" x="58px" y="50px" /><rect fill="rgb(64,64,60)" height="3px" opacity="0.745098039216" width="3px" x="60px" y="50px" /><rect fill="rgb(60,60,57)" height="3px" opacity="0.862745098039" width="3px" x="6px" y="52px" /><rect fill="rgb(42,42,42)" height="3px" width="3px" x="8px" y="52px" /><rect fill="rgb(42,42,42)" height="3px" width="3px" x="10px" y="52px" /><rect fill="rgb(46,46,44)" height="3px" width="3px" x="12px" y="52px" /><rect fill="rgb(48,48,47)" height="3px" width="3px" x="14px" y="52px" /><rect fill="rgb(45,45,44)" height="3px" width="3px" x="16px" y="52px" /><rect fill="rgb(109,73,2)" height="3px" width="3px" x="18px" y="52px" /><rect fill="rgb(106,71,2)" height="3px" width="3px" x="20px" y="52px" /><rect fill="rgb(18,18,4)" height="3px" width="3px" x="22px" y="52px" /><rect fill="rgb(24,24,15)" height="3px" width="3px" x="24px" y="52px" /><rect fill="rgb(20,20,6)" height="3px" width="3px" x="26px" y="52px" /><rect fill="rgb(25,25,14)" height="3px" width="3px" x="28px" y="52px" /><rect fill="rgb(22,22,10)" height="3px" width="3px" x="30px" y="52px" /><rect fill="rgb(22,22,10)" height="3px" width="3px" x="32px" y="52px" /><rect fill="rgb(29,29,19)" height="3px" width="3px" x="34px" y="52px" /><rect fill="rgb(26,26,15)" height="3px" width="3px" x="36px" y="52px" /><rect fill="rgb(27,27,17)" height="3px" width="3px" x="38px" y="52px" /><rect fill="rgb(104,69,5)" height="3px" width="3px" x="40px" y="52px" /><rect fill="rgb(101,67,4)" height="3px" width="3px" x="42px" y="52px" /><rect fill="rgb(43,43,43)" height="3px" width="3px" x="44px" y="52px" /><rect fill="rgb(42,42,42)" height="3px" width="3px" x="46px" y="52px" /><rect fill="rgb(43,43,43)" height="3px" width="3px" x="48px" y="52px" /><rect fill="rgb(48,48,46)" height="3px" width="3px" x="50px" y="52px" /><rect fill="rgb(42,42,42)" height="3px" width="3px" x="52px" y="52px" /><rect fill="rgb(47,47,46)" height="3px" width="3px" x="54px" y="52px" /><rect fill="rgb(47,47,46)" height="3px" width="3px" x="56px" y="52px" /><rect fill="rgb(44,44,43)" height="3px" width="3px" x="58px" y="52px" /><rect fill="rgb(53,53,50)" height="3px" opacity="0.98431372549" width="3px" x="60px" y="52px" /><rect fill="rgb(71,71,66)" height="3px" opacity="0.0078431372549" width="3px" x="62px" y="52px" /><rect fill="rgb(42,42,42)" height="3px" opacity="0.0588235294118" width="3px" x="2px" y="54px" /><rect fill="rgb(42,42,42)" height="3px" opacity="0.870588235294" width="3px" x="4px" y="54px" /><rect fill="rgb(42,42,42)" height="3px" width="3px" x="6px" y="54px" /><rect fill="rgb(42,42,42)" height="3px" width="3px" x="8px" y="54px" /><rect fill="rgb(47,47,46)" height="3px" width="3px" x="10px" y="54px" /><rect fill="rgb(57,57,54)" height="3px" width="3px" x="12px" y="54px" /><rect fill="rgb(48,48,47)" height="3px" width="3px" x="14px" y="54px" /><rect fill="rgb(47,46,44)" height="3px" width="3px" x="16px" y="54px" /><rect fill="rgb(103,69,1)" height="3px" width="3px" x="18px" y="54px" /><rect fill="rgb(107,71,2)" height="3px" width="3px" x="20px" y="54px" /><rect fill="rgb(18,18,4)" height="3px" width="3px" x="22px" y="54px" /><rect fill="rgb(22,22,12)" height="3px" width="3px" x="24px" y="54px" /><rect fill="rgb(26,26,16)" height="3px" width="3px" x="26px" y="54px" /><rect fill="rgb(20,20,6)" height="3px" width="3px" x="28px" y="54px" /><rect fill="rgb(22,22,10)" height="3px" width="3px" x="30px" y="54px" /><rect fill="rgb(22,22,10)" height="3px" width="3px" x="32px" y="54px" /><rect fill="rgb(25,25,14)" height="3px" width="3px" x="34px" y="54px" /><rect fill="rgb(32,32,22)" height="3px" width="3px" x="36px" y="54px" /><rect fill="rgb(26,26,15)" height="3px" width="3px" x="38px" y="54px" /><rect fill="rgb(107,72,9)" height="3px" width="3px" x="40px" y="54px" /><rect fill="rgb(98,66,6)" height="3px" width="3px" x="42px" y="54px" /><rect fill="rgb(45,45,44)" height="3px" width="3px" x="44px" y="54px" /><rect fill="rgb(47,47,46)" height="3px" width="3px" x="46px" y="54px" /><rect fill="rgb(50,50,48)" height="3px" opacity="0.937254901961" width="3px" x="48px" y="54px" /><rect fill="rgb(43,43,43)" height="3px" width="3px" x="50px" y="54px" /><rect fill="rgb(45,45,44)" height="3px" width="3px" x="52px" y="54px" /><rect fill="rgb(45,45,44)" height="3px" width="3px" x="54px" y="54px" /><rect fill="rgb(48,48,46)" height="3px" width="3px" x="56px" y="54px" /><rect fill="rgb(47,47,46)" height="3px" width="3px" x="58px" y="54px" /><rect fill="rgb(44,44,44)" height="3px" width="3px" x="60px" y="54px" /><rect fill="rgb(42,42,42)" height="3px" width="3px" x="62px" y="54px" /><rect fill="rgb(91,91,83)" height="3px" opacity="0.0470588235294" width="3px" x="0px" y="56px" /><rect fill="rgb(69,69,64)" height="3px" opacity="0.160784313725" width="3px" x="2px" y="56px" /><rect fill="rgb(48,48,47)" height="3px" opacity="0.894117647059" width="3px" x="4px" y="56px" /><rect fill="rgb(51,51,50)" height="3px" width="3px" x="6px" y="56px" /><rect fill="rgb(55,55,52)" height="3px" width="3px" x="8px" y="56px" /><rect fill="rgb(53,53,51)" height="3px" width="3px" x="10px" y="56px" /><rect fill="rgb(50,50,49)" height="3px" width="3px" x="12px" y="56px" /><rect fill="rgb(47,47,46)" height="3px" width="3px" x="14px" y="56px" /><rect fill="rgb(51,49,46)" height="3px" width="3px" x="16px" y="56px" /><rect fill="rgb(101,67,1)" height="3px" width="3px" x="18px" y="56px" /><rect fill="rgb(101,67,1)" height="3px" width="3px" x="20px" y="56px" /><rect fill="rgb(18,18,4)" height="3px" width="3px" x="22px" y="56px" /><rect fill="rgb(28,28,20)" height="3px" width="3px" x="24px" y="56px" /><rect fill="rgb(22,22,10)" height="3px" width="3px" x="26px" y="56px" /><rect fill="rgb(18,18,4)" height="3px" width="3px" x="28px" y="56px" /><rect fill="rgb(25,25,14)" height="3px" width="3px" x="30px" y="56px" /><rect fill="rgb(20,20,6)" height="3px" width="3px" x="32px" y="56px" /><rect fill="rgb(28,28,18)" height="3px" width="3px" x="34px" y="56px" /><rect fill="rgb(34,34,25)" height="3px" width="3px" x="36px" y="56px" /><rect fill="rgb(27,27,16)" height="3px" width="3px" x="38px" y="56px" /><rect fill="rgb(101,69,13)" height="3px" width="3px" x="40px" y="56px" /><rect fill="rgb(98,66,6)" height="3px" width="3px" x="42px" y="56px" /><rect fill="rgb(48,48,46)" height="3px" width="3px" x="44px" y="56px" /><rect fill="rgb(47,47,46)" height="3px" width="3px" x="46px" y="56px" /><rect fill="rgb(48,48,46)" height="3px" width="3px" x="48px" y="56px" /><rect fill="rgb(47,47,46)" height="3px" width="3px" x="50px" y="56px" /><rect fill="rgb(46,46,44)" height="3px" width="3px" x="52px" y="56px" /><rect fill="rgb(46,46,44)" height="3px" width="3px" x="54px" y="56px" /><rect fill="rgb(42,42,42)" height="3px" width="3px" x="56px" y="56px" /><rect fill="rgb(42,42,42)" height="3px" width="3px" x="58px" y="56px" /><rect fill="rgb(42,42,42)" height="3px" width="3px" x="60px" y="56px" /><rect fill="rgb(42,42,42)" height="3px" width="3px" x="62px" y="56px" /><rect fill="rgb(43,43,43)" height="3px" width="3px" x="0px" y="58px" /><rect fill="rgb(43,43,43)" height="3px" width="3px" x="2px" y="58px" /><rect fill="rgb(47,47,46)" height="3px" width="3px" x="4px" y="58px" /><rect fill="rgb(49,49,47)" height="3px" width="3px" x="6px" y="58px" /><rect fill="rgb(44,44,44)" height="3px" width="3px" x="8px" y="58px" /><rect fill="rgb(43,43,43)" height="3px" width="3px" x="10px" y="58px" /><rect fill="rgb(44,44,44)" height="3px" width="3px" x="12px" y="58px" /><rect fill="rgb(47,47,46)" height="3px" width="3px" x="14px" y="58px" /><rect fill="rgb(46,45,44)" height="3px" width="3px" x="16px" y="58px" /><rect fill="rgb(101,67,1)" height="3px" width="3px" x="18px" y="58px" /><rect fill="rgb(99,66,0)" height="3px" width="3px" x="20px" y="58px" /><rect fill="rgb(18,18,4)" height="3px" width="3px" x="22px" y="58px" /><rect fill="rgb(21,21,11)" height="3px" width="3px" x="24px" y="58px" /><rect fill="rgb(18,18,4)" height="3px" width="3px" x="26px" y="58px" /><rect fill="rgb(18,18,4)" height="3px" width="3px" x="28px" y="58px" /><rect fill="rgb(18,18,4)" height="3px" width="3px" x="30px" y="58px" /><rect fill="rgb(18,18,4)" height="3px" width="3px" x="32px" y="58px" /><rect fill="rgb(26,26,15)" height="3px" width="3px" x="34px" y="58px" /><rect fill="rgb(33,33,24)" height="3px" width="3px" x="36px" y="58px" /><rect fill="rgb(23,23,12)" height="3px" width="3px" x="38px" y="58px" /><rect fill="rgb(105,72,13)" height="3px" width="3px" x="40px" y="58px" /><rect fill="rgb(105,71,7)" height="3px" width="3px" x="42px" y="58px" /><rect fill="rgb(48,48,46)" height="3px" width="3px" x="44px" y="58px" /><rect fill="rgb(43,43,43)" height="3px" width="3px" x="46px" y="58px" /><rect fill="rgb(42,42,42)" height="3px" width="3px" x="48px" y="58px" /><rect fill="rgb(50,50,48)" height="3px" width="3px" x="50px" y="58px" /><rect fill="rgb(53,53,52)" height="3px" width="3px" x="52px" y="58px" /><rect fill="rgb(49,49,48)" height="3px" width="3px" x="54px" y="58px" /><rect fill="rgb(48,48,46)" height="3px" width="3px" x="56px" y="58px" /><rect fill="rgb(48,48,46)" height="3px" width="3px" x="58px" y="58px" /><rect fill="rgb(50,50,48)" height="3px" width="3px" x="60px" y="58px" /><rect fill="rgb(45,45,44)" height="3px" width="3px" x="62px" y="58px" /><rect fill="rgb(42,42,42)" height="3px" opacity="0.56862745098" width="3px" x="0px" y="60px" /><rect fill="rgb(42,42,42)" height="3px" width="3px" x="2px" y="60px" /><rect fill="rgb(42,42,42)" height="3px" width="3px" x="4px" y="60px" /><rect fill="rgb(42,42,42)" height="3px" width="3px" x="6px" y="60px" /><rect fill="rgb(42,42,42)" height="3px" width="3px" x="8px" y="60px" /><rect fill="rgb(42,42,42)" height="3px" width="3px" x="10px" y="60px" /><rect fill="rgb(43,43,43)" height="3px" width="3px" x="12px" y="60px" /><rect fill="rgb(46,46,45)" height="3px" width="3px" x="14px" y="60px" /><rect fill="rgb(46,45,44)" height="3px" width="3px" x="16px" y="60px" /><rect fill="rgb(101,67,1)" height="3px" width="3px" x="18px" y="60px" /><rect fill="rgb(99,66,0)" height="3px" width="3px" x="20px" y="60px" /><rect fill="rgb(18,18,4)" height="3px" width="3px" x="22px" y="60px" /><rect fill="rgb(18,18,4)" height="3px" width="3px" x="24px" y="60px" /><rect fill="rgb(18,18,4)" height="3px" width="3px" x="26px" y="60px" /><rect fill="rgb(18,18,4)" height="3px" width="3px" x="28px" y="60px" /><rect fill="rgb(18,18,4)" height="3px" width="3px" x="30px" y="60px" /><rect fill="rgb(18,18,4)" height="3px" width="3px" x="32px" y="60px" /><rect fill="rgb(18,18,4)" height="3px" width="3px" x="34px" y="60px" /><rect fill="rgb(28,28,18)" height="3px" width="3px" x="36px" y="60px" /><rect fill="rgb(23,23,12)" height="3px" width="3px" x="38px" y="60px" /><rect fill="rgb(105,71,7)" height="3px" width="3px" x="40px" y="60px" /><rect fill="rgb(105,70,1)" height="3px" width="3px" x="42px" y="60px" /><rect fill="rgb(48,48,46)" height="3px" width="3px" x="44px" y="60px" /><rect fill="rgb(47,47,46)" height="3px" width="3px" x="46px" y="60px" /><rect fill="rgb(50,50,48)" height="3px" width="3px" x="48px" y="60px" /><rect fill="rgb(51,51,49)" height="3px" width="3px" x="50px" y="60px" /><rect fill="rgb(45,45,44)" height="3px" width="3px" x="52px" y="60px" /><rect fill="rgb(45,45,44)" height="3px" width="3px" x="54px" y="60px" /><rect fill="rgb(46,46,45)" height="3px" width="3px" x="56px" y="60px" /><rect fill="rgb(46,46,45)" height="3px" width="3px" x="58px" y="60px" /><rect fill="rgb(42,42,42)" height="3px" width="3px" x="60px" y="60px" /><rect fill="rgb(42,42,42)" height="3px" width="3px" x="62px" y="60px" /><rect fill="rgb(146,101,11)" height="3px" opacity="0.078431372549" width="3px" x="40px" y="62px" /><rect fill="rgb(146,101,11)" height="3px" opacity="0.0196078431373" width="3px" x="42px" y="62px" /><rect fill="rgb(91,91,83)" height="3px" opacity="0.0156862745098" width="3px" x="46px" y="62px" /><rect fill="rgb(91,91,83)" height="3px" opacity="0.0352941176471" width="3px" x="48px" y="62px" /><rect fill="rgb(91,91,83)" height="3px" opacity="0.0509803921569" width="3px" x="50px" y="62px" /><rect fill="rgb(91,91,83)" height="3px" opacity="0.0352941176471" width="3px" x="52px" y="62px" /><rect fill="rgb(91,91,83)" height="3px" opacity="0.0352941176471" width="3px" x="54px" y="62px" /><rect fill="rgb(91,91,83)" height="3px" opacity="0.0352941176471" width="3px" x="56px" y="62px" /><rect fill="rgb(91,91,83)" height="3px" opacity="0.0117647058824" width="3px" x="58px" y="62px" /></svg>