<?xml version="1.0" encoding="utf-8" ?>
<svg baseProfile="full" height="64px" version="1.1" width="64px" xmlns="http://www.w3.org/2000/svg" xmlns:ev="http://www.w3.org/2001/xml-events" xmlns:xlink="http://www.w3.org/1999/xlink"><defs /><rect fill="rgb(128,128,128)" height="3px" width="3px" x="18px" y="28px" /><rect fill="rgb(11,59,17)" height="3px" width="3px" x="20px" y="28px" /><rect fill="rgb(11,59,17)" height="3px" width="3px" x="22px" y="28px" /><rect fill="rgb(11,59,17)" height="3px" width="3px" x="24px" y="28px" /><rect fill="rgb(11,59,17)" height="3px" width="3px" x="26px" y="28px" /><rect fill="rgb(11,59,17)" height="3px" width="3px" x="28px" y="28px" /><rect fill="rgb(11,59,17)" height="3px" width="3px" x="30px" y="28px" /><rect fill="rgb(11,59,17)" height="3px" width="3px" x="32px" y="28px" /><rect fill="rgb(11,59,17)" height="3px" width="3px" x="34px" y="28px" /><rect fill="rgb(128,128,128)" height="3px" width="3px" x="36px" y="28px" /><rect fill="rgb(128,128,128)" height="3px" width="3px" x="38px" y="28px" /><rect fill="rgb(128,128,128)" height="3px" width="3px" x="10px" y="30px" /><rect fill="rgb(128,128,128)" height="3px" width="3px" x="12px" y="30px" /><rect fill="rgb(128,128,128)" height="3px" width="3px" x="14px" y="30px" /><rect fill="rgb(11,59,17)" height="3px" width="3px" x="16px" y="30px" /><rect fill="rgb(11,59,17)" height="3px" width="3px" x="18px" y="30px" /><rect fill="rgb(16,90,26)" height="3px" width="3px" x="20px" y="30px" /><rect fill="rgb(16,90,26)" height="3px" width="3px" x="22px" y="30px" /><rect fill="rgb(16,90,26)" height="3px" width="3px" x="24px" y="30px" /><rect fill="rgb(16,90,26)" height="3px" width="3px" x="26px" y="30px" /><rect fill="rgb(16,90,26)" height="3px" width="3px" x="28px" y="30px" /><rect fill="rgb(16,90,26)" height="3px" width="3px" x="30px" y="30px" /><rect fill="rgb(16,90,26)" height="3px" width="3px" x="32px" y="30px" /><rect fill="rgb(16,90,26)" height="3px" width="3px" x="34px" y="30px" /><rect fill="rgb(11,59,17)" height="3px" width="3px" x="36px" y="30px" /><rect fill="rgb(11,59,17)" height="3px" width="3px" x="38px" y="30px" /><rect fill="rgb(128,128,128)" height="3px" width="3px" x="40px" y="30px" /><rect fill="rgb(128,128,128)" height="3px" width="3px" x="42px" y="30px" /><rect fill="rgb(128,128,128)" height="3px" width="3px" x="44px" y="30px" /><rect fill="rgb(128,128,128)" height="3px" width="3px" x="46px" y="30px" /><rect fill="rgb(128,128,128)" height="3px" width="3px" x="6px" y="32px" /><rect fill="rgb(128,128,128)" height="3px" width="3px" x="8px" y="32px" /><rect fill="rgb(79,79,79)" height="3px" width="3px" x="10px" y="32px" /><rect fill="rgb(79,79,79)" height="3px" width="3px" x="12px" y="32px" /><rect fill="rgb(11,59,17)" height="3px" width="3px" x="14px" y="32px" /><rect fill="rgb(11,59,17)" height="3px" width="3px" x="16px" y="32px" /><rect fill="rgb(16,90,26)" height="3px" width="3px" x="18px" y="32px" /><rect fill="rgb(16,90,26)" height="3px" width="3px" x="20px" y="32px" /><rect fill="rgb(16,90,26)" height="3px" width="3px" x="22px" y="32px" /><rect fill="rgb(16,90,26)" height="3px" width="3px" x="24px" y="32px" /><rect fill="rgb(11,59,17)" height="3px" width="3px" x="26px" y="32px" /><rect fill="rgb(11,59,17)" height="3px" width="3px" x="28px" y="32px" /><rect fill="rgb(16,90,26)" height="3px" width="3px" x="30px" y="32px" /><rect fill="rgb(16,90,26)" height="3px" width="3px" x="32px" y="32px" /><rect fill="rgb(16,90,26)" height="3px" width="3px" x="34px" y="32px" /><rect fill="rgb(16,90,26)" height="3px" width="3px" x="36px" y="32px" /><rect fill="rgb(11,59,17)" height="3px" width="3px" x="38px" y="32px" /><rect fill="rgb(11,59,17)" height="3px" width="3px" x="40px" y="32px" /><rect fill="rgb(79,79,79)" height="3px" width="3px" x="42px" y="32px" /><rect fill="rgb(79,79,79)" height="3px" width="3px" x="44px" y="32px" /><rect fill="rgb(128,128,128)" height="3px" width="3px" x="46px" y="32px" /><rect fill="rgb(128,128,128)" height="3px" width="3px" x="48px" y="32px" /><rect fill="rgb(128,128,128)" height="3px" width="3px" x="50px" y="32px" /><rect fill="rgb(128,128,128)" height="3px" width="3px" x="4px" y="34px" /><rect fill="rgb(128,128,128)" height="3px" width="3px" x="6px" y="34px" /><rect fill="rgb(79,79,79)" height="3px" width="3px" x="8px" y="34px" /><rect fill="rgb(79,79,79)" height="3px" width="3px" x="10px" y="34px" /><rect fill="rgb(11,59,17)" height="3px" width="3px" x="12px" y="34px" /><rect fill="rgb(16,90,26)" height="3px" width="3px" x="14px" y="34px" /><rect fill="rgb(11,59,17)" height="3px" width="3px" x="16px" y="34px" /><rect fill="rgb(11,59,17)" height="3px" width="3px" x="18px" y="34px" /><rect fill="rgb(11,59,17)" height="3px" width="3px" x="20px" y="34px" /><rect fill="rgb(11,59,17)" height="3px" width="3px" x="22px" y="34px" /><rect fill="rgb(16,90,26)" height="3px" width="3px" x="24px" y="34px" /><rect fill="rgb(16,90,26)" height="3px" width="3px" x="26px" y="34px" /><rect fill="rgb(16,90,26)" height="3px" width="3px" x="28px" y="34px" /><rect fill="rgb(16,90,26)" height="3px" width="3px" x="30px" y="34px" /><rect fill="rgb(16,90,26)" height="3px" width="3px" x="32px" y="34px" /><rect fill="rgb(11,59,17)" height="3px" width="3px" x="34px" y="34px" /><rect fill="rgb(11,59,17)" height="3px" width="3px" x="36px" y="34px" /><rect fill="rgb(11,59,17)" height="3px" width="3px" x="38px" y="34px" /><rect fill="rgb(14,74,21)" height="3px" width="3px" x="40px" y="34px" /><rect fill="rgb(11,59,17)" height="3px" width="3px" x="42px" y="34px" /><rect fill="rgb(79,79,79)" height="3px" width="3px" x="44px" y="34px" /><rect fill="rgb(79,79,79)" height="3px" width="3px" x="46px" y="34px" /><rect fill="rgb(79,79,79)" height="3px" width="3px" x="48px" y="34px" /><rect fill="rgb(128,128,128)" height="3px" width="3px" x="50px" y="34px" /><rect fill="rgb(128,128,128)" height="3px" width="3px" x="52px" y="34px" /><rect fill="rgb(128,128,128)" height="3px" width="3px" x="4px" y="36px" /><rect fill="rgb(79,79,79)" height="3px" width="3px" x="6px" y="36px" /><rect fill="rgb(79,79,79)" height="3px" width="3px" x="8px" y="36px" /><rect fill="rgb(79,79,79)" height="3px" width="3px" x="10px" y="36px" /><rect fill="rgb(11,59,17)" height="3px" width="3px" x="12px" y="36px" /><rect fill="rgb(18,95,28)" height="3px" width="3px" x="14px" y="36px" /><rect fill="rgb(18,95,28)" height="3px" width="3px" x="16px" y="36px" /><rect fill="rgb(18,95,28)" height="3px" width="3px" x="18px" y="36px" /><rect fill="rgb(18,95,28)" height="3px" width="3px" x="20px" y="36px" /><rect fill="rgb(11,59,17)" height="3px" width="3px" x="22px" y="36px" /><rect fill="rgb(11,59,17)" height="3px" width="3px" x="24px" y="36px" /><rect fill="rgb(11,59,17)" height="3px" width="3px" x="26px" y="36px" /><rect fill="rgb(11,59,17)" height="3px" width="3px" x="28px" y="36px" /><rect fill="rgb(11,59,17)" height="3px" width="3px" x="30px" y="36px" /><rect fill="rgb(11,59,17)" height="3px" width="3px" x="32px" y="36px" /><rect fill="rgb(15,81,23)" height="3px" width="3px" x="34px" y="36px" /><rect fill="rgb(15,81,23)" height="3px" width="3px" x="36px" y="36px" /><rect fill="rgb(14,74,21)" height="3px" width="3px" x="38px" y="36px" /><rect fill="rgb(14,74,21)" height="3px" width="3px" x="40px" y="36px" /><rect fill="rgb(11,59,17)" height="3px" width="3px" x="42px" y="36px" /><rect fill="rgb(79,79,79)" height="3px" width="3px" x="44px" y="36px" /><rect fill="rgb(79,79,79)" height="3px" width="3px" x="46px" y="36px" /><rect fill="rgb(79,79,79)" height="3px" width="3px" x="48px" y="36px" /><rect fill="rgb(79,79,79)" height="3px" width="3px" x="50px" y="36px" /><rect fill="rgb(128,128,128)" height="3px" width="3px" x="52px" y="36px" /><rect fill="rgb(128,128,128)" height="3px" width="3px" x="4px" y="38px" /><rect fill="rgb(79,79,79)" height="3px" width="3px" x="6px" y="38px" /><rect fill="rgb(79,79,79)" height="3px" width="3px" x="8px" y="38px" /><rect fill="rgb(79,79,79)" height="3px" width="3px" x="10px" y="38px" /><rect fill="rgb(11,59,17)" height="3px" width="3px" x="12px" y="38px" /><rect fill="rgb(11,59,17)" height="3px" width="3px" x="14px" y="38px" /><rect fill="rgb(18,95,28)" height="3px" width="3px" x="16px" y="38px" /><rect fill="rgb(18,95,28)" height="3px" width="3px" x="18px" y="38px" /><rect fill="rgb(18,95,28)" height="3px" width="3px" x="20px" y="38px" /><rect fill="rgb(18,95,28)" height="3px" width="3px" x="22px" y="38px" /><rect fill="rgb(18,95,28)" height="3px" width="3px" x="24px" y="38px" /><rect fill="rgb(18,95,28)" height="3px" width="3px" x="26px" y="38px" /><rect fill="rgb(16,90,26)" height="3px" width="3px" x="28px" y="38px" /><rect fill="rgb(16,90,26)" height="3px" width="3px" x="30px" y="38px" /><rect fill="rgb(16,90,26)" height="3px" width="3px" x="32px" y="38px" /><rect fill="rgb(15,81,23)" height="3px" width="3px" x="34px" y="38px" /><rect fill="rgb(15,81,23)" height="3px" width="3px" x="36px" y="38px" /><rect fill="rgb(14,74,21)" height="3px" width="3px" x="38px" y="38px" /><rect fill="rgb(14,74,21)" height="3px" width="3px" x="40px" y="38px" /><rect fill="rgb(11,59,17)" height="3px" width="3px" x="42px" y="38px" /><rect fill="rgb(79,79,79)" height="3px" width="3px" x="44px" y="38px" /><rect fill="rgb(79,79,79)" height="3px" width="3px" x="46px" y="38px" /><rect fill="rgb(79,79,79)" height="3px" width="3px" x="48px" y="38px" /><rect fill="rgb(79,79,79)" height="3px" width="3px" x="50px" y="38px" /><rect fill="rgb(128,128,128)" height="3px" width="3px" x="52px" y="38px" /><rect fill="rgb(128,128,128)" height="3px" width="3px" x="4px" y="40px" /><rect fill="rgb(128,128,128)" height="3px" width="3px" x="6px" y="40px" /><rect fill="rgb(79,79,79)" height="3px" width="3px" x="8px" y="40px" /><rect fill="rgb(79,79,79)" height="3px" width="3px" x="10px" y="40px" /><rect fill="rgb(79,79,79)" height="3px" width="3px" x="12px" y="40px" /><rect fill="rgb(11,59,17)" height="3px" width="3px" x="14px" y="40px" /><rect fill="rgb(11,59,17)" height="3px" width="3px" x="16px" y="40px" /><rect fill="rgb(11,59,17)" height="3px" width="3px" x="18px" y="40px" /><rect fill="rgb(11,59,17)" height="3px" width="3px" x="20px" y="40px" /><rect fill="rgb(18,95,28)" height="3px" width="3px" x="22px" y="40px" /><rect fill="rgb(18,95,28)" height="3px" width="3px" x="24px" y="40px" /><rect fill="rgb(18,95,28)" height="3px" width="3px" x="26px" y="40px" /><rect fill="rgb(16,90,26)" height="3px" width="3px" x="28px" y="40px" /><rect fill="rgb(16,90,26)" height="3px" width="3px" x="30px" y="40px" /><rect fill="rgb(16,90,26)" height="3px" width="3px" x="32px" y="40px" /><rect fill="rgb(11,59,17)" height="3px" width="3px" x="34px" y="40px" /><rect fill="rgb(11,59,17)" height="3px" width="3px" x="36px" y="40px" /><rect fill="rgb(11,59,17)" height="3px" width="3px" x="38px" y="40px" /><rect fill="rgb(11,59,17)" height="3px" width="3px" x="40px" y="40px" /><rect fill="rgb(79,79,79)" height="3px" width="3px" x="42px" y="40px" /><rect fill="rgb(79,79,79)" height="3px" width="3px" x="44px" y="40px" /><rect fill="rgb(79,79,79)" height="3px" width="3px" x="46px" y="40px" /><rect fill="rgb(79,79,79)" height="3px" width="3px" x="48px" y="40px" /><rect fill="rgb(128,128,128)" height="3px" width="3px" x="50px" y="40px" /><rect fill="rgb(128,128,128)" height="3px" width="3px" x="52px" y="40px" /><rect fill="rgb(128,128,128)" height="3px" width="3px" x="4px" y="42px" /><rect fill="rgb(79,79,79)" height="3px" width="3px" x="6px" y="42px" /><rect fill="rgb(128,128,128)" height="3px" width="3px" x="8px" y="42px" /><rect fill="rgb(128,128,128)" height="3px" width="3px" x="10px" y="42px" /><rect fill="rgb(79,79,79)" height="3px" width="3px" x="12px" y="42px" /><rect fill="rgb(79,79,79)" height="3px" width="3px" x="14px" y="42px" /><rect fill="rgb(79,79,79)" height="3px" width="3px" x="16px" y="42px" /><rect fill="rgb(79,79,79)" height="3px" width="3px" x="18px" y="42px" /><rect fill="rgb(79,79,79)" height="3px" width="3px" x="20px" y="42px" /><rect fill="rgb(11,59,17)" height="3px" width="3px" x="22px" y="42px" /><rect fill="rgb(11,59,17)" height="3px" width="3px" x="24px" y="42px" /><rect fill="rgb(11,59,17)" height="3px" width="3px" x="26px" y="42px" /><rect fill="rgb(11,59,17)" height="3px" width="3px" x="28px" y="42px" /><rect fill="rgb(11,59,17)" height="3px" width="3px" x="30px" y="42px" /><rect fill="rgb(11,59,17)" height="3px" width="3px" x="32px" y="42px" /><rect fill="rgb(79,79,79)" height="3px" width="3px" x="34px" y="42px" /><rect fill="rgb(79,79,79)" height="3px" width="3px" x="36px" y="42px" /><rect fill="rgb(79,79,79)" height="3px" width="3px" x="38px" y="42px" /><rect fill="rgb(79,79,79)" height="3px" width="3px" x="40px" y="42px" /><rect fill="rgb(79,79,79)" height="3px" width="3px" x="42px" y="42px" /><rect fill="rgb(128,128,128)" height="3px" width="3px" x="44px" y="42px" /><rect fill="rgb(128,128,128)" height="3px" width="3px" x="46px" y="42px" /><rect fill="rgb(128,128,128)" height="3px" width="3px" x="48px" y="42px" /><rect fill="rgb(79,79,79)" height="3px" width="3px" x="50px" y="42px" /><rect fill="rgb(128,128,128)" height="3px" width="3px" x="52px" y="42px" /><rect fill="rgb(128,128,128)" height="3px" width="3px" x="4px" y="44px" /><rect fill="rgb(79,79,79)" height="3px" width="3px" x="6px" y="44px" /><rect fill="rgb(79,79,79)" height="3px" width="3px" x="8px" y="44px" /><rect fill="rgb(79,79,79)" height="3px" width="3px" x="10px" y="44px" /><rect fill="rgb(128,128,128)" height="3px" width="3px" x="12px" y="44px" /><rect fill="rgb(128,128,128)" height="3px" width="3px" x="14px" y="44px" /><rect fill="rgb(128,128,128)" height="3px" width="3px" x="16px" y="44px" /><rect fill="rgb(128,128,128)" height="3px" width="3px" x="18px" y="44px" /><rect fill="rgb(128,128,128)" height="3px" width="3px" x="20px" y="44px" /><rect fill="rgb(128,128,128)" height="3px" width="3px" x="22px" y="44px" /><rect fill="rgb(79,79,79)" height="3px" width="3px" x="24px" y="44px" /><rect fill="rgb(79,79,79)" height="3px" width="3px" x="26px" y="44px" /><rect fill="rgb(79,79,79)" height="3px" width="3px" x="28px" y="44px" /><rect fill="rgb(79,79,79)" height="3px" width="3px" x="30px" y="44px" /><rect fill="rgb(79,79,79)" height="3px" width="3px" x="32px" y="44px" /><rect fill="rgb(128,128,128)" height="3px" width="3px" x="34px" y="44px" /><rect fill="rgb(128,128,128)" height="3px" width="3px" x="36px" y="44px" /><rect fill="rgb(128,128,128)" height="3px" width="3px" x="38px" y="44px" /><rect fill="rgb(128,128,128)" height="3px" width="3px" x="40px" y="44px" /><rect fill="rgb(128,128,128)" height="3px" width="3px" x="42px" y="44px" /><rect fill="rgb(128,128,128)" height="3px" width="3px" x="44px" y="44px" /><rect fill="rgb(79,79,79)" height="3px" width="3px" x="46px" y="44px" /><rect fill="rgb(79,79,79)" height="3px" width="3px" x="48px" y="44px" /><rect fill="rgb(79,79,79)" height="3px" width="3px" x="50px" y="44px" /><rect fill="rgb(128,128,128)" height="3px" width="3px" x="52px" y="44px" /><rect fill="rgb(128,128,128)" height="3px" width="3px" x="6px" y="46px" /><rect fill="rgb(79,79,79)" height="3px" width="3px" x="8px" y="46px" /><rect fill="rgb(79,79,79)" height="3px" width="3px" x="10px" y="46px" /><rect fill="rgb(79,79,79)" height="3px" width="3px" x="12px" y="46px" /><rect fill="rgb(79,79,79)" height="3px" width="3px" x="14px" y="46px" /><rect fill="rgb(79,79,79)" height="3px" width="3px" x="16px" y="46px" /><rect fill="rgb(79,79,79)" height="3px" width="3px" x="18px" y="46px" /><rect fill="rgb(79,79,79)" height="3px" width="3px" x="20px" y="46px" /><rect fill="rgb(79,79,79)" height="3px" width="3px" x="22px" y="46px" /><rect fill="rgb(128,128,128)" height="3px" width="3px" x="24px" y="46px" /><rect fill="rgb(128,128,128)" height="3px" width="3px" x="26px" y="46px" /><rect fill="rgb(128,128,128)" height="3px" width="3px" x="28px" y="46px" /><rect fill="rgb(128,128,128)" height="3px" width="3px" x="30px" y="46px" /><rect fill="rgb(128,128,128)" height="3px" width="3px" x="32px" y="46px" /><rect fill="rgb(79,79,79)" height="3px" width="3px" x="34px" y="46px" /><rect fill="rgb(79,79,79)" height="3px" width="3px" x="36px" y="46px" /><rect fill="rgb(79,79,79)" height="3px" width="3px" x="38px" y="46px" /><rect fill="rgb(79,79,79)" height="3px" width="3px" x="40px" y="46px" /><rect fill="rgb(79,79,79)" height="3px" width="3px" x="42px" y="46px" /><rect fill="rgb(79,79,79)" height="3px" width="3px" x="44px" y="46px" /><rect fill="rgb(79,79,79)" height="3px" width="3px" x="46px" y="46px" /><rect fill="rgb(79,79,79)" height="3px" width="3px" x="48px" y="46px" /><rect fill="rgb(128,128,128)" height="3px" width="3px" x="50px" y="46px" /><rect fill="rgb(128,128,128)" height="3px" width="3px" x="8px" y="48px" /><rect fill="rgb(128,128,128)" height="3px" width="3px" x="10px" y="48px" /><rect fill="rgb(79,79,79)" height="3px" width="3px" x="12px" y="48px" /><rect fill="rgb(79,79,79)" height="3px" width="3px" x="14px" y="48px" /><rect fill="rgb(79,79,79)" height="3px" width="3px" x="16px" y="48px" /><rect fill="rgb(79,79,79)" height="3px" width="3px" x="18px" y="48px" /><rect fill="rgb(79,79,79)" height="3px" width="3px" x="20px" y="48px" /><rect fill="rgb(79,79,79)" height="3px" width="3px" x="22px" y="48px" /><rect fill="rgb(79,79,79)" height="3px" width="3px" x="24px" y="48px" /><rect fill="rgb(79,79,79)" height="3px" width="3px" x="26px" y="48px" /><rect fill="rgb(79,79,79)" height="3px" width="3px" x="28px" y="48px" /><rect fill="rgb(79,79,79)" height="3px" width="3px" x="30px" y="48px" /><rect fill="rgb(79,79,79)" height="3px" width="3px" x="32px" y="48px" /><rect fill="rgb(79,79,79)" height="3px" width="3px" x="34px" y="48px" /><rect fill="rgb(79,79,79)" height="3px" width="3px" x="36px" y="48px" /><rect fill="rgb(79,79,79)" height="3px" width="3px" x="38px" y="48px" /><rect fill="rgb(79,79,79)" height="3px" width="3px" x="40px" y="48px" /><rect fill="rgb(79,79,79)" height="3px" width="3px" x="42px" y="48px" /><rect fill="rgb(128,128,128)" height="3px" width="3px" x="44px" y="48px" /><rect fill="rgb(128,128,128)" height="3px" width="3px" x="46px" y="48px" /><rect fill="rgb(128,128,128)" height="3px" width="3px" x="48px" y="48px" /><rect fill="rgb(128,128,128)" height="3px" width="3px" x="12px" y="50px" /><rect fill="rgb(128,128,128)" height="3px" width="3px" x="14px" y="50px" /><rect fill="rgb(128,128,128)" height="3px" width="3px" x="16px" y="50px" /><rect fill="rgb(128,128,128)" height="3px" width="3px" x="18px" y="50px" /><rect fill="rgb(128,128,128)" height="3px" width="3px" x="20px" y="50px" /><rect fill="rgb(128,128,128)" height="3px" width="3px" x="22px" y="50px" /><rect fill="rgb(79,79,79)" height="3px" width="3px" x="24px" y="50px" /><rect fill="rgb(79,79,79)" height="3px" width="3px" x="26px" y="50px" /><rect fill="rgb(79,79,79)" height="3px" width="3px" x="28px" y="50px" /><rect fill="rgb(79,79,79)" height="3px" width="3px" x="30px" y="50px" /><rect fill="rgb(79,79,79)" height="3px" width="3px" x="32px" y="50px" /><rect fill="rgb(128,128,128)" height="3px" width="3px" x="34px" y="50px" /><rect fill="rgb(128,128,128)" height="3px" width="3px" x="36px" y="50px" /><rect fill="rgb(128,128,128)" height="3px" width="3px" x="38px" y="50px" /><rect fill="rgb(128,128,128)" height="3px" width="3px" x="40px" y="50px" /><rect fill="rgb(128,128,128)" height="3px" width="3px" x="42px" y="50px" /><rect fill="rgb(128,128,128)" height="3px" width="3px" x="44px" y="50px" /><rect fill="rgb(128,128,128)" height="3px" width="3px" x="24px" y="52px" /><rect fill="rgb(128,128,128)" height="3px" width="3px" x="26px" y="52px" /><rect fill="rgb(128,128,128)" height="3px" width="3px" x="28px" y="52px" /><rect fill="rgb(128,128,128)" height="3px" width="3px" x="30px" y="52px" /><rect fill="rgb(128,128,128)" height="3px" width="3px" x="32px" y="52px" /></svg>