<?xml version="1.0" encoding="utf-8" ?>
<svg baseProfile="full" height="64px" version="1.1" width="64px" xmlns="http://www.w3.org/2000/svg" xmlns:ev="http://www.w3.org/2001/xml-events" xmlns:xlink="http://www.w3.org/1999/xlink"><defs /><rect fill="rgb(157,98,66)" height="3px" width="3px" x="26px" y="4px" /><rect fill="rgb(157,98,66)" height="3px" width="3px" x="28px" y="4px" /><rect fill="rgb(157,98,66)" height="3px" width="3px" x="30px" y="4px" /><rect fill="rgb(157,98,66)" height="3px" width="3px" x="32px" y="4px" /><rect fill="rgb(157,98,66)" height="3px" width="3px" x="34px" y="4px" /><rect fill="rgb(157,98,66)" height="3px" width="3px" x="36px" y="4px" /><rect fill="rgb(157,98,66)" height="3px" width="3px" x="38px" y="4px" /><rect fill="rgb(157,98,66)" height="3px" width="3px" x="40px" y="4px" /><rect fill="rgb(157,98,66)" height="3px" width="3px" x="42px" y="4px" /><rect fill="rgb(157,98,66)" height="3px" width="3px" x="20px" y="6px" /><rect fill="rgb(157,98,66)" height="3px" width="3px" x="22px" y="6px" /><rect fill="rgb(157,98,66)" height="3px" width="3px" x="24px" y="6px" /><rect fill="rgb(157,98,66)" height="3px" width="3px" x="26px" y="6px" /><rect fill="rgb(157,98,66)" height="3px" width="3px" x="28px" y="6px" /><rect fill="rgb(157,98,66)" height="3px" width="3px" x="36px" y="6px" /><rect fill="rgb(157,98,66)" height="3px" width="3px" x="42px" y="6px" /><rect fill="rgb(157,98,66)" height="3px" width="3px" x="44px" y="6px" /><rect fill="rgb(157,98,66)" height="3px" width="3px" x="46px" y="6px" /><rect fill="rgb(157,98,66)" height="3px" width="3px" x="16px" y="8px" /><rect fill="rgb(157,98,66)" height="3px" width="3px" x="18px" y="8px" /><rect fill="rgb(157,98,66)" height="3px" width="3px" x="22px" y="8px" /><rect fill="rgb(157,98,66)" height="3px" width="3px" x="28px" y="8px" /><rect fill="rgb(157,98,66)" height="3px" width="3px" x="36px" y="8px" /><rect fill="rgb(157,98,66)" height="3px" width="3px" x="44px" y="8px" /><rect fill="rgb(157,98,66)" height="3px" width="3px" x="46px" y="8px" /><rect fill="rgb(157,98,66)" height="3px" width="3px" x="48px" y="8px" /><rect fill="rgb(157,98,66)" height="3px" width="3px" x="14px" y="10px" /><rect fill="rgb(157,98,66)" height="3px" width="3px" x="16px" y="10px" /><rect fill="rgb(157,98,66)" height="3px" width="3px" x="22px" y="10px" /><rect fill="rgb(157,98,66)" height="3px" width="3px" x="28px" y="10px" /><rect fill="rgb(157,98,66)" height="3px" width="3px" x="36px" y="10px" /><rect fill="rgb(157,98,66)" height="3px" width="3px" x="44px" y="10px" /><rect fill="rgb(157,98,66)" height="3px" width="3px" x="48px" y="10px" /><rect fill="rgb(157,98,66)" height="3px" width="3px" x="12px" y="12px" /><rect fill="rgb(157,98,66)" height="3px" width="3px" x="16px" y="12px" /><rect fill="rgb(157,98,66)" height="3px" width="3px" x="22px" y="12px" /><rect fill="rgb(157,98,66)" height="3px" width="3px" x="28px" y="12px" /><rect fill="rgb(157,98,66)" height="3px" width="3px" x="36px" y="12px" /><rect fill="rgb(157,98,66)" height="3px" width="3px" x="44px" y="12px" /><rect fill="rgb(157,98,66)" height="3px" width="3px" x="50px" y="12px" /><rect fill="rgb(157,98,66)" height="3px" width="3px" x="10px" y="14px" /><rect fill="rgb(157,98,66)" height="3px" width="3px" x="12px" y="14px" /><rect fill="rgb(157,98,66)" height="3px" width="3px" x="16px" y="14px" /><rect fill="rgb(157,98,66)" height="3px" width="3px" x="22px" y="14px" /><rect fill="rgb(157,98,66)" height="3px" width="3px" x="44px" y="14px" /><rect fill="rgb(157,98,66)" height="3px" width="3px" x="50px" y="14px" /><rect fill="rgb(157,98,66)" height="3px" width="3px" x="52px" y="14px" /><rect fill="rgb(157,98,66)" height="3px" width="3px" x="10px" y="16px" /><rect fill="rgb(157,98,66)" height="3px" width="3px" x="12px" y="16px" /><rect fill="rgb(157,98,66)" height="3px" width="3px" x="16px" y="16px" /><rect fill="rgb(157,98,66)" height="3px" width="3px" x="50px" y="16px" /><rect fill="rgb(132,77,48)" height="3px" width="3px" x="52px" y="16px" /><rect fill="rgb(0,0,0)" height="3px" opacity="0.0313725490196" width="3px" x="54px" y="16px" /><rect fill="rgb(152,95,64)" height="3px" width="3px" x="8px" y="18px" /><rect fill="rgb(132,77,48)" height="3px" width="3px" x="10px" y="18px" /><rect fill="rgb(157,98,66)" height="3px" width="3px" x="12px" y="18px" /><rect fill="rgb(103,46,23)" height="3px" width="3px" x="50px" y="18px" /><rect fill="rgb(114,34,4)" height="3px" width="3px" x="52px" y="18px" /><rect fill="rgb(132,46,10)" height="3px" width="3px" x="54px" y="18px" /><rect fill="rgb(129,36,0)" height="3px" opacity="0.278431372549" width="3px" x="56px" y="18px" /><rect fill="rgb(129,36,0)" height="3px" opacity="0.278431372549" width="3px" x="6px" y="20px" /><rect fill="rgb(132,46,10)" height="3px" width="3px" x="8px" y="20px" /><rect fill="rgb(114,34,4)" height="3px" width="3px" x="10px" y="20px" /><rect fill="rgb(103,46,23)" height="3px" width="3px" x="12px" y="20px" /><rect fill="rgb(78,25,7)" height="3px" opacity="0.282352941176" width="3px" x="34px" y="20px" /><rect fill="rgb(86,28,8)" height="3px" opacity="0.498039215686" width="3px" x="36px" y="20px" /><rect fill="rgb(131,37,0)" height="3px" opacity="0.541176470588" width="3px" x="38px" y="20px" /><rect fill="rgb(138,37,0)" height="3px" opacity="0.513725490196" width="3px" x="40px" y="20px" /><rect fill="rgb(132,37,0)" height="3px" opacity="0.537254901961" width="3px" x="42px" y="20px" /><rect fill="rgb(134,38,0)" height="3px" opacity="0.529411764706" width="3px" x="44px" y="20px" /><rect fill="rgb(136,38,0)" height="3px" opacity="0.521568627451" width="3px" x="46px" y="20px" /><rect fill="rgb(104,32,5)" height="3px" opacity="0.749019607843" width="3px" x="48px" y="20px" /><rect fill="rgb(128,36,2)" height="3px" width="3px" x="50px" y="20px" /><rect fill="rgb(142,39,0)" height="3px" width="3px" x="52px" y="20px" /><rect fill="rgb(142,39,0)" height="3px" width="3px" x="54px" y="20px" /><rect fill="rgb(139,38,0)" height="3px" opacity="0.764705882353" width="3px" x="56px" y="20px" /><rect fill="rgb(139,38,0)" height="3px" opacity="0.764705882353" width="3px" x="6px" y="22px" /><rect fill="rgb(142,39,0)" height="3px" width="3px" x="8px" y="22px" /><rect fill="rgb(142,39,0)" height="3px" width="3px" x="10px" y="22px" /><rect fill="rgb(128,36,2)" height="3px" width="3px" x="12px" y="22px" /><rect fill="rgb(104,32,5)" height="3px" opacity="0.749019607843" width="3px" x="14px" y="22px" /><rect fill="rgb(136,38,0)" height="3px" opacity="0.521568627451" width="3px" x="16px" y="22px" /><rect fill="rgb(134,38,0)" height="3px" opacity="0.529411764706" width="3px" x="18px" y="22px" /><rect fill="rgb(132,37,0)" height="3px" opacity="0.537254901961" width="3px" x="20px" y="22px" /><rect fill="rgb(138,37,0)" height="3px" opacity="0.513725490196" width="3px" x="22px" y="22px" /><rect fill="rgb(131,37,0)" height="3px" opacity="0.541176470588" width="3px" x="24px" y="22px" /><rect fill="rgb(86,28,8)" height="3px" opacity="0.498039215686" width="3px" x="26px" y="22px" /><rect fill="rgb(78,25,7)" height="3px" opacity="0.282352941176" width="3px" x="28px" y="22px" /><rect fill="rgb(21,21,0)" height="3px" opacity="0.0470588235294" width="3px" x="32px" y="22px" /><rect fill="rgb(86,29,8)" height="3px" width="3px" x="34px" y="22px" /><rect fill="rgb(143,38,0)" height="3px" opacity="0.498039215686" width="3px" x="36px" y="22px" /><rect fill="rgb(142,39,0)" height="3px" width="3px" x="38px" y="22px" /><rect fill="rgb(142,39,0)" height="3px" width="3px" x="40px" y="22px" /><rect fill="rgb(142,39,0)" height="3px" width="3px" x="42px" y="22px" /><rect fill="rgb(142,39,0)" height="3px" width="3px" x="44px" y="22px" /><rect fill="rgb(142,39,0)" height="3px" width="3px" x="46px" y="22px" /><rect fill="rgb(142,39,0)" height="3px" width="3px" x="48px" y="22px" /><rect fill="rgb(142,39,0)" height="3px" width="3px" x="50px" y="22px" /><rect fill="rgb(139,36,0)" height="3px" opacity="0.250980392157" width="3px" x="52px" y="22px" /><rect fill="rgb(157,98,66)" height="3px" width="3px" x="54px" y="22px" /><rect fill="rgb(157,98,66)" height="3px" width="3px" x="8px" y="24px" /><rect fill="rgb(139,36,0)" height="3px" opacity="0.250980392157" width="3px" x="10px" y="24px" /><rect fill="rgb(142,39,0)" height="3px" width="3px" x="12px" y="24px" /><rect fill="rgb(142,39,0)" height="3px" width="3px" x="14px" y="24px" /><rect fill="rgb(142,39,0)" height="3px" width="3px" x="16px" y="24px" /><rect fill="rgb(142,39,0)" height="3px" width="3px" x="18px" y="24px" /><rect fill="rgb(142,39,0)" height="3px" width="3px" x="20px" y="24px" /><rect fill="rgb(142,39,0)" height="3px" width="3px" x="22px" y="24px" /><rect fill="rgb(142,39,0)" height="3px" width="3px" x="24px" y="24px" /><rect fill="rgb(143,38,0)" height="3px" opacity="0.498039215686" width="3px" x="26px" y="24px" /><rect fill="rgb(86,29,8)" height="3px" width="3px" x="28px" y="24px" /><rect fill="rgb(21,21,0)" height="3px" opacity="0.0470588235294" width="3px" x="30px" y="24px" /><rect fill="rgb(21,21,0)" height="3px" opacity="0.0470588235294" width="3px" x="32px" y="24px" /><rect fill="rgb(86,29,8)" height="3px" width="3px" x="34px" y="24px" /><rect fill="rgb(130,36,0)" height="3px" opacity="0.552941176471" width="3px" x="36px" y="24px" /><rect fill="rgb(142,39,0)" height="3px" width="3px" x="38px" y="24px" /><rect fill="rgb(142,39,0)" height="3px" width="3px" x="40px" y="24px" /><rect fill="rgb(142,39,0)" height="3px" width="3px" x="42px" y="24px" /><rect fill="rgb(142,39,0)" height="3px" width="3px" x="44px" y="24px" /><rect fill="rgb(142,39,0)" height="3px" width="3px" x="46px" y="24px" /><rect fill="rgb(142,39,0)" height="3px" width="3px" x="48px" y="24px" /><rect fill="rgb(110,33,0)" height="3px" opacity="0.337254901961" width="3px" x="50px" y="24px" /><rect fill="rgb(157,98,66)" height="3px" width="3px" x="54px" y="24px" /><rect fill="rgb(157,98,66)" height="3px" width="3px" x="8px" y="26px" /><rect fill="rgb(110,33,0)" height="3px" opacity="0.337254901961" width="3px" x="12px" y="26px" /><rect fill="rgb(142,39,0)" height="3px" width="3px" x="14px" y="26px" /><rect fill="rgb(142,39,0)" height="3px" width="3px" x="16px" y="26px" /><rect fill="rgb(142,39,0)" height="3px" width="3px" x="18px" y="26px" /><rect fill="rgb(142,39,0)" height="3px" width="3px" x="20px" y="26px" /><rect fill="rgb(142,39,0)" height="3px" width="3px" x="22px" y="26px" /><rect fill="rgb(142,39,0)" height="3px" width="3px" x="24px" y="26px" /><rect fill="rgb(130,36,0)" height="3px" opacity="0.552941176471" width="3px" x="26px" y="26px" /><rect fill="rgb(86,29,8)" height="3px" width="3px" x="28px" y="26px" /><rect fill="rgb(21,21,0)" height="3px" opacity="0.0470588235294" width="3px" x="30px" y="26px" /><rect fill="rgb(10,10,0)" height="3px" opacity="0.0980392156863" width="3px" x="34px" y="26px" /><rect fill="rgb(130,36,0)" height="3px" opacity="0.552941176471" width="3px" x="36px" y="26px" /><rect fill="rgb(18,18,0)" height="3px" opacity="0.113725490196" width="3px" x="38px" y="26px" /><rect fill="rgb(112,33,0)" height="3px" opacity="0.662745098039" width="3px" x="40px" y="26px" /><rect fill="rgb(14,14,0)" height="3px" opacity="0.0705882352941" width="3px" x="42px" y="26px" /><rect fill="rgb(15,15,0)" height="3px" opacity="0.133333333333" width="3px" x="44px" y="26px" /><rect fill="rgb(123,35,0)" height="3px" opacity="0.874509803922" width="3px" x="46px" y="26px" /><rect fill="rgb(130,36,0)" height="3px" opacity="0.83137254902" width="3px" x="48px" y="26px" /><rect fill="rgb(119,33,0)" height="3px" opacity="0.301960784314" width="3px" x="50px" y="26px" /><rect fill="rgb(157,98,66)" height="3px" width="3px" x="54px" y="26px" /><rect fill="rgb(157,98,66)" height="3px" width="3px" x="8px" y="28px" /><rect fill="rgb(119,33,0)" height="3px" opacity="0.301960784314" width="3px" x="12px" y="28px" /><rect fill="rgb(130,36,0)" height="3px" opacity="0.83137254902" width="3px" x="14px" y="28px" /><rect fill="rgb(123,35,0)" height="3px" opacity="0.874509803922" width="3px" x="16px" y="28px" /><rect fill="rgb(15,15,0)" height="3px" opacity="0.133333333333" width="3px" x="18px" y="28px" /><rect fill="rgb(14,14,0)" height="3px" opacity="0.0705882352941" width="3px" x="20px" y="28px" /><rect fill="rgb(112,33,0)" height="3px" opacity="0.662745098039" width="3px" x="22px" y="28px" /><rect fill="rgb(18,18,0)" height="3px" opacity="0.113725490196" width="3px" x="24px" y="28px" /><rect fill="rgb(130,36,0)" height="3px" opacity="0.552941176471" width="3px" x="26px" y="28px" /><rect fill="rgb(10,10,0)" height="3px" opacity="0.0980392156863" width="3px" x="28px" y="28px" /><rect fill="rgb(143,38,0)" height="3px" opacity="0.498039215686" width="3px" x="36px" y="28px" /><rect fill="rgb(126,36,0)" height="3px" opacity="0.854901960784" width="3px" x="40px" y="28px" /><rect fill="rgb(13,13,0)" height="3px" opacity="0.078431372549" width="3px" x="42px" y="28px" /><rect fill="rgb(0,0,0)" height="3px" opacity="0.0117647058824" width="3px" x="44px" y="28px" /><rect fill="rgb(128,36,0)" height="3px" opacity="0.560784313725" width="3px" x="46px" y="28px" /><rect fill="rgb(133,37,0)" height="3px" opacity="0.803921568627" width="3px" x="50px" y="28px" /><rect fill="rgb(157,98,66)" height="3px" width="3px" x="54px" y="28px" /><rect fill="rgb(157,98,66)" height="3px" width="3px" x="8px" y="30px" /><rect fill="rgb(133,37,0)" height="3px" opacity="0.803921568627" width="3px" x="12px" y="30px" /><rect fill="rgb(128,36,0)" height="3px" opacity="0.560784313725" width="3px" x="16px" y="30px" /><rect fill="rgb(0,0,0)" height="3px" opacity="0.0117647058824" width="3px" x="18px" y="30px" /><rect fill="rgb(13,13,0)" height="3px" opacity="0.078431372549" width="3px" x="20px" y="30px" /><rect fill="rgb(126,36,0)" height="3px" opacity="0.854901960784" width="3px" x="22px" y="30px" /><rect fill="rgb(143,38,0)" height="3px" opacity="0.498039215686" width="3px" x="26px" y="30px" /><rect fill="rgb(143,38,0)" height="3px" opacity="0.498039215686" width="3px" x="36px" y="30px" /><rect fill="rgb(118,33,0)" height="3px" opacity="0.305882352941" width="3px" x="40px" y="30px" /><rect fill="rgb(143,38,0)" height="3px" opacity="0.498039215686" width="3px" x="42px" y="30px" /><rect fill="rgb(135,38,0)" height="3px" opacity="0.525490196078" width="3px" x="46px" y="30px" /><rect fill="rgb(122,36,0)" height="3px" opacity="0.588235294118" width="3px" x="50px" y="30px" /><rect fill="rgb(12,12,0)" height="3px" opacity="0.0823529411765" width="3px" x="52px" y="30px" /><rect fill="rgb(157,98,66)" height="3px" width="3px" x="54px" y="30px" /><rect fill="rgb(157,98,66)" height="3px" width="3px" x="8px" y="32px" /><rect fill="rgb(12,12,0)" height="3px" opacity="0.0823529411765" width="3px" x="10px" y="32px" /><rect fill="rgb(122,36,0)" height="3px" opacity="0.588235294118" width="3px" x="12px" y="32px" /><rect fill="rgb(135,38,0)" height="3px" opacity="0.525490196078" width="3px" x="16px" y="32px" /><rect fill="rgb(143,38,0)" height="3px" opacity="0.498039215686" width="3px" x="20px" y="32px" /><rect fill="rgb(118,33,0)" height="3px" opacity="0.305882352941" width="3px" x="22px" y="32px" /><rect fill="rgb(143,38,0)" height="3px" opacity="0.498039215686" width="3px" x="26px" y="32px" /><rect fill="rgb(74,27,7)" height="3px" opacity="0.298039215686" width="3px" x="38px" y="32px" /><rect fill="rgb(0,0,0)" height="3px" opacity="0.0313725490196" width="3px" x="40px" y="32px" /><rect fill="rgb(157,98,66)" height="3px" width="3px" x="54px" y="32px" /><rect fill="rgb(157,98,66)" height="3px" width="3px" x="8px" y="34px" /><rect fill="rgb(85,28,8)" height="3px" opacity="0.749019607843" width="3px" x="36px" y="34px" /><rect fill="rgb(114,34,4)" height="3px" width="3px" x="38px" y="34px" /><rect fill="rgb(128,37,0)" height="3px" opacity="0.847058823529" width="3px" x="40px" y="34px" /><rect fill="rgb(129,36,0)" height="3px" opacity="0.278431372549" width="3px" x="42px" y="34px" /><rect fill="rgb(157,98,66)" height="3px" width="3px" x="54px" y="34px" /><rect fill="rgb(157,98,66)" height="3px" width="3px" x="8px" y="36px" /><rect fill="rgb(78,25,7)" height="3px" opacity="0.282352941176" width="3px" x="20px" y="36px" /><rect fill="rgb(86,28,8)" height="3px" opacity="0.498039215686" width="3px" x="22px" y="36px" /><rect fill="rgb(131,37,0)" height="3px" opacity="0.541176470588" width="3px" x="24px" y="36px" /><rect fill="rgb(138,37,0)" height="3px" opacity="0.513725490196" width="3px" x="26px" y="36px" /><rect fill="rgb(132,37,0)" height="3px" opacity="0.537254901961" width="3px" x="28px" y="36px" /><rect fill="rgb(134,38,0)" height="3px" opacity="0.529411764706" width="3px" x="30px" y="36px" /><rect fill="rgb(136,38,0)" height="3px" opacity="0.521568627451" width="3px" x="32px" y="36px" /><rect fill="rgb(104,32,5)" height="3px" opacity="0.749019607843" width="3px" x="34px" y="36px" /><rect fill="rgb(128,36,2)" height="3px" width="3px" x="36px" y="36px" /><rect fill="rgb(142,39,0)" height="3px" width="3px" x="38px" y="36px" /><rect fill="rgb(142,39,0)" height="3px" width="3px" x="40px" y="36px" /><rect fill="rgb(139,38,0)" height="3px" opacity="0.764705882353" width="3px" x="42px" y="36px" /><rect fill="rgb(157,98,66)" height="3px" width="3px" x="54px" y="36px" /><rect fill="rgb(157,98,66)" height="3px" width="3px" x="8px" y="38px" /><rect fill="rgb(21,21,0)" height="3px" opacity="0.0470588235294" width="3px" x="18px" y="38px" /><rect fill="rgb(86,29,8)" height="3px" width="3px" x="20px" y="38px" /><rect fill="rgb(143,38,0)" height="3px" opacity="0.498039215686" width="3px" x="22px" y="38px" /><rect fill="rgb(142,39,0)" height="3px" width="3px" x="24px" y="38px" /><rect fill="rgb(142,39,0)" height="3px" width="3px" x="26px" y="38px" /><rect fill="rgb(142,39,0)" height="3px" width="3px" x="28px" y="38px" /><rect fill="rgb(142,39,0)" height="3px" width="3px" x="30px" y="38px" /><rect fill="rgb(142,39,0)" height="3px" width="3px" x="32px" y="38px" /><rect fill="rgb(142,39,0)" height="3px" width="3px" x="34px" y="38px" /><rect fill="rgb(142,39,0)" height="3px" width="3px" x="36px" y="38px" /><rect fill="rgb(139,36,0)" height="3px" opacity="0.250980392157" width="3px" x="38px" y="38px" /><rect fill="rgb(157,98,66)" height="3px" width="3px" x="54px" y="38px" /><rect fill="rgb(157,98,66)" height="3px" width="3px" x="8px" y="40px" /><rect fill="rgb(21,21,0)" height="3px" opacity="0.0470588235294" width="3px" x="18px" y="40px" /><rect fill="rgb(86,29,8)" height="3px" width="3px" x="20px" y="40px" /><rect fill="rgb(130,36,0)" height="3px" opacity="0.552941176471" width="3px" x="22px" y="40px" /><rect fill="rgb(142,39,0)" height="3px" width="3px" x="24px" y="40px" /><rect fill="rgb(142,39,0)" height="3px" width="3px" x="26px" y="40px" /><rect fill="rgb(142,39,0)" height="3px" width="3px" x="28px" y="40px" /><rect fill="rgb(142,39,0)" height="3px" width="3px" x="30px" y="40px" /><rect fill="rgb(142,39,0)" height="3px" width="3px" x="32px" y="40px" /><rect fill="rgb(142,39,0)" height="3px" width="3px" x="34px" y="40px" /><rect fill="rgb(110,33,0)" height="3px" opacity="0.337254901961" width="3px" x="36px" y="40px" /><rect fill="rgb(157,98,66)" height="3px" width="3px" x="52px" y="40px" /><rect fill="rgb(157,98,66)" height="3px" width="3px" x="54px" y="40px" /><rect fill="rgb(157,98,66)" height="3px" width="3px" x="8px" y="42px" /><rect fill="rgb(157,98,66)" height="3px" width="3px" x="10px" y="42px" /><rect fill="rgb(10,10,0)" height="3px" opacity="0.0980392156863" width="3px" x="20px" y="42px" /><rect fill="rgb(130,36,0)" height="3px" opacity="0.552941176471" width="3px" x="22px" y="42px" /><rect fill="rgb(18,18,0)" height="3px" opacity="0.113725490196" width="3px" x="24px" y="42px" /><rect fill="rgb(112,33,0)" height="3px" opacity="0.662745098039" width="3px" x="26px" y="42px" /><rect fill="rgb(14,14,0)" height="3px" opacity="0.0705882352941" width="3px" x="28px" y="42px" /><rect fill="rgb(15,15,0)" height="3px" opacity="0.133333333333" width="3px" x="30px" y="42px" /><rect fill="rgb(123,35,0)" height="3px" opacity="0.874509803922" width="3px" x="32px" y="42px" /><rect fill="rgb(130,36,0)" height="3px" opacity="0.83137254902" width="3px" x="34px" y="42px" /><rect fill="rgb(119,33,0)" height="3px" opacity="0.301960784314" width="3px" x="36px" y="42px" /><rect fill="rgb(157,98,66)" height="3px" width="3px" x="50px" y="42px" /><rect fill="rgb(157,98,66)" height="3px" width="3px" x="52px" y="42px" /><rect fill="rgb(157,98,66)" height="3px" width="3px" x="8px" y="44px" /><rect fill="rgb(157,98,66)" height="3px" width="3px" x="12px" y="44px" /><rect fill="rgb(157,98,66)" height="3px" width="3px" x="14px" y="44px" /><rect fill="rgb(143,38,0)" height="3px" opacity="0.498039215686" width="3px" x="22px" y="44px" /><rect fill="rgb(126,36,0)" height="3px" opacity="0.854901960784" width="3px" x="26px" y="44px" /><rect fill="rgb(13,13,0)" height="3px" opacity="0.078431372549" width="3px" x="28px" y="44px" /><rect fill="rgb(0,0,0)" height="3px" opacity="0.0117647058824" width="3px" x="30px" y="44px" /><rect fill="rgb(128,36,0)" height="3px" opacity="0.560784313725" width="3px" x="32px" y="44px" /><rect fill="rgb(133,37,0)" height="3px" opacity="0.803921568627" width="3px" x="36px" y="44px" /><rect fill="rgb(157,98,66)" height="3px" width="3px" x="46px" y="44px" /><rect fill="rgb(157,98,66)" height="3px" width="3px" x="48px" y="44px" /><rect fill="rgb(157,98,66)" height="3px" width="3px" x="50px" y="44px" /><rect fill="rgb(157,98,66)" height="3px" width="3px" x="52px" y="44px" /><rect fill="rgb(157,98,66)" height="3px" width="3px" x="8px" y="46px" /><rect fill="rgb(157,98,66)" height="3px" width="3px" x="14px" y="46px" /><rect fill="rgb(157,98,66)" height="3px" width="3px" x="16px" y="46px" /><rect fill="rgb(157,98,66)" height="3px" width="3px" x="18px" y="46px" /><rect fill="rgb(143,38,0)" height="3px" opacity="0.498039215686" width="3px" x="22px" y="46px" /><rect fill="rgb(118,33,0)" height="3px" opacity="0.305882352941" width="3px" x="26px" y="46px" /><rect fill="rgb(143,38,0)" height="3px" opacity="0.498039215686" width="3px" x="28px" y="46px" /><rect fill="rgb(135,38,0)" height="3px" opacity="0.525490196078" width="3px" x="32px" y="46px" /><rect fill="rgb(122,36,0)" height="3px" opacity="0.588235294118" width="3px" x="36px" y="46px" /><rect fill="rgb(12,12,0)" height="3px" opacity="0.0823529411765" width="3px" x="38px" y="46px" /><rect fill="rgb(157,98,66)" height="3px" width="3px" x="42px" y="46px" /><rect fill="rgb(157,98,66)" height="3px" width="3px" x="44px" y="46px" /><rect fill="rgb(157,98,66)" height="3px" width="3px" x="46px" y="46px" /><rect fill="rgb(157,98,66)" height="3px" width="3px" x="52px" y="46px" /><rect fill="rgb(157,98,66)" height="3px" width="3px" x="14px" y="48px" /><rect fill="rgb(157,98,66)" height="3px" width="3px" x="18px" y="48px" /><rect fill="rgb(157,98,66)" height="3px" width="3px" x="20px" y="48px" /><rect fill="rgb(157,98,66)" height="3px" width="3px" x="22px" y="48px" /><rect fill="rgb(157,98,66)" height="3px" width="3px" x="38px" y="48px" /><rect fill="rgb(157,98,66)" height="3px" width="3px" x="40px" y="48px" /><rect fill="rgb(157,98,66)" height="3px" width="3px" x="42px" y="48px" /><rect fill="rgb(157,98,66)" height="3px" width="3px" x="46px" y="48px" /><rect fill="rgb(157,98,66)" height="3px" width="3px" x="52px" y="48px" /><rect fill="rgb(157,98,66)" height="3px" width="3px" x="14px" y="50px" /><rect fill="rgb(157,98,66)" height="3px" width="3px" x="18px" y="50px" /><rect fill="rgb(157,98,66)" height="3px" width="3px" x="24px" y="50px" /><rect fill="rgb(157,98,66)" height="3px" width="3px" x="26px" y="50px" /><rect fill="rgb(157,98,66)" height="3px" width="3px" x="28px" y="50px" /><rect fill="rgb(157,98,66)" height="3px" width="3px" x="30px" y="50px" /><rect fill="rgb(157,98,66)" height="3px" width="3px" x="32px" y="50px" /><rect fill="rgb(157,98,66)" height="3px" width="3px" x="34px" y="50px" /><rect fill="rgb(157,98,66)" height="3px" width="3px" x="36px" y="50px" /><rect fill="rgb(157,98,66)" height="3px" width="3px" x="42px" y="50px" /><rect fill="rgb(157,98,66)" height="3px" width="3px" x="46px" y="50px" /><rect fill="rgb(157,98,66)" height="3px" width="3px" x="18px" y="52px" /><rect fill="rgb(157,98,66)" height="3px" width="3px" x="26px" y="52px" /><rect fill="rgb(157,98,66)" height="3px" width="3px" x="34px" y="52px" /><rect fill="rgb(157,98,66)" height="3px" width="3px" x="42px" y="52px" /><rect fill="rgb(157,98,66)" height="3px" width="3px" x="18px" y="54px" /><rect fill="rgb(157,98,66)" height="3px" width="3px" x="26px" y="54px" /><rect fill="rgb(157,98,66)" height="3px" width="3px" x="34px" y="54px" /><rect fill="rgb(157,98,66)" height="3px" width="3px" x="42px" y="54px" /><rect fill="rgb(157,98,66)" height="3px" width="3px" x="26px" y="56px" /><rect fill="rgb(157,98,66)" height="3px" width="3px" x="34px" y="56px" /><rect fill="rgb(157,98,66)" height="3px" width="3px" x="26px" y="58px" /><rect fill="rgb(157,98,66)" height="3px" width="3px" x="34px" y="58px" /></svg>