<?xml version="1.0" encoding="utf-8" ?>
<svg baseProfile="full" height="64px" version="1.1" width="64px" xmlns="http://www.w3.org/2000/svg" xmlns:ev="http://www.w3.org/2001/xml-events" xmlns:xlink="http://www.w3.org/1999/xlink"><defs /><rect fill="rgb(128,128,128)" height="3px" width="3px" x="10px" y="0px" /><rect fill="rgb(128,128,128)" height="3px" width="3px" x="12px" y="0px" /><rect fill="rgb(48,48,48)" height="3px" width="3px" x="26px" y="0px" /><rect fill="rgb(48,48,48)" height="3px" width="3px" x="28px" y="0px" /><rect fill="rgb(48,48,48)" height="3px" width="3px" x="30px" y="0px" /><rect fill="rgb(48,48,48)" height="3px" width="3px" x="40px" y="0px" /><rect fill="rgb(48,48,48)" height="3px" width="3px" x="42px" y="0px" /><rect fill="rgb(128,128,128)" height="3px" width="3px" x="52px" y="0px" /><rect fill="rgb(128,128,128)" height="3px" width="3px" x="54px" y="0px" /><rect fill="rgb(128,128,128)" height="3px" width="3px" x="8px" y="2px" /><rect fill="rgb(128,128,128)" height="3px" width="3px" x="14px" y="2px" /><rect fill="rgb(48,48,48)" height="3px" width="3px" x="20px" y="2px" /><rect fill="rgb(48,48,48)" height="3px" width="3px" x="22px" y="2px" /><rect fill="rgb(48,48,48)" height="3px" width="3px" x="24px" y="2px" /><rect fill="rgb(128,128,128)" height="3px" width="3px" x="30px" y="2px" /><rect fill="rgb(128,128,128)" height="3px" width="3px" x="32px" y="2px" /><rect fill="rgb(128,128,128)" height="3px" width="3px" x="34px" y="2px" /><rect fill="rgb(48,48,48)" height="3px" width="3px" x="38px" y="2px" /><rect fill="rgb(128,128,128)" height="3px" width="3px" x="48px" y="2px" /><rect fill="rgb(128,128,128)" height="3px" width="3px" x="50px" y="2px" /><rect fill="rgb(128,128,128)" height="3px" width="3px" x="54px" y="2px" /><rect fill="rgb(128,128,128)" height="3px" width="3px" x="6px" y="4px" /><rect fill="rgb(128,128,128)" height="3px" width="3px" x="14px" y="4px" /><rect fill="rgb(48,48,48)" height="3px" width="3px" x="16px" y="4px" /><rect fill="rgb(48,48,48)" height="3px" width="3px" x="18px" y="4px" /><rect fill="rgb(128,128,128)" height="3px" width="3px" x="26px" y="4px" /><rect fill="rgb(128,128,128)" height="3px" width="3px" x="28px" y="4px" /><rect fill="rgb(128,128,128)" height="3px" width="3px" x="30px" y="4px" /><rect fill="rgb(128,128,128)" height="3px" width="3px" x="34px" y="4px" /><rect fill="rgb(48,48,48)" height="3px" width="3px" x="36px" y="4px" /><rect fill="rgb(128,128,128)" height="3px" width="3px" x="46px" y="4px" /><rect fill="rgb(128,128,128)" height="3px" width="3px" x="54px" y="4px" /><rect fill="rgb(48,48,48)" height="3px" width="3px" x="56px" y="4px" /><rect fill="rgb(48,48,48)" height="3px" width="3px" x="58px" y="4px" /><rect fill="rgb(128,128,128)" height="3px" width="3px" x="62px" y="4px" /><rect fill="rgb(128,128,128)" height="3px" width="3px" x="4px" y="6px" /><rect fill="rgb(128,128,128)" height="3px" width="3px" x="10px" y="6px" /><rect fill="rgb(128,128,128)" height="3px" width="3px" x="12px" y="6px" /><rect fill="rgb(48,48,48)" height="3px" width="3px" x="14px" y="6px" /><rect fill="rgb(128,128,128)" height="3px" width="3px" x="22px" y="6px" /><rect fill="rgb(128,128,128)" height="3px" width="3px" x="24px" y="6px" /><rect fill="rgb(128,128,128)" height="3px" width="3px" x="50px" y="6px" /><rect fill="rgb(48,48,48)" height="3px" width="3px" x="54px" y="6px" /><rect fill="rgb(128,128,128)" height="3px" width="3px" x="56px" y="6px" /><rect fill="rgb(128,128,128)" height="3px" width="3px" x="60px" y="6px" /><rect fill="rgb(128,128,128)" height="3px" width="3px" x="4px" y="8px" /><rect fill="rgb(48,48,48)" height="3px" width="3px" x="12px" y="8px" /><rect fill="rgb(128,128,128)" height="3px" width="3px" x="20px" y="8px" /><rect fill="rgb(128,128,128)" height="3px" width="3px" x="28px" y="8px" /><rect fill="rgb(48,48,48)" height="3px" width="3px" x="34px" y="8px" /><rect fill="rgb(128,128,128)" height="3px" width="3px" x="44px" y="8px" /><rect fill="rgb(48,48,48)" height="3px" width="3px" x="50px" y="8px" /><rect fill="rgb(48,48,48)" height="3px" width="3px" x="52px" y="8px" /><rect fill="rgb(128,128,128)" height="3px" width="3px" x="54px" y="8px" /><rect fill="rgb(128,128,128)" height="3px" width="3px" x="58px" y="8px" /><rect fill="rgb(48,48,48)" height="3px" width="3px" x="60px" y="8px" /><rect fill="rgb(48,48,48)" height="3px" width="3px" x="62px" y="8px" /><rect fill="rgb(128,128,128)" height="3px" width="3px" x="4px" y="10px" /><rect fill="rgb(48,48,48)" height="3px" width="3px" x="12px" y="10px" /><rect fill="rgb(128,128,128)" height="3px" width="3px" x="20px" y="10px" /><rect fill="rgb(128,128,128)" height="3px" width="3px" x="28px" y="10px" /><rect fill="rgb(48,48,48)" height="3px" width="3px" x="32px" y="10px" /><rect fill="rgb(128,128,128)" height="3px" width="3px" x="42px" y="10px" /><rect fill="rgb(48,48,48)" height="3px" width="3px" x="48px" y="10px" /><rect fill="rgb(128,128,128)" height="3px" width="3px" x="56px" y="10px" /><rect fill="rgb(128,128,128)" height="3px" width="3px" x="58px" y="10px" /><rect fill="rgb(48,48,48)" height="3px" width="3px" x="60px" y="10px" /><rect fill="rgb(48,48,48)" height="3px" width="3px" x="62px" y="10px" /><rect fill="rgb(128,128,128)" height="3px" width="3px" x="4px" y="12px" /><rect fill="rgb(48,48,48)" height="3px" width="3px" x="10px" y="12px" /><rect fill="rgb(128,128,128)" height="3px" width="3px" x="20px" y="12px" /><rect fill="rgb(128,128,128)" height="3px" width="3px" x="22px" y="12px" /><rect fill="rgb(128,128,128)" height="3px" width="3px" x="24px" y="12px" /><rect fill="rgb(128,128,128)" height="3px" width="3px" x="26px" y="12px" /><rect fill="rgb(128,128,128)" height="3px" width="3px" x="40px" y="12px" /><rect fill="rgb(48,48,48)" height="3px" width="3px" x="46px" y="12px" /><rect fill="rgb(48,48,48)" height="3px" width="3px" x="48px" y="12px" /><rect fill="rgb(128,128,128)" height="3px" width="3px" x="56px" y="12px" /><rect fill="rgb(48,48,48)" height="3px" width="3px" x="58px" y="12px" /><rect fill="rgb(128,128,128)" height="3px" width="3px" x="4px" y="14px" /><rect fill="rgb(48,48,48)" height="3px" width="3px" x="8px" y="14px" /><rect fill="rgb(48,48,48)" height="3px" width="3px" x="30px" y="14px" /><rect fill="rgb(128,128,128)" height="3px" width="3px" x="38px" y="14px" /><rect fill="rgb(128,128,128)" height="3px" width="3px" x="40px" y="14px" /><rect fill="rgb(48,48,48)" height="3px" width="3px" x="44px" y="14px" /><rect fill="rgb(48,48,48)" height="3px" width="3px" x="46px" y="14px" /><rect fill="rgb(48,48,48)" height="3px" width="3px" x="48px" y="14px" /><rect fill="rgb(128,128,128)" height="3px" width="3px" x="56px" y="14px" /><rect fill="rgb(48,48,48)" height="3px" width="3px" x="58px" y="14px" /><rect fill="rgb(48,48,48)" height="3px" width="3px" x="8px" y="16px" /><rect fill="rgb(255,106,0)" height="3px" width="3px" x="12px" y="16px" /><rect fill="rgb(48,48,48)" height="3px" width="3px" x="30px" y="16px" /><rect fill="rgb(48,48,48)" height="3px" width="3px" x="44px" y="16px" /><rect fill="rgb(48,48,48)" height="3px" width="3px" x="48px" y="16px" /><rect fill="rgb(128,128,128)" height="3px" width="3px" x="54px" y="16px" /><rect fill="rgb(48,48,48)" height="3px" width="3px" x="58px" y="16px" /><rect fill="rgb(255,106,0)" height="3px" width="3px" x="10px" y="18px" /><rect fill="rgb(255,106,0)" height="3px" width="3px" x="12px" y="18px" /><rect fill="rgb(48,48,48)" height="3px" width="3px" x="26px" y="18px" /><rect fill="rgb(48,48,48)" height="3px" width="3px" x="28px" y="18px" /><rect fill="rgb(48,48,48)" height="3px" width="3px" x="30px" y="18px" /><rect fill="rgb(48,48,48)" height="3px" width="3px" x="44px" y="18px" /><rect fill="rgb(48,48,48)" height="3px" width="3px" x="58px" y="18px" /><rect fill="rgb(255,106,0)" height="3px" width="3px" x="10px" y="20px" /><rect fill="rgb(48,48,48)" height="3px" width="3px" x="24px" y="20px" /><rect fill="rgb(48,48,48)" height="3px" width="3px" x="44px" y="20px" /><rect fill="rgb(255,106,0)" height="3px" width="3px" x="10px" y="22px" /><rect fill="rgb(255,106,0)" height="3px" width="3px" x="14px" y="22px" /><rect fill="rgb(48,48,48)" height="3px" width="3px" x="24px" y="22px" /><rect fill="rgb(255,106,0)" height="3px" width="3px" x="38px" y="22px" /><rect fill="rgb(48,48,48)" height="3px" width="3px" x="44px" y="22px" /><rect fill="rgb(255,106,0)" height="3px" width="3px" x="10px" y="24px" /><rect fill="rgb(255,106,0)" height="3px" width="3px" x="14px" y="24px" /><rect fill="rgb(255,106,0)" height="3px" width="3px" x="20px" y="24px" /><rect fill="rgb(255,106,0)" height="3px" width="3px" x="36px" y="24px" /><rect fill="rgb(255,106,0)" height="3px" width="3px" x="38px" y="24px" /><rect fill="rgb(255,106,0)" height="3px" width="3px" x="52px" y="24px" /><rect fill="rgb(255,106,0)" height="3px" width="3px" x="10px" y="26px" /><rect fill="rgb(255,106,0)" height="3px" width="3px" x="14px" y="26px" /><rect fill="rgb(255,106,0)" height="3px" width="3px" x="18px" y="26px" /><rect fill="rgb(255,106,0)" height="3px" width="3px" x="20px" y="26px" /><rect fill="rgb(255,106,0)" height="3px" width="3px" x="36px" y="26px" /><rect fill="rgb(255,106,0)" height="3px" width="3px" x="38px" y="26px" /><rect fill="rgb(255,106,0)" height="3px" width="3px" x="52px" y="26px" /><rect fill="rgb(255,106,0)" height="3px" width="3px" x="54px" y="26px" /><rect fill="rgb(255,106,0)" height="3px" width="3px" x="14px" y="28px" /><rect fill="rgb(255,106,0)" height="3px" width="3px" x="18px" y="28px" /><rect fill="rgb(246,47,0)" height="3px" width="3px" x="34px" y="28px" /><rect fill="rgb(246,47,0)" height="3px" width="3px" x="36px" y="28px" /><rect fill="rgb(255,106,0)" height="3px" width="3px" x="38px" y="28px" /><rect fill="rgb(255,106,0)" height="3px" width="3px" x="52px" y="28px" /><rect fill="rgb(255,106,0)" height="3px" width="3px" x="54px" y="28px" /><rect fill="rgb(255,106,0)" height="3px" width="3px" x="8px" y="30px" /><rect fill="rgb(255,106,0)" height="3px" width="3px" x="14px" y="30px" /><rect fill="rgb(255,106,0)" height="3px" width="3px" x="18px" y="30px" /><rect fill="rgb(246,47,0)" height="3px" width="3px" x="32px" y="30px" /><rect fill="rgb(246,47,0)" height="3px" width="3px" x="34px" y="30px" /><rect fill="rgb(246,47,0)" height="3px" width="3px" x="36px" y="30px" /><rect fill="rgb(255,106,0)" height="3px" width="3px" x="38px" y="30px" /><rect fill="rgb(255,106,0)" height="3px" width="3px" x="50px" y="30px" /><rect fill="rgb(255,106,0)" height="3px" width="3px" x="52px" y="30px" /><rect fill="rgb(255,106,0)" height="3px" width="3px" x="54px" y="30px" /><rect fill="rgb(255,106,0)" height="3px" width="3px" x="8px" y="32px" /><rect fill="rgb(255,106,0)" height="3px" width="3px" x="14px" y="32px" /><rect fill="rgb(255,106,0)" height="3px" width="3px" x="16px" y="32px" /><rect fill="rgb(246,47,0)" height="3px" width="3px" x="30px" y="32px" /><rect fill="rgb(246,47,0)" height="3px" width="3px" x="36px" y="32px" /><rect fill="rgb(255,106,0)" height="3px" width="3px" x="38px" y="32px" /><rect fill="rgb(255,106,0)" height="3px" width="3px" x="48px" y="32px" /><rect fill="rgb(255,106,0)" height="3px" width="3px" x="54px" y="32px" /><rect fill="rgb(255,106,0)" height="3px" width="3px" x="6px" y="34px" /><rect fill="rgb(255,106,0)" height="3px" width="3px" x="16px" y="34px" /><rect fill="rgb(246,47,0)" height="3px" width="3px" x="28px" y="34px" /><rect fill="rgb(255,106,0)" height="3px" width="3px" x="30px" y="34px" /><rect fill="rgb(246,47,0)" height="3px" width="3px" x="38px" y="34px" /><rect fill="rgb(255,106,0)" height="3px" width="3px" x="40px" y="34px" /><rect fill="rgb(255,106,0)" height="3px" width="3px" x="46px" y="34px" /><rect fill="rgb(255,106,0)" height="3px" width="3px" x="14px" y="36px" /><rect fill="rgb(255,106,0)" height="3px" width="3px" x="16px" y="36px" /><rect fill="rgb(255,216,0)" height="3px" width="3px" x="20px" y="36px" /><rect fill="rgb(255,216,0)" height="3px" width="3px" x="22px" y="36px" /><rect fill="rgb(246,47,0)" height="3px" width="3px" x="26px" y="36px" /><rect fill="rgb(246,47,0)" height="3px" width="3px" x="38px" y="36px" /><rect fill="rgb(255,106,0)" height="3px" width="3px" x="40px" y="36px" /><rect fill="rgb(255,106,0)" height="3px" width="3px" x="42px" y="36px" /><rect fill="rgb(255,106,0)" height="3px" width="3px" x="44px" y="36px" /><rect fill="rgb(246,47,0)" height="3px" width="3px" x="50px" y="36px" /><rect fill="rgb(246,47,0)" height="3px" width="3px" x="52px" y="36px" /><rect fill="rgb(255,106,0)" height="3px" width="3px" x="56px" y="36px" /><rect fill="rgb(255,106,0)" height="3px" width="3px" x="4px" y="38px" /><rect fill="rgb(255,216,0)" height="3px" width="3px" x="8px" y="38px" /><rect fill="rgb(255,106,0)" height="3px" width="3px" x="12px" y="38px" /><rect fill="rgb(255,106,0)" height="3px" width="3px" x="14px" y="38px" /><rect fill="rgb(255,106,0)" height="3px" width="3px" x="18px" y="38px" /><rect fill="rgb(255,216,0)" height="3px" width="3px" x="20px" y="38px" /><rect fill="rgb(255,106,0)" height="3px" width="3px" x="28px" y="38px" /><rect fill="rgb(246,47,0)" height="3px" width="3px" x="36px" y="38px" /><rect fill="rgb(255,106,0)" height="3px" width="3px" x="40px" y="38px" /><rect fill="rgb(255,106,0)" height="3px" width="3px" x="42px" y="38px" /><rect fill="rgb(246,47,0)" height="3px" width="3px" x="50px" y="38px" /><rect fill="rgb(246,47,0)" height="3px" width="3px" x="54px" y="38px" /><rect fill="rgb(255,106,0)" height="3px" width="3px" x="2px" y="40px" /><rect fill="rgb(255,216,0)" height="3px" width="3px" x="6px" y="40px" /><rect fill="rgb(255,216,0)" height="3px" width="3px" x="8px" y="40px" /><rect fill="rgb(255,106,0)" height="3px" width="3px" x="12px" y="40px" /><rect fill="rgb(246,47,0)" height="3px" width="3px" x="14px" y="40px" /><rect fill="rgb(246,47,0)" height="3px" width="3px" x="16px" y="40px" /><rect fill="rgb(255,216,0)" height="3px" width="3px" x="20px" y="40px" /><rect fill="rgb(246,47,0)" height="3px" width="3px" x="24px" y="40px" /><rect fill="rgb(255,106,0)" height="3px" width="3px" x="28px" y="40px" /><rect fill="rgb(255,106,0)" height="3px" width="3px" x="30px" y="40px" /><rect fill="rgb(246,47,0)" height="3px" width="3px" x="36px" y="40px" /><rect fill="rgb(246,47,0)" height="3px" width="3px" x="40px" y="40px" /><rect fill="rgb(255,106,0)" height="3px" width="3px" x="42px" y="40px" /><rect fill="rgb(246,47,0)" height="3px" width="3px" x="50px" y="40px" /><rect fill="rgb(246,47,0)" height="3px" width="3px" x="52px" y="40px" /><rect fill="rgb(246,47,0)" height="3px" width="3px" x="54px" y="40px" /><rect fill="rgb(255,106,0)" height="3px" width="3px" x="58px" y="40px" /><rect fill="rgb(255,106,0)" height="3px" width="3px" x="0px" y="42px" /><rect fill="rgb(255,216,0)" height="3px" width="3px" x="6px" y="42px" /><rect fill="rgb(255,216,0)" height="3px" width="3px" x="8px" y="42px" /><rect fill="rgb(255,106,0)" height="3px" width="3px" x="10px" y="42px" /><rect fill="rgb(246,47,0)" height="3px" width="3px" x="12px" y="42px" /><rect fill="rgb(246,47,0)" height="3px" width="3px" x="14px" y="42px" /><rect fill="rgb(246,47,0)" height="3px" width="3px" x="16px" y="42px" /><rect fill="rgb(255,216,0)" height="3px" width="3px" x="18px" y="42px" /><rect fill="rgb(255,216,0)" height="3px" width="3px" x="20px" y="42px" /><rect fill="rgb(246,47,0)" height="3px" width="3px" x="24px" y="42px" /><rect fill="rgb(255,106,0)" height="3px" width="3px" x="30px" y="42px" /><rect fill="rgb(246,47,0)" height="3px" width="3px" x="34px" y="42px" /><rect fill="rgb(246,47,0)" height="3px" width="3px" x="36px" y="42px" /><rect fill="rgb(246,47,0)" height="3px" width="3px" x="40px" y="42px" /><rect fill="rgb(255,106,0)" height="3px" width="3px" x="42px" y="42px" /><rect fill="rgb(255,106,0)" height="3px" width="3px" x="44px" y="42px" /><rect fill="rgb(246,47,0)" height="3px" width="3px" x="48px" y="42px" /><rect fill="rgb(246,47,0)" height="3px" width="3px" x="50px" y="42px" /><rect fill="rgb(246,47,0)" height="3px" width="3px" x="52px" y="42px" /><rect fill="rgb(246,47,0)" height="3px" width="3px" x="54px" y="42px" /><rect fill="rgb(255,106,0)" height="3px" width="3px" x="0px" y="44px" /><rect fill="rgb(255,216,0)" height="3px" width="3px" x="4px" y="44px" /><rect fill="rgb(255,216,0)" height="3px" width="3px" x="8px" y="44px" /><rect fill="rgb(246,47,0)" height="3px" width="3px" x="12px" y="44px" /><rect fill="rgb(246,47,0)" height="3px" width="3px" x="14px" y="44px" /><rect fill="rgb(246,47,0)" height="3px" width="3px" x="16px" y="44px" /><rect fill="rgb(255,216,0)" height="3px" width="3px" x="18px" y="44px" /><rect fill="rgb(255,216,0)" height="3px" width="3px" x="20px" y="44px" /><rect fill="rgb(246,47,0)" height="3px" width="3px" x="22px" y="44px" /><rect fill="rgb(255,106,0)" height="3px" width="3px" x="30px" y="44px" /><rect fill="rgb(255,106,0)" height="3px" width="3px" x="32px" y="44px" /><rect fill="rgb(246,47,0)" height="3px" width="3px" x="34px" y="44px" /><rect fill="rgb(246,47,0)" height="3px" width="3px" x="36px" y="44px" /><rect fill="rgb(246,47,0)" height="3px" width="3px" x="38px" y="44px" /><rect fill="rgb(255,106,0)" height="3px" width="3px" x="42px" y="44px" /><rect fill="rgb(255,106,0)" height="3px" width="3px" x="44px" y="44px" /><rect fill="rgb(246,47,0)" height="3px" width="3px" x="50px" y="44px" /><rect fill="rgb(246,47,0)" height="3px" width="3px" x="52px" y="44px" /><rect fill="rgb(246,47,0)" height="3px" width="3px" x="56px" y="44px" /><rect fill="rgb(255,106,0)" height="3px" width="3px" x="60px" y="44px" /><rect fill="rgb(255,216,0)" height="3px" width="3px" x="2px" y="46px" /><rect fill="rgb(255,216,0)" height="3px" width="3px" x="8px" y="46px" /><rect fill="rgb(246,47,0)" height="3px" width="3px" x="12px" y="46px" /><rect fill="rgb(246,47,0)" height="3px" width="3px" x="16px" y="46px" /><rect fill="rgb(246,47,0)" height="3px" width="3px" x="20px" y="46px" /><rect fill="rgb(246,47,0)" height="3px" width="3px" x="22px" y="46px" /><rect fill="rgb(246,47,0)" height="3px" width="3px" x="32px" y="46px" /><rect fill="rgb(255,216,0)" height="3px" width="3px" x="36px" y="46px" /><rect fill="rgb(246,47,0)" height="3px" width="3px" x="38px" y="46px" /><rect fill="rgb(246,47,0)" height="3px" width="3px" x="42px" y="46px" /><rect fill="rgb(255,106,0)" height="3px" width="3px" x="44px" y="46px" /><rect fill="rgb(246,47,0)" height="3px" width="3px" x="46px" y="46px" /><rect fill="rgb(246,47,0)" height="3px" width="3px" x="50px" y="46px" /><rect fill="rgb(255,216,0)" height="3px" width="3px" x="52px" y="46px" /><rect fill="rgb(255,216,0)" height="3px" width="3px" x="54px" y="46px" /><rect fill="rgb(246,47,0)" height="3px" width="3px" x="56px" y="46px" /><rect fill="rgb(255,106,0)" height="3px" width="3px" x="62px" y="46px" /><rect fill="rgb(255,216,0)" height="3px" width="3px" x="0px" y="48px" /><rect fill="rgb(255,106,0)" height="3px" width="3px" x="6px" y="48px" /><rect fill="rgb(255,216,0)" height="3px" width="3px" x="8px" y="48px" /><rect fill="rgb(246,47,0)" height="3px" width="3px" x="10px" y="48px" /><rect fill="rgb(246,47,0)" height="3px" width="3px" x="12px" y="48px" /><rect fill="rgb(255,216,0)" height="3px" width="3px" x="14px" y="48px" /><rect fill="rgb(246,47,0)" height="3px" width="3px" x="16px" y="48px" /><rect fill="rgb(246,47,0)" height="3px" width="3px" x="20px" y="48px" /><rect fill="rgb(255,216,0)" height="3px" width="3px" x="22px" y="48px" /><rect fill="rgb(246,47,0)" height="3px" width="3px" x="24px" y="48px" /><rect fill="rgb(255,106,0)" height="3px" width="3px" x="30px" y="48px" /><rect fill="rgb(246,47,0)" height="3px" width="3px" x="32px" y="48px" /><rect fill="rgb(246,47,0)" height="3px" width="3px" x="38px" y="48px" /><rect fill="rgb(246,47,0)" height="3px" width="3px" x="42px" y="48px" /><rect fill="rgb(246,47,0)" height="3px" width="3px" x="44px" y="48px" /><rect fill="rgb(246,47,0)" height="3px" width="3px" x="46px" y="48px" /><rect fill="rgb(246,47,0)" height="3px" width="3px" x="50px" y="48px" /><rect fill="rgb(255,216,0)" height="3px" width="3px" x="52px" y="48px" /><rect fill="rgb(255,216,0)" height="3px" width="3px" x="54px" y="48px" /><rect fill="rgb(246,47,0)" height="3px" width="3px" x="56px" y="48px" /><rect fill="rgb(255,216,0)" height="3px" width="3px" x="0px" y="50px" /><rect fill="rgb(255,106,0)" height="3px" width="3px" x="4px" y="50px" /><rect fill="rgb(246,47,0)" height="3px" width="3px" x="8px" y="50px" /><rect fill="rgb(246,47,0)" height="3px" width="3px" x="10px" y="50px" /><rect fill="rgb(255,216,0)" height="3px" width="3px" x="14px" y="50px" /><rect fill="rgb(246,47,0)" height="3px" width="3px" x="16px" y="50px" /><rect fill="rgb(246,47,0)" height="3px" width="3px" x="18px" y="50px" /><rect fill="rgb(246,47,0)" height="3px" width="3px" x="20px" y="50px" /><rect fill="rgb(255,216,0)" height="3px" width="3px" x="22px" y="50px" /><rect fill="rgb(246,47,0)" height="3px" width="3px" x="24px" y="50px" /><rect fill="rgb(246,47,0)" height="3px" width="3px" x="26px" y="50px" /><rect fill="rgb(255,106,0)" height="3px" width="3px" x="30px" y="50px" /><rect fill="rgb(246,47,0)" height="3px" width="3px" x="32px" y="50px" /><rect fill="rgb(255,216,0)" height="3px" width="3px" x="38px" y="50px" /><rect fill="rgb(246,47,0)" height="3px" width="3px" x="44px" y="50px" /><rect fill="rgb(246,47,0)" height="3px" width="3px" x="50px" y="50px" /><rect fill="rgb(255,216,0)" height="3px" width="3px" x="52px" y="50px" /><rect fill="rgb(255,106,0)" height="3px" width="3px" x="54px" y="50px" /><rect fill="rgb(246,47,0)" height="3px" width="3px" x="58px" y="50px" /><rect fill="rgb(255,106,0)" height="3px" width="3px" x="4px" y="52px" /><rect fill="rgb(246,47,0)" height="3px" width="3px" x="6px" y="52px" /><rect fill="rgb(246,47,0)" height="3px" width="3px" x="8px" y="52px" /><rect fill="rgb(255,216,0)" height="3px" width="3px" x="14px" y="52px" /><rect fill="rgb(246,47,0)" height="3px" width="3px" x="20px" y="52px" /><rect fill="rgb(246,47,0)" height="3px" width="3px" x="26px" y="52px" /><rect fill="rgb(246,47,0)" height="3px" width="3px" x="28px" y="52px" /><rect fill="rgb(246,47,0)" height="3px" width="3px" x="30px" y="52px" /><rect fill="rgb(255,216,0)" height="3px" width="3px" x="32px" y="52px" /><rect fill="rgb(246,47,0)" height="3px" width="3px" x="40px" y="52px" /><rect fill="rgb(246,47,0)" height="3px" width="3px" x="42px" y="52px" /><rect fill="rgb(246,47,0)" height="3px" width="3px" x="46px" y="52px" /><rect fill="rgb(246,47,0)" height="3px" width="3px" x="50px" y="52px" /><rect fill="rgb(255,216,0)" height="3px" width="3px" x="52px" y="52px" /><rect fill="rgb(255,106,0)" height="3px" width="3px" x="54px" y="52px" /><rect fill="rgb(255,216,0)" height="3px" width="3px" x="56px" y="52px" /><rect fill="rgb(246,47,0)" height="3px" width="3px" x="58px" y="52px" /><rect fill="rgb(246,47,0)" height="3px" width="3px" x="4px" y="54px" /><rect fill="rgb(246,47,0)" height="3px" width="3px" x="6px" y="54px" /><rect fill="rgb(255,216,0)" height="3px" width="3px" x="10px" y="54px" /><rect fill="rgb(255,216,0)" height="3px" width="3px" x="12px" y="54px" /><rect fill="rgb(246,47,0)" height="3px" width="3px" x="18px" y="54px" /><rect fill="rgb(246,47,0)" height="3px" width="3px" x="20px" y="54px" /><rect fill="rgb(255,216,0)" height="3px" width="3px" x="24px" y="54px" /><rect fill="rgb(246,47,0)" height="3px" width="3px" x="30px" y="54px" /><rect fill="rgb(255,216,0)" height="3px" width="3px" x="32px" y="54px" /><rect fill="rgb(255,106,0)" height="3px" width="3px" x="34px" y="54px" /><rect fill="rgb(255,106,0)" height="3px" width="3px" x="36px" y="54px" /><rect fill="rgb(246,47,0)" height="3px" width="3px" x="40px" y="54px" /><rect fill="rgb(246,47,0)" height="3px" width="3px" x="42px" y="54px" /><rect fill="rgb(246,47,0)" height="3px" width="3px" x="48px" y="54px" /><rect fill="rgb(246,47,0)" height="3px" width="3px" x="50px" y="54px" /><rect fill="rgb(255,216,0)" height="3px" width="3px" x="52px" y="54px" /><rect fill="rgb(255,106,0)" height="3px" width="3px" x="56px" y="54px" /><rect fill="rgb(255,216,0)" height="3px" width="3px" x="58px" y="54px" /><rect fill="rgb(246,47,0)" height="3px" width="3px" x="62px" y="54px" /><rect fill="rgb(246,47,0)" height="3px" width="3px" x="4px" y="56px" /><rect fill="rgb(246,47,0)" height="3px" width="3px" x="6px" y="56px" /><rect fill="rgb(246,47,0)" height="3px" width="3px" x="16px" y="56px" /><rect fill="rgb(246,47,0)" height="3px" width="3px" x="18px" y="56px" /><rect fill="rgb(246,47,0)" height="3px" width="3px" x="30px" y="56px" /><rect fill="rgb(255,216,0)" height="3px" width="3px" x="32px" y="56px" /><rect fill="rgb(255,106,0)" height="3px" width="3px" x="36px" y="56px" /><rect fill="rgb(255,106,0)" height="3px" width="3px" x="38px" y="56px" /><rect fill="rgb(246,47,0)" height="3px" width="3px" x="40px" y="56px" /><rect fill="rgb(246,47,0)" height="3px" width="3px" x="42px" y="56px" /><rect fill="rgb(255,106,0)" height="3px" width="3px" x="44px" y="56px" /><rect fill="rgb(246,47,0)" height="3px" width="3px" x="50px" y="56px" /><rect fill="rgb(255,106,0)" height="3px" width="3px" x="58px" y="56px" /><rect fill="rgb(255,106,0)" height="3px" width="3px" x="60px" y="56px" /><rect fill="rgb(246,47,0)" height="3px" width="3px" x="62px" y="56px" /><rect fill="rgb(246,47,0)" height="3px" width="3px" x="4px" y="58px" /><rect fill="rgb(255,216,0)" height="3px" width="3px" x="12px" y="58px" /><rect fill="rgb(246,47,0)" height="3px" width="3px" x="14px" y="58px" /><rect fill="rgb(246,47,0)" height="3px" width="3px" x="16px" y="58px" /><rect fill="rgb(246,47,0)" height="3px" width="3px" x="20px" y="58px" /><rect fill="rgb(255,216,0)" height="3px" width="3px" x="26px" y="58px" /><rect fill="rgb(246,47,0)" height="3px" width="3px" x="30px" y="58px" /><rect fill="rgb(255,216,0)" height="3px" width="3px" x="32px" y="58px" /><rect fill="rgb(246,47,0)" height="3px" width="3px" x="38px" y="58px" /><rect fill="rgb(246,47,0)" height="3px" width="3px" x="42px" y="58px" /><rect fill="rgb(255,216,0)" height="3px" width="3px" x="44px" y="58px" /><rect fill="rgb(246,47,0)" height="3px" width="3px" x="50px" y="58px" /><rect fill="rgb(246,47,0)" height="3px" width="3px" x="52px" y="58px" /><rect fill="rgb(255,216,0)" height="3px" width="3px" x="58px" y="58px" /><rect fill="rgb(255,216,0)" height="3px" width="3px" x="60px" y="58px" /><rect fill="rgb(246,47,0)" height="3px" width="3px" x="4px" y="60px" /><rect fill="rgb(246,47,0)" height="3px" width="3px" x="22px" y="60px" /><rect fill="rgb(255,216,0)" height="3px" width="3px" x="26px" y="60px" /><rect fill="rgb(246,47,0)" height="3px" width="3px" x="30px" y="60px" /><rect fill="rgb(246,47,0)" height="3px" width="3px" x="38px" y="60px" /><rect fill="rgb(246,47,0)" height="3px" width="3px" x="42px" y="60px" /><rect fill="rgb(246,47,0)" height="3px" width="3px" x="44px" y="60px" /><rect fill="rgb(255,216,0)" height="3px" width="3px" x="46px" y="60px" /><rect fill="rgb(246,47,0)" height="3px" width="3px" x="48px" y="60px" /><rect fill="rgb(246,47,0)" height="3px" width="3px" x="52px" y="60px" /><rect fill="rgb(255,216,0)" height="3px" width="3px" x="60px" y="60px" /><rect fill="rgb(255,106,0)" height="3px" width="3px" x="62px" y="60px" /><rect fill="rgb(255,216,0)" height="3px" width="3px" x="14px" y="62px" /><rect fill="rgb(246,47,0)" height="3px" width="3px" x="24px" y="62px" /><rect fill="rgb(255,216,0)" height="3px" width="3px" x="30px" y="62px" /><rect fill="rgb(255,216,0)" height="3px" width="3px" x="32px" y="62px" /><rect fill="rgb(255,216,0)" height="3px" width="3px" x="34px" y="62px" /><rect fill="rgb(255,216,0)" height="3px" width="3px" x="36px" y="62px" /><rect fill="rgb(246,47,0)" height="3px" width="3px" x="44px" y="62px" /><rect fill="rgb(246,47,0)" height="3px" width="3px" x="48px" y="62px" /><rect fill="rgb(255,106,0)" height="3px" width="3px" x="62px" y="62px" /></svg>