<?xml version="1.0" encoding="utf-8" ?>
<svg baseProfile="full" height="64px" version="1.1" width="64px" xmlns="http://www.w3.org/2000/svg" xmlns:ev="http://www.w3.org/2001/xml-events" xmlns:xlink="http://www.w3.org/1999/xlink"><defs /><rect fill="rgb(0,0,0)" height="3px" width="3px" x="48px" y="8px" /><rect fill="rgb(0,0,0)" height="3px" width="3px" x="50px" y="8px" /><rect fill="rgb(0,0,0)" height="3px" width="3px" x="52px" y="8px" /><rect fill="rgb(0,0,0)" height="3px" width="3px" x="54px" y="8px" /><rect fill="rgb(0,0,0)" height="3px" width="3px" x="56px" y="8px" /><rect fill="rgb(0,0,0)" height="3px" width="3px" x="58px" y="8px" /><rect fill="rgb(0,0,0)" height="3px" width="3px" x="60px" y="8px" /><rect fill="rgb(0,0,0)" height="3px" width="3px" x="46px" y="10px" /><rect fill="rgb(64,64,64)" height="3px" width="3px" x="48px" y="10px" /><rect fill="rgb(64,64,64)" height="3px" width="3px" x="50px" y="10px" /><rect fill="rgb(64,64,64)" height="3px" width="3px" x="52px" y="10px" /><rect fill="rgb(0,0,0)" height="3px" width="3px" x="54px" y="10px" /><rect fill="rgb(0,0,0)" height="3px" width="3px" x="62px" y="10px" /><rect fill="rgb(64,64,64)" height="3px" width="3px" x="46px" y="12px" /><rect fill="rgb(0,0,0)" height="3px" width="3px" x="48px" y="12px" /><rect fill="rgb(64,64,64)" height="3px" width="3px" x="50px" y="12px" /><rect fill="rgb(0,0,0)" height="3px" width="3px" x="52px" y="12px" /><rect fill="rgb(64,64,64)" height="3px" width="3px" x="54px" y="12px" /><rect fill="rgb(0,0,0)" height="3px" width="3px" x="56px" y="12px" /><rect fill="rgb(0,0,0)" height="3px" width="3px" x="58px" y="12px" /><rect fill="rgb(64,64,64)" height="3px" width="3px" x="60px" y="12px" /><rect fill="rgb(64,64,64)" height="3px" width="3px" x="62px" y="12px" /><rect fill="rgb(64,64,64)" height="3px" width="3px" x="46px" y="14px" /><rect fill="rgb(64,64,64)" height="3px" width="3px" x="50px" y="14px" /><rect fill="rgb(0,0,0)" height="3px" width="3px" x="54px" y="14px" /><rect fill="rgb(64,64,64)" height="3px" width="3px" x="56px" y="14px" /><rect fill="rgb(64,64,64)" height="3px" width="3px" x="58px" y="14px" /><rect fill="rgb(64,64,64)" height="3px" width="3px" x="44px" y="16px" /><rect fill="rgb(64,64,64)" height="3px" width="3px" x="50px" y="16px" /><rect fill="rgb(0,0,0)" height="3px" width="3px" x="52px" y="16px" /><rect fill="rgb(0,0,0)" height="3px" width="3px" x="56px" y="16px" /><rect fill="rgb(64,64,64)" height="3px" width="3px" x="44px" y="18px" /><rect fill="rgb(64,64,64)" height="3px" width="3px" x="50px" y="18px" /><rect fill="rgb(0,0,0)" height="3px" width="3px" x="52px" y="18px" /><rect fill="rgb(0,0,0)" height="3px" width="3px" x="54px" y="18px" /><rect fill="rgb(0,0,0)" height="3px" width="3px" x="56px" y="18px" /><rect fill="rgb(64,64,64)" height="3px" width="3px" x="42px" y="20px" /><rect fill="rgb(64,64,64)" height="3px" width="3px" x="48px" y="20px" /><rect fill="rgb(0,0,0)" height="3px" width="3px" x="52px" y="20px" /><rect fill="rgb(0,0,0)" height="3px" width="3px" x="56px" y="20px" /><rect fill="rgb(64,64,64)" height="3px" width="3px" x="42px" y="22px" /><rect fill="rgb(64,64,64)" height="3px" width="3px" x="48px" y="22px" /><rect fill="rgb(0,0,0)" height="3px" width="3px" x="52px" y="22px" /><rect fill="rgb(0,0,0)" height="3px" width="3px" x="56px" y="22px" /><rect fill="rgb(151,68,22)" height="3px" width="3px" x="0px" y="24px" /><rect fill="rgb(151,68,22)" height="3px" width="3px" x="2px" y="24px" /><rect fill="rgb(151,68,22)" height="3px" width="3px" x="16px" y="24px" /><rect fill="rgb(151,68,22)" height="3px" width="3px" x="18px" y="24px" /><rect fill="rgb(151,68,22)" height="3px" width="3px" x="32px" y="24px" /><rect fill="rgb(151,68,22)" height="3px" width="3px" x="34px" y="24px" /><rect fill="rgb(64,64,64)" height="3px" width="3px" x="40px" y="24px" /><rect fill="rgb(64,64,64)" height="3px" width="3px" x="46px" y="24px" /><rect fill="rgb(0,0,0)" height="3px" width="3px" x="52px" y="24px" /><rect fill="rgb(0,0,0)" height="3px" width="3px" x="56px" y="24px" /><rect fill="rgb(151,68,22)" height="3px" width="3px" x="0px" y="26px" /><rect fill="rgb(151,68,22)" height="3px" width="3px" x="2px" y="26px" /><rect fill="rgb(151,68,22)" height="3px" width="3px" x="4px" y="26px" /><rect fill="rgb(151,68,22)" height="3px" width="3px" x="16px" y="26px" /><rect fill="rgb(151,68,22)" height="3px" width="3px" x="18px" y="26px" /><rect fill="rgb(151,68,22)" height="3px" width="3px" x="20px" y="26px" /><rect fill="rgb(151,68,22)" height="3px" width="3px" x="32px" y="26px" /><rect fill="rgb(151,68,22)" height="3px" width="3px" x="34px" y="26px" /><rect fill="rgb(151,68,22)" height="3px" width="3px" x="36px" y="26px" /><rect fill="rgb(64,64,64)" height="3px" width="3px" x="40px" y="26px" /><rect fill="rgb(64,64,64)" height="3px" width="3px" x="46px" y="26px" /><rect fill="rgb(0,0,0)" height="3px" width="3px" x="52px" y="26px" /><rect fill="rgb(0,0,0)" height="3px" width="3px" x="54px" y="26px" /><rect fill="rgb(0,0,0)" height="3px" width="3px" x="56px" y="26px" /><rect fill="rgb(151,68,22)" height="3px" width="3px" x="0px" y="28px" /><rect fill="rgb(151,68,22)" height="3px" width="3px" x="2px" y="28px" /><rect fill="rgb(151,68,22)" height="3px" width="3px" x="4px" y="28px" /><rect fill="rgb(139,63,22)" height="3px" width="3px" x="6px" y="28px" /><rect fill="rgb(151,68,22)" height="3px" width="3px" x="16px" y="28px" /><rect fill="rgb(151,68,22)" height="3px" width="3px" x="18px" y="28px" /><rect fill="rgb(151,68,22)" height="3px" width="3px" x="20px" y="28px" /><rect fill="rgb(139,63,22)" height="3px" width="3px" x="22px" y="28px" /><rect fill="rgb(151,68,22)" height="3px" width="3px" x="32px" y="28px" /><rect fill="rgb(151,68,22)" height="3px" width="3px" x="34px" y="28px" /><rect fill="rgb(151,68,22)" height="3px" width="3px" x="36px" y="28px" /><rect fill="rgb(64,64,64)" height="3px" width="3px" x="38px" y="28px" /><rect fill="rgb(64,64,64)" height="3px" width="3px" x="44px" y="28px" /><rect fill="rgb(0,0,0)" height="3px" width="3px" x="52px" y="28px" /><rect fill="rgb(0,0,0)" height="3px" width="3px" x="56px" y="28px" /><rect fill="rgb(151,68,22)" height="3px" width="3px" x="0px" y="30px" /><rect fill="rgb(151,68,22)" height="3px" width="3px" x="2px" y="30px" /><rect fill="rgb(151,68,22)" height="3px" width="3px" x="4px" y="30px" /><rect fill="rgb(139,63,22)" height="3px" width="3px" x="6px" y="30px" /><rect fill="rgb(139,63,22)" height="3px" width="3px" x="8px" y="30px" /><rect fill="rgb(151,68,22)" height="3px" width="3px" x="16px" y="30px" /><rect fill="rgb(151,68,22)" height="3px" width="3px" x="18px" y="30px" /><rect fill="rgb(151,68,22)" height="3px" width="3px" x="20px" y="30px" /><rect fill="rgb(139,63,22)" height="3px" width="3px" x="22px" y="30px" /><rect fill="rgb(139,63,22)" height="3px" width="3px" x="24px" y="30px" /><rect fill="rgb(151,68,22)" height="3px" width="3px" x="32px" y="30px" /><rect fill="rgb(151,68,22)" height="3px" width="3px" x="34px" y="30px" /><rect fill="rgb(151,68,22)" height="3px" width="3px" x="36px" y="30px" /><rect fill="rgb(64,64,64)" height="3px" width="3px" x="38px" y="30px" /><rect fill="rgb(139,63,22)" height="3px" width="3px" x="40px" y="30px" /><rect fill="rgb(64,64,64)" height="3px" width="3px" x="44px" y="30px" /><rect fill="rgb(0,0,0)" height="3px" width="3px" x="50px" y="30px" /><rect fill="rgb(0,0,0)" height="3px" width="3px" x="56px" y="30px" /><rect fill="rgb(0,0,0)" height="3px" width="3px" x="58px" y="30px" /><rect fill="rgb(151,68,22)" height="3px" width="3px" x="0px" y="32px" /><rect fill="rgb(151,68,22)" height="3px" width="3px" x="2px" y="32px" /><rect fill="rgb(151,68,22)" height="3px" width="3px" x="4px" y="32px" /><rect fill="rgb(139,63,22)" height="3px" width="3px" x="6px" y="32px" /><rect fill="rgb(139,63,22)" height="3px" width="3px" x="8px" y="32px" /><rect fill="rgb(127,57,20)" height="3px" width="3px" x="10px" y="32px" /><rect fill="rgb(151,68,22)" height="3px" width="3px" x="16px" y="32px" /><rect fill="rgb(151,68,22)" height="3px" width="3px" x="18px" y="32px" /><rect fill="rgb(151,68,22)" height="3px" width="3px" x="20px" y="32px" /><rect fill="rgb(139,63,22)" height="3px" width="3px" x="22px" y="32px" /><rect fill="rgb(139,63,22)" height="3px" width="3px" x="24px" y="32px" /><rect fill="rgb(127,57,20)" height="3px" width="3px" x="26px" y="32px" /><rect fill="rgb(151,68,22)" height="3px" width="3px" x="32px" y="32px" /><rect fill="rgb(151,68,22)" height="3px" width="3px" x="34px" y="32px" /><rect fill="rgb(151,68,22)" height="3px" width="3px" x="36px" y="32px" /><rect fill="rgb(0,0,0)" height="3px" width="3px" x="38px" y="32px" /><rect fill="rgb(139,63,22)" height="3px" width="3px" x="40px" y="32px" /><rect fill="rgb(127,57,20)" height="3px" width="3px" x="42px" y="32px" /><rect fill="rgb(0,0,0)" height="3px" width="3px" x="44px" y="32px" /><rect fill="rgb(0,0,0)" height="3px" width="3px" x="50px" y="32px" /><rect fill="rgb(0,0,0)" height="3px" width="3px" x="54px" y="32px" /><rect fill="rgb(0,0,0)" height="3px" width="3px" x="58px" y="32px" /><rect fill="rgb(151,68,22)" height="3px" width="3px" x="0px" y="34px" /><rect fill="rgb(151,68,22)" height="3px" width="3px" x="2px" y="34px" /><rect fill="rgb(151,68,22)" height="3px" width="3px" x="4px" y="34px" /><rect fill="rgb(151,68,22)" height="3px" width="3px" x="6px" y="34px" /><rect fill="rgb(139,63,22)" height="3px" width="3px" x="8px" y="34px" /><rect fill="rgb(127,57,20)" height="3px" width="3px" x="10px" y="34px" /><rect fill="rgb(127,57,20)" height="3px" width="3px" x="12px" y="34px" /><rect fill="rgb(151,68,22)" height="3px" width="3px" x="16px" y="34px" /><rect fill="rgb(151,68,22)" height="3px" width="3px" x="18px" y="34px" /><rect fill="rgb(151,68,22)" height="3px" width="3px" x="20px" y="34px" /><rect fill="rgb(139,63,22)" height="3px" width="3px" x="22px" y="34px" /><rect fill="rgb(139,63,22)" height="3px" width="3px" x="24px" y="34px" /><rect fill="rgb(127,57,20)" height="3px" width="3px" x="26px" y="34px" /><rect fill="rgb(127,57,20)" height="3px" width="3px" x="28px" y="34px" /><rect fill="rgb(151,68,22)" height="3px" width="3px" x="32px" y="34px" /><rect fill="rgb(151,68,22)" height="3px" width="3px" x="34px" y="34px" /><rect fill="rgb(151,68,22)" height="3px" width="3px" x="36px" y="34px" /><rect fill="rgb(0,0,0)" height="3px" width="3px" x="38px" y="34px" /><rect fill="rgb(139,63,22)" height="3px" width="3px" x="40px" y="34px" /><rect fill="rgb(127,57,20)" height="3px" width="3px" x="42px" y="34px" /><rect fill="rgb(0,0,0)" height="3px" width="3px" x="44px" y="34px" /><rect fill="rgb(0,0,0)" height="3px" width="3px" x="50px" y="34px" /><rect fill="rgb(0,0,0)" height="3px" width="3px" x="52px" y="34px" /><rect fill="rgb(0,0,0)" height="3px" width="3px" x="58px" y="34px" /><rect fill="rgb(133,59,20)" height="3px" width="3px" x="0px" y="36px" /><rect fill="rgb(133,59,20)" height="3px" width="3px" x="2px" y="36px" /><rect fill="rgb(133,59,20)" height="3px" width="3px" x="4px" y="36px" /><rect fill="rgb(133,59,20)" height="3px" width="3px" x="6px" y="36px" /><rect fill="rgb(133,59,20)" height="3px" width="3px" x="8px" y="36px" /><rect fill="rgb(133,59,20)" height="3px" width="3px" x="10px" y="36px" /><rect fill="rgb(133,59,20)" height="3px" width="3px" x="12px" y="36px" /><rect fill="rgb(133,59,20)" height="3px" width="3px" x="14px" y="36px" /><rect fill="rgb(133,59,20)" height="3px" width="3px" x="16px" y="36px" /><rect fill="rgb(133,59,20)" height="3px" width="3px" x="18px" y="36px" /><rect fill="rgb(133,59,20)" height="3px" width="3px" x="20px" y="36px" /><rect fill="rgb(133,59,20)" height="3px" width="3px" x="22px" y="36px" /><rect fill="rgb(133,59,20)" height="3px" width="3px" x="24px" y="36px" /><rect fill="rgb(133,59,20)" height="3px" width="3px" x="26px" y="36px" /><rect fill="rgb(133,59,20)" height="3px" width="3px" x="28px" y="36px" /><rect fill="rgb(133,59,20)" height="3px" width="3px" x="30px" y="36px" /><rect fill="rgb(133,59,20)" height="3px" width="3px" x="32px" y="36px" /><rect fill="rgb(133,59,20)" height="3px" width="3px" x="34px" y="36px" /><rect fill="rgb(0,0,0)" height="3px" width="3px" x="36px" y="36px" /><rect fill="rgb(0,0,0)" height="3px" width="3px" x="38px" y="36px" /><rect fill="rgb(133,59,20)" height="3px" width="3px" x="40px" y="36px" /><rect fill="rgb(0,0,0)" height="3px" width="3px" x="42px" y="36px" /><rect fill="rgb(0,0,0)" height="3px" width="3px" x="44px" y="36px" /><rect fill="rgb(0,0,0)" height="3px" width="3px" x="50px" y="36px" /><rect fill="rgb(0,0,0)" height="3px" width="3px" x="54px" y="36px" /><rect fill="rgb(0,0,0)" height="3px" width="3px" x="58px" y="36px" /><rect fill="rgb(151,68,22)" height="3px" width="3px" x="0px" y="38px" /><rect fill="rgb(151,68,22)" height="3px" width="3px" x="2px" y="38px" /><rect fill="rgb(151,68,22)" height="3px" width="3px" x="4px" y="38px" /><rect fill="rgb(151,68,22)" height="3px" width="3px" x="6px" y="38px" /><rect fill="rgb(133,59,20)" height="3px" width="3px" x="8px" y="38px" /><rect fill="rgb(133,59,20)" height="3px" width="3px" x="10px" y="38px" /><rect fill="rgb(151,68,22)" height="3px" width="3px" x="12px" y="38px" /><rect fill="rgb(151,68,22)" height="3px" width="3px" x="14px" y="38px" /><rect fill="rgb(151,68,22)" height="3px" width="3px" x="16px" y="38px" /><rect fill="rgb(151,68,22)" height="3px" width="3px" x="18px" y="38px" /><rect fill="rgb(151,68,22)" height="3px" width="3px" x="20px" y="38px" /><rect fill="rgb(133,59,20)" height="3px" width="3px" x="22px" y="38px" /><rect fill="rgb(133,59,20)" height="3px" width="3px" x="24px" y="38px" /><rect fill="rgb(151,68,22)" height="3px" width="3px" x="26px" y="38px" /><rect fill="rgb(151,68,22)" height="3px" width="3px" x="28px" y="38px" /><rect fill="rgb(151,68,22)" height="3px" width="3px" x="30px" y="38px" /><rect fill="rgb(151,68,22)" height="3px" width="3px" x="32px" y="38px" /><rect fill="rgb(151,68,22)" height="3px" width="3px" x="34px" y="38px" /><rect fill="rgb(133,59,20)" height="3px" width="3px" x="36px" y="38px" /><rect fill="rgb(133,59,20)" height="3px" width="3px" x="38px" y="38px" /><rect fill="rgb(151,68,22)" height="3px" width="3px" x="40px" y="38px" /><rect fill="rgb(151,68,22)" height="3px" width="3px" x="42px" y="38px" /><rect fill="rgb(127,57,20)" height="3px" width="3px" x="44px" y="38px" /><rect fill="rgb(0,0,0)" height="3px" width="3px" x="50px" y="38px" /><rect fill="rgb(0,0,0)" height="3px" width="3px" x="56px" y="38px" /><rect fill="rgb(0,0,0)" height="3px" width="3px" x="58px" y="38px" /><rect fill="rgb(151,68,22)" height="3px" width="3px" x="0px" y="40px" /><rect fill="rgb(151,68,22)" height="3px" width="3px" x="2px" y="40px" /><rect fill="rgb(151,68,22)" height="3px" width="3px" x="4px" y="40px" /><rect fill="rgb(134,157,157)" height="3px" width="3px" x="6px" y="40px" /><rect fill="rgb(134,157,157)" height="3px" width="3px" x="8px" y="40px" /><rect fill="rgb(118,53,18)" height="3px" width="3px" x="10px" y="40px" /><rect fill="rgb(133,59,20)" height="3px" width="3px" x="12px" y="40px" /><rect fill="rgb(151,68,22)" height="3px" width="3px" x="14px" y="40px" /><rect fill="rgb(151,68,22)" height="3px" width="3px" x="16px" y="40px" /><rect fill="rgb(151,68,22)" height="3px" width="3px" x="18px" y="40px" /><rect fill="rgb(134,157,157)" height="3px" width="3px" x="20px" y="40px" /><rect fill="rgb(134,157,157)" height="3px" width="3px" x="22px" y="40px" /><rect fill="rgb(118,53,18)" height="3px" width="3px" x="24px" y="40px" /><rect fill="rgb(133,59,20)" height="3px" width="3px" x="26px" y="40px" /><rect fill="rgb(151,68,22)" height="3px" width="3px" x="28px" y="40px" /><rect fill="rgb(151,68,22)" height="3px" width="3px" x="30px" y="40px" /><rect fill="rgb(151,68,22)" height="3px" width="3px" x="32px" y="40px" /><rect fill="rgb(134,157,157)" height="3px" width="3px" x="34px" y="40px" /><rect fill="rgb(134,157,157)" height="3px" width="3px" x="36px" y="40px" /><rect fill="rgb(118,53,18)" height="3px" width="3px" x="38px" y="40px" /><rect fill="rgb(133,59,20)" height="3px" width="3px" x="40px" y="40px" /><rect fill="rgb(151,68,22)" height="3px" width="3px" x="42px" y="40px" /><rect fill="rgb(127,57,20)" height="3px" width="3px" x="44px" y="40px" /><rect fill="rgb(0,0,0)" height="3px" width="3px" x="50px" y="40px" /><rect fill="rgb(0,0,0)" height="3px" width="3px" x="54px" y="40px" /><rect fill="rgb(0,0,0)" height="3px" width="3px" x="58px" y="40px" /><rect fill="rgb(151,68,22)" height="3px" width="3px" x="0px" y="42px" /><rect fill="rgb(151,68,22)" height="3px" width="3px" x="2px" y="42px" /><rect fill="rgb(117,137,137)" height="3px" width="3px" x="4px" y="42px" /><rect fill="rgb(117,137,137)" height="3px" width="3px" x="6px" y="42px" /><rect fill="rgb(117,137,137)" height="3px" width="3px" x="8px" y="42px" /><rect fill="rgb(117,137,137)" height="3px" width="3px" x="10px" y="42px" /><rect fill="rgb(143,64,22)" height="3px" width="3px" x="12px" y="42px" /><rect fill="rgb(151,68,22)" height="3px" width="3px" x="14px" y="42px" /><rect fill="rgb(151,68,22)" height="3px" width="3px" x="16px" y="42px" /><rect fill="rgb(117,137,137)" height="3px" width="3px" x="18px" y="42px" /><rect fill="rgb(117,137,137)" height="3px" width="3px" x="20px" y="42px" /><rect fill="rgb(117,137,137)" height="3px" width="3px" x="22px" y="42px" /><rect fill="rgb(117,137,137)" height="3px" width="3px" x="24px" y="42px" /><rect fill="rgb(143,64,22)" height="3px" width="3px" x="26px" y="42px" /><rect fill="rgb(151,68,22)" height="3px" width="3px" x="28px" y="42px" /><rect fill="rgb(151,68,22)" height="3px" width="3px" x="30px" y="42px" /><rect fill="rgb(117,137,137)" height="3px" width="3px" x="32px" y="42px" /><rect fill="rgb(117,137,137)" height="3px" width="3px" x="34px" y="42px" /><rect fill="rgb(117,137,137)" height="3px" width="3px" x="36px" y="42px" /><rect fill="rgb(117,137,137)" height="3px" width="3px" x="38px" y="42px" /><rect fill="rgb(143,64,22)" height="3px" width="3px" x="40px" y="42px" /><rect fill="rgb(151,68,22)" height="3px" width="3px" x="42px" y="42px" /><rect fill="rgb(127,57,20)" height="3px" width="3px" x="44px" y="42px" /><rect fill="rgb(0,0,0)" height="3px" width="3px" x="50px" y="42px" /><rect fill="rgb(0,0,0)" height="3px" width="3px" x="52px" y="42px" /><rect fill="rgb(0,0,0)" height="3px" width="3px" x="58px" y="42px" /><rect fill="rgb(151,68,22)" height="3px" width="3px" x="0px" y="44px" /><rect fill="rgb(151,68,22)" height="3px" width="3px" x="2px" y="44px" /><rect fill="rgb(134,157,157)" height="3px" width="3px" x="4px" y="44px" /><rect fill="rgb(134,157,157)" height="3px" width="3px" x="6px" y="44px" /><rect fill="rgb(134,157,157)" height="3px" width="3px" x="8px" y="44px" /><rect fill="rgb(134,157,157)" height="3px" width="3px" x="10px" y="44px" /><rect fill="rgb(133,59,20)" height="3px" width="3px" x="12px" y="44px" /><rect fill="rgb(151,68,22)" height="3px" width="3px" x="14px" y="44px" /><rect fill="rgb(151,68,22)" height="3px" width="3px" x="16px" y="44px" /><rect fill="rgb(134,157,157)" height="3px" width="3px" x="18px" y="44px" /><rect fill="rgb(134,157,157)" height="3px" width="3px" x="20px" y="44px" /><rect fill="rgb(134,157,157)" height="3px" width="3px" x="22px" y="44px" /><rect fill="rgb(134,157,157)" height="3px" width="3px" x="24px" y="44px" /><rect fill="rgb(133,59,20)" height="3px" width="3px" x="26px" y="44px" /><rect fill="rgb(151,68,22)" height="3px" width="3px" x="28px" y="44px" /><rect fill="rgb(151,68,22)" height="3px" width="3px" x="30px" y="44px" /><rect fill="rgb(134,157,157)" height="3px" width="3px" x="32px" y="44px" /><rect fill="rgb(134,157,157)" height="3px" width="3px" x="34px" y="44px" /><rect fill="rgb(134,157,157)" height="3px" width="3px" x="36px" y="44px" /><rect fill="rgb(134,157,157)" height="3px" width="3px" x="38px" y="44px" /><rect fill="rgb(133,59,20)" height="3px" width="3px" x="40px" y="44px" /><rect fill="rgb(151,68,22)" height="3px" width="3px" x="42px" y="44px" /><rect fill="rgb(127,57,20)" height="3px" width="3px" x="44px" y="44px" /><rect fill="rgb(0,0,0)" height="3px" width="3px" x="48px" y="44px" /><rect fill="rgb(0,0,0)" height="3px" width="3px" x="50px" y="44px" /><rect fill="rgb(0,0,0)" height="3px" width="3px" x="60px" y="44px" /><rect fill="rgb(151,68,22)" height="3px" width="3px" x="0px" y="46px" /><rect fill="rgb(151,68,22)" height="3px" width="3px" x="2px" y="46px" /><rect fill="rgb(117,137,137)" height="3px" width="3px" x="4px" y="46px" /><rect fill="rgb(117,137,137)" height="3px" width="3px" x="6px" y="46px" /><rect fill="rgb(117,137,137)" height="3px" width="3px" x="8px" y="46px" /><rect fill="rgb(117,137,137)" height="3px" width="3px" x="10px" y="46px" /><rect fill="rgb(133,59,20)" height="3px" width="3px" x="12px" y="46px" /><rect fill="rgb(151,68,22)" height="3px" width="3px" x="14px" y="46px" /><rect fill="rgb(151,68,22)" height="3px" width="3px" x="16px" y="46px" /><rect fill="rgb(117,137,137)" height="3px" width="3px" x="18px" y="46px" /><rect fill="rgb(117,137,137)" height="3px" width="3px" x="20px" y="46px" /><rect fill="rgb(117,137,137)" height="3px" width="3px" x="22px" y="46px" /><rect fill="rgb(117,137,137)" height="3px" width="3px" x="24px" y="46px" /><rect fill="rgb(133,59,20)" height="3px" width="3px" x="26px" y="46px" /><rect fill="rgb(151,68,22)" height="3px" width="3px" x="28px" y="46px" /><rect fill="rgb(151,68,22)" height="3px" width="3px" x="30px" y="46px" /><rect fill="rgb(117,137,137)" height="3px" width="3px" x="32px" y="46px" /><rect fill="rgb(117,137,137)" height="3px" width="3px" x="34px" y="46px" /><rect fill="rgb(117,137,137)" height="3px" width="3px" x="36px" y="46px" /><rect fill="rgb(117,137,137)" height="3px" width="3px" x="38px" y="46px" /><rect fill="rgb(133,59,20)" height="3px" width="3px" x="40px" y="46px" /><rect fill="rgb(151,68,22)" height="3px" width="3px" x="42px" y="46px" /><rect fill="rgb(127,57,20)" height="3px" width="3px" x="44px" y="46px" /><rect fill="rgb(0,0,0)" height="3px" width="3px" x="48px" y="46px" /><rect fill="rgb(0,0,0)" height="3px" width="3px" x="52px" y="46px" /><rect fill="rgb(0,0,0)" height="3px" width="3px" x="60px" y="46px" /><rect fill="rgb(151,68,22)" height="3px" width="3px" x="0px" y="48px" /><rect fill="rgb(151,68,22)" height="3px" width="3px" x="2px" y="48px" /><rect fill="rgb(134,157,157)" height="3px" width="3px" x="4px" y="48px" /><rect fill="rgb(134,157,157)" height="3px" width="3px" x="6px" y="48px" /><rect fill="rgb(134,157,157)" height="3px" width="3px" x="8px" y="48px" /><rect fill="rgb(134,157,157)" height="3px" width="3px" x="10px" y="48px" /><rect fill="rgb(118,53,18)" height="3px" width="3px" x="12px" y="48px" /><rect fill="rgb(151,68,22)" height="3px" width="3px" x="14px" y="48px" /><rect fill="rgb(151,68,22)" height="3px" width="3px" x="16px" y="48px" /><rect fill="rgb(134,157,157)" height="3px" width="3px" x="18px" y="48px" /><rect fill="rgb(134,157,157)" height="3px" width="3px" x="20px" y="48px" /><rect fill="rgb(134,157,157)" height="3px" width="3px" x="22px" y="48px" /><rect fill="rgb(134,157,157)" height="3px" width="3px" x="24px" y="48px" /><rect fill="rgb(118,53,18)" height="3px" width="3px" x="26px" y="48px" /><rect fill="rgb(151,68,22)" height="3px" width="3px" x="28px" y="48px" /><rect fill="rgb(151,68,22)" height="3px" width="3px" x="30px" y="48px" /><rect fill="rgb(134,157,157)" height="3px" width="3px" x="32px" y="48px" /><rect fill="rgb(134,157,157)" height="3px" width="3px" x="34px" y="48px" /><rect fill="rgb(134,157,157)" height="3px" width="3px" x="36px" y="48px" /><rect fill="rgb(134,157,157)" height="3px" width="3px" x="38px" y="48px" /><rect fill="rgb(118,53,18)" height="3px" width="3px" x="40px" y="48px" /><rect fill="rgb(151,68,22)" height="3px" width="3px" x="42px" y="48px" /><rect fill="rgb(127,57,20)" height="3px" width="3px" x="44px" y="48px" /><rect fill="rgb(0,0,0)" height="3px" width="3px" x="48px" y="48px" /><rect fill="rgb(0,0,0)" height="3px" width="3px" x="54px" y="48px" /><rect fill="rgb(0,0,0)" height="3px" width="3px" x="60px" y="48px" /><rect fill="rgb(151,68,22)" height="3px" width="3px" x="0px" y="50px" /><rect fill="rgb(151,68,22)" height="3px" width="3px" x="2px" y="50px" /><rect fill="rgb(117,137,137)" height="3px" width="3px" x="4px" y="50px" /><rect fill="rgb(117,137,137)" height="3px" width="3px" x="6px" y="50px" /><rect fill="rgb(117,137,137)" height="3px" width="3px" x="8px" y="50px" /><rect fill="rgb(117,137,137)" height="3px" width="3px" x="10px" y="50px" /><rect fill="rgb(118,53,18)" height="3px" width="3px" x="12px" y="50px" /><rect fill="rgb(151,68,22)" height="3px" width="3px" x="14px" y="50px" /><rect fill="rgb(151,68,22)" height="3px" width="3px" x="16px" y="50px" /><rect fill="rgb(117,137,137)" height="3px" width="3px" x="18px" y="50px" /><rect fill="rgb(117,137,137)" height="3px" width="3px" x="20px" y="50px" /><rect fill="rgb(117,137,137)" height="3px" width="3px" x="22px" y="50px" /><rect fill="rgb(117,137,137)" height="3px" width="3px" x="24px" y="50px" /><rect fill="rgb(118,53,18)" height="3px" width="3px" x="26px" y="50px" /><rect fill="rgb(151,68,22)" height="3px" width="3px" x="28px" y="50px" /><rect fill="rgb(151,68,22)" height="3px" width="3px" x="30px" y="50px" /><rect fill="rgb(117,137,137)" height="3px" width="3px" x="32px" y="50px" /><rect fill="rgb(117,137,137)" height="3px" width="3px" x="34px" y="50px" /><rect fill="rgb(117,137,137)" height="3px" width="3px" x="36px" y="50px" /><rect fill="rgb(117,137,137)" height="3px" width="3px" x="38px" y="50px" /><rect fill="rgb(118,53,18)" height="3px" width="3px" x="40px" y="50px" /><rect fill="rgb(151,68,22)" height="3px" width="3px" x="42px" y="50px" /><rect fill="rgb(127,57,20)" height="3px" width="3px" x="44px" y="50px" /><rect fill="rgb(0,0,0)" height="3px" width="3px" x="48px" y="50px" /><rect fill="rgb(0,0,0)" height="3px" width="3px" x="56px" y="50px" /><rect fill="rgb(0,0,0)" height="3px" width="3px" x="60px" y="50px" /><rect fill="rgb(151,68,22)" height="3px" width="3px" x="0px" y="52px" /><rect fill="rgb(151,68,22)" height="3px" width="3px" x="2px" y="52px" /><rect fill="rgb(134,157,157)" height="3px" width="3px" x="4px" y="52px" /><rect fill="rgb(134,157,157)" height="3px" width="3px" x="6px" y="52px" /><rect fill="rgb(134,157,157)" height="3px" width="3px" x="8px" y="52px" /><rect fill="rgb(134,157,157)" height="3px" width="3px" x="10px" y="52px" /><rect fill="rgb(110,49,17)" height="3px" width="3px" x="12px" y="52px" /><rect fill="rgb(151,68,22)" height="3px" width="3px" x="14px" y="52px" /><rect fill="rgb(151,68,22)" height="3px" width="3px" x="16px" y="52px" /><rect fill="rgb(134,157,157)" height="3px" width="3px" x="18px" y="52px" /><rect fill="rgb(134,157,157)" height="3px" width="3px" x="20px" y="52px" /><rect fill="rgb(134,157,157)" height="3px" width="3px" x="22px" y="52px" /><rect fill="rgb(134,157,157)" height="3px" width="3px" x="24px" y="52px" /><rect fill="rgb(110,49,17)" height="3px" width="3px" x="26px" y="52px" /><rect fill="rgb(151,68,22)" height="3px" width="3px" x="28px" y="52px" /><rect fill="rgb(151,68,22)" height="3px" width="3px" x="30px" y="52px" /><rect fill="rgb(134,157,157)" height="3px" width="3px" x="32px" y="52px" /><rect fill="rgb(134,157,157)" height="3px" width="3px" x="34px" y="52px" /><rect fill="rgb(134,157,157)" height="3px" width="3px" x="36px" y="52px" /><rect fill="rgb(134,157,157)" height="3px" width="3px" x="38px" y="52px" /><rect fill="rgb(110,49,17)" height="3px" width="3px" x="40px" y="52px" /><rect fill="rgb(151,68,22)" height="3px" width="3px" x="42px" y="52px" /><rect fill="rgb(127,57,20)" height="3px" width="3px" x="44px" y="52px" /><rect fill="rgb(0,0,0)" height="3px" width="3px" x="48px" y="52px" /><rect fill="rgb(0,0,0)" height="3px" width="3px" x="58px" y="52px" /><rect fill="rgb(0,0,0)" height="3px" width="3px" x="60px" y="52px" /><rect fill="rgb(151,68,22)" height="3px" width="3px" x="0px" y="54px" /><rect fill="rgb(133,59,20)" height="3px" width="3px" x="2px" y="54px" /><rect fill="rgb(133,59,20)" height="3px" width="3px" x="4px" y="54px" /><rect fill="rgb(118,53,18)" height="3px" width="3px" x="6px" y="54px" /><rect fill="rgb(118,53,18)" height="3px" width="3px" x="8px" y="54px" /><rect fill="rgb(110,49,17)" height="3px" width="3px" x="10px" y="54px" /><rect fill="rgb(110,49,17)" height="3px" width="3px" x="12px" y="54px" /><rect fill="rgb(151,68,22)" height="3px" width="3px" x="14px" y="54px" /><rect fill="rgb(133,59,20)" height="3px" width="3px" x="16px" y="54px" /><rect fill="rgb(133,59,20)" height="3px" width="3px" x="18px" y="54px" /><rect fill="rgb(118,53,18)" height="3px" width="3px" x="20px" y="54px" /><rect fill="rgb(118,53,18)" height="3px" width="3px" x="22px" y="54px" /><rect fill="rgb(110,49,17)" height="3px" width="3px" x="24px" y="54px" /><rect fill="rgb(110,49,17)" height="3px" width="3px" x="26px" y="54px" /><rect fill="rgb(151,68,22)" height="3px" width="3px" x="28px" y="54px" /><rect fill="rgb(133,59,20)" height="3px" width="3px" x="30px" y="54px" /><rect fill="rgb(133,59,20)" height="3px" width="3px" x="32px" y="54px" /><rect fill="rgb(118,53,18)" height="3px" width="3px" x="34px" y="54px" /><rect fill="rgb(118,53,18)" height="3px" width="3px" x="36px" y="54px" /><rect fill="rgb(110,49,17)" height="3px" width="3px" x="38px" y="54px" /><rect fill="rgb(110,49,17)" height="3px" width="3px" x="40px" y="54px" /><rect fill="rgb(151,68,22)" height="3px" width="3px" x="42px" y="54px" /><rect fill="rgb(127,57,20)" height="3px" width="3px" x="44px" y="54px" /><rect fill="rgb(0,0,0)" height="3px" width="3px" x="48px" y="54px" /><rect fill="rgb(0,0,0)" height="3px" width="3px" x="56px" y="54px" /><rect fill="rgb(0,0,0)" height="3px" width="3px" x="60px" y="54px" /><rect fill="rgb(151,68,22)" height="3px" width="3px" x="0px" y="56px" /><rect fill="rgb(151,68,22)" height="3px" width="3px" x="2px" y="56px" /><rect fill="rgb(151,68,22)" height="3px" width="3px" x="4px" y="56px" /><rect fill="rgb(151,68,22)" height="3px" width="3px" x="6px" y="56px" /><rect fill="rgb(151,68,22)" height="3px" width="3px" x="8px" y="56px" /><rect fill="rgb(151,68,22)" height="3px" width="3px" x="10px" y="56px" /><rect fill="rgb(151,68,22)" height="3px" width="3px" x="12px" y="56px" /><rect fill="rgb(151,68,22)" height="3px" width="3px" x="14px" y="56px" /><rect fill="rgb(151,68,22)" height="3px" width="3px" x="16px" y="56px" /><rect fill="rgb(151,68,22)" height="3px" width="3px" x="18px" y="56px" /><rect fill="rgb(151,68,22)" height="3px" width="3px" x="20px" y="56px" /><rect fill="rgb(151,68,22)" height="3px" width="3px" x="22px" y="56px" /><rect fill="rgb(151,68,22)" height="3px" width="3px" x="24px" y="56px" /><rect fill="rgb(151,68,22)" height="3px" width="3px" x="26px" y="56px" /><rect fill="rgb(151,68,22)" height="3px" width="3px" x="28px" y="56px" /><rect fill="rgb(151,68,22)" height="3px" width="3px" x="30px" y="56px" /><rect fill="rgb(151,68,22)" height="3px" width="3px" x="32px" y="56px" /><rect fill="rgb(151,68,22)" height="3px" width="3px" x="34px" y="56px" /><rect fill="rgb(151,68,22)" height="3px" width="3px" x="36px" y="56px" /><rect fill="rgb(151,68,22)" height="3px" width="3px" x="38px" y="56px" /><rect fill="rgb(151,68,22)" height="3px" width="3px" x="40px" y="56px" /><rect fill="rgb(151,68,22)" height="3px" width="3px" x="42px" y="56px" /><rect fill="rgb(127,57,20)" height="3px" width="3px" x="44px" y="56px" /><rect fill="rgb(0,0,0)" height="3px" width="3px" x="48px" y="56px" /><rect fill="rgb(0,0,0)" height="3px" width="3px" x="54px" y="56px" /><rect fill="rgb(0,0,0)" height="3px" width="3px" x="60px" y="56px" /><rect fill="rgb(151,68,22)" height="3px" width="3px" x="0px" y="58px" /><rect fill="rgb(151,68,22)" height="3px" width="3px" x="2px" y="58px" /><rect fill="rgb(151,68,22)" height="3px" width="3px" x="4px" y="58px" /><rect fill="rgb(151,68,22)" height="3px" width="3px" x="6px" y="58px" /><rect fill="rgb(151,68,22)" height="3px" width="3px" x="8px" y="58px" /><rect fill="rgb(151,68,22)" height="3px" width="3px" x="10px" y="58px" /><rect fill="rgb(151,68,22)" height="3px" width="3px" x="12px" y="58px" /><rect fill="rgb(151,68,22)" height="3px" width="3px" x="14px" y="58px" /><rect fill="rgb(151,68,22)" height="3px" width="3px" x="16px" y="58px" /><rect fill="rgb(151,68,22)" height="3px" width="3px" x="18px" y="58px" /><rect fill="rgb(151,68,22)" height="3px" width="3px" x="20px" y="58px" /><rect fill="rgb(151,68,22)" height="3px" width="3px" x="22px" y="58px" /><rect fill="rgb(151,68,22)" height="3px" width="3px" x="24px" y="58px" /><rect fill="rgb(151,68,22)" height="3px" width="3px" x="26px" y="58px" /><rect fill="rgb(151,68,22)" height="3px" width="3px" x="28px" y="58px" /><rect fill="rgb(151,68,22)" height="3px" width="3px" x="30px" y="58px" /><rect fill="rgb(151,68,22)" height="3px" width="3px" x="32px" y="58px" /><rect fill="rgb(151,68,22)" height="3px" width="3px" x="34px" y="58px" /><rect fill="rgb(151,68,22)" height="3px" width="3px" x="36px" y="58px" /><rect fill="rgb(151,68,22)" height="3px" width="3px" x="38px" y="58px" /><rect fill="rgb(151,68,22)" height="3px" width="3px" x="40px" y="58px" /><rect fill="rgb(151,68,22)" height="3px" width="3px" x="42px" y="58px" /><rect fill="rgb(127,57,20)" height="3px" width="3px" x="44px" y="58px" /><rect fill="rgb(0,0,0)" height="3px" width="3px" x="46px" y="58px" /><rect fill="rgb(0,0,0)" height="3px" width="3px" x="52px" y="58px" /><rect fill="rgb(0,0,0)" height="3px" width="3px" x="62px" y="58px" /></svg>