<?xml version="1.0" encoding="utf-8" ?>
<svg baseProfile="full" height="64px" version="1.1" width="64px" xmlns="http://www.w3.org/2000/svg" xmlns:ev="http://www.w3.org/2001/xml-events" xmlns:xlink="http://www.w3.org/1999/xlink"><defs /><rect fill="rgb(43,43,40)" height="3px" width="3px" x="22px" y="0px" /><rect fill="rgb(64,64,60)" height="3px" width="3px" x="24px" y="0px" /><rect fill="rgb(62,62,58)" height="3px" width="3px" x="26px" y="0px" /><rect fill="rgb(59,59,55)" height="3px" width="3px" x="28px" y="0px" /><rect fill="rgb(64,64,60)" height="3px" width="3px" x="30px" y="0px" /><rect fill="rgb(64,64,60)" height="3px" width="3px" x="32px" y="0px" /><rect fill="rgb(64,64,60)" height="3px" width="3px" x="34px" y="0px" /><rect fill="rgb(43,43,40)" height="3px" width="3px" x="36px" y="0px" /><rect fill="rgb(43,43,40)" height="3px" width="3px" x="22px" y="2px" /><rect fill="rgb(62,62,58)" height="3px" width="3px" x="24px" y="2px" /><rect fill="rgb(58,58,54)" height="3px" width="3px" x="26px" y="2px" /><rect fill="rgb(61,61,56)" height="3px" width="3px" x="28px" y="2px" /><rect fill="rgb(67,67,61)" height="3px" width="3px" x="30px" y="2px" /><rect fill="rgb(65,65,61)" height="3px" width="3px" x="32px" y="2px" /><rect fill="rgb(64,64,60)" height="3px" width="3px" x="34px" y="2px" /><rect fill="rgb(43,43,40)" height="3px" width="3px" x="36px" y="2px" /><rect fill="rgb(43,43,40)" height="3px" width="3px" x="22px" y="4px" /><rect fill="rgb(64,64,60)" height="3px" width="3px" x="24px" y="4px" /><rect fill="rgb(60,60,56)" height="3px" width="3px" x="26px" y="4px" /><rect fill="rgb(63,63,59)" height="3px" width="3px" x="28px" y="4px" /><rect fill="rgb(63,63,57)" height="3px" width="3px" x="30px" y="4px" /><rect fill="rgb(67,67,63)" height="3px" width="3px" x="32px" y="4px" /><rect fill="rgb(64,64,60)" height="3px" width="3px" x="34px" y="4px" /><rect fill="rgb(43,43,40)" height="3px" width="3px" x="36px" y="4px" /><rect fill="rgb(43,43,40)" height="3px" width="3px" x="22px" y="6px" /><rect fill="rgb(64,64,60)" height="3px" width="3px" x="24px" y="6px" /><rect fill="rgb(60,60,56)" height="3px" width="3px" x="26px" y="6px" /><rect fill="rgb(63,63,58)" height="3px" width="3px" x="28px" y="6px" /><rect fill="rgb(61,61,57)" height="3px" width="3px" x="30px" y="6px" /><rect fill="rgb(65,65,61)" height="3px" width="3px" x="32px" y="6px" /><rect fill="rgb(66,66,61)" height="3px" width="3px" x="34px" y="6px" /><rect fill="rgb(43,43,40)" height="3px" width="3px" x="36px" y="6px" /><rect fill="rgb(43,43,40)" height="3px" width="3px" x="22px" y="8px" /><rect fill="rgb(64,64,60)" height="3px" width="3px" x="24px" y="8px" /><rect fill="rgb(64,64,60)" height="3px" width="3px" x="26px" y="8px" /><rect fill="rgb(59,59,55)" height="3px" width="3px" x="28px" y="8px" /><rect fill="rgb(64,64,59)" height="3px" width="3px" x="30px" y="8px" /><rect fill="rgb(64,64,60)" height="3px" width="3px" x="32px" y="8px" /><rect fill="rgb(66,66,61)" height="3px" width="3px" x="34px" y="8px" /><rect fill="rgb(43,43,40)" height="3px" width="3px" x="36px" y="8px" /><rect fill="rgb(43,43,40)" height="3px" width="3px" x="22px" y="10px" /><rect fill="rgb(59,59,55)" height="3px" width="3px" x="24px" y="10px" /><rect fill="rgb(56,56,52)" height="3px" width="3px" x="26px" y="10px" /><rect fill="rgb(58,58,53)" height="3px" width="3px" x="28px" y="10px" /><rect fill="rgb(66,66,61)" height="3px" width="3px" x="30px" y="10px" /><rect fill="rgb(56,56,52)" height="3px" width="3px" x="32px" y="10px" /><rect fill="rgb(57,57,53)" height="3px" width="3px" x="34px" y="10px" /><rect fill="rgb(43,43,40)" height="3px" width="3px" x="36px" y="10px" /><rect fill="rgb(43,43,40)" height="3px" width="3px" x="22px" y="12px" /><rect fill="rgb(59,59,55)" height="3px" width="3px" x="24px" y="12px" /><rect fill="rgb(63,63,59)" height="3px" width="3px" x="26px" y="12px" /><rect fill="rgb(67,67,62)" height="3px" width="3px" x="28px" y="12px" /><rect fill="rgb(65,65,61)" height="3px" width="3px" x="30px" y="12px" /><rect fill="rgb(63,63,59)" height="3px" width="3px" x="32px" y="12px" /><rect fill="rgb(63,63,59)" height="3px" width="3px" x="34px" y="12px" /><rect fill="rgb(43,43,40)" height="3px" width="3px" x="36px" y="12px" /><rect fill="rgb(43,43,40)" height="3px" width="3px" x="22px" y="14px" /><rect fill="rgb(60,60,56)" height="3px" width="3px" x="24px" y="14px" /><rect fill="rgb(61,61,57)" height="3px" width="3px" x="26px" y="14px" /><rect fill="rgb(60,60,55)" height="3px" width="3px" x="28px" y="14px" /><rect fill="rgb(59,59,55)" height="3px" width="3px" x="30px" y="14px" /><rect fill="rgb(57,57,53)" height="3px" width="3px" x="32px" y="14px" /><rect fill="rgb(63,63,59)" height="3px" width="3px" x="34px" y="14px" /><rect fill="rgb(43,43,40)" height="3px" width="3px" x="36px" y="14px" /><rect fill="rgb(43,43,40)" height="3px" width="3px" x="22px" y="16px" /><rect fill="rgb(58,58,55)" height="3px" width="3px" x="24px" y="16px" /><rect fill="rgb(61,61,57)" height="3px" width="3px" x="26px" y="16px" /><rect fill="rgb(62,62,58)" height="3px" width="3px" x="28px" y="16px" /><rect fill="rgb(63,63,59)" height="3px" width="3px" x="30px" y="16px" /><rect fill="rgb(66,66,61)" height="3px" width="3px" x="32px" y="16px" /><rect fill="rgb(64,64,60)" height="3px" width="3px" x="34px" y="16px" /><rect fill="rgb(43,43,40)" height="3px" width="3px" x="36px" y="16px" /><rect fill="rgb(43,43,40)" height="3px" width="3px" x="22px" y="18px" /><rect fill="rgb(57,57,53)" height="3px" width="3px" x="24px" y="18px" /><rect fill="rgb(64,64,60)" height="3px" width="3px" x="26px" y="18px" /><rect fill="rgb(62,62,58)" height="3px" width="3px" x="28px" y="18px" /><rect fill="rgb(63,63,58)" height="3px" width="3px" x="30px" y="18px" /><rect fill="rgb(63,63,59)" height="3px" width="3px" x="32px" y="18px" /><rect fill="rgb(60,60,56)" height="3px" width="3px" x="34px" y="18px" /><rect fill="rgb(43,43,40)" height="3px" width="3px" x="36px" y="18px" /><rect fill="rgb(43,43,40)" height="3px" width="3px" x="22px" y="20px" /><rect fill="rgb(64,64,60)" height="3px" width="3px" x="24px" y="20px" /><rect fill="rgb(65,65,61)" height="3px" width="3px" x="26px" y="20px" /><rect fill="rgb(63,63,59)" height="3px" width="3px" x="28px" y="20px" /><rect fill="rgb(64,64,60)" height="3px" width="3px" x="30px" y="20px" /><rect fill="rgb(63,63,59)" height="3px" width="3px" x="32px" y="20px" /><rect fill="rgb(60,60,56)" height="3px" width="3px" x="34px" y="20px" /><rect fill="rgb(43,43,40)" height="3px" width="3px" x="36px" y="20px" /><rect fill="rgb(43,43,40)" height="3px" width="3px" x="0px" y="22px" /><rect fill="rgb(43,43,40)" height="3px" width="3px" x="2px" y="22px" /><rect fill="rgb(43,43,40)" height="3px" width="3px" x="4px" y="22px" /><rect fill="rgb(43,43,40)" height="3px" width="3px" x="6px" y="22px" /><rect fill="rgb(43,43,40)" height="3px" width="3px" x="8px" y="22px" /><rect fill="rgb(43,43,40)" height="3px" width="3px" x="10px" y="22px" /><rect fill="rgb(43,43,40)" height="3px" width="3px" x="12px" y="22px" /><rect fill="rgb(43,43,40)" height="3px" width="3px" x="14px" y="22px" /><rect fill="rgb(44,44,41)" height="3px" width="3px" x="16px" y="22px" /><rect fill="rgb(43,43,40)" height="3px" width="3px" x="18px" y="22px" /><rect fill="rgb(43,43,40)" height="3px" width="3px" x="20px" y="22px" /><rect fill="rgb(44,44,41)" height="3px" width="3px" x="22px" y="22px" /><rect fill="rgb(66,66,62)" height="3px" width="3px" x="24px" y="22px" /><rect fill="rgb(65,65,61)" height="3px" width="3px" x="26px" y="22px" /><rect fill="rgb(63,63,58)" height="3px" width="3px" x="28px" y="22px" /><rect fill="rgb(64,64,60)" height="3px" width="3px" x="30px" y="22px" /><rect fill="rgb(64,64,60)" height="3px" width="3px" x="32px" y="22px" /><rect fill="rgb(65,65,61)" height="3px" width="3px" x="34px" y="22px" /><rect fill="rgb(43,43,40)" height="3px" width="3px" x="36px" y="22px" /><rect fill="rgb(43,43,40)" height="3px" width="3px" x="38px" y="22px" /><rect fill="rgb(43,43,40)" height="3px" width="3px" x="40px" y="22px" /><rect fill="rgb(43,43,40)" height="3px" width="3px" x="42px" y="22px" /><rect fill="rgb(43,43,40)" height="3px" width="3px" x="44px" y="22px" /><rect fill="rgb(43,43,40)" height="3px" width="3px" x="46px" y="22px" /><rect fill="rgb(43,43,40)" height="3px" width="3px" x="48px" y="22px" /><rect fill="rgb(43,43,40)" height="3px" width="3px" x="50px" y="22px" /><rect fill="rgb(43,43,40)" height="3px" width="3px" x="52px" y="22px" /><rect fill="rgb(43,43,40)" height="3px" width="3px" x="54px" y="22px" /><rect fill="rgb(43,43,40)" height="3px" width="3px" x="56px" y="22px" /><rect fill="rgb(43,43,40)" height="3px" width="3px" x="58px" y="22px" /><rect fill="rgb(43,43,40)" height="3px" width="3px" x="60px" y="22px" /><rect fill="rgb(43,43,40)" height="3px" width="3px" x="62px" y="22px" /><rect fill="rgb(58,58,55)" height="3px" width="3px" x="0px" y="24px" /><rect fill="rgb(60,60,56)" height="3px" width="3px" x="2px" y="24px" /><rect fill="rgb(56,56,52)" height="3px" width="3px" x="4px" y="24px" /><rect fill="rgb(58,58,55)" height="3px" width="3px" x="6px" y="24px" /><rect fill="rgb(63,63,59)" height="3px" width="3px" x="8px" y="24px" /><rect fill="rgb(64,64,60)" height="3px" width="3px" x="10px" y="24px" /><rect fill="rgb(60,60,56)" height="3px" width="3px" x="12px" y="24px" /><rect fill="rgb(56,56,52)" height="3px" width="3px" x="14px" y="24px" /><rect fill="rgb(65,65,61)" height="3px" width="3px" x="16px" y="24px" /><rect fill="rgb(64,64,60)" height="3px" width="3px" x="18px" y="24px" /><rect fill="rgb(67,67,62)" height="3px" width="3px" x="20px" y="24px" /><rect fill="rgb(65,65,61)" height="3px" width="3px" x="22px" y="24px" /><rect fill="rgb(66,66,62)" height="3px" width="3px" x="24px" y="24px" /><rect fill="rgb(65,65,60)" height="3px" width="3px" x="26px" y="24px" /><rect fill="rgb(65,65,60)" height="3px" width="3px" x="28px" y="24px" /><rect fill="rgb(66,66,62)" height="3px" width="3px" x="30px" y="24px" /><rect fill="rgb(64,64,60)" height="3px" width="3px" x="32px" y="24px" /><rect fill="rgb(65,65,61)" height="3px" width="3px" x="34px" y="24px" /><rect fill="rgb(59,59,55)" height="3px" width="3px" x="36px" y="24px" /><rect fill="rgb(62,62,58)" height="3px" width="3px" x="38px" y="24px" /><rect fill="rgb(64,64,60)" height="3px" width="3px" x="40px" y="24px" /><rect fill="rgb(64,64,60)" height="3px" width="3px" x="42px" y="24px" /><rect fill="rgb(62,62,58)" height="3px" width="3px" x="44px" y="24px" /><rect fill="rgb(62,62,58)" height="3px" width="3px" x="46px" y="24px" /><rect fill="rgb(64,64,60)" height="3px" width="3px" x="48px" y="24px" /><rect fill="rgb(64,64,60)" height="3px" width="3px" x="50px" y="24px" /><rect fill="rgb(64,64,60)" height="3px" width="3px" x="52px" y="24px" /><rect fill="rgb(64,64,60)" height="3px" width="3px" x="54px" y="24px" /><rect fill="rgb(57,57,53)" height="3px" width="3px" x="56px" y="24px" /><rect fill="rgb(62,62,58)" height="3px" width="3px" x="58px" y="24px" /><rect fill="rgb(62,62,58)" height="3px" width="3px" x="60px" y="24px" /><rect fill="rgb(62,62,58)" height="3px" width="3px" x="62px" y="24px" /><rect fill="rgb(64,64,60)" height="3px" width="3px" x="0px" y="26px" /><rect fill="rgb(66,66,61)" height="3px" width="3px" x="2px" y="26px" /><rect fill="rgb(69,69,64)" height="3px" width="3px" x="4px" y="26px" /><rect fill="rgb(63,63,58)" height="3px" width="3px" x="6px" y="26px" /><rect fill="rgb(62,62,57)" height="3px" width="3px" x="8px" y="26px" /><rect fill="rgb(66,66,62)" height="3px" width="3px" x="10px" y="26px" /><rect fill="rgb(66,66,62)" height="3px" width="3px" x="12px" y="26px" /><rect fill="rgb(54,54,51)" height="3px" width="3px" x="14px" y="26px" /><rect fill="rgb(66,66,62)" height="3px" width="3px" x="16px" y="26px" /><rect fill="rgb(68,68,64)" height="3px" width="3px" x="18px" y="26px" /><rect fill="rgb(71,71,66)" height="3px" width="3px" x="20px" y="26px" /><rect fill="rgb(62,62,58)" height="3px" width="3px" x="22px" y="26px" /><rect fill="rgb(62,62,59)" height="3px" width="3px" x="24px" y="26px" /><rect fill="rgb(64,64,61)" height="3px" width="3px" x="26px" y="26px" /><rect fill="rgb(55,55,51)" height="3px" width="3px" x="28px" y="26px" /><rect fill="rgb(67,67,62)" height="3px" width="3px" x="30px" y="26px" /><rect fill="rgb(65,65,61)" height="3px" width="3px" x="32px" y="26px" /><rect fill="rgb(65,65,61)" height="3px" width="3px" x="34px" y="26px" /><rect fill="rgb(58,58,54)" height="3px" width="3px" x="36px" y="26px" /><rect fill="rgb(60,60,56)" height="3px" width="3px" x="38px" y="26px" /><rect fill="rgb(65,65,61)" height="3px" width="3px" x="40px" y="26px" /><rect fill="rgb(68,68,63)" height="3px" width="3px" x="42px" y="26px" /><rect fill="rgb(64,64,60)" height="3px" width="3px" x="44px" y="26px" /><rect fill="rgb(64,64,59)" height="3px" width="3px" x="46px" y="26px" /><rect fill="rgb(67,67,61)" height="3px" width="3px" x="48px" y="26px" /><rect fill="rgb(64,64,60)" height="3px" width="3px" x="50px" y="26px" /><rect fill="rgb(64,64,60)" height="3px" width="3px" x="52px" y="26px" /><rect fill="rgb(64,64,60)" height="3px" width="3px" x="54px" y="26px" /><rect fill="rgb(58,58,55)" height="3px" width="3px" x="56px" y="26px" /><rect fill="rgb(63,63,59)" height="3px" width="3px" x="58px" y="26px" /><rect fill="rgb(60,60,56)" height="3px" width="3px" x="60px" y="26px" /><rect fill="rgb(60,60,56)" height="3px" width="3px" x="62px" y="26px" /><rect fill="rgb(64,64,60)" height="3px" width="3px" x="0px" y="28px" /><rect fill="rgb(52,52,48)" height="3px" width="3px" x="2px" y="28px" /><rect fill="rgb(68,68,63)" height="3px" width="3px" x="4px" y="28px" /><rect fill="rgb(66,66,62)" height="3px" width="3px" x="6px" y="28px" /><rect fill="rgb(62,62,58)" height="3px" width="3px" x="8px" y="28px" /><rect fill="rgb(65,65,61)" height="3px" width="3px" x="10px" y="28px" /><rect fill="rgb(67,67,63)" height="3px" width="3px" x="12px" y="28px" /><rect fill="rgb(69,69,65)" height="3px" width="3px" x="14px" y="28px" /><rect fill="rgb(68,68,64)" height="3px" width="3px" x="16px" y="28px" /><rect fill="rgb(70,70,65)" height="3px" width="3px" x="18px" y="28px" /><rect fill="rgb(68,68,63)" height="3px" width="3px" x="20px" y="28px" /><rect fill="rgb(68,68,64)" height="3px" width="3px" x="22px" y="28px" /><rect fill="rgb(72,72,68)" height="3px" width="3px" x="24px" y="28px" /><rect fill="rgb(72,72,68)" height="3px" width="3px" x="26px" y="28px" /><rect fill="rgb(68,68,63)" height="3px" width="3px" x="28px" y="28px" /><rect fill="rgb(64,64,59)" height="3px" width="3px" x="30px" y="28px" /><rect fill="rgb(64,64,59)" height="3px" width="3px" x="32px" y="28px" /><rect fill="rgb(67,67,62)" height="3px" width="3px" x="34px" y="28px" /><rect fill="rgb(68,68,64)" height="3px" width="3px" x="36px" y="28px" /><rect fill="rgb(69,69,65)" height="3px" width="3px" x="38px" y="28px" /><rect fill="rgb(70,70,66)" height="3px" width="3px" x="40px" y="28px" /><rect fill="rgb(69,69,65)" height="3px" width="3px" x="42px" y="28px" /><rect fill="rgb(60,60,57)" height="3px" width="3px" x="44px" y="28px" /><rect fill="rgb(60,60,56)" height="3px" width="3px" x="46px" y="28px" /><rect fill="rgb(70,70,65)" height="3px" width="3px" x="48px" y="28px" /><rect fill="rgb(70,70,65)" height="3px" width="3px" x="50px" y="28px" /><rect fill="rgb(69,69,64)" height="3px" width="3px" x="52px" y="28px" /><rect fill="rgb(70,70,65)" height="3px" width="3px" x="54px" y="28px" /><rect fill="rgb(69,69,64)" height="3px" width="3px" x="56px" y="28px" /><rect fill="rgb(68,68,64)" height="3px" width="3px" x="58px" y="28px" /><rect fill="rgb(65,65,61)" height="3px" width="3px" x="60px" y="28px" /><rect fill="rgb(63,63,58)" height="3px" width="3px" x="62px" y="28px" /><rect fill="rgb(64,64,60)" height="3px" width="3px" x="0px" y="30px" /><rect fill="rgb(61,61,57)" height="3px" width="3px" x="2px" y="30px" /><rect fill="rgb(67,67,63)" height="3px" width="3px" x="4px" y="30px" /><rect fill="rgb(65,65,61)" height="3px" width="3px" x="6px" y="30px" /><rect fill="rgb(64,64,60)" height="3px" width="3px" x="8px" y="30px" /><rect fill="rgb(64,64,60)" height="3px" width="3px" x="10px" y="30px" /><rect fill="rgb(60,60,56)" height="3px" width="3px" x="12px" y="30px" /><rect fill="rgb(62,62,57)" height="3px" width="3px" x="14px" y="30px" /><rect fill="rgb(64,64,60)" height="3px" width="3px" x="16px" y="30px" /><rect fill="rgb(66,66,61)" height="3px" width="3px" x="18px" y="30px" /><rect fill="rgb(58,58,54)" height="3px" width="3px" x="20px" y="30px" /><rect fill="rgb(62,62,58)" height="3px" width="3px" x="22px" y="30px" /><rect fill="rgb(67,67,62)" height="3px" width="3px" x="24px" y="30px" /><rect fill="rgb(65,65,61)" height="3px" width="3px" x="26px" y="30px" /><rect fill="rgb(64,64,60)" height="3px" width="3px" x="28px" y="30px" /><rect fill="rgb(64,64,60)" height="3px" width="3px" x="30px" y="30px" /><rect fill="rgb(66,66,61)" height="3px" width="3px" x="32px" y="30px" /><rect fill="rgb(66,66,61)" height="3px" width="3px" x="34px" y="30px" /><rect fill="rgb(61,61,57)" height="3px" width="3px" x="36px" y="30px" /><rect fill="rgb(64,64,60)" height="3px" width="3px" x="38px" y="30px" /><rect fill="rgb(65,65,61)" height="3px" width="3px" x="40px" y="30px" /><rect fill="rgb(67,67,62)" height="3px" width="3px" x="42px" y="30px" /><rect fill="rgb(65,65,60)" height="3px" width="3px" x="44px" y="30px" /><rect fill="rgb(64,64,60)" height="3px" width="3px" x="46px" y="30px" /><rect fill="rgb(67,67,63)" height="3px" width="3px" x="48px" y="30px" /><rect fill="rgb(67,67,63)" height="3px" width="3px" x="50px" y="30px" /><rect fill="rgb(59,59,55)" height="3px" width="3px" x="52px" y="30px" /><rect fill="rgb(63,63,59)" height="3px" width="3px" x="54px" y="30px" /><rect fill="rgb(65,65,61)" height="3px" width="3px" x="56px" y="30px" /><rect fill="rgb(65,65,61)" height="3px" width="3px" x="58px" y="30px" /><rect fill="rgb(63,63,59)" height="3px" width="3px" x="60px" y="30px" /><rect fill="rgb(59,59,55)" height="3px" width="3px" x="62px" y="30px" /><rect fill="rgb(43,43,40)" height="3px" width="3px" x="0px" y="32px" /><rect fill="rgb(47,47,44)" height="3px" width="3px" x="2px" y="32px" /><rect fill="rgb(43,43,40)" height="3px" width="3px" x="4px" y="32px" /><rect fill="rgb(47,47,43)" height="3px" width="3px" x="6px" y="32px" /><rect fill="rgb(47,47,44)" height="3px" width="3px" x="8px" y="32px" /><rect fill="rgb(43,43,40)" height="3px" width="3px" x="10px" y="32px" /><rect fill="rgb(45,45,42)" height="3px" width="3px" x="12px" y="32px" /><rect fill="rgb(50,50,46)" height="3px" width="3px" x="14px" y="32px" /><rect fill="rgb(44,44,41)" height="3px" width="3px" x="16px" y="32px" /><rect fill="rgb(47,47,43)" height="3px" width="3px" x="18px" y="32px" /><rect fill="rgb(43,43,40)" height="3px" width="3px" x="20px" y="32px" /><rect fill="rgb(44,44,41)" height="3px" width="3px" x="22px" y="32px" /><rect fill="rgb(67,67,62)" height="3px" width="3px" x="24px" y="32px" /><rect fill="rgb(65,65,61)" height="3px" width="3px" x="26px" y="32px" /><rect fill="rgb(66,66,62)" height="3px" width="3px" x="28px" y="32px" /><rect fill="rgb(68,68,63)" height="3px" width="3px" x="30px" y="32px" /><rect fill="rgb(64,64,60)" height="3px" width="3px" x="32px" y="32px" /><rect fill="rgb(66,66,61)" height="3px" width="3px" x="34px" y="32px" /><rect fill="rgb(43,43,40)" height="3px" width="3px" x="36px" y="32px" /><rect fill="rgb(43,43,40)" height="3px" width="3px" x="38px" y="32px" /><rect fill="rgb(43,43,40)" height="3px" width="3px" x="40px" y="32px" /><rect fill="rgb(43,43,40)" height="3px" width="3px" x="42px" y="32px" /><rect fill="rgb(43,43,40)" height="3px" width="3px" x="44px" y="32px" /><rect fill="rgb(43,43,40)" height="3px" width="3px" x="46px" y="32px" /><rect fill="rgb(43,43,40)" height="3px" width="3px" x="48px" y="32px" /><rect fill="rgb(43,43,40)" height="3px" width="3px" x="50px" y="32px" /><rect fill="rgb(43,43,40)" height="3px" width="3px" x="52px" y="32px" /><rect fill="rgb(43,43,40)" height="3px" width="3px" x="54px" y="32px" /><rect fill="rgb(43,43,40)" height="3px" width="3px" x="56px" y="32px" /><rect fill="rgb(43,43,40)" height="3px" width="3px" x="58px" y="32px" /><rect fill="rgb(43,43,40)" height="3px" width="3px" x="60px" y="32px" /><rect fill="rgb(43,43,40)" height="3px" width="3px" x="62px" y="32px" /><rect fill="rgb(91,91,83)" height="3px" opacity="0.0313725490196" width="3px" x="0px" y="34px" /><rect fill="rgb(91,91,83)" height="3px" opacity="0.0313725490196" width="3px" x="2px" y="34px" /><rect fill="rgb(91,91,83)" height="3px" opacity="0.0588235294118" width="3px" x="6px" y="34px" /><rect fill="rgb(91,91,83)" height="3px" opacity="0.0313725490196" width="3px" x="12px" y="34px" /><rect fill="rgb(91,91,83)" height="3px" opacity="0.0313725490196" width="3px" x="14px" y="34px" /><rect fill="rgb(45,45,42)" height="3px" width="3px" x="22px" y="34px" /><rect fill="rgb(66,66,62)" height="3px" width="3px" x="24px" y="34px" /><rect fill="rgb(67,67,63)" height="3px" width="3px" x="26px" y="34px" /><rect fill="rgb(67,67,63)" height="3px" width="3px" x="28px" y="34px" /><rect fill="rgb(64,64,60)" height="3px" width="3px" x="30px" y="34px" /><rect fill="rgb(66,66,61)" height="3px" width="3px" x="32px" y="34px" /><rect fill="rgb(64,64,60)" height="3px" width="3px" x="34px" y="34px" /><rect fill="rgb(43,43,40)" height="3px" width="3px" x="36px" y="34px" /><rect fill="rgb(91,91,83)" height="3px" opacity="0.105882352941" width="3px" x="0px" y="36px" /><rect fill="rgb(45,45,42)" height="3px" width="3px" x="22px" y="36px" /><rect fill="rgb(67,67,63)" height="3px" width="3px" x="24px" y="36px" /><rect fill="rgb(67,67,63)" height="3px" width="3px" x="26px" y="36px" /><rect fill="rgb(57,57,53)" height="3px" width="3px" x="28px" y="36px" /><rect fill="rgb(64,64,60)" height="3px" width="3px" x="30px" y="36px" /><rect fill="rgb(66,66,62)" height="3px" width="3px" x="32px" y="36px" /><rect fill="rgb(62,62,58)" height="3px" width="3px" x="34px" y="36px" /><rect fill="rgb(43,43,40)" height="3px" width="3px" x="36px" y="36px" /><rect fill="rgb(91,91,83)" height="3px" opacity="0.0313725490196" width="3px" x="0px" y="38px" /><rect fill="rgb(43,43,40)" height="3px" width="3px" x="22px" y="38px" /><rect fill="rgb(67,67,62)" height="3px" width="3px" x="24px" y="38px" /><rect fill="rgb(66,66,61)" height="3px" width="3px" x="26px" y="38px" /><rect fill="rgb(65,65,61)" height="3px" width="3px" x="28px" y="38px" /><rect fill="rgb(67,67,62)" height="3px" width="3px" x="30px" y="38px" /><rect fill="rgb(61,61,56)" height="3px" width="3px" x="32px" y="38px" /><rect fill="rgb(62,62,58)" height="3px" width="3px" x="34px" y="38px" /><rect fill="rgb(43,43,40)" height="3px" width="3px" x="36px" y="38px" /><rect fill="rgb(43,43,40)" height="3px" width="3px" x="22px" y="40px" /><rect fill="rgb(67,67,63)" height="3px" width="3px" x="24px" y="40px" /><rect fill="rgb(66,66,62)" height="3px" width="3px" x="26px" y="40px" /><rect fill="rgb(65,65,61)" height="3px" width="3px" x="28px" y="40px" /><rect fill="rgb(69,69,64)" height="3px" width="3px" x="30px" y="40px" /><rect fill="rgb(62,62,58)" height="3px" width="3px" x="32px" y="40px" /><rect fill="rgb(64,64,60)" height="3px" width="3px" x="34px" y="40px" /><rect fill="rgb(43,43,40)" height="3px" width="3px" x="36px" y="40px" /><rect fill="rgb(43,43,40)" height="3px" width="3px" x="22px" y="42px" /><rect fill="rgb(66,66,61)" height="3px" width="3px" x="24px" y="42px" /><rect fill="rgb(57,57,53)" height="3px" width="3px" x="26px" y="42px" /><rect fill="rgb(66,66,62)" height="3px" width="3px" x="28px" y="42px" /><rect fill="rgb(68,68,64)" height="3px" width="3px" x="30px" y="42px" /><rect fill="rgb(65,65,61)" height="3px" width="3px" x="32px" y="42px" /><rect fill="rgb(64,64,60)" height="3px" width="3px" x="34px" y="42px" /><rect fill="rgb(43,43,40)" height="3px" width="3px" x="36px" y="42px" /><rect fill="rgb(46,46,42)" height="3px" width="3px" x="22px" y="44px" /><rect fill="rgb(69,69,64)" height="3px" width="3px" x="24px" y="44px" /><rect fill="rgb(63,63,59)" height="3px" width="3px" x="26px" y="44px" /><rect fill="rgb(64,64,60)" height="3px" width="3px" x="28px" y="44px" /><rect fill="rgb(65,65,60)" height="3px" width="3px" x="30px" y="44px" /><rect fill="rgb(65,65,60)" height="3px" width="3px" x="32px" y="44px" /><rect fill="rgb(64,64,60)" height="3px" width="3px" x="34px" y="44px" /><rect fill="rgb(43,43,40)" height="3px" width="3px" x="36px" y="44px" /><rect fill="rgb(48,48,45)" height="3px" width="3px" x="22px" y="46px" /><rect fill="rgb(66,66,61)" height="3px" width="3px" x="24px" y="46px" /><rect fill="rgb(63,63,59)" height="3px" width="3px" x="26px" y="46px" /><rect fill="rgb(63,63,59)" height="3px" width="3px" x="28px" y="46px" /><rect fill="rgb(65,65,60)" height="3px" width="3px" x="30px" y="46px" /><rect fill="rgb(65,65,60)" height="3px" width="3px" x="32px" y="46px" /><rect fill="rgb(66,66,61)" height="3px" width="3px" x="34px" y="46px" /><rect fill="rgb(44,44,41)" height="3px" width="3px" x="36px" y="46px" /><rect fill="rgb(44,44,41)" height="3px" width="3px" x="22px" y="48px" /><rect fill="rgb(66,66,61)" height="3px" width="3px" x="24px" y="48px" /><rect fill="rgb(64,64,60)" height="3px" width="3px" x="26px" y="48px" /><rect fill="rgb(66,66,61)" height="3px" width="3px" x="28px" y="48px" /><rect fill="rgb(62,62,57)" height="3px" width="3px" x="30px" y="48px" /><rect fill="rgb(65,65,61)" height="3px" width="3px" x="32px" y="48px" /><rect fill="rgb(64,64,60)" height="3px" width="3px" x="34px" y="48px" /><rect fill="rgb(43,43,40)" height="3px" width="3px" x="36px" y="48px" /><rect fill="rgb(44,44,41)" height="3px" width="3px" x="22px" y="50px" /><rect fill="rgb(67,67,62)" height="3px" width="3px" x="24px" y="50px" /><rect fill="rgb(65,65,61)" height="3px" width="3px" x="26px" y="50px" /><rect fill="rgb(58,58,54)" height="3px" width="3px" x="28px" y="50px" /><rect fill="rgb(56,56,51)" height="3px" width="3px" x="30px" y="50px" /><rect fill="rgb(64,64,60)" height="3px" width="3px" x="32px" y="50px" /><rect fill="rgb(64,64,60)" height="3px" width="3px" x="34px" y="50px" /><rect fill="rgb(43,43,40)" height="3px" width="3px" x="36px" y="50px" /><rect fill="rgb(43,43,40)" height="3px" width="3px" x="22px" y="52px" /><rect fill="rgb(65,65,61)" height="3px" width="3px" x="24px" y="52px" /><rect fill="rgb(64,64,60)" height="3px" width="3px" x="26px" y="52px" /><rect fill="rgb(59,59,55)" height="3px" width="3px" x="28px" y="52px" /><rect fill="rgb(59,59,55)" height="3px" width="3px" x="30px" y="52px" /><rect fill="rgb(65,65,61)" height="3px" width="3px" x="32px" y="52px" /><rect fill="rgb(64,64,60)" height="3px" width="3px" x="34px" y="52px" /><rect fill="rgb(43,43,40)" height="3px" width="3px" x="36px" y="52px" /><rect fill="rgb(43,43,40)" height="3px" width="3px" x="22px" y="54px" /><rect fill="rgb(62,62,58)" height="3px" width="3px" x="24px" y="54px" /><rect fill="rgb(63,63,59)" height="3px" width="3px" x="26px" y="54px" /><rect fill="rgb(66,66,62)" height="3px" width="3px" x="28px" y="54px" /><rect fill="rgb(60,60,56)" height="3px" width="3px" x="30px" y="54px" /><rect fill="rgb(66,66,62)" height="3px" width="3px" x="32px" y="54px" /><rect fill="rgb(64,64,60)" height="3px" width="3px" x="34px" y="54px" /><rect fill="rgb(43,43,40)" height="3px" width="3px" x="36px" y="54px" /><rect fill="rgb(43,43,40)" height="3px" width="3px" x="22px" y="56px" /><rect fill="rgb(62,62,58)" height="3px" width="3px" x="24px" y="56px" /><rect fill="rgb(64,64,60)" height="3px" width="3px" x="26px" y="56px" /><rect fill="rgb(69,69,65)" height="3px" width="3px" x="28px" y="56px" /><rect fill="rgb(66,66,62)" height="3px" width="3px" x="30px" y="56px" /><rect fill="rgb(62,62,58)" height="3px" width="3px" x="32px" y="56px" /><rect fill="rgb(64,64,60)" height="3px" width="3px" x="34px" y="56px" /><rect fill="rgb(43,43,40)" height="3px" width="3px" x="36px" y="56px" /><rect fill="rgb(43,43,40)" height="3px" width="3px" x="22px" y="58px" /><rect fill="rgb(64,64,60)" height="3px" width="3px" x="24px" y="58px" /><rect fill="rgb(67,67,62)" height="3px" width="3px" x="26px" y="58px" /><rect fill="rgb(67,67,63)" height="3px" width="3px" x="28px" y="58px" /><rect fill="rgb(68,68,64)" height="3px" width="3px" x="30px" y="58px" /><rect fill="rgb(61,61,56)" height="3px" width="3px" x="32px" y="58px" /><rect fill="rgb(64,64,60)" height="3px" width="3px" x="34px" y="58px" /><rect fill="rgb(43,43,40)" height="3px" width="3px" x="36px" y="58px" /><rect fill="rgb(43,43,40)" height="3px" width="3px" x="22px" y="60px" /><rect fill="rgb(64,64,60)" height="3px" width="3px" x="24px" y="60px" /><rect fill="rgb(57,57,54)" height="3px" width="3px" x="26px" y="60px" /><rect fill="rgb(64,64,60)" height="3px" width="3px" x="28px" y="60px" /><rect fill="rgb(65,65,61)" height="3px" width="3px" x="30px" y="60px" /><rect fill="rgb(64,64,60)" height="3px" width="3px" x="32px" y="60px" /><rect fill="rgb(64,64,60)" height="3px" width="3px" x="34px" y="60px" /><rect fill="rgb(43,43,40)" height="3px" width="3px" x="36px" y="60px" /><rect fill="rgb(43,43,40)" height="3px" width="3px" x="22px" y="62px" /><rect fill="rgb(64,64,60)" height="3px" width="3px" x="24px" y="62px" /><rect fill="rgb(65,65,61)" height="3px" width="3px" x="26px" y="62px" /><rect fill="rgb(65,65,61)" height="3px" width="3px" x="28px" y="62px" /><rect fill="rgb(65,65,61)" height="3px" width="3px" x="30px" y="62px" /><rect fill="rgb(64,64,60)" height="3px" width="3px" x="32px" y="62px" /><rect fill="rgb(54,54,50)" height="3px" width="3px" x="34px" y="62px" /><rect fill="rgb(43,43,40)" height="3px" width="3px" x="36px" y="62px" /></svg>