<?xml version="1.0" encoding="utf-8" ?>
<svg baseProfile="full" height="64px" version="1.1" width="64px" xmlns="http://www.w3.org/2000/svg" xmlns:ev="http://www.w3.org/2001/xml-events" xmlns:xlink="http://www.w3.org/1999/xlink"><defs /><rect fill="rgb(168,127,29)" height="3px" width="3px" x="28px" y="0px" /><rect fill="rgb(168,127,29)" height="3px" width="3px" x="28px" y="2px" /><rect fill="rgb(168,127,29)" height="3px" width="3px" x="22px" y="4px" /><rect fill="rgb(168,127,29)" height="3px" width="3px" x="24px" y="4px" /><rect fill="rgb(168,127,29)" height="3px" width="3px" x="26px" y="4px" /><rect fill="rgb(168,127,29)" height="3px" width="3px" x="28px" y="4px" /><rect fill="rgb(168,127,29)" height="3px" width="3px" x="30px" y="4px" /><rect fill="rgb(168,127,29)" height="3px" width="3px" x="32px" y="4px" /><rect fill="rgb(168,127,29)" height="3px" width="3px" x="34px" y="4px" /><rect fill="rgb(168,127,29)" height="3px" width="3px" x="36px" y="4px" /><rect fill="rgb(168,127,29)" height="3px" width="3px" x="20px" y="6px" /><rect fill="rgb(159,131,64)" height="3px" width="3px" x="22px" y="6px" /><rect fill="rgb(181,149,72)" height="3px" width="3px" x="24px" y="6px" /><rect fill="rgb(168,127,29)" height="3px" width="3px" x="26px" y="6px" /><rect fill="rgb(168,127,29)" height="3px" width="3px" x="28px" y="6px" /><rect fill="rgb(159,131,64)" height="3px" width="3px" x="30px" y="6px" /><rect fill="rgb(168,127,29)" height="3px" width="3px" x="32px" y="6px" /><rect fill="rgb(181,149,72)" height="3px" width="3px" x="34px" y="6px" /><rect fill="rgb(205,169,82)" height="3px" width="3px" x="36px" y="6px" /><rect fill="rgb(168,127,29)" height="3px" width="3px" x="38px" y="6px" /><rect fill="rgb(168,127,29)" height="3px" width="3px" x="40px" y="6px" /><rect fill="rgb(168,127,29)" height="3px" width="3px" x="18px" y="8px" /><rect fill="rgb(159,131,64)" height="3px" width="3px" x="20px" y="8px" /><rect fill="rgb(181,149,72)" height="3px" width="3px" x="22px" y="8px" /><rect fill="rgb(168,127,29)" height="3px" width="3px" x="24px" y="8px" /><rect fill="rgb(159,131,64)" height="3px" width="3px" x="26px" y="8px" /><rect fill="rgb(168,127,29)" height="3px" width="3px" x="28px" y="8px" /><rect fill="rgb(159,131,64)" height="3px" width="3px" x="30px" y="8px" /><rect fill="rgb(159,131,64)" height="3px" width="3px" x="32px" y="8px" /><rect fill="rgb(168,127,29)" height="3px" width="3px" x="34px" y="8px" /><rect fill="rgb(159,131,64)" height="3px" width="3px" x="36px" y="8px" /><rect fill="rgb(205,169,82)" height="3px" width="3px" x="38px" y="8px" /><rect fill="rgb(168,127,29)" height="3px" width="3px" x="40px" y="8px" /><rect fill="rgb(168,127,29)" height="3px" width="3px" x="18px" y="10px" /><rect fill="rgb(159,131,64)" height="3px" width="3px" x="20px" y="10px" /><rect fill="rgb(205,169,82)" height="3px" width="3px" x="22px" y="10px" /><rect fill="rgb(168,127,29)" height="3px" width="3px" x="24px" y="10px" /><rect fill="rgb(159,131,64)" height="3px" width="3px" x="26px" y="10px" /><rect fill="rgb(181,149,72)" height="3px" width="3px" x="28px" y="10px" /><rect fill="rgb(168,127,29)" height="3px" width="3px" x="30px" y="10px" /><rect fill="rgb(181,149,72)" height="3px" width="3px" x="32px" y="10px" /><rect fill="rgb(168,127,29)" height="3px" width="3px" x="34px" y="10px" /><rect fill="rgb(159,131,64)" height="3px" width="3px" x="36px" y="10px" /><rect fill="rgb(181,149,72)" height="3px" width="3px" x="38px" y="10px" /><rect fill="rgb(205,169,82)" height="3px" width="3px" x="40px" y="10px" /><rect fill="rgb(168,127,29)" height="3px" width="3px" x="42px" y="10px" /><rect fill="rgb(168,127,29)" height="3px" width="3px" x="16px" y="12px" /><rect fill="rgb(168,127,29)" height="3px" width="3px" x="18px" y="12px" /><rect fill="rgb(181,149,72)" height="3px" width="3px" x="20px" y="12px" /><rect fill="rgb(205,169,82)" height="3px" width="3px" x="22px" y="12px" /><rect fill="rgb(168,127,29)" height="3px" width="3px" x="24px" y="12px" /><rect fill="rgb(181,149,72)" height="3px" width="3px" x="26px" y="12px" /><rect fill="rgb(181,149,72)" height="3px" width="3px" x="28px" y="12px" /><rect fill="rgb(168,127,29)" height="3px" width="3px" x="30px" y="12px" /><rect fill="rgb(181,149,72)" height="3px" width="3px" x="32px" y="12px" /><rect fill="rgb(168,127,29)" height="3px" width="3px" x="34px" y="12px" /><rect fill="rgb(159,131,64)" height="3px" width="3px" x="36px" y="12px" /><rect fill="rgb(181,149,72)" height="3px" width="3px" x="38px" y="12px" /><rect fill="rgb(205,169,82)" height="3px" width="3px" x="40px" y="12px" /><rect fill="rgb(168,127,29)" height="3px" width="3px" x="42px" y="12px" /><rect fill="rgb(168,127,29)" height="3px" width="3px" x="16px" y="14px" /><rect fill="rgb(159,131,64)" height="3px" width="3px" x="18px" y="14px" /><rect fill="rgb(181,149,72)" height="3px" width="3px" x="20px" y="14px" /><rect fill="rgb(168,127,29)" height="3px" width="3px" x="22px" y="14px" /><rect fill="rgb(159,131,64)" height="3px" width="3px" x="24px" y="14px" /><rect fill="rgb(181,149,72)" height="3px" width="3px" x="26px" y="14px" /><rect fill="rgb(203,165,77)" height="3px" width="3px" x="28px" y="14px" /><rect fill="rgb(168,127,29)" height="3px" width="3px" x="30px" y="14px" /><rect fill="rgb(205,169,82)" height="3px" width="3px" x="32px" y="14px" /><rect fill="rgb(205,169,82)" height="3px" width="3px" x="34px" y="14px" /><rect fill="rgb(168,127,29)" height="3px" width="3px" x="36px" y="14px" /><rect fill="rgb(159,131,64)" height="3px" width="3px" x="38px" y="14px" /><rect fill="rgb(205,169,82)" height="3px" width="3px" x="40px" y="14px" /><rect fill="rgb(205,169,82)" height="3px" width="3px" x="42px" y="14px" /><rect fill="rgb(168,127,29)" height="3px" width="3px" x="44px" y="14px" /><rect fill="rgb(168,127,29)" height="3px" width="3px" x="16px" y="16px" /><rect fill="rgb(181,149,72)" height="3px" width="3px" x="18px" y="16px" /><rect fill="rgb(205,169,82)" height="3px" width="3px" x="20px" y="16px" /><rect fill="rgb(168,127,29)" height="3px" width="3px" x="22px" y="16px" /><rect fill="rgb(181,149,72)" height="3px" width="3px" x="24px" y="16px" /><rect fill="rgb(203,165,77)" height="3px" width="3px" x="26px" y="16px" /><rect fill="rgb(203,165,77)" height="3px" width="3px" x="28px" y="16px" /><rect fill="rgb(168,127,29)" height="3px" width="3px" x="30px" y="16px" /><rect fill="rgb(181,149,72)" height="3px" width="3px" x="32px" y="16px" /><rect fill="rgb(205,169,82)" height="3px" width="3px" x="34px" y="16px" /><rect fill="rgb(168,127,29)" height="3px" width="3px" x="36px" y="16px" /><rect fill="rgb(159,131,64)" height="3px" width="3px" x="38px" y="16px" /><rect fill="rgb(181,149,72)" height="3px" width="3px" x="40px" y="16px" /><rect fill="rgb(205,169,82)" height="3px" width="3px" x="42px" y="16px" /><rect fill="rgb(168,127,29)" height="3px" width="3px" x="44px" y="16px" /><rect fill="rgb(168,127,29)" height="3px" width="3px" x="14px" y="18px" /><rect fill="rgb(159,131,64)" height="3px" width="3px" x="16px" y="18px" /><rect fill="rgb(181,149,72)" height="3px" width="3px" x="18px" y="18px" /><rect fill="rgb(168,127,29)" height="3px" width="3px" x="20px" y="18px" /><rect fill="rgb(159,131,64)" height="3px" width="3px" x="22px" y="18px" /><rect fill="rgb(203,165,77)" height="3px" width="3px" x="24px" y="18px" /><rect fill="rgb(203,165,77)" height="3px" width="3px" x="26px" y="18px" /><rect fill="rgb(205,169,82)" height="3px" width="3px" x="28px" y="18px" /><rect fill="rgb(168,127,29)" height="3px" width="3px" x="30px" y="18px" /><rect fill="rgb(181,149,72)" height="3px" width="3px" x="32px" y="18px" /><rect fill="rgb(181,149,72)" height="3px" width="3px" x="34px" y="18px" /><rect fill="rgb(205,169,82)" height="3px" width="3px" x="36px" y="18px" /><rect fill="rgb(168,127,29)" height="3px" width="3px" x="38px" y="18px" /><rect fill="rgb(159,131,64)" height="3px" width="3px" x="40px" y="18px" /><rect fill="rgb(181,149,72)" height="3px" width="3px" x="42px" y="18px" /><rect fill="rgb(168,127,29)" height="3px" width="3px" x="44px" y="18px" /><rect fill="rgb(168,127,29)" height="3px" width="3px" x="14px" y="20px" /><rect fill="rgb(159,131,64)" height="3px" width="3px" x="16px" y="20px" /><rect fill="rgb(205,169,82)" height="3px" width="3px" x="18px" y="20px" /><rect fill="rgb(168,127,29)" height="3px" width="3px" x="20px" y="20px" /><rect fill="rgb(181,149,72)" height="3px" width="3px" x="22px" y="20px" /><rect fill="rgb(203,165,77)" height="3px" width="3px" x="24px" y="20px" /><rect fill="rgb(205,169,82)" height="3px" width="3px" x="26px" y="20px" /><rect fill="rgb(205,169,82)" height="3px" width="3px" x="28px" y="20px" /><rect fill="rgb(168,127,29)" height="3px" width="3px" x="30px" y="20px" /><rect fill="rgb(159,131,64)" height="3px" width="3px" x="32px" y="20px" /><rect fill="rgb(181,149,72)" height="3px" width="3px" x="34px" y="20px" /><rect fill="rgb(205,169,82)" height="3px" width="3px" x="36px" y="20px" /><rect fill="rgb(168,127,29)" height="3px" width="3px" x="38px" y="20px" /><rect fill="rgb(159,131,64)" height="3px" width="3px" x="40px" y="20px" /><rect fill="rgb(181,149,72)" height="3px" width="3px" x="42px" y="20px" /><rect fill="rgb(205,169,82)" height="3px" width="3px" x="44px" y="20px" /><rect fill="rgb(168,127,29)" height="3px" width="3px" x="46px" y="20px" /><rect fill="rgb(168,127,29)" height="3px" width="3px" x="14px" y="22px" /><rect fill="rgb(181,149,72)" height="3px" width="3px" x="16px" y="22px" /><rect fill="rgb(205,169,82)" height="3px" width="3px" x="18px" y="22px" /><rect fill="rgb(168,127,29)" height="3px" width="3px" x="20px" y="22px" /><rect fill="rgb(203,165,77)" height="3px" width="3px" x="22px" y="22px" /><rect fill="rgb(203,165,77)" height="3px" width="3px" x="24px" y="22px" /><rect fill="rgb(205,169,82)" height="3px" width="3px" x="26px" y="22px" /><rect fill="rgb(205,169,82)" height="3px" width="3px" x="28px" y="22px" /><rect fill="rgb(168,127,29)" height="3px" width="3px" x="30px" y="22px" /><rect fill="rgb(159,131,64)" height="3px" width="3px" x="32px" y="22px" /><rect fill="rgb(181,149,72)" height="3px" width="3px" x="34px" y="22px" /><rect fill="rgb(205,169,82)" height="3px" width="3px" x="36px" y="22px" /><rect fill="rgb(168,127,29)" height="3px" width="3px" x="38px" y="22px" /><rect fill="rgb(159,131,64)" height="3px" width="3px" x="40px" y="22px" /><rect fill="rgb(181,149,72)" height="3px" width="3px" x="42px" y="22px" /><rect fill="rgb(205,169,82)" height="3px" width="3px" x="44px" y="22px" /><rect fill="rgb(168,127,29)" height="3px" width="3px" x="46px" y="22px" /><rect fill="rgb(64,64,64)" height="3px" width="3px" x="14px" y="24px" /><rect fill="rgb(64,64,64)" height="3px" width="3px" x="16px" y="24px" /><rect fill="rgb(64,64,64)" height="3px" width="3px" x="18px" y="24px" /><rect fill="rgb(64,64,64)" height="3px" width="3px" x="20px" y="24px" /><rect fill="rgb(64,64,64)" height="3px" width="3px" x="22px" y="24px" /><rect fill="rgb(64,64,64)" height="3px" width="3px" x="24px" y="24px" /><rect fill="rgb(64,64,64)" height="3px" width="3px" x="26px" y="24px" /><rect fill="rgb(64,64,64)" height="3px" width="3px" x="28px" y="24px" /><rect fill="rgb(64,64,64)" height="3px" width="3px" x="30px" y="24px" /><rect fill="rgb(64,64,64)" height="3px" width="3px" x="32px" y="24px" /><rect fill="rgb(64,64,64)" height="3px" width="3px" x="34px" y="24px" /><rect fill="rgb(64,64,64)" height="3px" width="3px" x="36px" y="24px" /><rect fill="rgb(64,64,64)" height="3px" width="3px" x="38px" y="24px" /><rect fill="rgb(64,64,64)" height="3px" width="3px" x="40px" y="24px" /><rect fill="rgb(64,64,64)" height="3px" width="3px" x="42px" y="24px" /><rect fill="rgb(64,64,64)" height="3px" width="3px" x="44px" y="24px" /><rect fill="rgb(64,64,64)" height="3px" width="3px" x="46px" y="24px" /><rect fill="rgb(64,64,64)" height="3px" width="3px" x="14px" y="26px" /><rect fill="rgb(64,64,64)" height="3px" width="3px" x="16px" y="26px" /><rect fill="rgb(64,64,64)" height="3px" width="3px" x="18px" y="26px" /><rect fill="rgb(64,64,64)" height="3px" width="3px" x="20px" y="26px" /><rect fill="rgb(64,64,64)" height="3px" width="3px" x="22px" y="26px" /><rect fill="rgb(64,64,64)" height="3px" width="3px" x="24px" y="26px" /><rect fill="rgb(64,64,64)" height="3px" width="3px" x="26px" y="26px" /><rect fill="rgb(64,64,64)" height="3px" width="3px" x="28px" y="26px" /><rect fill="rgb(64,64,64)" height="3px" width="3px" x="30px" y="26px" /><rect fill="rgb(64,64,64)" height="3px" width="3px" x="32px" y="26px" /><rect fill="rgb(64,64,64)" height="3px" width="3px" x="34px" y="26px" /><rect fill="rgb(64,64,64)" height="3px" width="3px" x="36px" y="26px" /><rect fill="rgb(64,64,64)" height="3px" width="3px" x="38px" y="26px" /><rect fill="rgb(64,64,64)" height="3px" width="3px" x="40px" y="26px" /><rect fill="rgb(64,64,64)" height="3px" width="3px" x="42px" y="26px" /><rect fill="rgb(64,64,64)" height="3px" width="3px" x="44px" y="26px" /><rect fill="rgb(64,64,64)" height="3px" width="3px" x="46px" y="26px" /><rect fill="rgb(64,64,64)" height="3px" width="3px" x="14px" y="28px" /><rect fill="rgb(64,64,64)" height="3px" width="3px" x="16px" y="28px" /><rect fill="rgb(64,64,64)" height="3px" width="3px" x="18px" y="28px" /><rect fill="rgb(64,64,64)" height="3px" width="3px" x="20px" y="28px" /><rect fill="rgb(64,64,64)" height="3px" width="3px" x="22px" y="28px" /><rect fill="rgb(64,64,64)" height="3px" width="3px" x="24px" y="28px" /><rect fill="rgb(64,64,64)" height="3px" width="3px" x="26px" y="28px" /><rect fill="rgb(64,64,64)" height="3px" width="3px" x="28px" y="28px" /><rect fill="rgb(64,64,64)" height="3px" width="3px" x="30px" y="28px" /><rect fill="rgb(64,64,64)" height="3px" width="3px" x="32px" y="28px" /><rect fill="rgb(64,64,64)" height="3px" width="3px" x="34px" y="28px" /><rect fill="rgb(64,64,64)" height="3px" width="3px" x="36px" y="28px" /><rect fill="rgb(64,64,64)" height="3px" width="3px" x="38px" y="28px" /><rect fill="rgb(64,64,64)" height="3px" width="3px" x="40px" y="28px" /><rect fill="rgb(64,64,64)" height="3px" width="3px" x="42px" y="28px" /><rect fill="rgb(64,64,64)" height="3px" width="3px" x="44px" y="28px" /><rect fill="rgb(64,64,64)" height="3px" width="3px" x="46px" y="28px" /><rect fill="rgb(128,128,128)" height="3px" width="3px" x="8px" y="30px" /><rect fill="rgb(128,128,128)" height="3px" width="3px" x="10px" y="30px" /><rect fill="rgb(128,128,128)" height="3px" width="3px" x="12px" y="30px" /><rect fill="rgb(128,128,128)" height="3px" width="3px" x="14px" y="30px" /><rect fill="rgb(128,128,128)" height="3px" width="3px" x="16px" y="30px" /><rect fill="rgb(128,128,128)" height="3px" width="3px" x="18px" y="30px" /><rect fill="rgb(128,128,128)" height="3px" width="3px" x="20px" y="30px" /><rect fill="rgb(128,128,128)" height="3px" width="3px" x="22px" y="30px" /><rect fill="rgb(128,128,128)" height="3px" width="3px" x="24px" y="30px" /><rect fill="rgb(128,128,128)" height="3px" width="3px" x="26px" y="30px" /><rect fill="rgb(128,128,128)" height="3px" width="3px" x="28px" y="30px" /><rect fill="rgb(128,128,128)" height="3px" width="3px" x="30px" y="30px" /><rect fill="rgb(128,128,128)" height="3px" width="3px" x="32px" y="30px" /><rect fill="rgb(128,128,128)" height="3px" width="3px" x="34px" y="30px" /><rect fill="rgb(128,128,128)" height="3px" width="3px" x="36px" y="30px" /><rect fill="rgb(128,128,128)" height="3px" width="3px" x="38px" y="30px" /><rect fill="rgb(128,128,128)" height="3px" width="3px" x="40px" y="30px" /><rect fill="rgb(128,128,128)" height="3px" width="3px" x="42px" y="30px" /><rect fill="rgb(128,128,128)" height="3px" width="3px" x="44px" y="30px" /><rect fill="rgb(128,128,128)" height="3px" width="3px" x="46px" y="30px" /><rect fill="rgb(128,128,128)" height="3px" width="3px" x="48px" y="30px" /><rect fill="rgb(128,128,128)" height="3px" width="3px" x="50px" y="30px" /><rect fill="rgb(128,128,128)" height="3px" width="3px" x="52px" y="30px" /><rect fill="rgb(128,128,128)" height="3px" width="3px" x="6px" y="32px" /><rect fill="rgb(255,233,127)" height="3px" width="3px" x="8px" y="32px" /><rect fill="rgb(255,233,127)" height="3px" width="3px" x="10px" y="32px" /><rect fill="rgb(255,233,127)" height="3px" width="3px" x="12px" y="32px" /><rect fill="rgb(255,233,127)" height="3px" width="3px" x="14px" y="32px" /><rect fill="rgb(255,233,127)" height="3px" width="3px" x="16px" y="32px" /><rect fill="rgb(255,233,127)" height="3px" width="3px" x="18px" y="32px" /><rect fill="rgb(255,233,127)" height="3px" width="3px" x="20px" y="32px" /><rect fill="rgb(255,233,127)" height="3px" width="3px" x="22px" y="32px" /><rect fill="rgb(128,128,128)" height="3px" width="3px" x="24px" y="32px" /><rect fill="rgb(128,128,128)" height="3px" width="3px" x="26px" y="32px" /><rect fill="rgb(250,228,122)" height="3px" width="3px" x="28px" y="32px" /><rect fill="rgb(244,223,119)" height="3px" width="3px" x="30px" y="32px" /><rect fill="rgb(233,213,113)" height="3px" width="3px" x="32px" y="32px" /><rect fill="rgb(128,128,128)" height="3px" width="3px" x="34px" y="32px" /><rect fill="rgb(128,128,128)" height="3px" width="3px" x="36px" y="32px" /><rect fill="rgb(217,198,107)" height="3px" width="3px" x="38px" y="32px" /><rect fill="rgb(217,198,107)" height="3px" width="3px" x="40px" y="32px" /><rect fill="rgb(225,205,111)" height="3px" width="3px" x="42px" y="32px" /><rect fill="rgb(225,205,111)" height="3px" width="3px" x="44px" y="32px" /><rect fill="rgb(233,213,113)" height="3px" width="3px" x="46px" y="32px" /><rect fill="rgb(233,213,113)" height="3px" width="3px" x="48px" y="32px" /><rect fill="rgb(244,223,119)" height="3px" width="3px" x="50px" y="32px" /><rect fill="rgb(250,228,122)" height="3px" width="3px" x="52px" y="32px" /><rect fill="rgb(128,128,128)" height="3px" width="3px" x="54px" y="32px" /><rect fill="rgb(128,128,128)" height="3px" width="3px" x="6px" y="34px" /><rect fill="rgb(255,233,127)" height="3px" width="3px" x="8px" y="34px" /><rect fill="rgb(255,233,127)" height="3px" width="3px" x="10px" y="34px" /><rect fill="rgb(255,233,127)" height="3px" width="3px" x="12px" y="34px" /><rect fill="rgb(255,233,127)" height="3px" width="3px" x="14px" y="34px" /><rect fill="rgb(255,233,127)" height="3px" width="3px" x="16px" y="34px" /><rect fill="rgb(255,233,127)" height="3px" width="3px" x="18px" y="34px" /><rect fill="rgb(255,233,127)" height="3px" width="3px" x="20px" y="34px" /><rect fill="rgb(255,233,127)" height="3px" width="3px" x="22px" y="34px" /><rect fill="rgb(128,128,128)" height="3px" width="3px" x="24px" y="34px" /><rect fill="rgb(255,233,127)" height="3px" width="3px" x="26px" y="34px" /><rect fill="rgb(250,228,122)" height="3px" width="3px" x="28px" y="34px" /><rect fill="rgb(244,223,119)" height="3px" width="3px" x="30px" y="34px" /><rect fill="rgb(233,213,113)" height="3px" width="3px" x="32px" y="34px" /><rect fill="rgb(225,205,111)" height="3px" width="3px" x="34px" y="34px" /><rect fill="rgb(128,128,128)" height="3px" width="3px" x="36px" y="34px" /><rect fill="rgb(209,192,105)" height="3px" width="3px" x="38px" y="34px" /><rect fill="rgb(217,198,107)" height="3px" width="3px" x="40px" y="34px" /><rect fill="rgb(217,198,107)" height="3px" width="3px" x="42px" y="34px" /><rect fill="rgb(225,205,111)" height="3px" width="3px" x="44px" y="34px" /><rect fill="rgb(225,205,111)" height="3px" width="3px" x="46px" y="34px" /><rect fill="rgb(233,213,113)" height="3px" width="3px" x="48px" y="34px" /><rect fill="rgb(233,213,113)" height="3px" width="3px" x="50px" y="34px" /><rect fill="rgb(244,223,119)" height="3px" width="3px" x="52px" y="34px" /><rect fill="rgb(128,128,128)" height="3px" width="3px" x="54px" y="34px" /><rect fill="rgb(128,128,128)" height="3px" width="3px" x="4px" y="36px" /><rect fill="rgb(255,233,127)" height="3px" width="3px" x="6px" y="36px" /><rect fill="rgb(255,233,127)" height="3px" width="3px" x="8px" y="36px" /><rect fill="rgb(255,233,127)" height="3px" width="3px" x="10px" y="36px" /><rect fill="rgb(255,233,127)" height="3px" width="3px" x="12px" y="36px" /><rect fill="rgb(255,233,127)" height="3px" width="3px" x="14px" y="36px" /><rect fill="rgb(255,233,127)" height="3px" width="3px" x="16px" y="36px" /><rect fill="rgb(255,233,127)" height="3px" width="3px" x="18px" y="36px" /><rect fill="rgb(255,233,127)" height="3px" width="3px" x="20px" y="36px" /><rect fill="rgb(128,128,128)" height="3px" width="3px" x="22px" y="36px" /><rect fill="rgb(255,233,127)" height="3px" width="3px" x="24px" y="36px" /><rect fill="rgb(250,228,122)" height="3px" width="3px" x="26px" y="36px" /><rect fill="rgb(244,223,119)" height="3px" width="3px" x="28px" y="36px" /><rect fill="rgb(233,213,113)" height="3px" width="3px" x="30px" y="36px" /><rect fill="rgb(233,213,113)" height="3px" width="3px" x="32px" y="36px" /><rect fill="rgb(225,205,111)" height="3px" width="3px" x="34px" y="36px" /><rect fill="rgb(217,198,107)" height="3px" width="3px" x="36px" y="36px" /><rect fill="rgb(128,128,128)" height="3px" width="3px" x="38px" y="36px" /><rect fill="rgb(209,192,105)" height="3px" width="3px" x="40px" y="36px" /><rect fill="rgb(217,198,107)" height="3px" width="3px" x="42px" y="36px" /><rect fill="rgb(217,198,107)" height="3px" width="3px" x="44px" y="36px" /><rect fill="rgb(225,205,111)" height="3px" width="3px" x="46px" y="36px" /><rect fill="rgb(233,213,113)" height="3px" width="3px" x="48px" y="36px" /><rect fill="rgb(233,213,113)" height="3px" width="3px" x="50px" y="36px" /><rect fill="rgb(244,223,119)" height="3px" width="3px" x="52px" y="36px" /><rect fill="rgb(250,228,122)" height="3px" width="3px" x="54px" y="36px" /><rect fill="rgb(128,128,128)" height="3px" width="3px" x="56px" y="36px" /><rect fill="rgb(128,128,128)" height="3px" width="3px" x="4px" y="38px" /><rect fill="rgb(255,233,127)" height="3px" width="3px" x="6px" y="38px" /><rect fill="rgb(255,233,127)" height="3px" width="3px" x="8px" y="38px" /><rect fill="rgb(255,233,127)" height="3px" width="3px" x="10px" y="38px" /><rect fill="rgb(255,233,127)" height="3px" width="3px" x="12px" y="38px" /><rect fill="rgb(255,233,127)" height="3px" width="3px" x="14px" y="38px" /><rect fill="rgb(255,233,127)" height="3px" width="3px" x="16px" y="38px" /><rect fill="rgb(255,233,127)" height="3px" width="3px" x="18px" y="38px" /><rect fill="rgb(128,128,128)" height="3px" width="3px" x="20px" y="38px" /><rect fill="rgb(255,233,127)" height="3px" width="3px" x="22px" y="38px" /><rect fill="rgb(255,233,127)" height="3px" width="3px" x="24px" y="38px" /><rect fill="rgb(250,228,122)" height="3px" width="3px" x="26px" y="38px" /><rect fill="rgb(244,223,119)" height="3px" width="3px" x="28px" y="38px" /><rect fill="rgb(233,213,113)" height="3px" width="3px" x="30px" y="38px" /><rect fill="rgb(225,205,111)" height="3px" width="3px" x="32px" y="38px" /><rect fill="rgb(225,205,111)" height="3px" width="3px" x="34px" y="38px" /><rect fill="rgb(217,198,107)" height="3px" width="3px" x="36px" y="38px" /><rect fill="rgb(209,192,105)" height="3px" width="3px" x="38px" y="38px" /><rect fill="rgb(128,128,128)" height="3px" width="3px" x="40px" y="38px" /><rect fill="rgb(209,192,105)" height="3px" width="3px" x="42px" y="38px" /><rect fill="rgb(217,198,107)" height="3px" width="3px" x="44px" y="38px" /><rect fill="rgb(225,205,111)" height="3px" width="3px" x="46px" y="38px" /><rect fill="rgb(225,205,111)" height="3px" width="3px" x="48px" y="38px" /><rect fill="rgb(233,213,113)" height="3px" width="3px" x="50px" y="38px" /><rect fill="rgb(233,213,113)" height="3px" width="3px" x="52px" y="38px" /><rect fill="rgb(244,223,119)" height="3px" width="3px" x="54px" y="38px" /><rect fill="rgb(128,128,128)" height="3px" width="3px" x="56px" y="38px" /><rect fill="rgb(128,128,128)" height="3px" width="3px" x="2px" y="40px" /><rect fill="rgb(255,233,127)" height="3px" width="3px" x="4px" y="40px" /><rect fill="rgb(255,233,127)" height="3px" width="3px" x="6px" y="40px" /><rect fill="rgb(255,233,127)" height="3px" width="3px" x="8px" y="40px" /><rect fill="rgb(255,233,127)" height="3px" width="3px" x="10px" y="40px" /><rect fill="rgb(255,233,127)" height="3px" width="3px" x="12px" y="40px" /><rect fill="rgb(255,233,127)" height="3px" width="3px" x="14px" y="40px" /><rect fill="rgb(255,233,127)" height="3px" width="3px" x="16px" y="40px" /><rect fill="rgb(255,233,127)" height="3px" width="3px" x="18px" y="40px" /><rect fill="rgb(128,128,128)" height="3px" width="3px" x="20px" y="40px" /><rect fill="rgb(255,233,127)" height="3px" width="3px" x="22px" y="40px" /><rect fill="rgb(250,228,122)" height="3px" width="3px" x="24px" y="40px" /><rect fill="rgb(244,223,119)" height="3px" width="3px" x="26px" y="40px" /><rect fill="rgb(233,213,113)" height="3px" width="3px" x="28px" y="40px" /><rect fill="rgb(225,205,111)" height="3px" width="3px" x="30px" y="40px" /><rect fill="rgb(225,205,111)" height="3px" width="3px" x="32px" y="40px" /><rect fill="rgb(217,198,107)" height="3px" width="3px" x="34px" y="40px" /><rect fill="rgb(217,198,107)" height="3px" width="3px" x="36px" y="40px" /><rect fill="rgb(209,192,105)" height="3px" width="3px" x="38px" y="40px" /><rect fill="rgb(128,128,128)" height="3px" width="3px" x="40px" y="40px" /><rect fill="rgb(209,192,105)" height="3px" width="3px" x="42px" y="40px" /><rect fill="rgb(217,198,107)" height="3px" width="3px" x="44px" y="40px" /><rect fill="rgb(217,198,107)" height="3px" width="3px" x="46px" y="40px" /><rect fill="rgb(225,205,111)" height="3px" width="3px" x="48px" y="40px" /><rect fill="rgb(225,205,111)" height="3px" width="3px" x="50px" y="40px" /><rect fill="rgb(233,213,113)" height="3px" width="3px" x="52px" y="40px" /><rect fill="rgb(233,213,113)" height="3px" width="3px" x="54px" y="40px" /><rect fill="rgb(244,223,119)" height="3px" width="3px" x="56px" y="40px" /><rect fill="rgb(128,128,128)" height="3px" width="3px" x="58px" y="40px" /><rect fill="rgb(128,128,128)" height="3px" width="3px" x="2px" y="42px" /><rect fill="rgb(128,128,128)" height="3px" width="3px" x="4px" y="42px" /><rect fill="rgb(128,128,128)" height="3px" width="3px" x="6px" y="42px" /><rect fill="rgb(128,128,128)" height="3px" width="3px" x="8px" y="42px" /><rect fill="rgb(128,128,128)" height="3px" width="3px" x="10px" y="42px" /><rect fill="rgb(128,128,128)" height="3px" width="3px" x="12px" y="42px" /><rect fill="rgb(128,128,128)" height="3px" width="3px" x="14px" y="42px" /><rect fill="rgb(255,233,127)" height="3px" width="3px" x="16px" y="42px" /><rect fill="rgb(128,128,128)" height="3px" width="3px" x="18px" y="42px" /><rect fill="rgb(255,233,127)" height="3px" width="3px" x="20px" y="42px" /><rect fill="rgb(250,228,122)" height="3px" width="3px" x="22px" y="42px" /><rect fill="rgb(244,223,119)" height="3px" width="3px" x="24px" y="42px" /><rect fill="rgb(233,213,113)" height="3px" width="3px" x="26px" y="42px" /><rect fill="rgb(225,205,111)" height="3px" width="3px" x="28px" y="42px" /><rect fill="rgb(225,205,111)" height="3px" width="3px" x="30px" y="42px" /><rect fill="rgb(217,198,107)" height="3px" width="3px" x="32px" y="42px" /><rect fill="rgb(209,192,105)" height="3px" width="3px" x="34px" y="42px" /><rect fill="rgb(209,192,105)" height="3px" width="3px" x="36px" y="42px" /><rect fill="rgb(209,192,105)" height="3px" width="3px" x="38px" y="42px" /><rect fill="rgb(209,192,105)" height="3px" width="3px" x="40px" y="42px" /><rect fill="rgb(128,128,128)" height="3px" width="3px" x="42px" y="42px" /><rect fill="rgb(209,192,105)" height="3px" width="3px" x="44px" y="42px" /><rect fill="rgb(128,128,128)" height="3px" width="3px" x="46px" y="42px" /><rect fill="rgb(128,128,128)" height="3px" width="3px" x="48px" y="42px" /><rect fill="rgb(128,128,128)" height="3px" width="3px" x="50px" y="42px" /><rect fill="rgb(128,128,128)" height="3px" width="3px" x="52px" y="42px" /><rect fill="rgb(128,128,128)" height="3px" width="3px" x="54px" y="42px" /><rect fill="rgb(128,128,128)" height="3px" width="3px" x="56px" y="42px" /><rect fill="rgb(128,128,128)" height="3px" width="3px" x="58px" y="42px" /><rect fill="rgb(160,160,160)" height="3px" width="3px" x="2px" y="44px" /><rect fill="rgb(255,235,209)" height="3px" width="3px" x="4px" y="44px" /><rect fill="rgb(255,235,209)" height="3px" width="3px" x="6px" y="44px" /><rect fill="rgb(255,235,209)" height="3px" width="3px" x="8px" y="44px" /><rect fill="rgb(255,235,209)" height="3px" width="3px" x="10px" y="44px" /><rect fill="rgb(255,235,209)" height="3px" width="3px" x="12px" y="44px" /><rect fill="rgb(255,235,209)" height="3px" width="3px" x="14px" y="44px" /><rect fill="rgb(128,128,128)" height="3px" width="3px" x="16px" y="44px" /><rect fill="rgb(128,128,128)" height="3px" width="3px" x="18px" y="44px" /><rect fill="rgb(128,128,128)" height="3px" width="3px" x="20px" y="44px" /><rect fill="rgb(128,128,128)" height="3px" width="3px" x="22px" y="44px" /><rect fill="rgb(128,128,128)" height="3px" width="3px" x="24px" y="44px" /><rect fill="rgb(128,128,128)" height="3px" width="3px" x="26px" y="44px" /><rect fill="rgb(128,128,128)" height="3px" width="3px" x="28px" y="44px" /><rect fill="rgb(128,128,128)" height="3px" width="3px" x="30px" y="44px" /><rect fill="rgb(128,128,128)" height="3px" width="3px" x="32px" y="44px" /><rect fill="rgb(128,128,128)" height="3px" width="3px" x="34px" y="44px" /><rect fill="rgb(128,128,128)" height="3px" width="3px" x="36px" y="44px" /><rect fill="rgb(128,128,128)" height="3px" width="3px" x="38px" y="44px" /><rect fill="rgb(128,128,128)" height="3px" width="3px" x="40px" y="44px" /><rect fill="rgb(128,128,128)" height="3px" width="3px" x="42px" y="44px" /><rect fill="rgb(128,128,128)" height="3px" width="3px" x="44px" y="44px" /><rect fill="rgb(210,195,174)" height="3px" width="3px" x="46px" y="44px" /><rect fill="rgb(210,195,174)" height="3px" width="3px" x="48px" y="44px" /><rect fill="rgb(210,195,174)" height="3px" width="3px" x="50px" y="44px" /><rect fill="rgb(210,195,174)" height="3px" width="3px" x="52px" y="44px" /><rect fill="rgb(241,223,200)" height="3px" width="3px" x="54px" y="44px" /><rect fill="rgb(241,223,200)" height="3px" width="3px" x="56px" y="44px" /><rect fill="rgb(160,160,160)" height="3px" width="3px" x="58px" y="44px" /><rect fill="rgb(160,160,160)" height="3px" width="3px" x="2px" y="46px" /><rect fill="rgb(255,235,209)" height="3px" width="3px" x="4px" y="46px" /><rect fill="rgb(255,235,209)" height="3px" width="3px" x="6px" y="46px" /><rect fill="rgb(255,235,209)" height="3px" width="3px" x="8px" y="46px" /><rect fill="rgb(255,235,209)" height="3px" width="3px" x="10px" y="46px" /><rect fill="rgb(255,235,209)" height="3px" width="3px" x="12px" y="46px" /><rect fill="rgb(255,235,209)" height="3px" width="3px" x="14px" y="46px" /><rect fill="rgb(160,160,160)" height="3px" width="3px" x="16px" y="46px" /><rect fill="rgb(255,235,209)" height="3px" width="3px" x="18px" y="46px" /><rect fill="rgb(255,235,209)" height="3px" width="3px" x="20px" y="46px" /><rect fill="rgb(255,235,209)" height="3px" width="3px" x="22px" y="46px" /><rect fill="rgb(255,235,209)" height="3px" width="3px" x="24px" y="46px" /><rect fill="rgb(255,235,209)" height="3px" width="3px" x="26px" y="46px" /><rect fill="rgb(255,235,209)" height="3px" width="3px" x="28px" y="46px" /><rect fill="rgb(255,235,209)" height="3px" width="3px" x="30px" y="46px" /><rect fill="rgb(250,232,210)" height="3px" width="3px" x="32px" y="46px" /><rect fill="rgb(255,235,209)" height="3px" width="3px" x="34px" y="46px" /><rect fill="rgb(241,223,200)" height="3px" width="3px" x="36px" y="46px" /><rect fill="rgb(233,216,194)" height="3px" width="3px" x="38px" y="46px" /><rect fill="rgb(220,204,183)" height="3px" width="3px" x="40px" y="46px" /><rect fill="rgb(210,195,174)" height="3px" width="3px" x="42px" y="46px" /><rect fill="rgb(160,160,160)" height="3px" width="3px" x="44px" y="46px" /><rect fill="rgb(210,195,174)" height="3px" width="3px" x="46px" y="46px" /><rect fill="rgb(220,204,183)" height="3px" width="3px" x="48px" y="46px" /><rect fill="rgb(220,204,183)" height="3px" width="3px" x="50px" y="46px" /><rect fill="rgb(220,204,183)" height="3px" width="3px" x="52px" y="46px" /><rect fill="rgb(241,223,200)" height="3px" width="3px" x="54px" y="46px" /><rect fill="rgb(250,232,210)" height="3px" width="3px" x="56px" y="46px" /><rect fill="rgb(160,160,160)" height="3px" width="3px" x="58px" y="46px" /><rect fill="rgb(160,160,160)" height="3px" width="3px" x="2px" y="48px" /><rect fill="rgb(255,235,209)" height="3px" width="3px" x="4px" y="48px" /><rect fill="rgb(255,235,209)" height="3px" width="3px" x="6px" y="48px" /><rect fill="rgb(255,235,209)" height="3px" width="3px" x="8px" y="48px" /><rect fill="rgb(255,235,209)" height="3px" width="3px" x="10px" y="48px" /><rect fill="rgb(255,235,209)" height="3px" width="3px" x="12px" y="48px" /><rect fill="rgb(255,235,209)" height="3px" width="3px" x="14px" y="48px" /><rect fill="rgb(160,160,160)" height="3px" width="3px" x="16px" y="48px" /><rect fill="rgb(255,235,209)" height="3px" width="3px" x="18px" y="48px" /><rect fill="rgb(255,235,209)" height="3px" width="3px" x="20px" y="48px" /><rect fill="rgb(255,235,209)" height="3px" width="3px" x="22px" y="48px" /><rect fill="rgb(255,235,209)" height="3px" width="3px" x="24px" y="48px" /><rect fill="rgb(255,235,209)" height="3px" width="3px" x="26px" y="48px" /><rect fill="rgb(255,235,209)" height="3px" width="3px" x="28px" y="48px" /><rect fill="rgb(250,232,210)" height="3px" width="3px" x="30px" y="48px" /><rect fill="rgb(250,232,210)" height="3px" width="3px" x="32px" y="48px" /><rect fill="rgb(241,223,200)" height="3px" width="3px" x="34px" y="48px" /><rect fill="rgb(241,223,200)" height="3px" width="3px" x="36px" y="48px" /><rect fill="rgb(233,216,194)" height="3px" width="3px" x="38px" y="48px" /><rect fill="rgb(220,204,183)" height="3px" width="3px" x="40px" y="48px" /><rect fill="rgb(210,195,174)" height="3px" width="3px" x="42px" y="48px" /><rect fill="rgb(160,160,160)" height="3px" width="3px" x="44px" y="48px" /><rect fill="rgb(210,195,174)" height="3px" width="3px" x="46px" y="48px" /><rect fill="rgb(220,204,183)" height="3px" width="3px" x="48px" y="48px" /><rect fill="rgb(233,216,194)" height="3px" width="3px" x="50px" y="48px" /><rect fill="rgb(241,223,200)" height="3px" width="3px" x="52px" y="48px" /><rect fill="rgb(241,223,200)" height="3px" width="3px" x="54px" y="48px" /><rect fill="rgb(250,232,210)" height="3px" width="3px" x="56px" y="48px" /><rect fill="rgb(160,160,160)" height="3px" width="3px" x="58px" y="48px" /><rect fill="rgb(160,160,160)" height="3px" width="3px" x="2px" y="50px" /><rect fill="rgb(255,235,209)" height="3px" width="3px" x="4px" y="50px" /><rect fill="rgb(255,235,209)" height="3px" width="3px" x="6px" y="50px" /><rect fill="rgb(255,235,209)" height="3px" width="3px" x="8px" y="50px" /><rect fill="rgb(255,235,209)" height="3px" width="3px" x="10px" y="50px" /><rect fill="rgb(255,235,209)" height="3px" width="3px" x="12px" y="50px" /><rect fill="rgb(255,235,209)" height="3px" width="3px" x="14px" y="50px" /><rect fill="rgb(160,160,160)" height="3px" width="3px" x="16px" y="50px" /><rect fill="rgb(255,235,209)" height="3px" width="3px" x="18px" y="50px" /><rect fill="rgb(255,235,209)" height="3px" width="3px" x="20px" y="50px" /><rect fill="rgb(255,235,209)" height="3px" width="3px" x="22px" y="50px" /><rect fill="rgb(255,235,209)" height="3px" width="3px" x="24px" y="50px" /><rect fill="rgb(250,232,210)" height="3px" width="3px" x="26px" y="50px" /><rect fill="rgb(250,232,210)" height="3px" width="3px" x="28px" y="50px" /><rect fill="rgb(250,232,210)" height="3px" width="3px" x="30px" y="50px" /><rect fill="rgb(241,223,200)" height="3px" width="3px" x="32px" y="50px" /><rect fill="rgb(241,223,200)" height="3px" width="3px" x="34px" y="50px" /><rect fill="rgb(233,216,194)" height="3px" width="3px" x="36px" y="50px" /><rect fill="rgb(233,216,194)" height="3px" width="3px" x="38px" y="50px" /><rect fill="rgb(220,204,183)" height="3px" width="3px" x="40px" y="50px" /><rect fill="rgb(210,195,174)" height="3px" width="3px" x="42px" y="50px" /><rect fill="rgb(160,160,160)" height="3px" width="3px" x="44px" y="50px" /><rect fill="rgb(210,195,174)" height="3px" width="3px" x="46px" y="50px" /><rect fill="rgb(220,204,183)" height="3px" width="3px" x="48px" y="50px" /><rect fill="rgb(233,216,194)" height="3px" width="3px" x="50px" y="50px" /><rect fill="rgb(241,223,200)" height="3px" width="3px" x="52px" y="50px" /><rect fill="rgb(241,223,200)" height="3px" width="3px" x="54px" y="50px" /><rect fill="rgb(250,232,210)" height="3px" width="3px" x="56px" y="50px" /><rect fill="rgb(160,160,160)" height="3px" width="3px" x="58px" y="50px" /><rect fill="rgb(160,160,160)" height="3px" width="3px" x="2px" y="52px" /><rect fill="rgb(255,235,209)" height="3px" width="3px" x="4px" y="52px" /><rect fill="rgb(255,235,209)" height="3px" width="3px" x="6px" y="52px" /><rect fill="rgb(255,235,209)" height="3px" width="3px" x="8px" y="52px" /><rect fill="rgb(255,235,209)" height="3px" width="3px" x="10px" y="52px" /><rect fill="rgb(255,235,209)" height="3px" width="3px" x="12px" y="52px" /><rect fill="rgb(255,235,209)" height="3px" width="3px" x="14px" y="52px" /><rect fill="rgb(160,160,160)" height="3px" width="3px" x="16px" y="52px" /><rect fill="rgb(255,235,209)" height="3px" width="3px" x="18px" y="52px" /><rect fill="rgb(255,235,209)" height="3px" width="3px" x="20px" y="52px" /><rect fill="rgb(255,235,209)" height="3px" width="3px" x="22px" y="52px" /><rect fill="rgb(255,235,209)" height="3px" width="3px" x="24px" y="52px" /><rect fill="rgb(255,235,209)" height="3px" width="3px" x="26px" y="52px" /><rect fill="rgb(255,235,209)" height="3px" width="3px" x="28px" y="52px" /><rect fill="rgb(0,0,0)" height="3px" width="3px" x="30px" y="52px" /><rect fill="rgb(233,216,194)" height="3px" width="3px" x="32px" y="52px" /><rect fill="rgb(233,216,194)" height="3px" width="3px" x="34px" y="52px" /><rect fill="rgb(233,216,194)" height="3px" width="3px" x="36px" y="52px" /><rect fill="rgb(233,216,194)" height="3px" width="3px" x="38px" y="52px" /><rect fill="rgb(220,204,183)" height="3px" width="3px" x="40px" y="52px" /><rect fill="rgb(210,195,174)" height="3px" width="3px" x="42px" y="52px" /><rect fill="rgb(160,160,160)" height="3px" width="3px" x="44px" y="52px" /><rect fill="rgb(210,195,174)" height="3px" width="3px" x="46px" y="52px" /><rect fill="rgb(220,204,183)" height="3px" width="3px" x="48px" y="52px" /><rect fill="rgb(233,216,194)" height="3px" width="3px" x="50px" y="52px" /><rect fill="rgb(241,223,200)" height="3px" width="3px" x="52px" y="52px" /><rect fill="rgb(241,223,200)" height="3px" width="3px" x="54px" y="52px" /><rect fill="rgb(250,232,210)" height="3px" width="3px" x="56px" y="52px" /><rect fill="rgb(160,160,160)" height="3px" width="3px" x="58px" y="52px" /><rect fill="rgb(160,160,160)" height="3px" width="3px" x="2px" y="54px" /><rect fill="rgb(255,235,209)" height="3px" width="3px" x="4px" y="54px" /><rect fill="rgb(255,235,209)" height="3px" width="3px" x="6px" y="54px" /><rect fill="rgb(255,235,209)" height="3px" width="3px" x="8px" y="54px" /><rect fill="rgb(255,235,209)" height="3px" width="3px" x="10px" y="54px" /><rect fill="rgb(255,235,209)" height="3px" width="3px" x="12px" y="54px" /><rect fill="rgb(255,235,209)" height="3px" width="3px" x="14px" y="54px" /><rect fill="rgb(160,160,160)" height="3px" width="3px" x="16px" y="54px" /><rect fill="rgb(255,235,209)" height="3px" width="3px" x="18px" y="54px" /><rect fill="rgb(255,235,209)" height="3px" width="3px" x="20px" y="54px" /><rect fill="rgb(255,235,209)" height="3px" width="3px" x="22px" y="54px" /><rect fill="rgb(255,235,209)" height="3px" width="3px" x="24px" y="54px" /><rect fill="rgb(255,235,209)" height="3px" width="3px" x="26px" y="54px" /><rect fill="rgb(0,0,0)" height="3px" width="3px" x="28px" y="54px" /><rect fill="rgb(0,0,0)" height="3px" width="3px" x="30px" y="54px" /><rect fill="rgb(0,0,0)" height="3px" width="3px" x="32px" y="54px" /><rect fill="rgb(220,204,183)" height="3px" width="3px" x="34px" y="54px" /><rect fill="rgb(220,204,183)" height="3px" width="3px" x="36px" y="54px" /><rect fill="rgb(220,204,183)" height="3px" width="3px" x="38px" y="54px" /><rect fill="rgb(220,204,183)" height="3px" width="3px" x="40px" y="54px" /><rect fill="rgb(210,195,174)" height="3px" width="3px" x="42px" y="54px" /><rect fill="rgb(160,160,160)" height="3px" width="3px" x="44px" y="54px" /><rect fill="rgb(210,195,174)" height="3px" width="3px" x="46px" y="54px" /><rect fill="rgb(220,204,183)" height="3px" width="3px" x="48px" y="54px" /><rect fill="rgb(233,216,194)" height="3px" width="3px" x="50px" y="54px" /><rect fill="rgb(241,223,200)" height="3px" width="3px" x="52px" y="54px" /><rect fill="rgb(241,223,200)" height="3px" width="3px" x="54px" y="54px" /><rect fill="rgb(250,232,210)" height="3px" width="3px" x="56px" y="54px" /><rect fill="rgb(160,160,160)" height="3px" width="3px" x="58px" y="54px" /><rect fill="rgb(160,160,160)" height="3px" width="3px" x="2px" y="56px" /><rect fill="rgb(255,235,209)" height="3px" width="3px" x="4px" y="56px" /><rect fill="rgb(255,235,209)" height="3px" width="3px" x="6px" y="56px" /><rect fill="rgb(255,235,209)" height="3px" width="3px" x="8px" y="56px" /><rect fill="rgb(255,235,209)" height="3px" width="3px" x="10px" y="56px" /><rect fill="rgb(255,235,209)" height="3px" width="3px" x="12px" y="56px" /><rect fill="rgb(255,235,209)" height="3px" width="3px" x="14px" y="56px" /><rect fill="rgb(160,160,160)" height="3px" width="3px" x="16px" y="56px" /><rect fill="rgb(255,235,209)" height="3px" width="3px" x="18px" y="56px" /><rect fill="rgb(255,235,209)" height="3px" width="3px" x="20px" y="56px" /><rect fill="rgb(255,235,209)" height="3px" width="3px" x="22px" y="56px" /><rect fill="rgb(255,235,209)" height="3px" width="3px" x="24px" y="56px" /><rect fill="rgb(255,235,209)" height="3px" width="3px" x="26px" y="56px" /><rect fill="rgb(0,0,0)" height="3px" width="3px" x="28px" y="56px" /><rect fill="rgb(0,0,0)" height="3px" width="3px" x="30px" y="56px" /><rect fill="rgb(0,0,0)" height="3px" width="3px" x="32px" y="56px" /><rect fill="rgb(210,195,174)" height="3px" width="3px" x="34px" y="56px" /><rect fill="rgb(210,195,174)" height="3px" width="3px" x="36px" y="56px" /><rect fill="rgb(210,195,174)" height="3px" width="3px" x="38px" y="56px" /><rect fill="rgb(210,195,174)" height="3px" width="3px" x="40px" y="56px" /><rect fill="rgb(210,195,174)" height="3px" width="3px" x="42px" y="56px" /><rect fill="rgb(160,160,160)" height="3px" width="3px" x="44px" y="56px" /><rect fill="rgb(210,195,174)" height="3px" width="3px" x="46px" y="56px" /><rect fill="rgb(220,204,183)" height="3px" width="3px" x="48px" y="56px" /><rect fill="rgb(233,216,194)" height="3px" width="3px" x="50px" y="56px" /><rect fill="rgb(241,223,200)" height="3px" width="3px" x="52px" y="56px" /><rect fill="rgb(241,223,200)" height="3px" width="3px" x="54px" y="56px" /><rect fill="rgb(250,232,210)" height="3px" width="3px" x="56px" y="56px" /><rect fill="rgb(160,160,160)" height="3px" width="3px" x="58px" y="56px" /><rect fill="rgb(160,160,160)" height="3px" width="3px" x="2px" y="58px" /><rect fill="rgb(160,160,160)" height="3px" width="3px" x="4px" y="58px" /><rect fill="rgb(160,160,160)" height="3px" width="3px" x="6px" y="58px" /><rect fill="rgb(160,160,160)" height="3px" width="3px" x="8px" y="58px" /><rect fill="rgb(160,160,160)" height="3px" width="3px" x="10px" y="58px" /><rect fill="rgb(160,160,160)" height="3px" width="3px" x="12px" y="58px" /><rect fill="rgb(160,160,160)" height="3px" width="3px" x="14px" y="58px" /><rect fill="rgb(160,160,160)" height="3px" width="3px" x="16px" y="58px" /><rect fill="rgb(160,160,160)" height="3px" width="3px" x="18px" y="58px" /><rect fill="rgb(160,160,160)" height="3px" width="3px" x="20px" y="58px" /><rect fill="rgb(160,160,160)" height="3px" width="3px" x="22px" y="58px" /><rect fill="rgb(160,160,160)" height="3px" width="3px" x="24px" y="58px" /><rect fill="rgb(160,160,160)" height="3px" width="3px" x="26px" y="58px" /><rect fill="rgb(0,0,0)" height="3px" width="3px" x="28px" y="58px" /><rect fill="rgb(0,0,0)" height="3px" width="3px" x="30px" y="58px" /><rect fill="rgb(0,0,0)" height="3px" width="3px" x="32px" y="58px" /><rect fill="rgb(160,160,160)" height="3px" width="3px" x="34px" y="58px" /><rect fill="rgb(160,160,160)" height="3px" width="3px" x="36px" y="58px" /><rect fill="rgb(160,160,160)" height="3px" width="3px" x="38px" y="58px" /><rect fill="rgb(160,160,160)" height="3px" width="3px" x="40px" y="58px" /><rect fill="rgb(160,160,160)" height="3px" width="3px" x="42px" y="58px" /><rect fill="rgb(160,160,160)" height="3px" width="3px" x="44px" y="58px" /><rect fill="rgb(160,160,160)" height="3px" width="3px" x="46px" y="58px" /><rect fill="rgb(160,160,160)" height="3px" width="3px" x="48px" y="58px" /><rect fill="rgb(160,160,160)" height="3px" width="3px" x="50px" y="58px" /><rect fill="rgb(160,160,160)" height="3px" width="3px" x="52px" y="58px" /><rect fill="rgb(160,160,160)" height="3px" width="3px" x="54px" y="58px" /><rect fill="rgb(160,160,160)" height="3px" width="3px" x="56px" y="58px" /><rect fill="rgb(160,160,160)" height="3px" width="3px" x="58px" y="58px" /></svg>