<?xml version="1.0" encoding="utf-8" ?>
<svg baseProfile="full" height="64px" version="1.1" width="64px" xmlns="http://www.w3.org/2000/svg" xmlns:ev="http://www.w3.org/2001/xml-events" xmlns:xlink="http://www.w3.org/1999/xlink"><defs /><rect fill="rgb(160,160,160)" height="3px" width="3px" x="32px" y="22px" /><rect fill="rgb(160,160,160)" height="3px" width="3px" x="34px" y="22px" /><rect fill="rgb(160,160,160)" height="3px" width="3px" x="36px" y="22px" /><rect fill="rgb(160,160,160)" height="3px" width="3px" x="38px" y="22px" /><rect fill="rgb(160,160,160)" height="3px" width="3px" x="40px" y="22px" /><rect fill="rgb(160,160,160)" height="3px" width="3px" x="42px" y="22px" /><rect fill="rgb(160,160,160)" height="3px" width="3px" x="44px" y="22px" /><rect fill="rgb(160,160,160)" height="3px" width="3px" x="46px" y="22px" /><rect fill="rgb(160,160,160)" height="3px" width="3px" x="48px" y="22px" /><rect fill="rgb(160,160,160)" height="3px" width="3px" x="50px" y="22px" /><rect fill="rgb(160,160,160)" height="3px" width="3px" x="52px" y="22px" /><rect fill="rgb(160,160,160)" height="3px" width="3px" x="54px" y="22px" /><rect fill="rgb(160,160,160)" height="3px" width="3px" x="56px" y="22px" /><rect fill="rgb(0,0,0)" height="3px" opacity="0.0078431372549" width="3px" x="32px" y="24px" /><rect fill="rgb(160,160,160)" height="3px" width="3px" x="34px" y="24px" /><rect fill="rgb(160,160,160)" height="3px" width="3px" x="36px" y="24px" /><rect fill="rgb(160,160,160)" height="3px" width="3px" x="38px" y="24px" /><rect fill="rgb(160,160,160)" height="3px" width="3px" x="40px" y="24px" /><rect fill="rgb(160,160,160)" height="3px" width="3px" x="42px" y="24px" /><rect fill="rgb(160,160,160)" height="3px" width="3px" x="44px" y="24px" /><rect fill="rgb(160,160,160)" height="3px" width="3px" x="46px" y="24px" /><rect fill="rgb(160,160,160)" height="3px" width="3px" x="48px" y="24px" /><rect fill="rgb(160,160,160)" height="3px" width="3px" x="50px" y="24px" /><rect fill="rgb(160,160,160)" height="3px" width="3px" x="52px" y="24px" /><rect fill="rgb(160,160,160)" height="3px" width="3px" x="54px" y="24px" /><rect fill="rgb(160,160,160)" height="3px" width="3px" x="36px" y="26px" /><rect fill="rgb(160,160,160)" height="3px" width="3px" x="38px" y="26px" /><rect fill="rgb(160,160,160)" height="3px" width="3px" x="40px" y="26px" /><rect fill="rgb(160,160,160)" height="3px" width="3px" x="42px" y="26px" /><rect fill="rgb(160,160,160)" height="3px" width="3px" x="44px" y="26px" /><rect fill="rgb(160,160,160)" height="3px" width="3px" x="46px" y="26px" /><rect fill="rgb(160,160,160)" height="3px" width="3px" x="48px" y="26px" /><rect fill="rgb(160,160,160)" height="3px" width="3px" x="50px" y="26px" /><rect fill="rgb(160,160,160)" height="3px" width="3px" x="52px" y="26px" /><rect fill="rgb(164,164,164)" height="3px" opacity="0.329411764706" width="3px" x="10px" y="28px" /><rect fill="rgb(163,163,163)" height="3px" width="3px" x="12px" y="28px" /><rect fill="rgb(163,163,163)" height="3px" width="3px" x="14px" y="28px" /><rect fill="rgb(163,163,163)" height="3px" width="3px" x="16px" y="28px" /><rect fill="rgb(165,165,165)" height="3px" opacity="0.133333333333" width="3px" x="18px" y="28px" /><rect fill="rgb(160,160,160)" height="3px" width="3px" x="36px" y="28px" /><rect fill="rgb(160,160,160)" height="3px" width="3px" x="38px" y="28px" /><rect fill="rgb(160,160,160)" height="3px" width="3px" x="40px" y="28px" /><rect fill="rgb(160,160,160)" height="3px" width="3px" x="42px" y="28px" /><rect fill="rgb(160,160,160)" height="3px" width="3px" x="44px" y="28px" /><rect fill="rgb(160,160,160)" height="3px" width="3px" x="46px" y="28px" /><rect fill="rgb(160,160,160)" height="3px" width="3px" x="48px" y="28px" /><rect fill="rgb(160,160,160)" height="3px" width="3px" x="50px" y="28px" /><rect fill="rgb(160,160,160)" height="3px" width="3px" x="52px" y="28px" /><rect fill="rgb(163,163,163)" height="3px" opacity="0.313725490196" width="3px" x="6px" y="30px" /><rect fill="rgb(163,163,163)" height="3px" opacity="0.988235294118" width="3px" x="8px" y="30px" /><rect fill="rgb(163,163,163)" height="3px" width="3px" x="10px" y="30px" /><rect fill="rgb(163,163,163)" height="3px" width="3px" x="12px" y="30px" /><rect fill="rgb(163,163,163)" height="3px" width="3px" x="14px" y="30px" /><rect fill="rgb(163,163,163)" height="3px" width="3px" x="16px" y="30px" /><rect fill="rgb(163,163,163)" height="3px" width="3px" x="18px" y="30px" /><rect fill="rgb(163,163,163)" height="3px" opacity="0.952941176471" width="3px" x="20px" y="30px" /><rect fill="rgb(162,162,162)" height="3px" opacity="0.117647058824" width="3px" x="22px" y="30px" /><rect fill="rgb(160,160,160)" height="3px" width="3px" x="36px" y="30px" /><rect fill="rgb(160,160,160)" height="3px" width="3px" x="38px" y="30px" /><rect fill="rgb(160,160,160)" height="3px" width="3px" x="40px" y="30px" /><rect fill="rgb(160,160,160)" height="3px" width="3px" x="42px" y="30px" /><rect fill="rgb(160,160,160)" height="3px" width="3px" x="44px" y="30px" /><rect fill="rgb(160,160,160)" height="3px" width="3px" x="46px" y="30px" /><rect fill="rgb(160,160,160)" height="3px" width="3px" x="48px" y="30px" /><rect fill="rgb(160,160,160)" height="3px" width="3px" x="50px" y="30px" /><rect fill="rgb(160,160,160)" height="3px" width="3px" x="52px" y="30px" /><rect fill="rgb(162,162,162)" height="3px" opacity="0.21568627451" width="3px" x="4px" y="32px" /><rect fill="rgb(163,163,163)" height="3px" width="3px" x="6px" y="32px" /><rect fill="rgb(163,163,163)" height="3px" width="3px" x="8px" y="32px" /><rect fill="rgb(163,163,163)" height="3px" width="3px" x="10px" y="32px" /><rect fill="rgb(163,163,163)" height="3px" width="3px" x="12px" y="32px" /><rect fill="rgb(163,163,163)" height="3px" width="3px" x="14px" y="32px" /><rect fill="rgb(163,163,163)" height="3px" width="3px" x="16px" y="32px" /><rect fill="rgb(163,163,163)" height="3px" width="3px" x="18px" y="32px" /><rect fill="rgb(163,163,163)" height="3px" width="3px" x="20px" y="32px" /><rect fill="rgb(163,163,163)" height="3px" opacity="0.996078431373" width="3px" x="22px" y="32px" /><rect fill="rgb(159,159,159)" height="3px" opacity="0.0941176470588" width="3px" x="24px" y="32px" /><rect fill="rgb(0,38,255)" height="3px" width="3px" x="36px" y="32px" /><rect fill="rgb(0,38,255)" height="3px" width="3px" x="38px" y="32px" /><rect fill="rgb(0,38,255)" height="3px" width="3px" x="40px" y="32px" /><rect fill="rgb(0,38,255)" height="3px" width="3px" x="42px" y="32px" /><rect fill="rgb(0,38,255)" height="3px" width="3px" x="44px" y="32px" /><rect fill="rgb(0,38,255)" height="3px" width="3px" x="46px" y="32px" /><rect fill="rgb(0,38,255)" height="3px" width="3px" x="48px" y="32px" /><rect fill="rgb(0,38,255)" height="3px" width="3px" x="50px" y="32px" /><rect fill="rgb(0,38,255)" height="3px" width="3px" x="52px" y="32px" /><rect fill="rgb(163,163,163)" height="3px" opacity="0.941176470588" width="3px" x="4px" y="34px" /><rect fill="rgb(163,163,163)" height="3px" width="3px" x="6px" y="34px" /><rect fill="rgb(163,163,163)" height="3px" width="3px" x="8px" y="34px" /><rect fill="rgb(163,163,163)" height="3px" width="3px" x="10px" y="34px" /><rect fill="rgb(163,163,163)" height="3px" width="3px" x="12px" y="34px" /><rect fill="rgb(163,163,163)" height="3px" width="3px" x="14px" y="34px" /><rect fill="rgb(163,163,163)" height="3px" width="3px" x="16px" y="34px" /><rect fill="rgb(163,163,163)" height="3px" width="3px" x="18px" y="34px" /><rect fill="rgb(163,163,163)" height="3px" width="3px" x="20px" y="34px" /><rect fill="rgb(163,163,163)" height="3px" width="3px" x="22px" y="34px" /><rect fill="rgb(163,163,163)" height="3px" opacity="0.894117647059" width="3px" x="24px" y="34px" /><rect fill="rgb(0,38,255)" height="3px" width="3px" x="36px" y="34px" /><rect fill="rgb(0,38,255)" height="3px" width="3px" x="38px" y="34px" /><rect fill="rgb(0,38,255)" height="3px" width="3px" x="40px" y="34px" /><rect fill="rgb(0,38,255)" height="3px" width="3px" x="42px" y="34px" /><rect fill="rgb(0,38,255)" height="3px" width="3px" x="44px" y="34px" /><rect fill="rgb(0,38,255)" height="3px" width="3px" x="46px" y="34px" /><rect fill="rgb(0,38,255)" height="3px" width="3px" x="48px" y="34px" /><rect fill="rgb(0,38,255)" height="3px" width="3px" x="50px" y="34px" /><rect fill="rgb(0,38,255)" height="3px" width="3px" x="52px" y="34px" /><rect fill="rgb(0,0,0)" height="3px" opacity="0.0078431372549" width="3px" x="54px" y="34px" /><rect fill="rgb(163,163,163)" height="3px" width="3px" x="4px" y="36px" /><rect fill="rgb(163,163,163)" height="3px" width="3px" x="6px" y="36px" /><rect fill="rgb(163,163,163)" height="3px" width="3px" x="8px" y="36px" /><rect fill="rgb(163,163,163)" height="3px" width="3px" x="10px" y="36px" /><rect fill="rgb(163,163,163)" height="3px" width="3px" x="12px" y="36px" /><rect fill="rgb(163,163,163)" height="3px" width="3px" x="14px" y="36px" /><rect fill="rgb(163,163,163)" height="3px" width="3px" x="16px" y="36px" /><rect fill="rgb(163,163,163)" height="3px" width="3px" x="18px" y="36px" /><rect fill="rgb(163,163,163)" height="3px" width="3px" x="20px" y="36px" /><rect fill="rgb(163,163,163)" height="3px" width="3px" x="22px" y="36px" /><rect fill="rgb(163,163,163)" height="3px" opacity="0.996078431373" width="3px" x="24px" y="36px" /><rect fill="rgb(160,160,160)" height="3px" width="3px" x="34px" y="36px" /><rect fill="rgb(160,160,160)" height="3px" width="3px" x="36px" y="36px" /><rect fill="rgb(160,160,160)" height="3px" width="3px" x="38px" y="36px" /><rect fill="rgb(160,160,160)" height="3px" width="3px" x="40px" y="36px" /><rect fill="rgb(160,160,160)" height="3px" width="3px" x="42px" y="36px" /><rect fill="rgb(160,160,160)" height="3px" width="3px" x="44px" y="36px" /><rect fill="rgb(160,160,160)" height="3px" width="3px" x="46px" y="36px" /><rect fill="rgb(160,160,160)" height="3px" width="3px" x="48px" y="36px" /><rect fill="rgb(160,160,160)" height="3px" width="3px" x="50px" y="36px" /><rect fill="rgb(160,160,160)" height="3px" width="3px" x="52px" y="36px" /><rect fill="rgb(160,160,160)" height="3px" width="3px" x="54px" y="36px" /><rect fill="rgb(163,163,163)" height="3px" width="3px" x="4px" y="38px" /><rect fill="rgb(163,163,163)" height="3px" width="3px" x="6px" y="38px" /><rect fill="rgb(163,163,163)" height="3px" width="3px" x="8px" y="38px" /><rect fill="rgb(163,163,163)" height="3px" width="3px" x="10px" y="38px" /><rect fill="rgb(163,163,163)" height="3px" width="3px" x="12px" y="38px" /><rect fill="rgb(163,163,163)" height="3px" width="3px" x="14px" y="38px" /><rect fill="rgb(163,163,163)" height="3px" width="3px" x="16px" y="38px" /><rect fill="rgb(163,163,163)" height="3px" width="3px" x="18px" y="38px" /><rect fill="rgb(163,163,163)" height="3px" width="3px" x="20px" y="38px" /><rect fill="rgb(163,163,163)" height="3px" width="3px" x="22px" y="38px" /><rect fill="rgb(163,163,163)" height="3px" width="3px" x="24px" y="38px" /><rect fill="rgb(160,160,160)" height="3px" width="3px" x="34px" y="38px" /><rect fill="rgb(160,160,160)" height="3px" width="3px" x="36px" y="38px" /><rect fill="rgb(160,160,160)" height="3px" width="3px" x="38px" y="38px" /><rect fill="rgb(160,160,160)" height="3px" width="3px" x="40px" y="38px" /><rect fill="rgb(160,160,160)" height="3px" width="3px" x="42px" y="38px" /><rect fill="rgb(160,160,160)" height="3px" width="3px" x="44px" y="38px" /><rect fill="rgb(160,160,160)" height="3px" width="3px" x="46px" y="38px" /><rect fill="rgb(160,160,160)" height="3px" width="3px" x="48px" y="38px" /><rect fill="rgb(160,160,160)" height="3px" width="3px" x="50px" y="38px" /><rect fill="rgb(160,160,160)" height="3px" width="3px" x="52px" y="38px" /><rect fill="rgb(160,160,160)" height="3px" width="3px" x="54px" y="38px" /><rect fill="rgb(55,55,55)" height="3px" width="3px" x="4px" y="40px" /><rect fill="rgb(55,55,55)" height="3px" width="3px" x="6px" y="40px" /><rect fill="rgb(55,55,55)" height="3px" width="3px" x="8px" y="40px" /><rect fill="rgb(55,55,55)" height="3px" width="3px" x="10px" y="40px" /><rect fill="rgb(55,55,55)" height="3px" width="3px" x="12px" y="40px" /><rect fill="rgb(55,55,55)" height="3px" width="3px" x="14px" y="40px" /><rect fill="rgb(55,55,55)" height="3px" width="3px" x="16px" y="40px" /><rect fill="rgb(55,55,55)" height="3px" width="3px" x="18px" y="40px" /><rect fill="rgb(55,55,55)" height="3px" width="3px" x="20px" y="40px" /><rect fill="rgb(55,55,55)" height="3px" width="3px" x="22px" y="40px" /><rect fill="rgb(55,55,55)" height="3px" width="3px" x="24px" y="40px" /><rect fill="rgb(43,43,43)" height="3px" opacity="0.0235294117647" width="3px" x="32px" y="40px" /><rect fill="rgb(160,160,160)" height="3px" width="3px" x="34px" y="40px" /><rect fill="rgb(160,160,160)" height="3px" width="3px" x="36px" y="40px" /><rect fill="rgb(160,160,160)" height="3px" width="3px" x="38px" y="40px" /><rect fill="rgb(160,160,160)" height="3px" width="3px" x="40px" y="40px" /><rect fill="rgb(160,160,160)" height="3px" width="3px" x="42px" y="40px" /><rect fill="rgb(160,160,160)" height="3px" width="3px" x="44px" y="40px" /><rect fill="rgb(160,160,160)" height="3px" width="3px" x="46px" y="40px" /><rect fill="rgb(160,160,160)" height="3px" width="3px" x="48px" y="40px" /><rect fill="rgb(160,160,160)" height="3px" width="3px" x="50px" y="40px" /><rect fill="rgb(160,160,160)" height="3px" width="3px" x="52px" y="40px" /><rect fill="rgb(160,160,160)" height="3px" width="3px" x="54px" y="40px" /><rect fill="rgb(55,55,55)" height="3px" width="3px" x="4px" y="42px" /><rect fill="rgb(109,109,109)" height="3px" width="3px" x="6px" y="42px" /><rect fill="rgb(109,109,109)" height="3px" width="3px" x="8px" y="42px" /><rect fill="rgb(109,109,109)" height="3px" width="3px" x="10px" y="42px" /><rect fill="rgb(109,109,109)" height="3px" width="3px" x="12px" y="42px" /><rect fill="rgb(109,109,109)" height="3px" width="3px" x="14px" y="42px" /><rect fill="rgb(109,109,109)" height="3px" width="3px" x="16px" y="42px" /><rect fill="rgb(109,109,109)" height="3px" width="3px" x="18px" y="42px" /><rect fill="rgb(109,109,109)" height="3px" width="3px" x="20px" y="42px" /><rect fill="rgb(109,109,109)" height="3px" width="3px" x="22px" y="42px" /><rect fill="rgb(55,55,55)" height="3px" width="3px" x="24px" y="42px" /><rect fill="rgb(160,160,160)" height="3px" width="3px" x="32px" y="42px" /><rect fill="rgb(160,160,160)" height="3px" width="3px" x="34px" y="42px" /><rect fill="rgb(160,160,160)" height="3px" width="3px" x="36px" y="42px" /><rect fill="rgb(160,160,160)" height="3px" width="3px" x="38px" y="42px" /><rect fill="rgb(160,160,160)" height="3px" width="3px" x="40px" y="42px" /><rect fill="rgb(160,160,160)" height="3px" width="3px" x="42px" y="42px" /><rect fill="rgb(160,160,160)" height="3px" width="3px" x="44px" y="42px" /><rect fill="rgb(160,160,160)" height="3px" width="3px" x="46px" y="42px" /><rect fill="rgb(160,160,160)" height="3px" width="3px" x="48px" y="42px" /><rect fill="rgb(160,160,160)" height="3px" width="3px" x="50px" y="42px" /><rect fill="rgb(160,160,160)" height="3px" width="3px" x="52px" y="42px" /><rect fill="rgb(160,160,160)" height="3px" width="3px" x="54px" y="42px" /><rect fill="rgb(64,64,64)" height="3px" opacity="0.0313725490196" width="3px" x="56px" y="42px" /><rect fill="rgb(55,55,55)" height="3px" width="3px" x="4px" y="44px" /><rect fill="rgb(109,109,109)" height="3px" width="3px" x="6px" y="44px" /><rect fill="rgb(55,55,55)" height="3px" width="3px" x="8px" y="44px" /><rect fill="rgb(55,55,55)" height="3px" width="3px" x="10px" y="44px" /><rect fill="rgb(109,109,109)" height="3px" width="3px" x="12px" y="44px" /><rect fill="rgb(109,109,109)" height="3px" width="3px" x="14px" y="44px" /><rect fill="rgb(109,109,109)" height="3px" width="3px" x="16px" y="44px" /><rect fill="rgb(55,55,55)" height="3px" width="3px" x="18px" y="44px" /><rect fill="rgb(55,55,55)" height="3px" width="3px" x="20px" y="44px" /><rect fill="rgb(109,109,109)" height="3px" width="3px" x="22px" y="44px" /><rect fill="rgb(55,55,55)" height="3px" width="3px" x="24px" y="44px" /><rect fill="rgb(160,160,160)" height="3px" width="3px" x="32px" y="44px" /><rect fill="rgb(160,160,160)" height="3px" width="3px" x="34px" y="44px" /><rect fill="rgb(160,160,160)" height="3px" width="3px" x="36px" y="44px" /><rect fill="rgb(160,160,160)" height="3px" width="3px" x="38px" y="44px" /><rect fill="rgb(160,160,160)" height="3px" width="3px" x="40px" y="44px" /><rect fill="rgb(160,160,160)" height="3px" width="3px" x="42px" y="44px" /><rect fill="rgb(160,160,160)" height="3px" width="3px" x="44px" y="44px" /><rect fill="rgb(160,160,160)" height="3px" width="3px" x="46px" y="44px" /><rect fill="rgb(160,160,160)" height="3px" width="3px" x="48px" y="44px" /><rect fill="rgb(160,160,160)" height="3px" width="3px" x="50px" y="44px" /><rect fill="rgb(160,160,160)" height="3px" width="3px" x="52px" y="44px" /><rect fill="rgb(160,160,160)" height="3px" width="3px" x="54px" y="44px" /><rect fill="rgb(160,160,160)" height="3px" width="3px" x="56px" y="44px" /><rect fill="rgb(55,55,55)" height="3px" width="3px" x="4px" y="46px" /><rect fill="rgb(109,109,109)" height="3px" width="3px" x="6px" y="46px" /><rect fill="rgb(109,109,109)" height="3px" width="3px" x="8px" y="46px" /><rect fill="rgb(109,109,109)" height="3px" width="3px" x="10px" y="46px" /><rect fill="rgb(109,109,109)" height="3px" width="3px" x="12px" y="46px" /><rect fill="rgb(109,109,109)" height="3px" width="3px" x="14px" y="46px" /><rect fill="rgb(109,109,109)" height="3px" width="3px" x="16px" y="46px" /><rect fill="rgb(109,109,109)" height="3px" width="3px" x="18px" y="46px" /><rect fill="rgb(109,109,109)" height="3px" width="3px" x="20px" y="46px" /><rect fill="rgb(109,109,109)" height="3px" width="3px" x="22px" y="46px" /><rect fill="rgb(55,55,55)" height="3px" width="3px" x="24px" y="46px" /><rect fill="rgb(43,43,43)" height="3px" opacity="0.0235294117647" width="3px" x="30px" y="46px" /><rect fill="rgb(160,160,160)" height="3px" width="3px" x="32px" y="46px" /><rect fill="rgb(160,160,160)" height="3px" width="3px" x="34px" y="46px" /><rect fill="rgb(160,160,160)" height="3px" width="3px" x="36px" y="46px" /><rect fill="rgb(160,160,160)" height="3px" width="3px" x="38px" y="46px" /><rect fill="rgb(160,160,160)" height="3px" width="3px" x="40px" y="46px" /><rect fill="rgb(160,160,160)" height="3px" width="3px" x="42px" y="46px" /><rect fill="rgb(160,160,160)" height="3px" width="3px" x="44px" y="46px" /><rect fill="rgb(160,160,160)" height="3px" width="3px" x="46px" y="46px" /><rect fill="rgb(160,160,160)" height="3px" width="3px" x="48px" y="46px" /><rect fill="rgb(160,160,160)" height="3px" width="3px" x="50px" y="46px" /><rect fill="rgb(160,160,160)" height="3px" width="3px" x="52px" y="46px" /><rect fill="rgb(160,160,160)" height="3px" width="3px" x="54px" y="46px" /><rect fill="rgb(160,160,160)" height="3px" width="3px" x="56px" y="46px" /><rect fill="rgb(55,55,55)" height="3px" width="3px" x="4px" y="48px" /><rect fill="rgb(109,109,109)" height="3px" width="3px" x="6px" y="48px" /><rect fill="rgb(109,109,109)" height="3px" width="3px" x="8px" y="48px" /><rect fill="rgb(109,109,109)" height="3px" width="3px" x="10px" y="48px" /><rect fill="rgb(55,55,55)" height="3px" width="3px" x="12px" y="48px" /><rect fill="rgb(55,55,55)" height="3px" width="3px" x="14px" y="48px" /><rect fill="rgb(55,55,55)" height="3px" width="3px" x="16px" y="48px" /><rect fill="rgb(109,109,109)" height="3px" width="3px" x="18px" y="48px" /><rect fill="rgb(109,109,109)" height="3px" width="3px" x="20px" y="48px" /><rect fill="rgb(109,109,109)" height="3px" width="3px" x="22px" y="48px" /><rect fill="rgb(55,55,55)" height="3px" width="3px" x="24px" y="48px" /><rect fill="rgb(160,160,160)" height="3px" width="3px" x="30px" y="48px" /><rect fill="rgb(160,160,160)" height="3px" width="3px" x="32px" y="48px" /><rect fill="rgb(160,160,160)" height="3px" width="3px" x="34px" y="48px" /><rect fill="rgb(160,160,160)" height="3px" width="3px" x="36px" y="48px" /><rect fill="rgb(160,160,160)" height="3px" width="3px" x="38px" y="48px" /><rect fill="rgb(160,160,160)" height="3px" width="3px" x="40px" y="48px" /><rect fill="rgb(160,160,160)" height="3px" width="3px" x="42px" y="48px" /><rect fill="rgb(160,160,160)" height="3px" width="3px" x="44px" y="48px" /><rect fill="rgb(160,160,160)" height="3px" width="3px" x="46px" y="48px" /><rect fill="rgb(160,160,160)" height="3px" width="3px" x="48px" y="48px" /><rect fill="rgb(160,160,160)" height="3px" width="3px" x="50px" y="48px" /><rect fill="rgb(160,160,160)" height="3px" width="3px" x="52px" y="48px" /><rect fill="rgb(160,160,160)" height="3px" width="3px" x="54px" y="48px" /><rect fill="rgb(160,160,160)" height="3px" width="3px" x="56px" y="48px" /><rect fill="rgb(0,0,0)" height="3px" opacity="0.00392156862745" width="3px" x="58px" y="48px" /><rect fill="rgb(55,55,55)" height="3px" width="3px" x="4px" y="50px" /><rect fill="rgb(109,109,109)" height="3px" width="3px" x="6px" y="50px" /><rect fill="rgb(109,109,109)" height="3px" width="3px" x="8px" y="50px" /><rect fill="rgb(109,109,109)" height="3px" width="3px" x="10px" y="50px" /><rect fill="rgb(55,55,55)" height="3px" width="3px" x="12px" y="50px" /><rect fill="rgb(109,109,109)" height="3px" width="3px" x="14px" y="50px" /><rect fill="rgb(55,55,55)" height="3px" width="3px" x="16px" y="50px" /><rect fill="rgb(109,109,109)" height="3px" width="3px" x="18px" y="50px" /><rect fill="rgb(109,109,109)" height="3px" width="3px" x="20px" y="50px" /><rect fill="rgb(109,109,109)" height="3px" width="3px" x="22px" y="50px" /><rect fill="rgb(55,55,55)" height="3px" width="3px" x="24px" y="50px" /><rect fill="rgb(0,38,255)" height="3px" width="3px" x="30px" y="50px" /><rect fill="rgb(0,38,255)" height="3px" width="3px" x="32px" y="50px" /><rect fill="rgb(0,38,255)" height="3px" width="3px" x="34px" y="50px" /><rect fill="rgb(0,38,255)" height="3px" width="3px" x="36px" y="50px" /><rect fill="rgb(0,38,255)" height="3px" width="3px" x="38px" y="50px" /><rect fill="rgb(0,38,255)" height="3px" width="3px" x="40px" y="50px" /><rect fill="rgb(0,38,255)" height="3px" width="3px" x="42px" y="50px" /><rect fill="rgb(0,38,255)" height="3px" width="3px" x="44px" y="50px" /><rect fill="rgb(0,38,255)" height="3px" width="3px" x="46px" y="50px" /><rect fill="rgb(0,38,255)" height="3px" width="3px" x="48px" y="50px" /><rect fill="rgb(0,38,255)" height="3px" width="3px" x="50px" y="50px" /><rect fill="rgb(0,38,255)" height="3px" width="3px" x="52px" y="50px" /><rect fill="rgb(0,38,255)" height="3px" width="3px" x="54px" y="50px" /><rect fill="rgb(0,38,255)" height="3px" width="3px" x="56px" y="50px" /><rect fill="rgb(0,38,255)" height="3px" width="3px" x="58px" y="50px" /><rect fill="rgb(55,55,55)" height="3px" width="3px" x="4px" y="52px" /><rect fill="rgb(109,109,109)" height="3px" width="3px" x="6px" y="52px" /><rect fill="rgb(109,109,109)" height="3px" width="3px" x="8px" y="52px" /><rect fill="rgb(109,109,109)" height="3px" width="3px" x="10px" y="52px" /><rect fill="rgb(55,55,55)" height="3px" width="3px" x="12px" y="52px" /><rect fill="rgb(109,109,109)" height="3px" width="3px" x="14px" y="52px" /><rect fill="rgb(55,55,55)" height="3px" width="3px" x="16px" y="52px" /><rect fill="rgb(109,109,109)" height="3px" width="3px" x="18px" y="52px" /><rect fill="rgb(109,109,109)" height="3px" width="3px" x="20px" y="52px" /><rect fill="rgb(109,109,109)" height="3px" width="3px" x="22px" y="52px" /><rect fill="rgb(55,55,55)" height="3px" width="3px" x="24px" y="52px" /><rect fill="rgb(0,38,255)" height="3px" width="3px" x="28px" y="52px" /><rect fill="rgb(0,38,255)" height="3px" width="3px" x="30px" y="52px" /><rect fill="rgb(0,38,255)" height="3px" width="3px" x="32px" y="52px" /><rect fill="rgb(0,38,255)" height="3px" width="3px" x="34px" y="52px" /><rect fill="rgb(0,38,255)" height="3px" width="3px" x="36px" y="52px" /><rect fill="rgb(0,38,255)" height="3px" width="3px" x="38px" y="52px" /><rect fill="rgb(0,38,255)" height="3px" width="3px" x="40px" y="52px" /><rect fill="rgb(0,38,255)" height="3px" width="3px" x="42px" y="52px" /><rect fill="rgb(0,38,255)" height="3px" width="3px" x="44px" y="52px" /><rect fill="rgb(0,38,255)" height="3px" width="3px" x="46px" y="52px" /><rect fill="rgb(0,38,255)" height="3px" width="3px" x="48px" y="52px" /><rect fill="rgb(0,38,255)" height="3px" width="3px" x="50px" y="52px" /><rect fill="rgb(0,38,255)" height="3px" width="3px" x="52px" y="52px" /><rect fill="rgb(0,38,255)" height="3px" width="3px" x="54px" y="52px" /><rect fill="rgb(0,38,255)" height="3px" width="3px" x="56px" y="52px" /><rect fill="rgb(0,38,255)" height="3px" width="3px" x="58px" y="52px" /><rect fill="rgb(55,55,55)" height="3px" width="3px" x="4px" y="54px" /><rect fill="rgb(55,55,55)" height="3px" width="3px" x="6px" y="54px" /><rect fill="rgb(55,55,55)" height="3px" width="3px" x="8px" y="54px" /><rect fill="rgb(55,55,55)" height="3px" width="3px" x="10px" y="54px" /><rect fill="rgb(55,55,55)" height="3px" width="3px" x="12px" y="54px" /><rect fill="rgb(55,55,55)" height="3px" width="3px" x="14px" y="54px" /><rect fill="rgb(55,55,55)" height="3px" width="3px" x="16px" y="54px" /><rect fill="rgb(55,55,55)" height="3px" width="3px" x="18px" y="54px" /><rect fill="rgb(55,55,55)" height="3px" width="3px" x="20px" y="54px" /><rect fill="rgb(55,55,55)" height="3px" width="3px" x="22px" y="54px" /><rect fill="rgb(55,55,55)" height="3px" width="3px" x="24px" y="54px" /><rect fill="rgb(160,160,160)" height="3px" width="3px" x="28px" y="54px" /><rect fill="rgb(160,160,160)" height="3px" width="3px" x="30px" y="54px" /><rect fill="rgb(160,160,160)" height="3px" width="3px" x="32px" y="54px" /><rect fill="rgb(160,160,160)" height="3px" width="3px" x="34px" y="54px" /><rect fill="rgb(160,160,160)" height="3px" width="3px" x="36px" y="54px" /><rect fill="rgb(160,160,160)" height="3px" width="3px" x="38px" y="54px" /><rect fill="rgb(160,160,160)" height="3px" width="3px" x="40px" y="54px" /><rect fill="rgb(160,160,160)" height="3px" width="3px" x="42px" y="54px" /><rect fill="rgb(160,160,160)" height="3px" width="3px" x="44px" y="54px" /><rect fill="rgb(160,160,160)" height="3px" width="3px" x="46px" y="54px" /><rect fill="rgb(160,160,160)" height="3px" width="3px" x="48px" y="54px" /><rect fill="rgb(160,160,160)" height="3px" width="3px" x="50px" y="54px" /><rect fill="rgb(160,160,160)" height="3px" width="3px" x="52px" y="54px" /><rect fill="rgb(160,160,160)" height="3px" width="3px" x="54px" y="54px" /><rect fill="rgb(160,160,160)" height="3px" width="3px" x="56px" y="54px" /><rect fill="rgb(160,160,160)" height="3px" width="3px" x="58px" y="54px" /><rect fill="rgb(160,160,160)" height="3px" width="3px" x="60px" y="54px" /><rect fill="rgb(61,61,61)" height="3px" opacity="0.0823529411765" width="3px" x="44px" y="56px" /><rect fill="rgb(59,59,59)" height="3px" opacity="0.101960784314" width="3px" x="46px" y="56px" /><rect fill="rgb(57,57,57)" height="3px" opacity="0.105882352941" width="3px" x="48px" y="56px" /><rect fill="rgb(57,57,57)" height="3px" opacity="0.105882352941" width="3px" x="50px" y="56px" /></svg>